<?xml version="1.0" encoding="UTF-8" standalone="no"?>
<!DOCTYPE svg PUBLIC "-//W3C//DTD SVG 1.1//EN"
 "http://www.w3.org/Graphics/SVG/1.1/DTD/svg11.dtd">
<!-- Generated by graphviz version 2.40.1 (20161225.0304)
 -->
<!-- Title: DJI::OSDK::GimbalModule Pages: 1 -->
<svg width="143pt" height="292pt"
 viewBox="0.00 0.00 143.00 292.00" xmlns="http://www.w3.org/2000/svg" xmlns:xlink="http://www.w3.org/1999/xlink">
<g id="graph0" class="graph" transform="scale(1 1) rotate(0) translate(4 288)">
<title>DJI::OSDK::GimbalModule</title>
<polygon fill="#ffffff" stroke="transparent" points="-4,4 -4,-288 139,-288 139,4 -4,4"/>
<!-- Node0 -->
<g id="node1" class="node">
<title>Node0</title>
<g id="a_node1"><a xlink:title="gimbal module">
<polygon fill="#bfbfbf" stroke="#000000" points="0,-.5 0,-112.5 135,-112.5 135,-.5 0,-.5"/>
<text text-anchor="middle" x="67.5" y="-100.5" font-family="Helvetica,sans-Serif" font-size="10.00" fill="#000000">DJI::OSDK::GimbalModule</text>
<polyline fill="none" stroke="#000000" points="0,-93.5 135,-93.5 "/>
<text text-anchor="middle" x="67.5" y="-81.5" font-family="Helvetica,sans-Serif" font-size="10.00" fill="#000000"> </text>
<polyline fill="none" stroke="#000000" points="0,-74.5 135,-74.5 "/>
<text text-anchor="start" x="8" y="-62.5" font-family="Helvetica,sans-Serif" font-size="10.00" fill="#000000">+ GimbalModule()</text>
<text text-anchor="start" x="8" y="-51.5" font-family="Helvetica,sans-Serif" font-size="10.00" fill="#000000">+ ~GimbalModule()</text>
<text text-anchor="start" x="8" y="-40.5" font-family="Helvetica,sans-Serif" font-size="10.00" fill="#000000">+ resetAsync()</text>
<text text-anchor="start" x="8" y="-29.5" font-family="Helvetica,sans-Serif" font-size="10.00" fill="#000000">+ resetSync()</text>
<text text-anchor="start" x="8" y="-18.5" font-family="Helvetica,sans-Serif" font-size="10.00" fill="#000000">+ rotateAsync()</text>
<text text-anchor="start" x="8" y="-7.5" font-family="Helvetica,sans-Serif" font-size="10.00" fill="#000000">+ rotateSync()</text>
</a>
</g>
</g>
<!-- Node1 -->
<g id="node2" class="node">
<title>Node1</title>
<g id="a_node2"><a xlink:href="classDJI_1_1OSDK_1_1PayloadBase.html" target="_top" xlink:title="PayloadBase.">
<polygon fill="#ffffff" stroke="#000000" points="2,-149.5 2,-283.5 133,-283.5 133,-149.5 2,-149.5"/>
<text text-anchor="middle" x="67.5" y="-271.5" font-family="Helvetica,sans-Serif" font-size="10.00" fill="#000000">DJI::OSDK::PayloadBase</text>
<polyline fill="none" stroke="#000000" points="2,-264.5 133,-264.5 "/>
<text text-anchor="middle" x="67.5" y="-252.5" font-family="Helvetica,sans-Serif" font-size="10.00" fill="#000000"> </text>
<polyline fill="none" stroke="#000000" points="2,-245.5 133,-245.5 "/>
<text text-anchor="start" x="10" y="-233.5" font-family="Helvetica,sans-Serif" font-size="10.00" fill="#000000">+ PayloadBase()</text>
<text text-anchor="start" x="10" y="-222.5" font-family="Helvetica,sans-Serif" font-size="10.00" fill="#000000">+ ~PayloadBase()</text>
<text text-anchor="start" x="10" y="-211.5" font-family="Helvetica,sans-Serif" font-size="10.00" fill="#000000">+ setEnable()</text>
<text text-anchor="start" x="10" y="-200.5" font-family="Helvetica,sans-Serif" font-size="10.00" fill="#000000">+ getEnable()</text>
<text text-anchor="start" x="10" y="-189.5" font-family="Helvetica,sans-Serif" font-size="10.00" fill="#000000">+ getIndex()</text>
<text text-anchor="start" x="10" y="-178.5" font-family="Helvetica,sans-Serif" font-size="10.00" fill="#000000">+ getName()</text>
<text text-anchor="start" x="10" y="-167.5" font-family="Helvetica,sans-Serif" font-size="10.00" fill="#000000">+ setName()</text>
<text text-anchor="start" x="10" y="-156.5" font-family="Helvetica,sans-Serif" font-size="10.00" fill="#000000">+ getLinker()</text>
</a>
</g>
</g>
<!-- Node1&#45;&gt;Node0 -->
<g id="edge1" class="edge">
<title>Node1&#45;&gt;Node0</title>
<path fill="none" stroke="#191970" d="M67.5,-139.0957C67.5,-130.1895 67.5,-121.2403 67.5,-112.6903"/>
<polygon fill="none" stroke="#191970" points="64.0001,-139.1093 67.5,-149.1093 71.0001,-139.1094 64.0001,-139.1093"/>
</g>
</g>
</svg>
