<?xml version="1.0" encoding="UTF-8" standalone="no"?>
<!DOCTYPE svg PUBLIC "-//W3C//DTD SVG 1.1//EN"
 "http://www.w3.org/Graphics/SVG/1.1/DTD/svg11.dtd">
<!-- Generated by graphviz version 2.40.1 (20161225.0304)
 -->
<!-- Title: osdk&#45;lib/x86 Pages: 1 -->
<svg width="248pt" height="183pt"
 viewBox="0.00 0.00 248.00 183.00" xmlns="http://www.w3.org/2000/svg" xmlns:xlink="http://www.w3.org/1999/xlink">
<g id="graph0" class="graph" transform="scale(1 1) rotate(0) translate(4 179)">
<title>osdk&#45;lib/x86</title>
<polygon fill="#ffffff" stroke="transparent" points="-4,4 -4,-179 244,-179 244,4 -4,4"/>
<g id="clust1" class="cluster">
<title>clusterdir_951cd5b3893e43b241adb4bd1560b570</title>
<g id="a_clust1"><a xlink:href="dir_951cd5b3893e43b241adb4bd1560b570.html" target="_top" xlink:title="osdk&#45;lib">
<polygon fill="#ddddee" stroke="#000000" points="8,-8 8,-167 232,-167 232,-8 8,-8"/>
<text text-anchor="middle" x="120" y="-155" font-family="Helvetica,sans-Serif" font-size="10.00" fill="#000000">osdk&#45;lib</text>
</a>
</g>
</g>
<g id="clust2" class="cluster">
<title>clusterdir_5db447f86adfc6ae24b4688f8f31760a</title>
<g id="a_clust2"><a xlink:href="dir_5db447f86adfc6ae24b4688f8f31760a.html" target="_top">
<polygon fill="#eeeeff" stroke="#000000" points="16,-16 16,-140 224,-140 224,-16 16,-16"/>
</a>
</g>
</g>
<!-- dir_5db447f86adfc6ae24b4688f8f31760a -->
<g id="node1" class="node">
<title>dir_5db447f86adfc6ae24b4688f8f31760a</title>
<text text-anchor="middle" x="189" y="-111.5" font-family="Helvetica,sans-Serif" font-size="10.00" fill="#000000">x86</text>
</g>
<!-- dir_b78e7c4cd4b43cba32dcd9856132ee9a -->
<g id="node2" class="node">
<title>dir_b78e7c4cd4b43cba32dcd9856132ee9a</title>
<g id="a_node2"><a xlink:href="dir_b78e7c4cd4b43cba32dcd9856132ee9a.html" target="_top" xlink:title="advanced&#45;sensing&#45;2.0.3">
<polygon fill="#ffffff" stroke="#ff0000" points="144,-132 24,-132 24,-96 144,-96 144,-132"/>
<text text-anchor="middle" x="84" y="-111.5" font-family="Helvetica,sans-Serif" font-size="10.00" fill="#000000">advanced&#45;sensing&#45;2.0.3</text>
</a>
</g>
</g>
<!-- dir_bec76b0e4baf579159cf4e02aa2f7ab1 -->
<g id="node3" class="node">
<title>dir_bec76b0e4baf579159cf4e02aa2f7ab1</title>
<g id="a_node3"><a xlink:href="dir_bec76b0e4baf579159cf4e02aa2f7ab1.html" target="_top" xlink:title="osdk&#45;core">
<polygon fill="#ffffff" stroke="#ff0000" points="113.5,-60 54.5,-60 54.5,-24 113.5,-24 113.5,-60"/>
<text text-anchor="middle" x="84" y="-39.5" font-family="Helvetica,sans-Serif" font-size="10.00" fill="#000000">osdk&#45;core</text>
</a>
</g>
</g>
<!-- dir_b78e7c4cd4b43cba32dcd9856132ee9a&#45;&gt;dir_bec76b0e4baf579159cf4e02aa2f7ab1 -->
<g id="edge1" class="edge">
<title>dir_b78e7c4cd4b43cba32dcd9856132ee9a&#45;&gt;dir_bec76b0e4baf579159cf4e02aa2f7ab1</title>
<path fill="none" stroke="#000000" d="M84,-95.8314C84,-88.131 84,-78.9743 84,-70.4166"/>
<polygon fill="#000000" stroke="#000000" points="87.5001,-70.4132 84,-60.4133 80.5001,-70.4133 87.5001,-70.4132"/>
<g id="a_edge1&#45;headlabel"><a xlink:href="dir_000004_000006.html" target="_top" xlink:title="9">
<text text-anchor="middle" x="90.3393" y="-71.5079" font-family="Helvetica,sans-Serif" font-size="10.00" fill="#000000">9</text>
</a>
</g>
</g>
</g>
</svg>
