<?xml version="1.0" encoding="UTF-8" standalone="no"?>
<!DOCTYPE svg PUBLIC "-//W3C//DTD SVG 1.1//EN"
 "http://www.w3.org/Graphics/SVG/1.1/DTD/svg11.dtd">
<!-- Generated by graphviz version 2.38.0 (20140413.2041)
 -->
<!-- Title: osdk&#45;core/platform Pages: 1 -->
<svg width="185pt" height="231pt"
 viewBox="0.00 0.00 185.00 231.00" xmlns="http://www.w3.org/2000/svg" xmlns:xlink="http://www.w3.org/1999/xlink">
<g id="graph0" class="graph" transform="scale(1 1) rotate(0) translate(4 227)">
<title>osdk&#45;core/platform</title>
<polygon fill="white" stroke="none" points="-4,4 -4,-227 181,-227 181,4 -4,4"/>
<g id="clust1" class="cluster"><title>clusterdir_95d02babf7f2c2cbb8138434e234b0a4</title>
<g id="a_clust1"><a xlink:href="dir_95d02babf7f2c2cbb8138434e234b0a4.html" target="_top" xlink:title="osdk&#45;core">
<polygon fill="#ddddee" stroke="black" points="11,-128 11,-215 169,-215 169,-128 11,-128"/>
<text text-anchor="middle" x="90" y="-203" font-family="Helvetica,sans-Serif" font-size="10.00">osdk&#45;core</text>
</a>
</g>
</g>
<g id="clust2" class="cluster"><title>clusterdir_50faeb5d8d1628bfd79a767c77d47f2b</title>
<g id="a_clust2"><a xlink:href="dir_50faeb5d8d1628bfd79a767c77d47f2b.html" target="_top">
<polygon fill="#eeeeff" stroke="black" points="19,-136 19,-188 161,-188 161,-136 19,-136"/>
</a>
</g>
</g>
<!-- dir_50faeb5d8d1628bfd79a767c77d47f2b -->
<g id="node1" class="node"><title>dir_50faeb5d8d1628bfd79a767c77d47f2b</title>
<text text-anchor="middle" x="126" y="-159.5" font-family="Helvetica,sans-Serif" font-size="10.00">platform</text>
</g>
<!-- dir_46d8e2746c43089a4f7a5f7f15101a6a -->
<g id="node2" class="node"><title>dir_46d8e2746c43089a4f7a5f7f15101a6a</title>
<g id="a_node2"><a xlink:href="dir_46d8e2746c43089a4f7a5f7f15101a6a.html" target="_top" xlink:title="linux">
<polygon fill="white" stroke="red" points="81,-180 27,-180 27,-144 81,-144 81,-180"/>
<text text-anchor="middle" x="54" y="-159.5" font-family="Helvetica,sans-Serif" font-size="10.00">linux</text>
</a>
</g>
</g>
<!-- dir_ef926edda2a887b065db034fc3005c14 -->
<g id="node3" class="node"><title>dir_ef926edda2a887b065db034fc3005c14</title>
<g id="a_node3"><a xlink:href="dir_ef926edda2a887b065db034fc3005c14.html" target="_top" xlink:title="api">
<polygon fill="white" stroke="red" points="54,-108 0,-108 0,-72 54,-72 54,-108"/>
<text text-anchor="middle" x="27" y="-87.5" font-family="Helvetica,sans-Serif" font-size="10.00">api</text>
</a>
</g>
</g>
<!-- dir_46d8e2746c43089a4f7a5f7f15101a6a&#45;&gt;dir_ef926edda2a887b065db034fc3005c14 -->
<g id="edge2" class="edge"><title>dir_46d8e2746c43089a4f7a5f7f15101a6a&#45;&gt;dir_ef926edda2a887b065db034fc3005c14</title>
<path fill="none" stroke="black" d="M47.3258,-143.697C44.2851,-135.813 40.6173,-126.304 37.2393,-117.546"/>
<polygon fill="black" stroke="black" points="40.4617,-116.175 33.5974,-108.104 33.9307,-118.694 40.4617,-116.175"/>
<g id="a_edge2&#45;headlabel"><a xlink:href="dir_000012_000005.html" target="_top" xlink:title="1">
<text text-anchor="middle" x="44.4043" y="-116.007" font-family="Helvetica,sans-Serif" font-size="10.00">1</text>
</a>
</g>
</g>
<!-- dir_8d9255a88efd7d3d96544da8319c49d3 -->
<g id="node4" class="node"><title>dir_8d9255a88efd7d3d96544da8319c49d3</title>
<g id="a_node4"><a xlink:href="dir_8d9255a88efd7d3d96544da8319c49d3.html" target="_top" xlink:title="hal">
<polygon fill="white" stroke="red" points="81,-36 27,-36 27,-0 81,-0 81,-36"/>
<text text-anchor="middle" x="54" y="-15.5" font-family="Helvetica,sans-Serif" font-size="10.00">hal</text>
</a>
</g>
</g>
<!-- dir_46d8e2746c43089a4f7a5f7f15101a6a&#45;&gt;dir_8d9255a88efd7d3d96544da8319c49d3 -->
<g id="edge3" class="edge"><title>dir_46d8e2746c43089a4f7a5f7f15101a6a&#45;&gt;dir_8d9255a88efd7d3d96544da8319c49d3</title>
<path fill="none" stroke="black" d="M57.6538,-143.908C59.6758,-133.569 61.9808,-120.09 63,-108 64.3441,-92.0566 64.3441,-87.9434 63,-72 62.2834,-63.4991 60.9311,-54.3119 59.4884,-46.0122"/>
<polygon fill="black" stroke="black" points="62.9142,-45.2892 57.6538,-36.0925 56.0309,-46.5623 62.9142,-45.2892"/>
<g id="a_edge3&#45;headlabel"><a xlink:href="dir_000012_000008.html" target="_top" xlink:title="1">
<text text-anchor="middle" x="66.3597" y="-45.8075" font-family="Helvetica,sans-Serif" font-size="10.00">1</text>
</a>
</g>
</g>
<!-- dir_ef926edda2a887b065db034fc3005c14&#45;&gt;dir_8d9255a88efd7d3d96544da8319c49d3 -->
<g id="edge1" class="edge"><title>dir_ef926edda2a887b065db034fc3005c14&#45;&gt;dir_8d9255a88efd7d3d96544da8319c49d3</title>
<path fill="none" stroke="black" d="M33.6742,-71.6966C36.7149,-63.8132 40.3827,-54.3042 43.7607,-45.5464"/>
<polygon fill="black" stroke="black" points="47.0693,-46.6939 47.4026,-36.1043 40.5383,-44.1748 47.0693,-46.6939"/>
<g id="a_edge1&#45;headlabel"><a xlink:href="dir_000005_000008.html" target="_top" xlink:title="1">
<text text-anchor="middle" x="48.4248" y="-48.5695" font-family="Helvetica,sans-Serif" font-size="10.00">1</text>
</a>
</g>
</g>
</g>
</svg>
