<?xml version="1.0" encoding="UTF-8" standalone="no"?>
<!DOCTYPE svg PUBLIC "-//W3C//DTD SVG 1.1//EN"
 "http://www.w3.org/Graphics/SVG/1.1/DTD/svg11.dtd">
<!-- Generated by graphviz version 2.38.0 (20140413.2041)
 -->
<!-- Title: osdk&#45;core Pages: 1 -->
<svg width="172pt" height="148pt"
 viewBox="0.00 0.00 172.00 148.00" xmlns="http://www.w3.org/2000/svg" xmlns:xlink="http://www.w3.org/1999/xlink">
<g id="graph0" class="graph" transform="scale(1 1) rotate(0) translate(4 144)">
<title>osdk&#45;core</title>
<polygon fill="white" stroke="none" points="-4,4 -4,-144 168,-144 168,4 -4,4"/>
<g id="clust1" class="cluster"><title>clusterdir_95d02babf7f2c2cbb8138434e234b0a4</title>
<g id="a_clust1"><a xlink:href="dir_95d02babf7f2c2cbb8138434e234b0a4.html" target="_top">
<polygon fill="#eeeeff" stroke="black" points="8,-8 8,-132 156,-132 156,-8 8,-8"/>
</a>
</g>
</g>
<!-- dir_95d02babf7f2c2cbb8138434e234b0a4 -->
<g id="node1" class="node"><title>dir_95d02babf7f2c2cbb8138434e234b0a4</title>
<text text-anchor="middle" x="118" y="-103.5" font-family="Helvetica,sans-Serif" font-size="10.00">osdk&#45;core</text>
</g>
<!-- dir_ef926edda2a887b065db034fc3005c14 -->
<g id="node2" class="node"><title>dir_ef926edda2a887b065db034fc3005c14</title>
<g id="a_node2"><a xlink:href="dir_ef926edda2a887b065db034fc3005c14.html" target="_top" xlink:title="api">
<polygon fill="white" stroke="red" points="70,-52 16,-52 16,-16 70,-16 70,-52"/>
<text text-anchor="middle" x="43" y="-31.5" font-family="Helvetica,sans-Serif" font-size="10.00">api</text>
</a>
</g>
</g>
<!-- dir_50faeb5d8d1628bfd79a767c77d47f2b -->
<g id="node3" class="node"><title>dir_50faeb5d8d1628bfd79a767c77d47f2b</title>
<g id="a_node3"><a xlink:href="dir_50faeb5d8d1628bfd79a767c77d47f2b.html" target="_top" xlink:title="platform">
<polygon fill="white" stroke="red" points="70,-124 16,-124 16,-88 70,-88 70,-124"/>
<text text-anchor="middle" x="43" y="-103.5" font-family="Helvetica,sans-Serif" font-size="10.00">platform</text>
</a>
</g>
</g>
<!-- dir_50faeb5d8d1628bfd79a767c77d47f2b&#45;&gt;dir_ef926edda2a887b065db034fc3005c14 -->
<g id="edge1" class="edge"><title>dir_50faeb5d8d1628bfd79a767c77d47f2b&#45;&gt;dir_ef926edda2a887b065db034fc3005c14</title>
<path fill="none" stroke="black" d="M43,-87.6966C43,-79.9827 43,-70.7125 43,-62.1124"/>
<polygon fill="black" stroke="black" points="46.5001,-62.1043 43,-52.1043 39.5001,-62.1044 46.5001,-62.1043"/>
<g id="a_edge1&#45;headlabel"><a xlink:href="dir_000006_000003.html" target="_top" xlink:title="1">
<text text-anchor="middle" x="49.3393" y="-63.199" font-family="Helvetica,sans-Serif" font-size="10.00">1</text>
</a>
</g>
</g>
</g>
</svg>
