<?xml version="1.0" encoding="UTF-8" standalone="no"?>
<!DOCTYPE svg PUBLIC "-//W3C//DTD SVG 1.1//EN"
 "http://www.w3.org/Graphics/SVG/1.1/DTD/svg11.dtd">
<!-- Generated by graphviz version 2.38.0 (20140413.2041)
 -->
<!-- Title: osdk&#45;core/platform/linux Pages: 1 -->
<svg width="182pt" height="231pt"
 viewBox="0.00 0.00 182.00 231.00" xmlns="http://www.w3.org/2000/svg" xmlns:xlink="http://www.w3.org/1999/xlink">
<g id="graph0" class="graph" transform="scale(1 1) rotate(0) translate(4 227)">
<title>osdk&#45;core/platform/linux</title>
<polygon fill="white" stroke="none" points="-4,4 -4,-227 178,-227 178,4 -4,4"/>
<g id="clust1" class="cluster"><title>clusterdir_50faeb5d8d1628bfd79a767c77d47f2b</title>
<g id="a_clust1"><a xlink:href="dir_50faeb5d8d1628bfd79a767c77d47f2b.html" target="_top" xlink:title="platform">
<polygon fill="#ddddee" stroke="black" points="8,-56 8,-215 166,-215 166,-56 8,-56"/>
<text text-anchor="middle" x="87" y="-203" font-family="Helvetica,sans-Serif" font-size="10.00">platform</text>
</a>
</g>
</g>
<g id="clust2" class="cluster"><title>clusterdir_46d8e2746c43089a4f7a5f7f15101a6a</title>
<g id="a_clust2"><a xlink:href="dir_46d8e2746c43089a4f7a5f7f15101a6a.html" target="_top">
<polygon fill="#eeeeff" stroke="black" points="16,-64 16,-188 158,-188 158,-64 16,-64"/>
</a>
</g>
</g>
<!-- dir_46d8e2746c43089a4f7a5f7f15101a6a -->
<g id="node1" class="node"><title>dir_46d8e2746c43089a4f7a5f7f15101a6a</title>
<text text-anchor="middle" x="123" y="-159.5" font-family="Helvetica,sans-Serif" font-size="10.00">linux</text>
</g>
<!-- dir_bd0bc0336deaf85967edaa654261a041 -->
<g id="node2" class="node"><title>dir_bd0bc0336deaf85967edaa654261a041</title>
<g id="a_node2"><a xlink:href="dir_bd0bc0336deaf85967edaa654261a041.html" target="_top" xlink:title="inc">
<polygon fill="white" stroke="black" points="78,-108 24,-108 24,-72 78,-72 78,-108"/>
<text text-anchor="middle" x="51" y="-87.5" font-family="Helvetica,sans-Serif" font-size="10.00">inc</text>
</a>
</g>
</g>
<!-- dir_ef926edda2a887b065db034fc3005c14 -->
<g id="node4" class="node"><title>dir_ef926edda2a887b065db034fc3005c14</title>
<g id="a_node4"><a xlink:href="dir_ef926edda2a887b065db034fc3005c14.html" target="_top" xlink:title="api">
<polygon fill="white" stroke="red" points="78,-36 24,-36 24,-0 78,-0 78,-36"/>
<text text-anchor="middle" x="51" y="-15.5" font-family="Helvetica,sans-Serif" font-size="10.00">api</text>
</a>
</g>
</g>
<!-- dir_bd0bc0336deaf85967edaa654261a041&#45;&gt;dir_ef926edda2a887b065db034fc3005c14 -->
<g id="edge1" class="edge"><title>dir_bd0bc0336deaf85967edaa654261a041&#45;&gt;dir_ef926edda2a887b065db034fc3005c14</title>
<path fill="none" stroke="black" d="M51,-71.6966C51,-63.9827 51,-54.7125 51,-46.1124"/>
<polygon fill="black" stroke="black" points="54.5001,-46.1043 51,-36.1043 47.5001,-46.1044 54.5001,-46.1043"/>
<g id="a_edge1&#45;headlabel"><a xlink:href="dir_000008_000003.html" target="_top" xlink:title="1">
<text text-anchor="middle" x="57.3393" y="-47.199" font-family="Helvetica,sans-Serif" font-size="10.00">1</text>
</a>
</g>
</g>
<!-- dir_3a1512873a0b6828fd14833aa9747628 -->
<g id="node3" class="node"><title>dir_3a1512873a0b6828fd14833aa9747628</title>
<g id="a_node3"><a xlink:href="dir_3a1512873a0b6828fd14833aa9747628.html" target="_top" xlink:title="src">
<polygon fill="white" stroke="black" points="78,-180 24,-180 24,-144 78,-144 78,-180"/>
<text text-anchor="middle" x="51" y="-159.5" font-family="Helvetica,sans-Serif" font-size="10.00">src</text>
</a>
</g>
</g>
<!-- dir_3a1512873a0b6828fd14833aa9747628&#45;&gt;dir_bd0bc0336deaf85967edaa654261a041 -->
<g id="edge2" class="edge"><title>dir_3a1512873a0b6828fd14833aa9747628&#45;&gt;dir_bd0bc0336deaf85967edaa654261a041</title>
<path fill="none" stroke="black" d="M51,-143.697C51,-135.983 51,-126.712 51,-118.112"/>
<polygon fill="black" stroke="black" points="54.5001,-118.104 51,-108.104 47.5001,-118.104 54.5001,-118.104"/>
<g id="a_edge2&#45;headlabel"><a xlink:href="dir_000009_000008.html" target="_top" xlink:title="3">
<text text-anchor="middle" x="57.3393" y="-119.199" font-family="Helvetica,sans-Serif" font-size="10.00">3</text>
</a>
</g>
</g>
</g>
</svg>
