<?xml version="1.0" encoding="UTF-8" standalone="no"?>
<!DOCTYPE svg PUBLIC "-//W3C//DTD SVG 1.1//EN"
 "http://www.w3.org/Graphics/SVG/1.1/DTD/svg11.dtd">
<!-- Generated by graphviz version 2.40.1 (20161225.0304)
 -->
<!-- Title: osdk&#45;lib/x86/advanced&#45;sensing&#45;2.0.3 Pages: 1 -->
<svg width="248pt" height="159pt"
 viewBox="0.00 0.00 248.00 159.00" xmlns="http://www.w3.org/2000/svg" xmlns:xlink="http://www.w3.org/1999/xlink">
<g id="graph0" class="graph" transform="scale(1 1) rotate(0) translate(4 155)">
<title>osdk&#45;lib/x86/advanced&#45;sensing&#45;2.0.3</title>
<polygon fill="#ffffff" stroke="transparent" points="-4,4 -4,-155 244,-155 244,4 -4,4"/>
<g id="clust1" class="cluster">
<title>clusterdir_5db447f86adfc6ae24b4688f8f31760a</title>
<g id="a_clust1"><a xlink:href="dir_5db447f86adfc6ae24b4688f8f31760a.html" target="_top" xlink:title="x86">
<polygon fill="#ddddee" stroke="#000000" points="8,-56 8,-143 232,-143 232,-56 8,-56"/>
<text text-anchor="middle" x="120" y="-131" font-family="Helvetica,sans-Serif" font-size="10.00" fill="#000000">x86</text>
</a>
</g>
</g>
<g id="clust2" class="cluster">
<title>clusterdir_b78e7c4cd4b43cba32dcd9856132ee9a</title>
<g id="a_clust2"><a xlink:href="dir_b78e7c4cd4b43cba32dcd9856132ee9a.html" target="_top">
<polygon fill="#eeeeff" stroke="#000000" points="16,-64 16,-116 224,-116 224,-64 16,-64"/>
</a>
</g>
</g>
<!-- dir_b78e7c4cd4b43cba32dcd9856132ee9a -->
<g id="node1" class="node">
<title>dir_b78e7c4cd4b43cba32dcd9856132ee9a</title>
<text text-anchor="middle" x="156" y="-87.5" font-family="Helvetica,sans-Serif" font-size="10.00" fill="#000000">advanced&#45;sensing&#45;2.0.3</text>
</g>
<!-- dir_d1bbd5536d1f65abd75767ecb3458205 -->
<g id="node2" class="node">
<title>dir_d1bbd5536d1f65abd75767ecb3458205</title>
<g id="a_node2"><a xlink:href="dir_d1bbd5536d1f65abd75767ecb3458205.html" target="_top" xlink:title="inc">
<polygon fill="#ffffff" stroke="#000000" points="78,-108 24,-108 24,-72 78,-72 78,-108"/>
<text text-anchor="middle" x="51" y="-87.5" font-family="Helvetica,sans-Serif" font-size="10.00" fill="#000000">inc</text>
</a>
</g>
</g>
<!-- dir_bec76b0e4baf579159cf4e02aa2f7ab1 -->
<g id="node3" class="node">
<title>dir_bec76b0e4baf579159cf4e02aa2f7ab1</title>
<g id="a_node3"><a xlink:href="dir_bec76b0e4baf579159cf4e02aa2f7ab1.html" target="_top" xlink:title="osdk&#45;core">
<polygon fill="#ffffff" stroke="#ff0000" points="80.5,-36 21.5,-36 21.5,0 80.5,0 80.5,-36"/>
<text text-anchor="middle" x="51" y="-15.5" font-family="Helvetica,sans-Serif" font-size="10.00" fill="#000000">osdk&#45;core</text>
</a>
</g>
</g>
<!-- dir_d1bbd5536d1f65abd75767ecb3458205&#45;&gt;dir_bec76b0e4baf579159cf4e02aa2f7ab1 -->
<g id="edge1" class="edge">
<title>dir_d1bbd5536d1f65abd75767ecb3458205&#45;&gt;dir_bec76b0e4baf579159cf4e02aa2f7ab1</title>
<path fill="none" stroke="#000000" d="M51,-71.8314C51,-64.131 51,-54.9743 51,-46.4166"/>
<polygon fill="#000000" stroke="#000000" points="54.5001,-46.4132 51,-36.4133 47.5001,-46.4133 54.5001,-46.4132"/>
<g id="a_edge1&#45;headlabel"><a xlink:href="dir_000005_000006.html" target="_top" xlink:title="9">
<text text-anchor="middle" x="57.3393" y="-47.5079" font-family="Helvetica,sans-Serif" font-size="10.00" fill="#000000">9</text>
</a>
</g>
</g>
</g>
</svg>
