<?xml version="1.0" encoding="UTF-8" standalone="no"?>
<!DOCTYPE svg PUBLIC "-//W3C//DTD SVG 1.1//EN"
 "http://www.w3.org/Graphics/SVG/1.1/DTD/svg11.dtd">
<!-- Generated by graphviz version 2.40.1 (20161225.0304)
 -->
<!-- Title: osdk&#45;core/modules Pages: 1 -->
<svg width="182pt" height="159pt"
 viewBox="0.00 0.00 182.00 159.00" xmlns="http://www.w3.org/2000/svg" xmlns:xlink="http://www.w3.org/1999/xlink">
<g id="graph0" class="graph" transform="scale(1 1) rotate(0) translate(4 155)">
<title>osdk&#45;core/modules</title>
<polygon fill="#ffffff" stroke="transparent" points="-4,4 -4,-155 178,-155 178,4 -4,4"/>
<g id="clust1" class="cluster">
<title>clusterdir_95d02babf7f2c2cbb8138434e234b0a4</title>
<g id="a_clust1"><a xlink:href="dir_95d02babf7f2c2cbb8138434e234b0a4.html" target="_top" xlink:title="osdk&#45;core">
<polygon fill="#ddddee" stroke="#000000" points="8,-56 8,-143 166,-143 166,-56 8,-56"/>
<text text-anchor="middle" x="87" y="-131" font-family="Helvetica,sans-Serif" font-size="10.00" fill="#000000">osdk&#45;core</text>
</a>
</g>
</g>
<g id="clust2" class="cluster">
<title>clusterdir_aade707a9e65bdcd1a290e327a6681ba</title>
<g id="a_clust2"><a xlink:href="dir_aade707a9e65bdcd1a290e327a6681ba.html" target="_top">
<polygon fill="#eeeeff" stroke="#000000" points="16,-64 16,-116 158,-116 158,-64 16,-64"/>
</a>
</g>
</g>
<!-- dir_aade707a9e65bdcd1a290e327a6681ba -->
<g id="node1" class="node">
<title>dir_aade707a9e65bdcd1a290e327a6681ba</title>
<text text-anchor="middle" x="123" y="-87.5" font-family="Helvetica,sans-Serif" font-size="10.00" fill="#000000">modules</text>
</g>
<!-- dir_fbcaf55ac142f7db61e05cdc0c5f6006 -->
<g id="node2" class="node">
<title>dir_fbcaf55ac142f7db61e05cdc0c5f6006</title>
<g id="a_node2"><a xlink:href="dir_fbcaf55ac142f7db61e05cdc0c5f6006.html" target="_top" xlink:title="inc">
<polygon fill="#ffffff" stroke="#ff0000" points="78,-108 24,-108 24,-72 78,-72 78,-108"/>
<text text-anchor="middle" x="51" y="-87.5" font-family="Helvetica,sans-Serif" font-size="10.00" fill="#000000">inc</text>
</a>
</g>
</g>
<!-- dir_ef926edda2a887b065db034fc3005c14 -->
<g id="node3" class="node">
<title>dir_ef926edda2a887b065db034fc3005c14</title>
<g id="a_node3"><a xlink:href="dir_ef926edda2a887b065db034fc3005c14.html" target="_top" xlink:title="api">
<polygon fill="#ffffff" stroke="#ff0000" points="78,-36 24,-36 24,0 78,0 78,-36"/>
<text text-anchor="middle" x="51" y="-15.5" font-family="Helvetica,sans-Serif" font-size="10.00" fill="#000000">api</text>
</a>
</g>
</g>
<!-- dir_fbcaf55ac142f7db61e05cdc0c5f6006&#45;&gt;dir_ef926edda2a887b065db034fc3005c14 -->
<g id="edge2" class="edge">
<title>dir_fbcaf55ac142f7db61e05cdc0c5f6006&#45;&gt;dir_ef926edda2a887b065db034fc3005c14</title>
<path fill="none" stroke="#000000" d="M45.0476,-71.8314C44.2972,-64.131 44.0763,-54.9743 44.3849,-46.4166"/>
<polygon fill="#000000" stroke="#000000" points="47.8792,-46.6161 45.024,-36.4133 40.8935,-46.1697 47.8792,-46.6161"/>
<g id="a_edge2&#45;headlabel"><a xlink:href="dir_000010_000006.html" target="_top" xlink:title="9">
<text text-anchor="middle" x="50.4836" y="-47.8844" font-family="Helvetica,sans-Serif" font-size="10.00" fill="#000000">9</text>
</a>
</g>
</g>
<!-- dir_ef926edda2a887b065db034fc3005c14&#45;&gt;dir_fbcaf55ac142f7db61e05cdc0c5f6006 -->
<g id="edge1" class="edge">
<title>dir_ef926edda2a887b065db034fc3005c14&#45;&gt;dir_fbcaf55ac142f7db61e05cdc0c5f6006</title>
<path fill="none" stroke="#000000" d="M56.976,-36.4133C57.7071,-44.0593 57.9203,-53.1084 57.6155,-61.5726"/>
<polygon fill="#000000" stroke="#000000" points="54.1048,-61.6264 56.9524,-71.8314 61.0902,-62.078 54.1048,-61.6264"/>
<g id="a_edge1&#45;headlabel"><a xlink:href="dir_000006_000010.html" target="_top" xlink:title="8">
<text text-anchor="middle" x="51.5032" y="-55.3562" font-family="Helvetica,sans-Serif" font-size="10.00" fill="#000000">8</text>
</a>
</g>
</g>
</g>
</svg>
