<?xml version="1.0" encoding="UTF-8" standalone="no"?>
<!DOCTYPE svg PUBLIC "-//W3C//DTD SVG 1.1//EN"
 "http://www.w3.org/Graphics/SVG/1.1/DTD/svg11.dtd">
<!-- Generated by graphviz version 2.40.1 (20161225.0304)
 -->
<!-- Title: osdk&#45;core Pages: 1 -->
<svg width="213pt" height="220pt"
 viewBox="0.00 0.00 213.00 220.00" xmlns="http://www.w3.org/2000/svg" xmlns:xlink="http://www.w3.org/1999/xlink">
<g id="graph0" class="graph" transform="scale(1 1) rotate(0) translate(4 216)">
<title>osdk&#45;core</title>
<polygon fill="#ffffff" stroke="transparent" points="-4,4 -4,-216 209,-216 209,4 -4,4"/>
<g id="clust1" class="cluster">
<title>clusterdir_95d02babf7f2c2cbb8138434e234b0a4</title>
<g id="a_clust1"><a xlink:href="dir_95d02babf7f2c2cbb8138434e234b0a4.html" target="_top">
<polygon fill="#eeeeff" stroke="#000000" points="8,-8 8,-204 197,-204 197,-8 8,-8"/>
</a>
</g>
</g>
<!-- dir_95d02babf7f2c2cbb8138434e234b0a4 -->
<g id="node1" class="node">
<title>dir_95d02babf7f2c2cbb8138434e234b0a4</title>
<text text-anchor="middle" x="159" y="-175.5" font-family="Helvetica,sans-Serif" font-size="10.00" fill="#000000">osdk&#45;core</text>
</g>
<!-- dir_76e26db24d84da40db2b053f17fd8350 -->
<g id="node2" class="node">
<title>dir_76e26db24d84da40db2b053f17fd8350</title>
<g id="a_node2"><a xlink:href="dir_76e26db24d84da40db2b053f17fd8350.html" target="_top" xlink:title="advanced&#45;sensing">
<polygon fill="#ffffff" stroke="#ff0000" points="111.5,-196 16.5,-196 16.5,-160 111.5,-160 111.5,-196"/>
<text text-anchor="middle" x="64" y="-175.5" font-family="Helvetica,sans-Serif" font-size="10.00" fill="#000000">advanced&#45;sensing</text>
</a>
</g>
</g>
<!-- dir_ef926edda2a887b065db034fc3005c14 -->
<g id="node3" class="node">
<title>dir_ef926edda2a887b065db034fc3005c14</title>
<g id="a_node3"><a xlink:href="dir_ef926edda2a887b065db034fc3005c14.html" target="_top" xlink:title="api">
<polygon fill="#ffffff" stroke="#ff0000" points="91,-124 37,-124 37,-88 91,-88 91,-124"/>
<text text-anchor="middle" x="64" y="-103.5" font-family="Helvetica,sans-Serif" font-size="10.00" fill="#000000">api</text>
</a>
</g>
</g>
<!-- dir_76e26db24d84da40db2b053f17fd8350&#45;&gt;dir_ef926edda2a887b065db034fc3005c14 -->
<g id="edge4" class="edge">
<title>dir_76e26db24d84da40db2b053f17fd8350&#45;&gt;dir_ef926edda2a887b065db034fc3005c14</title>
<path fill="none" stroke="#000000" d="M58.0476,-159.8314C57.2972,-152.131 57.0763,-142.9743 57.3849,-134.4166"/>
<polygon fill="#000000" stroke="#000000" points="60.8792,-134.6161 58.024,-124.4133 53.8935,-134.1697 60.8792,-134.6161"/>
<g id="a_edge4&#45;headlabel"><a xlink:href="dir_000003_000006.html" target="_top" xlink:title="5">
<text text-anchor="middle" x="63.4836" y="-135.8844" font-family="Helvetica,sans-Serif" font-size="10.00" fill="#000000">5</text>
</a>
</g>
</g>
<!-- dir_ef926edda2a887b065db034fc3005c14&#45;&gt;dir_76e26db24d84da40db2b053f17fd8350 -->
<g id="edge2" class="edge">
<title>dir_ef926edda2a887b065db034fc3005c14&#45;&gt;dir_76e26db24d84da40db2b053f17fd8350</title>
<path fill="none" stroke="#000000" d="M69.976,-124.4133C70.7071,-132.0593 70.9203,-141.1084 70.6155,-149.5726"/>
<polygon fill="#000000" stroke="#000000" points="67.1048,-149.6264 69.9524,-159.8314 74.0902,-150.078 67.1048,-149.6264"/>
<g id="a_edge2&#45;headlabel"><a xlink:href="dir_000006_000003.html" target="_top" xlink:title="1">
<text text-anchor="middle" x="64.5032" y="-143.3562" font-family="Helvetica,sans-Serif" font-size="10.00" fill="#000000">1</text>
</a>
</g>
</g>
<!-- dir_aade707a9e65bdcd1a290e327a6681ba -->
<g id="node4" class="node">
<title>dir_aade707a9e65bdcd1a290e327a6681ba</title>
<g id="a_node4"><a xlink:href="dir_aade707a9e65bdcd1a290e327a6681ba.html" target="_top" xlink:title="modules">
<polygon fill="#ffffff" stroke="#ff0000" points="91,-52 37,-52 37,-16 91,-16 91,-52"/>
<text text-anchor="middle" x="64" y="-31.5" font-family="Helvetica,sans-Serif" font-size="10.00" fill="#000000">modules</text>
</a>
</g>
</g>
<!-- dir_ef926edda2a887b065db034fc3005c14&#45;&gt;dir_aade707a9e65bdcd1a290e327a6681ba -->
<g id="edge1" class="edge">
<title>dir_ef926edda2a887b065db034fc3005c14&#45;&gt;dir_aade707a9e65bdcd1a290e327a6681ba</title>
<path fill="none" stroke="#000000" d="M58.0476,-87.8314C57.2972,-80.131 57.0763,-70.9743 57.3849,-62.4166"/>
<polygon fill="#000000" stroke="#000000" points="60.8792,-62.6161 58.024,-52.4133 53.8935,-62.1697 60.8792,-62.6161"/>
<g id="a_edge1&#45;headlabel"><a xlink:href="dir_000006_000009.html" target="_top" xlink:title="8">
<text text-anchor="middle" x="63.4836" y="-63.8844" font-family="Helvetica,sans-Serif" font-size="10.00" fill="#000000">8</text>
</a>
</g>
</g>
<!-- dir_aade707a9e65bdcd1a290e327a6681ba&#45;&gt;dir_ef926edda2a887b065db034fc3005c14 -->
<g id="edge3" class="edge">
<title>dir_aade707a9e65bdcd1a290e327a6681ba&#45;&gt;dir_ef926edda2a887b065db034fc3005c14</title>
<path fill="none" stroke="#000000" d="M69.976,-52.4133C70.7071,-60.0593 70.9203,-69.1084 70.6155,-77.5726"/>
<polygon fill="#000000" stroke="#000000" points="67.1048,-77.6264 69.9524,-87.8314 74.0902,-78.078 67.1048,-77.6264"/>
<g id="a_edge3&#45;headlabel"><a xlink:href="dir_000009_000006.html" target="_top" xlink:title="9">
<text text-anchor="middle" x="64.5032" y="-71.3562" font-family="Helvetica,sans-Serif" font-size="10.00" fill="#000000">9</text>
</a>
</g>
</g>
</g>
</svg>
