<?xml version="1.0" encoding="UTF-8" standalone="no"?>
<!DOCTYPE svg PUBLIC "-//W3C//DTD SVG 1.1//EN"
 "http://www.w3.org/Graphics/SVG/1.1/DTD/svg11.dtd">
<!-- Generated by graphviz version 2.40.1 (20161225.0304)
 -->
<!-- Title: osdk&#45;core/api/src Pages: 1 -->
<svg width="94pt" height="151pt"
 viewBox="0.00 0.00 94.00 151.00" xmlns="http://www.w3.org/2000/svg" xmlns:xlink="http://www.w3.org/1999/xlink">
<g id="graph0" class="graph" transform="scale(1 1) rotate(0) translate(4 147)">
<title>osdk&#45;core/api/src</title>
<polygon fill="#ffffff" stroke="transparent" points="-4,4 -4,-147 90,-147 90,4 -4,4"/>
<g id="clust1" class="cluster">
<title>clusterdir_ef926edda2a887b065db034fc3005c14</title>
<g id="a_clust1"><a xlink:href="dir_ef926edda2a887b065db034fc3005c14.html" target="_top" xlink:title="api">
<polygon fill="#ddddee" stroke="#000000" points="8,-64 8,-135 78,-135 78,-64 8,-64"/>
<text text-anchor="middle" x="43" y="-123" font-family="Helvetica,sans-Serif" font-size="10.00" fill="#000000">api</text>
</a>
</g>
</g>
<!-- dir_05087cb4e1ba3c7e2094d4d0781afa8f -->
<g id="node1" class="node">
<title>dir_05087cb4e1ba3c7e2094d4d0781afa8f</title>
<g id="a_node1"><a xlink:href="dir_05087cb4e1ba3c7e2094d4d0781afa8f.html" target="_top" xlink:title="src">
<polygon fill="#eeeeff" stroke="#000000" points="70,-108 16,-108 16,-72 70,-72 70,-108"/>
<text text-anchor="middle" x="43" y="-87.5" font-family="Helvetica,sans-Serif" font-size="10.00" fill="#000000">src</text>
</a>
</g>
</g>
<!-- dir_0fb058e33548cd6e720172c5f012eda8 -->
<g id="node2" class="node">
<title>dir_0fb058e33548cd6e720172c5f012eda8</title>
<g id="a_node2"><a xlink:href="dir_0fb058e33548cd6e720172c5f012eda8.html" target="_top" xlink:title="inc">
<polygon fill="none" stroke="#000000" points="70,-36 16,-36 16,0 70,0 70,-36"/>
<text text-anchor="middle" x="43" y="-15.5" font-family="Helvetica,sans-Serif" font-size="10.00" fill="#000000">inc</text>
</a>
</g>
</g>
<!-- dir_05087cb4e1ba3c7e2094d4d0781afa8f&#45;&gt;dir_0fb058e33548cd6e720172c5f012eda8 -->
<g id="edge1" class="edge">
<title>dir_05087cb4e1ba3c7e2094d4d0781afa8f&#45;&gt;dir_0fb058e33548cd6e720172c5f012eda8</title>
<path fill="none" stroke="#000000" d="M43,-71.8314C43,-64.131 43,-54.9743 43,-46.4166"/>
<polygon fill="#000000" stroke="#000000" points="46.5001,-46.4132 43,-36.4133 39.5001,-46.4133 46.5001,-46.4132"/>
<g id="a_edge1&#45;headlabel"><a xlink:href="dir_000008_000007.html" target="_top" xlink:title="55">
<text text-anchor="middle" x="49.3393" y="-47.5079" font-family="Helvetica,sans-Serif" font-size="10.00" fill="#000000">55</text>
</a>
</g>
</g>
</g>
</svg>
