<?xml version="1.0" encoding="UTF-8" standalone="no"?>
<!DOCTYPE svg PUBLIC "-//W3C//DTD SVG 1.1//EN"
 "http://www.w3.org/Graphics/SVG/1.1/DTD/svg11.dtd">
<!-- Generated by graphviz version 2.38.0 (20140413.2041)
 -->
<!-- Title: osdk&#45;core Pages: 1 -->
<svg width="310pt" height="220pt"
 viewBox="0.00 0.00 310.00 220.00" xmlns="http://www.w3.org/2000/svg" xmlns:xlink="http://www.w3.org/1999/xlink">
<g id="graph0" class="graph" transform="scale(1 1) rotate(0) translate(4 216)">
<title>osdk&#45;core</title>
<polygon fill="white" stroke="none" points="-4,4 -4,-216 306,-216 306,4 -4,4"/>
<g id="clust1" class="cluster"><title>clusterdir_95d02babf7f2c2cbb8138434e234b0a4</title>
<g id="a_clust1"><a xlink:href="dir_95d02babf7f2c2cbb8138434e234b0a4.html" target="_top">
<polygon fill="#eeeeff" stroke="black" points="8,-8 8,-204 294,-204 294,-8 8,-8"/>
</a>
</g>
</g>
<!-- dir_95d02babf7f2c2cbb8138434e234b0a4 -->
<g id="node1" class="node"><title>dir_95d02babf7f2c2cbb8138434e234b0a4</title>
<text text-anchor="middle" x="256" y="-175.5" font-family="Helvetica,sans-Serif" font-size="10.00">osdk&#45;core</text>
</g>
<!-- dir_8272195721bb30401abb6488c4645a99 -->
<g id="node2" class="node"><title>dir_8272195721bb30401abb6488c4645a99</title>
<g id="a_node2"><a xlink:href="dir_8272195721bb30401abb6488c4645a99.html" target="_top" xlink:title="advanced&#45;sensing&#45;1.0.0">
<polygon fill="white" stroke="red" points="208,-196 88,-196 88,-160 208,-160 208,-196"/>
<text text-anchor="middle" x="148" y="-175.5" font-family="Helvetica,sans-Serif" font-size="10.00">advanced&#45;sensing&#45;1.0.0</text>
</a>
</g>
</g>
<!-- dir_ef926edda2a887b065db034fc3005c14 -->
<g id="node3" class="node"><title>dir_ef926edda2a887b065db034fc3005c14</title>
<g id="a_node3"><a xlink:href="dir_ef926edda2a887b065db034fc3005c14.html" target="_top" xlink:title="api">
<polygon fill="white" stroke="red" points="116,-124 62,-124 62,-88 116,-88 116,-124"/>
<text text-anchor="middle" x="89" y="-103.5" font-family="Helvetica,sans-Serif" font-size="10.00">api</text>
</a>
</g>
</g>
<!-- dir_8272195721bb30401abb6488c4645a99&#45;&gt;dir_ef926edda2a887b065db034fc3005c14 -->
<g id="edge4" class="edge"><title>dir_8272195721bb30401abb6488c4645a99&#45;&gt;dir_ef926edda2a887b065db034fc3005c14</title>
<path fill="none" stroke="black" d="M133.416,-159.697C126.342,-151.305 117.717,-141.07 109.955,-131.861"/>
<polygon fill="black" stroke="black" points="112.537,-129.495 103.417,-124.104 107.185,-134.006 112.537,-129.495"/>
<g id="a_edge4&#45;headlabel"><a xlink:href="dir_000003_000005.html" target="_top" xlink:title="3">
<text text-anchor="middle" x="117.025" y="-127.914" font-family="Helvetica,sans-Serif" font-size="10.00">3</text>
</a>
</g>
</g>
<!-- dir_8d9255a88efd7d3d96544da8319c49d3 -->
<g id="node4" class="node"><title>dir_8d9255a88efd7d3d96544da8319c49d3</title>
<g id="a_node4"><a xlink:href="dir_8d9255a88efd7d3d96544da8319c49d3.html" target="_top" xlink:title="hal">
<polygon fill="white" stroke="red" points="93,-52 39,-52 39,-16 93,-16 93,-52"/>
<text text-anchor="middle" x="66" y="-31.5" font-family="Helvetica,sans-Serif" font-size="10.00">hal</text>
</a>
</g>
</g>
<!-- dir_ef926edda2a887b065db034fc3005c14&#45;&gt;dir_8d9255a88efd7d3d96544da8319c49d3 -->
<g id="edge1" class="edge"><title>dir_ef926edda2a887b065db034fc3005c14&#45;&gt;dir_8d9255a88efd7d3d96544da8319c49d3</title>
<path fill="none" stroke="black" d="M83.3146,-87.6966C80.7522,-79.8979 77.6671,-70.5085 74.8153,-61.8292"/>
<polygon fill="black" stroke="black" points="78.0667,-60.5121 71.62,-52.1043 71.4165,-62.6972 78.0667,-60.5121"/>
<g id="a_edge1&#45;headlabel"><a xlink:href="dir_000005_000008.html" target="_top" xlink:title="1">
<text text-anchor="middle" x="81.8861" y="-60.5408" font-family="Helvetica,sans-Serif" font-size="10.00">1</text>
</a>
</g>
</g>
<!-- dir_50faeb5d8d1628bfd79a767c77d47f2b -->
<g id="node5" class="node"><title>dir_50faeb5d8d1628bfd79a767c77d47f2b</title>
<g id="a_node5"><a xlink:href="dir_50faeb5d8d1628bfd79a767c77d47f2b.html" target="_top" xlink:title="platform">
<polygon fill="white" stroke="red" points="70,-196 16,-196 16,-160 70,-160 70,-196"/>
<text text-anchor="middle" x="43" y="-175.5" font-family="Helvetica,sans-Serif" font-size="10.00">platform</text>
</a>
</g>
</g>
<!-- dir_50faeb5d8d1628bfd79a767c77d47f2b&#45;&gt;dir_ef926edda2a887b065db034fc3005c14 -->
<g id="edge2" class="edge"><title>dir_50faeb5d8d1628bfd79a767c77d47f2b&#45;&gt;dir_ef926edda2a887b065db034fc3005c14</title>
<path fill="none" stroke="black" d="M54.3708,-159.697C59.7185,-151.559 66.2043,-141.689 72.1106,-132.701"/>
<polygon fill="black" stroke="black" points="75.1932,-134.384 77.76,-124.104 69.3432,-130.539 75.1932,-134.384"/>
<g id="a_edge2&#45;headlabel"><a xlink:href="dir_000011_000005.html" target="_top" xlink:title="1">
<text text-anchor="middle" x="75.5919" y="-136.447" font-family="Helvetica,sans-Serif" font-size="10.00">1</text>
</a>
</g>
</g>
<!-- dir_50faeb5d8d1628bfd79a767c77d47f2b&#45;&gt;dir_8d9255a88efd7d3d96544da8319c49d3 -->
<g id="edge3" class="edge"><title>dir_50faeb5d8d1628bfd79a767c77d47f2b&#45;&gt;dir_8d9255a88efd7d3d96544da8319c49d3</title>
<path fill="none" stroke="black" d="M44.2686,-159.844C45.7528,-141.852 48.5844,-112.799 53,-88 54.5181,-79.4741 56.6095,-70.2798 58.6712,-61.9813"/>
<polygon fill="black" stroke="black" points="62.1199,-62.6234 61.2214,-52.0667 55.3406,-60.8795 62.1199,-62.6234"/>
<g id="a_edge3&#45;headlabel"><a xlink:href="dir_000011_000008.html" target="_top" xlink:title="1">
<text text-anchor="middle" x="63.9743" y="-64.3119" font-family="Helvetica,sans-Serif" font-size="10.00">1</text>
</a>
</g>
</g>
</g>
</svg>
