<?xml version="1.0" encoding="UTF-8" standalone="no"?>
<!DOCTYPE svg PUBLIC "-//W3C//DTD SVG 1.1//EN"
 "http://www.w3.org/Graphics/SVG/1.1/DTD/svg11.dtd">
<!-- Generated by graphviz version 2.38.0 (20140413.2041)
 -->
<!-- Title: osdk&#45;core/api Pages: 1 -->
<svg width="182pt" height="183pt"
 viewBox="0.00 0.00 182.00 183.00" xmlns="http://www.w3.org/2000/svg" xmlns:xlink="http://www.w3.org/1999/xlink">
<g id="graph0" class="graph" transform="scale(1 1) rotate(0) translate(4 179)">
<title>osdk&#45;core/api</title>
<polygon fill="white" stroke="none" points="-4,4 -4,-179 178,-179 178,4 -4,4"/>
<g id="clust1" class="cluster"><title>clusterdir_95d02babf7f2c2cbb8138434e234b0a4</title>
<g id="a_clust1"><a xlink:href="dir_95d02babf7f2c2cbb8138434e234b0a4.html" target="_top" xlink:title="osdk&#45;core">
<polygon fill="#ddddee" stroke="black" points="8,-8 8,-167 166,-167 166,-8 8,-8"/>
<text text-anchor="middle" x="87" y="-155" font-family="Helvetica,sans-Serif" font-size="10.00">osdk&#45;core</text>
</a>
</g>
</g>
<g id="clust2" class="cluster"><title>clusterdir_ef926edda2a887b065db034fc3005c14</title>
<g id="a_clust2"><a xlink:href="dir_ef926edda2a887b065db034fc3005c14.html" target="_top">
<polygon fill="#eeeeff" stroke="black" points="16,-16 16,-140 158,-140 158,-16 16,-16"/>
</a>
</g>
</g>
<!-- dir_ef926edda2a887b065db034fc3005c14 -->
<g id="node1" class="node"><title>dir_ef926edda2a887b065db034fc3005c14</title>
<text text-anchor="middle" x="123" y="-111.5" font-family="Helvetica,sans-Serif" font-size="10.00">api</text>
</g>
<!-- dir_0fb058e33548cd6e720172c5f012eda8 -->
<g id="node2" class="node"><title>dir_0fb058e33548cd6e720172c5f012eda8</title>
<g id="a_node2"><a xlink:href="dir_0fb058e33548cd6e720172c5f012eda8.html" target="_top" xlink:title="inc">
<polygon fill="white" stroke="black" points="78,-60 24,-60 24,-24 78,-24 78,-60"/>
<text text-anchor="middle" x="51" y="-39.5" font-family="Helvetica,sans-Serif" font-size="10.00">inc</text>
</a>
</g>
</g>
<!-- dir_05087cb4e1ba3c7e2094d4d0781afa8f -->
<g id="node3" class="node"><title>dir_05087cb4e1ba3c7e2094d4d0781afa8f</title>
<g id="a_node3"><a xlink:href="dir_05087cb4e1ba3c7e2094d4d0781afa8f.html" target="_top" xlink:title="src">
<polygon fill="white" stroke="black" points="78,-132 24,-132 24,-96 78,-96 78,-132"/>
<text text-anchor="middle" x="51" y="-111.5" font-family="Helvetica,sans-Serif" font-size="10.00">src</text>
</a>
</g>
</g>
<!-- dir_05087cb4e1ba3c7e2094d4d0781afa8f&#45;&gt;dir_0fb058e33548cd6e720172c5f012eda8 -->
<g id="edge1" class="edge"><title>dir_05087cb4e1ba3c7e2094d4d0781afa8f&#45;&gt;dir_0fb058e33548cd6e720172c5f012eda8</title>
<path fill="none" stroke="black" d="M51,-95.6966C51,-87.9827 51,-78.7125 51,-70.1124"/>
<polygon fill="black" stroke="black" points="54.5001,-70.1043 51,-60.1043 47.5001,-70.1044 54.5001,-70.1043"/>
<g id="a_edge1&#45;headlabel"><a xlink:href="dir_000005_000004.html" target="_top" xlink:title="28">
<text text-anchor="middle" x="57.3393" y="-71.199" font-family="Helvetica,sans-Serif" font-size="10.00">28</text>
</a>
</g>
</g>
</g>
</svg>
