<?xml version="1.0" encoding="UTF-8" standalone="no"?>
<!DOCTYPE svg PUBLIC "-//W3C//DTD SVG 1.1//EN"
 "http://www.w3.org/Graphics/SVG/1.1/DTD/svg11.dtd">
<!-- Generated by graphviz version 2.40.1 (20161225.0304)
 -->
<!-- Title: osdk&#45;core/modules/inc Pages: 1 -->
<svg width="308pt" height="203pt"
 viewBox="0.00 0.00 308.00 203.25" xmlns="http://www.w3.org/2000/svg" xmlns:xlink="http://www.w3.org/1999/xlink">
<g id="graph0" class="graph" transform="scale(1 1) rotate(0) translate(4 199.2467)">
<title>osdk&#45;core/modules/inc</title>
<polygon fill="#ffffff" stroke="transparent" points="-4,4 -4,-199.2467 304,-199.2467 304,4 -4,4"/>
<g id="clust1" class="cluster">
<title>clusterdir_aade707a9e65bdcd1a290e327a6681ba</title>
<g id="a_clust1"><a xlink:href="dir_aade707a9e65bdcd1a290e327a6681ba.html" target="_top" xlink:title="modules">
<polygon fill="#ddddee" stroke="#000000" points="8,-8 8,-167 238,-167 238,-8 8,-8"/>
<text text-anchor="middle" x="123" y="-155" font-family="Helvetica,sans-Serif" font-size="10.00" fill="#000000">modules</text>
</a>
</g>
</g>
<g id="clust2" class="cluster">
<title>clusterdir_fbcaf55ac142f7db61e05cdc0c5f6006</title>
<g id="a_clust2"><a xlink:href="dir_fbcaf55ac142f7db61e05cdc0c5f6006.html" target="_top">
<polygon fill="#eeeeff" stroke="#000000" points="16,-16 16,-140 230,-140 230,-16 16,-16"/>
</a>
</g>
</g>
<!-- dir_fbcaf55ac142f7db61e05cdc0c5f6006 -->
<g id="node1" class="node">
<title>dir_fbcaf55ac142f7db61e05cdc0c5f6006</title>
<text text-anchor="middle" x="195" y="-111.5" font-family="Helvetica,sans-Serif" font-size="10.00" fill="#000000">inc</text>
</g>
<!-- dir_e033abbb3d7ad2af96763e6b76de34d2 -->
<g id="node2" class="node">
<title>dir_e033abbb3d7ad2af96763e6b76de34d2</title>
<g id="a_node2"><a xlink:href="dir_e033abbb3d7ad2af96763e6b76de34d2.html" target="_top" xlink:title="flight">
<polygon fill="#ffffff" stroke="#000000" points="150,-132 96,-132 96,-96 150,-96 150,-132"/>
<text text-anchor="middle" x="123" y="-111.5" font-family="Helvetica,sans-Serif" font-size="10.00" fill="#000000">flight</text>
</a>
</g>
</g>
<!-- dir_ef926edda2a887b065db034fc3005c14 -->
<g id="node5" class="node">
<title>dir_ef926edda2a887b065db034fc3005c14</title>
<g id="a_node5"><a xlink:href="dir_ef926edda2a887b065db034fc3005c14.html" target="_top" xlink:title="api">
<polygon fill="#ffffff" stroke="#ff0000" points="300,-132 246,-132 246,-96 300,-96 300,-132"/>
<text text-anchor="middle" x="273" y="-111.5" font-family="Helvetica,sans-Serif" font-size="10.00" fill="#000000">api</text>
</a>
</g>
</g>
<!-- dir_e033abbb3d7ad2af96763e6b76de34d2&#45;&gt;dir_ef926edda2a887b065db034fc3005c14 -->
<g id="edge6" class="edge">
<title>dir_e033abbb3d7ad2af96763e6b76de34d2&#45;&gt;dir_ef926edda2a887b065db034fc3005c14</title>
<path fill="none" stroke="#000000" d="M128.7294,-132.0384C135.2342,-149.1355 147.6695,-173.8155 168,-185 190.1962,-197.2109 202.6257,-196.8814 225,-185 242.3031,-175.8116 254.5051,-157.2922 262.2759,-141.4712"/>
<polygon fill="#000000" stroke="#000000" points="265.5944,-142.6286 266.5477,-132.0767 259.2223,-139.7311 265.5944,-142.6286"/>
<g id="a_edge6&#45;headlabel"><a xlink:href="dir_000011_000006.html" target="_top" xlink:title="4">
<text text-anchor="middle" x="266.6912" y="-144.5761" font-family="Helvetica,sans-Serif" font-size="10.00" fill="#000000">4</text>
</a>
</g>
</g>
<!-- dir_8ed8f0c2e91d007e5c551563760127ff -->
<g id="node3" class="node">
<title>dir_8ed8f0c2e91d007e5c551563760127ff</title>
<g id="a_node3"><a xlink:href="dir_8ed8f0c2e91d007e5c551563760127ff.html" target="_top" xlink:title="mop">
<polygon fill="#ffffff" stroke="#000000" points="150,-60 96,-60 96,-24 150,-24 150,-60"/>
<text text-anchor="middle" x="123" y="-39.5" font-family="Helvetica,sans-Serif" font-size="10.00" fill="#000000">mop</text>
</a>
</g>
</g>
<!-- dir_6bc737f475a56442ce10cf43f28ef84c -->
<g id="node4" class="node">
<title>dir_6bc737f475a56442ce10cf43f28ef84c</title>
<g id="a_node4"><a xlink:href="dir_6bc737f475a56442ce10cf43f28ef84c.html" target="_top" xlink:title="payload">
<polygon fill="#ffffff" stroke="#000000" points="78,-132 24,-132 24,-96 78,-96 78,-132"/>
<text text-anchor="middle" x="51" y="-111.5" font-family="Helvetica,sans-Serif" font-size="10.00" fill="#000000">payload</text>
</a>
</g>
</g>
<!-- dir_6bc737f475a56442ce10cf43f28ef84c&#45;&gt;dir_8ed8f0c2e91d007e5c551563760127ff -->
<g id="edge5" class="edge">
<title>dir_6bc737f475a56442ce10cf43f28ef84c&#45;&gt;dir_8ed8f0c2e91d007e5c551563760127ff</title>
<path fill="none" stroke="#000000" d="M69.1686,-95.8314C77.7152,-87.2848 88.0557,-76.9443 97.3802,-67.6198"/>
<polygon fill="#000000" stroke="#000000" points="99.9905,-69.9592 104.5867,-60.4133 95.0408,-65.0095 99.9905,-69.9592"/>
<g id="a_edge5&#45;headlabel"><a xlink:href="dir_000013_000012.html" target="_top" xlink:title="1">
<text text-anchor="middle" x="99.4564" y="-72.0087" font-family="Helvetica,sans-Serif" font-size="10.00" fill="#000000">1</text>
</a>
</g>
</g>
<!-- dir_6bc737f475a56442ce10cf43f28ef84c&#45;&gt;dir_ef926edda2a887b065db034fc3005c14 -->
<g id="edge4" class="edge">
<title>dir_6bc737f475a56442ce10cf43f28ef84c&#45;&gt;dir_ef926edda2a887b065db034fc3005c14</title>
<path fill="none" stroke="#000000" d="M56.7294,-132.0384C63.2342,-149.1355 75.6695,-173.8155 96,-185 121.1168,-198.8176 199.6817,-198.4447 225,-185 242.3031,-175.8116 254.5051,-157.2922 262.2759,-141.4712"/>
<polygon fill="#000000" stroke="#000000" points="265.5944,-142.6286 266.5477,-132.0767 259.2223,-139.7311 265.5944,-142.6286"/>
<g id="a_edge4&#45;headlabel"><a xlink:href="dir_000013_000006.html" target="_top" xlink:title="5">
<text text-anchor="middle" x="266.6912" y="-144.5761" font-family="Helvetica,sans-Serif" font-size="10.00" fill="#000000">5</text>
</a>
</g>
</g>
<!-- dir_ef926edda2a887b065db034fc3005c14&#45;&gt;dir_e033abbb3d7ad2af96763e6b76de34d2 -->
<g id="edge3" class="edge">
<title>dir_ef926edda2a887b065db034fc3005c14&#45;&gt;dir_e033abbb3d7ad2af96763e6b76de34d2</title>
<path fill="none" stroke="#000000" d="M266.5477,-132.0767C259.3503,-149.2029 245.8943,-173.9045 225,-185 202.6257,-196.8814 190.1962,-197.2109 168,-185 151.1638,-175.7378 139.7421,-157.2206 132.619,-141.4191"/>
<polygon fill="#000000" stroke="#000000" points="135.7928,-139.9352 128.7294,-132.0384 129.3266,-142.6164 135.7928,-139.9352"/>
<g id="a_edge3&#45;headlabel"><a xlink:href="dir_000006_000011.html" target="_top" xlink:title="3">
<text text-anchor="middle" x="139.7923" y="-139.6682" font-family="Helvetica,sans-Serif" font-size="10.00" fill="#000000">3</text>
</a>
</g>
</g>
<!-- dir_ef926edda2a887b065db034fc3005c14&#45;&gt;dir_8ed8f0c2e91d007e5c551563760127ff -->
<g id="edge1" class="edge">
<title>dir_ef926edda2a887b065db034fc3005c14&#45;&gt;dir_8ed8f0c2e91d007e5c551563760127ff</title>
<path fill="none" stroke="#000000" d="M245.8361,-100.9613C221.5938,-89.325 185.9075,-72.1956 159.2384,-59.3944"/>
<polygon fill="#000000" stroke="#000000" points="160.7446,-56.2351 150.2148,-55.0631 157.7155,-62.5458 160.7446,-56.2351"/>
<g id="a_edge1&#45;headlabel"><a xlink:href="dir_000006_000012.html" target="_top" xlink:title="2">
<text text-anchor="middle" x="165.2139" y="-52.7309" font-family="Helvetica,sans-Serif" font-size="10.00" fill="#000000">2</text>
</a>
</g>
</g>
<!-- dir_ef926edda2a887b065db034fc3005c14&#45;&gt;dir_6bc737f475a56442ce10cf43f28ef84c -->
<g id="edge2" class="edge">
<title>dir_ef926edda2a887b065db034fc3005c14&#45;&gt;dir_6bc737f475a56442ce10cf43f28ef84c</title>
<path fill="none" stroke="#000000" d="M266.5477,-132.0767C259.3503,-149.2029 245.8943,-173.9045 225,-185 199.6817,-198.4447 121.1168,-198.8176 96,-185 79.1638,-175.7378 67.7421,-157.2206 60.619,-141.4191"/>
<polygon fill="#000000" stroke="#000000" points="63.7928,-139.9352 56.7294,-132.0384 57.3266,-142.6164 63.7928,-139.9352"/>
<g id="a_edge2&#45;headlabel"><a xlink:href="dir_000006_000013.html" target="_top" xlink:title="3">
<text text-anchor="middle" x="67.7923" y="-139.6682" font-family="Helvetica,sans-Serif" font-size="10.00" fill="#000000">3</text>
</a>
</g>
</g>
</g>
</svg>
