<?xml version="1.0" encoding="UTF-8" standalone="no"?>
<!DOCTYPE svg PUBLIC "-//W3C//DTD SVG 1.1//EN"
 "http://www.w3.org/Graphics/SVG/1.1/DTD/svg11.dtd">
<!-- Generated by graphviz version 2.38.0 (20140413.2041)
 -->
<!-- Title: osdk&#45;core/platform/linux Pages: 1 -->
<svg width="236pt" height="231pt"
 viewBox="0.00 0.00 236.00 231.00" xmlns="http://www.w3.org/2000/svg" xmlns:xlink="http://www.w3.org/1999/xlink">
<g id="graph0" class="graph" transform="scale(1 1) rotate(0) translate(4 227)">
<title>osdk&#45;core/platform/linux</title>
<polygon fill="white" stroke="none" points="-4,4 -4,-227 232,-227 232,4 -4,4"/>
<g id="clust1" class="cluster"><title>clusterdir_50faeb5d8d1628bfd79a767c77d47f2b</title>
<g id="a_clust1"><a xlink:href="dir_50faeb5d8d1628bfd79a767c77d47f2b.html" target="_top" xlink:title="platform">
<polygon fill="#ddddee" stroke="black" points="8,-56 8,-215 166,-215 166,-56 8,-56"/>
<text text-anchor="middle" x="87" y="-203" font-family="Helvetica,sans-Serif" font-size="10.00">platform</text>
</a>
</g>
</g>
<g id="clust2" class="cluster"><title>clusterdir_46d8e2746c43089a4f7a5f7f15101a6a</title>
<g id="a_clust2"><a xlink:href="dir_46d8e2746c43089a4f7a5f7f15101a6a.html" target="_top">
<polygon fill="#eeeeff" stroke="black" points="16,-64 16,-188 158,-188 158,-64 16,-64"/>
</a>
</g>
</g>
<!-- dir_46d8e2746c43089a4f7a5f7f15101a6a -->
<g id="node1" class="node"><title>dir_46d8e2746c43089a4f7a5f7f15101a6a</title>
<text text-anchor="middle" x="123" y="-159.5" font-family="Helvetica,sans-Serif" font-size="10.00">linux</text>
</g>
<!-- dir_bd0bc0336deaf85967edaa654261a041 -->
<g id="node2" class="node"><title>dir_bd0bc0336deaf85967edaa654261a041</title>
<g id="a_node2"><a xlink:href="dir_bd0bc0336deaf85967edaa654261a041.html" target="_top" xlink:title="inc">
<polygon fill="white" stroke="black" points="114,-108 60,-108 60,-72 114,-72 114,-108"/>
<text text-anchor="middle" x="87" y="-87.5" font-family="Helvetica,sans-Serif" font-size="10.00">inc</text>
</a>
</g>
</g>
<!-- dir_8d9255a88efd7d3d96544da8319c49d3 -->
<g id="node5" class="node"><title>dir_8d9255a88efd7d3d96544da8319c49d3</title>
<g id="a_node5"><a xlink:href="dir_8d9255a88efd7d3d96544da8319c49d3.html" target="_top" xlink:title="hal">
<polygon fill="white" stroke="red" points="189,-36 135,-36 135,-0 189,-0 189,-36"/>
<text text-anchor="middle" x="162" y="-15.5" font-family="Helvetica,sans-Serif" font-size="10.00">hal</text>
</a>
</g>
</g>
<!-- dir_bd0bc0336deaf85967edaa654261a041&#45;&gt;dir_8d9255a88efd7d3d96544da8319c49d3 -->
<g id="edge2" class="edge"><title>dir_bd0bc0336deaf85967edaa654261a041&#45;&gt;dir_8d9255a88efd7d3d96544da8319c49d3</title>
<path fill="none" stroke="black" d="M105.539,-71.6966C114.803,-63.0503 126.162,-52.4486 136.257,-43.027"/>
<polygon fill="black" stroke="black" points="138.751,-45.4863 143.674,-36.1043 133.975,-40.3688 138.751,-45.4863"/>
<g id="a_edge2&#45;headlabel"><a xlink:href="dir_000011_000006.html" target="_top" xlink:title="1">
<text text-anchor="middle" x="138.061" y="-47.5145" font-family="Helvetica,sans-Serif" font-size="10.00">1</text>
</a>
</g>
</g>
<!-- dir_3a1512873a0b6828fd14833aa9747628 -->
<g id="node3" class="node"><title>dir_3a1512873a0b6828fd14833aa9747628</title>
<g id="a_node3"><a xlink:href="dir_3a1512873a0b6828fd14833aa9747628.html" target="_top" xlink:title="src">
<polygon fill="white" stroke="black" points="78,-180 24,-180 24,-144 78,-144 78,-180"/>
<text text-anchor="middle" x="51" y="-159.5" font-family="Helvetica,sans-Serif" font-size="10.00">src</text>
</a>
</g>
</g>
<!-- dir_3a1512873a0b6828fd14833aa9747628&#45;&gt;dir_bd0bc0336deaf85967edaa654261a041 -->
<g id="edge4" class="edge"><title>dir_3a1512873a0b6828fd14833aa9747628&#45;&gt;dir_bd0bc0336deaf85967edaa654261a041</title>
<path fill="none" stroke="black" d="M59.8989,-143.697C63.9968,-135.728 68.9488,-126.1 73.4927,-117.264"/>
<polygon fill="black" stroke="black" points="76.7425,-118.598 78.2035,-108.104 70.5174,-115.396 76.7425,-118.598"/>
<g id="a_edge4&#45;headlabel"><a xlink:href="dir_000012_000011.html" target="_top" xlink:title="3">
<text text-anchor="middle" x="77.6235" y="-120.593" font-family="Helvetica,sans-Serif" font-size="10.00">3</text>
</a>
</g>
</g>
<!-- dir_ef926edda2a887b065db034fc3005c14 -->
<g id="node4" class="node"><title>dir_ef926edda2a887b065db034fc3005c14</title>
<g id="a_node4"><a xlink:href="dir_ef926edda2a887b065db034fc3005c14.html" target="_top" xlink:title="api">
<polygon fill="white" stroke="red" points="228,-108 174,-108 174,-72 228,-72 228,-108"/>
<text text-anchor="middle" x="201" y="-87.5" font-family="Helvetica,sans-Serif" font-size="10.00">api</text>
</a>
</g>
</g>
<!-- dir_3a1512873a0b6828fd14833aa9747628&#45;&gt;dir_ef926edda2a887b065db034fc3005c14 -->
<g id="edge3" class="edge"><title>dir_3a1512873a0b6828fd14833aa9747628&#45;&gt;dir_ef926edda2a887b065db034fc3005c14</title>
<path fill="none" stroke="black" d="M78.1186,-148.173C81.1142,-146.762 84.1209,-145.349 87,-144 112.94,-131.845 142.247,-118.223 164.65,-107.832"/>
<polygon fill="black" stroke="black" points="166.199,-110.972 173.799,-103.591 163.254,-104.621 166.199,-110.972"/>
<g id="a_edge3&#45;headlabel"><a xlink:href="dir_000012_000003.html" target="_top" xlink:title="1">
<text text-anchor="middle" x="164.132" y="-112.56" font-family="Helvetica,sans-Serif" font-size="10.00">1</text>
</a>
</g>
</g>
<!-- dir_ef926edda2a887b065db034fc3005c14&#45;&gt;dir_8d9255a88efd7d3d96544da8319c49d3 -->
<g id="edge1" class="edge"><title>dir_ef926edda2a887b065db034fc3005c14&#45;&gt;dir_8d9255a88efd7d3d96544da8319c49d3</title>
<path fill="none" stroke="black" d="M191.36,-71.6966C186.873,-63.6436 181.441,-53.8945 176.476,-44.9824"/>
<polygon fill="black" stroke="black" points="179.454,-43.1366 171.53,-36.1043 173.339,-46.5435 179.454,-43.1366"/>
<g id="a_edge1&#45;headlabel"><a xlink:href="dir_000003_000006.html" target="_top" xlink:title="1">
<text text-anchor="middle" x="183.684" y="-42.3948" font-family="Helvetica,sans-Serif" font-size="10.00">1</text>
</a>
</g>
</g>
</g>
</svg>
