<?xml version="1.0" encoding="UTF-8" standalone="no"?>
<!DOCTYPE svg PUBLIC "-//W3C//DTD SVG 1.1//EN"
 "http://www.w3.org/Graphics/SVG/1.1/DTD/svg11.dtd">
<!-- Generated by graphviz version 2.38.0 (20140413.2041)
 -->
<!-- Title: osdk&#45;core Pages: 1 -->
<svg width="172pt" height="220pt"
 viewBox="0.00 0.00 172.00 220.00" xmlns="http://www.w3.org/2000/svg" xmlns:xlink="http://www.w3.org/1999/xlink">
<g id="graph0" class="graph" transform="scale(1 1) rotate(0) translate(4 216)">
<title>osdk&#45;core</title>
<polygon fill="white" stroke="none" points="-4,4 -4,-216 168,-216 168,4 -4,4"/>
<g id="clust1" class="cluster"><title>clusterdir_95d02babf7f2c2cbb8138434e234b0a4</title>
<g id="a_clust1"><a xlink:href="dir_95d02babf7f2c2cbb8138434e234b0a4.html" target="_top">
<polygon fill="#eeeeff" stroke="black" points="8,-8 8,-204 156,-204 156,-8 8,-8"/>
</a>
</g>
</g>
<!-- dir_95d02babf7f2c2cbb8138434e234b0a4 -->
<g id="node1" class="node"><title>dir_95d02babf7f2c2cbb8138434e234b0a4</title>
<text text-anchor="middle" x="118" y="-175.5" font-family="Helvetica,sans-Serif" font-size="10.00">osdk&#45;core</text>
</g>
<!-- dir_ef926edda2a887b065db034fc3005c14 -->
<g id="node2" class="node"><title>dir_ef926edda2a887b065db034fc3005c14</title>
<g id="a_node2"><a xlink:href="dir_ef926edda2a887b065db034fc3005c14.html" target="_top" xlink:title="api">
<polygon fill="white" stroke="red" points="70,-124 16,-124 16,-88 70,-88 70,-124"/>
<text text-anchor="middle" x="43" y="-103.5" font-family="Helvetica,sans-Serif" font-size="10.00">api</text>
</a>
</g>
</g>
<!-- dir_8d9255a88efd7d3d96544da8319c49d3 -->
<g id="node3" class="node"><title>dir_8d9255a88efd7d3d96544da8319c49d3</title>
<g id="a_node3"><a xlink:href="dir_8d9255a88efd7d3d96544da8319c49d3.html" target="_top" xlink:title="hal">
<polygon fill="white" stroke="red" points="93,-52 39,-52 39,-16 93,-16 93,-52"/>
<text text-anchor="middle" x="66" y="-31.5" font-family="Helvetica,sans-Serif" font-size="10.00">hal</text>
</a>
</g>
</g>
<!-- dir_ef926edda2a887b065db034fc3005c14&#45;&gt;dir_8d9255a88efd7d3d96544da8319c49d3 -->
<g id="edge1" class="edge"><title>dir_ef926edda2a887b065db034fc3005c14&#45;&gt;dir_8d9255a88efd7d3d96544da8319c49d3</title>
<path fill="none" stroke="black" d="M48.6854,-87.6966C51.2478,-79.8979 54.3329,-70.5085 57.1847,-61.8292"/>
<polygon fill="black" stroke="black" points="60.5835,-62.6972 60.38,-52.1043 53.9333,-60.5121 60.5835,-62.6972"/>
<g id="a_edge1&#45;headlabel"><a xlink:href="dir_000003_000006.html" target="_top" xlink:title="1">
<text text-anchor="middle" x="62.1589" y="-64.4985" font-family="Helvetica,sans-Serif" font-size="10.00">1</text>
</a>
</g>
</g>
<!-- dir_50faeb5d8d1628bfd79a767c77d47f2b -->
<g id="node4" class="node"><title>dir_50faeb5d8d1628bfd79a767c77d47f2b</title>
<g id="a_node4"><a xlink:href="dir_50faeb5d8d1628bfd79a767c77d47f2b.html" target="_top" xlink:title="platform">
<polygon fill="white" stroke="red" points="70,-196 16,-196 16,-160 70,-160 70,-196"/>
<text text-anchor="middle" x="43" y="-175.5" font-family="Helvetica,sans-Serif" font-size="10.00">platform</text>
</a>
</g>
</g>
<!-- dir_50faeb5d8d1628bfd79a767c77d47f2b&#45;&gt;dir_ef926edda2a887b065db034fc3005c14 -->
<g id="edge2" class="edge"><title>dir_50faeb5d8d1628bfd79a767c77d47f2b&#45;&gt;dir_ef926edda2a887b065db034fc3005c14</title>
<path fill="none" stroke="black" d="M43,-159.697C43,-151.983 43,-142.712 43,-134.112"/>
<polygon fill="black" stroke="black" points="46.5001,-134.104 43,-124.104 39.5001,-134.104 46.5001,-134.104"/>
<g id="a_edge2&#45;headlabel"><a xlink:href="dir_000009_000003.html" target="_top" xlink:title="1">
<text text-anchor="middle" x="49.3393" y="-135.199" font-family="Helvetica,sans-Serif" font-size="10.00">1</text>
</a>
</g>
</g>
<!-- dir_50faeb5d8d1628bfd79a767c77d47f2b&#45;&gt;dir_8d9255a88efd7d3d96544da8319c49d3 -->
<g id="edge3" class="edge"><title>dir_50faeb5d8d1628bfd79a767c77d47f2b&#45;&gt;dir_8d9255a88efd7d3d96544da8319c49d3</title>
<path fill="none" stroke="black" d="M58.6099,-159.774C66.3729,-150.03 74.9459,-137.184 79,-124 85.2831,-103.568 81.1291,-79.5378 75.9037,-61.6006"/>
<polygon fill="black" stroke="black" points="79.2371,-60.5332 72.8624,-52.0707 72.5685,-62.6615 79.2371,-60.5332"/>
<g id="a_edge3&#45;headlabel"><a xlink:href="dir_000009_000006.html" target="_top" xlink:title="1">
<text text-anchor="middle" x="83.0348" y="-60.5945" font-family="Helvetica,sans-Serif" font-size="10.00">1</text>
</a>
</g>
</g>
</g>
</svg>
