<?xml version="1.0" encoding="UTF-8" standalone="no"?>
<!DOCTYPE svg PUBLIC "-//W3C//DTD SVG 1.1//EN"
 "http://www.w3.org/Graphics/SVG/1.1/DTD/svg11.dtd">
<!-- Generated by graphviz version 2.40.1 (20161225.0304)
 -->
<!-- Title: osdk&#45;core/hal/src/dji_log.cpp Pages: 1 -->
<svg width="499pt" height="151pt"
 viewBox="0.00 0.00 499.00 151.00" xmlns="http://www.w3.org/2000/svg" xmlns:xlink="http://www.w3.org/1999/xlink">
<g id="graph0" class="graph" transform="scale(1 1) rotate(0) translate(4 147)">
<title>osdk&#45;core/hal/src/dji_log.cpp</title>
<polygon fill="#ffffff" stroke="transparent" points="-4,4 -4,-147 495,-147 495,4 -4,4"/>
<!-- Node0 -->
<g id="node1" class="node">
<title>Node0</title>
<g id="a_node1"><a xlink:title="Logging mechanism for printing status and error messages to the screen.">
<polygon fill="#bfbfbf" stroke="#000000" points="297,-112.5 297,-142.5 401,-142.5 401,-112.5 297,-112.5"/>
<text text-anchor="start" x="305" y="-130.5" font-family="Helvetica,sans-Serif" font-size="10.00" fill="#000000">osdk&#45;core/hal/src/dji</text>
<text text-anchor="middle" x="349" y="-119.5" font-family="Helvetica,sans-Serif" font-size="10.00" fill="#000000">_log.cpp</text>
</a>
</g>
</g>
<!-- Node1 -->
<g id="node2" class="node">
<title>Node1</title>
<g id="a_node2"><a xlink:href="dji__log_8hpp.html" target="_top" xlink:title="Logging mechanism for printing status and error messages to the screen.">
<polygon fill="#ffffff" stroke="#000000" points="155.5,-56.5 155.5,-75.5 218.5,-75.5 218.5,-56.5 155.5,-56.5"/>
<text text-anchor="middle" x="187" y="-63.5" font-family="Helvetica,sans-Serif" font-size="10.00" fill="#000000">dji_log.hpp</text>
</a>
</g>
</g>
<!-- Node0&#45;&gt;Node1 -->
<g id="edge1" class="edge">
<title>Node0&#45;&gt;Node1</title>
<path fill="none" stroke="#191970" d="M309.3703,-112.4554C282.4588,-102.239 247.2189,-88.8609 221.4706,-79.0861"/>
<polygon fill="#191970" stroke="#191970" points="222.6955,-75.8074 212.1043,-75.5303 220.211,-82.3517 222.6955,-75.8074"/>
</g>
<!-- Node6 -->
<g id="node7" class="node">
<title>Node6</title>
<g id="a_node7"><a xlink:title=" ">
<polygon fill="#ffffff" stroke="#bfbfbf" points="237,-56.5 237,-75.5 357,-75.5 357,-56.5 237,-56.5"/>
<text text-anchor="middle" x="297" y="-63.5" font-family="Helvetica,sans-Serif" font-size="10.00" fill="#000000">dji_memory_default.hpp</text>
</a>
</g>
</g>
<!-- Node0&#45;&gt;Node6 -->
<g id="edge6" class="edge">
<title>Node0&#45;&gt;Node6</title>
<path fill="none" stroke="#191970" d="M336.1461,-112.2977C328.7776,-103.5831 319.4974,-92.6075 311.8223,-83.5302"/>
<polygon fill="#191970" stroke="#191970" points="314.4552,-81.2233 305.3259,-75.8469 309.1098,-85.743 314.4552,-81.2233"/>
</g>
<!-- Node7 -->
<g id="node8" class="node">
<title>Node7</title>
<g id="a_node8"><a xlink:title=" ">
<polygon fill="#ffffff" stroke="#bfbfbf" points="375,-56.5 375,-75.5 427,-75.5 427,-56.5 375,-56.5"/>
<text text-anchor="middle" x="401" y="-63.5" font-family="Helvetica,sans-Serif" font-size="10.00" fill="#000000">stdarg.h</text>
</a>
</g>
</g>
<!-- Node0&#45;&gt;Node7 -->
<g id="edge7" class="edge">
<title>Node0&#45;&gt;Node7</title>
<path fill="none" stroke="#191970" d="M361.8539,-112.2977C369.2224,-103.5831 378.5026,-92.6075 386.1777,-83.5302"/>
<polygon fill="#191970" stroke="#191970" points="388.8902,-85.743 392.6741,-75.8469 383.5448,-81.2233 388.8902,-85.743"/>
</g>
<!-- Node8 -->
<g id="node9" class="node">
<title>Node8</title>
<g id="a_node9"><a xlink:title=" ">
<polygon fill="#ffffff" stroke="#bfbfbf" points="445,-56.5 445,-75.5 491,-75.5 491,-56.5 445,-56.5"/>
<text text-anchor="middle" x="468" y="-63.5" font-family="Helvetica,sans-Serif" font-size="10.00" fill="#000000">stdio.h</text>
</a>
</g>
</g>
<!-- Node0&#45;&gt;Node8 -->
<g id="edge8" class="edge">
<title>Node0&#45;&gt;Node8</title>
<path fill="none" stroke="#191970" d="M378.1107,-112.4554C397.1824,-102.599 421.9482,-89.7999 440.6539,-80.1327"/>
<polygon fill="#191970" stroke="#191970" points="442.2824,-83.2309 449.5592,-75.5303 439.0685,-77.0122 442.2824,-83.2309"/>
</g>
<!-- Node2 -->
<g id="node3" class="node">
<title>Node2</title>
<g id="a_node3"><a xlink:title=" ">
<polygon fill="#ffffff" stroke="#bfbfbf" points="0,-.5 0,-19.5 86,-19.5 86,-.5 0,-.5"/>
<text text-anchor="middle" x="43" y="-7.5" font-family="Helvetica,sans-Serif" font-size="10.00" fill="#000000">dji_memory.hpp</text>
</a>
</g>
</g>
<!-- Node1&#45;&gt;Node2 -->
<g id="edge2" class="edge">
<title>Node1&#45;&gt;Node2</title>
<path fill="none" stroke="#191970" d="M162.2455,-56.3733C138.7151,-47.2226 103.1313,-33.3844 76.9574,-23.2057"/>
<polygon fill="#191970" stroke="#191970" points="78.0201,-19.8636 67.4315,-19.5011 75.4829,-26.3877 78.0201,-19.8636"/>
</g>
<!-- Node3 -->
<g id="node4" class="node">
<title>Node3</title>
<g id="a_node4"><a xlink:title=" ">
<polygon fill="#ffffff" stroke="#bfbfbf" points="104.5,-.5 104.5,-19.5 173.5,-19.5 173.5,-.5 104.5,-.5"/>
<text text-anchor="middle" x="139" y="-7.5" font-family="Helvetica,sans-Serif" font-size="10.00" fill="#000000">dji_type.hpp</text>
</a>
</g>
</g>
<!-- Node1&#45;&gt;Node3 -->
<g id="edge3" class="edge">
<title>Node1&#45;&gt;Node3</title>
<path fill="none" stroke="#191970" d="M178.639,-56.2455C171.825,-48.2958 162.0319,-36.8706 153.8848,-27.3656"/>
<polygon fill="#191970" stroke="#191970" points="156.4305,-24.9575 147.2651,-19.6427 151.1157,-29.513 156.4305,-24.9575"/>
</g>
<!-- Node4 -->
<g id="node5" class="node">
<title>Node4</title>
<g id="a_node5"><a xlink:title=" ">
<polygon fill="#ffffff" stroke="#bfbfbf" points="191.5,-.5 191.5,-19.5 280.5,-19.5 280.5,-.5 191.5,-.5"/>
<text text-anchor="middle" x="236" y="-7.5" font-family="Helvetica,sans-Serif" font-size="10.00" fill="#000000">dji_singleton.hpp</text>
</a>
</g>
</g>
<!-- Node1&#45;&gt;Node4 -->
<g id="edge4" class="edge">
<title>Node1&#45;&gt;Node4</title>
<path fill="none" stroke="#191970" d="M195.5351,-56.2455C202.4912,-48.2958 212.4883,-36.8706 220.8051,-27.3656"/>
<polygon fill="#191970" stroke="#191970" points="223.6116,-29.4732 227.5627,-19.6427 218.3436,-24.8637 223.6116,-29.4732"/>
</g>
<!-- Node5 -->
<g id="node6" class="node">
<title>Node5</title>
<g id="a_node6"><a xlink:title=" ">
<polygon fill="#ffffff" stroke="#bfbfbf" points="298,-.5 298,-19.5 418,-19.5 418,-.5 298,-.5"/>
<text text-anchor="middle" x="358" y="-7.5" font-family="Helvetica,sans-Serif" font-size="10.00" fill="#000000">dji_thread_manager.hpp</text>
</a>
</g>
</g>
<!-- Node1&#45;&gt;Node5 -->
<g id="edge5" class="edge">
<title>Node1&#45;&gt;Node5</title>
<path fill="none" stroke="#191970" d="M216.3959,-56.3733C244.8307,-47.0613 288.0877,-32.8953 319.3081,-22.671"/>
<polygon fill="#191970" stroke="#191970" points="320.5736,-25.9396 328.9876,-19.5011 318.395,-19.2872 320.5736,-25.9396"/>
</g>
</g>
</svg>
