<?xml version="1.0" encoding="UTF-8" standalone="no"?>
<!DOCTYPE svg PUBLIC "-//W3C//DTD SVG 1.1//EN"
 "http://www.w3.org/Graphics/SVG/1.1/DTD/svg11.dtd">
<!-- Generated by graphviz version 2.40.1 (20161225.0304)
 -->
<!-- Title: osdk&#45;lib/x86/osdk&#45;core/inc/dji_log.hpp Pages: 1 -->
<svg width="297pt" height="263pt"
 viewBox="0.00 0.00 297.00 263.00" xmlns="http://www.w3.org/2000/svg" xmlns:xlink="http://www.w3.org/1999/xlink">
<g id="graph0" class="graph" transform="scale(1 1) rotate(0) translate(4 259)">
<title>osdk&#45;lib/x86/osdk&#45;core/inc/dji_log.hpp</title>
<polygon fill="#ffffff" stroke="transparent" points="-4,4 -4,-259 293,-259 293,4 -4,4"/>
<!-- Node0 -->
<g id="node1" class="node">
<title>Node0</title>
<g id="a_node1"><a xlink:title="Logging mechanism for printing status and error messages to the screen.">
<polygon fill="#bfbfbf" stroke="#000000" points="39,-224.5 39,-254.5 154,-254.5 154,-224.5 39,-224.5"/>
<text text-anchor="start" x="47" y="-242.5" font-family="Helvetica,sans-Serif" font-size="10.00" fill="#000000">osdk&#45;lib/x86/osdk&#45;core</text>
<text text-anchor="middle" x="96.5" y="-231.5" font-family="Helvetica,sans-Serif" font-size="10.00" fill="#000000">/inc/dji_log.hpp</text>
</a>
</g>
</g>
<!-- Node1 -->
<g id="node2" class="node">
<title>Node1</title>
<g id="a_node2"><a xlink:href="dji__singleton_8hpp.html" target="_top" xlink:title="Singleton Template Class implementation for use with the DJI OSDK.">
<polygon fill="#ffffff" stroke="#000000" points="0,-112.5 0,-131.5 89,-131.5 89,-112.5 0,-112.5"/>
<text text-anchor="middle" x="44.5" y="-119.5" font-family="Helvetica,sans-Serif" font-size="10.00" fill="#000000">dji_singleton.hpp</text>
</a>
</g>
</g>
<!-- Node0&#45;&gt;Node1 -->
<g id="edge1" class="edge">
<title>Node0&#45;&gt;Node1</title>
<path fill="none" stroke="#191970" d="M89.7019,-224.1389C80.248,-202.7768 63.1414,-164.1224 52.9005,-140.982"/>
<polygon fill="#191970" stroke="#191970" points="55.9782,-139.2876 48.7306,-131.5595 49.577,-142.1205 55.9782,-139.2876"/>
</g>
<!-- Node2 -->
<g id="node3" class="node">
<title>Node2</title>
<g id="a_node3"><a xlink:href="dji__platform_8hpp.html" target="_top" xlink:title="Vehicle API for DJI onboardSDK library.">
<polygon fill="#ffffff" stroke="#000000" points="98.5,-168.5 98.5,-187.5 184.5,-187.5 184.5,-168.5 98.5,-168.5"/>
<text text-anchor="middle" x="141.5" y="-175.5" font-family="Helvetica,sans-Serif" font-size="10.00" fill="#000000">dji_platform.hpp</text>
</a>
</g>
</g>
<!-- Node0&#45;&gt;Node2 -->
<g id="edge2" class="edge">
<title>Node0&#45;&gt;Node2</title>
<path fill="none" stroke="#191970" d="M107.6236,-224.2977C113.8701,-215.7609 121.704,-205.0545 128.2647,-196.0883"/>
<polygon fill="#191970" stroke="#191970" points="131.2144,-197.984 134.2949,-187.8469 125.5652,-193.8505 131.2144,-197.984"/>
</g>
<!-- Node2&#45;&gt;Node1 -->
<g id="edge7" class="edge">
<title>Node2&#45;&gt;Node1</title>
<path fill="none" stroke="#191970" d="M124.6039,-168.2455C109.582,-159.5731 87.3957,-146.7645 70.179,-136.825"/>
<polygon fill="#191970" stroke="#191970" points="71.6128,-133.6114 61.2025,-131.6427 68.1129,-139.6737 71.6128,-133.6114"/>
</g>
<!-- Node3 -->
<g id="node4" class="node">
<title>Node3</title>
<g id="a_node4"><a xlink:href="osdk__platform_8h.html" target="_top" xlink:title="This is the header file for define OSDK platform interfaces.">
<polygon fill="#ffffff" stroke="#000000" points="107.5,-112.5 107.5,-131.5 193.5,-131.5 193.5,-112.5 107.5,-112.5"/>
<text text-anchor="middle" x="150.5" y="-119.5" font-family="Helvetica,sans-Serif" font-size="10.00" fill="#000000">osdk_platform.h</text>
</a>
</g>
</g>
<!-- Node2&#45;&gt;Node3 -->
<g id="edge3" class="edge">
<title>Node2&#45;&gt;Node3</title>
<path fill="none" stroke="#191970" d="M143.0677,-168.2455C144.2421,-160.9382 145.8884,-150.6944 147.3332,-141.7046"/>
<polygon fill="#191970" stroke="#191970" points="150.8191,-142.0714 148.9503,-131.6427 143.9078,-140.9606 150.8191,-142.0714"/>
</g>
<!-- Node7 -->
<g id="node8" class="node">
<title>Node7</title>
<g id="a_node8"><a xlink:href="osdk__logger_8h.html" target="_top" xlink:title="This is the header file for &quot;osdk_logger.c&quot;, defining the structure and (exported) function prototype...">
<polygon fill="#ffffff" stroke="#000000" points="212,-112.5 212,-131.5 289,-131.5 289,-112.5 212,-112.5"/>
<text text-anchor="middle" x="250.5" y="-119.5" font-family="Helvetica,sans-Serif" font-size="10.00" fill="#000000">osdk_logger.h</text>
</a>
</g>
</g>
<!-- Node2&#45;&gt;Node7 -->
<g id="edge8" class="edge">
<title>Node2&#45;&gt;Node7</title>
<path fill="none" stroke="#191970" d="M160.4864,-168.2455C177.6792,-159.4125 203.2238,-146.2887 222.7132,-136.2758"/>
<polygon fill="#191970" stroke="#191970" points="224.4359,-139.3257 231.7312,-131.6427 221.237,-133.0993 224.4359,-139.3257"/>
</g>
<!-- Node4 -->
<g id="node5" class="node">
<title>Node4</title>
<g id="a_node5"><a xlink:href="osdk__typedef_8h_source.html" target="_top" xlink:title=" ">
<polygon fill="#ffffff" stroke="#000000" points="159,-56.5 159,-75.5 242,-75.5 242,-56.5 159,-56.5"/>
<text text-anchor="middle" x="200.5" y="-63.5" font-family="Helvetica,sans-Serif" font-size="10.00" fill="#000000">osdk_typedef.h</text>
</a>
</g>
</g>
<!-- Node3&#45;&gt;Node4 -->
<g id="edge4" class="edge">
<title>Node3&#45;&gt;Node4</title>
<path fill="none" stroke="#191970" d="M159.2093,-112.2455C166.3073,-104.2958 176.5084,-92.8706 184.995,-83.3656"/>
<polygon fill="#191970" stroke="#191970" points="187.8411,-85.4331 191.8905,-75.6427 182.6195,-80.771 187.8411,-85.4331"/>
</g>
<!-- Node5 -->
<g id="node6" class="node">
<title>Node5</title>
<g id="a_node6"><a xlink:title=" ">
<polygon fill="#ffffff" stroke="#bfbfbf" points="140.5,-.5 140.5,-19.5 192.5,-19.5 192.5,-.5 140.5,-.5"/>
<text text-anchor="middle" x="166.5" y="-7.5" font-family="Helvetica,sans-Serif" font-size="10.00" fill="#000000">stddef.h</text>
</a>
</g>
</g>
<!-- Node4&#45;&gt;Node5 -->
<g id="edge5" class="edge">
<title>Node4&#45;&gt;Node5</title>
<path fill="none" stroke="#191970" d="M194.5777,-56.2455C189.8973,-48.5367 183.2327,-37.5598 177.5711,-28.2348"/>
<polygon fill="#191970" stroke="#191970" points="180.5361,-26.3741 172.3545,-19.6427 174.5525,-30.007 180.5361,-26.3741"/>
</g>
<!-- Node6 -->
<g id="node7" class="node">
<title>Node6</title>
<g id="a_node7"><a xlink:title=" ">
<polygon fill="#ffffff" stroke="#bfbfbf" points="211,-.5 211,-19.5 260,-19.5 260,-.5 211,-.5"/>
<text text-anchor="middle" x="235.5" y="-7.5" font-family="Helvetica,sans-Serif" font-size="10.00" fill="#000000">stdint.h</text>
</a>
</g>
</g>
<!-- Node4&#45;&gt;Node6 -->
<g id="edge6" class="edge">
<title>Node4&#45;&gt;Node6</title>
<path fill="none" stroke="#191970" d="M206.5965,-56.2455C211.4145,-48.5367 218.2751,-37.5598 224.1032,-28.2348"/>
<polygon fill="#191970" stroke="#191970" points="227.1413,-29.9777 229.4733,-19.6427 221.2053,-26.2677 227.1413,-29.9777"/>
</g>
<!-- Node7&#45;&gt;Node4 -->
<g id="edge9" class="edge">
<title>Node7&#45;&gt;Node4</title>
<path fill="none" stroke="#191970" d="M241.7907,-112.2455C234.6927,-104.2958 224.4916,-92.8706 216.005,-83.3656"/>
<polygon fill="#191970" stroke="#191970" points="218.3805,-80.771 209.1095,-75.6427 213.1589,-85.4331 218.3805,-80.771"/>
</g>
</g>
</svg>
