<?xml version="1.0" encoding="UTF-8" standalone="no"?>
<!DOCTYPE svg PUBLIC "-//W3C//DTD SVG 1.1//EN"
 "http://www.w3.org/Graphics/SVG/1.1/DTD/svg11.dtd">
<!-- Generated by graphviz version 2.40.1 (20161225.0304)
 -->
<!-- Title: osdk&#45;core/api/inc/dji_camera.hpp Pages: 1 -->
<svg width="294pt" height="207pt"
 viewBox="0.00 0.00 294.00 207.00" xmlns="http://www.w3.org/2000/svg" xmlns:xlink="http://www.w3.org/1999/xlink">
<g id="graph0" class="graph" transform="scale(1 1) rotate(0) translate(4 203)">
<title>osdk&#45;core/api/inc/dji_camera.hpp</title>
<polygon fill="#ffffff" stroke="transparent" points="-4,4 -4,-203 290,-203 290,4 -4,4"/>
<!-- Node0 -->
<g id="node1" class="node">
<title>Node0</title>
<g id="a_node1"><a xlink:title="Camera/Gimbal API for DJI onboardSDK library.">
<polygon fill="#bfbfbf" stroke="#000000" points="70.5,-168.5 70.5,-198.5 174.5,-198.5 174.5,-168.5 70.5,-168.5"/>
<text text-anchor="start" x="78.5" y="-186.5" font-family="Helvetica,sans-Serif" font-size="10.00" fill="#000000">osdk&#45;core/api/inc/dji</text>
<text text-anchor="middle" x="122.5" y="-175.5" font-family="Helvetica,sans-Serif" font-size="10.00" fill="#000000">_camera.hpp</text>
</a>
</g>
</g>
<!-- Node1 -->
<g id="node2" class="node">
<title>Node1</title>
<g id="a_node2"><a xlink:title=" ">
<polygon fill="#ffffff" stroke="#bfbfbf" points="0,-.5 0,-19.5 83,-19.5 83,-.5 0,-.5"/>
<text text-anchor="middle" x="41.5" y="-7.5" font-family="Helvetica,sans-Serif" font-size="10.00" fill="#000000">dji_macros.hpp</text>
</a>
</g>
</g>
<!-- Node0&#45;&gt;Node1 -->
<g id="edge1" class="edge">
<title>Node0&#45;&gt;Node1</title>
<path fill="none" stroke="#191970" d="M100.1816,-168.3537C88.3863,-159.1888 74.6924,-146.4866 66.5,-132 48.0413,-99.3595 43.1189,-54.9491 41.8639,-29.6985"/>
<polygon fill="#191970" stroke="#191970" points="45.3567,-29.428 41.5098,-19.5563 38.3609,-29.6723 45.3567,-29.428"/>
</g>
<!-- Node2 -->
<g id="node3" class="node">
<title>Node2</title>
<g id="a_node3"><a xlink:href="dji__command_8hpp.html" target="_top" xlink:title="All DJI OSDK OpenProtocol Command IDs.">
<polygon fill="#ffffff" stroke="#000000" points="76,-112.5 76,-131.5 169,-131.5 169,-112.5 76,-112.5"/>
<text text-anchor="middle" x="122.5" y="-119.5" font-family="Helvetica,sans-Serif" font-size="10.00" fill="#000000">dji_command.hpp</text>
</a>
</g>
</g>
<!-- Node0&#45;&gt;Node2 -->
<g id="edge2" class="edge">
<title>Node0&#45;&gt;Node2</title>
<path fill="none" stroke="#191970" d="M122.5,-168.2977C122.5,-160.3834 122.5,-150.6043 122.5,-142.0759"/>
<polygon fill="#191970" stroke="#191970" points="126.0001,-141.8469 122.5,-131.8469 119.0001,-141.847 126.0001,-141.8469"/>
</g>
<!-- Node7 -->
<g id="node8" class="node">
<title>Node7</title>
<g id="a_node8"><a xlink:href="dji__type_8hpp.html" target="_top" xlink:title="Data type and Data Structure definitions for use throughout DJI OSDK.">
<polygon fill="#ffffff" stroke="#000000" points="187,-112.5 187,-131.5 256,-131.5 256,-112.5 187,-112.5"/>
<text text-anchor="middle" x="221.5" y="-119.5" font-family="Helvetica,sans-Serif" font-size="10.00" fill="#000000">dji_type.hpp</text>
</a>
</g>
</g>
<!-- Node0&#45;&gt;Node7 -->
<g id="edge8" class="edge">
<title>Node0&#45;&gt;Node7</title>
<path fill="none" stroke="#191970" d="M146.7181,-168.4554C162.0773,-158.9141 181.8757,-146.6151 197.2425,-137.0691"/>
<polygon fill="#191970" stroke="#191970" points="199.511,-139.7802 206.1585,-131.5303 195.8172,-133.8341 199.511,-139.7802"/>
</g>
<!-- Node3 -->
<g id="node4" class="node">
<title>Node3</title>
<g id="a_node4"><a xlink:href="dji__error_8hpp.html" target="_top" xlink:title="All DJI OSDK OpenProtocol ACK Error Codes.">
<polygon fill="#ffffff" stroke="#000000" points="87.5,-56.5 87.5,-75.5 157.5,-75.5 157.5,-56.5 87.5,-56.5"/>
<text text-anchor="middle" x="122.5" y="-63.5" font-family="Helvetica,sans-Serif" font-size="10.00" fill="#000000">dji_error.hpp</text>
</a>
</g>
</g>
<!-- Node2&#45;&gt;Node3 -->
<g id="edge3" class="edge">
<title>Node2&#45;&gt;Node3</title>
<path fill="none" stroke="#191970" d="M122.5,-112.2455C122.5,-104.9382 122.5,-94.6944 122.5,-85.7046"/>
<polygon fill="#191970" stroke="#191970" points="126.0001,-85.6426 122.5,-75.6427 119.0001,-85.6427 126.0001,-85.6426"/>
</g>
<!-- Node6 -->
<g id="node7" class="node">
<title>Node6</title>
<g id="a_node7"><a xlink:title=" ">
<polygon fill="#ffffff" stroke="#bfbfbf" points="176,-56.5 176,-75.5 225,-75.5 225,-56.5 176,-56.5"/>
<text text-anchor="middle" x="200.5" y="-63.5" font-family="Helvetica,sans-Serif" font-size="10.00" fill="#000000">stdint.h</text>
</a>
</g>
</g>
<!-- Node2&#45;&gt;Node6 -->
<g id="edge7" class="edge">
<title>Node2&#45;&gt;Node6</title>
<path fill="none" stroke="#191970" d="M136.0866,-112.2455C147.8305,-103.814 165.0199,-91.4729 178.6882,-81.6598"/>
<polygon fill="#191970" stroke="#191970" points="180.9871,-84.3179 187.0691,-75.6427 176.9046,-78.6316 180.9871,-84.3179"/>
</g>
<!-- Node3&#45;&gt;Node1 -->
<g id="edge5" class="edge">
<title>Node3&#45;&gt;Node1</title>
<path fill="none" stroke="#191970" d="M108.3909,-56.2455C96.0791,-47.7337 78.0042,-35.2375 63.7462,-25.3801"/>
<polygon fill="#191970" stroke="#191970" points="65.6634,-22.4506 55.4474,-19.6427 61.6826,-28.2085 65.6634,-22.4506"/>
</g>
<!-- Node4 -->
<g id="node5" class="node">
<title>Node4</title>
<g id="a_node5"><a xlink:title=" ">
<polygon fill="#ffffff" stroke="#bfbfbf" points="101.5,-.5 101.5,-19.5 147.5,-19.5 147.5,-.5 101.5,-.5"/>
<text text-anchor="middle" x="124.5" y="-7.5" font-family="Helvetica,sans-Serif" font-size="10.00" fill="#000000">cstdint</text>
</a>
</g>
</g>
<!-- Node3&#45;&gt;Node4 -->
<g id="edge4" class="edge">
<title>Node3&#45;&gt;Node4</title>
<path fill="none" stroke="#191970" d="M122.8484,-56.2455C123.1093,-48.9382 123.4752,-38.6944 123.7963,-29.7046"/>
<polygon fill="#191970" stroke="#191970" points="127.2964,-29.7613 124.1556,-19.6427 120.3008,-29.5113 127.2964,-29.7613"/>
</g>
<!-- Node5 -->
<g id="node6" class="node">
<title>Node5</title>
<g id="a_node6"><a xlink:title=" ">
<polygon fill="#ffffff" stroke="#bfbfbf" points="166,-.5 166,-19.5 201,-19.5 201,-.5 166,-.5"/>
<text text-anchor="middle" x="183.5" y="-7.5" font-family="Helvetica,sans-Serif" font-size="10.00" fill="#000000">map</text>
</a>
</g>
</g>
<!-- Node3&#45;&gt;Node5 -->
<g id="edge6" class="edge">
<title>Node3&#45;&gt;Node5</title>
<path fill="none" stroke="#191970" d="M133.1254,-56.2455C142.0473,-48.0549 154.988,-36.1749 165.5192,-26.5069"/>
<polygon fill="#191970" stroke="#191970" points="167.9968,-28.9837 172.9964,-19.6427 163.2629,-23.8271 167.9968,-28.9837"/>
</g>
<!-- Node7&#45;&gt;Node6 -->
<g id="edge10" class="edge">
<title>Node7&#45;&gt;Node6</title>
<path fill="none" stroke="#191970" d="M217.8421,-112.2455C215.0416,-104.7776 211.091,-94.2427 207.6676,-85.1137"/>
<polygon fill="#191970" stroke="#191970" points="210.9045,-83.777 204.116,-75.6427 204.3501,-86.2349 210.9045,-83.777"/>
</g>
<!-- Node8 -->
<g id="node9" class="node">
<title>Node8</title>
<g id="a_node9"><a xlink:title=" ">
<polygon fill="#ffffff" stroke="#bfbfbf" points="243,-56.5 243,-75.5 286,-75.5 286,-56.5 243,-56.5"/>
<text text-anchor="middle" x="264.5" y="-63.5" font-family="Helvetica,sans-Serif" font-size="10.00" fill="#000000">cstdio</text>
</a>
</g>
</g>
<!-- Node7&#45;&gt;Node8 -->
<g id="edge9" class="edge">
<title>Node7&#45;&gt;Node8</title>
<path fill="none" stroke="#191970" d="M228.99,-112.2455C235.0326,-104.3761 243.6903,-93.101 250.9441,-83.6542"/>
<polygon fill="#191970" stroke="#191970" points="253.7815,-85.7058 257.0958,-75.6427 248.2295,-81.4426 253.7815,-85.7058"/>
</g>
</g>
</svg>
