<?xml version="1.0" encoding="UTF-8" standalone="no"?>
<!DOCTYPE svg PUBLIC "-//W3C//DTD SVG 1.1//EN"
 "http://www.w3.org/Graphics/SVG/1.1/DTD/svg11.dtd">
<!-- Generated by graphviz version 2.40.1 (20161225.0304)
 -->
<!-- Title: osdk&#45;core/api/src/dji_psdk_manager.cpp Pages: 1 -->
<svg width="789pt" height="554pt"
 viewBox="0.00 0.00 789.00 554.00" xmlns="http://www.w3.org/2000/svg" xmlns:xlink="http://www.w3.org/1999/xlink">
<g id="graph0" class="graph" transform="scale(1 1) rotate(0) translate(4 550)">
<title>osdk&#45;core/api/src/dji_psdk_manager.cpp</title>
<polygon fill="#ffffff" stroke="transparent" points="-4,4 -4,-550 785,-550 785,4 -4,4"/>
<!-- Node0 -->
<g id="node1" class="node">
<title>Node0</title>
<g id="a_node1"><a xlink:title="Implementation of psdk module.">
<polygon fill="#bfbfbf" stroke="#000000" points="5,-515.5 5,-545.5 109,-545.5 109,-515.5 5,-515.5"/>
<text text-anchor="start" x="13" y="-533.5" font-family="Helvetica,sans-Serif" font-size="10.00" fill="#000000">osdk&#45;core/api/src/dji</text>
<text text-anchor="middle" x="57" y="-522.5" font-family="Helvetica,sans-Serif" font-size="10.00" fill="#000000">_psdk_manager.cpp</text>
</a>
</g>
</g>
<!-- Node1 -->
<g id="node2" class="node">
<title>Node1</title>
<g id="a_node2"><a xlink:href="dji__psdk__manager_8hpp.html" target="_top" xlink:title="Implementation of the manager for psdk module.">
<polygon fill="#ffffff" stroke="#000000" points="0,-459.5 0,-478.5 114,-478.5 114,-459.5 0,-459.5"/>
<text text-anchor="middle" x="57" y="-466.5" font-family="Helvetica,sans-Serif" font-size="10.00" fill="#000000">dji_psdk_manager.hpp</text>
</a>
</g>
</g>
<!-- Node0&#45;&gt;Node1 -->
<g id="edge1" class="edge">
<title>Node0&#45;&gt;Node1</title>
<path fill="none" stroke="#191970" d="M57,-515.2977C57,-507.3834 57,-497.6043 57,-489.0759"/>
<polygon fill="#191970" stroke="#191970" points="60.5001,-488.8469 57,-478.8469 53.5001,-488.847 60.5001,-488.8469"/>
</g>
<!-- Node2 -->
<g id="node3" class="node">
<title>Node2</title>
<g id="a_node3"><a xlink:title=" ">
<polygon fill="#ffffff" stroke="#bfbfbf" points="133,-112.5 133,-131.5 177,-131.5 177,-112.5 133,-112.5"/>
<text text-anchor="middle" x="155" y="-119.5" font-family="Helvetica,sans-Serif" font-size="10.00" fill="#000000">vector</text>
</a>
</g>
</g>
<!-- Node1&#45;&gt;Node2 -->
<g id="edge2" class="edge">
<title>Node1&#45;&gt;Node2</title>
<path fill="none" stroke="#191970" d="M50.773,-459.2504C39.3034,-440.3274 16,-396.9633 16,-357 16,-357 16,-357 16,-234 16,-205.3924 88.2917,-159.7972 128.6061,-136.5946"/>
<polygon fill="#191970" stroke="#191970" points="130.4313,-139.5831 137.3956,-131.5987 126.9722,-133.4974 130.4313,-139.5831"/>
</g>
<!-- Node3 -->
<g id="node4" class="node">
<title>Node3</title>
<g id="a_node4"><a xlink:href="dji__psdk__module_8hpp.html" target="_top" xlink:title="Implementation of psdk module for payload node.">
<polygon fill="#ffffff" stroke="#000000" points="44,-403.5 44,-422.5 152,-422.5 152,-403.5 44,-403.5"/>
<text text-anchor="middle" x="98" y="-410.5" font-family="Helvetica,sans-Serif" font-size="10.00" fill="#000000">dji_psdk_module.hpp</text>
</a>
</g>
</g>
<!-- Node1&#45;&gt;Node3 -->
<g id="edge3" class="edge">
<title>Node1&#45;&gt;Node3</title>
<path fill="none" stroke="#191970" d="M64.1417,-459.2455C69.8444,-451.4564 77.99,-440.3308 84.8625,-430.9439"/>
<polygon fill="#191970" stroke="#191970" points="87.8568,-432.7789 90.9402,-422.6427 82.2087,-428.6437 87.8568,-432.7789"/>
</g>
<!-- Node3&#45;&gt;Node2 -->
<g id="edge4" class="edge">
<title>Node3&#45;&gt;Node2</title>
<path fill="none" stroke="#191970" d="M97.1657,-403.2596C95.5171,-383.1426 92,-335.5347 92,-295.5 92,-295.5 92,-295.5 92,-234 92,-196.3823 119.3316,-159.7298 137.9902,-139.0908"/>
<polygon fill="#191970" stroke="#191970" points="140.5856,-141.4399 144.878,-131.7535 135.4819,-136.649 140.5856,-141.4399"/>
</g>
<!-- Node4 -->
<g id="node5" class="node">
<title>Node4</title>
<g id="a_node5"><a xlink:href="dji__payload__base_8hpp.html" target="_top" xlink:title="Abstract protocol implementation for payload module.">
<polygon fill="#ffffff" stroke="#000000" points="5,-112.5 5,-131.5 115,-131.5 115,-112.5 5,-112.5"/>
<text text-anchor="middle" x="60" y="-119.5" font-family="Helvetica,sans-Serif" font-size="10.00" fill="#000000">dji_payload_base.hpp</text>
</a>
</g>
</g>
<!-- Node3&#45;&gt;Node4 -->
<g id="edge5" class="edge">
<title>Node3&#45;&gt;Node4</title>
<path fill="none" stroke="#191970" d="M91.6959,-403.4002C79.5295,-383.9179 54,-337.9762 54,-295.5 54,-295.5 54,-295.5 54,-234 54,-201.6653 56.5245,-164.1547 58.2984,-141.7876"/>
<polygon fill="#191970" stroke="#191970" points="61.8065,-141.833 59.1403,-131.5791 54.8302,-141.2576 61.8065,-141.833"/>
</g>
<!-- Node11 -->
<g id="node12" class="node">
<title>Node11</title>
<g id="a_node12"><a xlink:href="dji__payload__link_8hpp.html" target="_top" xlink:title="Implementation of payload node.">
<polygon fill="#ffffff" stroke="#000000" points="163,-347.5 163,-366.5 267,-366.5 267,-347.5 163,-347.5"/>
<text text-anchor="middle" x="215" y="-354.5" font-family="Helvetica,sans-Serif" font-size="10.00" fill="#000000">dji_payload_link.hpp</text>
</a>
</g>
</g>
<!-- Node3&#45;&gt;Node11 -->
<g id="edge13" class="edge">
<title>Node3&#45;&gt;Node11</title>
<path fill="none" stroke="#191970" d="M118.113,-403.3733C136.8103,-394.4241 164.8744,-380.9917 185.9934,-370.8835"/>
<polygon fill="#191970" stroke="#191970" points="187.6405,-373.9755 195.1494,-366.5011 184.6183,-367.6614 187.6405,-373.9755"/>
</g>
<!-- Node20 -->
<g id="node21" class="node">
<title>Node20</title>
<g id="a_node21"><a xlink:href="dji__mop__client_8hpp.html" target="_top" xlink:title="Implementation of the mop client.">
<polygon fill="#ffffff" stroke="#000000" points="500,-347.5 500,-366.5 598,-366.5 598,-347.5 500,-347.5"/>
<text text-anchor="middle" x="549" y="-354.5" font-family="Helvetica,sans-Serif" font-size="10.00" fill="#000000">dji_mop_client.hpp</text>
</a>
</g>
</g>
<!-- Node3&#45;&gt;Node20 -->
<g id="edge31" class="edge">
<title>Node3&#45;&gt;Node20</title>
<path fill="none" stroke="#191970" d="M152.4011,-406.2451C237.5868,-395.6677 401.7984,-375.2778 489.8315,-364.3469"/>
<polygon fill="#191970" stroke="#191970" points="490.4278,-367.7998 499.9203,-363.0942 489.5652,-360.8531 490.4278,-367.7998"/>
</g>
<!-- Node5 -->
<g id="node6" class="node">
<title>Node5</title>
<g id="a_node6"><a xlink:title=" ">
<polygon fill="#ffffff" stroke="#bfbfbf" points="302.5,-56.5 302.5,-75.5 351.5,-75.5 351.5,-56.5 302.5,-56.5"/>
<text text-anchor="middle" x="327" y="-63.5" font-family="Helvetica,sans-Serif" font-size="10.00" fill="#000000">stdint.h</text>
</a>
</g>
</g>
<!-- Node4&#45;&gt;Node5 -->
<g id="edge6" class="edge">
<title>Node4&#45;&gt;Node5</title>
<path fill="none" stroke="#191970" d="M113.9235,-112.4361C160.8969,-103.8255 230.7341,-90.3498 291,-76 291.4575,-75.8911 291.9179,-75.7803 292.3808,-75.6678"/>
<polygon fill="#191970" stroke="#191970" points="293.4585,-79.0048 302.2746,-73.1287 291.7184,-72.2245 293.4585,-79.0048"/>
</g>
<!-- Node6 -->
<g id="node7" class="node">
<title>Node6</title>
<g id="a_node7"><a xlink:title=" ">
<polygon fill="#ffffff" stroke="#bfbfbf" points="88.5,-56.5 88.5,-75.5 129.5,-75.5 129.5,-56.5 88.5,-56.5"/>
<text text-anchor="middle" x="109" y="-63.5" font-family="Helvetica,sans-Serif" font-size="10.00" fill="#000000">string</text>
</a>
</g>
</g>
<!-- Node4&#45;&gt;Node6 -->
<g id="edge7" class="edge">
<title>Node4&#45;&gt;Node6</title>
<path fill="none" stroke="#191970" d="M68.5351,-112.2455C75.4912,-104.2958 85.4883,-92.8706 93.8051,-83.3656"/>
<polygon fill="#191970" stroke="#191970" points="96.6116,-85.4732 100.5627,-75.6427 91.3436,-80.8637 96.6116,-85.4732"/>
</g>
<!-- Node7 -->
<g id="node8" class="node">
<title>Node7</title>
<g id="a_node8"><a xlink:title=" ">
<polygon fill="#ffffff" stroke="#bfbfbf" points="92.5,-.5 92.5,-19.5 175.5,-19.5 175.5,-.5 92.5,-.5"/>
<text text-anchor="middle" x="134" y="-7.5" font-family="Helvetica,sans-Serif" font-size="10.00" fill="#000000">osdk_typedef.h</text>
</a>
</g>
</g>
<!-- Node4&#45;&gt;Node7 -->
<g id="edge8" class="edge">
<title>Node4&#45;&gt;Node7</title>
<path fill="none" stroke="#191970" d="M60.9908,-112.3056C62.7558,-98.7459 67.4169,-73.7847 79,-56 86.88,-43.9011 98.9104,-33.3225 109.7125,-25.3704"/>
<polygon fill="#191970" stroke="#191970" points="111.814,-28.1719 118.0094,-19.5772 107.8066,-22.4325 111.814,-28.1719"/>
</g>
<!-- Node8 -->
<g id="node9" class="node">
<title>Node8</title>
<g id="a_node9"><a xlink:href="dji__error_8hpp.html" target="_top" xlink:title="All DJI OSDK OpenProtocol ACK Error Codes.">
<polygon fill="#ffffff" stroke="#000000" points="151,-56.5 151,-75.5 221,-75.5 221,-56.5 151,-56.5"/>
<text text-anchor="middle" x="186" y="-63.5" font-family="Helvetica,sans-Serif" font-size="10.00" fill="#000000">dji_error.hpp</text>
</a>
</g>
</g>
<!-- Node4&#45;&gt;Node8 -->
<g id="edge9" class="edge">
<title>Node4&#45;&gt;Node8</title>
<path fill="none" stroke="#191970" d="M81.6602,-112.3733C101.9772,-103.3435 132.564,-89.7494 155.375,-79.6111"/>
<polygon fill="#191970" stroke="#191970" points="156.9059,-82.7609 164.6225,-75.5011 154.0628,-76.3642 156.9059,-82.7609"/>
</g>
<!-- Node8&#45;&gt;Node7 -->
<g id="edge12" class="edge">
<title>Node8&#45;&gt;Node7</title>
<path fill="none" stroke="#191970" d="M176.9423,-56.2455C169.4858,-48.2155 158.7366,-36.6394 149.8583,-27.0781"/>
<polygon fill="#191970" stroke="#191970" points="152.3232,-24.589 142.9539,-19.6427 147.1937,-29.3522 152.3232,-24.589"/>
</g>
<!-- Node9 -->
<g id="node10" class="node">
<title>Node9</title>
<g id="a_node10"><a xlink:title=" ">
<polygon fill="#ffffff" stroke="#bfbfbf" points="215,-.5 215,-19.5 261,-19.5 261,-.5 215,-.5"/>
<text text-anchor="middle" x="238" y="-7.5" font-family="Helvetica,sans-Serif" font-size="10.00" fill="#000000">cstdint</text>
</a>
</g>
</g>
<!-- Node8&#45;&gt;Node9 -->
<g id="edge10" class="edge">
<title>Node8&#45;&gt;Node9</title>
<path fill="none" stroke="#191970" d="M195.0577,-56.2455C202.5142,-48.2155 213.2634,-36.6394 222.1417,-27.0781"/>
<polygon fill="#191970" stroke="#191970" points="224.8063,-29.3522 229.0461,-19.6427 219.6768,-24.589 224.8063,-29.3522"/>
</g>
<!-- Node10 -->
<g id="node11" class="node">
<title>Node10</title>
<g id="a_node11"><a xlink:title=" ">
<polygon fill="#ffffff" stroke="#bfbfbf" points="452.5,-.5 452.5,-19.5 487.5,-19.5 487.5,-.5 452.5,-.5"/>
<text text-anchor="middle" x="470" y="-7.5" font-family="Helvetica,sans-Serif" font-size="10.00" fill="#000000">map</text>
</a>
</g>
</g>
<!-- Node8&#45;&gt;Node10 -->
<g id="edge11" class="edge">
<title>Node8&#45;&gt;Node10</title>
<path fill="none" stroke="#191970" d="M221.0409,-57.9229C224.0683,-57.2595 227.0864,-56.6101 230,-56 306.7229,-39.9338 397.716,-23.097 442.4149,-14.971"/>
<polygon fill="#191970" stroke="#191970" points="443.2781,-18.3717 452.4933,-13.144 442.0294,-11.4839 443.2781,-18.3717"/>
</g>
<!-- Node12 -->
<g id="node13" class="node">
<title>Node12</title>
<g id="a_node13"><a xlink:href="dji__vehicle__callback_8hpp.html" target="_top" xlink:title="Type definition for new Vehicle&#45;style callbacks.">
<polygon fill="#ffffff" stroke="#000000" points="196,-286 196,-305 318,-305 318,-286 196,-286"/>
<text text-anchor="middle" x="257" y="-293" font-family="Helvetica,sans-Serif" font-size="10.00" fill="#000000">dji_vehicle_callback.hpp</text>
</a>
</g>
</g>
<!-- Node11&#45;&gt;Node12 -->
<g id="edge14" class="edge">
<title>Node11&#45;&gt;Node12</title>
<path fill="none" stroke="#191970" d="M221.5625,-347.3906C227.6908,-338.417 236.9985,-324.7879 244.5372,-313.7491"/>
<polygon fill="#191970" stroke="#191970" points="247.5956,-315.4768 250.345,-305.2449 241.815,-311.529 247.5956,-315.4768"/>
</g>
<!-- Node13 -->
<g id="node14" class="node">
<title>Node13</title>
<g id="a_node14"><a xlink:href="dji__ack_8hpp.html" target="_top" xlink:title="All DJI OSDK ACK parsing.">
<polygon fill="#ffffff" stroke="#000000" points="280,-224.5 280,-243.5 346,-243.5 346,-224.5 280,-224.5"/>
<text text-anchor="middle" x="313" y="-231.5" font-family="Helvetica,sans-Serif" font-size="10.00" fill="#000000">dji_ack.hpp</text>
</a>
</g>
</g>
<!-- Node12&#45;&gt;Node13 -->
<g id="edge15" class="edge">
<title>Node12&#45;&gt;Node13</title>
<path fill="none" stroke="#191970" d="M265.75,-285.8906C274.1662,-276.6478 287.0797,-262.466 297.281,-251.2628"/>
<polygon fill="#191970" stroke="#191970" points="299.9818,-253.4953 304.1266,-243.7449 294.806,-248.7824 299.9818,-253.4953"/>
</g>
<!-- Node16 -->
<g id="node17" class="node">
<title>Node16</title>
<g id="a_node17"><a xlink:href="dji__type_8hpp.html" target="_top" xlink:title="Data type and Data Structure definitions for use throughout DJI OSDK.">
<polygon fill="#ffffff" stroke="#000000" points="195.5,-112.5 195.5,-131.5 264.5,-131.5 264.5,-112.5 195.5,-112.5"/>
<text text-anchor="middle" x="230" y="-119.5" font-family="Helvetica,sans-Serif" font-size="10.00" fill="#000000">dji_type.hpp</text>
</a>
</g>
</g>
<!-- Node12&#45;&gt;Node16 -->
<g id="edge30" class="edge">
<title>Node12&#45;&gt;Node16</title>
<path fill="none" stroke="#191970" d="M241.4267,-285.975C216.3393,-269.598 167.8833,-233.4392 149,-188 139.1238,-164.2348 165.0725,-146.5399 190.1711,-135.4861"/>
<polygon fill="#191970" stroke="#191970" points="191.7568,-138.6184 199.6723,-131.576 189.0927,-132.1452 191.7568,-138.6184"/>
</g>
<!-- Node19 -->
<g id="node20" class="node">
<title>Node19</title>
<g id="a_node20"><a xlink:title=" ">
<polygon fill="#ffffff" stroke="#bfbfbf" points="574.5,-112.5 574.5,-131.5 637.5,-131.5 637.5,-112.5 574.5,-112.5"/>
<text text-anchor="middle" x="606" y="-119.5" font-family="Helvetica,sans-Serif" font-size="10.00" fill="#000000">dji_log.hpp</text>
</a>
</g>
</g>
<!-- Node12&#45;&gt;Node19 -->
<g id="edge29" class="edge">
<title>Node12&#45;&gt;Node19</title>
<path fill="none" stroke="#191970" d="M278.151,-285.9431C318.5023,-267.6095 409.1265,-225.9472 484,-188 517.3747,-171.0851 555.1779,-150.3903 579.7398,-136.7349"/>
<polygon fill="#191970" stroke="#191970" points="581.7502,-139.6212 588.7798,-131.6943 578.3412,-133.5074 581.7502,-139.6212"/>
</g>
<!-- Node13&#45;&gt;Node10 -->
<g id="edge28" class="edge">
<title>Node13&#45;&gt;Node10</title>
<path fill="none" stroke="#191970" d="M346.3198,-227.2159C382.7527,-219.0849 437.7387,-204.4767 451,-188 488.1003,-141.9042 480.525,-65.9164 474.2058,-29.9967"/>
<polygon fill="#191970" stroke="#191970" points="477.5772,-28.993 472.2564,-19.8311 470.7024,-30.3113 477.5772,-28.993"/>
</g>
<!-- Node14 -->
<g id="node15" class="node">
<title>Node14</title>
<g id="a_node15"><a xlink:href="dji__command_8hpp.html" target="_top" xlink:title="All DJI OSDK OpenProtocol Command IDs.">
<polygon fill="#ffffff" stroke="#000000" points="282.5,-112.5 282.5,-131.5 375.5,-131.5 375.5,-112.5 282.5,-112.5"/>
<text text-anchor="middle" x="329" y="-119.5" font-family="Helvetica,sans-Serif" font-size="10.00" fill="#000000">dji_command.hpp</text>
</a>
</g>
</g>
<!-- Node13&#45;&gt;Node14 -->
<g id="edge16" class="edge">
<title>Node13&#45;&gt;Node14</title>
<path fill="none" stroke="#191970" d="M314.3642,-224.4509C316.9737,-206.184 322.7207,-165.9553 326.1861,-141.6976"/>
<polygon fill="#191970" stroke="#191970" points="329.6898,-141.9194 327.6393,-131.5249 322.7602,-140.9294 329.6898,-141.9194"/>
</g>
<!-- Node15 -->
<g id="node16" class="node">
<title>Node15</title>
<g id="a_node16"><a xlink:href="dji__mission__type_8hpp.html" target="_top" xlink:title="Mission related data struct for DJI OSDK library.">
<polygon fill="#ffffff" stroke="#000000" points="158,-168.5 158,-187.5 266,-187.5 266,-168.5 158,-168.5"/>
<text text-anchor="middle" x="212" y="-175.5" font-family="Helvetica,sans-Serif" font-size="10.00" fill="#000000">dji_mission_type.hpp</text>
</a>
</g>
</g>
<!-- Node13&#45;&gt;Node15 -->
<g id="edge19" class="edge">
<title>Node13&#45;&gt;Node15</title>
<path fill="none" stroke="#191970" d="M295.4071,-224.2455C279.621,-215.4928 256.2361,-202.527 238.2413,-192.5496"/>
<polygon fill="#191970" stroke="#191970" points="239.8341,-189.4308 229.3913,-187.6427 236.4397,-195.5528 239.8341,-189.4308"/>
</g>
<!-- Node13&#45;&gt;Node16 -->
<g id="edge24" class="edge">
<title>Node13&#45;&gt;Node16</title>
<path fill="none" stroke="#191970" d="M308.3037,-224.1263C301.7443,-210.7876 289.0534,-186.5476 275,-168 267.0449,-157.5009 256.8719,-146.9152 248.2115,-138.5498"/>
<polygon fill="#191970" stroke="#191970" points="250.4689,-135.8678 240.7904,-131.5576 245.6685,-140.9626 250.4689,-135.8678"/>
</g>
<!-- Node18 -->
<g id="node19" class="node">
<title>Node18</title>
<g id="a_node19"><a xlink:href="dji__version_8hpp.html" target="_top" xlink:title="Drone/SDK Version definition for DJI onboardSDK library.">
<polygon fill="#ffffff" stroke="#000000" points="360,-168.5 360,-187.5 442,-187.5 442,-168.5 360,-168.5"/>
<text text-anchor="middle" x="401" y="-175.5" font-family="Helvetica,sans-Serif" font-size="10.00" fill="#000000">dji_version.hpp</text>
</a>
</g>
</g>
<!-- Node13&#45;&gt;Node18 -->
<g id="edge25" class="edge">
<title>Node13&#45;&gt;Node18</title>
<path fill="none" stroke="#191970" d="M328.3284,-224.2455C341.8303,-215.6534 361.7122,-203.0014 377.2686,-193.1018"/>
<polygon fill="#191970" stroke="#191970" points="379.2897,-195.9643 385.8472,-187.6427 375.5315,-190.0587 379.2897,-195.9643"/>
</g>
<!-- Node14&#45;&gt;Node5 -->
<g id="edge18" class="edge">
<title>Node14&#45;&gt;Node5</title>
<path fill="none" stroke="#191970" d="M328.6516,-112.2455C328.3907,-104.9382 328.0248,-94.6944 327.7037,-85.7046"/>
<polygon fill="#191970" stroke="#191970" points="331.1992,-85.5113 327.3444,-75.6427 324.2036,-85.7613 331.1992,-85.5113"/>
</g>
<!-- Node14&#45;&gt;Node8 -->
<g id="edge17" class="edge">
<title>Node14&#45;&gt;Node8</title>
<path fill="none" stroke="#191970" d="M304.4174,-112.3733C281.0504,-103.2226 245.7138,-89.3844 219.7216,-79.2057"/>
<polygon fill="#191970" stroke="#191970" points="220.8495,-75.8886 210.2618,-75.5011 218.297,-82.4066 220.8495,-75.8886"/>
</g>
<!-- Node15&#45;&gt;Node2 -->
<g id="edge20" class="edge">
<title>Node15&#45;&gt;Node2</title>
<path fill="none" stroke="#191970" d="M202.0714,-168.2455C193.8162,-160.1352 181.8791,-148.4075 172.0918,-138.7919"/>
<polygon fill="#191970" stroke="#191970" points="174.4011,-136.1542 164.8149,-131.6427 169.4954,-141.1476 174.4011,-136.1542"/>
</g>
<!-- Node15&#45;&gt;Node16 -->
<g id="edge21" class="edge">
<title>Node15&#45;&gt;Node16</title>
<path fill="none" stroke="#191970" d="M215.1354,-168.2455C217.51,-160.8579 220.8493,-150.4689 223.7615,-141.4087"/>
<polygon fill="#191970" stroke="#191970" points="227.1725,-142.234 226.9006,-131.6427 220.5083,-140.0919 227.1725,-142.234"/>
</g>
<!-- Node16&#45;&gt;Node5 -->
<g id="edge23" class="edge">
<title>Node16&#45;&gt;Node5</title>
<path fill="none" stroke="#191970" d="M246.8961,-112.2455C261.918,-103.5731 284.1043,-90.7645 301.321,-80.825"/>
<polygon fill="#191970" stroke="#191970" points="303.3871,-83.6737 310.2975,-75.6427 299.8872,-77.6114 303.3871,-83.6737"/>
</g>
<!-- Node17 -->
<g id="node18" class="node">
<title>Node17</title>
<g id="a_node18"><a xlink:title=" ">
<polygon fill="#ffffff" stroke="#bfbfbf" points="239.5,-56.5 239.5,-75.5 282.5,-75.5 282.5,-56.5 239.5,-56.5"/>
<text text-anchor="middle" x="261" y="-63.5" font-family="Helvetica,sans-Serif" font-size="10.00" fill="#000000">cstdio</text>
</a>
</g>
</g>
<!-- Node16&#45;&gt;Node17 -->
<g id="edge22" class="edge">
<title>Node16&#45;&gt;Node17</title>
<path fill="none" stroke="#191970" d="M235.3998,-112.2455C239.6227,-104.617 245.6173,-93.7881 250.7441,-84.5267"/>
<polygon fill="#191970" stroke="#191970" points="253.881,-86.0867 255.6621,-75.6427 247.7568,-82.6965 253.881,-86.0867"/>
</g>
<!-- Node18&#45;&gt;Node9 -->
<g id="edge27" class="edge">
<title>Node18&#45;&gt;Node9</title>
<path fill="none" stroke="#191970" d="M400.6504,-168.1699C399.2871,-145.1225 392.6155,-87.201 360,-56 335.5962,-32.6546 298.2,-20.8965 271.2439,-15.1489"/>
<polygon fill="#191970" stroke="#191970" points="271.6023,-11.6526 261.1159,-13.1647 270.2564,-18.522 271.6023,-11.6526"/>
</g>
<!-- Node18&#45;&gt;Node14 -->
<g id="edge26" class="edge">
<title>Node18&#45;&gt;Node14</title>
<path fill="none" stroke="#191970" d="M388.4586,-168.2455C377.7213,-159.8943 362.0527,-147.7076 349.4953,-137.9408"/>
<polygon fill="#191970" stroke="#191970" points="351.4401,-135.0194 341.3977,-131.6427 347.1425,-140.5449 351.4401,-135.0194"/>
</g>
<!-- Node21 -->
<g id="node22" class="node">
<title>Node21</title>
<g id="a_node22"><a xlink:href="dji__mop__pipeline_8hpp.html" target="_top" xlink:title="Implementation of mop pipeline.">
<polygon fill="#ffffff" stroke="#000000" points="501.5,-224.5 501.5,-243.5 608.5,-243.5 608.5,-224.5 501.5,-224.5"/>
<text text-anchor="middle" x="555" y="-231.5" font-family="Helvetica,sans-Serif" font-size="10.00" fill="#000000">dji_mop_pipeline.hpp</text>
</a>
</g>
</g>
<!-- Node20&#45;&gt;Node21 -->
<g id="edge32" class="edge">
<title>Node20&#45;&gt;Node21</title>
<path fill="none" stroke="#191970" d="M549.4708,-347.3484C550.4522,-327.2295 552.7336,-280.4608 554.0385,-253.7098"/>
<polygon fill="#191970" stroke="#191970" points="557.5399,-253.7655 554.5314,-243.6068 550.5482,-253.4243 557.5399,-253.7655"/>
</g>
<!-- Node24 -->
<g id="node25" class="node">
<title>Node24</title>
<g id="a_node25"><a xlink:href="dji__mop__pipeline__manager__base_8hpp.html" target="_top" xlink:title="Implementation of mop pipeline manager base.">
<polygon fill="#ffffff" stroke="#000000" points="577.5,-280.5 577.5,-310.5 708.5,-310.5 708.5,-280.5 577.5,-280.5"/>
<text text-anchor="start" x="585.5" y="-298.5" font-family="Helvetica,sans-Serif" font-size="10.00" fill="#000000">dji_mop_pipeline_manager</text>
<text text-anchor="middle" x="643" y="-287.5" font-family="Helvetica,sans-Serif" font-size="10.00" fill="#000000">_base.hpp</text>
</a>
</g>
</g>
<!-- Node20&#45;&gt;Node24 -->
<g id="edge37" class="edge">
<title>Node20&#45;&gt;Node24</title>
<path fill="none" stroke="#191970" d="M563.6875,-347.3906C576.4093,-339.0673 595.2527,-326.7389 611.3806,-316.1872"/>
<polygon fill="#191970" stroke="#191970" points="613.5531,-318.9484 620.005,-310.5446 609.7206,-313.0907 613.5531,-318.9484"/>
</g>
<!-- Node21&#45;&gt;Node5 -->
<g id="edge33" class="edge">
<title>Node21&#45;&gt;Node5</title>
<path fill="none" stroke="#191970" d="M542.0885,-224.4862C504.4762,-196.772 394.7262,-115.9036 348.22,-81.6358"/>
<polygon fill="#191970" stroke="#191970" points="350.1793,-78.732 340.0525,-75.6177 346.0269,-84.3674 350.1793,-78.732"/>
</g>
<!-- Node22 -->
<g id="node23" class="node">
<title>Node22</title>
<g id="a_node23"><a xlink:href="dji__mop__define_8hpp.html" target="_top" xlink:title="Enumeration of all mop data types, structures.">
<polygon fill="#ffffff" stroke="#000000" points="651.5,-168.5 651.5,-187.5 752.5,-187.5 752.5,-168.5 651.5,-168.5"/>
<text text-anchor="middle" x="702" y="-175.5" font-family="Helvetica,sans-Serif" font-size="10.00" fill="#000000">dji_mop_define.hpp</text>
</a>
</g>
</g>
<!-- Node21&#45;&gt;Node22 -->
<g id="edge34" class="edge">
<title>Node21&#45;&gt;Node22</title>
<path fill="none" stroke="#191970" d="M580.2702,-224.3733C604.3966,-215.1822 640.9362,-201.2624 667.6877,-191.0713"/>
<polygon fill="#191970" stroke="#191970" points="668.9607,-194.3318 677.0596,-187.5011 666.4687,-187.7904 668.9607,-194.3318"/>
</g>
<!-- Node22&#45;&gt;Node19 -->
<g id="edge36" class="edge">
<title>Node22&#45;&gt;Node19</title>
<path fill="none" stroke="#191970" d="M685.2781,-168.2455C670.4111,-159.5731 648.4534,-146.7645 631.4142,-136.825"/>
<polygon fill="#191970" stroke="#191970" points="632.9317,-133.6582 622.5303,-131.6427 629.4045,-139.7047 632.9317,-133.6582"/>
</g>
<!-- Node23 -->
<g id="node24" class="node">
<title>Node23</title>
<g id="a_node24"><a xlink:title=" ">
<polygon fill="#ffffff" stroke="#bfbfbf" points="655.5,-112.5 655.5,-131.5 752.5,-131.5 752.5,-112.5 655.5,-112.5"/>
<text text-anchor="middle" x="704" y="-119.5" font-family="Helvetica,sans-Serif" font-size="10.00" fill="#000000">mop_entry_osdk.h</text>
</a>
</g>
</g>
<!-- Node22&#45;&gt;Node23 -->
<g id="edge35" class="edge">
<title>Node22&#45;&gt;Node23</title>
<path fill="none" stroke="#191970" d="M702.3484,-168.2455C702.6093,-160.9382 702.9752,-150.6944 703.2963,-141.7046"/>
<polygon fill="#191970" stroke="#191970" points="706.7964,-141.7613 703.6556,-131.6427 699.8008,-141.5113 706.7964,-141.7613"/>
</g>
<!-- Node24&#45;&gt;Node10 -->
<g id="edge41" class="edge">
<title>Node24&#45;&gt;Node10</title>
<path fill="none" stroke="#191970" d="M684.779,-280.39C725.396,-262.6949 781,-229.1329 781,-178 781,-178 781,-178 781,-122 781,-62.1062 574.2391,-25.4229 497.89,-13.9189"/>
<polygon fill="#191970" stroke="#191970" points="498.0152,-10.3996 487.6118,-12.4045 496.9948,-17.3248 498.0152,-10.3996"/>
</g>
<!-- Node24&#45;&gt;Node19 -->
<g id="edge40" class="edge">
<title>Node24&#45;&gt;Node19</title>
<path fill="none" stroke="#191970" d="M639.7812,-280.4065C633.0863,-249.0126 617.6643,-176.6961 610.1996,-141.6925"/>
<polygon fill="#191970" stroke="#191970" points="613.5855,-140.7881 608.0767,-131.738 606.7394,-142.2481 613.5855,-140.7881"/>
</g>
<!-- Node24&#45;&gt;Node21 -->
<g id="edge39" class="edge">
<title>Node24&#45;&gt;Node21</title>
<path fill="none" stroke="#191970" d="M621.2472,-280.2977C607.8032,-270.9022 590.5989,-258.8787 577.0922,-249.4395"/>
<polygon fill="#191970" stroke="#191970" points="579.0288,-246.5228 568.8271,-243.6633 575.0189,-252.2605 579.0288,-246.5228"/>
</g>
<!-- Node24&#45;&gt;Node22 -->
<g id="edge38" class="edge">
<title>Node24&#45;&gt;Node22</title>
<path fill="none" stroke="#191970" d="M650.7132,-280.1389C661.4881,-258.6806 681.0242,-219.7738 692.6252,-196.6702"/>
<polygon fill="#191970" stroke="#191970" points="695.8404,-198.0667 697.1999,-187.5595 689.5847,-194.9256 695.8404,-198.0667"/>
</g>
</g>
</svg>
