<?xml version="1.0" encoding="UTF-8" standalone="no"?>
<!DOCTYPE svg PUBLIC "-//W3C//DTD SVG 1.1//EN"
 "http://www.w3.org/Graphics/SVG/1.1/DTD/svg11.dtd">
<!-- Generated by graphviz version 2.38.0 (20140413.2041)
 -->
<!-- Title: osdk&#45;core/api/src/dji_mfio.cpp Pages: 1 -->
<svg width="2040pt" height="431pt"
 viewBox="0.00 0.00 2039.83 431.00" xmlns="http://www.w3.org/2000/svg" xmlns:xlink="http://www.w3.org/1999/xlink">
<g id="graph0" class="graph" transform="scale(1 1) rotate(0) translate(4 427)">
<title>osdk&#45;core/api/src/dji_mfio.cpp</title>
<polygon fill="white" stroke="none" points="-4,4 -4,-427 2035.83,-427 2035.83,4 -4,4"/>
<!-- Node1 -->
<g id="node1" class="node"><title>Node1</title>
<polygon fill="#bfbfbf" stroke="black" points="714.5,-392.5 714.5,-422.5 818.5,-422.5 818.5,-392.5 714.5,-392.5"/>
<text text-anchor="start" x="722.5" y="-410.5" font-family="Helvetica,sans-Serif" font-size="10.00">osdk&#45;core/api/src/dji</text>
<text text-anchor="middle" x="766.5" y="-399.5" font-family="Helvetica,sans-Serif" font-size="10.00">_mfio.cpp</text>
</g>
<!-- Node2 -->
<g id="node2" class="node"><title>Node2</title>
<g id="a_node2"><a xlink:href="dji__mfio_8hpp.html" target="_top" xlink:title="MFIO API for DJI OSDK library. ">
<polygon fill="white" stroke="black" points="0,-280.5 0,-299.5 69,-299.5 69,-280.5 0,-280.5"/>
<text text-anchor="middle" x="34.5" y="-287.5" font-family="Helvetica,sans-Serif" font-size="10.00">dji_mfio.hpp</text>
</a>
</g>
</g>
<!-- Node1&#45;&gt;Node2 -->
<g id="edge1" class="edge"><title>Node1&#45;&gt;Node2</title>
<path fill="none" stroke="midnightblue" d="M714.153,-398.83C599.643,-381.942 318.358,-339.872 83.5,-300 82.0344,-299.751 80.5447,-299.495 79.0408,-299.234"/>
<polygon fill="midnightblue" stroke="midnightblue" points="79.4698,-295.756 69.0129,-297.46 78.2501,-302.649 79.4698,-295.756"/>
</g>
<!-- Node5 -->
<g id="node5" class="node"><title>Node5</title>
<g id="a_node5"><a xlink:href="dji__vehicle_8hpp.html" target="_top" xlink:title="Vehicle API for DJI onboardSDK library. ">
<polygon fill="white" stroke="black" points="978,-336.5 978,-355.5 1059,-355.5 1059,-336.5 978,-336.5"/>
<text text-anchor="middle" x="1018.5" y="-343.5" font-family="Helvetica,sans-Serif" font-size="10.00">dji_vehicle.hpp</text>
</a>
</g>
</g>
<!-- Node1&#45;&gt;Node5 -->
<g id="edge4" class="edge"><title>Node1&#45;&gt;Node5</title>
<path fill="none" stroke="midnightblue" d="M818.715,-394.172C864.055,-383.466 929.076,-368.114 972.492,-357.863"/>
<polygon fill="midnightblue" stroke="midnightblue" points="973.297,-361.269 982.225,-355.565 971.688,-354.457 973.297,-361.269"/>
</g>
<!-- Node3 -->
<g id="node3" class="node"><title>Node3</title>
<g id="a_node3"><a xlink:href="dji__vehicle__callback_8hpp.html" target="_top" xlink:title="Type definition for new Vehicle&#45;style callbacks. ">
<polygon fill="white" stroke="black" points="240.5,-112.5 240.5,-131.5 362.5,-131.5 362.5,-112.5 240.5,-112.5"/>
<text text-anchor="middle" x="301.5" y="-119.5" font-family="Helvetica,sans-Serif" font-size="10.00">dji_vehicle_callback.hpp</text>
</a>
</g>
</g>
<!-- Node2&#45;&gt;Node3 -->
<g id="edge2" class="edge"><title>Node2&#45;&gt;Node3</title>
<path fill="none" stroke="midnightblue" d="M34.7294,-280.401C35.8169,-258.109 41.9729,-198.103 76.5,-168 99.1606,-148.243 173.316,-136.14 230.366,-129.534"/>
<polygon fill="midnightblue" stroke="midnightblue" points="230.895,-132.997 240.443,-128.403 230.114,-126.04 230.895,-132.997"/>
</g>
<!-- Node4 -->
<g id="node4" class="node"><title>Node4</title>
<polygon fill="white" stroke="#bfbfbf" points="385,-56.5 385,-75.5 496,-75.5 496,-56.5 385,-56.5"/>
<text text-anchor="middle" x="440.5" y="-63.5" font-family="Helvetica,sans-Serif" font-size="10.00">dji_open_protocol.hpp</text>
</g>
<!-- Node3&#45;&gt;Node4 -->
<g id="edge3" class="edge"><title>Node3&#45;&gt;Node4</title>
<path fill="none" stroke="midnightblue" d="M323.525,-112.444C346.604,-103.478 383.062,-89.314 409.141,-79.1827"/>
<polygon fill="midnightblue" stroke="midnightblue" points="410.524,-82.4002 418.578,-75.5164 407.989,-75.8753 410.524,-82.4002"/>
</g>
<!-- Node5&#45;&gt;Node2 -->
<g id="edge39" class="edge"><title>Node5&#45;&gt;Node2</title>
<path fill="none" stroke="midnightblue" d="M977.789,-344.978C847.282,-344.492 427.778,-339.722 83.5,-300 82.1951,-299.849 80.8725,-299.685 79.539,-299.509"/>
<polygon fill="midnightblue" stroke="midnightblue" points="79.6197,-295.982 69.2126,-297.968 78.5862,-302.906 79.6197,-295.982"/>
</g>
<!-- Node5&#45;&gt;Node3 -->
<g id="edge60" class="edge"><title>Node5&#45;&gt;Node3</title>
<path fill="none" stroke="midnightblue" d="M977.804,-343.821C808.162,-338.47 163.577,-313.645 109.5,-244 66.0281,-188.013 178.474,-150.959 249.166,-133.878"/>
<polygon fill="midnightblue" stroke="midnightblue" points="250.336,-137.198 259.27,-131.502 248.734,-130.384 250.336,-137.198"/>
</g>
<!-- Node5&#45;&gt;Node4 -->
<g id="edge51" class="edge"><title>Node5&#45;&gt;Node4</title>
<path fill="none" stroke="midnightblue" d="M977.868,-344.485C858.008,-342.576 511.979,-334.133 475.5,-300 444.464,-270.96 440.752,-135.528 440.455,-85.5719"/>
<polygon fill="midnightblue" stroke="midnightblue" points="443.955,-85.5378 440.436,-75.5444 436.955,-85.551 443.955,-85.5378"/>
</g>
<!-- Node6 -->
<g id="node6" class="node"><title>Node6</title>
<polygon fill="white" stroke="#bfbfbf" points="741.5,-112.5 741.5,-131.5 787.5,-131.5 787.5,-112.5 741.5,-112.5"/>
<text text-anchor="middle" x="764.5" y="-119.5" font-family="Helvetica,sans-Serif" font-size="10.00">cstdint</text>
</g>
<!-- Node5&#45;&gt;Node6 -->
<g id="edge5" class="edge"><title>Node5&#45;&gt;Node6</title>
<path fill="none" stroke="midnightblue" d="M977.704,-341.829C879.866,-333.277 636.507,-306.061 589.5,-244 546.086,-186.683 669.883,-146.57 731.699,-130.639"/>
<polygon fill="midnightblue" stroke="midnightblue" points="732.558,-134.032 741.407,-128.204 730.856,-127.242 732.558,-134.032"/>
</g>
<!-- Node7 -->
<g id="node7" class="node"><title>Node7</title>
<g id="a_node7"><a xlink:href="dji__broadcast_8hpp.html" target="_top" xlink:title="Broadcast Telemetry API for DJI onboardSDK library. ">
<polygon fill="white" stroke="black" points="599,-224.5 599,-243.5 692,-243.5 692,-224.5 599,-224.5"/>
<text text-anchor="middle" x="645.5" y="-231.5" font-family="Helvetica,sans-Serif" font-size="10.00">dji_broadcast.hpp</text>
</a>
</g>
</g>
<!-- Node5&#45;&gt;Node7 -->
<g id="edge6" class="edge"><title>Node5&#45;&gt;Node7</title>
<path fill="none" stroke="midnightblue" d="M986.56,-336.494C953.637,-327.654 900.862,-313.278 855.5,-300 794.423,-282.121 723.814,-259.955 682.004,-246.673"/>
<polygon fill="midnightblue" stroke="midnightblue" points="682.862,-243.273 672.272,-243.576 680.74,-249.944 682.862,-243.273"/>
</g>
<!-- Node9 -->
<g id="node9" class="node"><title>Node9</title>
<g id="a_node9"><a xlink:href="dji__type_8hpp.html" target="_top" xlink:title="Data type and Data Structure definitions for use throughout DJI OSDK. ">
<polygon fill="white" stroke="black" points="1108,-112.5 1108,-131.5 1177,-131.5 1177,-112.5 1108,-112.5"/>
<text text-anchor="middle" x="1142.5" y="-119.5" font-family="Helvetica,sans-Serif" font-size="10.00">dji_type.hpp</text>
</a>
</g>
</g>
<!-- Node5&#45;&gt;Node9 -->
<g id="edge59" class="edge"><title>Node5&#45;&gt;Node9</title>
<path fill="none" stroke="midnightblue" d="M1059.02,-341.335C1110.97,-335.747 1196.83,-323.212 1217.5,-300 1256.57,-256.127 1254.42,-218.557 1224.5,-168 1215.53,-152.84 1199.43,-142.448 1183.87,-135.504"/>
<polygon fill="midnightblue" stroke="midnightblue" points="1184.89,-132.143 1174.31,-131.615 1182.25,-138.627 1184.89,-132.143"/>
</g>
<!-- Node12 -->
<g id="node12" class="node"><title>Node12</title>
<g id="a_node12"><a xlink:href="dji__camera_8hpp.html" target="_top" xlink:title="Camera/Gimbal API for DJI onboardSDK library. ">
<polygon fill="white" stroke="black" points="1329,-168.5 1329,-187.5 1412,-187.5 1412,-168.5 1329,-168.5"/>
<text text-anchor="middle" x="1370.5" y="-175.5" font-family="Helvetica,sans-Serif" font-size="10.00">dji_camera.hpp</text>
</a>
</g>
</g>
<!-- Node5&#45;&gt;Node12 -->
<g id="edge12" class="edge"><title>Node5&#45;&gt;Node12</title>
<path fill="none" stroke="midnightblue" d="M1059.22,-343.495C1130.71,-340.105 1274.96,-329.691 1314.5,-300 1347.86,-274.946 1362.01,-225.186 1367.46,-197.932"/>
<polygon fill="midnightblue" stroke="midnightblue" points="1370.96,-198.23 1369.29,-187.767 1364.07,-196.987 1370.96,-198.23"/>
</g>
<!-- Node13 -->
<g id="node13" class="node"><title>Node13</title>
<g id="a_node13"><a xlink:href="dji__command_8hpp.html" target="_top" xlink:title="All DJI OSDK OpenProtocol Command IDs. ">
<polygon fill="white" stroke="black" points="1329,-112.5 1329,-131.5 1422,-131.5 1422,-112.5 1329,-112.5"/>
<text text-anchor="middle" x="1375.5" y="-119.5" font-family="Helvetica,sans-Serif" font-size="10.00">dji_command.hpp</text>
</a>
</g>
</g>
<!-- Node5&#45;&gt;Node13 -->
<g id="edge19" class="edge"><title>Node5&#45;&gt;Node13</title>
<path fill="none" stroke="midnightblue" d="M1059.09,-344.727C1242.66,-343.299 1987.71,-335.335 2021.5,-300 2106.9,-210.684 1605.25,-147.673 1432.43,-128.851"/>
<polygon fill="midnightblue" stroke="midnightblue" points="1432.58,-125.346 1422.26,-127.753 1431.83,-132.306 1432.58,-125.346"/>
</g>
<!-- Node15 -->
<g id="node15" class="node"><title>Node15</title>
<polygon fill="white" stroke="#bfbfbf" points="1404.5,-280.5 1404.5,-299.5 1516.5,-299.5 1516.5,-280.5 1404.5,-280.5"/>
<text text-anchor="middle" x="1460.5" y="-287.5" font-family="Helvetica,sans-Serif" font-size="10.00">dji_circular_buffer.hpp</text>
</g>
<!-- Node5&#45;&gt;Node15 -->
<g id="edge18" class="edge"><title>Node5&#45;&gt;Node15</title>
<path fill="none" stroke="midnightblue" d="M1059.25,-340.172C1127.7,-332.039 1270.11,-315.021 1390.5,-300 1391.77,-299.842 1393.04,-299.682 1394.33,-299.521"/>
<polygon fill="midnightblue" stroke="midnightblue" points="1394.86,-302.982 1404.34,-298.258 1393.98,-296.037 1394.86,-302.982"/>
</g>
<!-- Node16 -->
<g id="node16" class="node"><title>Node16</title>
<g id="a_node16"><a xlink:href="dji__control_8hpp.html" target="_top" xlink:title="Control API for DJI OSDK library. ">
<polygon fill="white" stroke="black" points="484.5,-280.5 484.5,-299.5 564.5,-299.5 564.5,-280.5 484.5,-280.5"/>
<text text-anchor="middle" x="524.5" y="-287.5" font-family="Helvetica,sans-Serif" font-size="10.00">dji_control.hpp</text>
</a>
</g>
</g>
<!-- Node5&#45;&gt;Node16 -->
<g id="edge20" class="edge"><title>Node5&#45;&gt;Node16</title>
<path fill="none" stroke="midnightblue" d="M977.755,-341.7C899.968,-335.208 725,-319.68 578.5,-300 577.228,-299.829 575.941,-299.651 574.642,-299.468"/>
<polygon fill="midnightblue" stroke="midnightblue" points="574.968,-295.978 564.562,-297.967 573.937,-302.901 574.968,-295.978"/>
</g>
<!-- Node19 -->
<g id="node19" class="node"><title>Node19</title>
<g id="a_node19"><a xlink:href="dji__version_8hpp.html" target="_top" xlink:title="Drone/SDK Version definition for DJI onboardSDK library. ">
<polygon fill="white" stroke="black" points="896.5,-168.5 896.5,-187.5 978.5,-187.5 978.5,-168.5 896.5,-168.5"/>
<text text-anchor="middle" x="937.5" y="-175.5" font-family="Helvetica,sans-Serif" font-size="10.00">dji_version.hpp</text>
</a>
</g>
</g>
<!-- Node5&#45;&gt;Node19 -->
<g id="edge61" class="edge"><title>Node5&#45;&gt;Node19</title>
<path fill="none" stroke="midnightblue" d="M1025.39,-336.319C1031.77,-327.684 1040.81,-313.77 1044.5,-300 1053.25,-267.375 1063.19,-252.136 1044.5,-224 1036.56,-212.04 1004.3,-199.451 977.263,-190.64"/>
<polygon fill="midnightblue" stroke="midnightblue" points="978.182,-187.26 967.592,-187.573 976.066,-193.932 978.182,-187.26"/>
</g>
<!-- Node21 -->
<g id="node21" class="node"><title>Node21</title>
<g id="a_node21"><a xlink:href="dji__gimbal_8hpp.html" target="_top" xlink:title="Gimbal API for OSDK library. ">
<polygon fill="white" stroke="black" points="1469,-168.5 1469,-187.5 1548,-187.5 1548,-168.5 1469,-168.5"/>
<text text-anchor="middle" x="1508.5" y="-175.5" font-family="Helvetica,sans-Serif" font-size="10.00">dji_gimbal.hpp</text>
</a>
</g>
</g>
<!-- Node5&#45;&gt;Node21 -->
<g id="edge33" class="edge"><title>Node5&#45;&gt;Node21</title>
<path fill="none" stroke="midnightblue" d="M1059.22,-345.37C1121.59,-344.612 1243.52,-337.844 1338.5,-300 1401.9,-274.738 1464.06,-221.123 1492.46,-194.57"/>
<polygon fill="midnightblue" stroke="midnightblue" points="1495.01,-196.975 1499.86,-187.551 1490.19,-191.898 1495.01,-196.975"/>
</g>
<!-- Node22 -->
<g id="node22" class="node"><title>Node22</title>
<polygon fill="white" stroke="#bfbfbf" points="1534.5,-280.5 1534.5,-299.5 1632.5,-299.5 1632.5,-280.5 1534.5,-280.5"/>
<text text-anchor="middle" x="1583.5" y="-287.5" font-family="Helvetica,sans-Serif" font-size="10.00">dji_hard_driver.hpp</text>
</g>
<!-- Node5&#45;&gt;Node22 -->
<g id="edge36" class="edge"><title>Node5&#45;&gt;Node22</title>
<path fill="none" stroke="midnightblue" d="M1059.01,-342.308C1143.49,-336.501 1344.82,-321.645 1524.33,-300.068"/>
<polygon fill="midnightblue" stroke="midnightblue" points="1524.98,-303.515 1534.48,-298.837 1524.14,-296.565 1524.98,-303.515"/>
</g>
<!-- Node23 -->
<g id="node23" class="node"><title>Node23</title>
<g id="a_node23"><a xlink:href="dji__hardware__sync_8hpp.html" target="_top" xlink:title="Hardware Sync API for DJI OSDK. ">
<polygon fill="white" stroke="black" points="709.5,-224.5 709.5,-243.5 825.5,-243.5 825.5,-224.5 709.5,-224.5"/>
<text text-anchor="middle" x="767.5" y="-231.5" font-family="Helvetica,sans-Serif" font-size="10.00">dji_hardware_sync.hpp</text>
</a>
</g>
</g>
<!-- Node5&#45;&gt;Node23 -->
<g id="edge37" class="edge"><title>Node5&#45;&gt;Node23</title>
<path fill="none" stroke="midnightblue" d="M993.609,-336.375C969.339,-327.781 931.512,-313.896 899.5,-300 861.518,-283.512 818.714,-261.844 792.422,-248.167"/>
<polygon fill="midnightblue" stroke="midnightblue" points="794.006,-245.045 783.522,-243.513 790.762,-251.248 794.006,-245.045"/>
</g>
<!-- Node24 -->
<g id="node24" class="node"><title>Node24</title>
<g id="a_node24"><a xlink:href="dji__mission__manager_8hpp.html" target="_top" xlink:title="Mission&#45;Manager API for DJI OSDK library. ">
<polygon fill="white" stroke="black" points="909,-280.5 909,-299.5 1036,-299.5 1036,-280.5 909,-280.5"/>
<text text-anchor="middle" x="972.5" y="-287.5" font-family="Helvetica,sans-Serif" font-size="10.00">dji_mission_manager.hpp</text>
</a>
</g>
</g>
<!-- Node5&#45;&gt;Node24 -->
<g id="edge40" class="edge"><title>Node5&#45;&gt;Node24</title>
<path fill="none" stroke="midnightblue" d="M1010.9,-336.083C1004.27,-328.298 994.479,-316.801 986.442,-307.367"/>
<polygon fill="midnightblue" stroke="midnightblue" points="989.104,-305.094 979.955,-299.751 983.775,-309.633 989.104,-305.094"/>
</g>
<!-- Node28 -->
<g id="node28" class="node"><title>Node28</title>
<g id="a_node28"><a xlink:href="dji__mobile__communication_8hpp.html" target="_top" xlink:title="Implementation of DJI Mobile&#45;Onboard SDK Communication (MOC) ">
<polygon fill="white" stroke="black" points="118.5,-224.5 118.5,-243.5 268.5,-243.5 268.5,-224.5 118.5,-224.5"/>
<text text-anchor="middle" x="193.5" y="-231.5" font-family="Helvetica,sans-Serif" font-size="10.00">dji_mobile_communication.hpp</text>
</a>
</g>
</g>
<!-- Node5&#45;&gt;Node28 -->
<g id="edge49" class="edge"><title>Node5&#45;&gt;Node28</title>
<path fill="none" stroke="midnightblue" d="M977.917,-345.023C879.664,-344.425 621.537,-338.938 410.5,-300 343.367,-287.613 267.505,-262.14 225.617,-247.021"/>
<polygon fill="midnightblue" stroke="midnightblue" points="226.814,-243.732 216.22,-243.597 224.417,-250.309 226.814,-243.732"/>
</g>
<!-- Node29 -->
<g id="node29" class="node"><title>Node29</title>
<polygon fill="white" stroke="#bfbfbf" points="1650.5,-280.5 1650.5,-299.5 1778.5,-299.5 1778.5,-280.5 1650.5,-280.5"/>
<text text-anchor="middle" x="1714.5" y="-287.5" font-family="Helvetica,sans-Serif" font-size="10.00">dji_platform_manager.hpp</text>
</g>
<!-- Node5&#45;&gt;Node29 -->
<g id="edge52" class="edge"><title>Node5&#45;&gt;Node29</title>
<path fill="none" stroke="midnightblue" d="M1059.01,-342.785C1156.94,-337.279 1414.45,-321.891 1640.37,-300.063"/>
<polygon fill="midnightblue" stroke="midnightblue" points="1640.81,-303.537 1650.43,-299.085 1640.13,-296.57 1640.81,-303.537"/>
</g>
<!-- Node30 -->
<g id="node30" class="node"><title>Node30</title>
<g id="a_node30"><a xlink:href="dji__status_8hpp.html" target="_top" xlink:title="Status information for DJI Vehicle. ">
<polygon fill="white" stroke="black" points="1797,-280.5 1797,-299.5 1874,-299.5 1874,-280.5 1797,-280.5"/>
<text text-anchor="middle" x="1835.5" y="-287.5" font-family="Helvetica,sans-Serif" font-size="10.00">dji_status.hpp</text>
</a>
</g>
</g>
<!-- Node5&#45;&gt;Node30 -->
<g id="edge53" class="edge"><title>Node5&#45;&gt;Node30</title>
<path fill="none" stroke="midnightblue" d="M1059.1,-344.436C1172.54,-342.476 1502.54,-334.145 1786.7,-299.922"/>
<polygon fill="midnightblue" stroke="midnightblue" points="1787.29,-303.377 1796.79,-298.694 1786.44,-296.428 1787.29,-303.377"/>
</g>
<!-- Node31 -->
<g id="node31" class="node"><title>Node31</title>
<g id="a_node31"><a xlink:href="dji__subscription_8hpp.html" target="_top" xlink:title="Telemetry Subscription API for DJI OSDK library. ">
<polygon fill="white" stroke="black" points="325,-224.5 325,-243.5 428,-243.5 428,-224.5 325,-224.5"/>
<text text-anchor="middle" x="376.5" y="-231.5" font-family="Helvetica,sans-Serif" font-size="10.00">dji_subscription.hpp</text>
</a>
</g>
</g>
<!-- Node5&#45;&gt;Node31 -->
<g id="edge54" class="edge"><title>Node5&#45;&gt;Node31</title>
<path fill="none" stroke="midnightblue" d="M977.854,-345.4C862.983,-345.975 538.098,-343.596 442.5,-300 419.504,-289.513 399.869,-267.406 388.135,-251.897"/>
<polygon fill="midnightblue" stroke="midnightblue" points="390.874,-249.712 382.173,-243.667 385.205,-253.819 390.874,-249.712"/>
</g>
<!-- Node32 -->
<g id="node32" class="node"><title>Node32</title>
<polygon fill="white" stroke="#bfbfbf" points="1892.5,-280.5 1892.5,-299.5 2012.5,-299.5 2012.5,-280.5 1892.5,-280.5"/>
<text text-anchor="middle" x="1952.5" y="-287.5" font-family="Helvetica,sans-Serif" font-size="10.00">dji_thread_manager.hpp</text>
</g>
<!-- Node5&#45;&gt;Node32 -->
<g id="edge58" class="edge"><title>Node5&#45;&gt;Node32</title>
<path fill="none" stroke="midnightblue" d="M1059.11,-344.009C1181.7,-340.779 1558.92,-329.094 1882.29,-300.038"/>
<polygon fill="midnightblue" stroke="midnightblue" points="1882.68,-303.517 1892.32,-299.129 1882.04,-296.546 1882.68,-303.517"/>
</g>
<!-- Node33 -->
<g id="node33" class="node"><title>Node33</title>
<g id="a_node33"><a xlink:href="dji__virtual__rc_8hpp.html" target="_top" xlink:title="Virtual Radio Control API for DJI onboardSDK library. ">
<polygon fill="white" stroke="black" points="1118.5,-280.5 1118.5,-299.5 1208.5,-299.5 1208.5,-280.5 1118.5,-280.5"/>
<text text-anchor="middle" x="1163.5" y="-287.5" font-family="Helvetica,sans-Serif" font-size="10.00">dji_virtual_rc.hpp</text>
</a>
</g>
</g>
<!-- Node5&#45;&gt;Node33 -->
<g id="edge62" class="edge"><title>Node5&#45;&gt;Node33</title>
<path fill="none" stroke="midnightblue" d="M1041.48,-336.444C1065.66,-327.438 1103.92,-313.189 1131.15,-303.049"/>
<polygon fill="midnightblue" stroke="midnightblue" points="1132.48,-306.286 1140.63,-299.516 1130.04,-299.727 1132.48,-306.286"/>
</g>
<!-- Node7&#45;&gt;Node3 -->
<g id="edge11" class="edge"><title>Node7&#45;&gt;Node3</title>
<path fill="none" stroke="midnightblue" d="M618.793,-224.46C557.706,-204.926 407.71,-156.963 338.095,-134.702"/>
<polygon fill="midnightblue" stroke="midnightblue" points="339.018,-131.322 328.427,-131.61 336.886,-137.99 339.018,-131.322"/>
</g>
<!-- Node8 -->
<g id="node8" class="node"><title>Node8</title>
<g id="a_node8"><a xlink:href="dji__telemetry_8hpp.html" target="_top" xlink:title="Enumeration of all telemetry data types, structures and maps. ">
<polygon fill="white" stroke="black" points="659,-168.5 659,-187.5 750,-187.5 750,-168.5 659,-168.5"/>
<text text-anchor="middle" x="704.5" y="-175.5" font-family="Helvetica,sans-Serif" font-size="10.00">dji_telemetry.hpp</text>
</a>
</g>
</g>
<!-- Node7&#45;&gt;Node8 -->
<g id="edge7" class="edge"><title>Node7&#45;&gt;Node8</title>
<path fill="none" stroke="midnightblue" d="M654.979,-224.324C663.701,-216.341 676.843,-204.313 687.398,-194.653"/>
<polygon fill="midnightblue" stroke="midnightblue" points="689.834,-197.167 694.848,-187.834 685.108,-192.004 689.834,-197.167"/>
</g>
<!-- Node8&#45;&gt;Node9 -->
<g id="edge8" class="edge"><title>Node8&#45;&gt;Node9</title>
<path fill="none" stroke="midnightblue" d="M750.094,-169.376C753.275,-168.894 756.434,-168.431 759.5,-168 881.618,-150.843 1026.28,-135.08 1097.83,-127.586"/>
<polygon fill="midnightblue" stroke="midnightblue" points="1098.26,-131.06 1107.84,-126.541 1097.53,-124.098 1098.26,-131.06"/>
</g>
<!-- Node10 -->
<g id="node10" class="node"><title>Node10</title>
<polygon fill="white" stroke="#bfbfbf" points="1121,-56.5 1121,-75.5 1164,-75.5 1164,-56.5 1121,-56.5"/>
<text text-anchor="middle" x="1142.5" y="-63.5" font-family="Helvetica,sans-Serif" font-size="10.00">cstdio</text>
</g>
<!-- Node9&#45;&gt;Node10 -->
<g id="edge9" class="edge"><title>Node9&#45;&gt;Node10</title>
<path fill="none" stroke="midnightblue" d="M1142.5,-112.083C1142.5,-105.006 1142.5,-94.8611 1142.5,-85.9865"/>
<polygon fill="midnightblue" stroke="midnightblue" points="1146,-85.751 1142.5,-75.7511 1139,-85.7511 1146,-85.751"/>
</g>
<!-- Node11 -->
<g id="node11" class="node"><title>Node11</title>
<polygon fill="white" stroke="#bfbfbf" points="1288,-0.5 1288,-19.5 1337,-19.5 1337,-0.5 1288,-0.5"/>
<text text-anchor="middle" x="1312.5" y="-7.5" font-family="Helvetica,sans-Serif" font-size="10.00">stdint.h</text>
</g>
<!-- Node9&#45;&gt;Node11 -->
<g id="edge10" class="edge"><title>Node9&#45;&gt;Node11</title>
<path fill="none" stroke="midnightblue" d="M1155.84,-112.368C1185.01,-93.4924 1254.72,-48.385 1290.5,-25.2367"/>
<polygon fill="midnightblue" stroke="midnightblue" points="1292.73,-27.9625 1299.22,-19.5914 1288.93,-22.0855 1292.73,-27.9625"/>
</g>
<!-- Node12&#45;&gt;Node9 -->
<g id="edge17" class="edge"><title>Node12&#45;&gt;Node9</title>
<path fill="none" stroke="midnightblue" d="M1334.37,-168.444C1294.5,-159 1230.28,-143.79 1187.25,-133.599"/>
<polygon fill="midnightblue" stroke="midnightblue" points="1187.87,-130.15 1177.34,-131.251 1186.26,-136.961 1187.87,-130.15"/>
</g>
<!-- Node12&#45;&gt;Node13 -->
<g id="edge13" class="edge"><title>Node12&#45;&gt;Node13</title>
<path fill="none" stroke="midnightblue" d="M1371.33,-168.083C1371.98,-161.006 1372.92,-150.861 1373.74,-141.986"/>
<polygon fill="midnightblue" stroke="midnightblue" points="1377.25,-142.031 1374.69,-131.751 1370.28,-141.386 1377.25,-142.031"/>
</g>
<!-- Node13&#45;&gt;Node11 -->
<g id="edge16" class="edge"><title>Node13&#45;&gt;Node11</title>
<path fill="none" stroke="midnightblue" d="M1364.16,-112.179C1354.19,-103.859 1340,-90.5244 1331.5,-76 1323.06,-61.5704 1318.13,-43.1178 1315.42,-29.5626"/>
<polygon fill="midnightblue" stroke="midnightblue" points="1318.83,-28.7564 1313.64,-19.5238 1311.94,-29.9822 1318.83,-28.7564"/>
</g>
<!-- Node14 -->
<g id="node14" class="node"><title>Node14</title>
<g id="a_node14"><a xlink:href="dji__error_8hpp.html" target="_top" xlink:title="All DJI OSDK OpenProtocol ACK Error Codes. ">
<polygon fill="white" stroke="black" points="1340.5,-56.5 1340.5,-75.5 1410.5,-75.5 1410.5,-56.5 1340.5,-56.5"/>
<text text-anchor="middle" x="1375.5" y="-63.5" font-family="Helvetica,sans-Serif" font-size="10.00">dji_error.hpp</text>
</a>
</g>
</g>
<!-- Node13&#45;&gt;Node14 -->
<g id="edge14" class="edge"><title>Node13&#45;&gt;Node14</title>
<path fill="none" stroke="midnightblue" d="M1375.5,-112.083C1375.5,-105.006 1375.5,-94.8611 1375.5,-85.9865"/>
<polygon fill="midnightblue" stroke="midnightblue" points="1379,-85.751 1375.5,-75.7511 1372,-85.7511 1379,-85.751"/>
</g>
<!-- Node14&#45;&gt;Node11 -->
<g id="edge15" class="edge"><title>Node14&#45;&gt;Node11</title>
<path fill="none" stroke="midnightblue" d="M1365.38,-56.324C1355.97,-48.2631 1341.76,-36.0765 1330.43,-26.3695"/>
<polygon fill="midnightblue" stroke="midnightblue" points="1332.68,-23.6844 1322.81,-19.8339 1328.12,-28.9993 1332.68,-23.6844"/>
</g>
<!-- Node16&#45;&gt;Node3 -->
<g id="edge32" class="edge"><title>Node16&#45;&gt;Node3</title>
<path fill="none" stroke="midnightblue" d="M484.299,-285.826C430.071,-280.662 337.7,-268.462 315.5,-244 290.122,-216.036 293.337,-168.208 297.603,-141.836"/>
<polygon fill="midnightblue" stroke="midnightblue" points="301.106,-142.14 299.477,-131.671 294.222,-140.871 301.106,-142.14"/>
</g>
<!-- Node16&#45;&gt;Node4 -->
<g id="edge30" class="edge"><title>Node16&#45;&gt;Node4</title>
<path fill="none" stroke="midnightblue" d="M521.207,-280.297C508.795,-247.494 464.672,-130.884 447.454,-85.3774"/>
<polygon fill="midnightblue" stroke="midnightblue" points="450.674,-83.998 443.861,-75.8837 444.127,-86.4753 450.674,-83.998"/>
</g>
<!-- Node16&#45;&gt;Node9 -->
<g id="edge31" class="edge"><title>Node16&#45;&gt;Node9</title>
<path fill="none" stroke="midnightblue" d="M529.59,-280.266C543.631,-257.102 585.482,-194.095 639.5,-168 719.817,-129.2 990.225,-123.65 1097.81,-123.006"/>
<polygon fill="midnightblue" stroke="midnightblue" points="1098.02,-126.505 1108,-122.957 1097.98,-119.505 1098.02,-126.505"/>
</g>
<!-- Node17 -->
<g id="node17" class="node"><title>Node17</title>
<g id="a_node17"><a xlink:href="dji__ack_8hpp.html" target="_top" xlink:title="All DJI OSDK ACK parsing. ">
<polygon fill="white" stroke="black" points="1130.5,-224.5 1130.5,-243.5 1196.5,-243.5 1196.5,-224.5 1130.5,-224.5"/>
<text text-anchor="middle" x="1163.5" y="-231.5" font-family="Helvetica,sans-Serif" font-size="10.00">dji_ack.hpp</text>
</a>
</g>
</g>
<!-- Node16&#45;&gt;Node17 -->
<g id="edge21" class="edge"><title>Node16&#45;&gt;Node17</title>
<path fill="none" stroke="midnightblue" d="M564.957,-285.581C679.07,-275.938 1002.8,-248.58 1120.25,-238.655"/>
<polygon fill="midnightblue" stroke="midnightblue" points="1120.64,-242.134 1130.31,-237.804 1120.05,-235.159 1120.64,-242.134"/>
</g>
<!-- Node17&#45;&gt;Node9 -->
<g id="edge25" class="edge"><title>Node17&#45;&gt;Node9</title>
<path fill="none" stroke="midnightblue" d="M1130.51,-224.438C1112.04,-217.769 1090.55,-206.453 1079.5,-188 1067.21,-167.472 1091.82,-148.37 1113.79,-136.26"/>
<polygon fill="midnightblue" stroke="midnightblue" points="1115.66,-139.229 1122.93,-131.513 1112.44,-133.017 1115.66,-139.229"/>
</g>
<!-- Node17&#45;&gt;Node13 -->
<g id="edge22" class="edge"><title>Node17&#45;&gt;Node13</title>
<path fill="none" stroke="midnightblue" d="M1196.93,-232.263C1259.91,-230.094 1392.31,-221.555 1420.5,-188 1434.23,-171.654 1414.66,-151.175 1397.19,-137.62"/>
<polygon fill="midnightblue" stroke="midnightblue" points="1399.07,-134.659 1388.94,-131.57 1394.94,-140.305 1399.07,-134.659"/>
</g>
<!-- Node18 -->
<g id="node18" class="node"><title>Node18</title>
<g id="a_node18"><a xlink:href="dji__mission__type_8hpp.html" target="_top" xlink:title="Mission related data struct for DJI OSDK library. ">
<polygon fill="white" stroke="black" points="1088.5,-168.5 1088.5,-187.5 1196.5,-187.5 1196.5,-168.5 1088.5,-168.5"/>
<text text-anchor="middle" x="1142.5" y="-175.5" font-family="Helvetica,sans-Serif" font-size="10.00">dji_mission_type.hpp</text>
</a>
</g>
</g>
<!-- Node17&#45;&gt;Node18 -->
<g id="edge23" class="edge"><title>Node17&#45;&gt;Node18</title>
<path fill="none" stroke="midnightblue" d="M1160.03,-224.083C1157.19,-216.77 1153.07,-206.181 1149.54,-197.103"/>
<polygon fill="midnightblue" stroke="midnightblue" points="1152.79,-195.803 1145.9,-187.751 1146.27,-198.34 1152.79,-195.803"/>
</g>
<!-- Node17&#45;&gt;Node19 -->
<g id="edge26" class="edge"><title>Node17&#45;&gt;Node19</title>
<path fill="none" stroke="midnightblue" d="M1130.15,-225.032C1091.2,-215.724 1026.54,-200.275 982.994,-189.87"/>
<polygon fill="midnightblue" stroke="midnightblue" points="983.764,-186.456 973.225,-187.536 982.137,-193.264 983.764,-186.456"/>
</g>
<!-- Node20 -->
<g id="node20" class="node"><title>Node20</title>
<polygon fill="white" stroke="#bfbfbf" points="997,-168.5 997,-187.5 1032,-187.5 1032,-168.5 997,-168.5"/>
<text text-anchor="middle" x="1014.5" y="-175.5" font-family="Helvetica,sans-Serif" font-size="10.00">map</text>
</g>
<!-- Node17&#45;&gt;Node20 -->
<g id="edge29" class="edge"><title>Node17&#45;&gt;Node20</title>
<path fill="none" stroke="midnightblue" d="M1139.89,-224.444C1113.29,-214.802 1070.1,-199.151 1042,-188.966"/>
<polygon fill="midnightblue" stroke="midnightblue" points="1042.98,-185.599 1032.39,-185.483 1040.6,-192.181 1042.98,-185.599"/>
</g>
<!-- Node18&#45;&gt;Node9 -->
<g id="edge24" class="edge"><title>Node18&#45;&gt;Node9</title>
<path fill="none" stroke="midnightblue" d="M1142.5,-168.083C1142.5,-161.006 1142.5,-150.861 1142.5,-141.986"/>
<polygon fill="midnightblue" stroke="midnightblue" points="1146,-141.751 1142.5,-131.751 1139,-141.751 1146,-141.751"/>
</g>
<!-- Node19&#45;&gt;Node6 -->
<g id="edge28" class="edge"><title>Node19&#45;&gt;Node6</title>
<path fill="none" stroke="midnightblue" d="M910.088,-168.444C879.436,-158.876 829.822,-143.389 797.178,-133.2"/>
<polygon fill="midnightblue" stroke="midnightblue" points="798.22,-129.859 787.632,-130.22 796.135,-136.541 798.22,-129.859"/>
</g>
<!-- Node19&#45;&gt;Node13 -->
<g id="edge27" class="edge"><title>Node19&#45;&gt;Node13</title>
<path fill="none" stroke="midnightblue" d="M978.667,-169.379C981.653,-168.891 984.621,-168.426 987.5,-168 1104.75,-150.666 1242.75,-136.025 1318.52,-128.48"/>
<polygon fill="midnightblue" stroke="midnightblue" points="1319.18,-131.932 1328.79,-127.463 1318.49,-124.966 1319.18,-131.932"/>
</g>
<!-- Node21&#45;&gt;Node9 -->
<g id="edge35" class="edge"><title>Node21&#45;&gt;Node9</title>
<path fill="none" stroke="midnightblue" d="M1468.98,-171.17C1400.36,-161.045 1259.61,-140.278 1187.4,-129.625"/>
<polygon fill="midnightblue" stroke="midnightblue" points="1187.66,-126.126 1177.26,-128.129 1186.64,-133.051 1187.66,-126.126"/>
</g>
<!-- Node21&#45;&gt;Node13 -->
<g id="edge34" class="edge"><title>Node21&#45;&gt;Node13</title>
<path fill="none" stroke="midnightblue" d="M1487.43,-168.444C1465.44,-159.517 1430.77,-145.439 1405.84,-135.317"/>
<polygon fill="midnightblue" stroke="midnightblue" points="1407.06,-132.035 1396.48,-131.516 1404.42,-138.521 1407.06,-132.035"/>
</g>
<!-- Node23&#45;&gt;Node9 -->
<g id="edge38" class="edge"><title>Node23&#45;&gt;Node9</title>
<path fill="none" stroke="midnightblue" d="M721.122,-224.463C677.994,-214.579 623.955,-195.983 649.5,-168 679.387,-135.261 981.29,-126.064 1097.37,-123.728"/>
<polygon fill="midnightblue" stroke="midnightblue" points="1097.75,-127.221 1107.68,-123.528 1097.61,-120.222 1097.75,-127.221"/>
</g>
<!-- Node25 -->
<g id="node25" class="node"><title>Node25</title>
<g id="a_node25"><a xlink:href="dji__hotpoint_8hpp.html" target="_top" xlink:title="Implementation of HotPoint (Point of Interest) Missions for DJI OSDK. ">
<polygon fill="white" stroke="black" points="844,-224.5 844,-243.5 929,-243.5 929,-224.5 844,-224.5"/>
<text text-anchor="middle" x="886.5" y="-231.5" font-family="Helvetica,sans-Serif" font-size="10.00">dji_hotpoint.hpp</text>
</a>
</g>
</g>
<!-- Node24&#45;&gt;Node25 -->
<g id="edge41" class="edge"><title>Node24&#45;&gt;Node25</title>
<path fill="none" stroke="midnightblue" d="M958.683,-280.324C945.267,-271.9 924.676,-258.971 908.914,-249.074"/>
<polygon fill="midnightblue" stroke="midnightblue" points="910.613,-246.008 900.283,-243.655 906.891,-251.936 910.613,-246.008"/>
</g>
<!-- Node27 -->
<g id="node27" class="node"><title>Node27</title>
<g id="a_node27"><a xlink:href="dji__waypoint_8hpp.html" target="_top" xlink:title="Implementation of GPS Waypoint Missions for DJI OSDK. ">
<polygon fill="white" stroke="black" points="947,-224.5 947,-243.5 1036,-243.5 1036,-224.5 947,-224.5"/>
<text text-anchor="middle" x="991.5" y="-231.5" font-family="Helvetica,sans-Serif" font-size="10.00">dji_waypoint.hpp</text>
</a>
</g>
</g>
<!-- Node24&#45;&gt;Node27 -->
<g id="edge47" class="edge"><title>Node24&#45;&gt;Node27</title>
<path fill="none" stroke="midnightblue" d="M975.637,-280.083C978.183,-272.849 981.856,-262.409 985.027,-253.397"/>
<polygon fill="midnightblue" stroke="midnightblue" points="988.403,-254.346 988.421,-243.751 981.8,-252.023 988.403,-254.346"/>
</g>
<!-- Node25&#45;&gt;Node8 -->
<g id="edge46" class="edge"><title>Node25&#45;&gt;Node8</title>
<path fill="none" stroke="midnightblue" d="M857.662,-224.444C826.644,-215.241 777.171,-200.562 742.882,-190.388"/>
<polygon fill="midnightblue" stroke="midnightblue" points="743.786,-187.006 733.204,-187.516 741.795,-193.716 743.786,-187.006"/>
</g>
<!-- Node26 -->
<g id="node26" class="node"><title>Node26</title>
<g id="a_node26"><a xlink:href="dji__mission__base_8hpp.html" target="_top" xlink:title="Mission&#45;Base abstract class for DJI OSDK library. ">
<polygon fill="white" stroke="black" points="768.5,-168.5 768.5,-187.5 878.5,-187.5 878.5,-168.5 768.5,-168.5"/>
<text text-anchor="middle" x="823.5" y="-175.5" font-family="Helvetica,sans-Serif" font-size="10.00">dji_mission_base.hpp</text>
</a>
</g>
</g>
<!-- Node25&#45;&gt;Node26 -->
<g id="edge42" class="edge"><title>Node25&#45;&gt;Node26</title>
<path fill="none" stroke="midnightblue" d="M876.378,-224.324C866.974,-216.263 852.756,-204.077 841.431,-194.369"/>
<polygon fill="midnightblue" stroke="midnightblue" points="843.677,-191.684 833.806,-187.834 839.121,-196.999 843.677,-191.684"/>
</g>
<!-- Node26&#45;&gt;Node3 -->
<g id="edge45" class="edge"><title>Node26&#45;&gt;Node3</title>
<path fill="none" stroke="midnightblue" d="M768.201,-169.192C764.92,-168.776 761.668,-168.375 758.5,-168 622.234,-151.864 462.622,-137.084 372.653,-129.131"/>
<polygon fill="midnightblue" stroke="midnightblue" points="372.836,-125.633 362.567,-128.242 372.221,-132.606 372.836,-125.633"/>
</g>
<!-- Node26&#45;&gt;Node9 -->
<g id="edge44" class="edge"><title>Node26&#45;&gt;Node9</title>
<path fill="none" stroke="midnightblue" d="M874.046,-168.444C935.699,-158.007 1038.95,-140.528 1097.82,-130.564"/>
<polygon fill="midnightblue" stroke="midnightblue" points="1098.65,-133.974 1107.92,-128.854 1097.48,-127.072 1098.65,-133.974"/>
</g>
<!-- Node26&#45;&gt;Node13 -->
<g id="edge43" class="edge"><title>Node26&#45;&gt;Node13</title>
<path fill="none" stroke="midnightblue" d="M878.636,-169.076C881.633,-168.699 884.602,-168.337 887.5,-168 1043.33,-149.868 1227.86,-134.51 1318.89,-127.337"/>
<polygon fill="midnightblue" stroke="midnightblue" points="1319.3,-130.816 1329,-126.544 1318.75,-123.837 1319.3,-130.816"/>
</g>
<!-- Node27&#45;&gt;Node26 -->
<g id="edge48" class="edge"><title>Node27&#45;&gt;Node26</title>
<path fill="none" stroke="midnightblue" d="M964.88,-224.444C936.494,-215.32 891.363,-200.813 859.747,-190.651"/>
<polygon fill="midnightblue" stroke="midnightblue" points="860.587,-187.244 849.996,-187.516 858.445,-193.909 860.587,-187.244"/>
</g>
<!-- Node28&#45;&gt;Node3 -->
<g id="edge50" class="edge"><title>Node28&#45;&gt;Node3</title>
<path fill="none" stroke="midnightblue" d="M201.975,-224.368C220.113,-205.894 262.922,-162.293 286.043,-138.744"/>
<polygon fill="midnightblue" stroke="midnightblue" points="288.556,-141.179 293.065,-131.591 283.561,-136.275 288.556,-141.179"/>
</g>
<!-- Node31&#45;&gt;Node3 -->
<g id="edge57" class="edge"><title>Node31&#45;&gt;Node3</title>
<path fill="none" stroke="midnightblue" d="M370.615,-224.368C358.238,-206.215 329.319,-163.802 313.084,-139.99"/>
<polygon fill="midnightblue" stroke="midnightblue" points="315.883,-137.882 307.358,-131.591 310.099,-141.825 315.883,-137.882"/>
</g>
<!-- Node31&#45;&gt;Node4 -->
<g id="edge55" class="edge"><title>Node31&#45;&gt;Node4</title>
<path fill="none" stroke="midnightblue" d="M379.941,-224.075C390.059,-197.832 419.856,-120.545 433.515,-85.1165"/>
<polygon fill="midnightblue" stroke="midnightblue" points="436.865,-86.1578 437.197,-75.5681 430.334,-83.6396 436.865,-86.1578"/>
</g>
<!-- Node31&#45;&gt;Node8 -->
<g id="edge56" class="edge"><title>Node31&#45;&gt;Node8</title>
<path fill="none" stroke="midnightblue" d="M428.111,-224.503C488.18,-214.614 587.011,-198.343 648.783,-188.173"/>
<polygon fill="midnightblue" stroke="midnightblue" points="649.444,-191.611 658.742,-186.533 648.307,-184.704 649.444,-191.611"/>
</g>
<!-- Node33&#45;&gt;Node4 -->
<g id="edge64" class="edge"><title>Node33&#45;&gt;Node4</title>
<path fill="none" stroke="midnightblue" d="M1182.71,-280.438C1196.8,-273.015 1214.91,-260.811 1223.5,-244 1251.29,-189.642 1238.74,-141.877 1185.5,-112 1127.12,-79.238 677.525,-70.046 506.366,-67.7196"/>
<polygon fill="midnightblue" stroke="midnightblue" points="506.276,-64.2182 496.23,-67.5854 506.183,-71.2175 506.276,-64.2182"/>
</g>
<!-- Node33&#45;&gt;Node8 -->
<g id="edge66" class="edge"><title>Node33&#45;&gt;Node8</title>
<path fill="none" stroke="midnightblue" d="M1151.35,-280.332C1130.58,-265.985 1086.39,-237.546 1044.5,-224 926.106,-185.71 887.795,-205.254 760.252,-188.017"/>
<polygon fill="midnightblue" stroke="midnightblue" points="760.488,-184.516 750.099,-186.593 759.516,-191.448 760.488,-184.516"/>
</g>
<!-- Node33&#45;&gt;Node9 -->
<g id="edge65" class="edge"><title>Node33&#45;&gt;Node9</title>
<path fill="none" stroke="midnightblue" d="M1175.71,-280.236C1185.85,-272.143 1199.54,-259.112 1205.5,-244 1217.89,-212.575 1220.96,-198.034 1205.5,-168 1198.42,-154.247 1184.98,-143.766 1172.32,-136.394"/>
<polygon fill="midnightblue" stroke="midnightblue" points="1173.81,-133.222 1163.35,-131.573 1170.5,-139.389 1173.81,-133.222"/>
</g>
<!-- Node33&#45;&gt;Node17 -->
<g id="edge63" class="edge"><title>Node33&#45;&gt;Node17</title>
<path fill="none" stroke="midnightblue" d="M1163.5,-280.083C1163.5,-273.006 1163.5,-262.861 1163.5,-253.986"/>
<polygon fill="midnightblue" stroke="midnightblue" points="1167,-253.751 1163.5,-243.751 1160,-253.751 1167,-253.751"/>
</g>
</g>
</svg>
