<?xml version="1.0" encoding="UTF-8" standalone="no"?>
<!DOCTYPE svg PUBLIC "-//W3C//DTD SVG 1.1//EN"
 "http://www.w3.org/Graphics/SVG/1.1/DTD/svg11.dtd">
<!-- Generated by graphviz version 2.38.0 (20140413.2041)
 -->
<!-- Title: osdk&#45;core/api/inc/dji_hardware_sync.hpp Pages: 1 -->
<svg width="389pt" height="151pt"
 viewBox="0.00 0.00 388.50 151.00" xmlns="http://www.w3.org/2000/svg" xmlns:xlink="http://www.w3.org/1999/xlink">
<g id="graph0" class="graph" transform="scale(1 1) rotate(0) translate(4 147)">
<title>osdk&#45;core/api/inc/dji_hardware_sync.hpp</title>
<polygon fill="white" stroke="none" points="-4,4 -4,-147 384.5,-147 384.5,4 -4,4"/>
<!-- Node1 -->
<g id="node1" class="node"><title>Node1</title>
<polygon fill="#bfbfbf" stroke="black" points="189,-112.5 189,-142.5 296,-142.5 296,-112.5 189,-112.5"/>
<text text-anchor="start" x="197" y="-130.5" font-family="Helvetica,sans-Serif" font-size="10.00">osdk&#45;core/api/inc/dji</text>
<text text-anchor="middle" x="242.5" y="-119.5" font-family="Helvetica,sans-Serif" font-size="10.00">_hardware_sync.hpp</text>
</g>
<!-- Node2 -->
<g id="node2" class="node"><title>Node2</title>
<g id="a_node2"><a xlink:href="dji__type_8hpp.html" target="_top" xlink:title="Data type and Data Structure definitions for use throughout DJI OSDK. ">
<polygon fill="white" stroke="black" points="43,-56.5 43,-75.5 112,-75.5 112,-56.5 43,-56.5"/>
<text text-anchor="middle" x="77.5" y="-63.5" font-family="Helvetica,sans-Serif" font-size="10.00">dji_type.hpp</text>
</a>
</g>
</g>
<!-- Node1&#45;&gt;Node2 -->
<g id="edge1" class="edge"><title>Node1&#45;&gt;Node2</title>
<path fill="none" stroke="midnightblue" d="M203.397,-112.399C175.342,-102.283 137.927,-88.7905 111.191,-79.1493"/>
<polygon fill="midnightblue" stroke="midnightblue" points="112.103,-75.7576 101.509,-75.6578 109.729,-82.3426 112.103,-75.7576"/>
</g>
<!-- Node5 -->
<g id="node5" class="node"><title>Node5</title>
<g id="a_node5"><a xlink:href="dji__vehicle__callback_8hpp.html" target="_top" xlink:title="Type definition for new Vehicle&#45;style callbacks. ">
<polygon fill="white" stroke="black" points="130.5,-56.5 130.5,-75.5 252.5,-75.5 252.5,-56.5 130.5,-56.5"/>
<text text-anchor="middle" x="191.5" y="-63.5" font-family="Helvetica,sans-Serif" font-size="10.00">dji_vehicle_callback.hpp</text>
</a>
</g>
</g>
<!-- Node1&#45;&gt;Node5 -->
<g id="edge4" class="edge"><title>Node1&#45;&gt;Node5</title>
<path fill="none" stroke="midnightblue" d="M230.414,-112.399C222.926,-103.664 213.282,-92.4126 205.468,-83.2962"/>
<polygon fill="midnightblue" stroke="midnightblue" points="208.086,-80.9726 198.921,-75.6578 202.771,-85.5281 208.086,-80.9726"/>
</g>
<!-- Node7 -->
<g id="node7" class="node"><title>Node7</title>
<polygon fill="white" stroke="#bfbfbf" points="270.5,-56.5 270.5,-75.5 316.5,-75.5 316.5,-56.5 270.5,-56.5"/>
<text text-anchor="middle" x="293.5" y="-63.5" font-family="Helvetica,sans-Serif" font-size="10.00">chrono</text>
</g>
<!-- Node1&#45;&gt;Node7 -->
<g id="edge6" class="edge"><title>Node1&#45;&gt;Node7</title>
<path fill="none" stroke="midnightblue" d="M254.586,-112.399C262.074,-103.664 271.718,-92.4126 279.532,-83.2962"/>
<polygon fill="midnightblue" stroke="midnightblue" points="282.229,-85.5281 286.079,-75.6578 276.914,-80.9726 282.229,-85.5281"/>
</g>
<!-- Node8 -->
<g id="node8" class="node"><title>Node8</title>
<polygon fill="white" stroke="#bfbfbf" points="334.5,-56.5 334.5,-75.5 380.5,-75.5 380.5,-56.5 334.5,-56.5"/>
<text text-anchor="middle" x="357.5" y="-63.5" font-family="Helvetica,sans-Serif" font-size="10.00">atomic</text>
</g>
<!-- Node1&#45;&gt;Node8 -->
<g id="edge7" class="edge"><title>Node1&#45;&gt;Node8</title>
<path fill="none" stroke="midnightblue" d="M269.753,-112.399C288.532,-102.684 313.326,-89.8551 331.768,-80.3137"/>
<polygon fill="midnightblue" stroke="midnightblue" points="333.493,-83.3617 340.766,-75.6578 330.276,-77.1445 333.493,-83.3617"/>
</g>
<!-- Node3 -->
<g id="node3" class="node"><title>Node3</title>
<polygon fill="white" stroke="#bfbfbf" points="0,-0.5 0,-19.5 43,-19.5 43,-0.5 0,-0.5"/>
<text text-anchor="middle" x="21.5" y="-7.5" font-family="Helvetica,sans-Serif" font-size="10.00">cstdio</text>
</g>
<!-- Node2&#45;&gt;Node3 -->
<g id="edge2" class="edge"><title>Node2&#45;&gt;Node3</title>
<path fill="none" stroke="midnightblue" d="M68.5026,-56.324C60.3056,-48.4196 47.9945,-36.5482 38.028,-26.9377"/>
<polygon fill="midnightblue" stroke="midnightblue" points="40.289,-24.2558 30.6611,-19.8339 35.4301,-29.2947 40.289,-24.2558"/>
</g>
<!-- Node4 -->
<g id="node4" class="node"><title>Node4</title>
<polygon fill="white" stroke="#bfbfbf" points="61,-0.5 61,-19.5 110,-19.5 110,-0.5 61,-0.5"/>
<text text-anchor="middle" x="85.5" y="-7.5" font-family="Helvetica,sans-Serif" font-size="10.00">stdint.h</text>
</g>
<!-- Node2&#45;&gt;Node4 -->
<g id="edge3" class="edge"><title>Node2&#45;&gt;Node4</title>
<path fill="none" stroke="midnightblue" d="M78.821,-56.083C79.8811,-48.9272 81.4059,-38.6353 82.7309,-29.6911"/>
<polygon fill="midnightblue" stroke="midnightblue" points="86.2002,-30.1561 84.2035,-19.7511 79.2758,-29.1302 86.2002,-30.1561"/>
</g>
<!-- Node6 -->
<g id="node6" class="node"><title>Node6</title>
<polygon fill="white" stroke="#bfbfbf" points="136,-0.5 136,-19.5 247,-19.5 247,-0.5 136,-0.5"/>
<text text-anchor="middle" x="191.5" y="-7.5" font-family="Helvetica,sans-Serif" font-size="10.00">dji_open_protocol.hpp</text>
</g>
<!-- Node5&#45;&gt;Node6 -->
<g id="edge5" class="edge"><title>Node5&#45;&gt;Node6</title>
<path fill="none" stroke="midnightblue" d="M191.5,-56.083C191.5,-49.0059 191.5,-38.8611 191.5,-29.9865"/>
<polygon fill="midnightblue" stroke="midnightblue" points="195,-29.751 191.5,-19.7511 188,-29.7511 195,-29.751"/>
</g>
</g>
</svg>
