<?xml version="1.0" encoding="UTF-8" standalone="no"?>
<!DOCTYPE svg PUBLIC "-//W3C//DTD SVG 1.1//EN"
 "http://www.w3.org/Graphics/SVG/1.1/DTD/svg11.dtd">
<!-- Generated by graphviz version 2.38.0 (20140413.2041)
 -->
<!-- Title: osdk&#45;core/api/inc/dji_vehicle.hpp Pages: 1 -->
<!--zoomable 375 -->
<svg id="main" version="1.1" xmlns="http://www.w3.org/2000/svg" xmlns:xlink="http://www.w3.org/1999/xlink" xml:space="preserve" onload="init(evt)">
<style type="text/css"><![CDATA[
.edge:hover path { stroke: red; }
.edge:hover polygon { stroke: red; fill: red; }
]]></style>
<script type="text/javascript"><![CDATA[
var edges = document.getElementsByTagName('g');
if (edges && edges.length) {
  for (var i=0;i<edges.length;i++) {
    if (edges[i].id.substr(0,4)=='edge') {
      edges[i].setAttribute('class','edge');
    }
  }
}
]]></script>
        <defs>
                <circle id="rim" cx="0" cy="0" r="7"/>
                <circle id="rim2" cx="0" cy="0" r="3.5"/>
                <g id="zoomPlus">
                        <use xlink:href="#rim" fill="#404040">
                                <set attributeName="fill" to="#808080" begin="zoomplus.mouseover" end="zoomplus.mouseout"/>
                        </use>
                        <path d="M-4,0h8M0,-4v8" fill="none" stroke="white" stroke-width="1.5" pointer-events="none"/>
                </g>
                <g id="zoomMin">
                        <use xlink:href="#rim" fill="#404040">
                                <set attributeName="fill" to="#808080" begin="zoomminus.mouseover" end="zoomminus.mouseout"/>
                        </use>
                        <path d="M-4,0h8" fill="none" stroke="white" stroke-width="1.5" pointer-events="none"/>
                </g>
                <g id="dirArrow">
                        <path fill="none" stroke="white" stroke-width="1.5" d="M0,-3.0v7 M-2.5,-0.5L0,-3.0L2.5,-0.5"/>
                </g>
               <g id="resetDef">
                       <use xlink:href="#rim2" fill="#404040">
                               <set attributeName="fill" to="#808080" begin="reset.mouseover" end="reset.mouseout"/>
                       </use>
               </g>
        </defs>

<script type="text/javascript">
var viewWidth = 2271;
var viewHeight = 375;
var sectionId = 'dynsection-0';
</script>
<script xlink:href="svgpan.js"/>
<svg id="graph" class="graph">
<g id="viewport">
<title>osdk&#45;core/api/inc/dji_vehicle.hpp</title>
<polygon fill="white" stroke="none" points="-4,4 -4,-371 2267,-371 2267,4 -4,4"/>
<!-- Node0 -->
<g id="node1" class="node"><title>Node0</title>
<g id="a_node1"><a xlink:title="Vehicle API for DJI onboardSDK library.">
<polygon fill="#bfbfbf" stroke="black" points="1127,-336.5 1127,-366.5 1231,-366.5 1231,-336.5 1127,-336.5"/>
<text text-anchor="start" x="1135" y="-354.5" font-family="Helvetica,sans-Serif" font-size="10.00">osdk&#45;core/api/inc/dji</text>
<text text-anchor="middle" x="1179" y="-343.5" font-family="Helvetica,sans-Serif" font-size="10.00">_vehicle.hpp</text>
</a>
</g>
</g>
<!-- Node1 -->
<g id="node2" class="node"><title>Node1</title>
<g id="a_node2"><a xlink:title=" ">
<polygon fill="white" stroke="#bfbfbf" points="0,-112.5 0,-131.5 46,-131.5 46,-112.5 0,-112.5"/>
<text text-anchor="middle" x="23" y="-119.5" font-family="Helvetica,sans-Serif" font-size="10.00">cstdint</text>
</a>
</g>
</g>
<!-- Node0&#45;&gt;Node1 -->
<g id="edge1" class="edge"><title>Node0&#45;&gt;Node1</title>
<path fill="none" stroke="midnightblue" d="M1126.91,-350.655C946.565,-350.765 349.694,-347.447 165,-300 109.939,-285.855 91.238,-283.131 50,-244 29.364,-224.418 26.115,-215.544 19,-188 16.7768,-179.394 18.6061,-176.88 19,-168 19.3827,-159.372 20.1762,-149.841 20.9563,-141.78"/>
<polygon fill="midnightblue" stroke="midnightblue" points="24.4606,-141.918 22.0059,-131.612 17.4976,-141.199 24.4606,-141.918"/>
</g>
<!-- Node2 -->
<g id="node3" class="node"><title>Node2</title>
<g id="a_node3"><a xlink:href="dji__broadcast_8hpp.html" target="_top" xlink:title="Broadcast Telemetry API for DJI onboardSDK library.">
<polygon fill="white" stroke="black" points="1132.5,-224.5 1132.5,-243.5 1225.5,-243.5 1225.5,-224.5 1132.5,-224.5"/>
<text text-anchor="middle" x="1179" y="-231.5" font-family="Helvetica,sans-Serif" font-size="10.00">dji_broadcast.hpp</text>
</a>
</g>
</g>
<!-- Node0&#45;&gt;Node2 -->
<g id="edge2" class="edge"><title>Node0&#45;&gt;Node2</title>
<path fill="none" stroke="midnightblue" d="M1179,-336.337C1179,-315.622 1179,-277.016 1179,-253.899"/>
<polygon fill="midnightblue" stroke="midnightblue" points="1182.5,-253.669 1179,-243.669 1175.5,-253.669 1182.5,-253.669"/>
</g>
<!-- Node4 -->
<g id="node5" class="node"><title>Node4</title>
<g id="a_node5"><a xlink:href="dji__type_8hpp.html" target="_top" xlink:title="Data type and Data Structure definitions for use throughout DJI OSDK.">
<polygon fill="white" stroke="black" points="559.5,-112.5 559.5,-131.5 628.5,-131.5 628.5,-112.5 559.5,-112.5"/>
<text text-anchor="middle" x="594" y="-119.5" font-family="Helvetica,sans-Serif" font-size="10.00">dji_type.hpp</text>
</a>
</g>
</g>
<!-- Node0&#45;&gt;Node4 -->
<g id="edge63" class="edge"><title>Node0&#45;&gt;Node4</title>
<path fill="none" stroke="midnightblue" d="M1126.75,-340.591C1101.17,-333.292 1071.72,-320.869 1052,-300 1009.53,-255.05 1056.14,-206.82 1008,-168 979.702,-145.179 740.316,-130.44 639.001,-125.17"/>
<polygon fill="midnightblue" stroke="midnightblue" points="638.945,-121.663 628.779,-124.647 638.587,-128.654 638.945,-121.663"/>
</g>
<!-- Node7 -->
<g id="node8" class="node"><title>Node7</title>
<g id="a_node8"><a xlink:href="dji__vehicle__callback_8hpp.html" target="_top" xlink:title="Type definition for new Vehicle&#45;style callbacks.">
<polygon fill="white" stroke="black" points="1215,-112.5 1215,-131.5 1337,-131.5 1337,-112.5 1215,-112.5"/>
<text text-anchor="middle" x="1276" y="-119.5" font-family="Helvetica,sans-Serif" font-size="10.00">dji_vehicle_callback.hpp</text>
</a>
</g>
</g>
<!-- Node0&#45;&gt;Node7 -->
<g id="edge64" class="edge"><title>Node0&#45;&gt;Node7</title>
<path fill="none" stroke="midnightblue" d="M1231.12,-349.446C1305.72,-346.639 1446.45,-336.483 1560,-300 1566.29,-297.978 1661.6,-249.669 1665,-244 1699.55,-186.412 1468.76,-147.677 1347.3,-131.515"/>
<polygon fill="midnightblue" stroke="midnightblue" points="1347.69,-128.037 1337.32,-130.205 1346.78,-134.977 1347.69,-128.037"/>
</g>
<!-- Node8 -->
<g id="node9" class="node"><title>Node8</title>
<g id="a_node9"><a xlink:title=" ">
<polygon fill="white" stroke="#bfbfbf" points="1010.5,-56.5 1010.5,-75.5 1121.5,-75.5 1121.5,-56.5 1010.5,-56.5"/>
<text text-anchor="middle" x="1066" y="-63.5" font-family="Helvetica,sans-Serif" font-size="10.00">dji_open_protocol.hpp</text>
</a>
</g>
</g>
<!-- Node0&#45;&gt;Node8 -->
<g id="edge55" class="edge"><title>Node0&#45;&gt;Node8</title>
<path fill="none" stroke="midnightblue" d="M1149.61,-336.461C1116.12,-318.182 1066,-282.83 1066,-235 1066,-235 1066,-235 1066,-177 1066,-144.948 1066,-107.643 1066,-85.7489"/>
<polygon fill="midnightblue" stroke="midnightblue" points="1069.5,-85.5577 1066,-75.5578 1062.5,-85.5578 1069.5,-85.5577"/>
</g>
<!-- Node9 -->
<g id="node10" class="node"><title>Node9</title>
<g id="a_node10"><a xlink:href="dji__camera_8hpp.html" target="_top" xlink:title="Camera/Gimbal API for DJI onboardSDK library.">
<polygon fill="white" stroke="black" points="135.5,-168.5 135.5,-187.5 218.5,-187.5 218.5,-168.5 135.5,-168.5"/>
<text text-anchor="middle" x="177" y="-175.5" font-family="Helvetica,sans-Serif" font-size="10.00">dji_camera.hpp</text>
</a>
</g>
</g>
<!-- Node0&#45;&gt;Node9 -->
<g id="edge9" class="edge"><title>Node0&#45;&gt;Node9</title>
<path fill="none" stroke="midnightblue" d="M1126.73,-350.427C972.021,-349.706 518.414,-343.808 378,-300 303.759,-276.837 228.448,-220.915 194.964,-193.986"/>
<polygon fill="midnightblue" stroke="midnightblue" points="196.981,-191.114 187.019,-187.505 192.556,-196.539 196.981,-191.114"/>
</g>
<!-- Node10 -->
<g id="node11" class="node"><title>Node10</title>
<g id="a_node11"><a xlink:href="dji__command_8hpp.html" target="_top" xlink:title="All DJI OSDK OpenProtocol Command IDs.">
<polygon fill="white" stroke="black" points="222.5,-112.5 222.5,-131.5 315.5,-131.5 315.5,-112.5 222.5,-112.5"/>
<text text-anchor="middle" x="269" y="-119.5" font-family="Helvetica,sans-Serif" font-size="10.00">dji_command.hpp</text>
</a>
</g>
</g>
<!-- Node0&#45;&gt;Node10 -->
<g id="edge16" class="edge"><title>Node0&#45;&gt;Node10</title>
<path fill="none" stroke="midnightblue" d="M1126.76,-350.18C958.56,-348.747 432.453,-341.015 268,-300 153.007,-271.32 89.8223,-287.864 26,-188 21.2132,-180.51 20.3156,-174.834 26,-168 49.2444,-140.056 148.167,-129.389 212.41,-125.371"/>
<polygon fill="midnightblue" stroke="midnightblue" points="212.629,-128.864 222.405,-124.781 212.217,-121.876 212.629,-128.864"/>
</g>
<!-- Node12 -->
<g id="node13" class="node"><title>Node12</title>
<g id="a_node13"><a xlink:title=" ">
<polygon fill="white" stroke="#bfbfbf" points="1655,-280.5 1655,-299.5 1767,-299.5 1767,-280.5 1655,-280.5"/>
<text text-anchor="middle" x="1711" y="-287.5" font-family="Helvetica,sans-Serif" font-size="10.00">dji_circular_buffer.hpp</text>
</a>
</g>
</g>
<!-- Node0&#45;&gt;Node12 -->
<g id="edge15" class="edge"><title>Node0&#45;&gt;Node12</title>
<path fill="none" stroke="midnightblue" d="M1231,-345.141C1316.56,-336.251 1492.37,-317.676 1641,-300 1642.27,-299.849 1643.55,-299.696 1644.83,-299.541"/>
<polygon fill="midnightblue" stroke="midnightblue" points="1645.35,-303.004 1654.85,-298.315 1644.5,-296.056 1645.35,-303.004"/>
</g>
<!-- Node13 -->
<g id="node14" class="node"><title>Node13</title>
<g id="a_node14"><a xlink:href="dji__control_8hpp.html" target="_top" xlink:title="Control API for DJI OSDK library.">
<polygon fill="white" stroke="black" points="638,-280.5 638,-299.5 718,-299.5 718,-280.5 638,-280.5"/>
<text text-anchor="middle" x="678" y="-287.5" font-family="Helvetica,sans-Serif" font-size="10.00">dji_control.hpp</text>
</a>
</g>
</g>
<!-- Node0&#45;&gt;Node13 -->
<g id="edge17" class="edge"><title>Node0&#45;&gt;Node13</title>
<path fill="none" stroke="midnightblue" d="M1126.8,-344.301C1029.96,-332.799 823.652,-308.298 728.276,-296.971"/>
<polygon fill="midnightblue" stroke="midnightblue" points="728.645,-293.49 718.302,-295.786 727.82,-300.441 728.645,-293.49"/>
</g>
<!-- Node16 -->
<g id="node17" class="node"><title>Node16</title>
<g id="a_node17"><a xlink:href="dji__version_8hpp.html" target="_top" xlink:title="Drone/SDK Version definition for DJI onboardSDK library.">
<polygon fill="white" stroke="black" points="35,-168.5 35,-187.5 117,-187.5 117,-168.5 35,-168.5"/>
<text text-anchor="middle" x="76" y="-175.5" font-family="Helvetica,sans-Serif" font-size="10.00">dji_version.hpp</text>
</a>
</g>
</g>
<!-- Node0&#45;&gt;Node16 -->
<g id="edge65" class="edge"><title>Node0&#45;&gt;Node16</title>
<path fill="none" stroke="midnightblue" d="M1126.82,-350.037C966.098,-348.197 480.229,-339.432 328,-300 237.368,-276.523 140.231,-219.719 97.8583,-193.147"/>
<polygon fill="midnightblue" stroke="midnightblue" points="99.5302,-190.063 89.2105,-187.664 95.782,-195.975 99.5302,-190.063"/>
</g>
<!-- Node18 -->
<g id="node19" class="node"><title>Node18</title>
<g id="a_node19"><a xlink:href="dji__gimbal_8hpp.html" target="_top" xlink:title="Gimbal API for OSDK library.">
<polygon fill="white" stroke="black" points="236.5,-168.5 236.5,-187.5 315.5,-187.5 315.5,-168.5 236.5,-168.5"/>
<text text-anchor="middle" x="276" y="-175.5" font-family="Helvetica,sans-Serif" font-size="10.00">dji_gimbal.hpp</text>
</a>
</g>
</g>
<!-- Node0&#45;&gt;Node18 -->
<g id="edge30" class="edge"><title>Node0&#45;&gt;Node18</title>
<path fill="none" stroke="midnightblue" d="M1126.92,-349.797C980.133,-347.37 565.297,-337.307 435,-300 384.154,-285.442 370.999,-277.411 330,-244 313.021,-230.163 297.48,-210.358 287.474,-196.252"/>
<polygon fill="midnightblue" stroke="midnightblue" points="290.294,-194.176 281.739,-187.926 284.529,-198.146 290.294,-194.176"/>
</g>
<!-- Node19 -->
<g id="node20" class="node"><title>Node19</title>
<g id="a_node20"><a xlink:title=" ">
<polygon fill="white" stroke="#bfbfbf" points="1785,-280.5 1785,-299.5 1883,-299.5 1883,-280.5 1785,-280.5"/>
<text text-anchor="middle" x="1834" y="-287.5" font-family="Helvetica,sans-Serif" font-size="10.00">dji_hard_driver.hpp</text>
</a>
</g>
</g>
<!-- Node0&#45;&gt;Node19 -->
<g id="edge33" class="edge"><title>Node0&#45;&gt;Node19</title>
<path fill="none" stroke="midnightblue" d="M1231.03,-347.321C1333.2,-340.813 1567.42,-324.586 1774.82,-300.063"/>
<polygon fill="midnightblue" stroke="midnightblue" points="1775.47,-303.51 1784.99,-298.851 1774.64,-296.559 1775.47,-303.51"/>
</g>
<!-- Node20 -->
<g id="node21" class="node"><title>Node20</title>
<g id="a_node21"><a xlink:href="dji__hardware__sync_8hpp.html" target="_top" xlink:title="Hardware Sync API for DJI OSDK.">
<polygon fill="white" stroke="black" points="1094,-168.5 1094,-187.5 1210,-187.5 1210,-168.5 1094,-168.5"/>
<text text-anchor="middle" x="1152" y="-175.5" font-family="Helvetica,sans-Serif" font-size="10.00">dji_hardware_sync.hpp</text>
</a>
</g>
</g>
<!-- Node0&#45;&gt;Node20 -->
<g id="edge34" class="edge"><title>Node0&#45;&gt;Node20</title>
<path fill="none" stroke="midnightblue" d="M1168.59,-336.256C1154.98,-316.647 1131.81,-279.694 1123,-244 1120.87,-235.37 1120.49,-232.527 1123,-224 1126.01,-213.765 1132.15,-203.66 1138.01,-195.627"/>
<polygon fill="midnightblue" stroke="midnightblue" points="1140.93,-197.577 1144.33,-187.541 1135.41,-193.269 1140.93,-197.577"/>
</g>
<!-- Node22 -->
<g id="node23" class="node"><title>Node22</title>
<g id="a_node23"><a xlink:href="dji__mfio_8hpp.html" target="_top" xlink:title="MFIO API for DJI OSDK library.">
<polygon fill="white" stroke="black" points="1712.5,-224.5 1712.5,-243.5 1781.5,-243.5 1781.5,-224.5 1712.5,-224.5"/>
<text text-anchor="middle" x="1747" y="-231.5" font-family="Helvetica,sans-Serif" font-size="10.00">dji_mfio.hpp</text>
</a>
</g>
</g>
<!-- Node0&#45;&gt;Node22 -->
<g id="edge38" class="edge"><title>Node0&#45;&gt;Node22</title>
<path fill="none" stroke="midnightblue" d="M1231.27,-349.561C1312.35,-346.933 1472.69,-337.042 1603,-300 1623.27,-294.237 1626.82,-288.734 1646,-280 1670.32,-268.926 1698.06,-256.588 1718.31,-247.636"/>
<polygon fill="midnightblue" stroke="midnightblue" points="1719.86,-250.775 1727.6,-243.534 1717.03,-244.372 1719.86,-250.775"/>
</g>
<!-- Node23 -->
<g id="node24" class="node"><title>Node23</title>
<g id="a_node24"><a xlink:href="dji__mission__manager_8hpp.html" target="_top" xlink:title="Mission&#45;Manager API for DJI OSDK library.">
<polygon fill="white" stroke="black" points="852.5,-280.5 852.5,-299.5 979.5,-299.5 979.5,-280.5 852.5,-280.5"/>
<text text-anchor="middle" x="916" y="-287.5" font-family="Helvetica,sans-Serif" font-size="10.00">dji_mission_manager.hpp</text>
</a>
</g>
</g>
<!-- Node0&#45;&gt;Node23 -->
<g id="edge40" class="edge"><title>Node0&#45;&gt;Node23</title>
<path fill="none" stroke="midnightblue" d="M1126.73,-338.674C1079.23,-327.929 1009.76,-312.213 963.742,-301.801"/>
<polygon fill="midnightblue" stroke="midnightblue" points="964.247,-298.327 953.721,-299.534 962.703,-305.154 964.247,-298.327"/>
</g>
<!-- Node28 -->
<g id="node29" class="node"><title>Node28</title>
<g id="a_node29"><a xlink:href="dji__mobile__communication_8hpp.html" target="_top" xlink:title="Implementation of DJI Mobile&#45;Onboard SDK Communication (MOC)">
<polygon fill="white" stroke="black" points="1373,-280.5 1373,-299.5 1523,-299.5 1523,-280.5 1373,-280.5"/>
<text text-anchor="middle" x="1448" y="-287.5" font-family="Helvetica,sans-Serif" font-size="10.00">dji_mobile_communication.hpp</text>
</a>
</g>
</g>
<!-- Node0&#45;&gt;Node28 -->
<g id="edge50" class="edge"><title>Node0&#45;&gt;Node28</title>
<path fill="none" stroke="midnightblue" d="M1231.18,-338.957C1279.87,-328.19 1351.92,-312.251 1399.41,-301.748"/>
<polygon fill="midnightblue" stroke="midnightblue" points="1400.44,-305.105 1409.45,-299.528 1398.93,-298.27 1400.44,-305.105"/>
</g>
<!-- Node30 -->
<g id="node31" class="node"><title>Node30</title>
<g id="a_node31"><a xlink:href="dji__mobile__device_8hpp.html" target="_top" xlink:title="Implementation of DJI Mobile Device Abstraction.">
<polygon fill="white" stroke="black" points="1243.5,-224.5 1243.5,-243.5 1356.5,-243.5 1356.5,-224.5 1243.5,-224.5"/>
<text text-anchor="middle" x="1300" y="-231.5" font-family="Helvetica,sans-Serif" font-size="10.00">dji_mobile_device.hpp</text>
</a>
</g>
</g>
<!-- Node0&#45;&gt;Node30 -->
<g id="edge53" class="edge"><title>Node0&#45;&gt;Node30</title>
<path fill="none" stroke="midnightblue" d="M1193.84,-336.337C1216.53,-314.676 1259.72,-273.453 1283.41,-250.832"/>
<polygon fill="midnightblue" stroke="midnightblue" points="1286.1,-253.106 1290.92,-243.669 1281.27,-248.042 1286.1,-253.106"/>
</g>
<!-- Node31 -->
<g id="node32" class="node"><title>Node31</title>
<g id="a_node32"><a xlink:title=" ">
<polygon fill="white" stroke="#bfbfbf" points="1901,-280.5 1901,-299.5 2029,-299.5 2029,-280.5 1901,-280.5"/>
<text text-anchor="middle" x="1965" y="-287.5" font-family="Helvetica,sans-Serif" font-size="10.00">dji_platform_manager.hpp</text>
</a>
</g>
</g>
<!-- Node0&#45;&gt;Node31 -->
<g id="edge56" class="edge"><title>Node0&#45;&gt;Node31</title>
<path fill="none" stroke="midnightblue" d="M1231.41,-347.723C1347.93,-341.347 1637.51,-324.385 1890.8,-300.069"/>
<polygon fill="midnightblue" stroke="midnightblue" points="1891.31,-303.536 1900.93,-299.09 1890.64,-296.568 1891.31,-303.536"/>
</g>
<!-- Node32 -->
<g id="node33" class="node"><title>Node32</title>
<g id="a_node33"><a xlink:href="dji__status_8hpp.html" target="_top" xlink:title="Status information for DJI Vehicle.">
<polygon fill="white" stroke="black" points="2047.5,-280.5 2047.5,-299.5 2124.5,-299.5 2124.5,-280.5 2047.5,-280.5"/>
<text text-anchor="middle" x="2086" y="-287.5" font-family="Helvetica,sans-Serif" font-size="10.00">dji_status.hpp</text>
</a>
</g>
</g>
<!-- Node0&#45;&gt;Node32 -->
<g id="edge57" class="edge"><title>Node0&#45;&gt;Node32</title>
<path fill="none" stroke="midnightblue" d="M1231.01,-349.734C1363.71,-347.288 1725.77,-337.538 2037.17,-299.928"/>
<polygon fill="midnightblue" stroke="midnightblue" points="2037.79,-303.378 2047.29,-298.693 2036.94,-296.429 2037.79,-303.378"/>
</g>
<!-- Node33 -->
<g id="node34" class="node"><title>Node33</title>
<g id="a_node34"><a xlink:href="dji__subscription_8hpp.html" target="_top" xlink:title="Telemetry Subscription API for DJI OSDK library.">
<polygon fill="white" stroke="black" points="1552.5,-224.5 1552.5,-243.5 1655.5,-243.5 1655.5,-224.5 1552.5,-224.5"/>
<text text-anchor="middle" x="1604" y="-231.5" font-family="Helvetica,sans-Serif" font-size="10.00">dji_subscription.hpp</text>
</a>
</g>
</g>
<!-- Node0&#45;&gt;Node33 -->
<g id="edge58" class="edge"><title>Node0&#45;&gt;Node33</title>
<path fill="none" stroke="midnightblue" d="M1231.03,-346.798C1315.83,-340.145 1479.66,-324.529 1532,-300 1555.93,-288.786 1577.58,-266.893 1590.75,-251.629"/>
<polygon fill="midnightblue" stroke="midnightblue" points="1593.44,-253.864 1597.16,-243.941 1588.07,-249.383 1593.44,-253.864"/>
</g>
<!-- Node34 -->
<g id="node35" class="node"><title>Node34</title>
<g id="a_node35"><a xlink:title=" ">
<polygon fill="white" stroke="#bfbfbf" points="2143,-280.5 2143,-299.5 2263,-299.5 2263,-280.5 2143,-280.5"/>
<text text-anchor="middle" x="2203" y="-287.5" font-family="Helvetica,sans-Serif" font-size="10.00">dji_thread_manager.hpp</text>
</a>
</g>
</g>
<!-- Node0&#45;&gt;Node34 -->
<g id="edge62" class="edge"><title>Node0&#45;&gt;Node34</title>
<path fill="none" stroke="midnightblue" d="M1231.12,-349.152C1373.71,-345.163 1782.42,-331.715 2132.73,-300.045"/>
<polygon fill="midnightblue" stroke="midnightblue" points="2133.18,-303.519 2142.82,-299.126 2132.54,-296.548 2133.18,-303.519"/>
</g>
<!-- Node35 -->
<g id="node36" class="node"><title>Node35</title>
<g id="a_node36"><a xlink:href="dji__virtual__rc_8hpp.html" target="_top" xlink:title="Virtual Radio Control API for DJI onboardSDK library.">
<polygon fill="white" stroke="black" points="444,-280.5 444,-299.5 534,-299.5 534,-280.5 444,-280.5"/>
<text text-anchor="middle" x="489" y="-287.5" font-family="Helvetica,sans-Serif" font-size="10.00">dji_virtual_rc.hpp</text>
</a>
</g>
</g>
<!-- Node0&#45;&gt;Node35 -->
<g id="edge66" class="edge"><title>Node0&#45;&gt;Node35</title>
<path fill="none" stroke="midnightblue" d="M1126.86,-346.003C999.693,-335.038 674.55,-307 544.24,-295.763"/>
<polygon fill="midnightblue" stroke="midnightblue" points="544.354,-292.26 534.09,-294.888 543.752,-299.234 544.354,-292.26"/>
</g>
<!-- Node36 -->
<g id="node37" class="node"><title>Node36</title>
<g id="a_node37"><a xlink:href="dji__payload__device_8hpp.html" target="_top" xlink:title="Implementation of DJI Payload Device Abstraction.">
<polygon fill="white" stroke="black" points="1304,-168.5 1304,-187.5 1422,-187.5 1422,-168.5 1304,-168.5"/>
<text text-anchor="middle" x="1363" y="-175.5" font-family="Helvetica,sans-Serif" font-size="10.00">dji_payload_device.hpp</text>
</a>
</g>
</g>
<!-- Node0&#45;&gt;Node36 -->
<g id="edge71" class="edge"><title>Node0&#45;&gt;Node36</title>
<path fill="none" stroke="midnightblue" d="M1231.23,-336.572C1275.58,-321.675 1336.45,-293.253 1365,-244 1373.13,-229.973 1371.51,-211.229 1368.52,-197.474"/>
<polygon fill="midnightblue" stroke="midnightblue" points="1371.88,-196.501 1365.99,-187.698 1365.11,-198.256 1371.88,-196.501"/>
</g>
<!-- Node3 -->
<g id="node4" class="node"><title>Node3</title>
<g id="a_node4"><a xlink:href="dji__telemetry_8hpp.html" target="_top" xlink:title="Enumeration of all telemetry data types, structures and maps.">
<polygon fill="white" stroke="black" points="908.5,-168.5 908.5,-187.5 999.5,-187.5 999.5,-168.5 908.5,-168.5"/>
<text text-anchor="middle" x="954" y="-175.5" font-family="Helvetica,sans-Serif" font-size="10.00">dji_telemetry.hpp</text>
</a>
</g>
</g>
<!-- Node2&#45;&gt;Node3 -->
<g id="edge3" class="edge"><title>Node2&#45;&gt;Node3</title>
<path fill="none" stroke="midnightblue" d="M1143.35,-224.444C1104.34,-215.083 1041.73,-200.056 999.283,-189.868"/>
<polygon fill="midnightblue" stroke="midnightblue" points="1000.03,-186.447 989.485,-187.516 998.392,-193.254 1000.03,-186.447"/>
</g>
<!-- Node2&#45;&gt;Node7 -->
<g id="edge7" class="edge"><title>Node2&#45;&gt;Node7</title>
<path fill="none" stroke="midnightblue" d="M1186.69,-224.388C1194.75,-215.342 1207.79,-200.694 1219,-188 1233.5,-171.571 1250.01,-152.737 1261.51,-139.587"/>
<polygon fill="midnightblue" stroke="midnightblue" points="1264.33,-141.68 1268.27,-131.848 1259.06,-137.073 1264.33,-141.68"/>
</g>
<!-- Node3&#45;&gt;Node4 -->
<g id="edge4" class="edge"><title>Node3&#45;&gt;Node4</title>
<path fill="none" stroke="midnightblue" d="M908.406,-170.161C839.03,-159.755 707.767,-140.065 638.842,-129.726"/>
<polygon fill="midnightblue" stroke="midnightblue" points="639.145,-126.233 628.737,-128.211 638.107,-133.155 639.145,-126.233"/>
</g>
<!-- Node5 -->
<g id="node6" class="node"><title>Node5</title>
<g id="a_node6"><a xlink:title=" ">
<polygon fill="white" stroke="#bfbfbf" points="572.5,-56.5 572.5,-75.5 615.5,-75.5 615.5,-56.5 572.5,-56.5"/>
<text text-anchor="middle" x="594" y="-63.5" font-family="Helvetica,sans-Serif" font-size="10.00">cstdio</text>
</a>
</g>
</g>
<!-- Node4&#45;&gt;Node5 -->
<g id="edge5" class="edge"><title>Node4&#45;&gt;Node5</title>
<path fill="none" stroke="midnightblue" d="M594,-112.083C594,-105.006 594,-94.8611 594,-85.9865"/>
<polygon fill="midnightblue" stroke="midnightblue" points="597.5,-85.751 594,-75.7511 590.5,-85.7511 597.5,-85.751"/>
</g>
<!-- Node6 -->
<g id="node7" class="node"><title>Node6</title>
<g id="a_node7"><a xlink:title=" ">
<polygon fill="white" stroke="#bfbfbf" points="307.5,-0.5 307.5,-19.5 356.5,-19.5 356.5,-0.5 307.5,-0.5"/>
<text text-anchor="middle" x="332" y="-7.5" font-family="Helvetica,sans-Serif" font-size="10.00">stdint.h</text>
</a>
</g>
</g>
<!-- Node4&#45;&gt;Node6 -->
<g id="edge6" class="edge"><title>Node4&#45;&gt;Node6</title>
<path fill="none" stroke="midnightblue" d="M573.441,-112.368C527.334,-93.0105 415.517,-46.0645 361.79,-23.5074"/>
<polygon fill="midnightblue" stroke="midnightblue" points="363.038,-20.2355 352.463,-19.5914 360.329,-26.6897 363.038,-20.2355"/>
</g>
<!-- Node7&#45;&gt;Node8 -->
<g id="edge8" class="edge"><title>Node7&#45;&gt;Node8</title>
<path fill="none" stroke="midnightblue" d="M1242.72,-112.444C1206.55,-103.142 1148.62,-88.246 1109.02,-78.062"/>
<polygon fill="midnightblue" stroke="midnightblue" points="1109.68,-74.6172 1099.12,-75.5164 1107.93,-81.3966 1109.68,-74.6172"/>
</g>
<!-- Node9&#45;&gt;Node4 -->
<g id="edge14" class="edge"><title>Node9&#45;&gt;Node4</title>
<path fill="none" stroke="midnightblue" d="M218.713,-169.311C221.515,-168.85 224.297,-168.409 227,-168 342.763,-150.498 479.859,-135.093 549.131,-127.681"/>
<polygon fill="midnightblue" stroke="midnightblue" points="549.678,-131.143 559.251,-126.604 548.937,-124.182 549.678,-131.143"/>
</g>
<!-- Node9&#45;&gt;Node10 -->
<g id="edge10" class="edge"><title>Node9&#45;&gt;Node10</title>
<path fill="none" stroke="midnightblue" d="M191.781,-168.324C206.267,-159.822 228.573,-146.729 245.493,-136.797"/>
<polygon fill="midnightblue" stroke="midnightblue" points="247.403,-139.735 254.255,-131.655 243.859,-133.698 247.403,-139.735"/>
</g>
<!-- Node10&#45;&gt;Node6 -->
<g id="edge13" class="edge"><title>Node10&#45;&gt;Node6</title>
<path fill="none" stroke="midnightblue" d="M280.343,-112.179C290.307,-103.859 304.504,-90.5244 313,-76 321.44,-61.5704 326.366,-43.1178 329.078,-29.5626"/>
<polygon fill="midnightblue" stroke="midnightblue" points="332.558,-29.9822 330.863,-19.5238 325.666,-28.7564 332.558,-29.9822"/>
</g>
<!-- Node11 -->
<g id="node12" class="node"><title>Node11</title>
<g id="a_node12"><a xlink:href="dji__error_8hpp.html" target="_top" xlink:title="All DJI OSDK OpenProtocol ACK Error Codes.">
<polygon fill="white" stroke="black" points="234,-56.5 234,-75.5 304,-75.5 304,-56.5 234,-56.5"/>
<text text-anchor="middle" x="269" y="-63.5" font-family="Helvetica,sans-Serif" font-size="10.00">dji_error.hpp</text>
</a>
</g>
</g>
<!-- Node10&#45;&gt;Node11 -->
<g id="edge11" class="edge"><title>Node10&#45;&gt;Node11</title>
<path fill="none" stroke="midnightblue" d="M269,-112.083C269,-105.006 269,-94.8611 269,-85.9865"/>
<polygon fill="midnightblue" stroke="midnightblue" points="272.5,-85.751 269,-75.7511 265.5,-85.7511 272.5,-85.751"/>
</g>
<!-- Node11&#45;&gt;Node6 -->
<g id="edge12" class="edge"><title>Node11&#45;&gt;Node6</title>
<path fill="none" stroke="midnightblue" d="M279.122,-56.324C288.526,-48.2631 302.744,-36.0765 314.069,-26.3695"/>
<polygon fill="midnightblue" stroke="midnightblue" points="316.379,-28.9993 321.694,-19.8339 311.823,-23.6844 316.379,-28.9993"/>
</g>
<!-- Node13&#45;&gt;Node4 -->
<g id="edge28" class="edge"><title>Node13&#45;&gt;Node4</title>
<path fill="none" stroke="midnightblue" d="M674.65,-280.178C671.388,-271.207 666.559,-256.838 664,-244 657.37,-210.734 673.89,-197.417 657,-168 649.191,-154.399 635.413,-143.848 622.729,-136.392"/>
<polygon fill="midnightblue" stroke="midnightblue" points="624.243,-133.231 613.788,-131.511 620.888,-139.375 624.243,-133.231"/>
</g>
<!-- Node13&#45;&gt;Node7 -->
<g id="edge29" class="edge"><title>Node13&#45;&gt;Node7</title>
<path fill="none" stroke="midnightblue" d="M711.126,-280.444C737.314,-272.92 774.283,-260.579 804,-244 851.219,-217.657 849.13,-188.895 899,-168 912.9,-162.176 1099.39,-141.702 1204.75,-130.486"/>
<polygon fill="midnightblue" stroke="midnightblue" points="1205.42,-133.934 1215,-129.397 1204.68,-126.973 1205.42,-133.934"/>
</g>
<!-- Node13&#45;&gt;Node8 -->
<g id="edge27" class="edge"><title>Node13&#45;&gt;Node8</title>
<path fill="none" stroke="midnightblue" d="M679.134,-280.235C682.57,-257.543 695.071,-196.653 733,-168 812.599,-107.868 928.061,-83.2871 1000,-73.4134"/>
<polygon fill="midnightblue" stroke="midnightblue" points="1000.83,-76.8344 1010.29,-72.0609 999.92,-69.8941 1000.83,-76.8344"/>
</g>
<!-- Node14 -->
<g id="node15" class="node"><title>Node14</title>
<g id="a_node15"><a xlink:href="dji__ack_8hpp.html" target="_top" xlink:title="All DJI OSDK ACK parsing.">
<polygon fill="white" stroke="black" points="456,-224.5 456,-243.5 522,-243.5 522,-224.5 456,-224.5"/>
<text text-anchor="middle" x="489" y="-231.5" font-family="Helvetica,sans-Serif" font-size="10.00">dji_ack.hpp</text>
</a>
</g>
</g>
<!-- Node13&#45;&gt;Node14 -->
<g id="edge18" class="edge"><title>Node13&#45;&gt;Node14</title>
<path fill="none" stroke="midnightblue" d="M648.052,-280.444C615.842,-271.241 564.466,-256.562 528.858,-246.388"/>
<polygon fill="midnightblue" stroke="midnightblue" points="529.384,-242.898 518.808,-243.516 527.461,-249.629 529.384,-242.898"/>
</g>
<!-- Node14&#45;&gt;Node4 -->
<g id="edge22" class="edge"><title>Node14&#45;&gt;Node4</title>
<path fill="none" stroke="midnightblue" d="M493.267,-224.28C500.011,-211.079 514.117,-185.689 531,-168 542.5,-155.951 557.629,-145.023 570.179,-136.953"/>
<polygon fill="midnightblue" stroke="midnightblue" points="572.13,-139.862 578.772,-131.608 568.432,-133.918 572.13,-139.862"/>
</g>
<!-- Node14&#45;&gt;Node10 -->
<g id="edge19" class="edge"><title>Node14&#45;&gt;Node10</title>
<path fill="none" stroke="midnightblue" d="M471.737,-224.368C433.342,-205.171 340.684,-158.842 295.148,-136.074"/>
<polygon fill="midnightblue" stroke="midnightblue" points="296.692,-132.933 286.183,-131.591 293.562,-139.194 296.692,-132.933"/>
</g>
<!-- Node15 -->
<g id="node16" class="node"><title>Node15</title>
<g id="a_node16"><a xlink:href="dji__mission__type_8hpp.html" target="_top" xlink:title="Mission related data struct for DJI OSDK library.">
<polygon fill="white" stroke="black" points="540,-168.5 540,-187.5 648,-187.5 648,-168.5 540,-168.5"/>
<text text-anchor="middle" x="594" y="-175.5" font-family="Helvetica,sans-Serif" font-size="10.00">dji_mission_type.hpp</text>
</a>
</g>
</g>
<!-- Node14&#45;&gt;Node15 -->
<g id="edge20" class="edge"><title>Node14&#45;&gt;Node15</title>
<path fill="none" stroke="midnightblue" d="M505.87,-224.324C522.709,-215.664 548.807,-202.242 568.238,-192.249"/>
<polygon fill="midnightblue" stroke="midnightblue" points="569.88,-195.341 577.172,-187.655 566.678,-189.116 569.88,-195.341"/>
</g>
<!-- Node14&#45;&gt;Node16 -->
<g id="edge23" class="edge"><title>Node14&#45;&gt;Node16</title>
<path fill="none" stroke="midnightblue" d="M455.883,-229.509C393.582,-222.809 254.472,-207.22 127.1,-188.097"/>
<polygon fill="midnightblue" stroke="midnightblue" points="127.582,-184.63 117.171,-186.595 126.535,-191.551 127.582,-184.63"/>
</g>
<!-- Node17 -->
<g id="node18" class="node"><title>Node17</title>
<g id="a_node18"><a xlink:title=" ">
<polygon fill="white" stroke="#bfbfbf" points="448.5,-168.5 448.5,-187.5 483.5,-187.5 483.5,-168.5 448.5,-168.5"/>
<text text-anchor="middle" x="466" y="-175.5" font-family="Helvetica,sans-Serif" font-size="10.00">map</text>
</a>
</g>
</g>
<!-- Node14&#45;&gt;Node17 -->
<g id="edge26" class="edge"><title>Node14&#45;&gt;Node17</title>
<path fill="none" stroke="midnightblue" d="M485.202,-224.083C482.087,-216.77 477.577,-206.181 473.711,-197.103"/>
<polygon fill="midnightblue" stroke="midnightblue" points="476.866,-195.58 469.727,-187.751 470.426,-198.323 476.866,-195.58"/>
</g>
<!-- Node15&#45;&gt;Node4 -->
<g id="edge21" class="edge"><title>Node15&#45;&gt;Node4</title>
<path fill="none" stroke="midnightblue" d="M594,-168.083C594,-161.006 594,-150.861 594,-141.986"/>
<polygon fill="midnightblue" stroke="midnightblue" points="597.5,-141.751 594,-131.751 590.5,-141.751 597.5,-141.751"/>
</g>
<!-- Node16&#45;&gt;Node1 -->
<g id="edge25" class="edge"><title>Node16&#45;&gt;Node1</title>
<path fill="none" stroke="midnightblue" d="M67.2481,-168.083C59.5303,-160.22 48.0953,-148.569 38.7835,-139.081"/>
<polygon fill="midnightblue" stroke="midnightblue" points="41.0916,-136.436 31.589,-131.751 36.0958,-141.34 41.0916,-136.436"/>
</g>
<!-- Node16&#45;&gt;Node10 -->
<g id="edge24" class="edge"><title>Node16&#45;&gt;Node10</title>
<path fill="none" stroke="midnightblue" d="M106.581,-168.444C139.615,-159.201 192.388,-144.436 228.766,-134.257"/>
<polygon fill="midnightblue" stroke="midnightblue" points="229.875,-137.582 238.562,-131.516 227.988,-130.84 229.875,-137.582"/>
</g>
<!-- Node18&#45;&gt;Node4 -->
<g id="edge32" class="edge"><title>Node18&#45;&gt;Node4</title>
<path fill="none" stroke="midnightblue" d="M315.632,-170.27C375.091,-160.173 487.032,-141.164 549.316,-130.588"/>
<polygon fill="midnightblue" stroke="midnightblue" points="549.966,-134.028 559.238,-128.903 548.794,-127.127 549.966,-134.028"/>
</g>
<!-- Node18&#45;&gt;Node10 -->
<g id="edge31" class="edge"><title>Node18&#45;&gt;Node10</title>
<path fill="none" stroke="midnightblue" d="M274.844,-168.083C273.916,-160.927 272.582,-150.635 271.423,-141.691"/>
<polygon fill="midnightblue" stroke="midnightblue" points="274.891,-141.218 270.134,-131.751 267.949,-142.118 274.891,-141.218"/>
</g>
<!-- Node20&#45;&gt;Node4 -->
<g id="edge35" class="edge"><title>Node20&#45;&gt;Node4</title>
<path fill="none" stroke="midnightblue" d="M1093.86,-171.374C981.981,-160.547 738.934,-137.026 638.651,-127.321"/>
<polygon fill="midnightblue" stroke="midnightblue" points="638.843,-123.823 628.552,-126.344 638.169,-130.791 638.843,-123.823"/>
</g>
<!-- Node20&#45;&gt;Node7 -->
<g id="edge36" class="edge"><title>Node20&#45;&gt;Node7</title>
<path fill="none" stroke="midnightblue" d="M1171.65,-168.444C1191.96,-159.596 1223.9,-145.687 1247.1,-135.586"/>
<polygon fill="midnightblue" stroke="midnightblue" points="1248.67,-138.718 1256.44,-131.516 1245.88,-132.3 1248.67,-138.718"/>
</g>
<!-- Node21 -->
<g id="node22" class="node"><title>Node21</title>
<g id="a_node22"><a xlink:title=" ">
<polygon fill="white" stroke="#bfbfbf" points="1131.5,-112.5 1131.5,-131.5 1172.5,-131.5 1172.5,-112.5 1131.5,-112.5"/>
<text text-anchor="middle" x="1152" y="-119.5" font-family="Helvetica,sans-Serif" font-size="10.00">string</text>
</a>
</g>
</g>
<!-- Node20&#45;&gt;Node21 -->
<g id="edge37" class="edge"><title>Node20&#45;&gt;Node21</title>
<path fill="none" stroke="midnightblue" d="M1152,-168.083C1152,-161.006 1152,-150.861 1152,-141.986"/>
<polygon fill="midnightblue" stroke="midnightblue" points="1155.5,-141.751 1152,-131.751 1148.5,-141.751 1155.5,-141.751"/>
</g>
<!-- Node22&#45;&gt;Node7 -->
<g id="edge39" class="edge"><title>Node22&#45;&gt;Node7</title>
<path fill="none" stroke="midnightblue" d="M1741.76,-224.429C1732.4,-209.96 1711.28,-180.998 1685,-168 1627.35,-139.488 1448.45,-128.822 1347.39,-125.003"/>
<polygon fill="midnightblue" stroke="midnightblue" points="1347.38,-121.501 1337.26,-124.633 1347.13,-128.496 1347.38,-121.501"/>
</g>
<!-- Node24 -->
<g id="node25" class="node"><title>Node24</title>
<g id="a_node25"><a xlink:href="dji__hotpoint_8hpp.html" target="_top" xlink:title="Implementation of HotPoint (Point of Interest) Missions for DJI OSDK.">
<polygon fill="white" stroke="black" points="852.5,-224.5 852.5,-243.5 937.5,-243.5 937.5,-224.5 852.5,-224.5"/>
<text text-anchor="middle" x="895" y="-231.5" font-family="Helvetica,sans-Serif" font-size="10.00">dji_hotpoint.hpp</text>
</a>
</g>
</g>
<!-- Node23&#45;&gt;Node24 -->
<g id="edge41" class="edge"><title>Node23&#45;&gt;Node24</title>
<path fill="none" stroke="midnightblue" d="M912.532,-280.083C909.688,-272.77 905.571,-262.181 902.04,-253.103"/>
<polygon fill="midnightblue" stroke="midnightblue" points="905.29,-251.803 898.403,-243.751 898.766,-254.34 905.29,-251.803"/>
</g>
<!-- Node26 -->
<g id="node27" class="node"><title>Node26</title>
<g id="a_node27"><a xlink:href="dji__waypoint_8hpp.html" target="_top" xlink:title="Implementation of GPS Waypoint Missions for DJI OSDK.">
<polygon fill="white" stroke="black" points="706.5,-224.5 706.5,-243.5 795.5,-243.5 795.5,-224.5 706.5,-224.5"/>
<text text-anchor="middle" x="751" y="-231.5" font-family="Helvetica,sans-Serif" font-size="10.00">dji_waypoint.hpp</text>
</a>
</g>
</g>
<!-- Node23&#45;&gt;Node26 -->
<g id="edge47" class="edge"><title>Node23&#45;&gt;Node26</title>
<path fill="none" stroke="midnightblue" d="M889.855,-280.444C861.977,-271.32 817.652,-256.813 786.6,-246.651"/>
<polygon fill="midnightblue" stroke="midnightblue" points="787.615,-243.3 777.022,-243.516 785.438,-249.953 787.615,-243.3"/>
</g>
<!-- Node27 -->
<g id="node28" class="node"><title>Node27</title>
<g id="a_node28"><a xlink:title=" ">
<polygon fill="white" stroke="#bfbfbf" points="956,-224.5 956,-243.5 1000,-243.5 1000,-224.5 956,-224.5"/>
<text text-anchor="middle" x="978" y="-231.5" font-family="Helvetica,sans-Serif" font-size="10.00">vector</text>
</a>
</g>
</g>
<!-- Node23&#45;&gt;Node27 -->
<g id="edge49" class="edge"><title>Node23&#45;&gt;Node27</title>
<path fill="none" stroke="midnightblue" d="M925.961,-280.324C935.127,-272.341 948.937,-260.313 960.028,-250.653"/>
<polygon fill="midnightblue" stroke="midnightblue" points="962.615,-253.041 967.857,-243.834 958.018,-247.762 962.615,-253.041"/>
</g>
<!-- Node24&#45;&gt;Node3 -->
<g id="edge46" class="edge"><title>Node24&#45;&gt;Node3</title>
<path fill="none" stroke="midnightblue" d="M904.479,-224.324C913.201,-216.341 926.343,-204.313 936.898,-194.653"/>
<polygon fill="midnightblue" stroke="midnightblue" points="939.334,-197.167 944.348,-187.834 934.608,-192.004 939.334,-197.167"/>
</g>
<!-- Node25 -->
<g id="node26" class="node"><title>Node25</title>
<g id="a_node26"><a xlink:href="dji__mission__base_8hpp.html" target="_top" xlink:title="Mission&#45;Base abstract class for DJI OSDK library.">
<polygon fill="white" stroke="black" points="742,-168.5 742,-187.5 852,-187.5 852,-168.5 742,-168.5"/>
<text text-anchor="middle" x="797" y="-175.5" font-family="Helvetica,sans-Serif" font-size="10.00">dji_mission_base.hpp</text>
</a>
</g>
</g>
<!-- Node24&#45;&gt;Node25 -->
<g id="edge42" class="edge"><title>Node24&#45;&gt;Node25</title>
<path fill="none" stroke="midnightblue" d="M879.255,-224.324C863.681,-215.743 839.623,-202.486 821.541,-192.522"/>
<polygon fill="midnightblue" stroke="midnightblue" points="823.154,-189.415 812.706,-187.655 819.776,-195.546 823.154,-189.415"/>
</g>
<!-- Node25&#45;&gt;Node4 -->
<g id="edge44" class="edge"><title>Node25&#45;&gt;Node4</title>
<path fill="none" stroke="midnightblue" d="M764.834,-168.444C729.941,-159.162 674.107,-144.309 635.829,-134.127"/>
<polygon fill="midnightblue" stroke="midnightblue" points="636.579,-130.705 626.015,-131.516 634.78,-137.47 636.579,-130.705"/>
</g>
<!-- Node25&#45;&gt;Node7 -->
<g id="edge45" class="edge"><title>Node25&#45;&gt;Node7</title>
<path fill="none" stroke="midnightblue" d="M852.349,-169.68C856.966,-169.1 861.562,-168.533 866,-168 984.635,-153.754 1122.81,-138.961 1204.64,-130.386"/>
<polygon fill="midnightblue" stroke="midnightblue" points="1205.25,-133.842 1214.83,-129.321 1204.52,-126.88 1205.25,-133.842"/>
</g>
<!-- Node25&#45;&gt;Node10 -->
<g id="edge43" class="edge"><title>Node25&#45;&gt;Node10</title>
<path fill="none" stroke="midnightblue" d="M741.989,-171.374C641.25,-161.071 428.129,-139.275 325.96,-128.825"/>
<polygon fill="midnightblue" stroke="midnightblue" points="326.139,-125.326 315.835,-127.79 325.427,-132.289 326.139,-125.326"/>
</g>
<!-- Node26&#45;&gt;Node25 -->
<g id="edge48" class="edge"><title>Node26&#45;&gt;Node25</title>
<path fill="none" stroke="midnightblue" d="M758.596,-224.083C765.227,-216.298 775.021,-204.801 783.058,-195.367"/>
<polygon fill="midnightblue" stroke="midnightblue" points="785.725,-197.633 789.545,-187.751 780.396,-193.094 785.725,-197.633"/>
</g>
<!-- Node28&#45;&gt;Node7 -->
<g id="edge52" class="edge"><title>Node28&#45;&gt;Node7</title>
<path fill="none" stroke="midnightblue" d="M1446.85,-280.385C1443.18,-252.906 1431.93,-169.072 1431,-168 1410.15,-143.93 1377.26,-132.363 1347.13,-126.941"/>
<polygon fill="midnightblue" stroke="midnightblue" points="1347.47,-123.451 1337.04,-125.329 1346.37,-130.363 1347.47,-123.451"/>
</g>
<!-- Node29 -->
<g id="node30" class="node"><title>Node29</title>
<g id="a_node30"><a xlink:title=" ">
<polygon fill="white" stroke="#bfbfbf" points="1451.5,-224.5 1451.5,-243.5 1534.5,-243.5 1534.5,-224.5 1451.5,-224.5"/>
<text text-anchor="middle" x="1493" y="-231.5" font-family="Helvetica,sans-Serif" font-size="10.00">dji_macros.hpp</text>
</a>
</g>
</g>
<!-- Node28&#45;&gt;Node29 -->
<g id="edge51" class="edge"><title>Node28&#45;&gt;Node29</title>
<path fill="none" stroke="midnightblue" d="M1455.43,-280.083C1461.85,-272.377 1471.31,-261.033 1479.12,-251.653"/>
<polygon fill="midnightblue" stroke="midnightblue" points="1481.99,-253.674 1485.71,-243.751 1476.62,-249.193 1481.99,-253.674"/>
</g>
<!-- Node30&#45;&gt;Node7 -->
<g id="edge54" class="edge"><title>Node30&#45;&gt;Node7</title>
<path fill="none" stroke="midnightblue" d="M1298.12,-224.368C1294.24,-206.617 1285.31,-165.666 1280.06,-141.597"/>
<polygon fill="midnightblue" stroke="midnightblue" points="1283.43,-140.615 1277.87,-131.591 1276.59,-142.108 1283.43,-140.615"/>
</g>
<!-- Node33&#45;&gt;Node3 -->
<g id="edge60" class="edge"><title>Node33&#45;&gt;Node3</title>
<path fill="none" stroke="midnightblue" d="M1552.32,-225.004C1549.51,-224.645 1546.72,-224.307 1544,-224 1491.83,-218.106 1146.76,-192.931 1009.84,-183.026"/>
<polygon fill="midnightblue" stroke="midnightblue" points="1009.8,-179.514 999.572,-182.283 1009.29,-186.496 1009.8,-179.514"/>
</g>
<!-- Node33&#45;&gt;Node7 -->
<g id="edge61" class="edge"><title>Node33&#45;&gt;Node7</title>
<path fill="none" stroke="midnightblue" d="M1588.06,-224.312C1562.52,-210.693 1510.57,-184.202 1464,-168 1421.12,-153.082 1371.06,-141.364 1333.38,-133.63"/>
<polygon fill="midnightblue" stroke="midnightblue" points="1333.59,-130.103 1323.1,-131.555 1332.21,-136.964 1333.59,-130.103"/>
</g>
<!-- Node33&#45;&gt;Node8 -->
<g id="edge59" class="edge"><title>Node33&#45;&gt;Node8</title>
<path fill="none" stroke="midnightblue" d="M1592.26,-224.286C1573.8,-210.866 1536.5,-184.922 1502,-168 1379.54,-107.934 1220.01,-82.7533 1131.83,-72.8586"/>
<polygon fill="midnightblue" stroke="midnightblue" points="1132.02,-69.3586 1121.7,-71.754 1131.26,-76.3174 1132.02,-69.3586"/>
</g>
<!-- Node35&#45;&gt;Node3 -->
<g id="edge70" class="edge"><title>Node35&#45;&gt;Node3</title>
<path fill="none" stroke="midnightblue" d="M512.739,-280.474C551.071,-266.959 629.167,-240.464 697,-224 765.504,-207.373 845.695,-194.331 898.048,-186.661"/>
<polygon fill="midnightblue" stroke="midnightblue" points="898.741,-190.097 908.136,-185.199 897.737,-183.169 898.741,-190.097"/>
</g>
<!-- Node35&#45;&gt;Node4 -->
<g id="edge69" class="edge"><title>Node35&#45;&gt;Node4</title>
<path fill="none" stroke="midnightblue" d="M477.694,-280.331C467.861,-272.114 454.105,-258.845 447,-244 432.336,-213.364 418.605,-195.159 439,-168 452.301,-150.288 508.292,-137.29 549.17,-129.939"/>
<polygon fill="midnightblue" stroke="midnightblue" points="549.951,-133.355 559.202,-128.192 548.75,-126.459 549.951,-133.355"/>
</g>
<!-- Node35&#45;&gt;Node8 -->
<g id="edge68" class="edge"><title>Node35&#45;&gt;Node8</title>
<path fill="none" stroke="midnightblue" d="M472.939,-280.379C460.18,-272.629 443.03,-260.012 434,-244 417.316,-214.416 407.577,-196.534 426,-168 458.8,-117.198 491.494,-127.288 550,-112 633.27,-90.241 880.514,-75.862 999.955,-69.9921"/>
<polygon fill="midnightblue" stroke="midnightblue" points="1000.25,-73.4821 1010.07,-69.5006 999.907,-66.4904 1000.25,-73.4821"/>
</g>
<!-- Node35&#45;&gt;Node14 -->
<g id="edge67" class="edge"><title>Node35&#45;&gt;Node14</title>
<path fill="none" stroke="midnightblue" d="M489,-280.083C489,-273.006 489,-262.861 489,-253.986"/>
<polygon fill="midnightblue" stroke="midnightblue" points="492.5,-253.751 489,-243.751 485.5,-253.751 492.5,-253.751"/>
</g>
<!-- Node36&#45;&gt;Node7 -->
<g id="edge72" class="edge"><title>Node36&#45;&gt;Node7</title>
<path fill="none" stroke="midnightblue" d="M1349.02,-168.324C1335.45,-159.9 1314.62,-146.971 1298.68,-137.074"/>
<polygon fill="midnightblue" stroke="midnightblue" points="1300.29,-133.954 1289.94,-131.655 1296.59,-139.902 1300.29,-133.954"/>
</g>
</g>
</svg>
        <g id="navigator" transform="translate(0 0)" fill="#404254">
                <rect fill="#f2f5e9" fill-opacity="0.5" stroke="#606060" stroke-width=".5" x="0" y="0" width="60" height="60"/>
                <use id="zoomplus" xlink:href="#zoomPlus" x="17" y="9" onmousedown="handleZoom(evt,'in')"/>
                <use id="zoomminus" xlink:href="#zoomMin" x="42" y="9" onmousedown="handleZoom(evt,'out')"/>
                <use id="reset" xlink:href="#resetDef" x="30" y="36" onmousedown="handleReset()"/>
                <g id="arrowUp" xlink:href="#dirArrow" transform="translate(30 24)" onmousedown="handlePan(0,-1)">
                  <use xlink:href="#rim" fill="#404040">
                        <set attributeName="fill" to="#808080" begin="arrowUp.mouseover" end="arrowUp.mouseout"/>
                  </use>
                  <path fill="none" stroke="white" stroke-width="1.5" d="M0,-3.0v7 M-2.5,-0.5L0,-3.0L2.5,-0.5"/>
                </g>
                <g id="arrowRight" xlink:href="#dirArrow" transform="rotate(90) translate(36 -43)" onmousedown="handlePan(1,0)">
                  <use xlink:href="#rim" fill="#404040">
                        <set attributeName="fill" to="#808080" begin="arrowRight.mouseover" end="arrowRight.mouseout"/>
                  </use>
                  <path fill="none" stroke="white" stroke-width="1.5" d="M0,-3.0v7 M-2.5,-0.5L0,-3.0L2.5,-0.5"/>
                </g>
                <g id="arrowDown" xlink:href="#dirArrow" transform="rotate(180) translate(-30 -48)" onmousedown="handlePan(0,1)">
                  <use xlink:href="#rim" fill="#404040">
                        <set attributeName="fill" to="#808080" begin="arrowDown.mouseover" end="arrowDown.mouseout"/>
                  </use>
                  <path fill="none" stroke="white" stroke-width="1.5" d="M0,-3.0v7 M-2.5,-0.5L0,-3.0L2.5,-0.5"/>
                </g>
                <g id="arrowLeft" xlink:href="#dirArrow" transform="rotate(270) translate(-36 17)" onmousedown="handlePan(-1,0)">
                  <use xlink:href="#rim" fill="#404040">
                        <set attributeName="fill" to="#808080" begin="arrowLeft.mouseover" end="arrowLeft.mouseout"/>
                  </use>
                  <path fill="none" stroke="white" stroke-width="1.5" d="M0,-3.0v7 M-2.5,-0.5L0,-3.0L2.5,-0.5"/>
                </g>
        </g>
        <svg viewBox="0 0 15 15" width="100%" height="30px" preserveAspectRatio="xMaxYMin meet">
         <g id="arrow_out" transform="scale(0.3 0.3)">
          <a xlink:href="dji__vehicle_8hpp__incl_org.svg" target="_base">
           <rect id="button" ry="5" rx="5" y="6" x="6" height="38" width="38"
                fill="#f2f5e9" fill-opacity="0.5" stroke="#606060" stroke-width="1.0"/>
           <path id="arrow"
             d="M 11.500037,31.436501 C 11.940474,20.09759 22.043105,11.32322 32.158766,21.979434 L 37.068811,17.246167 C 37.068811,17.246167 37.088388,32 37.088388,32 L 22.160133,31.978069 C 22.160133,31.978069 26.997745,27.140456 26.997745,27.140456 C 18.528582,18.264221 13.291696,25.230495 11.500037,31.436501 z"
             style="fill:#404040;"/>
          </a>
         </g>
        </svg>
</svg>
