<?xml version="1.0" encoding="UTF-8" standalone="no"?>
<!DOCTYPE svg PUBLIC "-//W3C//DTD SVG 1.1//EN"
 "http://www.w3.org/Graphics/SVG/1.1/DTD/svg11.dtd">
<!-- Generated by graphviz version 2.40.1 (20161225.0304)
 -->
<!-- Title: osdk&#45;core/api/src/dji_ack.cpp Pages: 1 -->
<!--zoomable 319 -->
<svg id="main" version="1.1" xmlns="http://www.w3.org/2000/svg" xmlns:xlink="http://www.w3.org/1999/xlink" xml:space="preserve" onload="init(evt)">
<style type="text/css"><![CDATA[
.edge:hover path { stroke: red; }
.edge:hover polygon { stroke: red; fill: red; }
]]></style>
<script type="text/javascript"><![CDATA[
var edges = document.getElementsByTagName('g');
if (edges && edges.length) {
  for (var i=0;i<edges.length;i++) {
    if (edges[i].id.substr(0,4)=='edge') {
      edges[i].setAttribute('class','edge');
    }
  }
}
]]></script>
        <defs>
                <circle id="rim" cx="0" cy="0" r="7"/>
                <circle id="rim2" cx="0" cy="0" r="3.5"/>
                <g id="zoomPlus">
                        <use xlink:href="#rim" fill="#404040">
                                <set attributeName="fill" to="#808080" begin="zoomplus.mouseover" end="zoomplus.mouseout"/>
                        </use>
                        <path d="M-4,0h8M0,-4v8" fill="none" stroke="white" stroke-width="1.5" pointer-events="none"/>
                </g>
                <g id="zoomMin">
                        <use xlink:href="#rim" fill="#404040">
                                <set attributeName="fill" to="#808080" begin="zoomminus.mouseover" end="zoomminus.mouseout"/>
                        </use>
                        <path d="M-4,0h8" fill="none" stroke="white" stroke-width="1.5" pointer-events="none"/>
                </g>
                <g id="dirArrow">
                        <path fill="none" stroke="white" stroke-width="1.5" d="M0,-3.0v7 M-2.5,-0.5L0,-3.0L2.5,-0.5"/>
                </g>
               <g id="resetDef">
                       <use xlink:href="#rim2" fill="#404040">
                               <set attributeName="fill" to="#808080" begin="reset.mouseover" end="reset.mouseout"/>
                       </use>
               </g>
        </defs>

<script type="text/javascript">
var viewWidth = 782;
var viewHeight = 319;
var sectionId = 'dynsection-0';
</script>
<script xlink:href="svgpan.js"/>
<svg id="graph" class="graph">
<g id="viewport">
<title>osdk&#45;core/api/src/dji_ack.cpp</title>
<polygon fill="#ffffff" stroke="transparent" points="-4,4 -4,-315 777.5,-315 777.5,4 -4,4"/>
<!-- Node0 -->
<g id="node1" class="node">
<title>Node0</title>
<g id="a_node1"><a xlink:title="All DJI OSDK ACK parsing.">
<polygon fill="#bfbfbf" stroke="#000000" points="435.5,-280.5 435.5,-310.5 539.5,-310.5 539.5,-280.5 435.5,-280.5"/>
<text text-anchor="start" x="443.5" y="-298.5" font-family="Helvetica,sans-Serif" font-size="10.00" fill="#000000">osdk&#45;core/api/src/dji</text>
<text text-anchor="middle" x="487.5" y="-287.5" font-family="Helvetica,sans-Serif" font-size="10.00" fill="#000000">_ack.cpp</text>
</a>
</g>
</g>
<!-- Node1 -->
<g id="node2" class="node">
<title>Node1</title>
<g id="a_node2"><a xlink:href="dji__ack_8hpp.html" target="_top" xlink:title="All DJI OSDK ACK parsing.">
<polygon fill="#ffffff" stroke="#000000" points="175.5,-224.5 175.5,-243.5 241.5,-243.5 241.5,-224.5 175.5,-224.5"/>
<text text-anchor="middle" x="208.5" y="-231.5" font-family="Helvetica,sans-Serif" font-size="10.00" fill="#000000">dji_ack.hpp</text>
</a>
</g>
</g>
<!-- Node0&#45;&gt;Node1 -->
<g id="edge1" class="edge">
<title>Node0&#45;&gt;Node1</title>
<path fill="none" stroke="#191970" d="M435.3495,-284.0045C382.3408,-272.3197 301.175,-254.4283 251.6602,-243.5138"/>
<polygon fill="#191970" stroke="#191970" points="252.1153,-240.0302 241.5963,-241.2954 250.6084,-246.8661 252.1153,-240.0302"/>
</g>
<!-- Node11 -->
<g id="node12" class="node">
<title>Node11</title>
<g id="a_node12"><a xlink:href="dji__log_8hpp.html" target="_top" xlink:title="Logging mechanism for printing status and error messages to the screen.">
<polygon fill="#ffffff" stroke="#000000" points="456,-224.5 456,-243.5 519,-243.5 519,-224.5 456,-224.5"/>
<text text-anchor="middle" x="487.5" y="-231.5" font-family="Helvetica,sans-Serif" font-size="10.00" fill="#000000">dji_log.hpp</text>
</a>
</g>
</g>
<!-- Node0&#45;&gt;Node11 -->
<g id="edge15" class="edge">
<title>Node0&#45;&gt;Node11</title>
<path fill="none" stroke="#191970" d="M487.5,-280.2977C487.5,-272.3834 487.5,-262.6043 487.5,-254.0759"/>
<polygon fill="#191970" stroke="#191970" points="491.0001,-253.8469 487.5,-243.8469 484.0001,-253.847 491.0001,-253.8469"/>
</g>
<!-- Node16 -->
<g id="node17" class="node">
<title>Node16</title>
<g id="a_node17"><a xlink:title=" ">
<polygon fill="#ffffff" stroke="#bfbfbf" points="537,-224.5 537,-243.5 586,-243.5 586,-224.5 537,-224.5"/>
<text text-anchor="middle" x="561.5" y="-231.5" font-family="Helvetica,sans-Serif" font-size="10.00" fill="#000000">string.h</text>
</a>
</g>
</g>
<!-- Node0&#45;&gt;Node16 -->
<g id="edge20" class="edge">
<title>Node0&#45;&gt;Node16</title>
<path fill="none" stroke="#191970" d="M505.7921,-280.2977C516.7061,-271.2274 530.5671,-259.7077 541.7324,-250.4285"/>
<polygon fill="#191970" stroke="#191970" points="544.198,-252.9303 549.6517,-243.8469 539.7238,-247.5468 544.198,-252.9303"/>
</g>
<!-- Node2 -->
<g id="node3" class="node">
<title>Node2</title>
<g id="a_node3"><a xlink:href="dji__command_8hpp.html" target="_top" xlink:title="All DJI OSDK OpenProtocol Command IDs.">
<polygon fill="#ffffff" stroke="#000000" points="181,-112.5 181,-131.5 274,-131.5 274,-112.5 181,-112.5"/>
<text text-anchor="middle" x="227.5" y="-119.5" font-family="Helvetica,sans-Serif" font-size="10.00" fill="#000000">dji_command.hpp</text>
</a>
</g>
</g>
<!-- Node1&#45;&gt;Node2 -->
<g id="edge2" class="edge">
<title>Node1&#45;&gt;Node2</title>
<path fill="none" stroke="#191970" d="M210.1199,-224.4509C213.2188,-206.184 220.0433,-165.9553 224.1584,-141.6976"/>
<polygon fill="#191970" stroke="#191970" points="227.6623,-141.9694 225.8842,-131.5249 220.7609,-140.7986 227.6623,-141.9694"/>
</g>
<!-- Node5 -->
<g id="node6" class="node">
<title>Node5</title>
<g id="a_node6"><a xlink:href="dji__mission__type_8hpp.html" target="_top" xlink:title="Mission related data struct for DJI OSDK library.">
<polygon fill="#ffffff" stroke="#000000" points="53.5,-168.5 53.5,-187.5 161.5,-187.5 161.5,-168.5 53.5,-168.5"/>
<text text-anchor="middle" x="107.5" y="-175.5" font-family="Helvetica,sans-Serif" font-size="10.00" fill="#000000">dji_mission_type.hpp</text>
</a>
</g>
</g>
<!-- Node1&#45;&gt;Node5 -->
<g id="edge6" class="edge">
<title>Node1&#45;&gt;Node5</title>
<path fill="none" stroke="#191970" d="M190.9071,-224.2455C175.121,-215.4928 151.7361,-202.527 133.7413,-192.5496"/>
<polygon fill="#191970" stroke="#191970" points="135.3341,-189.4308 124.8913,-187.6427 131.9397,-195.5528 135.3341,-189.4308"/>
</g>
<!-- Node6 -->
<g id="node7" class="node">
<title>Node6</title>
<g id="a_node7"><a xlink:href="dji__type_8hpp.html" target="_top" xlink:title="Data type and Data Structure definitions for use throughout DJI OSDK.">
<polygon fill="#ffffff" stroke="#000000" points="83,-112.5 83,-131.5 152,-131.5 152,-112.5 83,-112.5"/>
<text text-anchor="middle" x="117.5" y="-119.5" font-family="Helvetica,sans-Serif" font-size="10.00" fill="#000000">dji_type.hpp</text>
</a>
</g>
</g>
<!-- Node1&#45;&gt;Node6 -->
<g id="edge10" class="edge">
<title>Node1&#45;&gt;Node6</title>
<path fill="none" stroke="#191970" d="M204.2347,-224.411C197.9915,-210.9765 185.4662,-186.1632 170.5,-168 161.2994,-156.8341 149.2304,-146.1292 138.9338,-137.8603"/>
<polygon fill="#191970" stroke="#191970" points="140.8442,-134.9119 130.8034,-131.5306 136.544,-140.4355 140.8442,-134.9119"/>
</g>
<!-- Node8 -->
<g id="node9" class="node">
<title>Node8</title>
<g id="a_node9"><a xlink:href="dji__version_8hpp.html" target="_top" xlink:title="Drone/SDK Version definition for DJI onboardSDK library.">
<polygon fill="#ffffff" stroke="#000000" points="255.5,-168.5 255.5,-187.5 337.5,-187.5 337.5,-168.5 255.5,-168.5"/>
<text text-anchor="middle" x="296.5" y="-175.5" font-family="Helvetica,sans-Serif" font-size="10.00" fill="#000000">dji_version.hpp</text>
</a>
</g>
</g>
<!-- Node1&#45;&gt;Node8 -->
<g id="edge11" class="edge">
<title>Node1&#45;&gt;Node8</title>
<path fill="none" stroke="#191970" d="M223.8284,-224.2455C237.3303,-215.6534 257.2122,-203.0014 272.7686,-193.1018"/>
<polygon fill="#191970" stroke="#191970" points="274.7897,-195.9643 281.3472,-187.6427 271.0315,-190.0587 274.7897,-195.9643"/>
</g>
<!-- Node10 -->
<g id="node11" class="node">
<title>Node10</title>
<g id="a_node11"><a xlink:title=" ">
<polygon fill="#ffffff" stroke="#bfbfbf" points="0,-168.5 0,-187.5 35,-187.5 35,-168.5 0,-168.5"/>
<text text-anchor="middle" x="17.5" y="-175.5" font-family="Helvetica,sans-Serif" font-size="10.00" fill="#000000">map</text>
</a>
</g>
</g>
<!-- Node1&#45;&gt;Node10 -->
<g id="edge14" class="edge">
<title>Node1&#45;&gt;Node10</title>
<path fill="none" stroke="#191970" d="M175.2808,-225.5304C143.9979,-217.3683 95.6599,-204.2792 44.9724,-187.9639"/>
<polygon fill="#191970" stroke="#191970" points="45.739,-184.5329 35.1468,-184.7696 43.5747,-191.1899 45.739,-184.5329"/>
</g>
<!-- Node3 -->
<g id="node4" class="node">
<title>Node3</title>
<g id="a_node4"><a xlink:href="dji__error_8hpp.html" target="_top" xlink:title="All DJI OSDK OpenProtocol ACK Error Codes.">
<polygon fill="#ffffff" stroke="#000000" points="175.5,-56.5 175.5,-75.5 245.5,-75.5 245.5,-56.5 175.5,-56.5"/>
<text text-anchor="middle" x="210.5" y="-63.5" font-family="Helvetica,sans-Serif" font-size="10.00" fill="#000000">dji_error.hpp</text>
</a>
</g>
</g>
<!-- Node2&#45;&gt;Node3 -->
<g id="edge3" class="edge">
<title>Node2&#45;&gt;Node3</title>
<path fill="none" stroke="#191970" d="M224.5388,-112.2455C222.2962,-104.8579 219.1423,-94.4689 216.3919,-85.4087"/>
<polygon fill="#191970" stroke="#191970" points="219.6812,-84.1948 213.4272,-75.6427 212.983,-86.2282 219.6812,-84.1948"/>
</g>
<!-- Node4 -->
<g id="node5" class="node">
<title>Node4</title>
<g id="a_node5"><a xlink:title=" ">
<polygon fill="#ffffff" stroke="#bfbfbf" points="186,-.5 186,-19.5 235,-19.5 235,-.5 186,-.5"/>
<text text-anchor="middle" x="210.5" y="-7.5" font-family="Helvetica,sans-Serif" font-size="10.00" fill="#000000">stdint.h</text>
</a>
</g>
</g>
<!-- Node2&#45;&gt;Node4 -->
<g id="edge5" class="edge">
<title>Node2&#45;&gt;Node4</title>
<path fill="none" stroke="#191970" d="M236.5051,-112.1768C247.1657,-99.2977 262.5219,-75.9919 254.5,-56 249.8367,-44.3782 240.6812,-34.0324 231.9238,-26.1099"/>
<polygon fill="#191970" stroke="#191970" points="234.0368,-23.3136 224.1336,-19.5484 229.5273,-28.6675 234.0368,-23.3136"/>
</g>
<!-- Node3&#45;&gt;Node4 -->
<g id="edge4" class="edge">
<title>Node3&#45;&gt;Node4</title>
<path fill="none" stroke="#191970" d="M210.5,-56.2455C210.5,-48.9382 210.5,-38.6944 210.5,-29.7046"/>
<polygon fill="#191970" stroke="#191970" points="214.0001,-29.6426 210.5,-19.6427 207.0001,-29.6427 214.0001,-29.6426"/>
</g>
<!-- Node5&#45;&gt;Node6 -->
<g id="edge7" class="edge">
<title>Node5&#45;&gt;Node6</title>
<path fill="none" stroke="#191970" d="M109.2419,-168.2455C110.5467,-160.9382 112.376,-150.6944 113.9813,-141.7046"/>
<polygon fill="#191970" stroke="#191970" points="117.4656,-142.1022 115.7781,-131.6427 110.5746,-140.8717 117.4656,-142.1022"/>
</g>
<!-- Node6&#45;&gt;Node4 -->
<g id="edge9" class="edge">
<title>Node6&#45;&gt;Node4</title>
<path fill="none" stroke="#191970" d="M111.4388,-112.193C103.8357,-98.4995 93.096,-73.3804 104.5,-56 120.1963,-32.0779 151.3045,-20.5331 175.7797,-14.9994"/>
<polygon fill="#191970" stroke="#191970" points="176.6889,-18.3866 185.7987,-12.9772 175.3039,-11.5249 176.6889,-18.3866"/>
</g>
<!-- Node7 -->
<g id="node8" class="node">
<title>Node7</title>
<g id="a_node8"><a xlink:title=" ">
<polygon fill="#ffffff" stroke="#bfbfbf" points="114,-56.5 114,-75.5 157,-75.5 157,-56.5 114,-56.5"/>
<text text-anchor="middle" x="135.5" y="-63.5" font-family="Helvetica,sans-Serif" font-size="10.00" fill="#000000">cstdio</text>
</a>
</g>
</g>
<!-- Node6&#45;&gt;Node7 -->
<g id="edge8" class="edge">
<title>Node6&#45;&gt;Node7</title>
<path fill="none" stroke="#191970" d="M120.6354,-112.2455C123.01,-104.8579 126.3493,-94.4689 129.2615,-85.4087"/>
<polygon fill="#191970" stroke="#191970" points="132.6725,-86.234 132.4006,-75.6427 126.0083,-84.0919 132.6725,-86.234"/>
</g>
<!-- Node8&#45;&gt;Node2 -->
<g id="edge12" class="edge">
<title>Node8&#45;&gt;Node2</title>
<path fill="none" stroke="#191970" d="M284.4811,-168.2455C274.2902,-159.9746 259.4638,-147.9416 247.4893,-138.2232"/>
<polygon fill="#191970" stroke="#191970" points="249.3514,-135.2268 239.3812,-131.6427 244.9402,-140.662 249.3514,-135.2268"/>
</g>
<!-- Node9 -->
<g id="node10" class="node">
<title>Node9</title>
<g id="a_node10"><a xlink:title=" ">
<polygon fill="#ffffff" stroke="#bfbfbf" points="292.5,-112.5 292.5,-131.5 338.5,-131.5 338.5,-112.5 292.5,-112.5"/>
<text text-anchor="middle" x="315.5" y="-119.5" font-family="Helvetica,sans-Serif" font-size="10.00" fill="#000000">cstdint</text>
</a>
</g>
</g>
<!-- Node8&#45;&gt;Node9 -->
<g id="edge13" class="edge">
<title>Node8&#45;&gt;Node9</title>
<path fill="none" stroke="#191970" d="M299.8095,-168.2455C302.3433,-160.7776 305.9177,-150.2427 309.015,-141.1137"/>
<polygon fill="#191970" stroke="#191970" points="312.3298,-142.237 312.2284,-131.6427 305.7009,-139.9879 312.3298,-142.237"/>
</g>
<!-- Node12 -->
<g id="node13" class="node">
<title>Node12</title>
<g id="a_node13"><a xlink:title=" ">
<polygon fill="#ffffff" stroke="#bfbfbf" points="687.5,-168.5 687.5,-187.5 773.5,-187.5 773.5,-168.5 687.5,-168.5"/>
<text text-anchor="middle" x="730.5" y="-175.5" font-family="Helvetica,sans-Serif" font-size="10.00" fill="#000000">dji_memory.hpp</text>
</a>
</g>
</g>
<!-- Node11&#45;&gt;Node12 -->
<g id="edge16" class="edge">
<title>Node11&#45;&gt;Node12</title>
<path fill="none" stroke="#191970" d="M519.2726,-226.1997C522.389,-225.4499 525.5049,-224.7062 528.5,-224 579.1675,-212.0527 637.111,-198.9111 677.9078,-189.7446"/>
<polygon fill="#191970" stroke="#191970" points="678.9048,-193.108 687.8956,-187.5029 677.3718,-186.2779 678.9048,-193.108"/>
</g>
<!-- Node13 -->
<g id="node14" class="node">
<title>Node13</title>
<g id="a_node14"><a xlink:title=" ">
<polygon fill="#ffffff" stroke="#bfbfbf" points="356,-168.5 356,-187.5 425,-187.5 425,-168.5 356,-168.5"/>
<text text-anchor="middle" x="390.5" y="-175.5" font-family="Helvetica,sans-Serif" font-size="10.00" fill="#000000">dji_type.hpp</text>
</a>
</g>
</g>
<!-- Node11&#45;&gt;Node13 -->
<g id="edge17" class="edge">
<title>Node11&#45;&gt;Node13</title>
<path fill="none" stroke="#191970" d="M470.6039,-224.2455C455.582,-215.5731 433.3957,-202.7645 416.179,-192.825"/>
<polygon fill="#191970" stroke="#191970" points="417.6128,-189.6114 407.2025,-187.6427 414.1129,-195.6737 417.6128,-189.6114"/>
</g>
<!-- Node14 -->
<g id="node15" class="node">
<title>Node14</title>
<g id="a_node15"><a xlink:title=" ">
<polygon fill="#ffffff" stroke="#bfbfbf" points="443,-168.5 443,-187.5 532,-187.5 532,-168.5 443,-168.5"/>
<text text-anchor="middle" x="487.5" y="-175.5" font-family="Helvetica,sans-Serif" font-size="10.00" fill="#000000">dji_singleton.hpp</text>
</a>
</g>
</g>
<!-- Node11&#45;&gt;Node14 -->
<g id="edge18" class="edge">
<title>Node11&#45;&gt;Node14</title>
<path fill="none" stroke="#191970" d="M487.5,-224.2455C487.5,-216.9382 487.5,-206.6944 487.5,-197.7046"/>
<polygon fill="#191970" stroke="#191970" points="491.0001,-197.6426 487.5,-187.6427 484.0001,-197.6427 491.0001,-197.6426"/>
</g>
<!-- Node15 -->
<g id="node16" class="node">
<title>Node15</title>
<g id="a_node16"><a xlink:title=" ">
<polygon fill="#ffffff" stroke="#bfbfbf" points="549.5,-168.5 549.5,-187.5 669.5,-187.5 669.5,-168.5 549.5,-168.5"/>
<text text-anchor="middle" x="609.5" y="-175.5" font-family="Helvetica,sans-Serif" font-size="10.00" fill="#000000">dji_thread_manager.hpp</text>
</a>
</g>
</g>
<!-- Node11&#45;&gt;Node15 -->
<g id="edge19" class="edge">
<title>Node11&#45;&gt;Node15</title>
<path fill="none" stroke="#191970" d="M508.4725,-224.3733C528.0567,-215.3838 557.4961,-201.8706 579.551,-191.7471"/>
<polygon fill="#191970" stroke="#191970" points="581.1729,-194.8538 588.8011,-187.5011 578.2527,-188.4919 581.1729,-194.8538"/>
</g>
</g>
</svg>
        <g id="navigator" transform="translate(0 0)" fill="#404254">
                <rect fill="#f2f5e9" fill-opacity="0.5" stroke="#606060" stroke-width=".5" x="0" y="0" width="60" height="60"/>
                <use id="zoomplus" xlink:href="#zoomPlus" x="17" y="9" onmousedown="handleZoom(evt,'in')"/>
                <use id="zoomminus" xlink:href="#zoomMin" x="42" y="9" onmousedown="handleZoom(evt,'out')"/>
                <use id="reset" xlink:href="#resetDef" x="30" y="36" onmousedown="handleReset()"/>
                <g id="arrowUp" xlink:href="#dirArrow" transform="translate(30 24)" onmousedown="handlePan(0,-1)">
                  <use xlink:href="#rim" fill="#404040">
                        <set attributeName="fill" to="#808080" begin="arrowUp.mouseover" end="arrowUp.mouseout"/>
                  </use>
                  <path fill="none" stroke="white" stroke-width="1.5" d="M0,-3.0v7 M-2.5,-0.5L0,-3.0L2.5,-0.5"/>
                </g>
                <g id="arrowRight" xlink:href="#dirArrow" transform="rotate(90) translate(36 -43)" onmousedown="handlePan(1,0)">
                  <use xlink:href="#rim" fill="#404040">
                        <set attributeName="fill" to="#808080" begin="arrowRight.mouseover" end="arrowRight.mouseout"/>
                  </use>
                  <path fill="none" stroke="white" stroke-width="1.5" d="M0,-3.0v7 M-2.5,-0.5L0,-3.0L2.5,-0.5"/>
                </g>
                <g id="arrowDown" xlink:href="#dirArrow" transform="rotate(180) translate(-30 -48)" onmousedown="handlePan(0,1)">
                  <use xlink:href="#rim" fill="#404040">
                        <set attributeName="fill" to="#808080" begin="arrowDown.mouseover" end="arrowDown.mouseout"/>
                  </use>
                  <path fill="none" stroke="white" stroke-width="1.5" d="M0,-3.0v7 M-2.5,-0.5L0,-3.0L2.5,-0.5"/>
                </g>
                <g id="arrowLeft" xlink:href="#dirArrow" transform="rotate(270) translate(-36 17)" onmousedown="handlePan(-1,0)">
                  <use xlink:href="#rim" fill="#404040">
                        <set attributeName="fill" to="#808080" begin="arrowLeft.mouseover" end="arrowLeft.mouseout"/>
                  </use>
                  <path fill="none" stroke="white" stroke-width="1.5" d="M0,-3.0v7 M-2.5,-0.5L0,-3.0L2.5,-0.5"/>
                </g>
        </g>
        <svg viewBox="0 0 15 15" width="100%" height="30px" preserveAspectRatio="xMaxYMin meet">
         <g id="arrow_out" transform="scale(0.3 0.3)">
          <a xlink:href="dji__ack_8cpp__incl_org.svg" target="_base">
           <rect id="button" ry="5" rx="5" y="6" x="6" height="38" width="38"
                fill="#f2f5e9" fill-opacity="0.5" stroke="#606060" stroke-width="1.0"/>
           <path id="arrow"
             d="M 11.500037,31.436501 C 11.940474,20.09759 22.043105,11.32322 32.158766,21.979434 L 37.068811,17.246167 C 37.068811,17.246167 37.088388,32 37.088388,32 L 22.160133,31.978069 C 22.160133,31.978069 26.997745,27.140456 26.997745,27.140456 C 18.528582,18.264221 13.291696,25.230495 11.500037,31.436501 z"
             style="fill:#404040;"/>
          </a>
         </g>
        </svg>
</svg>
