<?xml version="1.0" encoding="UTF-8" standalone="no"?>
<!DOCTYPE svg PUBLIC "-//W3C//DTD SVG 1.1//EN"
 "http://www.w3.org/Graphics/SVG/1.1/DTD/svg11.dtd">
<!-- Generated by graphviz version 2.40.1 (20161225.0304)
 -->
<!-- Title: osdk&#45;core/api/inc/dji_hardware_sync.hpp Pages: 1 -->
<svg width="320pt" height="151pt"
 viewBox="0.00 0.00 320.00 151.00" xmlns="http://www.w3.org/2000/svg" xmlns:xlink="http://www.w3.org/1999/xlink">
<g id="graph0" class="graph" transform="scale(1 1) rotate(0) translate(4 147)">
<title>osdk&#45;core/api/inc/dji_hardware_sync.hpp</title>
<polygon fill="#ffffff" stroke="transparent" points="-4,4 -4,-147 316,-147 316,4 -4,4"/>
<!-- Node0 -->
<g id="node1" class="node">
<title>Node0</title>
<g id="a_node1"><a xlink:title="Hardware Sync API for DJI OSDK.">
<polygon fill="#bfbfbf" stroke="#000000" points="138,-112.5 138,-142.5 245,-142.5 245,-112.5 138,-112.5"/>
<text text-anchor="start" x="146" y="-130.5" font-family="Helvetica,sans-Serif" font-size="10.00" fill="#000000">osdk&#45;core/api/inc/dji</text>
<text text-anchor="middle" x="191.5" y="-119.5" font-family="Helvetica,sans-Serif" font-size="10.00" fill="#000000">_hardware_sync.hpp</text>
</a>
</g>
</g>
<!-- Node1 -->
<g id="node2" class="node">
<title>Node1</title>
<g id="a_node2"><a xlink:href="dji__type_8hpp.html" target="_top" xlink:title="Data type and Data Structure definitions for use throughout DJI OSDK.">
<polygon fill="#ffffff" stroke="#000000" points="43,-56.5 43,-75.5 112,-75.5 112,-56.5 43,-56.5"/>
<text text-anchor="middle" x="77.5" y="-63.5" font-family="Helvetica,sans-Serif" font-size="10.00" fill="#000000">dji_type.hpp</text>
</a>
</g>
</g>
<!-- Node0&#45;&gt;Node1 -->
<g id="edge1" class="edge">
<title>Node0&#45;&gt;Node1</title>
<path fill="none" stroke="#191970" d="M163.6125,-112.4554C145.5924,-102.734 122.2659,-90.15 104.4368,-80.5317"/>
<polygon fill="#191970" stroke="#191970" points="105.6287,-77.1979 95.166,-75.5303 102.3052,-83.3586 105.6287,-77.1979"/>
</g>
<!-- Node4 -->
<g id="node5" class="node">
<title>Node4</title>
<g id="a_node5"><a xlink:href="dji__vehicle__callback_8hpp.html" target="_top" xlink:title="Type definition for new Vehicle&#45;style callbacks.">
<polygon fill="#ffffff" stroke="#000000" points="130.5,-56.5 130.5,-75.5 252.5,-75.5 252.5,-56.5 130.5,-56.5"/>
<text text-anchor="middle" x="191.5" y="-63.5" font-family="Helvetica,sans-Serif" font-size="10.00" fill="#000000">dji_vehicle_callback.hpp</text>
</a>
</g>
</g>
<!-- Node0&#45;&gt;Node4 -->
<g id="edge4" class="edge">
<title>Node0&#45;&gt;Node4</title>
<path fill="none" stroke="#191970" d="M191.5,-112.2977C191.5,-104.3834 191.5,-94.6043 191.5,-86.0759"/>
<polygon fill="#191970" stroke="#191970" points="195.0001,-85.8469 191.5,-75.8469 188.0001,-85.847 195.0001,-85.8469"/>
</g>
<!-- Node6 -->
<g id="node7" class="node">
<title>Node6</title>
<g id="a_node7"><a xlink:title=" ">
<polygon fill="#ffffff" stroke="#bfbfbf" points="271,-56.5 271,-75.5 312,-75.5 312,-56.5 271,-56.5"/>
<text text-anchor="middle" x="291.5" y="-63.5" font-family="Helvetica,sans-Serif" font-size="10.00" fill="#000000">string</text>
</a>
</g>
</g>
<!-- Node0&#45;&gt;Node6 -->
<g id="edge6" class="edge">
<title>Node0&#45;&gt;Node6</title>
<path fill="none" stroke="#191970" d="M215.9628,-112.4554C231.6235,-102.8241 251.8532,-90.3828 267.4356,-80.7996"/>
<polygon fill="#191970" stroke="#191970" points="269.319,-83.7503 276.0035,-75.5303 265.652,-77.7876 269.319,-83.7503"/>
</g>
<!-- Node2 -->
<g id="node3" class="node">
<title>Node2</title>
<g id="a_node3"><a xlink:title=" ">
<polygon fill="#ffffff" stroke="#bfbfbf" points="0,-.5 0,-19.5 43,-19.5 43,-.5 0,-.5"/>
<text text-anchor="middle" x="21.5" y="-7.5" font-family="Helvetica,sans-Serif" font-size="10.00" fill="#000000">cstdio</text>
</a>
</g>
</g>
<!-- Node1&#45;&gt;Node2 -->
<g id="edge2" class="edge">
<title>Node1&#45;&gt;Node2</title>
<path fill="none" stroke="#191970" d="M67.7455,-56.2455C59.6352,-48.1352 47.9075,-36.4075 38.2919,-26.7919"/>
<polygon fill="#191970" stroke="#191970" points="40.6887,-24.2389 31.1427,-19.6427 35.7389,-29.1887 40.6887,-24.2389"/>
</g>
<!-- Node3 -->
<g id="node4" class="node">
<title>Node3</title>
<g id="a_node4"><a xlink:title=" ">
<polygon fill="#ffffff" stroke="#bfbfbf" points="61,-.5 61,-19.5 110,-19.5 110,-.5 61,-.5"/>
<text text-anchor="middle" x="85.5" y="-7.5" font-family="Helvetica,sans-Serif" font-size="10.00" fill="#000000">stdint.h</text>
</a>
</g>
</g>
<!-- Node1&#45;&gt;Node3 -->
<g id="edge3" class="edge">
<title>Node1&#45;&gt;Node3</title>
<path fill="none" stroke="#191970" d="M78.8935,-56.2455C79.9374,-48.9382 81.4008,-38.6944 82.6851,-29.7046"/>
<polygon fill="#191970" stroke="#191970" points="86.173,-30.0372 84.1225,-19.6427 79.2434,-29.0472 86.173,-30.0372"/>
</g>
<!-- Node5 -->
<g id="node6" class="node">
<title>Node5</title>
<g id="a_node6"><a xlink:title=" ">
<polygon fill="#ffffff" stroke="#bfbfbf" points="136,-.5 136,-19.5 247,-19.5 247,-.5 136,-.5"/>
<text text-anchor="middle" x="191.5" y="-7.5" font-family="Helvetica,sans-Serif" font-size="10.00" fill="#000000">dji_open_protocol.hpp</text>
</a>
</g>
</g>
<!-- Node4&#45;&gt;Node5 -->
<g id="edge5" class="edge">
<title>Node4&#45;&gt;Node5</title>
<path fill="none" stroke="#191970" d="M191.5,-56.2455C191.5,-48.9382 191.5,-38.6944 191.5,-29.7046"/>
<polygon fill="#191970" stroke="#191970" points="195.0001,-29.6426 191.5,-19.6427 188.0001,-29.6427 195.0001,-29.6426"/>
</g>
</g>
</svg>
