<?xml version="1.0" encoding="UTF-8" standalone="no"?>
<!DOCTYPE svg PUBLIC "-//W3C//DTD SVG 1.1//EN"
 "http://www.w3.org/Graphics/SVG/1.1/DTD/svg11.dtd">
<!-- Generated by graphviz version 2.38.0 (20140413.2041)
 -->
<!-- Title: osdk&#45;core/hal/inc/dji_log.hpp Pages: 1 -->
<svg width="426pt" height="95pt"
 viewBox="0.00 0.00 426.00 95.00" xmlns="http://www.w3.org/2000/svg" xmlns:xlink="http://www.w3.org/1999/xlink">
<g id="graph0" class="graph" transform="scale(1 1) rotate(0) translate(4 91)">
<title>osdk&#45;core/hal/inc/dji_log.hpp</title>
<polygon fill="white" stroke="none" points="-4,4 -4,-91 422,-91 422,4 -4,4"/>
<!-- Node0 -->
<g id="node1" class="node"><title>Node0</title>
<g id="a_node1"><a xlink:title="Logging mechanism for printing status and error messages to the screen.">
<polygon fill="#bfbfbf" stroke="black" points="135,-56.5 135,-86.5 239,-86.5 239,-56.5 135,-56.5"/>
<text text-anchor="start" x="143" y="-74.5" font-family="Helvetica,sans-Serif" font-size="10.00">osdk&#45;core/hal/inc/dji</text>
<text text-anchor="middle" x="187" y="-63.5" font-family="Helvetica,sans-Serif" font-size="10.00">_log.hpp</text>
</a>
</g>
</g>
<!-- Node1 -->
<g id="node2" class="node"><title>Node1</title>
<g id="a_node2"><a xlink:title=" ">
<polygon fill="white" stroke="#bfbfbf" points="0,-0.5 0,-19.5 86,-19.5 86,-0.5 0,-0.5"/>
<text text-anchor="middle" x="43" y="-7.5" font-family="Helvetica,sans-Serif" font-size="10.00">dji_memory.hpp</text>
</a>
</g>
</g>
<!-- Node0&#45;&gt;Node1 -->
<g id="edge1" class="edge"><title>Node0&#45;&gt;Node1</title>
<path fill="none" stroke="midnightblue" d="M152.874,-56.3993C128.713,-46.4163 96.5983,-33.1465 73.3332,-23.5335"/>
<polygon fill="midnightblue" stroke="midnightblue" points="74.532,-20.2419 63.9533,-19.6578 71.8588,-26.7114 74.532,-20.2419"/>
</g>
<!-- Node2 -->
<g id="node3" class="node"><title>Node2</title>
<g id="a_node3"><a xlink:title=" ">
<polygon fill="white" stroke="#bfbfbf" points="104.5,-0.5 104.5,-19.5 173.5,-19.5 173.5,-0.5 104.5,-0.5"/>
<text text-anchor="middle" x="139" y="-7.5" font-family="Helvetica,sans-Serif" font-size="10.00">dji_type.hpp</text>
</a>
</g>
</g>
<!-- Node0&#45;&gt;Node2 -->
<g id="edge2" class="edge"><title>Node0&#45;&gt;Node2</title>
<path fill="none" stroke="midnightblue" d="M175.625,-56.3993C168.65,-47.7533 159.686,-36.642 152.372,-27.576"/>
<polygon fill="midnightblue" stroke="midnightblue" points="154.987,-25.2433 145.984,-19.6578 149.539,-29.6385 154.987,-25.2433"/>
</g>
<!-- Node3 -->
<g id="node4" class="node"><title>Node3</title>
<g id="a_node4"><a xlink:title=" ">
<polygon fill="white" stroke="#bfbfbf" points="191.5,-0.5 191.5,-19.5 280.5,-19.5 280.5,-0.5 191.5,-0.5"/>
<text text-anchor="middle" x="236" y="-7.5" font-family="Helvetica,sans-Serif" font-size="10.00">dji_singleton.hpp</text>
</a>
</g>
</g>
<!-- Node0&#45;&gt;Node3 -->
<g id="edge3" class="edge"><title>Node0&#45;&gt;Node3</title>
<path fill="none" stroke="midnightblue" d="M198.612,-56.3993C205.733,-47.7533 214.883,-36.642 222.349,-27.576"/>
<polygon fill="midnightblue" stroke="midnightblue" points="225.215,-29.6021 228.87,-19.6578 219.811,-25.1521 225.215,-29.6021"/>
</g>
<!-- Node4 -->
<g id="node5" class="node"><title>Node4</title>
<g id="a_node5"><a xlink:title=" ">
<polygon fill="white" stroke="#bfbfbf" points="298,-0.5 298,-19.5 418,-19.5 418,-0.5 298,-0.5"/>
<text text-anchor="middle" x="358" y="-7.5" font-family="Helvetica,sans-Serif" font-size="10.00">dji_thread_manager.hpp</text>
</a>
</g>
</g>
<!-- Node0&#45;&gt;Node4 -->
<g id="edge4" class="edge"><title>Node0&#45;&gt;Node4</title>
<path fill="none" stroke="midnightblue" d="M227.525,-56.3993C256.728,-46.238 295.717,-32.6716 323.449,-23.0221"/>
<polygon fill="midnightblue" stroke="midnightblue" points="324.824,-26.2497 333.118,-19.6578 322.523,-19.6385 324.824,-26.2497"/>
</g>
</g>
</svg>
