<?xml version="1.0" encoding="UTF-8" standalone="no"?>
<!DOCTYPE svg PUBLIC "-//W3C//DTD SVG 1.1//EN"
 "http://www.w3.org/Graphics/SVG/1.1/DTD/svg11.dtd">
<!-- Generated by graphviz version 2.38.0 (20140413.2041)
 -->
<!-- Title: osdk&#45;core/api/inc/dji_broadcast.hpp Pages: 1 -->
<svg width="248pt" height="207pt"
 viewBox="0.00 0.00 247.50 207.00" xmlns="http://www.w3.org/2000/svg" xmlns:xlink="http://www.w3.org/1999/xlink">
<g id="graph0" class="graph" transform="scale(1 1) rotate(0) translate(4 203)">
<title>osdk&#45;core/api/inc/dji_broadcast.hpp</title>
<polygon fill="white" stroke="none" points="-4,4 -4,-203 243.5,-203 243.5,4 -4,4"/>
<!-- Node1 -->
<g id="node1" class="node"><title>Node1</title>
<polygon fill="#bfbfbf" stroke="black" points="63.5,-168.5 63.5,-198.5 167.5,-198.5 167.5,-168.5 63.5,-168.5"/>
<text text-anchor="start" x="71.5" y="-186.5" font-family="Helvetica,sans-Serif" font-size="10.00">osdk&#45;core/api/inc/dji</text>
<text text-anchor="middle" x="115.5" y="-175.5" font-family="Helvetica,sans-Serif" font-size="10.00">_broadcast.hpp</text>
</g>
<!-- Node2 -->
<g id="node2" class="node"><title>Node2</title>
<g id="a_node2"><a xlink:href="dji__telemetry_8hpp.html" target="_top" xlink:title="Enumeration of all telemetry data types, structures and maps. ">
<polygon fill="white" stroke="black" points="8,-112.5 8,-131.5 99,-131.5 99,-112.5 8,-112.5"/>
<text text-anchor="middle" x="53.5" y="-119.5" font-family="Helvetica,sans-Serif" font-size="10.00">dji_telemetry.hpp</text>
</a>
</g>
</g>
<!-- Node1&#45;&gt;Node2 -->
<g id="edge1" class="edge"><title>Node1&#45;&gt;Node2</title>
<path fill="none" stroke="midnightblue" d="M100.807,-168.399C91.5189,-159.486 79.5007,-147.952 69.9022,-138.741"/>
<polygon fill="midnightblue" stroke="midnightblue" points="72.1601,-136.057 62.5215,-131.658 67.3132,-141.107 72.1601,-136.057"/>
</g>
<!-- Node6 -->
<g id="node6" class="node"><title>Node6</title>
<g id="a_node6"><a xlink:href="dji__vehicle__callback_8hpp.html" target="_top" xlink:title="Type definition for new Vehicle&#45;style callbacks. ">
<polygon fill="white" stroke="black" points="117.5,-112.5 117.5,-131.5 239.5,-131.5 239.5,-112.5 117.5,-112.5"/>
<text text-anchor="middle" x="178.5" y="-119.5" font-family="Helvetica,sans-Serif" font-size="10.00">dji_vehicle_callback.hpp</text>
</a>
</g>
</g>
<!-- Node1&#45;&gt;Node6 -->
<g id="edge5" class="edge"><title>Node1&#45;&gt;Node6</title>
<path fill="none" stroke="midnightblue" d="M130.43,-168.399C139.868,-159.486 152.08,-147.952 161.833,-138.741"/>
<polygon fill="midnightblue" stroke="midnightblue" points="164.466,-141.069 169.333,-131.658 159.66,-135.979 164.466,-141.069"/>
</g>
<!-- Node3 -->
<g id="node3" class="node"><title>Node3</title>
<g id="a_node3"><a xlink:href="dji__type_8hpp.html" target="_top" xlink:title="Data type and Data Structure definitions for use throughout DJI OSDK. ">
<polygon fill="white" stroke="black" points="19,-56.5 19,-75.5 88,-75.5 88,-56.5 19,-56.5"/>
<text text-anchor="middle" x="53.5" y="-63.5" font-family="Helvetica,sans-Serif" font-size="10.00">dji_type.hpp</text>
</a>
</g>
</g>
<!-- Node2&#45;&gt;Node3 -->
<g id="edge2" class="edge"><title>Node2&#45;&gt;Node3</title>
<path fill="none" stroke="midnightblue" d="M53.5,-112.083C53.5,-105.006 53.5,-94.8611 53.5,-85.9865"/>
<polygon fill="midnightblue" stroke="midnightblue" points="57.0001,-85.751 53.5,-75.7511 50.0001,-85.7511 57.0001,-85.751"/>
</g>
<!-- Node4 -->
<g id="node4" class="node"><title>Node4</title>
<polygon fill="white" stroke="#bfbfbf" points="0,-0.5 0,-19.5 43,-19.5 43,-0.5 0,-0.5"/>
<text text-anchor="middle" x="21.5" y="-7.5" font-family="Helvetica,sans-Serif" font-size="10.00">cstdio</text>
</g>
<!-- Node3&#45;&gt;Node4 -->
<g id="edge3" class="edge"><title>Node3&#45;&gt;Node4</title>
<path fill="none" stroke="midnightblue" d="M48.2159,-56.083C43.789,-48.6127 37.3367,-37.7244 31.8821,-28.5199"/>
<polygon fill="midnightblue" stroke="midnightblue" points="34.7949,-26.5697 26.6858,-19.7511 28.7729,-30.1383 34.7949,-26.5697"/>
</g>
<!-- Node5 -->
<g id="node5" class="node"><title>Node5</title>
<polygon fill="white" stroke="#bfbfbf" points="61,-0.5 61,-19.5 110,-19.5 110,-0.5 61,-0.5"/>
<text text-anchor="middle" x="85.5" y="-7.5" font-family="Helvetica,sans-Serif" font-size="10.00">stdint.h</text>
</g>
<!-- Node3&#45;&gt;Node5 -->
<g id="edge4" class="edge"><title>Node3&#45;&gt;Node5</title>
<path fill="none" stroke="midnightblue" d="M58.7841,-56.083C63.211,-48.6127 69.6633,-37.7244 75.1179,-28.5199"/>
<polygon fill="midnightblue" stroke="midnightblue" points="78.2271,-30.1383 80.3142,-19.7511 72.2051,-26.5697 78.2271,-30.1383"/>
</g>
<!-- Node7 -->
<g id="node7" class="node"><title>Node7</title>
<polygon fill="white" stroke="#bfbfbf" points="123,-56.5 123,-75.5 234,-75.5 234,-56.5 123,-56.5"/>
<text text-anchor="middle" x="178.5" y="-63.5" font-family="Helvetica,sans-Serif" font-size="10.00">dji_open_protocol.hpp</text>
</g>
<!-- Node6&#45;&gt;Node7 -->
<g id="edge6" class="edge"><title>Node6&#45;&gt;Node7</title>
<path fill="none" stroke="midnightblue" d="M178.5,-112.083C178.5,-105.006 178.5,-94.8611 178.5,-85.9865"/>
<polygon fill="midnightblue" stroke="midnightblue" points="182,-85.751 178.5,-75.7511 175,-85.7511 182,-85.751"/>
</g>
</g>
</svg>
