<?xml version="1.0" encoding="UTF-8" standalone="no"?>
<!DOCTYPE svg PUBLIC "-//W3C//DTD SVG 1.1//EN"
 "http://www.w3.org/Graphics/SVG/1.1/DTD/svg11.dtd">
<!-- Generated by graphviz version 2.40.1 (20161225.0304)
 -->
<!-- Title: osdk&#45;core/api/inc/dji_gimbal.hpp Pages: 1 -->
<svg width="254pt" height="207pt"
 viewBox="0.00 0.00 253.50 207.00" xmlns="http://www.w3.org/2000/svg" xmlns:xlink="http://www.w3.org/1999/xlink">
<g id="graph0" class="graph" transform="scale(1 1) rotate(0) translate(4 203)">
<title>osdk&#45;core/api/inc/dji_gimbal.hpp</title>
<polygon fill="#ffffff" stroke="transparent" points="-4,4 -4,-203 249.5,-203 249.5,4 -4,4"/>
<!-- Node0 -->
<g id="node1" class="node">
<title>Node0</title>
<g id="a_node1"><a xlink:title="Gimbal API for OSDK library.">
<polygon fill="#bfbfbf" stroke="#000000" points="100,-168.5 100,-198.5 204,-198.5 204,-168.5 100,-168.5"/>
<text text-anchor="start" x="108" y="-186.5" font-family="Helvetica,sans-Serif" font-size="10.00" fill="#000000">osdk&#45;core/api/inc/dji</text>
<text text-anchor="middle" x="152" y="-175.5" font-family="Helvetica,sans-Serif" font-size="10.00" fill="#000000">_gimbal.hpp</text>
</a>
</g>
</g>
<!-- Node1 -->
<g id="node2" class="node">
<title>Node1</title>
<g id="a_node2"><a xlink:href="dji__command_8hpp.html" target="_top" xlink:title="All DJI OSDK OpenProtocol Command IDs.">
<polygon fill="#ffffff" stroke="#000000" points="56.5,-112.5 56.5,-131.5 149.5,-131.5 149.5,-112.5 56.5,-112.5"/>
<text text-anchor="middle" x="103" y="-119.5" font-family="Helvetica,sans-Serif" font-size="10.00" fill="#000000">dji_command.hpp</text>
</a>
</g>
</g>
<!-- Node0&#45;&gt;Node1 -->
<g id="edge1" class="edge">
<title>Node0&#45;&gt;Node1</title>
<path fill="none" stroke="#191970" d="M139.8876,-168.2977C133.0151,-159.672 124.3777,-148.8312 117.189,-139.8087"/>
<polygon fill="#191970" stroke="#191970" points="119.8144,-137.487 110.8455,-131.8469 114.3396,-141.849 119.8144,-137.487"/>
</g>
<!-- Node7 -->
<g id="node8" class="node">
<title>Node7</title>
<g id="a_node8"><a xlink:href="dji__type_8hpp.html" target="_top" xlink:title="Data type and Data Structure definitions for use throughout DJI OSDK.">
<polygon fill="#ffffff" stroke="#000000" points="167.5,-112.5 167.5,-131.5 236.5,-131.5 236.5,-112.5 167.5,-112.5"/>
<text text-anchor="middle" x="202" y="-119.5" font-family="Helvetica,sans-Serif" font-size="10.00" fill="#000000">dji_type.hpp</text>
</a>
</g>
</g>
<!-- Node0&#45;&gt;Node7 -->
<g id="edge7" class="edge">
<title>Node0&#45;&gt;Node7</title>
<path fill="none" stroke="#191970" d="M164.3596,-168.2977C171.3724,-159.672 180.186,-148.8312 187.5214,-139.8087"/>
<polygon fill="#191970" stroke="#191970" points="190.4018,-141.8141 193.9944,-131.8469 184.9703,-137.3982 190.4018,-141.8141"/>
</g>
<!-- Node2 -->
<g id="node3" class="node">
<title>Node2</title>
<g id="a_node3"><a xlink:href="dji__error_8hpp.html" target="_top" xlink:title="All DJI OSDK OpenProtocol ACK Error Codes.">
<polygon fill="#ffffff" stroke="#000000" points="47,-56.5 47,-75.5 117,-75.5 117,-56.5 47,-56.5"/>
<text text-anchor="middle" x="82" y="-63.5" font-family="Helvetica,sans-Serif" font-size="10.00" fill="#000000">dji_error.hpp</text>
</a>
</g>
</g>
<!-- Node1&#45;&gt;Node2 -->
<g id="edge2" class="edge">
<title>Node1&#45;&gt;Node2</title>
<path fill="none" stroke="#191970" d="M99.3421,-112.2455C96.5416,-104.7776 92.591,-94.2427 89.1676,-85.1137"/>
<polygon fill="#191970" stroke="#191970" points="92.4045,-83.777 85.616,-75.6427 85.8501,-86.2349 92.4045,-83.777"/>
</g>
<!-- Node6 -->
<g id="node7" class="node">
<title>Node6</title>
<g id="a_node7"><a xlink:title=" ">
<polygon fill="#ffffff" stroke="#bfbfbf" points="135.5,-56.5 135.5,-75.5 184.5,-75.5 184.5,-56.5 135.5,-56.5"/>
<text text-anchor="middle" x="160" y="-63.5" font-family="Helvetica,sans-Serif" font-size="10.00" fill="#000000">stdint.h</text>
</a>
</g>
</g>
<!-- Node1&#45;&gt;Node6 -->
<g id="edge6" class="edge">
<title>Node1&#45;&gt;Node6</title>
<path fill="none" stroke="#191970" d="M112.9286,-112.2455C121.1838,-104.1352 133.1209,-92.4075 142.9082,-82.7919"/>
<polygon fill="#191970" stroke="#191970" points="145.5046,-85.1476 150.1851,-75.6427 140.5989,-80.1542 145.5046,-85.1476"/>
</g>
<!-- Node3 -->
<g id="node4" class="node">
<title>Node3</title>
<g id="a_node4"><a xlink:title=" ">
<polygon fill="#ffffff" stroke="#bfbfbf" points="0,-.5 0,-19.5 46,-19.5 46,-.5 0,-.5"/>
<text text-anchor="middle" x="23" y="-7.5" font-family="Helvetica,sans-Serif" font-size="10.00" fill="#000000">cstdint</text>
</a>
</g>
</g>
<!-- Node2&#45;&gt;Node3 -->
<g id="edge3" class="edge">
<title>Node2&#45;&gt;Node3</title>
<path fill="none" stroke="#191970" d="M71.723,-56.2455C63.1782,-48.1352 50.8222,-36.4075 40.6915,-26.7919"/>
<polygon fill="#191970" stroke="#191970" points="42.8218,-23.9884 33.1592,-19.6427 38.0028,-29.0655 42.8218,-23.9884"/>
</g>
<!-- Node4 -->
<g id="node5" class="node">
<title>Node4</title>
<g id="a_node5"><a xlink:title=" ">
<polygon fill="#ffffff" stroke="#bfbfbf" points="64.5,-.5 64.5,-19.5 99.5,-19.5 99.5,-.5 64.5,-.5"/>
<text text-anchor="middle" x="82" y="-7.5" font-family="Helvetica,sans-Serif" font-size="10.00" fill="#000000">map</text>
</a>
</g>
</g>
<!-- Node2&#45;&gt;Node4 -->
<g id="edge4" class="edge">
<title>Node2&#45;&gt;Node4</title>
<path fill="none" stroke="#191970" d="M82,-56.2455C82,-48.9382 82,-38.6944 82,-29.7046"/>
<polygon fill="#191970" stroke="#191970" points="85.5001,-29.6426 82,-19.6427 78.5001,-29.6427 85.5001,-29.6426"/>
</g>
<!-- Node5 -->
<g id="node6" class="node">
<title>Node5</title>
<g id="a_node6"><a xlink:title=" ">
<polygon fill="#ffffff" stroke="#bfbfbf" points="117.5,-.5 117.5,-19.5 200.5,-19.5 200.5,-.5 117.5,-.5"/>
<text text-anchor="middle" x="159" y="-7.5" font-family="Helvetica,sans-Serif" font-size="10.00" fill="#000000">osdk_typedef.h</text>
</a>
</g>
</g>
<!-- Node2&#45;&gt;Node5 -->
<g id="edge5" class="edge">
<title>Node2&#45;&gt;Node5</title>
<path fill="none" stroke="#191970" d="M95.4124,-56.2455C107.0057,-47.814 123.9748,-35.4729 137.4678,-25.6598"/>
<polygon fill="#191970" stroke="#191970" points="139.7126,-28.355 145.7413,-19.6427 135.5953,-22.6938 139.7126,-28.355"/>
</g>
<!-- Node7&#45;&gt;Node6 -->
<g id="edge9" class="edge">
<title>Node7&#45;&gt;Node6</title>
<path fill="none" stroke="#191970" d="M194.6842,-112.2455C188.7821,-104.3761 180.3258,-93.101 173.2406,-83.6542"/>
<polygon fill="#191970" stroke="#191970" points="176.0321,-81.5427 167.232,-75.6427 170.432,-85.7427 176.0321,-81.5427"/>
</g>
<!-- Node8 -->
<g id="node9" class="node">
<title>Node8</title>
<g id="a_node9"><a xlink:title=" ">
<polygon fill="#ffffff" stroke="#bfbfbf" points="202.5,-56.5 202.5,-75.5 245.5,-75.5 245.5,-56.5 202.5,-56.5"/>
<text text-anchor="middle" x="224" y="-63.5" font-family="Helvetica,sans-Serif" font-size="10.00" fill="#000000">cstdio</text>
</a>
</g>
</g>
<!-- Node7&#45;&gt;Node8 -->
<g id="edge8" class="edge">
<title>Node7&#45;&gt;Node8</title>
<path fill="none" stroke="#191970" d="M205.8321,-112.2455C208.7659,-104.7776 212.9047,-94.2427 216.491,-85.1137"/>
<polygon fill="#191970" stroke="#191970" points="219.8129,-86.23 220.2118,-75.6427 213.2976,-83.6704 219.8129,-86.23"/>
</g>
</g>
</svg>
