<?xml version="1.0" encoding="UTF-8" standalone="no"?>
<!DOCTYPE svg PUBLIC "-//W3C//DTD SVG 1.1//EN"
 "http://www.w3.org/Graphics/SVG/1.1/DTD/svg11.dtd">
<!-- Generated by graphviz version 2.40.1 (20161225.0304)
 -->
<!-- Title: osdk&#45;core/api/inc/dji_mission_type.hpp Pages: 1 -->
<svg width="118pt" height="151pt"
 viewBox="0.00 0.00 118.00 151.00" xmlns="http://www.w3.org/2000/svg" xmlns:xlink="http://www.w3.org/1999/xlink">
<g id="graph0" class="graph" transform="scale(1 1) rotate(0) translate(4 147)">
<title>osdk&#45;core/api/inc/dji_mission_type.hpp</title>
<polygon fill="#ffffff" stroke="transparent" points="-4,4 -4,-147 114,-147 114,4 -4,4"/>
<!-- Node0 -->
<g id="node1" class="node">
<title>Node0</title>
<g id="a_node1"><a xlink:title="Mission related data struct for DJI OSDK library.">
<polygon fill="#bfbfbf" stroke="#000000" points="1.5,-112.5 1.5,-142.5 105.5,-142.5 105.5,-112.5 1.5,-112.5"/>
<text text-anchor="start" x="9.5" y="-130.5" font-family="Helvetica,sans-Serif" font-size="10.00" fill="#000000">osdk&#45;core/api/inc/dji</text>
<text text-anchor="middle" x="53.5" y="-119.5" font-family="Helvetica,sans-Serif" font-size="10.00" fill="#000000">_mission_type.hpp</text>
</a>
</g>
</g>
<!-- Node1 -->
<g id="node2" class="node">
<title>Node1</title>
<g id="a_node2"><a xlink:href="dji__type_8hpp.html" target="_top" xlink:title="Data type and Data Structure definitions for use throughout DJI OSDK.">
<polygon fill="#ffffff" stroke="#000000" points="19,-56.5 19,-75.5 88,-75.5 88,-56.5 19,-56.5"/>
<text text-anchor="middle" x="53.5" y="-63.5" font-family="Helvetica,sans-Serif" font-size="10.00" fill="#000000">dji_type.hpp</text>
</a>
</g>
</g>
<!-- Node0&#45;&gt;Node1 -->
<g id="edge1" class="edge">
<title>Node0&#45;&gt;Node1</title>
<path fill="none" stroke="#191970" d="M53.5,-112.2977C53.5,-104.3834 53.5,-94.6043 53.5,-86.0759"/>
<polygon fill="#191970" stroke="#191970" points="57.0001,-85.8469 53.5,-75.8469 50.0001,-85.847 57.0001,-85.8469"/>
</g>
<!-- Node2 -->
<g id="node3" class="node">
<title>Node2</title>
<g id="a_node3"><a xlink:title=" ">
<polygon fill="#ffffff" stroke="#bfbfbf" points="0,-.5 0,-19.5 43,-19.5 43,-.5 0,-.5"/>
<text text-anchor="middle" x="21.5" y="-7.5" font-family="Helvetica,sans-Serif" font-size="10.00" fill="#000000">cstdio</text>
</a>
</g>
</g>
<!-- Node1&#45;&gt;Node2 -->
<g id="edge2" class="edge">
<title>Node1&#45;&gt;Node2</title>
<path fill="none" stroke="#191970" d="M47.926,-56.2455C43.5669,-48.617 37.3789,-37.7881 32.0867,-28.5267"/>
<polygon fill="#191970" stroke="#191970" points="35.0104,-26.5886 27.0101,-19.6427 28.9327,-30.0616 35.0104,-26.5886"/>
</g>
<!-- Node3 -->
<g id="node4" class="node">
<title>Node3</title>
<g id="a_node4"><a xlink:title=" ">
<polygon fill="#ffffff" stroke="#bfbfbf" points="61,-.5 61,-19.5 110,-19.5 110,-.5 61,-.5"/>
<text text-anchor="middle" x="85.5" y="-7.5" font-family="Helvetica,sans-Serif" font-size="10.00" fill="#000000">stdint.h</text>
</a>
</g>
</g>
<!-- Node1&#45;&gt;Node3 -->
<g id="edge3" class="edge">
<title>Node1&#45;&gt;Node3</title>
<path fill="none" stroke="#191970" d="M59.074,-56.2455C63.4331,-48.617 69.6211,-37.7881 74.9133,-28.5267"/>
<polygon fill="#191970" stroke="#191970" points="78.0673,-30.0616 79.9899,-19.6427 71.9896,-26.5886 78.0673,-30.0616"/>
</g>
</g>
</svg>
