<?xml version="1.0" encoding="UTF-8" standalone="no"?>
<!DOCTYPE svg PUBLIC "-//W3C//DTD SVG 1.1//EN"
 "http://www.w3.org/Graphics/SVG/1.1/DTD/svg11.dtd">
<!-- Generated by graphviz version 2.38.0 (20140413.2041)
 -->
<!-- Title: osdk&#45;core/api/src/dji_waypoint.cpp Pages: 1 -->
<!--zoomable 431 -->
<svg id="main" version="1.1" xmlns="http://www.w3.org/2000/svg" xmlns:xlink="http://www.w3.org/1999/xlink" xml:space="preserve" onload="init(evt)">
<style type="text/css"><![CDATA[
.edge:hover path { stroke: red; }
.edge:hover polygon { stroke: red; fill: red; }
]]></style>
<script type="text/javascript"><![CDATA[
var edges = document.getElementsByTagName('g');
if (edges && edges.length) {
  for (var i=0;i<edges.length;i++) {
    if (edges[i].id.substr(0,4)=='edge') {
      edges[i].setAttribute('class','edge');
    }
  }
}
]]></script>
        <defs>
                <circle id="rim" cx="0" cy="0" r="7"/>
                <circle id="rim2" cx="0" cy="0" r="3.5"/>
                <g id="zoomPlus">
                        <use xlink:href="#rim" fill="#404040">
                                <set attributeName="fill" to="#808080" begin="zoomplus.mouseover" end="zoomplus.mouseout"/>
                        </use>
                        <path d="M-4,0h8M0,-4v8" fill="none" stroke="white" stroke-width="1.5" pointer-events="none"/>
                </g>
                <g id="zoomMin">
                        <use xlink:href="#rim" fill="#404040">
                                <set attributeName="fill" to="#808080" begin="zoomminus.mouseover" end="zoomminus.mouseout"/>
                        </use>
                        <path d="M-4,0h8" fill="none" stroke="white" stroke-width="1.5" pointer-events="none"/>
                </g>
                <g id="dirArrow">
                        <path fill="none" stroke="white" stroke-width="1.5" d="M0,-3.0v7 M-2.5,-0.5L0,-3.0L2.5,-0.5"/>
                </g>
               <g id="resetDef">
                       <use xlink:href="#rim2" fill="#404040">
                               <set attributeName="fill" to="#808080" begin="reset.mouseover" end="reset.mouseout"/>
                       </use>
               </g>
        </defs>

<script type="text/javascript">
var viewWidth = 1508;
var viewHeight = 431;
var sectionId = 'dynsection-0';
</script>
<script xlink:href="svgpan.js"/>
<svg id="graph" class="graph">
<g id="viewport">
<title>osdk&#45;core/api/src/dji_waypoint.cpp</title>
<polygon fill="white" stroke="none" points="-4,4 -4,-427 1503.81,-427 1503.81,4 -4,4"/>
<!-- Node1 -->
<g id="node1" class="node"><title>Node1</title>
<polygon fill="#bfbfbf" stroke="black" points="1373,-392.5 1373,-422.5 1477,-422.5 1477,-392.5 1373,-392.5"/>
<text text-anchor="start" x="1381" y="-410.5" font-family="Helvetica,sans-Serif" font-size="10.00">osdk&#45;core/api/src/dji</text>
<text text-anchor="middle" x="1425" y="-399.5" font-family="Helvetica,sans-Serif" font-size="10.00">_waypoint.cpp</text>
</g>
<!-- Node2 -->
<g id="node2" class="node"><title>Node2</title>
<g id="a_node2"><a xlink:href="dji__waypoint_8hpp.html" target="_top" xlink:title="Implementation of GPS Waypoint Missions for DJI OSDK. ">
<polygon fill="white" stroke="black" points="1380.5,-224.5 1380.5,-243.5 1469.5,-243.5 1469.5,-224.5 1380.5,-224.5"/>
<text text-anchor="middle" x="1425" y="-231.5" font-family="Helvetica,sans-Serif" font-size="10.00">dji_waypoint.hpp</text>
</a>
</g>
</g>
<!-- Node1&#45;&gt;Node2 -->
<g id="edge1" class="edge"><title>Node1&#45;&gt;Node2</title>
<path fill="none" stroke="midnightblue" d="M1438.63,-392.477C1456.12,-373.4 1485.56,-337.345 1497,-300 1499.6,-291.501 1501.31,-287.775 1497,-280 1488.91,-265.405 1473.9,-254.918 1459.66,-247.761"/>
<polygon fill="midnightblue" stroke="midnightblue" points="1461.05,-244.546 1450.5,-243.528 1458.11,-250.9 1461.05,-244.546"/>
</g>
<!-- Node11 -->
<g id="node11" class="node"><title>Node11</title>
<g id="a_node11"><a xlink:href="dji__mission__manager_8hpp.html" target="_top" xlink:title="Mission&#45;Manager API for DJI OSDK library. ">
<polygon fill="white" stroke="black" points="1361.5,-280.5 1361.5,-299.5 1488.5,-299.5 1488.5,-280.5 1361.5,-280.5"/>
<text text-anchor="middle" x="1425" y="-287.5" font-family="Helvetica,sans-Serif" font-size="10.00">dji_mission_manager.hpp</text>
</a>
</g>
</g>
<!-- Node1&#45;&gt;Node11 -->
<g id="edge12" class="edge"><title>Node1&#45;&gt;Node11</title>
<path fill="none" stroke="midnightblue" d="M1425,-392.337C1425,-371.622 1425,-333.016 1425,-309.899"/>
<polygon fill="midnightblue" stroke="midnightblue" points="1428.5,-309.669 1425,-299.669 1421.5,-309.669 1428.5,-309.669"/>
</g>
<!-- Node14 -->
<g id="node14" class="node"><title>Node14</title>
<g id="a_node14"><a xlink:href="dji__vehicle_8hpp.html" target="_top" xlink:title="Vehicle API for DJI onboardSDK library. ">
<polygon fill="white" stroke="black" points="642.5,-336.5 642.5,-355.5 723.5,-355.5 723.5,-336.5 642.5,-336.5"/>
<text text-anchor="middle" x="683" y="-343.5" font-family="Helvetica,sans-Serif" font-size="10.00">dji_vehicle.hpp</text>
</a>
</g>
</g>
<!-- Node1&#45;&gt;Node14 -->
<g id="edge18" class="edge"><title>Node1&#45;&gt;Node14</title>
<path fill="none" stroke="midnightblue" d="M1372.82,-402.316C1236.19,-391.359 869.151,-361.927 733.928,-351.084"/>
<polygon fill="midnightblue" stroke="midnightblue" points="734.088,-347.586 723.84,-350.275 733.528,-354.563 734.088,-347.586"/>
</g>
<!-- Node3 -->
<g id="node3" class="node"><title>Node3</title>
<g id="a_node3"><a xlink:href="dji__mission__base_8hpp.html" target="_top" xlink:title="Mission&#45;Base abstract class for DJI OSDK library. ">
<polygon fill="white" stroke="black" points="1137,-168.5 1137,-187.5 1247,-187.5 1247,-168.5 1137,-168.5"/>
<text text-anchor="middle" x="1192" y="-175.5" font-family="Helvetica,sans-Serif" font-size="10.00">dji_mission_base.hpp</text>
</a>
</g>
</g>
<!-- Node2&#45;&gt;Node3 -->
<g id="edge2" class="edge"><title>Node2&#45;&gt;Node3</title>
<path fill="none" stroke="midnightblue" d="M1388.08,-224.444C1347.6,-215.063 1282.58,-199.993 1238.62,-189.804"/>
<polygon fill="midnightblue" stroke="midnightblue" points="1239.28,-186.365 1228.75,-187.516 1237.7,-193.184 1239.28,-186.365"/>
</g>
<!-- Node4 -->
<g id="node4" class="node"><title>Node4</title>
<g id="a_node4"><a xlink:href="dji__command_8hpp.html" target="_top" xlink:title="All DJI OSDK OpenProtocol Command IDs. ">
<polygon fill="white" stroke="black" points="1166.5,-112.5 1166.5,-131.5 1259.5,-131.5 1259.5,-112.5 1166.5,-112.5"/>
<text text-anchor="middle" x="1213" y="-119.5" font-family="Helvetica,sans-Serif" font-size="10.00">dji_command.hpp</text>
</a>
</g>
</g>
<!-- Node3&#45;&gt;Node4 -->
<g id="edge3" class="edge"><title>Node3&#45;&gt;Node4</title>
<path fill="none" stroke="midnightblue" d="M1195.47,-168.083C1198.31,-160.77 1202.43,-150.181 1205.96,-141.103"/>
<polygon fill="midnightblue" stroke="midnightblue" points="1209.23,-142.34 1209.6,-131.751 1202.71,-139.803 1209.23,-142.34"/>
</g>
<!-- Node7 -->
<g id="node7" class="node"><title>Node7</title>
<g id="a_node7"><a xlink:href="dji__type_8hpp.html" target="_top" xlink:title="Data type and Data Structure definitions for use throughout DJI OSDK. ">
<polygon fill="white" stroke="black" points="1036.5,-112.5 1036.5,-131.5 1105.5,-131.5 1105.5,-112.5 1036.5,-112.5"/>
<text text-anchor="middle" x="1071" y="-119.5" font-family="Helvetica,sans-Serif" font-size="10.00">dji_type.hpp</text>
</a>
</g>
</g>
<!-- Node3&#45;&gt;Node7 -->
<g id="edge7" class="edge"><title>Node3&#45;&gt;Node7</title>
<path fill="none" stroke="midnightblue" d="M1172.83,-168.444C1153.09,-159.636 1122.11,-145.812 1099.51,-135.722"/>
<polygon fill="midnightblue" stroke="midnightblue" points="1100.64,-132.396 1090.08,-131.516 1097.79,-138.788 1100.64,-132.396"/>
</g>
<!-- Node9 -->
<g id="node9" class="node"><title>Node9</title>
<g id="a_node9"><a xlink:href="dji__vehicle__callback_8hpp.html" target="_top" xlink:title="Type definition for new Vehicle&#45;style callbacks. ">
<polygon fill="white" stroke="black" points="265,-112.5 265,-131.5 387,-131.5 387,-112.5 265,-112.5"/>
<text text-anchor="middle" x="326" y="-119.5" font-family="Helvetica,sans-Serif" font-size="10.00">dji_vehicle_callback.hpp</text>
</a>
</g>
</g>
<!-- Node3&#45;&gt;Node9 -->
<g id="edge10" class="edge"><title>Node3&#45;&gt;Node9</title>
<path fill="none" stroke="midnightblue" d="M1136.84,-173.561C985.78,-164.141 565.46,-137.932 397.085,-127.433"/>
<polygon fill="midnightblue" stroke="midnightblue" points="397.285,-123.938 387.086,-126.809 396.849,-130.925 397.285,-123.938"/>
</g>
<!-- Node5 -->
<g id="node5" class="node"><title>Node5</title>
<g id="a_node5"><a xlink:href="dji__error_8hpp.html" target="_top" xlink:title="All DJI OSDK OpenProtocol ACK Error Codes. ">
<polygon fill="white" stroke="black" points="1188,-56.5 1188,-75.5 1258,-75.5 1258,-56.5 1188,-56.5"/>
<text text-anchor="middle" x="1223" y="-63.5" font-family="Helvetica,sans-Serif" font-size="10.00">dji_error.hpp</text>
</a>
</g>
</g>
<!-- Node4&#45;&gt;Node5 -->
<g id="edge4" class="edge"><title>Node4&#45;&gt;Node5</title>
<path fill="none" stroke="midnightblue" d="M1214.65,-112.083C1215.98,-104.927 1217.88,-94.6353 1219.54,-85.6911"/>
<polygon fill="midnightblue" stroke="midnightblue" points="1223,-86.2212 1221.38,-75.7511 1216.12,-84.9466 1223,-86.2212"/>
</g>
<!-- Node6 -->
<g id="node6" class="node"><title>Node6</title>
<polygon fill="white" stroke="#bfbfbf" points="1135.5,-0.5 1135.5,-19.5 1184.5,-19.5 1184.5,-0.5 1135.5,-0.5"/>
<text text-anchor="middle" x="1160" y="-7.5" font-family="Helvetica,sans-Serif" font-size="10.00">stdint.h</text>
</g>
<!-- Node4&#45;&gt;Node6 -->
<g id="edge6" class="edge"><title>Node4&#45;&gt;Node6</title>
<path fill="none" stroke="midnightblue" d="M1204.92,-112.343C1197.27,-103.725 1185.95,-89.8233 1179,-76 1171.58,-61.2276 1166.57,-43.071 1163.57,-29.7057"/>
<polygon fill="midnightblue" stroke="midnightblue" points="1166.98,-28.8657 1161.52,-19.7853 1160.12,-30.2878 1166.98,-28.8657"/>
</g>
<!-- Node5&#45;&gt;Node6 -->
<g id="edge5" class="edge"><title>Node5&#45;&gt;Node6</title>
<path fill="none" stroke="midnightblue" d="M1212.88,-56.324C1203.47,-48.2631 1189.26,-36.0765 1177.93,-26.3695"/>
<polygon fill="midnightblue" stroke="midnightblue" points="1180.18,-23.6844 1170.31,-19.8339 1175.62,-28.9993 1180.18,-23.6844"/>
</g>
<!-- Node7&#45;&gt;Node6 -->
<g id="edge9" class="edge"><title>Node7&#45;&gt;Node6</title>
<path fill="none" stroke="midnightblue" d="M1069.72,-112.148C1068.27,-98.7733 1067.43,-73.1593 1079,-56 1089.97,-39.7194 1108.89,-28.7343 1125.69,-21.6959"/>
<polygon fill="midnightblue" stroke="midnightblue" points="1127.19,-24.8677 1135.26,-17.9976 1124.67,-18.3385 1127.19,-24.8677"/>
</g>
<!-- Node8 -->
<g id="node8" class="node"><title>Node8</title>
<polygon fill="white" stroke="#bfbfbf" points="1088.5,-56.5 1088.5,-75.5 1131.5,-75.5 1131.5,-56.5 1088.5,-56.5"/>
<text text-anchor="middle" x="1110" y="-63.5" font-family="Helvetica,sans-Serif" font-size="10.00">cstdio</text>
</g>
<!-- Node7&#45;&gt;Node8 -->
<g id="edge8" class="edge"><title>Node7&#45;&gt;Node8</title>
<path fill="none" stroke="midnightblue" d="M1077.44,-112.083C1082.95,-104.455 1091.03,-93.2645 1097.76,-83.9408"/>
<polygon fill="midnightblue" stroke="midnightblue" points="1100.66,-85.9071 1103.68,-75.7511 1094.99,-81.8087 1100.66,-85.9071"/>
</g>
<!-- Node10 -->
<g id="node10" class="node"><title>Node10</title>
<polygon fill="white" stroke="#bfbfbf" points="314.5,-56.5 314.5,-75.5 425.5,-75.5 425.5,-56.5 314.5,-56.5"/>
<text text-anchor="middle" x="370" y="-63.5" font-family="Helvetica,sans-Serif" font-size="10.00">dji_open_protocol.hpp</text>
</g>
<!-- Node9&#45;&gt;Node10 -->
<g id="edge11" class="edge"><title>Node9&#45;&gt;Node10</title>
<path fill="none" stroke="midnightblue" d="M333.266,-112.083C339.545,-104.377 348.788,-93.0333 356.431,-83.6531"/>
<polygon fill="midnightblue" stroke="midnightblue" points="359.266,-85.7143 362.869,-75.7511 353.839,-81.2926 359.266,-85.7143"/>
</g>
<!-- Node11&#45;&gt;Node2 -->
<g id="edge17" class="edge"><title>Node11&#45;&gt;Node2</title>
<path fill="none" stroke="midnightblue" d="M1425,-280.083C1425,-273.006 1425,-262.861 1425,-253.986"/>
<polygon fill="midnightblue" stroke="midnightblue" points="1428.5,-253.751 1425,-243.751 1421.5,-253.751 1428.5,-253.751"/>
</g>
<!-- Node12 -->
<g id="node12" class="node"><title>Node12</title>
<g id="a_node12"><a xlink:href="dji__hotpoint_8hpp.html" target="_top" xlink:title="Implementation of HotPoint (Point of Interest) Missions for DJI OSDK. ">
<polygon fill="white" stroke="black" points="1143.5,-224.5 1143.5,-243.5 1228.5,-243.5 1228.5,-224.5 1143.5,-224.5"/>
<text text-anchor="middle" x="1186" y="-231.5" font-family="Helvetica,sans-Serif" font-size="10.00">dji_hotpoint.hpp</text>
</a>
</g>
</g>
<!-- Node11&#45;&gt;Node12 -->
<g id="edge13" class="edge"><title>Node11&#45;&gt;Node12</title>
<path fill="none" stroke="midnightblue" d="M1387.13,-280.444C1345.52,-271.043 1278.63,-255.929 1233.53,-245.739"/>
<polygon fill="midnightblue" stroke="midnightblue" points="1234.22,-242.306 1223.69,-243.516 1232.68,-249.134 1234.22,-242.306"/>
</g>
<!-- Node12&#45;&gt;Node3 -->
<g id="edge14" class="edge"><title>Node12&#45;&gt;Node3</title>
<path fill="none" stroke="midnightblue" d="M1186.99,-224.083C1187.79,-216.927 1188.93,-206.635 1189.92,-197.691"/>
<polygon fill="midnightblue" stroke="midnightblue" points="1193.4,-198.076 1191.03,-187.751 1186.44,-197.303 1193.4,-198.076"/>
</g>
<!-- Node13 -->
<g id="node13" class="node"><title>Node13</title>
<g id="a_node13"><a xlink:href="dji__telemetry_8hpp.html" target="_top" xlink:title="Enumeration of all telemetry data types, structures and maps. ">
<polygon fill="white" stroke="black" points="481.5,-168.5 481.5,-187.5 572.5,-187.5 572.5,-168.5 481.5,-168.5"/>
<text text-anchor="middle" x="527" y="-175.5" font-family="Helvetica,sans-Serif" font-size="10.00">dji_telemetry.hpp</text>
</a>
</g>
</g>
<!-- Node12&#45;&gt;Node13 -->
<g id="edge15" class="edge"><title>Node12&#45;&gt;Node13</title>
<path fill="none" stroke="midnightblue" d="M1143.27,-229.499C1028.16,-220.067 711.63,-194.129 582.724,-183.566"/>
<polygon fill="midnightblue" stroke="midnightblue" points="582.924,-180.071 572.671,-182.742 582.352,-187.047 582.924,-180.071"/>
</g>
<!-- Node13&#45;&gt;Node7 -->
<g id="edge16" class="edge"><title>Node13&#45;&gt;Node7</title>
<path fill="none" stroke="midnightblue" d="M572.912,-172.443C675.934,-162.216 924.447,-137.548 1026.31,-127.436"/>
<polygon fill="midnightblue" stroke="midnightblue" points="1026.67,-130.918 1036.27,-126.447 1025.98,-123.952 1026.67,-130.918"/>
</g>
<!-- Node14&#45;&gt;Node4 -->
<g id="edge27" class="edge"><title>Node14&#45;&gt;Node4</title>
<path fill="none" stroke="midnightblue" d="M723.685,-343.452C831.177,-339.059 1120.8,-325.173 1213,-300 1288.17,-279.477 1300.13,-256.399 1371,-224 1407.57,-207.282 1431.94,-221.617 1454,-188 1458.88,-180.569 1459.68,-174.838 1454,-168 1431.07,-140.396 1333.8,-129.633 1270.06,-125.501"/>
<polygon fill="midnightblue" stroke="midnightblue" points="1269.94,-121.987 1259.74,-124.871 1269.51,-128.974 1269.94,-121.987"/>
</g>
<!-- Node14&#45;&gt;Node7 -->
<g id="edge59" class="edge"><title>Node14&#45;&gt;Node7</title>
<path fill="none" stroke="midnightblue" d="M723.585,-340.274C748.997,-334.983 779.882,-323.768 796,-300 837.309,-239.085 647.155,-223.057 696,-168 717.601,-143.652 931.284,-130.002 1026.09,-125.103"/>
<polygon fill="midnightblue" stroke="midnightblue" points="1026.43,-128.59 1036.24,-124.588 1026.07,-121.599 1026.43,-128.59"/>
</g>
<!-- Node14&#45;&gt;Node9 -->
<g id="edge60" class="edge"><title>Node14&#45;&gt;Node9</title>
<path fill="none" stroke="midnightblue" d="M642.484,-344.539C531.81,-342.83 226.421,-334.986 133,-300 93.7079,-285.285 75.9226,-281.448 57,-244 15.9293,-162.721 161.727,-135.976 254.59,-127.221"/>
<polygon fill="midnightblue" stroke="midnightblue" points="255.149,-130.685 264.798,-126.31 254.527,-123.713 255.149,-130.685"/>
</g>
<!-- Node14&#45;&gt;Node10 -->
<g id="edge52" class="edge"><title>Node14&#45;&gt;Node10</title>
<path fill="none" stroke="midnightblue" d="M642.172,-345.003C524.308,-344.532 185.397,-339.671 83,-300 39.3096,-283.073 0,-281.855 0,-235 0,-235 0,-235 0,-177 0,-114.27 197.872,-84.4615 304.211,-72.9709"/>
<polygon fill="midnightblue" stroke="midnightblue" points="304.629,-76.4463 314.207,-71.9157 303.894,-69.485 304.629,-76.4463"/>
</g>
<!-- Node14&#45;&gt;Node11 -->
<g id="edge49" class="edge"><title>Node14&#45;&gt;Node11</title>
<path fill="none" stroke="midnightblue" d="M723.855,-342.904C827.92,-337.419 1111.41,-321.563 1347,-300 1348.3,-299.881 1349.61,-299.759 1350.93,-299.633"/>
<polygon fill="midnightblue" stroke="midnightblue" points="1351.57,-303.086 1361.17,-298.613 1350.88,-296.121 1351.57,-303.086"/>
</g>
<!-- Node15 -->
<g id="node15" class="node"><title>Node15</title>
<polygon fill="white" stroke="#bfbfbf" points="676,-112.5 676,-131.5 722,-131.5 722,-112.5 676,-112.5"/>
<text text-anchor="middle" x="699" y="-119.5" font-family="Helvetica,sans-Serif" font-size="10.00">cstdint</text>
</g>
<!-- Node14&#45;&gt;Node15 -->
<g id="edge19" class="edge"><title>Node14&#45;&gt;Node15</title>
<path fill="none" stroke="midnightblue" d="M676.371,-336.275C670.235,-327.607 661.542,-313.669 658,-300 650.081,-269.439 625.672,-267.268 663,-168 667.12,-157.043 674.994,-146.702 682.329,-138.703"/>
<polygon fill="midnightblue" stroke="midnightblue" points="684.837,-141.144 689.327,-131.548 679.833,-136.25 684.837,-141.144"/>
</g>
<!-- Node16 -->
<g id="node16" class="node"><title>Node16</title>
<g id="a_node16"><a xlink:href="dji__broadcast_8hpp.html" target="_top" xlink:title="Broadcast Telemetry API for DJI onboardSDK library. ">
<polygon fill="white" stroke="black" points="320.5,-224.5 320.5,-243.5 413.5,-243.5 413.5,-224.5 320.5,-224.5"/>
<text text-anchor="middle" x="367" y="-231.5" font-family="Helvetica,sans-Serif" font-size="10.00">dji_broadcast.hpp</text>
</a>
</g>
</g>
<!-- Node14&#45;&gt;Node16 -->
<g id="edge20" class="edge"><title>Node14&#45;&gt;Node16</title>
<path fill="none" stroke="midnightblue" d="M642.256,-343.021C573.426,-338.953 437.905,-327.6 400,-300 384.687,-288.85 376,-268.52 371.425,-253.555"/>
<polygon fill="midnightblue" stroke="midnightblue" points="374.779,-252.55 368.784,-243.814 368.023,-254.381 374.779,-252.55"/>
</g>
<!-- Node17 -->
<g id="node17" class="node"><title>Node17</title>
<g id="a_node17"><a xlink:href="dji__camera_8hpp.html" target="_top" xlink:title="Camera/Gimbal API for DJI onboardSDK library. ">
<polygon fill="white" stroke="black" points="1265.5,-168.5 1265.5,-187.5 1348.5,-187.5 1348.5,-168.5 1265.5,-168.5"/>
<text text-anchor="middle" x="1307" y="-175.5" font-family="Helvetica,sans-Serif" font-size="10.00">dji_camera.hpp</text>
</a>
</g>
</g>
<!-- Node14&#45;&gt;Node17 -->
<g id="edge23" class="edge"><title>Node14&#45;&gt;Node17</title>
<path fill="none" stroke="midnightblue" d="M723.747,-343.195C820.739,-338.545 1062.96,-324.752 1140,-300 1204.53,-279.267 1264.95,-223.028 1292.04,-195.134"/>
<polygon fill="midnightblue" stroke="midnightblue" points="1294.7,-197.418 1299.07,-187.764 1289.63,-192.59 1294.7,-197.418"/>
</g>
<!-- Node18 -->
<g id="node18" class="node"><title>Node18</title>
<polygon fill="white" stroke="#bfbfbf" points="173,-280.5 173,-299.5 285,-299.5 285,-280.5 173,-280.5"/>
<text text-anchor="middle" x="229" y="-287.5" font-family="Helvetica,sans-Serif" font-size="10.00">dji_circular_buffer.hpp</text>
</g>
<!-- Node14&#45;&gt;Node18 -->
<g id="edge26" class="edge"><title>Node14&#45;&gt;Node18</title>
<path fill="none" stroke="midnightblue" d="M642.344,-340.387C572.238,-332.399 424.082,-315.37 299,-300 297.734,-299.844 296.456,-299.687 295.168,-299.527"/>
<polygon fill="midnightblue" stroke="midnightblue" points="295.514,-296.043 285.157,-298.276 294.646,-302.989 295.514,-296.043"/>
</g>
<!-- Node19 -->
<g id="node19" class="node"><title>Node19</title>
<g id="a_node19"><a xlink:href="dji__control_8hpp.html" target="_top" xlink:title="Control API for DJI OSDK library. ">
<polygon fill="white" stroke="black" points="881,-280.5 881,-299.5 961,-299.5 961,-280.5 881,-280.5"/>
<text text-anchor="middle" x="921" y="-287.5" font-family="Helvetica,sans-Serif" font-size="10.00">dji_control.hpp</text>
</a>
</g>
</g>
<!-- Node14&#45;&gt;Node19 -->
<g id="edge28" class="edge"><title>Node14&#45;&gt;Node19</title>
<path fill="none" stroke="midnightblue" d="M720.712,-336.444C762.143,-327.043 828.757,-311.929 873.667,-301.739"/>
<polygon fill="midnightblue" stroke="midnightblue" points="874.487,-305.142 883.465,-299.516 872.938,-298.316 874.487,-305.142"/>
</g>
<!-- Node22 -->
<g id="node22" class="node"><title>Node22</title>
<g id="a_node22"><a xlink:href="dji__version_8hpp.html" target="_top" xlink:title="Drone/SDK Version definition for DJI onboardSDK library. ">
<polygon fill="white" stroke="black" points="705,-168.5 705,-187.5 787,-187.5 787,-168.5 705,-168.5"/>
<text text-anchor="middle" x="746" y="-175.5" font-family="Helvetica,sans-Serif" font-size="10.00">dji_version.hpp</text>
</a>
</g>
</g>
<!-- Node14&#45;&gt;Node22 -->
<g id="edge61" class="edge"><title>Node14&#45;&gt;Node22</title>
<path fill="none" stroke="midnightblue" d="M723.517,-344.839C757.765,-342.282 804.977,-332.542 829,-300 856.797,-262.346 801.944,-216.416 768.757,-193.483"/>
<polygon fill="midnightblue" stroke="midnightblue" points="770.313,-190.313 760.058,-187.651 766.415,-196.127 770.313,-190.313"/>
</g>
<!-- Node24 -->
<g id="node24" class="node"><title>Node24</title>
<g id="a_node24"><a xlink:href="dji__gimbal_8hpp.html" target="_top" xlink:title="Gimbal API for OSDK library. ">
<polygon fill="white" stroke="black" points="1366.5,-168.5 1366.5,-187.5 1445.5,-187.5 1445.5,-168.5 1366.5,-168.5"/>
<text text-anchor="middle" x="1406" y="-175.5" font-family="Helvetica,sans-Serif" font-size="10.00">dji_gimbal.hpp</text>
</a>
</g>
</g>
<!-- Node14&#45;&gt;Node24 -->
<g id="edge41" class="edge"><title>Node14&#45;&gt;Node24</title>
<path fill="none" stroke="midnightblue" d="M723.845,-343.33C826.205,-338.815 1091.53,-324.993 1176,-300 1218.88,-287.313 1333.25,-221.726 1382.7,-192.769"/>
<polygon fill="midnightblue" stroke="midnightblue" points="1384.56,-195.733 1391.41,-187.65 1381.01,-189.697 1384.56,-195.733"/>
</g>
<!-- Node25 -->
<g id="node25" class="node"><title>Node25</title>
<polygon fill="white" stroke="#bfbfbf" points="417,-280.5 417,-299.5 515,-299.5 515,-280.5 417,-280.5"/>
<text text-anchor="middle" x="466" y="-287.5" font-family="Helvetica,sans-Serif" font-size="10.00">dji_hard_driver.hpp</text>
</g>
<!-- Node14&#45;&gt;Node25 -->
<g id="edge44" class="edge"><title>Node14&#45;&gt;Node25</title>
<path fill="none" stroke="midnightblue" d="M648.616,-336.444C611.078,-327.102 550.869,-312.119 509.933,-301.933"/>
<polygon fill="midnightblue" stroke="midnightblue" points="510.773,-298.535 500.223,-299.516 509.082,-305.328 510.773,-298.535"/>
</g>
<!-- Node26 -->
<g id="node26" class="node"><title>Node26</title>
<g id="a_node26"><a xlink:href="dji__hardware__sync_8hpp.html" target="_top" xlink:title="Hardware Sync API for DJI OSDK. ">
<polygon fill="white" stroke="black" points="1015,-280.5 1015,-299.5 1131,-299.5 1131,-280.5 1015,-280.5"/>
<text text-anchor="middle" x="1073" y="-287.5" font-family="Helvetica,sans-Serif" font-size="10.00">dji_hardware_sync.hpp</text>
</a>
</g>
</g>
<!-- Node14&#45;&gt;Node26 -->
<g id="edge45" class="edge"><title>Node14&#45;&gt;Node26</title>
<path fill="none" stroke="midnightblue" d="M723.633,-339.374C790.238,-330.152 923.353,-311.72 1004.67,-300.461"/>
<polygon fill="midnightblue" stroke="midnightblue" points="1005.38,-303.896 1014.81,-299.057 1004.42,-296.962 1005.38,-303.896"/>
</g>
<!-- Node27 -->
<g id="node27" class="node"><title>Node27</title>
<g id="a_node27"><a xlink:href="dji__mfio_8hpp.html" target="_top" xlink:title="MFIO API for DJI OSDK library. ">
<polygon fill="white" stroke="black" points="66.5,-224.5 66.5,-243.5 135.5,-243.5 135.5,-224.5 66.5,-224.5"/>
<text text-anchor="middle" x="101" y="-231.5" font-family="Helvetica,sans-Serif" font-size="10.00">dji_mfio.hpp</text>
</a>
</g>
</g>
<!-- Node14&#45;&gt;Node27 -->
<g id="edge47" class="edge"><title>Node14&#45;&gt;Node27</title>
<path fill="none" stroke="midnightblue" d="M642.14,-345.101C535.005,-344.796 248.439,-340.14 164,-300 141.903,-289.496 123.382,-267.727 112.26,-252.281"/>
<polygon fill="midnightblue" stroke="midnightblue" points="114.871,-249.9 106.326,-243.637 109.1,-253.862 114.871,-249.9"/>
</g>
<!-- Node28 -->
<g id="node28" class="node"><title>Node28</title>
<g id="a_node28"><a xlink:href="dji__mobile__communication_8hpp.html" target="_top" xlink:title="Implementation of DJI Mobile&#45;Onboard SDK Communication (MOC) ">
<polygon fill="white" stroke="black" points="153,-224.5 153,-243.5 303,-243.5 303,-224.5 153,-224.5"/>
<text text-anchor="middle" x="228" y="-231.5" font-family="Helvetica,sans-Serif" font-size="10.00">dji_mobile_communication.hpp</text>
</a>
</g>
</g>
<!-- Node14&#45;&gt;Node28 -->
<g id="edge50" class="edge"><title>Node14&#45;&gt;Node28</title>
<path fill="none" stroke="midnightblue" d="M642.114,-342.271C583.24,-337.593 471.597,-325.92 380,-300 333.851,-286.941 283.183,-263.234 253.56,-248.345"/>
<polygon fill="midnightblue" stroke="midnightblue" points="254.857,-245.078 244.358,-243.662 251.682,-251.317 254.857,-245.078"/>
</g>
<!-- Node29 -->
<g id="node29" class="node"><title>Node29</title>
<g id="a_node29"><a xlink:href="dji__status_8hpp.html" target="_top" xlink:title="Status information for DJI Vehicle. ">
<polygon fill="white" stroke="black" points="533.5,-280.5 533.5,-299.5 610.5,-299.5 610.5,-280.5 533.5,-280.5"/>
<text text-anchor="middle" x="572" y="-287.5" font-family="Helvetica,sans-Serif" font-size="10.00">dji_status.hpp</text>
</a>
</g>
</g>
<!-- Node14&#45;&gt;Node29 -->
<g id="edge53" class="edge"><title>Node14&#45;&gt;Node29</title>
<path fill="none" stroke="midnightblue" d="M665.166,-336.324C647.284,-327.625 619.525,-314.12 598.954,-304.113"/>
<polygon fill="midnightblue" stroke="midnightblue" points="600.313,-300.882 589.79,-299.655 597.251,-307.177 600.313,-300.882"/>
</g>
<!-- Node30 -->
<g id="node30" class="node"><title>Node30</title>
<g id="a_node30"><a xlink:href="dji__subscription_8hpp.html" target="_top" xlink:title="Telemetry Subscription API for DJI OSDK library. ">
<polygon fill="white" stroke="black" points="431.5,-224.5 431.5,-243.5 534.5,-243.5 534.5,-224.5 431.5,-224.5"/>
<text text-anchor="middle" x="483" y="-231.5" font-family="Helvetica,sans-Serif" font-size="10.00">dji_subscription.hpp</text>
</a>
</g>
</g>
<!-- Node14&#45;&gt;Node30 -->
<g id="edge54" class="edge"><title>Node14&#45;&gt;Node30</title>
<path fill="none" stroke="midnightblue" d="M642.433,-344.526C573.386,-342.764 437.602,-334.84 408,-300 390.535,-279.445 422.474,-259.723 449.927,-247.502"/>
<polygon fill="midnightblue" stroke="midnightblue" points="451.521,-250.628 459.362,-243.503 448.789,-244.183 451.521,-250.628"/>
</g>
<!-- Node31 -->
<g id="node31" class="node"><title>Node31</title>
<polygon fill="white" stroke="#bfbfbf" points="667,-280.5 667,-299.5 787,-299.5 787,-280.5 667,-280.5"/>
<text text-anchor="middle" x="727" y="-287.5" font-family="Helvetica,sans-Serif" font-size="10.00">dji_thread_manager.hpp</text>
</g>
<!-- Node14&#45;&gt;Node31 -->
<g id="edge58" class="edge"><title>Node14&#45;&gt;Node31</title>
<path fill="none" stroke="midnightblue" d="M690.266,-336.083C696.545,-328.377 705.788,-317.033 713.431,-307.653"/>
<polygon fill="midnightblue" stroke="midnightblue" points="716.266,-309.714 719.869,-299.751 710.839,-305.293 716.266,-309.714"/>
</g>
<!-- Node16&#45;&gt;Node9 -->
<g id="edge22" class="edge"><title>Node16&#45;&gt;Node9</title>
<path fill="none" stroke="midnightblue" d="M363.783,-224.368C357.136,-206.537 341.765,-165.295 332.81,-141.272"/>
<polygon fill="midnightblue" stroke="midnightblue" points="335.974,-139.739 329.202,-131.591 329.415,-142.184 335.974,-139.739"/>
</g>
<!-- Node16&#45;&gt;Node13 -->
<g id="edge21" class="edge"><title>Node16&#45;&gt;Node13</title>
<path fill="none" stroke="midnightblue" d="M392.352,-224.444C419.269,-215.359 461.996,-200.939 492.087,-190.783"/>
<polygon fill="midnightblue" stroke="midnightblue" points="493.41,-194.031 501.766,-187.516 491.172,-187.398 493.41,-194.031"/>
</g>
<!-- Node17&#45;&gt;Node4 -->
<g id="edge24" class="edge"><title>Node17&#45;&gt;Node4</title>
<path fill="none" stroke="midnightblue" d="M1291.9,-168.324C1277.1,-159.822 1254.31,-146.729 1237.02,-136.797"/>
<polygon fill="midnightblue" stroke="midnightblue" points="1238.48,-133.601 1228.07,-131.655 1234.99,-139.671 1238.48,-133.601"/>
</g>
<!-- Node17&#45;&gt;Node7 -->
<g id="edge25" class="edge"><title>Node17&#45;&gt;Node7</title>
<path fill="none" stroke="midnightblue" d="M1269.61,-168.444C1227.76,-158.87 1160.02,-143.37 1115.49,-133.181"/>
<polygon fill="midnightblue" stroke="midnightblue" points="1116.06,-129.72 1105.53,-130.902 1114.5,-136.544 1116.06,-129.72"/>
</g>
<!-- Node19&#45;&gt;Node7 -->
<g id="edge39" class="edge"><title>Node19&#45;&gt;Node7</title>
<path fill="none" stroke="midnightblue" d="M929.065,-280.075C953.187,-253.38 1025.04,-173.865 1056.25,-139.322"/>
<polygon fill="midnightblue" stroke="midnightblue" points="1059.15,-141.334 1063.26,-131.568 1053.96,-136.641 1059.15,-141.334"/>
</g>
<!-- Node19&#45;&gt;Node9 -->
<g id="edge40" class="edge"><title>Node19&#45;&gt;Node9</title>
<path fill="none" stroke="midnightblue" d="M880.714,-285.099C804.356,-277.455 641.341,-259.862 587,-244 583.944,-243.108 420.071,-166.825 353.584,-135.853"/>
<polygon fill="midnightblue" stroke="midnightblue" points="355.054,-132.677 344.512,-131.626 352.098,-139.022 355.054,-132.677"/>
</g>
<!-- Node19&#45;&gt;Node10 -->
<g id="edge38" class="edge"><title>Node19&#45;&gt;Node10</title>
<path fill="none" stroke="midnightblue" d="M899.738,-280.433C814.937,-246.267 500.652,-119.64 400.719,-79.3766"/>
<polygon fill="midnightblue" stroke="midnightblue" points="401.782,-76.0319 391.199,-75.5411 399.166,-82.5247 401.782,-76.0319"/>
</g>
<!-- Node20 -->
<g id="node20" class="node"><title>Node20</title>
<g id="a_node20"><a xlink:href="dji__ack_8hpp.html" target="_top" xlink:title="All DJI OSDK ACK parsing. ">
<polygon fill="white" stroke="black" points="885,-224.5 885,-243.5 951,-243.5 951,-224.5 885,-224.5"/>
<text text-anchor="middle" x="918" y="-231.5" font-family="Helvetica,sans-Serif" font-size="10.00">dji_ack.hpp</text>
</a>
</g>
</g>
<!-- Node19&#45;&gt;Node20 -->
<g id="edge29" class="edge"><title>Node19&#45;&gt;Node20</title>
<path fill="none" stroke="midnightblue" d="M920.505,-280.083C920.111,-273.006 919.548,-262.861 919.055,-253.986"/>
<polygon fill="midnightblue" stroke="midnightblue" points="922.536,-253.542 918.486,-243.751 915.546,-253.93 922.536,-253.542"/>
</g>
<!-- Node20&#45;&gt;Node4 -->
<g id="edge30" class="edge"><title>Node20&#45;&gt;Node4</title>
<path fill="none" stroke="midnightblue" d="M941.148,-224.368C993.386,-204.89 1120.53,-157.479 1180.58,-135.089"/>
<polygon fill="midnightblue" stroke="midnightblue" points="1181.81,-138.365 1189.96,-131.591 1179.37,-131.806 1181.81,-138.365"/>
</g>
<!-- Node20&#45;&gt;Node7 -->
<g id="edge33" class="edge"><title>Node20&#45;&gt;Node7</title>
<path fill="none" stroke="midnightblue" d="M930.006,-224.368C956.149,-205.573 1018.47,-160.768 1050.79,-137.533"/>
<polygon fill="midnightblue" stroke="midnightblue" points="1052.97,-140.271 1059.05,-131.591 1048.89,-134.587 1052.97,-140.271"/>
</g>
<!-- Node21 -->
<g id="node21" class="node"><title>Node21</title>
<g id="a_node21"><a xlink:href="dji__mission__type_8hpp.html" target="_top" xlink:title="Mission related data struct for DJI OSDK library. ">
<polygon fill="white" stroke="black" points="859,-168.5 859,-187.5 967,-187.5 967,-168.5 859,-168.5"/>
<text text-anchor="middle" x="913" y="-175.5" font-family="Helvetica,sans-Serif" font-size="10.00">dji_mission_type.hpp</text>
</a>
</g>
</g>
<!-- Node20&#45;&gt;Node21 -->
<g id="edge31" class="edge"><title>Node20&#45;&gt;Node21</title>
<path fill="none" stroke="midnightblue" d="M917.174,-224.083C916.519,-217.006 915.58,-206.861 914.758,-197.986"/>
<polygon fill="midnightblue" stroke="midnightblue" points="918.217,-197.386 913.81,-187.751 911.247,-198.031 918.217,-197.386"/>
</g>
<!-- Node20&#45;&gt;Node22 -->
<g id="edge34" class="edge"><title>Node20&#45;&gt;Node22</title>
<path fill="none" stroke="midnightblue" d="M890.746,-224.444C861.559,-215.28 815.079,-200.688 782.691,-190.519"/>
<polygon fill="midnightblue" stroke="midnightblue" points="783.716,-187.173 773.126,-187.516 781.619,-193.851 783.716,-187.173"/>
</g>
<!-- Node23 -->
<g id="node23" class="node"><title>Node23</title>
<polygon fill="white" stroke="#bfbfbf" points="805.5,-168.5 805.5,-187.5 840.5,-187.5 840.5,-168.5 805.5,-168.5"/>
<text text-anchor="middle" x="823" y="-175.5" font-family="Helvetica,sans-Serif" font-size="10.00">map</text>
</g>
<!-- Node20&#45;&gt;Node23 -->
<g id="edge37" class="edge"><title>Node20&#45;&gt;Node23</title>
<path fill="none" stroke="midnightblue" d="M902.737,-224.324C887.779,-215.822 864.745,-202.729 847.273,-192.797"/>
<polygon fill="midnightblue" stroke="midnightblue" points="848.649,-189.553 838.226,-187.655 845.19,-195.639 848.649,-189.553"/>
</g>
<!-- Node21&#45;&gt;Node7 -->
<g id="edge32" class="edge"><title>Node21&#45;&gt;Node7</title>
<path fill="none" stroke="midnightblue" d="M938.036,-168.444C964.616,-159.359 1006.81,-144.939 1036.52,-134.783"/>
<polygon fill="midnightblue" stroke="midnightblue" points="1037.75,-138.062 1046.08,-131.516 1035.49,-131.439 1037.75,-138.062"/>
</g>
<!-- Node22&#45;&gt;Node4 -->
<g id="edge35" class="edge"><title>Node22&#45;&gt;Node4</title>
<path fill="none" stroke="midnightblue" d="M787.163,-169.353C790.15,-168.871 793.119,-168.414 796,-168 864.132,-158.204 1059.06,-138.334 1156.35,-128.612"/>
<polygon fill="midnightblue" stroke="midnightblue" points="1156.7,-132.095 1166.3,-127.619 1156,-125.129 1156.7,-132.095"/>
</g>
<!-- Node22&#45;&gt;Node15 -->
<g id="edge36" class="edge"><title>Node22&#45;&gt;Node15</title>
<path fill="none" stroke="midnightblue" d="M738.239,-168.083C731.463,-160.298 721.457,-148.801 713.245,-139.367"/>
<polygon fill="midnightblue" stroke="midnightblue" points="715.822,-136.996 706.617,-131.751 710.542,-141.592 715.822,-136.996"/>
</g>
<!-- Node24&#45;&gt;Node4 -->
<g id="edge42" class="edge"><title>Node24&#45;&gt;Node4</title>
<path fill="none" stroke="midnightblue" d="M1375.42,-168.444C1342.39,-159.201 1289.61,-144.436 1253.23,-134.257"/>
<polygon fill="midnightblue" stroke="midnightblue" points="1254.01,-130.84 1243.44,-131.516 1252.13,-137.582 1254.01,-130.84"/>
</g>
<!-- Node24&#45;&gt;Node7 -->
<g id="edge43" class="edge"><title>Node24&#45;&gt;Node7</title>
<path fill="none" stroke="midnightblue" d="M1366.44,-169.643C1363.24,-169.077 1360.07,-168.523 1357,-168 1271.87,-153.487 1172.19,-138.186 1115.83,-129.691"/>
<polygon fill="midnightblue" stroke="midnightblue" points="1116.24,-126.213 1105.83,-128.186 1115.19,-133.135 1116.24,-126.213"/>
</g>
<!-- Node26&#45;&gt;Node7 -->
<g id="edge46" class="edge"><title>Node26&#45;&gt;Node7</title>
<path fill="none" stroke="midnightblue" d="M1076.09,-280.173C1079.05,-271.198 1083.32,-256.827 1085,-244 1089.39,-210.509 1090.07,-201.394 1085,-168 1083.63,-159.001 1080.81,-149.325 1078.05,-141.26"/>
<polygon fill="midnightblue" stroke="midnightblue" points="1081.31,-139.976 1074.6,-131.778 1074.73,-142.372 1081.31,-139.976"/>
</g>
<!-- Node27&#45;&gt;Node9 -->
<g id="edge48" class="edge"><title>Node27&#45;&gt;Node9</title>
<path fill="none" stroke="midnightblue" d="M118.655,-224.368C157.923,-205.171 252.687,-158.842 299.258,-136.074"/>
<polygon fill="midnightblue" stroke="midnightblue" points="300.98,-139.128 308.427,-131.591 297.906,-132.839 300.98,-139.128"/>
</g>
<!-- Node28&#45;&gt;Node9 -->
<g id="edge51" class="edge"><title>Node28&#45;&gt;Node9</title>
<path fill="none" stroke="midnightblue" d="M235.69,-224.368C252.006,-206.055 290.32,-163.049 311.423,-139.362"/>
<polygon fill="midnightblue" stroke="midnightblue" points="314.307,-141.386 318.346,-131.591 309.08,-136.73 314.307,-141.386"/>
</g>
<!-- Node30&#45;&gt;Node9 -->
<g id="edge57" class="edge"><title>Node30&#45;&gt;Node9</title>
<path fill="none" stroke="midnightblue" d="M464.757,-224.389C447.694,-216.015 421.793,-202.471 401,-188 379.282,-172.886 356.633,-152.516 341.984,-138.634"/>
<polygon fill="midnightblue" stroke="midnightblue" points="344.362,-136.065 334.725,-131.663 339.514,-141.114 344.362,-136.065"/>
</g>
<!-- Node30&#45;&gt;Node10 -->
<g id="edge55" class="edge"><title>Node30&#45;&gt;Node10</title>
<path fill="none" stroke="midnightblue" d="M476.925,-224.075C458.906,-197.606 405.54,-119.209 381.715,-84.2097"/>
<polygon fill="midnightblue" stroke="midnightblue" points="384.353,-81.8651 375.833,-75.5681 378.566,-85.8041 384.353,-81.8651"/>
</g>
<!-- Node30&#45;&gt;Node13 -->
<g id="edge56" class="edge"><title>Node30&#45;&gt;Node13</title>
<path fill="none" stroke="midnightblue" d="M490.266,-224.083C496.545,-216.377 505.788,-205.033 513.431,-195.653"/>
<polygon fill="midnightblue" stroke="midnightblue" points="516.266,-197.714 519.869,-187.751 510.839,-193.293 516.266,-197.714"/>
</g>
</g>
</svg>
        <g id="navigator" transform="translate(0 0)" fill="#404254">
                <rect fill="#f2f5e9" fill-opacity="0.5" stroke="#606060" stroke-width=".5" x="0" y="0" width="60" height="60"/>
                <use id="zoomplus" xlink:href="#zoomPlus" x="17" y="9" onmousedown="handleZoom(evt,'in')"/>
                <use id="zoomminus" xlink:href="#zoomMin" x="42" y="9" onmousedown="handleZoom(evt,'out')"/>
                <use id="reset" xlink:href="#resetDef" x="30" y="36" onmousedown="handleReset()"/>
                <g id="arrowUp" xlink:href="#dirArrow" transform="translate(30 24)" onmousedown="handlePan(0,-1)">
                  <use xlink:href="#rim" fill="#404040">
                        <set attributeName="fill" to="#808080" begin="arrowUp.mouseover" end="arrowUp.mouseout"/>
                  </use>
                  <path fill="none" stroke="white" stroke-width="1.5" d="M0,-3.0v7 M-2.5,-0.5L0,-3.0L2.5,-0.5"/>
                </g>
                <g id="arrowRight" xlink:href="#dirArrow" transform="rotate(90) translate(36 -43)" onmousedown="handlePan(1,0)">
                  <use xlink:href="#rim" fill="#404040">
                        <set attributeName="fill" to="#808080" begin="arrowRight.mouseover" end="arrowRight.mouseout"/>
                  </use>
                  <path fill="none" stroke="white" stroke-width="1.5" d="M0,-3.0v7 M-2.5,-0.5L0,-3.0L2.5,-0.5"/>
                </g>
                <g id="arrowDown" xlink:href="#dirArrow" transform="rotate(180) translate(-30 -48)" onmousedown="handlePan(0,1)">
                  <use xlink:href="#rim" fill="#404040">
                        <set attributeName="fill" to="#808080" begin="arrowDown.mouseover" end="arrowDown.mouseout"/>
                  </use>
                  <path fill="none" stroke="white" stroke-width="1.5" d="M0,-3.0v7 M-2.5,-0.5L0,-3.0L2.5,-0.5"/>
                </g>
                <g id="arrowLeft" xlink:href="#dirArrow" transform="rotate(270) translate(-36 17)" onmousedown="handlePan(-1,0)">
                  <use xlink:href="#rim" fill="#404040">
                        <set attributeName="fill" to="#808080" begin="arrowLeft.mouseover" end="arrowLeft.mouseout"/>
                  </use>
                  <path fill="none" stroke="white" stroke-width="1.5" d="M0,-3.0v7 M-2.5,-0.5L0,-3.0L2.5,-0.5"/>
                </g>
        </g>
        <svg viewBox="0 0 15 15" width="100%" height="30px" preserveAspectRatio="xMaxYMin meet">
         <g id="arrow_out" transform="scale(0.3 0.3)">
          <a xlink:href="dji__waypoint_8cpp__incl_org.svg" target="_base">
           <rect id="button" ry="5" rx="5" y="6" x="6" height="38" width="38"
                fill="#f2f5e9" fill-opacity="0.5" stroke="#606060" stroke-width="1.0"/>
           <path id="arrow"
             d="M 11.500037,31.436501 C 11.940474,20.09759 22.043105,11.32322 32.158766,21.979434 L 37.068811,17.246167 C 37.068811,17.246167 37.088388,32 37.088388,32 L 22.160133,31.978069 C 22.160133,31.978069 26.997745,27.140456 26.997745,27.140456 C 18.528582,18.264221 13.291696,25.230495 11.500037,31.436501 z"
             style="fill:#404040;"/>
          </a>
         </g>
        </svg>
</svg>
