<?xml version="1.0" encoding="UTF-8" standalone="no"?>
<!DOCTYPE svg PUBLIC "-//W3C//DTD SVG 1.1//EN"
 "http://www.w3.org/Graphics/SVG/1.1/DTD/svg11.dtd">
<!-- Generated by graphviz version 2.38.0 (20140413.2041)
 -->
<!-- Title: osdk&#45;core/api/src/dji_vehicle.cpp Pages: 1 -->
<!--zoomable 431 -->
<svg id="main" version="1.1" xmlns="http://www.w3.org/2000/svg" xmlns:xlink="http://www.w3.org/1999/xlink" xml:space="preserve" onload="init(evt)">
<style type="text/css"><![CDATA[
.edge:hover path { stroke: red; }
.edge:hover polygon { stroke: red; fill: red; }
]]></style>
<script type="text/javascript"><![CDATA[
var edges = document.getElementsByTagName('g');
if (edges && edges.length) {
  for (var i=0;i<edges.length;i++) {
    if (edges[i].id.substr(0,4)=='edge') {
      edges[i].setAttribute('class','edge');
    }
  }
}
]]></script>
        <defs>
                <circle id="rim" cx="0" cy="0" r="7"/>
                <circle id="rim2" cx="0" cy="0" r="3.5"/>
                <g id="zoomPlus">
                        <use xlink:href="#rim" fill="#404040">
                                <set attributeName="fill" to="#808080" begin="zoomplus.mouseover" end="zoomplus.mouseout"/>
                        </use>
                        <path d="M-4,0h8M0,-4v8" fill="none" stroke="white" stroke-width="1.5" pointer-events="none"/>
                </g>
                <g id="zoomMin">
                        <use xlink:href="#rim" fill="#404040">
                                <set attributeName="fill" to="#808080" begin="zoomminus.mouseover" end="zoomminus.mouseout"/>
                        </use>
                        <path d="M-4,0h8" fill="none" stroke="white" stroke-width="1.5" pointer-events="none"/>
                </g>
                <g id="dirArrow">
                        <path fill="none" stroke="white" stroke-width="1.5" d="M0,-3.0v7 M-2.5,-0.5L0,-3.0L2.5,-0.5"/>
                </g>
               <g id="resetDef">
                       <use xlink:href="#rim2" fill="#404040">
                               <set attributeName="fill" to="#808080" begin="reset.mouseover" end="reset.mouseout"/>
                       </use>
               </g>
        </defs>

<script type="text/javascript">
var viewWidth = 1662;
var viewHeight = 431;
var sectionId = 'dynsection-0';
</script>
<script xlink:href="svgpan.js"/>
<svg id="graph" class="graph">
<g id="viewport">
<title>osdk&#45;core/api/src/dji_vehicle.cpp</title>
<polygon fill="white" stroke="none" points="-4,4 -4,-427 1658.15,-427 1658.15,4 -4,4"/>
<!-- Node1 -->
<g id="node1" class="node"><title>Node1</title>
<polygon fill="#bfbfbf" stroke="black" points="905,-392.5 905,-422.5 1009,-422.5 1009,-392.5 905,-392.5"/>
<text text-anchor="start" x="913" y="-410.5" font-family="Helvetica,sans-Serif" font-size="10.00">osdk&#45;core/api/src/dji</text>
<text text-anchor="middle" x="957" y="-399.5" font-family="Helvetica,sans-Serif" font-size="10.00">_vehicle.cpp</text>
</g>
<!-- Node2 -->
<g id="node2" class="node"><title>Node2</title>
<g id="a_node2"><a xlink:href="dji__vehicle_8hpp.html" target="_top" xlink:title="Vehicle API for DJI onboardSDK library. ">
<polygon fill="white" stroke="black" points="878.5,-336.5 878.5,-355.5 959.5,-355.5 959.5,-336.5 878.5,-336.5"/>
<text text-anchor="middle" x="919" y="-343.5" font-family="Helvetica,sans-Serif" font-size="10.00">dji_vehicle.hpp</text>
</a>
</g>
</g>
<!-- Node1&#45;&gt;Node2 -->
<g id="edge1" class="edge"><title>Node1&#45;&gt;Node2</title>
<path fill="none" stroke="midnightblue" d="M947.995,-392.399C942.587,-383.932 935.668,-373.099 929.946,-364.139"/>
<polygon fill="midnightblue" stroke="midnightblue" points="932.862,-362.202 924.529,-355.658 926.962,-365.97 932.862,-362.202"/>
</g>
<!-- Node33 -->
<g id="node33" class="node"><title>Node33</title>
<polygon fill="white" stroke="#bfbfbf" points="977.5,-336.5 977.5,-355.5 1012.5,-355.5 1012.5,-336.5 977.5,-336.5"/>
<text text-anchor="middle" x="995" y="-343.5" font-family="Helvetica,sans-Serif" font-size="10.00">new</text>
</g>
<!-- Node1&#45;&gt;Node33 -->
<g id="edge65" class="edge"><title>Node1&#45;&gt;Node33</title>
<path fill="none" stroke="midnightblue" d="M966.005,-392.399C971.413,-383.932 978.332,-373.099 984.054,-364.139"/>
<polygon fill="midnightblue" stroke="midnightblue" points="987.038,-365.97 989.471,-355.658 981.138,-362.202 987.038,-365.97"/>
</g>
<!-- Node3 -->
<g id="node3" class="node"><title>Node3</title>
<polygon fill="white" stroke="#bfbfbf" points="0,-112.5 0,-131.5 46,-131.5 46,-112.5 0,-112.5"/>
<text text-anchor="middle" x="23" y="-119.5" font-family="Helvetica,sans-Serif" font-size="10.00">cstdint</text>
</g>
<!-- Node2&#45;&gt;Node3 -->
<g id="edge2" class="edge"><title>Node2&#45;&gt;Node3</title>
<path fill="none" stroke="midnightblue" d="M878.248,-344.822C720.964,-343.86 158.747,-337.786 89,-300 34.7559,-270.613 26.1714,-246.639 7,-188 1.8706,-172.311 7.3579,-154.023 13.2603,-140.849"/>
<polygon fill="midnightblue" stroke="midnightblue" points="16.5761,-142.041 17.888,-131.528 10.3063,-138.928 16.5761,-142.041"/>
</g>
<!-- Node4 -->
<g id="node4" class="node"><title>Node4</title>
<g id="a_node4"><a xlink:href="dji__broadcast_8hpp.html" target="_top" xlink:title="Broadcast Telemetry API for DJI onboardSDK library. ">
<polygon fill="white" stroke="black" points="1040.5,-224.5 1040.5,-243.5 1133.5,-243.5 1133.5,-224.5 1040.5,-224.5"/>
<text text-anchor="middle" x="1087" y="-231.5" font-family="Helvetica,sans-Serif" font-size="10.00">dji_broadcast.hpp</text>
</a>
</g>
</g>
<!-- Node2&#45;&gt;Node4 -->
<g id="edge3" class="edge"><title>Node2&#45;&gt;Node4</title>
<path fill="none" stroke="midnightblue" d="M959.887,-337.103C1016.66,-325.944 1113.02,-306.226 1118,-300 1129.87,-285.141 1116.69,-264.986 1104.03,-251.078"/>
<polygon fill="midnightblue" stroke="midnightblue" points="1106.32,-248.414 1096.83,-243.698 1101.31,-253.301 1106.32,-248.414"/>
</g>
<!-- Node6 -->
<g id="node6" class="node"><title>Node6</title>
<g id="a_node6"><a xlink:href="dji__type_8hpp.html" target="_top" xlink:title="Data type and Data Structure definitions for use throughout DJI OSDK. ">
<polygon fill="white" stroke="black" points="629.5,-112.5 629.5,-131.5 698.5,-131.5 698.5,-112.5 629.5,-112.5"/>
<text text-anchor="middle" x="664" y="-119.5" font-family="Helvetica,sans-Serif" font-size="10.00">dji_type.hpp</text>
</a>
</g>
</g>
<!-- Node2&#45;&gt;Node6 -->
<g id="edge57" class="edge"><title>Node2&#45;&gt;Node6</title>
<path fill="none" stroke="midnightblue" d="M906.583,-336.269C874.888,-313.913 792.793,-255.554 783,-244 758.453,-215.038 770.327,-195.354 744,-168 730.639,-154.118 712.054,-143.311 696.16,-135.771"/>
<polygon fill="midnightblue" stroke="midnightblue" points="697.237,-132.418 686.682,-131.5 694.361,-138.8 697.237,-132.418"/>
</g>
<!-- Node9 -->
<g id="node9" class="node"><title>Node9</title>
<g id="a_node9"><a xlink:href="dji__vehicle__callback_8hpp.html" target="_top" xlink:title="Type definition for new Vehicle&#45;style callbacks. ">
<polygon fill="white" stroke="black" points="1238,-112.5 1238,-131.5 1360,-131.5 1360,-112.5 1238,-112.5"/>
<text text-anchor="middle" x="1299" y="-119.5" font-family="Helvetica,sans-Serif" font-size="10.00">dji_vehicle_callback.hpp</text>
</a>
</g>
</g>
<!-- Node2&#45;&gt;Node9 -->
<g id="edge58" class="edge"><title>Node2&#45;&gt;Node9</title>
<path fill="none" stroke="midnightblue" d="M959.623,-337.425C962.456,-336.932 965.269,-336.452 968,-336 1020.28,-327.344 1403.39,-285.771 1436,-244 1472.05,-197.826 1384.87,-155.326 1333.44,-135.211"/>
<polygon fill="midnightblue" stroke="midnightblue" points="1334.57,-131.898 1323.98,-131.606 1332.08,-138.438 1334.57,-131.898"/>
</g>
<!-- Node10 -->
<g id="node10" class="node"><title>Node10</title>
<polygon fill="white" stroke="#bfbfbf" points="1479.5,-56.5 1479.5,-75.5 1590.5,-75.5 1590.5,-56.5 1479.5,-56.5"/>
<text text-anchor="middle" x="1535" y="-63.5" font-family="Helvetica,sans-Serif" font-size="10.00">dji_open_protocol.hpp</text>
</g>
<!-- Node2&#45;&gt;Node10 -->
<g id="edge50" class="edge"><title>Node2&#45;&gt;Node10</title>
<path fill="none" stroke="midnightblue" d="M959.581,-337.134C962.424,-336.71 965.251,-336.325 968,-336 1041.59,-327.288 1575.92,-346.032 1634,-300 1657.59,-281.305 1653,-265.098 1653,-235 1653,-235 1653,-235 1653,-177 1653,-129.512 1601.23,-96.6741 1566.28,-79.9123"/>
<polygon fill="midnightblue" stroke="midnightblue" points="1567.47,-76.6075 1556.92,-75.6121 1564.54,-82.9681 1567.47,-76.6075"/>
</g>
<!-- Node11 -->
<g id="node11" class="node"><title>Node11</title>
<g id="a_node11"><a xlink:href="dji__camera_8hpp.html" target="_top" xlink:title="Camera/Gimbal API for DJI onboardSDK library. ">
<polygon fill="white" stroke="black" points="251.5,-168.5 251.5,-187.5 334.5,-187.5 334.5,-168.5 251.5,-168.5"/>
<text text-anchor="middle" x="293" y="-175.5" font-family="Helvetica,sans-Serif" font-size="10.00">dji_camera.hpp</text>
</a>
</g>
</g>
<!-- Node2&#45;&gt;Node11 -->
<g id="edge10" class="edge"><title>Node2&#45;&gt;Node11</title>
<path fill="none" stroke="midnightblue" d="M878.228,-344.122C778.067,-341.49 522.402,-331.77 444,-300 385.594,-276.332 331.702,-222.377 307.072,-195.232"/>
<polygon fill="midnightblue" stroke="midnightblue" points="309.659,-192.873 300.395,-187.732 304.43,-197.528 309.659,-192.873"/>
</g>
<!-- Node12 -->
<g id="node12" class="node"><title>Node12</title>
<g id="a_node12"><a xlink:href="dji__command_8hpp.html" target="_top" xlink:title="All DJI OSDK OpenProtocol Command IDs. ">
<polygon fill="white" stroke="black" points="246.5,-112.5 246.5,-131.5 339.5,-131.5 339.5,-112.5 246.5,-112.5"/>
<text text-anchor="middle" x="293" y="-119.5" font-family="Helvetica,sans-Serif" font-size="10.00">dji_command.hpp</text>
</a>
</g>
</g>
<!-- Node2&#45;&gt;Node12 -->
<g id="edge17" class="edge"><title>Node2&#45;&gt;Node12</title>
<path fill="none" stroke="midnightblue" d="M878.284,-343.955C765.497,-340.713 450.835,-329.233 352,-300 251.692,-270.331 198.549,-277.858 145,-188 122.037,-149.466 185.449,-133.711 236.326,-127.313"/>
<polygon fill="midnightblue" stroke="midnightblue" points="236.775,-130.784 246.304,-126.154 235.967,-123.831 236.775,-130.784"/>
</g>
<!-- Node14 -->
<g id="node14" class="node"><title>Node14</title>
<polygon fill="white" stroke="#bfbfbf" points="707,-280.5 707,-299.5 819,-299.5 819,-280.5 707,-280.5"/>
<text text-anchor="middle" x="763" y="-287.5" font-family="Helvetica,sans-Serif" font-size="10.00">dji_circular_buffer.hpp</text>
</g>
<!-- Node2&#45;&gt;Node14 -->
<g id="edge16" class="edge"><title>Node2&#45;&gt;Node14</title>
<path fill="none" stroke="midnightblue" d="M894.281,-336.444C868.152,-327.399 826.741,-313.064 797.424,-302.916"/>
<polygon fill="midnightblue" stroke="midnightblue" points="798.198,-299.48 787.603,-299.516 795.908,-306.095 798.198,-299.48"/>
</g>
<!-- Node15 -->
<g id="node15" class="node"><title>Node15</title>
<g id="a_node15"><a xlink:href="dji__control_8hpp.html" target="_top" xlink:title="Control API for DJI OSDK library. ">
<polygon fill="white" stroke="black" points="913,-280.5 913,-299.5 993,-299.5 993,-280.5 913,-280.5"/>
<text text-anchor="middle" x="953" y="-287.5" font-family="Helvetica,sans-Serif" font-size="10.00">dji_control.hpp</text>
</a>
</g>
</g>
<!-- Node2&#45;&gt;Node15 -->
<g id="edge18" class="edge"><title>Node2&#45;&gt;Node15</title>
<path fill="none" stroke="midnightblue" d="M924.614,-336.083C929.367,-328.534 936.318,-317.495 942.152,-308.23"/>
<polygon fill="midnightblue" stroke="midnightblue" points="945.124,-310.078 947.49,-299.751 939.2,-306.349 945.124,-310.078"/>
</g>
<!-- Node18 -->
<g id="node18" class="node"><title>Node18</title>
<g id="a_node18"><a xlink:href="dji__version_8hpp.html" target="_top" xlink:title="Drone/SDK Version definition for DJI onboardSDK library. ">
<polygon fill="white" stroke="black" points="16,-168.5 16,-187.5 98,-187.5 98,-168.5 16,-168.5"/>
<text text-anchor="middle" x="57" y="-175.5" font-family="Helvetica,sans-Serif" font-size="10.00">dji_version.hpp</text>
</a>
</g>
</g>
<!-- Node2&#45;&gt;Node18 -->
<g id="edge59" class="edge"><title>Node2&#45;&gt;Node18</title>
<path fill="none" stroke="midnightblue" d="M878.339,-345.168C723.407,-345.48 175.555,-343.474 112,-300 77.3495,-276.298 64.1712,-225.172 59.4462,-197.573"/>
<polygon fill="midnightblue" stroke="midnightblue" points="62.8995,-197.001 57.9405,-187.638 55.9786,-198.05 62.8995,-197.001"/>
</g>
<!-- Node20 -->
<g id="node20" class="node"><title>Node20</title>
<g id="a_node20"><a xlink:href="dji__gimbal_8hpp.html" target="_top" xlink:title="Gimbal API for OSDK library. ">
<polygon fill="white" stroke="black" points="154.5,-168.5 154.5,-187.5 233.5,-187.5 233.5,-168.5 154.5,-168.5"/>
<text text-anchor="middle" x="194" y="-175.5" font-family="Helvetica,sans-Serif" font-size="10.00">dji_gimbal.hpp</text>
</a>
</g>
</g>
<!-- Node2&#45;&gt;Node20 -->
<g id="edge31" class="edge"><title>Node2&#45;&gt;Node20</title>
<path fill="none" stroke="midnightblue" d="M878.213,-343.711C772.598,-340.01 492.285,-327.789 404,-300 327.409,-275.892 248.316,-220.491 213.009,-193.846"/>
<polygon fill="midnightblue" stroke="midnightblue" points="215.075,-191.02 205.004,-187.728 210.824,-196.581 215.075,-191.02"/>
</g>
<!-- Node21 -->
<g id="node21" class="node"><title>Node21</title>
<polygon fill="white" stroke="#bfbfbf" points="1011,-280.5 1011,-299.5 1109,-299.5 1109,-280.5 1011,-280.5"/>
<text text-anchor="middle" x="1060" y="-287.5" font-family="Helvetica,sans-Serif" font-size="10.00">dji_hard_driver.hpp</text>
</g>
<!-- Node2&#45;&gt;Node21 -->
<g id="edge34" class="edge"><title>Node2&#45;&gt;Node21</title>
<path fill="none" stroke="midnightblue" d="M941.342,-336.444C964.753,-327.478 1001.74,-313.314 1028.19,-303.183"/>
<polygon fill="midnightblue" stroke="midnightblue" points="1029.68,-306.361 1037.76,-299.516 1027.17,-299.824 1029.68,-306.361"/>
</g>
<!-- Node22 -->
<g id="node22" class="node"><title>Node22</title>
<g id="a_node22"><a xlink:href="dji__hardware__sync_8hpp.html" target="_top" xlink:title="Hardware Sync API for DJI OSDK. ">
<polygon fill="white" stroke="black" points="792,-224.5 792,-243.5 908,-243.5 908,-224.5 792,-224.5"/>
<text text-anchor="middle" x="850" y="-231.5" font-family="Helvetica,sans-Serif" font-size="10.00">dji_hardware_sync.hpp</text>
</a>
</g>
</g>
<!-- Node2&#45;&gt;Node22 -->
<g id="edge35" class="edge"><title>Node2&#45;&gt;Node22</title>
<path fill="none" stroke="midnightblue" d="M913.586,-336.368C902.249,-318.296 875.829,-276.176 860.856,-252.307"/>
<polygon fill="midnightblue" stroke="midnightblue" points="863.668,-250.203 855.389,-243.591 857.738,-253.923 863.668,-250.203"/>
</g>
<!-- Node23 -->
<g id="node23" class="node"><title>Node23</title>
<g id="a_node23"><a xlink:href="dji__mfio_8hpp.html" target="_top" xlink:title="MFIO API for DJI OSDK library. ">
<polygon fill="white" stroke="black" points="1190.5,-224.5 1190.5,-243.5 1259.5,-243.5 1259.5,-224.5 1190.5,-224.5"/>
<text text-anchor="middle" x="1225" y="-231.5" font-family="Helvetica,sans-Serif" font-size="10.00">dji_mfio.hpp</text>
</a>
</g>
</g>
<!-- Node2&#45;&gt;Node23 -->
<g id="edge37" class="edge"><title>Node2&#45;&gt;Node23</title>
<path fill="none" stroke="midnightblue" d="M959.672,-337.477C1017.73,-326.594 1119.14,-306.996 1135,-300 1163.19,-287.566 1191.26,-265.318 1208.38,-250.36"/>
<polygon fill="midnightblue" stroke="midnightblue" points="1210.73,-252.952 1215.85,-243.677 1206.06,-247.734 1210.73,-252.952"/>
</g>
<!-- Node24 -->
<g id="node24" class="node"><title>Node24</title>
<g id="a_node24"><a xlink:href="dji__mission__manager_8hpp.html" target="_top" xlink:title="Mission&#45;Manager API for DJI OSDK library. ">
<polygon fill="white" stroke="black" points="453.5,-280.5 453.5,-299.5 580.5,-299.5 580.5,-280.5 453.5,-280.5"/>
<text text-anchor="middle" x="517" y="-287.5" font-family="Helvetica,sans-Serif" font-size="10.00">dji_mission_manager.hpp</text>
</a>
</g>
</g>
<!-- Node2&#45;&gt;Node24 -->
<g id="edge39" class="edge"><title>Node2&#45;&gt;Node24</title>
<path fill="none" stroke="midnightblue" d="M878.242,-339.525C810.82,-330.468 675.138,-312.242 590.603,-300.887"/>
<polygon fill="midnightblue" stroke="midnightblue" points="590.932,-297.4 580.555,-299.537 590,-304.338 590.932,-297.4"/>
</g>
<!-- Node28 -->
<g id="node28" class="node"><title>Node28</title>
<g id="a_node28"><a xlink:href="dji__mobile__communication_8hpp.html" target="_top" xlink:title="Implementation of DJI Mobile&#45;Onboard SDK Communication (MOC) ">
<polygon fill="white" stroke="black" points="1277,-224.5 1277,-243.5 1427,-243.5 1427,-224.5 1277,-224.5"/>
<text text-anchor="middle" x="1352" y="-231.5" font-family="Helvetica,sans-Serif" font-size="10.00">dji_mobile_communication.hpp</text>
</a>
</g>
</g>
<!-- Node2&#45;&gt;Node28 -->
<g id="edge48" class="edge"><title>Node2&#45;&gt;Node28</title>
<path fill="none" stroke="midnightblue" d="M959.64,-337.527C962.469,-337.009 965.277,-336.496 968,-336 1056.42,-319.882 1080.1,-322.969 1167,-300 1222.66,-285.288 1285.51,-261.651 1321.76,-247.299"/>
<polygon fill="midnightblue" stroke="midnightblue" points="1323.26,-250.468 1331.25,-243.512 1320.67,-243.966 1323.26,-250.468"/>
</g>
<!-- Node29 -->
<g id="node29" class="node"><title>Node29</title>
<g id="a_node29"><a xlink:href="dji__status_8hpp.html" target="_top" xlink:title="Status information for DJI Vehicle. ">
<polygon fill="white" stroke="black" points="1371.5,-280.5 1371.5,-299.5 1448.5,-299.5 1448.5,-280.5 1371.5,-280.5"/>
<text text-anchor="middle" x="1410" y="-287.5" font-family="Helvetica,sans-Serif" font-size="10.00">dji_status.hpp</text>
</a>
</g>
</g>
<!-- Node2&#45;&gt;Node29 -->
<g id="edge51" class="edge"><title>Node2&#45;&gt;Node29</title>
<path fill="none" stroke="midnightblue" d="M959.597,-337.255C962.436,-336.802 965.258,-336.378 968,-336 1140,-312.293 1184.84,-322.55 1357,-300 1358.3,-299.83 1359.62,-299.651 1360.95,-299.465"/>
<polygon fill="midnightblue" stroke="midnightblue" points="1361.89,-302.863 1371.26,-297.927 1360.86,-295.94 1361.89,-302.863"/>
</g>
<!-- Node30 -->
<g id="node30" class="node"><title>Node30</title>
<g id="a_node30"><a xlink:href="dji__subscription_8hpp.html" target="_top" xlink:title="Telemetry Subscription API for DJI OSDK library. ">
<polygon fill="white" stroke="black" points="1483.5,-224.5 1483.5,-243.5 1586.5,-243.5 1586.5,-224.5 1483.5,-224.5"/>
<text text-anchor="middle" x="1535" y="-231.5" font-family="Helvetica,sans-Serif" font-size="10.00">dji_subscription.hpp</text>
</a>
</g>
</g>
<!-- Node2&#45;&gt;Node30 -->
<g id="edge52" class="edge"><title>Node2&#45;&gt;Node30</title>
<path fill="none" stroke="midnightblue" d="M959.589,-337.195C962.43,-336.756 965.255,-336.352 968,-336 1076.3,-322.118 1356.9,-341.228 1458,-300 1483.7,-289.521 1507.11,-267.072 1521.21,-251.51"/>
<polygon fill="midnightblue" stroke="midnightblue" points="1524.09,-253.528 1528.03,-243.693 1518.82,-248.923 1524.09,-253.528"/>
</g>
<!-- Node31 -->
<g id="node31" class="node"><title>Node31</title>
<polygon fill="white" stroke="#bfbfbf" points="1505,-280.5 1505,-299.5 1625,-299.5 1625,-280.5 1505,-280.5"/>
<text text-anchor="middle" x="1565" y="-287.5" font-family="Helvetica,sans-Serif" font-size="10.00">dji_thread_manager.hpp</text>
</g>
<!-- Node2&#45;&gt;Node31 -->
<g id="edge56" class="edge"><title>Node2&#45;&gt;Node31</title>
<path fill="none" stroke="midnightblue" d="M959.587,-337.18C962.429,-336.745 965.254,-336.346 968,-336 1199.17,-306.908 1259.05,-322.072 1491,-300 1492.27,-299.879 1493.55,-299.755 1494.84,-299.626"/>
<polygon fill="midnightblue" stroke="midnightblue" points="1495.27,-303.1 1504.85,-298.582 1494.54,-296.138 1495.27,-303.1"/>
</g>
<!-- Node32 -->
<g id="node32" class="node"><title>Node32</title>
<g id="a_node32"><a xlink:href="dji__virtual__rc_8hpp.html" target="_top" xlink:title="Virtual Radio Control API for DJI onboardSDK library. ">
<polygon fill="white" stroke="black" points="599,-280.5 599,-299.5 689,-299.5 689,-280.5 599,-280.5"/>
<text text-anchor="middle" x="644" y="-287.5" font-family="Helvetica,sans-Serif" font-size="10.00">dji_virtual_rc.hpp</text>
</a>
</g>
</g>
<!-- Node2&#45;&gt;Node32 -->
<g id="edge60" class="edge"><title>Node2&#45;&gt;Node32</title>
<path fill="none" stroke="midnightblue" d="M878.423,-337.032C830.42,-327.606 750.35,-311.883 697.362,-301.478"/>
<polygon fill="midnightblue" stroke="midnightblue" points="697.957,-298.028 687.47,-299.536 696.608,-304.897 697.957,-298.028"/>
</g>
<!-- Node5 -->
<g id="node5" class="node"><title>Node5</title>
<g id="a_node5"><a xlink:href="dji__telemetry_8hpp.html" target="_top" xlink:title="Enumeration of all telemetry data types, structures and maps. ">
<polygon fill="white" stroke="black" points="928.5,-168.5 928.5,-187.5 1019.5,-187.5 1019.5,-168.5 928.5,-168.5"/>
<text text-anchor="middle" x="974" y="-175.5" font-family="Helvetica,sans-Serif" font-size="10.00">dji_telemetry.hpp</text>
</a>
</g>
</g>
<!-- Node4&#45;&gt;Node5 -->
<g id="edge4" class="edge"><title>Node4&#45;&gt;Node5</title>
<path fill="none" stroke="midnightblue" d="M1069.09,-224.444C1050.75,-215.675 1021.99,-201.935 1000.91,-191.858"/>
<polygon fill="midnightblue" stroke="midnightblue" points="1002.35,-188.67 991.821,-187.516 999.335,-194.986 1002.35,-188.67"/>
</g>
<!-- Node4&#45;&gt;Node9 -->
<g id="edge8" class="edge"><title>Node4&#45;&gt;Node9</title>
<path fill="none" stroke="midnightblue" d="M1092.7,-224.471C1102.41,-210.586 1123.51,-183.128 1148,-168 1174.85,-151.41 1208.18,-140.633 1236.69,-133.799"/>
<polygon fill="midnightblue" stroke="midnightblue" points="1237.58,-137.185 1246.55,-131.543 1236.02,-130.361 1237.58,-137.185"/>
</g>
<!-- Node5&#45;&gt;Node6 -->
<g id="edge5" class="edge"><title>Node5&#45;&gt;Node6</title>
<path fill="none" stroke="midnightblue" d="M928.258,-169.032C869.313,-158.764 767.476,-141.025 708.928,-130.826"/>
<polygon fill="midnightblue" stroke="midnightblue" points="709.322,-127.342 698.869,-129.074 708.12,-134.238 709.322,-127.342"/>
</g>
<!-- Node7 -->
<g id="node7" class="node"><title>Node7</title>
<polygon fill="white" stroke="#bfbfbf" points="642.5,-56.5 642.5,-75.5 685.5,-75.5 685.5,-56.5 642.5,-56.5"/>
<text text-anchor="middle" x="664" y="-63.5" font-family="Helvetica,sans-Serif" font-size="10.00">cstdio</text>
</g>
<!-- Node6&#45;&gt;Node7 -->
<g id="edge6" class="edge"><title>Node6&#45;&gt;Node7</title>
<path fill="none" stroke="midnightblue" d="M664,-112.083C664,-105.006 664,-94.8611 664,-85.9865"/>
<polygon fill="midnightblue" stroke="midnightblue" points="667.5,-85.751 664,-75.7511 660.5,-85.7511 667.5,-85.751"/>
</g>
<!-- Node8 -->
<g id="node8" class="node"><title>Node8</title>
<polygon fill="white" stroke="#bfbfbf" points="331.5,-0.5 331.5,-19.5 380.5,-19.5 380.5,-0.5 331.5,-0.5"/>
<text text-anchor="middle" x="356" y="-7.5" font-family="Helvetica,sans-Serif" font-size="10.00">stdint.h</text>
</g>
<!-- Node6&#45;&gt;Node8 -->
<g id="edge7" class="edge"><title>Node6&#45;&gt;Node8</title>
<path fill="none" stroke="midnightblue" d="M640.088,-112.46C585.618,-93.0065 452.195,-45.3553 389.535,-22.9768"/>
<polygon fill="midnightblue" stroke="midnightblue" points="390.704,-19.6777 380.109,-19.6104 388.349,-26.2699 390.704,-19.6777"/>
</g>
<!-- Node9&#45;&gt;Node10 -->
<g id="edge9" class="edge"><title>Node9&#45;&gt;Node10</title>
<path fill="none" stroke="midnightblue" d="M1336.39,-112.444C1377.39,-103.063 1443.25,-87.9926 1487.78,-77.8036"/>
<polygon fill="midnightblue" stroke="midnightblue" points="1488.81,-81.1588 1497.78,-75.5164 1487.25,-74.3352 1488.81,-81.1588"/>
</g>
<!-- Node11&#45;&gt;Node6 -->
<g id="edge15" class="edge"><title>Node11&#45;&gt;Node6</title>
<path fill="none" stroke="midnightblue" d="M334.837,-170.91C405.279,-160.657 546.938,-140.039 619.275,-129.51"/>
<polygon fill="midnightblue" stroke="midnightblue" points="620.036,-132.936 629.428,-128.032 619.028,-126.009 620.036,-132.936"/>
</g>
<!-- Node11&#45;&gt;Node12 -->
<g id="edge11" class="edge"><title>Node11&#45;&gt;Node12</title>
<path fill="none" stroke="midnightblue" d="M293,-168.083C293,-161.006 293,-150.861 293,-141.986"/>
<polygon fill="midnightblue" stroke="midnightblue" points="296.5,-141.751 293,-131.751 289.5,-141.751 296.5,-141.751"/>
</g>
<!-- Node12&#45;&gt;Node8 -->
<g id="edge14" class="edge"><title>Node12&#45;&gt;Node8</title>
<path fill="none" stroke="midnightblue" d="M304.343,-112.179C314.307,-103.859 328.504,-90.5244 337,-76 345.44,-61.5704 350.366,-43.1178 353.078,-29.5626"/>
<polygon fill="midnightblue" stroke="midnightblue" points="356.558,-29.9822 354.863,-19.5238 349.666,-28.7564 356.558,-29.9822"/>
</g>
<!-- Node13 -->
<g id="node13" class="node"><title>Node13</title>
<g id="a_node13"><a xlink:href="dji__error_8hpp.html" target="_top" xlink:title="All DJI OSDK OpenProtocol ACK Error Codes. ">
<polygon fill="white" stroke="black" points="258,-56.5 258,-75.5 328,-75.5 328,-56.5 258,-56.5"/>
<text text-anchor="middle" x="293" y="-63.5" font-family="Helvetica,sans-Serif" font-size="10.00">dji_error.hpp</text>
</a>
</g>
</g>
<!-- Node12&#45;&gt;Node13 -->
<g id="edge12" class="edge"><title>Node12&#45;&gt;Node13</title>
<path fill="none" stroke="midnightblue" d="M293,-112.083C293,-105.006 293,-94.8611 293,-85.9865"/>
<polygon fill="midnightblue" stroke="midnightblue" points="296.5,-85.751 293,-75.7511 289.5,-85.7511 296.5,-85.751"/>
</g>
<!-- Node13&#45;&gt;Node8 -->
<g id="edge13" class="edge"><title>Node13&#45;&gt;Node8</title>
<path fill="none" stroke="midnightblue" d="M303.122,-56.324C312.526,-48.2631 326.744,-36.0765 338.069,-26.3695"/>
<polygon fill="midnightblue" stroke="midnightblue" points="340.379,-28.9993 345.694,-19.8339 335.823,-23.6844 340.379,-28.9993"/>
</g>
<!-- Node15&#45;&gt;Node6 -->
<g id="edge29" class="edge"><title>Node15&#45;&gt;Node6</title>
<path fill="none" stroke="midnightblue" d="M949.8,-280.082C944.618,-266.623 933.298,-240.899 917,-224 860.285,-165.193 764.908,-139.761 708.873,-129.439"/>
<polygon fill="midnightblue" stroke="midnightblue" points="709.341,-125.968 698.886,-127.683 708.129,-132.862 709.341,-125.968"/>
</g>
<!-- Node15&#45;&gt;Node9 -->
<g id="edge30" class="edge"><title>Node15&#45;&gt;Node9</title>
<path fill="none" stroke="midnightblue" d="M993.064,-281.519C1040.39,-272.325 1115.97,-256.419 1142,-244 1199.98,-216.335 1256.89,-164.671 1283.46,-138.723"/>
<polygon fill="midnightblue" stroke="midnightblue" points="1286.05,-141.076 1290.69,-131.551 1281.13,-136.103 1286.05,-141.076"/>
</g>
<!-- Node15&#45;&gt;Node10 -->
<g id="edge28" class="edge"><title>Node15&#45;&gt;Node10</title>
<path fill="none" stroke="midnightblue" d="M962.754,-280.145C977.195,-267.206 1005.33,-242.646 1031,-224 1068.81,-196.535 1079.4,-191.145 1120,-168 1167.32,-141.027 1177.14,-128.63 1229,-112 1309.28,-86.2566 1406.19,-75.1638 1469.13,-70.4343"/>
<polygon fill="midnightblue" stroke="midnightblue" points="1469.6,-73.9101 1479.32,-69.7022 1469.1,-66.9281 1469.6,-73.9101"/>
</g>
<!-- Node16 -->
<g id="node16" class="node"><title>Node16</title>
<g id="a_node16"><a xlink:href="dji__ack_8hpp.html" target="_top" xlink:title="All DJI OSDK ACK parsing. ">
<polygon fill="white" stroke="black" points="421,-224.5 421,-243.5 487,-243.5 487,-224.5 421,-224.5"/>
<text text-anchor="middle" x="454" y="-231.5" font-family="Helvetica,sans-Serif" font-size="10.00">dji_ack.hpp</text>
</a>
</g>
</g>
<!-- Node15&#45;&gt;Node16 -->
<g id="edge19" class="edge"><title>Node15&#45;&gt;Node16</title>
<path fill="none" stroke="midnightblue" d="M912.983,-285.645C820.432,-277.794 592.819,-257.94 497.309,-244.013"/>
<polygon fill="midnightblue" stroke="midnightblue" points="497.818,-240.55 487.407,-242.515 496.771,-247.471 497.818,-240.55"/>
</g>
<!-- Node16&#45;&gt;Node6 -->
<g id="edge23" class="edge"><title>Node16&#45;&gt;Node6</title>
<path fill="none" stroke="midnightblue" d="M443.402,-224.312C428.612,-211.152 405.171,-185.814 420,-168 444.865,-138.129 555.915,-128.011 619.291,-124.64"/>
<polygon fill="midnightblue" stroke="midnightblue" points="619.595,-128.129 629.409,-124.137 619.248,-121.138 619.595,-128.129"/>
</g>
<!-- Node16&#45;&gt;Node12 -->
<g id="edge20" class="edge"><title>Node16&#45;&gt;Node12</title>
<path fill="none" stroke="midnightblue" d="M441.121,-224.425C427.605,-215.408 405.758,-200.784 387,-188 361.664,-170.733 332.665,-150.628 313.657,-137.403"/>
<polygon fill="midnightblue" stroke="midnightblue" points="315.638,-134.518 305.431,-131.676 311.638,-140.262 315.638,-134.518"/>
</g>
<!-- Node17 -->
<g id="node17" class="node"><title>Node17</title>
<g id="a_node17"><a xlink:href="dji__mission__type_8hpp.html" target="_top" xlink:title="Mission related data struct for DJI OSDK library. ">
<polygon fill="white" stroke="black" points="429,-168.5 429,-187.5 537,-187.5 537,-168.5 429,-168.5"/>
<text text-anchor="middle" x="483" y="-175.5" font-family="Helvetica,sans-Serif" font-size="10.00">dji_mission_type.hpp</text>
</a>
</g>
</g>
<!-- Node16&#45;&gt;Node17 -->
<g id="edge21" class="edge"><title>Node16&#45;&gt;Node17</title>
<path fill="none" stroke="midnightblue" d="M458.789,-224.083C462.758,-216.691 468.525,-205.953 473.435,-196.811"/>
<polygon fill="midnightblue" stroke="midnightblue" points="476.653,-198.217 478.3,-187.751 470.486,-194.905 476.653,-198.217"/>
</g>
<!-- Node16&#45;&gt;Node18 -->
<g id="edge24" class="edge"><title>Node16&#45;&gt;Node18</title>
<path fill="none" stroke="midnightblue" d="M420.835,-228.489C351.513,-219.06 190.87,-197.209 108.193,-185.963"/>
<polygon fill="midnightblue" stroke="midnightblue" points="108.648,-182.493 98.2672,-184.613 107.704,-189.429 108.648,-182.493"/>
</g>
<!-- Node19 -->
<g id="node19" class="node"><title>Node19</title>
<polygon fill="white" stroke="#bfbfbf" points="555.5,-168.5 555.5,-187.5 590.5,-187.5 590.5,-168.5 555.5,-168.5"/>
<text text-anchor="middle" x="573" y="-175.5" font-family="Helvetica,sans-Serif" font-size="10.00">map</text>
</g>
<!-- Node16&#45;&gt;Node19 -->
<g id="edge27" class="edge"><title>Node16&#45;&gt;Node19</title>
<path fill="none" stroke="midnightblue" d="M472.856,-224.444C492.609,-215.48 523.809,-201.322 546.134,-191.191"/>
<polygon fill="midnightblue" stroke="midnightblue" points="547.736,-194.308 555.396,-186.988 544.844,-187.933 547.736,-194.308"/>
</g>
<!-- Node17&#45;&gt;Node6 -->
<g id="edge22" class="edge"><title>Node17&#45;&gt;Node6</title>
<path fill="none" stroke="midnightblue" d="M511.68,-168.444C542.527,-159.241 591.728,-144.562 625.829,-134.388"/>
<polygon fill="midnightblue" stroke="midnightblue" points="626.872,-137.729 635.454,-131.516 624.871,-131.021 626.872,-137.729"/>
</g>
<!-- Node18&#45;&gt;Node3 -->
<g id="edge26" class="edge"><title>Node18&#45;&gt;Node3</title>
<path fill="none" stroke="midnightblue" d="M51.3856,-168.083C46.6326,-160.534 39.6819,-149.495 33.8484,-140.23"/>
<polygon fill="midnightblue" stroke="midnightblue" points="36.7999,-138.349 28.5099,-131.751 30.8763,-142.078 36.7999,-138.349"/>
</g>
<!-- Node18&#45;&gt;Node12 -->
<g id="edge25" class="edge"><title>Node18&#45;&gt;Node12</title>
<path fill="none" stroke="midnightblue" d="M94.3949,-168.444C135.392,-159.063 201.254,-143.993 245.784,-133.804"/>
<polygon fill="midnightblue" stroke="midnightblue" points="246.813,-137.159 255.78,-131.516 245.251,-130.335 246.813,-137.159"/>
</g>
<!-- Node20&#45;&gt;Node6 -->
<g id="edge33" class="edge"><title>Node20&#45;&gt;Node6</title>
<path fill="none" stroke="midnightblue" d="M233.511,-169.335C236.38,-168.858 239.232,-168.406 242,-168 378.809,-147.912 541.825,-133.092 619.099,-126.613"/>
<polygon fill="midnightblue" stroke="midnightblue" points="619.746,-130.071 629.422,-125.754 619.166,-123.095 619.746,-130.071"/>
</g>
<!-- Node20&#45;&gt;Node12 -->
<g id="edge32" class="edge"><title>Node20&#45;&gt;Node12</title>
<path fill="none" stroke="midnightblue" d="M209.906,-168.324C225.638,-159.743 249.942,-146.486 268.209,-136.522"/>
<polygon fill="midnightblue" stroke="midnightblue" points="270.03,-139.516 277.133,-131.655 266.678,-133.37 270.03,-139.516"/>
</g>
<!-- Node22&#45;&gt;Node6 -->
<g id="edge36" class="edge"><title>Node22&#45;&gt;Node6</title>
<path fill="none" stroke="midnightblue" d="M845.287,-224.074C837.484,-210.128 820.577,-183.198 799,-168 772.017,-148.995 736.431,-137.57 708.571,-130.991"/>
<polygon fill="midnightblue" stroke="midnightblue" points="709.209,-127.547 698.686,-128.781 707.681,-134.378 709.209,-127.547"/>
</g>
<!-- Node23&#45;&gt;Node9 -->
<g id="edge38" class="edge"><title>Node23&#45;&gt;Node9</title>
<path fill="none" stroke="midnightblue" d="M1230.81,-224.368C1243.02,-206.215 1271.55,-163.802 1287.57,-139.99"/>
<polygon fill="midnightblue" stroke="midnightblue" points="1290.54,-141.842 1293.22,-131.591 1284.73,-137.935 1290.54,-141.842"/>
</g>
<!-- Node25 -->
<g id="node25" class="node"><title>Node25</title>
<g id="a_node25"><a xlink:href="dji__hotpoint_8hpp.html" target="_top" xlink:title="Implementation of HotPoint (Point of Interest) Missions for DJI OSDK. ">
<polygon fill="white" stroke="black" points="612.5,-224.5 612.5,-243.5 697.5,-243.5 697.5,-224.5 612.5,-224.5"/>
<text text-anchor="middle" x="655" y="-231.5" font-family="Helvetica,sans-Serif" font-size="10.00">dji_hotpoint.hpp</text>
</a>
</g>
</g>
<!-- Node24&#45;&gt;Node25 -->
<g id="edge40" class="edge"><title>Node24&#45;&gt;Node25</title>
<path fill="none" stroke="midnightblue" d="M538.867,-280.444C561.779,-271.478 597.975,-257.314 623.866,-247.183"/>
<polygon fill="midnightblue" stroke="midnightblue" points="625.199,-250.42 633.236,-243.516 622.648,-243.901 625.199,-250.42"/>
</g>
<!-- Node27 -->
<g id="node27" class="node"><title>Node27</title>
<g id="a_node27"><a xlink:href="dji__waypoint_8hpp.html" target="_top" xlink:title="Implementation of GPS Waypoint Missions for DJI OSDK. ">
<polygon fill="white" stroke="black" points="505.5,-224.5 505.5,-243.5 594.5,-243.5 594.5,-224.5 505.5,-224.5"/>
<text text-anchor="middle" x="550" y="-231.5" font-family="Helvetica,sans-Serif" font-size="10.00">dji_waypoint.hpp</text>
</a>
</g>
</g>
<!-- Node24&#45;&gt;Node27 -->
<g id="edge46" class="edge"><title>Node24&#45;&gt;Node27</title>
<path fill="none" stroke="midnightblue" d="M522.449,-280.083C527.014,-272.613 533.668,-261.724 539.293,-252.52"/>
<polygon fill="midnightblue" stroke="midnightblue" points="542.424,-254.109 544.652,-243.751 536.451,-250.459 542.424,-254.109"/>
</g>
<!-- Node25&#45;&gt;Node5 -->
<g id="edge45" class="edge"><title>Node25&#45;&gt;Node5</title>
<path fill="none" stroke="midnightblue" d="M697.691,-225.773C754.622,-216.136 855.503,-199.059 918.344,-188.421"/>
<polygon fill="midnightblue" stroke="midnightblue" points="919.196,-191.827 928.471,-186.707 918.027,-184.925 919.196,-191.827"/>
</g>
<!-- Node26 -->
<g id="node26" class="node"><title>Node26</title>
<g id="a_node26"><a xlink:href="dji__mission__base_8hpp.html" target="_top" xlink:title="Mission&#45;Base abstract class for DJI OSDK library. ">
<polygon fill="white" stroke="black" points="609,-168.5 609,-187.5 719,-187.5 719,-168.5 609,-168.5"/>
<text text-anchor="middle" x="664" y="-175.5" font-family="Helvetica,sans-Serif" font-size="10.00">dji_mission_base.hpp</text>
</a>
</g>
</g>
<!-- Node25&#45;&gt;Node26 -->
<g id="edge41" class="edge"><title>Node25&#45;&gt;Node26</title>
<path fill="none" stroke="midnightblue" d="M656.486,-224.083C657.679,-216.927 659.394,-206.635 660.885,-197.691"/>
<polygon fill="midnightblue" stroke="midnightblue" points="664.35,-198.19 662.541,-187.751 657.445,-197.04 664.35,-198.19"/>
</g>
<!-- Node26&#45;&gt;Node6 -->
<g id="edge43" class="edge"><title>Node26&#45;&gt;Node6</title>
<path fill="none" stroke="midnightblue" d="M664,-168.083C664,-161.006 664,-150.861 664,-141.986"/>
<polygon fill="midnightblue" stroke="midnightblue" points="667.5,-141.751 664,-131.751 660.5,-141.751 667.5,-141.751"/>
</g>
<!-- Node26&#45;&gt;Node9 -->
<g id="edge44" class="edge"><title>Node26&#45;&gt;Node9</title>
<path fill="none" stroke="midnightblue" d="M719.241,-172.302C834.405,-162.509 1100.03,-139.92 1227.81,-129.054"/>
<polygon fill="midnightblue" stroke="midnightblue" points="1228.21,-132.532 1237.88,-128.198 1227.62,-125.558 1228.21,-132.532"/>
</g>
<!-- Node26&#45;&gt;Node12 -->
<g id="edge42" class="edge"><title>Node26&#45;&gt;Node12</title>
<path fill="none" stroke="midnightblue" d="M608.858,-168.974C539.212,-158.837 419.994,-141.484 349.644,-131.245"/>
<polygon fill="midnightblue" stroke="midnightblue" points="350.031,-127.764 339.631,-129.787 349.022,-134.691 350.031,-127.764"/>
</g>
<!-- Node27&#45;&gt;Node26 -->
<g id="edge47" class="edge"><title>Node27&#45;&gt;Node26</title>
<path fill="none" stroke="midnightblue" d="M568.064,-224.444C586.575,-215.675 615.581,-201.935 636.855,-191.858"/>
<polygon fill="midnightblue" stroke="midnightblue" points="638.482,-194.96 646.021,-187.516 635.485,-188.634 638.482,-194.96"/>
</g>
<!-- Node28&#45;&gt;Node9 -->
<g id="edge49" class="edge"><title>Node28&#45;&gt;Node9</title>
<path fill="none" stroke="midnightblue" d="M1347.84,-224.368C1339.17,-206.376 1319.02,-164.55 1307.49,-140.627"/>
<polygon fill="midnightblue" stroke="midnightblue" points="1310.63,-139.081 1303.14,-131.591 1304.33,-142.119 1310.63,-139.081"/>
</g>
<!-- Node30&#45;&gt;Node5 -->
<g id="edge54" class="edge"><title>Node30&#45;&gt;Node5</title>
<path fill="none" stroke="midnightblue" d="M1483.23,-228.017C1377.72,-217.861 1138.64,-194.848 1029.82,-184.373"/>
<polygon fill="midnightblue" stroke="midnightblue" points="1029.99,-180.873 1019.7,-183.399 1029.32,-187.841 1029.99,-180.873"/>
</g>
<!-- Node30&#45;&gt;Node9 -->
<g id="edge55" class="edge"><title>Node30&#45;&gt;Node9</title>
<path fill="none" stroke="midnightblue" d="M1528.72,-224.402C1518.05,-210.417 1494.98,-182.818 1469,-168 1438.85,-150.805 1401.95,-140.007 1370.24,-133.316"/>
<polygon fill="midnightblue" stroke="midnightblue" points="1370.63,-129.826 1360.14,-131.285 1369.25,-136.688 1370.63,-129.826"/>
</g>
<!-- Node30&#45;&gt;Node10 -->
<g id="edge53" class="edge"><title>Node30&#45;&gt;Node10</title>
<path fill="none" stroke="midnightblue" d="M1535,-224.075C1535,-197.945 1535,-121.211 1535,-85.577"/>
<polygon fill="midnightblue" stroke="midnightblue" points="1538.5,-85.5681 1535,-75.5681 1531.5,-85.5681 1538.5,-85.5681"/>
</g>
<!-- Node32&#45;&gt;Node5 -->
<g id="edge64" class="edge"><title>Node32&#45;&gt;Node5</title>
<path fill="none" stroke="midnightblue" d="M689.08,-281.479C692.099,-280.978 695.093,-280.481 698,-280 795.315,-263.892 830.764,-291.887 917,-244 937.212,-232.777 953.737,-211.527 963.694,-196.38"/>
<polygon fill="midnightblue" stroke="midnightblue" points="966.675,-198.214 969.02,-187.882 960.744,-194.497 966.675,-198.214"/>
</g>
<!-- Node32&#45;&gt;Node6 -->
<g id="edge63" class="edge"><title>Node32&#45;&gt;Node6</title>
<path fill="none" stroke="midnightblue" d="M660.806,-280.359C674.602,-272.515 693.789,-259.777 706,-244 722.367,-222.853 723.024,-214.274 728,-188 729.654,-179.266 732.097,-175.889 728,-168 720.847,-154.226 707.329,-143.783 694.553,-136.441"/>
<polygon fill="midnightblue" stroke="midnightblue" points="695.958,-133.225 685.483,-131.64 692.683,-139.412 695.958,-133.225"/>
</g>
<!-- Node32&#45;&gt;Node10 -->
<g id="edge62" class="edge"><title>Node32&#45;&gt;Node10</title>
<path fill="none" stroke="midnightblue" d="M689.024,-281.063C692.056,-280.662 695.069,-280.302 698,-280 747.666,-274.886 1561.41,-280.005 1596,-244 1640.42,-197.76 1580.15,-117.673 1550.17,-83.3662"/>
<polygon fill="midnightblue" stroke="midnightblue" points="1552.56,-80.7904 1543.28,-75.6791 1547.35,-85.4621 1552.56,-80.7904"/>
</g>
<!-- Node32&#45;&gt;Node16 -->
<g id="edge61" class="edge"><title>Node32&#45;&gt;Node16</title>
<path fill="none" stroke="midnightblue" d="M613.894,-280.444C581.374,-271.201 529.421,-256.436 493.609,-246.257"/>
<polygon fill="midnightblue" stroke="midnightblue" points="494.541,-242.884 483.965,-243.516 492.627,-249.617 494.541,-242.884"/>
</g>
</g>
</svg>
        <g id="navigator" transform="translate(0 0)" fill="#404254">
                <rect fill="#f2f5e9" fill-opacity="0.5" stroke="#606060" stroke-width=".5" x="0" y="0" width="60" height="60"/>
                <use id="zoomplus" xlink:href="#zoomPlus" x="17" y="9" onmousedown="handleZoom(evt,'in')"/>
                <use id="zoomminus" xlink:href="#zoomMin" x="42" y="9" onmousedown="handleZoom(evt,'out')"/>
                <use id="reset" xlink:href="#resetDef" x="30" y="36" onmousedown="handleReset()"/>
                <g id="arrowUp" xlink:href="#dirArrow" transform="translate(30 24)" onmousedown="handlePan(0,-1)">
                  <use xlink:href="#rim" fill="#404040">
                        <set attributeName="fill" to="#808080" begin="arrowUp.mouseover" end="arrowUp.mouseout"/>
                  </use>
                  <path fill="none" stroke="white" stroke-width="1.5" d="M0,-3.0v7 M-2.5,-0.5L0,-3.0L2.5,-0.5"/>
                </g>
                <g id="arrowRight" xlink:href="#dirArrow" transform="rotate(90) translate(36 -43)" onmousedown="handlePan(1,0)">
                  <use xlink:href="#rim" fill="#404040">
                        <set attributeName="fill" to="#808080" begin="arrowRight.mouseover" end="arrowRight.mouseout"/>
                  </use>
                  <path fill="none" stroke="white" stroke-width="1.5" d="M0,-3.0v7 M-2.5,-0.5L0,-3.0L2.5,-0.5"/>
                </g>
                <g id="arrowDown" xlink:href="#dirArrow" transform="rotate(180) translate(-30 -48)" onmousedown="handlePan(0,1)">
                  <use xlink:href="#rim" fill="#404040">
                        <set attributeName="fill" to="#808080" begin="arrowDown.mouseover" end="arrowDown.mouseout"/>
                  </use>
                  <path fill="none" stroke="white" stroke-width="1.5" d="M0,-3.0v7 M-2.5,-0.5L0,-3.0L2.5,-0.5"/>
                </g>
                <g id="arrowLeft" xlink:href="#dirArrow" transform="rotate(270) translate(-36 17)" onmousedown="handlePan(-1,0)">
                  <use xlink:href="#rim" fill="#404040">
                        <set attributeName="fill" to="#808080" begin="arrowLeft.mouseover" end="arrowLeft.mouseout"/>
                  </use>
                  <path fill="none" stroke="white" stroke-width="1.5" d="M0,-3.0v7 M-2.5,-0.5L0,-3.0L2.5,-0.5"/>
                </g>
        </g>
        <svg viewBox="0 0 15 15" width="100%" height="30px" preserveAspectRatio="xMaxYMin meet">
         <g id="arrow_out" transform="scale(0.3 0.3)">
          <a xlink:href="dji__vehicle_8cpp__incl_org.svg" target="_base">
           <rect id="button" ry="5" rx="5" y="6" x="6" height="38" width="38"
                fill="#f2f5e9" fill-opacity="0.5" stroke="#606060" stroke-width="1.0"/>
           <path id="arrow"
             d="M 11.500037,31.436501 C 11.940474,20.09759 22.043105,11.32322 32.158766,21.979434 L 37.068811,17.246167 C 37.068811,17.246167 37.088388,32 37.088388,32 L 22.160133,31.978069 C 22.160133,31.978069 26.997745,27.140456 26.997745,27.140456 C 18.528582,18.264221 13.291696,25.230495 11.500037,31.436501 z"
             style="fill:#404040;"/>
          </a>
         </g>
        </svg>
</svg>
