<?xml version="1.0" encoding="UTF-8" standalone="no"?>
<!DOCTYPE svg PUBLIC "-//W3C//DTD SVG 1.1//EN"
 "http://www.w3.org/Graphics/SVG/1.1/DTD/svg11.dtd">
<!-- Generated by graphviz version 2.38.0 (20140413.2041)
 -->
<!-- Title: osdk&#45;core/api/src/dji_mfio.cpp Pages: 1 -->
<!--zoomable 431 -->
<svg id="main" version="1.1" xmlns="http://www.w3.org/2000/svg" xmlns:xlink="http://www.w3.org/1999/xlink" xml:space="preserve" onload="init(evt)">
<style type="text/css"><![CDATA[
.edge:hover path { stroke: red; }
.edge:hover polygon { stroke: red; fill: red; }
]]></style>
<script type="text/javascript"><![CDATA[
var edges = document.getElementsByTagName('g');
if (edges && edges.length) {
  for (var i=0;i<edges.length;i++) {
    if (edges[i].id.substr(0,4)=='edge') {
      edges[i].setAttribute('class','edge');
    }
  }
}
]]></script>
        <defs>
                <circle id="rim" cx="0" cy="0" r="7"/>
                <circle id="rim2" cx="0" cy="0" r="3.5"/>
                <g id="zoomPlus">
                        <use xlink:href="#rim" fill="#404040">
                                <set attributeName="fill" to="#808080" begin="zoomplus.mouseover" end="zoomplus.mouseout"/>
                        </use>
                        <path d="M-4,0h8M0,-4v8" fill="none" stroke="white" stroke-width="1.5" pointer-events="none"/>
                </g>
                <g id="zoomMin">
                        <use xlink:href="#rim" fill="#404040">
                                <set attributeName="fill" to="#808080" begin="zoomminus.mouseover" end="zoomminus.mouseout"/>
                        </use>
                        <path d="M-4,0h8" fill="none" stroke="white" stroke-width="1.5" pointer-events="none"/>
                </g>
                <g id="dirArrow">
                        <path fill="none" stroke="white" stroke-width="1.5" d="M0,-3.0v7 M-2.5,-0.5L0,-3.0L2.5,-0.5"/>
                </g>
               <g id="resetDef">
                       <use xlink:href="#rim2" fill="#404040">
                               <set attributeName="fill" to="#808080" begin="reset.mouseover" end="reset.mouseout"/>
                       </use>
               </g>
        </defs>

<script type="text/javascript">
var viewWidth = 2147;
var viewHeight = 431;
var sectionId = 'dynsection-0';
</script>
<script xlink:href="svgpan.js"/>
<svg id="graph" class="graph">
<g id="viewport">
<title>osdk&#45;core/api/src/dji_mfio.cpp</title>
<polygon fill="white" stroke="none" points="-4,4 -4,-427 2143.37,-427 2143.37,4 -4,4"/>
<!-- Node1 -->
<g id="node1" class="node"><title>Node1</title>
<polygon fill="#bfbfbf" stroke="black" points="678.5,-392.5 678.5,-422.5 782.5,-422.5 782.5,-392.5 678.5,-392.5"/>
<text text-anchor="start" x="686.5" y="-410.5" font-family="Helvetica,sans-Serif" font-size="10.00">osdk&#45;core/api/src/dji</text>
<text text-anchor="middle" x="730.5" y="-399.5" font-family="Helvetica,sans-Serif" font-size="10.00">_mfio.cpp</text>
</g>
<!-- Node2 -->
<g id="node2" class="node"><title>Node2</title>
<g id="a_node2"><a xlink:href="dji__mfio_8hpp.html" target="_top" xlink:title="MFIO API for DJI OSDK library. ">
<polygon fill="white" stroke="black" points="0,-280.5 0,-299.5 69,-299.5 69,-280.5 0,-280.5"/>
<text text-anchor="middle" x="34.5" y="-287.5" font-family="Helvetica,sans-Serif" font-size="10.00">dji_mfio.hpp</text>
</a>
</g>
</g>
<!-- Node1&#45;&gt;Node2 -->
<g id="edge1" class="edge"><title>Node1&#45;&gt;Node2</title>
<path fill="none" stroke="midnightblue" d="M678.448,-398.267C568.477,-380.799 304.436,-338.47 83.5,-300 82.0354,-299.745 80.5467,-299.484 79.0435,-299.218"/>
<polygon fill="midnightblue" stroke="midnightblue" points="79.4796,-295.74 69.0192,-297.423 78.2458,-302.631 79.4796,-295.74"/>
</g>
<!-- Node5 -->
<g id="node5" class="node"><title>Node5</title>
<g id="a_node5"><a xlink:href="dji__vehicle_8hpp.html" target="_top" xlink:title="Vehicle API for DJI onboardSDK library. ">
<polygon fill="white" stroke="black" points="945,-336.5 945,-355.5 1026,-355.5 1026,-336.5 945,-336.5"/>
<text text-anchor="middle" x="985.5" y="-343.5" font-family="Helvetica,sans-Serif" font-size="10.00">dji_vehicle.hpp</text>
</a>
</g>
</g>
<!-- Node1&#45;&gt;Node5 -->
<g id="edge4" class="edge"><title>Node1&#45;&gt;Node5</title>
<path fill="none" stroke="midnightblue" d="M782.718,-394.316C828.68,-383.591 894.975,-368.122 939.105,-357.825"/>
<polygon fill="midnightblue" stroke="midnightblue" points="940.051,-361.199 948.994,-355.518 938.461,-354.382 940.051,-361.199"/>
</g>
<!-- Node3 -->
<g id="node3" class="node"><title>Node3</title>
<g id="a_node3"><a xlink:href="dji__vehicle__callback_8hpp.html" target="_top" xlink:title="Type definition for new Vehicle&#45;style callbacks. ">
<polygon fill="white" stroke="black" points="358.5,-112.5 358.5,-131.5 480.5,-131.5 480.5,-112.5 358.5,-112.5"/>
<text text-anchor="middle" x="419.5" y="-119.5" font-family="Helvetica,sans-Serif" font-size="10.00">dji_vehicle_callback.hpp</text>
</a>
</g>
</g>
<!-- Node2&#45;&gt;Node3 -->
<g id="edge2" class="edge"><title>Node2&#45;&gt;Node3</title>
<path fill="none" stroke="midnightblue" d="M42.3559,-280.214C54.5399,-266.926 79.1362,-241.423 103.5,-224 146.84,-193.007 159.423,-186.198 209.5,-168 254.5,-151.647 307.194,-140.377 348.54,-133.205"/>
<polygon fill="midnightblue" stroke="midnightblue" points="349.25,-136.635 358.526,-131.514 348.082,-129.733 349.25,-136.635"/>
</g>
<!-- Node4 -->
<g id="node4" class="node"><title>Node4</title>
<polygon fill="white" stroke="#bfbfbf" points="453,-56.5 453,-75.5 564,-75.5 564,-56.5 453,-56.5"/>
<text text-anchor="middle" x="508.5" y="-63.5" font-family="Helvetica,sans-Serif" font-size="10.00">dji_open_protocol.hpp</text>
</g>
<!-- Node3&#45;&gt;Node4 -->
<g id="edge3" class="edge"><title>Node3&#45;&gt;Node4</title>
<path fill="none" stroke="midnightblue" d="M433.799,-112.324C447.683,-103.9 468.992,-90.9709 485.304,-81.0741"/>
<polygon fill="midnightblue" stroke="midnightblue" points="487.502,-83.8341 494.236,-75.6545 483.871,-77.8495 487.502,-83.8341"/>
</g>
<!-- Node5&#45;&gt;Node2 -->
<g id="edge39" class="edge"><title>Node5&#45;&gt;Node2</title>
<path fill="none" stroke="midnightblue" d="M944.887,-344.877C817.477,-344.083 414.454,-338.479 83.5,-300 82.1952,-299.848 80.8727,-299.683 79.5393,-299.506"/>
<polygon fill="midnightblue" stroke="midnightblue" points="79.6215,-295.979 69.2134,-297.96 78.585,-302.902 79.6215,-295.979"/>
</g>
<!-- Node5&#45;&gt;Node3 -->
<g id="edge63" class="edge"><title>Node5&#45;&gt;Node3</title>
<path fill="none" stroke="midnightblue" d="M944.75,-344.374C807.15,-341.976 365.261,-331.847 310.5,-300 278.024,-281.114 256.058,-257.274 273.5,-224 296.978,-179.211 350.334,-150.346 385.625,-135.391"/>
<polygon fill="midnightblue" stroke="midnightblue" points="387.124,-138.559 395.06,-131.54 384.479,-132.078 387.124,-138.559"/>
</g>
<!-- Node5&#45;&gt;Node4 -->
<g id="edge54" class="edge"><title>Node5&#45;&gt;Node4</title>
<path fill="none" stroke="midnightblue" d="M944.692,-344.987C805.048,-344.577 347.195,-340.129 206.5,-300 156.392,-285.708 130.129,-288.788 103.5,-244 26.0104,-113.668 309.447,-79.0808 442.793,-70.0832"/>
<polygon fill="midnightblue" stroke="midnightblue" points="443.146,-73.5678 452.9,-69.4309 442.695,-66.5823 443.146,-73.5678"/>
</g>
<!-- Node6 -->
<g id="node6" class="node"><title>Node6</title>
<polygon fill="white" stroke="#bfbfbf" points="654.5,-112.5 654.5,-131.5 700.5,-131.5 700.5,-112.5 654.5,-112.5"/>
<text text-anchor="middle" x="677.5" y="-119.5" font-family="Helvetica,sans-Serif" font-size="10.00">cstdint</text>
</g>
<!-- Node5&#45;&gt;Node6 -->
<g id="edge5" class="edge"><title>Node5&#45;&gt;Node6</title>
<path fill="none" stroke="midnightblue" d="M944.651,-345.656C893.248,-344.745 803.802,-337.27 738.5,-300 681.308,-267.358 664.505,-249.702 641.5,-188 634.932,-170.383 647.512,-151.757 659.565,-138.981"/>
<polygon fill="midnightblue" stroke="midnightblue" points="662.149,-141.349 666.827,-131.843 657.242,-136.357 662.149,-141.349"/>
</g>
<!-- Node7 -->
<g id="node7" class="node"><title>Node7</title>
<g id="a_node7"><a xlink:href="dji__broadcast_8hpp.html" target="_top" xlink:title="Broadcast Telemetry API for DJI onboardSDK library. ">
<polygon fill="white" stroke="black" points="423,-224.5 423,-243.5 516,-243.5 516,-224.5 423,-224.5"/>
<text text-anchor="middle" x="469.5" y="-231.5" font-family="Helvetica,sans-Serif" font-size="10.00">dji_broadcast.hpp</text>
</a>
</g>
</g>
<!-- Node5&#45;&gt;Node7 -->
<g id="edge6" class="edge"><title>Node5&#45;&gt;Node7</title>
<path fill="none" stroke="midnightblue" d="M944.782,-342.498C880.587,-337.906 752.271,-326.104 646.5,-300 592.552,-286.686 532.327,-262.451 497.868,-247.631"/>
<polygon fill="midnightblue" stroke="midnightblue" points="499.014,-244.312 488.447,-243.537 496.224,-250.732 499.014,-244.312"/>
</g>
<!-- Node9 -->
<g id="node9" class="node"><title>Node9</title>
<g id="a_node9"><a xlink:href="dji__type_8hpp.html" target="_top" xlink:title="Data type and Data Structure definitions for use throughout DJI OSDK. ">
<polygon fill="white" stroke="black" points="1164,-112.5 1164,-131.5 1233,-131.5 1233,-112.5 1164,-112.5"/>
<text text-anchor="middle" x="1198.5" y="-119.5" font-family="Helvetica,sans-Serif" font-size="10.00">dji_type.hpp</text>
</a>
</g>
</g>
<!-- Node5&#45;&gt;Node9 -->
<g id="edge62" class="edge"><title>Node5&#45;&gt;Node9</title>
<path fill="none" stroke="midnightblue" d="M1026.16,-344.748C1087.54,-343.153 1206.65,-335.278 1300.5,-300 1343.19,-283.952 1364.4,-283.902 1386.5,-244 1402.86,-214.448 1408.44,-194.509 1387.5,-168 1369.85,-145.651 1293.25,-133.206 1243.15,-127.324"/>
<polygon fill="midnightblue" stroke="midnightblue" points="1243.53,-123.844 1233.2,-126.2 1242.74,-130.8 1243.53,-123.844"/>
</g>
<!-- Node12 -->
<g id="node12" class="node"><title>Node12</title>
<g id="a_node12"><a xlink:href="dji__camera_8hpp.html" target="_top" xlink:title="Camera/Gimbal API for DJI onboardSDK library. ">
<polygon fill="white" stroke="black" points="1532,-168.5 1532,-187.5 1615,-187.5 1615,-168.5 1532,-168.5"/>
<text text-anchor="middle" x="1573.5" y="-175.5" font-family="Helvetica,sans-Serif" font-size="10.00">dji_camera.hpp</text>
</a>
</g>
</g>
<!-- Node5&#45;&gt;Node12 -->
<g id="edge12" class="edge"><title>Node5&#45;&gt;Node12</title>
<path fill="none" stroke="midnightblue" d="M1026.13,-344.342C1124.02,-342.231 1370.3,-333.634 1444.5,-300 1496.51,-276.424 1541.03,-223.244 1561.5,-195.915"/>
<polygon fill="midnightblue" stroke="midnightblue" points="1564.42,-197.856 1567.49,-187.718 1558.77,-193.724 1564.42,-197.856"/>
</g>
<!-- Node13 -->
<g id="node13" class="node"><title>Node13</title>
<g id="a_node13"><a xlink:href="dji__command_8hpp.html" target="_top" xlink:title="All DJI OSDK OpenProtocol Command IDs. ">
<polygon fill="white" stroke="black" points="1292,-112.5 1292,-131.5 1385,-131.5 1385,-112.5 1292,-112.5"/>
<text text-anchor="middle" x="1338.5" y="-119.5" font-family="Helvetica,sans-Serif" font-size="10.00">dji_command.hpp</text>
</a>
</g>
</g>
<!-- Node5&#45;&gt;Node13 -->
<g id="edge19" class="edge"><title>Node5&#45;&gt;Node13</title>
<path fill="none" stroke="midnightblue" d="M1026.28,-344.958C1225.51,-344.555 2088.59,-340.475 2127.5,-300 2233.06,-190.2 1592.79,-139.369 1395.23,-126.428"/>
<polygon fill="midnightblue" stroke="midnightblue" points="1395.26,-122.923 1385.05,-125.77 1394.81,-129.909 1395.26,-122.923"/>
</g>
<!-- Node15 -->
<g id="node15" class="node"><title>Node15</title>
<polygon fill="white" stroke="#bfbfbf" points="1510.5,-280.5 1510.5,-299.5 1622.5,-299.5 1622.5,-280.5 1510.5,-280.5"/>
<text text-anchor="middle" x="1566.5" y="-287.5" font-family="Helvetica,sans-Serif" font-size="10.00">dji_circular_buffer.hpp</text>
</g>
<!-- Node5&#45;&gt;Node15 -->
<g id="edge18" class="edge"><title>Node5&#45;&gt;Node15</title>
<path fill="none" stroke="midnightblue" d="M1026.29,-341.966C1112.97,-335.395 1321.85,-318.91 1496.5,-300 1497.77,-299.863 1499.05,-299.722 1500.34,-299.578"/>
<polygon fill="midnightblue" stroke="midnightblue" points="1500.83,-303.044 1510.36,-298.419 1500.02,-296.091 1500.83,-303.044"/>
</g>
<!-- Node16 -->
<g id="node16" class="node"><title>Node16</title>
<g id="a_node16"><a xlink:href="dji__control_8hpp.html" target="_top" xlink:title="Control API for DJI OSDK library. ">
<polygon fill="white" stroke="black" points="747.5,-280.5 747.5,-299.5 827.5,-299.5 827.5,-280.5 747.5,-280.5"/>
<text text-anchor="middle" x="787.5" y="-287.5" font-family="Helvetica,sans-Serif" font-size="10.00">dji_control.hpp</text>
</a>
</g>
</g>
<!-- Node5&#45;&gt;Node16 -->
<g id="edge20" class="edge"><title>Node5&#45;&gt;Node16</title>
<path fill="none" stroke="midnightblue" d="M954.126,-336.444C920.237,-327.201 866.097,-312.436 828.776,-302.257"/>
<polygon fill="midnightblue" stroke="midnightblue" points="829.295,-298.771 818.727,-299.516 827.454,-305.524 829.295,-298.771"/>
</g>
<!-- Node19 -->
<g id="node19" class="node"><title>Node19</title>
<g id="a_node19"><a xlink:href="dji__version_8hpp.html" target="_top" xlink:title="Drone/SDK Version definition for DJI onboardSDK library. ">
<polygon fill="white" stroke="black" points="1054.5,-168.5 1054.5,-187.5 1136.5,-187.5 1136.5,-168.5 1054.5,-168.5"/>
<text text-anchor="middle" x="1095.5" y="-175.5" font-family="Helvetica,sans-Serif" font-size="10.00">dji_version.hpp</text>
</a>
</g>
</g>
<!-- Node5&#45;&gt;Node19 -->
<g id="edge64" class="edge"><title>Node5&#45;&gt;Node19</title>
<path fill="none" stroke="midnightblue" d="M988.132,-336.401C994.791,-315.581 1013.84,-261.425 1042.5,-224 1051.33,-212.47 1063.57,-201.838 1074.06,-193.807"/>
<polygon fill="midnightblue" stroke="midnightblue" points="1076.36,-196.455 1082.35,-187.71 1072.22,-190.816 1076.36,-196.455"/>
</g>
<!-- Node21 -->
<g id="node21" class="node"><title>Node21</title>
<g id="a_node21"><a xlink:href="dji__gimbal_8hpp.html" target="_top" xlink:title="Gimbal API for OSDK library. ">
<polygon fill="white" stroke="black" points="1435,-168.5 1435,-187.5 1514,-187.5 1514,-168.5 1435,-168.5"/>
<text text-anchor="middle" x="1474.5" y="-175.5" font-family="Helvetica,sans-Serif" font-size="10.00">dji_gimbal.hpp</text>
</a>
</g>
</g>
<!-- Node5&#45;&gt;Node21 -->
<g id="edge33" class="edge"><title>Node5&#45;&gt;Node21</title>
<path fill="none" stroke="midnightblue" d="M1026.29,-343.091C1128.37,-337.99 1388.95,-322.86 1420.5,-300 1454.24,-275.552 1467.27,-225.128 1472,-197.724"/>
<polygon fill="midnightblue" stroke="midnightblue" points="1475.51,-197.945 1473.56,-187.531 1468.59,-196.887 1475.51,-197.945"/>
</g>
<!-- Node22 -->
<g id="node22" class="node"><title>Node22</title>
<polygon fill="white" stroke="#bfbfbf" points="1640.5,-280.5 1640.5,-299.5 1738.5,-299.5 1738.5,-280.5 1640.5,-280.5"/>
<text text-anchor="middle" x="1689.5" y="-287.5" font-family="Helvetica,sans-Serif" font-size="10.00">dji_hard_driver.hpp</text>
</g>
<!-- Node5&#45;&gt;Node22 -->
<g id="edge36" class="edge"><title>Node5&#45;&gt;Node22</title>
<path fill="none" stroke="midnightblue" d="M1026.05,-343.366C1126.58,-339.06 1395.54,-325.984 1630.39,-300.029"/>
<polygon fill="midnightblue" stroke="midnightblue" points="1630.94,-303.489 1640.49,-298.902 1630.16,-296.533 1630.94,-303.489"/>
</g>
<!-- Node23 -->
<g id="node23" class="node"><title>Node23</title>
<g id="a_node23"><a xlink:href="dji__hardware__sync_8hpp.html" target="_top" xlink:title="Hardware Sync API for DJI OSDK. ">
<polygon fill="white" stroke="black" points="1051.5,-224.5 1051.5,-243.5 1167.5,-243.5 1167.5,-224.5 1051.5,-224.5"/>
<text text-anchor="middle" x="1109.5" y="-231.5" font-family="Helvetica,sans-Serif" font-size="10.00">dji_hardware_sync.hpp</text>
</a>
</g>
</g>
<!-- Node5&#45;&gt;Node23 -->
<g id="edge37" class="edge"><title>Node5&#45;&gt;Node23</title>
<path fill="none" stroke="midnightblue" d="M995.23,-336.368C1016.15,-317.814 1065.63,-273.913 1092.1,-250.438"/>
<polygon fill="midnightblue" stroke="midnightblue" points="1094.66,-252.846 1099.82,-243.591 1090.01,-247.609 1094.66,-252.846"/>
</g>
<!-- Node24 -->
<g id="node24" class="node"><title>Node24</title>
<g id="a_node24"><a xlink:href="dji__mission__manager_8hpp.html" target="_top" xlink:title="Mission&#45;Manager API for DJI OSDK library. ">
<polygon fill="white" stroke="black" points="1165,-280.5 1165,-299.5 1292,-299.5 1292,-280.5 1165,-280.5"/>
<text text-anchor="middle" x="1228.5" y="-287.5" font-family="Helvetica,sans-Serif" font-size="10.00">dji_mission_manager.hpp</text>
</a>
</g>
</g>
<!-- Node5&#45;&gt;Node24 -->
<g id="edge40" class="edge"><title>Node5&#45;&gt;Node24</title>
<path fill="none" stroke="midnightblue" d="M1024,-336.444C1066.31,-327.043 1134.32,-311.929 1180.17,-301.739"/>
<polygon fill="midnightblue" stroke="midnightblue" points="1181.17,-305.102 1190.18,-299.516 1179.65,-298.269 1181.17,-305.102"/>
</g>
<!-- Node28 -->
<g id="node28" class="node"><title>Node28</title>
<g id="a_node28"><a xlink:href="dji__mobile__communication_8hpp.html" target="_top" xlink:title="Implementation of DJI Mobile&#45;Onboard SDK Communication (MOC) ">
<polygon fill="white" stroke="black" points="319.5,-280.5 319.5,-299.5 469.5,-299.5 469.5,-280.5 319.5,-280.5"/>
<text text-anchor="middle" x="394.5" y="-287.5" font-family="Helvetica,sans-Serif" font-size="10.00">dji_mobile_communication.hpp</text>
</a>
</g>
</g>
<!-- Node5&#45;&gt;Node28 -->
<g id="edge49" class="edge"><title>Node5&#45;&gt;Node28</title>
<path fill="none" stroke="midnightblue" d="M944.878,-341.288C849.407,-332.565 609.086,-310.607 479.862,-298.8"/>
<polygon fill="midnightblue" stroke="midnightblue" points="479.89,-295.288 469.613,-297.863 479.253,-302.259 479.89,-295.288"/>
</g>
<!-- Node30 -->
<g id="node30" class="node"><title>Node30</title>
<g id="a_node30"><a xlink:href="dji__mobile__device_8hpp.html" target="_top" xlink:title="Implementation of DJI Mobile Device Abstraction. ">
<polygon fill="white" stroke="black" points="113,-224.5 113,-243.5 226,-243.5 226,-224.5 113,-224.5"/>
<text text-anchor="middle" x="169.5" y="-231.5" font-family="Helvetica,sans-Serif" font-size="10.00">dji_mobile_device.hpp</text>
</a>
</g>
</g>
<!-- Node5&#45;&gt;Node30 -->
<g id="edge52" class="edge"><title>Node5&#45;&gt;Node30</title>
<path fill="none" stroke="midnightblue" d="M944.924,-344.13C798.913,-340.782 305.447,-327.522 240.5,-300 216.318,-289.753 195.069,-267.591 182.265,-252.005"/>
<polygon fill="midnightblue" stroke="midnightblue" points="184.682,-249.416 175.744,-243.727 179.183,-253.748 184.682,-249.416"/>
</g>
<!-- Node31 -->
<g id="node31" class="node"><title>Node31</title>
<polygon fill="white" stroke="#bfbfbf" points="1756.5,-280.5 1756.5,-299.5 1884.5,-299.5 1884.5,-280.5 1756.5,-280.5"/>
<text text-anchor="middle" x="1820.5" y="-287.5" font-family="Helvetica,sans-Serif" font-size="10.00">dji_platform_manager.hpp</text>
</g>
<!-- Node5&#45;&gt;Node31 -->
<g id="edge55" class="edge"><title>Node5&#45;&gt;Node31</title>
<path fill="none" stroke="midnightblue" d="M1026.05,-343.516C1138.59,-339.202 1464.57,-325.391 1746.42,-300.04"/>
<polygon fill="midnightblue" stroke="midnightblue" points="1746.79,-303.521 1756.43,-299.133 1746.16,-296.55 1746.79,-303.521"/>
</g>
<!-- Node32 -->
<g id="node32" class="node"><title>Node32</title>
<g id="a_node32"><a xlink:href="dji__status_8hpp.html" target="_top" xlink:title="Status information for DJI Vehicle. ">
<polygon fill="white" stroke="black" points="1903,-280.5 1903,-299.5 1980,-299.5 1980,-280.5 1903,-280.5"/>
<text text-anchor="middle" x="1941.5" y="-287.5" font-family="Helvetica,sans-Serif" font-size="10.00">dji_status.hpp</text>
</a>
</g>
</g>
<!-- Node5&#45;&gt;Node32 -->
<g id="edge56" class="edge"><title>Node5&#45;&gt;Node32</title>
<path fill="none" stroke="midnightblue" d="M1026.39,-344.947C1153.41,-344.367 1552.52,-339.394 1892.75,-299.902"/>
<polygon fill="midnightblue" stroke="midnightblue" points="1893.27,-303.365 1902.8,-298.724 1892.46,-296.413 1893.27,-303.365"/>
</g>
<!-- Node33 -->
<g id="node33" class="node"><title>Node33</title>
<g id="a_node33"><a xlink:href="dji__subscription_8hpp.html" target="_top" xlink:title="Telemetry Subscription API for DJI OSDK library. ">
<polygon fill="white" stroke="black" points="534,-224.5 534,-243.5 637,-243.5 637,-224.5 534,-224.5"/>
<text text-anchor="middle" x="585.5" y="-231.5" font-family="Helvetica,sans-Serif" font-size="10.00">dji_subscription.hpp</text>
</a>
</g>
</g>
<!-- Node5&#45;&gt;Node33 -->
<g id="edge57" class="edge"><title>Node5&#45;&gt;Node33</title>
<path fill="none" stroke="midnightblue" d="M944.953,-344.007C886.703,-341.442 776.75,-332.318 689.5,-300 656.976,-287.953 623.734,-264.92 603.857,-249.759"/>
<polygon fill="midnightblue" stroke="midnightblue" points="605.996,-246.989 595.956,-243.607 601.696,-252.512 605.996,-246.989"/>
</g>
<!-- Node34 -->
<g id="node34" class="node"><title>Node34</title>
<polygon fill="white" stroke="#bfbfbf" points="1998.5,-280.5 1998.5,-299.5 2118.5,-299.5 2118.5,-280.5 1998.5,-280.5"/>
<text text-anchor="middle" x="2058.5" y="-287.5" font-family="Helvetica,sans-Serif" font-size="10.00">dji_thread_manager.hpp</text>
</g>
<!-- Node5&#45;&gt;Node34 -->
<g id="edge61" class="edge"><title>Node5&#45;&gt;Node34</title>
<path fill="none" stroke="midnightblue" d="M1026.23,-344.415C1161.49,-342.208 1608.28,-332.817 1988.23,-300.033"/>
<polygon fill="midnightblue" stroke="midnightblue" points="1988.66,-303.508 1998.32,-299.155 1988.06,-296.535 1988.66,-303.508"/>
</g>
<!-- Node35 -->
<g id="node35" class="node"><title>Node35</title>
<g id="a_node35"><a xlink:href="dji__virtual__rc_8hpp.html" target="_top" xlink:title="Virtual Radio Control API for DJI onboardSDK library. ">
<polygon fill="white" stroke="black" points="867.5,-280.5 867.5,-299.5 957.5,-299.5 957.5,-280.5 867.5,-280.5"/>
<text text-anchor="middle" x="912.5" y="-287.5" font-family="Helvetica,sans-Serif" font-size="10.00">dji_virtual_rc.hpp</text>
</a>
</g>
</g>
<!-- Node5&#45;&gt;Node35 -->
<g id="edge65" class="edge"><title>Node5&#45;&gt;Node35</title>
<path fill="none" stroke="midnightblue" d="M973.771,-336.324C962.663,-328.107 945.758,-315.602 932.517,-305.807"/>
<polygon fill="midnightblue" stroke="midnightblue" points="934.563,-302.967 924.442,-299.834 930.4,-308.595 934.563,-302.967"/>
</g>
<!-- Node7&#45;&gt;Node3 -->
<g id="edge11" class="edge"><title>Node7&#45;&gt;Node3</title>
<path fill="none" stroke="midnightblue" d="M465.577,-224.368C457.435,-206.456 438.556,-164.923 427.658,-140.948"/>
<polygon fill="midnightblue" stroke="midnightblue" points="430.73,-139.247 423.405,-131.591 424.357,-142.143 430.73,-139.247"/>
</g>
<!-- Node8 -->
<g id="node8" class="node"><title>Node8</title>
<g id="a_node8"><a xlink:href="dji__telemetry_8hpp.html" target="_top" xlink:title="Enumeration of all telemetry data types, structures and maps. ">
<polygon fill="white" stroke="black" points="651,-168.5 651,-187.5 742,-187.5 742,-168.5 651,-168.5"/>
<text text-anchor="middle" x="696.5" y="-175.5" font-family="Helvetica,sans-Serif" font-size="10.00">dji_telemetry.hpp</text>
</a>
</g>
</g>
<!-- Node7&#45;&gt;Node8 -->
<g id="edge7" class="edge"><title>Node7&#45;&gt;Node8</title>
<path fill="none" stroke="midnightblue" d="M505.469,-224.444C544.819,-215.083 607.987,-200.056 650.814,-189.868"/>
<polygon fill="midnightblue" stroke="midnightblue" points="651.781,-193.236 660.699,-187.516 650.161,-186.426 651.781,-193.236"/>
</g>
<!-- Node8&#45;&gt;Node9 -->
<g id="edge8" class="edge"><title>Node8&#45;&gt;Node9</title>
<path fill="none" stroke="midnightblue" d="M742.38,-172.065C838.264,-161.75 1058.83,-138.024 1153.74,-127.815"/>
<polygon fill="midnightblue" stroke="midnightblue" points="1154.3,-131.275 1163.87,-126.725 1153.55,-124.315 1154.3,-131.275"/>
</g>
<!-- Node10 -->
<g id="node10" class="node"><title>Node10</title>
<polygon fill="white" stroke="#bfbfbf" points="1173,-56.5 1173,-75.5 1216,-75.5 1216,-56.5 1173,-56.5"/>
<text text-anchor="middle" x="1194.5" y="-63.5" font-family="Helvetica,sans-Serif" font-size="10.00">cstdio</text>
</g>
<!-- Node9&#45;&gt;Node10 -->
<g id="edge9" class="edge"><title>Node9&#45;&gt;Node10</title>
<path fill="none" stroke="midnightblue" d="M1197.84,-112.083C1197.32,-105.006 1196.56,-94.8611 1195.91,-85.9865"/>
<polygon fill="midnightblue" stroke="midnightblue" points="1199.38,-85.4652 1195.15,-75.7511 1192.4,-85.9823 1199.38,-85.4652"/>
</g>
<!-- Node11 -->
<g id="node11" class="node"><title>Node11</title>
<polygon fill="white" stroke="#bfbfbf" points="1258,-0.5 1258,-19.5 1307,-19.5 1307,-0.5 1258,-0.5"/>
<text text-anchor="middle" x="1282.5" y="-7.5" font-family="Helvetica,sans-Serif" font-size="10.00">stdint.h</text>
</g>
<!-- Node9&#45;&gt;Node11 -->
<g id="edge10" class="edge"><title>Node9&#45;&gt;Node11</title>
<path fill="none" stroke="midnightblue" d="M1205.09,-112.368C1219.02,-94.135 1251.63,-51.4257 1269.77,-27.6752"/>
<polygon fill="midnightblue" stroke="midnightblue" points="1272.65,-29.6633 1275.94,-19.5914 1267.09,-25.4149 1272.65,-29.6633"/>
</g>
<!-- Node12&#45;&gt;Node9 -->
<g id="edge17" class="edge"><title>Node12&#45;&gt;Node9</title>
<path fill="none" stroke="midnightblue" d="M1531.77,-169.508C1528.64,-168.984 1525.52,-168.476 1522.5,-168 1422.86,-152.295 1305.52,-136.721 1243.01,-128.656"/>
<polygon fill="midnightblue" stroke="midnightblue" points="1243.45,-125.185 1233.09,-127.38 1242.56,-132.128 1243.45,-125.185"/>
</g>
<!-- Node12&#45;&gt;Node13 -->
<g id="edge13" class="edge"><title>Node12&#45;&gt;Node13</title>
<path fill="none" stroke="midnightblue" d="M1536.26,-168.444C1495.44,-159.063 1429.86,-143.993 1385.52,-133.804"/>
<polygon fill="midnightblue" stroke="midnightblue" points="1386.09,-130.345 1375.56,-131.516 1384.52,-137.167 1386.09,-130.345"/>
</g>
<!-- Node13&#45;&gt;Node11 -->
<g id="edge16" class="edge"><title>Node13&#45;&gt;Node11</title>
<path fill="none" stroke="midnightblue" d="M1329.67,-112.477C1321.31,-103.958 1308.97,-90.1281 1301.5,-76 1293.77,-61.3832 1288.8,-43.2113 1285.89,-29.8006"/>
<polygon fill="midnightblue" stroke="midnightblue" points="1289.29,-28.9657 1283.91,-19.838 1282.43,-30.3279 1289.29,-28.9657"/>
</g>
<!-- Node14 -->
<g id="node14" class="node"><title>Node14</title>
<g id="a_node14"><a xlink:href="dji__error_8hpp.html" target="_top" xlink:title="All DJI OSDK OpenProtocol ACK Error Codes. ">
<polygon fill="white" stroke="black" points="1310.5,-56.5 1310.5,-75.5 1380.5,-75.5 1380.5,-56.5 1310.5,-56.5"/>
<text text-anchor="middle" x="1345.5" y="-63.5" font-family="Helvetica,sans-Serif" font-size="10.00">dji_error.hpp</text>
</a>
</g>
</g>
<!-- Node13&#45;&gt;Node14 -->
<g id="edge14" class="edge"><title>Node13&#45;&gt;Node14</title>
<path fill="none" stroke="midnightblue" d="M1339.66,-112.083C1340.58,-104.927 1341.92,-94.6353 1343.08,-85.6911"/>
<polygon fill="midnightblue" stroke="midnightblue" points="1346.55,-86.1181 1344.37,-75.7511 1339.61,-85.2181 1346.55,-86.1181"/>
</g>
<!-- Node14&#45;&gt;Node11 -->
<g id="edge15" class="edge"><title>Node14&#45;&gt;Node11</title>
<path fill="none" stroke="midnightblue" d="M1335.38,-56.324C1325.97,-48.2631 1311.76,-36.0765 1300.43,-26.3695"/>
<polygon fill="midnightblue" stroke="midnightblue" points="1302.68,-23.6844 1292.81,-19.8339 1298.12,-28.9993 1302.68,-23.6844"/>
</g>
<!-- Node16&#45;&gt;Node3 -->
<g id="edge32" class="edge"><title>Node16&#45;&gt;Node3</title>
<path fill="none" stroke="midnightblue" d="M768.689,-280.324C741.525,-267.811 689.719,-244.001 645.5,-224 574.662,-191.959 491.081,-154.765 448.143,-135.702"/>
<polygon fill="midnightblue" stroke="midnightblue" points="449.434,-132.446 438.874,-131.588 446.595,-138.844 449.434,-132.446"/>
</g>
<!-- Node16&#45;&gt;Node4 -->
<g id="edge30" class="edge"><title>Node16&#45;&gt;Node4</title>
<path fill="none" stroke="midnightblue" d="M773.786,-280.386C747.401,-263.626 688.063,-225.018 641.5,-188 597.154,-152.745 548.842,-106.665 524.474,-82.8262"/>
<polygon fill="midnightblue" stroke="midnightblue" points="526.752,-80.1581 517.168,-75.6422 521.844,-85.1493 526.752,-80.1581"/>
</g>
<!-- Node16&#45;&gt;Node9 -->
<g id="edge31" class="edge"><title>Node16&#45;&gt;Node9</title>
<path fill="none" stroke="midnightblue" d="M787.446,-280.26C787.824,-257.629 792.236,-196.875 827.5,-168 876.463,-127.908 1066.22,-122.787 1153.78,-122.621"/>
<polygon fill="midnightblue" stroke="midnightblue" points="1153.93,-126.121 1163.93,-122.623 1153.93,-119.121 1153.93,-126.121"/>
</g>
<!-- Node17 -->
<g id="node17" class="node"><title>Node17</title>
<g id="a_node17"><a xlink:href="dji__ack_8hpp.html" target="_top" xlink:title="All DJI OSDK ACK parsing. ">
<polygon fill="white" stroke="black" points="891.5,-224.5 891.5,-243.5 957.5,-243.5 957.5,-224.5 891.5,-224.5"/>
<text text-anchor="middle" x="924.5" y="-231.5" font-family="Helvetica,sans-Serif" font-size="10.00">dji_ack.hpp</text>
</a>
</g>
</g>
<!-- Node16&#45;&gt;Node17 -->
<g id="edge21" class="edge"><title>Node16&#45;&gt;Node17</title>
<path fill="none" stroke="midnightblue" d="M809.208,-280.444C831.855,-271.517 867.572,-257.439 893.252,-247.317"/>
<polygon fill="midnightblue" stroke="midnightblue" points="894.874,-250.44 902.894,-243.516 892.307,-243.927 894.874,-250.44"/>
</g>
<!-- Node17&#45;&gt;Node9 -->
<g id="edge25" class="edge"><title>Node17&#45;&gt;Node9</title>
<path fill="none" stroke="midnightblue" d="M940.434,-224.328C972.039,-207.142 1040.1,-170.218 1045.5,-168 1080.94,-153.453 1122.76,-141.486 1153.72,-133.559"/>
<polygon fill="midnightblue" stroke="midnightblue" points="1154.93,-136.863 1163.77,-131.028 1153.22,-130.075 1154.93,-136.863"/>
</g>
<!-- Node17&#45;&gt;Node13 -->
<g id="edge22" class="edge"><title>Node17&#45;&gt;Node13</title>
<path fill="none" stroke="midnightblue" d="M957.748,-227.556C1001.26,-220.13 1079.71,-205.704 1145.5,-188 1203.17,-172.482 1268.76,-149.145 1306.71,-135.063"/>
<polygon fill="midnightblue" stroke="midnightblue" points="1308.05,-138.297 1316.2,-131.521 1305.6,-131.739 1308.05,-138.297"/>
</g>
<!-- Node18 -->
<g id="node18" class="node"><title>Node18</title>
<g id="a_node18"><a xlink:href="dji__mission__type_8hpp.html" target="_top" xlink:title="Mission related data struct for DJI OSDK library. ">
<polygon fill="white" stroke="black" points="890.5,-168.5 890.5,-187.5 998.5,-187.5 998.5,-168.5 890.5,-168.5"/>
<text text-anchor="middle" x="944.5" y="-175.5" font-family="Helvetica,sans-Serif" font-size="10.00">dji_mission_type.hpp</text>
</a>
</g>
</g>
<!-- Node17&#45;&gt;Node18 -->
<g id="edge23" class="edge"><title>Node17&#45;&gt;Node18</title>
<path fill="none" stroke="midnightblue" d="M927.803,-224.083C930.482,-216.849 934.349,-206.409 937.686,-197.397"/>
<polygon fill="midnightblue" stroke="midnightblue" points="941.068,-198.344 941.259,-187.751 934.504,-195.913 941.068,-198.344"/>
</g>
<!-- Node17&#45;&gt;Node19 -->
<g id="edge26" class="edge"><title>Node17&#45;&gt;Node19</title>
<path fill="none" stroke="midnightblue" d="M951.595,-224.444C980.488,-215.32 1026.42,-200.813 1058.61,-190.651"/>
<polygon fill="midnightblue" stroke="midnightblue" points="1060.05,-193.865 1068.53,-187.516 1057.94,-187.19 1060.05,-193.865"/>
</g>
<!-- Node20 -->
<g id="node20" class="node"><title>Node20</title>
<polygon fill="white" stroke="#bfbfbf" points="837,-168.5 837,-187.5 872,-187.5 872,-168.5 837,-168.5"/>
<text text-anchor="middle" x="854.5" y="-175.5" font-family="Helvetica,sans-Serif" font-size="10.00">map</text>
</g>
<!-- Node17&#45;&gt;Node20 -->
<g id="edge29" class="edge"><title>Node17&#45;&gt;Node20</title>
<path fill="none" stroke="midnightblue" d="M913.253,-224.324C902.703,-216.185 886.699,-203.839 874.058,-194.087"/>
<polygon fill="midnightblue" stroke="midnightblue" points="876.007,-191.171 865.951,-187.834 871.731,-196.713 876.007,-191.171"/>
</g>
<!-- Node18&#45;&gt;Node9 -->
<g id="edge24" class="edge"><title>Node18&#45;&gt;Node9</title>
<path fill="none" stroke="midnightblue" d="M984.747,-168.444C1030.75,-158.663 1105.85,-142.698 1153.68,-132.529"/>
<polygon fill="midnightblue" stroke="midnightblue" points="1154.69,-135.891 1163.75,-130.388 1153.24,-129.045 1154.69,-135.891"/>
</g>
<!-- Node19&#45;&gt;Node6 -->
<g id="edge28" class="edge"><title>Node19&#45;&gt;Node6</title>
<path fill="none" stroke="midnightblue" d="M1054.28,-171.674C971.46,-160.976 786.347,-137.062 710.686,-127.287"/>
<polygon fill="midnightblue" stroke="midnightblue" points="711.124,-123.815 700.758,-126.005 710.227,-130.757 711.124,-123.815"/>
</g>
<!-- Node19&#45;&gt;Node13 -->
<g id="edge27" class="edge"><title>Node19&#45;&gt;Node13</title>
<path fill="none" stroke="midnightblue" d="M1134,-168.444C1176.31,-159.043 1244.32,-143.929 1290.17,-133.739"/>
<polygon fill="midnightblue" stroke="midnightblue" points="1291.17,-137.102 1300.18,-131.516 1289.65,-130.269 1291.17,-137.102"/>
</g>
<!-- Node21&#45;&gt;Node9 -->
<g id="edge35" class="edge"><title>Node21&#45;&gt;Node9</title>
<path fill="none" stroke="midnightblue" d="M1434.96,-169.263C1384.12,-159.318 1296.11,-142.097 1242.99,-131.705"/>
<polygon fill="midnightblue" stroke="midnightblue" points="1243.66,-128.269 1233.17,-129.784 1242.32,-135.139 1243.66,-128.269"/>
</g>
<!-- Node21&#45;&gt;Node13 -->
<g id="edge34" class="edge"><title>Node21&#45;&gt;Node13</title>
<path fill="none" stroke="midnightblue" d="M1452.95,-168.444C1430.47,-159.517 1395.01,-145.439 1369.52,-135.317"/>
<polygon fill="midnightblue" stroke="midnightblue" points="1370.53,-131.954 1359.95,-131.516 1367.95,-138.46 1370.53,-131.954"/>
</g>
<!-- Node23&#45;&gt;Node9 -->
<g id="edge38" class="edge"><title>Node23&#45;&gt;Node9</title>
<path fill="none" stroke="midnightblue" d="M1129.81,-224.452C1145.26,-216.968 1165.94,-204.677 1178.5,-188 1188.7,-174.458 1193.75,-155.654 1196.22,-141.754"/>
<polygon fill="midnightblue" stroke="midnightblue" points="1199.68,-142.258 1197.69,-131.852 1192.76,-141.227 1199.68,-142.258"/>
</g>
<!-- Node25 -->
<g id="node25" class="node"><title>Node25</title>
<g id="a_node25"><a xlink:href="dji__hotpoint_8hpp.html" target="_top" xlink:title="Implementation of HotPoint (Point of Interest) Missions for DJI OSDK. ">
<polygon fill="white" stroke="black" points="1186,-224.5 1186,-243.5 1271,-243.5 1271,-224.5 1186,-224.5"/>
<text text-anchor="middle" x="1228.5" y="-231.5" font-family="Helvetica,sans-Serif" font-size="10.00">dji_hotpoint.hpp</text>
</a>
</g>
</g>
<!-- Node24&#45;&gt;Node25 -->
<g id="edge41" class="edge"><title>Node24&#45;&gt;Node25</title>
<path fill="none" stroke="midnightblue" d="M1228.5,-280.083C1228.5,-273.006 1228.5,-262.861 1228.5,-253.986"/>
<polygon fill="midnightblue" stroke="midnightblue" points="1232,-253.751 1228.5,-243.751 1225,-253.751 1232,-253.751"/>
</g>
<!-- Node27 -->
<g id="node27" class="node"><title>Node27</title>
<g id="a_node27"><a xlink:href="dji__waypoint_8hpp.html" target="_top" xlink:title="Implementation of GPS Waypoint Missions for DJI OSDK. ">
<polygon fill="white" stroke="black" points="1289,-224.5 1289,-243.5 1378,-243.5 1378,-224.5 1289,-224.5"/>
<text text-anchor="middle" x="1333.5" y="-231.5" font-family="Helvetica,sans-Serif" font-size="10.00">dji_waypoint.hpp</text>
</a>
</g>
</g>
<!-- Node24&#45;&gt;Node27 -->
<g id="edge47" class="edge"><title>Node24&#45;&gt;Node27</title>
<path fill="none" stroke="midnightblue" d="M1245.37,-280.324C1262.21,-271.664 1288.31,-258.242 1307.74,-248.249"/>
<polygon fill="midnightblue" stroke="midnightblue" points="1309.38,-251.341 1316.67,-243.655 1306.18,-245.116 1309.38,-251.341"/>
</g>
<!-- Node25&#45;&gt;Node8 -->
<g id="edge46" class="edge"><title>Node25&#45;&gt;Node8</title>
<path fill="none" stroke="midnightblue" d="M1185.97,-225.362C1182.77,-224.872 1179.59,-224.411 1176.5,-224 1023.67,-203.642 842.255,-189.282 752.52,-182.829"/>
<polygon fill="midnightblue" stroke="midnightblue" points="752.524,-179.321 742.3,-182.1 752.026,-186.303 752.524,-179.321"/>
</g>
<!-- Node26 -->
<g id="node26" class="node"><title>Node26</title>
<g id="a_node26"><a xlink:href="dji__mission__base_8hpp.html" target="_top" xlink:title="Mission&#45;Base abstract class for DJI OSDK library. ">
<polygon fill="white" stroke="black" points="1268.5,-168.5 1268.5,-187.5 1378.5,-187.5 1378.5,-168.5 1268.5,-168.5"/>
<text text-anchor="middle" x="1323.5" y="-175.5" font-family="Helvetica,sans-Serif" font-size="10.00">dji_mission_base.hpp</text>
</a>
</g>
</g>
<!-- Node25&#45;&gt;Node26 -->
<g id="edge42" class="edge"><title>Node25&#45;&gt;Node26</title>
<path fill="none" stroke="midnightblue" d="M1243.76,-224.324C1258.72,-215.822 1281.75,-202.729 1299.23,-192.797"/>
<polygon fill="midnightblue" stroke="midnightblue" points="1301.31,-195.639 1308.27,-187.655 1297.85,-189.553 1301.31,-195.639"/>
</g>
<!-- Node26&#45;&gt;Node3 -->
<g id="edge45" class="edge"><title>Node26&#45;&gt;Node3</title>
<path fill="none" stroke="midnightblue" d="M1268.31,-173.703C1111.86,-164.358 665.506,-137.695 490.824,-127.26"/>
<polygon fill="midnightblue" stroke="midnightblue" points="490.903,-123.759 480.712,-126.656 490.486,-130.747 490.903,-123.759"/>
</g>
<!-- Node26&#45;&gt;Node9 -->
<g id="edge44" class="edge"><title>Node26&#45;&gt;Node9</title>
<path fill="none" stroke="midnightblue" d="M1303.69,-168.444C1283.21,-159.596 1251.02,-145.687 1227.64,-135.586"/>
<polygon fill="midnightblue" stroke="midnightblue" points="1228.78,-132.269 1218.21,-131.516 1226.01,-138.695 1228.78,-132.269"/>
</g>
<!-- Node26&#45;&gt;Node13 -->
<g id="edge43" class="edge"><title>Node26&#45;&gt;Node13</title>
<path fill="none" stroke="midnightblue" d="M1325.98,-168.083C1327.99,-160.849 1330.89,-150.409 1333.39,-141.397"/>
<polygon fill="midnightblue" stroke="midnightblue" points="1336.76,-142.323 1336.07,-131.751 1330.02,-140.449 1336.76,-142.323"/>
</g>
<!-- Node27&#45;&gt;Node26 -->
<g id="edge48" class="edge"><title>Node27&#45;&gt;Node26</title>
<path fill="none" stroke="midnightblue" d="M1331.85,-224.083C1330.52,-216.927 1328.62,-206.635 1326.96,-197.691"/>
<polygon fill="midnightblue" stroke="midnightblue" points="1330.38,-196.947 1325.12,-187.751 1323.5,-198.221 1330.38,-196.947"/>
</g>
<!-- Node28&#45;&gt;Node3 -->
<g id="edge51" class="edge"><title>Node28&#45;&gt;Node3</title>
<path fill="none" stroke="midnightblue" d="M395.844,-280.075C399.779,-253.945 411.336,-177.211 416.702,-141.577"/>
<polygon fill="midnightblue" stroke="midnightblue" points="420.181,-141.978 418.21,-131.568 413.259,-140.935 420.181,-141.978"/>
</g>
<!-- Node29 -->
<g id="node29" class="node"><title>Node29</title>
<polygon fill="white" stroke="#bfbfbf" points="283,-224.5 283,-243.5 366,-243.5 366,-224.5 283,-224.5"/>
<text text-anchor="middle" x="324.5" y="-231.5" font-family="Helvetica,sans-Serif" font-size="10.00">dji_macros.hpp</text>
</g>
<!-- Node28&#45;&gt;Node29 -->
<g id="edge50" class="edge"><title>Node28&#45;&gt;Node29</title>
<path fill="none" stroke="midnightblue" d="M383.253,-280.324C372.703,-272.185 356.699,-259.839 344.058,-250.087"/>
<polygon fill="midnightblue" stroke="midnightblue" points="346.007,-247.171 335.951,-243.834 341.731,-252.713 346.007,-247.171"/>
</g>
<!-- Node30&#45;&gt;Node3 -->
<g id="edge53" class="edge"><title>Node30&#45;&gt;Node3</title>
<path fill="none" stroke="midnightblue" d="M176.383,-224.383C188.051,-210.37 213.129,-182.733 240.5,-168 273.756,-150.099 314.333,-139.142 348.441,-132.531"/>
<polygon fill="midnightblue" stroke="midnightblue" points="349.144,-135.96 358.339,-130.697 347.869,-129.077 349.144,-135.96"/>
</g>
<!-- Node33&#45;&gt;Node3 -->
<g id="edge60" class="edge"><title>Node33&#45;&gt;Node3</title>
<path fill="none" stroke="midnightblue" d="M564.438,-224.417C545.443,-216.258 517.104,-203.026 494.5,-188 472.465,-173.352 449.879,-152.889 435.331,-138.858"/>
<polygon fill="midnightblue" stroke="midnightblue" points="437.723,-136.301 428.131,-131.802 432.824,-141.301 437.723,-136.301"/>
</g>
<!-- Node33&#45;&gt;Node4 -->
<g id="edge58" class="edge"><title>Node33&#45;&gt;Node4</title>
<path fill="none" stroke="midnightblue" d="M581.36,-224.075C569.135,-197.719 533.028,-119.878 516.692,-84.6608"/>
<polygon fill="midnightblue" stroke="midnightblue" points="519.857,-83.1669 512.474,-75.5681 513.507,-86.1125 519.857,-83.1669"/>
</g>
<!-- Node33&#45;&gt;Node8 -->
<g id="edge59" class="edge"><title>Node33&#45;&gt;Node8</title>
<path fill="none" stroke="midnightblue" d="M603.334,-224.324C621.216,-215.625 648.975,-202.12 669.546,-192.113"/>
<polygon fill="midnightblue" stroke="midnightblue" points="671.249,-195.177 678.71,-187.655 668.187,-188.882 671.249,-195.177"/>
</g>
<!-- Node35&#45;&gt;Node4 -->
<g id="edge67" class="edge"><title>Node35&#45;&gt;Node4</title>
<path fill="none" stroke="midnightblue" d="M905.449,-280.328C881.413,-251.39 799.191,-157.409 709.5,-112 667.295,-90.632 615.035,-79.3314 574.382,-73.3995"/>
<polygon fill="midnightblue" stroke="midnightblue" points="574.696,-69.9096 564.31,-72.0042 573.735,-76.8434 574.696,-69.9096"/>
</g>
<!-- Node35&#45;&gt;Node8 -->
<g id="edge69" class="edge"><title>Node35&#45;&gt;Node8</title>
<path fill="none" stroke="midnightblue" d="M895.551,-280.368C857.933,-261.211 767.261,-215.036 722.454,-192.217"/>
<polygon fill="midnightblue" stroke="midnightblue" points="723.87,-189.011 713.37,-187.591 720.693,-195.248 723.87,-189.011"/>
</g>
<!-- Node35&#45;&gt;Node9 -->
<g id="edge68" class="edge"><title>Node35&#45;&gt;Node9</title>
<path fill="none" stroke="midnightblue" d="M928.204,-280.329C952.339,-267.191 1000.2,-241.882 1042.5,-224 1087.17,-205.118 1105.79,-215.84 1145.5,-188 1163.49,-175.383 1178.69,-155.048 1188.14,-140.482"/>
<polygon fill="midnightblue" stroke="midnightblue" points="1191.18,-142.223 1193.49,-131.883 1185.23,-138.527 1191.18,-142.223"/>
</g>
<!-- Node35&#45;&gt;Node17 -->
<g id="edge66" class="edge"><title>Node35&#45;&gt;Node17</title>
<path fill="none" stroke="midnightblue" d="M914.482,-280.083C916.072,-272.927 918.359,-262.635 920.346,-253.691"/>
<polygon fill="midnightblue" stroke="midnightblue" points="923.803,-254.272 922.555,-243.751 916.969,-252.754 923.803,-254.272"/>
</g>
</g>
</svg>
        <g id="navigator" transform="translate(0 0)" fill="#404254">
                <rect fill="#f2f5e9" fill-opacity="0.5" stroke="#606060" stroke-width=".5" x="0" y="0" width="60" height="60"/>
                <use id="zoomplus" xlink:href="#zoomPlus" x="17" y="9" onmousedown="handleZoom(evt,'in')"/>
                <use id="zoomminus" xlink:href="#zoomMin" x="42" y="9" onmousedown="handleZoom(evt,'out')"/>
                <use id="reset" xlink:href="#resetDef" x="30" y="36" onmousedown="handleReset()"/>
                <g id="arrowUp" xlink:href="#dirArrow" transform="translate(30 24)" onmousedown="handlePan(0,-1)">
                  <use xlink:href="#rim" fill="#404040">
                        <set attributeName="fill" to="#808080" begin="arrowUp.mouseover" end="arrowUp.mouseout"/>
                  </use>
                  <path fill="none" stroke="white" stroke-width="1.5" d="M0,-3.0v7 M-2.5,-0.5L0,-3.0L2.5,-0.5"/>
                </g>
                <g id="arrowRight" xlink:href="#dirArrow" transform="rotate(90) translate(36 -43)" onmousedown="handlePan(1,0)">
                  <use xlink:href="#rim" fill="#404040">
                        <set attributeName="fill" to="#808080" begin="arrowRight.mouseover" end="arrowRight.mouseout"/>
                  </use>
                  <path fill="none" stroke="white" stroke-width="1.5" d="M0,-3.0v7 M-2.5,-0.5L0,-3.0L2.5,-0.5"/>
                </g>
                <g id="arrowDown" xlink:href="#dirArrow" transform="rotate(180) translate(-30 -48)" onmousedown="handlePan(0,1)">
                  <use xlink:href="#rim" fill="#404040">
                        <set attributeName="fill" to="#808080" begin="arrowDown.mouseover" end="arrowDown.mouseout"/>
                  </use>
                  <path fill="none" stroke="white" stroke-width="1.5" d="M0,-3.0v7 M-2.5,-0.5L0,-3.0L2.5,-0.5"/>
                </g>
                <g id="arrowLeft" xlink:href="#dirArrow" transform="rotate(270) translate(-36 17)" onmousedown="handlePan(-1,0)">
                  <use xlink:href="#rim" fill="#404040">
                        <set attributeName="fill" to="#808080" begin="arrowLeft.mouseover" end="arrowLeft.mouseout"/>
                  </use>
                  <path fill="none" stroke="white" stroke-width="1.5" d="M0,-3.0v7 M-2.5,-0.5L0,-3.0L2.5,-0.5"/>
                </g>
        </g>
        <svg viewBox="0 0 15 15" width="100%" height="30px" preserveAspectRatio="xMaxYMin meet">
         <g id="arrow_out" transform="scale(0.3 0.3)">
          <a xlink:href="dji__mfio_8cpp__incl_org.svg" target="_base">
           <rect id="button" ry="5" rx="5" y="6" x="6" height="38" width="38"
                fill="#f2f5e9" fill-opacity="0.5" stroke="#606060" stroke-width="1.0"/>
           <path id="arrow"
             d="M 11.500037,31.436501 C 11.940474,20.09759 22.043105,11.32322 32.158766,21.979434 L 37.068811,17.246167 C 37.068811,17.246167 37.088388,32 37.088388,32 L 22.160133,31.978069 C 22.160133,31.978069 26.997745,27.140456 26.997745,27.140456 C 18.528582,18.264221 13.291696,25.230495 11.500037,31.436501 z"
             style="fill:#404040;"/>
          </a>
         </g>
        </svg>
</svg>
