<?xml version="1.0" encoding="UTF-8" standalone="no"?>
<!DOCTYPE svg PUBLIC "-//W3C//DTD SVG 1.1//EN"
 "http://www.w3.org/Graphics/SVG/1.1/DTD/svg11.dtd">
<!-- Generated by graphviz version 2.40.1 (20161225.0304)
 -->
<!-- Title: osdk&#45;core/hal/inc/dji_log.hpp Pages: 1 -->
<svg width="426pt" height="95pt"
 viewBox="0.00 0.00 426.00 95.00" xmlns="http://www.w3.org/2000/svg" xmlns:xlink="http://www.w3.org/1999/xlink">
<g id="graph0" class="graph" transform="scale(1 1) rotate(0) translate(4 91)">
<title>osdk&#45;core/hal/inc/dji_log.hpp</title>
<polygon fill="#ffffff" stroke="transparent" points="-4,4 -4,-91 422,-91 422,4 -4,4"/>
<!-- Node0 -->
<g id="node1" class="node">
<title>Node0</title>
<g id="a_node1"><a xlink:title="Logging mechanism for printing status and error messages to the screen.">
<polygon fill="#bfbfbf" stroke="#000000" points="135,-56.5 135,-86.5 239,-86.5 239,-56.5 135,-56.5"/>
<text text-anchor="start" x="143" y="-74.5" font-family="Helvetica,sans-Serif" font-size="10.00" fill="#000000">osdk&#45;core/hal/inc/dji</text>
<text text-anchor="middle" x="187" y="-63.5" font-family="Helvetica,sans-Serif" font-size="10.00" fill="#000000">_log.hpp</text>
</a>
</g>
</g>
<!-- Node1 -->
<g id="node2" class="node">
<title>Node1</title>
<g id="a_node2"><a xlink:title=" ">
<polygon fill="#ffffff" stroke="#bfbfbf" points="0,-.5 0,-19.5 86,-19.5 86,-.5 0,-.5"/>
<text text-anchor="middle" x="43" y="-7.5" font-family="Helvetica,sans-Serif" font-size="10.00" fill="#000000">dji_memory.hpp</text>
</a>
</g>
</g>
<!-- Node0&#45;&gt;Node1 -->
<g id="edge1" class="edge">
<title>Node0&#45;&gt;Node1</title>
<path fill="none" stroke="#191970" d="M151.7736,-56.4554C128.1684,-46.374 97.3546,-33.2139 74.5524,-23.4755"/>
<polygon fill="#191970" stroke="#191970" points="75.886,-20.2393 65.3149,-19.5303 73.1366,-26.6767 75.886,-20.2393"/>
</g>
<!-- Node2 -->
<g id="node3" class="node">
<title>Node2</title>
<g id="a_node3"><a xlink:title=" ">
<polygon fill="#ffffff" stroke="#bfbfbf" points="104.5,-.5 104.5,-19.5 173.5,-19.5 173.5,-.5 104.5,-.5"/>
<text text-anchor="middle" x="139" y="-7.5" font-family="Helvetica,sans-Serif" font-size="10.00" fill="#000000">dji_type.hpp</text>
</a>
</g>
</g>
<!-- Node0&#45;&gt;Node2 -->
<g id="edge2" class="edge">
<title>Node0&#45;&gt;Node2</title>
<path fill="none" stroke="#191970" d="M175.1348,-56.2977C168.4025,-47.672 159.9415,-36.8312 152.8994,-27.8087"/>
<polygon fill="#191970" stroke="#191970" points="155.5973,-25.5766 146.6854,-19.8469 150.079,-29.8836 155.5973,-25.5766"/>
</g>
<!-- Node3 -->
<g id="node4" class="node">
<title>Node3</title>
<g id="a_node4"><a xlink:title=" ">
<polygon fill="#ffffff" stroke="#bfbfbf" points="191.5,-.5 191.5,-19.5 280.5,-19.5 280.5,-.5 191.5,-.5"/>
<text text-anchor="middle" x="236" y="-7.5" font-family="Helvetica,sans-Serif" font-size="10.00" fill="#000000">dji_singleton.hpp</text>
</a>
</g>
</g>
<!-- Node0&#45;&gt;Node3 -->
<g id="edge3" class="edge">
<title>Node0&#45;&gt;Node3</title>
<path fill="none" stroke="#191970" d="M199.1124,-56.2977C205.9849,-47.672 214.6223,-36.8312 221.811,-27.8087"/>
<polygon fill="#191970" stroke="#191970" points="224.6604,-29.849 228.1545,-19.8469 219.1856,-25.487 224.6604,-29.849"/>
</g>
<!-- Node4 -->
<g id="node5" class="node">
<title>Node4</title>
<g id="a_node5"><a xlink:title=" ">
<polygon fill="#ffffff" stroke="#bfbfbf" points="298,-.5 298,-19.5 418,-19.5 418,-.5 298,-.5"/>
<text text-anchor="middle" x="358" y="-7.5" font-family="Helvetica,sans-Serif" font-size="10.00" fill="#000000">dji_thread_manager.hpp</text>
</a>
</g>
</g>
<!-- Node0&#45;&gt;Node4 -->
<g id="edge4" class="edge">
<title>Node0&#45;&gt;Node4</title>
<path fill="none" stroke="#191970" d="M228.8313,-56.4554C257.3631,-46.194 294.7635,-32.7429 321.9729,-22.9571"/>
<polygon fill="#191970" stroke="#191970" points="323.2757,-26.2081 331.5011,-19.5303 320.9066,-19.6212 323.2757,-26.2081"/>
</g>
</g>
</svg>
