<?xml version="1.0" encoding="UTF-8" standalone="no"?>
<!DOCTYPE svg PUBLIC "-//W3C//DTD SVG 1.1//EN"
 "http://www.w3.org/Graphics/SVG/1.1/DTD/svg11.dtd">
<!-- Generated by graphviz version 2.38.0 (20140413.2041)
 -->
<!-- Title: osdk&#45;core/api/src/dji_camera.cpp Pages: 1 -->
<svg width="1590pt" height="431pt"
 viewBox="0.00 0.00 1590.00 431.00" xmlns="http://www.w3.org/2000/svg" xmlns:xlink="http://www.w3.org/1999/xlink">
<g id="graph0" class="graph" transform="scale(1 1) rotate(0) translate(4 427)">
<title>osdk&#45;core/api/src/dji_camera.cpp</title>
<polygon fill="white" stroke="none" points="-4,4 -4,-427 1586,-427 1586,4 -4,4"/>
<!-- Node1 -->
<g id="node1" class="node"><title>Node1</title>
<polygon fill="#bfbfbf" stroke="black" points="441,-392.5 441,-422.5 545,-422.5 545,-392.5 441,-392.5"/>
<text text-anchor="start" x="449" y="-410.5" font-family="Helvetica,sans-Serif" font-size="10.00">osdk&#45;core/api/src/dji</text>
<text text-anchor="middle" x="493" y="-399.5" font-family="Helvetica,sans-Serif" font-size="10.00">_camera.cpp</text>
</g>
<!-- Node2 -->
<g id="node2" class="node"><title>Node2</title>
<g id="a_node2"><a xlink:href="dji__camera_8hpp.html" target="_top" xlink:title="Camera/Gimbal API for DJI onboardSDK library. ">
<polygon fill="white" stroke="black" points="127.5,-224.5 127.5,-243.5 210.5,-243.5 210.5,-224.5 127.5,-224.5"/>
<text text-anchor="middle" x="169" y="-231.5" font-family="Helvetica,sans-Serif" font-size="10.00">dji_camera.hpp</text>
</a>
</g>
</g>
<!-- Node1&#45;&gt;Node2 -->
<g id="edge1" class="edge"><title>Node1&#45;&gt;Node2</title>
<path fill="none" stroke="midnightblue" d="M440.902,-395.001C382.747,-380.271 287.905,-350.424 220,-300 202.784,-287.216 188.283,-267.196 179.197,-252.751"/>
<polygon fill="midnightblue" stroke="midnightblue" points="181.963,-250.559 173.805,-243.799 175.966,-254.171 181.963,-250.559"/>
</g>
<!-- Node8 -->
<g id="node8" class="node"><title>Node8</title>
<g id="a_node8"><a xlink:href="dji__vehicle_8hpp.html" target="_top" xlink:title="Vehicle API for DJI onboardSDK library. ">
<polygon fill="white" stroke="black" points="802.5,-336.5 802.5,-355.5 883.5,-355.5 883.5,-336.5 802.5,-336.5"/>
<text text-anchor="middle" x="843" y="-343.5" font-family="Helvetica,sans-Serif" font-size="10.00">dji_vehicle.hpp</text>
</a>
</g>
</g>
<!-- Node1&#45;&gt;Node8 -->
<g id="edge9" class="edge"><title>Node1&#45;&gt;Node8</title>
<path fill="none" stroke="midnightblue" d="M545.021,-397.656C611.63,-386.333 726.304,-366.838 792.28,-355.622"/>
<polygon fill="midnightblue" stroke="midnightblue" points="793.164,-359.022 802.436,-353.896 791.991,-352.121 793.164,-359.022"/>
</g>
<!-- Node3 -->
<g id="node3" class="node"><title>Node3</title>
<g id="a_node3"><a xlink:href="dji__command_8hpp.html" target="_top" xlink:title="All DJI OSDK OpenProtocol Command IDs. ">
<polygon fill="white" stroke="black" points="421.5,-112.5 421.5,-131.5 514.5,-131.5 514.5,-112.5 421.5,-112.5"/>
<text text-anchor="middle" x="468" y="-119.5" font-family="Helvetica,sans-Serif" font-size="10.00">dji_command.hpp</text>
</a>
</g>
</g>
<!-- Node2&#45;&gt;Node3 -->
<g id="edge2" class="edge"><title>Node2&#45;&gt;Node3</title>
<path fill="none" stroke="midnightblue" d="M169.242,-224.29C170.139,-210.145 174.091,-182.322 191,-168 199.35,-160.928 332.441,-141.614 411.051,-130.728"/>
<polygon fill="midnightblue" stroke="midnightblue" points="411.866,-134.148 421.294,-129.314 410.909,-127.214 411.866,-134.148"/>
</g>
<!-- Node6 -->
<g id="node6" class="node"><title>Node6</title>
<g id="a_node6"><a xlink:href="dji__type_8hpp.html" target="_top" xlink:title="Data type and Data Structure definitions for use throughout DJI OSDK. ">
<polygon fill="white" stroke="black" points="318.5,-112.5 318.5,-131.5 387.5,-131.5 387.5,-112.5 318.5,-112.5"/>
<text text-anchor="middle" x="353" y="-119.5" font-family="Helvetica,sans-Serif" font-size="10.00">dji_type.hpp</text>
</a>
</g>
</g>
<!-- Node2&#45;&gt;Node6 -->
<g id="edge6" class="edge"><title>Node2&#45;&gt;Node6</title>
<path fill="none" stroke="midnightblue" d="M163.768,-224.378C156.308,-210.849 144.89,-184.48 158,-168 176.415,-144.852 256.597,-132.589 308.236,-126.972"/>
<polygon fill="midnightblue" stroke="midnightblue" points="308.89,-130.423 318.473,-125.904 308.164,-123.461 308.89,-130.423"/>
</g>
<!-- Node4 -->
<g id="node4" class="node"><title>Node4</title>
<g id="a_node4"><a xlink:href="dji__error_8hpp.html" target="_top" xlink:title="All DJI OSDK OpenProtocol ACK Error Codes. ">
<polygon fill="white" stroke="black" points="465,-56.5 465,-75.5 535,-75.5 535,-56.5 465,-56.5"/>
<text text-anchor="middle" x="500" y="-63.5" font-family="Helvetica,sans-Serif" font-size="10.00">dji_error.hpp</text>
</a>
</g>
</g>
<!-- Node3&#45;&gt;Node4 -->
<g id="edge3" class="edge"><title>Node3&#45;&gt;Node4</title>
<path fill="none" stroke="midnightblue" d="M473.284,-112.083C477.711,-104.613 484.163,-93.7244 489.618,-84.5199"/>
<polygon fill="midnightblue" stroke="midnightblue" points="492.727,-86.1383 494.814,-75.7511 486.705,-82.5697 492.727,-86.1383"/>
</g>
<!-- Node5 -->
<g id="node5" class="node"><title>Node5</title>
<polygon fill="white" stroke="#bfbfbf" points="412.5,-0.5 412.5,-19.5 461.5,-19.5 461.5,-0.5 412.5,-0.5"/>
<text text-anchor="middle" x="437" y="-7.5" font-family="Helvetica,sans-Serif" font-size="10.00">stdint.h</text>
</g>
<!-- Node3&#45;&gt;Node5 -->
<g id="edge5" class="edge"><title>Node3&#45;&gt;Node5</title>
<path fill="none" stroke="midnightblue" d="M465.567,-112.368C460.542,-94.5366 448.92,-53.2953 442.149,-29.2717"/>
<polygon fill="midnightblue" stroke="midnightblue" points="445.503,-28.2671 439.421,-19.5914 438.765,-30.1659 445.503,-28.2671"/>
</g>
<!-- Node4&#45;&gt;Node5 -->
<g id="edge4" class="edge"><title>Node4&#45;&gt;Node5</title>
<path fill="none" stroke="midnightblue" d="M489.878,-56.324C480.474,-48.2631 466.256,-36.0765 454.931,-26.3695"/>
<polygon fill="midnightblue" stroke="midnightblue" points="457.177,-23.6844 447.306,-19.8339 452.621,-28.9993 457.177,-23.6844"/>
</g>
<!-- Node6&#45;&gt;Node5 -->
<g id="edge8" class="edge"><title>Node6&#45;&gt;Node5</title>
<path fill="none" stroke="midnightblue" d="M350.892,-112.227C348.221,-98.9558 345.168,-73.475 356,-56 366.415,-39.1982 385.495,-28.158 402.521,-21.2195"/>
<polygon fill="midnightblue" stroke="midnightblue" points="404.083,-24.3722 412.228,-17.5956 401.635,-17.8144 404.083,-24.3722"/>
</g>
<!-- Node7 -->
<g id="node7" class="node"><title>Node7</title>
<polygon fill="white" stroke="#bfbfbf" points="365.5,-56.5 365.5,-75.5 408.5,-75.5 408.5,-56.5 365.5,-56.5"/>
<text text-anchor="middle" x="387" y="-63.5" font-family="Helvetica,sans-Serif" font-size="10.00">cstdio</text>
</g>
<!-- Node6&#45;&gt;Node7 -->
<g id="edge7" class="edge"><title>Node6&#45;&gt;Node7</title>
<path fill="none" stroke="midnightblue" d="M358.614,-112.083C363.367,-104.534 370.318,-93.4948 376.152,-84.2298"/>
<polygon fill="midnightblue" stroke="midnightblue" points="379.124,-86.0783 381.49,-75.7511 373.2,-82.3486 379.124,-86.0783"/>
</g>
<!-- Node8&#45;&gt;Node2 -->
<g id="edge16" class="edge"><title>Node8&#45;&gt;Node2</title>
<path fill="none" stroke="midnightblue" d="M802.333,-344.619C687.351,-343.108 361.779,-335.706 262,-300 232.035,-289.277 202.851,-266.2 185.397,-250.633"/>
<polygon fill="midnightblue" stroke="midnightblue" points="187.554,-247.862 177.819,-243.681 182.822,-253.02 187.554,-247.862"/>
</g>
<!-- Node8&#45;&gt;Node3 -->
<g id="edge18" class="edge"><title>Node8&#45;&gt;Node3</title>
<path fill="none" stroke="midnightblue" d="M802.322,-341.255C748.201,-333.704 655.766,-311.114 625,-244 596.036,-180.815 716.684,-205.297 729,-188 734.156,-180.759 734.727,-174.798 729,-168 703.43,-137.644 593.652,-127.765 524.869,-124.551"/>
<polygon fill="midnightblue" stroke="midnightblue" points="524.759,-121.043 514.617,-124.107 524.456,-128.036 524.759,-121.043"/>
</g>
<!-- Node8&#45;&gt;Node6 -->
<g id="edge58" class="edge"><title>Node8&#45;&gt;Node6</title>
<path fill="none" stroke="midnightblue" d="M802.188,-344.321C681.801,-341.959 329.723,-332.396 220,-300 170.401,-285.356 144.338,-288.507 118,-244 101.582,-216.256 142.094,-173.154 149,-168 195.551,-133.257 263.702,-124.373 308.206,-122.59"/>
<polygon fill="midnightblue" stroke="midnightblue" points="308.537,-126.082 318.43,-122.289 308.331,-119.085 308.537,-126.082"/>
</g>
<!-- Node9 -->
<g id="node9" class="node"><title>Node9</title>
<polygon fill="white" stroke="#bfbfbf" points="1044,-112.5 1044,-131.5 1090,-131.5 1090,-112.5 1044,-112.5"/>
<text text-anchor="middle" x="1067" y="-119.5" font-family="Helvetica,sans-Serif" font-size="10.00">cstdint</text>
</g>
<!-- Node8&#45;&gt;Node9 -->
<g id="edge10" class="edge"><title>Node8&#45;&gt;Node9</title>
<path fill="none" stroke="midnightblue" d="M847.302,-336.176C854.12,-322.839 868.449,-297.274 886,-280 940.128,-226.727 977.685,-243.055 1030,-188 1042.97,-174.348 1053.12,-155.303 1059.48,-141.356"/>
<polygon fill="midnightblue" stroke="midnightblue" points="1062.83,-142.427 1063.59,-131.859 1056.41,-139.646 1062.83,-142.427"/>
</g>
<!-- Node10 -->
<g id="node10" class="node"><title>Node10</title>
<g id="a_node10"><a xlink:href="dji__broadcast_8hpp.html" target="_top" xlink:title="Broadcast Telemetry API for DJI onboardSDK library. ">
<polygon fill="white" stroke="black" points="634.5,-224.5 634.5,-243.5 727.5,-243.5 727.5,-224.5 634.5,-224.5"/>
<text text-anchor="middle" x="681" y="-231.5" font-family="Helvetica,sans-Serif" font-size="10.00">dji_broadcast.hpp</text>
</a>
</g>
</g>
<!-- Node8&#45;&gt;Node10 -->
<g id="edge11" class="edge"><title>Node8&#45;&gt;Node10</title>
<path fill="none" stroke="midnightblue" d="M802.35,-340.735C772.578,-335.633 732.993,-324.455 707,-300 694.021,-287.789 687.38,-268.242 684.075,-253.769"/>
<polygon fill="midnightblue" stroke="midnightblue" points="687.499,-253.041 682.148,-243.896 680.628,-254.381 687.499,-253.041"/>
</g>
<!-- Node12 -->
<g id="node12" class="node"><title>Node12</title>
<g id="a_node12"><a xlink:href="dji__vehicle__callback_8hpp.html" target="_top" xlink:title="Type definition for new Vehicle&#45;style callbacks. ">
<polygon fill="white" stroke="black" points="1146,-112.5 1146,-131.5 1268,-131.5 1268,-112.5 1146,-112.5"/>
<text text-anchor="middle" x="1207" y="-119.5" font-family="Helvetica,sans-Serif" font-size="10.00">dji_vehicle_callback.hpp</text>
</a>
</g>
</g>
<!-- Node8&#45;&gt;Node12 -->
<g id="edge59" class="edge"><title>Node8&#45;&gt;Node12</title>
<path fill="none" stroke="midnightblue" d="M883.761,-344.72C1008.45,-343.47 1378.59,-336.674 1417,-300 1459.67,-259.257 1468.38,-213.64 1431,-168 1411.88,-144.661 1336.39,-133.169 1278.28,-127.687"/>
<polygon fill="midnightblue" stroke="midnightblue" points="1278.29,-124.173 1268.01,-126.763 1277.66,-131.145 1278.29,-124.173"/>
</g>
<!-- Node13 -->
<g id="node13" class="node"><title>Node13</title>
<polygon fill="white" stroke="#bfbfbf" points="1106.5,-56.5 1106.5,-75.5 1217.5,-75.5 1217.5,-56.5 1106.5,-56.5"/>
<text text-anchor="middle" x="1162" y="-63.5" font-family="Helvetica,sans-Serif" font-size="10.00">dji_open_protocol.hpp</text>
</g>
<!-- Node8&#45;&gt;Node13 -->
<g id="edge51" class="edge"><title>Node8&#45;&gt;Node13</title>
<path fill="none" stroke="midnightblue" d="M883.727,-345.176C1008.22,-345.25 1382.11,-341.887 1495,-300 1540.25,-283.21 1582,-283.267 1582,-235 1582,-235 1582,-235 1582,-177 1582,-104.674 1345.98,-78.9695 1227.8,-70.632"/>
<polygon fill="midnightblue" stroke="midnightblue" points="1227.99,-67.1369 1217.77,-69.9465 1227.51,-74.1206 1227.99,-67.1369"/>
</g>
<!-- Node14 -->
<g id="node14" class="node"><title>Node14</title>
<polygon fill="white" stroke="#bfbfbf" points="928,-280.5 928,-299.5 1040,-299.5 1040,-280.5 928,-280.5"/>
<text text-anchor="middle" x="984" y="-287.5" font-family="Helvetica,sans-Serif" font-size="10.00">dji_circular_buffer.hpp</text>
</g>
<!-- Node8&#45;&gt;Node14 -->
<g id="edge17" class="edge"><title>Node8&#45;&gt;Node14</title>
<path fill="none" stroke="midnightblue" d="M865.342,-336.444C888.753,-327.478 925.736,-313.314 952.19,-303.183"/>
<polygon fill="midnightblue" stroke="midnightblue" points="953.676,-306.361 961.763,-299.516 951.172,-299.824 953.676,-306.361"/>
</g>
<!-- Node15 -->
<g id="node15" class="node"><title>Node15</title>
<g id="a_node15"><a xlink:href="dji__control_8hpp.html" target="_top" xlink:title="Control API for DJI OSDK library. ">
<polygon fill="white" stroke="black" points="716,-280.5 716,-299.5 796,-299.5 796,-280.5 716,-280.5"/>
<text text-anchor="middle" x="756" y="-287.5" font-family="Helvetica,sans-Serif" font-size="10.00">dji_control.hpp</text>
</a>
</g>
</g>
<!-- Node8&#45;&gt;Node15 -->
<g id="edge19" class="edge"><title>Node8&#45;&gt;Node15</title>
<path fill="none" stroke="midnightblue" d="M829.022,-336.324C815.45,-327.9 794.62,-314.971 778.675,-305.074"/>
<polygon fill="midnightblue" stroke="midnightblue" points="780.286,-301.954 769.943,-299.655 776.594,-307.902 780.286,-301.954"/>
</g>
<!-- Node18 -->
<g id="node18" class="node"><title>Node18</title>
<g id="a_node18"><a xlink:href="dji__version_8hpp.html" target="_top" xlink:title="Drone/SDK Version definition for DJI onboardSDK library. ">
<polygon fill="white" stroke="black" points="906,-168.5 906,-187.5 988,-187.5 988,-168.5 906,-168.5"/>
<text text-anchor="middle" x="947" y="-175.5" font-family="Helvetica,sans-Serif" font-size="10.00">dji_version.hpp</text>
</a>
</g>
</g>
<!-- Node8&#45;&gt;Node18 -->
<g id="edge60" class="edge"><title>Node8&#45;&gt;Node18</title>
<path fill="none" stroke="midnightblue" d="M841.834,-336.12C840.529,-323.15 839.58,-298.551 848,-280 864.917,-242.728 901.782,-211.17 925.442,-193.689"/>
<polygon fill="midnightblue" stroke="midnightblue" points="927.71,-196.369 933.794,-187.696 923.629,-190.682 927.71,-196.369"/>
</g>
<!-- Node20 -->
<g id="node20" class="node"><title>Node20</title>
<g id="a_node20"><a xlink:href="dji__gimbal_8hpp.html" target="_top" xlink:title="Gimbal API for OSDK library. ">
<polygon fill="white" stroke="black" points="200.5,-168.5 200.5,-187.5 279.5,-187.5 279.5,-168.5 200.5,-168.5"/>
<text text-anchor="middle" x="240" y="-175.5" font-family="Helvetica,sans-Serif" font-size="10.00">dji_gimbal.hpp</text>
</a>
</g>
</g>
<!-- Node8&#45;&gt;Node20 -->
<g id="edge32" class="edge"><title>Node8&#45;&gt;Node20</title>
<path fill="none" stroke="midnightblue" d="M802.386,-343.263C706.933,-338.805 470.749,-325.476 396,-300 334.845,-279.158 279.17,-223.405 254.062,-195.454"/>
<polygon fill="midnightblue" stroke="midnightblue" points="256.512,-192.939 247.279,-187.741 251.255,-197.561 256.512,-192.939"/>
</g>
<!-- Node21 -->
<g id="node21" class="node"><title>Node21</title>
<polygon fill="white" stroke="#bfbfbf" points="1058,-280.5 1058,-299.5 1156,-299.5 1156,-280.5 1058,-280.5"/>
<text text-anchor="middle" x="1107" y="-287.5" font-family="Helvetica,sans-Serif" font-size="10.00">dji_hard_driver.hpp</text>
</g>
<!-- Node8&#45;&gt;Node21 -->
<g id="edge35" class="edge"><title>Node8&#45;&gt;Node21</title>
<path fill="none" stroke="midnightblue" d="M883.671,-336.681C929.814,-327.243 1005.16,-311.831 1055.4,-301.554"/>
<polygon fill="midnightblue" stroke="midnightblue" points="1056.31,-304.94 1065.41,-299.507 1054.91,-298.082 1056.31,-304.94"/>
</g>
<!-- Node22 -->
<g id="node22" class="node"><title>Node22</title>
<g id="a_node22"><a xlink:href="dji__hardware__sync_8hpp.html" target="_top" xlink:title="Hardware Sync API for DJI OSDK. ">
<polygon fill="white" stroke="black" points="0,-280.5 0,-299.5 116,-299.5 116,-280.5 0,-280.5"/>
<text text-anchor="middle" x="58" y="-287.5" font-family="Helvetica,sans-Serif" font-size="10.00">dji_hardware_sync.hpp</text>
</a>
</g>
</g>
<!-- Node8&#45;&gt;Node22 -->
<g id="edge36" class="edge"><title>Node8&#45;&gt;Node22</title>
<path fill="none" stroke="midnightblue" d="M802.278,-342.5C697.215,-336.003 408.4,-317.847 168,-300 154.6,-299.005 140.288,-297.88 126.568,-296.771"/>
<polygon fill="midnightblue" stroke="midnightblue" points="126.468,-293.251 116.217,-295.928 125.9,-300.228 126.468,-293.251"/>
</g>
<!-- Node23 -->
<g id="node23" class="node"><title>Node23</title>
<g id="a_node23"><a xlink:href="dji__mfio_8hpp.html" target="_top" xlink:title="MFIO API for DJI OSDK library. ">
<polygon fill="white" stroke="black" points="1484.5,-224.5 1484.5,-243.5 1553.5,-243.5 1553.5,-224.5 1484.5,-224.5"/>
<text text-anchor="middle" x="1519" y="-231.5" font-family="Helvetica,sans-Serif" font-size="10.00">dji_mfio.hpp</text>
</a>
</g>
</g>
<!-- Node8&#45;&gt;Node23 -->
<g id="edge38" class="edge"><title>Node8&#45;&gt;Node23</title>
<path fill="none" stroke="midnightblue" d="M883.951,-344.017C1015.03,-340.601 1418.71,-327.902 1470,-300 1489.14,-289.585 1503.01,-268.129 1511,-252.715"/>
<polygon fill="midnightblue" stroke="midnightblue" points="1514.19,-254.16 1515.4,-243.635 1507.89,-251.105 1514.19,-254.16"/>
</g>
<!-- Node24 -->
<g id="node24" class="node"><title>Node24</title>
<g id="a_node24"><a xlink:href="dji__mission__manager_8hpp.html" target="_top" xlink:title="Mission&#45;Manager API for DJI OSDK library. ">
<polygon fill="white" stroke="black" points="405.5,-280.5 405.5,-299.5 532.5,-299.5 532.5,-280.5 405.5,-280.5"/>
<text text-anchor="middle" x="469" y="-287.5" font-family="Helvetica,sans-Serif" font-size="10.00">dji_mission_manager.hpp</text>
</a>
</g>
</g>
<!-- Node8&#45;&gt;Node24 -->
<g id="edge40" class="edge"><title>Node8&#45;&gt;Node24</title>
<path fill="none" stroke="midnightblue" d="M802.263,-339.118C738.848,-329.962 615.77,-312.191 538.236,-300.997"/>
<polygon fill="midnightblue" stroke="midnightblue" points="538.475,-297.495 528.078,-299.53 537.475,-304.423 538.475,-297.495"/>
</g>
<!-- Node28 -->
<g id="node28" class="node"><title>Node28</title>
<g id="a_node28"><a xlink:href="dji__mobile__communication_8hpp.html" target="_top" xlink:title="Implementation of DJI Mobile&#45;Onboard SDK Communication (MOC) ">
<polygon fill="white" stroke="black" points="1272,-168.5 1272,-187.5 1422,-187.5 1422,-168.5 1272,-168.5"/>
<text text-anchor="middle" x="1347" y="-175.5" font-family="Helvetica,sans-Serif" font-size="10.00">dji_mobile_communication.hpp</text>
</a>
</g>
</g>
<!-- Node8&#45;&gt;Node28 -->
<g id="edge49" class="edge"><title>Node8&#45;&gt;Node28</title>
<path fill="none" stroke="midnightblue" d="M883.544,-344.813C1005.74,-343.83 1364.2,-337.729 1399,-300 1427.54,-269.062 1388.15,-220.054 1363.76,-194.959"/>
<polygon fill="midnightblue" stroke="midnightblue" points="1366.03,-192.281 1356.48,-187.705 1361.1,-197.241 1366.03,-192.281"/>
</g>
<!-- Node29 -->
<g id="node29" class="node"><title>Node29</title>
<g id="a_node29"><a xlink:href="dji__status_8hpp.html" target="_top" xlink:title="Status information for DJI Vehicle. ">
<polygon fill="white" stroke="black" points="1174.5,-280.5 1174.5,-299.5 1251.5,-299.5 1251.5,-280.5 1174.5,-280.5"/>
<text text-anchor="middle" x="1213" y="-287.5" font-family="Helvetica,sans-Serif" font-size="10.00">dji_status.hpp</text>
</a>
</g>
</g>
<!-- Node8&#45;&gt;Node29 -->
<g id="edge52" class="edge"><title>Node8&#45;&gt;Node29</title>
<path fill="none" stroke="midnightblue" d="M883.503,-339.954C942.776,-332.435 1056.86,-317.454 1164.22,-300.061"/>
<polygon fill="midnightblue" stroke="midnightblue" points="1164.95,-303.488 1174.25,-298.425 1163.82,-296.58 1164.95,-303.488"/>
</g>
<!-- Node30 -->
<g id="node30" class="node"><title>Node30</title>
<g id="a_node30"><a xlink:href="dji__subscription_8hpp.html" target="_top" xlink:title="Telemetry Subscription API for DJI OSDK library. ">
<polygon fill="white" stroke="black" points="1040.5,-224.5 1040.5,-243.5 1143.5,-243.5 1143.5,-224.5 1040.5,-224.5"/>
<text text-anchor="middle" x="1092" y="-231.5" font-family="Helvetica,sans-Serif" font-size="10.00">dji_subscription.hpp</text>
</a>
</g>
</g>
<!-- Node8&#45;&gt;Node30 -->
<g id="edge53" class="edge"><title>Node8&#45;&gt;Node30</title>
<path fill="none" stroke="midnightblue" d="M850.518,-336.429C863.224,-322.484 890.371,-294.941 919,-280 953.682,-261.9 996.155,-250.714 1030.34,-244.022"/>
<polygon fill="midnightblue" stroke="midnightblue" points="1031.02,-247.455 1040.2,-242.169 1029.73,-240.575 1031.02,-247.455"/>
</g>
<!-- Node31 -->
<g id="node31" class="node"><title>Node31</title>
<polygon fill="white" stroke="#bfbfbf" points="1270,-280.5 1270,-299.5 1390,-299.5 1390,-280.5 1270,-280.5"/>
<text text-anchor="middle" x="1330" y="-287.5" font-family="Helvetica,sans-Serif" font-size="10.00">dji_thread_manager.hpp</text>
</g>
<!-- Node8&#45;&gt;Node31 -->
<g id="edge57" class="edge"><title>Node8&#45;&gt;Node31</title>
<path fill="none" stroke="midnightblue" d="M883.679,-340.927C956.772,-333.542 1115.41,-317.211 1259.87,-300.113"/>
<polygon fill="midnightblue" stroke="midnightblue" points="1260.28,-303.588 1269.8,-298.933 1259.46,-296.637 1260.28,-303.588"/>
</g>
<!-- Node11 -->
<g id="node11" class="node"><title>Node11</title>
<g id="a_node11"><a xlink:href="dji__telemetry_8hpp.html" target="_top" xlink:title="Enumeration of all telemetry data types, structures and maps. ">
<polygon fill="white" stroke="black" points="426.5,-168.5 426.5,-187.5 517.5,-187.5 517.5,-168.5 426.5,-168.5"/>
<text text-anchor="middle" x="472" y="-175.5" font-family="Helvetica,sans-Serif" font-size="10.00">dji_telemetry.hpp</text>
</a>
</g>
</g>
<!-- Node10&#45;&gt;Node11 -->
<g id="edge12" class="edge"><title>Node10&#45;&gt;Node11</title>
<path fill="none" stroke="midnightblue" d="M647.883,-224.444C611.882,-215.142 554.23,-200.246 514.814,-190.062"/>
<polygon fill="midnightblue" stroke="midnightblue" points="515.519,-186.629 504.962,-187.516 513.768,-193.407 515.519,-186.629"/>
</g>
<!-- Node10&#45;&gt;Node12 -->
<g id="edge14" class="edge"><title>Node10&#45;&gt;Node12</title>
<path fill="none" stroke="midnightblue" d="M698.003,-224.462C726.978,-210.308 788.125,-182.146 843,-168 896.731,-154.149 1046.01,-138.301 1135.84,-129.594"/>
<polygon fill="midnightblue" stroke="midnightblue" points="1136.33,-133.063 1145.95,-128.62 1135.66,-126.095 1136.33,-133.063"/>
</g>
<!-- Node11&#45;&gt;Node6 -->
<g id="edge13" class="edge"><title>Node11&#45;&gt;Node6</title>
<path fill="none" stroke="midnightblue" d="M453.144,-168.444C433.734,-159.636 403.27,-145.812 381.035,-135.722"/>
<polygon fill="midnightblue" stroke="midnightblue" points="382.32,-132.462 371.768,-131.516 379.428,-138.836 382.32,-132.462"/>
</g>
<!-- Node12&#45;&gt;Node13 -->
<g id="edge15" class="edge"><title>Node12&#45;&gt;Node13</title>
<path fill="none" stroke="midnightblue" d="M1199.57,-112.083C1193.15,-104.377 1183.69,-93.0333 1175.88,-83.6531"/>
<polygon fill="midnightblue" stroke="midnightblue" points="1178.38,-81.1927 1169.29,-75.7511 1173.01,-85.674 1178.38,-81.1927"/>
</g>
<!-- Node15&#45;&gt;Node6 -->
<g id="edge30" class="edge"><title>Node15&#45;&gt;Node6</title>
<path fill="none" stroke="midnightblue" d="M755.979,-280.389C755.451,-266.385 752.261,-238.76 736,-224 676.88,-170.339 634.532,-216.629 560,-188 543.634,-181.714 542.194,-174.716 526,-168 483.993,-150.58 433.393,-138.359 397.801,-131.092"/>
<polygon fill="midnightblue" stroke="midnightblue" points="398.213,-127.605 387.722,-129.085 396.846,-134.471 398.213,-127.605"/>
</g>
<!-- Node15&#45;&gt;Node12 -->
<g id="edge31" class="edge"><title>Node15&#45;&gt;Node12</title>
<path fill="none" stroke="midnightblue" d="M796.24,-286.668C891.235,-280.846 1123.6,-264.65 1152,-244 1185.8,-219.422 1199.31,-169.052 1204.31,-141.69"/>
<polygon fill="midnightblue" stroke="midnightblue" points="1207.82,-141.948 1205.97,-131.515 1200.91,-140.821 1207.82,-141.948"/>
</g>
<!-- Node15&#45;&gt;Node13 -->
<g id="edge29" class="edge"><title>Node15&#45;&gt;Node13</title>
<path fill="none" stroke="midnightblue" d="M782.877,-280.382C838.607,-262.1 964.282,-218.602 997,-188 1024.58,-162.203 1006.7,-137.01 1035,-112 1053.71,-95.4627 1078.9,-84.8926 1101.91,-78.1886"/>
<polygon fill="midnightblue" stroke="midnightblue" points="1102.89,-81.5507 1111.61,-75.546 1101.05,-74.7967 1102.89,-81.5507"/>
</g>
<!-- Node16 -->
<g id="node16" class="node"><title>Node16</title>
<g id="a_node16"><a xlink:href="dji__ack_8hpp.html" target="_top" xlink:title="All DJI OSDK ACK parsing. ">
<polygon fill="white" stroke="black" points="784,-224.5 784,-243.5 850,-243.5 850,-224.5 784,-224.5"/>
<text text-anchor="middle" x="817" y="-231.5" font-family="Helvetica,sans-Serif" font-size="10.00">dji_ack.hpp</text>
</a>
</g>
</g>
<!-- Node15&#45;&gt;Node16 -->
<g id="edge20" class="edge"><title>Node15&#45;&gt;Node16</title>
<path fill="none" stroke="midnightblue" d="M765.801,-280.324C774.818,-272.341 788.406,-260.313 799.318,-250.653"/>
<polygon fill="midnightblue" stroke="midnightblue" points="801.853,-253.083 807.021,-243.834 797.213,-247.842 801.853,-253.083"/>
</g>
<!-- Node16&#45;&gt;Node3 -->
<g id="edge21" class="edge"><title>Node16&#45;&gt;Node3</title>
<path fill="none" stroke="midnightblue" d="M812.294,-224.09C804.156,-209.656 785.994,-181.428 762,-168 722.353,-145.812 598.294,-132.865 524.605,-126.938"/>
<polygon fill="midnightblue" stroke="midnightblue" points="524.799,-123.443 514.556,-126.149 524.251,-130.421 524.799,-123.443"/>
</g>
<!-- Node16&#45;&gt;Node6 -->
<g id="edge24" class="edge"><title>Node16&#45;&gt;Node6</title>
<path fill="none" stroke="midnightblue" d="M783.753,-226.443C727.978,-215.378 619.976,-193.65 603,-188 583.001,-181.344 579.976,-174.724 560,-168 505.421,-149.627 440.163,-136.894 397.71,-129.776"/>
<polygon fill="midnightblue" stroke="midnightblue" points="398.129,-126.298 387.693,-128.129 396.993,-133.205 398.129,-126.298"/>
</g>
<!-- Node17 -->
<g id="node17" class="node"><title>Node17</title>
<g id="a_node17"><a xlink:href="dji__mission__type_8hpp.html" target="_top" xlink:title="Mission related data struct for DJI OSDK library. ">
<polygon fill="white" stroke="black" points="612,-168.5 612,-187.5 720,-187.5 720,-168.5 612,-168.5"/>
<text text-anchor="middle" x="666" y="-175.5" font-family="Helvetica,sans-Serif" font-size="10.00">dji_mission_type.hpp</text>
</a>
</g>
</g>
<!-- Node16&#45;&gt;Node17 -->
<g id="edge22" class="edge"><title>Node16&#45;&gt;Node17</title>
<path fill="none" stroke="midnightblue" d="M793.074,-224.444C767.781,-215.399 727.698,-201.064 699.32,-190.916"/>
<polygon fill="midnightblue" stroke="midnightblue" points="700.409,-187.588 689.814,-187.516 698.052,-194.179 700.409,-187.588"/>
</g>
<!-- Node16&#45;&gt;Node18 -->
<g id="edge25" class="edge"><title>Node16&#45;&gt;Node18</title>
<path fill="none" stroke="midnightblue" d="M837.599,-224.444C858.993,-215.557 892.681,-201.563 917.024,-191.451"/>
<polygon fill="midnightblue" stroke="midnightblue" points="918.605,-194.585 926.497,-187.516 915.92,-188.12 918.605,-194.585"/>
</g>
<!-- Node19 -->
<g id="node19" class="node"><title>Node19</title>
<polygon fill="white" stroke="#bfbfbf" points="852.5,-168.5 852.5,-187.5 887.5,-187.5 887.5,-168.5 852.5,-168.5"/>
<text text-anchor="middle" x="870" y="-175.5" font-family="Helvetica,sans-Serif" font-size="10.00">map</text>
</g>
<!-- Node16&#45;&gt;Node19 -->
<g id="edge28" class="edge"><title>Node16&#45;&gt;Node19</title>
<path fill="none" stroke="midnightblue" d="M825.752,-224.083C833.47,-216.22 844.905,-204.569 854.217,-195.081"/>
<polygon fill="midnightblue" stroke="midnightblue" points="856.904,-197.34 861.411,-187.751 851.908,-192.436 856.904,-197.34"/>
</g>
<!-- Node17&#45;&gt;Node6 -->
<g id="edge23" class="edge"><title>Node17&#45;&gt;Node6</title>
<path fill="none" stroke="midnightblue" d="M616.404,-168.444C556.237,-158.063 455.688,-140.716 397.778,-130.725"/>
<polygon fill="midnightblue" stroke="midnightblue" points="398.276,-127.26 387.827,-129.008 397.086,-134.158 398.276,-127.26"/>
</g>
<!-- Node18&#45;&gt;Node3 -->
<g id="edge26" class="edge"><title>Node18&#45;&gt;Node3</title>
<path fill="none" stroke="midnightblue" d="M905.843,-169.483C902.518,-168.953 899.205,-168.451 896,-168 763.496,-149.366 606.921,-134.781 524.801,-127.699"/>
<polygon fill="midnightblue" stroke="midnightblue" points="524.943,-124.198 514.68,-126.832 524.345,-131.173 524.943,-124.198"/>
</g>
<!-- Node18&#45;&gt;Node9 -->
<g id="edge27" class="edge"><title>Node18&#45;&gt;Node9</title>
<path fill="none" stroke="midnightblue" d="M966.014,-168.444C985.588,-159.636 1016.31,-145.812 1038.73,-135.722"/>
<polygon fill="midnightblue" stroke="midnightblue" points="1040.39,-138.812 1048.07,-131.516 1037.52,-132.428 1040.39,-138.812"/>
</g>
<!-- Node20&#45;&gt;Node3 -->
<g id="edge33" class="edge"><title>Node20&#45;&gt;Node3</title>
<path fill="none" stroke="midnightblue" d="M276.127,-168.444C315.651,-159.083 379.097,-144.056 422.113,-133.868"/>
<polygon fill="midnightblue" stroke="midnightblue" points="423.118,-137.227 432.042,-131.516 421.504,-130.415 423.118,-137.227"/>
</g>
<!-- Node20&#45;&gt;Node6 -->
<g id="edge34" class="edge"><title>Node20&#45;&gt;Node6</title>
<path fill="none" stroke="midnightblue" d="M257.905,-168.444C276.254,-159.675 305.005,-145.935 326.094,-135.858"/>
<polygon fill="midnightblue" stroke="midnightblue" points="327.665,-138.986 335.179,-131.516 324.647,-132.67 327.665,-138.986"/>
</g>
<!-- Node22&#45;&gt;Node6 -->
<g id="edge37" class="edge"><title>Node22&#45;&gt;Node6</title>
<path fill="none" stroke="midnightblue" d="M56.7635,-280.47C54.0847,-258.344 50.3206,-198.704 82,-168 113.516,-137.454 239.793,-127.57 308.283,-124.427"/>
<polygon fill="midnightblue" stroke="midnightblue" points="308.513,-127.921 318.353,-123.995 308.212,-120.927 308.513,-127.921"/>
</g>
<!-- Node23&#45;&gt;Node12 -->
<g id="edge39" class="edge"><title>Node23&#45;&gt;Node12</title>
<path fill="none" stroke="midnightblue" d="M1515.05,-224.145C1508.14,-209.792 1492.45,-181.675 1470,-168 1438.58,-148.859 1344.89,-136.146 1278.31,-129.254"/>
<polygon fill="midnightblue" stroke="midnightblue" points="1278.58,-125.764 1268.28,-128.238 1277.88,-132.728 1278.58,-125.764"/>
</g>
<!-- Node25 -->
<g id="node25" class="node"><title>Node25</title>
<g id="a_node25"><a xlink:href="dji__hotpoint_8hpp.html" target="_top" xlink:title="Implementation of HotPoint (Point of Interest) Missions for DJI OSDK. ">
<polygon fill="white" stroke="black" points="426.5,-224.5 426.5,-243.5 511.5,-243.5 511.5,-224.5 426.5,-224.5"/>
<text text-anchor="middle" x="469" y="-231.5" font-family="Helvetica,sans-Serif" font-size="10.00">dji_hotpoint.hpp</text>
</a>
</g>
</g>
<!-- Node24&#45;&gt;Node25 -->
<g id="edge41" class="edge"><title>Node24&#45;&gt;Node25</title>
<path fill="none" stroke="midnightblue" d="M469,-280.083C469,-273.006 469,-262.861 469,-253.986"/>
<polygon fill="midnightblue" stroke="midnightblue" points="472.5,-253.751 469,-243.751 465.5,-253.751 472.5,-253.751"/>
</g>
<!-- Node27 -->
<g id="node27" class="node"><title>Node27</title>
<g id="a_node27"><a xlink:href="dji__waypoint_8hpp.html" target="_top" xlink:title="Implementation of GPS Waypoint Missions for DJI OSDK. ">
<polygon fill="white" stroke="black" points="315.5,-224.5 315.5,-243.5 404.5,-243.5 404.5,-224.5 315.5,-224.5"/>
<text text-anchor="middle" x="360" y="-231.5" font-family="Helvetica,sans-Serif" font-size="10.00">dji_waypoint.hpp</text>
</a>
</g>
</g>
<!-- Node24&#45;&gt;Node27 -->
<g id="edge47" class="edge"><title>Node24&#45;&gt;Node27</title>
<path fill="none" stroke="midnightblue" d="M451.487,-280.324C433.928,-271.625 406.669,-258.12 386.469,-248.113"/>
<polygon fill="midnightblue" stroke="midnightblue" points="387.984,-244.958 377.469,-243.655 384.876,-251.23 387.984,-244.958"/>
</g>
<!-- Node25&#45;&gt;Node11 -->
<g id="edge46" class="edge"><title>Node25&#45;&gt;Node11</title>
<path fill="none" stroke="midnightblue" d="M469.495,-224.083C469.889,-217.006 470.452,-206.861 470.945,-197.986"/>
<polygon fill="midnightblue" stroke="midnightblue" points="474.454,-197.93 471.514,-187.751 467.464,-197.542 474.454,-197.93"/>
</g>
<!-- Node26 -->
<g id="node26" class="node"><title>Node26</title>
<g id="a_node26"><a xlink:href="dji__mission__base_8hpp.html" target="_top" xlink:title="Mission&#45;Base abstract class for DJI OSDK library. ">
<polygon fill="white" stroke="black" points="298,-168.5 298,-187.5 408,-187.5 408,-168.5 298,-168.5"/>
<text text-anchor="middle" x="353" y="-175.5" font-family="Helvetica,sans-Serif" font-size="10.00">dji_mission_base.hpp</text>
</a>
</g>
</g>
<!-- Node25&#45;&gt;Node26 -->
<g id="edge42" class="edge"><title>Node25&#45;&gt;Node26</title>
<path fill="none" stroke="midnightblue" d="M450.619,-224.444C431.784,-215.675 402.269,-201.935 380.621,-191.858"/>
<polygon fill="midnightblue" stroke="midnightblue" points="381.838,-188.564 371.295,-187.516 378.883,-194.91 381.838,-188.564"/>
</g>
<!-- Node26&#45;&gt;Node3 -->
<g id="edge43" class="edge"><title>Node26&#45;&gt;Node3</title>
<path fill="none" stroke="midnightblue" d="M371.222,-168.444C389.896,-159.675 419.156,-145.935 440.617,-135.858"/>
<polygon fill="midnightblue" stroke="midnightblue" points="442.299,-138.935 449.863,-131.516 439.324,-132.599 442.299,-138.935"/>
</g>
<!-- Node26&#45;&gt;Node6 -->
<g id="edge44" class="edge"><title>Node26&#45;&gt;Node6</title>
<path fill="none" stroke="midnightblue" d="M353,-168.083C353,-161.006 353,-150.861 353,-141.986"/>
<polygon fill="midnightblue" stroke="midnightblue" points="356.5,-141.751 353,-131.751 349.5,-141.751 356.5,-141.751"/>
</g>
<!-- Node26&#45;&gt;Node12 -->
<g id="edge45" class="edge"><title>Node26&#45;&gt;Node12</title>
<path fill="none" stroke="midnightblue" d="M408.122,-168.938C411.122,-168.596 414.096,-168.28 417,-168 719.129,-138.838 796.167,-152.606 1099,-132 1110.88,-131.192 1123.48,-130.233 1135.73,-129.248"/>
<polygon fill="midnightblue" stroke="midnightblue" points="1136.23,-132.719 1145.91,-128.417 1135.66,-125.742 1136.23,-132.719"/>
</g>
<!-- Node27&#45;&gt;Node26 -->
<g id="edge48" class="edge"><title>Node27&#45;&gt;Node26</title>
<path fill="none" stroke="midnightblue" d="M358.844,-224.083C357.916,-216.927 356.582,-206.635 355.423,-197.691"/>
<polygon fill="midnightblue" stroke="midnightblue" points="358.891,-197.218 354.134,-187.751 351.949,-198.118 358.891,-197.218"/>
</g>
<!-- Node28&#45;&gt;Node12 -->
<g id="edge50" class="edge"><title>Node28&#45;&gt;Node12</title>
<path fill="none" stroke="midnightblue" d="M1324.82,-168.444C1301.57,-159.478 1264.85,-145.314 1238.58,-135.183"/>
<polygon fill="midnightblue" stroke="midnightblue" points="1239.67,-131.85 1229.08,-131.516 1237.15,-138.381 1239.67,-131.85"/>
</g>
<!-- Node30&#45;&gt;Node11 -->
<g id="edge55" class="edge"><title>Node30&#45;&gt;Node11</title>
<path fill="none" stroke="midnightblue" d="M1040.47,-228.512C925.13,-218.466 646.963,-194.239 527.756,-183.856"/>
<polygon fill="midnightblue" stroke="midnightblue" points="528.012,-180.365 517.746,-182.984 527.405,-187.339 528.012,-180.365"/>
</g>
<!-- Node30&#45;&gt;Node12 -->
<g id="edge56" class="edge"><title>Node30&#45;&gt;Node12</title>
<path fill="none" stroke="midnightblue" d="M1101.02,-224.368C1120.34,-205.894 1165.92,-162.293 1190.54,-138.744"/>
<polygon fill="midnightblue" stroke="midnightblue" points="1193.21,-141.033 1198.02,-131.591 1188.37,-135.974 1193.21,-141.033"/>
</g>
<!-- Node30&#45;&gt;Node13 -->
<g id="edge54" class="edge"><title>Node30&#45;&gt;Node13</title>
<path fill="none" stroke="midnightblue" d="M1094.73,-224.311C1101.16,-204.175 1118.16,-152.919 1137,-112 1141.3,-102.665 1146.78,-92.6356 1151.51,-84.42"/>
<polygon fill="midnightblue" stroke="midnightblue" points="1154.56,-86.1521 1156.61,-75.7588 1148.52,-82.6011 1154.56,-86.1521"/>
</g>
</g>
</svg>
