<?xml version="1.0" encoding="UTF-8" standalone="no"?>
<!DOCTYPE svg PUBLIC "-//W3C//DTD SVG 1.1//EN"
 "http://www.w3.org/Graphics/SVG/1.1/DTD/svg11.dtd">
<!-- Generated by graphviz version 2.38.0 (20140413.2041)
 -->
<!-- Title: osdk&#45;core/api/src/dji_mobile_communication.cpp Pages: 1 -->
<svg width="1672pt" height="431pt"
 viewBox="0.00 0.00 1672.13 431.00" xmlns="http://www.w3.org/2000/svg" xmlns:xlink="http://www.w3.org/1999/xlink">
<g id="graph0" class="graph" transform="scale(1 1) rotate(0) translate(4 427)">
<title>osdk&#45;core/api/src/dji_mobile_communication.cpp</title>
<polygon fill="white" stroke="none" points="-4,4 -4,-427 1668.13,-427 1668.13,4 -4,4"/>
<!-- Node1 -->
<g id="node1" class="node"><title>Node1</title>
<polygon fill="#bfbfbf" stroke="black" points="1031,-392.5 1031,-422.5 1171,-422.5 1171,-392.5 1031,-392.5"/>
<text text-anchor="start" x="1039" y="-410.5" font-family="Helvetica,sans-Serif" font-size="10.00">osdk&#45;core/api/src/dji</text>
<text text-anchor="middle" x="1101" y="-399.5" font-family="Helvetica,sans-Serif" font-size="10.00">_mobile_communication.cpp</text>
</g>
<!-- Node2 -->
<g id="node2" class="node"><title>Node2</title>
<g id="a_node2"><a xlink:href="dji__mobile__communication_8hpp.html" target="_top" xlink:title="Implementation of DJI Mobile&#45;Onboard SDK Communication (MOC) ">
<polygon fill="white" stroke="black" points="1485,-280.5 1485,-299.5 1635,-299.5 1635,-280.5 1485,-280.5"/>
<text text-anchor="middle" x="1560" y="-287.5" font-family="Helvetica,sans-Serif" font-size="10.00">dji_mobile_communication.hpp</text>
</a>
</g>
</g>
<!-- Node1&#45;&gt;Node2 -->
<g id="edge1" class="edge"><title>Node1&#45;&gt;Node2</title>
<path fill="none" stroke="midnightblue" d="M1156.82,-392.453C1249.35,-369.171 1432.56,-323.069 1516.34,-301.986"/>
<polygon fill="midnightblue" stroke="midnightblue" points="1517.21,-305.377 1526.05,-299.542 1515.5,-298.588 1517.21,-305.377"/>
</g>
<!-- Node5 -->
<g id="node5" class="node"><title>Node5</title>
<g id="a_node5"><a xlink:href="dji__vehicle_8hpp.html" target="_top" xlink:title="Vehicle API for DJI onboardSDK library. ">
<polygon fill="white" stroke="black" points="884.5,-336.5 884.5,-355.5 965.5,-355.5 965.5,-336.5 884.5,-336.5"/>
<text text-anchor="middle" x="925" y="-343.5" font-family="Helvetica,sans-Serif" font-size="10.00">dji_vehicle.hpp</text>
</a>
</g>
</g>
<!-- Node1&#45;&gt;Node5 -->
<g id="edge4" class="edge"><title>Node1&#45;&gt;Node5</title>
<path fill="none" stroke="midnightblue" d="M1059.29,-392.399C1029.01,-382.163 988.509,-368.47 959.928,-358.808"/>
<polygon fill="midnightblue" stroke="midnightblue" points="960.947,-355.458 950.353,-355.571 958.705,-362.089 960.947,-355.458"/>
</g>
<!-- Node3 -->
<g id="node3" class="node"><title>Node3</title>
<g id="a_node3"><a xlink:href="dji__vehicle__callback_8hpp.html" target="_top" xlink:title="Type definition for new Vehicle&#45;style callbacks. ">
<polygon fill="white" stroke="black" points="1213,-112.5 1213,-131.5 1335,-131.5 1335,-112.5 1213,-112.5"/>
<text text-anchor="middle" x="1274" y="-119.5" font-family="Helvetica,sans-Serif" font-size="10.00">dji_vehicle_callback.hpp</text>
</a>
</g>
</g>
<!-- Node2&#45;&gt;Node3 -->
<g id="edge2" class="edge"><title>Node2&#45;&gt;Node3</title>
<path fill="none" stroke="midnightblue" d="M1545.03,-280.309C1498.21,-253.136 1354.35,-169.636 1297.48,-136.63"/>
<polygon fill="midnightblue" stroke="midnightblue" points="1299.23,-133.598 1288.83,-131.605 1295.72,-139.652 1299.23,-133.598"/>
</g>
<!-- Node4 -->
<g id="node4" class="node"><title>Node4</title>
<polygon fill="white" stroke="#bfbfbf" points="1417.5,-56.5 1417.5,-75.5 1528.5,-75.5 1528.5,-56.5 1417.5,-56.5"/>
<text text-anchor="middle" x="1473" y="-63.5" font-family="Helvetica,sans-Serif" font-size="10.00">dji_open_protocol.hpp</text>
</g>
<!-- Node3&#45;&gt;Node4 -->
<g id="edge3" class="edge"><title>Node3&#45;&gt;Node4</title>
<path fill="none" stroke="midnightblue" d="M1305.53,-112.444C1339.59,-103.201 1394.01,-88.4356 1431.52,-78.2572"/>
<polygon fill="midnightblue" stroke="midnightblue" points="1432.88,-81.5132 1441.62,-75.5164 1431.05,-74.7575 1432.88,-81.5132"/>
</g>
<!-- Node5&#45;&gt;Node2 -->
<g id="edge50" class="edge"><title>Node5&#45;&gt;Node2</title>
<path fill="none" stroke="midnightblue" d="M965.776,-341.899C1056.57,-334.938 1282.28,-317.317 1471,-300 1472.12,-299.897 1473.25,-299.793 1474.39,-299.687"/>
<polygon fill="midnightblue" stroke="midnightblue" points="1475.12,-303.134 1484.75,-298.709 1474.46,-296.165 1475.12,-303.134"/>
</g>
<!-- Node5&#45;&gt;Node3 -->
<g id="edge59" class="edge"><title>Node5&#45;&gt;Node3</title>
<path fill="none" stroke="midnightblue" d="M965.602,-345.131C1045.37,-344.522 1218.49,-338.654 1261,-300 1305.42,-259.612 1289.75,-178.169 1279.73,-141.563"/>
<polygon fill="midnightblue" stroke="midnightblue" points="1283.03,-140.363 1276.88,-131.737 1276.31,-142.316 1283.03,-140.363"/>
</g>
<!-- Node5&#45;&gt;Node4 -->
<g id="edge51" class="edge"><title>Node5&#45;&gt;Node4</title>
<path fill="none" stroke="midnightblue" d="M965.787,-345.135C1110.13,-345.25 1590.94,-342.42 1644,-300 1667.51,-281.205 1663,-265.098 1663,-235 1663,-235 1663,-235 1663,-177 1663,-118.064 1593.68,-90.1925 1538.79,-77.3608"/>
<polygon fill="midnightblue" stroke="midnightblue" points="1539.24,-73.8774 1528.72,-75.1358 1537.73,-80.7123 1539.24,-73.8774"/>
</g>
<!-- Node6 -->
<g id="node6" class="node"><title>Node6</title>
<polygon fill="white" stroke="#bfbfbf" points="0,-112.5 0,-131.5 46,-131.5 46,-112.5 0,-112.5"/>
<text text-anchor="middle" x="23" y="-119.5" font-family="Helvetica,sans-Serif" font-size="10.00">cstdint</text>
</g>
<!-- Node5&#45;&gt;Node6 -->
<g id="edge5" class="edge"><title>Node5&#45;&gt;Node6</title>
<path fill="none" stroke="midnightblue" d="M884.272,-344.836C726.416,-343.928 160.212,-338.023 90,-300 35.7512,-270.622 27.1714,-246.639 8,-188 2.88837,-172.365 8.06591,-154.071 13.689,-140.881"/>
<polygon fill="midnightblue" stroke="midnightblue" points="16.9928,-142.082 18.106,-131.546 10.6654,-139.088 16.9928,-142.082"/>
</g>
<!-- Node7 -->
<g id="node7" class="node"><title>Node7</title>
<g id="a_node7"><a xlink:href="dji__broadcast_8hpp.html" target="_top" xlink:title="Broadcast Telemetry API for DJI onboardSDK library. ">
<polygon fill="white" stroke="black" points="1085.5,-224.5 1085.5,-243.5 1178.5,-243.5 1178.5,-224.5 1085.5,-224.5"/>
<text text-anchor="middle" x="1132" y="-231.5" font-family="Helvetica,sans-Serif" font-size="10.00">dji_broadcast.hpp</text>
</a>
</g>
</g>
<!-- Node5&#45;&gt;Node7 -->
<g id="edge6" class="edge"><title>Node5&#45;&gt;Node7</title>
<path fill="none" stroke="midnightblue" d="M965.833,-342.036C1001.56,-337.66 1053.34,-326.826 1090,-300 1106.23,-288.125 1117.84,-267.917 1124.68,-253.179"/>
<polygon fill="midnightblue" stroke="midnightblue" points="1128.06,-254.18 1128.82,-243.612 1121.64,-251.4 1128.06,-254.18"/>
</g>
<!-- Node9 -->
<g id="node9" class="node"><title>Node9</title>
<g id="a_node9"><a xlink:href="dji__type_8hpp.html" target="_top" xlink:title="Data type and Data Structure definitions for use throughout DJI OSDK. ">
<polygon fill="white" stroke="black" points="630.5,-112.5 630.5,-131.5 699.5,-131.5 699.5,-112.5 630.5,-112.5"/>
<text text-anchor="middle" x="665" y="-119.5" font-family="Helvetica,sans-Serif" font-size="10.00">dji_type.hpp</text>
</a>
</g>
</g>
<!-- Node5&#45;&gt;Node9 -->
<g id="edge58" class="edge"><title>Node5&#45;&gt;Node9</title>
<path fill="none" stroke="midnightblue" d="M913.274,-336.416C900.97,-327.392 881.079,-312.761 864,-300 830.96,-275.313 817.163,-275.037 790,-244 764.441,-214.796 774.62,-195.264 747,-168 732.895,-154.077 713.602,-143.202 697.273,-135.632"/>
<polygon fill="midnightblue" stroke="midnightblue" points="698.624,-132.403 688.063,-131.56 695.793,-138.805 698.624,-132.403"/>
</g>
<!-- Node12 -->
<g id="node12" class="node"><title>Node12</title>
<g id="a_node12"><a xlink:href="dji__camera_8hpp.html" target="_top" xlink:title="Camera/Gimbal API for DJI onboardSDK library. ">
<polygon fill="white" stroke="black" points="155.5,-168.5 155.5,-187.5 238.5,-187.5 238.5,-168.5 155.5,-168.5"/>
<text text-anchor="middle" x="197" y="-175.5" font-family="Helvetica,sans-Serif" font-size="10.00">dji_camera.hpp</text>
</a>
</g>
</g>
<!-- Node5&#45;&gt;Node12 -->
<g id="edge12" class="edge"><title>Node5&#45;&gt;Node12</title>
<path fill="none" stroke="midnightblue" d="M884.307,-344.21C774.633,-341.671 474.927,-331.929 382,-300 313.325,-276.404 245.105,-221.588 214.183,-194.592"/>
<polygon fill="midnightblue" stroke="midnightblue" points="216.286,-191.779 206.481,-187.765 211.642,-197.017 216.286,-191.779"/>
</g>
<!-- Node13 -->
<g id="node13" class="node"><title>Node13</title>
<g id="a_node13"><a xlink:href="dji__command_8hpp.html" target="_top" xlink:title="All DJI OSDK OpenProtocol Command IDs. ">
<polygon fill="white" stroke="black" points="249.5,-112.5 249.5,-131.5 342.5,-131.5 342.5,-112.5 249.5,-112.5"/>
<text text-anchor="middle" x="296" y="-119.5" font-family="Helvetica,sans-Serif" font-size="10.00">dji_command.hpp</text>
</a>
</g>
</g>
<!-- Node5&#45;&gt;Node13 -->
<g id="edge19" class="edge"><title>Node5&#45;&gt;Node13</title>
<path fill="none" stroke="midnightblue" d="M884.247,-344.298C768.199,-341.919 437.746,-332.408 335,-300 241.881,-270.629 194.34,-272.836 146,-188 123.475,-148.468 187.984,-132.958 239.355,-126.886"/>
<polygon fill="midnightblue" stroke="midnightblue" points="239.861,-130.352 249.425,-125.793 239.105,-123.392 239.861,-130.352"/>
</g>
<!-- Node15 -->
<g id="node15" class="node"><title>Node15</title>
<polygon fill="white" stroke="#bfbfbf" points="679,-280.5 679,-299.5 791,-299.5 791,-280.5 679,-280.5"/>
<text text-anchor="middle" x="735" y="-287.5" font-family="Helvetica,sans-Serif" font-size="10.00">dji_circular_buffer.hpp</text>
</g>
<!-- Node5&#45;&gt;Node15 -->
<g id="edge18" class="edge"><title>Node5&#45;&gt;Node15</title>
<path fill="none" stroke="midnightblue" d="M894.894,-336.444C862.374,-327.201 810.421,-312.436 774.609,-302.257"/>
<polygon fill="midnightblue" stroke="midnightblue" points="775.541,-298.884 764.965,-299.516 773.627,-305.617 775.541,-298.884"/>
</g>
<!-- Node16 -->
<g id="node16" class="node"><title>Node16</title>
<g id="a_node16"><a xlink:href="dji__control_8hpp.html" target="_top" xlink:title="Control API for DJI OSDK library. ">
<polygon fill="white" stroke="black" points="885,-280.5 885,-299.5 965,-299.5 965,-280.5 885,-280.5"/>
<text text-anchor="middle" x="925" y="-287.5" font-family="Helvetica,sans-Serif" font-size="10.00">dji_control.hpp</text>
</a>
</g>
</g>
<!-- Node5&#45;&gt;Node16 -->
<g id="edge20" class="edge"><title>Node5&#45;&gt;Node16</title>
<path fill="none" stroke="midnightblue" d="M925,-336.083C925,-329.006 925,-318.861 925,-309.986"/>
<polygon fill="midnightblue" stroke="midnightblue" points="928.5,-309.751 925,-299.751 921.5,-309.751 928.5,-309.751"/>
</g>
<!-- Node19 -->
<g id="node19" class="node"><title>Node19</title>
<g id="a_node19"><a xlink:href="dji__version_8hpp.html" target="_top" xlink:title="Drone/SDK Version definition for DJI onboardSDK library. ">
<polygon fill="white" stroke="black" points="17,-168.5 17,-187.5 99,-187.5 99,-168.5 17,-168.5"/>
<text text-anchor="middle" x="58" y="-175.5" font-family="Helvetica,sans-Serif" font-size="10.00">dji_version.hpp</text>
</a>
</g>
</g>
<!-- Node5&#45;&gt;Node19 -->
<g id="edge60" class="edge"><title>Node5&#45;&gt;Node19</title>
<path fill="none" stroke="midnightblue" d="M884.353,-345.183C728.825,-345.555 176.991,-343.757 113,-300 78.3455,-276.304 65.1689,-225.176 60.4452,-197.574"/>
<polygon fill="midnightblue" stroke="midnightblue" points="63.8985,-197.002 58.94,-187.639 56.9774,-198.05 63.8985,-197.002"/>
</g>
<!-- Node21 -->
<g id="node21" class="node"><title>Node21</title>
<g id="a_node21"><a xlink:href="dji__gimbal_8hpp.html" target="_top" xlink:title="Gimbal API for OSDK library. ">
<polygon fill="white" stroke="black" points="256.5,-168.5 256.5,-187.5 335.5,-187.5 335.5,-168.5 256.5,-168.5"/>
<text text-anchor="middle" x="296" y="-175.5" font-family="Helvetica,sans-Serif" font-size="10.00">dji_gimbal.hpp</text>
</a>
</g>
</g>
<!-- Node5&#45;&gt;Node21 -->
<g id="edge33" class="edge"><title>Node5&#45;&gt;Node21</title>
<path fill="none" stroke="midnightblue" d="M884.185,-344.966C778.577,-344.318 498.815,-338.873 416,-300 366.408,-276.722 325.775,-223.814 307.087,-196.318"/>
<polygon fill="midnightblue" stroke="midnightblue" points="309.85,-194.15 301.413,-187.742 304.012,-198.013 309.85,-194.15"/>
</g>
<!-- Node22 -->
<g id="node22" class="node"><title>Node22</title>
<polygon fill="white" stroke="#bfbfbf" points="983,-280.5 983,-299.5 1081,-299.5 1081,-280.5 983,-280.5"/>
<text text-anchor="middle" x="1032" y="-287.5" font-family="Helvetica,sans-Serif" font-size="10.00">dji_hard_driver.hpp</text>
</g>
<!-- Node5&#45;&gt;Node22 -->
<g id="edge36" class="edge"><title>Node5&#45;&gt;Node22</title>
<path fill="none" stroke="midnightblue" d="M942.191,-336.324C959.351,-327.664 985.946,-314.242 1005.75,-304.249"/>
<polygon fill="midnightblue" stroke="midnightblue" points="1007.5,-307.285 1014.85,-299.655 1004.35,-301.035 1007.5,-307.285"/>
</g>
<!-- Node23 -->
<g id="node23" class="node"><title>Node23</title>
<g id="a_node23"><a xlink:href="dji__hardware__sync_8hpp.html" target="_top" xlink:title="Hardware Sync API for DJI OSDK. ">
<polygon fill="white" stroke="black" points="799,-224.5 799,-243.5 915,-243.5 915,-224.5 799,-224.5"/>
<text text-anchor="middle" x="857" y="-231.5" font-family="Helvetica,sans-Serif" font-size="10.00">dji_hardware_sync.hpp</text>
</a>
</g>
</g>
<!-- Node5&#45;&gt;Node23 -->
<g id="edge37" class="edge"><title>Node5&#45;&gt;Node23</title>
<path fill="none" stroke="midnightblue" d="M912.334,-336.456C901.215,-328.322 885.39,-315.106 876,-300 867.175,-285.802 862.292,-267.324 859.694,-253.7"/>
<polygon fill="midnightblue" stroke="midnightblue" points="863.107,-252.888 858.013,-243.598 856.202,-254.037 863.107,-252.888"/>
</g>
<!-- Node24 -->
<g id="node24" class="node"><title>Node24</title>
<g id="a_node24"><a xlink:href="dji__mfio_8hpp.html" target="_top" xlink:title="MFIO API for DJI OSDK library. ">
<polygon fill="white" stroke="black" points="1196.5,-224.5 1196.5,-243.5 1265.5,-243.5 1265.5,-224.5 1196.5,-224.5"/>
<text text-anchor="middle" x="1231" y="-231.5" font-family="Helvetica,sans-Serif" font-size="10.00">dji_mfio.hpp</text>
</a>
</g>
</g>
<!-- Node5&#45;&gt;Node24 -->
<g id="edge39" class="edge"><title>Node5&#45;&gt;Node24</title>
<path fill="none" stroke="midnightblue" d="M965.787,-338.617C1004.73,-331.752 1064.64,-319.17 1114,-300 1149.22,-286.323 1186.9,-263.798 1209.71,-249.182"/>
<polygon fill="midnightblue" stroke="midnightblue" points="1211.76,-252.019 1218.24,-243.635 1207.95,-246.15 1211.76,-252.019"/>
</g>
<!-- Node25 -->
<g id="node25" class="node"><title>Node25</title>
<g id="a_node25"><a xlink:href="dji__mission__manager_8hpp.html" target="_top" xlink:title="Mission&#45;Manager API for DJI OSDK library. ">
<polygon fill="white" stroke="black" points="425.5,-280.5 425.5,-299.5 552.5,-299.5 552.5,-280.5 425.5,-280.5"/>
<text text-anchor="middle" x="489" y="-287.5" font-family="Helvetica,sans-Serif" font-size="10.00">dji_mission_manager.hpp</text>
</a>
</g>
</g>
<!-- Node5&#45;&gt;Node25 -->
<g id="edge41" class="edge"><title>Node5&#45;&gt;Node25</title>
<path fill="none" stroke="midnightblue" d="M884.374,-339.968C811.019,-330.883 655.496,-311.621 562.87,-300.149"/>
<polygon fill="midnightblue" stroke="midnightblue" points="563.081,-296.648 552.726,-298.893 562.22,-303.595 563.081,-296.648"/>
</g>
<!-- Node29 -->
<g id="node29" class="node"><title>Node29</title>
<g id="a_node29"><a xlink:href="dji__status_8hpp.html" target="_top" xlink:title="Status information for DJI Vehicle. ">
<polygon fill="white" stroke="black" points="1175.5,-280.5 1175.5,-299.5 1252.5,-299.5 1252.5,-280.5 1175.5,-280.5"/>
<text text-anchor="middle" x="1214" y="-287.5" font-family="Helvetica,sans-Serif" font-size="10.00">dji_status.hpp</text>
</a>
</g>
</g>
<!-- Node5&#45;&gt;Node29 -->
<g id="edge52" class="edge"><title>Node5&#45;&gt;Node29</title>
<path fill="none" stroke="midnightblue" d="M965.794,-337.378C1018.23,-327.58 1109.18,-310.586 1165.22,-300.115"/>
<polygon fill="midnightblue" stroke="midnightblue" points="1166.07,-303.516 1175.26,-298.238 1164.79,-296.635 1166.07,-303.516"/>
</g>
<!-- Node30 -->
<g id="node30" class="node"><title>Node30</title>
<g id="a_node30"><a xlink:href="dji__subscription_8hpp.html" target="_top" xlink:title="Telemetry Subscription API for DJI OSDK library. ">
<polygon fill="white" stroke="black" points="1322.5,-224.5 1322.5,-243.5 1425.5,-243.5 1425.5,-224.5 1322.5,-224.5"/>
<text text-anchor="middle" x="1374" y="-231.5" font-family="Helvetica,sans-Serif" font-size="10.00">dji_subscription.hpp</text>
</a>
</g>
</g>
<!-- Node5&#45;&gt;Node30 -->
<g id="edge53" class="edge"><title>Node5&#45;&gt;Node30</title>
<path fill="none" stroke="midnightblue" d="M965.667,-344.516C1081.4,-342.719 1406.29,-334.609 1438,-300 1454.88,-281.569 1426.62,-261.157 1402.46,-248.212"/>
<polygon fill="midnightblue" stroke="midnightblue" points="1404,-245.07 1393.51,-243.637 1400.82,-251.303 1404,-245.07"/>
</g>
<!-- Node31 -->
<g id="node31" class="node"><title>Node31</title>
<polygon fill="white" stroke="#bfbfbf" points="1309,-280.5 1309,-299.5 1429,-299.5 1429,-280.5 1309,-280.5"/>
<text text-anchor="middle" x="1369" y="-287.5" font-family="Helvetica,sans-Serif" font-size="10.00">dji_thread_manager.hpp</text>
</g>
<!-- Node5&#45;&gt;Node31 -->
<g id="edge57" class="edge"><title>Node5&#45;&gt;Node31</title>
<path fill="none" stroke="midnightblue" d="M965.579,-340.065C1041.28,-330.858 1204.85,-310.964 1298.8,-299.538"/>
<polygon fill="midnightblue" stroke="midnightblue" points="1299.28,-303.005 1308.79,-298.323 1298.44,-296.056 1299.28,-303.005"/>
</g>
<!-- Node32 -->
<g id="node32" class="node"><title>Node32</title>
<g id="a_node32"><a xlink:href="dji__virtual__rc_8hpp.html" target="_top" xlink:title="Virtual Radio Control API for DJI onboardSDK library. ">
<polygon fill="white" stroke="black" points="571,-280.5 571,-299.5 661,-299.5 661,-280.5 571,-280.5"/>
<text text-anchor="middle" x="616" y="-287.5" font-family="Helvetica,sans-Serif" font-size="10.00">dji_virtual_rc.hpp</text>
</a>
</g>
</g>
<!-- Node5&#45;&gt;Node32 -->
<g id="edge61" class="edge"><title>Node5&#45;&gt;Node32</title>
<path fill="none" stroke="midnightblue" d="M884.286,-337.885C829.564,-328.322 732.109,-311.291 670.934,-300.6"/>
<polygon fill="midnightblue" stroke="midnightblue" points="671.522,-297.15 661.068,-298.876 670.317,-304.045 671.522,-297.15"/>
</g>
<!-- Node7&#45;&gt;Node3 -->
<g id="edge11" class="edge"><title>Node7&#45;&gt;Node3</title>
<path fill="none" stroke="midnightblue" d="M1143.14,-224.368C1167.3,-205.653 1224.75,-161.151 1254.85,-137.832"/>
<polygon fill="midnightblue" stroke="midnightblue" points="1257.15,-140.482 1262.91,-131.591 1252.86,-134.949 1257.15,-140.482"/>
</g>
<!-- Node8 -->
<g id="node8" class="node"><title>Node8</title>
<g id="a_node8"><a xlink:href="dji__telemetry_8hpp.html" target="_top" xlink:title="Enumeration of all telemetry data types, structures and maps. ">
<polygon fill="white" stroke="black" points="899.5,-168.5 899.5,-187.5 990.5,-187.5 990.5,-168.5 899.5,-168.5"/>
<text text-anchor="middle" x="945" y="-175.5" font-family="Helvetica,sans-Serif" font-size="10.00">dji_telemetry.hpp</text>
</a>
</g>
</g>
<!-- Node7&#45;&gt;Node8 -->
<g id="edge7" class="edge"><title>Node7&#45;&gt;Node8</title>
<path fill="none" stroke="midnightblue" d="M1102.37,-224.444C1070.5,-215.241 1019.67,-200.562 984.436,-190.388"/>
<polygon fill="midnightblue" stroke="midnightblue" points="985.071,-186.928 974.492,-187.516 983.128,-193.653 985.071,-186.928"/>
</g>
<!-- Node8&#45;&gt;Node9 -->
<g id="edge8" class="edge"><title>Node8&#45;&gt;Node9</title>
<path fill="none" stroke="midnightblue" d="M900.633,-168.444C848.445,-158.379 762.294,-141.764 709.883,-131.656"/>
<polygon fill="midnightblue" stroke="midnightblue" points="710.353,-128.182 699.871,-129.725 709.027,-135.055 710.353,-128.182"/>
</g>
<!-- Node10 -->
<g id="node10" class="node"><title>Node10</title>
<polygon fill="white" stroke="#bfbfbf" points="643.5,-56.5 643.5,-75.5 686.5,-75.5 686.5,-56.5 643.5,-56.5"/>
<text text-anchor="middle" x="665" y="-63.5" font-family="Helvetica,sans-Serif" font-size="10.00">cstdio</text>
</g>
<!-- Node9&#45;&gt;Node10 -->
<g id="edge9" class="edge"><title>Node9&#45;&gt;Node10</title>
<path fill="none" stroke="midnightblue" d="M665,-112.083C665,-105.006 665,-94.8611 665,-85.9865"/>
<polygon fill="midnightblue" stroke="midnightblue" points="668.5,-85.751 665,-75.7511 661.5,-85.7511 668.5,-85.751"/>
</g>
<!-- Node11 -->
<g id="node11" class="node"><title>Node11</title>
<polygon fill="white" stroke="#bfbfbf" points="334.5,-0.5 334.5,-19.5 383.5,-19.5 383.5,-0.5 334.5,-0.5"/>
<text text-anchor="middle" x="359" y="-7.5" font-family="Helvetica,sans-Serif" font-size="10.00">stdint.h</text>
</g>
<!-- Node9&#45;&gt;Node11 -->
<g id="edge10" class="edge"><title>Node9&#45;&gt;Node11</title>
<path fill="none" stroke="midnightblue" d="M641.243,-112.46C587.238,-93.0465 455.115,-45.5513 392.702,-23.1153"/>
<polygon fill="midnightblue" stroke="midnightblue" points="393.547,-19.6996 382.953,-19.6104 391.179,-26.2869 393.547,-19.6996"/>
</g>
<!-- Node12&#45;&gt;Node9 -->
<g id="edge17" class="edge"><title>Node12&#45;&gt;Node9</title>
<path fill="none" stroke="midnightblue" d="M238.706,-169.265C241.509,-168.815 244.294,-168.389 247,-168 382.416,-148.548 543.613,-133.457 620.248,-126.769"/>
<polygon fill="midnightblue" stroke="midnightblue" points="620.829,-130.232 630.489,-125.881 620.224,-123.258 620.829,-130.232"/>
</g>
<!-- Node12&#45;&gt;Node13 -->
<g id="edge13" class="edge"><title>Node12&#45;&gt;Node13</title>
<path fill="none" stroke="midnightblue" d="M212.906,-168.324C228.638,-159.743 252.942,-146.486 271.209,-136.522"/>
<polygon fill="midnightblue" stroke="midnightblue" points="273.03,-139.516 280.133,-131.655 269.678,-133.37 273.03,-139.516"/>
</g>
<!-- Node13&#45;&gt;Node11 -->
<g id="edge16" class="edge"><title>Node13&#45;&gt;Node11</title>
<path fill="none" stroke="midnightblue" d="M297.137,-112.476C299.151,-99.531 304.196,-74.4699 315,-56 321.505,-44.8797 331.351,-34.4572 340.081,-26.4485"/>
<polygon fill="midnightblue" stroke="midnightblue" points="342.435,-29.0399 347.657,-19.8215 337.826,-23.7712 342.435,-29.0399"/>
</g>
<!-- Node14 -->
<g id="node14" class="node"><title>Node14</title>
<g id="a_node14"><a xlink:href="dji__error_8hpp.html" target="_top" xlink:title="All DJI OSDK OpenProtocol ACK Error Codes. ">
<polygon fill="white" stroke="black" points="324,-56.5 324,-75.5 394,-75.5 394,-56.5 324,-56.5"/>
<text text-anchor="middle" x="359" y="-63.5" font-family="Helvetica,sans-Serif" font-size="10.00">dji_error.hpp</text>
</a>
</g>
</g>
<!-- Node13&#45;&gt;Node14 -->
<g id="edge14" class="edge"><title>Node13&#45;&gt;Node14</title>
<path fill="none" stroke="midnightblue" d="M306.122,-112.324C315.526,-104.263 329.744,-92.0765 341.069,-82.3695"/>
<polygon fill="midnightblue" stroke="midnightblue" points="343.379,-84.9993 348.694,-75.8339 338.823,-79.6844 343.379,-84.9993"/>
</g>
<!-- Node14&#45;&gt;Node11 -->
<g id="edge15" class="edge"><title>Node14&#45;&gt;Node11</title>
<path fill="none" stroke="midnightblue" d="M359,-56.083C359,-49.0059 359,-38.8611 359,-29.9865"/>
<polygon fill="midnightblue" stroke="midnightblue" points="362.5,-29.751 359,-19.7511 355.5,-29.7511 362.5,-29.751"/>
</g>
<!-- Node16&#45;&gt;Node3 -->
<g id="edge32" class="edge"><title>Node16&#45;&gt;Node3</title>
<path fill="none" stroke="midnightblue" d="M946.709,-280.478C968.657,-271.74 1003.46,-257.55 1033,-244 1074.96,-224.752 1195.31,-163.345 1248.36,-136.162"/>
<polygon fill="midnightblue" stroke="midnightblue" points="1250.14,-139.179 1257.45,-131.503 1246.95,-132.95 1250.14,-139.179"/>
</g>
<!-- Node16&#45;&gt;Node4 -->
<g id="edge30" class="edge"><title>Node16&#45;&gt;Node4</title>
<path fill="none" stroke="midnightblue" d="M935.314,-280.226C970.317,-250.966 1088.82,-156.085 1204,-112 1270.51,-86.5455 1351.71,-75.468 1407.39,-70.6604"/>
<polygon fill="midnightblue" stroke="midnightblue" points="1407.79,-74.1387 1417.48,-69.8336 1407.22,-67.162 1407.79,-74.1387"/>
</g>
<!-- Node16&#45;&gt;Node9 -->
<g id="edge31" class="edge"><title>Node16&#45;&gt;Node9</title>
<path fill="none" stroke="midnightblue" d="M927.416,-280.28C930.545,-267.078 934.446,-241.686 924,-224 901.412,-185.758 777.428,-150.298 709.522,-133.387"/>
<polygon fill="midnightblue" stroke="midnightblue" points="710.075,-129.919 699.529,-130.931 708.404,-136.717 710.075,-129.919"/>
</g>
<!-- Node17 -->
<g id="node17" class="node"><title>Node17</title>
<g id="a_node17"><a xlink:href="dji__ack_8hpp.html" target="_top" xlink:title="All DJI OSDK ACK parsing. ">
<polygon fill="white" stroke="black" points="428,-224.5 428,-243.5 494,-243.5 494,-224.5 428,-224.5"/>
<text text-anchor="middle" x="461" y="-231.5" font-family="Helvetica,sans-Serif" font-size="10.00">dji_ack.hpp</text>
</a>
</g>
</g>
<!-- Node16&#45;&gt;Node17 -->
<g id="edge21" class="edge"><title>Node16&#45;&gt;Node17</title>
<path fill="none" stroke="midnightblue" d="M884.96,-286.137C811.471,-280.579 649.973,-266.952 504.418,-244.081"/>
<polygon fill="midnightblue" stroke="midnightblue" points="504.837,-240.604 494.411,-242.49 503.737,-247.517 504.837,-240.604"/>
</g>
<!-- Node17&#45;&gt;Node9 -->
<g id="edge25" class="edge"><title>Node17&#45;&gt;Node9</title>
<path fill="none" stroke="midnightblue" d="M449.038,-224.492C432.298,-211.568 405.571,-186.534 421,-168 445.865,-138.129 556.915,-128.011 620.291,-124.64"/>
<polygon fill="midnightblue" stroke="midnightblue" points="620.595,-128.129 630.409,-124.137 620.248,-121.138 620.595,-128.129"/>
</g>
<!-- Node17&#45;&gt;Node13 -->
<g id="edge22" class="edge"><title>Node17&#45;&gt;Node13</title>
<path fill="none" stroke="midnightblue" d="M446.565,-224.466C431.717,-215.604 408,-201.211 388,-188 362.758,-171.327 334.43,-151.07 315.962,-137.649"/>
<polygon fill="midnightblue" stroke="midnightblue" points="317.886,-134.72 307.745,-131.655 313.761,-140.376 317.886,-134.72"/>
</g>
<!-- Node18 -->
<g id="node18" class="node"><title>Node18</title>
<g id="a_node18"><a xlink:href="dji__mission__type_8hpp.html" target="_top" xlink:title="Mission related data struct for DJI OSDK library. ">
<polygon fill="white" stroke="black" points="430,-168.5 430,-187.5 538,-187.5 538,-168.5 430,-168.5"/>
<text text-anchor="middle" x="484" y="-175.5" font-family="Helvetica,sans-Serif" font-size="10.00">dji_mission_type.hpp</text>
</a>
</g>
</g>
<!-- Node17&#45;&gt;Node18 -->
<g id="edge23" class="edge"><title>Node17&#45;&gt;Node18</title>
<path fill="none" stroke="midnightblue" d="M464.798,-224.083C467.913,-216.77 472.423,-206.181 476.289,-197.103"/>
<polygon fill="midnightblue" stroke="midnightblue" points="479.574,-198.323 480.273,-187.751 473.134,-195.58 479.574,-198.323"/>
</g>
<!-- Node17&#45;&gt;Node19 -->
<g id="edge26" class="edge"><title>Node17&#45;&gt;Node19</title>
<path fill="none" stroke="midnightblue" d="M427.678,-228.535C357.257,-219.099 192.91,-197.077 109.106,-185.848"/>
<polygon fill="midnightblue" stroke="midnightblue" points="109.43,-182.36 99.0533,-184.501 108.5,-189.298 109.43,-182.36"/>
</g>
<!-- Node20 -->
<g id="node20" class="node"><title>Node20</title>
<polygon fill="white" stroke="#bfbfbf" points="556.5,-168.5 556.5,-187.5 591.5,-187.5 591.5,-168.5 556.5,-168.5"/>
<text text-anchor="middle" x="574" y="-175.5" font-family="Helvetica,sans-Serif" font-size="10.00">map</text>
</g>
<!-- Node17&#45;&gt;Node20 -->
<g id="edge29" class="edge"><title>Node17&#45;&gt;Node20</title>
<path fill="none" stroke="midnightblue" d="M478.905,-224.444C497.254,-215.675 526.005,-201.935 547.094,-191.858"/>
<polygon fill="midnightblue" stroke="midnightblue" points="548.665,-194.986 556.179,-187.516 545.647,-188.67 548.665,-194.986"/>
</g>
<!-- Node18&#45;&gt;Node9 -->
<g id="edge24" class="edge"><title>Node18&#45;&gt;Node9</title>
<path fill="none" stroke="midnightblue" d="M512.68,-168.444C543.527,-159.241 592.728,-144.562 626.829,-134.388"/>
<polygon fill="midnightblue" stroke="midnightblue" points="627.872,-137.729 636.454,-131.516 625.871,-131.021 627.872,-137.729"/>
</g>
<!-- Node19&#45;&gt;Node6 -->
<g id="edge28" class="edge"><title>Node19&#45;&gt;Node6</title>
<path fill="none" stroke="midnightblue" d="M52.2205,-168.083C47.3276,-160.534 40.1726,-149.495 34.1674,-140.23"/>
<polygon fill="midnightblue" stroke="midnightblue" points="37.048,-138.239 28.672,-131.751 31.174,-142.046 37.048,-138.239"/>
</g>
<!-- Node19&#45;&gt;Node13 -->
<g id="edge27" class="edge"><title>Node19&#45;&gt;Node13</title>
<path fill="none" stroke="midnightblue" d="M95.7118,-168.444C137.143,-159.043 203.757,-143.929 248.667,-133.739"/>
<polygon fill="midnightblue" stroke="midnightblue" points="249.487,-137.142 258.465,-131.516 247.938,-130.316 249.487,-137.142"/>
</g>
<!-- Node21&#45;&gt;Node9 -->
<g id="edge35" class="edge"><title>Node21&#45;&gt;Node9</title>
<path fill="none" stroke="midnightblue" d="M335.84,-171.17C405.202,-161.019 547.663,-140.171 620.291,-129.543"/>
<polygon fill="midnightblue" stroke="midnightblue" points="621.095,-132.962 630.483,-128.051 620.082,-126.036 621.095,-132.962"/>
</g>
<!-- Node21&#45;&gt;Node13 -->
<g id="edge34" class="edge"><title>Node21&#45;&gt;Node13</title>
<path fill="none" stroke="midnightblue" d="M296,-168.083C296,-161.006 296,-150.861 296,-141.986"/>
<polygon fill="midnightblue" stroke="midnightblue" points="299.5,-141.751 296,-131.751 292.5,-141.751 299.5,-141.751"/>
</g>
<!-- Node23&#45;&gt;Node9 -->
<g id="edge38" class="edge"><title>Node23&#45;&gt;Node9</title>
<path fill="none" stroke="midnightblue" d="M851.469,-224.093C842.386,-210.174 823.004,-183.28 800,-168 772.599,-149.8 737.182,-138.358 709.499,-131.569"/>
<polygon fill="midnightblue" stroke="midnightblue" points="710.213,-128.142 699.679,-129.274 708.62,-134.958 710.213,-128.142"/>
</g>
<!-- Node24&#45;&gt;Node3 -->
<g id="edge40" class="edge"><title>Node24&#45;&gt;Node3</title>
<path fill="none" stroke="midnightblue" d="M1234.37,-224.368C1241.38,-206.456 1257.61,-164.923 1266.98,-140.948"/>
<polygon fill="midnightblue" stroke="midnightblue" points="1270.26,-142.179 1270.64,-131.591 1263.74,-139.631 1270.26,-142.179"/>
</g>
<!-- Node26 -->
<g id="node26" class="node"><title>Node26</title>
<g id="a_node26"><a xlink:href="dji__hotpoint_8hpp.html" target="_top" xlink:title="Implementation of HotPoint (Point of Interest) Missions for DJI OSDK. ">
<polygon fill="white" stroke="black" points="619.5,-224.5 619.5,-243.5 704.5,-243.5 704.5,-224.5 619.5,-224.5"/>
<text text-anchor="middle" x="662" y="-231.5" font-family="Helvetica,sans-Serif" font-size="10.00">dji_hotpoint.hpp</text>
</a>
</g>
</g>
<!-- Node25&#45;&gt;Node26 -->
<g id="edge42" class="edge"><title>Node25&#45;&gt;Node26</title>
<path fill="none" stroke="midnightblue" d="M516.412,-280.444C545.769,-271.28 592.519,-256.688 625.096,-246.519"/>
<polygon fill="midnightblue" stroke="midnightblue" points="626.213,-249.837 634.716,-243.516 624.127,-243.155 626.213,-249.837"/>
</g>
<!-- Node28 -->
<g id="node28" class="node"><title>Node28</title>
<g id="a_node28"><a xlink:href="dji__waypoint_8hpp.html" target="_top" xlink:title="Implementation of GPS Waypoint Missions for DJI OSDK. ">
<polygon fill="white" stroke="black" points="512.5,-224.5 512.5,-243.5 601.5,-243.5 601.5,-224.5 512.5,-224.5"/>
<text text-anchor="middle" x="557" y="-231.5" font-family="Helvetica,sans-Serif" font-size="10.00">dji_waypoint.hpp</text>
</a>
</g>
</g>
<!-- Node25&#45;&gt;Node28 -->
<g id="edge48" class="edge"><title>Node25&#45;&gt;Node28</title>
<path fill="none" stroke="midnightblue" d="M499.925,-280.324C510.175,-272.185 525.721,-259.839 538.001,-250.087"/>
<polygon fill="midnightblue" stroke="midnightblue" points="540.221,-252.794 545.876,-243.834 535.868,-247.312 540.221,-252.794"/>
</g>
<!-- Node26&#45;&gt;Node8 -->
<g id="edge47" class="edge"><title>Node26&#45;&gt;Node8</title>
<path fill="none" stroke="midnightblue" d="M704.674,-224.857C754.141,-215.418 835.79,-199.839 889.985,-189.498"/>
<polygon fill="midnightblue" stroke="midnightblue" points="890.938,-192.879 900.105,-187.567 889.626,-186.003 890.938,-192.879"/>
</g>
<!-- Node27 -->
<g id="node27" class="node"><title>Node27</title>
<g id="a_node27"><a xlink:href="dji__mission__base_8hpp.html" target="_top" xlink:title="Mission&#45;Base abstract class for DJI OSDK library. ">
<polygon fill="white" stroke="black" points="610,-168.5 610,-187.5 720,-187.5 720,-168.5 610,-168.5"/>
<text text-anchor="middle" x="665" y="-175.5" font-family="Helvetica,sans-Serif" font-size="10.00">dji_mission_base.hpp</text>
</a>
</g>
</g>
<!-- Node26&#45;&gt;Node27 -->
<g id="edge43" class="edge"><title>Node26&#45;&gt;Node27</title>
<path fill="none" stroke="midnightblue" d="M662.495,-224.083C662.889,-217.006 663.452,-206.861 663.945,-197.986"/>
<polygon fill="midnightblue" stroke="midnightblue" points="667.454,-197.93 664.514,-187.751 660.464,-197.542 667.454,-197.93"/>
</g>
<!-- Node27&#45;&gt;Node3 -->
<g id="edge46" class="edge"><title>Node27&#45;&gt;Node3</title>
<path fill="none" stroke="midnightblue" d="M720.119,-172.113C830.759,-162.302 1079.79,-140.221 1202.66,-129.325"/>
<polygon fill="midnightblue" stroke="midnightblue" points="1203.07,-132.803 1212.72,-128.433 1202.45,-125.83 1203.07,-132.803"/>
</g>
<!-- Node27&#45;&gt;Node9 -->
<g id="edge45" class="edge"><title>Node27&#45;&gt;Node9</title>
<path fill="none" stroke="midnightblue" d="M665,-168.083C665,-161.006 665,-150.861 665,-141.986"/>
<polygon fill="midnightblue" stroke="midnightblue" points="668.5,-141.751 665,-131.751 661.5,-141.751 668.5,-141.751"/>
</g>
<!-- Node27&#45;&gt;Node13 -->
<g id="edge44" class="edge"><title>Node27&#45;&gt;Node13</title>
<path fill="none" stroke="midnightblue" d="M609.757,-168.916C540.484,-158.778 422.354,-141.491 352.497,-131.268"/>
<polygon fill="midnightblue" stroke="midnightblue" points="352.954,-127.797 342.552,-129.813 351.94,-134.724 352.954,-127.797"/>
</g>
<!-- Node28&#45;&gt;Node27 -->
<g id="edge49" class="edge"><title>Node28&#45;&gt;Node27</title>
<path fill="none" stroke="midnightblue" d="M574.352,-224.324C591.672,-215.664 618.515,-202.242 638.502,-192.249"/>
<polygon fill="midnightblue" stroke="midnightblue" points="640.312,-195.257 647.691,-187.655 637.181,-188.996 640.312,-195.257"/>
</g>
<!-- Node30&#45;&gt;Node3 -->
<g id="edge56" class="edge"><title>Node30&#45;&gt;Node3</title>
<path fill="none" stroke="midnightblue" d="M1366.15,-224.368C1349.43,-205.974 1310.06,-162.671 1288.59,-139.052"/>
<polygon fill="midnightblue" stroke="midnightblue" points="1291.13,-136.636 1281.81,-131.591 1285.95,-141.345 1291.13,-136.636"/>
</g>
<!-- Node30&#45;&gt;Node4 -->
<g id="edge54" class="edge"><title>Node30&#45;&gt;Node4</title>
<path fill="none" stroke="midnightblue" d="M1379.32,-224.075C1395.11,-197.606 1441.86,-119.209 1462.74,-84.2097"/>
<polygon fill="midnightblue" stroke="midnightblue" points="1465.77,-85.9495 1467.89,-75.5681 1459.76,-82.364 1465.77,-85.9495"/>
</g>
<!-- Node30&#45;&gt;Node8 -->
<g id="edge55" class="edge"><title>Node30&#45;&gt;Node8</title>
<path fill="none" stroke="midnightblue" d="M1322.25,-226.486C1241.07,-216.267 1084.42,-196.549 1000.8,-186.024"/>
<polygon fill="midnightblue" stroke="midnightblue" points="1001.09,-182.532 990.727,-184.756 1000.21,-189.477 1001.09,-182.532"/>
</g>
<!-- Node32&#45;&gt;Node4 -->
<g id="edge63" class="edge"><title>Node32&#45;&gt;Node4</title>
<path fill="none" stroke="midnightblue" d="M661.027,-281.087C664.058,-280.681 667.07,-280.312 670,-280 754.505,-270.999 1369.03,-298.78 1434,-244 1480.67,-204.65 1479,-123.289 1475.46,-86.1906"/>
<polygon fill="midnightblue" stroke="midnightblue" points="1478.89,-85.3605 1474.3,-75.8102 1471.93,-86.1366 1478.89,-85.3605"/>
</g>
<!-- Node32&#45;&gt;Node8 -->
<g id="edge65" class="edge"><title>Node32&#45;&gt;Node8</title>
<path fill="none" stroke="midnightblue" d="M661.068,-281.404C664.09,-280.921 667.088,-280.449 670,-280 726.343,-271.313 880.381,-280.706 924,-244 937.449,-232.682 942.364,-212.681 944.119,-197.845"/>
<polygon fill="midnightblue" stroke="midnightblue" points="947.619,-197.985 944.934,-187.736 940.642,-197.423 947.619,-197.985"/>
</g>
<!-- Node32&#45;&gt;Node9 -->
<g id="edge64" class="edge"><title>Node32&#45;&gt;Node9</title>
<path fill="none" stroke="midnightblue" d="M651.966,-280.358C672.549,-273.661 697.317,-262.343 713,-244 735.431,-217.764 744.909,-198.634 729,-168 721.847,-154.226 708.329,-143.783 695.553,-136.441"/>
<polygon fill="midnightblue" stroke="midnightblue" points="696.958,-133.225 686.483,-131.64 693.683,-139.412 696.958,-133.225"/>
</g>
<!-- Node32&#45;&gt;Node17 -->
<g id="edge62" class="edge"><title>Node32&#45;&gt;Node17</title>
<path fill="none" stroke="midnightblue" d="M591.44,-280.444C565.477,-271.399 524.332,-257.064 495.203,-246.916"/>
<polygon fill="midnightblue" stroke="midnightblue" points="496.04,-243.501 485.445,-243.516 493.737,-250.112 496.04,-243.501"/>
</g>
</g>
</svg>
