<?xml version="1.0" encoding="UTF-8" standalone="no"?>
<!DOCTYPE svg PUBLIC "-//W3C//DTD SVG 1.1//EN"
 "http://www.w3.org/Graphics/SVG/1.1/DTD/svg11.dtd">
<!-- Generated by graphviz version 2.40.1 (20161225.0304)
 -->
<!-- Title: osdk&#45;core/api/inc/dji_mission_base.hpp Pages: 1 -->
<svg width="363pt" height="375pt"
 viewBox="0.00 0.00 363.00 375.00" xmlns="http://www.w3.org/2000/svg" xmlns:xlink="http://www.w3.org/1999/xlink">
<g id="graph0" class="graph" transform="scale(1 1) rotate(0) translate(4 371)">
<title>osdk&#45;core/api/inc/dji_mission_base.hpp</title>
<polygon fill="#ffffff" stroke="transparent" points="-4,4 -4,-371 359,-371 359,4 -4,4"/>
<!-- Node0 -->
<g id="node1" class="node">
<title>Node0</title>
<g id="a_node1"><a xlink:title="Mission&#45;Base abstract class for DJI OSDK library.">
<polygon fill="#bfbfbf" stroke="#000000" points="120.5,-336.5 120.5,-366.5 224.5,-366.5 224.5,-336.5 120.5,-336.5"/>
<text text-anchor="start" x="128.5" y="-354.5" font-family="Helvetica,sans-Serif" font-size="10.00" fill="#000000">osdk&#45;core/api/inc/dji</text>
<text text-anchor="middle" x="172.5" y="-343.5" font-family="Helvetica,sans-Serif" font-size="10.00" fill="#000000">_mission_base.hpp</text>
</a>
</g>
</g>
<!-- Node1 -->
<g id="node2" class="node">
<title>Node1</title>
<g id="a_node2"><a xlink:href="dji__command_8hpp.html" target="_top" xlink:title="All DJI OSDK OpenProtocol Command IDs.">
<polygon fill="#ffffff" stroke="#000000" points="214,-112.5 214,-131.5 307,-131.5 307,-112.5 214,-112.5"/>
<text text-anchor="middle" x="260.5" y="-119.5" font-family="Helvetica,sans-Serif" font-size="10.00" fill="#000000">dji_command.hpp</text>
</a>
</g>
</g>
<!-- Node0&#45;&gt;Node1 -->
<g id="edge1" class="edge">
<title>Node0&#45;&gt;Node1</title>
<path fill="none" stroke="#191970" d="M202.5396,-336.4569C233.3208,-319.0666 279.0652,-287.1978 296.5,-244 300.8407,-233.2453 306.1637,-198.7175 295.5,-168 291.8362,-157.4461 284.7399,-147.3721 277.8894,-139.3566"/>
<polygon fill="#191970" stroke="#191970" points="280.3246,-136.8331 270.9936,-131.8148 275.1585,-141.5567 280.3246,-136.8331"/>
</g>
<!-- Node7 -->
<g id="node8" class="node">
<title>Node7</title>
<g id="a_node8"><a xlink:href="dji__type_8hpp.html" target="_top" xlink:title="Data type and Data Structure definitions for use throughout DJI OSDK.">
<polygon fill="#ffffff" stroke="#000000" points="0,-112.5 0,-131.5 69,-131.5 69,-112.5 0,-112.5"/>
<text text-anchor="middle" x="34.5" y="-119.5" font-family="Helvetica,sans-Serif" font-size="10.00" fill="#000000">dji_type.hpp</text>
</a>
</g>
</g>
<!-- Node0&#45;&gt;Node7 -->
<g id="edge7" class="edge">
<title>Node0&#45;&gt;Node7</title>
<path fill="none" stroke="#191970" d="M148.4457,-336.3862C134.2661,-326.8698 116.4327,-313.805 102.5,-300 60.1191,-258.0075 43.8132,-245.6629 28.5,-188 24.4395,-172.7098 26.4718,-154.8045 29.2232,-141.5043"/>
<polygon fill="#191970" stroke="#191970" points="32.6762,-142.1124 31.5857,-131.5738 25.8663,-140.4922 32.6762,-142.1124"/>
</g>
<!-- Node9 -->
<g id="node10" class="node">
<title>Node9</title>
<g id="a_node10"><a xlink:href="dji__vehicle__callback_8hpp.html" target="_top" xlink:title="Type definition for new Vehicle&#45;style callbacks.">
<polygon fill="#ffffff" stroke="#000000" points="111.5,-280.5 111.5,-299.5 233.5,-299.5 233.5,-280.5 111.5,-280.5"/>
<text text-anchor="middle" x="172.5" y="-287.5" font-family="Helvetica,sans-Serif" font-size="10.00" fill="#000000">dji_vehicle_callback.hpp</text>
</a>
</g>
</g>
<!-- Node0&#45;&gt;Node9 -->
<g id="edge10" class="edge">
<title>Node0&#45;&gt;Node9</title>
<path fill="none" stroke="#191970" d="M172.5,-336.2977C172.5,-328.3834 172.5,-318.6043 172.5,-310.0759"/>
<polygon fill="#191970" stroke="#191970" points="176.0001,-309.8469 172.5,-299.8469 169.0001,-309.847 176.0001,-309.8469"/>
</g>
<!-- Node2 -->
<g id="node3" class="node">
<title>Node2</title>
<g id="a_node3"><a xlink:href="dji__error_8hpp.html" target="_top" xlink:title="All DJI OSDK OpenProtocol ACK Error Codes.">
<polygon fill="#ffffff" stroke="#000000" points="225.5,-56.5 225.5,-75.5 295.5,-75.5 295.5,-56.5 225.5,-56.5"/>
<text text-anchor="middle" x="260.5" y="-63.5" font-family="Helvetica,sans-Serif" font-size="10.00" fill="#000000">dji_error.hpp</text>
</a>
</g>
</g>
<!-- Node1&#45;&gt;Node2 -->
<g id="edge2" class="edge">
<title>Node1&#45;&gt;Node2</title>
<path fill="none" stroke="#191970" d="M260.5,-112.2455C260.5,-104.9382 260.5,-94.6944 260.5,-85.7046"/>
<polygon fill="#191970" stroke="#191970" points="264.0001,-85.6426 260.5,-75.6427 257.0001,-85.6427 264.0001,-85.6426"/>
</g>
<!-- Node6 -->
<g id="node7" class="node">
<title>Node6</title>
<g id="a_node7"><a xlink:title=" ">
<polygon fill="#ffffff" stroke="#bfbfbf" points="88,-56.5 88,-75.5 137,-75.5 137,-56.5 88,-56.5"/>
<text text-anchor="middle" x="112.5" y="-63.5" font-family="Helvetica,sans-Serif" font-size="10.00" fill="#000000">stdint.h</text>
</a>
</g>
</g>
<!-- Node1&#45;&gt;Node6 -->
<g id="edge6" class="edge">
<title>Node1&#45;&gt;Node6</title>
<path fill="none" stroke="#191970" d="M235.0579,-112.3733C210.6201,-103.1265 173.5328,-89.0935 146.5571,-78.8865"/>
<polygon fill="#191970" stroke="#191970" points="147.7098,-75.5805 137.1183,-75.315 145.2325,-82.1275 147.7098,-75.5805"/>
</g>
<!-- Node3 -->
<g id="node4" class="node">
<title>Node3</title>
<g id="a_node4"><a xlink:title=" ">
<polygon fill="#ffffff" stroke="#bfbfbf" points="154.5,-.5 154.5,-19.5 200.5,-19.5 200.5,-.5 154.5,-.5"/>
<text text-anchor="middle" x="177.5" y="-7.5" font-family="Helvetica,sans-Serif" font-size="10.00" fill="#000000">cstdint</text>
</a>
</g>
</g>
<!-- Node2&#45;&gt;Node3 -->
<g id="edge3" class="edge">
<title>Node2&#45;&gt;Node3</title>
<path fill="none" stroke="#191970" d="M246.0425,-56.2455C233.4268,-47.7337 214.9056,-35.2375 200.2955,-25.3801"/>
<polygon fill="#191970" stroke="#191970" points="202.0391,-22.3343 191.7918,-19.6427 198.1239,-28.1371 202.0391,-22.3343"/>
</g>
<!-- Node4 -->
<g id="node5" class="node">
<title>Node4</title>
<g id="a_node5"><a xlink:title=" ">
<polygon fill="#ffffff" stroke="#bfbfbf" points="320,-.5 320,-19.5 355,-19.5 355,-.5 320,-.5"/>
<text text-anchor="middle" x="337.5" y="-7.5" font-family="Helvetica,sans-Serif" font-size="10.00" fill="#000000">map</text>
</a>
</g>
</g>
<!-- Node2&#45;&gt;Node4 -->
<g id="edge4" class="edge">
<title>Node2&#45;&gt;Node4</title>
<path fill="none" stroke="#191970" d="M273.9124,-56.2455C285.5057,-47.814 302.4748,-35.4729 315.9678,-25.6598"/>
<polygon fill="#191970" stroke="#191970" points="318.2126,-28.355 324.2413,-19.6427 314.0953,-22.6938 318.2126,-28.355"/>
</g>
<!-- Node5 -->
<g id="node6" class="node">
<title>Node5</title>
<g id="a_node6"><a xlink:title=" ">
<polygon fill="#ffffff" stroke="#bfbfbf" points="219,-.5 219,-19.5 302,-19.5 302,-.5 219,-.5"/>
<text text-anchor="middle" x="260.5" y="-7.5" font-family="Helvetica,sans-Serif" font-size="10.00" fill="#000000">osdk_typedef.h</text>
</a>
</g>
</g>
<!-- Node2&#45;&gt;Node5 -->
<g id="edge5" class="edge">
<title>Node2&#45;&gt;Node5</title>
<path fill="none" stroke="#191970" d="M260.5,-56.2455C260.5,-48.9382 260.5,-38.6944 260.5,-29.7046"/>
<polygon fill="#191970" stroke="#191970" points="264.0001,-29.6426 260.5,-19.6427 257.0001,-29.6427 264.0001,-29.6426"/>
</g>
<!-- Node7&#45;&gt;Node6 -->
<g id="edge9" class="edge">
<title>Node7&#45;&gt;Node6</title>
<path fill="none" stroke="#191970" d="M48.0866,-112.2455C59.8305,-103.814 77.0199,-91.4729 90.6882,-81.6598"/>
<polygon fill="#191970" stroke="#191970" points="92.9871,-84.3179 99.0691,-75.6427 88.9046,-78.6316 92.9871,-84.3179"/>
</g>
<!-- Node8 -->
<g id="node9" class="node">
<title>Node8</title>
<g id="a_node9"><a xlink:title=" ">
<polygon fill="#ffffff" stroke="#bfbfbf" points="13,-56.5 13,-75.5 56,-75.5 56,-56.5 13,-56.5"/>
<text text-anchor="middle" x="34.5" y="-63.5" font-family="Helvetica,sans-Serif" font-size="10.00" fill="#000000">cstdio</text>
</a>
</g>
</g>
<!-- Node7&#45;&gt;Node8 -->
<g id="edge8" class="edge">
<title>Node7&#45;&gt;Node8</title>
<path fill="none" stroke="#191970" d="M34.5,-112.2455C34.5,-104.9382 34.5,-94.6944 34.5,-85.7046"/>
<polygon fill="#191970" stroke="#191970" points="38.0001,-85.6426 34.5,-75.6427 31.0001,-85.6427 38.0001,-85.6426"/>
</g>
<!-- Node9&#45;&gt;Node7 -->
<g id="edge22" class="edge">
<title>Node9&#45;&gt;Node7</title>
<path fill="none" stroke="#191970" d="M149.8551,-280.4955C118.2375,-265.8578 61.9947,-234.5277 37.5,-188 30.0695,-173.8857 29.8264,-155.6303 31.1548,-141.8976"/>
<polygon fill="#191970" stroke="#191970" points="34.6732,-141.9891 32.5169,-131.616 27.7338,-141.0697 34.6732,-141.9891"/>
</g>
<!-- Node10 -->
<g id="node11" class="node">
<title>Node10</title>
<g id="a_node11"><a xlink:href="dji__ack_8hpp.html" target="_top" xlink:title="All DJI OSDK ACK parsing.">
<polygon fill="#ffffff" stroke="#000000" points="139.5,-224.5 139.5,-243.5 205.5,-243.5 205.5,-224.5 139.5,-224.5"/>
<text text-anchor="middle" x="172.5" y="-231.5" font-family="Helvetica,sans-Serif" font-size="10.00" fill="#000000">dji_ack.hpp</text>
</a>
</g>
</g>
<!-- Node9&#45;&gt;Node10 -->
<g id="edge11" class="edge">
<title>Node9&#45;&gt;Node10</title>
<path fill="none" stroke="#191970" d="M172.5,-280.2455C172.5,-272.9382 172.5,-262.6944 172.5,-253.7046"/>
<polygon fill="#191970" stroke="#191970" points="176.0001,-253.6426 172.5,-243.6427 169.0001,-253.6427 176.0001,-253.6426"/>
</g>
<!-- Node14 -->
<g id="node15" class="node">
<title>Node14</title>
<g id="a_node15"><a xlink:title=" ">
<polygon fill="#ffffff" stroke="#bfbfbf" points="224,-224.5 224,-243.5 287,-243.5 287,-224.5 224,-224.5"/>
<text text-anchor="middle" x="255.5" y="-231.5" font-family="Helvetica,sans-Serif" font-size="10.00" fill="#000000">dji_log.hpp</text>
</a>
</g>
</g>
<!-- Node9&#45;&gt;Node14 -->
<g id="edge21" class="edge">
<title>Node9&#45;&gt;Node14</title>
<path fill="none" stroke="#191970" d="M186.9575,-280.2455C199.5732,-271.7337 218.0944,-259.2375 232.7045,-249.3801"/>
<polygon fill="#191970" stroke="#191970" points="234.8761,-252.1371 241.2082,-243.6427 230.9609,-246.3343 234.8761,-252.1371"/>
</g>
<!-- Node10&#45;&gt;Node1 -->
<g id="edge12" class="edge">
<title>Node10&#45;&gt;Node1</title>
<path fill="none" stroke="#191970" d="M204.7543,-224.4561C232.9896,-215.3721 270.8252,-201.1719 279.5,-188 288.9849,-173.5981 281.689,-154.4042 273.5454,-140.4292"/>
<polygon fill="#191970" stroke="#191970" points="276.3053,-138.2485 267.9679,-131.711 270.4087,-142.0208 276.3053,-138.2485"/>
</g>
<!-- Node10&#45;&gt;Node4 -->
<g id="edge20" class="edge">
<title>Node10&#45;&gt;Node4</title>
<path fill="none" stroke="#191970" d="M205.6769,-224.9703C237.4957,-215.7293 282.5571,-200.9314 295.5,-188 338.4684,-145.0699 340.6725,-66.9061 339.0418,-30.1373"/>
<polygon fill="#191970" stroke="#191970" points="342.5117,-29.5257 338.4244,-19.751 335.5241,-29.9411 342.5117,-29.5257"/>
</g>
<!-- Node10&#45;&gt;Node7 -->
<g id="edge16" class="edge">
<title>Node10&#45;&gt;Node7</title>
<path fill="none" stroke="#191970" d="M139.4573,-229.4238C112.6839,-224.0129 75.8554,-212.4284 53.5,-188 42.0667,-175.5065 37.4716,-156.5604 35.6462,-142.1672"/>
<polygon fill="#191970" stroke="#191970" points="39.0952,-141.4499 34.6983,-131.8105 32.1244,-142.0879 39.0952,-141.4499"/>
</g>
<!-- Node11 -->
<g id="node12" class="node">
<title>Node11</title>
<g id="a_node12"><a xlink:href="dji__mission__type_8hpp.html" target="_top" xlink:title="Mission related data struct for DJI OSDK library.">
<polygon fill="#ffffff" stroke="#000000" points="62.5,-168.5 62.5,-187.5 170.5,-187.5 170.5,-168.5 62.5,-168.5"/>
<text text-anchor="middle" x="116.5" y="-175.5" font-family="Helvetica,sans-Serif" font-size="10.00" fill="#000000">dji_mission_type.hpp</text>
</a>
</g>
</g>
<!-- Node10&#45;&gt;Node11 -->
<g id="edge13" class="edge">
<title>Node10&#45;&gt;Node11</title>
<path fill="none" stroke="#191970" d="M162.7455,-224.2455C154.6352,-216.1352 142.9075,-204.4075 133.2919,-194.7919"/>
<polygon fill="#191970" stroke="#191970" points="135.6887,-192.2389 126.1427,-187.6427 130.7389,-197.1887 135.6887,-192.2389"/>
</g>
<!-- Node13 -->
<g id="node14" class="node">
<title>Node13</title>
<g id="a_node14"><a xlink:href="dji__version_8hpp.html" target="_top" xlink:title="Drone/SDK Version definition for DJI onboardSDK library.">
<polygon fill="#ffffff" stroke="#000000" points="188.5,-168.5 188.5,-187.5 270.5,-187.5 270.5,-168.5 188.5,-168.5"/>
<text text-anchor="middle" x="229.5" y="-175.5" font-family="Helvetica,sans-Serif" font-size="10.00" fill="#000000">dji_version.hpp</text>
</a>
</g>
</g>
<!-- Node10&#45;&gt;Node13 -->
<g id="edge17" class="edge">
<title>Node10&#45;&gt;Node13</title>
<path fill="none" stroke="#191970" d="M182.4286,-224.2455C190.6838,-216.1352 202.6209,-204.4075 212.4082,-194.7919"/>
<polygon fill="#191970" stroke="#191970" points="215.0046,-197.1476 219.6851,-187.6427 210.0989,-192.1542 215.0046,-197.1476"/>
</g>
<!-- Node11&#45;&gt;Node7 -->
<g id="edge15" class="edge">
<title>Node11&#45;&gt;Node7</title>
<path fill="none" stroke="#191970" d="M102.2167,-168.2455C89.753,-159.7337 71.4549,-147.2375 57.0208,-137.3801"/>
<polygon fill="#191970" stroke="#191970" points="58.8515,-134.392 48.6196,-131.6427 54.9038,-140.1726 58.8515,-134.392"/>
</g>
<!-- Node12 -->
<g id="node13" class="node">
<title>Node12</title>
<g id="a_node13"><a xlink:title=" ">
<polygon fill="#ffffff" stroke="#bfbfbf" points="94.5,-112.5 94.5,-131.5 138.5,-131.5 138.5,-112.5 94.5,-112.5"/>
<text text-anchor="middle" x="116.5" y="-119.5" font-family="Helvetica,sans-Serif" font-size="10.00" fill="#000000">vector</text>
</a>
</g>
</g>
<!-- Node11&#45;&gt;Node12 -->
<g id="edge14" class="edge">
<title>Node11&#45;&gt;Node12</title>
<path fill="none" stroke="#191970" d="M116.5,-168.2455C116.5,-160.9382 116.5,-150.6944 116.5,-141.7046"/>
<polygon fill="#191970" stroke="#191970" points="120.0001,-141.6426 116.5,-131.6427 113.0001,-141.6427 120.0001,-141.6426"/>
</g>
<!-- Node13&#45;&gt;Node1 -->
<g id="edge18" class="edge">
<title>Node13&#45;&gt;Node1</title>
<path fill="none" stroke="#191970" d="M234.8998,-168.2455C239.1227,-160.617 245.1173,-149.7881 250.2441,-140.5267"/>
<polygon fill="#191970" stroke="#191970" points="253.381,-142.0867 255.1621,-131.6427 247.2568,-138.6965 253.381,-142.0867"/>
</g>
<!-- Node13&#45;&gt;Node3 -->
<g id="edge19" class="edge">
<title>Node13&#45;&gt;Node3</title>
<path fill="none" stroke="#191970" d="M223.6,-168.4618C218.2099,-159.3819 210.3612,-145.1844 205.5,-132 192.6499,-97.1484 184.4768,-54.4477 180.4639,-29.9169"/>
<polygon fill="#191970" stroke="#191970" points="183.8741,-29.0703 178.8683,-19.7326 176.9584,-30.1538 183.8741,-29.0703"/>
</g>
</g>
</svg>
