<?xml version="1.0" encoding="UTF-8" standalone="no"?>
<!DOCTYPE svg PUBLIC "-//W3C//DTD SVG 1.1//EN"
 "http://www.w3.org/Graphics/SVG/1.1/DTD/svg11.dtd">
<!-- Generated by graphviz version 2.40.1 (20161225.0304)
 -->
<!-- Title: osdk&#45;lib/x86/osdk&#45;core/inc/dji_waypoint.hpp Pages: 1 -->
<!--zoomable 487 -->
<svg id="main" version="1.1" xmlns="http://www.w3.org/2000/svg" xmlns:xlink="http://www.w3.org/1999/xlink" xml:space="preserve" onload="init(evt)">
<style type="text/css"><![CDATA[
.edge:hover path { stroke: red; }
.edge:hover polygon { stroke: red; fill: red; }
]]></style>
<script type="text/javascript"><![CDATA[
var edges = document.getElementsByTagName('g');
if (edges && edges.length) {
  for (var i=0;i<edges.length;i++) {
    if (edges[i].id.substr(0,4)=='edge') {
      edges[i].setAttribute('class','edge');
    }
  }
}
]]></script>
        <defs>
                <circle id="rim" cx="0" cy="0" r="7"/>
                <circle id="rim2" cx="0" cy="0" r="3.5"/>
                <g id="zoomPlus">
                        <use xlink:href="#rim" fill="#404040">
                                <set attributeName="fill" to="#808080" begin="zoomplus.mouseover" end="zoomplus.mouseout"/>
                        </use>
                        <path d="M-4,0h8M0,-4v8" fill="none" stroke="white" stroke-width="1.5" pointer-events="none"/>
                </g>
                <g id="zoomMin">
                        <use xlink:href="#rim" fill="#404040">
                                <set attributeName="fill" to="#808080" begin="zoomminus.mouseover" end="zoomminus.mouseout"/>
                        </use>
                        <path d="M-4,0h8" fill="none" stroke="white" stroke-width="1.5" pointer-events="none"/>
                </g>
                <g id="dirArrow">
                        <path fill="none" stroke="white" stroke-width="1.5" d="M0,-3.0v7 M-2.5,-0.5L0,-3.0L2.5,-0.5"/>
                </g>
               <g id="resetDef">
                       <use xlink:href="#rim2" fill="#404040">
                               <set attributeName="fill" to="#808080" begin="reset.mouseover" end="reset.mouseout"/>
                       </use>
               </g>
        </defs>

<script type="text/javascript">
var viewWidth = 688;
var viewHeight = 487;
var sectionId = 'dynsection-0';
</script>
<script xlink:href="svgpan.js"/>
<svg id="graph" class="graph">
<g id="viewport">
<title>osdk&#45;lib/x86/osdk&#45;core/inc/dji_waypoint.hpp</title>
<polygon fill="#ffffff" stroke="transparent" points="-4,4 -4,-483 684,-483 684,4 -4,4"/>
<!-- Node0 -->
<g id="node1" class="node">
<title>Node0</title>
<g id="a_node1"><a xlink:title="Implementation of GPS Waypoint Missions for DJI OSDK.">
<polygon fill="#bfbfbf" stroke="#000000" points="424,-448.5 424,-478.5 539,-478.5 539,-448.5 424,-448.5"/>
<text text-anchor="start" x="432" y="-466.5" font-family="Helvetica,sans-Serif" font-size="10.00" fill="#000000">osdk&#45;lib/x86/osdk&#45;core</text>
<text text-anchor="middle" x="481.5" y="-455.5" font-family="Helvetica,sans-Serif" font-size="10.00" fill="#000000">/inc/dji_waypoint.hpp</text>
</a>
</g>
</g>
<!-- Node1 -->
<g id="node2" class="node">
<title>Node1</title>
<g id="a_node2"><a xlink:href="dji__mission__base_8hpp.html" target="_top" xlink:title="Mission&#45;Base abstract class for DJI OSDK library.">
<polygon fill="#ffffff" stroke="#000000" points="426.5,-392.5 426.5,-411.5 536.5,-411.5 536.5,-392.5 426.5,-392.5"/>
<text text-anchor="middle" x="481.5" y="-399.5" font-family="Helvetica,sans-Serif" font-size="10.00" fill="#000000">dji_mission_base.hpp</text>
</a>
</g>
</g>
<!-- Node0&#45;&gt;Node1 -->
<g id="edge1" class="edge">
<title>Node0&#45;&gt;Node1</title>
<path fill="none" stroke="#191970" d="M481.5,-448.2977C481.5,-440.3834 481.5,-430.6043 481.5,-422.0759"/>
<polygon fill="#191970" stroke="#191970" points="485.0001,-421.8469 481.5,-411.8469 478.0001,-421.847 485.0001,-421.8469"/>
</g>
<!-- Node2 -->
<g id="node3" class="node">
<title>Node2</title>
<g id="a_node3"><a xlink:href="dji__command_8hpp.html" target="_top" xlink:title="All DJI OSDK OpenProtocol Command IDs.">
<polygon fill="#ffffff" stroke="#000000" points="297,-168.5 297,-187.5 390,-187.5 390,-168.5 297,-168.5"/>
<text text-anchor="middle" x="343.5" y="-175.5" font-family="Helvetica,sans-Serif" font-size="10.00" fill="#000000">dji_command.hpp</text>
</a>
</g>
</g>
<!-- Node1&#45;&gt;Node2 -->
<g id="edge2" class="edge">
<title>Node1&#45;&gt;Node2</title>
<path fill="none" stroke="#191970" d="M461.8869,-392.3897C446.7619,-384.2585 426.0384,-371.4726 411.5,-356 372.2413,-314.2188 363.8853,-298.9403 347.5,-244 343.034,-229.0255 342.1865,-211.3148 342.3721,-198.0118"/>
<polygon fill="#191970" stroke="#191970" points="345.8833,-197.752 342.7361,-187.6355 338.8876,-197.5066 345.8833,-197.752"/>
</g>
<!-- Node9 -->
<g id="node10" class="node">
<title>Node9</title>
<g id="a_node10"><a xlink:href="dji__type_8hpp.html" target="_top" xlink:title="Data type and Data Structure definitions for use throughout DJI OSDK.">
<polygon fill="#ffffff" stroke="#000000" points="611,-168.5 611,-187.5 680,-187.5 680,-168.5 611,-168.5"/>
<text text-anchor="middle" x="645.5" y="-175.5" font-family="Helvetica,sans-Serif" font-size="10.00" fill="#000000">dji_type.hpp</text>
</a>
</g>
</g>
<!-- Node1&#45;&gt;Node9 -->
<g id="edge10" class="edge">
<title>Node1&#45;&gt;Node9</title>
<path fill="none" stroke="#191970" d="M502.7038,-392.3902C544.2311,-372.1231 634.5777,-320.4834 661.5,-244 666.9904,-228.4023 661.6627,-210.0857 655.7224,-196.7109"/>
<polygon fill="#191970" stroke="#191970" points="658.7828,-195.0027 651.2295,-187.5732 652.5011,-198.0914 658.7828,-195.0027"/>
</g>
<!-- Node11 -->
<g id="node12" class="node">
<title>Node11</title>
<g id="a_node12"><a xlink:href="dji__vehicle__callback_8hpp.html" target="_top" xlink:title="Type definition for new Vehicle&#45;style callbacks.">
<polygon fill="#ffffff" stroke="#000000" points="420.5,-336.5 420.5,-355.5 542.5,-355.5 542.5,-336.5 420.5,-336.5"/>
<text text-anchor="middle" x="481.5" y="-343.5" font-family="Helvetica,sans-Serif" font-size="10.00" fill="#000000">dji_vehicle_callback.hpp</text>
</a>
</g>
</g>
<!-- Node1&#45;&gt;Node11 -->
<g id="edge13" class="edge">
<title>Node1&#45;&gt;Node11</title>
<path fill="none" stroke="#191970" d="M481.5,-392.2455C481.5,-384.9382 481.5,-374.6944 481.5,-365.7046"/>
<polygon fill="#191970" stroke="#191970" points="485.0001,-365.6426 481.5,-355.6427 478.0001,-365.6427 485.0001,-365.6426"/>
</g>
<!-- Node3 -->
<g id="node4" class="node">
<title>Node3</title>
<g id="a_node4"><a xlink:href="dji__error_8hpp.html" target="_top" xlink:title="All DJI OSDK OpenProtocol ACK Error Codes.">
<polygon fill="#ffffff" stroke="#000000" points="345.5,-112.5 345.5,-131.5 415.5,-131.5 415.5,-112.5 345.5,-112.5"/>
<text text-anchor="middle" x="380.5" y="-119.5" font-family="Helvetica,sans-Serif" font-size="10.00" fill="#000000">dji_error.hpp</text>
</a>
</g>
</g>
<!-- Node2&#45;&gt;Node3 -->
<g id="edge3" class="edge">
<title>Node2&#45;&gt;Node3</title>
<path fill="none" stroke="#191970" d="M349.9449,-168.2455C355.0382,-160.5367 362.2908,-149.5598 368.452,-140.2348"/>
<polygon fill="#191970" stroke="#191970" points="371.5365,-141.9155 374.1289,-131.6427 365.6962,-138.0566 371.5365,-141.9155"/>
</g>
<!-- Node8 -->
<g id="node9" class="node">
<title>Node8</title>
<g id="a_node9"><a xlink:title=" ">
<polygon fill="#ffffff" stroke="#bfbfbf" points="293,-.5 293,-19.5 342,-19.5 342,-.5 293,-.5"/>
<text text-anchor="middle" x="317.5" y="-7.5" font-family="Helvetica,sans-Serif" font-size="10.00" fill="#000000">stdint.h</text>
</a>
</g>
</g>
<!-- Node2&#45;&gt;Node8 -->
<g id="edge9" class="edge">
<title>Node2&#45;&gt;Node8</title>
<path fill="none" stroke="#191970" d="M342.0276,-168.4862C337.9176,-141.9293 326.2541,-66.5651 320.6209,-30.1655"/>
<polygon fill="#191970" stroke="#191970" points="324.0093,-29.1749 319.021,-19.8279 317.0917,-30.2456 324.0093,-29.1749"/>
</g>
<!-- Node4 -->
<g id="node5" class="node">
<title>Node4</title>
<g id="a_node5"><a xlink:title=" ">
<polygon fill="#ffffff" stroke="#bfbfbf" points="367.5,-56.5 367.5,-75.5 413.5,-75.5 413.5,-56.5 367.5,-56.5"/>
<text text-anchor="middle" x="390.5" y="-63.5" font-family="Helvetica,sans-Serif" font-size="10.00" fill="#000000">cstdint</text>
</a>
</g>
</g>
<!-- Node3&#45;&gt;Node4 -->
<g id="edge4" class="edge">
<title>Node3&#45;&gt;Node4</title>
<path fill="none" stroke="#191970" d="M382.2419,-112.2455C383.5467,-104.9382 385.376,-94.6944 386.9813,-85.7046"/>
<polygon fill="#191970" stroke="#191970" points="390.4656,-86.1022 388.7781,-75.6427 383.5746,-84.8717 390.4656,-86.1022"/>
</g>
<!-- Node5 -->
<g id="node6" class="node">
<title>Node5</title>
<g id="a_node6"><a xlink:title=" ">
<polygon fill="#ffffff" stroke="#bfbfbf" points="443,-56.5 443,-75.5 478,-75.5 478,-56.5 443,-56.5"/>
<text text-anchor="middle" x="460.5" y="-63.5" font-family="Helvetica,sans-Serif" font-size="10.00" fill="#000000">map</text>
</a>
</g>
</g>
<!-- Node3&#45;&gt;Node5 -->
<g id="edge5" class="edge">
<title>Node3&#45;&gt;Node5</title>
<path fill="none" stroke="#191970" d="M394.4349,-112.2455C406.5947,-103.7337 424.4464,-91.2375 438.5285,-81.3801"/>
<polygon fill="#191970" stroke="#191970" points="440.5395,-84.2447 446.7248,-75.6427 436.5253,-78.51 440.5395,-84.2447"/>
</g>
<!-- Node6 -->
<g id="node7" class="node">
<title>Node6</title>
<g id="a_node7"><a xlink:href="osdk__typedef_8h_source.html" target="_top" xlink:title=" ">
<polygon fill="#ffffff" stroke="#000000" points="206,-56.5 206,-75.5 289,-75.5 289,-56.5 206,-56.5"/>
<text text-anchor="middle" x="247.5" y="-63.5" font-family="Helvetica,sans-Serif" font-size="10.00" fill="#000000">osdk_typedef.h</text>
</a>
</g>
</g>
<!-- Node3&#45;&gt;Node6 -->
<g id="edge6" class="edge">
<title>Node3&#45;&gt;Node6</title>
<path fill="none" stroke="#191970" d="M357.6365,-112.3733C336.095,-103.3032 303.6162,-89.6279 279.5044,-79.4755"/>
<polygon fill="#191970" stroke="#191970" points="280.6397,-76.156 270.0652,-75.5011 277.9233,-82.6075 280.6397,-76.156"/>
</g>
<!-- Node7 -->
<g id="node8" class="node">
<title>Node7</title>
<g id="a_node8"><a xlink:title=" ">
<polygon fill="#ffffff" stroke="#bfbfbf" points="221.5,-.5 221.5,-19.5 273.5,-19.5 273.5,-.5 221.5,-.5"/>
<text text-anchor="middle" x="247.5" y="-7.5" font-family="Helvetica,sans-Serif" font-size="10.00" fill="#000000">stddef.h</text>
</a>
</g>
</g>
<!-- Node6&#45;&gt;Node7 -->
<g id="edge7" class="edge">
<title>Node6&#45;&gt;Node7</title>
<path fill="none" stroke="#191970" d="M247.5,-56.2455C247.5,-48.9382 247.5,-38.6944 247.5,-29.7046"/>
<polygon fill="#191970" stroke="#191970" points="251.0001,-29.6426 247.5,-19.6427 244.0001,-29.6427 251.0001,-29.6426"/>
</g>
<!-- Node6&#45;&gt;Node8 -->
<g id="edge8" class="edge">
<title>Node6&#45;&gt;Node8</title>
<path fill="none" stroke="#191970" d="M259.6931,-56.2455C270.1321,-47.8943 285.3655,-35.7076 297.574,-25.9408"/>
<polygon fill="#191970" stroke="#191970" points="299.8244,-28.6227 305.4467,-19.6427 295.4515,-23.1566 299.8244,-28.6227"/>
</g>
<!-- Node9&#45;&gt;Node8 -->
<g id="edge12" class="edge">
<title>Node9&#45;&gt;Node8</title>
<path fill="none" stroke="#191970" d="M645.2773,-168.2117C644.4417,-154.0803 640.8973,-127.9174 626.5,-112 589.026,-70.5693 425.0305,-32.276 352.3684,-16.9998"/>
<polygon fill="#191970" stroke="#191970" points="352.8394,-13.523 342.3364,-14.9154 351.4152,-20.3766 352.8394,-13.523"/>
</g>
<!-- Node10 -->
<g id="node11" class="node">
<title>Node10</title>
<g id="a_node11"><a xlink:title=" ">
<polygon fill="#ffffff" stroke="#bfbfbf" points="574,-112.5 574,-131.5 617,-131.5 617,-112.5 574,-112.5"/>
<text text-anchor="middle" x="595.5" y="-119.5" font-family="Helvetica,sans-Serif" font-size="10.00" fill="#000000">cstdio</text>
</a>
</g>
</g>
<!-- Node9&#45;&gt;Node10 -->
<g id="edge11" class="edge">
<title>Node9&#45;&gt;Node10</title>
<path fill="none" stroke="#191970" d="M636.7907,-168.2455C629.6927,-160.2958 619.4916,-148.8706 611.005,-139.3656"/>
<polygon fill="#191970" stroke="#191970" points="613.3805,-136.771 604.1095,-131.6427 608.1589,-141.4331 613.3805,-136.771"/>
</g>
<!-- Node11&#45;&gt;Node9 -->
<g id="edge32" class="edge">
<title>Node11&#45;&gt;Node9</title>
<path fill="none" stroke="#191970" d="M514.179,-336.4264C553.4586,-322.9596 617.5688,-294.2646 645.5,-244 653.3171,-229.9324 652.5566,-211.4343 650.2775,-197.6018"/>
<polygon fill="#191970" stroke="#191970" points="653.6829,-196.7836 648.2591,-187.6823 646.8234,-198.1794 653.6829,-196.7836"/>
</g>
<!-- Node12 -->
<g id="node13" class="node">
<title>Node12</title>
<g id="a_node13"><a xlink:href="dji__ack_8hpp.html" target="_top" xlink:title="All DJI OSDK ACK parsing.">
<polygon fill="#ffffff" stroke="#000000" points="448.5,-280.5 448.5,-299.5 514.5,-299.5 514.5,-280.5 448.5,-280.5"/>
<text text-anchor="middle" x="481.5" y="-287.5" font-family="Helvetica,sans-Serif" font-size="10.00" fill="#000000">dji_ack.hpp</text>
</a>
</g>
</g>
<!-- Node11&#45;&gt;Node12 -->
<g id="edge14" class="edge">
<title>Node11&#45;&gt;Node12</title>
<path fill="none" stroke="#191970" d="M481.5,-336.2455C481.5,-328.9382 481.5,-318.6944 481.5,-309.7046"/>
<polygon fill="#191970" stroke="#191970" points="485.0001,-309.6426 481.5,-299.6427 478.0001,-309.6427 485.0001,-309.6426"/>
</g>
<!-- Node16 -->
<g id="node17" class="node">
<title>Node16</title>
<g id="a_node17"><a xlink:href="dji__log_8hpp.html" target="_top" xlink:title="Logging mechanism for printing status and error messages to the screen.">
<polygon fill="#ffffff" stroke="#000000" points="119,-224.5 119,-243.5 182,-243.5 182,-224.5 119,-224.5"/>
<text text-anchor="middle" x="150.5" y="-231.5" font-family="Helvetica,sans-Serif" font-size="10.00" fill="#000000">dji_log.hpp</text>
</a>
</g>
</g>
<!-- Node11&#45;&gt;Node16 -->
<g id="edge24" class="edge">
<title>Node11&#45;&gt;Node16</title>
<path fill="none" stroke="#191970" d="M453.2791,-336.4509C393.7974,-316.3242 255.5225,-269.5363 188.4033,-246.8253"/>
<polygon fill="#191970" stroke="#191970" points="189.2437,-243.4148 178.6494,-243.5249 187,-250.0455 189.2437,-243.4148"/>
</g>
<!-- Node12&#45;&gt;Node2 -->
<g id="edge15" class="edge">
<title>Node12&#45;&gt;Node2</title>
<path fill="none" stroke="#191970" d="M448.4573,-285.4238C421.6839,-280.0129 384.8554,-268.4284 362.5,-244 351.0667,-231.5065 346.4716,-212.5604 344.6462,-198.1672"/>
<polygon fill="#191970" stroke="#191970" points="348.0952,-197.4499 343.6983,-187.8105 341.1244,-198.0879 348.0952,-197.4499"/>
</g>
<!-- Node12&#45;&gt;Node5 -->
<g id="edge23" class="edge">
<title>Node12&#45;&gt;Node5</title>
<path fill="none" stroke="#191970" d="M480.5977,-280.375C477.4205,-246.4851 466.7092,-132.2317 462.3594,-85.8332"/>
<polygon fill="#191970" stroke="#191970" points="465.8172,-85.2188 461.399,-75.5891 458.8478,-85.8722 465.8172,-85.2188"/>
</g>
<!-- Node12&#45;&gt;Node9 -->
<g id="edge19" class="edge">
<title>Node12&#45;&gt;Node9</title>
<path fill="none" stroke="#191970" d="M514.6292,-283.2869C552.383,-275.0042 610.8875,-260.0382 626.5,-244 638.4299,-231.7448 642.956,-212.5028 644.6297,-197.9509"/>
<polygon fill="#191970" stroke="#191970" points="648.1226,-198.1773 645.429,-187.9306 641.1448,-197.6206 648.1226,-198.1773"/>
</g>
<!-- Node13 -->
<g id="node14" class="node">
<title>Node13</title>
<g id="a_node14"><a xlink:href="dji__mission__type_8hpp.html" target="_top" xlink:title="Mission related data struct for DJI OSDK library.">
<polygon fill="#ffffff" stroke="#000000" points="509.5,-224.5 509.5,-243.5 617.5,-243.5 617.5,-224.5 509.5,-224.5"/>
<text text-anchor="middle" x="563.5" y="-231.5" font-family="Helvetica,sans-Serif" font-size="10.00" fill="#000000">dji_mission_type.hpp</text>
</a>
</g>
</g>
<!-- Node12&#45;&gt;Node13 -->
<g id="edge16" class="edge">
<title>Node12&#45;&gt;Node13</title>
<path fill="none" stroke="#191970" d="M495.7833,-280.2455C508.247,-271.7337 526.5451,-259.2375 540.9792,-249.3801"/>
<polygon fill="#191970" stroke="#191970" points="543.0962,-252.1726 549.3804,-243.6427 539.1485,-246.392 543.0962,-252.1726"/>
</g>
<!-- Node15 -->
<g id="node16" class="node">
<title>Node15</title>
<g id="a_node16"><a xlink:href="dji__version_8hpp.html" target="_top" xlink:title="Drone/SDK Version definition for DJI onboardSDK library.">
<polygon fill="#ffffff" stroke="#000000" points="371.5,-224.5 371.5,-243.5 453.5,-243.5 453.5,-224.5 371.5,-224.5"/>
<text text-anchor="middle" x="412.5" y="-231.5" font-family="Helvetica,sans-Serif" font-size="10.00" fill="#000000">dji_version.hpp</text>
</a>
</g>
</g>
<!-- Node12&#45;&gt;Node15 -->
<g id="edge20" class="edge">
<title>Node12&#45;&gt;Node15</title>
<path fill="none" stroke="#191970" d="M469.4811,-280.2455C459.2902,-271.9746 444.4638,-259.9416 432.4893,-250.2232"/>
<polygon fill="#191970" stroke="#191970" points="434.3514,-247.2268 424.3812,-243.6427 429.9402,-252.662 434.3514,-247.2268"/>
</g>
<!-- Node13&#45;&gt;Node9 -->
<g id="edge18" class="edge">
<title>Node13&#45;&gt;Node9</title>
<path fill="none" stroke="#191970" d="M577.7833,-224.2455C590.247,-215.7337 608.5451,-203.2375 622.9792,-193.3801"/>
<polygon fill="#191970" stroke="#191970" points="625.0962,-196.1726 631.3804,-187.6427 621.1485,-190.392 625.0962,-196.1726"/>
</g>
<!-- Node14 -->
<g id="node15" class="node">
<title>Node14</title>
<g id="a_node15"><a xlink:title=" ">
<polygon fill="#ffffff" stroke="#bfbfbf" points="541.5,-168.5 541.5,-187.5 585.5,-187.5 585.5,-168.5 541.5,-168.5"/>
<text text-anchor="middle" x="563.5" y="-175.5" font-family="Helvetica,sans-Serif" font-size="10.00" fill="#000000">vector</text>
</a>
</g>
</g>
<!-- Node13&#45;&gt;Node14 -->
<g id="edge17" class="edge">
<title>Node13&#45;&gt;Node14</title>
<path fill="none" stroke="#191970" d="M563.5,-224.2455C563.5,-216.9382 563.5,-206.6944 563.5,-197.7046"/>
<polygon fill="#191970" stroke="#191970" points="567.0001,-197.6426 563.5,-187.6427 560.0001,-197.6427 567.0001,-197.6426"/>
</g>
<!-- Node15&#45;&gt;Node2 -->
<g id="edge21" class="edge">
<title>Node15&#45;&gt;Node2</title>
<path fill="none" stroke="#191970" d="M400.4811,-224.2455C390.2902,-215.9746 375.4638,-203.9416 363.4893,-194.2232"/>
<polygon fill="#191970" stroke="#191970" points="365.3514,-191.2268 355.3812,-187.6427 360.9402,-196.662 365.3514,-191.2268"/>
</g>
<!-- Node15&#45;&gt;Node4 -->
<g id="edge22" class="edge">
<title>Node15&#45;&gt;Node4</title>
<path fill="none" stroke="#191970" d="M416.0993,-224.214C423.2964,-203.1168 437.6859,-152.0237 424.5,-112 420.9944,-101.3594 413.9759,-91.164 407.2213,-83.0877"/>
<polygon fill="#191970" stroke="#191970" points="409.714,-80.6247 400.4362,-75.5087 404.4986,-85.2937 409.714,-80.6247"/>
</g>
<!-- Node17 -->
<g id="node18" class="node">
<title>Node17</title>
<g id="a_node18"><a xlink:href="dji__singleton_8hpp.html" target="_top" xlink:title="Singleton Template Class implementation for use with the DJI OSDK.">
<polygon fill="#ffffff" stroke="#000000" points="0,-112.5 0,-131.5 89,-131.5 89,-112.5 0,-112.5"/>
<text text-anchor="middle" x="44.5" y="-119.5" font-family="Helvetica,sans-Serif" font-size="10.00" fill="#000000">dji_singleton.hpp</text>
</a>
</g>
</g>
<!-- Node16&#45;&gt;Node17 -->
<g id="edge25" class="edge">
<title>Node16&#45;&gt;Node17</title>
<path fill="none" stroke="#191970" d="M138.4424,-224.2816C127.5734,-215.305 111.37,-201.3756 98.5,-188 83.6798,-172.5976 68.4007,-153.5763 57.894,-139.9168"/>
<polygon fill="#191970" stroke="#191970" points="60.5684,-137.6514 51.7315,-131.8068 54.9949,-141.8865 60.5684,-137.6514"/>
</g>
<!-- Node18 -->
<g id="node19" class="node">
<title>Node18</title>
<g id="a_node19"><a xlink:href="dji__platform_8hpp.html" target="_top" xlink:title="Vehicle API for DJI onboardSDK library.">
<polygon fill="#ffffff" stroke="#000000" points="107.5,-168.5 107.5,-187.5 193.5,-187.5 193.5,-168.5 107.5,-168.5"/>
<text text-anchor="middle" x="150.5" y="-175.5" font-family="Helvetica,sans-Serif" font-size="10.00" fill="#000000">dji_platform.hpp</text>
</a>
</g>
</g>
<!-- Node16&#45;&gt;Node18 -->
<g id="edge26" class="edge">
<title>Node16&#45;&gt;Node18</title>
<path fill="none" stroke="#191970" d="M150.5,-224.2455C150.5,-216.9382 150.5,-206.6944 150.5,-197.7046"/>
<polygon fill="#191970" stroke="#191970" points="154.0001,-197.6426 150.5,-187.6427 147.0001,-197.6427 154.0001,-197.6426"/>
</g>
<!-- Node18&#45;&gt;Node17 -->
<g id="edge29" class="edge">
<title>Node18&#45;&gt;Node17</title>
<path fill="none" stroke="#191970" d="M132.0362,-168.2455C115.3926,-159.4527 90.7007,-146.4079 71.7808,-136.4125"/>
<polygon fill="#191970" stroke="#191970" points="73.2291,-133.2193 62.7522,-131.6427 69.9592,-139.4086 73.2291,-133.2193"/>
</g>
<!-- Node19 -->
<g id="node20" class="node">
<title>Node19</title>
<g id="a_node20"><a xlink:href="osdk__platform_8h.html" target="_top" xlink:title="This is the header file for define OSDK platform interfaces.">
<polygon fill="#ffffff" stroke="#000000" points="107.5,-112.5 107.5,-131.5 193.5,-131.5 193.5,-112.5 107.5,-112.5"/>
<text text-anchor="middle" x="150.5" y="-119.5" font-family="Helvetica,sans-Serif" font-size="10.00" fill="#000000">osdk_platform.h</text>
</a>
</g>
</g>
<!-- Node18&#45;&gt;Node19 -->
<g id="edge27" class="edge">
<title>Node18&#45;&gt;Node19</title>
<path fill="none" stroke="#191970" d="M150.5,-168.2455C150.5,-160.9382 150.5,-150.6944 150.5,-141.7046"/>
<polygon fill="#191970" stroke="#191970" points="154.0001,-141.6426 150.5,-131.6427 147.0001,-141.6427 154.0001,-141.6426"/>
</g>
<!-- Node20 -->
<g id="node21" class="node">
<title>Node20</title>
<g id="a_node21"><a xlink:href="osdk__logger_8h.html" target="_top" xlink:title="This is the header file for &quot;osdk_logger.c&quot;, defining the structure and (exported) function prototype...">
<polygon fill="#ffffff" stroke="#000000" points="212,-112.5 212,-131.5 289,-131.5 289,-112.5 212,-112.5"/>
<text text-anchor="middle" x="250.5" y="-119.5" font-family="Helvetica,sans-Serif" font-size="10.00" fill="#000000">osdk_logger.h</text>
</a>
</g>
</g>
<!-- Node18&#45;&gt;Node20 -->
<g id="edge30" class="edge">
<title>Node18&#45;&gt;Node20</title>
<path fill="none" stroke="#191970" d="M167.9187,-168.2455C183.5485,-159.4928 206.7019,-146.527 224.5185,-136.5496"/>
<polygon fill="#191970" stroke="#191970" points="226.266,-139.5825 233.2809,-131.6427 222.8457,-133.475 226.266,-139.5825"/>
</g>
<!-- Node19&#45;&gt;Node6 -->
<g id="edge28" class="edge">
<title>Node19&#45;&gt;Node6</title>
<path fill="none" stroke="#191970" d="M167.3961,-112.2455C182.418,-103.5731 204.6043,-90.7645 221.821,-80.825"/>
<polygon fill="#191970" stroke="#191970" points="223.8871,-83.6737 230.7975,-75.6427 220.3872,-77.6114 223.8871,-83.6737"/>
</g>
<!-- Node20&#45;&gt;Node6 -->
<g id="edge31" class="edge">
<title>Node20&#45;&gt;Node6</title>
<path fill="none" stroke="#191970" d="M249.9774,-112.2455C249.586,-104.9382 249.0372,-94.6944 248.5556,-85.7046"/>
<polygon fill="#191970" stroke="#191970" points="252.0466,-85.4411 248.0166,-75.6427 245.0566,-85.8156 252.0466,-85.4411"/>
</g>
</g>
</svg>
        <g id="navigator" transform="translate(0 0)" fill="#404254">
                <rect fill="#f2f5e9" fill-opacity="0.5" stroke="#606060" stroke-width=".5" x="0" y="0" width="60" height="60"/>
                <use id="zoomplus" xlink:href="#zoomPlus" x="17" y="9" onmousedown="handleZoom(evt,'in')"/>
                <use id="zoomminus" xlink:href="#zoomMin" x="42" y="9" onmousedown="handleZoom(evt,'out')"/>
                <use id="reset" xlink:href="#resetDef" x="30" y="36" onmousedown="handleReset()"/>
                <g id="arrowUp" xlink:href="#dirArrow" transform="translate(30 24)" onmousedown="handlePan(0,-1)">
                  <use xlink:href="#rim" fill="#404040">
                        <set attributeName="fill" to="#808080" begin="arrowUp.mouseover" end="arrowUp.mouseout"/>
                  </use>
                  <path fill="none" stroke="white" stroke-width="1.5" d="M0,-3.0v7 M-2.5,-0.5L0,-3.0L2.5,-0.5"/>
                </g>
                <g id="arrowRight" xlink:href="#dirArrow" transform="rotate(90) translate(36 -43)" onmousedown="handlePan(1,0)">
                  <use xlink:href="#rim" fill="#404040">
                        <set attributeName="fill" to="#808080" begin="arrowRight.mouseover" end="arrowRight.mouseout"/>
                  </use>
                  <path fill="none" stroke="white" stroke-width="1.5" d="M0,-3.0v7 M-2.5,-0.5L0,-3.0L2.5,-0.5"/>
                </g>
                <g id="arrowDown" xlink:href="#dirArrow" transform="rotate(180) translate(-30 -48)" onmousedown="handlePan(0,1)">
                  <use xlink:href="#rim" fill="#404040">
                        <set attributeName="fill" to="#808080" begin="arrowDown.mouseover" end="arrowDown.mouseout"/>
                  </use>
                  <path fill="none" stroke="white" stroke-width="1.5" d="M0,-3.0v7 M-2.5,-0.5L0,-3.0L2.5,-0.5"/>
                </g>
                <g id="arrowLeft" xlink:href="#dirArrow" transform="rotate(270) translate(-36 17)" onmousedown="handlePan(-1,0)">
                  <use xlink:href="#rim" fill="#404040">
                        <set attributeName="fill" to="#808080" begin="arrowLeft.mouseover" end="arrowLeft.mouseout"/>
                  </use>
                  <path fill="none" stroke="white" stroke-width="1.5" d="M0,-3.0v7 M-2.5,-0.5L0,-3.0L2.5,-0.5"/>
                </g>
        </g>
        <svg viewBox="0 0 15 15" width="100%" height="30px" preserveAspectRatio="xMaxYMin meet">
         <g id="arrow_out" transform="scale(0.3 0.3)">
          <a xlink:href="dji__waypoint_8hpp__incl_org.svg" target="_base">
           <rect id="button" ry="5" rx="5" y="6" x="6" height="38" width="38"
                fill="#f2f5e9" fill-opacity="0.5" stroke="#606060" stroke-width="1.0"/>
           <path id="arrow"
             d="M 11.500037,31.436501 C 11.940474,20.09759 22.043105,11.32322 32.158766,21.979434 L 37.068811,17.246167 C 37.068811,17.246167 37.088388,32 37.088388,32 L 22.160133,31.978069 C 22.160133,31.978069 26.997745,27.140456 26.997745,27.140456 C 18.528582,18.264221 13.291696,25.230495 11.500037,31.436501 z"
             style="fill:#404040;"/>
          </a>
         </g>
        </svg>
</svg>
