<?xml version="1.0" encoding="UTF-8" standalone="no"?>
<!DOCTYPE svg PUBLIC "-//W3C//DTD SVG 1.1//EN"
 "http://www.w3.org/Graphics/SVG/1.1/DTD/svg11.dtd">
<!-- Generated by graphviz version 2.40.1 (20161225.0304)
 -->
<!-- Title: osdk&#45;core/api/src/dji_hotpoint.cpp Pages: 1 -->
<svg width="1832pt" height="431pt"
 viewBox="0.00 0.00 1831.53 431.00" xmlns="http://www.w3.org/2000/svg" xmlns:xlink="http://www.w3.org/1999/xlink">
<g id="graph0" class="graph" transform="scale(1 1) rotate(0) translate(4 427)">
<title>osdk&#45;core/api/src/dji_hotpoint.cpp</title>
<polygon fill="#ffffff" stroke="transparent" points="-4,4 -4,-427 1827.5336,-427 1827.5336,4 -4,4"/>
<!-- Node0 -->
<g id="node1" class="node">
<title>Node0</title>
<g id="a_node1"><a xlink:title="Implementation of HotPoint (Point of Interest) Missions for DJI OSDK.">
<polygon fill="#bfbfbf" stroke="#000000" points="262.5336,-392.5 262.5336,-422.5 366.5336,-422.5 366.5336,-392.5 262.5336,-392.5"/>
<text text-anchor="start" x="270.5336" y="-410.5" font-family="Helvetica,sans-Serif" font-size="10.00" fill="#000000">osdk&#45;core/api/src/dji</text>
<text text-anchor="middle" x="314.5336" y="-399.5" font-family="Helvetica,sans-Serif" font-size="10.00" fill="#000000">_hotpoint.cpp</text>
</a>
</g>
</g>
<!-- Node1 -->
<g id="node2" class="node">
<title>Node1</title>
<g id="a_node2"><a xlink:href="dji__hotpoint_8hpp.html" target="_top" xlink:title="Implementation of HotPoint (Point of Interest) Missions for DJI OSDK.">
<polygon fill="#ffffff" stroke="#000000" points="285.0336,-224.5 285.0336,-243.5 370.0336,-243.5 370.0336,-224.5 285.0336,-224.5"/>
<text text-anchor="middle" x="327.5336" y="-231.5" font-family="Helvetica,sans-Serif" font-size="10.00" fill="#000000">dji_hotpoint.hpp</text>
</a>
</g>
</g>
<!-- Node0&#45;&gt;Node1 -->
<g id="edge1" class="edge">
<title>Node0&#45;&gt;Node1</title>
<path fill="none" stroke="#191970" d="M315.6645,-392.4065C318.0066,-361.1485 323.3885,-289.3214 326.0238,-254.1492"/>
<polygon fill="#191970" stroke="#191970" points="329.5469,-253.9716 326.8039,-243.738 322.5664,-253.4485 329.5469,-253.9716"/>
</g>
<!-- Node11 -->
<g id="node12" class="node">
<title>Node11</title>
<g id="a_node12"><a xlink:href="dji__mission__manager_8hpp.html" target="_top" xlink:title="Mission&#45;Manager API for DJI OSDK library.">
<polygon fill="#ffffff" stroke="#000000" points="159.0336,-280.5 159.0336,-299.5 286.0336,-299.5 286.0336,-280.5 159.0336,-280.5"/>
<text text-anchor="middle" x="222.5336" y="-287.5" font-family="Helvetica,sans-Serif" font-size="10.00" fill="#000000">dji_mission_manager.hpp</text>
</a>
</g>
</g>
<!-- Node0&#45;&gt;Node11 -->
<g id="edge14" class="edge">
<title>Node0&#45;&gt;Node11</title>
<path fill="none" stroke="#191970" d="M302.5062,-392.1389C285.4034,-370.2957 254.1443,-330.3724 236.1906,-307.4424"/>
<polygon fill="#191970" stroke="#191970" points="238.9392,-305.2754 230.0184,-299.5595 233.4276,-309.5909 238.9392,-305.2754"/>
</g>
<!-- Node14 -->
<g id="node15" class="node">
<title>Node14</title>
<g id="a_node15"><a xlink:href="dji__vehicle_8hpp.html" target="_top" xlink:title="Vehicle API for DJI onboardSDK library.">
<polygon fill="#ffffff" stroke="#000000" points="917.0336,-336.5 917.0336,-355.5 998.0336,-355.5 998.0336,-336.5 917.0336,-336.5"/>
<text text-anchor="middle" x="957.5336" y="-343.5" font-family="Helvetica,sans-Serif" font-size="10.00" fill="#000000">dji_vehicle.hpp</text>
</a>
</g>
</g>
<!-- Node0&#45;&gt;Node14 -->
<g id="edge19" class="edge">
<title>Node0&#45;&gt;Node14</title>
<path fill="none" stroke="#191970" d="M366.6083,-402.5193C487.7509,-390.9326 787.2451,-362.2873 906.9295,-350.84"/>
<polygon fill="#191970" stroke="#191970" points="907.306,-354.3201 916.9273,-349.8838 906.6395,-347.3519 907.306,-354.3201"/>
</g>
<!-- Node2 -->
<g id="node3" class="node">
<title>Node2</title>
<g id="a_node3"><a xlink:href="dji__mission__base_8hpp.html" target="_top" xlink:title="Mission&#45;Base abstract class for DJI OSDK library.">
<polygon fill="#ffffff" stroke="#000000" points="260.5336,-168.5 260.5336,-187.5 370.5336,-187.5 370.5336,-168.5 260.5336,-168.5"/>
<text text-anchor="middle" x="315.5336" y="-175.5" font-family="Helvetica,sans-Serif" font-size="10.00" fill="#000000">dji_mission_base.hpp</text>
</a>
</g>
</g>
<!-- Node1&#45;&gt;Node2 -->
<g id="edge2" class="edge">
<title>Node1&#45;&gt;Node2</title>
<path fill="none" stroke="#191970" d="M325.4433,-224.2455C323.8775,-216.9382 321.6824,-206.6944 319.756,-197.7046"/>
<polygon fill="#191970" stroke="#191970" points="323.1175,-196.6873 317.5999,-187.6427 316.2729,-198.1541 323.1175,-196.6873"/>
</g>
<!-- Node10 -->
<g id="node11" class="node">
<title>Node10</title>
<g id="a_node11"><a xlink:href="dji__telemetry_8hpp.html" target="_top" xlink:title="Enumeration of all telemetry data types, structures and maps.">
<polygon fill="#ffffff" stroke="#000000" points="465.0336,-168.5 465.0336,-187.5 556.0336,-187.5 556.0336,-168.5 465.0336,-168.5"/>
<text text-anchor="middle" x="510.5336" y="-175.5" font-family="Helvetica,sans-Serif" font-size="10.00" fill="#000000">dji_telemetry.hpp</text>
</a>
</g>
</g>
<!-- Node1&#45;&gt;Node10 -->
<g id="edge12" class="edge">
<title>Node1&#45;&gt;Node10</title>
<path fill="none" stroke="#191970" d="M358.9924,-224.3733C389.5542,-215.021 436.1162,-200.7725 469.5597,-190.5385"/>
<polygon fill="#191970" stroke="#191970" points="470.9471,-193.7742 479.4853,-187.5011 468.8988,-187.0806 470.9471,-193.7742"/>
</g>
<!-- Node3 -->
<g id="node4" class="node">
<title>Node3</title>
<g id="a_node4"><a xlink:href="dji__command_8hpp.html" target="_top" xlink:title="All DJI OSDK OpenProtocol Command IDs.">
<polygon fill="#ffffff" stroke="#000000" points="186.0336,-112.5 186.0336,-131.5 279.0336,-131.5 279.0336,-112.5 186.0336,-112.5"/>
<text text-anchor="middle" x="232.5336" y="-119.5" font-family="Helvetica,sans-Serif" font-size="10.00" fill="#000000">dji_command.hpp</text>
</a>
</g>
</g>
<!-- Node2&#45;&gt;Node3 -->
<g id="edge3" class="edge">
<title>Node2&#45;&gt;Node3</title>
<path fill="none" stroke="#191970" d="M301.0761,-168.2455C288.4603,-159.7337 269.9391,-147.2375 255.3291,-137.3801"/>
<polygon fill="#191970" stroke="#191970" points="257.0726,-134.3343 246.8254,-131.6427 253.1575,-140.1371 257.0726,-134.3343"/>
</g>
<!-- Node6 -->
<g id="node7" class="node">
<title>Node6</title>
<g id="a_node7"><a xlink:href="dji__type_8hpp.html" target="_top" xlink:title="Data type and Data Structure definitions for use throughout DJI OSDK.">
<polygon fill="#ffffff" stroke="#000000" points="402.0336,-112.5 402.0336,-131.5 471.0336,-131.5 471.0336,-112.5 402.0336,-112.5"/>
<text text-anchor="middle" x="436.5336" y="-119.5" font-family="Helvetica,sans-Serif" font-size="10.00" fill="#000000">dji_type.hpp</text>
</a>
</g>
</g>
<!-- Node2&#45;&gt;Node6 -->
<g id="edge7" class="edge">
<title>Node2&#45;&gt;Node6</title>
<path fill="none" stroke="#191970" d="M336.3342,-168.3733C355.7579,-159.3838 384.9559,-145.8706 406.83,-135.7471"/>
<polygon fill="#191970" stroke="#191970" points="408.3992,-138.8776 416.0044,-131.5011 405.4591,-132.5249 408.3992,-138.8776"/>
</g>
<!-- Node8 -->
<g id="node9" class="node">
<title>Node8</title>
<g id="a_node9"><a xlink:href="dji__vehicle__callback_8hpp.html" target="_top" xlink:title="Type definition for new Vehicle&#45;style callbacks.">
<polygon fill="#ffffff" stroke="#000000" points="1207.5336,-112.5 1207.5336,-131.5 1329.5336,-131.5 1329.5336,-112.5 1207.5336,-112.5"/>
<text text-anchor="middle" x="1268.5336" y="-119.5" font-family="Helvetica,sans-Serif" font-size="10.00" fill="#000000">dji_vehicle_callback.hpp</text>
</a>
</g>
</g>
<!-- Node2&#45;&gt;Node8 -->
<g id="edge10" class="edge">
<title>Node2&#45;&gt;Node8</title>
<path fill="none" stroke="#191970" d="M370.7102,-173.8698C396.4763,-171.9896 427.5682,-169.7898 455.5336,-168 729.4342,-150.4701 1055.4725,-133.0729 1197.0443,-125.6889"/>
<polygon fill="#191970" stroke="#191970" points="1197.5182,-129.169 1207.3225,-125.1535 1197.154,-122.1785 1197.5182,-129.169"/>
</g>
<!-- Node4 -->
<g id="node5" class="node">
<title>Node4</title>
<g id="a_node5"><a xlink:href="dji__error_8hpp.html" target="_top" xlink:title="All DJI OSDK OpenProtocol ACK Error Codes.">
<polygon fill="#ffffff" stroke="#000000" points="260.5336,-56.5 260.5336,-75.5 330.5336,-75.5 330.5336,-56.5 260.5336,-56.5"/>
<text text-anchor="middle" x="295.5336" y="-63.5" font-family="Helvetica,sans-Serif" font-size="10.00" fill="#000000">dji_error.hpp</text>
</a>
</g>
</g>
<!-- Node3&#45;&gt;Node4 -->
<g id="edge4" class="edge">
<title>Node3&#45;&gt;Node4</title>
<path fill="none" stroke="#191970" d="M243.5073,-112.2455C252.7218,-104.0549 266.0868,-92.1749 276.9633,-82.5069"/>
<polygon fill="#191970" stroke="#191970" points="279.5367,-84.9023 284.6856,-75.6427 274.8862,-79.6704 279.5367,-84.9023"/>
</g>
<!-- Node5 -->
<g id="node6" class="node">
<title>Node5</title>
<g id="a_node6"><a xlink:title=" ">
<polygon fill="#ffffff" stroke="#bfbfbf" points="271.0336,-.5 271.0336,-19.5 320.0336,-19.5 320.0336,-.5 271.0336,-.5"/>
<text text-anchor="middle" x="295.5336" y="-7.5" font-family="Helvetica,sans-Serif" font-size="10.00" fill="#000000">stdint.h</text>
</a>
</g>
</g>
<!-- Node3&#45;&gt;Node5 -->
<g id="edge6" class="edge">
<title>Node3&#45;&gt;Node5</title>
<path fill="none" stroke="#191970" d="M233.8043,-112.477C235.9019,-99.121 240.9557,-74.4004 251.5336,-56 257.859,-44.9969 267.3641,-34.6085 275.9231,-26.4976"/>
<polygon fill="#191970" stroke="#191970" points="278.3296,-29.0402 283.399,-19.7369 273.6344,-23.8484 278.3296,-29.0402"/>
</g>
<!-- Node4&#45;&gt;Node5 -->
<g id="edge5" class="edge">
<title>Node4&#45;&gt;Node5</title>
<path fill="none" stroke="#191970" d="M295.5336,-56.2455C295.5336,-48.9382 295.5336,-38.6944 295.5336,-29.7046"/>
<polygon fill="#191970" stroke="#191970" points="299.0337,-29.6426 295.5336,-19.6427 292.0337,-29.6427 299.0337,-29.6426"/>
</g>
<!-- Node6&#45;&gt;Node5 -->
<g id="edge9" class="edge">
<title>Node6&#45;&gt;Node5</title>
<path fill="none" stroke="#191970" d="M424.512,-112.4509C400.2665,-93.1921 345.2887,-49.5218 315.5423,-25.8935"/>
<polygon fill="#191970" stroke="#191970" points="317.532,-23.0041 307.5247,-19.5249 313.1781,-28.4854 317.532,-23.0041"/>
</g>
<!-- Node7 -->
<g id="node8" class="node">
<title>Node7</title>
<g id="a_node8"><a xlink:title=" ">
<polygon fill="#ffffff" stroke="#bfbfbf" points="415.0336,-56.5 415.0336,-75.5 458.0336,-75.5 458.0336,-56.5 415.0336,-56.5"/>
<text text-anchor="middle" x="436.5336" y="-63.5" font-family="Helvetica,sans-Serif" font-size="10.00" fill="#000000">cstdio</text>
</a>
</g>
</g>
<!-- Node6&#45;&gt;Node7 -->
<g id="edge8" class="edge">
<title>Node6&#45;&gt;Node7</title>
<path fill="none" stroke="#191970" d="M436.5336,-112.2455C436.5336,-104.9382 436.5336,-94.6944 436.5336,-85.7046"/>
<polygon fill="#191970" stroke="#191970" points="440.0337,-85.6426 436.5336,-75.6427 433.0337,-85.6427 440.0337,-85.6426"/>
</g>
<!-- Node9 -->
<g id="node10" class="node">
<title>Node9</title>
<g id="a_node10"><a xlink:title=" ">
<polygon fill="#ffffff" stroke="#bfbfbf" points="1213.0336,-56.5 1213.0336,-75.5 1324.0336,-75.5 1324.0336,-56.5 1213.0336,-56.5"/>
<text text-anchor="middle" x="1268.5336" y="-63.5" font-family="Helvetica,sans-Serif" font-size="10.00" fill="#000000">dji_open_protocol.hpp</text>
</a>
</g>
</g>
<!-- Node8&#45;&gt;Node9 -->
<g id="edge11" class="edge">
<title>Node8&#45;&gt;Node9</title>
<path fill="none" stroke="#191970" d="M1268.5336,-112.2455C1268.5336,-104.9382 1268.5336,-94.6944 1268.5336,-85.7046"/>
<polygon fill="#191970" stroke="#191970" points="1272.0337,-85.6426 1268.5336,-75.6427 1265.0337,-85.6427 1272.0337,-85.6426"/>
</g>
<!-- Node10&#45;&gt;Node6 -->
<g id="edge13" class="edge">
<title>Node10&#45;&gt;Node6</title>
<path fill="none" stroke="#191970" d="M497.6438,-168.2455C486.6082,-159.8943 470.5044,-147.7076 457.5982,-137.9408"/>
<polygon fill="#191970" stroke="#191970" points="459.3618,-134.8862 449.2757,-131.6427 455.1377,-140.4681 459.3618,-134.8862"/>
</g>
<!-- Node11&#45;&gt;Node1 -->
<g id="edge15" class="edge">
<title>Node11&#45;&gt;Node1</title>
<path fill="none" stroke="#191970" d="M240.8232,-280.2455C257.3098,-271.4527 281.7687,-258.4079 300.5101,-248.4125"/>
<polygon fill="#191970" stroke="#191970" points="302.2771,-251.4368 309.4536,-243.6427 298.9829,-245.2604 302.2771,-251.4368"/>
</g>
<!-- Node12 -->
<g id="node13" class="node">
<title>Node12</title>
<g id="a_node13"><a xlink:href="dji__waypoint_8hpp.html" target="_top" xlink:title="Implementation of GPS Waypoint Missions for DJI OSDK.">
<polygon fill="#ffffff" stroke="#000000" points="178.0336,-224.5 178.0336,-243.5 267.0336,-243.5 267.0336,-224.5 178.0336,-224.5"/>
<text text-anchor="middle" x="222.5336" y="-231.5" font-family="Helvetica,sans-Serif" font-size="10.00" fill="#000000">dji_waypoint.hpp</text>
</a>
</g>
</g>
<!-- Node11&#45;&gt;Node12 -->
<g id="edge16" class="edge">
<title>Node11&#45;&gt;Node12</title>
<path fill="none" stroke="#191970" d="M222.5336,-280.2455C222.5336,-272.9382 222.5336,-262.6944 222.5336,-253.7046"/>
<polygon fill="#191970" stroke="#191970" points="226.0337,-253.6426 222.5336,-243.6427 219.0337,-253.6427 226.0337,-253.6426"/>
</g>
<!-- Node13 -->
<g id="node14" class="node">
<title>Node13</title>
<g id="a_node14"><a xlink:title=" ">
<polygon fill="#ffffff" stroke="#bfbfbf" points="77.5336,-224.5 77.5336,-243.5 121.5336,-243.5 121.5336,-224.5 77.5336,-224.5"/>
<text text-anchor="middle" x="99.5336" y="-231.5" font-family="Helvetica,sans-Serif" font-size="10.00" fill="#000000">vector</text>
</a>
</g>
</g>
<!-- Node11&#45;&gt;Node13 -->
<g id="edge18" class="edge">
<title>Node11&#45;&gt;Node13</title>
<path fill="none" stroke="#191970" d="M201.3891,-280.3733C181.6444,-271.3838 151.9637,-257.8706 129.7281,-247.7471"/>
<polygon fill="#191970" stroke="#191970" points="130.9535,-244.4594 120.4021,-243.5011 128.053,-250.8302 130.9535,-244.4594"/>
</g>
<!-- Node12&#45;&gt;Node2 -->
<g id="edge17" class="edge">
<title>Node12&#45;&gt;Node2</title>
<path fill="none" stroke="#191970" d="M238.7329,-224.2455C253.1354,-215.5731 274.4068,-202.7645 290.9135,-192.825"/>
<polygon fill="#191970" stroke="#191970" points="292.7585,-195.7996 299.5198,-187.6427 289.1476,-189.8028 292.7585,-195.7996"/>
</g>
<!-- Node14&#45;&gt;Node3 -->
<g id="edge28" class="edge">
<title>Node14&#45;&gt;Node3</title>
<path fill="none" stroke="#191970" d="M916.915,-345.859C756.0893,-345.0269 169.1448,-339.3006 96.5336,-300 35.7946,-267.1252 -28.9702,-221.6414 14.5336,-168 34.4728,-143.4143 118.0266,-131.463 175.7009,-126.0404"/>
<polygon fill="#191970" stroke="#191970" points="176.1439,-129.5147 185.7902,-125.1329 175.5168,-122.5429 176.1439,-129.5147"/>
</g>
<!-- Node14&#45;&gt;Node6 -->
<g id="edge66" class="edge">
<title>Node14&#45;&gt;Node6</title>
<path fill="none" stroke="#191970" d="M916.8818,-345.6295C796.9964,-344.1185 451.1462,-336.5977 417.5336,-300 376.7961,-255.6448 408.6185,-176.4482 426.4931,-140.5721"/>
<polygon fill="#191970" stroke="#191970" points="429.6133,-142.1579 431.093,-131.6669 423.394,-138.9454 429.6133,-142.1579"/>
</g>
<!-- Node14&#45;&gt;Node8 -->
<g id="edge67" class="edge">
<title>Node14&#45;&gt;Node8</title>
<path fill="none" stroke="#191970" d="M998.1029,-344.5982C1098.8776,-340.7005 1354.3146,-328.1174 1379.5336,-300 1407.1833,-269.1726 1343.3715,-258.1844 1331.5336,-244 1307.3359,-215.0061 1310.9971,-201.4843 1293.5336,-168 1288.8208,-158.9637 1283.4404,-149.0187 1278.8814,-140.6944"/>
<polygon fill="#191970" stroke="#191970" points="1281.8841,-138.8913 1273.9959,-131.8184 1275.7517,-142.2667 1281.8841,-138.8913"/>
</g>
<!-- Node14&#45;&gt;Node9 -->
<g id="edge58" class="edge">
<title>Node14&#45;&gt;Node9</title>
<path fill="none" stroke="#191970" d="M998.2528,-345.1126C1149.6493,-341.6096 1674.9468,-327.5668 1744.5336,-300 1787.0694,-283.1495 1823.5336,-279.7519 1823.5336,-234 1823.5336,-234 1823.5336,-234 1823.5336,-178 1823.5336,-131.9062 1786.1104,-129.6594 1743.5336,-112 1671.269,-82.0271 1447.1214,-71.2429 1334.5103,-67.6477"/>
<polygon fill="#191970" stroke="#191970" points="1334.4012,-64.1427 1324.2977,-67.3316 1334.1847,-71.1394 1334.4012,-64.1427"/>
</g>
<!-- Node14&#45;&gt;Node11 -->
<g id="edge52" class="edge">
<title>Node14&#45;&gt;Node11</title>
<path fill="none" stroke="#191970" d="M916.9634,-343.1518C818.0488,-336.1711 556.5885,-317.5005 338.5336,-300 324.8332,-298.9004 310.2271,-297.6795 296.1629,-296.4792"/>
<polygon fill="#191970" stroke="#191970" points="296.3011,-292.9783 286.0385,-295.6109 295.7029,-299.9527 296.3011,-292.9783"/>
</g>
<!-- Node15 -->
<g id="node16" class="node">
<title>Node15</title>
<g id="a_node16"><a xlink:title=" ">
<polygon fill="#ffffff" stroke="#bfbfbf" points="1688.5336,-112.5 1688.5336,-131.5 1734.5336,-131.5 1734.5336,-112.5 1688.5336,-112.5"/>
<text text-anchor="middle" x="1711.5336" y="-119.5" font-family="Helvetica,sans-Serif" font-size="10.00" fill="#000000">cstdint</text>
</a>
</g>
</g>
<!-- Node14&#45;&gt;Node15 -->
<g id="edge20" class="edge">
<title>Node14&#45;&gt;Node15</title>
<path fill="none" stroke="#191970" d="M998.27,-344.6793C1151.9476,-339.5508 1689.3705,-320.2359 1719.5336,-300 1749.3012,-280.0294 1752.4311,-259.3576 1746.5336,-224 1741.5237,-193.9642 1728.7516,-160.9209 1720.103,-140.8161"/>
<polygon fill="#191970" stroke="#191970" points="1723.26,-139.3008 1716.0191,-131.5664 1716.8563,-142.1281 1723.26,-139.3008"/>
</g>
<!-- Node16 -->
<g id="node17" class="node">
<title>Node16</title>
<g id="a_node17"><a xlink:href="dji__broadcast_8hpp.html" target="_top" xlink:title="Broadcast Telemetry API for DJI onboardSDK library.">
<polygon fill="#ffffff" stroke="#000000" points="750.0336,-224.5 750.0336,-243.5 843.0336,-243.5 843.0336,-224.5 750.0336,-224.5"/>
<text text-anchor="middle" x="796.5336" y="-231.5" font-family="Helvetica,sans-Serif" font-size="10.00" fill="#000000">dji_broadcast.hpp</text>
</a>
</g>
</g>
<!-- Node14&#45;&gt;Node16 -->
<g id="edge21" class="edge">
<title>Node14&#45;&gt;Node16</title>
<path fill="none" stroke="#191970" d="M916.9691,-337.485C879.9054,-328.9241 828.7706,-314.8921 814.5336,-300 802.7613,-287.686 798.5302,-268.4512 797.0854,-253.9169"/>
<polygon fill="#191970" stroke="#191970" points="800.5766,-253.6671 796.4449,-243.9111 793.5909,-254.1143 800.5766,-253.6671"/>
</g>
<!-- Node17 -->
<g id="node18" class="node">
<title>Node17</title>
<g id="a_node18"><a xlink:href="dji__camera_8hpp.html" target="_top" xlink:title="Camera/Gimbal API for DJI onboardSDK library.">
<polygon fill="#ffffff" stroke="#000000" points="24.0336,-168.5 24.0336,-187.5 107.0336,-187.5 107.0336,-168.5 24.0336,-168.5"/>
<text text-anchor="middle" x="65.5336" y="-175.5" font-family="Helvetica,sans-Serif" font-size="10.00" fill="#000000">dji_camera.hpp</text>
</a>
</g>
</g>
<!-- Node14&#45;&gt;Node17 -->
<g id="edge24" class="edge">
<title>Node14&#45;&gt;Node17</title>
<path fill="none" stroke="#191970" d="M916.8637,-344.9751C763.1125,-340.9245 222.3702,-325.0205 149.5336,-300 108.1417,-285.7813 89.7331,-282.2889 68.5336,-244 60.7301,-229.9059 60.5862,-211.4104 62.0461,-197.5855"/>
<polygon fill="#191970" stroke="#191970" points="65.5132,-198.064 63.4451,-187.673 58.5819,-197.0857 65.5132,-198.064"/>
</g>
<!-- Node18 -->
<g id="node19" class="node">
<title>Node18</title>
<g id="a_node19"><a xlink:title=" ">
<polygon fill="#ffffff" stroke="#bfbfbf" points="534.5336,-280.5 534.5336,-299.5 646.5336,-299.5 646.5336,-280.5 534.5336,-280.5"/>
<text text-anchor="middle" x="590.5336" y="-287.5" font-family="Helvetica,sans-Serif" font-size="10.00" fill="#000000">dji_circular_buffer.hpp</text>
</a>
</g>
</g>
<!-- Node14&#45;&gt;Node18 -->
<g id="edge27" class="edge">
<title>Node14&#45;&gt;Node18</title>
<path fill="none" stroke="#191970" d="M916.9871,-339.8437C860.8864,-331.3214 756.1413,-315.394 656.4889,-300.1446"/>
<polygon fill="#191970" stroke="#191970" points="656.967,-296.6771 646.5526,-298.6237 655.9079,-303.5965 656.967,-296.6771"/>
</g>
<!-- Node19 -->
<g id="node20" class="node">
<title>Node19</title>
<g id="a_node20"><a xlink:href="dji__control_8hpp.html" target="_top" xlink:title="Control API for DJI OSDK library.">
<polygon fill="#ffffff" stroke="#000000" points="856.5336,-280.5 856.5336,-299.5 936.5336,-299.5 936.5336,-280.5 856.5336,-280.5"/>
<text text-anchor="middle" x="896.5336" y="-287.5" font-family="Helvetica,sans-Serif" font-size="10.00" fill="#000000">dji_control.hpp</text>
</a>
</g>
</g>
<!-- Node14&#45;&gt;Node19 -->
<g id="edge29" class="edge">
<title>Node14&#45;&gt;Node19</title>
<path fill="none" stroke="#191970" d="M946.9082,-336.2455C937.9863,-328.0549 925.0455,-316.1749 914.5143,-306.5069"/>
<polygon fill="#191970" stroke="#191970" points="916.7707,-303.8271 907.0372,-299.6427 912.0368,-308.9837 916.7707,-303.8271"/>
</g>
<!-- Node22 -->
<g id="node23" class="node">
<title>Node22</title>
<g id="a_node23"><a xlink:href="dji__version_8hpp.html" target="_top" xlink:title="Drone/SDK Version definition for DJI onboardSDK library.">
<polygon fill="#ffffff" stroke="#000000" points="868.5336,-168.5 868.5336,-187.5 950.5336,-187.5 950.5336,-168.5 868.5336,-168.5"/>
<text text-anchor="middle" x="909.5336" y="-175.5" font-family="Helvetica,sans-Serif" font-size="10.00" fill="#000000">dji_version.hpp</text>
</a>
</g>
</g>
<!-- Node14&#45;&gt;Node22 -->
<g id="edge68" class="edge">
<title>Node14&#45;&gt;Node22</title>
<path fill="none" stroke="#191970" d="M916.8709,-340.3474C892.3228,-334.6102 862.9048,-323.0891 847.5336,-300 835.2437,-281.5394 873.8503,-225.1236 895.6569,-195.9275"/>
<polygon fill="#191970" stroke="#191970" points="898.5569,-197.8957 901.8102,-187.8127 892.9791,-193.6662 898.5569,-197.8957"/>
</g>
<!-- Node24 -->
<g id="node25" class="node">
<title>Node24</title>
<g id="a_node25"><a xlink:href="dji__gimbal_8hpp.html" target="_top" xlink:title="Gimbal API for OSDK library.">
<polygon fill="#ffffff" stroke="#000000" points="125.0336,-168.5 125.0336,-187.5 204.0336,-187.5 204.0336,-168.5 125.0336,-168.5"/>
<text text-anchor="middle" x="164.5336" y="-175.5" font-family="Helvetica,sans-Serif" font-size="10.00" fill="#000000">dji_gimbal.hpp</text>
</a>
</g>
</g>
<!-- Node14&#45;&gt;Node24 -->
<g id="edge42" class="edge">
<title>Node14&#45;&gt;Node24</title>
<path fill="none" stroke="#191970" d="M916.9442,-345.1568C822.7673,-342.6759 582.3429,-333.3225 384.5336,-300 372.3091,-297.9407 176.4133,-253.5702 168.5336,-244 158.0674,-231.2886 158.074,-212.1017 160.1031,-197.6864"/>
<polygon fill="#191970" stroke="#191970" points="163.5589,-198.2448 161.9092,-187.7792 156.6724,-196.9894 163.5589,-198.2448"/>
</g>
<!-- Node25 -->
<g id="node26" class="node">
<title>Node25</title>
<g id="a_node26"><a xlink:title=" ">
<polygon fill="#ffffff" stroke="#bfbfbf" points="664.5336,-280.5 664.5336,-299.5 762.5336,-299.5 762.5336,-280.5 664.5336,-280.5"/>
<text text-anchor="middle" x="713.5336" y="-287.5" font-family="Helvetica,sans-Serif" font-size="10.00" fill="#000000">dji_hard_driver.hpp</text>
</a>
</g>
</g>
<!-- Node14&#45;&gt;Node25 -->
<g id="edge45" class="edge">
<title>Node14&#45;&gt;Node25</title>
<path fill="none" stroke="#191970" d="M916.968,-336.6899C875.2672,-327.1192 810.2055,-312.187 764.9278,-301.7954"/>
<polygon fill="#191970" stroke="#191970" points="765.5424,-298.3455 755.0128,-299.5198 763.9765,-305.1681 765.5424,-298.3455"/>
</g>
<!-- Node26 -->
<g id="node27" class="node">
<title>Node26</title>
<g id="a_node27"><a xlink:href="dji__hardware__sync_8hpp.html" target="_top" xlink:title="Hardware Sync API for DJI OSDK.">
<polygon fill="#ffffff" stroke="#000000" points="1454.5336,-168.5 1454.5336,-187.5 1570.5336,-187.5 1570.5336,-168.5 1454.5336,-168.5"/>
<text text-anchor="middle" x="1512.5336" y="-175.5" font-family="Helvetica,sans-Serif" font-size="10.00" fill="#000000">dji_hardware_sync.hpp</text>
</a>
</g>
</g>
<!-- Node14&#45;&gt;Node26 -->
<g id="edge46" class="edge">
<title>Node14&#45;&gt;Node26</title>
<path fill="none" stroke="#191970" d="M998.2817,-345.5773C1143.6995,-343.7795 1631.668,-335.1586 1691.5336,-300 1723.7622,-281.0724 1751.0354,-253.062 1727.5336,-224 1709.2593,-201.4023 1636.6568,-189.4125 1580.8219,-183.4063"/>
<polygon fill="#191970" stroke="#191970" points="1580.9146,-179.8974 1570.6083,-182.3532 1580.1966,-186.8604 1580.9146,-179.8974"/>
</g>
<!-- Node28 -->
<g id="node29" class="node">
<title>Node28</title>
<g id="a_node29"><a xlink:href="dji__mfio_8hpp.html" target="_top" xlink:title="MFIO API for DJI OSDK library.">
<polygon fill="#ffffff" stroke="#000000" points="1341.0336,-224.5 1341.0336,-243.5 1410.0336,-243.5 1410.0336,-224.5 1341.0336,-224.5"/>
<text text-anchor="middle" x="1375.5336" y="-231.5" font-family="Helvetica,sans-Serif" font-size="10.00" fill="#000000">dji_mfio.hpp</text>
</a>
</g>
</g>
<!-- Node14&#45;&gt;Node28 -->
<g id="edge50" class="edge">
<title>Node14&#45;&gt;Node28</title>
<path fill="none" stroke="#191970" d="M998.0892,-345.1425C1108.0182,-342.4017 1405.4128,-332.0641 1434.5336,-300 1450.4265,-282.5007 1425.9243,-262.2045 1403.8299,-248.7891"/>
<polygon fill="#191970" stroke="#191970" points="1405.3571,-245.6294 1394.9467,-243.6612 1401.8575,-251.6918 1405.3571,-245.6294"/>
</g>
<!-- Node29 -->
<g id="node30" class="node">
<title>Node29</title>
<g id="a_node30"><a xlink:href="dji__mobile__communication_8hpp.html" target="_top" xlink:title="Implementation of DJI Mobile&#45;Onboard SDK Communication (MOC)">
<polygon fill="#ffffff" stroke="#000000" points="1532.5336,-280.5 1532.5336,-299.5 1682.5336,-299.5 1682.5336,-280.5 1532.5336,-280.5"/>
<text text-anchor="middle" x="1607.5336" y="-287.5" font-family="Helvetica,sans-Serif" font-size="10.00" fill="#000000">dji_mobile_communication.hpp</text>
</a>
</g>
</g>
<!-- Node14&#45;&gt;Node29 -->
<g id="edge53" class="edge">
<title>Node14&#45;&gt;Node29</title>
<path fill="none" stroke="#191970" d="M998.1446,-342.8979C1089.6501,-335.8477 1318.9265,-317.8441 1510.5336,-300 1514.4053,-299.6394 1518.3632,-299.2631 1522.3605,-298.8766"/>
<polygon fill="#191970" stroke="#191970" points="1522.74,-302.3563 1532.3514,-297.8986 1522.058,-295.3896 1522.74,-302.3563"/>
</g>
<!-- Node31 -->
<g id="node32" class="node">
<title>Node31</title>
<g id="a_node32"><a xlink:href="dji__mobile__device_8hpp.html" target="_top" xlink:title="Implementation of DJI Mobile Device Abstraction.">
<polygon fill="#ffffff" stroke="#000000" points="1428.0336,-224.5 1428.0336,-243.5 1541.0336,-243.5 1541.0336,-224.5 1428.0336,-224.5"/>
<text text-anchor="middle" x="1484.5336" y="-231.5" font-family="Helvetica,sans-Serif" font-size="10.00" fill="#000000">dji_mobile_device.hpp</text>
</a>
</g>
</g>
<!-- Node14&#45;&gt;Node31 -->
<g id="edge56" class="edge">
<title>Node14&#45;&gt;Node31</title>
<path fill="none" stroke="#191970" d="M998.4168,-344.455C1110.0955,-339.921 1414.4778,-325.3512 1451.5336,-300 1467.1886,-289.2899 1475.7737,-268.8908 1480.2302,-253.5931"/>
<polygon fill="#191970" stroke="#191970" points="1483.7073,-254.1219 1482.7875,-243.567 1476.9245,-252.3917 1483.7073,-254.1219"/>
</g>
<!-- Node32 -->
<g id="node33" class="node">
<title>Node32</title>
<g id="a_node33"><a xlink:title=" ">
<polygon fill="#ffffff" stroke="#bfbfbf" points="954.5336,-280.5 954.5336,-299.5 1082.5336,-299.5 1082.5336,-280.5 954.5336,-280.5"/>
<text text-anchor="middle" x="1018.5336" y="-287.5" font-family="Helvetica,sans-Serif" font-size="10.00" fill="#000000">dji_platform_manager.hpp</text>
</a>
</g>
</g>
<!-- Node14&#45;&gt;Node32 -->
<g id="edge59" class="edge">
<title>Node14&#45;&gt;Node32</title>
<path fill="none" stroke="#191970" d="M968.159,-336.2455C977.0809,-328.0549 990.0216,-316.1749 1000.5528,-306.5069"/>
<polygon fill="#191970" stroke="#191970" points="1003.0304,-308.9837 1008.0299,-299.6427 998.2964,-303.8271 1003.0304,-308.9837"/>
</g>
<!-- Node33 -->
<g id="node34" class="node">
<title>Node33</title>
<g id="a_node34"><a xlink:href="dji__status_8hpp.html" target="_top" xlink:title="Status information for DJI Vehicle.">
<polygon fill="#ffffff" stroke="#000000" points="1101.0336,-280.5 1101.0336,-299.5 1178.0336,-299.5 1178.0336,-280.5 1101.0336,-280.5"/>
<text text-anchor="middle" x="1139.5336" y="-287.5" font-family="Helvetica,sans-Serif" font-size="10.00" fill="#000000">dji_status.hpp</text>
</a>
</g>
</g>
<!-- Node14&#45;&gt;Node33 -->
<g id="edge60" class="edge">
<title>Node14&#45;&gt;Node33</title>
<path fill="none" stroke="#191970" d="M988.8205,-336.3733C1019.2153,-327.021 1065.5229,-312.7725 1098.7836,-302.5385"/>
<polygon fill="#191970" stroke="#191970" points="1100.1265,-305.7873 1108.6549,-299.5011 1098.0678,-299.0968 1100.1265,-305.7873"/>
</g>
<!-- Node34 -->
<g id="node35" class="node">
<title>Node34</title>
<g id="a_node35"><a xlink:href="dji__subscription_8hpp.html" target="_top" xlink:title="Telemetry Subscription API for DJI OSDK library.">
<polygon fill="#ffffff" stroke="#000000" points="1007.0336,-224.5 1007.0336,-243.5 1110.0336,-243.5 1110.0336,-224.5 1007.0336,-224.5"/>
<text text-anchor="middle" x="1058.5336" y="-231.5" font-family="Helvetica,sans-Serif" font-size="10.00" fill="#000000">dji_subscription.hpp</text>
</a>
</g>
</g>
<!-- Node14&#45;&gt;Node34 -->
<g id="edge61" class="edge">
<title>Node14&#45;&gt;Node34</title>
<path fill="none" stroke="#191970" d="M998.5031,-343.8133C1057.8524,-339.6921 1163.2146,-328.4689 1186.5336,-300 1209.9772,-271.3788 1163.553,-253.7938 1120.1985,-244.0492"/>
<polygon fill="#191970" stroke="#191970" points="1120.6669,-240.5706 1110.1575,-241.9132 1119.2104,-247.4174 1120.6669,-240.5706"/>
</g>
<!-- Node35 -->
<g id="node36" class="node">
<title>Node35</title>
<g id="a_node36"><a xlink:title=" ">
<polygon fill="#ffffff" stroke="#bfbfbf" points="1234.5336,-280.5 1234.5336,-299.5 1354.5336,-299.5 1354.5336,-280.5 1234.5336,-280.5"/>
<text text-anchor="middle" x="1294.5336" y="-287.5" font-family="Helvetica,sans-Serif" font-size="10.00" fill="#000000">dji_thread_manager.hpp</text>
</a>
</g>
</g>
<!-- Node14&#45;&gt;Node35 -->
<g id="edge65" class="edge">
<title>Node14&#45;&gt;Node35</title>
<path fill="none" stroke="#191970" d="M998.1837,-339.2451C1054.8817,-329.8235 1158.4307,-312.6165 1226.8708,-301.2437"/>
<polygon fill="#191970" stroke="#191970" points="1227.8313,-304.6321 1237.1223,-299.5402 1226.6838,-297.7268 1227.8313,-304.6321"/>
</g>
<!-- Node36 -->
<g id="node37" class="node">
<title>Node36</title>
<g id="a_node37"><a xlink:href="dji__virtual__rc_8hpp.html" target="_top" xlink:title="Virtual Radio Control API for DJI onboardSDK library.">
<polygon fill="#ffffff" stroke="#000000" points="426.5336,-280.5 426.5336,-299.5 516.5336,-299.5 516.5336,-280.5 426.5336,-280.5"/>
<text text-anchor="middle" x="471.5336" y="-287.5" font-family="Helvetica,sans-Serif" font-size="10.00" fill="#000000">dji_virtual_rc.hpp</text>
</a>
</g>
</g>
<!-- Node14&#45;&gt;Node36 -->
<g id="edge69" class="edge">
<title>Node14&#45;&gt;Node36</title>
<path fill="none" stroke="#191970" d="M916.9029,-342.725C841.9081,-336.4525 676.4859,-321.5558 526.8594,-300.0981"/>
<polygon fill="#191970" stroke="#191970" points="526.9701,-296.5777 516.5718,-298.6086 525.967,-303.5055 526.9701,-296.5777"/>
</g>
<!-- Node37 -->
<g id="node38" class="node">
<title>Node37</title>
<g id="a_node38"><a xlink:href="dji__payload__device_8hpp.html" target="_top" xlink:title="Implementation of DJI Payload Device Abstraction.">
<polygon fill="#ffffff" stroke="#000000" points="1166.5336,-168.5 1166.5336,-187.5 1284.5336,-187.5 1284.5336,-168.5 1166.5336,-168.5"/>
<text text-anchor="middle" x="1225.5336" y="-175.5" font-family="Helvetica,sans-Serif" font-size="10.00" fill="#000000">dji_payload_device.hpp</text>
</a>
</g>
</g>
<!-- Node14&#45;&gt;Node37 -->
<g id="edge74" class="edge">
<title>Node14&#45;&gt;Node37</title>
<path fill="none" stroke="#191970" d="M998.3605,-344.4015C1096.526,-340.14 1339.4644,-326.9502 1363.5336,-300 1369.4546,-293.3702 1368.0464,-287.6581 1363.5336,-280 1346.7677,-251.5487 1325.4025,-263.1997 1298.5336,-244 1277.6557,-229.0814 1256.1494,-208.9514 1241.9379,-194.8594"/>
<polygon fill="#191970" stroke="#191970" points="1244.3758,-192.3474 1234.8433,-187.7232 1239.4116,-197.2826 1244.3758,-192.3474"/>
</g>
<!-- Node16&#45;&gt;Node8 -->
<g id="edge23" class="edge">
<title>Node16&#45;&gt;Node8</title>
<path fill="none" stroke="#191970" d="M802.484,-224.3472C812.2993,-209.379 833.4209,-180.948 859.5336,-168 917.1698,-139.4209 1096.0769,-128.2875 1197.1399,-124.1973"/>
<polygon fill="#191970" stroke="#191970" points="1197.4137,-127.6893 1207.2689,-123.8003 1197.1395,-120.6947 1197.4137,-127.6893"/>
</g>
<!-- Node16&#45;&gt;Node10 -->
<g id="edge22" class="edge">
<title>Node16&#45;&gt;Node10</title>
<path fill="none" stroke="#191970" d="M749.9462,-224.878C699.6854,-215.0367 619.6813,-199.3716 566.1585,-188.8916"/>
<polygon fill="#191970" stroke="#191970" points="566.6412,-185.4197 556.155,-186.9329 565.2961,-192.2893 566.6412,-185.4197"/>
</g>
<!-- Node17&#45;&gt;Node3 -->
<g id="edge25" class="edge">
<title>Node17&#45;&gt;Node3</title>
<path fill="none" stroke="#191970" d="M94.2419,-168.3733C121.8912,-159.1016 163.8911,-145.0178 194.3501,-134.804"/>
<polygon fill="#191970" stroke="#191970" points="195.8315,-137.9989 204.1999,-131.5011 193.6059,-131.3621 195.8315,-137.9989"/>
</g>
<!-- Node17&#45;&gt;Node6 -->
<g id="edge26" class="edge">
<title>Node17&#45;&gt;Node6</title>
<path fill="none" stroke="#191970" d="M107.2435,-169.4795C110.0459,-168.9621 112.8288,-168.4639 115.5336,-168 213.622,-151.1762 329.3052,-135.6531 391.5136,-127.6563"/>
<polygon fill="#191970" stroke="#191970" points="392.2846,-131.0862 401.7594,-126.3451 391.396,-124.1428 392.2846,-131.0862"/>
</g>
<!-- Node19&#45;&gt;Node6 -->
<g id="edge40" class="edge">
<title>Node19&#45;&gt;Node6</title>
<path fill="none" stroke="#191970" d="M908.4892,-280.4187C934.6016,-258.3917 991.8957,-203.3335 959.5336,-168 927.4923,-133.0168 601.6963,-124.5107 481.1049,-122.5536"/>
<polygon fill="#191970" stroke="#191970" points="481.1491,-119.0539 471.096,-122.3986 481.0406,-126.0531 481.1491,-119.0539"/>
</g>
<!-- Node19&#45;&gt;Node8 -->
<g id="edge41" class="edge">
<title>Node19&#45;&gt;Node8</title>
<path fill="none" stroke="#191970" d="M936.5343,-281.8233C1000.2148,-268.791 1117.6208,-244.6946 1118.5336,-244 1148.7459,-221.0088 1129.6198,-193.7333 1157.5336,-168 1174.415,-152.4373 1197.2995,-141.7536 1217.9042,-134.6302"/>
<polygon fill="#191970" stroke="#191970" points="1219.0648,-137.9332 1227.4894,-131.5084 1216.8971,-131.2773 1219.0648,-137.9332"/>
</g>
<!-- Node19&#45;&gt;Node9 -->
<g id="edge39" class="edge">
<title>Node19&#45;&gt;Node9</title>
<path fill="none" stroke="#191970" d="M936.567,-281.3485C939.5929,-280.8423 942.6067,-280.3839 945.5336,-280 1012.1928,-271.2564 1492.9056,-280.2377 1549.5336,-244 1599.0392,-212.3201 1590.9915,-143.7543 1541.5336,-112 1508.0438,-90.498 1403.6392,-77.5653 1334.0835,-71.113"/>
<polygon fill="#191970" stroke="#191970" points="1334.3615,-67.624 1324.0866,-70.2078 1333.7302,-74.5954 1334.3615,-67.624"/>
</g>
<!-- Node20 -->
<g id="node21" class="node">
<title>Node20</title>
<g id="a_node21"><a xlink:href="dji__ack_8hpp.html" target="_top" xlink:title="All DJI OSDK ACK parsing.">
<polygon fill="#ffffff" stroke="#000000" points="627.5336,-224.5 627.5336,-243.5 693.5336,-243.5 693.5336,-224.5 627.5336,-224.5"/>
<text text-anchor="middle" x="660.5336" y="-231.5" font-family="Helvetica,sans-Serif" font-size="10.00" fill="#000000">dji_ack.hpp</text>
</a>
</g>
</g>
<!-- Node19&#45;&gt;Node20 -->
<g id="edge30" class="edge">
<title>Node19&#45;&gt;Node20</title>
<path fill="none" stroke="#191970" d="M856.4994,-280.5004C814.042,-270.4257 747.2098,-254.5672 703.6246,-244.225"/>
<polygon fill="#191970" stroke="#191970" points="704.423,-240.8173 693.8851,-241.9139 702.8068,-247.6282 704.423,-240.8173"/>
</g>
<!-- Node20&#45;&gt;Node3 -->
<g id="edge31" class="edge">
<title>Node20&#45;&gt;Node3</title>
<path fill="none" stroke="#191970" d="M627.4533,-232.3709C535.2234,-227.5414 280.0931,-212.1163 251.5336,-188 238.321,-176.843 233.9809,-157.1445 232.7009,-142.1634"/>
<polygon fill="#191970" stroke="#191970" points="236.182,-141.6735 232.2223,-131.8465 229.1895,-141.9979 236.182,-141.6735"/>
</g>
<!-- Node20&#45;&gt;Node6 -->
<g id="edge34" class="edge">
<title>Node20&#45;&gt;Node6</title>
<path fill="none" stroke="#191970" d="M648.7406,-224.3938C631.2309,-210.4892 596.9316,-184.6059 564.5336,-168 537.5412,-154.1648 505.4109,-142.6325 480.0942,-134.5752"/>
<polygon fill="#191970" stroke="#191970" points="480.989,-131.1881 470.4005,-131.553 478.9055,-137.8708 480.989,-131.1881"/>
</g>
<!-- Node21 -->
<g id="node22" class="node">
<title>Node21</title>
<g id="a_node22"><a xlink:href="dji__mission__type_8hpp.html" target="_top" xlink:title="Mission related data struct for DJI OSDK library.">
<polygon fill="#ffffff" stroke="#000000" points="612.5336,-168.5 612.5336,-187.5 720.5336,-187.5 720.5336,-168.5 612.5336,-168.5"/>
<text text-anchor="middle" x="666.5336" y="-175.5" font-family="Helvetica,sans-Serif" font-size="10.00" fill="#000000">dji_mission_type.hpp</text>
</a>
</g>
</g>
<!-- Node20&#45;&gt;Node21 -->
<g id="edge32" class="edge">
<title>Node20&#45;&gt;Node21</title>
<path fill="none" stroke="#191970" d="M661.5787,-224.2455C662.3616,-216.9382 663.4592,-206.6944 664.4224,-197.7046"/>
<polygon fill="#191970" stroke="#191970" points="667.9151,-197.9587 665.5004,-187.6427 660.9549,-197.2129 667.9151,-197.9587"/>
</g>
<!-- Node20&#45;&gt;Node22 -->
<g id="edge35" class="edge">
<title>Node20&#45;&gt;Node22</title>
<path fill="none" stroke="#191970" d="M693.5989,-226.5636C735.8025,-217.0721 809.2473,-200.5543 858.6161,-189.4513"/>
<polygon fill="#191970" stroke="#191970" points="859.4705,-192.8467 868.4588,-187.2377 857.9345,-186.0173 859.4705,-192.8467"/>
</g>
<!-- Node23 -->
<g id="node24" class="node">
<title>Node23</title>
<g id="a_node24"><a xlink:title=" ">
<polygon fill="#ffffff" stroke="#bfbfbf" points="739.0336,-168.5 739.0336,-187.5 774.0336,-187.5 774.0336,-168.5 739.0336,-168.5"/>
<text text-anchor="middle" x="756.5336" y="-175.5" font-family="Helvetica,sans-Serif" font-size="10.00" fill="#000000">map</text>
</a>
</g>
</g>
<!-- Node20&#45;&gt;Node23 -->
<g id="edge38" class="edge">
<title>Node20&#45;&gt;Node23</title>
<path fill="none" stroke="#191970" d="M677.2555,-224.2455C692.1225,-215.5731 714.0801,-202.7645 731.1193,-192.825"/>
<polygon fill="#191970" stroke="#191970" points="733.129,-195.7047 740.0033,-187.6427 729.6019,-189.6582 733.129,-195.7047"/>
</g>
<!-- Node21&#45;&gt;Node6 -->
<g id="edge33" class="edge">
<title>Node21&#45;&gt;Node6</title>
<path fill="none" stroke="#191970" d="M627.2565,-168.4369C586.6338,-158.5461 523.3184,-143.1302 480.9108,-132.8049"/>
<polygon fill="#191970" stroke="#191970" points="481.6812,-129.3903 471.1371,-130.4252 480.0252,-136.1916 481.6812,-129.3903"/>
</g>
<!-- Node22&#45;&gt;Node3 -->
<g id="edge36" class="edge">
<title>Node22&#45;&gt;Node3</title>
<path fill="none" stroke="#191970" d="M868.4564,-174.6022C752.4461,-165.0061 422.1425,-137.684 289.093,-126.6785"/>
<polygon fill="#191970" stroke="#191970" points="289.3578,-123.1885 279.1033,-125.8521 288.7807,-130.1647 289.3578,-123.1885"/>
</g>
<!-- Node22&#45;&gt;Node15 -->
<g id="edge37" class="edge">
<title>Node22&#45;&gt;Node15</title>
<path fill="none" stroke="#191970" d="M950.6852,-175.1266C1091.2062,-165.3146 1550.4188,-133.2499 1678.2449,-124.3244"/>
<polygon fill="#191970" stroke="#191970" points="1678.4934,-127.8157 1688.2253,-123.6275 1678.0057,-120.8327 1678.4934,-127.8157"/>
</g>
<!-- Node24&#45;&gt;Node3 -->
<g id="edge43" class="edge">
<title>Node24&#45;&gt;Node3</title>
<path fill="none" stroke="#191970" d="M176.3783,-168.2455C186.4215,-159.9746 201.033,-147.9416 212.834,-138.2232"/>
<polygon fill="#191970" stroke="#191970" points="215.3303,-140.7015 220.8246,-131.6427 210.8803,-135.298 215.3303,-140.7015"/>
</g>
<!-- Node24&#45;&gt;Node6 -->
<g id="edge44" class="edge">
<title>Node24&#45;&gt;Node6</title>
<path fill="none" stroke="#191970" d="M204.0847,-169.8571C253.9504,-159.5907 339.4577,-141.9862 391.6995,-131.2305"/>
<polygon fill="#191970" stroke="#191970" points="392.5952,-134.6196 401.6839,-129.1749 391.1835,-127.7634 392.5952,-134.6196"/>
</g>
<!-- Node26&#45;&gt;Node6 -->
<g id="edge47" class="edge">
<title>Node26&#45;&gt;Node6</title>
<path fill="none" stroke="#191970" d="M1454.3016,-174.9693C1262.3062,-164.977 651.8165,-133.2043 481.2074,-124.325"/>
<polygon fill="#191970" stroke="#191970" points="481.246,-120.8224 471.0776,-123.7978 480.8821,-127.8129 481.246,-120.8224"/>
</g>
<!-- Node26&#45;&gt;Node8 -->
<g id="edge48" class="edge">
<title>Node26&#45;&gt;Node8</title>
<path fill="none" stroke="#191970" d="M1470.8657,-168.4369C1429.107,-158.8529 1364.7445,-144.0812 1319.8608,-133.78"/>
<polygon fill="#191970" stroke="#191970" points="1320.5591,-130.3494 1310.0296,-131.5237 1318.9932,-137.172 1320.5591,-130.3494"/>
</g>
<!-- Node27 -->
<g id="node28" class="node">
<title>Node27</title>
<g id="a_node28"><a xlink:title=" ">
<polygon fill="#ffffff" stroke="#bfbfbf" points="1492.0336,-112.5 1492.0336,-131.5 1533.0336,-131.5 1533.0336,-112.5 1492.0336,-112.5"/>
<text text-anchor="middle" x="1512.5336" y="-119.5" font-family="Helvetica,sans-Serif" font-size="10.00" fill="#000000">string</text>
</a>
</g>
</g>
<!-- Node26&#45;&gt;Node27 -->
<g id="edge49" class="edge">
<title>Node26&#45;&gt;Node27</title>
<path fill="none" stroke="#191970" d="M1512.5336,-168.2455C1512.5336,-160.9382 1512.5336,-150.6944 1512.5336,-141.7046"/>
<polygon fill="#191970" stroke="#191970" points="1516.0337,-141.6426 1512.5336,-131.6427 1509.0337,-141.6427 1516.0337,-141.6426"/>
</g>
<!-- Node28&#45;&gt;Node8 -->
<g id="edge51" class="edge">
<title>Node28&#45;&gt;Node8</title>
<path fill="none" stroke="#191970" d="M1369.581,-224.4341C1360.9929,-211.0272 1344.2071,-186.2463 1326.5336,-168 1315.703,-156.8185 1302.1371,-145.9201 1290.8488,-137.54"/>
<polygon fill="#191970" stroke="#191970" points="1292.8931,-134.6991 1282.7436,-131.6597 1288.7825,-140.3651 1292.8931,-134.6991"/>
</g>
<!-- Node29&#45;&gt;Node8 -->
<g id="edge55" class="edge">
<title>Node29&#45;&gt;Node8</title>
<path fill="none" stroke="#191970" d="M1601.2596,-280.0514C1591.7406,-265.7204 1572.3255,-239.3112 1549.5336,-224 1508.9315,-196.7243 1491.5632,-204.5459 1445.5336,-188 1395.8834,-170.1527 1338.7364,-148.6725 1303.1222,-135.1735"/>
<polygon fill="#191970" stroke="#191970" points="1304.2635,-131.8631 1293.6723,-131.5873 1301.7799,-138.4077 1304.2635,-131.8631"/>
</g>
<!-- Node30 -->
<g id="node31" class="node">
<title>Node30</title>
<g id="a_node31"><a xlink:title=" ">
<polygon fill="#ffffff" stroke="#bfbfbf" points="1636.0336,-224.5 1636.0336,-243.5 1719.0336,-243.5 1719.0336,-224.5 1636.0336,-224.5"/>
<text text-anchor="middle" x="1677.5336" y="-231.5" font-family="Helvetica,sans-Serif" font-size="10.00" fill="#000000">dji_macros.hpp</text>
</a>
</g>
</g>
<!-- Node29&#45;&gt;Node30 -->
<g id="edge54" class="edge">
<title>Node29&#45;&gt;Node30</title>
<path fill="none" stroke="#191970" d="M1619.7266,-280.2455C1630.1657,-271.8943 1645.399,-259.7076 1657.6076,-249.9408"/>
<polygon fill="#191970" stroke="#191970" points="1659.858,-252.6227 1665.4802,-243.6427 1655.4851,-247.1566 1659.858,-252.6227"/>
</g>
<!-- Node31&#45;&gt;Node8 -->
<g id="edge57" class="edge">
<title>Node31&#45;&gt;Node8</title>
<path fill="none" stroke="#191970" d="M1466.1175,-224.4509C1428.0987,-204.7375 1340.7519,-159.4465 1296.0241,-136.2543"/>
<polygon fill="#191970" stroke="#191970" points="1297.3917,-133.021 1286.903,-131.5249 1294.1694,-139.2353 1297.3917,-133.021"/>
</g>
<!-- Node34&#45;&gt;Node8 -->
<g id="edge64" class="edge">
<title>Node34&#45;&gt;Node8</title>
<path fill="none" stroke="#191970" d="M1065.5766,-224.491C1076.6153,-210.2311 1099.3492,-183.3472 1124.5336,-168 1150.4815,-152.1875 1182.4134,-141.2688 1209.609,-134.0517"/>
<polygon fill="#191970" stroke="#191970" points="1210.5683,-137.4192 1219.3943,-131.5581 1208.8396,-130.636 1210.5683,-137.4192"/>
</g>
<!-- Node34&#45;&gt;Node9 -->
<g id="edge62" class="edge">
<title>Node34&#45;&gt;Node9</title>
<path fill="none" stroke="#191970" d="M1062.1716,-224.4812C1067.8195,-210.6855 1079.8136,-184.9366 1096.5336,-168 1137.0584,-126.9502 1197.4332,-96.2189 1234.8206,-79.704"/>
<polygon fill="#191970" stroke="#191970" points="1236.4737,-82.8024 1244.2624,-75.6199 1233.6946,-76.3777 1236.4737,-82.8024"/>
</g>
<!-- Node34&#45;&gt;Node10 -->
<g id="edge63" class="edge">
<title>Node34&#45;&gt;Node10</title>
<path fill="none" stroke="#191970" d="M1007.005,-228.8982C922.6496,-220.5221 749.8204,-203.2594 603.5336,-188 591.5463,-186.7496 578.6928,-185.3837 566.483,-184.0744"/>
<polygon fill="#191970" stroke="#191970" points="566.7281,-180.5806 556.4112,-182.9916 565.9798,-187.5405 566.7281,-180.5806"/>
</g>
<!-- Node36&#45;&gt;Node6 -->
<g id="edge72" class="edge">
<title>Node36&#45;&gt;Node6</title>
<path fill="none" stroke="#191970" d="M469.5515,-280.4862C463.9949,-253.8144 448.1819,-177.9117 440.6367,-141.695"/>
<polygon fill="#191970" stroke="#191970" points="444.0471,-140.9038 438.5811,-131.8279 437.1942,-142.3316 444.0471,-140.9038"/>
</g>
<!-- Node36&#45;&gt;Node9 -->
<g id="edge71" class="edge">
<title>Node36&#45;&gt;Node9</title>
<path fill="none" stroke="#191970" d="M516.6379,-281.428C581.3811,-269.0644 693.8771,-247.3367 702.5336,-244 733.2223,-232.1707 799.0364,-180.3148 829.5336,-168 956.552,-116.7099 1115.1498,-87.8685 1202.733,-74.7588"/>
<polygon fill="#191970" stroke="#191970" points="1203.4134,-78.1964 1212.7959,-73.2752 1202.3923,-71.2713 1203.4134,-78.1964"/>
</g>
<!-- Node36&#45;&gt;Node10 -->
<g id="edge73" class="edge">
<title>Node36&#45;&gt;Node10</title>
<path fill="none" stroke="#191970" d="M474.8587,-280.4509C481.2771,-262.0186 495.4819,-221.2254 503.9025,-197.043"/>
<polygon fill="#191970" stroke="#191970" points="507.2337,-198.1197 507.2169,-187.5249 500.623,-195.8177 507.2337,-198.1197"/>
</g>
<!-- Node36&#45;&gt;Node20 -->
<g id="edge70" class="edge">
<title>Node36&#45;&gt;Node20</title>
<path fill="none" stroke="#191970" d="M504.0238,-280.3733C535.7238,-270.9807 584.0912,-256.6496 618.6621,-246.4064"/>
<polygon fill="#191970" stroke="#191970" points="619.8736,-249.6979 628.4673,-243.5011 617.885,-242.9863 619.8736,-249.6979"/>
</g>
<!-- Node37&#45;&gt;Node8 -->
<g id="edge75" class="edge">
<title>Node37&#45;&gt;Node8</title>
<path fill="none" stroke="#191970" d="M1233.0236,-168.2455C1239.0662,-160.3761 1247.7239,-149.101 1254.9777,-139.6542"/>
<polygon fill="#191970" stroke="#191970" points="1257.8151,-141.7058 1261.1294,-131.6427 1252.263,-137.4426 1257.8151,-141.7058"/>
</g>
</g>
</svg>
