<?xml version="1.0" encoding="UTF-8" standalone="no"?>
<!DOCTYPE svg PUBLIC "-//W3C//DTD SVG 1.1//EN"
 "http://www.w3.org/Graphics/SVG/1.1/DTD/svg11.dtd">
<!-- Generated by graphviz version 2.40.1 (20161225.0304)
 -->
<!-- Title: osdk&#45;core/advanced&#45;sensing/api/inc/dji_liveview.hpp Pages: 1 -->
<svg width="186pt" height="106pt"
 viewBox="0.00 0.00 186.00 106.00" xmlns="http://www.w3.org/2000/svg" xmlns:xlink="http://www.w3.org/1999/xlink">
<g id="graph0" class="graph" transform="scale(1 1) rotate(0) translate(4 102)">
<title>osdk&#45;core/advanced&#45;sensing/api/inc/dji_liveview.hpp</title>
<polygon fill="#ffffff" stroke="transparent" points="-4,4 -4,-102 182,-102 182,4 -4,4"/>
<!-- Node0 -->
<g id="node1" class="node">
<title>Node0</title>
<g id="a_node1"><a xlink:title="Camera liveview API of OSDK.">
<polygon fill="#bfbfbf" stroke="#000000" points="20,-56.5 20,-97.5 124,-97.5 124,-56.5 20,-56.5"/>
<text text-anchor="start" x="28" y="-85.5" font-family="Helvetica,sans-Serif" font-size="10.00" fill="#000000">osdk&#45;core/advanced</text>
<text text-anchor="start" x="28" y="-74.5" font-family="Helvetica,sans-Serif" font-size="10.00" fill="#000000">&#45;sensing/api/inc/dji</text>
<text text-anchor="middle" x="72" y="-63.5" font-family="Helvetica,sans-Serif" font-size="10.00" fill="#000000">_liveview.hpp</text>
</a>
</g>
</g>
<!-- Node1 -->
<g id="node2" class="node">
<title>Node1</title>
<g id="a_node2"><a xlink:title=" ">
<polygon fill="#ffffff" stroke="#bfbfbf" points="0,-.5 0,-19.5 46,-19.5 46,-.5 0,-.5"/>
<text text-anchor="middle" x="23" y="-7.5" font-family="Helvetica,sans-Serif" font-size="10.00" fill="#000000">cstring</text>
</a>
</g>
</g>
<!-- Node0&#45;&gt;Node1 -->
<g id="edge1" class="edge">
<title>Node0&#45;&gt;Node1</title>
<path fill="none" stroke="#191970" d="M56.7647,-56.168C50.1758,-47.1587 42.5385,-36.7159 36.1958,-28.0432"/>
<polygon fill="#191970" stroke="#191970" points="38.8812,-25.7861 30.1529,-19.7805 33.231,-29.9183 38.8812,-25.7861"/>
</g>
<!-- Node2 -->
<g id="node3" class="node">
<title>Node2</title>
<g id="a_node3"><a xlink:title=" ">
<polygon fill="#ffffff" stroke="#bfbfbf" points="64,-.5 64,-19.5 178,-19.5 178,-.5 64,-.5"/>
<text text-anchor="middle" x="121" y="-7.5" font-family="Helvetica,sans-Serif" font-size="10.00" fill="#000000">dji_camera_image.hpp</text>
</a>
</g>
</g>
<!-- Node0&#45;&gt;Node2 -->
<g id="edge2" class="edge">
<title>Node0&#45;&gt;Node2</title>
<path fill="none" stroke="#191970" d="M87.2353,-56.168C93.8242,-47.1587 101.4615,-36.7159 107.8042,-28.0432"/>
<polygon fill="#191970" stroke="#191970" points="110.769,-29.9183 113.8471,-19.7805 105.1188,-25.7861 110.769,-29.9183"/>
</g>
</g>
</svg>
