<?xml version="1.0" encoding="UTF-8" standalone="no"?>
<!DOCTYPE svg PUBLIC "-//W3C//DTD SVG 1.1//EN"
 "http://www.w3.org/Graphics/SVG/1.1/DTD/svg11.dtd">
<!-- Generated by graphviz version 2.38.0 (20140413.2041)
 -->
<!-- Title: osdk&#45;core/api/src/dji_gimbal.cpp Pages: 1 -->
<svg width="1594pt" height="431pt"
 viewBox="0.00 0.00 1594.00 431.00" xmlns="http://www.w3.org/2000/svg" xmlns:xlink="http://www.w3.org/1999/xlink">
<g id="graph0" class="graph" transform="scale(1 1) rotate(0) translate(4 427)">
<title>osdk&#45;core/api/src/dji_gimbal.cpp</title>
<polygon fill="white" stroke="none" points="-4,4 -4,-427 1590,-427 1590,4 -4,4"/>
<!-- Node1 -->
<g id="node1" class="node"><title>Node1</title>
<polygon fill="#bfbfbf" stroke="black" points="443,-392.5 443,-422.5 547,-422.5 547,-392.5 443,-392.5"/>
<text text-anchor="start" x="451" y="-410.5" font-family="Helvetica,sans-Serif" font-size="10.00">osdk&#45;core/api/src/dji</text>
<text text-anchor="middle" x="495" y="-399.5" font-family="Helvetica,sans-Serif" font-size="10.00">_gimbal.cpp</text>
</g>
<!-- Node2 -->
<g id="node2" class="node"><title>Node2</title>
<g id="a_node2"><a xlink:href="dji__gimbal_8hpp.html" target="_top" xlink:title="Gimbal API for OSDK library. ">
<polygon fill="white" stroke="black" points="130.5,-224.5 130.5,-243.5 209.5,-243.5 209.5,-224.5 130.5,-224.5"/>
<text text-anchor="middle" x="170" y="-231.5" font-family="Helvetica,sans-Serif" font-size="10.00">dji_gimbal.hpp</text>
</a>
</g>
</g>
<!-- Node1&#45;&gt;Node2 -->
<g id="edge1" class="edge"><title>Node1&#45;&gt;Node2</title>
<path fill="none" stroke="midnightblue" d="M442.925,-395.8C383.763,-381.658 286.553,-352.21 218,-300 201.316,-287.293 187.748,-267.26 179.347,-252.791"/>
<polygon fill="midnightblue" stroke="midnightblue" points="182.287,-250.875 174.382,-243.821 176.163,-254.265 182.287,-250.875"/>
</g>
<!-- Node8 -->
<g id="node8" class="node"><title>Node8</title>
<g id="a_node8"><a xlink:href="dji__vehicle_8hpp.html" target="_top" xlink:title="Vehicle API for DJI onboardSDK library. ">
<polygon fill="white" stroke="black" points="806.5,-336.5 806.5,-355.5 887.5,-355.5 887.5,-336.5 806.5,-336.5"/>
<text text-anchor="middle" x="847" y="-343.5" font-family="Helvetica,sans-Serif" font-size="10.00">dji_vehicle.hpp</text>
</a>
</g>
</g>
<!-- Node1&#45;&gt;Node8 -->
<g id="edge9" class="edge"><title>Node1&#45;&gt;Node8</title>
<path fill="none" stroke="midnightblue" d="M547.318,-397.656C614.399,-386.318 729.95,-366.785 796.26,-355.577"/>
<polygon fill="midnightblue" stroke="midnightblue" points="797.188,-358.97 806.465,-353.852 796.021,-352.068 797.188,-358.97"/>
</g>
<!-- Node3 -->
<g id="node3" class="node"><title>Node3</title>
<g id="a_node3"><a xlink:href="dji__command_8hpp.html" target="_top" xlink:title="All DJI OSDK OpenProtocol Command IDs. ">
<polygon fill="white" stroke="black" points="425.5,-112.5 425.5,-131.5 518.5,-131.5 518.5,-112.5 425.5,-112.5"/>
<text text-anchor="middle" x="472" y="-119.5" font-family="Helvetica,sans-Serif" font-size="10.00">dji_command.hpp</text>
</a>
</g>
</g>
<!-- Node2&#45;&gt;Node3 -->
<g id="edge2" class="edge"><title>Node2&#45;&gt;Node3</title>
<path fill="none" stroke="midnightblue" d="M170.095,-224.298C170.755,-210.163 174.251,-182.354 191,-168 199.448,-160.76 335.177,-141.423 414.853,-130.602"/>
<polygon fill="midnightblue" stroke="midnightblue" points="415.789,-134.007 425.229,-129.197 414.85,-127.07 415.789,-134.007"/>
</g>
<!-- Node6 -->
<g id="node6" class="node"><title>Node6</title>
<g id="a_node6"><a xlink:href="dji__type_8hpp.html" target="_top" xlink:title="Data type and Data Structure definitions for use throughout DJI OSDK. ">
<polygon fill="white" stroke="black" points="322.5,-112.5 322.5,-131.5 391.5,-131.5 391.5,-112.5 322.5,-112.5"/>
<text text-anchor="middle" x="357" y="-119.5" font-family="Helvetica,sans-Serif" font-size="10.00">dji_type.hpp</text>
</a>
</g>
</g>
<!-- Node2&#45;&gt;Node6 -->
<g id="edge6" class="edge"><title>Node2&#45;&gt;Node6</title>
<path fill="none" stroke="midnightblue" d="M164.558,-224.382C156.785,-210.858 144.819,-184.495 158,-168 176.916,-144.328 259.436,-132.198 312.092,-126.755"/>
<polygon fill="midnightblue" stroke="midnightblue" points="312.591,-130.223 322.197,-125.754 311.901,-123.257 312.591,-130.223"/>
</g>
<!-- Node4 -->
<g id="node4" class="node"><title>Node4</title>
<g id="a_node4"><a xlink:href="dji__error_8hpp.html" target="_top" xlink:title="All DJI OSDK OpenProtocol ACK Error Codes. ">
<polygon fill="white" stroke="black" points="469,-56.5 469,-75.5 539,-75.5 539,-56.5 469,-56.5"/>
<text text-anchor="middle" x="504" y="-63.5" font-family="Helvetica,sans-Serif" font-size="10.00">dji_error.hpp</text>
</a>
</g>
</g>
<!-- Node3&#45;&gt;Node4 -->
<g id="edge3" class="edge"><title>Node3&#45;&gt;Node4</title>
<path fill="none" stroke="midnightblue" d="M477.284,-112.083C481.711,-104.613 488.163,-93.7244 493.618,-84.5199"/>
<polygon fill="midnightblue" stroke="midnightblue" points="496.727,-86.1383 498.814,-75.7511 490.705,-82.5697 496.727,-86.1383"/>
</g>
<!-- Node5 -->
<g id="node5" class="node"><title>Node5</title>
<polygon fill="white" stroke="#bfbfbf" points="416.5,-0.5 416.5,-19.5 465.5,-19.5 465.5,-0.5 416.5,-0.5"/>
<text text-anchor="middle" x="441" y="-7.5" font-family="Helvetica,sans-Serif" font-size="10.00">stdint.h</text>
</g>
<!-- Node3&#45;&gt;Node5 -->
<g id="edge5" class="edge"><title>Node3&#45;&gt;Node5</title>
<path fill="none" stroke="midnightblue" d="M469.567,-112.368C464.542,-94.5366 452.92,-53.2953 446.149,-29.2717"/>
<polygon fill="midnightblue" stroke="midnightblue" points="449.503,-28.2671 443.421,-19.5914 442.765,-30.1659 449.503,-28.2671"/>
</g>
<!-- Node4&#45;&gt;Node5 -->
<g id="edge4" class="edge"><title>Node4&#45;&gt;Node5</title>
<path fill="none" stroke="midnightblue" d="M493.878,-56.324C484.474,-48.2631 470.256,-36.0765 458.931,-26.3695"/>
<polygon fill="midnightblue" stroke="midnightblue" points="461.177,-23.6844 451.306,-19.8339 456.621,-28.9993 461.177,-23.6844"/>
</g>
<!-- Node6&#45;&gt;Node5 -->
<g id="edge8" class="edge"><title>Node6&#45;&gt;Node5</title>
<path fill="none" stroke="midnightblue" d="M354.892,-112.227C352.221,-98.9558 349.168,-73.475 360,-56 370.415,-39.1982 389.495,-28.158 406.521,-21.2195"/>
<polygon fill="midnightblue" stroke="midnightblue" points="408.083,-24.3722 416.228,-17.5956 405.635,-17.8144 408.083,-24.3722"/>
</g>
<!-- Node7 -->
<g id="node7" class="node"><title>Node7</title>
<polygon fill="white" stroke="#bfbfbf" points="369.5,-56.5 369.5,-75.5 412.5,-75.5 412.5,-56.5 369.5,-56.5"/>
<text text-anchor="middle" x="391" y="-63.5" font-family="Helvetica,sans-Serif" font-size="10.00">cstdio</text>
</g>
<!-- Node6&#45;&gt;Node7 -->
<g id="edge7" class="edge"><title>Node6&#45;&gt;Node7</title>
<path fill="none" stroke="midnightblue" d="M362.614,-112.083C367.367,-104.534 374.318,-93.4948 380.152,-84.2298"/>
<polygon fill="midnightblue" stroke="midnightblue" points="383.124,-86.0783 385.49,-75.7511 377.2,-82.3486 383.124,-86.0783"/>
</g>
<!-- Node8&#45;&gt;Node2 -->
<g id="edge34" class="edge"><title>Node8&#45;&gt;Node2</title>
<path fill="none" stroke="midnightblue" d="M806.143,-344.797C689.825,-343.762 358.802,-337.508 258,-300 229.501,-289.396 202.232,-266.634 185.799,-251.068"/>
<polygon fill="midnightblue" stroke="midnightblue" points="187.843,-248.172 178.245,-243.686 182.951,-253.179 187.843,-248.172"/>
</g>
<!-- Node8&#45;&gt;Node3 -->
<g id="edge20" class="edge"><title>Node8&#45;&gt;Node3</title>
<path fill="none" stroke="midnightblue" d="M806.322,-341.255C752.201,-333.704 659.766,-311.114 629,-244 600.036,-180.815 720.684,-205.297 733,-188 738.156,-180.759 738.727,-174.798 733,-168 707.43,-137.644 597.652,-127.765 528.869,-124.551"/>
<polygon fill="midnightblue" stroke="midnightblue" points="528.759,-121.043 518.617,-124.107 528.456,-128.036 528.759,-121.043"/>
</g>
<!-- Node8&#45;&gt;Node6 -->
<g id="edge58" class="edge"><title>Node8&#45;&gt;Node6</title>
<path fill="none" stroke="midnightblue" d="M806.194,-344.463C684.968,-342.493 328.559,-333.897 218,-300 170.407,-285.408 145.89,-287.11 121,-244 105.712,-217.522 142.451,-173.084 149,-168 174.035,-148.566 258.932,-134.969 312.213,-128.114"/>
<polygon fill="midnightblue" stroke="midnightblue" points="312.934,-131.552 322.42,-126.834 312.062,-124.606 312.934,-131.552"/>
</g>
<!-- Node9 -->
<g id="node9" class="node"><title>Node9</title>
<polygon fill="white" stroke="#bfbfbf" points="1048,-112.5 1048,-131.5 1094,-131.5 1094,-112.5 1048,-112.5"/>
<text text-anchor="middle" x="1071" y="-119.5" font-family="Helvetica,sans-Serif" font-size="10.00">cstdint</text>
</g>
<!-- Node8&#45;&gt;Node9 -->
<g id="edge10" class="edge"><title>Node8&#45;&gt;Node9</title>
<path fill="none" stroke="midnightblue" d="M851.302,-336.176C858.12,-322.839 872.449,-297.274 890,-280 944.128,-226.727 981.685,-243.055 1034,-188 1046.97,-174.348 1057.12,-155.303 1063.48,-141.356"/>
<polygon fill="midnightblue" stroke="midnightblue" points="1066.83,-142.427 1067.59,-131.859 1060.41,-139.646 1066.83,-142.427"/>
</g>
<!-- Node10 -->
<g id="node10" class="node"><title>Node10</title>
<g id="a_node10"><a xlink:href="dji__broadcast_8hpp.html" target="_top" xlink:title="Broadcast Telemetry API for DJI onboardSDK library. ">
<polygon fill="white" stroke="black" points="638.5,-224.5 638.5,-243.5 731.5,-243.5 731.5,-224.5 638.5,-224.5"/>
<text text-anchor="middle" x="685" y="-231.5" font-family="Helvetica,sans-Serif" font-size="10.00">dji_broadcast.hpp</text>
</a>
</g>
</g>
<!-- Node8&#45;&gt;Node10 -->
<g id="edge11" class="edge"><title>Node8&#45;&gt;Node10</title>
<path fill="none" stroke="midnightblue" d="M806.35,-340.735C776.578,-335.633 736.993,-324.455 711,-300 698.021,-287.789 691.38,-268.242 688.075,-253.769"/>
<polygon fill="midnightblue" stroke="midnightblue" points="691.499,-253.041 686.148,-243.896 684.628,-254.381 691.499,-253.041"/>
</g>
<!-- Node12 -->
<g id="node12" class="node"><title>Node12</title>
<g id="a_node12"><a xlink:href="dji__vehicle__callback_8hpp.html" target="_top" xlink:title="Type definition for new Vehicle&#45;style callbacks. ">
<polygon fill="white" stroke="black" points="1150,-112.5 1150,-131.5 1272,-131.5 1272,-112.5 1150,-112.5"/>
<text text-anchor="middle" x="1211" y="-119.5" font-family="Helvetica,sans-Serif" font-size="10.00">dji_vehicle_callback.hpp</text>
</a>
</g>
</g>
<!-- Node8&#45;&gt;Node12 -->
<g id="edge59" class="edge"><title>Node8&#45;&gt;Node12</title>
<path fill="none" stroke="midnightblue" d="M887.832,-344.793C1012.72,-343.755 1383.41,-337.513 1421,-300 1462.62,-258.461 1467.16,-213.573 1430,-168 1411.49,-145.297 1338.67,-133.722 1282.03,-128.045"/>
<polygon fill="midnightblue" stroke="midnightblue" points="1282.3,-124.556 1272.01,-127.086 1281.63,-131.524 1282.3,-124.556"/>
</g>
<!-- Node13 -->
<g id="node13" class="node"><title>Node13</title>
<polygon fill="white" stroke="#bfbfbf" points="1110.5,-56.5 1110.5,-75.5 1221.5,-75.5 1221.5,-56.5 1110.5,-56.5"/>
<text text-anchor="middle" x="1166" y="-63.5" font-family="Helvetica,sans-Serif" font-size="10.00">dji_open_protocol.hpp</text>
</g>
<!-- Node8&#45;&gt;Node13 -->
<g id="edge51" class="edge"><title>Node8&#45;&gt;Node13</title>
<path fill="none" stroke="midnightblue" d="M887.727,-345.176C1012.22,-345.25 1386.11,-341.887 1499,-300 1544.25,-283.21 1586,-283.267 1586,-235 1586,-235 1586,-235 1586,-177 1586,-104.674 1349.98,-78.9695 1231.8,-70.632"/>
<polygon fill="midnightblue" stroke="midnightblue" points="1231.99,-67.1369 1221.77,-69.9465 1231.51,-74.1206 1231.99,-67.1369"/>
</g>
<!-- Node14 -->
<g id="node14" class="node"><title>Node14</title>
<g id="a_node14"><a xlink:href="dji__camera_8hpp.html" target="_top" xlink:title="Camera/Gimbal API for DJI onboardSDK library. ">
<polygon fill="white" stroke="black" points="200.5,-168.5 200.5,-187.5 283.5,-187.5 283.5,-168.5 200.5,-168.5"/>
<text text-anchor="middle" x="242" y="-175.5" font-family="Helvetica,sans-Serif" font-size="10.00">dji_camera.hpp</text>
</a>
</g>
</g>
<!-- Node8&#45;&gt;Node14 -->
<g id="edge16" class="edge"><title>Node8&#45;&gt;Node14</title>
<path fill="none" stroke="midnightblue" d="M806.371,-343.329C710.279,-338.997 471.451,-325.889 396,-300 335.376,-279.199 280.535,-223.427 255.829,-195.462"/>
<polygon fill="midnightblue" stroke="midnightblue" points="258.345,-193.02 249.157,-187.746 253.05,-197.599 258.345,-193.02"/>
</g>
<!-- Node15 -->
<g id="node15" class="node"><title>Node15</title>
<polygon fill="white" stroke="#bfbfbf" points="932,-280.5 932,-299.5 1044,-299.5 1044,-280.5 932,-280.5"/>
<text text-anchor="middle" x="988" y="-287.5" font-family="Helvetica,sans-Serif" font-size="10.00">dji_circular_buffer.hpp</text>
</g>
<!-- Node8&#45;&gt;Node15 -->
<g id="edge19" class="edge"><title>Node8&#45;&gt;Node15</title>
<path fill="none" stroke="midnightblue" d="M869.342,-336.444C892.753,-327.478 929.736,-313.314 956.19,-303.183"/>
<polygon fill="midnightblue" stroke="midnightblue" points="957.676,-306.361 965.763,-299.516 955.172,-299.824 957.676,-306.361"/>
</g>
<!-- Node16 -->
<g id="node16" class="node"><title>Node16</title>
<g id="a_node16"><a xlink:href="dji__control_8hpp.html" target="_top" xlink:title="Control API for DJI OSDK library. ">
<polygon fill="white" stroke="black" points="720,-280.5 720,-299.5 800,-299.5 800,-280.5 720,-280.5"/>
<text text-anchor="middle" x="760" y="-287.5" font-family="Helvetica,sans-Serif" font-size="10.00">dji_control.hpp</text>
</a>
</g>
</g>
<!-- Node8&#45;&gt;Node16 -->
<g id="edge21" class="edge"><title>Node8&#45;&gt;Node16</title>
<path fill="none" stroke="midnightblue" d="M833.022,-336.324C819.45,-327.9 798.62,-314.971 782.675,-305.074"/>
<polygon fill="midnightblue" stroke="midnightblue" points="784.286,-301.954 773.943,-299.655 780.594,-307.902 784.286,-301.954"/>
</g>
<!-- Node19 -->
<g id="node19" class="node"><title>Node19</title>
<g id="a_node19"><a xlink:href="dji__version_8hpp.html" target="_top" xlink:title="Drone/SDK Version definition for DJI onboardSDK library. ">
<polygon fill="white" stroke="black" points="910,-168.5 910,-187.5 992,-187.5 992,-168.5 910,-168.5"/>
<text text-anchor="middle" x="951" y="-175.5" font-family="Helvetica,sans-Serif" font-size="10.00">dji_version.hpp</text>
</a>
</g>
</g>
<!-- Node8&#45;&gt;Node19 -->
<g id="edge60" class="edge"><title>Node8&#45;&gt;Node19</title>
<path fill="none" stroke="midnightblue" d="M845.834,-336.12C844.529,-323.15 843.58,-298.551 852,-280 868.917,-242.728 905.782,-211.17 929.442,-193.689"/>
<polygon fill="midnightblue" stroke="midnightblue" points="931.71,-196.369 937.794,-187.696 927.629,-190.682 931.71,-196.369"/>
</g>
<!-- Node21 -->
<g id="node21" class="node"><title>Node21</title>
<polygon fill="white" stroke="#bfbfbf" points="1062,-280.5 1062,-299.5 1160,-299.5 1160,-280.5 1062,-280.5"/>
<text text-anchor="middle" x="1111" y="-287.5" font-family="Helvetica,sans-Serif" font-size="10.00">dji_hard_driver.hpp</text>
</g>
<!-- Node8&#45;&gt;Node21 -->
<g id="edge35" class="edge"><title>Node8&#45;&gt;Node21</title>
<path fill="none" stroke="midnightblue" d="M887.671,-336.681C933.814,-327.243 1009.16,-311.831 1059.4,-301.554"/>
<polygon fill="midnightblue" stroke="midnightblue" points="1060.31,-304.94 1069.41,-299.507 1058.91,-298.082 1060.31,-304.94"/>
</g>
<!-- Node22 -->
<g id="node22" class="node"><title>Node22</title>
<g id="a_node22"><a xlink:href="dji__hardware__sync_8hpp.html" target="_top" xlink:title="Hardware Sync API for DJI OSDK. ">
<polygon fill="white" stroke="black" points="0,-280.5 0,-299.5 116,-299.5 116,-280.5 0,-280.5"/>
<text text-anchor="middle" x="58" y="-287.5" font-family="Helvetica,sans-Serif" font-size="10.00">dji_hardware_sync.hpp</text>
</a>
</g>
</g>
<!-- Node8&#45;&gt;Node22 -->
<g id="edge36" class="edge"><title>Node8&#45;&gt;Node22</title>
<path fill="none" stroke="midnightblue" d="M806.422,-342.53C701.058,-336.07 410.116,-317.927 168,-300 154.6,-299.008 140.287,-297.884 126.567,-296.775"/>
<polygon fill="midnightblue" stroke="midnightblue" points="126.467,-293.255 116.216,-295.932 125.899,-300.232 126.467,-293.255"/>
</g>
<!-- Node23 -->
<g id="node23" class="node"><title>Node23</title>
<g id="a_node23"><a xlink:href="dji__mfio_8hpp.html" target="_top" xlink:title="MFIO API for DJI OSDK library. ">
<polygon fill="white" stroke="black" points="1488.5,-224.5 1488.5,-243.5 1557.5,-243.5 1557.5,-224.5 1488.5,-224.5"/>
<text text-anchor="middle" x="1523" y="-231.5" font-family="Helvetica,sans-Serif" font-size="10.00">dji_mfio.hpp</text>
</a>
</g>
</g>
<!-- Node8&#45;&gt;Node23 -->
<g id="edge38" class="edge"><title>Node8&#45;&gt;Node23</title>
<path fill="none" stroke="midnightblue" d="M887.951,-344.017C1019.03,-340.601 1422.71,-327.902 1474,-300 1493.14,-289.585 1507.01,-268.129 1515,-252.715"/>
<polygon fill="midnightblue" stroke="midnightblue" points="1518.19,-254.16 1519.4,-243.635 1511.89,-251.105 1518.19,-254.16"/>
</g>
<!-- Node24 -->
<g id="node24" class="node"><title>Node24</title>
<g id="a_node24"><a xlink:href="dji__mission__manager_8hpp.html" target="_top" xlink:title="Mission&#45;Manager API for DJI OSDK library. ">
<polygon fill="white" stroke="black" points="405.5,-280.5 405.5,-299.5 532.5,-299.5 532.5,-280.5 405.5,-280.5"/>
<text text-anchor="middle" x="469" y="-287.5" font-family="Helvetica,sans-Serif" font-size="10.00">dji_mission_manager.hpp</text>
</a>
</g>
</g>
<!-- Node8&#45;&gt;Node24 -->
<g id="edge40" class="edge"><title>Node8&#45;&gt;Node24</title>
<path fill="none" stroke="midnightblue" d="M806.188,-339.17C742.152,-330.022 617.292,-312.185 538.793,-300.97"/>
<polygon fill="midnightblue" stroke="midnightblue" points="538.904,-297.451 528.51,-299.501 537.914,-304.38 538.904,-297.451"/>
</g>
<!-- Node28 -->
<g id="node28" class="node"><title>Node28</title>
<g id="a_node28"><a xlink:href="dji__mobile__communication_8hpp.html" target="_top" xlink:title="Implementation of DJI Mobile&#45;Onboard SDK Communication (MOC) ">
<polygon fill="white" stroke="black" points="1271,-168.5 1271,-187.5 1421,-187.5 1421,-168.5 1271,-168.5"/>
<text text-anchor="middle" x="1346" y="-175.5" font-family="Helvetica,sans-Serif" font-size="10.00">dji_mobile_communication.hpp</text>
</a>
</g>
</g>
<!-- Node8&#45;&gt;Node28 -->
<g id="edge49" class="edge"><title>Node8&#45;&gt;Node28</title>
<path fill="none" stroke="midnightblue" d="M887.544,-344.813C1009.74,-343.83 1368.2,-337.729 1403,-300 1432.11,-268.443 1389.45,-219.36 1363.49,-194.523"/>
<polygon fill="midnightblue" stroke="midnightblue" points="1365.79,-191.875 1356.08,-187.639 1361.03,-197.006 1365.79,-191.875"/>
</g>
<!-- Node29 -->
<g id="node29" class="node"><title>Node29</title>
<g id="a_node29"><a xlink:href="dji__status_8hpp.html" target="_top" xlink:title="Status information for DJI Vehicle. ">
<polygon fill="white" stroke="black" points="1178.5,-280.5 1178.5,-299.5 1255.5,-299.5 1255.5,-280.5 1178.5,-280.5"/>
<text text-anchor="middle" x="1217" y="-287.5" font-family="Helvetica,sans-Serif" font-size="10.00">dji_status.hpp</text>
</a>
</g>
</g>
<!-- Node8&#45;&gt;Node29 -->
<g id="edge52" class="edge"><title>Node8&#45;&gt;Node29</title>
<path fill="none" stroke="midnightblue" d="M887.503,-339.954C946.776,-332.435 1060.86,-317.454 1168.22,-300.061"/>
<polygon fill="midnightblue" stroke="midnightblue" points="1168.95,-303.488 1178.25,-298.425 1167.82,-296.58 1168.95,-303.488"/>
</g>
<!-- Node30 -->
<g id="node30" class="node"><title>Node30</title>
<g id="a_node30"><a xlink:href="dji__subscription_8hpp.html" target="_top" xlink:title="Telemetry Subscription API for DJI OSDK library. ">
<polygon fill="white" stroke="black" points="1068.5,-224.5 1068.5,-243.5 1171.5,-243.5 1171.5,-224.5 1068.5,-224.5"/>
<text text-anchor="middle" x="1120" y="-231.5" font-family="Helvetica,sans-Serif" font-size="10.00">dji_subscription.hpp</text>
</a>
</g>
</g>
<!-- Node8&#45;&gt;Node30 -->
<g id="edge53" class="edge"><title>Node8&#45;&gt;Node30</title>
<path fill="none" stroke="midnightblue" d="M854.469,-336.333C867.103,-322.249 894.151,-294.512 923,-280 965.472,-258.636 1018.18,-247.281 1058.39,-241.324"/>
<polygon fill="midnightblue" stroke="midnightblue" points="1058.91,-244.785 1068.33,-239.923 1057.94,-237.853 1058.91,-244.785"/>
</g>
<!-- Node31 -->
<g id="node31" class="node"><title>Node31</title>
<polygon fill="white" stroke="#bfbfbf" points="1274,-280.5 1274,-299.5 1394,-299.5 1394,-280.5 1274,-280.5"/>
<text text-anchor="middle" x="1334" y="-287.5" font-family="Helvetica,sans-Serif" font-size="10.00">dji_thread_manager.hpp</text>
</g>
<!-- Node8&#45;&gt;Node31 -->
<g id="edge57" class="edge"><title>Node8&#45;&gt;Node31</title>
<path fill="none" stroke="midnightblue" d="M887.679,-340.927C960.772,-333.542 1119.41,-317.211 1263.87,-300.113"/>
<polygon fill="midnightblue" stroke="midnightblue" points="1264.28,-303.588 1273.8,-298.933 1263.46,-296.637 1264.28,-303.588"/>
</g>
<!-- Node11 -->
<g id="node11" class="node"><title>Node11</title>
<g id="a_node11"><a xlink:href="dji__telemetry_8hpp.html" target="_top" xlink:title="Enumeration of all telemetry data types, structures and maps. ">
<polygon fill="white" stroke="black" points="430.5,-168.5 430.5,-187.5 521.5,-187.5 521.5,-168.5 430.5,-168.5"/>
<text text-anchor="middle" x="476" y="-175.5" font-family="Helvetica,sans-Serif" font-size="10.00">dji_telemetry.hpp</text>
</a>
</g>
</g>
<!-- Node10&#45;&gt;Node11 -->
<g id="edge12" class="edge"><title>Node10&#45;&gt;Node11</title>
<path fill="none" stroke="midnightblue" d="M651.883,-224.444C615.882,-215.142 558.23,-200.246 518.814,-190.062"/>
<polygon fill="midnightblue" stroke="midnightblue" points="519.519,-186.629 508.962,-187.516 517.768,-193.407 519.519,-186.629"/>
</g>
<!-- Node10&#45;&gt;Node12 -->
<g id="edge14" class="edge"><title>Node10&#45;&gt;Node12</title>
<path fill="none" stroke="midnightblue" d="M702.003,-224.462C730.978,-210.308 792.125,-182.146 847,-168 900.731,-154.149 1050.01,-138.301 1139.84,-129.594"/>
<polygon fill="midnightblue" stroke="midnightblue" points="1140.33,-133.063 1149.95,-128.62 1139.66,-126.095 1140.33,-133.063"/>
</g>
<!-- Node11&#45;&gt;Node6 -->
<g id="edge13" class="edge"><title>Node11&#45;&gt;Node6</title>
<path fill="none" stroke="midnightblue" d="M457.144,-168.444C437.734,-159.636 407.27,-145.812 385.035,-135.722"/>
<polygon fill="midnightblue" stroke="midnightblue" points="386.32,-132.462 375.768,-131.516 383.428,-138.836 386.32,-132.462"/>
</g>
<!-- Node12&#45;&gt;Node13 -->
<g id="edge15" class="edge"><title>Node12&#45;&gt;Node13</title>
<path fill="none" stroke="midnightblue" d="M1203.57,-112.083C1197.15,-104.377 1187.69,-93.0333 1179.88,-83.6531"/>
<polygon fill="midnightblue" stroke="midnightblue" points="1182.38,-81.1927 1173.29,-75.7511 1177.01,-85.674 1182.38,-81.1927"/>
</g>
<!-- Node14&#45;&gt;Node3 -->
<g id="edge17" class="edge"><title>Node14&#45;&gt;Node3</title>
<path fill="none" stroke="midnightblue" d="M278.444,-168.444C318.399,-159.063 382.587,-143.993 425.985,-133.804"/>
<polygon fill="midnightblue" stroke="midnightblue" points="426.791,-137.21 435.726,-131.516 425.191,-130.395 426.791,-137.21"/>
</g>
<!-- Node14&#45;&gt;Node6 -->
<g id="edge18" class="edge"><title>Node14&#45;&gt;Node6</title>
<path fill="none" stroke="midnightblue" d="M260.222,-168.444C278.896,-159.675 308.156,-145.935 329.617,-135.858"/>
<polygon fill="midnightblue" stroke="midnightblue" points="331.299,-138.935 338.863,-131.516 328.324,-132.599 331.299,-138.935"/>
</g>
<!-- Node16&#45;&gt;Node6 -->
<g id="edge32" class="edge"><title>Node16&#45;&gt;Node6</title>
<path fill="none" stroke="midnightblue" d="M759.979,-280.389C759.451,-266.385 756.261,-238.76 740,-224 680.88,-170.339 638.532,-216.629 564,-188 547.634,-181.714 546.194,-174.716 530,-168 487.993,-150.58 437.393,-138.359 401.801,-131.092"/>
<polygon fill="midnightblue" stroke="midnightblue" points="402.213,-127.605 391.722,-129.085 400.846,-134.471 402.213,-127.605"/>
</g>
<!-- Node16&#45;&gt;Node12 -->
<g id="edge33" class="edge"><title>Node16&#45;&gt;Node12</title>
<path fill="none" stroke="midnightblue" d="M800.173,-285.935C902.463,-277.965 1165.72,-256.357 1180,-244 1209.56,-218.422 1212.86,-168.876 1212.23,-141.795"/>
<polygon fill="midnightblue" stroke="midnightblue" points="1215.72,-141.534 1211.78,-131.699 1208.73,-141.844 1215.72,-141.534"/>
</g>
<!-- Node16&#45;&gt;Node13 -->
<g id="edge31" class="edge"><title>Node16&#45;&gt;Node13</title>
<path fill="none" stroke="midnightblue" d="M786.877,-280.382C842.607,-262.1 968.282,-218.602 1001,-188 1028.58,-162.203 1010.7,-137.01 1039,-112 1057.71,-95.4627 1082.9,-84.8926 1105.91,-78.1886"/>
<polygon fill="midnightblue" stroke="midnightblue" points="1106.89,-81.5507 1115.61,-75.546 1105.05,-74.7967 1106.89,-81.5507"/>
</g>
<!-- Node17 -->
<g id="node17" class="node"><title>Node17</title>
<g id="a_node17"><a xlink:href="dji__ack_8hpp.html" target="_top" xlink:title="All DJI OSDK ACK parsing. ">
<polygon fill="white" stroke="black" points="788,-224.5 788,-243.5 854,-243.5 854,-224.5 788,-224.5"/>
<text text-anchor="middle" x="821" y="-231.5" font-family="Helvetica,sans-Serif" font-size="10.00">dji_ack.hpp</text>
</a>
</g>
</g>
<!-- Node16&#45;&gt;Node17 -->
<g id="edge22" class="edge"><title>Node16&#45;&gt;Node17</title>
<path fill="none" stroke="midnightblue" d="M769.801,-280.324C778.818,-272.341 792.406,-260.313 803.318,-250.653"/>
<polygon fill="midnightblue" stroke="midnightblue" points="805.853,-253.083 811.021,-243.834 801.213,-247.842 805.853,-253.083"/>
</g>
<!-- Node17&#45;&gt;Node3 -->
<g id="edge23" class="edge"><title>Node17&#45;&gt;Node3</title>
<path fill="none" stroke="midnightblue" d="M816.294,-224.09C808.156,-209.656 789.994,-181.428 766,-168 726.353,-145.812 602.294,-132.865 528.605,-126.938"/>
<polygon fill="midnightblue" stroke="midnightblue" points="528.799,-123.443 518.556,-126.149 528.251,-130.421 528.799,-123.443"/>
</g>
<!-- Node17&#45;&gt;Node6 -->
<g id="edge26" class="edge"><title>Node17&#45;&gt;Node6</title>
<path fill="none" stroke="midnightblue" d="M787.753,-226.443C731.978,-215.378 623.976,-193.65 607,-188 587.001,-181.344 583.976,-174.724 564,-168 509.421,-149.627 444.163,-136.894 401.71,-129.776"/>
<polygon fill="midnightblue" stroke="midnightblue" points="402.129,-126.298 391.693,-128.129 400.993,-133.205 402.129,-126.298"/>
</g>
<!-- Node18 -->
<g id="node18" class="node"><title>Node18</title>
<g id="a_node18"><a xlink:href="dji__mission__type_8hpp.html" target="_top" xlink:title="Mission related data struct for DJI OSDK library. ">
<polygon fill="white" stroke="black" points="616,-168.5 616,-187.5 724,-187.5 724,-168.5 616,-168.5"/>
<text text-anchor="middle" x="670" y="-175.5" font-family="Helvetica,sans-Serif" font-size="10.00">dji_mission_type.hpp</text>
</a>
</g>
</g>
<!-- Node17&#45;&gt;Node18 -->
<g id="edge24" class="edge"><title>Node17&#45;&gt;Node18</title>
<path fill="none" stroke="midnightblue" d="M797.074,-224.444C771.781,-215.399 731.698,-201.064 703.32,-190.916"/>
<polygon fill="midnightblue" stroke="midnightblue" points="704.409,-187.588 693.814,-187.516 702.052,-194.179 704.409,-187.588"/>
</g>
<!-- Node17&#45;&gt;Node19 -->
<g id="edge27" class="edge"><title>Node17&#45;&gt;Node19</title>
<path fill="none" stroke="midnightblue" d="M841.599,-224.444C862.993,-215.557 896.681,-201.563 921.024,-191.451"/>
<polygon fill="midnightblue" stroke="midnightblue" points="922.605,-194.585 930.497,-187.516 919.92,-188.12 922.605,-194.585"/>
</g>
<!-- Node20 -->
<g id="node20" class="node"><title>Node20</title>
<polygon fill="white" stroke="#bfbfbf" points="856.5,-168.5 856.5,-187.5 891.5,-187.5 891.5,-168.5 856.5,-168.5"/>
<text text-anchor="middle" x="874" y="-175.5" font-family="Helvetica,sans-Serif" font-size="10.00">map</text>
</g>
<!-- Node17&#45;&gt;Node20 -->
<g id="edge30" class="edge"><title>Node17&#45;&gt;Node20</title>
<path fill="none" stroke="midnightblue" d="M829.752,-224.083C837.47,-216.22 848.905,-204.569 858.217,-195.081"/>
<polygon fill="midnightblue" stroke="midnightblue" points="860.904,-197.34 865.411,-187.751 855.908,-192.436 860.904,-197.34"/>
</g>
<!-- Node18&#45;&gt;Node6 -->
<g id="edge25" class="edge"><title>Node18&#45;&gt;Node6</title>
<path fill="none" stroke="midnightblue" d="M620.404,-168.444C560.237,-158.063 459.688,-140.716 401.778,-130.725"/>
<polygon fill="midnightblue" stroke="midnightblue" points="402.276,-127.26 391.827,-129.008 401.086,-134.158 402.276,-127.26"/>
</g>
<!-- Node19&#45;&gt;Node3 -->
<g id="edge28" class="edge"><title>Node19&#45;&gt;Node3</title>
<path fill="none" stroke="midnightblue" d="M909.843,-169.483C906.518,-168.953 903.205,-168.451 900,-168 767.496,-149.366 610.921,-134.781 528.801,-127.699"/>
<polygon fill="midnightblue" stroke="midnightblue" points="528.943,-124.198 518.68,-126.832 528.345,-131.173 528.943,-124.198"/>
</g>
<!-- Node19&#45;&gt;Node9 -->
<g id="edge29" class="edge"><title>Node19&#45;&gt;Node9</title>
<path fill="none" stroke="midnightblue" d="M970.014,-168.444C989.588,-159.636 1020.31,-145.812 1042.73,-135.722"/>
<polygon fill="midnightblue" stroke="midnightblue" points="1044.39,-138.812 1052.07,-131.516 1041.52,-132.428 1044.39,-138.812"/>
</g>
<!-- Node22&#45;&gt;Node6 -->
<g id="edge37" class="edge"><title>Node22&#45;&gt;Node6</title>
<path fill="none" stroke="midnightblue" d="M56.7594,-280.465C54.0706,-258.329 50.2846,-198.667 82,-168 114.088,-136.973 242.798,-127.295 312.166,-124.309"/>
<polygon fill="midnightblue" stroke="midnightblue" points="312.507,-127.798 322.359,-123.9 312.227,-120.804 312.507,-127.798"/>
</g>
<!-- Node23&#45;&gt;Node12 -->
<g id="edge39" class="edge"><title>Node23&#45;&gt;Node12</title>
<path fill="none" stroke="midnightblue" d="M1519.05,-224.145C1512.14,-209.792 1496.45,-181.675 1474,-168 1442.58,-148.859 1348.89,-136.146 1282.31,-129.254"/>
<polygon fill="midnightblue" stroke="midnightblue" points="1282.58,-125.764 1272.28,-128.238 1281.88,-132.728 1282.58,-125.764"/>
</g>
<!-- Node25 -->
<g id="node25" class="node"><title>Node25</title>
<g id="a_node25"><a xlink:href="dji__hotpoint_8hpp.html" target="_top" xlink:title="Implementation of HotPoint (Point of Interest) Missions for DJI OSDK. ">
<polygon fill="white" stroke="black" points="426.5,-224.5 426.5,-243.5 511.5,-243.5 511.5,-224.5 426.5,-224.5"/>
<text text-anchor="middle" x="469" y="-231.5" font-family="Helvetica,sans-Serif" font-size="10.00">dji_hotpoint.hpp</text>
</a>
</g>
</g>
<!-- Node24&#45;&gt;Node25 -->
<g id="edge41" class="edge"><title>Node24&#45;&gt;Node25</title>
<path fill="none" stroke="midnightblue" d="M469,-280.083C469,-273.006 469,-262.861 469,-253.986"/>
<polygon fill="midnightblue" stroke="midnightblue" points="472.5,-253.751 469,-243.751 465.5,-253.751 472.5,-253.751"/>
</g>
<!-- Node27 -->
<g id="node27" class="node"><title>Node27</title>
<g id="a_node27"><a xlink:href="dji__waypoint_8hpp.html" target="_top" xlink:title="Implementation of GPS Waypoint Missions for DJI OSDK. ">
<polygon fill="white" stroke="black" points="316.5,-224.5 316.5,-243.5 405.5,-243.5 405.5,-224.5 316.5,-224.5"/>
<text text-anchor="middle" x="361" y="-231.5" font-family="Helvetica,sans-Serif" font-size="10.00">dji_waypoint.hpp</text>
</a>
</g>
</g>
<!-- Node24&#45;&gt;Node27 -->
<g id="edge47" class="edge"><title>Node24&#45;&gt;Node27</title>
<path fill="none" stroke="midnightblue" d="M451.648,-280.324C434.328,-271.664 407.485,-258.242 387.498,-248.249"/>
<polygon fill="midnightblue" stroke="midnightblue" points="388.819,-244.996 378.309,-243.655 385.688,-251.257 388.819,-244.996"/>
</g>
<!-- Node25&#45;&gt;Node11 -->
<g id="edge46" class="edge"><title>Node25&#45;&gt;Node11</title>
<path fill="none" stroke="midnightblue" d="M470.156,-224.083C471.084,-216.927 472.418,-206.635 473.577,-197.691"/>
<polygon fill="midnightblue" stroke="midnightblue" points="477.051,-198.118 474.866,-187.751 470.109,-197.218 477.051,-198.118"/>
</g>
<!-- Node26 -->
<g id="node26" class="node"><title>Node26</title>
<g id="a_node26"><a xlink:href="dji__mission__base_8hpp.html" target="_top" xlink:title="Mission&#45;Base abstract class for DJI OSDK library. ">
<polygon fill="white" stroke="black" points="302,-168.5 302,-187.5 412,-187.5 412,-168.5 302,-168.5"/>
<text text-anchor="middle" x="357" y="-175.5" font-family="Helvetica,sans-Serif" font-size="10.00">dji_mission_base.hpp</text>
</a>
</g>
</g>
<!-- Node25&#45;&gt;Node26 -->
<g id="edge42" class="edge"><title>Node25&#45;&gt;Node26</title>
<path fill="none" stroke="midnightblue" d="M451.005,-224.324C432.962,-215.625 404.953,-202.12 384.197,-192.113"/>
<polygon fill="midnightblue" stroke="midnightblue" points="385.478,-188.845 374.95,-187.655 382.438,-195.15 385.478,-188.845"/>
</g>
<!-- Node26&#45;&gt;Node3 -->
<g id="edge43" class="edge"><title>Node26&#45;&gt;Node3</title>
<path fill="none" stroke="midnightblue" d="M375.222,-168.444C393.896,-159.675 423.156,-145.935 444.617,-135.858"/>
<polygon fill="midnightblue" stroke="midnightblue" points="446.299,-138.935 453.863,-131.516 443.324,-132.599 446.299,-138.935"/>
</g>
<!-- Node26&#45;&gt;Node6 -->
<g id="edge44" class="edge"><title>Node26&#45;&gt;Node6</title>
<path fill="none" stroke="midnightblue" d="M357,-168.083C357,-161.006 357,-150.861 357,-141.986"/>
<polygon fill="midnightblue" stroke="midnightblue" points="360.5,-141.751 357,-131.751 353.5,-141.751 360.5,-141.751"/>
</g>
<!-- Node26&#45;&gt;Node12 -->
<g id="edge45" class="edge"><title>Node26&#45;&gt;Node12</title>
<path fill="none" stroke="midnightblue" d="M412.122,-168.938C415.122,-168.596 418.096,-168.28 421,-168 723.129,-138.838 800.167,-152.606 1103,-132 1114.88,-131.192 1127.48,-130.233 1139.73,-129.248"/>
<polygon fill="midnightblue" stroke="midnightblue" points="1140.23,-132.719 1149.91,-128.417 1139.66,-125.742 1140.23,-132.719"/>
</g>
<!-- Node27&#45;&gt;Node26 -->
<g id="edge48" class="edge"><title>Node27&#45;&gt;Node26</title>
<path fill="none" stroke="midnightblue" d="M360.339,-224.083C359.815,-217.006 359.064,-206.861 358.406,-197.986"/>
<polygon fill="midnightblue" stroke="midnightblue" points="361.877,-197.465 357.648,-187.751 354.897,-197.982 361.877,-197.465"/>
</g>
<!-- Node28&#45;&gt;Node12 -->
<g id="edge50" class="edge"><title>Node28&#45;&gt;Node12</title>
<path fill="none" stroke="midnightblue" d="M1324.61,-168.444C1302.29,-159.517 1267.1,-145.439 1241.79,-135.317"/>
<polygon fill="midnightblue" stroke="midnightblue" points="1242.88,-131.981 1232.29,-131.516 1240.28,-138.48 1242.88,-131.981"/>
</g>
<!-- Node30&#45;&gt;Node11 -->
<g id="edge55" class="edge"><title>Node30&#45;&gt;Node11</title>
<path fill="none" stroke="midnightblue" d="M1068.39,-228.672C949.069,-218.667 654.941,-194.004 531.72,-183.672"/>
<polygon fill="midnightblue" stroke="midnightblue" points="531.998,-180.183 521.74,-182.835 531.413,-187.159 531.998,-180.183"/>
</g>
<!-- Node30&#45;&gt;Node12 -->
<g id="edge56" class="edge"><title>Node30&#45;&gt;Node12</title>
<path fill="none" stroke="midnightblue" d="M1127.14,-224.368C1142.29,-206.055 1177.87,-163.049 1197.46,-139.362"/>
<polygon fill="midnightblue" stroke="midnightblue" points="1200.22,-141.528 1203.89,-131.591 1194.82,-137.066 1200.22,-141.528"/>
</g>
<!-- Node30&#45;&gt;Node13 -->
<g id="edge54" class="edge"><title>Node30&#45;&gt;Node13</title>
<path fill="none" stroke="midnightblue" d="M1120.52,-224.24C1121.92,-203.956 1126.73,-152.409 1141,-112 1144.42,-102.309 1149.81,-92.2436 1154.72,-84.0962"/>
<polygon fill="midnightblue" stroke="midnightblue" points="1157.73,-85.877 1160.1,-75.55 1151.81,-82.1469 1157.73,-85.877"/>
</g>
</g>
</svg>
