<?xml version="1.0" encoding="UTF-8" standalone="no"?>
<!DOCTYPE svg PUBLIC "-//W3C//DTD SVG 1.1//EN"
 "http://www.w3.org/Graphics/SVG/1.1/DTD/svg11.dtd">
<!-- Generated by graphviz version 2.38.0 (20140413.2041)
 -->
<!-- Title: osdk&#45;core/api/src/dji_version.cpp Pages: 1 -->
<svg width="289pt" height="263pt"
 viewBox="0.00 0.00 288.50 263.00" xmlns="http://www.w3.org/2000/svg" xmlns:xlink="http://www.w3.org/1999/xlink">
<g id="graph0" class="graph" transform="scale(1 1) rotate(0) translate(4 259)">
<title>osdk&#45;core/api/src/dji_version.cpp</title>
<polygon fill="white" stroke="none" points="-4,4 -4,-259 284.5,-259 284.5,4 -4,4"/>
<!-- Node1 -->
<g id="node1" class="node"><title>Node1</title>
<polygon fill="#bfbfbf" stroke="black" points="115,-224.5 115,-254.5 219,-254.5 219,-224.5 115,-224.5"/>
<text text-anchor="start" x="123" y="-242.5" font-family="Helvetica,sans-Serif" font-size="10.00">osdk&#45;core/api/src/dji</text>
<text text-anchor="middle" x="167" y="-231.5" font-family="Helvetica,sans-Serif" font-size="10.00">_version.cpp</text>
</g>
<!-- Node2 -->
<g id="node2" class="node"><title>Node2</title>
<g id="a_node2"><a xlink:href="dji__version_8hpp.html" target="_top" xlink:title="Drone/SDK Version definition for DJI onboardSDK library. ">
<polygon fill="white" stroke="black" points="69,-168.5 69,-187.5 151,-187.5 151,-168.5 69,-168.5"/>
<text text-anchor="middle" x="110" y="-175.5" font-family="Helvetica,sans-Serif" font-size="10.00">dji_version.hpp</text>
</a>
</g>
</g>
<!-- Node1&#45;&gt;Node2 -->
<g id="edge1" class="edge"><title>Node1&#45;&gt;Node2</title>
<path fill="none" stroke="midnightblue" d="M153.492,-224.399C145.038,-215.575 134.125,-204.183 125.345,-195.018"/>
<polygon fill="midnightblue" stroke="midnightblue" points="127.739,-192.458 118.294,-187.658 122.684,-197.3 127.739,-192.458"/>
</g>
<!-- Node7 -->
<g id="node7" class="node"><title>Node7</title>
<polygon fill="white" stroke="#bfbfbf" points="169.5,-168.5 169.5,-187.5 280.5,-187.5 280.5,-168.5 169.5,-168.5"/>
<text text-anchor="middle" x="225" y="-175.5" font-family="Helvetica,sans-Serif" font-size="10.00">dji_open_protocol.hpp</text>
</g>
<!-- Node1&#45;&gt;Node7 -->
<g id="edge7" class="edge"><title>Node1&#45;&gt;Node7</title>
<path fill="none" stroke="midnightblue" d="M180.745,-224.399C189.347,-215.575 200.452,-204.183 209.386,-195.018"/>
<polygon fill="midnightblue" stroke="midnightblue" points="212.086,-197.262 216.56,-187.658 207.074,-192.375 212.086,-197.262"/>
</g>
<!-- Node3 -->
<g id="node3" class="node"><title>Node3</title>
<g id="a_node3"><a xlink:href="dji__command_8hpp.html" target="_top" xlink:title="All DJI OSDK OpenProtocol Command IDs. ">
<polygon fill="white" stroke="black" points="19.5,-112.5 19.5,-131.5 112.5,-131.5 112.5,-112.5 19.5,-112.5"/>
<text text-anchor="middle" x="66" y="-119.5" font-family="Helvetica,sans-Serif" font-size="10.00">dji_command.hpp</text>
</a>
</g>
</g>
<!-- Node2&#45;&gt;Node3 -->
<g id="edge2" class="edge"><title>Node2&#45;&gt;Node3</title>
<path fill="none" stroke="midnightblue" d="M102.734,-168.083C96.4552,-160.377 87.2124,-149.033 79.5692,-139.653"/>
<polygon fill="midnightblue" stroke="midnightblue" points="82.1606,-137.293 73.1305,-131.751 76.7339,-141.714 82.1606,-137.293"/>
</g>
<!-- Node6 -->
<g id="node6" class="node"><title>Node6</title>
<polygon fill="white" stroke="#bfbfbf" points="131,-112.5 131,-131.5 177,-131.5 177,-112.5 131,-112.5"/>
<text text-anchor="middle" x="154" y="-119.5" font-family="Helvetica,sans-Serif" font-size="10.00">cstdint</text>
</g>
<!-- Node2&#45;&gt;Node6 -->
<g id="edge6" class="edge"><title>Node2&#45;&gt;Node6</title>
<path fill="none" stroke="midnightblue" d="M117.266,-168.083C123.545,-160.377 132.788,-149.033 140.431,-139.653"/>
<polygon fill="midnightblue" stroke="midnightblue" points="143.266,-141.714 146.869,-131.751 137.839,-137.293 143.266,-141.714"/>
</g>
<!-- Node4 -->
<g id="node4" class="node"><title>Node4</title>
<g id="a_node4"><a xlink:href="dji__error_8hpp.html" target="_top" xlink:title="All DJI OSDK OpenProtocol ACK Error Codes. ">
<polygon fill="white" stroke="black" points="0,-56.5 0,-75.5 70,-75.5 70,-56.5 0,-56.5"/>
<text text-anchor="middle" x="35" y="-63.5" font-family="Helvetica,sans-Serif" font-size="10.00">dji_error.hpp</text>
</a>
</g>
</g>
<!-- Node3&#45;&gt;Node4 -->
<g id="edge3" class="edge"><title>Node3&#45;&gt;Node4</title>
<path fill="none" stroke="midnightblue" d="M60.881,-112.083C56.5925,-104.613 50.3418,-93.7244 45.0577,-84.5199"/>
<polygon fill="midnightblue" stroke="midnightblue" points="48.0379,-82.6811 40.0238,-75.7511 41.9671,-86.1662 48.0379,-82.6811"/>
</g>
<!-- Node5 -->
<g id="node5" class="node"><title>Node5</title>
<polygon fill="white" stroke="#bfbfbf" points="41.5,-0.5 41.5,-19.5 90.5,-19.5 90.5,-0.5 41.5,-0.5"/>
<text text-anchor="middle" x="66" y="-7.5" font-family="Helvetica,sans-Serif" font-size="10.00">stdint.h</text>
</g>
<!-- Node3&#45;&gt;Node5 -->
<g id="edge5" class="edge"><title>Node3&#45;&gt;Node5</title>
<path fill="none" stroke="midnightblue" d="M69.344,-112.197C72.5542,-103.24 77.1764,-88.8827 79,-76 81.243,-60.1544 77.2131,-42.3436 73.0635,-29.3784"/>
<polygon fill="midnightblue" stroke="midnightblue" points="76.3058,-28.0481 69.6847,-19.7769 69.7027,-30.3717 76.3058,-28.0481"/>
</g>
<!-- Node4&#45;&gt;Node5 -->
<g id="edge4" class="edge"><title>Node4&#45;&gt;Node5</title>
<path fill="none" stroke="midnightblue" d="M40.119,-56.083C44.4075,-48.6127 50.6582,-37.7244 55.9423,-28.5199"/>
<polygon fill="midnightblue" stroke="midnightblue" points="59.0329,-30.1662 60.9762,-19.7511 52.9621,-26.6811 59.0329,-30.1662"/>
</g>
</g>
</svg>
