<?xml version="1.0" encoding="UTF-8" standalone="no"?>
<!DOCTYPE svg PUBLIC "-//W3C//DTD SVG 1.1//EN"
 "http://www.w3.org/Graphics/SVG/1.1/DTD/svg11.dtd">
<!-- Generated by graphviz version 2.40.1 (20161225.0304)
 -->
<!-- Title: osdk&#45;lib/x86/osdk&#45;core/inc/dji_camera_manager.hpp Pages: 1 -->
<!--zoomable 487 -->
<svg id="main" version="1.1" xmlns="http://www.w3.org/2000/svg" xmlns:xlink="http://www.w3.org/1999/xlink" xml:space="preserve" onload="init(evt)">
<style type="text/css"><![CDATA[
.edge:hover path { stroke: red; }
.edge:hover polygon { stroke: red; fill: red; }
]]></style>
<script type="text/javascript"><![CDATA[
var edges = document.getElementsByTagName('g');
if (edges && edges.length) {
  for (var i=0;i<edges.length;i++) {
    if (edges[i].id.substr(0,4)=='edge') {
      edges[i].setAttribute('class','edge');
    }
  }
}
]]></script>
        <defs>
                <circle id="rim" cx="0" cy="0" r="7"/>
                <circle id="rim2" cx="0" cy="0" r="3.5"/>
                <g id="zoomPlus">
                        <use xlink:href="#rim" fill="#404040">
                                <set attributeName="fill" to="#808080" begin="zoomplus.mouseover" end="zoomplus.mouseout"/>
                        </use>
                        <path d="M-4,0h8M0,-4v8" fill="none" stroke="white" stroke-width="1.5" pointer-events="none"/>
                </g>
                <g id="zoomMin">
                        <use xlink:href="#rim" fill="#404040">
                                <set attributeName="fill" to="#808080" begin="zoomminus.mouseover" end="zoomminus.mouseout"/>
                        </use>
                        <path d="M-4,0h8" fill="none" stroke="white" stroke-width="1.5" pointer-events="none"/>
                </g>
                <g id="dirArrow">
                        <path fill="none" stroke="white" stroke-width="1.5" d="M0,-3.0v7 M-2.5,-0.5L0,-3.0L2.5,-0.5"/>
                </g>
               <g id="resetDef">
                       <use xlink:href="#rim2" fill="#404040">
                               <set attributeName="fill" to="#808080" begin="reset.mouseover" end="reset.mouseout"/>
                       </use>
               </g>
        </defs>

<script type="text/javascript">
var viewWidth = 879;
var viewHeight = 487;
var sectionId = 'dynsection-0';
</script>
<script xlink:href="svgpan.js"/>
<svg id="graph" class="graph">
<g id="viewport">
<title>osdk&#45;lib/x86/osdk&#45;core/inc/dji_camera_manager.hpp</title>
<polygon fill="#ffffff" stroke="transparent" points="-4,4 -4,-483 874.5182,-483 874.5182,4 -4,4"/>
<!-- Node0 -->
<g id="node1" class="node">
<title>Node0</title>
<g id="a_node1"><a xlink:title="Implementation of the manager for camera module.">
<polygon fill="#bfbfbf" stroke="#000000" points="67,-448.5 67,-478.5 211,-478.5 211,-448.5 67,-448.5"/>
<text text-anchor="start" x="75" y="-466.5" font-family="Helvetica,sans-Serif" font-size="10.00" fill="#000000">osdk&#45;lib/x86/osdk&#45;core</text>
<text text-anchor="middle" x="139" y="-455.5" font-family="Helvetica,sans-Serif" font-size="10.00" fill="#000000">/inc/dji_camera_manager.hpp</text>
</a>
</g>
</g>
<!-- Node1 -->
<g id="node2" class="node">
<title>Node1</title>
<g id="a_node2"><a xlink:title=" ">
<polygon fill="#ffffff" stroke="#bfbfbf" points="19,-168.5 19,-187.5 63,-187.5 63,-168.5 19,-168.5"/>
<text text-anchor="middle" x="41" y="-175.5" font-family="Helvetica,sans-Serif" font-size="10.00" fill="#000000">vector</text>
</a>
</g>
</g>
<!-- Node0&#45;&gt;Node1 -->
<g id="edge1" class="edge">
<title>Node0&#45;&gt;Node1</title>
<path fill="none" stroke="#191970" d="M96.9182,-448.4761C56.0069,-430.8521 0,-397.348 0,-346 0,-346 0,-346 0,-290 0,-255.3444 17.5245,-218.1312 29.6592,-196.5174"/>
<polygon fill="#191970" stroke="#191970" points="32.7581,-198.1511 34.773,-187.7496 26.7114,-194.6243 32.7581,-198.1511"/>
</g>
<!-- Node2 -->
<g id="node3" class="node">
<title>Node2</title>
<g id="a_node3"><a xlink:href="dji__camera__module_8hpp.html" target="_top" xlink:title="Implementation of camera module for payload node.">
<polygon fill="#ffffff" stroke="#000000" points="218.5,-392.5 218.5,-411.5 337.5,-411.5 337.5,-392.5 218.5,-392.5"/>
<text text-anchor="middle" x="278" y="-399.5" font-family="Helvetica,sans-Serif" font-size="10.00" fill="#000000">dji_camera_module.hpp</text>
</a>
</g>
</g>
<!-- Node0&#45;&gt;Node2 -->
<g id="edge2" class="edge">
<title>Node0&#45;&gt;Node2</title>
<path fill="none" stroke="#191970" d="M173.0032,-448.4554C195.6871,-438.419 225.2673,-425.3314 247.2479,-415.6061"/>
<polygon fill="#191970" stroke="#191970" points="248.7312,-418.7772 256.4599,-411.5303 245.8989,-412.3758 248.7312,-418.7772"/>
</g>
<!-- Node3 -->
<g id="node4" class="node">
<title>Node3</title>
<g id="a_node4"><a xlink:href="dji__command_8hpp.html" target="_top" xlink:title="All DJI OSDK OpenProtocol Command IDs.">
<polygon fill="#ffffff" stroke="#000000" points="377.5,-168.5 377.5,-187.5 470.5,-187.5 470.5,-168.5 377.5,-168.5"/>
<text text-anchor="middle" x="424" y="-175.5" font-family="Helvetica,sans-Serif" font-size="10.00" fill="#000000">dji_command.hpp</text>
</a>
</g>
</g>
<!-- Node2&#45;&gt;Node3 -->
<g id="edge3" class="edge">
<title>Node2&#45;&gt;Node3</title>
<path fill="none" stroke="#191970" d="M297.1644,-392.4236C312.2367,-384.226 333.1069,-371.3348 348,-356 388.7332,-314.0586 398.1148,-299.3319 417,-244 422.1176,-229.0057 423.7572,-211.0785 424.1786,-197.6945"/>
<polygon fill="#191970" stroke="#191970" points="427.6784,-197.725 424.2956,-187.6848 420.6788,-197.6431 427.6784,-197.725"/>
</g>
<!-- Node10 -->
<g id="node11" class="node">
<title>Node10</title>
<g id="a_node11"><a xlink:href="dji__payload__base_8hpp.html" target="_top" xlink:title="Abstract protocol implementation for payload module.">
<polygon fill="#ffffff" stroke="#000000" points="731,-168.5 731,-187.5 841,-187.5 841,-168.5 731,-168.5"/>
<text text-anchor="middle" x="786" y="-175.5" font-family="Helvetica,sans-Serif" font-size="10.00" fill="#000000">dji_payload_base.hpp</text>
</a>
</g>
</g>
<!-- Node2&#45;&gt;Node10 -->
<g id="edge11" class="edge">
<title>Node2&#45;&gt;Node10</title>
<path fill="none" stroke="#191970" d="M301.5271,-392.361C360.306,-368.1912 518.1775,-302.7314 648,-244 686.0944,-226.7662 729.5268,-205.7676 757.3238,-192.1528"/>
<polygon fill="#191970" stroke="#191970" points="759.035,-195.2118 766.4695,-187.6634 755.9504,-188.9281 759.035,-195.2118"/>
</g>
<!-- Node12 -->
<g id="node13" class="node">
<title>Node12</title>
<g id="a_node13"><a xlink:href="dji__type_8hpp.html" target="_top" xlink:title="Data type and Data Structure definitions for use throughout DJI OSDK.">
<polygon fill="#ffffff" stroke="#000000" points="156.5,-168.5 156.5,-187.5 225.5,-187.5 225.5,-168.5 156.5,-168.5"/>
<text text-anchor="middle" x="191" y="-175.5" font-family="Helvetica,sans-Serif" font-size="10.00" fill="#000000">dji_type.hpp</text>
</a>
</g>
</g>
<!-- Node2&#45;&gt;Node12 -->
<g id="edge16" class="edge">
<title>Node2&#45;&gt;Node12</title>
<path fill="none" stroke="#191970" d="M253.3508,-392.4833C237.6069,-385.0381 218.2824,-373.0639 208,-356 177.7707,-305.8338 182.8655,-232.9286 187.6363,-198.0503"/>
<polygon fill="#191970" stroke="#191970" points="191.1566,-198.1784 189.1903,-187.7676 184.2352,-197.1323 191.1566,-198.1784"/>
</g>
<!-- Node14 -->
<g id="node15" class="node">
<title>Node14</title>
<g id="a_node15"><a xlink:href="dji__vehicle__callback_8hpp.html" target="_top" xlink:title="Type definition for new Vehicle&#45;style callbacks.">
<polygon fill="#ffffff" stroke="#000000" points="217,-336.5 217,-355.5 339,-355.5 339,-336.5 217,-336.5"/>
<text text-anchor="middle" x="278" y="-343.5" font-family="Helvetica,sans-Serif" font-size="10.00" fill="#000000">dji_vehicle_callback.hpp</text>
</a>
</g>
</g>
<!-- Node2&#45;&gt;Node14 -->
<g id="edge19" class="edge">
<title>Node2&#45;&gt;Node14</title>
<path fill="none" stroke="#191970" d="M278,-392.2455C278,-384.9382 278,-374.6944 278,-365.7046"/>
<polygon fill="#191970" stroke="#191970" points="281.5001,-365.6426 278,-355.6427 274.5001,-365.6427 281.5001,-365.6426"/>
</g>
<!-- Node4 -->
<g id="node5" class="node">
<title>Node4</title>
<g id="a_node5"><a xlink:href="dji__error_8hpp.html" target="_top" xlink:title="All DJI OSDK OpenProtocol ACK Error Codes.">
<polygon fill="#ffffff" stroke="#000000" points="380,-112.5 380,-131.5 450,-131.5 450,-112.5 380,-112.5"/>
<text text-anchor="middle" x="415" y="-119.5" font-family="Helvetica,sans-Serif" font-size="10.00" fill="#000000">dji_error.hpp</text>
</a>
</g>
</g>
<!-- Node3&#45;&gt;Node4 -->
<g id="edge4" class="edge">
<title>Node3&#45;&gt;Node4</title>
<path fill="none" stroke="#191970" d="M422.4323,-168.2455C421.2579,-160.9382 419.6116,-150.6944 418.1668,-141.7046"/>
<polygon fill="#191970" stroke="#191970" points="421.5922,-140.9606 416.5497,-131.6427 414.6809,-142.0714 421.5922,-140.9606"/>
</g>
<!-- Node9 -->
<g id="node10" class="node">
<title>Node9</title>
<g id="a_node10"><a xlink:title=" ">
<polygon fill="#ffffff" stroke="#bfbfbf" points="351.5,-.5 351.5,-19.5 400.5,-19.5 400.5,-.5 351.5,-.5"/>
<text text-anchor="middle" x="376" y="-7.5" font-family="Helvetica,sans-Serif" font-size="10.00" fill="#000000">stdint.h</text>
</a>
</g>
</g>
<!-- Node3&#45;&gt;Node9 -->
<g id="edge10" class="edge">
<title>Node3&#45;&gt;Node9</title>
<path fill="none" stroke="#191970" d="M409.9733,-168.4699C387.9757,-152.4766 346.5742,-117.8414 334,-76 331.4417,-67.4872 330.7857,-64.2874 334,-56 338.3858,-44.692 346.9902,-34.463 355.2749,-26.5381"/>
<polygon fill="#191970" stroke="#191970" points="357.8301,-28.9494 362.972,-19.6859 353.1756,-23.721 357.8301,-28.9494"/>
</g>
<!-- Node5 -->
<g id="node6" class="node">
<title>Node5</title>
<g id="a_node6"><a xlink:title=" ">
<polygon fill="#ffffff" stroke="#bfbfbf" points="396,-56.5 396,-75.5 442,-75.5 442,-56.5 396,-56.5"/>
<text text-anchor="middle" x="419" y="-63.5" font-family="Helvetica,sans-Serif" font-size="10.00" fill="#000000">cstdint</text>
</a>
</g>
</g>
<!-- Node4&#45;&gt;Node5 -->
<g id="edge5" class="edge">
<title>Node4&#45;&gt;Node5</title>
<path fill="none" stroke="#191970" d="M415.6967,-112.2455C416.2187,-104.9382 416.9504,-94.6944 417.5925,-85.7046"/>
<polygon fill="#191970" stroke="#191970" points="421.0898,-85.8667 418.3112,-75.6427 414.1076,-85.3679 421.0898,-85.8667"/>
</g>
<!-- Node6 -->
<g id="node7" class="node">
<title>Node6</title>
<g id="a_node7"><a xlink:title=" ">
<polygon fill="#ffffff" stroke="#bfbfbf" points="342.5,-56.5 342.5,-75.5 377.5,-75.5 377.5,-56.5 342.5,-56.5"/>
<text text-anchor="middle" x="360" y="-63.5" font-family="Helvetica,sans-Serif" font-size="10.00" fill="#000000">map</text>
</a>
</g>
</g>
<!-- Node4&#45;&gt;Node6 -->
<g id="edge6" class="edge">
<title>Node4&#45;&gt;Node6</title>
<path fill="none" stroke="#191970" d="M405.4197,-112.2455C397.4542,-104.1352 385.9359,-92.4075 376.4921,-82.7919"/>
<polygon fill="#191970" stroke="#191970" points="378.9747,-80.3247 369.4705,-75.6427 373.9805,-85.2297 378.9747,-80.3247"/>
</g>
<!-- Node7 -->
<g id="node8" class="node">
<title>Node7</title>
<g id="a_node8"><a xlink:href="osdk__typedef_8h_source.html" target="_top" xlink:title=" ">
<polygon fill="#ffffff" stroke="#000000" points="465.5,-56.5 465.5,-75.5 548.5,-75.5 548.5,-56.5 465.5,-56.5"/>
<text text-anchor="middle" x="507" y="-63.5" font-family="Helvetica,sans-Serif" font-size="10.00" fill="#000000">osdk_typedef.h</text>
</a>
</g>
</g>
<!-- Node4&#45;&gt;Node7 -->
<g id="edge7" class="edge">
<title>Node4&#45;&gt;Node7</title>
<path fill="none" stroke="#191970" d="M431.0252,-112.2455C445.1408,-103.6534 465.9263,-91.0014 482.1899,-81.1018"/>
<polygon fill="#191970" stroke="#191970" points="484.4363,-83.8319 491.1585,-75.6427 480.7966,-77.8525 484.4363,-83.8319"/>
</g>
<!-- Node8 -->
<g id="node9" class="node">
<title>Node8</title>
<g id="a_node9"><a xlink:title=" ">
<polygon fill="#ffffff" stroke="#bfbfbf" points="481,-.5 481,-19.5 533,-19.5 533,-.5 481,-.5"/>
<text text-anchor="middle" x="507" y="-7.5" font-family="Helvetica,sans-Serif" font-size="10.00" fill="#000000">stddef.h</text>
</a>
</g>
</g>
<!-- Node7&#45;&gt;Node8 -->
<g id="edge8" class="edge">
<title>Node7&#45;&gt;Node8</title>
<path fill="none" stroke="#191970" d="M507,-56.2455C507,-48.9382 507,-38.6944 507,-29.7046"/>
<polygon fill="#191970" stroke="#191970" points="510.5001,-29.6426 507,-19.6427 503.5001,-29.6427 510.5001,-29.6426"/>
</g>
<!-- Node7&#45;&gt;Node9 -->
<g id="edge9" class="edge">
<title>Node7&#45;&gt;Node9</title>
<path fill="none" stroke="#191970" d="M484.4803,-56.3733C463.2628,-47.3032 431.2724,-33.6279 407.5231,-23.4755"/>
<polygon fill="#191970" stroke="#191970" points="408.7967,-20.2136 398.2258,-19.5011 406.0452,-26.6502 408.7967,-20.2136"/>
</g>
<!-- Node10&#45;&gt;Node4 -->
<g id="edge15" class="edge">
<title>Node10&#45;&gt;Node4</title>
<path fill="none" stroke="#191970" d="M730.9925,-171.5757C668.1082,-163.9327 561.8872,-150.115 460.4373,-131.9525"/>
<polygon fill="#191970" stroke="#191970" points="460.7833,-128.4584 450.3202,-130.1237 459.5381,-135.3468 460.7833,-128.4584"/>
</g>
<!-- Node10&#45;&gt;Node7 -->
<g id="edge14" class="edge">
<title>Node10&#45;&gt;Node7</title>
<path fill="none" stroke="#191970" d="M813.2853,-168.4875C843.4015,-156.5581 885.1268,-134.8784 865,-112 845.1025,-89.3823 653.1096,-74.789 558.7827,-68.9264"/>
<polygon fill="#191970" stroke="#191970" points="558.7955,-65.4207 548.6005,-68.3039 558.3683,-72.4077 558.7955,-65.4207"/>
</g>
<!-- Node10&#45;&gt;Node9 -->
<g id="edge12" class="edge">
<title>Node10&#45;&gt;Node9</title>
<path fill="none" stroke="#191970" d="M786.037,-168.4547C785.5562,-154.1474 782.4863,-127.2024 767,-112 715.7575,-61.6972 496.4435,-26.6205 410.6233,-14.5846"/>
<polygon fill="#191970" stroke="#191970" points="410.9885,-11.1019 400.6034,-13.1994 410.0299,-18.036 410.9885,-11.1019"/>
</g>
<!-- Node11 -->
<g id="node12" class="node">
<title>Node11</title>
<g id="a_node12"><a xlink:title=" ">
<polygon fill="#ffffff" stroke="#bfbfbf" points="814.5,-112.5 814.5,-131.5 855.5,-131.5 855.5,-112.5 814.5,-112.5"/>
<text text-anchor="middle" x="835" y="-119.5" font-family="Helvetica,sans-Serif" font-size="10.00" fill="#000000">string</text>
</a>
</g>
</g>
<!-- Node10&#45;&gt;Node11 -->
<g id="edge13" class="edge">
<title>Node10&#45;&gt;Node11</title>
<path fill="none" stroke="#191970" d="M794.5351,-168.2455C801.4912,-160.2958 811.4883,-148.8706 819.8051,-139.3656"/>
<polygon fill="#191970" stroke="#191970" points="822.6116,-141.4732 826.5627,-131.6427 817.3436,-136.8637 822.6116,-141.4732"/>
</g>
<!-- Node12&#45;&gt;Node9 -->
<g id="edge18" class="edge">
<title>Node12&#45;&gt;Node9</title>
<path fill="none" stroke="#191970" d="M188.8693,-168.1768C186.4618,-154.464 184.1621,-129.3222 195,-112 228.1207,-59.0631 299.2203,-31.0772 341.7852,-18.5049"/>
<polygon fill="#191970" stroke="#191970" points="342.7687,-21.8641 351.4379,-15.7735 340.8627,-15.1286 342.7687,-21.8641"/>
</g>
<!-- Node13 -->
<g id="node14" class="node">
<title>Node13</title>
<g id="a_node14"><a xlink:title=" ">
<polygon fill="#ffffff" stroke="#bfbfbf" points="204.5,-112.5 204.5,-131.5 247.5,-131.5 247.5,-112.5 204.5,-112.5"/>
<text text-anchor="middle" x="226" y="-119.5" font-family="Helvetica,sans-Serif" font-size="10.00" fill="#000000">cstdio</text>
</a>
</g>
</g>
<!-- Node12&#45;&gt;Node13 -->
<g id="edge17" class="edge">
<title>Node12&#45;&gt;Node13</title>
<path fill="none" stroke="#191970" d="M197.0965,-168.2455C201.9145,-160.5367 208.7751,-149.5598 214.6032,-140.2348"/>
<polygon fill="#191970" stroke="#191970" points="217.6413,-141.9777 219.9733,-131.6427 211.7053,-138.2677 217.6413,-141.9777"/>
</g>
<!-- Node14&#45;&gt;Node12 -->
<g id="edge38" class="edge">
<title>Node14&#45;&gt;Node12</title>
<path fill="none" stroke="#191970" d="M267.0678,-336.3453C257.7495,-327.6259 244.545,-314.0419 236,-300 215.6563,-266.5694 202.2303,-222.474 195.6815,-197.4854"/>
<polygon fill="#191970" stroke="#191970" points="199.064,-196.5847 193.2259,-187.7436 192.2764,-198.2958 199.064,-196.5847"/>
</g>
<!-- Node15 -->
<g id="node16" class="node">
<title>Node15</title>
<g id="a_node16"><a xlink:href="dji__ack_8hpp.html" target="_top" xlink:title="All DJI OSDK ACK parsing.">
<polygon fill="#ffffff" stroke="#000000" points="245,-280.5 245,-299.5 311,-299.5 311,-280.5 245,-280.5"/>
<text text-anchor="middle" x="278" y="-287.5" font-family="Helvetica,sans-Serif" font-size="10.00" fill="#000000">dji_ack.hpp</text>
</a>
</g>
</g>
<!-- Node14&#45;&gt;Node15 -->
<g id="edge20" class="edge">
<title>Node14&#45;&gt;Node15</title>
<path fill="none" stroke="#191970" d="M278,-336.2455C278,-328.9382 278,-318.6944 278,-309.7046"/>
<polygon fill="#191970" stroke="#191970" points="281.5001,-309.6426 278,-299.6427 274.5001,-309.6427 281.5001,-309.6426"/>
</g>
<!-- Node18 -->
<g id="node19" class="node">
<title>Node18</title>
<g id="a_node19"><a xlink:href="dji__log_8hpp.html" target="_top" xlink:title="Logging mechanism for printing status and error messages to the screen.">
<polygon fill="#ffffff" stroke="#000000" points="575.5,-224.5 575.5,-243.5 638.5,-243.5 638.5,-224.5 575.5,-224.5"/>
<text text-anchor="middle" x="607" y="-231.5" font-family="Helvetica,sans-Serif" font-size="10.00" fill="#000000">dji_log.hpp</text>
</a>
</g>
</g>
<!-- Node14&#45;&gt;Node18 -->
<g id="edge30" class="edge">
<title>Node14&#45;&gt;Node18</title>
<path fill="none" stroke="#191970" d="M306.0504,-336.4509C365.1727,-316.3242 502.6121,-269.5363 569.3258,-246.8253"/>
<polygon fill="#191970" stroke="#191970" points="570.6821,-250.0609 579.0206,-243.5249 568.4262,-243.4343 570.6821,-250.0609"/>
</g>
<!-- Node15&#45;&gt;Node3 -->
<g id="edge21" class="edge">
<title>Node15&#45;&gt;Node3</title>
<path fill="none" stroke="#191970" d="M311.1718,-284.6023C337.4794,-278.7414 373.5957,-266.9533 397,-244 409.6781,-231.5662 416.6254,-212.3458 420.2837,-197.8473"/>
<polygon fill="#191970" stroke="#191970" points="423.748,-198.3901 422.4806,-187.8713 416.9118,-196.8846 423.748,-198.3901"/>
</g>
<!-- Node15&#45;&gt;Node6 -->
<g id="edge29" class="edge">
<title>Node15&#45;&gt;Node6</title>
<path fill="none" stroke="#191970" d="M280.5309,-280.065C283.9174,-267.065 290.2798,-243.6287 297,-224 314.3788,-173.2389 338.8225,-114.9455 351.5493,-85.3797"/>
<polygon fill="#191970" stroke="#191970" points="354.9122,-86.4215 355.6732,-75.854 348.4883,-83.6404 354.9122,-86.4215"/>
</g>
<!-- Node15&#45;&gt;Node12 -->
<g id="edge25" class="edge">
<title>Node15&#45;&gt;Node12</title>
<path fill="none" stroke="#191970" d="M270.5824,-280.4509C255.9435,-261.6054 223.1472,-219.3849 204.5486,-195.4419"/>
<polygon fill="#191970" stroke="#191970" points="207.2974,-193.2751 198.3988,-187.5249 201.7693,-197.5693 207.2974,-193.2751"/>
</g>
<!-- Node16 -->
<g id="node17" class="node">
<title>Node16</title>
<g id="a_node17"><a xlink:href="dji__mission__type_8hpp.html" target="_top" xlink:title="Mission related data struct for DJI OSDK library.">
<polygon fill="#ffffff" stroke="#000000" points="28,-224.5 28,-243.5 136,-243.5 136,-224.5 28,-224.5"/>
<text text-anchor="middle" x="82" y="-231.5" font-family="Helvetica,sans-Serif" font-size="10.00" fill="#000000">dji_mission_type.hpp</text>
</a>
</g>
</g>
<!-- Node15&#45;&gt;Node16 -->
<g id="edge22" class="edge">
<title>Node15&#45;&gt;Node16</title>
<path fill="none" stroke="#191970" d="M244.7513,-280.5004C211.8067,-271.0876 161.1911,-256.626 125.1607,-246.3316"/>
<polygon fill="#191970" stroke="#191970" points="125.9886,-242.9282 115.4118,-243.5462 124.0655,-249.6589 125.9886,-242.9282"/>
</g>
<!-- Node17 -->
<g id="node18" class="node">
<title>Node17</title>
<g id="a_node18"><a xlink:href="dji__version_8hpp.html" target="_top" xlink:title="Drone/SDK Version definition for DJI onboardSDK library.">
<polygon fill="#ffffff" stroke="#000000" points="306,-224.5 306,-243.5 388,-243.5 388,-224.5 306,-224.5"/>
<text text-anchor="middle" x="347" y="-231.5" font-family="Helvetica,sans-Serif" font-size="10.00" fill="#000000">dji_version.hpp</text>
</a>
</g>
</g>
<!-- Node15&#45;&gt;Node17 -->
<g id="edge26" class="edge">
<title>Node15&#45;&gt;Node17</title>
<path fill="none" stroke="#191970" d="M290.0189,-280.2455C300.2098,-271.9746 315.0362,-259.9416 327.0107,-250.2232"/>
<polygon fill="#191970" stroke="#191970" points="329.5598,-252.662 335.1188,-243.6427 325.1486,-247.2268 329.5598,-252.662"/>
</g>
<!-- Node16&#45;&gt;Node1 -->
<g id="edge23" class="edge">
<title>Node16&#45;&gt;Node1</title>
<path fill="none" stroke="#191970" d="M74.8583,-224.2455C69.1556,-216.4564 61.01,-205.3308 54.1375,-195.9439"/>
<polygon fill="#191970" stroke="#191970" points="56.7913,-193.6437 48.0598,-187.6427 51.1432,-197.7789 56.7913,-193.6437"/>
</g>
<!-- Node16&#45;&gt;Node12 -->
<g id="edge24" class="edge">
<title>Node16&#45;&gt;Node12</title>
<path fill="none" stroke="#191970" d="M100.9864,-224.2455C118.1792,-215.4125 143.7238,-202.2887 163.2132,-192.2758"/>
<polygon fill="#191970" stroke="#191970" points="164.9359,-195.3257 172.2312,-187.6427 161.737,-189.0993 164.9359,-195.3257"/>
</g>
<!-- Node17&#45;&gt;Node3 -->
<g id="edge27" class="edge">
<title>Node17&#45;&gt;Node3</title>
<path fill="none" stroke="#191970" d="M360.4124,-224.2455C372.0057,-215.814 388.9748,-203.4729 402.4678,-193.6598"/>
<polygon fill="#191970" stroke="#191970" points="404.7126,-196.355 410.7413,-187.6427 400.5953,-190.6938 404.7126,-196.355"/>
</g>
<!-- Node17&#45;&gt;Node5 -->
<g id="edge28" class="edge">
<title>Node17&#45;&gt;Node5</title>
<path fill="none" stroke="#191970" d="M346.9691,-224.478C347.2885,-203.0347 350.2845,-149.8784 371,-112 377.3396,-100.4081 387.6067,-89.9855 397.0216,-82.0043"/>
<polygon fill="#191970" stroke="#191970" points="399.3377,-84.6336 404.9557,-75.6509 394.9622,-79.1695 399.3377,-84.6336"/>
</g>
<!-- Node19 -->
<g id="node20" class="node">
<title>Node19</title>
<g id="a_node20"><a xlink:href="dji__singleton_8hpp.html" target="_top" xlink:title="Singleton Template Class implementation for use with the DJI OSDK.">
<polygon fill="#ffffff" stroke="#000000" points="668.5,-112.5 668.5,-131.5 757.5,-131.5 757.5,-112.5 668.5,-112.5"/>
<text text-anchor="middle" x="713" y="-119.5" font-family="Helvetica,sans-Serif" font-size="10.00" fill="#000000">dji_singleton.hpp</text>
</a>
</g>
</g>
<!-- Node18&#45;&gt;Node19 -->
<g id="edge31" class="edge">
<title>Node18&#45;&gt;Node19</title>
<path fill="none" stroke="#191970" d="M619.0576,-224.2816C629.9266,-215.305 646.13,-201.3756 659,-188 673.8202,-172.5976 689.0993,-153.5763 699.606,-139.9168"/>
<polygon fill="#191970" stroke="#191970" points="702.5051,-141.8865 705.7685,-131.8068 696.9316,-137.6514 702.5051,-141.8865"/>
</g>
<!-- Node20 -->
<g id="node21" class="node">
<title>Node20</title>
<g id="a_node21"><a xlink:href="dji__platform_8hpp.html" target="_top" xlink:title="Vehicle API for DJI onboardSDK library.">
<polygon fill="#ffffff" stroke="#000000" points="564,-168.5 564,-187.5 650,-187.5 650,-168.5 564,-168.5"/>
<text text-anchor="middle" x="607" y="-175.5" font-family="Helvetica,sans-Serif" font-size="10.00" fill="#000000">dji_platform.hpp</text>
</a>
</g>
</g>
<!-- Node18&#45;&gt;Node20 -->
<g id="edge32" class="edge">
<title>Node18&#45;&gt;Node20</title>
<path fill="none" stroke="#191970" d="M607,-224.2455C607,-216.9382 607,-206.6944 607,-197.7046"/>
<polygon fill="#191970" stroke="#191970" points="610.5001,-197.6426 607,-187.6427 603.5001,-197.6427 610.5001,-197.6426"/>
</g>
<!-- Node20&#45;&gt;Node19 -->
<g id="edge35" class="edge">
<title>Node20&#45;&gt;Node19</title>
<path fill="none" stroke="#191970" d="M625.4638,-168.2455C642.1074,-159.4527 666.7993,-146.4079 685.7192,-136.4125"/>
<polygon fill="#191970" stroke="#191970" points="687.5408,-139.4086 694.7478,-131.6427 684.2709,-133.2193 687.5408,-139.4086"/>
</g>
<!-- Node21 -->
<g id="node22" class="node">
<title>Node21</title>
<g id="a_node22"><a xlink:href="osdk__platform_8h.html" target="_top" xlink:title="This is the header file for define OSDK platform interfaces.">
<polygon fill="#ffffff" stroke="#000000" points="564,-112.5 564,-131.5 650,-131.5 650,-112.5 564,-112.5"/>
<text text-anchor="middle" x="607" y="-119.5" font-family="Helvetica,sans-Serif" font-size="10.00" fill="#000000">osdk_platform.h</text>
</a>
</g>
</g>
<!-- Node20&#45;&gt;Node21 -->
<g id="edge33" class="edge">
<title>Node20&#45;&gt;Node21</title>
<path fill="none" stroke="#191970" d="M607,-168.2455C607,-160.9382 607,-150.6944 607,-141.7046"/>
<polygon fill="#191970" stroke="#191970" points="610.5001,-141.6426 607,-131.6427 603.5001,-141.6427 610.5001,-141.6426"/>
</g>
<!-- Node22 -->
<g id="node23" class="node">
<title>Node22</title>
<g id="a_node23"><a xlink:href="osdk__logger_8h.html" target="_top" xlink:title="This is the header file for &quot;osdk_logger.c&quot;, defining the structure and (exported) function prototype...">
<polygon fill="#ffffff" stroke="#000000" points="468.5,-112.5 468.5,-131.5 545.5,-131.5 545.5,-112.5 468.5,-112.5"/>
<text text-anchor="middle" x="507" y="-119.5" font-family="Helvetica,sans-Serif" font-size="10.00" fill="#000000">osdk_logger.h</text>
</a>
</g>
</g>
<!-- Node20&#45;&gt;Node22 -->
<g id="edge36" class="edge">
<title>Node20&#45;&gt;Node22</title>
<path fill="none" stroke="#191970" d="M589.5813,-168.2455C573.9515,-159.4928 550.7981,-146.527 532.9815,-136.5496"/>
<polygon fill="#191970" stroke="#191970" points="534.6543,-133.475 524.2191,-131.6427 531.234,-139.5825 534.6543,-133.475"/>
</g>
<!-- Node21&#45;&gt;Node7 -->
<g id="edge34" class="edge">
<title>Node21&#45;&gt;Node7</title>
<path fill="none" stroke="#191970" d="M589.5813,-112.2455C573.9515,-103.4928 550.7981,-90.527 532.9815,-80.5496"/>
<polygon fill="#191970" stroke="#191970" points="534.6543,-77.475 524.2191,-75.6427 531.234,-83.5825 534.6543,-77.475"/>
</g>
<!-- Node22&#45;&gt;Node7 -->
<g id="edge37" class="edge">
<title>Node22&#45;&gt;Node7</title>
<path fill="none" stroke="#191970" d="M507,-112.2455C507,-104.9382 507,-94.6944 507,-85.7046"/>
<polygon fill="#191970" stroke="#191970" points="510.5001,-85.6426 507,-75.6427 503.5001,-85.6427 510.5001,-85.6426"/>
</g>
</g>
</svg>
        <g id="navigator" transform="translate(0 0)" fill="#404254">
                <rect fill="#f2f5e9" fill-opacity="0.5" stroke="#606060" stroke-width=".5" x="0" y="0" width="60" height="60"/>
                <use id="zoomplus" xlink:href="#zoomPlus" x="17" y="9" onmousedown="handleZoom(evt,'in')"/>
                <use id="zoomminus" xlink:href="#zoomMin" x="42" y="9" onmousedown="handleZoom(evt,'out')"/>
                <use id="reset" xlink:href="#resetDef" x="30" y="36" onmousedown="handleReset()"/>
                <g id="arrowUp" xlink:href="#dirArrow" transform="translate(30 24)" onmousedown="handlePan(0,-1)">
                  <use xlink:href="#rim" fill="#404040">
                        <set attributeName="fill" to="#808080" begin="arrowUp.mouseover" end="arrowUp.mouseout"/>
                  </use>
                  <path fill="none" stroke="white" stroke-width="1.5" d="M0,-3.0v7 M-2.5,-0.5L0,-3.0L2.5,-0.5"/>
                </g>
                <g id="arrowRight" xlink:href="#dirArrow" transform="rotate(90) translate(36 -43)" onmousedown="handlePan(1,0)">
                  <use xlink:href="#rim" fill="#404040">
                        <set attributeName="fill" to="#808080" begin="arrowRight.mouseover" end="arrowRight.mouseout"/>
                  </use>
                  <path fill="none" stroke="white" stroke-width="1.5" d="M0,-3.0v7 M-2.5,-0.5L0,-3.0L2.5,-0.5"/>
                </g>
                <g id="arrowDown" xlink:href="#dirArrow" transform="rotate(180) translate(-30 -48)" onmousedown="handlePan(0,1)">
                  <use xlink:href="#rim" fill="#404040">
                        <set attributeName="fill" to="#808080" begin="arrowDown.mouseover" end="arrowDown.mouseout"/>
                  </use>
                  <path fill="none" stroke="white" stroke-width="1.5" d="M0,-3.0v7 M-2.5,-0.5L0,-3.0L2.5,-0.5"/>
                </g>
                <g id="arrowLeft" xlink:href="#dirArrow" transform="rotate(270) translate(-36 17)" onmousedown="handlePan(-1,0)">
                  <use xlink:href="#rim" fill="#404040">
                        <set attributeName="fill" to="#808080" begin="arrowLeft.mouseover" end="arrowLeft.mouseout"/>
                  </use>
                  <path fill="none" stroke="white" stroke-width="1.5" d="M0,-3.0v7 M-2.5,-0.5L0,-3.0L2.5,-0.5"/>
                </g>
        </g>
        <svg viewBox="0 0 15 15" width="100%" height="30px" preserveAspectRatio="xMaxYMin meet">
         <g id="arrow_out" transform="scale(0.3 0.3)">
          <a xlink:href="dji__camera__manager_8hpp__incl_org.svg" target="_base">
           <rect id="button" ry="5" rx="5" y="6" x="6" height="38" width="38"
                fill="#f2f5e9" fill-opacity="0.5" stroke="#606060" stroke-width="1.0"/>
           <path id="arrow"
             d="M 11.500037,31.436501 C 11.940474,20.09759 22.043105,11.32322 32.158766,21.979434 L 37.068811,17.246167 C 37.068811,17.246167 37.088388,32 37.088388,32 L 22.160133,31.978069 C 22.160133,31.978069 26.997745,27.140456 26.997745,27.140456 C 18.528582,18.264221 13.291696,25.230495 11.500037,31.436501 z"
             style="fill:#404040;"/>
          </a>
         </g>
        </svg>
</svg>
