<?xml version="1.0" encoding="UTF-8" standalone="no"?>
<!DOCTYPE svg PUBLIC "-//W3C//DTD SVG 1.1//EN"
 "http://www.w3.org/Graphics/SVG/1.1/DTD/svg11.dtd">
<!-- Generated by graphviz version 2.38.0 (20140413.2041)
 -->
<!-- Title: osdk&#45;core/api/inc/dji_virtual_rc.hpp Pages: 1 -->
<svg width="450pt" height="319pt"
 viewBox="0.00 0.00 449.74 319.00" xmlns="http://www.w3.org/2000/svg" xmlns:xlink="http://www.w3.org/1999/xlink">
<g id="graph0" class="graph" transform="scale(1 1) rotate(0) translate(4 315)">
<title>osdk&#45;core/api/inc/dji_virtual_rc.hpp</title>
<polygon fill="white" stroke="none" points="-4,4 -4,-315 445.736,-315 445.736,4 -4,4"/>
<!-- Node1 -->
<g id="node1" class="node"><title>Node1</title>
<polygon fill="#bfbfbf" stroke="black" points="261,-280.5 261,-310.5 365,-310.5 365,-280.5 261,-280.5"/>
<text text-anchor="start" x="269" y="-298.5" font-family="Helvetica,sans-Serif" font-size="10.00">osdk&#45;core/api/inc/dji</text>
<text text-anchor="middle" x="313" y="-287.5" font-family="Helvetica,sans-Serif" font-size="10.00">_virtual_rc.hpp</text>
</g>
<!-- Node2 -->
<g id="node2" class="node"><title>Node2</title>
<g id="a_node2"><a xlink:href="dji__ack_8hpp.html" target="_top" xlink:title="All DJI OSDK ACK parsing. ">
<polygon fill="white" stroke="black" points="124,-224.5 124,-243.5 190,-243.5 190,-224.5 124,-224.5"/>
<text text-anchor="middle" x="157" y="-231.5" font-family="Helvetica,sans-Serif" font-size="10.00">dji_ack.hpp</text>
</a>
</g>
</g>
<!-- Node1&#45;&gt;Node2 -->
<g id="edge1" class="edge"><title>Node1&#45;&gt;Node2</title>
<path fill="none" stroke="midnightblue" d="M276.03,-280.399C249.622,-270.327 214.443,-256.909 189.188,-247.277"/>
<polygon fill="midnightblue" stroke="midnightblue" points="190.29,-243.951 179.699,-243.658 187.796,-250.492 190.29,-243.951"/>
</g>
<!-- Node7 -->
<g id="node7" class="node"><title>Node7</title>
<g id="a_node7"><a xlink:href="dji__type_8hpp.html" target="_top" xlink:title="Data type and Data Structure definitions for use throughout DJI OSDK. ">
<polygon fill="white" stroke="black" points="251.5,-112.5 251.5,-131.5 320.5,-131.5 320.5,-112.5 251.5,-112.5"/>
<text text-anchor="middle" x="286" y="-119.5" font-family="Helvetica,sans-Serif" font-size="10.00">dji_type.hpp</text>
</a>
</g>
</g>
<!-- Node1&#45;&gt;Node7 -->
<g id="edge16" class="edge"><title>Node1&#45;&gt;Node7</title>
<path fill="none" stroke="midnightblue" d="M365.314,-286.087C406.784,-276.725 455.14,-258.189 438,-224 414.929,-177.98 359.913,-149.691 322.797,-135.164"/>
<polygon fill="midnightblue" stroke="midnightblue" points="323.903,-131.84 313.311,-131.596 321.439,-138.392 323.903,-131.84"/>
</g>
<!-- Node12 -->
<g id="node12" class="node"><title>Node12</title>
<polygon fill="white" stroke="#bfbfbf" points="317.5,-224.5 317.5,-243.5 428.5,-243.5 428.5,-224.5 317.5,-224.5"/>
<text text-anchor="middle" x="373" y="-231.5" font-family="Helvetica,sans-Serif" font-size="10.00">dji_open_protocol.hpp</text>
</g>
<!-- Node1&#45;&gt;Node12 -->
<g id="edge15" class="edge"><title>Node1&#45;&gt;Node12</title>
<path fill="none" stroke="midnightblue" d="M327.219,-280.399C336.208,-271.486 347.838,-259.952 357.127,-250.741"/>
<polygon fill="midnightblue" stroke="midnightblue" points="359.633,-253.184 364.269,-243.658 354.704,-248.214 359.633,-253.184"/>
</g>
<!-- Node13 -->
<g id="node13" class="node"><title>Node13</title>
<g id="a_node13"><a xlink:href="dji__telemetry_8hpp.html" target="_top" xlink:title="Enumeration of all telemetry data types, structures and maps. ">
<polygon fill="white" stroke="black" points="208.5,-224.5 208.5,-243.5 299.5,-243.5 299.5,-224.5 208.5,-224.5"/>
<text text-anchor="middle" x="254" y="-231.5" font-family="Helvetica,sans-Serif" font-size="10.00">dji_telemetry.hpp</text>
</a>
</g>
</g>
<!-- Node1&#45;&gt;Node13 -->
<g id="edge17" class="edge"><title>Node1&#45;&gt;Node13</title>
<path fill="none" stroke="midnightblue" d="M299.018,-280.399C290.268,-271.575 278.971,-260.183 269.883,-251.018"/>
<polygon fill="midnightblue" stroke="midnightblue" points="272.112,-248.294 262.585,-243.658 267.141,-253.223 272.112,-248.294"/>
</g>
<!-- Node3 -->
<g id="node3" class="node"><title>Node3</title>
<g id="a_node3"><a xlink:href="dji__command_8hpp.html" target="_top" xlink:title="All DJI OSDK OpenProtocol Command IDs. ">
<polygon fill="white" stroke="black" points="64.5,-112.5 64.5,-131.5 157.5,-131.5 157.5,-112.5 64.5,-112.5"/>
<text text-anchor="middle" x="111" y="-119.5" font-family="Helvetica,sans-Serif" font-size="10.00">dji_command.hpp</text>
</a>
</g>
</g>
<!-- Node2&#45;&gt;Node3 -->
<g id="edge2" class="edge"><title>Node2&#45;&gt;Node3</title>
<path fill="none" stroke="midnightblue" d="M150.922,-224.396C144.929,-215.595 135.843,-201.355 130,-188 123.373,-172.853 118.294,-154.733 115.061,-141.477"/>
<polygon fill="midnightblue" stroke="midnightblue" points="118.453,-140.611 112.787,-131.658 111.634,-142.19 118.453,-140.611"/>
</g>
<!-- Node6 -->
<g id="node6" class="node"><title>Node6</title>
<g id="a_node6"><a xlink:href="dji__mission__type_8hpp.html" target="_top" xlink:title="Mission related data struct for DJI OSDK library. ">
<polygon fill="white" stroke="black" points="231,-168.5 231,-187.5 339,-187.5 339,-168.5 231,-168.5"/>
<text text-anchor="middle" x="285" y="-175.5" font-family="Helvetica,sans-Serif" font-size="10.00">dji_mission_type.hpp</text>
</a>
</g>
</g>
<!-- Node2&#45;&gt;Node6 -->
<g id="edge6" class="edge"><title>Node2&#45;&gt;Node6</title>
<path fill="none" stroke="midnightblue" d="M177.282,-224.444C198.347,-215.557 231.517,-201.563 255.486,-191.451"/>
<polygon fill="midnightblue" stroke="midnightblue" points="256.96,-194.628 264.813,-187.516 254.239,-188.179 256.96,-194.628"/>
</g>
<!-- Node2&#45;&gt;Node7 -->
<g id="edge10" class="edge"><title>Node2&#45;&gt;Node7</title>
<path fill="none" stroke="midnightblue" d="M164.971,-224.103C176.81,-211.111 200.013,-186.486 222,-168 235.218,-156.887 251.093,-145.713 263.725,-137.279"/>
<polygon fill="midnightblue" stroke="midnightblue" points="265.833,-140.082 272.266,-131.663 261.987,-134.233 265.833,-140.082"/>
</g>
<!-- Node9 -->
<g id="node9" class="node"><title>Node9</title>
<g id="a_node9"><a xlink:href="dji__version_8hpp.html" target="_top" xlink:title="Drone/SDK Version definition for DJI onboardSDK library. ">
<polygon fill="white" stroke="black" points="1,-168.5 1,-187.5 83,-187.5 83,-168.5 1,-168.5"/>
<text text-anchor="middle" x="42" y="-175.5" font-family="Helvetica,sans-Serif" font-size="10.00">dji_version.hpp</text>
</a>
</g>
</g>
<!-- Node2&#45;&gt;Node9 -->
<g id="edge11" class="edge"><title>Node2&#45;&gt;Node9</title>
<path fill="none" stroke="midnightblue" d="M138.778,-224.444C120.104,-215.675 90.844,-201.935 69.3826,-191.858"/>
<polygon fill="midnightblue" stroke="midnightblue" points="70.6763,-188.599 60.1368,-187.516 67.7009,-194.935 70.6763,-188.599"/>
</g>
<!-- Node11 -->
<g id="node11" class="node"><title>Node11</title>
<polygon fill="white" stroke="#bfbfbf" points="139.5,-168.5 139.5,-187.5 174.5,-187.5 174.5,-168.5 139.5,-168.5"/>
<text text-anchor="middle" x="157" y="-175.5" font-family="Helvetica,sans-Serif" font-size="10.00">map</text>
</g>
<!-- Node2&#45;&gt;Node11 -->
<g id="edge14" class="edge"><title>Node2&#45;&gt;Node11</title>
<path fill="none" stroke="midnightblue" d="M157,-224.083C157,-217.006 157,-206.861 157,-197.986"/>
<polygon fill="midnightblue" stroke="midnightblue" points="160.5,-197.751 157,-187.751 153.5,-197.751 160.5,-197.751"/>
</g>
<!-- Node4 -->
<g id="node4" class="node"><title>Node4</title>
<g id="a_node4"><a xlink:href="dji__error_8hpp.html" target="_top" xlink:title="All DJI OSDK OpenProtocol ACK Error Codes. ">
<polygon fill="white" stroke="black" points="139,-56.5 139,-75.5 209,-75.5 209,-56.5 139,-56.5"/>
<text text-anchor="middle" x="174" y="-63.5" font-family="Helvetica,sans-Serif" font-size="10.00">dji_error.hpp</text>
</a>
</g>
</g>
<!-- Node3&#45;&gt;Node4 -->
<g id="edge3" class="edge"><title>Node3&#45;&gt;Node4</title>
<path fill="none" stroke="midnightblue" d="M121.122,-112.324C130.526,-104.263 144.744,-92.0765 156.069,-82.3695"/>
<polygon fill="midnightblue" stroke="midnightblue" points="158.379,-84.9993 163.694,-75.8339 153.823,-79.6844 158.379,-84.9993"/>
</g>
<!-- Node5 -->
<g id="node5" class="node"><title>Node5</title>
<polygon fill="white" stroke="#bfbfbf" points="149.5,-0.5 149.5,-19.5 198.5,-19.5 198.5,-0.5 149.5,-0.5"/>
<text text-anchor="middle" x="174" y="-7.5" font-family="Helvetica,sans-Serif" font-size="10.00">stdint.h</text>
</g>
<!-- Node3&#45;&gt;Node5 -->
<g id="edge5" class="edge"><title>Node3&#45;&gt;Node5</title>
<path fill="none" stroke="midnightblue" d="M112.137,-112.476C114.151,-99.531 119.196,-74.4699 130,-56 136.505,-44.8797 146.351,-34.4572 155.081,-26.4485"/>
<polygon fill="midnightblue" stroke="midnightblue" points="157.435,-29.0399 162.657,-19.8215 152.826,-23.7712 157.435,-29.0399"/>
</g>
<!-- Node4&#45;&gt;Node5 -->
<g id="edge4" class="edge"><title>Node4&#45;&gt;Node5</title>
<path fill="none" stroke="midnightblue" d="M174,-56.083C174,-49.0059 174,-38.8611 174,-29.9865"/>
<polygon fill="midnightblue" stroke="midnightblue" points="177.5,-29.751 174,-19.7511 170.5,-29.7511 177.5,-29.751"/>
</g>
<!-- Node6&#45;&gt;Node7 -->
<g id="edge7" class="edge"><title>Node6&#45;&gt;Node7</title>
<path fill="none" stroke="midnightblue" d="M285.165,-168.083C285.296,-161.006 285.484,-150.861 285.648,-141.986"/>
<polygon fill="midnightblue" stroke="midnightblue" points="289.152,-141.814 285.838,-131.751 282.153,-141.685 289.152,-141.814"/>
</g>
<!-- Node7&#45;&gt;Node5 -->
<g id="edge9" class="edge"><title>Node7&#45;&gt;Node5</title>
<path fill="none" stroke="midnightblue" d="M277.212,-112.368C258.401,-93.8941 214.007,-50.2926 190.03,-26.7436"/>
<polygon fill="midnightblue" stroke="midnightblue" points="192.335,-24.1015 182.748,-19.5914 187.43,-29.0956 192.335,-24.1015"/>
</g>
<!-- Node8 -->
<g id="node8" class="node"><title>Node8</title>
<polygon fill="white" stroke="#bfbfbf" points="265.5,-56.5 265.5,-75.5 308.5,-75.5 308.5,-56.5 265.5,-56.5"/>
<text text-anchor="middle" x="287" y="-63.5" font-family="Helvetica,sans-Serif" font-size="10.00">cstdio</text>
</g>
<!-- Node7&#45;&gt;Node8 -->
<g id="edge8" class="edge"><title>Node7&#45;&gt;Node8</title>
<path fill="none" stroke="midnightblue" d="M286.165,-112.083C286.296,-105.006 286.484,-94.8611 286.648,-85.9865"/>
<polygon fill="midnightblue" stroke="midnightblue" points="290.152,-85.8142 286.838,-75.7511 283.153,-85.6845 290.152,-85.8142"/>
</g>
<!-- Node9&#45;&gt;Node3 -->
<g id="edge12" class="edge"><title>Node9&#45;&gt;Node3</title>
<path fill="none" stroke="midnightblue" d="M53.086,-168.324C63.486,-160.185 79.2606,-147.839 91.7216,-138.087"/>
<polygon fill="midnightblue" stroke="midnightblue" points="93.9943,-140.753 99.7122,-131.834 89.6801,-135.241 93.9943,-140.753"/>
</g>
<!-- Node10 -->
<g id="node10" class="node"><title>Node10</title>
<polygon fill="white" stroke="#bfbfbf" points="0,-112.5 0,-131.5 46,-131.5 46,-112.5 0,-112.5"/>
<text text-anchor="middle" x="23" y="-119.5" font-family="Helvetica,sans-Serif" font-size="10.00">cstdint</text>
</g>
<!-- Node9&#45;&gt;Node10 -->
<g id="edge13" class="edge"><title>Node9&#45;&gt;Node10</title>
<path fill="none" stroke="midnightblue" d="M38.8625,-168.083C36.3171,-160.849 32.6438,-150.409 29.4729,-141.397"/>
<polygon fill="midnightblue" stroke="midnightblue" points="32.6998,-140.023 26.0791,-131.751 26.0966,-142.346 32.6998,-140.023"/>
</g>
<!-- Node13&#45;&gt;Node7 -->
<g id="edge18" class="edge"><title>Node13&#45;&gt;Node7</title>
<path fill="none" stroke="midnightblue" d="M294.147,-224.429C313.975,-217.953 336.138,-206.83 348,-188 360.656,-167.91 336.329,-148.726 314.532,-136.476"/>
<polygon fill="midnightblue" stroke="midnightblue" points="315.935,-133.258 305.46,-131.668 312.657,-139.443 315.935,-133.258"/>
</g>
</g>
</svg>
