<?xml version="1.0" encoding="UTF-8" standalone="no"?>
<!DOCTYPE svg PUBLIC "-//W3C//DTD SVG 1.1//EN"
 "http://www.w3.org/Graphics/SVG/1.1/DTD/svg11.dtd">
<!-- Generated by graphviz version 2.38.0 (20140413.2041)
 -->
<!-- Title: osdk&#45;core/api/src/dji_mobile_communication.cpp Pages: 1 -->
<!--zoomable 431 -->
<svg id="main" version="1.1" xmlns="http://www.w3.org/2000/svg" xmlns:xlink="http://www.w3.org/1999/xlink" xml:space="preserve" onload="init(evt)">
<style type="text/css"><![CDATA[
.edge:hover path { stroke: red; }
.edge:hover polygon { stroke: red; fill: red; }
]]></style>
<script type="text/javascript"><![CDATA[
var edges = document.getElementsByTagName('g');
if (edges && edges.length) {
  for (var i=0;i<edges.length;i++) {
    if (edges[i].id.substr(0,4)=='edge') {
      edges[i].setAttribute('class','edge');
    }
  }
}
]]></script>
        <defs>
                <circle id="rim" cx="0" cy="0" r="7"/>
                <circle id="rim2" cx="0" cy="0" r="3.5"/>
                <g id="zoomPlus">
                        <use xlink:href="#rim" fill="#404040">
                                <set attributeName="fill" to="#808080" begin="zoomplus.mouseover" end="zoomplus.mouseout"/>
                        </use>
                        <path d="M-4,0h8M0,-4v8" fill="none" stroke="white" stroke-width="1.5" pointer-events="none"/>
                </g>
                <g id="zoomMin">
                        <use xlink:href="#rim" fill="#404040">
                                <set attributeName="fill" to="#808080" begin="zoomminus.mouseover" end="zoomminus.mouseout"/>
                        </use>
                        <path d="M-4,0h8" fill="none" stroke="white" stroke-width="1.5" pointer-events="none"/>
                </g>
                <g id="dirArrow">
                        <path fill="none" stroke="white" stroke-width="1.5" d="M0,-3.0v7 M-2.5,-0.5L0,-3.0L2.5,-0.5"/>
                </g>
               <g id="resetDef">
                       <use xlink:href="#rim2" fill="#404040">
                               <set attributeName="fill" to="#808080" begin="reset.mouseover" end="reset.mouseout"/>
                       </use>
               </g>
        </defs>

<script type="text/javascript">
var viewWidth = 1605;
var viewHeight = 431;
var sectionId = 'dynsection-0';
</script>
<script xlink:href="svgpan.js"/>
<svg id="graph" class="graph">
<g id="viewport">
<title>osdk&#45;core/api/src/dji_mobile_communication.cpp</title>
<polygon fill="white" stroke="none" points="-4,4 -4,-427 1601,-427 1601,4 -4,4"/>
<!-- Node1 -->
<g id="node1" class="node"><title>Node1</title>
<polygon fill="#bfbfbf" stroke="black" points="595,-392.5 595,-422.5 735,-422.5 735,-392.5 595,-392.5"/>
<text text-anchor="start" x="603" y="-410.5" font-family="Helvetica,sans-Serif" font-size="10.00">osdk&#45;core/api/src/dji</text>
<text text-anchor="middle" x="665" y="-399.5" font-family="Helvetica,sans-Serif" font-size="10.00">_mobile_communication.cpp</text>
</g>
<!-- Node2 -->
<g id="node2" class="node"><title>Node2</title>
<g id="a_node2"><a xlink:href="dji__mobile__communication_8hpp.html" target="_top" xlink:title="Implementation of DJI Mobile&#45;Onboard SDK Communication (MOC) ">
<polygon fill="white" stroke="black" points="0,-280.5 0,-299.5 150,-299.5 150,-280.5 0,-280.5"/>
<text text-anchor="middle" x="75" y="-287.5" font-family="Helvetica,sans-Serif" font-size="10.00">dji_mobile_communication.hpp</text>
</a>
</g>
</g>
<!-- Node1&#45;&gt;Node2 -->
<g id="edge1" class="edge"><title>Node1&#45;&gt;Node2</title>
<path fill="none" stroke="midnightblue" d="M594.711,-392.74C475.271,-369.358 235.283,-322.377 128.431,-301.46"/>
<polygon fill="midnightblue" stroke="midnightblue" points="129.001,-298.005 118.515,-299.519 127.656,-304.875 129.001,-298.005"/>
</g>
<!-- Node5 -->
<g id="node5" class="node"><title>Node5</title>
<g id="a_node5"><a xlink:href="dji__vehicle_8hpp.html" target="_top" xlink:title="Vehicle API for DJI onboardSDK library. ">
<polygon fill="white" stroke="black" points="833.5,-336.5 833.5,-355.5 914.5,-355.5 914.5,-336.5 833.5,-336.5"/>
<text text-anchor="middle" x="874" y="-343.5" font-family="Helvetica,sans-Serif" font-size="10.00">dji_vehicle.hpp</text>
</a>
</g>
</g>
<!-- Node1&#45;&gt;Node5 -->
<g id="edge4" class="edge"><title>Node1&#45;&gt;Node5</title>
<path fill="none" stroke="midnightblue" d="M714.265,-392.475C750.952,-382.03 800.384,-367.958 834.494,-358.247"/>
<polygon fill="midnightblue" stroke="midnightblue" points="835.461,-361.611 844.12,-355.506 833.544,-354.878 835.461,-361.611"/>
</g>
<!-- Node3 -->
<g id="node3" class="node"><title>Node3</title>
<g id="a_node3"><a xlink:href="dji__vehicle__callback_8hpp.html" target="_top" xlink:title="Type definition for new Vehicle&#45;style callbacks. ">
<polygon fill="white" stroke="black" points="357,-112.5 357,-131.5 479,-131.5 479,-112.5 357,-112.5"/>
<text text-anchor="middle" x="418" y="-119.5" font-family="Helvetica,sans-Serif" font-size="10.00">dji_vehicle_callback.hpp</text>
</a>
</g>
</g>
<!-- Node2&#45;&gt;Node3 -->
<g id="edge2" class="edge"><title>Node2&#45;&gt;Node3</title>
<path fill="none" stroke="midnightblue" d="M85.0947,-280.322C111.136,-258.36 183.424,-200.047 253,-168 287.339,-152.183 328.337,-140.968 360.876,-133.69"/>
<polygon fill="midnightblue" stroke="midnightblue" points="361.658,-137.102 370.685,-131.557 360.17,-130.262 361.658,-137.102"/>
</g>
<!-- Node4 -->
<g id="node4" class="node"><title>Node4</title>
<polygon fill="white" stroke="#bfbfbf" points="317.5,-56.5 317.5,-75.5 428.5,-75.5 428.5,-56.5 317.5,-56.5"/>
<text text-anchor="middle" x="373" y="-63.5" font-family="Helvetica,sans-Serif" font-size="10.00">dji_open_protocol.hpp</text>
</g>
<!-- Node3&#45;&gt;Node4 -->
<g id="edge3" class="edge"><title>Node3&#45;&gt;Node4</title>
<path fill="none" stroke="midnightblue" d="M410.569,-112.083C404.147,-104.377 394.694,-93.0333 386.878,-83.6531"/>
<polygon fill="midnightblue" stroke="midnightblue" points="389.383,-81.1927 380.293,-75.7511 384.006,-85.674 389.383,-81.1927"/>
</g>
<!-- Node5&#45;&gt;Node2 -->
<g id="edge50" class="edge"><title>Node5&#45;&gt;Node2</title>
<path fill="none" stroke="midnightblue" d="M833.141,-342.948C724.276,-337.363 418.193,-320.9 164,-300 162.878,-299.908 161.748,-299.813 160.611,-299.717"/>
<polygon fill="midnightblue" stroke="midnightblue" points="160.512,-296.195 150.245,-298.809 159.901,-303.169 160.512,-296.195"/>
</g>
<!-- Node5&#45;&gt;Node3 -->
<g id="edge59" class="edge"><title>Node5&#45;&gt;Node3</title>
<path fill="none" stroke="midnightblue" d="M833.171,-344.575C714.135,-342.345 371.94,-328.563 310,-244 279.282,-202.062 349.039,-157.683 390.328,-136.194"/>
<polygon fill="midnightblue" stroke="midnightblue" points="392.057,-139.242 399.397,-131.602 388.895,-132.997 392.057,-139.242"/>
</g>
<!-- Node5&#45;&gt;Node4 -->
<g id="edge51" class="edge"><title>Node5&#45;&gt;Node4</title>
<path fill="none" stroke="midnightblue" d="M833.2,-345.333C712.041,-345.81 356.205,-343.384 250,-300 208.585,-283.083 164.993,-264.498 184,-224 217.516,-152.588 301.237,-102.421 345.138,-80.0706"/>
<polygon fill="midnightblue" stroke="midnightblue" points="346.728,-83.1891 354.123,-75.6025 343.611,-76.9213 346.728,-83.1891"/>
</g>
<!-- Node6 -->
<g id="node6" class="node"><title>Node6</title>
<polygon fill="white" stroke="#bfbfbf" points="1551,-112.5 1551,-131.5 1597,-131.5 1597,-112.5 1551,-112.5"/>
<text text-anchor="middle" x="1574" y="-119.5" font-family="Helvetica,sans-Serif" font-size="10.00">cstdint</text>
</g>
<!-- Node5&#45;&gt;Node6 -->
<g id="edge5" class="edge"><title>Node5&#45;&gt;Node6</title>
<path fill="none" stroke="midnightblue" d="M914.675,-344.606C1050.93,-342.965 1485.64,-335.007 1537,-300 1582.5,-268.983 1577.93,-241.731 1590,-188 1593.58,-172.074 1588.41,-154.058 1583.02,-141.039"/>
<polygon fill="midnightblue" stroke="midnightblue" points="1586.15,-139.452 1578.81,-131.804 1579.78,-142.355 1586.15,-139.452"/>
</g>
<!-- Node7 -->
<g id="node7" class="node"><title>Node7</title>
<g id="a_node7"><a xlink:href="dji__broadcast_8hpp.html" target="_top" xlink:title="Broadcast Telemetry API for DJI onboardSDK library. ">
<polygon fill="white" stroke="black" points="440.5,-224.5 440.5,-243.5 533.5,-243.5 533.5,-224.5 440.5,-224.5"/>
<text text-anchor="middle" x="487" y="-231.5" font-family="Helvetica,sans-Serif" font-size="10.00">dji_broadcast.hpp</text>
</a>
</g>
</g>
<!-- Node5&#45;&gt;Node7 -->
<g id="edge6" class="edge"><title>Node5&#45;&gt;Node7</title>
<path fill="none" stroke="midnightblue" d="M833.171,-342.305C779.89,-337.853 684.335,-326.636 607,-300 570.216,-287.331 531.249,-264.172 508.034,-249.192"/>
<polygon fill="midnightblue" stroke="midnightblue" points="509.945,-246.26 499.664,-243.703 506.107,-252.114 509.945,-246.26"/>
</g>
<!-- Node9 -->
<g id="node9" class="node"><title>Node9</title>
<g id="a_node9"><a xlink:href="dji__type_8hpp.html" target="_top" xlink:title="Data type and Data Structure definitions for use throughout DJI OSDK. ">
<polygon fill="white" stroke="black" points="930.5,-112.5 930.5,-131.5 999.5,-131.5 999.5,-112.5 930.5,-112.5"/>
<text text-anchor="middle" x="965" y="-119.5" font-family="Helvetica,sans-Serif" font-size="10.00">dji_type.hpp</text>
</a>
</g>
</g>
<!-- Node5&#45;&gt;Node9 -->
<g id="edge58" class="edge"><title>Node5&#45;&gt;Node9</title>
<path fill="none" stroke="midnightblue" d="M841.815,-336.488C823.461,-329.801 801.984,-318.45 791,-300 760.989,-249.591 755.083,-214.387 791,-168 806.717,-147.701 874.122,-134.905 920.272,-128.353"/>
<polygon fill="midnightblue" stroke="midnightblue" points="920.914,-131.798 930.347,-126.973 919.964,-124.863 920.914,-131.798"/>
</g>
<!-- Node12 -->
<g id="node12" class="node"><title>Node12</title>
<g id="a_node12"><a xlink:href="dji__camera_8hpp.html" target="_top" xlink:title="Camera/Gimbal API for DJI onboardSDK library. ">
<polygon fill="white" stroke="black" points="1229.5,-168.5 1229.5,-187.5 1312.5,-187.5 1312.5,-168.5 1229.5,-168.5"/>
<text text-anchor="middle" x="1271" y="-175.5" font-family="Helvetica,sans-Serif" font-size="10.00">dji_camera.hpp</text>
</a>
</g>
</g>
<!-- Node5&#45;&gt;Node12 -->
<g id="edge12" class="edge"><title>Node5&#45;&gt;Node12</title>
<path fill="none" stroke="midnightblue" d="M892.68,-336.341C911.569,-327.496 941.53,-313.224 967,-300 983.244,-291.566 985.97,-286.708 1003,-280 1064.78,-255.665 1085.97,-267.686 1148,-244 1184.85,-229.929 1224.74,-207.356 1248.8,-192.857"/>
<polygon fill="midnightblue" stroke="midnightblue" points="1250.78,-195.745 1257.5,-187.548 1247.14,-189.77 1250.78,-195.745"/>
</g>
<!-- Node13 -->
<g id="node13" class="node"><title>Node13</title>
<g id="a_node13"><a xlink:href="dji__command_8hpp.html" target="_top" xlink:title="All DJI OSDK OpenProtocol Command IDs. ">
<polygon fill="white" stroke="black" points="1125.5,-112.5 1125.5,-131.5 1218.5,-131.5 1218.5,-112.5 1125.5,-112.5"/>
<text text-anchor="middle" x="1172" y="-119.5" font-family="Helvetica,sans-Serif" font-size="10.00">dji_command.hpp</text>
</a>
</g>
</g>
<!-- Node5&#45;&gt;Node13 -->
<g id="edge19" class="edge"><title>Node5&#45;&gt;Node13</title>
<path fill="none" stroke="midnightblue" d="M914.681,-345.12C1044.77,-345.082 1444.4,-341.558 1483,-300 1565.92,-210.725 1339.25,-154.352 1228.68,-132.867"/>
<polygon fill="midnightblue" stroke="midnightblue" points="1229.16,-129.395 1218.68,-130.957 1227.85,-136.27 1229.16,-129.395"/>
</g>
<!-- Node15 -->
<g id="node15" class="node"><title>Node15</title>
<polygon fill="white" stroke="#bfbfbf" points="1012,-280.5 1012,-299.5 1124,-299.5 1124,-280.5 1012,-280.5"/>
<text text-anchor="middle" x="1068" y="-287.5" font-family="Helvetica,sans-Serif" font-size="10.00">dji_circular_buffer.hpp</text>
</g>
<!-- Node5&#45;&gt;Node15 -->
<g id="edge18" class="edge"><title>Node5&#45;&gt;Node15</title>
<path fill="none" stroke="midnightblue" d="M904.74,-336.444C937.944,-327.201 990.991,-312.436 1027.56,-302.257"/>
<polygon fill="midnightblue" stroke="midnightblue" points="1028.71,-305.57 1037.4,-299.516 1026.83,-298.826 1028.71,-305.57"/>
</g>
<!-- Node16 -->
<g id="node16" class="node"><title>Node16</title>
<g id="a_node16"><a xlink:href="dji__control_8hpp.html" target="_top" xlink:title="Control API for DJI OSDK library. ">
<polygon fill="white" stroke="black" points="800,-280.5 800,-299.5 880,-299.5 880,-280.5 800,-280.5"/>
<text text-anchor="middle" x="840" y="-287.5" font-family="Helvetica,sans-Serif" font-size="10.00">dji_control.hpp</text>
</a>
</g>
</g>
<!-- Node5&#45;&gt;Node16 -->
<g id="edge20" class="edge"><title>Node5&#45;&gt;Node16</title>
<path fill="none" stroke="midnightblue" d="M868.386,-336.083C863.633,-328.534 856.682,-317.495 850.848,-308.23"/>
<polygon fill="midnightblue" stroke="midnightblue" points="853.8,-306.349 845.51,-299.751 847.876,-310.078 853.8,-306.349"/>
</g>
<!-- Node19 -->
<g id="node19" class="node"><title>Node19</title>
<g id="a_node19"><a xlink:href="dji__version_8hpp.html" target="_top" xlink:title="Drone/SDK Version definition for DJI onboardSDK library. ">
<polygon fill="white" stroke="black" points="1499,-168.5 1499,-187.5 1581,-187.5 1581,-168.5 1499,-168.5"/>
<text text-anchor="middle" x="1540" y="-175.5" font-family="Helvetica,sans-Serif" font-size="10.00">dji_version.hpp</text>
</a>
</g>
</g>
<!-- Node5&#45;&gt;Node19 -->
<g id="edge60" class="edge"><title>Node5&#45;&gt;Node19</title>
<path fill="none" stroke="midnightblue" d="M914.661,-344.963C1048.74,-344.46 1470.95,-339.712 1516,-300 1544.96,-274.474 1545.04,-224.907 1542.55,-197.808"/>
<polygon fill="midnightblue" stroke="midnightblue" points="1546,-197.247 1541.4,-187.706 1539.05,-198.037 1546,-197.247"/>
</g>
<!-- Node21 -->
<g id="node21" class="node"><title>Node21</title>
<g id="a_node21"><a xlink:href="dji__gimbal_8hpp.html" target="_top" xlink:title="Gimbal API for OSDK library. ">
<polygon fill="white" stroke="black" points="1132.5,-168.5 1132.5,-187.5 1211.5,-187.5 1211.5,-168.5 1132.5,-168.5"/>
<text text-anchor="middle" x="1172" y="-175.5" font-family="Helvetica,sans-Serif" font-size="10.00">dji_gimbal.hpp</text>
</a>
</g>
</g>
<!-- Node5&#45;&gt;Node21 -->
<g id="edge33" class="edge"><title>Node5&#45;&gt;Node21</title>
<path fill="none" stroke="midnightblue" d="M883.917,-336.449C900.571,-322.533 935.712,-295.03 970,-280 1033.98,-251.954 1064.49,-282.164 1123,-244 1140.89,-232.332 1154.73,-211.788 1163.07,-196.914"/>
<polygon fill="midnightblue" stroke="midnightblue" points="1166.37,-198.176 1167.95,-187.701 1160.18,-194.901 1166.37,-198.176"/>
</g>
<!-- Node22 -->
<g id="node22" class="node"><title>Node22</title>
<polygon fill="white" stroke="#bfbfbf" points="1142,-280.5 1142,-299.5 1240,-299.5 1240,-280.5 1142,-280.5"/>
<text text-anchor="middle" x="1191" y="-287.5" font-family="Helvetica,sans-Serif" font-size="10.00">dji_hard_driver.hpp</text>
</g>
<!-- Node5&#45;&gt;Node22 -->
<g id="edge36" class="edge"><title>Node5&#45;&gt;Node22</title>
<path fill="none" stroke="midnightblue" d="M914.793,-338.051C969.838,-328.674 1068.27,-311.906 1131.55,-301.127"/>
<polygon fill="midnightblue" stroke="midnightblue" points="1132.51,-304.514 1141.78,-299.384 1131.33,-297.613 1132.51,-304.514"/>
</g>
<!-- Node23 -->
<g id="node23" class="node"><title>Node23</title>
<g id="a_node23"><a xlink:href="dji__hardware__sync_8hpp.html" target="_top" xlink:title="Hardware Sync API for DJI OSDK. ">
<polygon fill="white" stroke="black" points="998,-224.5 998,-243.5 1114,-243.5 1114,-224.5 998,-224.5"/>
<text text-anchor="middle" x="1056" y="-231.5" font-family="Helvetica,sans-Serif" font-size="10.00">dji_hardware_sync.hpp</text>
</a>
</g>
</g>
<!-- Node5&#45;&gt;Node23 -->
<g id="edge37" class="edge"><title>Node5&#45;&gt;Node23</title>
<path fill="none" stroke="midnightblue" d="M879.715,-336.17C889.075,-322.355 908.957,-295.602 932,-280 955.001,-264.426 984.041,-253.509 1008.24,-246.331"/>
<polygon fill="midnightblue" stroke="midnightblue" points="1009.27,-249.676 1017.93,-243.575 1007.36,-242.942 1009.27,-249.676"/>
</g>
<!-- Node24 -->
<g id="node24" class="node"><title>Node24</title>
<g id="a_node24"><a xlink:href="dji__mfio_8hpp.html" target="_top" xlink:title="MFIO API for DJI OSDK library. ">
<polygon fill="white" stroke="black" points="193.5,-224.5 193.5,-243.5 262.5,-243.5 262.5,-224.5 193.5,-224.5"/>
<text text-anchor="middle" x="228" y="-231.5" font-family="Helvetica,sans-Serif" font-size="10.00">dji_mfio.hpp</text>
</a>
</g>
</g>
<!-- Node5&#45;&gt;Node24 -->
<g id="edge39" class="edge"><title>Node5&#45;&gt;Node24</title>
<path fill="none" stroke="midnightblue" d="M833.239,-343.864C706.606,-340.067 325.571,-326.537 277,-300 257.874,-289.551 244.009,-268.102 236.008,-252.699"/>
<polygon fill="midnightblue" stroke="midnightblue" points="239.118,-251.091 231.6,-243.626 232.822,-254.15 239.118,-251.091"/>
</g>
<!-- Node25 -->
<g id="node25" class="node"><title>Node25</title>
<g id="a_node25"><a xlink:href="dji__mission__manager_8hpp.html" target="_top" xlink:title="Mission&#45;Manager API for DJI OSDK library. ">
<polygon fill="white" stroke="black" points="616.5,-280.5 616.5,-299.5 743.5,-299.5 743.5,-280.5 616.5,-280.5"/>
<text text-anchor="middle" x="680" y="-287.5" font-family="Helvetica,sans-Serif" font-size="10.00">dji_mission_manager.hpp</text>
</a>
</g>
</g>
<!-- Node5&#45;&gt;Node25 -->
<g id="edge41" class="edge"><title>Node5&#45;&gt;Node25</title>
<path fill="none" stroke="midnightblue" d="M843.26,-336.444C810.056,-327.201 757.009,-312.436 720.443,-302.257"/>
<polygon fill="midnightblue" stroke="midnightblue" points="721.168,-298.826 710.596,-299.516 719.291,-305.57 721.168,-298.826"/>
</g>
<!-- Node29 -->
<g id="node29" class="node"><title>Node29</title>
<g id="a_node29"><a xlink:href="dji__status_8hpp.html" target="_top" xlink:title="Status information for DJI Vehicle. ">
<polygon fill="white" stroke="black" points="1258.5,-280.5 1258.5,-299.5 1335.5,-299.5 1335.5,-280.5 1258.5,-280.5"/>
<text text-anchor="middle" x="1297" y="-287.5" font-family="Helvetica,sans-Serif" font-size="10.00">dji_status.hpp</text>
</a>
</g>
</g>
<!-- Node5&#45;&gt;Node29 -->
<g id="edge52" class="edge"><title>Node5&#45;&gt;Node29</title>
<path fill="none" stroke="midnightblue" d="M914.629,-341.012C981.822,-334.222 1120.53,-319.392 1248.3,-300.013"/>
<polygon fill="midnightblue" stroke="midnightblue" points="1248.91,-303.461 1258.26,-298.49 1247.85,-296.542 1248.91,-303.461"/>
</g>
<!-- Node30 -->
<g id="node30" class="node"><title>Node30</title>
<g id="a_node30"><a xlink:href="dji__subscription_8hpp.html" target="_top" xlink:title="Telemetry Subscription API for DJI OSDK library. ">
<polygon fill="white" stroke="black" points="319.5,-224.5 319.5,-243.5 422.5,-243.5 422.5,-224.5 319.5,-224.5"/>
<text text-anchor="middle" x="371" y="-231.5" font-family="Helvetica,sans-Serif" font-size="10.00">dji_subscription.hpp</text>
</a>
</g>
</g>
<!-- Node5&#45;&gt;Node30 -->
<g id="edge53" class="edge"><title>Node5&#45;&gt;Node30</title>
<path fill="none" stroke="midnightblue" d="M833.255,-341.685C772.763,-336.202 655.917,-323.449 559,-300 501.932,-286.192 437.745,-262.056 401.065,-247.4"/>
<polygon fill="midnightblue" stroke="midnightblue" points="402.061,-244.027 391.478,-243.534 399.444,-250.52 402.061,-244.027"/>
</g>
<!-- Node31 -->
<g id="node31" class="node"><title>Node31</title>
<polygon fill="white" stroke="#bfbfbf" points="1354,-280.5 1354,-299.5 1474,-299.5 1474,-280.5 1354,-280.5"/>
<text text-anchor="middle" x="1414" y="-287.5" font-family="Helvetica,sans-Serif" font-size="10.00">dji_thread_manager.hpp</text>
</g>
<!-- Node5&#45;&gt;Node31 -->
<g id="edge57" class="edge"><title>Node5&#45;&gt;Node31</title>
<path fill="none" stroke="midnightblue" d="M914.596,-341.56C994.413,-334.698 1177.64,-318.472 1343.3,-300.041"/>
<polygon fill="midnightblue" stroke="midnightblue" points="1344.14,-303.47 1353.69,-298.881 1343.36,-296.513 1344.14,-303.47"/>
</g>
<!-- Node7&#45;&gt;Node3 -->
<g id="edge11" class="edge"><title>Node7&#45;&gt;Node3</title>
<path fill="none" stroke="midnightblue" d="M474.698,-224.337C463.876,-216.123 448.42,-202.857 439,-188 429.971,-173.759 424.493,-155.286 421.408,-141.674"/>
<polygon fill="midnightblue" stroke="midnightblue" points="424.778,-140.685 419.353,-131.584 417.919,-142.082 424.778,-140.685"/>
</g>
<!-- Node8 -->
<g id="node8" class="node"><title>Node8</title>
<g id="a_node8"><a xlink:href="dji__telemetry_8hpp.html" target="_top" xlink:title="Enumeration of all telemetry data types, structures and maps. ">
<polygon fill="white" stroke="black" points="448.5,-168.5 448.5,-187.5 539.5,-187.5 539.5,-168.5 448.5,-168.5"/>
<text text-anchor="middle" x="494" y="-175.5" font-family="Helvetica,sans-Serif" font-size="10.00">dji_telemetry.hpp</text>
</a>
</g>
</g>
<!-- Node7&#45;&gt;Node8 -->
<g id="edge7" class="edge"><title>Node7&#45;&gt;Node8</title>
<path fill="none" stroke="midnightblue" d="M488.156,-224.083C489.084,-216.927 490.418,-206.635 491.577,-197.691"/>
<polygon fill="midnightblue" stroke="midnightblue" points="495.051,-198.118 492.866,-187.751 488.109,-197.218 495.051,-198.118"/>
</g>
<!-- Node8&#45;&gt;Node9 -->
<g id="edge8" class="edge"><title>Node8&#45;&gt;Node9</title>
<path fill="none" stroke="midnightblue" d="M539.59,-169.344C542.772,-168.87 545.932,-168.417 549,-168 683.748,-149.701 843.867,-134.102 920.203,-127.039"/>
<polygon fill="midnightblue" stroke="midnightblue" points="920.77,-130.502 930.407,-126.1 920.129,-123.531 920.77,-130.502"/>
</g>
<!-- Node10 -->
<g id="node10" class="node"><title>Node10</title>
<polygon fill="white" stroke="#bfbfbf" points="993.5,-56.5 993.5,-75.5 1036.5,-75.5 1036.5,-56.5 993.5,-56.5"/>
<text text-anchor="middle" x="1015" y="-63.5" font-family="Helvetica,sans-Serif" font-size="10.00">cstdio</text>
</g>
<!-- Node9&#45;&gt;Node10 -->
<g id="edge9" class="edge"><title>Node9&#45;&gt;Node10</title>
<path fill="none" stroke="midnightblue" d="M973.256,-112.083C980.465,-104.298 991.11,-92.8015 999.846,-83.3665"/>
<polygon fill="midnightblue" stroke="midnightblue" points="1002.67,-85.4666 1006.9,-75.7511 997.535,-80.7108 1002.67,-85.4666"/>
</g>
<!-- Node11 -->
<g id="node11" class="node"><title>Node11</title>
<polygon fill="white" stroke="#bfbfbf" points="1084.5,-0.5 1084.5,-19.5 1133.5,-19.5 1133.5,-0.5 1084.5,-0.5"/>
<text text-anchor="middle" x="1109" y="-7.5" font-family="Helvetica,sans-Serif" font-size="10.00">stdint.h</text>
</g>
<!-- Node9&#45;&gt;Node11 -->
<g id="edge10" class="edge"><title>Node9&#45;&gt;Node11</title>
<path fill="none" stroke="midnightblue" d="M965.146,-112.207C965.847,-98.4426 969.178,-71.7573 984,-56 1007.54,-30.9726 1046.01,-19.8348 1074.07,-14.8963"/>
<polygon fill="midnightblue" stroke="midnightblue" points="1074.92,-18.3047 1084.25,-13.291 1073.83,-11.39 1074.92,-18.3047"/>
</g>
<!-- Node12&#45;&gt;Node9 -->
<g id="edge17" class="edge"><title>Node12&#45;&gt;Node9</title>
<path fill="none" stroke="midnightblue" d="M1229.41,-169.661C1172.07,-159.541 1069.11,-141.373 1010.01,-130.944"/>
<polygon fill="midnightblue" stroke="midnightblue" points="1010.32,-127.443 999.862,-129.152 1009.1,-134.337 1010.32,-127.443"/>
</g>
<!-- Node12&#45;&gt;Node13 -->
<g id="edge13" class="edge"><title>Node12&#45;&gt;Node13</title>
<path fill="none" stroke="midnightblue" d="M1255.09,-168.324C1239.36,-159.743 1215.06,-146.486 1196.79,-136.522"/>
<polygon fill="midnightblue" stroke="midnightblue" points="1198.32,-133.37 1187.87,-131.655 1194.97,-139.516 1198.32,-133.37"/>
</g>
<!-- Node13&#45;&gt;Node11 -->
<g id="edge16" class="edge"><title>Node13&#45;&gt;Node11</title>
<path fill="none" stroke="midnightblue" d="M1170.86,-112.476C1168.85,-99.531 1163.8,-74.4699 1153,-56 1146.5,-44.8797 1136.65,-34.4572 1127.92,-26.4485"/>
<polygon fill="midnightblue" stroke="midnightblue" points="1130.17,-23.7712 1120.34,-19.8215 1125.57,-29.0399 1130.17,-23.7712"/>
</g>
<!-- Node14 -->
<g id="node14" class="node"><title>Node14</title>
<g id="a_node14"><a xlink:href="dji__error_8hpp.html" target="_top" xlink:title="All DJI OSDK OpenProtocol ACK Error Codes. ">
<polygon fill="white" stroke="black" points="1074,-56.5 1074,-75.5 1144,-75.5 1144,-56.5 1074,-56.5"/>
<text text-anchor="middle" x="1109" y="-63.5" font-family="Helvetica,sans-Serif" font-size="10.00">dji_error.hpp</text>
</a>
</g>
</g>
<!-- Node13&#45;&gt;Node14 -->
<g id="edge14" class="edge"><title>Node13&#45;&gt;Node14</title>
<path fill="none" stroke="midnightblue" d="M1161.88,-112.324C1152.47,-104.263 1138.26,-92.0765 1126.93,-82.3695"/>
<polygon fill="midnightblue" stroke="midnightblue" points="1129.18,-79.6844 1119.31,-75.8339 1124.62,-84.9993 1129.18,-79.6844"/>
</g>
<!-- Node14&#45;&gt;Node11 -->
<g id="edge15" class="edge"><title>Node14&#45;&gt;Node11</title>
<path fill="none" stroke="midnightblue" d="M1109,-56.083C1109,-49.0059 1109,-38.8611 1109,-29.9865"/>
<polygon fill="midnightblue" stroke="midnightblue" points="1112.5,-29.751 1109,-19.7511 1105.5,-29.7511 1112.5,-29.751"/>
</g>
<!-- Node16&#45;&gt;Node3 -->
<g id="edge32" class="edge"><title>Node16&#45;&gt;Node3</title>
<path fill="none" stroke="midnightblue" d="M831.41,-280.232C808.608,-257.532 743.72,-196.626 677,-168 616.813,-142.177 542.72,-131.164 489.222,-126.472"/>
<polygon fill="midnightblue" stroke="midnightblue" points="489.398,-122.975 479.144,-125.641 488.823,-129.951 489.398,-122.975"/>
</g>
<!-- Node16&#45;&gt;Node4 -->
<g id="edge30" class="edge"><title>Node16&#45;&gt;Node4</title>
<path fill="none" stroke="midnightblue" d="M835.201,-280.256C827.65,-267.023 811.989,-241.592 794,-224 762.184,-192.887 751.224,-187.033 711,-168 615.296,-122.716 494.713,-92.5335 426.496,-77.7075"/>
<polygon fill="midnightblue" stroke="midnightblue" points="426.926,-74.2202 416.414,-75.5456 425.458,-81.0646 426.926,-74.2202"/>
</g>
<!-- Node16&#45;&gt;Node9 -->
<g id="edge31" class="edge"><title>Node16&#45;&gt;Node9</title>
<path fill="none" stroke="midnightblue" d="M877.091,-280.465C919.613,-268.316 986.36,-241.33 1009,-188 1016.91,-169.373 1000.84,-150.484 985.943,-137.905"/>
<polygon fill="midnightblue" stroke="midnightblue" points="987.972,-135.048 977.951,-131.608 983.639,-140.546 987.972,-135.048"/>
</g>
<!-- Node17 -->
<g id="node17" class="node"><title>Node17</title>
<g id="a_node17"><a xlink:href="dji__ack_8hpp.html" target="_top" xlink:title="All DJI OSDK ACK parsing. ">
<polygon fill="white" stroke="black" points="876,-224.5 876,-243.5 942,-243.5 942,-224.5 876,-224.5"/>
<text text-anchor="middle" x="909" y="-231.5" font-family="Helvetica,sans-Serif" font-size="10.00">dji_ack.hpp</text>
</a>
</g>
</g>
<!-- Node16&#45;&gt;Node17 -->
<g id="edge21" class="edge"><title>Node16&#45;&gt;Node17</title>
<path fill="none" stroke="midnightblue" d="M851.086,-280.324C861.486,-272.185 877.261,-259.839 889.722,-250.087"/>
<polygon fill="midnightblue" stroke="midnightblue" points="891.994,-252.753 897.712,-243.834 887.68,-247.241 891.994,-252.753"/>
</g>
<!-- Node17&#45;&gt;Node9 -->
<g id="edge25" class="edge"><title>Node17&#45;&gt;Node9</title>
<path fill="none" stroke="midnightblue" d="M900.54,-224.193C889.238,-211.313 871.857,-186.826 883,-168 891.973,-152.84 908.067,-142.448 923.635,-135.504"/>
<polygon fill="midnightblue" stroke="midnightblue" points="925.248,-138.627 933.191,-131.615 922.61,-132.143 925.248,-138.627"/>
</g>
<!-- Node17&#45;&gt;Node13 -->
<g id="edge22" class="edge"><title>Node17&#45;&gt;Node13</title>
<path fill="none" stroke="midnightblue" d="M929.637,-224.368C975.92,-205.01 1088.16,-158.065 1142.1,-135.507"/>
<polygon fill="midnightblue" stroke="midnightblue" points="1143.58,-138.679 1151.46,-131.591 1140.88,-132.221 1143.58,-138.679"/>
</g>
<!-- Node18 -->
<g id="node18" class="node"><title>Node18</title>
<g id="a_node18"><a xlink:href="dji__mission__type_8hpp.html" target="_top" xlink:title="Mission related data struct for DJI OSDK library. ">
<polygon fill="white" stroke="black" points="892,-168.5 892,-187.5 1000,-187.5 1000,-168.5 892,-168.5"/>
<text text-anchor="middle" x="946" y="-175.5" font-family="Helvetica,sans-Serif" font-size="10.00">dji_mission_type.hpp</text>
</a>
</g>
</g>
<!-- Node17&#45;&gt;Node18 -->
<g id="edge23" class="edge"><title>Node17&#45;&gt;Node18</title>
<path fill="none" stroke="midnightblue" d="M915.11,-224.083C920.282,-216.534 927.846,-205.495 934.194,-196.23"/>
<polygon fill="midnightblue" stroke="midnightblue" points="937.239,-197.979 940.004,-187.751 931.464,-194.022 937.239,-197.979"/>
</g>
<!-- Node17&#45;&gt;Node19 -->
<g id="edge26" class="edge"><title>Node17&#45;&gt;Node19</title>
<path fill="none" stroke="midnightblue" d="M942.06,-229.051C956.468,-227.39 973.559,-225.499 989,-224 1172.65,-206.175 1391.2,-189.744 1488.67,-182.666"/>
<polygon fill="midnightblue" stroke="midnightblue" points="1489.11,-186.143 1498.83,-181.93 1488.61,-179.162 1489.11,-186.143"/>
</g>
<!-- Node20 -->
<g id="node20" class="node"><title>Node20</title>
<polygon fill="white" stroke="#bfbfbf" points="800.5,-168.5 800.5,-187.5 835.5,-187.5 835.5,-168.5 800.5,-168.5"/>
<text text-anchor="middle" x="818" y="-175.5" font-family="Helvetica,sans-Serif" font-size="10.00">map</text>
</g>
<!-- Node17&#45;&gt;Node20 -->
<g id="edge29" class="edge"><title>Node17&#45;&gt;Node20</title>
<path fill="none" stroke="midnightblue" d="M894.379,-224.324C880.051,-215.822 857.987,-202.729 841.251,-192.797"/>
<polygon fill="midnightblue" stroke="midnightblue" points="842.97,-189.748 832.584,-187.655 839.398,-195.768 842.97,-189.748"/>
</g>
<!-- Node18&#45;&gt;Node9 -->
<g id="edge24" class="edge"><title>Node18&#45;&gt;Node9</title>
<path fill="none" stroke="midnightblue" d="M949.137,-168.083C951.683,-160.849 955.356,-150.409 958.527,-141.397"/>
<polygon fill="midnightblue" stroke="midnightblue" points="961.903,-142.346 961.921,-131.751 955.3,-140.023 961.903,-142.346"/>
</g>
<!-- Node19&#45;&gt;Node6 -->
<g id="edge28" class="edge"><title>Node19&#45;&gt;Node6</title>
<path fill="none" stroke="midnightblue" d="M1545.61,-168.083C1550.37,-160.534 1557.32,-149.495 1563.15,-140.23"/>
<polygon fill="midnightblue" stroke="midnightblue" points="1566.12,-142.078 1568.49,-131.751 1560.2,-138.349 1566.12,-142.078"/>
</g>
<!-- Node19&#45;&gt;Node13 -->
<g id="edge27" class="edge"><title>Node19&#45;&gt;Node13</title>
<path fill="none" stroke="midnightblue" d="M1498.87,-170.18C1494.19,-169.431 1489.49,-168.691 1485,-168 1395.56,-154.255 1291.54,-139.555 1228.79,-130.828"/>
<polygon fill="midnightblue" stroke="midnightblue" points="1229.09,-127.336 1218.71,-129.427 1228.13,-134.269 1229.09,-127.336"/>
</g>
<!-- Node21&#45;&gt;Node9 -->
<g id="edge35" class="edge"><title>Node21&#45;&gt;Node9</title>
<path fill="none" stroke="midnightblue" d="M1139.2,-168.444C1103.62,-159.162 1046.69,-144.309 1007.65,-134.127"/>
<polygon fill="midnightblue" stroke="midnightblue" points="1008.21,-130.654 997.646,-131.516 1006.44,-137.427 1008.21,-130.654"/>
</g>
<!-- Node21&#45;&gt;Node13 -->
<g id="edge34" class="edge"><title>Node21&#45;&gt;Node13</title>
<path fill="none" stroke="midnightblue" d="M1172,-168.083C1172,-161.006 1172,-150.861 1172,-141.986"/>
<polygon fill="midnightblue" stroke="midnightblue" points="1175.5,-141.751 1172,-131.751 1168.5,-141.751 1175.5,-141.751"/>
</g>
<!-- Node23&#45;&gt;Node9 -->
<g id="edge38" class="edge"><title>Node23&#45;&gt;Node9</title>
<path fill="none" stroke="midnightblue" d="M1063.95,-224.379C1075,-211.307 1092.34,-186.083 1080,-168 1064.28,-144.966 1034.84,-133.722 1009.69,-128.233"/>
<polygon fill="midnightblue" stroke="midnightblue" points="1010.07,-124.741 999.582,-126.276 1008.73,-131.613 1010.07,-124.741"/>
</g>
<!-- Node24&#45;&gt;Node3 -->
<g id="edge40" class="edge"><title>Node24&#45;&gt;Node3</title>
<path fill="none" stroke="midnightblue" d="M232.178,-224.489C239.408,-210.629 255.559,-183.206 277,-168 300.417,-151.392 330.251,-140.709 356.44,-133.943"/>
<polygon fill="midnightblue" stroke="midnightblue" points="357.396,-137.313 366.278,-131.538 355.733,-130.513 357.396,-137.313"/>
</g>
<!-- Node26 -->
<g id="node26" class="node"><title>Node26</title>
<g id="a_node26"><a xlink:href="dji__hotpoint_8hpp.html" target="_top" xlink:title="Implementation of HotPoint (Point of Interest) Missions for DJI OSDK. ">
<polygon fill="white" stroke="black" points="551.5,-224.5 551.5,-243.5 636.5,-243.5 636.5,-224.5 551.5,-224.5"/>
<text text-anchor="middle" x="594" y="-231.5" font-family="Helvetica,sans-Serif" font-size="10.00">dji_hotpoint.hpp</text>
</a>
</g>
</g>
<!-- Node25&#45;&gt;Node26 -->
<g id="edge42" class="edge"><title>Node25&#45;&gt;Node26</title>
<path fill="none" stroke="midnightblue" d="M666.183,-280.324C652.767,-271.9 632.176,-258.971 616.414,-249.074"/>
<polygon fill="midnightblue" stroke="midnightblue" points="618.113,-246.008 607.783,-243.655 614.391,-251.936 618.113,-246.008"/>
</g>
<!-- Node28 -->
<g id="node28" class="node"><title>Node28</title>
<g id="a_node28"><a xlink:href="dji__waypoint_8hpp.html" target="_top" xlink:title="Implementation of GPS Waypoint Missions for DJI OSDK. ">
<polygon fill="white" stroke="black" points="654.5,-224.5 654.5,-243.5 743.5,-243.5 743.5,-224.5 654.5,-224.5"/>
<text text-anchor="middle" x="699" y="-231.5" font-family="Helvetica,sans-Serif" font-size="10.00">dji_waypoint.hpp</text>
</a>
</g>
</g>
<!-- Node25&#45;&gt;Node28 -->
<g id="edge48" class="edge"><title>Node25&#45;&gt;Node28</title>
<path fill="none" stroke="midnightblue" d="M683.137,-280.083C685.683,-272.849 689.356,-262.409 692.527,-253.397"/>
<polygon fill="midnightblue" stroke="midnightblue" points="695.903,-254.346 695.921,-243.751 689.3,-252.023 695.903,-254.346"/>
</g>
<!-- Node26&#45;&gt;Node8 -->
<g id="edge47" class="edge"><title>Node26&#45;&gt;Node8</title>
<path fill="none" stroke="midnightblue" d="M577.933,-224.324C562.042,-215.743 537.493,-202.486 519.042,-192.522"/>
<polygon fill="midnightblue" stroke="midnightblue" points="520.489,-189.326 510.027,-187.655 517.163,-195.486 520.489,-189.326"/>
</g>
<!-- Node27 -->
<g id="node27" class="node"><title>Node27</title>
<g id="a_node27"><a xlink:href="dji__mission__base_8hpp.html" target="_top" xlink:title="Mission&#45;Base abstract class for DJI OSDK library. ">
<polygon fill="white" stroke="black" points="558,-168.5 558,-187.5 668,-187.5 668,-168.5 558,-168.5"/>
<text text-anchor="middle" x="613" y="-175.5" font-family="Helvetica,sans-Serif" font-size="10.00">dji_mission_base.hpp</text>
</a>
</g>
</g>
<!-- Node26&#45;&gt;Node27 -->
<g id="edge43" class="edge"><title>Node26&#45;&gt;Node27</title>
<path fill="none" stroke="midnightblue" d="M597.137,-224.083C599.683,-216.849 603.356,-206.409 606.527,-197.397"/>
<polygon fill="midnightblue" stroke="midnightblue" points="609.903,-198.346 609.921,-187.751 603.3,-196.023 609.903,-198.346"/>
</g>
<!-- Node27&#45;&gt;Node3 -->
<g id="edge46" class="edge"><title>Node27&#45;&gt;Node3</title>
<path fill="none" stroke="midnightblue" d="M582.102,-168.444C548.726,-159.201 495.406,-144.436 458.651,-134.257"/>
<polygon fill="midnightblue" stroke="midnightblue" points="459.325,-130.812 448.754,-131.516 457.457,-137.558 459.325,-130.812"/>
</g>
<!-- Node27&#45;&gt;Node9 -->
<g id="edge45" class="edge"><title>Node27&#45;&gt;Node9</title>
<path fill="none" stroke="midnightblue" d="M668.387,-168.503C737.896,-157.84 855.764,-139.758 919.997,-129.904"/>
<polygon fill="midnightblue" stroke="midnightblue" points="920.854,-133.313 930.208,-128.337 919.793,-126.394 920.854,-133.313"/>
</g>
<!-- Node27&#45;&gt;Node13 -->
<g id="edge44" class="edge"><title>Node27&#45;&gt;Node13</title>
<path fill="none" stroke="midnightblue" d="M668.129,-171.674C774.597,-161.39 1007.49,-138.892 1115.23,-128.484"/>
<polygon fill="midnightblue" stroke="midnightblue" points="1115.65,-131.96 1125.26,-127.515 1114.97,-124.993 1115.65,-131.96"/>
</g>
<!-- Node28&#45;&gt;Node27 -->
<g id="edge49" class="edge"><title>Node28&#45;&gt;Node27</title>
<path fill="none" stroke="midnightblue" d="M685.183,-224.324C671.767,-215.9 651.176,-202.971 635.414,-193.074"/>
<polygon fill="midnightblue" stroke="midnightblue" points="637.113,-190.008 626.783,-187.655 633.391,-195.936 637.113,-190.008"/>
</g>
<!-- Node30&#45;&gt;Node3 -->
<g id="edge56" class="edge"><title>Node30&#45;&gt;Node3</title>
<path fill="none" stroke="midnightblue" d="M374.688,-224.368C382.341,-206.456 400.087,-164.923 410.331,-140.948"/>
<polygon fill="midnightblue" stroke="midnightblue" points="413.618,-142.162 414.329,-131.591 407.181,-139.412 413.618,-142.162"/>
</g>
<!-- Node30&#45;&gt;Node4 -->
<g id="edge54" class="edge"><title>Node30&#45;&gt;Node4</title>
<path fill="none" stroke="midnightblue" d="M366.778,-224.406C357.546,-204.47 337.219,-153.606 348,-112 350.546,-102.175 355.753,-92.2118 360.759,-84.166"/>
<polygon fill="midnightblue" stroke="midnightblue" points="363.749,-85.9903 366.371,-75.7252 357.92,-82.1143 363.749,-85.9903"/>
</g>
<!-- Node30&#45;&gt;Node8 -->
<g id="edge55" class="edge"><title>Node30&#45;&gt;Node8</title>
<path fill="none" stroke="midnightblue" d="M390.49,-224.444C410.642,-215.596 442.323,-201.687 465.331,-191.586"/>
<polygon fill="midnightblue" stroke="midnightblue" points="466.852,-194.741 474.601,-187.516 464.038,-188.332 466.852,-194.741"/>
</g>
</g>
</svg>
        <g id="navigator" transform="translate(0 0)" fill="#404254">
                <rect fill="#f2f5e9" fill-opacity="0.5" stroke="#606060" stroke-width=".5" x="0" y="0" width="60" height="60"/>
                <use id="zoomplus" xlink:href="#zoomPlus" x="17" y="9" onmousedown="handleZoom(evt,'in')"/>
                <use id="zoomminus" xlink:href="#zoomMin" x="42" y="9" onmousedown="handleZoom(evt,'out')"/>
                <use id="reset" xlink:href="#resetDef" x="30" y="36" onmousedown="handleReset()"/>
                <g id="arrowUp" xlink:href="#dirArrow" transform="translate(30 24)" onmousedown="handlePan(0,-1)">
                  <use xlink:href="#rim" fill="#404040">
                        <set attributeName="fill" to="#808080" begin="arrowUp.mouseover" end="arrowUp.mouseout"/>
                  </use>
                  <path fill="none" stroke="white" stroke-width="1.5" d="M0,-3.0v7 M-2.5,-0.5L0,-3.0L2.5,-0.5"/>
                </g>
                <g id="arrowRight" xlink:href="#dirArrow" transform="rotate(90) translate(36 -43)" onmousedown="handlePan(1,0)">
                  <use xlink:href="#rim" fill="#404040">
                        <set attributeName="fill" to="#808080" begin="arrowRight.mouseover" end="arrowRight.mouseout"/>
                  </use>
                  <path fill="none" stroke="white" stroke-width="1.5" d="M0,-3.0v7 M-2.5,-0.5L0,-3.0L2.5,-0.5"/>
                </g>
                <g id="arrowDown" xlink:href="#dirArrow" transform="rotate(180) translate(-30 -48)" onmousedown="handlePan(0,1)">
                  <use xlink:href="#rim" fill="#404040">
                        <set attributeName="fill" to="#808080" begin="arrowDown.mouseover" end="arrowDown.mouseout"/>
                  </use>
                  <path fill="none" stroke="white" stroke-width="1.5" d="M0,-3.0v7 M-2.5,-0.5L0,-3.0L2.5,-0.5"/>
                </g>
                <g id="arrowLeft" xlink:href="#dirArrow" transform="rotate(270) translate(-36 17)" onmousedown="handlePan(-1,0)">
                  <use xlink:href="#rim" fill="#404040">
                        <set attributeName="fill" to="#808080" begin="arrowLeft.mouseover" end="arrowLeft.mouseout"/>
                  </use>
                  <path fill="none" stroke="white" stroke-width="1.5" d="M0,-3.0v7 M-2.5,-0.5L0,-3.0L2.5,-0.5"/>
                </g>
        </g>
        <svg viewBox="0 0 15 15" width="100%" height="30px" preserveAspectRatio="xMaxYMin meet">
         <g id="arrow_out" transform="scale(0.3 0.3)">
          <a xlink:href="dji__mobile__communication_8cpp__incl_org.svg" target="_base">
           <rect id="button" ry="5" rx="5" y="6" x="6" height="38" width="38"
                fill="#f2f5e9" fill-opacity="0.5" stroke="#606060" stroke-width="1.0"/>
           <path id="arrow"
             d="M 11.500037,31.436501 C 11.940474,20.09759 22.043105,11.32322 32.158766,21.979434 L 37.068811,17.246167 C 37.068811,17.246167 37.088388,32 37.088388,32 L 22.160133,31.978069 C 22.160133,31.978069 26.997745,27.140456 26.997745,27.140456 C 18.528582,18.264221 13.291696,25.230495 11.500037,31.436501 z"
             style="fill:#404040;"/>
          </a>
         </g>
        </svg>
</svg>
