<?xml version="1.0" encoding="UTF-8" standalone="no"?>
<!DOCTYPE svg PUBLIC "-//W3C//DTD SVG 1.1//EN"
 "http://www.w3.org/Graphics/SVG/1.1/DTD/svg11.dtd">
<!-- Generated by graphviz version 2.38.0 (20140413.2041)
 -->
<!-- Title: osdk&#45;core/api/src/dji_mfio.cpp Pages: 1 -->
<svg width="2084pt" height="431pt"
 viewBox="0.00 0.00 2083.79 431.00" xmlns="http://www.w3.org/2000/svg" xmlns:xlink="http://www.w3.org/1999/xlink">
<g id="graph0" class="graph" transform="scale(1 1) rotate(0) translate(4 427)">
<title>osdk&#45;core/api/src/dji_mfio.cpp</title>
<polygon fill="white" stroke="none" points="-4,4 -4,-427 2079.79,-427 2079.79,4 -4,4"/>
<!-- Node0 -->
<g id="node1" class="node"><title>Node0</title>
<g id="a_node1"><a xlink:title="MFIO API for DJI OSDK library.">
<polygon fill="#bfbfbf" stroke="black" points="649,-392.5 649,-422.5 753,-422.5 753,-392.5 649,-392.5"/>
<text text-anchor="start" x="657" y="-410.5" font-family="Helvetica,sans-Serif" font-size="10.00">osdk&#45;core/api/src/dji</text>
<text text-anchor="middle" x="701" y="-399.5" font-family="Helvetica,sans-Serif" font-size="10.00">_mfio.cpp</text>
</a>
</g>
</g>
<!-- Node1 -->
<g id="node2" class="node"><title>Node1</title>
<g id="a_node2"><a xlink:href="dji__mfio_8hpp.html" target="_top" xlink:title="MFIO API for DJI OSDK library.">
<polygon fill="white" stroke="black" points="76.5,-280.5 76.5,-299.5 145.5,-299.5 145.5,-280.5 76.5,-280.5"/>
<text text-anchor="middle" x="111" y="-287.5" font-family="Helvetica,sans-Serif" font-size="10.00">dji_mfio.hpp</text>
</a>
</g>
</g>
<!-- Node0&#45;&gt;Node1 -->
<g id="edge1" class="edge"><title>Node0&#45;&gt;Node1</title>
<path fill="none" stroke="midnightblue" d="M648.9,-396.301C534.457,-373.897 262.806,-320.718 155.609,-299.733"/>
<polygon fill="midnightblue" stroke="midnightblue" points="156.245,-296.291 145.759,-297.805 154.9,-303.161 156.245,-296.291"/>
</g>
<!-- Node4 -->
<g id="node5" class="node"><title>Node4</title>
<g id="a_node5"><a xlink:href="dji__vehicle_8hpp.html" target="_top" xlink:title="Vehicle API for DJI onboardSDK library.">
<polygon fill="white" stroke="black" points="869.5,-336.5 869.5,-355.5 950.5,-355.5 950.5,-336.5 869.5,-336.5"/>
<text text-anchor="middle" x="910" y="-343.5" font-family="Helvetica,sans-Serif" font-size="10.00">dji_vehicle.hpp</text>
</a>
</g>
</g>
<!-- Node0&#45;&gt;Node4 -->
<g id="edge4" class="edge"><title>Node0&#45;&gt;Node4</title>
<path fill="none" stroke="midnightblue" d="M750.265,-392.475C786.952,-382.03 836.384,-367.958 870.494,-358.247"/>
<polygon fill="midnightblue" stroke="midnightblue" points="871.461,-361.611 880.12,-355.506 869.544,-354.878 871.461,-361.611"/>
</g>
<!-- Node2 -->
<g id="node3" class="node"><title>Node2</title>
<g id="a_node3"><a xlink:href="dji__vehicle__callback_8hpp.html" target="_top" xlink:title="Type definition for new Vehicle&#45;style callbacks.">
<polygon fill="white" stroke="black" points="413,-112.5 413,-131.5 535,-131.5 535,-112.5 413,-112.5"/>
<text text-anchor="middle" x="474" y="-119.5" font-family="Helvetica,sans-Serif" font-size="10.00">dji_vehicle_callback.hpp</text>
</a>
</g>
</g>
<!-- Node1&#45;&gt;Node2 -->
<g id="edge2" class="edge"><title>Node1&#45;&gt;Node2</title>
<path fill="none" stroke="midnightblue" d="M94.367,-280.464C81.5121,-272.841 64.6608,-260.356 57,-244 41.527,-210.964 57.7005,-188.315 88,-168 137.996,-134.479 305.825,-125.825 402.936,-123.658"/>
<polygon fill="midnightblue" stroke="midnightblue" points="403.046,-127.157 412.972,-123.452 402.902,-120.158 403.046,-127.157"/>
</g>
<!-- Node3 -->
<g id="node4" class="node"><title>Node3</title>
<g id="a_node4"><a xlink:title=" ">
<polygon fill="white" stroke="#bfbfbf" points="542.5,-56.5 542.5,-75.5 653.5,-75.5 653.5,-56.5 542.5,-56.5"/>
<text text-anchor="middle" x="598" y="-63.5" font-family="Helvetica,sans-Serif" font-size="10.00">dji_open_protocol.hpp</text>
</a>
</g>
</g>
<!-- Node2&#45;&gt;Node3 -->
<g id="edge3" class="edge"><title>Node2&#45;&gt;Node3</title>
<path fill="none" stroke="midnightblue" d="M493.648,-112.444C513.965,-103.596 545.903,-89.6875 569.098,-79.5865"/>
<polygon fill="midnightblue" stroke="midnightblue" points="570.673,-82.7181 578.444,-75.5164 567.878,-76.3002 570.673,-82.7181"/>
</g>
<!-- Node4&#45;&gt;Node1 -->
<g id="edge41" class="edge"><title>Node4&#45;&gt;Node1</title>
<path fill="none" stroke="midnightblue" d="M869.193,-344.295C756.121,-341.967 429.344,-332.693 160,-300 158.696,-299.842 157.374,-299.671 156.041,-299.489"/>
<polygon fill="midnightblue" stroke="midnightblue" points="156.132,-295.962 145.719,-297.916 155.078,-302.882 156.132,-295.962"/>
</g>
<!-- Node4&#45;&gt;Node2 -->
<g id="edge66" class="edge"><title>Node4&#45;&gt;Node2</title>
<path fill="none" stroke="midnightblue" d="M869.406,-345.257C735.586,-345.683 314.559,-343.53 274,-300 230.069,-252.851 283.411,-207.921 334,-168 355.232,-151.246 382.866,-140.652 407.967,-133.989"/>
<polygon fill="midnightblue" stroke="midnightblue" points="408.951,-137.351 417.809,-131.538 407.259,-130.558 408.951,-137.351"/>
</g>
<!-- Node4&#45;&gt;Node3 -->
<g id="edge57" class="edge"><title>Node4&#45;&gt;Node3</title>
<path fill="none" stroke="midnightblue" d="M869.329,-344.498C711,-342.319 140.913,-332.282 67,-300 28.9798,-283.394 0,-276.488 0,-235 0,-235 0,-235 0,-177 0,-110.808 70.2797,-129.921 134,-112 271.849,-73.2314 440.792,-66.5565 532.002,-66.1316"/>
<polygon fill="midnightblue" stroke="midnightblue" points="532.203,-69.6312 542.195,-66.1088 532.187,-62.6312 532.203,-69.6312"/>
</g>
<!-- Node5 -->
<g id="node6" class="node"><title>Node5</title>
<g id="a_node6"><a xlink:title=" ">
<polygon fill="white" stroke="#bfbfbf" points="638,-112.5 638,-131.5 684,-131.5 684,-112.5 638,-112.5"/>
<text text-anchor="middle" x="661" y="-119.5" font-family="Helvetica,sans-Serif" font-size="10.00">cstdint</text>
</a>
</g>
</g>
<!-- Node4&#45;&gt;Node5 -->
<g id="edge5" class="edge"><title>Node4&#45;&gt;Node5</title>
<path fill="none" stroke="midnightblue" d="M869.263,-336.637C821.22,-324.604 742.421,-297.678 699,-244 674.503,-213.716 665.716,-167.505 662.625,-141.841"/>
<polygon fill="midnightblue" stroke="midnightblue" points="666.079,-141.214 661.57,-131.626 659.116,-141.933 666.079,-141.214"/>
</g>
<!-- Node6 -->
<g id="node7" class="node"><title>Node6</title>
<g id="a_node7"><a xlink:href="dji__broadcast_8hpp.html" target="_top" xlink:title="Broadcast Telemetry API for DJI onboardSDK library.">
<polygon fill="white" stroke="black" points="708.5,-224.5 708.5,-243.5 801.5,-243.5 801.5,-224.5 708.5,-224.5"/>
<text text-anchor="middle" x="755" y="-231.5" font-family="Helvetica,sans-Serif" font-size="10.00">dji_broadcast.hpp</text>
</a>
</g>
</g>
<!-- Node4&#45;&gt;Node6 -->
<g id="edge6" class="edge"><title>Node4&#45;&gt;Node6</title>
<path fill="none" stroke="midnightblue" d="M891.122,-336.364C873.795,-328.073 847.743,-314.671 827,-300 806.082,-285.206 784.597,-265.038 770.608,-251.11"/>
<polygon fill="midnightblue" stroke="midnightblue" points="772.818,-248.367 763.298,-243.717 767.84,-253.289 772.818,-248.367"/>
</g>
<!-- Node8 -->
<g id="node9" class="node"><title>Node8</title>
<g id="a_node9"><a xlink:href="dji__type_8hpp.html" target="_top" xlink:title="Data type and Data Structure definitions for use throughout DJI OSDK.">
<polygon fill="white" stroke="black" points="1244.5,-112.5 1244.5,-131.5 1313.5,-131.5 1313.5,-112.5 1244.5,-112.5"/>
<text text-anchor="middle" x="1279" y="-119.5" font-family="Helvetica,sans-Serif" font-size="10.00">dji_type.hpp</text>
</a>
</g>
</g>
<!-- Node4&#45;&gt;Node8 -->
<g id="edge65" class="edge"><title>Node4&#45;&gt;Node8</title>
<path fill="none" stroke="midnightblue" d="M950.628,-341.39C1011.68,-335.341 1123.5,-321.648 1157,-300 1218.34,-260.359 1257.19,-177.901 1272.09,-141.245"/>
<polygon fill="midnightblue" stroke="midnightblue" points="1275.39,-142.401 1275.8,-131.814 1268.88,-139.838 1275.39,-142.401"/>
</g>
<!-- Node11 -->
<g id="node12" class="node"><title>Node11</title>
<g id="a_node12"><a xlink:href="dji__camera_8hpp.html" target="_top" xlink:title="Camera/Gimbal API for DJI onboardSDK library.">
<polygon fill="white" stroke="black" points="1486.5,-168.5 1486.5,-187.5 1569.5,-187.5 1569.5,-168.5 1486.5,-168.5"/>
<text text-anchor="middle" x="1528" y="-175.5" font-family="Helvetica,sans-Serif" font-size="10.00">dji_camera.hpp</text>
</a>
</g>
</g>
<!-- Node4&#45;&gt;Node11 -->
<g id="edge12" class="edge"><title>Node4&#45;&gt;Node11</title>
<path fill="none" stroke="midnightblue" d="M950.791,-345.103C1028.51,-344.354 1202.59,-338.118 1343,-300 1363.73,-294.372 1366.88,-287.525 1387,-280 1439.55,-260.345 1468.14,-283.489 1508,-244 1520.18,-231.935 1524.98,-212.648 1526.85,-198.212"/>
<polygon fill="midnightblue" stroke="midnightblue" points="1530.36,-198.186 1527.81,-187.904 1523.39,-197.537 1530.36,-198.186"/>
</g>
<!-- Node12 -->
<g id="node13" class="node"><title>Node12</title>
<g id="a_node13"><a xlink:href="dji__command_8hpp.html" target="_top" xlink:title="All DJI OSDK OpenProtocol Command IDs.">
<polygon fill="white" stroke="black" points="1411.5,-112.5 1411.5,-131.5 1504.5,-131.5 1504.5,-112.5 1411.5,-112.5"/>
<text text-anchor="middle" x="1458" y="-119.5" font-family="Helvetica,sans-Serif" font-size="10.00">dji_command.hpp</text>
</a>
</g>
</g>
<!-- Node4&#45;&gt;Node12 -->
<g id="edge19" class="edge"><title>Node4&#45;&gt;Node12</title>
<path fill="none" stroke="midnightblue" d="M950.563,-344.949C1148.75,-344.507 2007.3,-340.267 2046,-300 2203.63,-135.999 1690,-122.422 1514.59,-122.447"/>
<polygon fill="midnightblue" stroke="midnightblue" points="1514.51,-118.947 1504.52,-122.464 1514.52,-125.947 1514.51,-118.947"/>
</g>
<!-- Node14 -->
<g id="node15" class="node"><title>Node14</title>
<g id="a_node15"><a xlink:title=" ">
<polygon fill="white" stroke="#bfbfbf" points="1429,-280.5 1429,-299.5 1541,-299.5 1541,-280.5 1429,-280.5"/>
<text text-anchor="middle" x="1485" y="-287.5" font-family="Helvetica,sans-Serif" font-size="10.00">dji_circular_buffer.hpp</text>
</a>
</g>
</g>
<!-- Node4&#45;&gt;Node14 -->
<g id="edge18" class="edge"><title>Node4&#45;&gt;Node14</title>
<path fill="none" stroke="midnightblue" d="M950.638,-341.92C1036.49,-335.293 1242.62,-318.755 1415,-300 1416.27,-299.862 1417.55,-299.721 1418.84,-299.576"/>
<polygon fill="midnightblue" stroke="midnightblue" points="1419.33,-303.042 1428.86,-298.414 1418.52,-296.089 1419.33,-303.042"/>
</g>
<!-- Node15 -->
<g id="node16" class="node"><title>Node15</title>
<g id="a_node16"><a xlink:href="dji__control_8hpp.html" target="_top" xlink:title="Control API for DJI OSDK library.">
<polygon fill="white" stroke="black" points="836,-280.5 836,-299.5 916,-299.5 916,-280.5 836,-280.5"/>
<text text-anchor="middle" x="876" y="-287.5" font-family="Helvetica,sans-Serif" font-size="10.00">dji_control.hpp</text>
</a>
</g>
</g>
<!-- Node4&#45;&gt;Node15 -->
<g id="edge20" class="edge"><title>Node4&#45;&gt;Node15</title>
<path fill="none" stroke="midnightblue" d="M904.386,-336.083C899.633,-328.534 892.682,-317.495 886.848,-308.23"/>
<polygon fill="midnightblue" stroke="midnightblue" points="889.8,-306.349 881.51,-299.751 883.876,-310.078 889.8,-306.349"/>
</g>
<!-- Node18 -->
<g id="node19" class="node"><title>Node18</title>
<g id="a_node19"><a xlink:href="dji__version_8hpp.html" target="_top" xlink:title="Drone/SDK Version definition for DJI onboardSDK library.">
<polygon fill="white" stroke="black" points="778,-168.5 778,-187.5 860,-187.5 860,-168.5 778,-168.5"/>
<text text-anchor="middle" x="819" y="-175.5" font-family="Helvetica,sans-Serif" font-size="10.00">dji_version.hpp</text>
</a>
</g>
</g>
<!-- Node4&#45;&gt;Node18 -->
<g id="edge67" class="edge"><title>Node4&#45;&gt;Node18</title>
<path fill="none" stroke="midnightblue" d="M914.164,-336.382C923.805,-315.05 944.997,-258.988 920,-224 908.074,-207.307 888.503,-196.709 869.749,-190.027"/>
<polygon fill="midnightblue" stroke="midnightblue" points="870.654,-186.64 860.061,-186.877 868.489,-193.297 870.654,-186.64"/>
</g>
<!-- Node20 -->
<g id="node21" class="node"><title>Node20</title>
<g id="a_node21"><a xlink:href="dji__gimbal_8hpp.html" target="_top" xlink:title="Gimbal API for OSDK library.">
<polygon fill="white" stroke="black" points="1587.5,-168.5 1587.5,-187.5 1666.5,-187.5 1666.5,-168.5 1587.5,-168.5"/>
<text text-anchor="middle" x="1627" y="-175.5" font-family="Helvetica,sans-Serif" font-size="10.00">dji_gimbal.hpp</text>
</a>
</g>
</g>
<!-- Node4&#45;&gt;Node20 -->
<g id="edge33" class="edge"><title>Node4&#45;&gt;Node20</title>
<path fill="none" stroke="midnightblue" d="M950.613,-342.967C1049.17,-337.734 1298.79,-322.608 1379,-300 1398.51,-294.499 1401.22,-287.641 1420,-280 1467.26,-260.773 1483.11,-266.298 1529,-244 1558.17,-229.826 1588.87,-208.217 1607.97,-193.856"/>
<polygon fill="midnightblue" stroke="midnightblue" points="1610.3,-196.485 1616.12,-187.637 1606.05,-190.92 1610.3,-196.485"/>
</g>
<!-- Node21 -->
<g id="node22" class="node"><title>Node21</title>
<g id="a_node22"><a xlink:title=" ">
<polygon fill="white" stroke="#bfbfbf" points="1559,-280.5 1559,-299.5 1657,-299.5 1657,-280.5 1559,-280.5"/>
<text text-anchor="middle" x="1608" y="-287.5" font-family="Helvetica,sans-Serif" font-size="10.00">dji_hard_driver.hpp</text>
</a>
</g>
</g>
<!-- Node4&#45;&gt;Node21 -->
<g id="edge36" class="edge"><title>Node4&#45;&gt;Node21</title>
<path fill="none" stroke="midnightblue" d="M950.542,-343.33C1050.43,-338.962 1316.52,-325.792 1548.99,-300.019"/>
<polygon fill="midnightblue" stroke="midnightblue" points="1549.44,-303.49 1558.99,-298.9 1548.66,-296.534 1549.44,-303.49"/>
</g>
<!-- Node22 -->
<g id="node23" class="node"><title>Node22</title>
<g id="a_node23"><a xlink:href="dji__hardware__sync_8hpp.html" target="_top" xlink:title="Hardware Sync API for DJI OSDK.">
<polygon fill="white" stroke="black" points="106,-168.5 106,-187.5 222,-187.5 222,-168.5 106,-168.5"/>
<text text-anchor="middle" x="164" y="-175.5" font-family="Helvetica,sans-Serif" font-size="10.00">dji_hardware_sync.hpp</text>
</a>
</g>
</g>
<!-- Node4&#45;&gt;Node22 -->
<g id="edge37" class="edge"><title>Node4&#45;&gt;Node22</title>
<path fill="none" stroke="midnightblue" d="M869.226,-344.51C731.559,-342.549 289.55,-333.669 236,-300 203.145,-279.343 213.075,-257.214 193,-224 187.341,-214.638 180.755,-204.372 175.291,-196.012"/>
<polygon fill="midnightblue" stroke="midnightblue" points="178.131,-193.961 169.708,-187.534 172.285,-197.811 178.131,-193.961"/>
</g>
<!-- Node24 -->
<g id="node25" class="node"><title>Node24</title>
<g id="a_node25"><a xlink:href="dji__mission__manager_8hpp.html" target="_top" xlink:title="Mission&#45;Manager API for DJI OSDK library.">
<polygon fill="white" stroke="black" points="1207.5,-280.5 1207.5,-299.5 1334.5,-299.5 1334.5,-280.5 1207.5,-280.5"/>
<text text-anchor="middle" x="1271" y="-287.5" font-family="Helvetica,sans-Serif" font-size="10.00">dji_mission_manager.hpp</text>
</a>
</g>
</g>
<!-- Node4&#45;&gt;Node24 -->
<g id="edge42" class="edge"><title>Node4&#45;&gt;Node24</title>
<path fill="none" stroke="midnightblue" d="M950.71,-338.91C1012.26,-329.703 1129.69,-312.137 1203.98,-301.025"/>
<polygon fill="midnightblue" stroke="midnightblue" points="1204.79,-304.443 1214.16,-299.502 1203.76,-297.52 1204.79,-304.443"/>
</g>
<!-- Node29 -->
<g id="node30" class="node"><title>Node29</title>
<g id="a_node30"><a xlink:href="dji__mobile__communication_8hpp.html" target="_top" xlink:title="Implementation of DJI Mobile&#45;Onboard SDK Communication (MOC)">
<polygon fill="white" stroke="black" points="283,-280.5 283,-299.5 433,-299.5 433,-280.5 283,-280.5"/>
<text text-anchor="middle" x="358" y="-287.5" font-family="Helvetica,sans-Serif" font-size="10.00">dji_mobile_communication.hpp</text>
</a>
</g>
</g>
<!-- Node4&#45;&gt;Node29 -->
<g id="edge52" class="edge"><title>Node4&#45;&gt;Node29</title>
<path fill="none" stroke="midnightblue" d="M869.41,-341.029C780.018,-332.284 564.516,-311.203 443.729,-299.387"/>
<polygon fill="midnightblue" stroke="midnightblue" points="443.708,-295.868 433.414,-298.378 443.026,-302.835 443.708,-295.868"/>
</g>
<!-- Node31 -->
<g id="node32" class="node"><title>Node31</title>
<g id="a_node32"><a xlink:href="dji__mobile__device_8hpp.html" target="_top" xlink:title="Implementation of DJI Mobile Device Abstraction.">
<polygon fill="white" stroke="black" points="417.5,-224.5 417.5,-243.5 530.5,-243.5 530.5,-224.5 417.5,-224.5"/>
<text text-anchor="middle" x="474" y="-231.5" font-family="Helvetica,sans-Serif" font-size="10.00">dji_mobile_device.hpp</text>
</a>
</g>
</g>
<!-- Node4&#45;&gt;Node31 -->
<g id="edge55" class="edge"><title>Node4&#45;&gt;Node31</title>
<path fill="none" stroke="midnightblue" d="M869.47,-341.147C815.46,-335.38 717.256,-322.679 636,-300 587.011,-286.327 532.626,-262.644 500.977,-247.953"/>
<polygon fill="midnightblue" stroke="midnightblue" points="502.075,-244.602 491.536,-243.523 499.102,-250.939 502.075,-244.602"/>
</g>
<!-- Node32 -->
<g id="node33" class="node"><title>Node32</title>
<g id="a_node33"><a xlink:title=" ">
<polygon fill="white" stroke="#bfbfbf" points="1675,-280.5 1675,-299.5 1803,-299.5 1803,-280.5 1675,-280.5"/>
<text text-anchor="middle" x="1739" y="-287.5" font-family="Helvetica,sans-Serif" font-size="10.00">dji_platform_manager.hpp</text>
</a>
</g>
</g>
<!-- Node4&#45;&gt;Node32 -->
<g id="edge58" class="edge"><title>Node4&#45;&gt;Node32</title>
<path fill="none" stroke="midnightblue" d="M950.634,-343.486C1062.62,-339.121 1385.31,-325.244 1664.6,-300.07"/>
<polygon fill="midnightblue" stroke="midnightblue" points="1665.29,-303.522 1674.93,-299.131 1664.65,-296.55 1665.29,-303.522"/>
</g>
<!-- Node33 -->
<g id="node34" class="node"><title>Node33</title>
<g id="a_node34"><a xlink:href="dji__status_8hpp.html" target="_top" xlink:title="Status information for DJI Vehicle.">
<polygon fill="white" stroke="black" points="1821.5,-280.5 1821.5,-299.5 1898.5,-299.5 1898.5,-280.5 1821.5,-280.5"/>
<text text-anchor="middle" x="1860" y="-287.5" font-family="Helvetica,sans-Serif" font-size="10.00">dji_status.hpp</text>
</a>
</g>
</g>
<!-- Node4&#45;&gt;Node33 -->
<g id="edge59" class="edge"><title>Node4&#45;&gt;Node33</title>
<path fill="none" stroke="midnightblue" d="M950.62,-344.93C1076.8,-344.298 1473.27,-339.192 1811.31,-299.895"/>
<polygon fill="midnightblue" stroke="midnightblue" points="1811.77,-303.365 1821.3,-298.723 1810.96,-296.413 1811.77,-303.365"/>
</g>
<!-- Node34 -->
<g id="node35" class="node"><title>Node34</title>
<g id="a_node35"><a xlink:href="dji__subscription_8hpp.html" target="_top" xlink:title="Telemetry Subscription API for DJI OSDK library.">
<polygon fill="white" stroke="black" points="548.5,-224.5 548.5,-243.5 651.5,-243.5 651.5,-224.5 548.5,-224.5"/>
<text text-anchor="middle" x="600" y="-231.5" font-family="Helvetica,sans-Serif" font-size="10.00">dji_subscription.hpp</text>
</a>
</g>
</g>
<!-- Node4&#45;&gt;Node34 -->
<g id="edge60" class="edge"><title>Node4&#45;&gt;Node34</title>
<path fill="none" stroke="midnightblue" d="M869.214,-344.68C818.762,-342.719 731.524,-334.118 666,-300 643.821,-288.451 624.237,-266.954 612.277,-251.852"/>
<polygon fill="midnightblue" stroke="midnightblue" points="615.001,-249.653 606.154,-243.823 609.435,-253.897 615.001,-249.653"/>
</g>
<!-- Node35 -->
<g id="node36" class="node"><title>Node35</title>
<g id="a_node36"><a xlink:title=" ">
<polygon fill="white" stroke="#bfbfbf" points="1917,-280.5 1917,-299.5 2037,-299.5 2037,-280.5 1917,-280.5"/>
<text text-anchor="middle" x="1977" y="-287.5" font-family="Helvetica,sans-Serif" font-size="10.00">dji_thread_manager.hpp</text>
</a>
</g>
</g>
<!-- Node4&#45;&gt;Node35 -->
<g id="edge64" class="edge"><title>Node4&#45;&gt;Node35</title>
<path fill="none" stroke="midnightblue" d="M950.959,-344.395C1085.99,-342.139 1529.5,-332.636 1906.8,-300.027"/>
<polygon fill="midnightblue" stroke="midnightblue" points="1907.16,-303.509 1916.82,-299.154 1906.56,-296.535 1907.16,-303.509"/>
</g>
<!-- Node36 -->
<g id="node37" class="node"><title>Node36</title>
<g id="a_node37"><a xlink:href="dji__virtual__rc_8hpp.html" target="_top" xlink:title="Virtual Radio Control API for DJI onboardSDK library.">
<polygon fill="white" stroke="black" points="1058,-280.5 1058,-299.5 1148,-299.5 1148,-280.5 1058,-280.5"/>
<text text-anchor="middle" x="1103" y="-287.5" font-family="Helvetica,sans-Serif" font-size="10.00">dji_virtual_rc.hpp</text>
</a>
</g>
</g>
<!-- Node4&#45;&gt;Node36 -->
<g id="edge68" class="edge"><title>Node4&#45;&gt;Node36</title>
<path fill="none" stroke="midnightblue" d="M940.581,-336.444C973.615,-327.201 1026.39,-312.436 1062.77,-302.257"/>
<polygon fill="midnightblue" stroke="midnightblue" points="1063.87,-305.582 1072.56,-299.516 1061.99,-298.84 1063.87,-305.582"/>
</g>
<!-- Node37 -->
<g id="node38" class="node"><title>Node37</title>
<g id="a_node38"><a xlink:href="dji__payload__device_8hpp.html" target="_top" xlink:title="Implementation of DJI Payload Device Abstraction.">
<polygon fill="white" stroke="black" points="66,-224.5 66,-243.5 184,-243.5 184,-224.5 66,-224.5"/>
<text text-anchor="middle" x="125" y="-231.5" font-family="Helvetica,sans-Serif" font-size="10.00">dji_payload_device.hpp</text>
</a>
</g>
</g>
<!-- Node4&#45;&gt;Node37 -->
<g id="edge73" class="edge"><title>Node4&#45;&gt;Node37</title>
<path fill="none" stroke="midnightblue" d="M869.289,-343.974C727.402,-340.184 259.939,-325.845 198,-300 173.158,-289.634 151.074,-267.158 137.868,-251.559"/>
<polygon fill="midnightblue" stroke="midnightblue" points="140.513,-249.265 131.484,-243.722 135.086,-253.685 140.513,-249.265"/>
</g>
<!-- Node6&#45;&gt;Node2 -->
<g id="edge11" class="edge"><title>Node6&#45;&gt;Node2</title>
<path fill="none" stroke="midnightblue" d="M727.494,-224.47C700.421,-215.894 658.021,-201.973 622,-188 579.218,-171.404 530.708,-149.49 501.241,-135.823"/>
<polygon fill="midnightblue" stroke="midnightblue" points="502.556,-132.574 492.014,-131.523 499.6,-138.919 502.556,-132.574"/>
</g>
<!-- Node7 -->
<g id="node8" class="node"><title>Node7</title>
<g id="a_node8"><a xlink:href="dji__telemetry_8hpp.html" target="_top" xlink:title="Enumeration of all telemetry data types, structures and maps.">
<polygon fill="white" stroke="black" points="1096.5,-168.5 1096.5,-187.5 1187.5,-187.5 1187.5,-168.5 1096.5,-168.5"/>
<text text-anchor="middle" x="1142" y="-175.5" font-family="Helvetica,sans-Serif" font-size="10.00">dji_telemetry.hpp</text>
</a>
</g>
</g>
<!-- Node6&#45;&gt;Node7 -->
<g id="edge7" class="edge"><title>Node6&#45;&gt;Node7</title>
<path fill="none" stroke="midnightblue" d="M801.519,-227.105C863.84,-219.116 978.136,-204.148 1086.29,-188.07"/>
<polygon fill="midnightblue" stroke="midnightblue" points="1087.02,-191.499 1096.4,-186.561 1085.99,-184.576 1087.02,-191.499"/>
</g>
<!-- Node7&#45;&gt;Node8 -->
<g id="edge8" class="edge"><title>Node7&#45;&gt;Node8</title>
<path fill="none" stroke="midnightblue" d="M1163.71,-168.444C1186.35,-159.517 1222.07,-145.439 1247.75,-135.317"/>
<polygon fill="midnightblue" stroke="midnightblue" points="1249.37,-138.44 1257.39,-131.516 1246.81,-131.927 1249.37,-138.44"/>
</g>
<!-- Node9 -->
<g id="node10" class="node"><title>Node9</title>
<g id="a_node10"><a xlink:title=" ">
<polygon fill="white" stroke="#bfbfbf" points="1257.5,-56.5 1257.5,-75.5 1300.5,-75.5 1300.5,-56.5 1257.5,-56.5"/>
<text text-anchor="middle" x="1279" y="-63.5" font-family="Helvetica,sans-Serif" font-size="10.00">cstdio</text>
</a>
</g>
</g>
<!-- Node8&#45;&gt;Node9 -->
<g id="edge9" class="edge"><title>Node8&#45;&gt;Node9</title>
<path fill="none" stroke="midnightblue" d="M1279,-112.083C1279,-105.006 1279,-94.8611 1279,-85.9865"/>
<polygon fill="midnightblue" stroke="midnightblue" points="1282.5,-85.751 1279,-75.7511 1275.5,-85.7511 1282.5,-85.751"/>
</g>
<!-- Node10 -->
<g id="node11" class="node"><title>Node10</title>
<g id="a_node11"><a xlink:title=" ">
<polygon fill="white" stroke="#bfbfbf" points="1370.5,-0.5 1370.5,-19.5 1419.5,-19.5 1419.5,-0.5 1370.5,-0.5"/>
<text text-anchor="middle" x="1395" y="-7.5" font-family="Helvetica,sans-Serif" font-size="10.00">stdint.h</text>
</a>
</g>
</g>
<!-- Node8&#45;&gt;Node10 -->
<g id="edge10" class="edge"><title>Node8&#45;&gt;Node10</title>
<path fill="none" stroke="midnightblue" d="M1288.1,-112.368C1307.58,-93.8941 1353.56,-50.2926 1378.4,-26.7436"/>
<polygon fill="midnightblue" stroke="midnightblue" points="1381.09,-29.0121 1385.94,-19.5914 1376.28,-23.9327 1381.09,-29.0121"/>
</g>
<!-- Node11&#45;&gt;Node8 -->
<g id="edge17" class="edge"><title>Node11&#45;&gt;Node8</title>
<path fill="none" stroke="midnightblue" d="M1488.55,-168.444C1443.7,-158.719 1370.66,-142.879 1323.74,-132.702"/>
<polygon fill="midnightblue" stroke="midnightblue" points="1324.37,-129.257 1313.85,-130.558 1322.88,-136.098 1324.37,-129.257"/>
</g>
<!-- Node11&#45;&gt;Node12 -->
<g id="edge13" class="edge"><title>Node11&#45;&gt;Node12</title>
<path fill="none" stroke="midnightblue" d="M1516.75,-168.324C1506.2,-160.185 1490.2,-147.839 1477.56,-138.087"/>
<polygon fill="midnightblue" stroke="midnightblue" points="1479.51,-135.171 1469.45,-131.834 1475.23,-140.713 1479.51,-135.171"/>
</g>
<!-- Node12&#45;&gt;Node10 -->
<g id="edge16" class="edge"><title>Node12&#45;&gt;Node10</title>
<path fill="none" stroke="midnightblue" d="M1446.66,-112.179C1436.69,-103.859 1422.5,-90.5244 1414,-76 1405.56,-61.5704 1400.63,-43.1178 1397.92,-29.5626"/>
<polygon fill="midnightblue" stroke="midnightblue" points="1401.33,-28.7564 1396.14,-19.5238 1394.44,-29.9822 1401.33,-28.7564"/>
</g>
<!-- Node13 -->
<g id="node14" class="node"><title>Node13</title>
<g id="a_node14"><a xlink:href="dji__error_8hpp.html" target="_top" xlink:title="All DJI OSDK OpenProtocol ACK Error Codes.">
<polygon fill="white" stroke="black" points="1423,-56.5 1423,-75.5 1493,-75.5 1493,-56.5 1423,-56.5"/>
<text text-anchor="middle" x="1458" y="-63.5" font-family="Helvetica,sans-Serif" font-size="10.00">dji_error.hpp</text>
</a>
</g>
</g>
<!-- Node12&#45;&gt;Node13 -->
<g id="edge14" class="edge"><title>Node12&#45;&gt;Node13</title>
<path fill="none" stroke="midnightblue" d="M1458,-112.083C1458,-105.006 1458,-94.8611 1458,-85.9865"/>
<polygon fill="midnightblue" stroke="midnightblue" points="1461.5,-85.751 1458,-75.7511 1454.5,-85.7511 1461.5,-85.751"/>
</g>
<!-- Node13&#45;&gt;Node10 -->
<g id="edge15" class="edge"><title>Node13&#45;&gt;Node10</title>
<path fill="none" stroke="midnightblue" d="M1447.88,-56.324C1438.47,-48.2631 1424.26,-36.0765 1412.93,-26.3695"/>
<polygon fill="midnightblue" stroke="midnightblue" points="1415.18,-23.6844 1405.31,-19.8339 1410.62,-28.9993 1415.18,-23.6844"/>
</g>
<!-- Node15&#45;&gt;Node2 -->
<g id="edge32" class="edge"><title>Node15&#45;&gt;Node2</title>
<path fill="none" stroke="midnightblue" d="M869.667,-280.498C858.915,-266.652 835.735,-239.248 810,-224 796.91,-216.244 599.511,-159.051 513.529,-134.33"/>
<polygon fill="midnightblue" stroke="midnightblue" points="514.436,-130.949 503.858,-131.552 512.503,-137.677 514.436,-130.949"/>
</g>
<!-- Node15&#45;&gt;Node3 -->
<g id="edge30" class="edge"><title>Node15&#45;&gt;Node3</title>
<path fill="none" stroke="midnightblue" d="M872.766,-280.295C867.307,-266.652 855.061,-240.13 837,-224 808.221,-198.298 788.823,-211.21 758,-188 722.494,-161.264 728.307,-138.998 693,-112 674.729,-98.0289 651.423,-86.9075 632.468,-79.216"/>
<polygon fill="midnightblue" stroke="midnightblue" points="633.589,-75.8965 623.002,-75.5095 631.037,-82.4147 633.589,-75.8965"/>
</g>
<!-- Node15&#45;&gt;Node8 -->
<g id="edge31" class="edge"><title>Node15&#45;&gt;Node8</title>
<path fill="none" stroke="midnightblue" d="M880.077,-280.462C885.822,-267.049 894.305,-240.835 882,-224 848.924,-178.748 731.148,-209.339 769,-168 800.1,-134.035 1115.09,-125.571 1233.94,-123.579"/>
<polygon fill="midnightblue" stroke="midnightblue" points="1234.2,-127.075 1244.15,-123.416 1234.09,-120.076 1234.2,-127.075"/>
</g>
<!-- Node16 -->
<g id="node17" class="node"><title>Node16</title>
<g id="a_node17"><a xlink:href="dji__ack_8hpp.html" target="_top" xlink:title="All DJI OSDK ACK parsing.">
<polygon fill="white" stroke="black" points="972,-224.5 972,-243.5 1038,-243.5 1038,-224.5 972,-224.5"/>
<text text-anchor="middle" x="1005" y="-231.5" font-family="Helvetica,sans-Serif" font-size="10.00">dji_ack.hpp</text>
</a>
</g>
</g>
<!-- Node15&#45;&gt;Node16 -->
<g id="edge21" class="edge"><title>Node15&#45;&gt;Node16</title>
<path fill="none" stroke="midnightblue" d="M896.44,-280.444C917.67,-271.557 951.099,-257.563 975.255,-247.451"/>
<polygon fill="midnightblue" stroke="midnightblue" points="976.782,-250.606 984.655,-243.516 974.079,-244.149 976.782,-250.606"/>
</g>
<!-- Node16&#45;&gt;Node8 -->
<g id="edge25" class="edge"><title>Node16&#45;&gt;Node8</title>
<path fill="none" stroke="midnightblue" d="M991.719,-224.327C973.519,-211.405 944.827,-186.623 961,-168 995.859,-127.861 1155.23,-122.551 1234.27,-122.455"/>
<polygon fill="midnightblue" stroke="midnightblue" points="1234.41,-125.955 1244.42,-122.471 1234.42,-118.955 1234.41,-125.955"/>
</g>
<!-- Node16&#45;&gt;Node12 -->
<g id="edge22" class="edge"><title>Node16&#45;&gt;Node12</title>
<path fill="none" stroke="midnightblue" d="M1038.01,-231.674C1134.03,-227.532 1408.34,-213.555 1439,-188 1452.39,-176.842 1456.64,-156.816 1457.85,-141.93"/>
<polygon fill="midnightblue" stroke="midnightblue" points="1461.35,-141.921 1458.28,-131.781 1454.36,-141.623 1461.35,-141.921"/>
</g>
<!-- Node17 -->
<g id="node18" class="node"><title>Node17</title>
<g id="a_node18"><a xlink:href="dji__mission__type_8hpp.html" target="_top" xlink:title="Mission related data struct for DJI OSDK library.">
<polygon fill="white" stroke="black" points="970,-168.5 970,-187.5 1078,-187.5 1078,-168.5 970,-168.5"/>
<text text-anchor="middle" x="1024" y="-175.5" font-family="Helvetica,sans-Serif" font-size="10.00">dji_mission_type.hpp</text>
</a>
</g>
</g>
<!-- Node16&#45;&gt;Node17 -->
<g id="edge23" class="edge"><title>Node16&#45;&gt;Node17</title>
<path fill="none" stroke="midnightblue" d="M1008.14,-224.083C1010.68,-216.849 1014.36,-206.409 1017.53,-197.397"/>
<polygon fill="midnightblue" stroke="midnightblue" points="1020.9,-198.346 1020.92,-187.751 1014.3,-196.023 1020.9,-198.346"/>
</g>
<!-- Node16&#45;&gt;Node18 -->
<g id="edge26" class="edge"><title>Node16&#45;&gt;Node18</title>
<path fill="none" stroke="midnightblue" d="M975.528,-224.444C943.829,-215.241 893.268,-200.562 858.225,-190.388"/>
<polygon fill="midnightblue" stroke="midnightblue" points="858.914,-186.943 848.334,-187.516 856.962,-193.666 858.914,-186.943"/>
</g>
<!-- Node19 -->
<g id="node20" class="node"><title>Node19</title>
<g id="a_node20"><a xlink:title=" ">
<polygon fill="white" stroke="#bfbfbf" points="878.5,-168.5 878.5,-187.5 913.5,-187.5 913.5,-168.5 878.5,-168.5"/>
<text text-anchor="middle" x="896" y="-175.5" font-family="Helvetica,sans-Serif" font-size="10.00">map</text>
</a>
</g>
</g>
<!-- Node16&#45;&gt;Node19 -->
<g id="edge29" class="edge"><title>Node16&#45;&gt;Node19</title>
<path fill="none" stroke="midnightblue" d="M987.487,-224.324C969.928,-215.625 942.669,-202.12 922.469,-192.113"/>
<polygon fill="midnightblue" stroke="midnightblue" points="923.984,-188.958 913.469,-187.655 920.876,-195.23 923.984,-188.958"/>
</g>
<!-- Node17&#45;&gt;Node8 -->
<g id="edge24" class="edge"><title>Node17&#45;&gt;Node8</title>
<path fill="none" stroke="midnightblue" d="M1064.41,-168.444C1110.69,-158.643 1186.3,-142.631 1234.31,-132.465"/>
<polygon fill="midnightblue" stroke="midnightblue" points="1235.05,-135.884 1244.11,-130.388 1233.6,-129.036 1235.05,-135.884"/>
</g>
<!-- Node18&#45;&gt;Node5 -->
<g id="edge28" class="edge"><title>Node18&#45;&gt;Node5</title>
<path fill="none" stroke="midnightblue" d="M793.964,-168.444C766.837,-159.172 723.447,-144.343 693.657,-134.161"/>
<polygon fill="midnightblue" stroke="midnightblue" points="694.714,-130.824 684.119,-130.902 692.45,-137.448 694.714,-130.824"/>
</g>
<!-- Node18&#45;&gt;Node12 -->
<g id="edge27" class="edge"><title>Node18&#45;&gt;Node12</title>
<path fill="none" stroke="midnightblue" d="M860.149,-169.25C863.139,-168.793 866.113,-168.369 869,-168 920.803,-161.376 1263.07,-136.804 1400.77,-127.039"/>
<polygon fill="midnightblue" stroke="midnightblue" points="1401.38,-130.504 1411.1,-126.306 1400.88,-123.522 1401.38,-130.504"/>
</g>
<!-- Node20&#45;&gt;Node8 -->
<g id="edge35" class="edge"><title>Node20&#45;&gt;Node8</title>
<path fill="none" stroke="midnightblue" d="M1587.47,-169.47C1584.6,-168.96 1581.76,-168.465 1579,-168 1488.61,-152.752 1382.46,-137.437 1323.76,-129.194"/>
<polygon fill="midnightblue" stroke="midnightblue" points="1324.1,-125.708 1313.71,-127.788 1323.13,-132.64 1324.1,-125.708"/>
</g>
<!-- Node20&#45;&gt;Node12 -->
<g id="edge34" class="edge"><title>Node20&#45;&gt;Node12</title>
<path fill="none" stroke="midnightblue" d="M1600.22,-168.444C1571.67,-159.32 1526.27,-144.813 1494.46,-134.651"/>
<polygon fill="midnightblue" stroke="midnightblue" points="1495.24,-131.226 1484.65,-131.516 1493.11,-137.894 1495.24,-131.226"/>
</g>
<!-- Node22&#45;&gt;Node2 -->
<g id="edge39" class="edge"><title>Node22&#45;&gt;Node2</title>
<path fill="none" stroke="midnightblue" d="M213.12,-168.444C267.879,-158.905 356.41,-143.483 414.911,-133.293"/>
<polygon fill="midnightblue" stroke="midnightblue" points="415.858,-136.681 425.109,-131.516 414.657,-129.785 415.858,-136.681"/>
</g>
<!-- Node22&#45;&gt;Node8 -->
<g id="edge38" class="edge"><title>Node22&#45;&gt;Node8</title>
<path fill="none" stroke="midnightblue" d="M222.377,-174.173C419.65,-164.619 1058.91,-133.659 1234.19,-125.17"/>
<polygon fill="midnightblue" stroke="midnightblue" points="1234.53,-128.658 1244.35,-124.678 1234.19,-121.666 1234.53,-128.658"/>
</g>
<!-- Node23 -->
<g id="node24" class="node"><title>Node23</title>
<g id="a_node24"><a xlink:title=" ">
<polygon fill="white" stroke="#bfbfbf" points="143.5,-112.5 143.5,-131.5 184.5,-131.5 184.5,-112.5 143.5,-112.5"/>
<text text-anchor="middle" x="164" y="-119.5" font-family="Helvetica,sans-Serif" font-size="10.00">string</text>
</a>
</g>
</g>
<!-- Node22&#45;&gt;Node23 -->
<g id="edge40" class="edge"><title>Node22&#45;&gt;Node23</title>
<path fill="none" stroke="midnightblue" d="M164,-168.083C164,-161.006 164,-150.861 164,-141.986"/>
<polygon fill="midnightblue" stroke="midnightblue" points="167.5,-141.751 164,-131.751 160.5,-141.751 167.5,-141.751"/>
</g>
<!-- Node25 -->
<g id="node26" class="node"><title>Node25</title>
<g id="a_node26"><a xlink:href="dji__hotpoint_8hpp.html" target="_top" xlink:title="Implementation of HotPoint (Point of Interest) Missions for DJI OSDK.">
<polygon fill="white" stroke="black" points="1307.5,-224.5 1307.5,-243.5 1392.5,-243.5 1392.5,-224.5 1307.5,-224.5"/>
<text text-anchor="middle" x="1350" y="-231.5" font-family="Helvetica,sans-Serif" font-size="10.00">dji_hotpoint.hpp</text>
</a>
</g>
</g>
<!-- Node24&#45;&gt;Node25 -->
<g id="edge43" class="edge"><title>Node24&#45;&gt;Node25</title>
<path fill="none" stroke="midnightblue" d="M1283.69,-280.324C1295.9,-271.979 1314.58,-259.212 1329,-249.352"/>
<polygon fill="midnightblue" stroke="midnightblue" points="1331.06,-252.187 1337.34,-243.655 1327.11,-246.408 1331.06,-252.187"/>
</g>
<!-- Node27 -->
<g id="node28" class="node"><title>Node27</title>
<g id="a_node28"><a xlink:href="dji__waypoint_8hpp.html" target="_top" xlink:title="Implementation of GPS Waypoint Missions for DJI OSDK.">
<polygon fill="white" stroke="black" points="1410.5,-224.5 1410.5,-243.5 1499.5,-243.5 1499.5,-224.5 1410.5,-224.5"/>
<text text-anchor="middle" x="1455" y="-231.5" font-family="Helvetica,sans-Serif" font-size="10.00">dji_waypoint.hpp</text>
</a>
</g>
</g>
<!-- Node24&#45;&gt;Node27 -->
<g id="edge49" class="edge"><title>Node24&#45;&gt;Node27</title>
<path fill="none" stroke="midnightblue" d="M1300.16,-280.444C1331.51,-271.241 1381.53,-256.562 1416.2,-246.388"/>
<polygon fill="midnightblue" stroke="midnightblue" points="1417.37,-249.691 1425.98,-243.516 1415.4,-242.974 1417.37,-249.691"/>
</g>
<!-- Node28 -->
<g id="node29" class="node"><title>Node28</title>
<g id="a_node29"><a xlink:title=" ">
<polygon fill="white" stroke="#bfbfbf" points="1245,-224.5 1245,-243.5 1289,-243.5 1289,-224.5 1245,-224.5"/>
<text text-anchor="middle" x="1267" y="-231.5" font-family="Helvetica,sans-Serif" font-size="10.00">vector</text>
</a>
</g>
</g>
<!-- Node24&#45;&gt;Node28 -->
<g id="edge51" class="edge"><title>Node24&#45;&gt;Node28</title>
<path fill="none" stroke="midnightblue" d="M1270.34,-280.083C1269.82,-273.006 1269.06,-262.861 1268.41,-253.986"/>
<polygon fill="midnightblue" stroke="midnightblue" points="1271.88,-253.465 1267.65,-243.751 1264.9,-253.982 1271.88,-253.465"/>
</g>
<!-- Node25&#45;&gt;Node7 -->
<g id="edge48" class="edge"><title>Node25&#45;&gt;Node7</title>
<path fill="none" stroke="midnightblue" d="M1317.04,-224.444C1281.21,-215.142 1223.84,-200.246 1184.61,-190.062"/>
<polygon fill="midnightblue" stroke="midnightblue" points="1185.36,-186.642 1174.8,-187.516 1183.6,-193.417 1185.36,-186.642"/>
</g>
<!-- Node26 -->
<g id="node27" class="node"><title>Node26</title>
<g id="a_node27"><a xlink:href="dji__mission__base_8hpp.html" target="_top" xlink:title="Mission&#45;Base abstract class for DJI OSDK library.">
<polygon fill="white" stroke="black" points="1320,-168.5 1320,-187.5 1430,-187.5 1430,-168.5 1320,-168.5"/>
<text text-anchor="middle" x="1375" y="-175.5" font-family="Helvetica,sans-Serif" font-size="10.00">dji_mission_base.hpp</text>
</a>
</g>
</g>
<!-- Node25&#45;&gt;Node26 -->
<g id="edge44" class="edge"><title>Node25&#45;&gt;Node26</title>
<path fill="none" stroke="midnightblue" d="M1354.13,-224.083C1357.51,-216.77 1362.42,-206.181 1366.62,-197.103"/>
<polygon fill="midnightblue" stroke="midnightblue" points="1369.92,-198.296 1370.95,-187.751 1363.57,-195.355 1369.92,-198.296"/>
</g>
<!-- Node26&#45;&gt;Node2 -->
<g id="edge47" class="edge"><title>Node26&#45;&gt;Node2</title>
<path fill="none" stroke="midnightblue" d="M1319.99,-173.703C1164.06,-164.358 719.19,-137.695 545.087,-127.26"/>
<polygon fill="midnightblue" stroke="midnightblue" points="545.201,-123.761 535.009,-126.656 544.782,-130.749 545.201,-123.761"/>
</g>
<!-- Node26&#45;&gt;Node8 -->
<g id="edge46" class="edge"><title>Node26&#45;&gt;Node8</title>
<path fill="none" stroke="midnightblue" d="M1359.58,-168.324C1344.46,-159.822 1321.18,-146.729 1303.53,-136.797"/>
<polygon fill="midnightblue" stroke="midnightblue" points="1304.82,-133.507 1294.39,-131.655 1301.39,-139.608 1304.82,-133.507"/>
</g>
<!-- Node26&#45;&gt;Node12 -->
<g id="edge45" class="edge"><title>Node26&#45;&gt;Node12</title>
<path fill="none" stroke="midnightblue" d="M1388.34,-168.324C1401.16,-159.979 1420.78,-147.212 1435.94,-137.352"/>
<polygon fill="midnightblue" stroke="midnightblue" points="1438.22,-140.042 1444.7,-131.655 1434.41,-134.174 1438.22,-140.042"/>
</g>
<!-- Node27&#45;&gt;Node26 -->
<g id="edge50" class="edge"><title>Node27&#45;&gt;Node26</title>
<path fill="none" stroke="midnightblue" d="M1442.15,-224.324C1429.78,-215.979 1410.87,-203.212 1396.26,-193.352"/>
<polygon fill="midnightblue" stroke="midnightblue" points="1398.07,-190.348 1387.82,-187.655 1394.15,-196.15 1398.07,-190.348"/>
</g>
<!-- Node29&#45;&gt;Node2 -->
<g id="edge54" class="edge"><title>Node29&#45;&gt;Node2</title>
<path fill="none" stroke="midnightblue" d="M342.539,-280.367C323.356,-268.466 294.601,-245.99 307,-224 333.829,-176.42 393.091,-148.713 433.301,-134.718"/>
<polygon fill="midnightblue" stroke="midnightblue" points="434.455,-138.022 442.829,-131.532 432.236,-131.384 434.455,-138.022"/>
</g>
<!-- Node30 -->
<g id="node31" class="node"><title>Node30</title>
<g id="a_node31"><a xlink:title=" ">
<polygon fill="white" stroke="#bfbfbf" points="316.5,-224.5 316.5,-243.5 399.5,-243.5 399.5,-224.5 316.5,-224.5"/>
<text text-anchor="middle" x="358" y="-231.5" font-family="Helvetica,sans-Serif" font-size="10.00">dji_macros.hpp</text>
</a>
</g>
</g>
<!-- Node29&#45;&gt;Node30 -->
<g id="edge53" class="edge"><title>Node29&#45;&gt;Node30</title>
<path fill="none" stroke="midnightblue" d="M358,-280.083C358,-273.006 358,-262.861 358,-253.986"/>
<polygon fill="midnightblue" stroke="midnightblue" points="361.5,-253.751 358,-243.751 354.5,-253.751 361.5,-253.751"/>
</g>
<!-- Node31&#45;&gt;Node2 -->
<g id="edge56" class="edge"><title>Node31&#45;&gt;Node2</title>
<path fill="none" stroke="midnightblue" d="M474,-224.368C474,-206.617 474,-165.666 474,-141.597"/>
<polygon fill="midnightblue" stroke="midnightblue" points="477.5,-141.591 474,-131.591 470.5,-141.591 477.5,-141.591"/>
</g>
<!-- Node34&#45;&gt;Node2 -->
<g id="edge63" class="edge"><title>Node34&#45;&gt;Node2</title>
<path fill="none" stroke="midnightblue" d="M588.894,-224.212C577.678,-215.268 559.925,-200.92 545,-188 525.988,-171.542 504.797,-151.975 490.556,-138.64"/>
<polygon fill="midnightblue" stroke="midnightblue" points="492.728,-135.878 483.044,-131.579 487.933,-140.978 492.728,-135.878"/>
</g>
<!-- Node34&#45;&gt;Node3 -->
<g id="edge61" class="edge"><title>Node34&#45;&gt;Node3</title>
<path fill="none" stroke="midnightblue" d="M599.892,-224.075C599.578,-197.945 598.653,-121.211 598.224,-85.577"/>
<polygon fill="midnightblue" stroke="midnightblue" points="601.724,-85.5252 598.103,-75.5681 594.724,-85.6096 601.724,-85.5252"/>
</g>
<!-- Node34&#45;&gt;Node7 -->
<g id="edge62" class="edge"><title>Node34&#45;&gt;Node7</title>
<path fill="none" stroke="midnightblue" d="M651.693,-228.271C765.007,-217.9 1029.16,-193.69 1086.41,-187.809"/>
<polygon fill="midnightblue" stroke="midnightblue" points="1086.86,-191.281 1096.42,-186.711 1086.1,-184.322 1086.86,-191.281"/>
</g>
<!-- Node36&#45;&gt;Node3 -->
<g id="edge70" class="edge"><title>Node36&#45;&gt;Node3</title>
<path fill="none" stroke="midnightblue" d="M1118.54,-280.427C1153.06,-260.325 1230.46,-208.773 1196,-168 1128.45,-88.0803 805.264,-71.3776 664.156,-67.9038"/>
<polygon fill="midnightblue" stroke="midnightblue" points="663.989,-64.3991 653.911,-67.667 663.828,-71.3972 663.989,-64.3991"/>
</g>
<!-- Node36&#45;&gt;Node7 -->
<g id="edge72" class="edge"><title>Node36&#45;&gt;Node7</title>
<path fill="none" stroke="midnightblue" d="M1106.06,-280.368C1112.38,-262.537 1127,-221.295 1135.52,-197.272"/>
<polygon fill="midnightblue" stroke="midnightblue" points="1138.91,-198.186 1138.95,-187.591 1132.31,-195.847 1138.91,-198.186"/>
</g>
<!-- Node36&#45;&gt;Node8 -->
<g id="edge71" class="edge"><title>Node36&#45;&gt;Node8</title>
<path fill="none" stroke="midnightblue" d="M1115.77,-280.482C1139.69,-264.182 1192.25,-226.738 1230,-188 1244.58,-173.033 1258.67,-153.669 1267.97,-139.981"/>
<polygon fill="midnightblue" stroke="midnightblue" points="1270.96,-141.801 1273.58,-131.536 1265.13,-137.924 1270.96,-141.801"/>
</g>
<!-- Node36&#45;&gt;Node16 -->
<g id="edge69" class="edge"><title>Node36&#45;&gt;Node16</title>
<path fill="none" stroke="midnightblue" d="M1087.25,-280.324C1071.68,-271.743 1047.62,-258.486 1029.54,-248.522"/>
<polygon fill="midnightblue" stroke="midnightblue" points="1031.15,-245.415 1020.71,-243.655 1027.78,-251.546 1031.15,-245.415"/>
</g>
<!-- Node37&#45;&gt;Node2 -->
<g id="edge74" class="edge"><title>Node37&#45;&gt;Node2</title>
<path fill="none" stroke="midnightblue" d="M116.04,-224.48C103.022,-211.09 81.9907,-184.907 97,-168 116.905,-145.578 298.942,-132.297 402.599,-126.49"/>
<polygon fill="midnightblue" stroke="midnightblue" points="402.893,-129.979 412.685,-125.934 402.508,-122.99 402.893,-129.979"/>
</g>
</g>
</svg>
