<?xml version="1.0" encoding="UTF-8" standalone="no"?>
<!DOCTYPE svg PUBLIC "-//W3C//DTD SVG 1.1//EN"
 "http://www.w3.org/Graphics/SVG/1.1/DTD/svg11.dtd">
<!-- Generated by graphviz version 2.40.1 (20161225.0304)
 -->
<!-- Title: osdk&#45;lib/x86/osdk&#45;core/inc/dji_mop_pipeline.hpp Pages: 1 -->
<svg width="419pt" height="375pt"
 viewBox="0.00 0.00 418.50 375.00" xmlns="http://www.w3.org/2000/svg" xmlns:xlink="http://www.w3.org/1999/xlink">
<g id="graph0" class="graph" transform="scale(1 1) rotate(0) translate(4 371)">
<title>osdk&#45;lib/x86/osdk&#45;core/inc/dji_mop_pipeline.hpp</title>
<polygon fill="#ffffff" stroke="transparent" points="-4,4 -4,-371 414.5,-371 414.5,4 -4,4"/>
<!-- Node0 -->
<g id="node1" class="node">
<title>Node0</title>
<g id="a_node1"><a xlink:title="Implementation of mop pipeline.">
<polygon fill="#bfbfbf" stroke="#000000" points="0,-336.5 0,-366.5 126,-366.5 126,-336.5 0,-336.5"/>
<text text-anchor="start" x="8" y="-354.5" font-family="Helvetica,sans-Serif" font-size="10.00" fill="#000000">osdk&#45;lib/x86/osdk&#45;core</text>
<text text-anchor="middle" x="63" y="-343.5" font-family="Helvetica,sans-Serif" font-size="10.00" fill="#000000">/inc/dji_mop_pipeline.hpp</text>
</a>
</g>
</g>
<!-- Node1 -->
<g id="node2" class="node">
<title>Node1</title>
<g id="a_node2"><a xlink:title=" ">
<polygon fill="#ffffff" stroke="#bfbfbf" points="68.5,-.5 68.5,-19.5 117.5,-19.5 117.5,-.5 68.5,-.5"/>
<text text-anchor="middle" x="93" y="-7.5" font-family="Helvetica,sans-Serif" font-size="10.00" fill="#000000">stdint.h</text>
</a>
</g>
</g>
<!-- Node0&#45;&gt;Node1 -->
<g id="edge1" class="edge">
<title>Node0&#45;&gt;Node1</title>
<path fill="none" stroke="#191970" d="M54.5376,-336.4463C43.0674,-314.5908 24,-272.4736 24,-234 24,-234 24,-234 24,-122 24,-83.3203 54.2001,-46.7993 74.6409,-26.5101"/>
<polygon fill="#191970" stroke="#191970" points="77.1035,-28.998 81.914,-19.5582 72.2667,-23.9378 77.1035,-28.998"/>
</g>
<!-- Node2 -->
<g id="node3" class="node">
<title>Node2</title>
<g id="a_node3"><a xlink:href="dji__mop__define_8hpp.html" target="_top" xlink:title="Enumeration of all mop data types, structures.">
<polygon fill="#ffffff" stroke="#000000" points="52.5,-280.5 52.5,-299.5 153.5,-299.5 153.5,-280.5 52.5,-280.5"/>
<text text-anchor="middle" x="103" y="-287.5" font-family="Helvetica,sans-Serif" font-size="10.00" fill="#000000">dji_mop_define.hpp</text>
</a>
</g>
</g>
<!-- Node0&#45;&gt;Node2 -->
<g id="edge2" class="edge">
<title>Node0&#45;&gt;Node2</title>
<path fill="none" stroke="#191970" d="M72.8876,-336.2977C78.3822,-327.8498 85.2586,-317.2773 91.0527,-308.369"/>
<polygon fill="#191970" stroke="#191970" points="94.0772,-310.1381 96.5955,-299.8469 88.2092,-306.3215 94.0772,-310.1381"/>
</g>
<!-- Node3 -->
<g id="node4" class="node">
<title>Node3</title>
<g id="a_node4"><a xlink:href="mop__entry__osdk_8h_source.html" target="_top" xlink:title=" ">
<polygon fill="#ffffff" stroke="#000000" points="52.5,-168.5 52.5,-187.5 149.5,-187.5 149.5,-168.5 52.5,-168.5"/>
<text text-anchor="middle" x="101" y="-175.5" font-family="Helvetica,sans-Serif" font-size="10.00" fill="#000000">mop_entry_osdk.h</text>
</a>
</g>
</g>
<!-- Node2&#45;&gt;Node3 -->
<g id="edge3" class="edge">
<title>Node2&#45;&gt;Node3</title>
<path fill="none" stroke="#191970" d="M102.8295,-280.4509C102.5033,-262.184 101.7849,-221.9553 101.3517,-197.6976"/>
<polygon fill="#191970" stroke="#191970" points="104.8482,-197.4608 101.1701,-187.5249 97.8493,-197.5858 104.8482,-197.4608"/>
</g>
<!-- Node4 -->
<g id="node5" class="node">
<title>Node4</title>
<g id="a_node5"><a xlink:href="dji__log_8hpp.html" target="_top" xlink:title="Logging mechanism for printing status and error messages to the screen.">
<polygon fill="#ffffff" stroke="#000000" points="146.5,-224.5 146.5,-243.5 209.5,-243.5 209.5,-224.5 146.5,-224.5"/>
<text text-anchor="middle" x="178" y="-231.5" font-family="Helvetica,sans-Serif" font-size="10.00" fill="#000000">dji_log.hpp</text>
</a>
</g>
</g>
<!-- Node2&#45;&gt;Node4 -->
<g id="edge5" class="edge">
<title>Node2&#45;&gt;Node4</title>
<path fill="none" stroke="#191970" d="M116.064,-280.2455C127.3562,-271.814 143.8845,-259.4729 157.0271,-249.6598"/>
<polygon fill="#191970" stroke="#191970" points="159.1669,-252.4301 165.0857,-243.6427 154.9789,-246.8211 159.1669,-252.4301"/>
</g>
<!-- Node3&#45;&gt;Node1 -->
<g id="edge4" class="edge">
<title>Node3&#45;&gt;Node1</title>
<path fill="none" stroke="#191970" d="M100.547,-168.4862C99.2823,-141.9293 95.6936,-66.5651 93.9603,-30.1655"/>
<polygon fill="#191970" stroke="#191970" points="97.4398,-29.6501 93.468,-19.8279 90.4477,-29.9831 97.4398,-29.6501"/>
</g>
<!-- Node5 -->
<g id="node6" class="node">
<title>Node5</title>
<g id="a_node6"><a xlink:href="dji__singleton_8hpp.html" target="_top" xlink:title="Singleton Template Class implementation for use with the DJI OSDK.">
<polygon fill="#ffffff" stroke="#000000" points="121.5,-112.5 121.5,-131.5 210.5,-131.5 210.5,-112.5 121.5,-112.5"/>
<text text-anchor="middle" x="166" y="-119.5" font-family="Helvetica,sans-Serif" font-size="10.00" fill="#000000">dji_singleton.hpp</text>
</a>
</g>
</g>
<!-- Node4&#45;&gt;Node5 -->
<g id="edge6" class="edge">
<title>Node4&#45;&gt;Node5</title>
<path fill="none" stroke="#191970" d="M176.9769,-224.4509C175.0197,-206.184 170.7095,-165.9553 168.1105,-141.6976"/>
<polygon fill="#191970" stroke="#191970" points="171.566,-141.0951 167.0205,-131.5249 164.6059,-141.8409 171.566,-141.0951"/>
</g>
<!-- Node6 -->
<g id="node7" class="node">
<title>Node6</title>
<g id="a_node7"><a xlink:href="dji__platform_8hpp.html" target="_top" xlink:title="Vehicle API for DJI onboardSDK library.">
<polygon fill="#ffffff" stroke="#000000" points="221,-168.5 221,-187.5 307,-187.5 307,-168.5 221,-168.5"/>
<text text-anchor="middle" x="264" y="-175.5" font-family="Helvetica,sans-Serif" font-size="10.00" fill="#000000">dji_platform.hpp</text>
</a>
</g>
</g>
<!-- Node4&#45;&gt;Node6 -->
<g id="edge7" class="edge">
<title>Node4&#45;&gt;Node6</title>
<path fill="none" stroke="#191970" d="M192.9801,-224.2455C206.1751,-215.6534 225.6051,-203.0014 240.8079,-193.1018"/>
<polygon fill="#191970" stroke="#191970" points="242.7215,-196.0325 249.1916,-187.6427 238.9017,-190.1665 242.7215,-196.0325"/>
</g>
<!-- Node6&#45;&gt;Node5 -->
<g id="edge12" class="edge">
<title>Node6&#45;&gt;Node5</title>
<path fill="none" stroke="#191970" d="M246.9297,-168.2455C231.753,-159.5731 209.3379,-146.7645 191.9437,-136.825"/>
<polygon fill="#191970" stroke="#191970" points="193.2936,-133.5653 182.8747,-131.6427 189.8206,-139.643 193.2936,-133.5653"/>
</g>
<!-- Node7 -->
<g id="node8" class="node">
<title>Node7</title>
<g id="a_node8"><a xlink:href="osdk__platform_8h.html" target="_top" xlink:title="This is the header file for define OSDK platform interfaces.">
<polygon fill="#ffffff" stroke="#000000" points="229,-112.5 229,-131.5 315,-131.5 315,-112.5 229,-112.5"/>
<text text-anchor="middle" x="272" y="-119.5" font-family="Helvetica,sans-Serif" font-size="10.00" fill="#000000">osdk_platform.h</text>
</a>
</g>
</g>
<!-- Node6&#45;&gt;Node7 -->
<g id="edge8" class="edge">
<title>Node6&#45;&gt;Node7</title>
<path fill="none" stroke="#191970" d="M265.3935,-168.2455C266.4374,-160.9382 267.9008,-150.6944 269.1851,-141.7046"/>
<polygon fill="#191970" stroke="#191970" points="272.673,-142.0372 270.6225,-131.6427 265.7434,-141.0472 272.673,-142.0372"/>
</g>
<!-- Node10 -->
<g id="node11" class="node">
<title>Node10</title>
<g id="a_node11"><a xlink:href="osdk__logger_8h.html" target="_top" xlink:title="This is the header file for &quot;osdk_logger.c&quot;, defining the structure and (exported) function prototype...">
<polygon fill="#ffffff" stroke="#000000" points="333.5,-112.5 333.5,-131.5 410.5,-131.5 410.5,-112.5 333.5,-112.5"/>
<text text-anchor="middle" x="372" y="-119.5" font-family="Helvetica,sans-Serif" font-size="10.00" fill="#000000">osdk_logger.h</text>
</a>
</g>
</g>
<!-- Node6&#45;&gt;Node10 -->
<g id="edge13" class="edge">
<title>Node6&#45;&gt;Node10</title>
<path fill="none" stroke="#191970" d="M282.8122,-168.2455C299.8473,-159.4125 325.1575,-146.2887 344.4681,-136.2758"/>
<polygon fill="#191970" stroke="#191970" points="346.137,-139.353 353.4034,-131.6427 342.9147,-133.1388 346.137,-139.353"/>
</g>
<!-- Node8 -->
<g id="node9" class="node">
<title>Node8</title>
<g id="a_node9"><a xlink:href="osdk__typedef_8h_source.html" target="_top" xlink:title=" ">
<polygon fill="#ffffff" stroke="#000000" points="230.5,-56.5 230.5,-75.5 313.5,-75.5 313.5,-56.5 230.5,-56.5"/>
<text text-anchor="middle" x="272" y="-63.5" font-family="Helvetica,sans-Serif" font-size="10.00" fill="#000000">osdk_typedef.h</text>
</a>
</g>
</g>
<!-- Node7&#45;&gt;Node8 -->
<g id="edge9" class="edge">
<title>Node7&#45;&gt;Node8</title>
<path fill="none" stroke="#191970" d="M272,-112.2455C272,-104.9382 272,-94.6944 272,-85.7046"/>
<polygon fill="#191970" stroke="#191970" points="275.5001,-85.6426 272,-75.6427 268.5001,-85.6427 275.5001,-85.6426"/>
</g>
<!-- Node8&#45;&gt;Node1 -->
<g id="edge11" class="edge">
<title>Node8&#45;&gt;Node1</title>
<path fill="none" stroke="#191970" d="M241.2288,-56.3733C209.5232,-46.4542 160.2127,-31.0275 127.2783,-20.7239"/>
<polygon fill="#191970" stroke="#191970" points="128.2096,-17.3481 117.6207,-17.7026 126.1195,-24.0288 128.2096,-17.3481"/>
</g>
<!-- Node9 -->
<g id="node10" class="node">
<title>Node9</title>
<g id="a_node10"><a xlink:title=" ">
<polygon fill="#ffffff" stroke="#bfbfbf" points="246,-.5 246,-19.5 298,-19.5 298,-.5 246,-.5"/>
<text text-anchor="middle" x="272" y="-7.5" font-family="Helvetica,sans-Serif" font-size="10.00" fill="#000000">stddef.h</text>
</a>
</g>
</g>
<!-- Node8&#45;&gt;Node9 -->
<g id="edge10" class="edge">
<title>Node8&#45;&gt;Node9</title>
<path fill="none" stroke="#191970" d="M272,-56.2455C272,-48.9382 272,-38.6944 272,-29.7046"/>
<polygon fill="#191970" stroke="#191970" points="275.5001,-29.6426 272,-19.6427 268.5001,-29.6427 275.5001,-29.6426"/>
</g>
<!-- Node10&#45;&gt;Node8 -->
<g id="edge14" class="edge">
<title>Node10&#45;&gt;Node8</title>
<path fill="none" stroke="#191970" d="M354.5813,-112.2455C338.9515,-103.4928 315.7981,-90.527 297.9815,-80.5496"/>
<polygon fill="#191970" stroke="#191970" points="299.6543,-77.475 289.2191,-75.6427 296.234,-83.5825 299.6543,-77.475"/>
</g>
</g>
</svg>
