<?xml version="1.0" encoding="UTF-8" standalone="no"?>
<!DOCTYPE svg PUBLIC "-//W3C//DTD SVG 1.1//EN"
 "http://www.w3.org/Graphics/SVG/1.1/DTD/svg11.dtd">
<!-- Generated by graphviz version 2.38.0 (20140413.2041)
 -->
<!-- Title: osdk&#45;core/api/src/dji_broadcast.cpp Pages: 1 -->
<svg width="1651pt" height="431pt"
 viewBox="0.00 0.00 1650.79 431.00" xmlns="http://www.w3.org/2000/svg" xmlns:xlink="http://www.w3.org/1999/xlink">
<g id="graph0" class="graph" transform="scale(1 1) rotate(0) translate(4 427)">
<title>osdk&#45;core/api/src/dji_broadcast.cpp</title>
<polygon fill="white" stroke="none" points="-4,4 -4,-427 1646.79,-427 1646.79,4 -4,4"/>
<!-- Node1 -->
<g id="node1" class="node"><title>Node1</title>
<polygon fill="#bfbfbf" stroke="black" points="1120,-392.5 1120,-422.5 1224,-422.5 1224,-392.5 1120,-392.5"/>
<text text-anchor="start" x="1128" y="-410.5" font-family="Helvetica,sans-Serif" font-size="10.00">osdk&#45;core/api/src/dji</text>
<text text-anchor="middle" x="1172" y="-399.5" font-family="Helvetica,sans-Serif" font-size="10.00">_broadcast.cpp</text>
</g>
<!-- Node2 -->
<g id="node2" class="node"><title>Node2</title>
<g id="a_node2"><a xlink:href="dji__broadcast_8hpp.html" target="_top" xlink:title="Broadcast Telemetry API for DJI onboardSDK library. ">
<polygon fill="white" stroke="black" points="1274.5,-224.5 1274.5,-243.5 1367.5,-243.5 1367.5,-224.5 1274.5,-224.5"/>
<text text-anchor="middle" x="1321" y="-231.5" font-family="Helvetica,sans-Serif" font-size="10.00">dji_broadcast.hpp</text>
</a>
</g>
</g>
<!-- Node1&#45;&gt;Node2 -->
<g id="edge1" class="edge"><title>Node1&#45;&gt;Node2</title>
<path fill="none" stroke="midnightblue" d="M1224.15,-400.744C1283.14,-391.134 1376.62,-365.833 1420,-300 1436.73,-274.607 1401.09,-256.859 1368,-246.398"/>
<polygon fill="midnightblue" stroke="midnightblue" points="1368.91,-243.018 1358.33,-243.513 1366.91,-249.726 1368.91,-243.018"/>
</g>
<!-- Node9 -->
<g id="node9" class="node"><title>Node9</title>
<g id="a_node9"><a xlink:href="dji__vehicle_8hpp.html" target="_top" xlink:title="Vehicle API for DJI onboardSDK library. ">
<polygon fill="white" stroke="black" points="773.5,-336.5 773.5,-355.5 854.5,-355.5 854.5,-336.5 773.5,-336.5"/>
<text text-anchor="middle" x="814" y="-343.5" font-family="Helvetica,sans-Serif" font-size="10.00">dji_vehicle.hpp</text>
</a>
</g>
</g>
<!-- Node1&#45;&gt;Node9 -->
<g id="edge8" class="edge"><title>Node1&#45;&gt;Node9</title>
<path fill="none" stroke="midnightblue" d="M1119.94,-397.848C1051.6,-386.49 932.397,-366.678 864.724,-355.43"/>
<polygon fill="midnightblue" stroke="midnightblue" points="865.162,-351.955 854.723,-353.768 864.014,-358.861 865.162,-351.955"/>
</g>
<!-- Node3 -->
<g id="node3" class="node"><title>Node3</title>
<g id="a_node3"><a xlink:href="dji__telemetry_8hpp.html" target="_top" xlink:title="Enumeration of all telemetry data types, structures and maps. ">
<polygon fill="white" stroke="black" points="890.5,-168.5 890.5,-187.5 981.5,-187.5 981.5,-168.5 890.5,-168.5"/>
<text text-anchor="middle" x="936" y="-175.5" font-family="Helvetica,sans-Serif" font-size="10.00">dji_telemetry.hpp</text>
</a>
</g>
</g>
<!-- Node2&#45;&gt;Node3 -->
<g id="edge2" class="edge"><title>Node2&#45;&gt;Node3</title>
<path fill="none" stroke="midnightblue" d="M1274.18,-226.433C1203.07,-216.46 1068.11,-197.53 991.947,-186.847"/>
<polygon fill="midnightblue" stroke="midnightblue" points="991.992,-183.319 981.602,-185.396 991.019,-190.251 991.992,-183.319"/>
</g>
<!-- Node7 -->
<g id="node7" class="node"><title>Node7</title>
<g id="a_node7"><a xlink:href="dji__vehicle__callback_8hpp.html" target="_top" xlink:title="Type definition for new Vehicle&#45;style callbacks. ">
<polygon fill="white" stroke="black" points="1274,-112.5 1274,-131.5 1396,-131.5 1396,-112.5 1274,-112.5"/>
<text text-anchor="middle" x="1335" y="-119.5" font-family="Helvetica,sans-Serif" font-size="10.00">dji_vehicle_callback.hpp</text>
</a>
</g>
</g>
<!-- Node2&#45;&gt;Node7 -->
<g id="edge6" class="edge"><title>Node2&#45;&gt;Node7</title>
<path fill="none" stroke="midnightblue" d="M1322.1,-224.368C1324.36,-206.617 1329.57,-165.666 1332.63,-141.597"/>
<polygon fill="midnightblue" stroke="midnightblue" points="1336.12,-141.953 1333.91,-131.591 1329.17,-141.069 1336.12,-141.953"/>
</g>
<!-- Node4 -->
<g id="node4" class="node"><title>Node4</title>
<g id="a_node4"><a xlink:href="dji__type_8hpp.html" target="_top" xlink:title="Data type and Data Structure definitions for use throughout DJI OSDK. ">
<polygon fill="white" stroke="black" points="533.5,-112.5 533.5,-131.5 602.5,-131.5 602.5,-112.5 533.5,-112.5"/>
<text text-anchor="middle" x="568" y="-119.5" font-family="Helvetica,sans-Serif" font-size="10.00">dji_type.hpp</text>
</a>
</g>
</g>
<!-- Node3&#45;&gt;Node4 -->
<g id="edge3" class="edge"><title>Node3&#45;&gt;Node4</title>
<path fill="none" stroke="midnightblue" d="M890.466,-170.151C885.583,-169.422 880.689,-168.694 876,-168 782.453,-154.15 672.88,-138.208 612.902,-129.506"/>
<polygon fill="midnightblue" stroke="midnightblue" points="613.048,-125.99 602.649,-128.018 612.043,-132.918 613.048,-125.99"/>
</g>
<!-- Node5 -->
<g id="node5" class="node"><title>Node5</title>
<polygon fill="white" stroke="#bfbfbf" points="546.5,-56.5 546.5,-75.5 589.5,-75.5 589.5,-56.5 546.5,-56.5"/>
<text text-anchor="middle" x="568" y="-63.5" font-family="Helvetica,sans-Serif" font-size="10.00">cstdio</text>
</g>
<!-- Node4&#45;&gt;Node5 -->
<g id="edge4" class="edge"><title>Node4&#45;&gt;Node5</title>
<path fill="none" stroke="midnightblue" d="M568,-112.083C568,-105.006 568,-94.8611 568,-85.9865"/>
<polygon fill="midnightblue" stroke="midnightblue" points="571.5,-85.751 568,-75.7511 564.5,-85.7511 571.5,-85.751"/>
</g>
<!-- Node6 -->
<g id="node6" class="node"><title>Node6</title>
<polygon fill="white" stroke="#bfbfbf" points="332.5,-0.5 332.5,-19.5 381.5,-19.5 381.5,-0.5 332.5,-0.5"/>
<text text-anchor="middle" x="357" y="-7.5" font-family="Helvetica,sans-Serif" font-size="10.00">stdint.h</text>
</g>
<!-- Node4&#45;&gt;Node6 -->
<g id="edge5" class="edge"><title>Node4&#45;&gt;Node6</title>
<path fill="none" stroke="midnightblue" d="M551.443,-112.368C514.696,-93.2113 426.123,-47.0355 382.353,-24.2172"/>
<polygon fill="midnightblue" stroke="midnightblue" points="383.965,-21.1107 373.48,-19.5914 380.729,-27.3178 383.965,-21.1107"/>
</g>
<!-- Node8 -->
<g id="node8" class="node"><title>Node8</title>
<polygon fill="white" stroke="#bfbfbf" points="1072.5,-56.5 1072.5,-75.5 1183.5,-75.5 1183.5,-56.5 1072.5,-56.5"/>
<text text-anchor="middle" x="1128" y="-63.5" font-family="Helvetica,sans-Serif" font-size="10.00">dji_open_protocol.hpp</text>
</g>
<!-- Node7&#45;&gt;Node8 -->
<g id="edge7" class="edge"><title>Node7&#45;&gt;Node8</title>
<path fill="none" stroke="midnightblue" d="M1302.2,-112.444C1266.62,-103.162 1209.69,-88.3093 1170.65,-78.127"/>
<polygon fill="midnightblue" stroke="midnightblue" points="1171.21,-74.6541 1160.65,-75.5164 1169.44,-81.4274 1171.21,-74.6541"/>
</g>
<!-- Node9&#45;&gt;Node2 -->
<g id="edge10" class="edge"><title>Node9&#45;&gt;Node2</title>
<path fill="none" stroke="midnightblue" d="M847.763,-336.478C878.126,-328.405 923.708,-315.268 962,-300 980.463,-292.638 983.023,-285.91 1002,-280 1049.66,-265.159 1185.93,-249.138 1264.08,-240.797"/>
<polygon fill="midnightblue" stroke="midnightblue" points="1264.67,-244.254 1274.24,-239.72 1263.93,-237.293 1264.67,-244.254"/>
</g>
<!-- Node9&#45;&gt;Node4 -->
<g id="edge59" class="edge"><title>Node9&#45;&gt;Node4</title>
<path fill="none" stroke="midnightblue" d="M773.304,-344.596C655.837,-343.009 322.491,-335.4 290,-300 267.16,-275.115 273.381,-253.407 290,-224 295.935,-213.499 371.845,-172.589 383,-168 428.964,-149.09 484.756,-136.869 522.974,-130.004"/>
<polygon fill="midnightblue" stroke="midnightblue" points="524.015,-133.375 533.265,-128.208 522.812,-126.479 524.015,-133.375"/>
</g>
<!-- Node9&#45;&gt;Node7 -->
<g id="edge60" class="edge"><title>Node9&#45;&gt;Node7</title>
<path fill="none" stroke="midnightblue" d="M854.849,-343.697C979.785,-339.48 1355.52,-325.006 1475,-300 1547.1,-284.91 1588.61,-304.25 1631,-244 1689.66,-160.618 1511.86,-134.599 1406.65,-126.552"/>
<polygon fill="midnightblue" stroke="midnightblue" points="1406.62,-123.04 1396.39,-125.806 1406.11,-130.022 1406.62,-123.04"/>
</g>
<!-- Node9&#45;&gt;Node8 -->
<g id="edge51" class="edge"><title>Node9&#45;&gt;Node8</title>
<path fill="none" stroke="midnightblue" d="M854.863,-343.762C957.036,-340.248 1217.28,-328.554 1243,-300 1305.24,-230.892 1192.64,-121.977 1146.45,-82.193"/>
<polygon fill="midnightblue" stroke="midnightblue" points="1148.55,-79.3839 1138.66,-75.5943 1144.03,-84.7267 1148.55,-79.3839"/>
</g>
<!-- Node10 -->
<g id="node10" class="node"><title>Node10</title>
<polygon fill="white" stroke="#bfbfbf" points="0,-112.5 0,-131.5 46,-131.5 46,-112.5 0,-112.5"/>
<text text-anchor="middle" x="23" y="-119.5" font-family="Helvetica,sans-Serif" font-size="10.00">cstdint</text>
</g>
<!-- Node9&#45;&gt;Node10 -->
<g id="edge9" class="edge"><title>Node9&#45;&gt;Node10</title>
<path fill="none" stroke="midnightblue" d="M773.382,-344.475C629.576,-342.344 150.012,-332.819 90,-300 35.8726,-270.399 27.1714,-246.639 8,-188 2.88837,-172.365 8.06591,-154.071 13.689,-140.881"/>
<polygon fill="midnightblue" stroke="midnightblue" points="16.9928,-142.082 18.106,-131.546 10.6654,-139.088 16.9928,-142.082"/>
</g>
<!-- Node11 -->
<g id="node11" class="node"><title>Node11</title>
<g id="a_node11"><a xlink:href="dji__camera_8hpp.html" target="_top" xlink:title="Camera/Gimbal API for DJI onboardSDK library. ">
<polygon fill="white" stroke="black" points="252.5,-168.5 252.5,-187.5 335.5,-187.5 335.5,-168.5 252.5,-168.5"/>
<text text-anchor="middle" x="294" y="-175.5" font-family="Helvetica,sans-Serif" font-size="10.00">dji_camera.hpp</text>
</a>
</g>
</g>
<!-- Node9&#45;&gt;Node11 -->
<g id="edge11" class="edge"><title>Node9&#45;&gt;Node11</title>
<path fill="none" stroke="midnightblue" d="M773.383,-344.818C650.97,-343.852 291.864,-337.794 257,-300 234.097,-275.172 245.606,-255.798 257,-224 260.941,-213.003 268.857,-202.769 276.36,-194.848"/>
<polygon fill="midnightblue" stroke="midnightblue" points="278.892,-197.266 283.562,-187.755 273.981,-192.278 278.892,-197.266"/>
</g>
<!-- Node12 -->
<g id="node12" class="node"><title>Node12</title>
<g id="a_node12"><a xlink:href="dji__command_8hpp.html" target="_top" xlink:title="All DJI OSDK OpenProtocol Command IDs. ">
<polygon fill="white" stroke="black" points="247.5,-112.5 247.5,-131.5 340.5,-131.5 340.5,-112.5 247.5,-112.5"/>
<text text-anchor="middle" x="294" y="-119.5" font-family="Helvetica,sans-Serif" font-size="10.00">dji_command.hpp</text>
</a>
</g>
</g>
<!-- Node9&#45;&gt;Node12 -->
<g id="edge18" class="edge"><title>Node9&#45;&gt;Node12</title>
<path fill="none" stroke="midnightblue" d="M773.372,-343.979C647.162,-340.525 267.481,-327.901 220,-300 162.014,-265.926 105.953,-222.034 146,-168 166.851,-139.867 204.855,-128.718 237.131,-124.551"/>
<polygon fill="midnightblue" stroke="midnightblue" points="237.819,-127.997 247.38,-123.43 237.058,-121.038 237.819,-127.997"/>
</g>
<!-- Node14 -->
<g id="node14" class="node"><title>Node14</title>
<polygon fill="white" stroke="#bfbfbf" points="445,-280.5 445,-299.5 557,-299.5 557,-280.5 445,-280.5"/>
<text text-anchor="middle" x="501" y="-287.5" font-family="Helvetica,sans-Serif" font-size="10.00">dji_circular_buffer.hpp</text>
</g>
<!-- Node9&#45;&gt;Node14 -->
<g id="edge17" class="edge"><title>Node9&#45;&gt;Node14</title>
<path fill="none" stroke="midnightblue" d="M773.402,-337.996C719.188,-328.643 622.757,-312.006 560.376,-301.244"/>
<polygon fill="midnightblue" stroke="midnightblue" points="560.736,-297.754 550.287,-299.503 559.546,-304.652 560.736,-297.754"/>
</g>
<!-- Node15 -->
<g id="node15" class="node"><title>Node15</title>
<g id="a_node15"><a xlink:href="dji__control_8hpp.html" target="_top" xlink:title="Control API for DJI OSDK library. ">
<polygon fill="white" stroke="black" points="721,-280.5 721,-299.5 801,-299.5 801,-280.5 721,-280.5"/>
<text text-anchor="middle" x="761" y="-287.5" font-family="Helvetica,sans-Serif" font-size="10.00">dji_control.hpp</text>
</a>
</g>
</g>
<!-- Node9&#45;&gt;Node15 -->
<g id="edge19" class="edge"><title>Node9&#45;&gt;Node15</title>
<path fill="none" stroke="midnightblue" d="M805.248,-336.083C797.53,-328.22 786.095,-316.569 776.783,-307.081"/>
<polygon fill="midnightblue" stroke="midnightblue" points="779.092,-304.436 769.589,-299.751 774.096,-309.34 779.092,-304.436"/>
</g>
<!-- Node18 -->
<g id="node18" class="node"><title>Node18</title>
<g id="a_node18"><a xlink:href="dji__version_8hpp.html" target="_top" xlink:title="Drone/SDK Version definition for DJI onboardSDK library. ">
<polygon fill="white" stroke="black" points="17,-168.5 17,-187.5 99,-187.5 99,-168.5 17,-168.5"/>
<text text-anchor="middle" x="58" y="-175.5" font-family="Helvetica,sans-Serif" font-size="10.00">dji_version.hpp</text>
</a>
</g>
</g>
<!-- Node9&#45;&gt;Node18 -->
<g id="edge61" class="edge"><title>Node9&#45;&gt;Node18</title>
<path fill="none" stroke="midnightblue" d="M773.453,-344.798C632.2,-343.77 167.386,-337.538 113,-300 78.4494,-276.152 65.229,-225.088 60.4713,-197.536"/>
<polygon fill="midnightblue" stroke="midnightblue" points="63.9262,-196.975 58.953,-187.62 57.0068,-198.034 63.9262,-196.975"/>
</g>
<!-- Node20 -->
<g id="node20" class="node"><title>Node20</title>
<g id="a_node20"><a xlink:href="dji__gimbal_8hpp.html" target="_top" xlink:title="Gimbal API for OSDK library. ">
<polygon fill="white" stroke="black" points="155.5,-168.5 155.5,-187.5 234.5,-187.5 234.5,-168.5 155.5,-168.5"/>
<text text-anchor="middle" x="195" y="-175.5" font-family="Helvetica,sans-Serif" font-size="10.00">dji_gimbal.hpp</text>
</a>
</g>
</g>
<!-- Node9&#45;&gt;Node20 -->
<g id="edge32" class="edge"><title>Node9&#45;&gt;Node20</title>
<path fill="none" stroke="midnightblue" d="M773.308,-344.27C649.695,-341.714 284.415,-331.541 242,-300 209.245,-275.643 199.312,-225.181 196.304,-197.747"/>
<polygon fill="midnightblue" stroke="midnightblue" points="199.768,-197.191 195.392,-187.542 192.796,-197.814 199.768,-197.191"/>
</g>
<!-- Node21 -->
<g id="node21" class="node"><title>Node21</title>
<polygon fill="white" stroke="#bfbfbf" points="819,-280.5 819,-299.5 917,-299.5 917,-280.5 819,-280.5"/>
<text text-anchor="middle" x="868" y="-287.5" font-family="Helvetica,sans-Serif" font-size="10.00">dji_hard_driver.hpp</text>
</g>
<!-- Node9&#45;&gt;Node21 -->
<g id="edge35" class="edge"><title>Node9&#45;&gt;Node21</title>
<path fill="none" stroke="midnightblue" d="M822.917,-336.083C830.78,-328.22 842.431,-316.569 851.919,-307.081"/>
<polygon fill="midnightblue" stroke="midnightblue" points="854.653,-309.297 859.249,-299.751 849.703,-304.347 854.653,-309.297"/>
</g>
<!-- Node22 -->
<g id="node22" class="node"><title>Node22</title>
<g id="a_node22"><a xlink:href="dji__hardware__sync_8hpp.html" target="_top" xlink:title="Hardware Sync API for DJI OSDK. ">
<polygon fill="white" stroke="black" points="510,-224.5 510,-243.5 626,-243.5 626,-224.5 510,-224.5"/>
<text text-anchor="middle" x="568" y="-231.5" font-family="Helvetica,sans-Serif" font-size="10.00">dji_hardware_sync.hpp</text>
</a>
</g>
</g>
<!-- Node9&#45;&gt;Node22 -->
<g id="edge36" class="edge"><title>Node9&#45;&gt;Node22</title>
<path fill="none" stroke="midnightblue" d="M773.469,-340.346C720.239,-333.563 630.431,-319.599 604,-300 588.491,-288.5 578.811,-268.229 573.446,-253.373"/>
<polygon fill="midnightblue" stroke="midnightblue" points="576.721,-252.128 570.28,-243.716 570.069,-254.309 576.721,-252.128"/>
</g>
<!-- Node23 -->
<g id="node23" class="node"><title>Node23</title>
<g id="a_node23"><a xlink:href="dji__mfio_8hpp.html" target="_top" xlink:title="MFIO API for DJI OSDK library. ">
<polygon fill="white" stroke="black" points="1385.5,-224.5 1385.5,-243.5 1454.5,-243.5 1454.5,-224.5 1385.5,-224.5"/>
<text text-anchor="middle" x="1420" y="-231.5" font-family="Helvetica,sans-Serif" font-size="10.00">dji_mfio.hpp</text>
</a>
</g>
</g>
<!-- Node9&#45;&gt;Node23 -->
<g id="edge38" class="edge"><title>Node9&#45;&gt;Node23</title>
<path fill="none" stroke="midnightblue" d="M854.936,-345.103C984.86,-345.009 1381.64,-341.313 1420,-300 1431.26,-287.875 1429.62,-268.316 1426.17,-253.816"/>
<polygon fill="midnightblue" stroke="midnightblue" points="1429.45,-252.584 1423.35,-243.922 1422.72,-254.498 1429.45,-252.584"/>
</g>
<!-- Node24 -->
<g id="node24" class="node"><title>Node24</title>
<g id="a_node24"><a xlink:href="dji__mission__manager_8hpp.html" target="_top" xlink:title="Mission&#45;Manager API for DJI OSDK library. ">
<polygon fill="white" stroke="black" points="299.5,-280.5 299.5,-299.5 426.5,-299.5 426.5,-280.5 299.5,-280.5"/>
<text text-anchor="middle" x="363" y="-287.5" font-family="Helvetica,sans-Serif" font-size="10.00">dji_mission_manager.hpp</text>
</a>
</g>
</g>
<!-- Node9&#45;&gt;Node24 -->
<g id="edge40" class="edge"><title>Node9&#45;&gt;Node24</title>
<path fill="none" stroke="midnightblue" d="M773.438,-340.227C705.977,-332.278 566.185,-315.752 436.79,-300.091"/>
<polygon fill="midnightblue" stroke="midnightblue" points="437.048,-296.597 426.699,-298.869 436.206,-303.546 437.048,-296.597"/>
</g>
<!-- Node28 -->
<g id="node28" class="node"><title>Node28</title>
<g id="a_node28"><a xlink:href="dji__mobile__communication_8hpp.html" target="_top" xlink:title="Implementation of DJI Mobile&#45;Onboard SDK Communication (MOC) ">
<polygon fill="white" stroke="black" points="1472,-224.5 1472,-243.5 1622,-243.5 1622,-224.5 1472,-224.5"/>
<text text-anchor="middle" x="1547" y="-231.5" font-family="Helvetica,sans-Serif" font-size="10.00">dji_mobile_communication.hpp</text>
</a>
</g>
</g>
<!-- Node9&#45;&gt;Node28 -->
<g id="edge49" class="edge"><title>Node9&#45;&gt;Node28</title>
<path fill="none" stroke="midnightblue" d="M854.575,-344.537C975.112,-342.776 1329.46,-334.706 1439,-300 1473.16,-289.176 1507.82,-265.6 1528.35,-250.017"/>
<polygon fill="midnightblue" stroke="midnightblue" points="1530.74,-252.591 1536.49,-243.692 1526.45,-247.064 1530.74,-252.591"/>
</g>
<!-- Node29 -->
<g id="node29" class="node"><title>Node29</title>
<polygon fill="white" stroke="#bfbfbf" points="1011,-280.5 1011,-299.5 1139,-299.5 1139,-280.5 1011,-280.5"/>
<text text-anchor="middle" x="1075" y="-287.5" font-family="Helvetica,sans-Serif" font-size="10.00">dji_platform_manager.hpp</text>
</g>
<!-- Node9&#45;&gt;Node29 -->
<g id="edge52" class="edge"><title>Node9&#45;&gt;Node29</title>
<path fill="none" stroke="midnightblue" d="M854.781,-336.562C900.386,-327.127 974.323,-311.83 1023.79,-301.596"/>
<polygon fill="midnightblue" stroke="midnightblue" points="1024.56,-305.01 1033.64,-299.556 1023.14,-298.155 1024.56,-305.01"/>
</g>
<!-- Node30 -->
<g id="node30" class="node"><title>Node30</title>
<g id="a_node30"><a xlink:href="dji__status_8hpp.html" target="_top" xlink:title="Status information for DJI Vehicle. ">
<polygon fill="white" stroke="black" points="1157.5,-280.5 1157.5,-299.5 1234.5,-299.5 1234.5,-280.5 1157.5,-280.5"/>
<text text-anchor="middle" x="1196" y="-287.5" font-family="Helvetica,sans-Serif" font-size="10.00">dji_status.hpp</text>
</a>
</g>
</g>
<!-- Node9&#45;&gt;Node30 -->
<g id="edge53" class="edge"><title>Node9&#45;&gt;Node30</title>
<path fill="none" stroke="midnightblue" d="M854.716,-340.199C915.875,-332.838 1035.31,-317.883 1147.15,-300.062"/>
<polygon fill="midnightblue" stroke="midnightblue" points="1147.94,-303.481 1157.26,-298.441 1146.83,-296.57 1147.94,-303.481"/>
</g>
<!-- Node31 -->
<g id="node31" class="node"><title>Node31</title>
<g id="a_node31"><a xlink:href="dji__subscription_8hpp.html" target="_top" xlink:title="Telemetry Subscription API for DJI OSDK library. ">
<polygon fill="white" stroke="black" points="1076.5,-224.5 1076.5,-243.5 1179.5,-243.5 1179.5,-224.5 1076.5,-224.5"/>
<text text-anchor="middle" x="1128" y="-231.5" font-family="Helvetica,sans-Serif" font-size="10.00">dji_subscription.hpp</text>
</a>
</g>
</g>
<!-- Node9&#45;&gt;Node31 -->
<g id="edge54" class="edge"><title>Node9&#45;&gt;Node31</title>
<path fill="none" stroke="midnightblue" d="M836.458,-336.383C859.175,-327.572 895.233,-313.325 926,-300 945.341,-291.624 949.241,-287.338 969,-280 1006.13,-266.212 1049.45,-254.207 1081.49,-246.073"/>
<polygon fill="midnightblue" stroke="midnightblue" points="1082.63,-249.397 1091.48,-243.571 1080.93,-242.607 1082.63,-249.397"/>
</g>
<!-- Node32 -->
<g id="node32" class="node"><title>Node32</title>
<polygon fill="white" stroke="#bfbfbf" points="1291,-280.5 1291,-299.5 1411,-299.5 1411,-280.5 1291,-280.5"/>
<text text-anchor="middle" x="1351" y="-287.5" font-family="Helvetica,sans-Serif" font-size="10.00">dji_thread_manager.hpp</text>
</g>
<!-- Node9&#45;&gt;Node32 -->
<g id="edge58" class="edge"><title>Node9&#45;&gt;Node32</title>
<path fill="none" stroke="midnightblue" d="M854.6,-341.386C935.19,-334.139 1121.05,-317.059 1277,-300 1278.27,-299.861 1279.54,-299.72 1280.83,-299.577"/>
<polygon fill="midnightblue" stroke="midnightblue" points="1281.3,-303.047 1290.84,-298.44 1280.51,-296.091 1281.3,-303.047"/>
</g>
<!-- Node33 -->
<g id="node33" class="node"><title>Node33</title>
<g id="a_node33"><a xlink:href="dji__virtual__rc_8hpp.html" target="_top" xlink:title="Virtual Radio Control API for DJI onboardSDK library. ">
<polygon fill="white" stroke="black" points="613,-280.5 613,-299.5 703,-299.5 703,-280.5 613,-280.5"/>
<text text-anchor="middle" x="658" y="-287.5" font-family="Helvetica,sans-Serif" font-size="10.00">dji_virtual_rc.hpp</text>
</a>
</g>
</g>
<!-- Node9&#45;&gt;Node33 -->
<g id="edge62" class="edge"><title>Node9&#45;&gt;Node33</title>
<path fill="none" stroke="midnightblue" d="M789.281,-336.444C763.152,-327.399 721.741,-313.064 692.424,-302.916"/>
<polygon fill="midnightblue" stroke="midnightblue" points="693.198,-299.48 682.603,-299.516 690.908,-306.095 693.198,-299.48"/>
</g>
<!-- Node11&#45;&gt;Node4 -->
<g id="edge16" class="edge"><title>Node11&#45;&gt;Node4</title>
<path fill="none" stroke="midnightblue" d="M335.615,-168.799C386.282,-158.813 471.503,-142.018 523.459,-131.778"/>
<polygon fill="midnightblue" stroke="midnightblue" points="524.252,-135.189 533.387,-129.822 522.899,-128.321 524.252,-135.189"/>
</g>
<!-- Node11&#45;&gt;Node12 -->
<g id="edge12" class="edge"><title>Node11&#45;&gt;Node12</title>
<path fill="none" stroke="midnightblue" d="M294,-168.083C294,-161.006 294,-150.861 294,-141.986"/>
<polygon fill="midnightblue" stroke="midnightblue" points="297.5,-141.751 294,-131.751 290.5,-141.751 297.5,-141.751"/>
</g>
<!-- Node12&#45;&gt;Node6 -->
<g id="edge15" class="edge"><title>Node12&#45;&gt;Node6</title>
<path fill="none" stroke="midnightblue" d="M305.343,-112.179C315.307,-103.859 329.504,-90.5244 338,-76 346.44,-61.5704 351.366,-43.1178 354.078,-29.5626"/>
<polygon fill="midnightblue" stroke="midnightblue" points="357.558,-29.9822 355.863,-19.5238 350.666,-28.7564 357.558,-29.9822"/>
</g>
<!-- Node13 -->
<g id="node13" class="node"><title>Node13</title>
<g id="a_node13"><a xlink:href="dji__error_8hpp.html" target="_top" xlink:title="All DJI OSDK OpenProtocol ACK Error Codes. ">
<polygon fill="white" stroke="black" points="259,-56.5 259,-75.5 329,-75.5 329,-56.5 259,-56.5"/>
<text text-anchor="middle" x="294" y="-63.5" font-family="Helvetica,sans-Serif" font-size="10.00">dji_error.hpp</text>
</a>
</g>
</g>
<!-- Node12&#45;&gt;Node13 -->
<g id="edge13" class="edge"><title>Node12&#45;&gt;Node13</title>
<path fill="none" stroke="midnightblue" d="M294,-112.083C294,-105.006 294,-94.8611 294,-85.9865"/>
<polygon fill="midnightblue" stroke="midnightblue" points="297.5,-85.751 294,-75.7511 290.5,-85.7511 297.5,-85.751"/>
</g>
<!-- Node13&#45;&gt;Node6 -->
<g id="edge14" class="edge"><title>Node13&#45;&gt;Node6</title>
<path fill="none" stroke="midnightblue" d="M304.122,-56.324C313.526,-48.2631 327.744,-36.0765 339.069,-26.3695"/>
<polygon fill="midnightblue" stroke="midnightblue" points="341.379,-28.9993 346.694,-19.8339 336.823,-23.6844 341.379,-28.9993"/>
</g>
<!-- Node15&#45;&gt;Node4 -->
<g id="edge30" class="edge"><title>Node15&#45;&gt;Node4</title>
<path fill="none" stroke="midnightblue" d="M774.704,-280.315C805.512,-259.758 875.053,-206.924 842,-168 813.137,-134.01 682.894,-125.646 612.874,-123.621"/>
<polygon fill="midnightblue" stroke="midnightblue" points="612.675,-120.114 602.588,-123.356 612.495,-127.112 612.675,-120.114"/>
</g>
<!-- Node15&#45;&gt;Node7 -->
<g id="edge31" class="edge"><title>Node15&#45;&gt;Node7</title>
<path fill="none" stroke="midnightblue" d="M801.066,-281.349C804.084,-280.862 807.087,-280.405 810,-280 977.149,-256.735 1032.03,-308.444 1188,-244 1245.06,-220.423 1297.11,-166.835 1321.09,-139.582"/>
<polygon fill="midnightblue" stroke="midnightblue" points="1323.98,-141.59 1327.86,-131.73 1318.68,-137.019 1323.98,-141.59"/>
</g>
<!-- Node15&#45;&gt;Node8 -->
<g id="edge29" class="edge"><title>Node15&#45;&gt;Node8</title>
<path fill="none" stroke="midnightblue" d="M801.103,-281.584C804.112,-281.043 807.104,-280.51 810,-280 904.989,-263.288 944.568,-298.706 1024,-244 1081.19,-204.61 1111.57,-122.647 1122.82,-85.7337"/>
<polygon fill="midnightblue" stroke="midnightblue" points="1126.27,-86.4011 1125.71,-75.8213 1119.55,-84.4443 1126.27,-86.4011"/>
</g>
<!-- Node16 -->
<g id="node16" class="node"><title>Node16</title>
<g id="a_node16"><a xlink:href="dji__ack_8hpp.html" target="_top" xlink:title="All DJI OSDK ACK parsing. ">
<polygon fill="white" stroke="black" points="682,-224.5 682,-243.5 748,-243.5 748,-224.5 682,-224.5"/>
<text text-anchor="middle" x="715" y="-231.5" font-family="Helvetica,sans-Serif" font-size="10.00">dji_ack.hpp</text>
</a>
</g>
</g>
<!-- Node15&#45;&gt;Node16 -->
<g id="edge20" class="edge"><title>Node15&#45;&gt;Node16</title>
<path fill="none" stroke="midnightblue" d="M753.404,-280.083C746.773,-272.298 736.979,-260.801 728.942,-251.367"/>
<polygon fill="midnightblue" stroke="midnightblue" points="731.604,-249.094 722.455,-243.751 726.275,-253.633 731.604,-249.094"/>
</g>
<!-- Node16&#45;&gt;Node4 -->
<g id="edge24" class="edge"><title>Node16&#45;&gt;Node4</title>
<path fill="none" stroke="midnightblue" d="M703.465,-224.368C678.455,-205.653 618.983,-161.151 587.822,-137.832"/>
<polygon fill="midnightblue" stroke="midnightblue" points="589.585,-134.78 579.481,-131.591 585.391,-140.385 589.585,-134.78"/>
</g>
<!-- Node16&#45;&gt;Node12 -->
<g id="edge21" class="edge"><title>Node16&#45;&gt;Node12</title>
<path fill="none" stroke="midnightblue" d="M691.058,-224.476C653.185,-211.197 576.978,-185.302 511,-168 457.138,-153.875 394.821,-141.339 350.825,-133.109"/>
<polygon fill="midnightblue" stroke="midnightblue" points="351.36,-129.649 340.889,-131.265 350.083,-136.531 351.36,-129.649"/>
</g>
<!-- Node17 -->
<g id="node17" class="node"><title>Node17</title>
<g id="a_node17"><a xlink:href="dji__mission__type_8hpp.html" target="_top" xlink:title="Mission related data struct for DJI OSDK library. ">
<polygon fill="white" stroke="black" points="672,-168.5 672,-187.5 780,-187.5 780,-168.5 672,-168.5"/>
<text text-anchor="middle" x="726" y="-175.5" font-family="Helvetica,sans-Serif" font-size="10.00">dji_mission_type.hpp</text>
</a>
</g>
</g>
<!-- Node16&#45;&gt;Node17 -->
<g id="edge22" class="edge"><title>Node16&#45;&gt;Node17</title>
<path fill="none" stroke="midnightblue" d="M716.816,-224.083C718.274,-216.927 720.371,-206.635 722.193,-197.691"/>
<polygon fill="midnightblue" stroke="midnightblue" points="725.651,-198.248 724.217,-187.751 718.792,-196.851 725.651,-198.248"/>
</g>
<!-- Node16&#45;&gt;Node18 -->
<g id="edge25" class="edge"><title>Node16&#45;&gt;Node18</title>
<path fill="none" stroke="midnightblue" d="M681.945,-228.992C667.539,-227.32 650.447,-225.437 635,-224 418.015,-203.815 363.084,-207.088 146,-188 134.168,-186.96 121.452,-185.726 109.468,-184.512"/>
<polygon fill="midnightblue" stroke="midnightblue" points="109.47,-180.994 99.1645,-183.454 108.755,-187.957 109.47,-180.994"/>
</g>
<!-- Node19 -->
<g id="node19" class="node"><title>Node19</title>
<polygon fill="white" stroke="#bfbfbf" points="798.5,-168.5 798.5,-187.5 833.5,-187.5 833.5,-168.5 798.5,-168.5"/>
<text text-anchor="middle" x="816" y="-175.5" font-family="Helvetica,sans-Serif" font-size="10.00">map</text>
</g>
<!-- Node16&#45;&gt;Node19 -->
<g id="edge28" class="edge"><title>Node16&#45;&gt;Node19</title>
<path fill="none" stroke="midnightblue" d="M731.227,-224.324C747.351,-215.703 772.3,-202.364 790.964,-192.386"/>
<polygon fill="midnightblue" stroke="midnightblue" points="792.644,-195.456 799.813,-187.655 789.344,-189.283 792.644,-195.456"/>
</g>
<!-- Node17&#45;&gt;Node4 -->
<g id="edge23" class="edge"><title>Node17&#45;&gt;Node4</title>
<path fill="none" stroke="midnightblue" d="M700.964,-168.444C674.384,-159.359 632.191,-144.939 602.477,-134.783"/>
<polygon fill="midnightblue" stroke="midnightblue" points="603.513,-131.439 592.918,-131.516 601.249,-138.062 603.513,-131.439"/>
</g>
<!-- Node18&#45;&gt;Node10 -->
<g id="edge27" class="edge"><title>Node18&#45;&gt;Node10</title>
<path fill="none" stroke="midnightblue" d="M52.2205,-168.083C47.3276,-160.534 40.1726,-149.495 34.1674,-140.23"/>
<polygon fill="midnightblue" stroke="midnightblue" points="37.048,-138.239 28.672,-131.751 31.174,-142.046 37.048,-138.239"/>
</g>
<!-- Node18&#45;&gt;Node12 -->
<g id="edge26" class="edge"><title>Node18&#45;&gt;Node12</title>
<path fill="none" stroke="midnightblue" d="M95.3949,-168.444C136.392,-159.063 202.254,-143.993 246.784,-133.804"/>
<polygon fill="midnightblue" stroke="midnightblue" points="247.813,-137.159 256.78,-131.516 246.251,-130.335 247.813,-137.159"/>
</g>
<!-- Node20&#45;&gt;Node4 -->
<g id="edge34" class="edge"><title>Node20&#45;&gt;Node4</title>
<path fill="none" stroke="midnightblue" d="M234.526,-169.434C237.391,-168.933 240.238,-168.45 243,-168 342.855,-151.735 460.592,-136.378 523.333,-128.499"/>
<polygon fill="midnightblue" stroke="midnightblue" points="523.799,-131.968 533.287,-127.253 522.93,-125.022 523.799,-131.968"/>
</g>
<!-- Node20&#45;&gt;Node12 -->
<g id="edge33" class="edge"><title>Node20&#45;&gt;Node12</title>
<path fill="none" stroke="midnightblue" d="M210.906,-168.324C226.638,-159.743 250.942,-146.486 269.209,-136.522"/>
<polygon fill="midnightblue" stroke="midnightblue" points="271.03,-139.516 278.133,-131.655 267.678,-133.37 271.03,-139.516"/>
</g>
<!-- Node22&#45;&gt;Node4 -->
<g id="edge37" class="edge"><title>Node22&#45;&gt;Node4</title>
<path fill="none" stroke="midnightblue" d="M568,-224.368C568,-206.617 568,-165.666 568,-141.597"/>
<polygon fill="midnightblue" stroke="midnightblue" points="571.5,-141.591 568,-131.591 564.5,-141.591 571.5,-141.591"/>
</g>
<!-- Node23&#45;&gt;Node7 -->
<g id="edge39" class="edge"><title>Node23&#45;&gt;Node7</title>
<path fill="none" stroke="midnightblue" d="M1413.33,-224.368C1399.24,-206.135 1366.24,-163.426 1347.89,-139.675"/>
<polygon fill="midnightblue" stroke="midnightblue" points="1350.52,-137.364 1341.64,-131.591 1344.98,-141.644 1350.52,-137.364"/>
</g>
<!-- Node25 -->
<g id="node25" class="node"><title>Node25</title>
<g id="a_node25"><a xlink:href="dji__hotpoint_8hpp.html" target="_top" xlink:title="Implementation of HotPoint (Point of Interest) Missions for DJI OSDK. ">
<polygon fill="white" stroke="black" points="406.5,-224.5 406.5,-243.5 491.5,-243.5 491.5,-224.5 406.5,-224.5"/>
<text text-anchor="middle" x="449" y="-231.5" font-family="Helvetica,sans-Serif" font-size="10.00">dji_hotpoint.hpp</text>
</a>
</g>
</g>
<!-- Node24&#45;&gt;Node25 -->
<g id="edge41" class="edge"><title>Node24&#45;&gt;Node25</title>
<path fill="none" stroke="midnightblue" d="M376.817,-280.324C390.233,-271.9 410.824,-258.971 426.586,-249.074"/>
<polygon fill="midnightblue" stroke="midnightblue" points="428.609,-251.936 435.217,-243.655 424.887,-246.008 428.609,-251.936"/>
</g>
<!-- Node27 -->
<g id="node27" class="node"><title>Node27</title>
<g id="a_node27"><a xlink:href="dji__waypoint_8hpp.html" target="_top" xlink:title="Implementation of GPS Waypoint Missions for DJI OSDK. ">
<polygon fill="white" stroke="black" points="299.5,-224.5 299.5,-243.5 388.5,-243.5 388.5,-224.5 299.5,-224.5"/>
<text text-anchor="middle" x="344" y="-231.5" font-family="Helvetica,sans-Serif" font-size="10.00">dji_waypoint.hpp</text>
</a>
</g>
</g>
<!-- Node24&#45;&gt;Node27 -->
<g id="edge47" class="edge"><title>Node24&#45;&gt;Node27</title>
<path fill="none" stroke="midnightblue" d="M359.863,-280.083C357.317,-272.849 353.644,-262.409 350.473,-253.397"/>
<polygon fill="midnightblue" stroke="midnightblue" points="353.7,-252.023 347.079,-243.751 347.097,-254.346 353.7,-252.023"/>
</g>
<!-- Node25&#45;&gt;Node3 -->
<g id="edge46" class="edge"><title>Node25&#45;&gt;Node3</title>
<path fill="none" stroke="midnightblue" d="M491.53,-225.395C494.731,-224.898 497.914,-224.426 501,-224 537.703,-218.931 771.353,-195.428 880.261,-184.551"/>
<polygon fill="midnightblue" stroke="midnightblue" points="880.797,-188.015 890.4,-183.539 880.102,-181.05 880.797,-188.015"/>
</g>
<!-- Node26 -->
<g id="node26" class="node"><title>Node26</title>
<g id="a_node26"><a xlink:href="dji__mission__base_8hpp.html" target="_top" xlink:title="Mission&#45;Base abstract class for DJI OSDK library. ">
<polygon fill="white" stroke="black" points="392,-168.5 392,-187.5 502,-187.5 502,-168.5 392,-168.5"/>
<text text-anchor="middle" x="447" y="-175.5" font-family="Helvetica,sans-Serif" font-size="10.00">dji_mission_base.hpp</text>
</a>
</g>
</g>
<!-- Node25&#45;&gt;Node26 -->
<g id="edge42" class="edge"><title>Node25&#45;&gt;Node26</title>
<path fill="none" stroke="midnightblue" d="M448.67,-224.083C448.408,-217.006 448.032,-206.861 447.703,-197.986"/>
<polygon fill="midnightblue" stroke="midnightblue" points="451.192,-197.615 447.324,-187.751 444.197,-197.874 451.192,-197.615"/>
</g>
<!-- Node26&#45;&gt;Node4 -->
<g id="edge44" class="edge"><title>Node26&#45;&gt;Node4</title>
<path fill="none" stroke="midnightblue" d="M466.173,-168.444C485.909,-159.636 516.885,-145.812 539.493,-135.722"/>
<polygon fill="midnightblue" stroke="midnightblue" points="541.211,-138.788 548.917,-131.516 538.359,-132.396 541.211,-138.788"/>
</g>
<!-- Node26&#45;&gt;Node7 -->
<g id="edge45" class="edge"><title>Node26&#45;&gt;Node7</title>
<path fill="none" stroke="midnightblue" d="M502.213,-173.642C656.408,-164.266 1091.57,-137.803 1263.67,-127.338"/>
<polygon fill="midnightblue" stroke="midnightblue" points="1264.11,-130.817 1273.88,-126.717 1263.69,-123.83 1264.11,-130.817"/>
</g>
<!-- Node26&#45;&gt;Node12 -->
<g id="edge43" class="edge"><title>Node26&#45;&gt;Node12</title>
<path fill="none" stroke="midnightblue" d="M422.757,-168.444C397.129,-159.399 356.515,-145.064 327.762,-134.916"/>
<polygon fill="midnightblue" stroke="midnightblue" points="328.725,-131.544 318.13,-131.516 326.395,-138.145 328.725,-131.544"/>
</g>
<!-- Node27&#45;&gt;Node26 -->
<g id="edge48" class="edge"><title>Node27&#45;&gt;Node26</title>
<path fill="none" stroke="midnightblue" d="M360.549,-224.324C376.992,-215.703 402.435,-202.364 421.468,-192.386"/>
<polygon fill="midnightblue" stroke="midnightblue" points="423.261,-195.398 430.492,-187.655 420.011,-189.198 423.261,-195.398"/>
</g>
<!-- Node28&#45;&gt;Node7 -->
<g id="edge50" class="edge"><title>Node28&#45;&gt;Node7</title>
<path fill="none" stroke="midnightblue" d="M1530.36,-224.368C1493.44,-205.211 1404.45,-159.036 1360.47,-136.217"/>
<polygon fill="midnightblue" stroke="midnightblue" points="1362.05,-133.09 1351.56,-131.591 1358.82,-139.304 1362.05,-133.09"/>
</g>
<!-- Node31&#45;&gt;Node3 -->
<g id="edge56" class="edge"><title>Node31&#45;&gt;Node3</title>
<path fill="none" stroke="midnightblue" d="M1097.58,-224.444C1064.72,-215.201 1012.22,-200.436 976.026,-190.257"/>
<polygon fill="midnightblue" stroke="midnightblue" points="976.855,-186.855 966.281,-187.516 974.96,-193.593 976.855,-186.855"/>
</g>
<!-- Node31&#45;&gt;Node7 -->
<g id="edge57" class="edge"><title>Node31&#45;&gt;Node7</title>
<path fill="none" stroke="midnightblue" d="M1134.71,-224.098C1145.66,-210.185 1168.67,-183.299 1194,-168 1220.54,-151.968 1253.39,-141.051 1280.71,-133.989"/>
<polygon fill="midnightblue" stroke="midnightblue" points="1281.64,-137.365 1290.5,-131.56 1279.95,-130.571 1281.64,-137.365"/>
</g>
<!-- Node31&#45;&gt;Node8 -->
<g id="edge55" class="edge"><title>Node31&#45;&gt;Node8</title>
<path fill="none" stroke="midnightblue" d="M1128,-224.075C1128,-197.945 1128,-121.211 1128,-85.577"/>
<polygon fill="midnightblue" stroke="midnightblue" points="1131.5,-85.5681 1128,-75.5681 1124.5,-85.5681 1131.5,-85.5681"/>
</g>
<!-- Node33&#45;&gt;Node3 -->
<g id="edge66" class="edge"><title>Node33&#45;&gt;Node3</title>
<path fill="none" stroke="midnightblue" d="M679.814,-280.368C728.839,-260.97 847.875,-213.87 904.745,-191.367"/>
<polygon fill="midnightblue" stroke="midnightblue" points="906.276,-194.525 914.287,-187.591 903.701,-188.016 906.276,-194.525"/>
</g>
<!-- Node33&#45;&gt;Node4 -->
<g id="edge65" class="edge"><title>Node33&#45;&gt;Node4</title>
<path fill="none" stroke="midnightblue" d="M655.666,-280.313C652.084,-267.582 644.622,-243.279 635,-224 619.344,-192.631 595.687,-159.312 581.075,-139.869"/>
<polygon fill="midnightblue" stroke="midnightblue" points="583.725,-137.572 574.881,-131.738 578.157,-141.813 583.725,-137.572"/>
</g>
<!-- Node33&#45;&gt;Node8 -->
<g id="edge64" class="edge"><title>Node33&#45;&gt;Node8</title>
<path fill="none" stroke="midnightblue" d="M692.832,-280.433C766.969,-261.873 937.859,-217.27 990,-188 1041.17,-159.272 1090.14,-109.25 1113.59,-83.4439"/>
<polygon fill="midnightblue" stroke="midnightblue" points="1116.47,-85.4728 1120.53,-75.6863 1111.26,-80.8055 1116.47,-85.4728"/>
</g>
<!-- Node33&#45;&gt;Node16 -->
<g id="edge63" class="edge"><title>Node33&#45;&gt;Node16</title>
<path fill="none" stroke="midnightblue" d="M667.158,-280.324C675.501,-272.42 688.032,-260.548 698.177,-250.938"/>
<polygon fill="midnightblue" stroke="midnightblue" points="700.823,-253.252 705.675,-243.834 696.009,-248.171 700.823,-253.252"/>
</g>
</g>
</svg>
