<?xml version="1.0" encoding="UTF-8" standalone="no"?>
<!DOCTYPE svg PUBLIC "-//W3C//DTD SVG 1.1//EN"
 "http://www.w3.org/Graphics/SVG/1.1/DTD/svg11.dtd">
<!-- Generated by graphviz version 2.38.0 (20140413.2041)
 -->
<!-- Title: osdk&#45;core/api/src/dji_camera.cpp Pages: 1 -->
<!--zoomable 431 -->
<svg id="main" version="1.1" xmlns="http://www.w3.org/2000/svg" xmlns:xlink="http://www.w3.org/1999/xlink" xml:space="preserve" onload="init(evt)">
<style type="text/css"><![CDATA[
.edge:hover path { stroke: red; }
.edge:hover polygon { stroke: red; fill: red; }
]]></style>
<script type="text/javascript"><![CDATA[
var edges = document.getElementsByTagName('g');
if (edges && edges.length) {
  for (var i=0;i<edges.length;i++) {
    if (edges[i].id.substr(0,4)=='edge') {
      edges[i].setAttribute('class','edge');
    }
  }
}
]]></script>
        <defs>
                <circle id="rim" cx="0" cy="0" r="7"/>
                <circle id="rim2" cx="0" cy="0" r="3.5"/>
                <g id="zoomPlus">
                        <use xlink:href="#rim" fill="#404040">
                                <set attributeName="fill" to="#808080" begin="zoomplus.mouseover" end="zoomplus.mouseout"/>
                        </use>
                        <path d="M-4,0h8M0,-4v8" fill="none" stroke="white" stroke-width="1.5" pointer-events="none"/>
                </g>
                <g id="zoomMin">
                        <use xlink:href="#rim" fill="#404040">
                                <set attributeName="fill" to="#808080" begin="zoomminus.mouseover" end="zoomminus.mouseout"/>
                        </use>
                        <path d="M-4,0h8" fill="none" stroke="white" stroke-width="1.5" pointer-events="none"/>
                </g>
                <g id="dirArrow">
                        <path fill="none" stroke="white" stroke-width="1.5" d="M0,-3.0v7 M-2.5,-0.5L0,-3.0L2.5,-0.5"/>
                </g>
               <g id="resetDef">
                       <use xlink:href="#rim2" fill="#404040">
                               <set attributeName="fill" to="#808080" begin="reset.mouseover" end="reset.mouseout"/>
                       </use>
               </g>
        </defs>

<script type="text/javascript">
var viewWidth = 1826;
var viewHeight = 431;
var sectionId = 'dynsection-0';
</script>
<script xlink:href="svgpan.js"/>
<svg id="graph" class="graph">
<g id="viewport">
<title>osdk&#45;core/api/src/dji_camera.cpp</title>
<polygon fill="white" stroke="none" points="-4,4 -4,-427 1822.21,-427 1822.21,4 -4,4"/>
<!-- Node1 -->
<g id="node1" class="node"><title>Node1</title>
<polygon fill="#bfbfbf" stroke="black" points="405.214,-392.5 405.214,-422.5 509.214,-422.5 509.214,-392.5 405.214,-392.5"/>
<text text-anchor="start" x="413.214" y="-410.5" font-family="Helvetica,sans-Serif" font-size="10.00">osdk&#45;core/api/src/dji</text>
<text text-anchor="middle" x="457.214" y="-399.5" font-family="Helvetica,sans-Serif" font-size="10.00">_camera.cpp</text>
</g>
<!-- Node2 -->
<g id="node2" class="node"><title>Node2</title>
<g id="a_node2"><a xlink:href="dji__camera_8hpp.html" target="_top" xlink:title="Camera/Gimbal API for DJI onboardSDK library. ">
<polygon fill="white" stroke="black" points="12.714,-224.5 12.714,-243.5 95.714,-243.5 95.714,-224.5 12.714,-224.5"/>
<text text-anchor="middle" x="54.214" y="-231.5" font-family="Helvetica,sans-Serif" font-size="10.00">dji_camera.hpp</text>
</a>
</g>
</g>
<!-- Node1&#45;&gt;Node2 -->
<g id="edge1" class="edge"><title>Node1&#45;&gt;Node2</title>
<path fill="none" stroke="midnightblue" d="M404.916,-405.545C325.446,-401.356 173.764,-382.253 81.214,-300 67.6761,-287.968 60.7637,-268.08 57.3428,-253.465"/>
<polygon fill="midnightblue" stroke="midnightblue" points="60.7499,-252.654 55.3556,-243.535 53.886,-254.028 60.7499,-252.654"/>
</g>
<!-- Node8 -->
<g id="node8" class="node"><title>Node8</title>
<g id="a_node8"><a xlink:href="dji__vehicle_8hpp.html" target="_top" xlink:title="Vehicle API for DJI onboardSDK library. ">
<polygon fill="white" stroke="black" points="927.714,-336.5 927.714,-355.5 1008.71,-355.5 1008.71,-336.5 927.714,-336.5"/>
<text text-anchor="middle" x="968.214" y="-343.5" font-family="Helvetica,sans-Serif" font-size="10.00">dji_vehicle.hpp</text>
</a>
</g>
</g>
<!-- Node1&#45;&gt;Node8 -->
<g id="edge9" class="edge"><title>Node1&#45;&gt;Node8</title>
<path fill="none" stroke="midnightblue" d="M509.499,-400.412C608.037,-388.938 820.061,-364.251 917.433,-352.913"/>
<polygon fill="midnightblue" stroke="midnightblue" points="918.081,-356.361 927.609,-351.728 917.271,-349.408 918.081,-356.361"/>
</g>
<!-- Node3 -->
<g id="node3" class="node"><title>Node3</title>
<g id="a_node3"><a xlink:href="dji__command_8hpp.html" target="_top" xlink:title="All DJI OSDK OpenProtocol Command IDs. ">
<polygon fill="white" stroke="black" points="187.714,-112.5 187.714,-131.5 280.714,-131.5 280.714,-112.5 187.714,-112.5"/>
<text text-anchor="middle" x="234.214" y="-119.5" font-family="Helvetica,sans-Serif" font-size="10.00">dji_command.hpp</text>
</a>
</g>
</g>
<!-- Node2&#45;&gt;Node3 -->
<g id="edge2" class="edge"><title>Node2&#45;&gt;Node3</title>
<path fill="none" stroke="midnightblue" d="M48.5836,-224.403C40.5252,-210.909 28.0502,-184.586 41.214,-168 57.9725,-146.885 126.531,-134.758 177.194,-128.528"/>
<polygon fill="midnightblue" stroke="midnightblue" points="177.867,-131.973 187.387,-127.323 177.046,-125.021 177.867,-131.973"/>
</g>
<!-- Node6 -->
<g id="node6" class="node"><title>Node6</title>
<g id="a_node6"><a xlink:href="dji__type_8hpp.html" target="_top" xlink:title="Data type and Data Structure definitions for use throughout DJI OSDK. ">
<polygon fill="white" stroke="black" points="365.714,-112.5 365.714,-131.5 434.714,-131.5 434.714,-112.5 365.714,-112.5"/>
<text text-anchor="middle" x="400.214" y="-119.5" font-family="Helvetica,sans-Serif" font-size="10.00">dji_type.hpp</text>
</a>
</g>
</g>
<!-- Node2&#45;&gt;Node6 -->
<g id="edge6" class="edge"><title>Node2&#45;&gt;Node6</title>
<path fill="none" stroke="midnightblue" d="M75.3908,-224.435C108.222,-211.326 173.535,-185.923 230.214,-168 272.34,-154.679 321.163,-142.038 355.651,-133.566"/>
<polygon fill="midnightblue" stroke="midnightblue" points="356.538,-136.952 365.424,-131.182 354.88,-130.151 356.538,-136.952"/>
</g>
<!-- Node4 -->
<g id="node4" class="node"><title>Node4</title>
<g id="a_node4"><a xlink:href="dji__error_8hpp.html" target="_top" xlink:title="All DJI OSDK OpenProtocol ACK Error Codes. ">
<polygon fill="white" stroke="black" points="199.214,-56.5 199.214,-75.5 269.214,-75.5 269.214,-56.5 199.214,-56.5"/>
<text text-anchor="middle" x="234.214" y="-63.5" font-family="Helvetica,sans-Serif" font-size="10.00">dji_error.hpp</text>
</a>
</g>
</g>
<!-- Node3&#45;&gt;Node4 -->
<g id="edge3" class="edge"><title>Node3&#45;&gt;Node4</title>
<path fill="none" stroke="midnightblue" d="M234.214,-112.083C234.214,-105.006 234.214,-94.8611 234.214,-85.9865"/>
<polygon fill="midnightblue" stroke="midnightblue" points="237.714,-85.751 234.214,-75.7511 230.714,-85.7511 237.714,-85.751"/>
</g>
<!-- Node5 -->
<g id="node5" class="node"><title>Node5</title>
<polygon fill="white" stroke="#bfbfbf" points="272.714,-0.5 272.714,-19.5 321.714,-19.5 321.714,-0.5 272.714,-0.5"/>
<text text-anchor="middle" x="297.214" y="-7.5" font-family="Helvetica,sans-Serif" font-size="10.00">stdint.h</text>
</g>
<!-- Node3&#45;&gt;Node5 -->
<g id="edge5" class="edge"><title>Node3&#45;&gt;Node5</title>
<path fill="none" stroke="midnightblue" d="M245.557,-112.179C255.521,-103.859 269.718,-90.5244 278.214,-76 286.654,-61.5704 291.58,-43.1178 294.292,-29.5626"/>
<polygon fill="midnightblue" stroke="midnightblue" points="297.772,-29.9822 296.077,-19.5238 290.88,-28.7564 297.772,-29.9822"/>
</g>
<!-- Node4&#45;&gt;Node5 -->
<g id="edge4" class="edge"><title>Node4&#45;&gt;Node5</title>
<path fill="none" stroke="midnightblue" d="M244.336,-56.324C253.74,-48.2631 267.958,-36.0765 279.283,-26.3695"/>
<polygon fill="midnightblue" stroke="midnightblue" points="281.593,-28.9993 286.908,-19.8339 277.037,-23.6844 281.593,-28.9993"/>
</g>
<!-- Node6&#45;&gt;Node5 -->
<g id="edge8" class="edge"><title>Node6&#45;&gt;Node5</title>
<path fill="none" stroke="midnightblue" d="M399.624,-112.456C398.289,-99.0329 393.979,-72.8068 380.214,-56 367.625,-40.6294 348.35,-29.7259 331.543,-22.5052"/>
<polygon fill="midnightblue" stroke="midnightblue" points="332.585,-19.1522 322.001,-18.6733 329.976,-25.6479 332.585,-19.1522"/>
</g>
<!-- Node7 -->
<g id="node7" class="node"><title>Node7</title>
<polygon fill="white" stroke="#bfbfbf" points="328.714,-56.5 328.714,-75.5 371.714,-75.5 371.714,-56.5 328.714,-56.5"/>
<text text-anchor="middle" x="350.214" y="-63.5" font-family="Helvetica,sans-Serif" font-size="10.00">cstdio</text>
</g>
<!-- Node6&#45;&gt;Node7 -->
<g id="edge7" class="edge"><title>Node6&#45;&gt;Node7</title>
<path fill="none" stroke="midnightblue" d="M391.958,-112.083C384.749,-104.298 374.104,-92.8015 365.368,-83.3665"/>
<polygon fill="midnightblue" stroke="midnightblue" points="367.679,-80.7108 358.317,-75.7511 362.543,-85.4666 367.679,-80.7108"/>
</g>
<!-- Node8&#45;&gt;Node2 -->
<g id="edge16" class="edge"><title>Node8&#45;&gt;Node2</title>
<path fill="none" stroke="midnightblue" d="M927.551,-344.733C767.227,-343.428 184.038,-336.211 110.214,-300 89.3938,-289.788 73.1857,-267.956 63.6803,-252.415"/>
<polygon fill="midnightblue" stroke="midnightblue" points="66.683,-250.616 58.6468,-243.712 60.6235,-254.121 66.683,-250.616"/>
</g>
<!-- Node8&#45;&gt;Node3 -->
<g id="edge18" class="edge"><title>Node8&#45;&gt;Node3</title>
<path fill="none" stroke="midnightblue" d="M927.517,-344.285C764.241,-341.232 161.622,-328.143 81.214,-300 40.934,-285.902 22.6958,-281.97 3.214,-244 -11.1121,-216.079 29.7957,-169.862 32.214,-168 73.7261,-136.042 133.481,-125.89 177.231,-123.072"/>
<polygon fill="midnightblue" stroke="midnightblue" points="177.627,-126.556 187.427,-122.528 177.255,-119.566 177.627,-126.556"/>
</g>
<!-- Node8&#45;&gt;Node6 -->
<g id="edge59" class="edge"><title>Node8&#45;&gt;Node6</title>
<path fill="none" stroke="midnightblue" d="M945.074,-336.36C925.33,-328.433 896.66,-315.576 874.214,-300 804.748,-251.795 813.358,-204.761 737.214,-168 686.533,-143.532 524.373,-130.547 444.93,-125.515"/>
<polygon fill="midnightblue" stroke="midnightblue" points="444.944,-122.009 434.747,-124.885 444.512,-128.996 444.944,-122.009"/>
</g>
<!-- Node9 -->
<g id="node9" class="node"><title>Node9</title>
<polygon fill="white" stroke="#bfbfbf" points="747.214,-112.5 747.214,-131.5 793.214,-131.5 793.214,-112.5 747.214,-112.5"/>
<text text-anchor="middle" x="770.214" y="-119.5" font-family="Helvetica,sans-Serif" font-size="10.00">cstdint</text>
</g>
<!-- Node8&#45;&gt;Node9 -->
<g id="edge10" class="edge"><title>Node8&#45;&gt;Node9</title>
<path fill="none" stroke="midnightblue" d="M936.079,-336.458C917.743,-329.761 896.268,-318.409 885.214,-300 855.011,-249.703 917.399,-216.381 884.214,-168 866.151,-141.666 830.087,-130.743 803.336,-126.212"/>
<polygon fill="midnightblue" stroke="midnightblue" points="803.642,-122.719 793.239,-124.724 802.622,-129.644 803.642,-122.719"/>
</g>
<!-- Node10 -->
<g id="node10" class="node"><title>Node10</title>
<g id="a_node10"><a xlink:href="dji__broadcast_8hpp.html" target="_top" xlink:title="Broadcast Telemetry API for DJI onboardSDK library. ">
<polygon fill="white" stroke="black" points="1168.71,-224.5 1168.71,-243.5 1261.71,-243.5 1261.71,-224.5 1168.71,-224.5"/>
<text text-anchor="middle" x="1215.21" y="-231.5" font-family="Helvetica,sans-Serif" font-size="10.00">dji_broadcast.hpp</text>
</a>
</g>
</g>
<!-- Node8&#45;&gt;Node10 -->
<g id="edge11" class="edge"><title>Node8&#45;&gt;Node10</title>
<path fill="none" stroke="midnightblue" d="M978.506,-336.453C995.414,-322.788 1030.56,-295.941 1064.21,-280 1096.31,-264.796 1134.68,-253.44 1164.72,-245.939"/>
<polygon fill="midnightblue" stroke="midnightblue" points="1165.67,-249.309 1174.56,-243.543 1164.02,-242.507 1165.67,-249.309"/>
</g>
<!-- Node12 -->
<g id="node12" class="node"><title>Node12</title>
<g id="a_node12"><a xlink:href="dji__vehicle__callback_8hpp.html" target="_top" xlink:title="Type definition for new Vehicle&#45;style callbacks. ">
<polygon fill="white" stroke="black" points="1121.21,-112.5 1121.21,-131.5 1243.21,-131.5 1243.21,-112.5 1121.21,-112.5"/>
<text text-anchor="middle" x="1182.21" y="-119.5" font-family="Helvetica,sans-Serif" font-size="10.00">dji_vehicle_callback.hpp</text>
</a>
</g>
</g>
<!-- Node8&#45;&gt;Node12 -->
<g id="edge60" class="edge"><title>Node8&#45;&gt;Node12</title>
<path fill="none" stroke="midnightblue" d="M1008.85,-344.166C1164.71,-340.774 1716.84,-326.892 1742.21,-300 1886.62,-146.954 1434.29,-125.635 1253.48,-123.121"/>
<polygon fill="midnightblue" stroke="midnightblue" points="1253.31,-119.619 1243.26,-122.995 1253.22,-126.619 1253.31,-119.619"/>
</g>
<!-- Node13 -->
<g id="node13" class="node"><title>Node13</title>
<polygon fill="white" stroke="#bfbfbf" points="1004.71,-56.5 1004.71,-75.5 1115.71,-75.5 1115.71,-56.5 1004.71,-56.5"/>
<text text-anchor="middle" x="1060.21" y="-63.5" font-family="Helvetica,sans-Serif" font-size="10.00">dji_open_protocol.hpp</text>
</g>
<!-- Node8&#45;&gt;Node13 -->
<g id="edge51" class="edge"><title>Node8&#45;&gt;Node13</title>
<path fill="none" stroke="midnightblue" d="M1008.73,-344.571C1161.22,-342.705 1695.44,-333.793 1763.21,-300 1797.08,-283.114 1818.21,-272.843 1818.21,-235 1818.21,-235 1818.21,-235 1818.21,-177 1818.21,-107.341 1310.39,-78.0198 1126.05,-69.6712"/>
<polygon fill="midnightblue" stroke="midnightblue" points="1126.1,-66.1698 1115.95,-69.22 1125.79,-73.1628 1126.1,-66.1698"/>
</g>
<!-- Node14 -->
<g id="node14" class="node"><title>Node14</title>
<polygon fill="white" stroke="#bfbfbf" points="1106.21,-280.5 1106.21,-299.5 1218.21,-299.5 1218.21,-280.5 1106.21,-280.5"/>
<text text-anchor="middle" x="1162.21" y="-287.5" font-family="Helvetica,sans-Serif" font-size="10.00">dji_circular_buffer.hpp</text>
</g>
<!-- Node8&#45;&gt;Node14 -->
<g id="edge17" class="edge"><title>Node8&#45;&gt;Node14</title>
<path fill="none" stroke="midnightblue" d="M998.954,-336.444C1032.16,-327.201 1085.2,-312.436 1121.77,-302.257"/>
<polygon fill="midnightblue" stroke="midnightblue" points="1122.92,-305.57 1131.62,-299.516 1121.05,-298.826 1122.92,-305.57"/>
</g>
<!-- Node15 -->
<g id="node15" class="node"><title>Node15</title>
<g id="a_node15"><a xlink:href="dji__control_8hpp.html" target="_top" xlink:title="Control API for DJI OSDK library. ">
<polygon fill="white" stroke="black" points="894.214,-280.5 894.214,-299.5 974.214,-299.5 974.214,-280.5 894.214,-280.5"/>
<text text-anchor="middle" x="934.214" y="-287.5" font-family="Helvetica,sans-Serif" font-size="10.00">dji_control.hpp</text>
</a>
</g>
</g>
<!-- Node8&#45;&gt;Node15 -->
<g id="edge19" class="edge"><title>Node8&#45;&gt;Node15</title>
<path fill="none" stroke="midnightblue" d="M962.6,-336.083C957.847,-328.534 950.896,-317.495 945.062,-308.23"/>
<polygon fill="midnightblue" stroke="midnightblue" points="948.014,-306.349 939.724,-299.751 942.09,-310.078 948.014,-306.349"/>
</g>
<!-- Node18 -->
<g id="node18" class="node"><title>Node18</title>
<g id="a_node18"><a xlink:href="dji__version_8hpp.html" target="_top" xlink:title="Drone/SDK Version definition for DJI onboardSDK library. ">
<polygon fill="white" stroke="black" points="646.214,-168.5 646.214,-187.5 728.214,-187.5 728.214,-168.5 646.214,-168.5"/>
<text text-anchor="middle" x="687.214" y="-175.5" font-family="Helvetica,sans-Serif" font-size="10.00">dji_version.hpp</text>
</a>
</g>
</g>
<!-- Node8&#45;&gt;Node18 -->
<g id="edge61" class="edge"><title>Node8&#45;&gt;Node18</title>
<path fill="none" stroke="midnightblue" d="M940.114,-336.412C916.035,-328.517 880.817,-315.678 852.214,-300 794.377,-268.298 733.641,-218.932 704.635,-194.201"/>
<polygon fill="midnightblue" stroke="midnightblue" points="706.87,-191.506 697.006,-187.638 702.304,-196.813 706.87,-191.506"/>
</g>
<!-- Node20 -->
<g id="node20" class="node"><title>Node20</title>
<g id="a_node20"><a xlink:href="dji__gimbal_8hpp.html" target="_top" xlink:title="Gimbal API for OSDK library. ">
<polygon fill="white" stroke="black" points="50.714,-168.5 50.714,-187.5 129.714,-187.5 129.714,-168.5 50.714,-168.5"/>
<text text-anchor="middle" x="90.214" y="-175.5" font-family="Helvetica,sans-Serif" font-size="10.00">dji_gimbal.hpp</text>
</a>
</g>
</g>
<!-- Node8&#45;&gt;Node20 -->
<g id="edge32" class="edge"><title>Node8&#45;&gt;Node20</title>
<path fill="none" stroke="midnightblue" d="M927.57,-343.682C802.351,-339.394 423.659,-324.681 303.214,-300 229.407,-284.876 204.893,-287.266 143.214,-244 125.222,-231.379 110.022,-211.045 100.576,-196.48"/>
<polygon fill="midnightblue" stroke="midnightblue" points="103.481,-194.525 95.2281,-187.882 97.5372,-198.222 103.481,-194.525"/>
</g>
<!-- Node21 -->
<g id="node21" class="node"><title>Node21</title>
<polygon fill="white" stroke="#bfbfbf" points="1236.21,-280.5 1236.21,-299.5 1334.21,-299.5 1334.21,-280.5 1236.21,-280.5"/>
<text text-anchor="middle" x="1285.21" y="-287.5" font-family="Helvetica,sans-Serif" font-size="10.00">dji_hard_driver.hpp</text>
</g>
<!-- Node8&#45;&gt;Node21 -->
<g id="edge35" class="edge"><title>Node8&#45;&gt;Node21</title>
<path fill="none" stroke="midnightblue" d="M1009.01,-338.051C1064.05,-328.674 1162.49,-311.906 1225.77,-301.127"/>
<polygon fill="midnightblue" stroke="midnightblue" points="1226.72,-304.514 1235.99,-299.384 1225.55,-297.613 1226.72,-304.514"/>
</g>
<!-- Node22 -->
<g id="node22" class="node"><title>Node22</title>
<g id="a_node22"><a xlink:href="dji__hardware__sync_8hpp.html" target="_top" xlink:title="Hardware Sync API for DJI OSDK. ">
<polygon fill="white" stroke="black" points="152.214,-224.5 152.214,-243.5 268.214,-243.5 268.214,-224.5 152.214,-224.5"/>
<text text-anchor="middle" x="210.214" y="-231.5" font-family="Helvetica,sans-Serif" font-size="10.00">dji_hardware_sync.hpp</text>
</a>
</g>
</g>
<!-- Node8&#45;&gt;Node22 -->
<g id="edge36" class="edge"><title>Node8&#45;&gt;Node22</title>
<path fill="none" stroke="midnightblue" d="M927.393,-343.719C809.483,-339.741 469.963,-326.266 362.214,-300 315.116,-288.519 263.999,-263.892 234.668,-248.464"/>
<polygon fill="midnightblue" stroke="midnightblue" points="236.064,-245.242 225.594,-243.617 232.766,-251.416 236.064,-245.242"/>
</g>
<!-- Node23 -->
<g id="node23" class="node"><title>Node23</title>
<g id="a_node23"><a xlink:href="dji__mfio_8hpp.html" target="_top" xlink:title="MFIO API for DJI OSDK library. ">
<polygon fill="white" stroke="black" points="1279.71,-224.5 1279.71,-243.5 1348.71,-243.5 1348.71,-224.5 1279.71,-224.5"/>
<text text-anchor="middle" x="1314.21" y="-231.5" font-family="Helvetica,sans-Serif" font-size="10.00">dji_mfio.hpp</text>
</a>
</g>
</g>
<!-- Node8&#45;&gt;Node23 -->
<g id="edge38" class="edge"><title>Node8&#45;&gt;Node23</title>
<path fill="none" stroke="midnightblue" d="M987.139,-336.432C1006.27,-327.658 1036.57,-313.44 1062.21,-300 1078.08,-291.682 1080.46,-286.342 1097.21,-280 1099.24,-279.232 1206.24,-257.187 1269.21,-244.243"/>
<polygon fill="midnightblue" stroke="midnightblue" points="1270.2,-247.612 1279.29,-242.171 1268.79,-240.756 1270.2,-247.612"/>
</g>
<!-- Node24 -->
<g id="node24" class="node"><title>Node24</title>
<g id="a_node24"><a xlink:href="dji__mission__manager_8hpp.html" target="_top" xlink:title="Mission&#45;Manager API for DJI OSDK library. ">
<polygon fill="white" stroke="black" points="371.714,-280.5 371.714,-299.5 498.714,-299.5 498.714,-280.5 371.714,-280.5"/>
<text text-anchor="middle" x="435.214" y="-287.5" font-family="Helvetica,sans-Serif" font-size="10.00">dji_mission_manager.hpp</text>
</a>
</g>
</g>
<!-- Node8&#45;&gt;Node24 -->
<g id="edge40" class="edge"><title>Node8&#45;&gt;Node24</title>
<path fill="none" stroke="midnightblue" d="M927.275,-340.852C837.594,-331.767 622.737,-309.999 508.897,-298.465"/>
<polygon fill="midnightblue" stroke="midnightblue" points="509.173,-294.975 498.872,-297.449 508.468,-301.94 509.173,-294.975"/>
</g>
<!-- Node28 -->
<g id="node28" class="node"><title>Node28</title>
<g id="a_node28"><a xlink:href="dji__mobile__communication_8hpp.html" target="_top" xlink:title="Implementation of DJI Mobile&#45;Onboard SDK Communication (MOC) ">
<polygon fill="white" stroke="black" points="1472.21,-168.5 1472.21,-187.5 1622.21,-187.5 1622.21,-168.5 1472.21,-168.5"/>
<text text-anchor="middle" x="1547.21" y="-175.5" font-family="Helvetica,sans-Serif" font-size="10.00">dji_mobile_communication.hpp</text>
</a>
</g>
</g>
<!-- Node8&#45;&gt;Node28 -->
<g id="edge49" class="edge"><title>Node8&#45;&gt;Node28</title>
<path fill="none" stroke="midnightblue" d="M1008.9,-344.104C1162.34,-340.528 1698.54,-326.193 1723.21,-300 1770.26,-250.071 1657.39,-209.114 1591.17,-190.237"/>
<polygon fill="midnightblue" stroke="midnightblue" points="1591.94,-186.818 1581.37,-187.506 1590.06,-193.562 1591.94,-186.818"/>
</g>
<!-- Node29 -->
<g id="node29" class="node"><title>Node29</title>
<polygon fill="white" stroke="#bfbfbf" points="1352.21,-280.5 1352.21,-299.5 1480.21,-299.5 1480.21,-280.5 1352.21,-280.5"/>
<text text-anchor="middle" x="1416.21" y="-287.5" font-family="Helvetica,sans-Serif" font-size="10.00">dji_platform_manager.hpp</text>
</g>
<!-- Node8&#45;&gt;Node29 -->
<g id="edge52" class="edge"><title>Node8&#45;&gt;Node29</title>
<path fill="none" stroke="midnightblue" d="M1008.73,-340.182C1075.76,-332.201 1214.23,-315.674 1342.15,-300.127"/>
<polygon fill="midnightblue" stroke="midnightblue" points="1342.62,-303.595 1352.12,-298.914 1341.77,-296.647 1342.62,-303.595"/>
</g>
<!-- Node30 -->
<g id="node30" class="node"><title>Node30</title>
<g id="a_node30"><a xlink:href="dji__status_8hpp.html" target="_top" xlink:title="Status information for DJI Vehicle. ">
<polygon fill="white" stroke="black" points="1498.71,-280.5 1498.71,-299.5 1575.71,-299.5 1575.71,-280.5 1498.71,-280.5"/>
<text text-anchor="middle" x="1537.21" y="-287.5" font-family="Helvetica,sans-Serif" font-size="10.00">dji_status.hpp</text>
</a>
</g>
</g>
<!-- Node8&#45;&gt;Node30 -->
<g id="edge53" class="edge"><title>Node8&#45;&gt;Node30</title>
<path fill="none" stroke="midnightblue" d="M1008.9,-342.863C1095.26,-338.032 1303.41,-324.817 1488.31,-299.983"/>
<polygon fill="midnightblue" stroke="midnightblue" points="1489.06,-303.415 1498.5,-298.601 1488.11,-296.478 1489.06,-303.415"/>
</g>
<!-- Node31 -->
<g id="node31" class="node"><title>Node31</title>
<g id="a_node31"><a xlink:href="dji__subscription_8hpp.html" target="_top" xlink:title="Telemetry Subscription API for DJI OSDK library. ">
<polygon fill="white" stroke="black" points="1008.71,-224.5 1008.71,-243.5 1111.71,-243.5 1111.71,-224.5 1008.71,-224.5"/>
<text text-anchor="middle" x="1060.21" y="-231.5" font-family="Helvetica,sans-Serif" font-size="10.00">dji_subscription.hpp</text>
</a>
</g>
</g>
<!-- Node8&#45;&gt;Node31 -->
<g id="edge54" class="edge"><title>Node8&#45;&gt;Node31</title>
<path fill="none" stroke="midnightblue" d="M975.433,-336.368C990.75,-318.055 1026.72,-275.049 1046.53,-251.362"/>
<polygon fill="midnightblue" stroke="midnightblue" points="1049.3,-253.508 1053.03,-243.591 1043.93,-249.017 1049.3,-253.508"/>
</g>
<!-- Node32 -->
<g id="node32" class="node"><title>Node32</title>
<polygon fill="white" stroke="#bfbfbf" points="1594.21,-280.5 1594.21,-299.5 1714.21,-299.5 1714.21,-280.5 1594.21,-280.5"/>
<text text-anchor="middle" x="1654.21" y="-287.5" font-family="Helvetica,sans-Serif" font-size="10.00">dji_thread_manager.hpp</text>
</g>
<!-- Node8&#45;&gt;Node32 -->
<g id="edge58" class="edge"><title>Node8&#45;&gt;Node32</title>
<path fill="none" stroke="midnightblue" d="M1009.08,-342.826C1106.57,-337.466 1360.72,-322.474 1583.77,-300.093"/>
<polygon fill="midnightblue" stroke="midnightblue" points="1584.43,-303.543 1594.03,-299.055 1583.73,-296.579 1584.43,-303.543"/>
</g>
<!-- Node33 -->
<g id="node33" class="node"><title>Node33</title>
<g id="a_node33"><a xlink:href="dji__virtual__rc_8hpp.html" target="_top" xlink:title="Virtual Radio Control API for DJI onboardSDK library. ">
<polygon fill="white" stroke="black" points="634.214,-280.5 634.214,-299.5 724.214,-299.5 724.214,-280.5 634.214,-280.5"/>
<text text-anchor="middle" x="679.214" y="-287.5" font-family="Helvetica,sans-Serif" font-size="10.00">dji_virtual_rc.hpp</text>
</a>
</g>
</g>
<!-- Node8&#45;&gt;Node33 -->
<g id="edge62" class="edge"><title>Node8&#45;&gt;Node33</title>
<path fill="none" stroke="midnightblue" d="M927.42,-337.378C877.033,-327.963 791.087,-311.904 734.724,-301.372"/>
<polygon fill="midnightblue" stroke="midnightblue" points="735.032,-297.869 724.559,-299.473 733.746,-304.75 735.032,-297.869"/>
</g>
<!-- Node11 -->
<g id="node11" class="node"><title>Node11</title>
<g id="a_node11"><a xlink:href="dji__telemetry_8hpp.html" target="_top" xlink:title="Enumeration of all telemetry data types, structures and maps. ">
<polygon fill="white" stroke="black" points="784.714,-168.5 784.714,-187.5 875.714,-187.5 875.714,-168.5 784.714,-168.5"/>
<text text-anchor="middle" x="830.214" y="-175.5" font-family="Helvetica,sans-Serif" font-size="10.00">dji_telemetry.hpp</text>
</a>
</g>
</g>
<!-- Node10&#45;&gt;Node11 -->
<g id="edge12" class="edge"><title>Node10&#45;&gt;Node11</title>
<path fill="none" stroke="midnightblue" d="M1168.39,-226.433C1097.29,-216.46 962.327,-197.53 886.161,-186.847"/>
<polygon fill="midnightblue" stroke="midnightblue" points="886.206,-183.319 875.816,-185.396 885.233,-190.251 886.206,-183.319"/>
</g>
<!-- Node10&#45;&gt;Node12 -->
<g id="edge14" class="edge"><title>Node10&#45;&gt;Node12</title>
<path fill="none" stroke="midnightblue" d="M1212.62,-224.368C1207.27,-206.537 1194.9,-165.295 1187.7,-141.272"/>
<polygon fill="midnightblue" stroke="midnightblue" points="1191.02,-140.164 1184.79,-131.591 1184.31,-142.175 1191.02,-140.164"/>
</g>
<!-- Node11&#45;&gt;Node6 -->
<g id="edge13" class="edge"><title>Node11&#45;&gt;Node6</title>
<path fill="none" stroke="midnightblue" d="M784.696,-170.036C779.81,-169.329 774.911,-168.638 770.214,-168 653.113,-152.1 514.79,-135.984 445.118,-128.053"/>
<polygon fill="midnightblue" stroke="midnightblue" points="445.274,-124.548 434.943,-126.897 444.484,-131.503 445.274,-124.548"/>
</g>
<!-- Node12&#45;&gt;Node13 -->
<g id="edge15" class="edge"><title>Node12&#45;&gt;Node13</title>
<path fill="none" stroke="midnightblue" d="M1162.88,-112.444C1142.89,-103.596 1111.47,-89.6875 1088.65,-79.5865"/>
<polygon fill="midnightblue" stroke="midnightblue" points="1090.02,-76.3635 1079.45,-75.5164 1087.18,-82.7645 1090.02,-76.3635"/>
</g>
<!-- Node15&#45;&gt;Node6 -->
<g id="edge30" class="edge"><title>Node15&#45;&gt;Node6</title>
<path fill="none" stroke="midnightblue" d="M933.581,-280.469C931.397,-257.809 922.07,-195.941 884.214,-168 849.317,-142.243 558.338,-128.834 445.078,-124.552"/>
<polygon fill="midnightblue" stroke="midnightblue" points="445.127,-121.051 435.003,-124.177 444.866,-128.046 445.127,-121.051"/>
</g>
<!-- Node15&#45;&gt;Node12 -->
<g id="edge31" class="edge"><title>Node15&#45;&gt;Node12</title>
<path fill="none" stroke="midnightblue" d="M974.317,-283.291C1021.97,-275.835 1097.84,-261.632 1120.21,-244 1153.63,-217.669 1170.73,-168.43 1177.92,-141.597"/>
<polygon fill="midnightblue" stroke="midnightblue" points="1181.39,-142.15 1180.41,-131.6 1174.6,-140.456 1181.39,-142.15"/>
</g>
<!-- Node15&#45;&gt;Node13 -->
<g id="edge29" class="edge"><title>Node15&#45;&gt;Node13</title>
<path fill="none" stroke="midnightblue" d="M939.458,-280.416C950.021,-263.072 974.532,-222.56 994.214,-188 1014.95,-151.593 1038.19,-108.385 1050.82,-84.7101"/>
<polygon fill="midnightblue" stroke="midnightblue" points="1054.07,-86.0404 1055.68,-75.568 1047.89,-82.7527 1054.07,-86.0404"/>
</g>
<!-- Node16 -->
<g id="node16" class="node"><title>Node16</title>
<g id="a_node16"><a xlink:href="dji__ack_8hpp.html" target="_top" xlink:title="All DJI OSDK ACK parsing. ">
<polygon fill="white" stroke="black" points="585.214,-224.5 585.214,-243.5 651.214,-243.5 651.214,-224.5 585.214,-224.5"/>
<text text-anchor="middle" x="618.214" y="-231.5" font-family="Helvetica,sans-Serif" font-size="10.00">dji_ack.hpp</text>
</a>
</g>
</g>
<!-- Node15&#45;&gt;Node16 -->
<g id="edge20" class="edge"><title>Node15&#45;&gt;Node16</title>
<path fill="none" stroke="midnightblue" d="M894.192,-282.161C834.692,-271.993 723.329,-252.963 661.82,-242.452"/>
<polygon fill="midnightblue" stroke="midnightblue" points="662.111,-238.951 651.665,-240.716 660.932,-245.851 662.111,-238.951"/>
</g>
<!-- Node16&#45;&gt;Node3 -->
<g id="edge21" class="edge"><title>Node16&#45;&gt;Node3</title>
<path fill="none" stroke="midnightblue" d="M585.059,-230.978C499.883,-225.497 278.297,-209.323 253.214,-188 239.937,-176.713 235.665,-156.707 234.421,-141.862"/>
<polygon fill="midnightblue" stroke="midnightblue" points="237.912,-141.576 233.962,-131.745 230.919,-141.894 237.912,-141.576"/>
</g>
<!-- Node16&#45;&gt;Node6 -->
<g id="edge24" class="edge"><title>Node16&#45;&gt;Node6</title>
<path fill="none" stroke="midnightblue" d="M618.157,-224.428C617.577,-210.481 614.314,-182.935 598.214,-168 576.272,-147.646 496.328,-134.495 444.979,-127.947"/>
<polygon fill="midnightblue" stroke="midnightblue" points="445.155,-124.442 434.801,-126.687 444.296,-131.389 445.155,-124.442"/>
</g>
<!-- Node17 -->
<g id="node17" class="node"><title>Node17</title>
<g id="a_node17"><a xlink:href="dji__mission__type_8hpp.html" target="_top" xlink:title="Mission related data struct for DJI OSDK library. ">
<polygon fill="white" stroke="black" points="428.214,-168.5 428.214,-187.5 536.214,-187.5 536.214,-168.5 428.214,-168.5"/>
<text text-anchor="middle" x="482.214" y="-175.5" font-family="Helvetica,sans-Serif" font-size="10.00">dji_mission_type.hpp</text>
</a>
</g>
</g>
<!-- Node16&#45;&gt;Node17 -->
<g id="edge22" class="edge"><title>Node16&#45;&gt;Node17</title>
<path fill="none" stroke="midnightblue" d="M596.664,-224.444C574.183,-215.517 538.726,-201.439 513.234,-191.317"/>
<polygon fill="midnightblue" stroke="midnightblue" points="514.249,-187.954 503.663,-187.516 511.665,-194.46 514.249,-187.954"/>
</g>
<!-- Node16&#45;&gt;Node18 -->
<g id="edge25" class="edge"><title>Node16&#45;&gt;Node18</title>
<path fill="none" stroke="midnightblue" d="M629.3,-224.324C639.7,-216.185 655.475,-203.839 667.936,-194.087"/>
<polygon fill="midnightblue" stroke="midnightblue" points="670.208,-196.753 675.926,-187.834 665.894,-191.241 670.208,-196.753"/>
</g>
<!-- Node19 -->
<g id="node19" class="node"><title>Node19</title>
<polygon fill="white" stroke="#bfbfbf" points="554.714,-168.5 554.714,-187.5 589.714,-187.5 589.714,-168.5 554.714,-168.5"/>
<text text-anchor="middle" x="572.214" y="-175.5" font-family="Helvetica,sans-Serif" font-size="10.00">map</text>
</g>
<!-- Node16&#45;&gt;Node19 -->
<g id="edge28" class="edge"><title>Node16&#45;&gt;Node19</title>
<path fill="none" stroke="midnightblue" d="M610.618,-224.083C603.987,-216.298 594.193,-204.801 586.156,-195.367"/>
<polygon fill="midnightblue" stroke="midnightblue" points="588.818,-193.094 579.669,-187.751 583.489,-197.633 588.818,-193.094"/>
</g>
<!-- Node17&#45;&gt;Node6 -->
<g id="edge23" class="edge"><title>Node17&#45;&gt;Node6</title>
<path fill="none" stroke="midnightblue" d="M469.039,-168.324C456.367,-159.979 436.981,-147.212 422.008,-137.352"/>
<polygon fill="midnightblue" stroke="midnightblue" points="423.633,-134.231 413.356,-131.655 419.783,-140.078 423.633,-134.231"/>
</g>
<!-- Node18&#45;&gt;Node3 -->
<g id="edge26" class="edge"><title>Node18&#45;&gt;Node3</title>
<path fill="none" stroke="midnightblue" d="M645.812,-172.065C564.34,-162.353 383.112,-140.749 290.725,-129.736"/>
<polygon fill="midnightblue" stroke="midnightblue" points="291.064,-126.252 280.72,-128.544 290.235,-133.203 291.064,-126.252"/>
</g>
<!-- Node18&#45;&gt;Node9 -->
<g id="edge27" class="edge"><title>Node18&#45;&gt;Node9</title>
<path fill="none" stroke="midnightblue" d="M700.549,-168.324C713.376,-159.979 732.999,-147.212 748.154,-137.352"/>
<polygon fill="midnightblue" stroke="midnightblue" points="750.438,-140.042 756.912,-131.655 746.621,-134.174 750.438,-140.042"/>
</g>
<!-- Node20&#45;&gt;Node3 -->
<g id="edge33" class="edge"><title>Node20&#45;&gt;Node3</title>
<path fill="none" stroke="midnightblue" d="M113.031,-168.444C137.046,-159.438 175.043,-145.189 202.083,-135.049"/>
<polygon fill="midnightblue" stroke="midnightblue" points="203.369,-138.305 211.504,-131.516 200.911,-131.751 203.369,-138.305"/>
</g>
<!-- Node20&#45;&gt;Node6 -->
<g id="edge34" class="edge"><title>Node20&#45;&gt;Node6</title>
<path fill="none" stroke="midnightblue" d="M129.791,-170.106C187.653,-160.027 295.025,-141.323 355.611,-130.77"/>
<polygon fill="midnightblue" stroke="midnightblue" points="356.387,-134.187 365.638,-129.023 355.185,-127.291 356.387,-134.187"/>
</g>
<!-- Node22&#45;&gt;Node6 -->
<g id="edge37" class="edge"><title>Node22&#45;&gt;Node6</title>
<path fill="none" stroke="midnightblue" d="M213.579,-224.457C219.489,-210.551 233.054,-183.064 253.214,-168 283.084,-145.681 324.132,-134.32 355.262,-128.604"/>
<polygon fill="midnightblue" stroke="midnightblue" points="356.138,-132.006 365.408,-126.875 354.962,-125.105 356.138,-132.006"/>
</g>
<!-- Node23&#45;&gt;Node12 -->
<g id="edge39" class="edge"><title>Node23&#45;&gt;Node12</title>
<path fill="none" stroke="midnightblue" d="M1303.86,-224.368C1281.49,-205.733 1228.45,-161.532 1200.37,-138.134"/>
<polygon fill="midnightblue" stroke="midnightblue" points="1202.45,-135.305 1192.52,-131.591 1197.97,-140.682 1202.45,-135.305"/>
</g>
<!-- Node25 -->
<g id="node25" class="node"><title>Node25</title>
<g id="a_node25"><a xlink:href="dji__hotpoint_8hpp.html" target="_top" xlink:title="Implementation of HotPoint (Point of Interest) Missions for DJI OSDK. ">
<polygon fill="white" stroke="black" points="392.714,-224.5 392.714,-243.5 477.714,-243.5 477.714,-224.5 392.714,-224.5"/>
<text text-anchor="middle" x="435.214" y="-231.5" font-family="Helvetica,sans-Serif" font-size="10.00">dji_hotpoint.hpp</text>
</a>
</g>
</g>
<!-- Node24&#45;&gt;Node25 -->
<g id="edge41" class="edge"><title>Node24&#45;&gt;Node25</title>
<path fill="none" stroke="midnightblue" d="M435.214,-280.083C435.214,-273.006 435.214,-262.861 435.214,-253.986"/>
<polygon fill="midnightblue" stroke="midnightblue" points="438.714,-253.751 435.214,-243.751 431.714,-253.751 438.714,-253.751"/>
</g>
<!-- Node27 -->
<g id="node27" class="node"><title>Node27</title>
<g id="a_node27"><a xlink:href="dji__waypoint_8hpp.html" target="_top" xlink:title="Implementation of GPS Waypoint Missions for DJI OSDK. ">
<polygon fill="white" stroke="black" points="285.714,-224.5 285.714,-243.5 374.714,-243.5 374.714,-224.5 285.714,-224.5"/>
<text text-anchor="middle" x="330.214" y="-231.5" font-family="Helvetica,sans-Serif" font-size="10.00">dji_waypoint.hpp</text>
</a>
</g>
</g>
<!-- Node24&#45;&gt;Node27 -->
<g id="edge47" class="edge"><title>Node24&#45;&gt;Node27</title>
<path fill="none" stroke="midnightblue" d="M418.344,-280.324C401.505,-271.664 375.407,-258.242 355.976,-248.249"/>
<polygon fill="midnightblue" stroke="midnightblue" points="357.536,-245.116 347.042,-243.655 354.334,-251.341 357.536,-245.116"/>
</g>
<!-- Node25&#45;&gt;Node11 -->
<g id="edge46" class="edge"><title>Node25&#45;&gt;Node11</title>
<path fill="none" stroke="midnightblue" d="M477.861,-227.17C549.551,-217.369 694.189,-197.596 774.055,-186.677"/>
<polygon fill="midnightblue" stroke="midnightblue" points="774.974,-190.084 784.408,-185.262 774.026,-183.149 774.974,-190.084"/>
</g>
<!-- Node26 -->
<g id="node26" class="node"><title>Node26</title>
<g id="a_node26"><a xlink:href="dji__mission__base_8hpp.html" target="_top" xlink:title="Mission&#45;Base abstract class for DJI OSDK library. ">
<polygon fill="white" stroke="black" points="262.214,-168.5 262.214,-187.5 372.214,-187.5 372.214,-168.5 262.214,-168.5"/>
<text text-anchor="middle" x="317.214" y="-175.5" font-family="Helvetica,sans-Serif" font-size="10.00">dji_mission_base.hpp</text>
</a>
</g>
</g>
<!-- Node25&#45;&gt;Node26 -->
<g id="edge42" class="edge"><title>Node25&#45;&gt;Node26</title>
<path fill="none" stroke="midnightblue" d="M416.517,-224.444C397.27,-215.636 367.062,-201.812 345.014,-191.722"/>
<polygon fill="midnightblue" stroke="midnightblue" points="346.374,-188.495 335.824,-187.516 343.461,-194.86 346.374,-188.495"/>
</g>
<!-- Node26&#45;&gt;Node3 -->
<g id="edge43" class="edge"><title>Node26&#45;&gt;Node3</title>
<path fill="none" stroke="midnightblue" d="M303.879,-168.324C291.052,-159.979 271.429,-147.212 256.274,-137.352"/>
<polygon fill="midnightblue" stroke="midnightblue" points="257.807,-134.174 247.516,-131.655 253.99,-140.042 257.807,-134.174"/>
</g>
<!-- Node26&#45;&gt;Node6 -->
<g id="edge44" class="edge"><title>Node26&#45;&gt;Node6</title>
<path fill="none" stroke="midnightblue" d="M330.549,-168.324C343.376,-159.979 362.999,-147.212 378.154,-137.352"/>
<polygon fill="midnightblue" stroke="midnightblue" points="380.438,-140.042 386.912,-131.655 376.621,-134.174 380.438,-140.042"/>
</g>
<!-- Node26&#45;&gt;Node12 -->
<g id="edge45" class="edge"><title>Node26&#45;&gt;Node12</title>
<path fill="none" stroke="midnightblue" d="M372.244,-171.849C387.453,-170.506 403.967,-169.122 419.214,-168 673.3,-149.302 975.439,-133.339 1110.63,-126.525"/>
<polygon fill="midnightblue" stroke="midnightblue" points="1111.04,-130.009 1120.86,-126.012 1110.69,-123.018 1111.04,-130.009"/>
</g>
<!-- Node27&#45;&gt;Node26 -->
<g id="edge48" class="edge"><title>Node27&#45;&gt;Node26</title>
<path fill="none" stroke="midnightblue" d="M328.067,-224.083C326.345,-216.927 323.867,-206.635 321.714,-197.691"/>
<polygon fill="midnightblue" stroke="midnightblue" points="325.064,-196.654 319.321,-187.751 318.259,-198.293 325.064,-196.654"/>
</g>
<!-- Node28&#45;&gt;Node12 -->
<g id="edge50" class="edge"><title>Node28&#45;&gt;Node12</title>
<path fill="none" stroke="midnightblue" d="M1489.38,-168.444C1424.37,-158.826 1318.94,-143.228 1250.08,-133.041"/>
<polygon fill="midnightblue" stroke="midnightblue" points="1250.18,-129.518 1239.78,-131.516 1249.16,-136.442 1250.18,-129.518"/>
</g>
<!-- Node31&#45;&gt;Node11 -->
<g id="edge56" class="edge"><title>Node31&#45;&gt;Node11</title>
<path fill="none" stroke="midnightblue" d="M1023.77,-224.444C983.815,-215.063 919.627,-199.993 876.229,-189.804"/>
<polygon fill="midnightblue" stroke="midnightblue" points="877.023,-186.395 866.488,-187.516 875.423,-193.21 877.023,-186.395"/>
</g>
<!-- Node31&#45;&gt;Node12 -->
<g id="edge57" class="edge"><title>Node31&#45;&gt;Node12</title>
<path fill="none" stroke="midnightblue" d="M1068.49,-224.304C1080.75,-211.563 1104.59,-187.247 1126.21,-168 1137.98,-157.531 1151.76,-146.443 1162.7,-137.893"/>
<polygon fill="midnightblue" stroke="midnightblue" points="1165.02,-140.529 1170.78,-131.641 1160.73,-134.993 1165.02,-140.529"/>
</g>
<!-- Node31&#45;&gt;Node13 -->
<g id="edge55" class="edge"><title>Node31&#45;&gt;Node13</title>
<path fill="none" stroke="midnightblue" d="M1060.21,-224.075C1060.21,-197.945 1060.21,-121.211 1060.21,-85.577"/>
<polygon fill="midnightblue" stroke="midnightblue" points="1063.71,-85.5681 1060.21,-75.5681 1056.71,-85.5681 1063.71,-85.5681"/>
</g>
<!-- Node33&#45;&gt;Node6 -->
<g id="edge65" class="edge"><title>Node33&#45;&gt;Node6</title>
<path fill="none" stroke="midnightblue" d="M653.456,-280.444C591.099,-259.529 435.909,-206.199 419.214,-188 407.675,-175.421 403.113,-156.203 401.326,-141.923"/>
<polygon fill="midnightblue" stroke="midnightblue" points="404.792,-141.394 400.407,-131.75 397.821,-142.024 404.792,-141.394"/>
</g>
<!-- Node33&#45;&gt;Node11 -->
<g id="edge66" class="edge"><title>Node33&#45;&gt;Node11</title>
<path fill="none" stroke="midnightblue" d="M691.063,-280.368C716.864,-261.573 778.368,-216.768 810.264,-193.533"/>
<polygon fill="midnightblue" stroke="midnightblue" points="812.398,-196.309 818.42,-187.591 808.277,-190.651 812.398,-196.309"/>
</g>
<!-- Node33&#45;&gt;Node13 -->
<g id="edge64" class="edge"><title>Node33&#45;&gt;Node13</title>
<path fill="none" stroke="midnightblue" d="M698.922,-280.44C736.039,-264.068 818.489,-226.512 884.214,-188 943.577,-153.215 1009.35,-105.287 1041.05,-81.5427"/>
<polygon fill="midnightblue" stroke="midnightblue" points="1043.17,-84.3281 1049.06,-75.5181 1038.96,-78.7351 1043.17,-84.3281"/>
</g>
<!-- Node33&#45;&gt;Node16 -->
<g id="edge63" class="edge"><title>Node33&#45;&gt;Node16</title>
<path fill="none" stroke="midnightblue" d="M669.413,-280.324C660.396,-272.341 646.808,-260.313 635.896,-250.653"/>
<polygon fill="midnightblue" stroke="midnightblue" points="638.001,-247.842 628.193,-243.834 633.361,-253.083 638.001,-247.842"/>
</g>
</g>
</svg>
        <g id="navigator" transform="translate(0 0)" fill="#404254">
                <rect fill="#f2f5e9" fill-opacity="0.5" stroke="#606060" stroke-width=".5" x="0" y="0" width="60" height="60"/>
                <use id="zoomplus" xlink:href="#zoomPlus" x="17" y="9" onmousedown="handleZoom(evt,'in')"/>
                <use id="zoomminus" xlink:href="#zoomMin" x="42" y="9" onmousedown="handleZoom(evt,'out')"/>
                <use id="reset" xlink:href="#resetDef" x="30" y="36" onmousedown="handleReset()"/>
                <g id="arrowUp" xlink:href="#dirArrow" transform="translate(30 24)" onmousedown="handlePan(0,-1)">
                  <use xlink:href="#rim" fill="#404040">
                        <set attributeName="fill" to="#808080" begin="arrowUp.mouseover" end="arrowUp.mouseout"/>
                  </use>
                  <path fill="none" stroke="white" stroke-width="1.5" d="M0,-3.0v7 M-2.5,-0.5L0,-3.0L2.5,-0.5"/>
                </g>
                <g id="arrowRight" xlink:href="#dirArrow" transform="rotate(90) translate(36 -43)" onmousedown="handlePan(1,0)">
                  <use xlink:href="#rim" fill="#404040">
                        <set attributeName="fill" to="#808080" begin="arrowRight.mouseover" end="arrowRight.mouseout"/>
                  </use>
                  <path fill="none" stroke="white" stroke-width="1.5" d="M0,-3.0v7 M-2.5,-0.5L0,-3.0L2.5,-0.5"/>
                </g>
                <g id="arrowDown" xlink:href="#dirArrow" transform="rotate(180) translate(-30 -48)" onmousedown="handlePan(0,1)">
                  <use xlink:href="#rim" fill="#404040">
                        <set attributeName="fill" to="#808080" begin="arrowDown.mouseover" end="arrowDown.mouseout"/>
                  </use>
                  <path fill="none" stroke="white" stroke-width="1.5" d="M0,-3.0v7 M-2.5,-0.5L0,-3.0L2.5,-0.5"/>
                </g>
                <g id="arrowLeft" xlink:href="#dirArrow" transform="rotate(270) translate(-36 17)" onmousedown="handlePan(-1,0)">
                  <use xlink:href="#rim" fill="#404040">
                        <set attributeName="fill" to="#808080" begin="arrowLeft.mouseover" end="arrowLeft.mouseout"/>
                  </use>
                  <path fill="none" stroke="white" stroke-width="1.5" d="M0,-3.0v7 M-2.5,-0.5L0,-3.0L2.5,-0.5"/>
                </g>
        </g>
        <svg viewBox="0 0 15 15" width="100%" height="30px" preserveAspectRatio="xMaxYMin meet">
         <g id="arrow_out" transform="scale(0.3 0.3)">
          <a xlink:href="dji__camera_8cpp__incl_org.svg" target="_base">
           <rect id="button" ry="5" rx="5" y="6" x="6" height="38" width="38"
                fill="#f2f5e9" fill-opacity="0.5" stroke="#606060" stroke-width="1.0"/>
           <path id="arrow"
             d="M 11.500037,31.436501 C 11.940474,20.09759 22.043105,11.32322 32.158766,21.979434 L 37.068811,17.246167 C 37.068811,17.246167 37.088388,32 37.088388,32 L 22.160133,31.978069 C 22.160133,31.978069 26.997745,27.140456 26.997745,27.140456 C 18.528582,18.264221 13.291696,25.230495 11.500037,31.436501 z"
             style="fill:#404040;"/>
          </a>
         </g>
        </svg>
</svg>
