<?xml version="1.0" encoding="UTF-8" standalone="no"?>
<!DOCTYPE svg PUBLIC "-//W3C//DTD SVG 1.1//EN"
 "http://www.w3.org/Graphics/SVG/1.1/DTD/svg11.dtd">
<!-- Generated by graphviz version 2.38.0 (20140413.2041)
 -->
<!-- Title: osdk&#45;core/api/src/dji_hotpoint.cpp Pages: 1 -->
<!--zoomable 431 -->
<svg id="main" version="1.1" xmlns="http://www.w3.org/2000/svg" xmlns:xlink="http://www.w3.org/1999/xlink" xml:space="preserve" onload="init(evt)">
<style type="text/css"><![CDATA[
.edge:hover path { stroke: red; }
.edge:hover polygon { stroke: red; fill: red; }
]]></style>
<script type="text/javascript"><![CDATA[
var edges = document.getElementsByTagName('g');
if (edges && edges.length) {
  for (var i=0;i<edges.length;i++) {
    if (edges[i].id.substr(0,4)=='edge') {
      edges[i].setAttribute('class','edge');
    }
  }
}
]]></script>
        <defs>
                <circle id="rim" cx="0" cy="0" r="7"/>
                <circle id="rim2" cx="0" cy="0" r="3.5"/>
                <g id="zoomPlus">
                        <use xlink:href="#rim" fill="#404040">
                                <set attributeName="fill" to="#808080" begin="zoomplus.mouseover" end="zoomplus.mouseout"/>
                        </use>
                        <path d="M-4,0h8M0,-4v8" fill="none" stroke="white" stroke-width="1.5" pointer-events="none"/>
                </g>
                <g id="zoomMin">
                        <use xlink:href="#rim" fill="#404040">
                                <set attributeName="fill" to="#808080" begin="zoomminus.mouseover" end="zoomminus.mouseout"/>
                        </use>
                        <path d="M-4,0h8" fill="none" stroke="white" stroke-width="1.5" pointer-events="none"/>
                </g>
                <g id="dirArrow">
                        <path fill="none" stroke="white" stroke-width="1.5" d="M0,-3.0v7 M-2.5,-0.5L0,-3.0L2.5,-0.5"/>
                </g>
               <g id="resetDef">
                       <use xlink:href="#rim2" fill="#404040">
                               <set attributeName="fill" to="#808080" begin="reset.mouseover" end="reset.mouseout"/>
                       </use>
               </g>
        </defs>

<script type="text/javascript">
var viewWidth = 1788;
var viewHeight = 431;
var sectionId = 'dynsection-0';
</script>
<script xlink:href="svgpan.js"/>
<svg id="graph" class="graph">
<g id="viewport">
<title>osdk&#45;core/api/src/dji_hotpoint.cpp</title>
<polygon fill="white" stroke="none" points="-4,4 -4,-427 1784.01,-427 1784.01,4 -4,4"/>
<!-- Node1 -->
<g id="node1" class="node"><title>Node1</title>
<polygon fill="#bfbfbf" stroke="black" points="150.013,-392.5 150.013,-422.5 254.013,-422.5 254.013,-392.5 150.013,-392.5"/>
<text text-anchor="start" x="158.013" y="-410.5" font-family="Helvetica,sans-Serif" font-size="10.00">osdk&#45;core/api/src/dji</text>
<text text-anchor="middle" x="202.013" y="-399.5" font-family="Helvetica,sans-Serif" font-size="10.00">_hotpoint.cpp</text>
</g>
<!-- Node2 -->
<g id="node2" class="node"><title>Node2</title>
<g id="a_node2"><a xlink:href="dji__hotpoint_8hpp.html" target="_top" xlink:title="Implementation of HotPoint (Point of Interest) Missions for DJI OSDK. ">
<polygon fill="white" stroke="black" points="25.5134,-224.5 25.5134,-243.5 110.513,-243.5 110.513,-224.5 25.5134,-224.5"/>
<text text-anchor="middle" x="68.0134" y="-231.5" font-family="Helvetica,sans-Serif" font-size="10.00">dji_hotpoint.hpp</text>
</a>
</g>
</g>
<!-- Node1&#45;&gt;Node2 -->
<g id="edge1" class="edge"><title>Node1&#45;&gt;Node2</title>
<path fill="none" stroke="midnightblue" d="M191.048,-392.465C166.49,-361.035 107.173,-285.118 80.9038,-251.498"/>
<polygon fill="midnightblue" stroke="midnightblue" points="83.6164,-249.285 74.7015,-243.56 78.1005,-253.595 83.6164,-249.285"/>
</g>
<!-- Node12 -->
<g id="node12" class="node"><title>Node12</title>
<g id="a_node12"><a xlink:href="dji__mission__manager_8hpp.html" target="_top" xlink:title="Mission&#45;Manager API for DJI OSDK library. ">
<polygon fill="white" stroke="black" points="138.513,-280.5 138.513,-299.5 265.513,-299.5 265.513,-280.5 138.513,-280.5"/>
<text text-anchor="middle" x="202.013" y="-287.5" font-family="Helvetica,sans-Serif" font-size="10.00">dji_mission_manager.hpp</text>
</a>
</g>
</g>
<!-- Node1&#45;&gt;Node12 -->
<g id="edge14" class="edge"><title>Node1&#45;&gt;Node12</title>
<path fill="none" stroke="midnightblue" d="M202.013,-392.337C202.013,-371.622 202.013,-333.016 202.013,-309.899"/>
<polygon fill="midnightblue" stroke="midnightblue" points="205.514,-309.669 202.013,-299.669 198.514,-309.669 205.514,-309.669"/>
</g>
<!-- Node15 -->
<g id="node15" class="node"><title>Node15</title>
<g id="a_node15"><a xlink:href="dji__vehicle_8hpp.html" target="_top" xlink:title="Vehicle API for DJI onboardSDK library. ">
<polygon fill="white" stroke="black" points="754.513,-336.5 754.513,-355.5 835.513,-355.5 835.513,-336.5 754.513,-336.5"/>
<text text-anchor="middle" x="795.013" y="-343.5" font-family="Helvetica,sans-Serif" font-size="10.00">dji_vehicle.hpp</text>
</a>
</g>
</g>
<!-- Node1&#45;&gt;Node15 -->
<g id="edge19" class="edge"><title>Node1&#45;&gt;Node15</title>
<path fill="none" stroke="midnightblue" d="M254.119,-401.272C367.034,-389.942 633.084,-363.248 744.523,-352.066"/>
<polygon fill="midnightblue" stroke="midnightblue" points="744.898,-355.546 754.498,-351.065 744.199,-348.581 744.898,-355.546"/>
</g>
<!-- Node3 -->
<g id="node3" class="node"><title>Node3</title>
<g id="a_node3"><a xlink:href="dji__mission__base_8hpp.html" target="_top" xlink:title="Mission&#45;Base abstract class for DJI OSDK library. ">
<polygon fill="white" stroke="black" points="164.013,-168.5 164.013,-187.5 274.013,-187.5 274.013,-168.5 164.013,-168.5"/>
<text text-anchor="middle" x="219.013" y="-175.5" font-family="Helvetica,sans-Serif" font-size="10.00">dji_mission_base.hpp</text>
</a>
</g>
</g>
<!-- Node2&#45;&gt;Node3 -->
<g id="edge2" class="edge"><title>Node2&#45;&gt;Node3</title>
<path fill="none" stroke="midnightblue" d="M91.9398,-224.444C117.232,-215.399 157.316,-201.064 185.693,-190.916"/>
<polygon fill="midnightblue" stroke="midnightblue" points="186.962,-194.179 195.199,-187.516 184.604,-187.588 186.962,-194.179"/>
</g>
<!-- Node11 -->
<g id="node11" class="node"><title>Node11</title>
<g id="a_node11"><a xlink:href="dji__telemetry_8hpp.html" target="_top" xlink:title="Enumeration of all telemetry data types, structures and maps. ">
<polygon fill="white" stroke="black" points="389.513,-168.5 389.513,-187.5 480.513,-187.5 480.513,-168.5 389.513,-168.5"/>
<text text-anchor="middle" x="435.013" y="-175.5" font-family="Helvetica,sans-Serif" font-size="10.00">dji_telemetry.hpp</text>
</a>
</g>
</g>
<!-- Node2&#45;&gt;Node11 -->
<g id="edge12" class="edge"><title>Node2&#45;&gt;Node11</title>
<path fill="none" stroke="midnightblue" d="M110.561,-225.515C113.758,-224.99 116.935,-224.479 120.013,-224 232.13,-206.541 262.993,-205.468 379.386,-188.059"/>
<polygon fill="midnightblue" stroke="midnightblue" points="380.04,-191.5 389.409,-186.551 378.999,-184.578 380.04,-191.5"/>
</g>
<!-- Node4 -->
<g id="node4" class="node"><title>Node4</title>
<g id="a_node4"><a xlink:href="dji__command_8hpp.html" target="_top" xlink:title="All DJI OSDK OpenProtocol Command IDs. ">
<polygon fill="white" stroke="black" points="452.513,-112.5 452.513,-131.5 545.513,-131.5 545.513,-112.5 452.513,-112.5"/>
<text text-anchor="middle" x="499.013" y="-119.5" font-family="Helvetica,sans-Serif" font-size="10.00">dji_command.hpp</text>
</a>
</g>
</g>
<!-- Node3&#45;&gt;Node4 -->
<g id="edge3" class="edge"><title>Node3&#45;&gt;Node4</title>
<path fill="none" stroke="midnightblue" d="M263.38,-168.444C312.635,-158.944 392.142,-143.611 444.985,-133.42"/>
<polygon fill="midnightblue" stroke="midnightblue" points="445.698,-136.847 454.854,-131.516 444.372,-129.974 445.698,-136.847"/>
</g>
<!-- Node7 -->
<g id="node7" class="node"><title>Node7</title>
<g id="a_node7"><a xlink:href="dji__type_8hpp.html" target="_top" xlink:title="Data type and Data Structure definitions for use throughout DJI OSDK. ">
<polygon fill="white" stroke="black" points="321.513,-112.5 321.513,-131.5 390.513,-131.5 390.513,-112.5 321.513,-112.5"/>
<text text-anchor="middle" x="356.013" y="-119.5" font-family="Helvetica,sans-Serif" font-size="10.00">dji_type.hpp</text>
</a>
</g>
</g>
<!-- Node3&#45;&gt;Node7 -->
<g id="edge7" class="edge"><title>Node3&#45;&gt;Node7</title>
<path fill="none" stroke="midnightblue" d="M240.721,-168.444C263.368,-159.517 299.086,-145.439 324.765,-135.317"/>
<polygon fill="midnightblue" stroke="midnightblue" points="326.387,-138.44 334.407,-131.516 323.82,-131.927 326.387,-138.44"/>
</g>
<!-- Node9 -->
<g id="node9" class="node"><title>Node9</title>
<g id="a_node9"><a xlink:href="dji__vehicle__callback_8hpp.html" target="_top" xlink:title="Type definition for new Vehicle&#45;style callbacks. ">
<polygon fill="white" stroke="black" points="1247.01,-112.5 1247.01,-131.5 1369.01,-131.5 1369.01,-112.5 1247.01,-112.5"/>
<text text-anchor="middle" x="1308.01" y="-119.5" font-family="Helvetica,sans-Serif" font-size="10.00">dji_vehicle_callback.hpp</text>
</a>
</g>
</g>
<!-- Node3&#45;&gt;Node9 -->
<g id="edge10" class="edge"><title>Node3&#45;&gt;Node9</title>
<path fill="none" stroke="midnightblue" d="M274.132,-168.907C277.133,-168.573 280.108,-168.267 283.013,-168 468.687,-150.909 1036.21,-131.676 1236.83,-125.235"/>
<polygon fill="midnightblue" stroke="midnightblue" points="1237.08,-128.729 1246.96,-124.911 1236.85,-121.732 1237.08,-128.729"/>
</g>
<!-- Node5 -->
<g id="node5" class="node"><title>Node5</title>
<g id="a_node5"><a xlink:href="dji__error_8hpp.html" target="_top" xlink:title="All DJI OSDK OpenProtocol ACK Error Codes. ">
<polygon fill="white" stroke="black" points="440.013,-56.5 440.013,-75.5 510.013,-75.5 510.013,-56.5 440.013,-56.5"/>
<text text-anchor="middle" x="475.013" y="-63.5" font-family="Helvetica,sans-Serif" font-size="10.00">dji_error.hpp</text>
</a>
</g>
</g>
<!-- Node4&#45;&gt;Node5 -->
<g id="edge4" class="edge"><title>Node4&#45;&gt;Node5</title>
<path fill="none" stroke="midnightblue" d="M495.05,-112.083C491.8,-104.77 487.094,-94.1814 483.059,-85.1034"/>
<polygon fill="midnightblue" stroke="midnightblue" points="486.163,-83.4677 478.903,-75.7511 479.766,-86.3107 486.163,-83.4677"/>
</g>
<!-- Node6 -->
<g id="node6" class="node"><title>Node6</title>
<polygon fill="white" stroke="#bfbfbf" points="450.513,-0.5 450.513,-19.5 499.513,-19.5 499.513,-0.5 450.513,-0.5"/>
<text text-anchor="middle" x="475.013" y="-7.5" font-family="Helvetica,sans-Serif" font-size="10.00">stdint.h</text>
</g>
<!-- Node4&#45;&gt;Node6 -->
<g id="edge6" class="edge"><title>Node4&#45;&gt;Node6</title>
<path fill="none" stroke="midnightblue" d="M505.376,-112.419C513.889,-99.82 527.036,-75.6799 519.013,-56 514.213,-44.2251 504.685,-33.8564 495.719,-26.0486"/>
<polygon fill="midnightblue" stroke="midnightblue" points="497.768,-23.2048 487.794,-19.6314 493.363,-28.6448 497.768,-23.2048"/>
</g>
<!-- Node5&#45;&gt;Node6 -->
<g id="edge5" class="edge"><title>Node5&#45;&gt;Node6</title>
<path fill="none" stroke="midnightblue" d="M475.013,-56.083C475.013,-49.0059 475.013,-38.8611 475.013,-29.9865"/>
<polygon fill="midnightblue" stroke="midnightblue" points="478.514,-29.751 475.013,-19.7511 471.514,-29.7511 478.514,-29.751"/>
</g>
<!-- Node7&#45;&gt;Node6 -->
<g id="edge9" class="edge"><title>Node7&#45;&gt;Node6</title>
<path fill="none" stroke="midnightblue" d="M355.347,-112.364C354.777,-98.8155 355.643,-72.4203 369.013,-56 386.717,-34.2573 416.837,-22.8319 440.455,-16.9449"/>
<polygon fill="midnightblue" stroke="midnightblue" points="441.472,-20.3031 450.452,-14.6798 439.925,-13.4762 441.472,-20.3031"/>
</g>
<!-- Node8 -->
<g id="node8" class="node"><title>Node8</title>
<polygon fill="white" stroke="#bfbfbf" points="378.513,-56.5 378.513,-75.5 421.513,-75.5 421.513,-56.5 378.513,-56.5"/>
<text text-anchor="middle" x="400.013" y="-63.5" font-family="Helvetica,sans-Serif" font-size="10.00">cstdio</text>
</g>
<!-- Node7&#45;&gt;Node8 -->
<g id="edge8" class="edge"><title>Node7&#45;&gt;Node8</title>
<path fill="none" stroke="midnightblue" d="M363.279,-112.083C369.558,-104.377 378.801,-93.0333 386.444,-83.6531"/>
<polygon fill="midnightblue" stroke="midnightblue" points="389.279,-85.7143 392.883,-75.7511 383.853,-81.2926 389.279,-85.7143"/>
</g>
<!-- Node10 -->
<g id="node10" class="node"><title>Node10</title>
<polygon fill="white" stroke="#bfbfbf" points="1079.51,-56.5 1079.51,-75.5 1190.51,-75.5 1190.51,-56.5 1079.51,-56.5"/>
<text text-anchor="middle" x="1135.01" y="-63.5" font-family="Helvetica,sans-Serif" font-size="10.00">dji_open_protocol.hpp</text>
</g>
<!-- Node9&#45;&gt;Node10 -->
<g id="edge11" class="edge"><title>Node9&#45;&gt;Node10</title>
<path fill="none" stroke="midnightblue" d="M1280.6,-112.444C1251.24,-103.28 1204.49,-88.6876 1171.92,-78.5192"/>
<polygon fill="midnightblue" stroke="midnightblue" points="1172.89,-75.1551 1162.3,-75.5164 1170.8,-81.8371 1172.89,-75.1551"/>
</g>
<!-- Node11&#45;&gt;Node7 -->
<g id="edge13" class="edge"><title>Node11&#45;&gt;Node7</title>
<path fill="none" stroke="midnightblue" d="M422.321,-168.324C410.112,-159.979 391.435,-147.212 377.01,-137.352"/>
<polygon fill="midnightblue" stroke="midnightblue" points="378.905,-134.408 368.675,-131.655 374.955,-140.187 378.905,-134.408"/>
</g>
<!-- Node12&#45;&gt;Node2 -->
<g id="edge15" class="edge"><title>Node12&#45;&gt;Node2</title>
<path fill="none" stroke="midnightblue" d="M180.781,-280.444C158.63,-271.517 123.695,-257.439 98.5774,-247.317"/>
<polygon fill="midnightblue" stroke="midnightblue" points="99.7302,-244.008 89.1468,-243.516 97.1138,-250.501 99.7302,-244.008"/>
</g>
<!-- Node13 -->
<g id="node13" class="node"><title>Node13</title>
<g id="a_node13"><a xlink:href="dji__waypoint_8hpp.html" target="_top" xlink:title="Implementation of GPS Waypoint Missions for DJI OSDK. ">
<polygon fill="white" stroke="black" points="190.513,-224.5 190.513,-243.5 279.513,-243.5 279.513,-224.5 190.513,-224.5"/>
<text text-anchor="middle" x="235.013" y="-231.5" font-family="Helvetica,sans-Serif" font-size="10.00">dji_waypoint.hpp</text>
</a>
</g>
</g>
<!-- Node12&#45;&gt;Node13 -->
<g id="edge16" class="edge"><title>Node12&#45;&gt;Node13</title>
<path fill="none" stroke="midnightblue" d="M207.463,-280.083C212.028,-272.613 218.682,-261.724 224.307,-252.52"/>
<polygon fill="midnightblue" stroke="midnightblue" points="227.438,-254.109 229.666,-243.751 221.465,-250.459 227.438,-254.109"/>
</g>
<!-- Node14 -->
<g id="node14" class="node"><title>Node14</title>
<polygon fill="white" stroke="#bfbfbf" points="129.013,-224.5 129.013,-243.5 173.013,-243.5 173.013,-224.5 129.013,-224.5"/>
<text text-anchor="middle" x="151.013" y="-231.5" font-family="Helvetica,sans-Serif" font-size="10.00">vector</text>
</g>
<!-- Node12&#45;&gt;Node14 -->
<g id="edge18" class="edge"><title>Node12&#45;&gt;Node14</title>
<path fill="none" stroke="midnightblue" d="M193.592,-280.083C186.165,-272.22 175.162,-260.569 166.201,-251.081"/>
<polygon fill="midnightblue" stroke="midnightblue" points="168.689,-248.618 159.278,-243.751 163.6,-253.424 168.689,-248.618"/>
</g>
<!-- Node13&#45;&gt;Node3 -->
<g id="edge17" class="edge"><title>Node13&#45;&gt;Node3</title>
<path fill="none" stroke="midnightblue" d="M232.371,-224.083C230.228,-216.849 227.135,-206.409 224.464,-197.397"/>
<polygon fill="midnightblue" stroke="midnightblue" points="227.803,-196.345 221.606,-187.751 221.092,-198.333 227.803,-196.345"/>
</g>
<!-- Node15&#45;&gt;Node4 -->
<g id="edge28" class="edge"><title>Node15&#45;&gt;Node4</title>
<path fill="none" stroke="midnightblue" d="M754.371,-343.47C711.98,-340.207 645.001,-330.221 596.013,-300 537.635,-263.986 511.82,-179.559 502.902,-141.813"/>
<polygon fill="midnightblue" stroke="midnightblue" points="506.242,-140.708 500.66,-131.703 499.408,-142.224 506.242,-140.708"/>
</g>
<!-- Node15&#45;&gt;Node7 -->
<g id="edge67" class="edge"><title>Node15&#45;&gt;Node7</title>
<path fill="none" stroke="midnightblue" d="M754.156,-344.325C628.305,-341.917 247.886,-332.105 129.013,-300 74.9011,-285.386 45.9898,-291.362 16.0134,-244 -2.05259,-215.456 -7.25583,-193.401 15.0134,-168 34.2584,-146.048 223.075,-131.376 311.172,-125.67"/>
<polygon fill="midnightblue" stroke="midnightblue" points="311.641,-129.148 321.398,-125.019 311.196,-122.162 311.641,-129.148"/>
</g>
<!-- Node15&#45;&gt;Node9 -->
<g id="edge68" class="edge"><title>Node15&#45;&gt;Node9</title>
<path fill="none" stroke="midnightblue" d="M835.708,-345.3C970.896,-345.877 1398.81,-344.174 1440.01,-300 1477.75,-259.543 1412.66,-294.181 1363.01,-244 1334.17,-214.85 1318.87,-167.865 1312.21,-141.852"/>
<polygon fill="midnightblue" stroke="midnightblue" points="1315.53,-140.716 1309.8,-131.807 1308.73,-142.347 1315.53,-140.716"/>
</g>
<!-- Node15&#45;&gt;Node10 -->
<g id="edge59" class="edge"><title>Node15&#45;&gt;Node10</title>
<path fill="none" stroke="midnightblue" d="M835.612,-344.931C1004.27,-344.387 1644.56,-339.703 1725.01,-300 1758.95,-283.252 1780.01,-272.843 1780.01,-235 1780.01,-235 1780.01,-235 1780.01,-177 1780.01,-143.759 1771.11,-129.758 1743.01,-112 1698.04,-83.5791 1348.71,-72.0441 1200.81,-68.4015"/>
<polygon fill="midnightblue" stroke="midnightblue" points="1200.6,-64.8955 1190.52,-68.1528 1200.43,-71.8934 1200.6,-64.8955"/>
</g>
<!-- Node15&#45;&gt;Node12 -->
<g id="edge53" class="edge"><title>Node15&#45;&gt;Node12</title>
<path fill="none" stroke="midnightblue" d="M754.416,-341.464C669.129,-334.01 465.083,-316.05 294.013,-300 288.179,-299.453 282.137,-298.878 276.066,-298.296"/>
<polygon fill="midnightblue" stroke="midnightblue" points="276.141,-294.787 265.851,-297.311 275.469,-301.755 276.141,-294.787"/>
</g>
<!-- Node16 -->
<g id="node16" class="node"><title>Node16</title>
<polygon fill="white" stroke="#bfbfbf" points="953.013,-112.5 953.013,-131.5 999.013,-131.5 999.013,-112.5 953.013,-112.5"/>
<text text-anchor="middle" x="976.013" y="-119.5" font-family="Helvetica,sans-Serif" font-size="10.00">cstdint</text>
</g>
<!-- Node15&#45;&gt;Node16 -->
<g id="edge20" class="edge"><title>Node15&#45;&gt;Node16</title>
<path fill="none" stroke="midnightblue" d="M792.741,-336.12C789.856,-322.711 786.525,-297.051 798.013,-280 852.684,-198.856 945.229,-270.383 998.013,-188 1007.61,-173.024 998.53,-153.408 989.295,-139.658"/>
<polygon fill="midnightblue" stroke="midnightblue" points="992.12,-137.592 983.398,-131.577 986.465,-141.718 992.12,-137.592"/>
</g>
<!-- Node17 -->
<g id="node17" class="node"><title>Node17</title>
<g id="a_node17"><a xlink:href="dji__broadcast_8hpp.html" target="_top" xlink:title="Broadcast Telemetry API for DJI onboardSDK library. ">
<polygon fill="white" stroke="black" points="559.513,-224.5 559.513,-243.5 652.513,-243.5 652.513,-224.5 559.513,-224.5"/>
<text text-anchor="middle" x="606.013" y="-231.5" font-family="Helvetica,sans-Serif" font-size="10.00">dji_broadcast.hpp</text>
</a>
</g>
</g>
<!-- Node15&#45;&gt;Node17 -->
<g id="edge21" class="edge"><title>Node15&#45;&gt;Node17</title>
<path fill="none" stroke="midnightblue" d="M754.267,-341.02C704.642,-335.24 625.168,-322.653 607.013,-300 596.766,-287.214 597.82,-268.024 600.653,-253.806"/>
<polygon fill="midnightblue" stroke="midnightblue" points="604.152,-254.232 603.124,-243.687 597.352,-252.571 604.152,-254.232"/>
</g>
<!-- Node18 -->
<g id="node18" class="node"><title>Node18</title>
<g id="a_node18"><a xlink:href="dji__camera_8hpp.html" target="_top" xlink:title="Camera/Gimbal API for DJI onboardSDK library. ">
<polygon fill="white" stroke="black" points="24.5134,-168.5 24.5134,-187.5 107.513,-187.5 107.513,-168.5 24.5134,-168.5"/>
<text text-anchor="middle" x="66.0134" y="-175.5" font-family="Helvetica,sans-Serif" font-size="10.00">dji_camera.hpp</text>
</a>
</g>
</g>
<!-- Node15&#45;&gt;Node18 -->
<g id="edge24" class="edge"><title>Node15&#45;&gt;Node18</title>
<path fill="none" stroke="midnightblue" d="M754.176,-343.622C662.903,-340.057 445.124,-328.721 378.013,-300 329.882,-279.401 335.141,-246.802 288.013,-224 258.604,-209.771 173.848,-195.055 117.982,-186.479"/>
<polygon fill="midnightblue" stroke="midnightblue" points="118.318,-182.99 107.906,-184.951 117.268,-189.911 118.318,-182.99"/>
</g>
<!-- Node19 -->
<g id="node19" class="node"><title>Node19</title>
<polygon fill="white" stroke="#bfbfbf" points="823.013,-280.5 823.013,-299.5 935.013,-299.5 935.013,-280.5 823.013,-280.5"/>
<text text-anchor="middle" x="879.013" y="-287.5" font-family="Helvetica,sans-Serif" font-size="10.00">dji_circular_buffer.hpp</text>
</g>
<!-- Node15&#45;&gt;Node19 -->
<g id="edge27" class="edge"><title>Node15&#45;&gt;Node19</title>
<path fill="none" stroke="midnightblue" d="M808.509,-336.324C821.613,-327.9 841.725,-314.971 857.12,-305.074"/>
<polygon fill="midnightblue" stroke="midnightblue" points="859.032,-308.006 865.551,-299.655 855.246,-302.118 859.032,-308.006"/>
</g>
<!-- Node20 -->
<g id="node20" class="node"><title>Node20</title>
<g id="a_node20"><a xlink:href="dji__control_8hpp.html" target="_top" xlink:title="Control API for DJI OSDK library. ">
<polygon fill="white" stroke="black" points="649.013,-280.5 649.013,-299.5 729.013,-299.5 729.013,-280.5 649.013,-280.5"/>
<text text-anchor="middle" x="689.013" y="-287.5" font-family="Helvetica,sans-Serif" font-size="10.00">dji_control.hpp</text>
</a>
</g>
</g>
<!-- Node15&#45;&gt;Node20 -->
<g id="edge29" class="edge"><title>Node15&#45;&gt;Node20</title>
<path fill="none" stroke="midnightblue" d="M777.983,-336.324C760.984,-327.664 734.637,-314.242 715.021,-304.249"/>
<polygon fill="midnightblue" stroke="midnightblue" points="716.501,-301.075 706.002,-299.655 713.324,-307.312 716.501,-301.075"/>
</g>
<!-- Node23 -->
<g id="node23" class="node"><title>Node23</title>
<g id="a_node23"><a xlink:href="dji__version_8hpp.html" target="_top" xlink:title="Drone/SDK Version definition for DJI onboardSDK library. ">
<polygon fill="white" stroke="black" points="907.013,-168.5 907.013,-187.5 989.013,-187.5 989.013,-168.5 907.013,-168.5"/>
<text text-anchor="middle" x="948.013" y="-175.5" font-family="Helvetica,sans-Serif" font-size="10.00">dji_version.hpp</text>
</a>
</g>
</g>
<!-- Node15&#45;&gt;Node23 -->
<g id="edge69" class="edge"><title>Node15&#45;&gt;Node23</title>
<path fill="none" stroke="midnightblue" d="M754.108,-342.242C698.054,-336.882 607.775,-321.651 640.013,-280 679.074,-229.534 718.245,-263.486 779.013,-244 828.658,-228.081 884.906,-205.508 918.367,-191.584"/>
<polygon fill="midnightblue" stroke="midnightblue" points="920.114,-194.647 927.988,-187.557 917.412,-188.19 920.114,-194.647"/>
</g>
<!-- Node25 -->
<g id="node25" class="node"><title>Node25</title>
<g id="a_node25"><a xlink:href="dji__gimbal_8hpp.html" target="_top" xlink:title="Gimbal API for OSDK library. ">
<polygon fill="white" stroke="black" points="292.513,-168.5 292.513,-187.5 371.513,-187.5 371.513,-168.5 292.513,-168.5"/>
<text text-anchor="middle" x="332.013" y="-175.5" font-family="Helvetica,sans-Serif" font-size="10.00">dji_gimbal.hpp</text>
</a>
</g>
</g>
<!-- Node15&#45;&gt;Node25 -->
<g id="edge42" class="edge"><title>Node15&#45;&gt;Node25</title>
<path fill="none" stroke="midnightblue" d="M754.315,-344.798C666.214,-343.656 461.166,-336.981 404.013,-300 366.675,-275.84 346.043,-224.907 337.23,-197.458"/>
<polygon fill="midnightblue" stroke="midnightblue" points="340.489,-196.142 334.248,-187.581 333.788,-198.166 340.489,-196.142"/>
</g>
<!-- Node26 -->
<g id="node26" class="node"><title>Node26</title>
<polygon fill="white" stroke="#bfbfbf" points="953.013,-280.5 953.013,-299.5 1051.01,-299.5 1051.01,-280.5 953.013,-280.5"/>
<text text-anchor="middle" x="1002.01" y="-287.5" font-family="Helvetica,sans-Serif" font-size="10.00">dji_hard_driver.hpp</text>
</g>
<!-- Node15&#45;&gt;Node26 -->
<g id="edge45" class="edge"><title>Node15&#45;&gt;Node26</title>
<path fill="none" stroke="midnightblue" d="M827.813,-336.444C863.394,-327.162 920.328,-312.309 959.36,-302.127"/>
<polygon fill="midnightblue" stroke="midnightblue" points="960.574,-305.427 969.367,-299.516 958.807,-298.654 960.574,-305.427"/>
</g>
<!-- Node27 -->
<g id="node27" class="node"><title>Node27</title>
<g id="a_node27"><a xlink:href="dji__hardware__sync_8hpp.html" target="_top" xlink:title="Hardware Sync API for DJI OSDK. ">
<polygon fill="white" stroke="black" points="1636.01,-168.5 1636.01,-187.5 1752.01,-187.5 1752.01,-168.5 1636.01,-168.5"/>
<text text-anchor="middle" x="1694.01" y="-175.5" font-family="Helvetica,sans-Serif" font-size="10.00">dji_hardware_sync.hpp</text>
</a>
</g>
</g>
<!-- Node15&#45;&gt;Node27 -->
<g id="edge46" class="edge"><title>Node15&#45;&gt;Node27</title>
<path fill="none" stroke="midnightblue" d="M835.69,-344.231C1007.41,-340.827 1665.85,-326.112 1701.01,-300 1729.06,-279.178 1730.34,-257.66 1721.01,-224 1718.22,-213.921 1712.5,-203.832 1707.05,-195.769"/>
<polygon fill="midnightblue" stroke="midnightblue" points="1709.86,-193.688 1701.16,-187.636 1704.19,-197.79 1709.86,-193.688"/>
</g>
<!-- Node30 -->
<g id="node30" class="node"><title>Node30</title>
<g id="a_node30"><a xlink:href="dji__mfio_8hpp.html" target="_top" xlink:title="MFIO API for DJI OSDK library. ">
<polygon fill="white" stroke="black" points="1372.51,-224.5 1372.51,-243.5 1441.51,-243.5 1441.51,-224.5 1372.51,-224.5"/>
<text text-anchor="middle" x="1407.01" y="-231.5" font-family="Helvetica,sans-Serif" font-size="10.00">dji_mfio.hpp</text>
</a>
</g>
</g>
<!-- Node15&#45;&gt;Node30 -->
<g id="edge51" class="edge"><title>Node15&#45;&gt;Node30</title>
<path fill="none" stroke="midnightblue" d="M835.825,-345.45C975.685,-346.571 1429.44,-346.566 1473.01,-300 1490.36,-281.466 1461.23,-261.078 1436.34,-248.167"/>
<polygon fill="midnightblue" stroke="midnightblue" points="1437.62,-244.9 1427.11,-243.604 1434.52,-251.175 1437.62,-244.9"/>
</g>
<!-- Node31 -->
<g id="node31" class="node"><title>Node31</title>
<g id="a_node31"><a xlink:href="dji__mobile__communication_8hpp.html" target="_top" xlink:title="Implementation of DJI Mobile&#45;Onboard SDK Communication (MOC) ">
<polygon fill="white" stroke="black" points="1525.01,-280.5 1525.01,-299.5 1675.01,-299.5 1675.01,-280.5 1525.01,-280.5"/>
<text text-anchor="middle" x="1600.01" y="-287.5" font-family="Helvetica,sans-Serif" font-size="10.00">dji_mobile_communication.hpp</text>
</a>
</g>
</g>
<!-- Node15&#45;&gt;Node31 -->
<g id="edge54" class="edge"><title>Node15&#45;&gt;Node31</title>
<path fill="none" stroke="midnightblue" d="M835.821,-342.98C945.256,-337.444 1254.37,-321.034 1511.01,-300 1512.14,-299.908 1513.27,-299.814 1514.4,-299.718"/>
<polygon fill="midnightblue" stroke="midnightblue" points="1515.11,-303.17 1524.77,-298.812 1514.5,-296.196 1515.11,-303.17"/>
</g>
<!-- Node33 -->
<g id="node33" class="node"><title>Node33</title>
<g id="a_node33"><a xlink:href="dji__mobile__device_8hpp.html" target="_top" xlink:title="Implementation of DJI Mobile Device Abstraction. ">
<polygon fill="white" stroke="black" points="1599.51,-224.5 1599.51,-243.5 1712.51,-243.5 1712.51,-224.5 1599.51,-224.5"/>
<text text-anchor="middle" x="1656.01" y="-231.5" font-family="Helvetica,sans-Serif" font-size="10.00">dji_mobile_device.hpp</text>
</a>
</g>
</g>
<!-- Node15&#45;&gt;Node33 -->
<g id="edge57" class="edge"><title>Node15&#45;&gt;Node33</title>
<path fill="none" stroke="midnightblue" d="M835.751,-344.482C1006.17,-342.121 1654.43,-331.116 1684.01,-300 1697.04,-286.303 1684.3,-265.6 1672.06,-251.255"/>
<polygon fill="midnightblue" stroke="midnightblue" points="1674.44,-248.667 1665.11,-243.644 1669.27,-253.388 1674.44,-248.667"/>
</g>
<!-- Node34 -->
<g id="node34" class="node"><title>Node34</title>
<polygon fill="white" stroke="#bfbfbf" points="1069.01,-280.5 1069.01,-299.5 1197.01,-299.5 1197.01,-280.5 1069.01,-280.5"/>
<text text-anchor="middle" x="1133.01" y="-287.5" font-family="Helvetica,sans-Serif" font-size="10.00">dji_platform_manager.hpp</text>
</g>
<!-- Node15&#45;&gt;Node34 -->
<g id="edge60" class="edge"><title>Node15&#45;&gt;Node34</title>
<path fill="none" stroke="midnightblue" d="M835.784,-338.486C893.819,-329.214 1000.8,-312.123 1069.34,-301.173"/>
<polygon fill="midnightblue" stroke="midnightblue" points="1070.26,-304.571 1079.58,-299.537 1069.15,-297.659 1070.26,-304.571"/>
</g>
<!-- Node35 -->
<g id="node35" class="node"><title>Node35</title>
<g id="a_node35"><a xlink:href="dji__status_8hpp.html" target="_top" xlink:title="Status information for DJI Vehicle. ">
<polygon fill="white" stroke="black" points="1215.51,-280.5 1215.51,-299.5 1292.51,-299.5 1292.51,-280.5 1215.51,-280.5"/>
<text text-anchor="middle" x="1254.01" y="-287.5" font-family="Helvetica,sans-Serif" font-size="10.00">dji_status.hpp</text>
</a>
</g>
</g>
<!-- Node15&#45;&gt;Node35 -->
<g id="edge61" class="edge"><title>Node15&#45;&gt;Node35</title>
<path fill="none" stroke="midnightblue" d="M835.689,-341.583C907.898,-335.293 1063.41,-320.733 1205.11,-300.026"/>
<polygon fill="midnightblue" stroke="midnightblue" points="1205.9,-303.447 1215.28,-298.524 1204.88,-296.522 1205.9,-303.447"/>
</g>
<!-- Node36 -->
<g id="node36" class="node"><title>Node36</title>
<g id="a_node36"><a xlink:href="dji__subscription_8hpp.html" target="_top" xlink:title="Telemetry Subscription API for DJI OSDK library. ">
<polygon fill="white" stroke="black" points="1083.51,-224.5 1083.51,-243.5 1186.51,-243.5 1186.51,-224.5 1083.51,-224.5"/>
<text text-anchor="middle" x="1135.01" y="-231.5" font-family="Helvetica,sans-Serif" font-size="10.00">dji_subscription.hpp</text>
</a>
</g>
</g>
<!-- Node15&#45;&gt;Node36 -->
<g id="edge62" class="edge"><title>Node15&#45;&gt;Node36</title>
<path fill="none" stroke="midnightblue" d="M794.788,-336.286C794.936,-322.134 797.47,-294.301 814.013,-280 815.236,-278.943 980.275,-256.193 1073.2,-243.455"/>
<polygon fill="midnightblue" stroke="midnightblue" points="1073.9,-246.892 1083.33,-242.066 1072.95,-239.956 1073.9,-246.892"/>
</g>
<!-- Node37 -->
<g id="node37" class="node"><title>Node37</title>
<polygon fill="white" stroke="#bfbfbf" points="1311.01,-280.5 1311.01,-299.5 1431.01,-299.5 1431.01,-280.5 1311.01,-280.5"/>
<text text-anchor="middle" x="1371.01" y="-287.5" font-family="Helvetica,sans-Serif" font-size="10.00">dji_thread_manager.hpp</text>
</g>
<!-- Node15&#45;&gt;Node37 -->
<g id="edge66" class="edge"><title>Node15&#45;&gt;Node37</title>
<path fill="none" stroke="midnightblue" d="M835.732,-341.923C920.16,-335.426 1120.67,-319.387 1300.52,-300.009"/>
<polygon fill="midnightblue" stroke="midnightblue" points="1301.14,-303.463 1310.7,-298.907 1300.38,-296.504 1301.14,-303.463"/>
</g>
<!-- Node38 -->
<g id="node38" class="node"><title>Node38</title>
<g id="a_node38"><a xlink:href="dji__virtual__rc_8hpp.html" target="_top" xlink:title="Virtual Radio Control API for DJI onboardSDK library. ">
<polygon fill="white" stroke="black" points="413.013,-280.5 413.013,-299.5 503.013,-299.5 503.013,-280.5 413.013,-280.5"/>
<text text-anchor="middle" x="458.013" y="-287.5" font-family="Helvetica,sans-Serif" font-size="10.00">dji_virtual_rc.hpp</text>
</a>
</g>
</g>
<!-- Node15&#45;&gt;Node38 -->
<g id="edge70" class="edge"><title>Node15&#45;&gt;Node38</title>
<path fill="none" stroke="midnightblue" d="M754.363,-338.486C694.085,-328.828 580.853,-310.683 513.152,-299.835"/>
<polygon fill="midnightblue" stroke="midnightblue" points="513.527,-296.351 503.099,-298.224 512.42,-303.263 513.527,-296.351"/>
</g>
<!-- Node17&#45;&gt;Node9 -->
<g id="edge23" class="edge"><title>Node17&#45;&gt;Node9</title>
<path fill="none" stroke="midnightblue" d="M639.063,-224.398C692.944,-210.655 803.225,-183.703 898.013,-168 1016.06,-148.443 1154.69,-135.244 1236.74,-128.436"/>
<polygon fill="midnightblue" stroke="midnightblue" points="1237.27,-131.904 1246.95,-127.597 1236.69,-124.927 1237.27,-131.904"/>
</g>
<!-- Node17&#45;&gt;Node11 -->
<g id="edge22" class="edge"><title>Node17&#45;&gt;Node11</title>
<path fill="none" stroke="midnightblue" d="M578.918,-224.444C550.026,-215.32 504.089,-200.813 471.908,-190.651"/>
<polygon fill="midnightblue" stroke="midnightblue" points="472.572,-187.19 461.982,-187.516 470.464,-193.865 472.572,-187.19"/>
</g>
<!-- Node18&#45;&gt;Node4 -->
<g id="edge25" class="edge"><title>Node18&#45;&gt;Node4</title>
<path fill="none" stroke="midnightblue" d="M107.531,-171.822C185.514,-162.097 353.965,-141.089 442.314,-130.071"/>
<polygon fill="midnightblue" stroke="midnightblue" points="442.931,-133.521 452.421,-128.811 442.065,-126.575 442.931,-133.521"/>
</g>
<!-- Node18&#45;&gt;Node7 -->
<g id="edge26" class="edge"><title>Node18&#45;&gt;Node7</title>
<path fill="none" stroke="midnightblue" d="M107.563,-169.263C161.674,-159.187 255.889,-141.644 311.445,-131.299"/>
<polygon fill="midnightblue" stroke="midnightblue" points="312.16,-134.726 321.35,-129.455 310.878,-127.844 312.16,-134.726"/>
</g>
<!-- Node20&#45;&gt;Node7 -->
<g id="edge40" class="edge"><title>Node20&#45;&gt;Node7</title>
<path fill="none" stroke="midnightblue" d="M704.595,-280.451C739.653,-260.186 818.963,-207.937 783.013,-168 782.615,-167.557 509.978,-139.065 400.616,-127.652"/>
<polygon fill="midnightblue" stroke="midnightblue" points="400.866,-124.159 390.557,-126.603 400.14,-131.122 400.866,-124.159"/>
</g>
<!-- Node20&#45;&gt;Node9 -->
<g id="edge41" class="edge"><title>Node20&#45;&gt;Node9</title>
<path fill="none" stroke="midnightblue" d="M729.034,-285.824C846.796,-276.429 1184.55,-249.108 1195.01,-244 1242.84,-220.652 1280.6,-167.775 1297.83,-140.301"/>
<polygon fill="midnightblue" stroke="midnightblue" points="1300.84,-142.094 1303.06,-131.733 1294.86,-138.451 1300.84,-142.094"/>
</g>
<!-- Node20&#45;&gt;Node10 -->
<g id="edge39" class="edge"><title>Node20&#45;&gt;Node10</title>
<path fill="none" stroke="midnightblue" d="M729.195,-281.348C790.291,-268.539 908.856,-239.011 998.013,-188 1048.74,-158.975 1097.39,-109.083 1120.69,-83.3736"/>
<polygon fill="midnightblue" stroke="midnightblue" points="1123.54,-85.4378 1127.59,-75.6469 1118.32,-80.7761 1123.54,-85.4378"/>
</g>
<!-- Node21 -->
<g id="node21" class="node"><title>Node21</title>
<g id="a_node21"><a xlink:href="dji__ack_8hpp.html" target="_top" xlink:title="All DJI OSDK ACK parsing. ">
<polygon fill="white" stroke="black" points="671.013,-224.5 671.013,-243.5 737.013,-243.5 737.013,-224.5 671.013,-224.5"/>
<text text-anchor="middle" x="704.013" y="-231.5" font-family="Helvetica,sans-Serif" font-size="10.00">dji_ack.hpp</text>
</a>
</g>
</g>
<!-- Node20&#45;&gt;Node21 -->
<g id="edge30" class="edge"><title>Node20&#45;&gt;Node21</title>
<path fill="none" stroke="midnightblue" d="M691.49,-280.083C693.5,-272.849 696.4,-262.409 698.903,-253.397"/>
<polygon fill="midnightblue" stroke="midnightblue" points="702.278,-254.323 701.583,-243.751 695.534,-252.449 702.278,-254.323"/>
</g>
<!-- Node21&#45;&gt;Node4 -->
<g id="edge31" class="edge"><title>Node21&#45;&gt;Node4</title>
<path fill="none" stroke="midnightblue" d="M705.159,-224.092C706.413,-210.17 706.593,-183.274 692.013,-168 673.456,-148.558 605.664,-136.086 555.645,-129.318"/>
<polygon fill="midnightblue" stroke="midnightblue" points="555.952,-125.828 545.582,-128 555.043,-132.769 555.952,-125.828"/>
</g>
<!-- Node21&#45;&gt;Node7 -->
<g id="edge34" class="edge"><title>Node21&#45;&gt;Node7</title>
<path fill="none" stroke="midnightblue" d="M676.996,-224.46C615.199,-204.926 463.459,-156.963 393.034,-134.702"/>
<polygon fill="midnightblue" stroke="midnightblue" points="393.843,-131.287 383.254,-131.61 391.734,-137.962 393.843,-131.287"/>
</g>
<!-- Node22 -->
<g id="node22" class="node"><title>Node22</title>
<g id="a_node22"><a xlink:href="dji__mission__type_8hpp.html" target="_top" xlink:title="Mission related data struct for DJI OSDK library. ">
<polygon fill="white" stroke="black" points="575.013,-168.5 575.013,-187.5 683.013,-187.5 683.013,-168.5 575.013,-168.5"/>
<text text-anchor="middle" x="629.013" y="-175.5" font-family="Helvetica,sans-Serif" font-size="10.00">dji_mission_type.hpp</text>
</a>
</g>
</g>
<!-- Node21&#45;&gt;Node22 -->
<g id="edge32" class="edge"><title>Node21&#45;&gt;Node22</title>
<path fill="none" stroke="midnightblue" d="M691.963,-224.324C680.55,-216.107 663.182,-203.602 649.579,-193.807"/>
<polygon fill="midnightblue" stroke="midnightblue" points="651.443,-190.837 641.283,-187.834 647.353,-196.517 651.443,-190.837"/>
</g>
<!-- Node21&#45;&gt;Node23 -->
<g id="edge35" class="edge"><title>Node21&#45;&gt;Node23</title>
<path fill="none" stroke="midnightblue" d="M737.174,-225.661C779.021,-216.4 851.326,-200.398 899.414,-189.756"/>
<polygon fill="midnightblue" stroke="midnightblue" points="900.28,-193.149 909.288,-187.57 898.768,-186.314 900.28,-193.149"/>
</g>
<!-- Node24 -->
<g id="node24" class="node"><title>Node24</title>
<polygon fill="white" stroke="#bfbfbf" points="739.513,-168.5 739.513,-187.5 774.513,-187.5 774.513,-168.5 739.513,-168.5"/>
<text text-anchor="middle" x="757.013" y="-175.5" font-family="Helvetica,sans-Serif" font-size="10.00">map</text>
</g>
<!-- Node21&#45;&gt;Node24 -->
<g id="edge38" class="edge"><title>Node21&#45;&gt;Node24</title>
<path fill="none" stroke="midnightblue" d="M712.765,-224.083C720.483,-216.22 731.918,-204.569 741.23,-195.081"/>
<polygon fill="midnightblue" stroke="midnightblue" points="743.918,-197.34 748.424,-187.751 738.922,-192.436 743.918,-197.34"/>
</g>
<!-- Node22&#45;&gt;Node7 -->
<g id="edge33" class="edge"><title>Node22&#45;&gt;Node7</title>
<path fill="none" stroke="midnightblue" d="M585.756,-168.444C535.259,-158.455 452.152,-142.016 400.947,-131.888"/>
<polygon fill="midnightblue" stroke="midnightblue" points="401.328,-128.396 390.839,-129.889 399.97,-135.263 401.328,-128.396"/>
</g>
<!-- Node23&#45;&gt;Node4 -->
<g id="edge36" class="edge"><title>Node23&#45;&gt;Node4</title>
<path fill="none" stroke="midnightblue" d="M906.977,-172.065C826.433,-162.378 647.524,-140.861 555.737,-129.822"/>
<polygon fill="midnightblue" stroke="midnightblue" points="556.138,-126.345 545.792,-128.626 555.303,-133.295 556.138,-126.345"/>
</g>
<!-- Node23&#45;&gt;Node16 -->
<g id="edge37" class="edge"><title>Node23&#45;&gt;Node16</title>
<path fill="none" stroke="midnightblue" d="M952.637,-168.083C956.47,-160.691 962.038,-149.953 966.778,-140.811"/>
<polygon fill="midnightblue" stroke="midnightblue" points="969.98,-142.24 971.476,-131.751 963.765,-139.018 969.98,-142.24"/>
</g>
<!-- Node25&#45;&gt;Node4 -->
<g id="edge43" class="edge"><title>Node25&#45;&gt;Node4</title>
<path fill="none" stroke="midnightblue" d="M358.475,-168.444C386.692,-159.32 431.554,-144.813 462.982,-134.651"/>
<polygon fill="midnightblue" stroke="midnightblue" points="464.238,-137.923 472.676,-131.516 462.084,-131.263 464.238,-137.923"/>
</g>
<!-- Node25&#45;&gt;Node7 -->
<g id="edge44" class="edge"><title>Node25&#45;&gt;Node7</title>
<path fill="none" stroke="midnightblue" d="M335.977,-168.083C339.227,-160.77 343.933,-150.181 347.967,-141.103"/>
<polygon fill="midnightblue" stroke="midnightblue" points="351.261,-142.311 352.124,-131.751 344.864,-139.468 351.261,-142.311"/>
</g>
<!-- Node27&#45;&gt;Node7 -->
<g id="edge47" class="edge"><title>Node27&#45;&gt;Node7</title>
<path fill="none" stroke="midnightblue" d="M1635.95,-176.297C1457.62,-173.839 902.094,-163.966 443.013,-132 429.252,-131.042 414.302,-129.63 400.74,-128.208"/>
<polygon fill="midnightblue" stroke="midnightblue" points="400.999,-124.716 390.682,-127.125 400.25,-131.676 400.999,-124.716"/>
</g>
<!-- Node27&#45;&gt;Node9 -->
<g id="edge48" class="edge"><title>Node27&#45;&gt;Node9</title>
<path fill="none" stroke="midnightblue" d="M1635.81,-168.857C1567.11,-159.247 1452.92,-143.272 1379.07,-132.941"/>
<polygon fill="midnightblue" stroke="midnightblue" points="1379.32,-129.441 1368.93,-131.522 1378.35,-136.373 1379.32,-129.441"/>
</g>
<!-- Node28 -->
<g id="node28" class="node"><title>Node28</title>
<polygon fill="white" stroke="#bfbfbf" points="1624.01,-112.5 1624.01,-131.5 1670.01,-131.5 1670.01,-112.5 1624.01,-112.5"/>
<text text-anchor="middle" x="1647.01" y="-119.5" font-family="Helvetica,sans-Serif" font-size="10.00">chrono</text>
</g>
<!-- Node27&#45;&gt;Node28 -->
<g id="edge49" class="edge"><title>Node27&#45;&gt;Node28</title>
<path fill="none" stroke="midnightblue" d="M1686.25,-168.083C1679.48,-160.298 1669.47,-148.801 1661.26,-139.367"/>
<polygon fill="midnightblue" stroke="midnightblue" points="1663.84,-136.996 1654.63,-131.751 1658.56,-141.592 1663.84,-136.996"/>
</g>
<!-- Node29 -->
<g id="node29" class="node"><title>Node29</title>
<polygon fill="white" stroke="#bfbfbf" points="1688.01,-112.5 1688.01,-131.5 1734.01,-131.5 1734.01,-112.5 1688.01,-112.5"/>
<text text-anchor="middle" x="1711.01" y="-119.5" font-family="Helvetica,sans-Serif" font-size="10.00">atomic</text>
</g>
<!-- Node27&#45;&gt;Node29 -->
<g id="edge50" class="edge"><title>Node27&#45;&gt;Node29</title>
<path fill="none" stroke="midnightblue" d="M1696.82,-168.083C1699.1,-160.849 1702.38,-150.409 1705.22,-141.397"/>
<polygon fill="midnightblue" stroke="midnightblue" points="1708.59,-142.341 1708.26,-131.751 1701.92,-140.239 1708.59,-142.341"/>
</g>
<!-- Node30&#45;&gt;Node9 -->
<g id="edge52" class="edge"><title>Node30&#45;&gt;Node9</title>
<path fill="none" stroke="midnightblue" d="M1401.17,-224.173C1392.44,-211.268 1375.2,-186.751 1358.01,-168 1348.37,-157.48 1336.54,-146.749 1326.81,-138.407"/>
<polygon fill="midnightblue" stroke="midnightblue" points="1328.81,-135.516 1318.9,-131.755 1324.3,-140.872 1328.81,-135.516"/>
</g>
<!-- Node31&#45;&gt;Node9 -->
<g id="edge56" class="edge"><title>Node31&#45;&gt;Node9</title>
<path fill="none" stroke="midnightblue" d="M1595.44,-280.248C1587.89,-266.54 1571.57,-239.93 1551.01,-224 1490.76,-177.294 1405.8,-148.563 1353.95,-134.218"/>
<polygon fill="midnightblue" stroke="midnightblue" points="1354.61,-130.77 1344.04,-131.54 1352.78,-137.528 1354.61,-130.77"/>
</g>
<!-- Node32 -->
<g id="node32" class="node"><title>Node32</title>
<polygon fill="white" stroke="#bfbfbf" points="1459.51,-224.5 1459.51,-243.5 1542.51,-243.5 1542.51,-224.5 1459.51,-224.5"/>
<text text-anchor="middle" x="1501.01" y="-231.5" font-family="Helvetica,sans-Serif" font-size="10.00">dji_macros.hpp</text>
</g>
<!-- Node31&#45;&gt;Node32 -->
<g id="edge55" class="edge"><title>Node31&#45;&gt;Node32</title>
<path fill="none" stroke="midnightblue" d="M1584.11,-280.324C1568.38,-271.743 1544.07,-258.486 1525.8,-248.522"/>
<polygon fill="midnightblue" stroke="midnightblue" points="1527.33,-245.37 1516.88,-243.655 1523.98,-251.516 1527.33,-245.37"/>
</g>
<!-- Node33&#45;&gt;Node9 -->
<g id="edge58" class="edge"><title>Node33&#45;&gt;Node9</title>
<path fill="none" stroke="midnightblue" d="M1649.14,-224.121C1637.46,-209.733 1612.25,-181.568 1584.01,-168 1519.2,-136.854 1437,-126.685 1379.23,-123.645"/>
<polygon fill="midnightblue" stroke="midnightblue" points="1379.25,-120.142 1369.09,-123.172 1378.92,-127.135 1379.25,-120.142"/>
</g>
<!-- Node36&#45;&gt;Node9 -->
<g id="edge65" class="edge"><title>Node36&#45;&gt;Node9</title>
<path fill="none" stroke="midnightblue" d="M1148.59,-224.368C1178.28,-205.492 1249.22,-160.385 1285.62,-137.237"/>
<polygon fill="midnightblue" stroke="midnightblue" points="1287.94,-139.911 1294.5,-131.591 1284.18,-134.004 1287.94,-139.911"/>
</g>
<!-- Node36&#45;&gt;Node10 -->
<g id="edge63" class="edge"><title>Node36&#45;&gt;Node10</title>
<path fill="none" stroke="midnightblue" d="M1135.01,-224.075C1135.01,-197.945 1135.01,-121.211 1135.01,-85.577"/>
<polygon fill="midnightblue" stroke="midnightblue" points="1138.51,-85.5681 1135.01,-75.5681 1131.51,-85.5681 1138.51,-85.5681"/>
</g>
<!-- Node36&#45;&gt;Node11 -->
<g id="edge64" class="edge"><title>Node36&#45;&gt;Node11</title>
<path fill="none" stroke="midnightblue" d="M1083.26,-229.007C955.148,-219.125 624.055,-193.583 491.3,-183.342"/>
<polygon fill="midnightblue" stroke="midnightblue" points="491.199,-179.824 480.959,-182.544 490.66,-186.803 491.199,-179.824"/>
</g>
<!-- Node38&#45;&gt;Node7 -->
<g id="edge73" class="edge"><title>Node38&#45;&gt;Node7</title>
<path fill="none" stroke="midnightblue" d="M443.005,-280.384C418.45,-266.624 367.829,-239.646 322.013,-224 250.161,-199.462 202.711,-247.075 155.013,-188 111.808,-134.489 239.757,-124.496 311.294,-122.978"/>
<polygon fill="midnightblue" stroke="midnightblue" points="311.471,-126.476 321.412,-122.812 311.356,-119.477 311.471,-126.476"/>
</g>
<!-- Node38&#45;&gt;Node10 -->
<g id="edge72" class="edge"><title>Node38&#45;&gt;Node10</title>
<path fill="none" stroke="midnightblue" d="M503.227,-287.911C561.294,-285.186 664.318,-275.828 746.013,-244 758.332,-239.201 931.887,-117.266 944.013,-112 984.029,-94.6226 1031.8,-83.3704 1069.56,-76.4636"/>
<polygon fill="midnightblue" stroke="midnightblue" points="1070.2,-79.9059 1079.43,-74.7148 1068.97,-73.0132 1070.2,-79.9059"/>
</g>
<!-- Node38&#45;&gt;Node11 -->
<g id="edge74" class="edge"><title>Node38&#45;&gt;Node11</title>
<path fill="none" stroke="midnightblue" d="M456.209,-280.368C452.497,-262.617 443.935,-221.666 438.902,-197.597"/>
<polygon fill="midnightblue" stroke="midnightblue" points="442.282,-196.663 436.81,-187.591 435.431,-198.096 442.282,-196.663"/>
</g>
<!-- Node38&#45;&gt;Node21 -->
<g id="edge71" class="edge"><title>Node38&#45;&gt;Node21</title>
<path fill="none" stroke="midnightblue" d="M496.993,-280.444C541.58,-270.656 614.384,-254.675 660.707,-244.506"/>
<polygon fill="midnightblue" stroke="midnightblue" points="661.722,-247.867 670.739,-242.304 660.221,-241.03 661.722,-247.867"/>
</g>
</g>
</svg>
        <g id="navigator" transform="translate(0 0)" fill="#404254">
                <rect fill="#f2f5e9" fill-opacity="0.5" stroke="#606060" stroke-width=".5" x="0" y="0" width="60" height="60"/>
                <use id="zoomplus" xlink:href="#zoomPlus" x="17" y="9" onmousedown="handleZoom(evt,'in')"/>
                <use id="zoomminus" xlink:href="#zoomMin" x="42" y="9" onmousedown="handleZoom(evt,'out')"/>
                <use id="reset" xlink:href="#resetDef" x="30" y="36" onmousedown="handleReset()"/>
                <g id="arrowUp" xlink:href="#dirArrow" transform="translate(30 24)" onmousedown="handlePan(0,-1)">
                  <use xlink:href="#rim" fill="#404040">
                        <set attributeName="fill" to="#808080" begin="arrowUp.mouseover" end="arrowUp.mouseout"/>
                  </use>
                  <path fill="none" stroke="white" stroke-width="1.5" d="M0,-3.0v7 M-2.5,-0.5L0,-3.0L2.5,-0.5"/>
                </g>
                <g id="arrowRight" xlink:href="#dirArrow" transform="rotate(90) translate(36 -43)" onmousedown="handlePan(1,0)">
                  <use xlink:href="#rim" fill="#404040">
                        <set attributeName="fill" to="#808080" begin="arrowRight.mouseover" end="arrowRight.mouseout"/>
                  </use>
                  <path fill="none" stroke="white" stroke-width="1.5" d="M0,-3.0v7 M-2.5,-0.5L0,-3.0L2.5,-0.5"/>
                </g>
                <g id="arrowDown" xlink:href="#dirArrow" transform="rotate(180) translate(-30 -48)" onmousedown="handlePan(0,1)">
                  <use xlink:href="#rim" fill="#404040">
                        <set attributeName="fill" to="#808080" begin="arrowDown.mouseover" end="arrowDown.mouseout"/>
                  </use>
                  <path fill="none" stroke="white" stroke-width="1.5" d="M0,-3.0v7 M-2.5,-0.5L0,-3.0L2.5,-0.5"/>
                </g>
                <g id="arrowLeft" xlink:href="#dirArrow" transform="rotate(270) translate(-36 17)" onmousedown="handlePan(-1,0)">
                  <use xlink:href="#rim" fill="#404040">
                        <set attributeName="fill" to="#808080" begin="arrowLeft.mouseover" end="arrowLeft.mouseout"/>
                  </use>
                  <path fill="none" stroke="white" stroke-width="1.5" d="M0,-3.0v7 M-2.5,-0.5L0,-3.0L2.5,-0.5"/>
                </g>
        </g>
        <svg viewBox="0 0 15 15" width="100%" height="30px" preserveAspectRatio="xMaxYMin meet">
         <g id="arrow_out" transform="scale(0.3 0.3)">
          <a xlink:href="dji__hotpoint_8cpp__incl_org.svg" target="_base">
           <rect id="button" ry="5" rx="5" y="6" x="6" height="38" width="38"
                fill="#f2f5e9" fill-opacity="0.5" stroke="#606060" stroke-width="1.0"/>
           <path id="arrow"
             d="M 11.500037,31.436501 C 11.940474,20.09759 22.043105,11.32322 32.158766,21.979434 L 37.068811,17.246167 C 37.068811,17.246167 37.088388,32 37.088388,32 L 22.160133,31.978069 C 22.160133,31.978069 26.997745,27.140456 26.997745,27.140456 C 18.528582,18.264221 13.291696,25.230495 11.500037,31.436501 z"
             style="fill:#404040;"/>
          </a>
         </g>
        </svg>
</svg>
