<?xml version="1.0" encoding="UTF-8" standalone="no"?>
<!DOCTYPE svg PUBLIC "-//W3C//DTD SVG 1.1//EN"
 "http://www.w3.org/Graphics/SVG/1.1/DTD/svg11.dtd">
<!-- Generated by graphviz version 2.38.0 (20140413.2041)
 -->
<!-- Title: osdk&#45;core/api/src/dji_control.cpp Pages: 1 -->
<!--zoomable 431 -->
<svg id="main" version="1.1" xmlns="http://www.w3.org/2000/svg" xmlns:xlink="http://www.w3.org/1999/xlink" xml:space="preserve" onload="init(evt)">
<style type="text/css"><![CDATA[
.edge:hover path { stroke: red; }
.edge:hover polygon { stroke: red; fill: red; }
]]></style>
<script type="text/javascript"><![CDATA[
var edges = document.getElementsByTagName('g');
if (edges && edges.length) {
  for (var i=0;i<edges.length;i++) {
    if (edges[i].id.substr(0,4)=='edge') {
      edges[i].setAttribute('class','edge');
    }
  }
}
]]></script>
        <defs>
                <circle id="rim" cx="0" cy="0" r="7"/>
                <circle id="rim2" cx="0" cy="0" r="3.5"/>
                <g id="zoomPlus">
                        <use xlink:href="#rim" fill="#404040">
                                <set attributeName="fill" to="#808080" begin="zoomplus.mouseover" end="zoomplus.mouseout"/>
                        </use>
                        <path d="M-4,0h8M0,-4v8" fill="none" stroke="white" stroke-width="1.5" pointer-events="none"/>
                </g>
                <g id="zoomMin">
                        <use xlink:href="#rim" fill="#404040">
                                <set attributeName="fill" to="#808080" begin="zoomminus.mouseover" end="zoomminus.mouseout"/>
                        </use>
                        <path d="M-4,0h8" fill="none" stroke="white" stroke-width="1.5" pointer-events="none"/>
                </g>
                <g id="dirArrow">
                        <path fill="none" stroke="white" stroke-width="1.5" d="M0,-3.0v7 M-2.5,-0.5L0,-3.0L2.5,-0.5"/>
                </g>
               <g id="resetDef">
                       <use xlink:href="#rim2" fill="#404040">
                               <set attributeName="fill" to="#808080" begin="reset.mouseover" end="reset.mouseout"/>
                       </use>
               </g>
        </defs>

<script type="text/javascript">
var viewWidth = 2087;
var viewHeight = 431;
var sectionId = 'dynsection-0';
</script>
<script xlink:href="svgpan.js"/>
<svg id="graph" class="graph">
<g id="viewport">
<title>osdk&#45;core/api/src/dji_control.cpp</title>
<polygon fill="white" stroke="none" points="-4,4 -4,-427 2083.04,-427 2083.04,4 -4,4"/>
<!-- Node1 -->
<g id="node1" class="node"><title>Node1</title>
<polygon fill="#bfbfbf" stroke="black" points="779.879,-392.5 779.879,-422.5 883.879,-422.5 883.879,-392.5 779.879,-392.5"/>
<text text-anchor="start" x="787.879" y="-410.5" font-family="Helvetica,sans-Serif" font-size="10.00">osdk&#45;core/api/src/dji</text>
<text text-anchor="middle" x="831.879" y="-399.5" font-family="Helvetica,sans-Serif" font-size="10.00">_control.cpp</text>
</g>
<!-- Node2 -->
<g id="node2" class="node"><title>Node2</title>
<g id="a_node2"><a xlink:href="dji__control_8hpp.html" target="_top" xlink:title="Control API for DJI OSDK library. ">
<polygon fill="white" stroke="black" points="73.8789,-280.5 73.8789,-299.5 153.879,-299.5 153.879,-280.5 73.8789,-280.5"/>
<text text-anchor="middle" x="113.879" y="-287.5" font-family="Helvetica,sans-Serif" font-size="10.00">dji_control.hpp</text>
</a>
</g>
</g>
<!-- Node1&#45;&gt;Node2 -->
<g id="edge1" class="edge"><title>Node1&#45;&gt;Node2</title>
<path fill="none" stroke="midnightblue" d="M779.664,-398.1C646.445,-376.67 295.223,-320.172 164.152,-299.087"/>
<polygon fill="midnightblue" stroke="midnightblue" points="164.425,-295.586 153.996,-297.453 163.313,-302.497 164.425,-295.586"/>
</g>
<!-- Node15 -->
<g id="node15" class="node"><title>Node15</title>
<g id="a_node15"><a xlink:href="dji__vehicle_8hpp.html" target="_top" xlink:title="Vehicle API for DJI onboardSDK library. ">
<polygon fill="white" stroke="black" points="1053.38,-336.5 1053.38,-355.5 1134.38,-355.5 1134.38,-336.5 1053.38,-336.5"/>
<text text-anchor="middle" x="1093.88" y="-343.5" font-family="Helvetica,sans-Serif" font-size="10.00">dji_vehicle.hpp</text>
</a>
</g>
</g>
<!-- Node1&#45;&gt;Node15 -->
<g id="edge20" class="edge"><title>Node1&#45;&gt;Node15</title>
<path fill="none" stroke="midnightblue" d="M883.955,-394.674C931.265,-383.929 1000.47,-368.213 1046.32,-357.801"/>
<polygon fill="midnightblue" stroke="midnightblue" points="1047.32,-361.162 1056.3,-355.534 1045.77,-354.336 1047.32,-361.162"/>
</g>
<!-- Node3 -->
<g id="node3" class="node"><title>Node3</title>
<g id="a_node3"><a xlink:href="dji__ack_8hpp.html" target="_top" xlink:title="All DJI OSDK ACK parsing. ">
<polygon fill="white" stroke="black" points="166.879,-224.5 166.879,-243.5 232.879,-243.5 232.879,-224.5 166.879,-224.5"/>
<text text-anchor="middle" x="199.879" y="-231.5" font-family="Helvetica,sans-Serif" font-size="10.00">dji_ack.hpp</text>
</a>
</g>
</g>
<!-- Node2&#45;&gt;Node3 -->
<g id="edge2" class="edge"><title>Node2&#45;&gt;Node3</title>
<path fill="none" stroke="midnightblue" d="M127.696,-280.324C141.112,-271.9 161.703,-258.971 177.465,-249.074"/>
<polygon fill="midnightblue" stroke="midnightblue" points="179.488,-251.936 186.096,-243.655 175.766,-246.008 179.488,-251.936"/>
</g>
<!-- Node8 -->
<g id="node8" class="node"><title>Node8</title>
<g id="a_node8"><a xlink:href="dji__type_8hpp.html" target="_top" xlink:title="Data type and Data Structure definitions for use throughout DJI OSDK. ">
<polygon fill="white" stroke="black" points="275.379,-112.5 275.379,-131.5 344.379,-131.5 344.379,-112.5 275.379,-112.5"/>
<text text-anchor="middle" x="309.879" y="-119.5" font-family="Helvetica,sans-Serif" font-size="10.00">dji_type.hpp</text>
</a>
</g>
</g>
<!-- Node2&#45;&gt;Node8 -->
<g id="edge17" class="edge"><title>Node2&#45;&gt;Node8</title>
<path fill="none" stroke="midnightblue" d="M73.8025,-281.848C52.1103,-275.714 27.1103,-264.464 13.8789,-244 -0.810966,-221.281 24.2706,-177.38 35.8789,-168 70.3846,-140.118 196.903,-129.068 265.293,-125.058"/>
<polygon fill="midnightblue" stroke="midnightblue" points="265.557,-128.549 275.345,-124.495 265.165,-121.56 265.557,-128.549"/>
</g>
<!-- Node13 -->
<g id="node13" class="node"><title>Node13</title>
<polygon fill="white" stroke="#bfbfbf" points="958.379,-56.5 958.379,-75.5 1069.38,-75.5 1069.38,-56.5 958.379,-56.5"/>
<text text-anchor="middle" x="1013.88" y="-63.5" font-family="Helvetica,sans-Serif" font-size="10.00">dji_open_protocol.hpp</text>
</g>
<!-- Node2&#45;&gt;Node13 -->
<g id="edge16" class="edge"><title>Node2&#45;&gt;Node13</title>
<path fill="none" stroke="midnightblue" d="M73.69,-283.448C49.6446,-277.831 20.9208,-266.563 5.8789,-244 -5.79645,-226.487 2.30826,-183.743 17.8789,-168 83.3406,-101.815 736.802,-75.6706 948.245,-68.9023"/>
<polygon fill="midnightblue" stroke="midnightblue" points="948.389,-72.3996 958.274,-68.5853 948.168,-65.4031 948.389,-72.3996"/>
</g>
<!-- Node14 -->
<g id="node14" class="node"><title>Node14</title>
<g id="a_node14"><a xlink:href="dji__vehicle__callback_8hpp.html" target="_top" xlink:title="Type definition for new Vehicle&#45;style callbacks. ">
<polygon fill="white" stroke="black" points="1169.88,-112.5 1169.88,-131.5 1291.88,-131.5 1291.88,-112.5 1169.88,-112.5"/>
<text text-anchor="middle" x="1230.88" y="-119.5" font-family="Helvetica,sans-Serif" font-size="10.00">dji_vehicle_callback.hpp</text>
</a>
</g>
</g>
<!-- Node2&#45;&gt;Node14 -->
<g id="edge18" class="edge"><title>Node2&#45;&gt;Node14</title>
<path fill="none" stroke="midnightblue" d="M102.491,-280.407C75.5821,-259.133 12.8051,-203.193 46.8789,-168 88.5208,-124.991 1033.2,-136.125 1159.76,-131.711"/>
<polygon fill="midnightblue" stroke="midnightblue" points="1160.02,-135.202 1169.83,-131.198 1159.67,-128.211 1160.02,-135.202"/>
</g>
<!-- Node4 -->
<g id="node4" class="node"><title>Node4</title>
<g id="a_node4"><a xlink:href="dji__command_8hpp.html" target="_top" xlink:title="All DJI OSDK OpenProtocol Command IDs. ">
<polygon fill="white" stroke="black" points="482.379,-112.5 482.379,-131.5 575.379,-131.5 575.379,-112.5 482.379,-112.5"/>
<text text-anchor="middle" x="528.879" y="-119.5" font-family="Helvetica,sans-Serif" font-size="10.00">dji_command.hpp</text>
</a>
</g>
</g>
<!-- Node3&#45;&gt;Node4 -->
<g id="edge3" class="edge"><title>Node3&#45;&gt;Node4</title>
<path fill="none" stroke="midnightblue" d="M222.062,-224.484C255.749,-211.656 321.916,-186.87 378.879,-168 415.863,-155.748 458.444,-143.112 488.766,-134.362"/>
<polygon fill="midnightblue" stroke="midnightblue" points="489.909,-137.675 498.554,-131.549 487.976,-130.947 489.909,-137.675"/>
</g>
<!-- Node7 -->
<g id="node7" class="node"><title>Node7</title>
<g id="a_node7"><a xlink:href="dji__mission__type_8hpp.html" target="_top" xlink:title="Mission related data struct for DJI OSDK library. ">
<polygon fill="white" stroke="black" points="55.8789,-168.5 55.8789,-187.5 163.879,-187.5 163.879,-168.5 55.8789,-168.5"/>
<text text-anchor="middle" x="109.879" y="-175.5" font-family="Helvetica,sans-Serif" font-size="10.00">dji_mission_type.hpp</text>
</a>
</g>
</g>
<!-- Node3&#45;&gt;Node7 -->
<g id="edge7" class="edge"><title>Node3&#45;&gt;Node7</title>
<path fill="none" stroke="midnightblue" d="M185.419,-224.324C171.379,-215.9 149.83,-202.971 133.336,-193.074"/>
<polygon fill="midnightblue" stroke="midnightblue" points="134.679,-189.798 124.303,-187.655 131.077,-195.801 134.679,-189.798"/>
</g>
<!-- Node3&#45;&gt;Node8 -->
<g id="edge11" class="edge"><title>Node3&#45;&gt;Node8</title>
<path fill="none" stroke="midnightblue" d="M166.698,-230.542C111.865,-225.254 11.7117,-209.695 46.8789,-168 74.236,-135.565 197.125,-126.507 264.806,-123.978"/>
<polygon fill="midnightblue" stroke="midnightblue" points="265.296,-127.464 275.171,-123.626 265.058,-120.468 265.296,-127.464"/>
</g>
<!-- Node10 -->
<g id="node10" class="node"><title>Node10</title>
<g id="a_node10"><a xlink:href="dji__version_8hpp.html" target="_top" xlink:title="Drone/SDK Version definition for DJI onboardSDK library. ">
<polygon fill="white" stroke="black" points="714.879,-168.5 714.879,-187.5 796.879,-187.5 796.879,-168.5 714.879,-168.5"/>
<text text-anchor="middle" x="755.879" y="-175.5" font-family="Helvetica,sans-Serif" font-size="10.00">dji_version.hpp</text>
</a>
</g>
</g>
<!-- Node3&#45;&gt;Node10 -->
<g id="edge12" class="edge"><title>Node3&#45;&gt;Node10</title>
<path fill="none" stroke="midnightblue" d="M233.146,-231.074C312.769,-226.244 520.739,-212.327 704.601,-188.059"/>
<polygon fill="midnightblue" stroke="midnightblue" points="705.275,-191.5 714.724,-186.709 704.349,-184.561 705.275,-191.5"/>
</g>
<!-- Node12 -->
<g id="node12" class="node"><title>Node12</title>
<polygon fill="white" stroke="#bfbfbf" points="182.379,-168.5 182.379,-187.5 217.379,-187.5 217.379,-168.5 182.379,-168.5"/>
<text text-anchor="middle" x="199.879" y="-175.5" font-family="Helvetica,sans-Serif" font-size="10.00">map</text>
</g>
<!-- Node3&#45;&gt;Node12 -->
<g id="edge15" class="edge"><title>Node3&#45;&gt;Node12</title>
<path fill="none" stroke="midnightblue" d="M199.879,-224.083C199.879,-217.006 199.879,-206.861 199.879,-197.986"/>
<polygon fill="midnightblue" stroke="midnightblue" points="203.379,-197.751 199.879,-187.751 196.379,-197.751 203.379,-197.751"/>
</g>
<!-- Node5 -->
<g id="node5" class="node"><title>Node5</title>
<g id="a_node5"><a xlink:href="dji__error_8hpp.html" target="_top" xlink:title="All DJI OSDK OpenProtocol ACK Error Codes. ">
<polygon fill="white" stroke="black" points="430.879,-56.5 430.879,-75.5 500.879,-75.5 500.879,-56.5 430.879,-56.5"/>
<text text-anchor="middle" x="465.879" y="-63.5" font-family="Helvetica,sans-Serif" font-size="10.00">dji_error.hpp</text>
</a>
</g>
</g>
<!-- Node4&#45;&gt;Node5 -->
<g id="edge4" class="edge"><title>Node4&#45;&gt;Node5</title>
<path fill="none" stroke="midnightblue" d="M518.757,-112.324C509.353,-104.263 495.135,-92.0765 483.81,-82.3695"/>
<polygon fill="midnightblue" stroke="midnightblue" points="486.055,-79.6844 476.185,-75.8339 481.5,-84.9993 486.055,-79.6844"/>
</g>
<!-- Node6 -->
<g id="node6" class="node"><title>Node6</title>
<polygon fill="white" stroke="#bfbfbf" points="441.379,-0.5 441.379,-19.5 490.379,-19.5 490.379,-0.5 441.379,-0.5"/>
<text text-anchor="middle" x="465.879" y="-7.5" font-family="Helvetica,sans-Serif" font-size="10.00">stdint.h</text>
</g>
<!-- Node4&#45;&gt;Node6 -->
<g id="edge6" class="edge"><title>Node4&#45;&gt;Node6</title>
<path fill="none" stroke="midnightblue" d="M527.742,-112.476C525.728,-99.531 520.683,-74.4699 509.879,-56 503.374,-44.8797 493.528,-34.4572 484.798,-26.4485"/>
<polygon fill="midnightblue" stroke="midnightblue" points="487.053,-23.7712 477.222,-19.8215 482.444,-29.0399 487.053,-23.7712"/>
</g>
<!-- Node5&#45;&gt;Node6 -->
<g id="edge5" class="edge"><title>Node5&#45;&gt;Node6</title>
<path fill="none" stroke="midnightblue" d="M465.879,-56.083C465.879,-49.0059 465.879,-38.8611 465.879,-29.9865"/>
<polygon fill="midnightblue" stroke="midnightblue" points="469.379,-29.751 465.879,-19.7511 462.379,-29.7511 469.379,-29.751"/>
</g>
<!-- Node7&#45;&gt;Node8 -->
<g id="edge8" class="edge"><title>Node7&#45;&gt;Node8</title>
<path fill="none" stroke="midnightblue" d="M141.569,-168.444C175.947,-159.162 230.956,-144.309 268.668,-134.127"/>
<polygon fill="midnightblue" stroke="midnightblue" points="269.595,-137.502 278.337,-131.516 267.77,-130.744 269.595,-137.502"/>
</g>
<!-- Node8&#45;&gt;Node6 -->
<g id="edge10" class="edge"><title>Node8&#45;&gt;Node6</title>
<path fill="none" stroke="midnightblue" d="M309.973,-112.157C310.602,-98.3242 313.837,-71.5468 328.879,-56 355.741,-28.2374 399.995,-17.5938 430.915,-13.5186"/>
<polygon fill="midnightblue" stroke="midnightblue" points="431.71,-16.9505 441.246,-12.3337 430.912,-9.99607 431.71,-16.9505"/>
</g>
<!-- Node9 -->
<g id="node9" class="node"><title>Node9</title>
<polygon fill="white" stroke="#bfbfbf" points="338.379,-56.5 338.379,-75.5 381.379,-75.5 381.379,-56.5 338.379,-56.5"/>
<text text-anchor="middle" x="359.879" y="-63.5" font-family="Helvetica,sans-Serif" font-size="10.00">cstdio</text>
</g>
<!-- Node8&#45;&gt;Node9 -->
<g id="edge9" class="edge"><title>Node8&#45;&gt;Node9</title>
<path fill="none" stroke="midnightblue" d="M318.135,-112.083C325.344,-104.298 335.989,-92.8015 344.725,-83.3665"/>
<polygon fill="midnightblue" stroke="midnightblue" points="347.55,-85.4666 351.776,-75.7511 342.414,-80.7108 347.55,-85.4666"/>
</g>
<!-- Node10&#45;&gt;Node4 -->
<g id="edge13" class="edge"><title>Node10&#45;&gt;Node4</title>
<path fill="none" stroke="midnightblue" d="M719.91,-168.444C680.56,-159.083 617.392,-144.056 574.565,-133.868"/>
<polygon fill="midnightblue" stroke="midnightblue" points="575.218,-130.426 564.679,-131.516 573.598,-137.236 575.218,-130.426"/>
</g>
<!-- Node11 -->
<g id="node11" class="node"><title>Node11</title>
<polygon fill="white" stroke="#bfbfbf" points="835.879,-112.5 835.879,-131.5 881.879,-131.5 881.879,-112.5 835.879,-112.5"/>
<text text-anchor="middle" x="858.879" y="-119.5" font-family="Helvetica,sans-Serif" font-size="10.00">cstdint</text>
</g>
<!-- Node10&#45;&gt;Node11 -->
<g id="edge14" class="edge"><title>Node10&#45;&gt;Node11</title>
<path fill="none" stroke="midnightblue" d="M772.428,-168.324C788.871,-159.703 814.314,-146.364 833.347,-136.386"/>
<polygon fill="midnightblue" stroke="midnightblue" points="835.14,-139.398 842.371,-131.655 831.889,-133.198 835.14,-139.398"/>
</g>
<!-- Node14&#45;&gt;Node13 -->
<g id="edge19" class="edge"><title>Node14&#45;&gt;Node13</title>
<path fill="none" stroke="midnightblue" d="M1196.49,-112.444C1158.96,-103.102 1098.75,-88.1194 1057.81,-77.9326"/>
<polygon fill="midnightblue" stroke="midnightblue" points="1058.65,-74.5349 1048.1,-75.5164 1056.96,-81.3278 1058.65,-74.5349"/>
</g>
<!-- Node15&#45;&gt;Node2 -->
<g id="edge31" class="edge"><title>Node15&#45;&gt;Node2</title>
<path fill="none" stroke="midnightblue" d="M1053.15,-342.82C933.174,-336.389 570.628,-316.888 269.879,-300 234.472,-298.012 194.548,-295.707 163.953,-293.928"/>
<polygon fill="midnightblue" stroke="midnightblue" points="164.141,-290.433 153.955,-293.346 163.734,-297.421 164.141,-290.433"/>
</g>
<!-- Node15&#45;&gt;Node4 -->
<g id="edge30" class="edge"><title>Node15&#45;&gt;Node4</title>
<path fill="none" stroke="midnightblue" d="M1053.33,-342.321C994.914,-336.016 888.938,-314.875 841.879,-244 812.436,-199.656 900.359,-211.35 914.879,-188 919.573,-180.452 920.789,-174.639 914.879,-168 893.383,-143.853 687.702,-130.639 585.684,-125.522"/>
<polygon fill="midnightblue" stroke="midnightblue" points="585.712,-122.02 575.552,-125.024 585.367,-129.011 585.712,-122.02"/>
</g>
<!-- Node15&#45;&gt;Node8 -->
<g id="edge66" class="edge"><title>Node15&#45;&gt;Node8</title>
<path fill="none" stroke="midnightblue" d="M1053.32,-344.211C895.755,-340.954 331.769,-327.41 305.879,-300 264.947,-256.664 288.328,-177.406 302.071,-141.524"/>
<polygon fill="midnightblue" stroke="midnightblue" points="305.469,-142.452 305.944,-131.868 298.972,-139.846 305.469,-142.452"/>
</g>
<!-- Node15&#45;&gt;Node10 -->
<g id="edge68" class="edge"><title>Node15&#45;&gt;Node10</title>
<path fill="none" stroke="midnightblue" d="M1053.23,-343.309C983.836,-339.666 846.354,-328.921 808.879,-300 791.82,-286.834 771.246,-227.796 761.51,-197.327"/>
<polygon fill="midnightblue" stroke="midnightblue" points="764.771,-196.027 758.441,-187.532 758.092,-198.121 764.771,-196.027"/>
</g>
<!-- Node15&#45;&gt;Node11 -->
<g id="edge21" class="edge"><title>Node15&#45;&gt;Node11</title>
<path fill="none" stroke="midnightblue" d="M1094.98,-336.338C1097.23,-314.908 1100.09,-258.638 1073.88,-224 1050.51,-193.117 945.714,-153.188 891.542,-134.107"/>
<polygon fill="midnightblue" stroke="midnightblue" points="892.642,-130.784 882.047,-130.794 890.336,-137.393 892.642,-130.784"/>
</g>
<!-- Node15&#45;&gt;Node13 -->
<g id="edge58" class="edge"><title>Node15&#45;&gt;Node13</title>
<path fill="none" stroke="midnightblue" d="M1134.51,-344.414C1313.2,-341.669 2022.03,-328.985 2058.88,-300 2082.54,-281.392 2077.88,-265.098 2077.88,-235 2077.88,-235 2077.88,-235 2077.88,-177 2077.88,-76.1787 1312.23,-67.2533 1079.91,-66.8656"/>
<polygon fill="midnightblue" stroke="midnightblue" points="1079.59,-63.3653 1069.59,-66.8535 1079.58,-70.3653 1079.59,-63.3653"/>
</g>
<!-- Node15&#45;&gt;Node14 -->
<g id="edge67" class="edge"><title>Node15&#45;&gt;Node14</title>
<path fill="none" stroke="midnightblue" d="M1134.64,-344.697C1188.12,-342.845 1283.75,-334.453 1356.88,-300 1374.13,-291.874 1413.93,-261.332 1421.88,-244 1449.96,-182.737 1354.47,-149.223 1288.52,-133.794"/>
<polygon fill="midnightblue" stroke="midnightblue" points="1289.15,-130.346 1278.62,-131.559 1287.61,-137.175 1289.15,-130.346"/>
</g>
<!-- Node16 -->
<g id="node16" class="node"><title>Node16</title>
<g id="a_node16"><a xlink:href="dji__broadcast_8hpp.html" target="_top" xlink:title="Broadcast Telemetry API for DJI onboardSDK library. ">
<polygon fill="white" stroke="black" points="851.379,-224.5 851.379,-243.5 944.379,-243.5 944.379,-224.5 851.379,-224.5"/>
<text text-anchor="middle" x="897.879" y="-231.5" font-family="Helvetica,sans-Serif" font-size="10.00">dji_broadcast.hpp</text>
</a>
</g>
</g>
<!-- Node15&#45;&gt;Node16 -->
<g id="edge22" class="edge"><title>Node15&#45;&gt;Node16</title>
<path fill="none" stroke="midnightblue" d="M1078.5,-336.368C1044.51,-317.292 962.777,-271.422 921.943,-248.505"/>
<polygon fill="midnightblue" stroke="midnightblue" points="923.621,-245.433 913.187,-243.591 920.195,-251.538 923.621,-245.433"/>
</g>
<!-- Node18 -->
<g id="node18" class="node"><title>Node18</title>
<g id="a_node18"><a xlink:href="dji__camera_8hpp.html" target="_top" xlink:title="Camera/Gimbal API for DJI onboardSDK library. ">
<polygon fill="white" stroke="black" points="388.379,-168.5 388.379,-187.5 471.379,-187.5 471.379,-168.5 388.379,-168.5"/>
<text text-anchor="middle" x="429.879" y="-175.5" font-family="Helvetica,sans-Serif" font-size="10.00">dji_camera.hpp</text>
</a>
</g>
</g>
<!-- Node15&#45;&gt;Node18 -->
<g id="edge26" class="edge"><title>Node15&#45;&gt;Node18</title>
<path fill="none" stroke="midnightblue" d="M1053.05,-343.625C930.775,-339.247 573.073,-324.469 526.879,-300 483.208,-276.868 452.295,-224.703 438.295,-197.03"/>
<polygon fill="midnightblue" stroke="midnightblue" points="441.293,-195.192 433.767,-187.735 435,-198.258 441.293,-195.192"/>
</g>
<!-- Node19 -->
<g id="node19" class="node"><title>Node19</title>
<polygon fill="white" stroke="#bfbfbf" points="1441.88,-280.5 1441.88,-299.5 1553.88,-299.5 1553.88,-280.5 1441.88,-280.5"/>
<text text-anchor="middle" x="1497.88" y="-287.5" font-family="Helvetica,sans-Serif" font-size="10.00">dji_circular_buffer.hpp</text>
</g>
<!-- Node15&#45;&gt;Node19 -->
<g id="edge29" class="edge"><title>Node15&#45;&gt;Node19</title>
<path fill="none" stroke="midnightblue" d="M1134.47,-339.575C1204.17,-330.259 1347.24,-311.135 1431.59,-299.861"/>
<polygon fill="midnightblue" stroke="midnightblue" points="1432.12,-303.32 1441.57,-298.526 1431.2,-296.382 1432.12,-303.32"/>
</g>
<!-- Node20 -->
<g id="node20" class="node"><title>Node20</title>
<g id="a_node20"><a xlink:href="dji__gimbal_8hpp.html" target="_top" xlink:title="Gimbal API for OSDK library. ">
<polygon fill="white" stroke="black" points="489.379,-168.5 489.379,-187.5 568.379,-187.5 568.379,-168.5 489.379,-168.5"/>
<text text-anchor="middle" x="528.879" y="-175.5" font-family="Helvetica,sans-Serif" font-size="10.00">dji_gimbal.hpp</text>
</a>
</g>
</g>
<!-- Node15&#45;&gt;Node20 -->
<g id="edge32" class="edge"><title>Node15&#45;&gt;Node20</title>
<path fill="none" stroke="midnightblue" d="M1053.33,-343.34C951.043,-338.829 684.656,-324.976 599.879,-300 548.392,-284.832 520.674,-289.918 492.879,-244 482.828,-227.395 497.029,-207.854 510.446,-194.565"/>
<polygon fill="midnightblue" stroke="midnightblue" points="513.09,-196.887 518.065,-187.533 508.343,-191.743 513.09,-196.887"/>
</g>
<!-- Node21 -->
<g id="node21" class="node"><title>Node21</title>
<polygon fill="white" stroke="#bfbfbf" points="1571.88,-280.5 1571.88,-299.5 1669.88,-299.5 1669.88,-280.5 1571.88,-280.5"/>
<text text-anchor="middle" x="1620.88" y="-287.5" font-family="Helvetica,sans-Serif" font-size="10.00">dji_hard_driver.hpp</text>
</g>
<!-- Node15&#45;&gt;Node21 -->
<g id="edge35" class="edge"><title>Node15&#45;&gt;Node21</title>
<path fill="none" stroke="midnightblue" d="M1134.43,-341.91C1214.15,-335.662 1397.11,-320.469 1561.56,-300.098"/>
<polygon fill="midnightblue" stroke="midnightblue" points="1562.37,-303.524 1571.86,-298.812 1561.5,-296.578 1562.37,-303.524"/>
</g>
<!-- Node22 -->
<g id="node22" class="node"><title>Node22</title>
<g id="a_node22"><a xlink:href="dji__hardware__sync_8hpp.html" target="_top" xlink:title="Hardware Sync API for DJI OSDK. ">
<polygon fill="white" stroke="black" points="1041.88,-168.5 1041.88,-187.5 1157.88,-187.5 1157.88,-168.5 1041.88,-168.5"/>
<text text-anchor="middle" x="1099.88" y="-175.5" font-family="Helvetica,sans-Serif" font-size="10.00">dji_hardware_sync.hpp</text>
</a>
</g>
</g>
<!-- Node15&#45;&gt;Node22 -->
<g id="edge36" class="edge"><title>Node15&#45;&gt;Node22</title>
<path fill="none" stroke="midnightblue" d="M1097.48,-336.222C1100.94,-327.285 1105.91,-312.942 1107.88,-300 1112.95,-266.606 1110.85,-257.647 1107.88,-224 1107.1,-215.197 1105.49,-205.536 1103.91,-197.43"/>
<polygon fill="midnightblue" stroke="midnightblue" points="1107.32,-196.648 1101.87,-187.567 1100.47,-198.069 1107.32,-196.648"/>
</g>
<!-- Node25 -->
<g id="node25" class="node"><title>Node25</title>
<g id="a_node25"><a xlink:href="dji__mfio_8hpp.html" target="_top" xlink:title="MFIO API for DJI OSDK library. ">
<polygon fill="white" stroke="black" points="1470.38,-224.5 1470.38,-243.5 1539.38,-243.5 1539.38,-224.5 1470.38,-224.5"/>
<text text-anchor="middle" x="1504.88" y="-231.5" font-family="Helvetica,sans-Serif" font-size="10.00">dji_mfio.hpp</text>
</a>
</g>
</g>
<!-- Node15&#45;&gt;Node25 -->
<g id="edge41" class="edge"><title>Node15&#45;&gt;Node25</title>
<path fill="none" stroke="midnightblue" d="M1134.73,-343.455C1192.87,-340.223 1302.18,-330.299 1389.88,-300 1408.67,-293.507 1454.77,-265.989 1482.56,-248.907"/>
<polygon fill="midnightblue" stroke="midnightblue" points="1484.55,-251.792 1491.21,-243.559 1480.87,-245.837 1484.55,-251.792"/>
</g>
<!-- Node26 -->
<g id="node26" class="node"><title>Node26</title>
<g id="a_node26"><a xlink:href="dji__mission__manager_8hpp.html" target="_top" xlink:title="Mission&#45;Manager API for DJI OSDK library. ">
<polygon fill="white" stroke="black" points="609.379,-280.5 609.379,-299.5 736.379,-299.5 736.379,-280.5 609.379,-280.5"/>
<text text-anchor="middle" x="672.879" y="-287.5" font-family="Helvetica,sans-Serif" font-size="10.00">dji_mission_manager.hpp</text>
</a>
</g>
</g>
<!-- Node15&#45;&gt;Node26 -->
<g id="edge43" class="edge"><title>Node15&#45;&gt;Node26</title>
<path fill="none" stroke="midnightblue" d="M1053.13,-339.773C982.293,-330.687 835.517,-311.861 746.47,-300.439"/>
<polygon fill="midnightblue" stroke="midnightblue" points="746.804,-296.953 736.44,-299.153 745.913,-303.897 746.804,-296.953"/>
</g>
<!-- Node31 -->
<g id="node31" class="node"><title>Node31</title>
<g id="a_node31"><a xlink:href="dji__mobile__communication_8hpp.html" target="_top" xlink:title="Implementation of DJI Mobile&#45;Onboard SDK Communication (MOC) ">
<polygon fill="white" stroke="black" points="1197.88,-280.5 1197.88,-299.5 1347.88,-299.5 1347.88,-280.5 1197.88,-280.5"/>
<text text-anchor="middle" x="1272.88" y="-287.5" font-family="Helvetica,sans-Serif" font-size="10.00">dji_mobile_communication.hpp</text>
</a>
</g>
</g>
<!-- Node15&#45;&gt;Node31 -->
<g id="edge53" class="edge"><title>Node15&#45;&gt;Node31</title>
<path fill="none" stroke="midnightblue" d="M1122.24,-336.444C1152.62,-327.28 1200.99,-312.688 1234.69,-302.519"/>
<polygon fill="midnightblue" stroke="midnightblue" points="1236.09,-305.756 1244.65,-299.516 1234.06,-299.054 1236.09,-305.756"/>
</g>
<!-- Node33 -->
<g id="node33" class="node"><title>Node33</title>
<g id="a_node33"><a xlink:href="dji__mobile__device_8hpp.html" target="_top" xlink:title="Implementation of DJI Mobile Device Abstraction. ">
<polygon fill="white" stroke="black" points="1160.38,-224.5 1160.38,-243.5 1273.38,-243.5 1273.38,-224.5 1160.38,-224.5"/>
<text text-anchor="middle" x="1216.88" y="-231.5" font-family="Helvetica,sans-Serif" font-size="10.00">dji_mobile_device.hpp</text>
</a>
</g>
</g>
<!-- Node15&#45;&gt;Node33 -->
<g id="edge56" class="edge"><title>Node15&#45;&gt;Node33</title>
<path fill="none" stroke="midnightblue" d="M1103.92,-336.455C1114.45,-327.464 1131.43,-312.859 1145.88,-300 1164.45,-283.467 1185.42,-264.193 1199.73,-250.951"/>
<polygon fill="midnightblue" stroke="midnightblue" points="1202.36,-253.284 1207.31,-243.917 1197.6,-248.151 1202.36,-253.284"/>
</g>
<!-- Node34 -->
<g id="node34" class="node"><title>Node34</title>
<polygon fill="white" stroke="#bfbfbf" points="1687.88,-280.5 1687.88,-299.5 1815.88,-299.5 1815.88,-280.5 1687.88,-280.5"/>
<text text-anchor="middle" x="1751.88" y="-287.5" font-family="Helvetica,sans-Serif" font-size="10.00">dji_platform_manager.hpp</text>
</g>
<!-- Node15&#45;&gt;Node34 -->
<g id="edge59" class="edge"><title>Node15&#45;&gt;Node34</title>
<path fill="none" stroke="midnightblue" d="M1134.72,-342.506C1228.61,-336.633 1467.29,-320.91 1677.8,-300.065"/>
<polygon fill="midnightblue" stroke="midnightblue" points="1678.2,-303.543 1687.8,-299.068 1677.51,-296.577 1678.2,-303.543"/>
</g>
<!-- Node35 -->
<g id="node35" class="node"><title>Node35</title>
<g id="a_node35"><a xlink:href="dji__status_8hpp.html" target="_top" xlink:title="Status information for DJI Vehicle. ">
<polygon fill="white" stroke="black" points="1834.38,-280.5 1834.38,-299.5 1911.38,-299.5 1911.38,-280.5 1834.38,-280.5"/>
<text text-anchor="middle" x="1872.88" y="-287.5" font-family="Helvetica,sans-Serif" font-size="10.00">dji_status.hpp</text>
</a>
</g>
</g>
<!-- Node15&#45;&gt;Node35 -->
<g id="edge60" class="edge"><title>Node15&#45;&gt;Node35</title>
<path fill="none" stroke="midnightblue" d="M1134.46,-344.264C1244.06,-341.9 1555.33,-332.707 1824.22,-299.91"/>
<polygon fill="midnightblue" stroke="midnightblue" points="1824.67,-303.381 1834.17,-298.684 1823.82,-296.434 1824.67,-303.381"/>
</g>
<!-- Node36 -->
<g id="node36" class="node"><title>Node36</title>
<g id="a_node36"><a xlink:href="dji__subscription_8hpp.html" target="_top" xlink:title="Telemetry Subscription API for DJI OSDK library. ">
<polygon fill="white" stroke="black" points="962.379,-224.5 962.379,-243.5 1065.38,-243.5 1065.38,-224.5 962.379,-224.5"/>
<text text-anchor="middle" x="1013.88" y="-231.5" font-family="Helvetica,sans-Serif" font-size="10.00">dji_subscription.hpp</text>
</a>
</g>
</g>
<!-- Node15&#45;&gt;Node36 -->
<g id="edge61" class="edge"><title>Node15&#45;&gt;Node36</title>
<path fill="none" stroke="midnightblue" d="M1087.6,-336.368C1074.4,-318.215 1043.55,-275.802 1026.24,-251.99"/>
<polygon fill="midnightblue" stroke="midnightblue" points="1028.84,-249.62 1020.13,-243.591 1023.18,-253.737 1028.84,-249.62"/>
</g>
<!-- Node37 -->
<g id="node37" class="node"><title>Node37</title>
<polygon fill="white" stroke="#bfbfbf" points="1929.88,-280.5 1929.88,-299.5 2049.88,-299.5 2049.88,-280.5 1929.88,-280.5"/>
<text text-anchor="middle" x="1989.88" y="-287.5" font-family="Helvetica,sans-Serif" font-size="10.00">dji_thread_manager.hpp</text>
</g>
<!-- Node15&#45;&gt;Node37 -->
<g id="edge65" class="edge"><title>Node15&#45;&gt;Node37</title>
<path fill="none" stroke="midnightblue" d="M1134.4,-343.877C1253.3,-340.352 1611.67,-328.084 1919.68,-300.04"/>
<polygon fill="midnightblue" stroke="midnightblue" points="1920.06,-303.52 1929.7,-299.121 1919.42,-296.55 1920.06,-303.52"/>
</g>
<!-- Node38 -->
<g id="node38" class="node"><title>Node38</title>
<g id="a_node38"><a xlink:href="dji__virtual__rc_8hpp.html" target="_top" xlink:title="Virtual Radio Control API for DJI onboardSDK library. ">
<polygon fill="white" stroke="black" points="314.879,-280.5 314.879,-299.5 404.879,-299.5 404.879,-280.5 314.879,-280.5"/>
<text text-anchor="middle" x="359.879" y="-287.5" font-family="Helvetica,sans-Serif" font-size="10.00">dji_virtual_rc.hpp</text>
</a>
</g>
</g>
<!-- Node15&#45;&gt;Node38 -->
<g id="edge69" class="edge"><title>Node15&#45;&gt;Node38</title>
<path fill="none" stroke="midnightblue" d="M1053.26,-343.376C948.476,-338.948 660.539,-325.275 421.879,-300 419.682,-299.767 417.443,-299.515 415.183,-299.247"/>
<polygon fill="midnightblue" stroke="midnightblue" points="415.561,-295.767 405.202,-297.992 414.687,-302.713 415.561,-295.767"/>
</g>
<!-- Node16&#45;&gt;Node14 -->
<g id="edge25" class="edge"><title>Node16&#45;&gt;Node14</title>
<path fill="none" stroke="midnightblue" d="M944.474,-225.297C1021.15,-212.61 1165.64,-188.642 1166.88,-188 1188.52,-176.747 1207.29,-155.504 1218.81,-140.367"/>
<polygon fill="midnightblue" stroke="midnightblue" points="1221.94,-142.016 1225,-131.874 1216.28,-137.89 1221.94,-142.016"/>
</g>
<!-- Node17 -->
<g id="node17" class="node"><title>Node17</title>
<g id="a_node17"><a xlink:href="dji__telemetry_8hpp.html" target="_top" xlink:title="Enumeration of all telemetry data types, structures and maps. ">
<polygon fill="white" stroke="black" points="815.379,-168.5 815.379,-187.5 906.379,-187.5 906.379,-168.5 815.379,-168.5"/>
<text text-anchor="middle" x="860.879" y="-175.5" font-family="Helvetica,sans-Serif" font-size="10.00">dji_telemetry.hpp</text>
</a>
</g>
</g>
<!-- Node16&#45;&gt;Node17 -->
<g id="edge23" class="edge"><title>Node16&#45;&gt;Node17</title>
<path fill="none" stroke="midnightblue" d="M891.769,-224.083C886.597,-216.534 879.033,-205.495 872.684,-196.23"/>
<polygon fill="midnightblue" stroke="midnightblue" points="875.415,-194.022 866.875,-187.751 869.64,-197.979 875.415,-194.022"/>
</g>
<!-- Node17&#45;&gt;Node8 -->
<g id="edge24" class="edge"><title>Node17&#45;&gt;Node8</title>
<path fill="none" stroke="midnightblue" d="M815.297,-169.283C812.113,-168.823 808.95,-168.39 805.879,-168 639.999,-146.931 441.688,-132.014 354.607,-125.978"/>
<polygon fill="midnightblue" stroke="midnightblue" points="354.765,-122.48 344.548,-125.286 354.284,-129.464 354.765,-122.48"/>
</g>
<!-- Node18&#45;&gt;Node4 -->
<g id="edge27" class="edge"><title>Node18&#45;&gt;Node4</title>
<path fill="none" stroke="midnightblue" d="M445.785,-168.324C461.517,-159.743 485.821,-146.486 504.088,-136.522"/>
<polygon fill="midnightblue" stroke="midnightblue" points="505.909,-139.516 513.012,-131.655 502.557,-133.37 505.909,-139.516"/>
</g>
<!-- Node18&#45;&gt;Node8 -->
<g id="edge28" class="edge"><title>Node18&#45;&gt;Node8</title>
<path fill="none" stroke="midnightblue" d="M410.865,-168.444C391.291,-159.636 360.571,-145.812 338.15,-135.722"/>
<polygon fill="midnightblue" stroke="midnightblue" points="339.36,-132.428 328.804,-131.516 336.487,-138.812 339.36,-132.428"/>
</g>
<!-- Node20&#45;&gt;Node4 -->
<g id="edge33" class="edge"><title>Node20&#45;&gt;Node4</title>
<path fill="none" stroke="midnightblue" d="M528.879,-168.083C528.879,-161.006 528.879,-150.861 528.879,-141.986"/>
<polygon fill="midnightblue" stroke="midnightblue" points="532.379,-141.751 528.879,-131.751 525.379,-141.751 532.379,-141.751"/>
</g>
<!-- Node20&#45;&gt;Node8 -->
<g id="edge34" class="edge"><title>Node20&#45;&gt;Node8</title>
<path fill="none" stroke="midnightblue" d="M494.178,-168.444C456.294,-159.102 395.53,-144.119 354.216,-133.933"/>
<polygon fill="midnightblue" stroke="midnightblue" points="354.965,-130.512 344.418,-131.516 353.289,-137.309 354.965,-130.512"/>
</g>
<!-- Node22&#45;&gt;Node8 -->
<g id="edge37" class="edge"><title>Node22&#45;&gt;Node8</title>
<path fill="none" stroke="midnightblue" d="M1041.79,-173.029C891.045,-162.725 489.732,-135.294 354.832,-126.073"/>
<polygon fill="midnightblue" stroke="midnightblue" points="354.684,-122.555 344.469,-125.364 354.207,-129.538 354.684,-122.555"/>
</g>
<!-- Node22&#45;&gt;Node14 -->
<g id="edge38" class="edge"><title>Node22&#45;&gt;Node14</title>
<path fill="none" stroke="midnightblue" d="M1120.64,-168.444C1142.2,-159.557 1176.14,-145.563 1200.67,-135.451"/>
<polygon fill="midnightblue" stroke="midnightblue" points="1202.31,-138.563 1210.22,-131.516 1199.64,-132.092 1202.31,-138.563"/>
</g>
<!-- Node23 -->
<g id="node23" class="node"><title>Node23</title>
<polygon fill="white" stroke="#bfbfbf" points="1105.88,-112.5 1105.88,-131.5 1151.88,-131.5 1151.88,-112.5 1105.88,-112.5"/>
<text text-anchor="middle" x="1128.88" y="-119.5" font-family="Helvetica,sans-Serif" font-size="10.00">chrono</text>
</g>
<!-- Node22&#45;&gt;Node23 -->
<g id="edge39" class="edge"><title>Node22&#45;&gt;Node23</title>
<path fill="none" stroke="midnightblue" d="M1104.67,-168.083C1108.64,-160.691 1114.4,-149.953 1119.31,-140.811"/>
<polygon fill="midnightblue" stroke="midnightblue" points="1122.53,-142.217 1124.18,-131.751 1116.36,-138.905 1122.53,-142.217"/>
</g>
<!-- Node24 -->
<g id="node24" class="node"><title>Node24</title>
<polygon fill="white" stroke="#bfbfbf" points="1041.88,-112.5 1041.88,-131.5 1087.88,-131.5 1087.88,-112.5 1041.88,-112.5"/>
<text text-anchor="middle" x="1064.88" y="-119.5" font-family="Helvetica,sans-Serif" font-size="10.00">atomic</text>
</g>
<!-- Node22&#45;&gt;Node24 -->
<g id="edge40" class="edge"><title>Node22&#45;&gt;Node24</title>
<path fill="none" stroke="midnightblue" d="M1094.1,-168.083C1089.21,-160.534 1082.05,-149.495 1076.05,-140.23"/>
<polygon fill="midnightblue" stroke="midnightblue" points="1078.93,-138.239 1070.55,-131.751 1073.05,-142.046 1078.93,-138.239"/>
</g>
<!-- Node25&#45;&gt;Node14 -->
<g id="edge42" class="edge"><title>Node25&#45;&gt;Node14</title>
<path fill="none" stroke="midnightblue" d="M1500.88,-224.215C1493.92,-209.962 1478.13,-181.987 1455.88,-168 1409.85,-139.068 1348.94,-128.195 1302.11,-124.348"/>
<polygon fill="midnightblue" stroke="midnightblue" points="1302.27,-120.851 1292.04,-123.611 1301.76,-127.832 1302.27,-120.851"/>
</g>
<!-- Node27 -->
<g id="node27" class="node"><title>Node27</title>
<g id="a_node27"><a xlink:href="dji__hotpoint_8hpp.html" target="_top" xlink:title="Implementation of HotPoint (Point of Interest) Missions for DJI OSDK. ">
<polygon fill="white" stroke="black" points="609.379,-224.5 609.379,-243.5 694.379,-243.5 694.379,-224.5 609.379,-224.5"/>
<text text-anchor="middle" x="651.879" y="-231.5" font-family="Helvetica,sans-Serif" font-size="10.00">dji_hotpoint.hpp</text>
</a>
</g>
</g>
<!-- Node26&#45;&gt;Node27 -->
<g id="edge44" class="edge"><title>Node26&#45;&gt;Node27</title>
<path fill="none" stroke="midnightblue" d="M669.411,-280.083C666.567,-272.77 662.449,-262.181 658.919,-253.103"/>
<polygon fill="midnightblue" stroke="midnightblue" points="662.169,-251.803 655.282,-243.751 655.645,-254.34 662.169,-251.803"/>
</g>
<!-- Node29 -->
<g id="node29" class="node"><title>Node29</title>
<g id="a_node29"><a xlink:href="dji__waypoint_8hpp.html" target="_top" xlink:title="Implementation of GPS Waypoint Missions for DJI OSDK. ">
<polygon fill="white" stroke="black" points="502.379,-224.5 502.379,-243.5 591.379,-243.5 591.379,-224.5 502.379,-224.5"/>
<text text-anchor="middle" x="546.879" y="-231.5" font-family="Helvetica,sans-Serif" font-size="10.00">dji_waypoint.hpp</text>
</a>
</g>
</g>
<!-- Node26&#45;&gt;Node29 -->
<g id="edge50" class="edge"><title>Node26&#45;&gt;Node29</title>
<path fill="none" stroke="midnightblue" d="M652.914,-280.444C632.27,-271.596 599.816,-257.687 576.247,-247.586"/>
<polygon fill="midnightblue" stroke="midnightblue" points="577.321,-244.239 566.751,-243.516 574.563,-250.673 577.321,-244.239"/>
</g>
<!-- Node30 -->
<g id="node30" class="node"><title>Node30</title>
<polygon fill="white" stroke="#bfbfbf" points="712.879,-224.5 712.879,-243.5 756.879,-243.5 756.879,-224.5 712.879,-224.5"/>
<text text-anchor="middle" x="734.879" y="-231.5" font-family="Helvetica,sans-Serif" font-size="10.00">vector</text>
</g>
<!-- Node26&#45;&gt;Node30 -->
<g id="edge52" class="edge"><title>Node26&#45;&gt;Node30</title>
<path fill="none" stroke="midnightblue" d="M682.84,-280.324C692.005,-272.341 705.816,-260.313 716.907,-250.653"/>
<polygon fill="midnightblue" stroke="midnightblue" points="719.494,-253.041 724.736,-243.834 714.897,-247.762 719.494,-253.041"/>
</g>
<!-- Node27&#45;&gt;Node17 -->
<g id="edge49" class="edge"><title>Node27&#45;&gt;Node17</title>
<path fill="none" stroke="midnightblue" d="M684.996,-224.444C720.996,-215.142 778.649,-200.246 818.065,-190.062"/>
<polygon fill="midnightblue" stroke="midnightblue" points="819.111,-193.407 827.917,-187.516 817.36,-186.629 819.111,-193.407"/>
</g>
<!-- Node28 -->
<g id="node28" class="node"><title>Node28</title>
<g id="a_node28"><a xlink:href="dji__mission__base_8hpp.html" target="_top" xlink:title="Mission&#45;Base abstract class for DJI OSDK library. ">
<polygon fill="white" stroke="black" points="586.879,-168.5 586.879,-187.5 696.879,-187.5 696.879,-168.5 586.879,-168.5"/>
<text text-anchor="middle" x="641.879" y="-175.5" font-family="Helvetica,sans-Serif" font-size="10.00">dji_mission_base.hpp</text>
</a>
</g>
</g>
<!-- Node27&#45;&gt;Node28 -->
<g id="edge45" class="edge"><title>Node27&#45;&gt;Node28</title>
<path fill="none" stroke="midnightblue" d="M650.228,-224.083C648.902,-216.927 646.997,-206.635 645.34,-197.691"/>
<polygon fill="midnightblue" stroke="midnightblue" points="648.762,-196.947 643.499,-187.751 641.879,-198.221 648.762,-196.947"/>
</g>
<!-- Node28&#45;&gt;Node4 -->
<g id="edge46" class="edge"><title>Node28&#45;&gt;Node4</title>
<path fill="none" stroke="midnightblue" d="M623.974,-168.444C605.625,-159.675 576.873,-145.935 555.785,-135.858"/>
<polygon fill="midnightblue" stroke="midnightblue" points="557.232,-132.67 546.7,-131.516 554.214,-138.986 557.232,-132.67"/>
</g>
<!-- Node28&#45;&gt;Node8 -->
<g id="edge47" class="edge"><title>Node28&#45;&gt;Node8</title>
<path fill="none" stroke="midnightblue" d="M589.273,-168.444C524.457,-157.901 415.46,-140.173 354.532,-130.263"/>
<polygon fill="midnightblue" stroke="midnightblue" points="354.89,-126.775 344.458,-128.624 353.767,-133.684 354.89,-126.775"/>
</g>
<!-- Node28&#45;&gt;Node14 -->
<g id="edge48" class="edge"><title>Node28&#45;&gt;Node14</title>
<path fill="none" stroke="midnightblue" d="M697.01,-169.03C700.008,-168.665 702.979,-168.318 705.879,-168 904.273,-146.222 957.407,-152.72 1159.75,-132.066"/>
<polygon fill="midnightblue" stroke="midnightblue" points="1160.23,-135.536 1169.82,-131.03 1159.51,-128.573 1160.23,-135.536"/>
</g>
<!-- Node29&#45;&gt;Node28 -->
<g id="edge51" class="edge"><title>Node29&#45;&gt;Node28</title>
<path fill="none" stroke="midnightblue" d="M562.142,-224.324C577.1,-215.822 600.134,-202.729 617.606,-192.797"/>
<polygon fill="midnightblue" stroke="midnightblue" points="619.689,-195.639 626.653,-187.655 616.23,-189.553 619.689,-195.639"/>
</g>
<!-- Node31&#45;&gt;Node14 -->
<g id="edge55" class="edge"><title>Node31&#45;&gt;Node14</title>
<path fill="none" stroke="midnightblue" d="M1276.04,-280.49C1280.25,-267.979 1286.63,-243.948 1281.88,-224 1274.33,-192.306 1255.16,-159.285 1242.59,-139.96"/>
<polygon fill="midnightblue" stroke="midnightblue" points="1245.49,-138.01 1237.03,-131.639 1239.67,-141.898 1245.49,-138.01"/>
</g>
<!-- Node32 -->
<g id="node32" class="node"><title>Node32</title>
<polygon fill="white" stroke="#bfbfbf" points="1330.38,-224.5 1330.38,-243.5 1413.38,-243.5 1413.38,-224.5 1330.38,-224.5"/>
<text text-anchor="middle" x="1371.88" y="-231.5" font-family="Helvetica,sans-Serif" font-size="10.00">dji_macros.hpp</text>
</g>
<!-- Node31&#45;&gt;Node32 -->
<g id="edge54" class="edge"><title>Node31&#45;&gt;Node32</title>
<path fill="none" stroke="midnightblue" d="M1288.78,-280.324C1304.52,-271.743 1328.82,-258.486 1347.09,-248.522"/>
<polygon fill="midnightblue" stroke="midnightblue" points="1348.91,-251.516 1356.01,-243.655 1345.56,-245.37 1348.91,-251.516"/>
</g>
<!-- Node33&#45;&gt;Node14 -->
<g id="edge57" class="edge"><title>Node33&#45;&gt;Node14</title>
<path fill="none" stroke="midnightblue" d="M1222.26,-224.443C1227.44,-215.678 1234.89,-201.467 1237.88,-188 1241.34,-172.418 1238.88,-154.341 1235.97,-141.212"/>
<polygon fill="midnightblue" stroke="midnightblue" points="1239.36,-140.358 1233.53,-131.511 1232.57,-142.063 1239.36,-140.358"/>
</g>
<!-- Node36&#45;&gt;Node13 -->
<g id="edge62" class="edge"><title>Node36&#45;&gt;Node13</title>
<path fill="none" stroke="midnightblue" d="M1013.88,-224.075C1013.88,-197.945 1013.88,-121.211 1013.88,-85.577"/>
<polygon fill="midnightblue" stroke="midnightblue" points="1017.38,-85.5681 1013.88,-75.5681 1010.38,-85.5681 1017.38,-85.5681"/>
</g>
<!-- Node36&#45;&gt;Node14 -->
<g id="edge64" class="edge"><title>Node36&#45;&gt;Node14</title>
<path fill="none" stroke="midnightblue" d="M1065.7,-232.207C1106.25,-229.039 1161.95,-218.769 1199.88,-188 1214.27,-176.325 1222.39,-156.38 1226.67,-141.655"/>
<polygon fill="midnightblue" stroke="midnightblue" points="1230.15,-142.192 1229.24,-131.636 1223.37,-140.452 1230.15,-142.192"/>
</g>
<!-- Node36&#45;&gt;Node17 -->
<g id="edge63" class="edge"><title>Node36&#45;&gt;Node17</title>
<path fill="none" stroke="midnightblue" d="M989.636,-224.444C964.008,-215.399 923.394,-201.064 894.64,-190.916"/>
<polygon fill="midnightblue" stroke="midnightblue" points="895.604,-187.544 885.009,-187.516 893.274,-194.145 895.604,-187.544"/>
</g>
<!-- Node38&#45;&gt;Node3 -->
<g id="edge70" class="edge"><title>Node38&#45;&gt;Node3</title>
<path fill="none" stroke="midnightblue" d="M334.526,-280.444C307.61,-271.359 264.883,-256.939 234.792,-246.783"/>
<polygon fill="midnightblue" stroke="midnightblue" points="235.707,-243.398 225.113,-243.516 233.468,-250.031 235.707,-243.398"/>
</g>
<!-- Node38&#45;&gt;Node8 -->
<g id="edge72" class="edge"><title>Node38&#45;&gt;Node8</title>
<path fill="none" stroke="midnightblue" d="M357.163,-280.383C354.319,-271.333 349.738,-256.68 345.879,-244 334.807,-207.617 322.205,-164.965 315.234,-141.258"/>
<polygon fill="midnightblue" stroke="midnightblue" points="318.55,-140.128 312.374,-131.519 311.834,-142.101 318.55,-140.128"/>
</g>
<!-- Node38&#45;&gt;Node13 -->
<g id="edge71" class="edge"><title>Node38&#45;&gt;Node13</title>
<path fill="none" stroke="midnightblue" d="M358.904,-280.499C356.941,-259.434 354.578,-203.933 378.879,-168 406.121,-127.717 426.569,-126.841 472.879,-112 559.631,-84.1979 823.86,-72.7242 948.058,-68.7721"/>
<polygon fill="midnightblue" stroke="midnightblue" points="948.307,-72.2661 958.193,-68.4564 948.089,-65.2695 948.307,-72.2661"/>
</g>
<!-- Node38&#45;&gt;Node17 -->
<g id="edge73" class="edge"><title>Node38&#45;&gt;Node17</title>
<path fill="none" stroke="midnightblue" d="M373.604,-280.32C397.047,-265.956 446.752,-237.491 492.879,-224 624.126,-185.612 665.266,-206.286 805.048,-188.017"/>
<polygon fill="midnightblue" stroke="midnightblue" points="805.845,-191.441 815.286,-186.632 804.907,-184.504 805.845,-191.441"/>
</g>
</g>
</svg>
        <g id="navigator" transform="translate(0 0)" fill="#404254">
                <rect fill="#f2f5e9" fill-opacity="0.5" stroke="#606060" stroke-width=".5" x="0" y="0" width="60" height="60"/>
                <use id="zoomplus" xlink:href="#zoomPlus" x="17" y="9" onmousedown="handleZoom(evt,'in')"/>
                <use id="zoomminus" xlink:href="#zoomMin" x="42" y="9" onmousedown="handleZoom(evt,'out')"/>
                <use id="reset" xlink:href="#resetDef" x="30" y="36" onmousedown="handleReset()"/>
                <g id="arrowUp" xlink:href="#dirArrow" transform="translate(30 24)" onmousedown="handlePan(0,-1)">
                  <use xlink:href="#rim" fill="#404040">
                        <set attributeName="fill" to="#808080" begin="arrowUp.mouseover" end="arrowUp.mouseout"/>
                  </use>
                  <path fill="none" stroke="white" stroke-width="1.5" d="M0,-3.0v7 M-2.5,-0.5L0,-3.0L2.5,-0.5"/>
                </g>
                <g id="arrowRight" xlink:href="#dirArrow" transform="rotate(90) translate(36 -43)" onmousedown="handlePan(1,0)">
                  <use xlink:href="#rim" fill="#404040">
                        <set attributeName="fill" to="#808080" begin="arrowRight.mouseover" end="arrowRight.mouseout"/>
                  </use>
                  <path fill="none" stroke="white" stroke-width="1.5" d="M0,-3.0v7 M-2.5,-0.5L0,-3.0L2.5,-0.5"/>
                </g>
                <g id="arrowDown" xlink:href="#dirArrow" transform="rotate(180) translate(-30 -48)" onmousedown="handlePan(0,1)">
                  <use xlink:href="#rim" fill="#404040">
                        <set attributeName="fill" to="#808080" begin="arrowDown.mouseover" end="arrowDown.mouseout"/>
                  </use>
                  <path fill="none" stroke="white" stroke-width="1.5" d="M0,-3.0v7 M-2.5,-0.5L0,-3.0L2.5,-0.5"/>
                </g>
                <g id="arrowLeft" xlink:href="#dirArrow" transform="rotate(270) translate(-36 17)" onmousedown="handlePan(-1,0)">
                  <use xlink:href="#rim" fill="#404040">
                        <set attributeName="fill" to="#808080" begin="arrowLeft.mouseover" end="arrowLeft.mouseout"/>
                  </use>
                  <path fill="none" stroke="white" stroke-width="1.5" d="M0,-3.0v7 M-2.5,-0.5L0,-3.0L2.5,-0.5"/>
                </g>
        </g>
        <svg viewBox="0 0 15 15" width="100%" height="30px" preserveAspectRatio="xMaxYMin meet">
         <g id="arrow_out" transform="scale(0.3 0.3)">
          <a xlink:href="dji__control_8cpp__incl_org.svg" target="_base">
           <rect id="button" ry="5" rx="5" y="6" x="6" height="38" width="38"
                fill="#f2f5e9" fill-opacity="0.5" stroke="#606060" stroke-width="1.0"/>
           <path id="arrow"
             d="M 11.500037,31.436501 C 11.940474,20.09759 22.043105,11.32322 32.158766,21.979434 L 37.068811,17.246167 C 37.068811,17.246167 37.088388,32 37.088388,32 L 22.160133,31.978069 C 22.160133,31.978069 26.997745,27.140456 26.997745,27.140456 C 18.528582,18.264221 13.291696,25.230495 11.500037,31.436501 z"
             style="fill:#404040;"/>
          </a>
         </g>
        </svg>
</svg>
