<?xml version="1.0" encoding="UTF-8" standalone="no"?>
<!DOCTYPE svg PUBLIC "-//W3C//DTD SVG 1.1//EN"
 "http://www.w3.org/Graphics/SVG/1.1/DTD/svg11.dtd">
<!-- Generated by graphviz version 2.38.0 (20140413.2041)
 -->
<!-- Title: osdk&#45;core/api/src/dji_mobile_communication.cpp Pages: 1 -->
<!--zoomable 431 -->
<svg id="main" version="1.1" xmlns="http://www.w3.org/2000/svg" xmlns:xlink="http://www.w3.org/1999/xlink" xml:space="preserve" onload="init(evt)">
<style type="text/css"><![CDATA[
.edge:hover path { stroke: red; }
.edge:hover polygon { stroke: red; fill: red; }
]]></style>
<script type="text/javascript"><![CDATA[
var edges = document.getElementsByTagName('g');
if (edges && edges.length) {
  for (var i=0;i<edges.length;i++) {
    if (edges[i].id.substr(0,4)=='edge') {
      edges[i].setAttribute('class','edge');
    }
  }
}
]]></script>
        <defs>
                <circle id="rim" cx="0" cy="0" r="7"/>
                <circle id="rim2" cx="0" cy="0" r="3.5"/>
                <g id="zoomPlus">
                        <use xlink:href="#rim" fill="#404040">
                                <set attributeName="fill" to="#808080" begin="zoomplus.mouseover" end="zoomplus.mouseout"/>
                        </use>
                        <path d="M-4,0h8M0,-4v8" fill="none" stroke="white" stroke-width="1.5" pointer-events="none"/>
                </g>
                <g id="zoomMin">
                        <use xlink:href="#rim" fill="#404040">
                                <set attributeName="fill" to="#808080" begin="zoomminus.mouseover" end="zoomminus.mouseout"/>
                        </use>
                        <path d="M-4,0h8" fill="none" stroke="white" stroke-width="1.5" pointer-events="none"/>
                </g>
                <g id="dirArrow">
                        <path fill="none" stroke="white" stroke-width="1.5" d="M0,-3.0v7 M-2.5,-0.5L0,-3.0L2.5,-0.5"/>
                </g>
               <g id="resetDef">
                       <use xlink:href="#rim2" fill="#404040">
                               <set attributeName="fill" to="#808080" begin="reset.mouseover" end="reset.mouseout"/>
                       </use>
               </g>
        </defs>

<script type="text/javascript">
var viewWidth = 1815;
var viewHeight = 431;
var sectionId = 'dynsection-0';
</script>
<script xlink:href="svgpan.js"/>
<svg id="graph" class="graph">
<g id="viewport">
<title>osdk&#45;core/api/src/dji_mobile_communication.cpp</title>
<polygon fill="white" stroke="none" points="-4,4 -4,-427 1810.78,-427 1810.78,4 -4,4"/>
<!-- Node1 -->
<g id="node1" class="node"><title>Node1</title>
<polygon fill="#bfbfbf" stroke="black" points="578.5,-392.5 578.5,-422.5 718.5,-422.5 718.5,-392.5 578.5,-392.5"/>
<text text-anchor="start" x="586.5" y="-410.5" font-family="Helvetica,sans-Serif" font-size="10.00">osdk&#45;core/api/src/dji</text>
<text text-anchor="middle" x="648.5" y="-399.5" font-family="Helvetica,sans-Serif" font-size="10.00">_mobile_communication.cpp</text>
</g>
<!-- Node2 -->
<g id="node2" class="node"><title>Node2</title>
<g id="a_node2"><a xlink:href="dji__mobile__communication_8hpp.html" target="_top" xlink:title="Implementation of DJI Mobile&#45;Onboard SDK Communication (MOC) ">
<polygon fill="white" stroke="black" points="39.5,-280.5 39.5,-299.5 189.5,-299.5 189.5,-280.5 39.5,-280.5"/>
<text text-anchor="middle" x="114.5" y="-287.5" font-family="Helvetica,sans-Serif" font-size="10.00">dji_mobile_communication.hpp</text>
</a>
</g>
</g>
<!-- Node1&#45;&gt;Node2 -->
<g id="edge1" class="edge"><title>Node1&#45;&gt;Node2</title>
<path fill="none" stroke="midnightblue" d="M583.555,-392.453C475.369,-369.053 260.597,-322.6 163.816,-301.667"/>
<polygon fill="midnightblue" stroke="midnightblue" points="164.508,-298.235 153.994,-299.542 163.028,-305.077 164.508,-298.235"/>
</g>
<!-- Node6 -->
<g id="node6" class="node"><title>Node6</title>
<g id="a_node6"><a xlink:href="dji__vehicle_8hpp.html" target="_top" xlink:title="Vehicle API for DJI onboardSDK library. ">
<polygon fill="white" stroke="black" points="810,-336.5 810,-355.5 891,-355.5 891,-336.5 810,-336.5"/>
<text text-anchor="middle" x="850.5" y="-343.5" font-family="Helvetica,sans-Serif" font-size="10.00">dji_vehicle.hpp</text>
</a>
</g>
</g>
<!-- Node1&#45;&gt;Node6 -->
<g id="edge5" class="edge"><title>Node1&#45;&gt;Node6</title>
<path fill="none" stroke="midnightblue" d="M696.115,-392.475C731.421,-382.075 778.94,-368.078 811.892,-358.372"/>
<polygon fill="midnightblue" stroke="midnightblue" points="813.018,-361.689 821.621,-355.506 811.04,-354.975 813.018,-361.689"/>
</g>
<!-- Node3 -->
<g id="node3" class="node"><title>Node3</title>
<polygon fill="white" stroke="#bfbfbf" points="0,-224.5 0,-243.5 83,-243.5 83,-224.5 0,-224.5"/>
<text text-anchor="middle" x="41.5" y="-231.5" font-family="Helvetica,sans-Serif" font-size="10.00">dji_macros.hpp</text>
</g>
<!-- Node2&#45;&gt;Node3 -->
<g id="edge2" class="edge"><title>Node2&#45;&gt;Node3</title>
<path fill="none" stroke="midnightblue" d="M102.771,-280.324C91.6626,-272.107 74.7578,-259.602 61.5167,-249.807"/>
<polygon fill="midnightblue" stroke="midnightblue" points="63.5631,-246.967 53.4421,-243.834 59.4001,-252.595 63.5631,-246.967"/>
</g>
<!-- Node4 -->
<g id="node4" class="node"><title>Node4</title>
<g id="a_node4"><a xlink:href="dji__vehicle__callback_8hpp.html" target="_top" xlink:title="Type definition for new Vehicle&#45;style callbacks. ">
<polygon fill="white" stroke="black" points="296.5,-112.5 296.5,-131.5 418.5,-131.5 418.5,-112.5 296.5,-112.5"/>
<text text-anchor="middle" x="357.5" y="-119.5" font-family="Helvetica,sans-Serif" font-size="10.00">dji_vehicle_callback.hpp</text>
</a>
</g>
</g>
<!-- Node2&#45;&gt;Node4 -->
<g id="edge3" class="edge"><title>Node2&#45;&gt;Node4</title>
<path fill="none" stroke="midnightblue" d="M114.972,-280.4C116.684,-258.106 124.485,-198.094 159.5,-168 178.508,-151.663 237.494,-139.59 286.178,-132.086"/>
<polygon fill="midnightblue" stroke="midnightblue" points="286.708,-135.546 296.077,-130.6 285.668,-128.623 286.708,-135.546"/>
</g>
<!-- Node5 -->
<g id="node5" class="node"><title>Node5</title>
<polygon fill="white" stroke="#bfbfbf" points="461,-56.5 461,-75.5 572,-75.5 572,-56.5 461,-56.5"/>
<text text-anchor="middle" x="516.5" y="-63.5" font-family="Helvetica,sans-Serif" font-size="10.00">dji_open_protocol.hpp</text>
</g>
<!-- Node4&#45;&gt;Node5 -->
<g id="edge4" class="edge"><title>Node4&#45;&gt;Node5</title>
<path fill="none" stroke="midnightblue" d="M382.694,-112.444C409.443,-103.359 451.903,-88.9388 481.805,-78.7831"/>
<polygon fill="midnightblue" stroke="midnightblue" points="483.081,-82.0464 491.424,-75.5164 480.829,-75.4182 483.081,-82.0464"/>
</g>
<!-- Node6&#45;&gt;Node2 -->
<g id="edge51" class="edge"><title>Node6&#45;&gt;Node2</title>
<path fill="none" stroke="midnightblue" d="M809.752,-342.333C709.164,-335.699 441.002,-317.708 217.5,-300 211.711,-299.541 205.74,-299.055 199.726,-298.555"/>
<polygon fill="midnightblue" stroke="midnightblue" points="199.846,-295.053 189.588,-297.703 199.26,-302.028 199.846,-295.053"/>
</g>
<!-- Node6&#45;&gt;Node4 -->
<g id="edge63" class="edge"><title>Node6&#45;&gt;Node4</title>
<path fill="none" stroke="midnightblue" d="M809.877,-344.62C739.654,-342.988 591.645,-335.236 472.5,-300 418.368,-283.991 392.458,-289.094 358.5,-244 335.942,-214.045 344.356,-167.035 351.517,-141.318"/>
<polygon fill="midnightblue" stroke="midnightblue" points="354.878,-142.296 354.416,-131.712 348.176,-140.274 354.878,-142.296"/>
</g>
<!-- Node6&#45;&gt;Node5 -->
<g id="edge54" class="edge"><title>Node6&#45;&gt;Node5</title>
<path fill="none" stroke="midnightblue" d="M809.676,-343.914C758.086,-341.183 667.575,-331.811 597.5,-300 555.47,-280.92 516.5,-281.158 516.5,-235 516.5,-235 516.5,-235 516.5,-177 516.5,-144.948 516.5,-107.643 516.5,-85.7489"/>
<polygon fill="midnightblue" stroke="midnightblue" points="520,-85.5577 516.5,-75.5578 513,-85.5578 520,-85.5577"/>
</g>
<!-- Node7 -->
<g id="node7" class="node"><title>Node7</title>
<polygon fill="white" stroke="#bfbfbf" points="674.5,-112.5 674.5,-131.5 720.5,-131.5 720.5,-112.5 674.5,-112.5"/>
<text text-anchor="middle" x="697.5" y="-119.5" font-family="Helvetica,sans-Serif" font-size="10.00">cstdint</text>
</g>
<!-- Node6&#45;&gt;Node7 -->
<g id="edge6" class="edge"><title>Node6&#45;&gt;Node7</title>
<path fill="none" stroke="midnightblue" d="M834.056,-336.294C807.367,-321.256 754.949,-287.775 728.5,-244 708.847,-211.473 701.574,-166.777 698.941,-141.815"/>
<polygon fill="midnightblue" stroke="midnightblue" points="702.401,-141.208 698.009,-131.567 695.429,-141.843 702.401,-141.208"/>
</g>
<!-- Node8 -->
<g id="node8" class="node"><title>Node8</title>
<g id="a_node8"><a xlink:href="dji__broadcast_8hpp.html" target="_top" xlink:title="Broadcast Telemetry API for DJI onboardSDK library. ">
<polygon fill="white" stroke="black" points="545,-224.5 545,-243.5 638,-243.5 638,-224.5 545,-224.5"/>
<text text-anchor="middle" x="591.5" y="-231.5" font-family="Helvetica,sans-Serif" font-size="10.00">dji_broadcast.hpp</text>
</a>
</g>
</g>
<!-- Node6&#45;&gt;Node8 -->
<g id="edge7" class="edge"><title>Node6&#45;&gt;Node8</title>
<path fill="none" stroke="midnightblue" d="M809.683,-341.978C750.362,-336.807 644.256,-324.376 615.5,-300 601.899,-288.471 596.002,-268.503 593.448,-253.733"/>
<polygon fill="midnightblue" stroke="midnightblue" points="596.895,-253.111 592.074,-243.677 589.96,-254.059 596.895,-253.111"/>
</g>
<!-- Node10 -->
<g id="node10" class="node"><title>Node10</title>
<g id="a_node10"><a xlink:href="dji__type_8hpp.html" target="_top" xlink:title="Data type and Data Structure definitions for use throughout DJI OSDK. ">
<polygon fill="white" stroke="black" points="1291,-112.5 1291,-131.5 1360,-131.5 1360,-112.5 1291,-112.5"/>
<text text-anchor="middle" x="1325.5" y="-119.5" font-family="Helvetica,sans-Serif" font-size="10.00">dji_type.hpp</text>
</a>
</g>
</g>
<!-- Node6&#45;&gt;Node10 -->
<g id="edge62" class="edge"><title>Node6&#45;&gt;Node10</title>
<path fill="none" stroke="midnightblue" d="M891.235,-339.565C932.246,-333.228 996.808,-320.866 1049.5,-300 1065.8,-293.545 1066.87,-285.552 1083.5,-280 1218.42,-234.957 1283.78,-323.826 1401.5,-244 1431.56,-223.62 1451.54,-198.282 1431.5,-168 1423.61,-156.084 1391.48,-143.445 1364.65,-134.606"/>
<polygon fill="midnightblue" stroke="midnightblue" points="1365.64,-131.25 1355.05,-131.529 1363.51,-137.916 1365.64,-131.25"/>
</g>
<!-- Node13 -->
<g id="node13" class="node"><title>Node13</title>
<g id="a_node13"><a xlink:href="dji__camera_8hpp.html" target="_top" xlink:title="Camera/Gimbal API for DJI onboardSDK library. ">
<polygon fill="white" stroke="black" points="1614,-168.5 1614,-187.5 1697,-187.5 1697,-168.5 1614,-168.5"/>
<text text-anchor="middle" x="1655.5" y="-175.5" font-family="Helvetica,sans-Serif" font-size="10.00">dji_camera.hpp</text>
</a>
</g>
</g>
<!-- Node6&#45;&gt;Node13 -->
<g id="edge13" class="edge"><title>Node6&#45;&gt;Node13</title>
<path fill="none" stroke="midnightblue" d="M891.269,-344.559C1065.7,-342.475 1741.71,-332.331 1772.5,-300 1793.04,-278.433 1765.51,-245.899 1743.5,-224 1728.93,-209.5 1708.72,-198.716 1691.34,-191.345"/>
<polygon fill="midnightblue" stroke="midnightblue" points="1692.62,-188.086 1682.03,-187.6 1690,-194.58 1692.62,-188.086"/>
</g>
<!-- Node14 -->
<g id="node14" class="node"><title>Node14</title>
<g id="a_node14"><a xlink:href="dji__command_8hpp.html" target="_top" xlink:title="All DJI OSDK OpenProtocol Command IDs. ">
<polygon fill="white" stroke="black" points="1379,-112.5 1379,-131.5 1472,-131.5 1472,-112.5 1379,-112.5"/>
<text text-anchor="middle" x="1425.5" y="-119.5" font-family="Helvetica,sans-Serif" font-size="10.00">dji_command.hpp</text>
</a>
</g>
</g>
<!-- Node6&#45;&gt;Node14 -->
<g id="edge20" class="edge"><title>Node6&#45;&gt;Node14</title>
<path fill="none" stroke="midnightblue" d="M891.171,-344.599C1067.57,-342.667 1759.04,-333.001 1790.5,-300 1838.65,-249.494 1768.42,-198.161 1705.5,-168 1633.77,-133.62 1541.07,-124.711 1482.43,-122.817"/>
<polygon fill="midnightblue" stroke="midnightblue" points="1482.33,-119.313 1472.24,-122.548 1482.15,-126.311 1482.33,-119.313"/>
</g>
<!-- Node16 -->
<g id="node16" class="node"><title>Node16</title>
<polygon fill="white" stroke="#bfbfbf" points="1135.5,-280.5 1135.5,-299.5 1247.5,-299.5 1247.5,-280.5 1135.5,-280.5"/>
<text text-anchor="middle" x="1191.5" y="-287.5" font-family="Helvetica,sans-Serif" font-size="10.00">dji_circular_buffer.hpp</text>
</g>
<!-- Node6&#45;&gt;Node16 -->
<g id="edge19" class="edge"><title>Node6&#45;&gt;Node16</title>
<path fill="none" stroke="midnightblue" d="M891.294,-338.54C949.93,-329.254 1058.58,-312.048 1127.84,-301.081"/>
<polygon fill="midnightblue" stroke="midnightblue" points="1128.43,-304.531 1137.76,-299.509 1127.34,-297.617 1128.43,-304.531"/>
</g>
<!-- Node17 -->
<g id="node17" class="node"><title>Node17</title>
<g id="a_node17"><a xlink:href="dji__control_8hpp.html" target="_top" xlink:title="Control API for DJI OSDK library. ">
<polygon fill="white" stroke="black" points="624.5,-280.5 624.5,-299.5 704.5,-299.5 704.5,-280.5 624.5,-280.5"/>
<text text-anchor="middle" x="664.5" y="-287.5" font-family="Helvetica,sans-Serif" font-size="10.00">dji_control.hpp</text>
</a>
</g>
</g>
<!-- Node6&#45;&gt;Node17 -->
<g id="edge21" class="edge"><title>Node6&#45;&gt;Node17</title>
<path fill="none" stroke="midnightblue" d="M821.028,-336.444C789.329,-327.241 738.768,-312.562 703.725,-302.388"/>
<polygon fill="midnightblue" stroke="midnightblue" points="704.414,-298.943 693.834,-299.516 702.462,-305.666 704.414,-298.943"/>
</g>
<!-- Node20 -->
<g id="node20" class="node"><title>Node20</title>
<g id="a_node20"><a xlink:href="dji__version_8hpp.html" target="_top" xlink:title="Drone/SDK Version definition for DJI onboardSDK library. ">
<polygon fill="white" stroke="black" points="918.5,-168.5 918.5,-187.5 1000.5,-187.5 1000.5,-168.5 918.5,-168.5"/>
<text text-anchor="middle" x="959.5" y="-175.5" font-family="Helvetica,sans-Serif" font-size="10.00">dji_version.hpp</text>
</a>
</g>
</g>
<!-- Node6&#45;&gt;Node20 -->
<g id="edge64" class="edge"><title>Node6&#45;&gt;Node20</title>
<path fill="none" stroke="midnightblue" d="M833.952,-336.333C813.831,-324.569 784.011,-302.432 796.5,-280 822.701,-232.942 880.888,-205.024 920.167,-190.849"/>
<polygon fill="midnightblue" stroke="midnightblue" points="921.414,-194.121 929.715,-187.537 919.12,-187.507 921.414,-194.121"/>
</g>
<!-- Node22 -->
<g id="node22" class="node"><title>Node22</title>
<g id="a_node22"><a xlink:href="dji__gimbal_8hpp.html" target="_top" xlink:title="Gimbal API for OSDK library. ">
<polygon fill="white" stroke="black" points="1517,-168.5 1517,-187.5 1596,-187.5 1596,-168.5 1517,-168.5"/>
<text text-anchor="middle" x="1556.5" y="-175.5" font-family="Helvetica,sans-Serif" font-size="10.00">dji_gimbal.hpp</text>
</a>
</g>
</g>
<!-- Node6&#45;&gt;Node22 -->
<g id="edge34" class="edge"><title>Node6&#45;&gt;Node22</title>
<path fill="none" stroke="midnightblue" d="M891.251,-344.513C1063.26,-342.262 1722.44,-331.594 1752.5,-300 1803.24,-246.663 1679.65,-207.465 1606.22,-189.653"/>
<polygon fill="midnightblue" stroke="midnightblue" points="1606.75,-186.182 1596.21,-187.282 1605.13,-192.993 1606.75,-186.182"/>
</g>
<!-- Node23 -->
<g id="node23" class="node"><title>Node23</title>
<polygon fill="white" stroke="#bfbfbf" points="1265.5,-280.5 1265.5,-299.5 1363.5,-299.5 1363.5,-280.5 1265.5,-280.5"/>
<text text-anchor="middle" x="1314.5" y="-287.5" font-family="Helvetica,sans-Serif" font-size="10.00">dji_hard_driver.hpp</text>
</g>
<!-- Node6&#45;&gt;Node23 -->
<g id="edge37" class="edge"><title>Node6&#45;&gt;Node23</title>
<path fill="none" stroke="midnightblue" d="M891.198,-341.082C962.689,-334.069 1115.71,-318.486 1255.44,-300.09"/>
<polygon fill="midnightblue" stroke="midnightblue" points="1256.02,-303.544 1265.47,-298.761 1255.1,-296.605 1256.02,-303.544"/>
</g>
<!-- Node24 -->
<g id="node24" class="node"><title>Node24</title>
<g id="a_node24"><a xlink:href="dji__hardware__sync_8hpp.html" target="_top" xlink:title="Hardware Sync API for DJI OSDK. ">
<polygon fill="white" stroke="black" points="1449.5,-224.5 1449.5,-243.5 1565.5,-243.5 1565.5,-224.5 1449.5,-224.5"/>
<text text-anchor="middle" x="1507.5" y="-231.5" font-family="Helvetica,sans-Serif" font-size="10.00">dji_hardware_sync.hpp</text>
</a>
</g>
</g>
<!-- Node6&#45;&gt;Node24 -->
<g id="edge38" class="edge"><title>Node6&#45;&gt;Node24</title>
<path fill="none" stroke="midnightblue" d="M891.246,-340.204C938.358,-333.959 1017.85,-321.253 1083.5,-300 1103.55,-293.509 1106.22,-285.737 1126.5,-280 1259.54,-242.366 1298.23,-260.575 1435.5,-244 1436.77,-243.847 1438.05,-243.692 1439.33,-243.536"/>
<polygon fill="midnightblue" stroke="midnightblue" points="1439.84,-246.999 1449.35,-242.312 1439,-240.051 1439.84,-246.999"/>
</g>
<!-- Node25 -->
<g id="node25" class="node"><title>Node25</title>
<g id="a_node25"><a xlink:href="dji__mfio_8hpp.html" target="_top" xlink:title="MFIO API for DJI OSDK library. ">
<polygon fill="white" stroke="black" points="147,-224.5 147,-243.5 216,-243.5 216,-224.5 147,-224.5"/>
<text text-anchor="middle" x="181.5" y="-231.5" font-family="Helvetica,sans-Serif" font-size="10.00">dji_mfio.hpp</text>
</a>
</g>
</g>
<!-- Node6&#45;&gt;Node25 -->
<g id="edge40" class="edge"><title>Node6&#45;&gt;Node25</title>
<path fill="none" stroke="midnightblue" d="M809.637,-344.988C693.313,-344.467 362.36,-339.459 262.5,-300 235.654,-289.392 210.708,-266.631 195.784,-251.066"/>
<polygon fill="midnightblue" stroke="midnightblue" points="198.303,-248.636 188.936,-243.685 193.171,-253.397 198.303,-248.636"/>
</g>
<!-- Node26 -->
<g id="node26" class="node"><title>Node26</title>
<g id="a_node26"><a xlink:href="dji__mission__manager_8hpp.html" target="_top" xlink:title="Mission&#45;Manager API for DJI OSDK library. ">
<polygon fill="white" stroke="black" points="914,-280.5 914,-299.5 1041,-299.5 1041,-280.5 914,-280.5"/>
<text text-anchor="middle" x="977.5" y="-287.5" font-family="Helvetica,sans-Serif" font-size="10.00">dji_mission_manager.hpp</text>
</a>
</g>
</g>
<!-- Node6&#45;&gt;Node26 -->
<g id="edge42" class="edge"><title>Node6&#45;&gt;Node26</title>
<path fill="none" stroke="midnightblue" d="M870.624,-336.444C891.524,-327.557 924.435,-313.563 948.216,-303.451"/>
<polygon fill="midnightblue" stroke="midnightblue" points="949.638,-306.65 957.471,-299.516 946.898,-300.208 949.638,-306.65"/>
</g>
<!-- Node30 -->
<g id="node30" class="node"><title>Node30</title>
<g id="a_node30"><a xlink:href="dji__mobile__device_8hpp.html" target="_top" xlink:title="Implementation of DJI Mobile Device Abstraction. ">
<polygon fill="white" stroke="black" points="178,-168.5 178,-187.5 291,-187.5 291,-168.5 178,-168.5"/>
<text text-anchor="middle" x="234.5" y="-175.5" font-family="Helvetica,sans-Serif" font-size="10.00">dji_mobile_device.hpp</text>
</a>
</g>
</g>
<!-- Node6&#45;&gt;Node30 -->
<g id="edge52" class="edge"><title>Node6&#45;&gt;Node30</title>
<path fill="none" stroke="midnightblue" d="M809.748,-343.805C690.322,-340.003 346.894,-326.832 304.5,-300 267.192,-276.386 247.557,-225.224 239.319,-197.595"/>
<polygon fill="midnightblue" stroke="midnightblue" points="242.603,-196.342 236.546,-187.649 235.86,-198.222 242.603,-196.342"/>
</g>
<!-- Node31 -->
<g id="node31" class="node"><title>Node31</title>
<polygon fill="white" stroke="#bfbfbf" points="1381.5,-280.5 1381.5,-299.5 1509.5,-299.5 1509.5,-280.5 1381.5,-280.5"/>
<text text-anchor="middle" x="1445.5" y="-287.5" font-family="Helvetica,sans-Serif" font-size="10.00">dji_platform_manager.hpp</text>
</g>
<!-- Node6&#45;&gt;Node31 -->
<g id="edge55" class="edge"><title>Node6&#45;&gt;Node31</title>
<path fill="none" stroke="midnightblue" d="M891.159,-342.005C977.483,-335.537 1185.67,-319.355 1371.2,-300.101"/>
<polygon fill="midnightblue" stroke="midnightblue" points="1371.84,-303.554 1381.42,-299.035 1371.11,-296.592 1371.84,-303.554"/>
</g>
<!-- Node32 -->
<g id="node32" class="node"><title>Node32</title>
<g id="a_node32"><a xlink:href="dji__status_8hpp.html" target="_top" xlink:title="Status information for DJI Vehicle. ">
<polygon fill="white" stroke="black" points="1528,-280.5 1528,-299.5 1605,-299.5 1605,-280.5 1528,-280.5"/>
<text text-anchor="middle" x="1566.5" y="-287.5" font-family="Helvetica,sans-Serif" font-size="10.00">dji_status.hpp</text>
</a>
</g>
</g>
<!-- Node6&#45;&gt;Node32 -->
<g id="edge56" class="edge"><title>Node6&#45;&gt;Node32</title>
<path fill="none" stroke="midnightblue" d="M891.327,-343.928C994.53,-340.858 1274.33,-330.31 1517.69,-299.939"/>
<polygon fill="midnightblue" stroke="midnightblue" points="1518.31,-303.389 1527.79,-298.664 1517.43,-296.444 1518.31,-303.389"/>
</g>
<!-- Node33 -->
<g id="node33" class="node"><title>Node33</title>
<g id="a_node33"><a xlink:href="dji__subscription_8hpp.html" target="_top" xlink:title="Telemetry Subscription API for DJI OSDK library. ">
<polygon fill="white" stroke="black" points="385,-224.5 385,-243.5 488,-243.5 488,-224.5 385,-224.5"/>
<text text-anchor="middle" x="436.5" y="-231.5" font-family="Helvetica,sans-Serif" font-size="10.00">dji_subscription.hpp</text>
</a>
</g>
</g>
<!-- Node6&#45;&gt;Node33 -->
<g id="edge57" class="edge"><title>Node6&#45;&gt;Node33</title>
<path fill="none" stroke="midnightblue" d="M809.736,-342.982C729.864,-338.503 555.901,-326.006 502.5,-300 479.777,-288.934 460.08,-266.959 448.257,-251.639"/>
<polygon fill="midnightblue" stroke="midnightblue" points="451.008,-249.472 442.243,-243.52 445.383,-253.639 451.008,-249.472"/>
</g>
<!-- Node34 -->
<g id="node34" class="node"><title>Node34</title>
<polygon fill="white" stroke="#bfbfbf" points="1623.5,-280.5 1623.5,-299.5 1743.5,-299.5 1743.5,-280.5 1623.5,-280.5"/>
<text text-anchor="middle" x="1683.5" y="-287.5" font-family="Helvetica,sans-Serif" font-size="10.00">dji_thread_manager.hpp</text>
</g>
<!-- Node6&#45;&gt;Node34 -->
<g id="edge61" class="edge"><title>Node6&#45;&gt;Node34</title>
<path fill="none" stroke="midnightblue" d="M891.106,-343.592C1003.82,-339.473 1330.26,-326.119 1613.16,-299.957"/>
<polygon fill="midnightblue" stroke="midnightblue" points="1613.57,-303.434 1623.2,-299.021 1612.92,-296.464 1613.57,-303.434"/>
</g>
<!-- Node35 -->
<g id="node35" class="node"><title>Node35</title>
<g id="a_node35"><a xlink:href="dji__virtual__rc_8hpp.html" target="_top" xlink:title="Virtual Radio Control API for DJI onboardSDK library. ">
<polygon fill="white" stroke="black" points="805.5,-280.5 805.5,-299.5 895.5,-299.5 895.5,-280.5 805.5,-280.5"/>
<text text-anchor="middle" x="850.5" y="-287.5" font-family="Helvetica,sans-Serif" font-size="10.00">dji_virtual_rc.hpp</text>
</a>
</g>
</g>
<!-- Node6&#45;&gt;Node35 -->
<g id="edge65" class="edge"><title>Node6&#45;&gt;Node35</title>
<path fill="none" stroke="midnightblue" d="M850.5,-336.083C850.5,-329.006 850.5,-318.861 850.5,-309.986"/>
<polygon fill="midnightblue" stroke="midnightblue" points="854,-309.751 850.5,-299.751 847,-309.751 854,-309.751"/>
</g>
<!-- Node8&#45;&gt;Node4 -->
<g id="edge12" class="edge"><title>Node8&#45;&gt;Node4</title>
<path fill="none" stroke="midnightblue" d="M573.138,-224.368C532.215,-205.131 433.333,-158.648 385.009,-135.931"/>
<polygon fill="midnightblue" stroke="midnightblue" points="386.315,-132.678 375.776,-131.591 383.337,-139.013 386.315,-132.678"/>
</g>
<!-- Node9 -->
<g id="node9" class="node"><title>Node9</title>
<g id="a_node9"><a xlink:href="dji__telemetry_8hpp.html" target="_top" xlink:title="Enumeration of all telemetry data types, structures and maps. ">
<polygon fill="white" stroke="black" points="809,-168.5 809,-187.5 900,-187.5 900,-168.5 809,-168.5"/>
<text text-anchor="middle" x="854.5" y="-175.5" font-family="Helvetica,sans-Serif" font-size="10.00">dji_telemetry.hpp</text>
</a>
</g>
</g>
<!-- Node8&#45;&gt;Node9 -->
<g id="edge8" class="edge"><title>Node8&#45;&gt;Node9</title>
<path fill="none" stroke="midnightblue" d="M633.173,-224.444C679.245,-214.984 753.496,-199.738 803.131,-189.547"/>
<polygon fill="midnightblue" stroke="midnightblue" points="803.93,-192.956 813.022,-187.516 802.522,-186.099 803.93,-192.956"/>
</g>
<!-- Node9&#45;&gt;Node10 -->
<g id="edge9" class="edge"><title>Node9&#45;&gt;Node10</title>
<path fill="none" stroke="midnightblue" d="M900.09,-169.344C903.272,-168.87 906.432,-168.417 909.5,-168 1044.25,-149.701 1204.37,-134.102 1280.7,-127.039"/>
<polygon fill="midnightblue" stroke="midnightblue" points="1281.27,-130.502 1290.91,-126.1 1280.63,-123.531 1281.27,-130.502"/>
</g>
<!-- Node11 -->
<g id="node11" class="node"><title>Node11</title>
<polygon fill="white" stroke="#bfbfbf" points="1279,-56.5 1279,-75.5 1322,-75.5 1322,-56.5 1279,-56.5"/>
<text text-anchor="middle" x="1300.5" y="-63.5" font-family="Helvetica,sans-Serif" font-size="10.00">cstdio</text>
</g>
<!-- Node10&#45;&gt;Node11 -->
<g id="edge10" class="edge"><title>Node10&#45;&gt;Node11</title>
<path fill="none" stroke="midnightblue" d="M1321.37,-112.083C1317.99,-104.77 1313.08,-94.1814 1308.88,-85.1034"/>
<polygon fill="midnightblue" stroke="midnightblue" points="1311.93,-83.3553 1304.55,-75.7511 1305.58,-86.2962 1311.93,-83.3553"/>
</g>
<!-- Node12 -->
<g id="node12" class="node"><title>Node12</title>
<polygon fill="white" stroke="#bfbfbf" points="1364,-0.5 1364,-19.5 1413,-19.5 1413,-0.5 1364,-0.5"/>
<text text-anchor="middle" x="1388.5" y="-7.5" font-family="Helvetica,sans-Serif" font-size="10.00">stdint.h</text>
</g>
<!-- Node10&#45;&gt;Node12 -->
<g id="edge11" class="edge"><title>Node10&#45;&gt;Node12</title>
<path fill="none" stroke="midnightblue" d="M1330.44,-112.368C1340.79,-94.2957 1364.92,-52.1764 1378.59,-28.3074"/>
<polygon fill="midnightblue" stroke="midnightblue" points="1381.65,-30.0085 1383.58,-19.5914 1375.57,-26.5295 1381.65,-30.0085"/>
</g>
<!-- Node13&#45;&gt;Node10 -->
<g id="edge18" class="edge"><title>Node13&#45;&gt;Node10</title>
<path fill="none" stroke="midnightblue" d="M1613.76,-169.556C1610.63,-169.021 1607.52,-168.497 1604.5,-168 1503.4,-151.338 1475.2,-150.622 1370.13,-132.032"/>
<polygon fill="midnightblue" stroke="midnightblue" points="1370.51,-128.546 1360.06,-130.237 1369.29,-135.437 1370.51,-128.546"/>
</g>
<!-- Node13&#45;&gt;Node14 -->
<g id="edge14" class="edge"><title>Node13&#45;&gt;Node14</title>
<path fill="none" stroke="midnightblue" d="M1619.06,-168.444C1579.1,-159.063 1514.91,-143.993 1471.52,-133.804"/>
<polygon fill="midnightblue" stroke="midnightblue" points="1472.31,-130.395 1461.77,-131.516 1470.71,-137.21 1472.31,-130.395"/>
</g>
<!-- Node14&#45;&gt;Node12 -->
<g id="edge17" class="edge"><title>Node14&#45;&gt;Node12</title>
<path fill="none" stroke="midnightblue" d="M1421.8,-112.466C1417.98,-103.483 1411.95,-88.8848 1407.5,-76 1402.16,-60.5457 1397.02,-42.7011 1393.43,-29.6234"/>
<polygon fill="midnightblue" stroke="midnightblue" points="1396.8,-28.6606 1390.81,-19.9164 1390.04,-30.4827 1396.8,-28.6606"/>
</g>
<!-- Node15 -->
<g id="node15" class="node"><title>Node15</title>
<g id="a_node15"><a xlink:href="dji__error_8hpp.html" target="_top" xlink:title="All DJI OSDK OpenProtocol ACK Error Codes. ">
<polygon fill="white" stroke="black" points="1416.5,-56.5 1416.5,-75.5 1486.5,-75.5 1486.5,-56.5 1416.5,-56.5"/>
<text text-anchor="middle" x="1451.5" y="-63.5" font-family="Helvetica,sans-Serif" font-size="10.00">dji_error.hpp</text>
</a>
</g>
</g>
<!-- Node14&#45;&gt;Node15 -->
<g id="edge15" class="edge"><title>Node14&#45;&gt;Node15</title>
<path fill="none" stroke="midnightblue" d="M1429.79,-112.083C1433.35,-104.691 1438.52,-93.9533 1442.92,-84.8111"/>
<polygon fill="midnightblue" stroke="midnightblue" points="1446.1,-86.2795 1447.29,-75.7511 1439.79,-83.2427 1446.1,-86.2795"/>
</g>
<!-- Node15&#45;&gt;Node12 -->
<g id="edge16" class="edge"><title>Node15&#45;&gt;Node12</title>
<path fill="none" stroke="midnightblue" d="M1441.38,-56.324C1431.97,-48.2631 1417.76,-36.0765 1406.43,-26.3695"/>
<polygon fill="midnightblue" stroke="midnightblue" points="1408.68,-23.6844 1398.81,-19.8339 1404.12,-28.9993 1408.68,-23.6844"/>
</g>
<!-- Node17&#45;&gt;Node4 -->
<g id="edge33" class="edge"><title>Node17&#45;&gt;Node4</title>
<path fill="none" stroke="midnightblue" d="M624.397,-288.417C553.35,-286.5 409.628,-278.361 375.5,-244 348.654,-216.971 350.592,-168.414 354.157,-141.767"/>
<polygon fill="midnightblue" stroke="midnightblue" points="357.626,-142.235 355.705,-131.815 350.71,-141.158 357.626,-142.235"/>
</g>
<!-- Node17&#45;&gt;Node5 -->
<g id="edge31" class="edge"><title>Node17&#45;&gt;Node5</title>
<path fill="none" stroke="midnightblue" d="M663.26,-280.156C661.188,-267.23 656.249,-242.687 646.5,-224 615.958,-165.46 560.88,-108.854 533.255,-82.4586"/>
<polygon fill="midnightblue" stroke="midnightblue" points="535.605,-79.8637 525.927,-75.5524 530.804,-84.958 535.605,-79.8637"/>
</g>
<!-- Node17&#45;&gt;Node10 -->
<g id="edge32" class="edge"><title>Node17&#45;&gt;Node10</title>
<path fill="none" stroke="midnightblue" d="M670.872,-280.24C688.341,-257.01 739.698,-193.854 799.5,-168 885.481,-130.829 1169.5,-124.328 1280.49,-123.217"/>
<polygon fill="midnightblue" stroke="midnightblue" points="1280.71,-126.715 1290.68,-123.126 1280.65,-119.716 1280.71,-126.715"/>
</g>
<!-- Node18 -->
<g id="node18" class="node"><title>Node18</title>
<g id="a_node18"><a xlink:href="dji__ack_8hpp.html" target="_top" xlink:title="All DJI OSDK ACK parsing. ">
<polygon fill="white" stroke="black" points="1003.5,-224.5 1003.5,-243.5 1069.5,-243.5 1069.5,-224.5 1003.5,-224.5"/>
<text text-anchor="middle" x="1036.5" y="-231.5" font-family="Helvetica,sans-Serif" font-size="10.00">dji_ack.hpp</text>
</a>
</g>
</g>
<!-- Node17&#45;&gt;Node18 -->
<g id="edge22" class="edge"><title>Node17&#45;&gt;Node18</title>
<path fill="none" stroke="midnightblue" d="M704.664,-283.17C775.127,-272.941 920.42,-251.85 993.103,-241.3"/>
<polygon fill="midnightblue" stroke="midnightblue" points="993.889,-244.722 1003.28,-239.822 992.883,-237.795 993.889,-244.722"/>
</g>
<!-- Node18&#45;&gt;Node10 -->
<g id="edge26" class="edge"><title>Node18&#45;&gt;Node10</title>
<path fill="none" stroke="midnightblue" d="M1069.54,-224.917C1100.87,-216.87 1149.04,-203.505 1189.5,-188 1195.03,-185.88 1260.83,-154.214 1298.84,-135.877"/>
<polygon fill="midnightblue" stroke="midnightblue" points="1300.36,-139.028 1307.85,-131.529 1297.32,-132.723 1300.36,-139.028"/>
</g>
<!-- Node18&#45;&gt;Node14 -->
<g id="edge23" class="edge"><title>Node18&#45;&gt;Node14</title>
<path fill="none" stroke="midnightblue" d="M1069.8,-225.781C1107.35,-217.457 1170.13,-202.985 1223.5,-188 1283.17,-171.245 1351.66,-148.439 1391.6,-134.771"/>
<polygon fill="midnightblue" stroke="midnightblue" points="1392.79,-138.061 1401.12,-131.503 1390.52,-131.441 1392.79,-138.061"/>
</g>
<!-- Node19 -->
<g id="node19" class="node"><title>Node19</title>
<g id="a_node19"><a xlink:href="dji__mission__type_8hpp.html" target="_top" xlink:title="Mission related data struct for DJI OSDK library. ">
<polygon fill="white" stroke="black" points="1072.5,-168.5 1072.5,-187.5 1180.5,-187.5 1180.5,-168.5 1072.5,-168.5"/>
<text text-anchor="middle" x="1126.5" y="-175.5" font-family="Helvetica,sans-Serif" font-size="10.00">dji_mission_type.hpp</text>
</a>
</g>
</g>
<!-- Node18&#45;&gt;Node19 -->
<g id="edge24" class="edge"><title>Node18&#45;&gt;Node19</title>
<path fill="none" stroke="midnightblue" d="M1050.96,-224.324C1065,-215.9 1086.55,-202.971 1103.04,-193.074"/>
<polygon fill="midnightblue" stroke="midnightblue" points="1105.3,-195.801 1112.08,-187.655 1101.7,-189.798 1105.3,-195.801"/>
</g>
<!-- Node18&#45;&gt;Node20 -->
<g id="edge27" class="edge"><title>Node18&#45;&gt;Node20</title>
<path fill="none" stroke="midnightblue" d="M1024.13,-224.324C1012.34,-216.058 994.368,-203.453 980.364,-193.632"/>
<polygon fill="midnightblue" stroke="midnightblue" points="982.038,-190.531 971.841,-187.655 978.018,-196.262 982.038,-190.531"/>
</g>
<!-- Node21 -->
<g id="node21" class="node"><title>Node21</title>
<polygon fill="white" stroke="#bfbfbf" points="1019,-168.5 1019,-187.5 1054,-187.5 1054,-168.5 1019,-168.5"/>
<text text-anchor="middle" x="1036.5" y="-175.5" font-family="Helvetica,sans-Serif" font-size="10.00">map</text>
</g>
<!-- Node18&#45;&gt;Node21 -->
<g id="edge30" class="edge"><title>Node18&#45;&gt;Node21</title>
<path fill="none" stroke="midnightblue" d="M1036.5,-224.083C1036.5,-217.006 1036.5,-206.861 1036.5,-197.986"/>
<polygon fill="midnightblue" stroke="midnightblue" points="1040,-197.751 1036.5,-187.751 1033,-197.751 1040,-197.751"/>
</g>
<!-- Node19&#45;&gt;Node10 -->
<g id="edge25" class="edge"><title>Node19&#45;&gt;Node10</title>
<path fill="none" stroke="midnightblue" d="M1158.03,-168.444C1192.09,-159.201 1246.51,-144.436 1284.02,-134.257"/>
<polygon fill="midnightblue" stroke="midnightblue" points="1285.38,-137.513 1294.12,-131.516 1283.55,-130.758 1285.38,-137.513"/>
</g>
<!-- Node20&#45;&gt;Node7 -->
<g id="edge29" class="edge"><title>Node20&#45;&gt;Node7</title>
<path fill="none" stroke="midnightblue" d="M918.274,-168.503C866.317,-157.794 778.057,-139.603 730.387,-129.778"/>
<polygon fill="midnightblue" stroke="midnightblue" points="731.08,-126.348 720.58,-127.757 729.667,-133.204 731.08,-126.348"/>
</g>
<!-- Node20&#45;&gt;Node14 -->
<g id="edge28" class="edge"><title>Node20&#45;&gt;Node14</title>
<path fill="none" stroke="midnightblue" d="M1000.66,-169.328C1003.65,-168.852 1006.62,-168.403 1009.5,-168 1168.31,-145.779 1209.46,-152.513 1368.5,-132 1368.61,-131.986 1368.71,-131.973 1368.82,-131.959"/>
<polygon fill="midnightblue" stroke="midnightblue" points="1369.44,-135.407 1378.87,-130.583 1368.49,-128.471 1369.44,-135.407"/>
</g>
<!-- Node22&#45;&gt;Node10 -->
<g id="edge36" class="edge"><title>Node22&#45;&gt;Node10</title>
<path fill="none" stroke="midnightblue" d="M1519.9,-168.444C1479.18,-158.925 1413.4,-143.548 1369.81,-133.357"/>
<polygon fill="midnightblue" stroke="midnightblue" points="1370.58,-129.944 1360.04,-131.075 1368.99,-136.76 1370.58,-129.944"/>
</g>
<!-- Node22&#45;&gt;Node14 -->
<g id="edge35" class="edge"><title>Node22&#45;&gt;Node14</title>
<path fill="none" stroke="midnightblue" d="M1535.74,-168.444C1514.18,-159.557 1480.24,-145.563 1455.71,-135.451"/>
<polygon fill="midnightblue" stroke="midnightblue" points="1456.74,-132.092 1446.16,-131.516 1454.07,-138.563 1456.74,-132.092"/>
</g>
<!-- Node24&#45;&gt;Node10 -->
<g id="edge39" class="edge"><title>Node24&#45;&gt;Node10</title>
<path fill="none" stroke="midnightblue" d="M1504.11,-224.493C1498.16,-210.639 1484.54,-183.225 1464.5,-168 1449.43,-156.548 1404.67,-143.152 1369.98,-133.972"/>
<polygon fill="midnightblue" stroke="midnightblue" points="1370.6,-130.516 1360.04,-131.383 1368.83,-137.29 1370.6,-130.516"/>
</g>
<!-- Node25&#45;&gt;Node4 -->
<g id="edge41" class="edge"><title>Node25&#45;&gt;Node4</title>
<path fill="none" stroke="midnightblue" d="M175.879,-224.411C167.833,-210.926 155.375,-184.617 168.5,-168 183.236,-149.343 239.056,-137.588 286.243,-130.791"/>
<polygon fill="midnightblue" stroke="midnightblue" points="286.738,-134.256 296.163,-129.415 285.777,-127.322 286.738,-134.256"/>
</g>
<!-- Node27 -->
<g id="node27" class="node"><title>Node27</title>
<g id="a_node27"><a xlink:href="dji__hotpoint_8hpp.html" target="_top" xlink:title="Implementation of HotPoint (Point of Interest) Missions for DJI OSDK. ">
<polygon fill="white" stroke="black" points="1201,-224.5 1201,-243.5 1286,-243.5 1286,-224.5 1201,-224.5"/>
<text text-anchor="middle" x="1243.5" y="-231.5" font-family="Helvetica,sans-Serif" font-size="10.00">dji_hotpoint.hpp</text>
</a>
</g>
</g>
<!-- Node26&#45;&gt;Node27 -->
<g id="edge43" class="edge"><title>Node26&#45;&gt;Node27</title>
<path fill="none" stroke="midnightblue" d="M1019.65,-280.444C1066.25,-270.984 1141.34,-255.738 1191.55,-245.547"/>
<polygon fill="midnightblue" stroke="midnightblue" points="1192.44,-248.936 1201.55,-243.516 1191.05,-242.076 1192.44,-248.936"/>
</g>
<!-- Node29 -->
<g id="node29" class="node"><title>Node29</title>
<g id="a_node29"><a xlink:href="dji__waypoint_8hpp.html" target="_top" xlink:title="Implementation of GPS Waypoint Missions for DJI OSDK. ">
<polygon fill="white" stroke="black" points="1304,-224.5 1304,-243.5 1393,-243.5 1393,-224.5 1304,-224.5"/>
<text text-anchor="middle" x="1348.5" y="-231.5" font-family="Helvetica,sans-Serif" font-size="10.00">dji_waypoint.hpp</text>
</a>
</g>
</g>
<!-- Node26&#45;&gt;Node29 -->
<g id="edge49" class="edge"><title>Node26&#45;&gt;Node29</title>
<path fill="none" stroke="midnightblue" d="M1040.72,-280.483C1102.56,-272.048 1199.68,-258.525 1293.75,-244.084"/>
<polygon fill="midnightblue" stroke="midnightblue" points="1294.37,-247.53 1303.72,-242.548 1293.31,-240.611 1294.37,-247.53"/>
</g>
<!-- Node27&#45;&gt;Node9 -->
<g id="edge48" class="edge"><title>Node27&#45;&gt;Node9</title>
<path fill="none" stroke="midnightblue" d="M1200.74,-227.632C1139.02,-219.797 1021.12,-204.509 910.132,-188.057"/>
<polygon fill="midnightblue" stroke="midnightblue" points="910.509,-184.575 900.103,-186.564 909.479,-191.498 910.509,-184.575"/>
</g>
<!-- Node28 -->
<g id="node28" class="node"><title>Node28</title>
<g id="a_node28"><a xlink:href="dji__mission__base_8hpp.html" target="_top" xlink:title="Mission&#45;Base abstract class for DJI OSDK library. ">
<polygon fill="white" stroke="black" points="1312.5,-168.5 1312.5,-187.5 1422.5,-187.5 1422.5,-168.5 1312.5,-168.5"/>
<text text-anchor="middle" x="1367.5" y="-175.5" font-family="Helvetica,sans-Serif" font-size="10.00">dji_mission_base.hpp</text>
</a>
</g>
</g>
<!-- Node27&#45;&gt;Node28 -->
<g id="edge44" class="edge"><title>Node27&#45;&gt;Node28</title>
<path fill="none" stroke="midnightblue" d="M1263.15,-224.444C1283.46,-215.596 1315.4,-201.687 1338.6,-191.586"/>
<polygon fill="midnightblue" stroke="midnightblue" points="1340.17,-194.718 1347.94,-187.516 1337.38,-188.3 1340.17,-194.718"/>
</g>
<!-- Node28&#45;&gt;Node4 -->
<g id="edge47" class="edge"><title>Node28&#45;&gt;Node4</title>
<path fill="none" stroke="midnightblue" d="M1312.48,-174.058C1141.6,-164.922 620.059,-137.038 428.792,-126.812"/>
<polygon fill="midnightblue" stroke="midnightblue" points="428.747,-123.304 418.574,-126.265 428.373,-130.294 428.747,-123.304"/>
</g>
<!-- Node28&#45;&gt;Node10 -->
<g id="edge46" class="edge"><title>Node28&#45;&gt;Node10</title>
<path fill="none" stroke="midnightblue" d="M1360.56,-168.083C1354.57,-160.377 1345.75,-149.033 1338.45,-139.653"/>
<polygon fill="midnightblue" stroke="midnightblue" points="1341.21,-137.496 1332.31,-131.751 1335.68,-141.793 1341.21,-137.496"/>
</g>
<!-- Node28&#45;&gt;Node14 -->
<g id="edge45" class="edge"><title>Node28&#45;&gt;Node14</title>
<path fill="none" stroke="midnightblue" d="M1376.82,-168.324C1385.39,-160.341 1398.31,-148.313 1408.69,-138.653"/>
<polygon fill="midnightblue" stroke="midnightblue" points="1411.08,-141.21 1416.01,-131.834 1406.31,-136.086 1411.08,-141.21"/>
</g>
<!-- Node29&#45;&gt;Node28 -->
<g id="edge50" class="edge"><title>Node29&#45;&gt;Node28</title>
<path fill="none" stroke="midnightblue" d="M1351.64,-224.083C1354.18,-216.849 1357.86,-206.409 1361.03,-197.397"/>
<polygon fill="midnightblue" stroke="midnightblue" points="1364.4,-198.346 1364.42,-187.751 1357.8,-196.023 1364.4,-198.346"/>
</g>
<!-- Node30&#45;&gt;Node4 -->
<g id="edge53" class="edge"><title>Node30&#45;&gt;Node4</title>
<path fill="none" stroke="midnightblue" d="M253.99,-168.444C274.142,-159.596 305.823,-145.687 328.831,-135.586"/>
<polygon fill="midnightblue" stroke="midnightblue" points="330.352,-138.741 338.101,-131.516 327.538,-132.332 330.352,-138.741"/>
</g>
<!-- Node33&#45;&gt;Node4 -->
<g id="edge60" class="edge"><title>Node33&#45;&gt;Node4</title>
<path fill="none" stroke="midnightblue" d="M430.301,-224.368C417.264,-206.215 386.803,-163.802 369.702,-139.99"/>
<polygon fill="midnightblue" stroke="midnightblue" points="372.346,-137.672 363.67,-131.591 366.661,-141.755 372.346,-137.672"/>
</g>
<!-- Node33&#45;&gt;Node5 -->
<g id="edge58" class="edge"><title>Node33&#45;&gt;Node5</title>
<path fill="none" stroke="midnightblue" d="M440.801,-224.075C453.503,-197.719 491.017,-119.878 507.989,-84.6608"/>
<polygon fill="midnightblue" stroke="midnightblue" points="511.182,-86.0961 512.371,-75.5681 504.876,-83.057 511.182,-86.0961"/>
</g>
<!-- Node33&#45;&gt;Node9 -->
<g id="edge59" class="edge"><title>Node33&#45;&gt;Node9</title>
<path fill="none" stroke="midnightblue" d="M488.174,-226.324C567.145,-216.122 717.245,-196.732 798.645,-186.216"/>
<polygon fill="midnightblue" stroke="midnightblue" points="799.232,-189.669 808.702,-184.917 798.336,-182.727 799.232,-189.669"/>
</g>
<!-- Node35&#45;&gt;Node5 -->
<g id="edge67" class="edge"><title>Node35&#45;&gt;Node5</title>
<path fill="none" stroke="midnightblue" d="M845.771,-280.397C827.843,-248.085 763.376,-134.666 729.5,-112 685.932,-82.8491 627.051,-72.0763 582.239,-68.3244"/>
<polygon fill="midnightblue" stroke="midnightblue" points="582.267,-64.817 572.036,-67.57 581.751,-71.798 582.267,-64.817"/>
</g>
<!-- Node35&#45;&gt;Node9 -->
<g id="edge69" class="edge"><title>Node35&#45;&gt;Node9</title>
<path fill="none" stroke="midnightblue" d="M850.814,-280.368C851.459,-262.617 852.948,-221.666 853.824,-197.597"/>
<polygon fill="midnightblue" stroke="midnightblue" points="857.322,-197.712 854.188,-187.591 850.326,-197.458 857.322,-197.712"/>
</g>
<!-- Node35&#45;&gt;Node10 -->
<g id="edge68" class="edge"><title>Node35&#45;&gt;Node10</title>
<path fill="none" stroke="midnightblue" d="M895.8,-281.023C952.104,-270.941 1044.88,-253.73 1078.5,-244 1144.86,-224.795 1161.84,-219.161 1223.5,-188 1253.24,-172.969 1285.31,-151.595 1305.38,-137.519"/>
<polygon fill="midnightblue" stroke="midnightblue" points="1307.58,-140.252 1313.71,-131.614 1303.53,-134.541 1307.58,-140.252"/>
</g>
<!-- Node35&#45;&gt;Node18 -->
<g id="edge66" class="edge"><title>Node35&#45;&gt;Node18</title>
<path fill="none" stroke="midnightblue" d="M879.972,-280.444C911.671,-271.241 962.232,-256.562 997.275,-246.388"/>
<polygon fill="midnightblue" stroke="midnightblue" points="998.538,-249.666 1007.17,-243.516 996.586,-242.943 998.538,-249.666"/>
</g>
</g>
</svg>
        <g id="navigator" transform="translate(0 0)" fill="#404254">
                <rect fill="#f2f5e9" fill-opacity="0.5" stroke="#606060" stroke-width=".5" x="0" y="0" width="60" height="60"/>
                <use id="zoomplus" xlink:href="#zoomPlus" x="17" y="9" onmousedown="handleZoom(evt,'in')"/>
                <use id="zoomminus" xlink:href="#zoomMin" x="42" y="9" onmousedown="handleZoom(evt,'out')"/>
                <use id="reset" xlink:href="#resetDef" x="30" y="36" onmousedown="handleReset()"/>
                <g id="arrowUp" xlink:href="#dirArrow" transform="translate(30 24)" onmousedown="handlePan(0,-1)">
                  <use xlink:href="#rim" fill="#404040">
                        <set attributeName="fill" to="#808080" begin="arrowUp.mouseover" end="arrowUp.mouseout"/>
                  </use>
                  <path fill="none" stroke="white" stroke-width="1.5" d="M0,-3.0v7 M-2.5,-0.5L0,-3.0L2.5,-0.5"/>
                </g>
                <g id="arrowRight" xlink:href="#dirArrow" transform="rotate(90) translate(36 -43)" onmousedown="handlePan(1,0)">
                  <use xlink:href="#rim" fill="#404040">
                        <set attributeName="fill" to="#808080" begin="arrowRight.mouseover" end="arrowRight.mouseout"/>
                  </use>
                  <path fill="none" stroke="white" stroke-width="1.5" d="M0,-3.0v7 M-2.5,-0.5L0,-3.0L2.5,-0.5"/>
                </g>
                <g id="arrowDown" xlink:href="#dirArrow" transform="rotate(180) translate(-30 -48)" onmousedown="handlePan(0,1)">
                  <use xlink:href="#rim" fill="#404040">
                        <set attributeName="fill" to="#808080" begin="arrowDown.mouseover" end="arrowDown.mouseout"/>
                  </use>
                  <path fill="none" stroke="white" stroke-width="1.5" d="M0,-3.0v7 M-2.5,-0.5L0,-3.0L2.5,-0.5"/>
                </g>
                <g id="arrowLeft" xlink:href="#dirArrow" transform="rotate(270) translate(-36 17)" onmousedown="handlePan(-1,0)">
                  <use xlink:href="#rim" fill="#404040">
                        <set attributeName="fill" to="#808080" begin="arrowLeft.mouseover" end="arrowLeft.mouseout"/>
                  </use>
                  <path fill="none" stroke="white" stroke-width="1.5" d="M0,-3.0v7 M-2.5,-0.5L0,-3.0L2.5,-0.5"/>
                </g>
        </g>
        <svg viewBox="0 0 15 15" width="100%" height="30px" preserveAspectRatio="xMaxYMin meet">
         <g id="arrow_out" transform="scale(0.3 0.3)">
          <a xlink:href="dji__mobile__communication_8cpp__incl_org.svg" target="_base">
           <rect id="button" ry="5" rx="5" y="6" x="6" height="38" width="38"
                fill="#f2f5e9" fill-opacity="0.5" stroke="#606060" stroke-width="1.0"/>
           <path id="arrow"
             d="M 11.500037,31.436501 C 11.940474,20.09759 22.043105,11.32322 32.158766,21.979434 L 37.068811,17.246167 C 37.068811,17.246167 37.088388,32 37.088388,32 L 22.160133,31.978069 C 22.160133,31.978069 26.997745,27.140456 26.997745,27.140456 C 18.528582,18.264221 13.291696,25.230495 11.500037,31.436501 z"
             style="fill:#404040;"/>
          </a>
         </g>
        </svg>
</svg>
