<?xml version="1.0" encoding="UTF-8" standalone="no"?>
<!DOCTYPE svg PUBLIC "-//W3C//DTD SVG 1.1//EN"
 "http://www.w3.org/Graphics/SVG/1.1/DTD/svg11.dtd">
<!-- Generated by graphviz version 2.38.0 (20140413.2041)
 -->
<!-- Title: osdk&#45;core/api/src/dji_mobile_communication.cpp Pages: 1 -->
<svg width="1897pt" height="431pt"
 viewBox="0.00 0.00 1896.56 431.00" xmlns="http://www.w3.org/2000/svg" xmlns:xlink="http://www.w3.org/1999/xlink">
<g id="graph0" class="graph" transform="scale(1 1) rotate(0) translate(4 427)">
<title>osdk&#45;core/api/src/dji_mobile_communication.cpp</title>
<polygon fill="white" stroke="none" points="-4,4 -4,-427 1892.56,-427 1892.56,4 -4,4"/>
<!-- Node0 -->
<g id="node1" class="node"><title>Node0</title>
<g id="a_node1"><a xlink:title="Implementation of DJI Mobile&#45;Onboard SDK Communication (MOC)">
<polygon fill="#bfbfbf" stroke="black" points="596,-392.5 596,-422.5 736,-422.5 736,-392.5 596,-392.5"/>
<text text-anchor="start" x="604" y="-410.5" font-family="Helvetica,sans-Serif" font-size="10.00">osdk&#45;core/api/src/dji</text>
<text text-anchor="middle" x="666" y="-399.5" font-family="Helvetica,sans-Serif" font-size="10.00">_mobile_communication.cpp</text>
</a>
</g>
</g>
<!-- Node1 -->
<g id="node2" class="node"><title>Node1</title>
<g id="a_node2"><a xlink:href="dji__mobile__communication_8hpp.html" target="_top" xlink:title="Implementation of DJI Mobile&#45;Onboard SDK Communication (MOC)">
<polygon fill="white" stroke="black" points="0,-280.5 0,-299.5 150,-299.5 150,-280.5 0,-280.5"/>
<text text-anchor="middle" x="75" y="-287.5" font-family="Helvetica,sans-Serif" font-size="10.00">dji_mobile_communication.hpp</text>
</a>
</g>
</g>
<!-- Node0&#45;&gt;Node1 -->
<g id="edge1" class="edge"><title>Node0&#45;&gt;Node1</title>
<path fill="none" stroke="midnightblue" d="M595.884,-392.797C476.365,-369.439 235.734,-322.413 128.584,-301.472"/>
<polygon fill="midnightblue" stroke="midnightblue" points="129.125,-298.012 118.639,-299.529 127.782,-304.882 129.125,-298.012"/>
</g>
<!-- Node5 -->
<g id="node6" class="node"><title>Node5</title>
<g id="a_node6"><a xlink:href="dji__vehicle_8hpp.html" target="_top" xlink:title="Vehicle API for DJI onboardSDK library.">
<polygon fill="white" stroke="black" points="833.5,-336.5 833.5,-355.5 914.5,-355.5 914.5,-336.5 833.5,-336.5"/>
<text text-anchor="middle" x="874" y="-343.5" font-family="Helvetica,sans-Serif" font-size="10.00">dji_vehicle.hpp</text>
</a>
</g>
</g>
<!-- Node0&#45;&gt;Node5 -->
<g id="edge5" class="edge"><title>Node0&#45;&gt;Node5</title>
<path fill="none" stroke="midnightblue" d="M715.03,-392.475C751.384,-382.075 800.314,-368.078 834.245,-358.372"/>
<polygon fill="midnightblue" stroke="midnightblue" points="835.612,-361.622 844.263,-355.506 833.686,-354.892 835.612,-361.622"/>
</g>
<!-- Node2 -->
<g id="node3" class="node"><title>Node2</title>
<g id="a_node3"><a xlink:title=" ">
<polygon fill="white" stroke="#bfbfbf" points="28.5,-224.5 28.5,-243.5 111.5,-243.5 111.5,-224.5 28.5,-224.5"/>
<text text-anchor="middle" x="70" y="-231.5" font-family="Helvetica,sans-Serif" font-size="10.00">dji_macros.hpp</text>
</a>
</g>
</g>
<!-- Node1&#45;&gt;Node2 -->
<g id="edge2" class="edge"><title>Node1&#45;&gt;Node2</title>
<path fill="none" stroke="midnightblue" d="M74.1744,-280.083C73.5191,-273.006 72.5797,-262.861 71.758,-253.986"/>
<polygon fill="midnightblue" stroke="midnightblue" points="75.2174,-253.386 70.8103,-243.751 68.2473,-254.031 75.2174,-253.386"/>
</g>
<!-- Node3 -->
<g id="node4" class="node"><title>Node3</title>
<g id="a_node4"><a xlink:href="dji__vehicle__callback_8hpp.html" target="_top" xlink:title="Type definition for new Vehicle&#45;style callbacks.">
<polygon fill="white" stroke="black" points="533,-112.5 533,-131.5 655,-131.5 655,-112.5 533,-112.5"/>
<text text-anchor="middle" x="594" y="-119.5" font-family="Helvetica,sans-Serif" font-size="10.00">dji_vehicle_callback.hpp</text>
</a>
</g>
</g>
<!-- Node1&#45;&gt;Node3 -->
<g id="edge3" class="edge"><title>Node1&#45;&gt;Node3</title>
<path fill="none" stroke="midnightblue" d="M83.649,-280.364C109.254,-254.999 184.827,-181.652 216,-168 339.286,-114.008 385.053,-147.147 522.84,-132.066"/>
<polygon fill="midnightblue" stroke="midnightblue" points="523.392,-135.525 532.922,-130.895 522.585,-128.572 523.392,-135.525"/>
</g>
<!-- Node4 -->
<g id="node5" class="node"><title>Node4</title>
<g id="a_node5"><a xlink:title=" ">
<polygon fill="white" stroke="#bfbfbf" points="639.5,-56.5 639.5,-75.5 750.5,-75.5 750.5,-56.5 639.5,-56.5"/>
<text text-anchor="middle" x="695" y="-63.5" font-family="Helvetica,sans-Serif" font-size="10.00">dji_open_protocol.hpp</text>
</a>
</g>
</g>
<!-- Node3&#45;&gt;Node4 -->
<g id="edge4" class="edge"><title>Node3&#45;&gt;Node4</title>
<path fill="none" stroke="midnightblue" d="M610.227,-112.324C626.351,-103.703 651.3,-90.3643 669.964,-80.3855"/>
<polygon fill="midnightblue" stroke="midnightblue" points="671.644,-83.456 678.813,-75.6545 668.344,-77.283 671.644,-83.456"/>
</g>
<!-- Node5&#45;&gt;Node1 -->
<g id="edge54" class="edge"><title>Node5&#45;&gt;Node1</title>
<path fill="none" stroke="midnightblue" d="M833.141,-342.948C724.276,-337.363 418.193,-320.9 164,-300 162.878,-299.908 161.748,-299.813 160.611,-299.717"/>
<polygon fill="midnightblue" stroke="midnightblue" points="160.512,-296.195 150.245,-298.809 159.901,-303.169 160.512,-296.195"/>
</g>
<!-- Node5&#45;&gt;Node3 -->
<g id="edge66" class="edge"><title>Node5&#45;&gt;Node3</title>
<path fill="none" stroke="midnightblue" d="M833.212,-344.138C738.011,-341.601 503.86,-332.182 433,-300 399.788,-284.916 387.538,-277.455 373,-244 363.009,-221.007 386.012,-171.69 390,-168 400.579,-158.212 476.672,-143.23 532.841,-133.277"/>
<polygon fill="midnightblue" stroke="midnightblue" points="533.481,-136.718 542.725,-131.541 532.27,-129.824 533.481,-136.718"/>
</g>
<!-- Node5&#45;&gt;Node4 -->
<g id="edge57" class="edge"><title>Node5&#45;&gt;Node4</title>
<path fill="none" stroke="midnightblue" d="M833.451,-343.695C704.613,-339.32 309.997,-324.078 258,-300 226.344,-285.341 216.779,-276.049 203,-244 189.654,-212.958 180.598,-194.935 201,-168 252.023,-100.636 507.072,-77.4337 629.376,-70.097"/>
<polygon fill="midnightblue" stroke="midnightblue" points="629.589,-73.5906 639.369,-69.5153 629.182,-66.6025 629.589,-73.5906"/>
</g>
<!-- Node6 -->
<g id="node7" class="node"><title>Node6</title>
<g id="a_node7"><a xlink:title=" ">
<polygon fill="white" stroke="#bfbfbf" points="469,-112.5 469,-131.5 515,-131.5 515,-112.5 469,-112.5"/>
<text text-anchor="middle" x="492" y="-119.5" font-family="Helvetica,sans-Serif" font-size="10.00">cstdint</text>
</a>
</g>
</g>
<!-- Node5&#45;&gt;Node6 -->
<g id="edge6" class="edge"><title>Node5&#45;&gt;Node6</title>
<path fill="none" stroke="midnightblue" d="M833.331,-343.885C708.84,-340.191 338.564,-327.026 292,-300 233.451,-266.018 171.778,-219.256 216,-168 249.919,-128.686 390.824,-141.725 458.783,-131.506"/>
<polygon fill="midnightblue" stroke="midnightblue" points="459.422,-134.948 468.648,-129.739 458.187,-128.057 459.422,-134.948"/>
</g>
<!-- Node7 -->
<g id="node8" class="node"><title>Node7</title>
<g id="a_node8"><a xlink:href="dji__broadcast_8hpp.html" target="_top" xlink:title="Broadcast Telemetry API for DJI onboardSDK library.">
<polygon fill="white" stroke="black" points="1081.5,-224.5 1081.5,-243.5 1174.5,-243.5 1174.5,-224.5 1081.5,-224.5"/>
<text text-anchor="middle" x="1128" y="-231.5" font-family="Helvetica,sans-Serif" font-size="10.00">dji_broadcast.hpp</text>
</a>
</g>
</g>
<!-- Node5&#45;&gt;Node7 -->
<g id="edge7" class="edge"><title>Node5&#45;&gt;Node7</title>
<path fill="none" stroke="midnightblue" d="M876.543,-336.263C881.146,-322.077 892.263,-294.198 912,-280 937.029,-261.996 1015.99,-248.841 1071.16,-241.555"/>
<polygon fill="midnightblue" stroke="midnightblue" points="1071.7,-245.015 1081.17,-240.263 1070.8,-238.073 1071.7,-245.015"/>
</g>
<!-- Node9 -->
<g id="node10" class="node"><title>Node9</title>
<g id="a_node10"><a xlink:href="dji__type_8hpp.html" target="_top" xlink:title="Data type and Data Structure definitions for use throughout DJI OSDK.">
<polygon fill="white" stroke="black" points="1286.5,-112.5 1286.5,-131.5 1355.5,-131.5 1355.5,-112.5 1286.5,-112.5"/>
<text text-anchor="middle" x="1321" y="-119.5" font-family="Helvetica,sans-Serif" font-size="10.00">dji_type.hpp</text>
</a>
</g>
</g>
<!-- Node5&#45;&gt;Node9 -->
<g id="edge65" class="edge"><title>Node5&#45;&gt;Node9</title>
<path fill="none" stroke="midnightblue" d="M907.965,-336.454C937.961,-328.456 982.615,-315.443 1020,-300 1037.64,-292.713 1039.89,-286.02 1058,-280 1154.94,-247.782 1192.67,-287.691 1285,-244 1318.86,-227.977 1332.65,-222.175 1348,-188 1355.24,-171.878 1345.68,-153.227 1336,-140.05"/>
<polygon fill="midnightblue" stroke="midnightblue" points="1338.45,-137.521 1329.47,-131.9 1332.99,-141.894 1338.45,-137.521"/>
</g>
<!-- Node12 -->
<g id="node13" class="node"><title>Node12</title>
<g id="a_node13"><a xlink:href="dji__camera_8hpp.html" target="_top" xlink:title="Camera/Gimbal API for DJI onboardSDK library.">
<polygon fill="white" stroke="black" points="1642.5,-168.5 1642.5,-187.5 1725.5,-187.5 1725.5,-168.5 1642.5,-168.5"/>
<text text-anchor="middle" x="1684" y="-175.5" font-family="Helvetica,sans-Serif" font-size="10.00">dji_camera.hpp</text>
</a>
</g>
</g>
<!-- Node5&#45;&gt;Node12 -->
<g id="edge13" class="edge"><title>Node5&#45;&gt;Node12</title>
<path fill="none" stroke="midnightblue" d="M914.577,-344.669C1094.68,-343.005 1814.32,-334.226 1847,-300 1892.19,-252.674 1786.09,-210.35 1724.39,-190.665"/>
<polygon fill="midnightblue" stroke="midnightblue" points="1725.11,-187.226 1714.53,-187.591 1723.03,-193.909 1725.11,-187.226"/>
</g>
<!-- Node13 -->
<g id="node14" class="node"><title>Node13</title>
<g id="a_node14"><a xlink:href="dji__command_8hpp.html" target="_top" xlink:title="All DJI OSDK OpenProtocol Command IDs.">
<polygon fill="white" stroke="black" points="1433.5,-112.5 1433.5,-131.5 1526.5,-131.5 1526.5,-112.5 1433.5,-112.5"/>
<text text-anchor="middle" x="1480" y="-119.5" font-family="Helvetica,sans-Serif" font-size="10.00">dji_command.hpp</text>
</a>
</g>
</g>
<!-- Node5&#45;&gt;Node13 -->
<g id="edge20" class="edge"><title>Node5&#45;&gt;Node13</title>
<path fill="none" stroke="midnightblue" d="M914.797,-344.706C1097.57,-343.195 1833.6,-334.952 1867,-300 1970.38,-191.834 1668.01,-144.036 1537.15,-128.785"/>
<polygon fill="midnightblue" stroke="midnightblue" points="1537.24,-125.273 1526.91,-127.617 1536.45,-132.228 1537.24,-125.273"/>
</g>
<!-- Node15 -->
<g id="node16" class="node"><title>Node15</title>
<g id="a_node16"><a xlink:title=" ">
<polygon fill="white" stroke="#bfbfbf" points="1213,-280.5 1213,-299.5 1325,-299.5 1325,-280.5 1213,-280.5"/>
<text text-anchor="middle" x="1269" y="-287.5" font-family="Helvetica,sans-Serif" font-size="10.00">dji_circular_buffer.hpp</text>
</a>
</g>
</g>
<!-- Node5&#45;&gt;Node15 -->
<g id="edge19" class="edge"><title>Node5&#45;&gt;Node15</title>
<path fill="none" stroke="midnightblue" d="M914.784,-339.424C982.998,-330.099 1120.82,-311.257 1203,-300.023"/>
<polygon fill="midnightblue" stroke="midnightblue" points="1203.54,-303.481 1212.98,-298.659 1202.6,-296.546 1203.54,-303.481"/>
</g>
<!-- Node16 -->
<g id="node17" class="node"><title>Node16</title>
<g id="a_node17"><a xlink:href="dji__control_8hpp.html" target="_top" xlink:title="Control API for DJI OSDK library.">
<polygon fill="white" stroke="black" points="747,-280.5 747,-299.5 827,-299.5 827,-280.5 747,-280.5"/>
<text text-anchor="middle" x="787" y="-287.5" font-family="Helvetica,sans-Serif" font-size="10.00">dji_control.hpp</text>
</a>
</g>
</g>
<!-- Node5&#45;&gt;Node16 -->
<g id="edge21" class="edge"><title>Node5&#45;&gt;Node16</title>
<path fill="none" stroke="midnightblue" d="M860.022,-336.324C846.45,-327.9 825.62,-314.971 809.675,-305.074"/>
<polygon fill="midnightblue" stroke="midnightblue" points="811.286,-301.954 800.943,-299.655 807.594,-307.902 811.286,-301.954"/>
</g>
<!-- Node19 -->
<g id="node20" class="node"><title>Node19</title>
<g id="a_node20"><a xlink:href="dji__version_8hpp.html" target="_top" xlink:title="Drone/SDK Version definition for DJI onboardSDK library.">
<polygon fill="white" stroke="black" points="799,-168.5 799,-187.5 881,-187.5 881,-168.5 799,-168.5"/>
<text text-anchor="middle" x="840" y="-175.5" font-family="Helvetica,sans-Serif" font-size="10.00">dji_version.hpp</text>
</a>
</g>
</g>
<!-- Node5&#45;&gt;Node19 -->
<g id="edge67" class="edge"><title>Node5&#45;&gt;Node19</title>
<path fill="none" stroke="midnightblue" d="M872.172,-336.075C866.82,-309.945 851.103,-233.211 843.805,-197.577"/>
<polygon fill="midnightblue" stroke="midnightblue" points="847.19,-196.662 841.755,-187.568 840.333,-198.067 847.19,-196.662"/>
</g>
<!-- Node21 -->
<g id="node22" class="node"><title>Node21</title>
<g id="a_node22"><a xlink:href="dji__gimbal_8hpp.html" target="_top" xlink:title="Gimbal API for OSDK library.">
<polygon fill="white" stroke="black" points="1545.5,-168.5 1545.5,-187.5 1624.5,-187.5 1624.5,-168.5 1545.5,-168.5"/>
<text text-anchor="middle" x="1585" y="-175.5" font-family="Helvetica,sans-Serif" font-size="10.00">dji_gimbal.hpp</text>
</a>
</g>
</g>
<!-- Node5&#45;&gt;Node21 -->
<g id="edge34" class="edge"><title>Node5&#45;&gt;Node21</title>
<path fill="none" stroke="midnightblue" d="M914.762,-344.632C1093.19,-342.827 1797.96,-333.587 1830,-300 1862.01,-266.453 1702.29,-213.589 1624.98,-190.467"/>
<polygon fill="midnightblue" stroke="midnightblue" points="1625.67,-187.022 1615.09,-187.537 1623.68,-193.734 1625.67,-187.022"/>
</g>
<!-- Node22 -->
<g id="node23" class="node"><title>Node22</title>
<g id="a_node23"><a xlink:title=" ">
<polygon fill="white" stroke="#bfbfbf" points="1343,-280.5 1343,-299.5 1441,-299.5 1441,-280.5 1343,-280.5"/>
<text text-anchor="middle" x="1392" y="-287.5" font-family="Helvetica,sans-Serif" font-size="10.00">dji_hard_driver.hpp</text>
</a>
</g>
</g>
<!-- Node5&#45;&gt;Node22 -->
<g id="edge37" class="edge"><title>Node5&#45;&gt;Node22</title>
<path fill="none" stroke="midnightblue" d="M914.698,-341.795C993.376,-335.431 1172.03,-320.164 1332.9,-300.074"/>
<polygon fill="midnightblue" stroke="midnightblue" points="1333.49,-303.527 1342.98,-298.806 1332.62,-296.581 1333.49,-303.527"/>
</g>
<!-- Node23 -->
<g id="node24" class="node"><title>Node23</title>
<g id="a_node24"><a xlink:href="dji__hardware__sync_8hpp.html" target="_top" xlink:title="Hardware Sync API for DJI OSDK.">
<polygon fill="white" stroke="black" points="399,-168.5 399,-187.5 515,-187.5 515,-168.5 399,-168.5"/>
<text text-anchor="middle" x="457" y="-175.5" font-family="Helvetica,sans-Serif" font-size="10.00">dji_hardware_sync.hpp</text>
</a>
</g>
</g>
<!-- Node5&#45;&gt;Node23 -->
<g id="edge38" class="edge"><title>Node5&#45;&gt;Node23</title>
<path fill="none" stroke="midnightblue" d="M833.152,-343.236C725.038,-337.603 435.939,-315.96 381,-244 364.695,-222.644 395.876,-203.355 423.09,-191.438"/>
<polygon fill="midnightblue" stroke="midnightblue" points="424.576,-194.61 432.466,-187.539 421.888,-188.147 424.576,-194.61"/>
</g>
<!-- Node25 -->
<g id="node26" class="node"><title>Node25</title>
<g id="a_node26"><a xlink:href="dji__mfio_8hpp.html" target="_top" xlink:title="MFIO API for DJI OSDK library.">
<polygon fill="white" stroke="black" points="521.5,-224.5 521.5,-243.5 590.5,-243.5 590.5,-224.5 521.5,-224.5"/>
<text text-anchor="middle" x="556" y="-231.5" font-family="Helvetica,sans-Serif" font-size="10.00">dji_mfio.hpp</text>
</a>
</g>
</g>
<!-- Node5&#45;&gt;Node25 -->
<g id="edge42" class="edge"><title>Node5&#45;&gt;Node25</title>
<path fill="none" stroke="midnightblue" d="M840.301,-336.434C808.292,-328.042 758.96,-314.439 717,-300 669.988,-283.822 616.722,-261.509 584.776,-247.681"/>
<polygon fill="midnightblue" stroke="midnightblue" points="586.143,-244.459 575.577,-243.679 583.35,-250.878 586.143,-244.459"/>
</g>
<!-- Node26 -->
<g id="node27" class="node"><title>Node26</title>
<g id="a_node27"><a xlink:href="dji__mission__manager_8hpp.html" target="_top" xlink:title="Mission&#45;Manager API for DJI OSDK library.">
<polygon fill="white" stroke="black" points="1067.5,-280.5 1067.5,-299.5 1194.5,-299.5 1194.5,-280.5 1067.5,-280.5"/>
<text text-anchor="middle" x="1131" y="-287.5" font-family="Helvetica,sans-Serif" font-size="10.00">dji_mission_manager.hpp</text>
</a>
</g>
</g>
<!-- Node5&#45;&gt;Node26 -->
<g id="edge44" class="edge"><title>Node5&#45;&gt;Node26</title>
<path fill="none" stroke="midnightblue" d="M914.722,-336.444C959.649,-327.004 1032,-311.802 1080.5,-301.611"/>
<polygon fill="midnightblue" stroke="midnightblue" points="1081.4,-304.998 1090.47,-299.516 1079.96,-298.148 1081.4,-304.998"/>
</g>
<!-- Node31 -->
<g id="node32" class="node"><title>Node31</title>
<g id="a_node32"><a xlink:href="dji__mobile__device_8hpp.html" target="_top" xlink:title="Implementation of DJI Mobile Device Abstraction.">
<polygon fill="white" stroke="black" points="390.5,-224.5 390.5,-243.5 503.5,-243.5 503.5,-224.5 390.5,-224.5"/>
<text text-anchor="middle" x="447" y="-231.5" font-family="Helvetica,sans-Serif" font-size="10.00">dji_mobile_device.hpp</text>
</a>
</g>
</g>
<!-- Node5&#45;&gt;Node31 -->
<g id="edge55" class="edge"><title>Node5&#45;&gt;Node31</title>
<path fill="none" stroke="midnightblue" d="M833.123,-337.526C789.871,-329.356 719.749,-315.366 660,-300 596.697,-283.72 524.11,-260.594 482.109,-246.765"/>
<polygon fill="midnightblue" stroke="midnightblue" points="482.96,-243.36 472.366,-243.543 480.762,-250.006 482.96,-243.36"/>
</g>
<!-- Node32 -->
<g id="node33" class="node"><title>Node32</title>
<g id="a_node33"><a xlink:title=" ">
<polygon fill="white" stroke="#bfbfbf" points="1459,-280.5 1459,-299.5 1587,-299.5 1587,-280.5 1459,-280.5"/>
<text text-anchor="middle" x="1523" y="-287.5" font-family="Helvetica,sans-Serif" font-size="10.00">dji_platform_manager.hpp</text>
</a>
</g>
</g>
<!-- Node5&#45;&gt;Node32 -->
<g id="edge58" class="edge"><title>Node5&#45;&gt;Node32</title>
<path fill="none" stroke="midnightblue" d="M914.559,-342.457C1007.2,-336.514 1241.68,-320.712 1448.77,-300.082"/>
<polygon fill="midnightblue" stroke="midnightblue" points="1449.32,-303.544 1458.92,-299.064 1448.62,-296.579 1449.32,-303.544"/>
</g>
<!-- Node33 -->
<g id="node34" class="node"><title>Node33</title>
<g id="a_node34"><a xlink:href="dji__status_8hpp.html" target="_top" xlink:title="Status information for DJI Vehicle.">
<polygon fill="white" stroke="black" points="1605.5,-280.5 1605.5,-299.5 1682.5,-299.5 1682.5,-280.5 1605.5,-280.5"/>
<text text-anchor="middle" x="1644" y="-287.5" font-family="Helvetica,sans-Serif" font-size="10.00">dji_status.hpp</text>
</a>
</g>
</g>
<!-- Node5&#45;&gt;Node33 -->
<g id="edge59" class="edge"><title>Node5&#45;&gt;Node33</title>
<path fill="none" stroke="midnightblue" d="M914.874,-344.213C1023.78,-341.743 1330.11,-332.345 1595.09,-299.942"/>
<polygon fill="midnightblue" stroke="midnightblue" points="1595.8,-303.382 1605.29,-298.681 1594.94,-296.435 1595.8,-303.382"/>
</g>
<!-- Node34 -->
<g id="node35" class="node"><title>Node34</title>
<g id="a_node35"><a xlink:href="dji__subscription_8hpp.html" target="_top" xlink:title="Telemetry Subscription API for DJI OSDK library.">
<polygon fill="white" stroke="black" points="647.5,-224.5 647.5,-243.5 750.5,-243.5 750.5,-224.5 647.5,-224.5"/>
<text text-anchor="middle" x="699" y="-231.5" font-family="Helvetica,sans-Serif" font-size="10.00">dji_subscription.hpp</text>
</a>
</g>
</g>
<!-- Node5&#45;&gt;Node34 -->
<g id="edge60" class="edge"><title>Node5&#45;&gt;Node34</title>
<path fill="none" stroke="midnightblue" d="M833.207,-339.243C804.127,-333.419 765.475,-321.99 738,-300 722.787,-287.824 712.126,-267.99 705.84,-253.428"/>
<polygon fill="midnightblue" stroke="midnightblue" points="709.006,-251.919 702.033,-243.942 702.509,-254.526 709.006,-251.919"/>
</g>
<!-- Node35 -->
<g id="node36" class="node"><title>Node35</title>
<g id="a_node36"><a xlink:title=" ">
<polygon fill="white" stroke="#bfbfbf" points="1701,-280.5 1701,-299.5 1821,-299.5 1821,-280.5 1701,-280.5"/>
<text text-anchor="middle" x="1761" y="-287.5" font-family="Helvetica,sans-Serif" font-size="10.00">dji_thread_manager.hpp</text>
</a>
</g>
</g>
<!-- Node5&#45;&gt;Node35 -->
<g id="edge64" class="edge"><title>Node5&#45;&gt;Node35</title>
<path fill="none" stroke="midnightblue" d="M914.882,-343.802C1033.13,-340.113 1385.89,-327.529 1690.35,-299.98"/>
<polygon fill="midnightblue" stroke="midnightblue" points="1691.06,-303.43 1700.7,-299.036 1690.43,-296.459 1691.06,-303.43"/>
</g>
<!-- Node36 -->
<g id="node37" class="node"><title>Node36</title>
<g id="a_node37"><a xlink:href="dji__virtual__rc_8hpp.html" target="_top" xlink:title="Virtual Radio Control API for DJI onboardSDK library.">
<polygon fill="white" stroke="black" points="921,-280.5 921,-299.5 1011,-299.5 1011,-280.5 921,-280.5"/>
<text text-anchor="middle" x="966" y="-287.5" font-family="Helvetica,sans-Serif" font-size="10.00">dji_virtual_rc.hpp</text>
</a>
</g>
</g>
<!-- Node5&#45;&gt;Node36 -->
<g id="edge68" class="edge"><title>Node5&#45;&gt;Node36</title>
<path fill="none" stroke="midnightblue" d="M888.781,-336.324C903.267,-327.822 925.573,-314.729 942.493,-304.797"/>
<polygon fill="midnightblue" stroke="midnightblue" points="944.403,-307.735 951.255,-299.655 940.859,-301.698 944.403,-307.735"/>
</g>
<!-- Node37 -->
<g id="node38" class="node"><title>Node37</title>
<g id="a_node38"><a xlink:href="dji__payload__device_8hpp.html" target="_top" xlink:title="Implementation of DJI Payload Device Abstraction.">
<polygon fill="white" stroke="black" points="225,-168.5 225,-187.5 343,-187.5 343,-168.5 225,-168.5"/>
<text text-anchor="middle" x="284" y="-175.5" font-family="Helvetica,sans-Serif" font-size="10.00">dji_payload_device.hpp</text>
</a>
</g>
</g>
<!-- Node5&#45;&gt;Node37 -->
<g id="edge73" class="edge"><title>Node5&#45;&gt;Node37</title>
<path fill="none" stroke="midnightblue" d="M833.214,-344.509C710.248,-342.653 349.161,-334.304 310,-300 280.867,-274.481 279.87,-224.911 281.83,-197.81"/>
<polygon fill="midnightblue" stroke="midnightblue" points="285.328,-197.99 282.778,-187.707 278.359,-197.336 285.328,-197.99"/>
</g>
<!-- Node7&#45;&gt;Node3 -->
<g id="edge12" class="edge"><title>Node7&#45;&gt;Node3</title>
<path fill="none" stroke="midnightblue" d="M1128.02,-224.162C1127.52,-209.831 1124.25,-181.748 1107,-168 1073.23,-141.084 798.205,-129.164 665.338,-124.936"/>
<polygon fill="midnightblue" stroke="midnightblue" points="665.354,-121.434 655.25,-124.621 665.136,-128.431 665.354,-121.434"/>
</g>
<!-- Node8 -->
<g id="node9" class="node"><title>Node8</title>
<g id="a_node9"><a xlink:href="dji__telemetry_8hpp.html" target="_top" xlink:title="Enumeration of all telemetry data types, structures and maps.">
<polygon fill="white" stroke="black" points="1231.5,-168.5 1231.5,-187.5 1322.5,-187.5 1322.5,-168.5 1231.5,-168.5"/>
<text text-anchor="middle" x="1277" y="-175.5" font-family="Helvetica,sans-Serif" font-size="10.00">dji_telemetry.hpp</text>
</a>
</g>
</g>
<!-- Node7&#45;&gt;Node8 -->
<g id="edge8" class="edge"><title>Node7&#45;&gt;Node8</title>
<path fill="none" stroke="midnightblue" d="M1151.61,-224.444C1176.46,-215.438 1215.77,-201.189 1243.75,-191.049"/>
<polygon fill="midnightblue" stroke="midnightblue" points="1245.29,-194.214 1253.5,-187.516 1242.91,-187.633 1245.29,-194.214"/>
</g>
<!-- Node8&#45;&gt;Node9 -->
<g id="edge9" class="edge"><title>Node8&#45;&gt;Node9</title>
<path fill="none" stroke="midnightblue" d="M1284.27,-168.083C1290.54,-160.377 1299.79,-149.033 1307.43,-139.653"/>
<polygon fill="midnightblue" stroke="midnightblue" points="1310.27,-141.714 1313.87,-131.751 1304.84,-137.293 1310.27,-141.714"/>
</g>
<!-- Node10 -->
<g id="node11" class="node"><title>Node10</title>
<g id="a_node11"><a xlink:title=" ">
<polygon fill="white" stroke="#bfbfbf" points="1324.5,-56.5 1324.5,-75.5 1367.5,-75.5 1367.5,-56.5 1324.5,-56.5"/>
<text text-anchor="middle" x="1346" y="-63.5" font-family="Helvetica,sans-Serif" font-size="10.00">cstdio</text>
</a>
</g>
</g>
<!-- Node9&#45;&gt;Node10 -->
<g id="edge10" class="edge"><title>Node9&#45;&gt;Node10</title>
<path fill="none" stroke="midnightblue" d="M1325.13,-112.083C1328.51,-104.77 1333.42,-94.1814 1337.62,-85.1034"/>
<polygon fill="midnightblue" stroke="midnightblue" points="1340.92,-86.2962 1341.95,-75.7511 1334.57,-83.3553 1340.92,-86.2962"/>
</g>
<!-- Node11 -->
<g id="node12" class="node"><title>Node11</title>
<g id="a_node12"><a xlink:title=" ">
<polygon fill="white" stroke="#bfbfbf" points="1396.5,-0.5 1396.5,-19.5 1445.5,-19.5 1445.5,-0.5 1396.5,-0.5"/>
<text text-anchor="middle" x="1421" y="-7.5" font-family="Helvetica,sans-Serif" font-size="10.00">stdint.h</text>
</a>
</g>
</g>
<!-- Node9&#45;&gt;Node11 -->
<g id="edge11" class="edge"><title>Node9&#45;&gt;Node11</title>
<path fill="none" stroke="midnightblue" d="M1316.93,-112.158C1311.45,-98.7966 1303.62,-73.1996 1315,-56 1330.74,-32.222 1361.84,-20.9712 1386.3,-15.6695"/>
<polygon fill="midnightblue" stroke="midnightblue" points="1387.16,-19.0693 1396.32,-13.7424 1385.84,-12.1954 1387.16,-19.0693"/>
</g>
<!-- Node12&#45;&gt;Node9 -->
<g id="edge18" class="edge"><title>Node12&#45;&gt;Node9</title>
<path fill="none" stroke="midnightblue" d="M1642.27,-169.526C1639.13,-168.998 1636.02,-168.484 1633,-168 1537.99,-152.769 1426.31,-137.232 1365.68,-128.994"/>
<polygon fill="midnightblue" stroke="midnightblue" points="1366.06,-125.514 1355.68,-127.64 1365.12,-132.451 1366.06,-125.514"/>
</g>
<!-- Node12&#45;&gt;Node13 -->
<g id="edge14" class="edge"><title>Node12&#45;&gt;Node13</title>
<path fill="none" stroke="midnightblue" d="M1651.68,-168.444C1616.61,-159.162 1560.5,-144.309 1522.04,-134.127"/>
<polygon fill="midnightblue" stroke="midnightblue" points="1522.74,-130.692 1512.17,-131.516 1520.94,-137.459 1522.74,-130.692"/>
</g>
<!-- Node13&#45;&gt;Node11 -->
<g id="edge17" class="edge"><title>Node13&#45;&gt;Node11</title>
<path fill="none" stroke="midnightblue" d="M1479.5,-112.482C1478.43,-99.5442 1475.11,-74.4928 1465,-56 1458.82,-44.6971 1449,-34.2601 1440.2,-26.289"/>
<polygon fill="midnightblue" stroke="midnightblue" points="1442.41,-23.5719 1432.54,-19.7078 1437.85,-28.8805 1442.41,-23.5719"/>
</g>
<!-- Node14 -->
<g id="node15" class="node"><title>Node14</title>
<g id="a_node15"><a xlink:href="dji__error_8hpp.html" target="_top" xlink:title="All DJI OSDK OpenProtocol ACK Error Codes.">
<polygon fill="white" stroke="black" points="1386,-56.5 1386,-75.5 1456,-75.5 1456,-56.5 1386,-56.5"/>
<text text-anchor="middle" x="1421" y="-63.5" font-family="Helvetica,sans-Serif" font-size="10.00">dji_error.hpp</text>
</a>
</g>
</g>
<!-- Node13&#45;&gt;Node14 -->
<g id="edge15" class="edge"><title>Node13&#45;&gt;Node14</title>
<path fill="none" stroke="midnightblue" d="M1470.52,-112.324C1461.8,-104.341 1448.66,-92.3128 1438.1,-82.6529"/>
<polygon fill="midnightblue" stroke="midnightblue" points="1440.39,-80.0036 1430.65,-75.8339 1435.67,-85.1674 1440.39,-80.0036"/>
</g>
<!-- Node14&#45;&gt;Node11 -->
<g id="edge16" class="edge"><title>Node14&#45;&gt;Node11</title>
<path fill="none" stroke="midnightblue" d="M1421,-56.083C1421,-49.0059 1421,-38.8611 1421,-29.9865"/>
<polygon fill="midnightblue" stroke="midnightblue" points="1424.5,-29.751 1421,-19.7511 1417.5,-29.7511 1424.5,-29.751"/>
</g>
<!-- Node16&#45;&gt;Node3 -->
<g id="edge33" class="edge"><title>Node16&#45;&gt;Node3</title>
<path fill="none" stroke="midnightblue" d="M746.994,-286.611C713.847,-282.588 667.543,-271.948 638,-244 609.003,-216.569 599.05,-168.53 595.683,-141.982"/>
<polygon fill="midnightblue" stroke="midnightblue" points="599.131,-141.312 594.58,-131.744 592.171,-142.061 599.131,-141.312"/>
</g>
<!-- Node16&#45;&gt;Node4 -->
<g id="edge31" class="edge"><title>Node16&#45;&gt;Node4</title>
<path fill="none" stroke="midnightblue" d="M783.393,-280.297C769.799,-247.494 721.474,-130.884 702.616,-85.3774"/>
<polygon fill="midnightblue" stroke="midnightblue" points="705.743,-83.7819 698.682,-75.8837 699.277,-86.4619 705.743,-83.7819"/>
</g>
<!-- Node16&#45;&gt;Node9 -->
<g id="edge32" class="edge"><title>Node16&#45;&gt;Node9</title>
<path fill="none" stroke="midnightblue" d="M788.491,-280.407C789.976,-271.376 792.154,-256.74 793,-244 794.651,-219.13 791.036,-212.903 790,-188 789.631,-179.119 783.986,-174.545 790,-168 822.617,-132.502 1154.1,-124.978 1276.18,-123.407"/>
<polygon fill="midnightblue" stroke="midnightblue" points="1276.35,-126.905 1286.31,-123.284 1276.27,-119.906 1276.35,-126.905"/>
</g>
<!-- Node17 -->
<g id="node18" class="node"><title>Node17</title>
<g id="a_node18"><a xlink:href="dji__ack_8hpp.html" target="_top" xlink:title="All DJI OSDK ACK parsing.">
<polygon fill="white" stroke="black" points="933,-224.5 933,-243.5 999,-243.5 999,-224.5 933,-224.5"/>
<text text-anchor="middle" x="966" y="-231.5" font-family="Helvetica,sans-Serif" font-size="10.00">dji_ack.hpp</text>
</a>
</g>
</g>
<!-- Node16&#45;&gt;Node17 -->
<g id="edge22" class="edge"><title>Node16&#45;&gt;Node17</title>
<path fill="none" stroke="midnightblue" d="M815.363,-280.444C845.738,-271.28 894.11,-256.688 927.816,-246.519"/>
<polygon fill="midnightblue" stroke="midnightblue" points="929.207,-249.756 937.77,-243.516 927.185,-243.054 929.207,-249.756"/>
</g>
<!-- Node17&#45;&gt;Node9 -->
<g id="edge26" class="edge"><title>Node17&#45;&gt;Node9</title>
<path fill="none" stroke="midnightblue" d="M954.34,-224.297C938.051,-211.117 912.163,-185.753 928,-168 950.853,-142.38 1177.79,-129.328 1276.04,-124.842"/>
<polygon fill="midnightblue" stroke="midnightblue" points="1276.42,-128.329 1286.25,-124.385 1276.1,-121.336 1276.42,-128.329"/>
</g>
<!-- Node17&#45;&gt;Node13 -->
<g id="edge23" class="edge"><title>Node17&#45;&gt;Node13</title>
<path fill="none" stroke="midnightblue" d="M996.56,-224.439C1044.38,-211.223 1139.94,-185.547 1222,-168 1290.78,-153.293 1370.64,-139.929 1423.08,-131.655"/>
<polygon fill="midnightblue" stroke="midnightblue" points="1423.85,-135.076 1433.19,-130.069 1422.76,-128.161 1423.85,-135.076"/>
</g>
<!-- Node18 -->
<g id="node19" class="node"><title>Node18</title>
<g id="a_node19"><a xlink:href="dji__mission__type_8hpp.html" target="_top" xlink:title="Mission related data struct for DJI OSDK library.">
<polygon fill="white" stroke="black" points="937,-168.5 937,-187.5 1045,-187.5 1045,-168.5 937,-168.5"/>
<text text-anchor="middle" x="991" y="-175.5" font-family="Helvetica,sans-Serif" font-size="10.00">dji_mission_type.hpp</text>
</a>
</g>
</g>
<!-- Node17&#45;&gt;Node18 -->
<g id="edge24" class="edge"><title>Node17&#45;&gt;Node18</title>
<path fill="none" stroke="midnightblue" d="M970.128,-224.083C973.514,-216.77 978.416,-206.181 982.619,-197.103"/>
<polygon fill="midnightblue" stroke="midnightblue" points="985.923,-198.296 986.949,-187.751 979.571,-195.355 985.923,-198.296"/>
</g>
<!-- Node17&#45;&gt;Node19 -->
<g id="edge27" class="edge"><title>Node17&#45;&gt;Node19</title>
<path fill="none" stroke="midnightblue" d="M946.035,-224.444C925.391,-215.596 892.937,-201.687 869.368,-191.586"/>
<polygon fill="midnightblue" stroke="midnightblue" points="870.442,-188.239 859.872,-187.516 867.684,-194.673 870.442,-188.239"/>
</g>
<!-- Node20 -->
<g id="node21" class="node"><title>Node20</title>
<g id="a_node21"><a xlink:title=" ">
<polygon fill="white" stroke="#bfbfbf" points="1063.5,-168.5 1063.5,-187.5 1098.5,-187.5 1098.5,-168.5 1063.5,-168.5"/>
<text text-anchor="middle" x="1081" y="-175.5" font-family="Helvetica,sans-Serif" font-size="10.00">map</text>
</a>
</g>
</g>
<!-- Node17&#45;&gt;Node20 -->
<g id="edge30" class="edge"><title>Node17&#45;&gt;Node20</title>
<path fill="none" stroke="midnightblue" d="M984.222,-224.444C1003.01,-215.624 1032.5,-201.774 1054,-191.68"/>
<polygon fill="midnightblue" stroke="midnightblue" points="1055.68,-194.758 1063.24,-187.339 1052.7,-188.421 1055.68,-194.758"/>
</g>
<!-- Node18&#45;&gt;Node9 -->
<g id="edge25" class="edge"><title>Node18&#45;&gt;Node9</title>
<path fill="none" stroke="midnightblue" d="M1043.29,-168.444C1107.54,-157.929 1215.48,-140.267 1276.13,-130.342"/>
<polygon fill="midnightblue" stroke="midnightblue" points="1276.86,-133.769 1286.16,-128.7 1275.73,-126.861 1276.86,-133.769"/>
</g>
<!-- Node19&#45;&gt;Node6 -->
<g id="edge29" class="edge"><title>Node19&#45;&gt;Node6</title>
<path fill="none" stroke="midnightblue" d="M798.79,-172.898C740.07,-166.667 628.832,-153.44 525.321,-132.044"/>
<polygon fill="midnightblue" stroke="midnightblue" points="525.836,-128.576 515.33,-129.948 524.398,-135.426 525.836,-128.576"/>
</g>
<!-- Node19&#45;&gt;Node13 -->
<g id="edge28" class="edge"><title>Node19&#45;&gt;Node13</title>
<path fill="none" stroke="midnightblue" d="M881.171,-172.612C895.934,-171.086 912.707,-169.405 928,-168 1023.01,-159.269 1302.47,-137.03 1423.29,-127.474"/>
<polygon fill="midnightblue" stroke="midnightblue" points="1423.74,-130.949 1433.44,-126.672 1423.19,-123.971 1423.74,-130.949"/>
</g>
<!-- Node21&#45;&gt;Node9 -->
<g id="edge36" class="edge"><title>Node21&#45;&gt;Node9</title>
<path fill="none" stroke="midnightblue" d="M1545.48,-168.916C1497.3,-159.061 1416.1,-142.452 1365.69,-132.141"/>
<polygon fill="midnightblue" stroke="midnightblue" points="1366.23,-128.679 1355.73,-130.104 1364.83,-135.537 1366.23,-128.679"/>
</g>
<!-- Node21&#45;&gt;Node13 -->
<g id="edge35" class="edge"><title>Node21&#45;&gt;Node13</title>
<path fill="none" stroke="midnightblue" d="M1568.13,-168.324C1551.29,-159.664 1525.19,-146.242 1505.76,-136.249"/>
<polygon fill="midnightblue" stroke="midnightblue" points="1507.32,-133.116 1496.83,-131.655 1504.12,-139.341 1507.32,-133.116"/>
</g>
<!-- Node23&#45;&gt;Node3 -->
<g id="edge40" class="edge"><title>Node23&#45;&gt;Node3</title>
<path fill="none" stroke="midnightblue" d="M478.708,-168.444C501.355,-159.517 537.072,-145.439 562.752,-135.317"/>
<polygon fill="midnightblue" stroke="midnightblue" points="564.374,-138.44 572.394,-131.516 561.807,-131.927 564.374,-138.44"/>
</g>
<!-- Node23&#45;&gt;Node9 -->
<g id="edge39" class="edge"><title>Node23&#45;&gt;Node9</title>
<path fill="none" stroke="midnightblue" d="M515.031,-173.373C676.891,-163.257 1130.93,-134.879 1275.9,-125.818"/>
<polygon fill="midnightblue" stroke="midnightblue" points="1276.44,-129.292 1286.2,-125.175 1276,-122.306 1276.44,-129.292"/>
</g>
<!-- Node24 -->
<g id="node25" class="node"><title>Node24</title>
<g id="a_node25"><a xlink:title=" ">
<polygon fill="white" stroke="#bfbfbf" points="409.5,-112.5 409.5,-131.5 450.5,-131.5 450.5,-112.5 409.5,-112.5"/>
<text text-anchor="middle" x="430" y="-119.5" font-family="Helvetica,sans-Serif" font-size="10.00">string</text>
</a>
</g>
</g>
<!-- Node23&#45;&gt;Node24 -->
<g id="edge41" class="edge"><title>Node23&#45;&gt;Node24</title>
<path fill="none" stroke="midnightblue" d="M452.541,-168.083C448.846,-160.691 443.477,-149.953 438.906,-140.811"/>
<polygon fill="midnightblue" stroke="midnightblue" points="441.978,-139.13 434.376,-131.751 435.717,-142.261 441.978,-139.13"/>
</g>
<!-- Node25&#45;&gt;Node3 -->
<g id="edge43" class="edge"><title>Node25&#45;&gt;Node3</title>
<path fill="none" stroke="midnightblue" d="M558.982,-224.368C565.142,-206.537 579.389,-165.295 587.688,-141.272"/>
<polygon fill="midnightblue" stroke="midnightblue" points="591.075,-142.186 591.032,-131.591 584.459,-139.9 591.075,-142.186"/>
</g>
<!-- Node27 -->
<g id="node28" class="node"><title>Node27</title>
<g id="a_node28"><a xlink:href="dji__hotpoint_8hpp.html" target="_top" xlink:title="Implementation of HotPoint (Point of Interest) Missions for DJI OSDK.">
<polygon fill="white" stroke="black" points="1407.5,-224.5 1407.5,-243.5 1492.5,-243.5 1492.5,-224.5 1407.5,-224.5"/>
<text text-anchor="middle" x="1450" y="-231.5" font-family="Helvetica,sans-Serif" font-size="10.00">dji_hotpoint.hpp</text>
</a>
</g>
</g>
<!-- Node26&#45;&gt;Node27 -->
<g id="edge45" class="edge"><title>Node26&#45;&gt;Node27</title>
<path fill="none" stroke="midnightblue" d="M1182.2,-280.44C1233.85,-271.788 1316.19,-257.955 1397.52,-244.075"/>
<polygon fill="midnightblue" stroke="midnightblue" points="1398.17,-247.516 1407.44,-242.383 1396.99,-240.616 1398.17,-247.516"/>
</g>
<!-- Node29 -->
<g id="node30" class="node"><title>Node29</title>
<g id="a_node30"><a xlink:href="dji__waypoint_8hpp.html" target="_top" xlink:title="Implementation of GPS Waypoint Missions for DJI OSDK.">
<polygon fill="white" stroke="black" points="1510.5,-224.5 1510.5,-243.5 1599.5,-243.5 1599.5,-224.5 1510.5,-224.5"/>
<text text-anchor="middle" x="1555" y="-231.5" font-family="Helvetica,sans-Serif" font-size="10.00">dji_waypoint.hpp</text>
</a>
</g>
</g>
<!-- Node26&#45;&gt;Node29 -->
<g id="edge51" class="edge"><title>Node26&#45;&gt;Node29</title>
<path fill="none" stroke="midnightblue" d="M1194.7,-281.139C1197.84,-280.753 1200.96,-280.372 1204,-280 1332.76,-264.259 1367.7,-262.989 1500.11,-244.072"/>
<polygon fill="midnightblue" stroke="midnightblue" points="1500.83,-247.504 1510.23,-242.619 1499.84,-240.575 1500.83,-247.504"/>
</g>
<!-- Node30 -->
<g id="node31" class="node"><title>Node30</title>
<g id="a_node31"><a xlink:title=" ">
<polygon fill="white" stroke="#bfbfbf" points="1345,-224.5 1345,-243.5 1389,-243.5 1389,-224.5 1345,-224.5"/>
<text text-anchor="middle" x="1367" y="-231.5" font-family="Helvetica,sans-Serif" font-size="10.00">vector</text>
</a>
</g>
</g>
<!-- Node26&#45;&gt;Node30 -->
<g id="edge53" class="edge"><title>Node26&#45;&gt;Node30</title>
<path fill="none" stroke="midnightblue" d="M1170.15,-280.478C1210.52,-271.624 1275.25,-257.239 1331,-244 1332.27,-243.699 1333.56,-243.389 1334.87,-243.073"/>
<polygon fill="midnightblue" stroke="midnightblue" points="1336.06,-246.386 1344.94,-240.604 1334.39,-239.587 1336.06,-246.386"/>
</g>
<!-- Node27&#45;&gt;Node8 -->
<g id="edge50" class="edge"><title>Node27&#45;&gt;Node8</title>
<path fill="none" stroke="midnightblue" d="M1422.59,-224.444C1393.23,-215.28 1346.48,-200.688 1313.9,-190.519"/>
<polygon fill="midnightblue" stroke="midnightblue" points="1314.87,-187.155 1304.28,-187.516 1312.79,-193.837 1314.87,-187.155"/>
</g>
<!-- Node28 -->
<g id="node29" class="node"><title>Node28</title>
<g id="a_node29"><a xlink:href="dji__mission__base_8hpp.html" target="_top" xlink:title="Mission&#45;Base abstract class for DJI OSDK library.">
<polygon fill="white" stroke="black" points="1417,-168.5 1417,-187.5 1527,-187.5 1527,-168.5 1417,-168.5"/>
<text text-anchor="middle" x="1472" y="-175.5" font-family="Helvetica,sans-Serif" font-size="10.00">dji_mission_base.hpp</text>
</a>
</g>
</g>
<!-- Node27&#45;&gt;Node28 -->
<g id="edge46" class="edge"><title>Node27&#45;&gt;Node28</title>
<path fill="none" stroke="midnightblue" d="M1453.63,-224.083C1456.61,-216.77 1460.93,-206.181 1464.62,-197.103"/>
<polygon fill="midnightblue" stroke="midnightblue" points="1467.9,-198.333 1468.43,-187.751 1461.42,-195.691 1467.9,-198.333"/>
</g>
<!-- Node28&#45;&gt;Node3 -->
<g id="edge49" class="edge"><title>Node28&#45;&gt;Node3</title>
<path fill="none" stroke="midnightblue" d="M1416.76,-173.438C1390.74,-171.77 1359.28,-169.766 1331,-168 1086.85,-152.754 797.162,-135.233 665.497,-127.3"/>
<polygon fill="midnightblue" stroke="midnightblue" points="665.345,-123.784 655.152,-126.677 664.924,-130.772 665.345,-123.784"/>
</g>
<!-- Node28&#45;&gt;Node9 -->
<g id="edge48" class="edge"><title>Node28&#45;&gt;Node9</title>
<path fill="none" stroke="midnightblue" d="M1448.07,-168.444C1422.78,-159.399 1382.7,-145.064 1354.32,-134.916"/>
<polygon fill="midnightblue" stroke="midnightblue" points="1355.41,-131.588 1344.81,-131.516 1353.05,-138.179 1355.41,-131.588"/>
</g>
<!-- Node28&#45;&gt;Node13 -->
<g id="edge47" class="edge"><title>Node28&#45;&gt;Node13</title>
<path fill="none" stroke="midnightblue" d="M1473.32,-168.083C1474.38,-160.927 1475.91,-150.635 1477.23,-141.691"/>
<polygon fill="midnightblue" stroke="midnightblue" points="1480.7,-142.156 1478.7,-131.751 1473.78,-141.13 1480.7,-142.156"/>
</g>
<!-- Node29&#45;&gt;Node28 -->
<g id="edge52" class="edge"><title>Node29&#45;&gt;Node28</title>
<path fill="none" stroke="midnightblue" d="M1541.66,-224.324C1528.84,-215.979 1509.22,-203.212 1494.06,-193.352"/>
<polygon fill="midnightblue" stroke="midnightblue" points="1495.59,-190.174 1485.3,-187.655 1491.78,-196.042 1495.59,-190.174"/>
</g>
<!-- Node31&#45;&gt;Node3 -->
<g id="edge56" class="edge"><title>Node31&#45;&gt;Node3</title>
<path fill="none" stroke="midnightblue" d="M464.191,-224.356C480.256,-215.959 504.606,-202.398 524,-188 544.259,-172.96 565.161,-152.839 578.787,-138.988"/>
<polygon fill="midnightblue" stroke="midnightblue" points="581.461,-141.259 585.909,-131.644 576.435,-136.386 581.461,-141.259"/>
</g>
<!-- Node34&#45;&gt;Node3 -->
<g id="edge63" class="edge"><title>Node34&#45;&gt;Node3</title>
<path fill="none" stroke="midnightblue" d="M690.761,-224.368C673.203,-205.974 631.868,-162.671 609.322,-139.052"/>
<polygon fill="midnightblue" stroke="midnightblue" points="611.637,-136.408 602.201,-131.591 606.574,-141.242 611.637,-136.408"/>
</g>
<!-- Node34&#45;&gt;Node4 -->
<g id="edge61" class="edge"><title>Node34&#45;&gt;Node4</title>
<path fill="none" stroke="midnightblue" d="M698.785,-224.075C698.155,-197.945 696.306,-121.211 695.448,-85.577"/>
<polygon fill="midnightblue" stroke="midnightblue" points="698.946,-85.4809 695.206,-75.5681 691.948,-85.6496 698.946,-85.4809"/>
</g>
<!-- Node34&#45;&gt;Node8 -->
<g id="edge62" class="edge"><title>Node34&#45;&gt;Node8</title>
<path fill="none" stroke="midnightblue" d="M750.548,-228.184C858.812,-218.069 1109.07,-194.689 1221.06,-184.226"/>
<polygon fill="midnightblue" stroke="midnightblue" points="1221.5,-187.7 1231.14,-183.285 1220.85,-180.73 1221.5,-187.7"/>
</g>
<!-- Node36&#45;&gt;Node4 -->
<g id="edge70" class="edge"><title>Node36&#45;&gt;Node4</title>
<path fill="none" stroke="midnightblue" d="M1011.09,-281.14C1073.06,-270.125 1177.55,-250.695 1183,-244 1188.61,-237.106 1186.36,-232.228 1183,-224 1169.8,-191.71 1158.42,-185.084 1128,-168 1009.53,-101.455 849.253,-78.6703 760.679,-70.929"/>
<polygon fill="midnightblue" stroke="midnightblue" points="760.759,-67.4236 750.503,-70.0785 760.176,-74.3993 760.759,-67.4236"/>
</g>
<!-- Node36&#45;&gt;Node8 -->
<g id="edge72" class="edge"><title>Node36&#45;&gt;Node8</title>
<path fill="none" stroke="midnightblue" d="M1011.14,-281.671C1080.94,-270.23 1208.02,-248.921 1217,-244 1237.74,-232.63 1255.25,-211.411 1265.9,-196.311"/>
<polygon fill="midnightblue" stroke="midnightblue" points="1268.92,-198.089 1271.61,-187.842 1263.12,-194.174 1268.92,-198.089"/>
</g>
<!-- Node36&#45;&gt;Node9 -->
<g id="edge71" class="edge"><title>Node36&#45;&gt;Node9</title>
<path fill="none" stroke="midnightblue" d="M1011.13,-281.936C1088.47,-269.797 1238.59,-246.076 1244,-244 1286.94,-227.534 1308.98,-228.367 1331,-188 1338.93,-173.464 1334.67,-154.536 1329.48,-140.858"/>
<polygon fill="midnightblue" stroke="midnightblue" points="1332.66,-139.404 1325.52,-131.581 1326.23,-142.152 1332.66,-139.404"/>
</g>
<!-- Node36&#45;&gt;Node17 -->
<g id="edge69" class="edge"><title>Node36&#45;&gt;Node17</title>
<path fill="none" stroke="midnightblue" d="M966,-280.083C966,-273.006 966,-262.861 966,-253.986"/>
<polygon fill="midnightblue" stroke="midnightblue" points="969.5,-253.751 966,-243.751 962.5,-253.751 969.5,-253.751"/>
</g>
<!-- Node37&#45;&gt;Node3 -->
<g id="edge74" class="edge"><title>Node37&#45;&gt;Node3</title>
<path fill="none" stroke="midnightblue" d="M333.12,-168.444C387.879,-158.905 476.41,-143.483 534.911,-133.293"/>
<polygon fill="midnightblue" stroke="midnightblue" points="535.858,-136.681 545.109,-131.516 534.657,-129.785 535.858,-136.681"/>
</g>
</g>
</svg>
