<?xml version="1.0" encoding="UTF-8" standalone="no"?>
<!DOCTYPE svg PUBLIC "-//W3C//DTD SVG 1.1//EN"
 "http://www.w3.org/Graphics/SVG/1.1/DTD/svg11.dtd">
<!-- Generated by graphviz version 2.38.0 (20140413.2041)
 -->
<!-- Title: osdk&#45;core/api/src/dji_virtual_rc.cpp Pages: 1 -->
<!--zoomable 431 -->
<svg id="main" version="1.1" xmlns="http://www.w3.org/2000/svg" xmlns:xlink="http://www.w3.org/1999/xlink" xml:space="preserve" onload="init(evt)">
<style type="text/css"><![CDATA[
.edge:hover path { stroke: red; }
.edge:hover polygon { stroke: red; fill: red; }
]]></style>
<script type="text/javascript"><![CDATA[
var edges = document.getElementsByTagName('g');
if (edges && edges.length) {
  for (var i=0;i<edges.length;i++) {
    if (edges[i].id.substr(0,4)=='edge') {
      edges[i].setAttribute('class','edge');
    }
  }
}
]]></script>
        <defs>
                <circle id="rim" cx="0" cy="0" r="7"/>
                <circle id="rim2" cx="0" cy="0" r="3.5"/>
                <g id="zoomPlus">
                        <use xlink:href="#rim" fill="#404040">
                                <set attributeName="fill" to="#808080" begin="zoomplus.mouseover" end="zoomplus.mouseout"/>
                        </use>
                        <path d="M-4,0h8M0,-4v8" fill="none" stroke="white" stroke-width="1.5" pointer-events="none"/>
                </g>
                <g id="zoomMin">
                        <use xlink:href="#rim" fill="#404040">
                                <set attributeName="fill" to="#808080" begin="zoomminus.mouseover" end="zoomminus.mouseout"/>
                        </use>
                        <path d="M-4,0h8" fill="none" stroke="white" stroke-width="1.5" pointer-events="none"/>
                </g>
                <g id="dirArrow">
                        <path fill="none" stroke="white" stroke-width="1.5" d="M0,-3.0v7 M-2.5,-0.5L0,-3.0L2.5,-0.5"/>
                </g>
               <g id="resetDef">
                       <use xlink:href="#rim2" fill="#404040">
                               <set attributeName="fill" to="#808080" begin="reset.mouseover" end="reset.mouseout"/>
                       </use>
               </g>
        </defs>

<script type="text/javascript">
var viewWidth = 1966;
var viewHeight = 431;
var sectionId = 'dynsection-0';
</script>
<script xlink:href="svgpan.js"/>
<svg id="graph" class="graph">
<g id="viewport">
<title>osdk&#45;core/api/src/dji_virtual_rc.cpp</title>
<polygon fill="white" stroke="none" points="-4,4 -4,-427 1962.08,-427 1962.08,4 -4,4"/>
<!-- Node0 -->
<g id="node1" class="node"><title>Node0</title>
<g id="a_node1"><a xlink:title="Virtual Radio Control API for DJI onboardSDK library.">
<polygon fill="#bfbfbf" stroke="black" points="905.081,-392.5 905.081,-422.5 1009.08,-422.5 1009.08,-392.5 905.081,-392.5"/>
<text text-anchor="start" x="913.081" y="-410.5" font-family="Helvetica,sans-Serif" font-size="10.00">osdk&#45;core/api/src/dji</text>
<text text-anchor="middle" x="957.081" y="-399.5" font-family="Helvetica,sans-Serif" font-size="10.00">_virtual_rc.cpp</text>
</a>
</g>
</g>
<!-- Node1 -->
<g id="node2" class="node"><title>Node1</title>
<g id="a_node2"><a xlink:href="dji__virtual__rc_8hpp.html" target="_top" xlink:title="Virtual Radio Control API for DJI onboardSDK library.">
<polygon fill="white" stroke="black" points="460.081,-280.5 460.081,-299.5 550.081,-299.5 550.081,-280.5 460.081,-280.5"/>
<text text-anchor="middle" x="505.081" y="-287.5" font-family="Helvetica,sans-Serif" font-size="10.00">dji_virtual_rc.hpp</text>
</a>
</g>
</g>
<!-- Node0&#45;&gt;Node1 -->
<g id="edge1" class="edge"><title>Node0&#45;&gt;Node1</title>
<path fill="none" stroke="midnightblue" d="M904.79,-393.138C814.666,-370.108 631.737,-323.365 548.307,-302.046"/>
<polygon fill="midnightblue" stroke="midnightblue" points="548.956,-298.599 538.401,-299.514 547.223,-305.381 548.956,-298.599"/>
</g>
<!-- Node14 -->
<g id="node15" class="node"><title>Node14</title>
<g id="a_node15"><a xlink:href="dji__vehicle_8hpp.html" target="_top" xlink:title="Vehicle API for DJI onboardSDK library.">
<polygon fill="white" stroke="black" points="1084.58,-336.5 1084.58,-355.5 1165.58,-355.5 1165.58,-336.5 1084.58,-336.5"/>
<text text-anchor="middle" x="1125.08" y="-343.5" font-family="Helvetica,sans-Serif" font-size="10.00">dji_vehicle.hpp</text>
</a>
</g>
</g>
<!-- Node0&#45;&gt;Node14 -->
<g id="edge20" class="edge"><title>Node0&#45;&gt;Node14</title>
<path fill="none" stroke="midnightblue" d="M996.895,-392.399C1025.59,-382.238 1063.89,-368.672 1091.14,-359.022"/>
<polygon fill="midnightblue" stroke="midnightblue" points="1092.38,-362.296 1100.64,-355.658 1090.04,-355.697 1092.38,-362.296"/>
</g>
<!-- Node2 -->
<g id="node3" class="node"><title>Node2</title>
<g id="a_node3"><a xlink:href="dji__ack_8hpp.html" target="_top" xlink:title="All DJI OSDK ACK parsing.">
<polygon fill="white" stroke="black" points="472.081,-224.5 472.081,-243.5 538.081,-243.5 538.081,-224.5 472.081,-224.5"/>
<text text-anchor="middle" x="505.081" y="-231.5" font-family="Helvetica,sans-Serif" font-size="10.00">dji_ack.hpp</text>
</a>
</g>
</g>
<!-- Node1&#45;&gt;Node2 -->
<g id="edge2" class="edge"><title>Node1&#45;&gt;Node2</title>
<path fill="none" stroke="midnightblue" d="M505.081,-280.083C505.081,-273.006 505.081,-262.861 505.081,-253.986"/>
<polygon fill="midnightblue" stroke="midnightblue" points="508.581,-253.751 505.081,-243.751 501.581,-253.751 508.581,-253.751"/>
</g>
<!-- Node7 -->
<g id="node8" class="node"><title>Node7</title>
<g id="a_node8"><a xlink:href="dji__type_8hpp.html" target="_top" xlink:title="Data type and Data Structure definitions for use throughout DJI OSDK.">
<polygon fill="white" stroke="black" points="489.581,-112.5 489.581,-131.5 558.581,-131.5 558.581,-112.5 489.581,-112.5"/>
<text text-anchor="middle" x="524.081" y="-119.5" font-family="Helvetica,sans-Serif" font-size="10.00">dji_type.hpp</text>
</a>
</g>
</g>
<!-- Node1&#45;&gt;Node7 -->
<g id="edge17" class="edge"><title>Node1&#45;&gt;Node7</title>
<path fill="none" stroke="midnightblue" d="M482.784,-280.487C437.838,-262.058 343.554,-216.225 379.081,-168 401.892,-137.037 445.802,-126.751 479.351,-123.63"/>
<polygon fill="midnightblue" stroke="midnightblue" points="479.686,-127.115 489.396,-122.877 479.162,-120.134 479.686,-127.115"/>
</g>
<!-- Node12 -->
<g id="node13" class="node"><title>Node12</title>
<g id="a_node13"><a xlink:title=" ">
<polygon fill="white" stroke="#bfbfbf" points="1473.58,-56.5 1473.58,-75.5 1584.58,-75.5 1584.58,-56.5 1473.58,-56.5"/>
<text text-anchor="middle" x="1529.08" y="-63.5" font-family="Helvetica,sans-Serif" font-size="10.00">dji_open_protocol.hpp</text>
</a>
</g>
</g>
<!-- Node1&#45;&gt;Node12 -->
<g id="edge16" class="edge"><title>Node1&#45;&gt;Node12</title>
<path fill="none" stroke="midnightblue" d="M550.44,-284.297C654.443,-273.47 901.84,-247.443 910.081,-244 953.09,-226.035 1029.96,-129.7 1073.08,-112 1142.06,-83.6852 1354.51,-72.709 1463.34,-68.861"/>
<polygon fill="midnightblue" stroke="midnightblue" points="1463.67,-72.352 1473.55,-68.5106 1463.43,-65.3561 1463.67,-72.352"/>
</g>
<!-- Node13 -->
<g id="node14" class="node"><title>Node13</title>
<g id="a_node14"><a xlink:href="dji__telemetry_8hpp.html" target="_top" xlink:title="Enumeration of all telemetry data types, structures and maps.">
<polygon fill="white" stroke="black" points="810.581,-168.5 810.581,-187.5 901.581,-187.5 901.581,-168.5 810.581,-168.5"/>
<text text-anchor="middle" x="856.081" y="-175.5" font-family="Helvetica,sans-Serif" font-size="10.00">dji_telemetry.hpp</text>
</a>
</g>
</g>
<!-- Node1&#45;&gt;Node13 -->
<g id="edge18" class="edge"><title>Node1&#45;&gt;Node13</title>
<path fill="none" stroke="midnightblue" d="M529.603,-280.467C566.461,-267.724 638.4,-243.168 700.081,-224 739.065,-211.886 783.868,-199.076 815.429,-190.235"/>
<polygon fill="midnightblue" stroke="midnightblue" points="816.497,-193.571 825.187,-187.51 814.614,-186.829 816.497,-193.571"/>
</g>
<!-- Node3 -->
<g id="node4" class="node"><title>Node3</title>
<g id="a_node4"><a xlink:href="dji__command_8hpp.html" target="_top" xlink:title="All DJI OSDK OpenProtocol Command IDs.">
<polygon fill="white" stroke="black" points="206.581,-112.5 206.581,-131.5 299.581,-131.5 299.581,-112.5 206.581,-112.5"/>
<text text-anchor="middle" x="253.081" y="-119.5" font-family="Helvetica,sans-Serif" font-size="10.00">dji_command.hpp</text>
</a>
</g>
</g>
<!-- Node2&#45;&gt;Node3 -->
<g id="edge3" class="edge"><title>Node2&#45;&gt;Node3</title>
<path fill="none" stroke="midnightblue" d="M477.639,-224.372C451.837,-215.985 412.319,-202.432 379.081,-188 342.645,-172.179 302.074,-150.474 277.062,-136.59"/>
<polygon fill="midnightblue" stroke="midnightblue" points="278.715,-133.505 268.279,-131.681 275.3,-139.615 278.715,-133.505"/>
</g>
<!-- Node6 -->
<g id="node7" class="node"><title>Node6</title>
<g id="a_node7"><a xlink:href="dji__mission__type_8hpp.html" target="_top" xlink:title="Mission related data struct for DJI OSDK library.">
<polygon fill="white" stroke="black" points="388.081,-168.5 388.081,-187.5 496.081,-187.5 496.081,-168.5 388.081,-168.5"/>
<text text-anchor="middle" x="442.081" y="-175.5" font-family="Helvetica,sans-Serif" font-size="10.00">dji_mission_type.hpp</text>
</a>
</g>
</g>
<!-- Node2&#45;&gt;Node6 -->
<g id="edge7" class="edge"><title>Node2&#45;&gt;Node6</title>
<path fill="none" stroke="midnightblue" d="M494.959,-224.324C485.555,-216.263 471.337,-204.077 460.012,-194.369"/>
<polygon fill="midnightblue" stroke="midnightblue" points="462.258,-191.684 452.387,-187.834 457.702,-196.999 462.258,-191.684"/>
</g>
<!-- Node2&#45;&gt;Node7 -->
<g id="edge11" class="edge"><title>Node2&#45;&gt;Node7</title>
<path fill="none" stroke="midnightblue" d="M506.572,-224.368C509.638,-206.617 516.712,-165.666 520.869,-141.597"/>
<polygon fill="midnightblue" stroke="midnightblue" points="524.344,-142.041 522.597,-131.591 517.446,-140.85 524.344,-142.041"/>
</g>
<!-- Node9 -->
<g id="node10" class="node"><title>Node9</title>
<g id="a_node10"><a xlink:href="dji__version_8hpp.html" target="_top" xlink:title="Drone/SDK Version definition for DJI onboardSDK library.">
<polygon fill="white" stroke="black" points="212.081,-168.5 212.081,-187.5 294.081,-187.5 294.081,-168.5 212.081,-168.5"/>
<text text-anchor="middle" x="253.081" y="-175.5" font-family="Helvetica,sans-Serif" font-size="10.00">dji_version.hpp</text>
</a>
</g>
</g>
<!-- Node2&#45;&gt;Node9 -->
<g id="edge12" class="edge"><title>Node2&#45;&gt;Node9</title>
<path fill="none" stroke="midnightblue" d="M471.878,-225.885C428.74,-216.641 353.04,-200.42 302.975,-189.692"/>
<polygon fill="midnightblue" stroke="midnightblue" points="303.523,-186.23 293.012,-187.557 302.057,-193.074 303.523,-186.23"/>
</g>
<!-- Node11 -->
<g id="node12" class="node"><title>Node11</title>
<g id="a_node12"><a xlink:title=" ">
<polygon fill="white" stroke="#bfbfbf" points="552.581,-168.5 552.581,-187.5 587.581,-187.5 587.581,-168.5 552.581,-168.5"/>
<text text-anchor="middle" x="570.081" y="-175.5" font-family="Helvetica,sans-Serif" font-size="10.00">map</text>
</a>
</g>
</g>
<!-- Node2&#45;&gt;Node11 -->
<g id="edge15" class="edge"><title>Node2&#45;&gt;Node11</title>
<path fill="none" stroke="midnightblue" d="M515.525,-224.324C525.228,-216.263 539.897,-204.077 551.581,-194.369"/>
<polygon fill="midnightblue" stroke="midnightblue" points="553.993,-196.916 559.448,-187.834 549.519,-191.532 553.993,-196.916"/>
</g>
<!-- Node4 -->
<g id="node5" class="node"><title>Node4</title>
<g id="a_node5"><a xlink:href="dji__error_8hpp.html" target="_top" xlink:title="All DJI OSDK OpenProtocol ACK Error Codes.">
<polygon fill="white" stroke="black" points="218.081,-56.5 218.081,-75.5 288.081,-75.5 288.081,-56.5 218.081,-56.5"/>
<text text-anchor="middle" x="253.081" y="-63.5" font-family="Helvetica,sans-Serif" font-size="10.00">dji_error.hpp</text>
</a>
</g>
</g>
<!-- Node3&#45;&gt;Node4 -->
<g id="edge4" class="edge"><title>Node3&#45;&gt;Node4</title>
<path fill="none" stroke="midnightblue" d="M253.081,-112.083C253.081,-105.006 253.081,-94.8611 253.081,-85.9865"/>
<polygon fill="midnightblue" stroke="midnightblue" points="256.581,-85.751 253.081,-75.7511 249.581,-85.7511 256.581,-85.751"/>
</g>
<!-- Node5 -->
<g id="node6" class="node"><title>Node5</title>
<g id="a_node6"><a xlink:title=" ">
<polygon fill="white" stroke="#bfbfbf" points="291.581,-0.5 291.581,-19.5 340.581,-19.5 340.581,-0.5 291.581,-0.5"/>
<text text-anchor="middle" x="316.081" y="-7.5" font-family="Helvetica,sans-Serif" font-size="10.00">stdint.h</text>
</a>
</g>
</g>
<!-- Node3&#45;&gt;Node5 -->
<g id="edge6" class="edge"><title>Node3&#45;&gt;Node5</title>
<path fill="none" stroke="midnightblue" d="M264.424,-112.179C274.388,-103.859 288.585,-90.5244 297.081,-76 305.522,-61.5704 310.448,-43.1178 313.159,-29.5626"/>
<polygon fill="midnightblue" stroke="midnightblue" points="316.639,-29.9822 314.945,-19.5238 309.747,-28.7564 316.639,-29.9822"/>
</g>
<!-- Node4&#45;&gt;Node5 -->
<g id="edge5" class="edge"><title>Node4&#45;&gt;Node5</title>
<path fill="none" stroke="midnightblue" d="M263.203,-56.324C272.608,-48.2631 286.825,-36.0765 298.15,-26.3695"/>
<polygon fill="midnightblue" stroke="midnightblue" points="300.46,-28.9993 305.775,-19.8339 295.905,-23.6844 300.46,-28.9993"/>
</g>
<!-- Node6&#45;&gt;Node7 -->
<g id="edge8" class="edge"><title>Node6&#45;&gt;Node7</title>
<path fill="none" stroke="midnightblue" d="M455.256,-168.324C467.928,-159.979 487.315,-147.212 502.287,-137.352"/>
<polygon fill="midnightblue" stroke="midnightblue" points="504.512,-140.078 510.939,-131.655 500.663,-134.231 504.512,-140.078"/>
</g>
<!-- Node7&#45;&gt;Node5 -->
<g id="edge10" class="edge"><title>Node7&#45;&gt;Node5</title>
<path fill="none" stroke="midnightblue" d="M507.76,-112.368C471.611,-93.2515 384.587,-47.229 341.346,-24.361"/>
<polygon fill="midnightblue" stroke="midnightblue" points="342.803,-21.1725 332.327,-19.5914 339.531,-27.3604 342.803,-21.1725"/>
</g>
<!-- Node8 -->
<g id="node9" class="node"><title>Node8</title>
<g id="a_node9"><a xlink:title=" ">
<polygon fill="white" stroke="#bfbfbf" points="502.581,-56.5 502.581,-75.5 545.581,-75.5 545.581,-56.5 502.581,-56.5"/>
<text text-anchor="middle" x="524.081" y="-63.5" font-family="Helvetica,sans-Serif" font-size="10.00">cstdio</text>
</a>
</g>
</g>
<!-- Node7&#45;&gt;Node8 -->
<g id="edge9" class="edge"><title>Node7&#45;&gt;Node8</title>
<path fill="none" stroke="midnightblue" d="M524.081,-112.083C524.081,-105.006 524.081,-94.8611 524.081,-85.9865"/>
<polygon fill="midnightblue" stroke="midnightblue" points="527.581,-85.751 524.081,-75.7511 520.581,-85.7511 527.581,-85.751"/>
</g>
<!-- Node9&#45;&gt;Node3 -->
<g id="edge13" class="edge"><title>Node9&#45;&gt;Node3</title>
<path fill="none" stroke="midnightblue" d="M253.081,-168.083C253.081,-161.006 253.081,-150.861 253.081,-141.986"/>
<polygon fill="midnightblue" stroke="midnightblue" points="256.581,-141.751 253.081,-131.751 249.581,-141.751 256.581,-141.751"/>
</g>
<!-- Node10 -->
<g id="node11" class="node"><title>Node10</title>
<g id="a_node11"><a xlink:title=" ">
<polygon fill="white" stroke="#bfbfbf" points="716.081,-112.5 716.081,-131.5 762.081,-131.5 762.081,-112.5 716.081,-112.5"/>
<text text-anchor="middle" x="739.081" y="-119.5" font-family="Helvetica,sans-Serif" font-size="10.00">cstdint</text>
</a>
</g>
</g>
<!-- Node9&#45;&gt;Node10 -->
<g id="edge14" class="edge"><title>Node9&#45;&gt;Node10</title>
<path fill="none" stroke="midnightblue" d="M294.098,-172.443C388.561,-161.947 619.942,-136.238 706.07,-126.668"/>
<polygon fill="midnightblue" stroke="midnightblue" points="706.516,-130.14 716.068,-125.557 705.743,-123.183 706.516,-130.14"/>
</g>
<!-- Node13&#45;&gt;Node7 -->
<g id="edge19" class="edge"><title>Node13&#45;&gt;Node7</title>
<path fill="none" stroke="midnightblue" d="M810.463,-169.531C807.288,-169.013 804.137,-168.498 801.081,-168 719.09,-154.632 623.434,-139.108 568.691,-130.231"/>
<polygon fill="midnightblue" stroke="midnightblue" points="569.062,-126.745 558.631,-128.6 567.941,-133.655 569.062,-126.745"/>
</g>
<!-- Node14&#45;&gt;Node1 -->
<g id="edge72" class="edge"><title>Node14&#45;&gt;Node1</title>
<path fill="none" stroke="midnightblue" d="M1084.5,-342.741C991.995,-337.373 758.435,-322.589 564.081,-300 562.808,-299.852 561.519,-299.697 560.22,-299.537"/>
<polygon fill="midnightblue" stroke="midnightblue" points="560.506,-296.044 550.135,-298.211 559.593,-302.984 560.506,-296.044"/>
</g>
<!-- Node14&#45;&gt;Node3 -->
<g id="edge30" class="edge"><title>Node14&#45;&gt;Node3</title>
<path fill="none" stroke="midnightblue" d="M1084.49,-344.677C937.08,-343.223 430.447,-335.685 273.081,-300 146.783,-271.361 75.8602,-295.792 4.08126,-188 -0.845488,-180.601 -1.61789,-174.821 4.08126,-168 28.0762,-139.28 130.432,-128.856 196.211,-125.096"/>
<polygon fill="midnightblue" stroke="midnightblue" points="196.638,-128.578 206.437,-124.548 196.264,-121.588 196.638,-128.578"/>
</g>
<!-- Node14&#45;&gt;Node7 -->
<g id="edge69" class="edge"><title>Node14&#45;&gt;Node7</title>
<path fill="none" stroke="midnightblue" d="M1084.51,-344.614C966.56,-343.074 630.004,-335.576 597.081,-300 557.234,-256.94 624.716,-219.206 596.081,-168 587.937,-153.436 572.916,-142.953 558.694,-135.79"/>
<polygon fill="midnightblue" stroke="midnightblue" points="560.088,-132.578 549.543,-131.552 557.146,-138.93 560.088,-132.578"/>
</g>
<!-- Node14&#45;&gt;Node9 -->
<g id="edge71" class="edge"><title>Node14&#45;&gt;Node9</title>
<path fill="none" stroke="midnightblue" d="M1084.5,-344.818C957.663,-343.856 570.116,-337.816 451.081,-300 378.124,-276.822 304.385,-221.387 271.22,-194.351"/>
<polygon fill="midnightblue" stroke="midnightblue" points="273.268,-191.503 263.331,-187.827 268.807,-196.897 273.268,-191.503"/>
</g>
<!-- Node14&#45;&gt;Node10 -->
<g id="edge21" class="edge"><title>Node14&#45;&gt;Node10</title>
<path fill="none" stroke="midnightblue" d="M1124.95,-336.311C1124.15,-314.322 1118.96,-255.951 1087.08,-224 999.768,-136.502 841.478,-123.819 772.601,-122.651"/>
<polygon fill="midnightblue" stroke="midnightblue" points="772.372,-119.149 762.339,-122.553 772.305,-126.149 772.372,-119.149"/>
</g>
<!-- Node14&#45;&gt;Node12 -->
<g id="edge61" class="edge"><title>Node14&#45;&gt;Node12</title>
<path fill="none" stroke="midnightblue" d="M1165.83,-345.382C1301.01,-346.204 1733.49,-345.155 1864.08,-300 1912.09,-283.401 1958.08,-285.793 1958.08,-235 1958.08,-235 1958.08,-235 1958.08,-177 1958.08,-102.943 1715.17,-78.0537 1594.92,-70.27"/>
<polygon fill="midnightblue" stroke="midnightblue" points="1594.92,-66.7636 1584.73,-69.6322 1594.49,-73.7499 1594.92,-66.7636"/>
</g>
<!-- Node15 -->
<g id="node16" class="node"><title>Node15</title>
<g id="a_node16"><a xlink:href="dji__broadcast_8hpp.html" target="_top" xlink:title="Broadcast Telemetry API for DJI onboardSDK library.">
<polygon fill="white" stroke="black" points="1172.58,-224.5 1172.58,-243.5 1265.58,-243.5 1265.58,-224.5 1172.58,-224.5"/>
<text text-anchor="middle" x="1219.08" y="-231.5" font-family="Helvetica,sans-Serif" font-size="10.00">dji_broadcast.hpp</text>
</a>
</g>
</g>
<!-- Node14&#45;&gt;Node15 -->
<g id="edge22" class="edge"><title>Node14&#45;&gt;Node15</title>
<path fill="none" stroke="midnightblue" d="M1132.46,-336.368C1148.11,-318.055 1184.86,-275.049 1205.1,-251.362"/>
<polygon fill="midnightblue" stroke="midnightblue" points="1207.9,-253.468 1211.74,-243.591 1202.58,-248.92 1207.9,-253.468"/>
</g>
<!-- Node16 -->
<g id="node17" class="node"><title>Node16</title>
<g id="a_node17"><a xlink:href="dji__vehicle__callback_8hpp.html" target="_top" xlink:title="Type definition for new Vehicle&#45;style callbacks.">
<polygon fill="white" stroke="black" points="1468.08,-112.5 1468.08,-131.5 1590.08,-131.5 1590.08,-112.5 1468.08,-112.5"/>
<text text-anchor="middle" x="1529.08" y="-119.5" font-family="Helvetica,sans-Serif" font-size="10.00">dji_vehicle_callback.hpp</text>
</a>
</g>
</g>
<!-- Node14&#45;&gt;Node16 -->
<g id="edge70" class="edge"><title>Node14&#45;&gt;Node16</title>
<path fill="none" stroke="midnightblue" d="M1166,-344.4C1308.56,-342.039 1778.03,-331.894 1837.08,-300 1864.46,-285.216 1869.24,-273.515 1879.08,-244 1890.37,-210.132 1881.78,-189.236 1853.08,-168 1814.19,-139.22 1683.53,-128.816 1600.5,-125.076"/>
<polygon fill="midnightblue" stroke="midnightblue" points="1600.51,-121.573 1590.36,-124.642 1600.21,-128.567 1600.51,-121.573"/>
</g>
<!-- Node17 -->
<g id="node18" class="node"><title>Node17</title>
<g id="a_node18"><a xlink:href="dji__camera_8hpp.html" target="_top" xlink:title="Camera/Gimbal API for DJI onboardSDK library.">
<polygon fill="white" stroke="black" points="110.581,-168.5 110.581,-187.5 193.581,-187.5 193.581,-168.5 110.581,-168.5"/>
<text text-anchor="middle" x="152.081" y="-175.5" font-family="Helvetica,sans-Serif" font-size="10.00">dji_camera.hpp</text>
</a>
</g>
</g>
<!-- Node14&#45;&gt;Node17 -->
<g id="edge26" class="edge"><title>Node14&#45;&gt;Node17</title>
<path fill="none" stroke="midnightblue" d="M1084.47,-344.544C951.724,-342.732 531.706,-334.359 401.081,-300 311.413,-276.414 215.491,-219.666 173.658,-193.127"/>
<polygon fill="midnightblue" stroke="midnightblue" points="175.428,-190.104 165.121,-187.652 171.649,-195.997 175.428,-190.104"/>
</g>
<!-- Node18 -->
<g id="node19" class="node"><title>Node18</title>
<g id="a_node19"><a xlink:title=" ">
<polygon fill="white" stroke="#bfbfbf" points="704.081,-280.5 704.081,-299.5 816.081,-299.5 816.081,-280.5 704.081,-280.5"/>
<text text-anchor="middle" x="760.081" y="-287.5" font-family="Helvetica,sans-Serif" font-size="10.00">dji_circular_buffer.hpp</text>
</a>
</g>
</g>
<!-- Node14&#45;&gt;Node18 -->
<g id="edge29" class="edge"><title>Node14&#45;&gt;Node18</title>
<path fill="none" stroke="midnightblue" d="M1084.27,-338.963C1021.73,-329.71 901.549,-311.93 826.385,-300.809"/>
<polygon fill="midnightblue" stroke="midnightblue" points="826.493,-297.287 816.088,-299.286 825.468,-304.212 826.493,-297.287"/>
</g>
<!-- Node19 -->
<g id="node20" class="node"><title>Node19</title>
<g id="a_node20"><a xlink:href="dji__control_8hpp.html" target="_top" xlink:title="Control API for DJI OSDK library.">
<polygon fill="white" stroke="black" points="606.081,-280.5 606.081,-299.5 686.081,-299.5 686.081,-280.5 606.081,-280.5"/>
<text text-anchor="middle" x="646.081" y="-287.5" font-family="Helvetica,sans-Serif" font-size="10.00">dji_control.hpp</text>
</a>
</g>
</g>
<!-- Node14&#45;&gt;Node19 -->
<g id="edge31" class="edge"><title>Node14&#45;&gt;Node19</title>
<path fill="none" stroke="midnightblue" d="M1084.34,-341.794C1009.55,-335.68 845.144,-321.177 696.38,-300.085"/>
<polygon fill="midnightblue" stroke="midnightblue" points="696.546,-296.573 686.151,-298.621 695.554,-303.503 696.546,-296.573"/>
</g>
<!-- Node20 -->
<g id="node21" class="node"><title>Node20</title>
<g id="a_node21"><a xlink:href="dji__gimbal_8hpp.html" target="_top" xlink:title="Gimbal API for OSDK library.">
<polygon fill="white" stroke="black" points="13.5813,-168.5 13.5813,-187.5 92.5813,-187.5 92.5813,-168.5 13.5813,-168.5"/>
<text text-anchor="middle" x="53.0813" y="-175.5" font-family="Helvetica,sans-Serif" font-size="10.00">dji_gimbal.hpp</text>
</a>
</g>
</g>
<!-- Node14&#45;&gt;Node20 -->
<g id="edge36" class="edge"><title>Node14&#45;&gt;Node20</title>
<path fill="none" stroke="midnightblue" d="M1084.15,-344.48C944.049,-342.416 484.528,-333.215 341.081,-300 238.299,-276.201 125.423,-218.702 77.1431,-192.462"/>
<polygon fill="midnightblue" stroke="midnightblue" points="78.8214,-189.391 68.3705,-187.65 75.4548,-195.528 78.8214,-189.391"/>
</g>
<!-- Node21 -->
<g id="node22" class="node"><title>Node21</title>
<g id="a_node22"><a xlink:title=" ">
<polygon fill="white" stroke="#bfbfbf" points="980.081,-280.5 980.081,-299.5 1078.08,-299.5 1078.08,-280.5 980.081,-280.5"/>
<text text-anchor="middle" x="1029.08" y="-287.5" font-family="Helvetica,sans-Serif" font-size="10.00">dji_hard_driver.hpp</text>
</a>
</g>
</g>
<!-- Node14&#45;&gt;Node21 -->
<g id="edge39" class="edge"><title>Node14&#45;&gt;Node21</title>
<path fill="none" stroke="midnightblue" d="M1109.66,-336.324C1094.54,-327.822 1071.27,-314.729 1053.61,-304.797"/>
<polygon fill="midnightblue" stroke="midnightblue" points="1054.9,-301.507 1044.47,-299.655 1051.47,-307.608 1054.9,-301.507"/>
</g>
<!-- Node22 -->
<g id="node23" class="node"><title>Node22</title>
<g id="a_node23"><a xlink:href="dji__hardware__sync_8hpp.html" target="_top" xlink:title="Hardware Sync API for DJI OSDK.">
<polygon fill="white" stroke="black" points="1086.08,-168.5 1086.08,-187.5 1202.08,-187.5 1202.08,-168.5 1086.08,-168.5"/>
<text text-anchor="middle" x="1144.08" y="-175.5" font-family="Helvetica,sans-Serif" font-size="10.00">dji_hardware_sync.hpp</text>
</a>
</g>
</g>
<!-- Node14&#45;&gt;Node22 -->
<g id="edge40" class="edge"><title>Node14&#45;&gt;Node22</title>
<path fill="none" stroke="midnightblue" d="M1126.1,-336.075C1129.09,-309.945 1137.88,-233.211 1141.95,-197.577"/>
<polygon fill="midnightblue" stroke="midnightblue" points="1145.44,-197.901 1143.1,-187.568 1138.49,-197.105 1145.44,-197.901"/>
</g>
<!-- Node24 -->
<g id="node25" class="node"><title>Node24</title>
<g id="a_node25"><a xlink:href="dji__mfio_8hpp.html" target="_top" xlink:title="MFIO API for DJI OSDK library.">
<polygon fill="white" stroke="black" points="1532.58,-224.5 1532.58,-243.5 1601.58,-243.5 1601.58,-224.5 1532.58,-224.5"/>
<text text-anchor="middle" x="1567.08" y="-231.5" font-family="Helvetica,sans-Serif" font-size="10.00">dji_mfio.hpp</text>
</a>
</g>
</g>
<!-- Node14&#45;&gt;Node24 -->
<g id="edge44" class="edge"><title>Node14&#45;&gt;Node24</title>
<path fill="none" stroke="midnightblue" d="M1165.83,-345.197C1298.13,-345.418 1709.4,-342.641 1749.08,-300 1755.14,-293.492 1754.56,-286.999 1749.08,-280 1744.78,-274.504 1664.5,-256.164 1612.02,-244.663"/>
<polygon fill="midnightblue" stroke="midnightblue" points="1612.44,-241.173 1601.92,-242.46 1610.94,-248.012 1612.44,-241.173"/>
</g>
<!-- Node25 -->
<g id="node26" class="node"><title>Node25</title>
<g id="a_node26"><a xlink:href="dji__mission__manager_8hpp.html" target="_top" xlink:title="Mission&#45;Manager API for DJI OSDK library.">
<polygon fill="white" stroke="black" points="834.581,-280.5 834.581,-299.5 961.581,-299.5 961.581,-280.5 834.581,-280.5"/>
<text text-anchor="middle" x="898.081" y="-287.5" font-family="Helvetica,sans-Serif" font-size="10.00">dji_mission_manager.hpp</text>
</a>
</g>
</g>
<!-- Node14&#45;&gt;Node25 -->
<g id="edge46" class="edge"><title>Node14&#45;&gt;Node25</title>
<path fill="none" stroke="midnightblue" d="M1089.11,-336.444C1049.76,-327.083 986.595,-312.056 943.767,-301.868"/>
<polygon fill="midnightblue" stroke="midnightblue" points="944.42,-298.426 933.882,-299.516 942.8,-305.236 944.42,-298.426"/>
</g>
<!-- Node30 -->
<g id="node31" class="node"><title>Node30</title>
<g id="a_node31"><a xlink:href="dji__mobile__communication_8hpp.html" target="_top" xlink:title="Implementation of DJI Mobile&#45;Onboard SDK Communication (MOC)">
<polygon fill="white" stroke="black" points="1452.08,-280.5 1452.08,-299.5 1602.08,-299.5 1602.08,-280.5 1452.08,-280.5"/>
<text text-anchor="middle" x="1527.08" y="-287.5" font-family="Helvetica,sans-Serif" font-size="10.00">dji_mobile_communication.hpp</text>
</a>
</g>
</g>
<!-- Node14&#45;&gt;Node30 -->
<g id="edge56" class="edge"><title>Node14&#45;&gt;Node30</title>
<path fill="none" stroke="midnightblue" d="M1165.84,-339.525C1233.26,-330.468 1368.94,-312.242 1453.48,-300.887"/>
<polygon fill="midnightblue" stroke="midnightblue" points="1454.08,-304.338 1463.53,-299.537 1453.15,-297.4 1454.08,-304.338"/>
</g>
<!-- Node32 -->
<g id="node33" class="node"><title>Node32</title>
<g id="a_node33"><a xlink:href="dji__mobile__device_8hpp.html" target="_top" xlink:title="Implementation of DJI Mobile Device Abstraction.">
<polygon fill="white" stroke="black" points="1740.58,-224.5 1740.58,-243.5 1853.58,-243.5 1853.58,-224.5 1740.58,-224.5"/>
<text text-anchor="middle" x="1797.08" y="-231.5" font-family="Helvetica,sans-Serif" font-size="10.00">dji_mobile_device.hpp</text>
</a>
</g>
</g>
<!-- Node14&#45;&gt;Node32 -->
<g id="edge59" class="edge"><title>Node14&#45;&gt;Node32</title>
<path fill="none" stroke="midnightblue" d="M1165.77,-345.009C1302.05,-344.662 1736.44,-340.373 1783.08,-300 1796.02,-288.802 1798.67,-268.782 1798.61,-253.909"/>
<polygon fill="midnightblue" stroke="midnightblue" points="1802.1,-253.605 1798.15,-243.77 1795.1,-253.916 1802.1,-253.605"/>
</g>
<!-- Node33 -->
<g id="node34" class="node"><title>Node33</title>
<g id="a_node34"><a xlink:title=" ">
<polygon fill="white" stroke="#bfbfbf" points="1210.08,-280.5 1210.08,-299.5 1338.08,-299.5 1338.08,-280.5 1210.08,-280.5"/>
<text text-anchor="middle" x="1274.08" y="-287.5" font-family="Helvetica,sans-Serif" font-size="10.00">dji_platform_manager.hpp</text>
</a>
</g>
</g>
<!-- Node14&#45;&gt;Node33 -->
<g id="edge62" class="edge"><title>Node14&#45;&gt;Node33</title>
<path fill="none" stroke="midnightblue" d="M1148.69,-336.444C1173.54,-327.438 1212.86,-313.189 1240.83,-303.049"/>
<polygon fill="midnightblue" stroke="midnightblue" points="1242.37,-306.214 1250.58,-299.516 1239.99,-299.633 1242.37,-306.214"/>
</g>
<!-- Node34 -->
<g id="node35" class="node"><title>Node34</title>
<g id="a_node35"><a xlink:href="dji__status_8hpp.html" target="_top" xlink:title="Status information for DJI Vehicle.">
<polygon fill="white" stroke="black" points="1356.58,-280.5 1356.58,-299.5 1433.58,-299.5 1433.58,-280.5 1356.58,-280.5"/>
<text text-anchor="middle" x="1395.08" y="-287.5" font-family="Helvetica,sans-Serif" font-size="10.00">dji_status.hpp</text>
</a>
</g>
</g>
<!-- Node14&#45;&gt;Node34 -->
<g id="edge63" class="edge"><title>Node14&#45;&gt;Node34</title>
<path fill="none" stroke="midnightblue" d="M1165.8,-336.857C1214.13,-327.189 1294.69,-311.079 1346.31,-300.754"/>
<polygon fill="midnightblue" stroke="midnightblue" points="1347.11,-304.164 1356.23,-298.77 1345.74,-297.3 1347.11,-304.164"/>
</g>
<!-- Node35 -->
<g id="node36" class="node"><title>Node35</title>
<g id="a_node36"><a xlink:href="dji__subscription_8hpp.html" target="_top" xlink:title="Telemetry Subscription API for DJI OSDK library.">
<polygon fill="white" stroke="black" points="1619.58,-224.5 1619.58,-243.5 1722.58,-243.5 1722.58,-224.5 1619.58,-224.5"/>
<text text-anchor="middle" x="1671.08" y="-231.5" font-family="Helvetica,sans-Serif" font-size="10.00">dji_subscription.hpp</text>
</a>
</g>
</g>
<!-- Node14&#45;&gt;Node35 -->
<g id="edge64" class="edge"><title>Node14&#45;&gt;Node35</title>
<path fill="none" stroke="midnightblue" d="M1165.99,-345.282C1300.86,-345.789 1725.19,-343.86 1766.08,-300 1787.23,-277.317 1747.83,-258.249 1713.52,-246.749"/>
<polygon fill="midnightblue" stroke="midnightblue" points="1714.16,-243.28 1703.57,-243.568 1712.03,-249.947 1714.16,-243.28"/>
</g>
<!-- Node36 -->
<g id="node37" class="node"><title>Node36</title>
<g id="a_node37"><a xlink:title=" ">
<polygon fill="white" stroke="#bfbfbf" points="1620.08,-280.5 1620.08,-299.5 1740.08,-299.5 1740.08,-280.5 1620.08,-280.5"/>
<text text-anchor="middle" x="1680.08" y="-287.5" font-family="Helvetica,sans-Serif" font-size="10.00">dji_thread_manager.hpp</text>
</a>
</g>
</g>
<!-- Node14&#45;&gt;Node36 -->
<g id="edge68" class="edge"><title>Node14&#45;&gt;Node36</title>
<path fill="none" stroke="midnightblue" d="M1165.78,-341.749C1247.74,-335.09 1438.77,-319.005 1609.94,-300.091"/>
<polygon fill="midnightblue" stroke="midnightblue" points="1610.33,-303.569 1619.89,-298.986 1609.56,-296.612 1610.33,-303.569"/>
</g>
<!-- Node37 -->
<g id="node38" class="node"><title>Node37</title>
<g id="a_node38"><a xlink:href="dji__payload__device_8hpp.html" target="_top" xlink:title="Implementation of DJI Payload Device Abstraction.">
<polygon fill="white" stroke="black" points="1726.08,-168.5 1726.08,-187.5 1844.08,-187.5 1844.08,-168.5 1726.08,-168.5"/>
<text text-anchor="middle" x="1785.08" y="-175.5" font-family="Helvetica,sans-Serif" font-size="10.00">dji_payload_device.hpp</text>
</a>
</g>
</g>
<!-- Node14&#45;&gt;Node37 -->
<g id="edge73" class="edge"><title>Node14&#45;&gt;Node37</title>
<path fill="none" stroke="midnightblue" d="M1165.77,-343.906C1303.19,-339.989 1744.8,-325.526 1803.08,-300 1842.25,-282.845 1883.36,-261.089 1862.08,-224 1853.47,-208.986 1837.69,-198.504 1822.65,-191.458"/>
<polygon fill="midnightblue" stroke="midnightblue" points="1824.02,-188.238 1813.45,-187.505 1821.26,-194.669 1824.02,-188.238"/>
</g>
<!-- Node15&#45;&gt;Node13 -->
<g id="edge23" class="edge"><title>Node15&#45;&gt;Node13</title>
<path fill="none" stroke="midnightblue" d="M1172.37,-226.051C1105.66,-216.128 983.305,-197.926 911.909,-187.305"/>
<polygon fill="midnightblue" stroke="midnightblue" points="912.164,-183.804 901.757,-185.795 911.134,-190.728 912.164,-183.804"/>
</g>
<!-- Node15&#45;&gt;Node16 -->
<g id="edge24" class="edge"><title>Node15&#45;&gt;Node16</title>
<path fill="none" stroke="midnightblue" d="M1243.15,-224.46C1297.97,-205.006 1432.26,-157.355 1495.33,-134.977"/>
<polygon fill="midnightblue" stroke="midnightblue" points="1496.56,-138.253 1504.82,-131.61 1494.22,-131.656 1496.56,-138.253"/>
</g>
<!-- Node16&#45;&gt;Node12 -->
<g id="edge25" class="edge"><title>Node16&#45;&gt;Node12</title>
<path fill="none" stroke="midnightblue" d="M1529.08,-112.083C1529.08,-105.006 1529.08,-94.8611 1529.08,-85.9865"/>
<polygon fill="midnightblue" stroke="midnightblue" points="1532.58,-85.751 1529.08,-75.7511 1525.58,-85.7511 1532.58,-85.751"/>
</g>
<!-- Node17&#45;&gt;Node3 -->
<g id="edge27" class="edge"><title>Node17&#45;&gt;Node3</title>
<path fill="none" stroke="midnightblue" d="M168.309,-168.324C184.432,-159.703 209.381,-146.364 228.045,-136.386"/>
<polygon fill="midnightblue" stroke="midnightblue" points="229.726,-139.456 236.894,-131.655 226.425,-133.283 229.726,-139.456"/>
</g>
<!-- Node17&#45;&gt;Node7 -->
<g id="edge28" class="edge"><title>Node17&#45;&gt;Node7</title>
<path fill="none" stroke="midnightblue" d="M193.81,-169.512C196.945,-168.988 200.062,-168.478 203.081,-168 301.336,-152.448 416.956,-136.917 479.109,-128.794"/>
<polygon fill="midnightblue" stroke="midnightblue" points="479.882,-132.223 489.345,-127.46 478.977,-125.281 479.882,-132.223"/>
</g>
<!-- Node19&#45;&gt;Node2 -->
<g id="edge32" class="edge"><title>Node19&#45;&gt;Node2</title>
<path fill="none" stroke="midnightblue" d="M623.739,-280.444C600.328,-271.478 563.346,-257.314 536.892,-247.183"/>
<polygon fill="midnightblue" stroke="midnightblue" points="537.909,-243.824 527.319,-243.516 535.405,-250.361 537.909,-243.824"/>
</g>
<!-- Node19&#45;&gt;Node7 -->
<g id="edge34" class="edge"><title>Node19&#45;&gt;Node7</title>
<path fill="none" stroke="midnightblue" d="M647.609,-280.309C650.875,-258.812 656.255,-202.402 630.081,-168 615.279,-148.545 590.435,-137.409 568.519,-131.083"/>
<polygon fill="midnightblue" stroke="midnightblue" points="569.263,-127.66 558.702,-128.502 567.483,-134.43 569.263,-127.66"/>
</g>
<!-- Node19&#45;&gt;Node12 -->
<g id="edge33" class="edge"><title>Node19&#45;&gt;Node12</title>
<path fill="none" stroke="midnightblue" d="M686.171,-281.508C689.184,-280.985 692.179,-280.476 695.081,-280 805.423,-261.897 841.174,-287.74 944.081,-244 1032.12,-206.581 1025.39,-147.847 1114.08,-112 1175.79,-87.0565 1362.61,-74.74 1463.23,-69.7723"/>
<polygon fill="midnightblue" stroke="midnightblue" points="1463.46,-73.2652 1473.28,-69.2862 1463.12,-66.2733 1463.46,-73.2652"/>
</g>
<!-- Node19&#45;&gt;Node16 -->
<g id="edge35" class="edge"><title>Node19&#45;&gt;Node16</title>
<path fill="none" stroke="midnightblue" d="M686.161,-281.447C689.176,-280.937 692.175,-280.449 695.081,-280 822.13,-260.38 858.535,-279.535 982.081,-244 1002.34,-238.174 1005.03,-230.495 1025.08,-224 1105.18,-198.052 1128.5,-204.431 1211.08,-188 1305.31,-169.25 1415.09,-146.642 1477.9,-133.632"/>
<polygon fill="midnightblue" stroke="midnightblue" points="1478.86,-137.008 1487.94,-131.551 1477.44,-130.153 1478.86,-137.008"/>
</g>
<!-- Node20&#45;&gt;Node3 -->
<g id="edge37" class="edge"><title>Node20&#45;&gt;Node3</title>
<path fill="none" stroke="midnightblue" d="M84.7719,-168.444C119.149,-159.162 174.158,-144.309 211.87,-134.127"/>
<polygon fill="midnightblue" stroke="midnightblue" points="212.797,-137.502 221.539,-131.516 210.972,-130.744 212.797,-137.502"/>
</g>
<!-- Node20&#45;&gt;Node7 -->
<g id="edge38" class="edge"><title>Node20&#45;&gt;Node7</title>
<path fill="none" stroke="midnightblue" d="M92.5923,-169.335C95.4608,-168.857 98.313,-168.406 101.081,-168 238.213,-147.882 401.617,-133.076 479.073,-126.606"/>
<polygon fill="midnightblue" stroke="midnightblue" points="479.744,-130.063 489.421,-125.749 479.166,-123.087 479.744,-130.063"/>
</g>
<!-- Node22&#45;&gt;Node7 -->
<g id="edge41" class="edge"><title>Node22&#45;&gt;Node7</title>
<path fill="none" stroke="midnightblue" d="M1086.03,-171.944C963.112,-161.238 678.835,-136.479 568.751,-126.891"/>
<polygon fill="midnightblue" stroke="midnightblue" points="568.919,-123.392 558.653,-126.011 568.312,-130.366 568.919,-123.392"/>
</g>
<!-- Node22&#45;&gt;Node16 -->
<g id="edge42" class="edge"><title>Node22&#45;&gt;Node16</title>
<path fill="none" stroke="midnightblue" d="M1202.14,-168.857C1270.65,-159.247 1384.55,-143.272 1458.21,-132.941"/>
<polygon fill="midnightblue" stroke="midnightblue" points="1458.91,-136.377 1468.33,-131.522 1457.94,-129.445 1458.91,-136.377"/>
</g>
<!-- Node23 -->
<g id="node24" class="node"><title>Node23</title>
<g id="a_node24"><a xlink:title=" ">
<polygon fill="white" stroke="#bfbfbf" points="1123.58,-112.5 1123.58,-131.5 1164.58,-131.5 1164.58,-112.5 1123.58,-112.5"/>
<text text-anchor="middle" x="1144.08" y="-119.5" font-family="Helvetica,sans-Serif" font-size="10.00">string</text>
</a>
</g>
</g>
<!-- Node22&#45;&gt;Node23 -->
<g id="edge43" class="edge"><title>Node22&#45;&gt;Node23</title>
<path fill="none" stroke="midnightblue" d="M1144.08,-168.083C1144.08,-161.006 1144.08,-150.861 1144.08,-141.986"/>
<polygon fill="midnightblue" stroke="midnightblue" points="1147.58,-141.751 1144.08,-131.751 1140.58,-141.751 1147.58,-141.751"/>
</g>
<!-- Node24&#45;&gt;Node16 -->
<g id="edge45" class="edge"><title>Node24&#45;&gt;Node16</title>
<path fill="none" stroke="midnightblue" d="M1564.1,-224.368C1557.94,-206.537 1543.69,-165.295 1535.39,-141.272"/>
<polygon fill="midnightblue" stroke="midnightblue" points="1538.62,-139.9 1532.05,-131.591 1532.01,-142.186 1538.62,-139.9"/>
</g>
<!-- Node26 -->
<g id="node27" class="node"><title>Node26</title>
<g id="a_node27"><a xlink:href="dji__hotpoint_8hpp.html" target="_top" xlink:title="Implementation of HotPoint (Point of Interest) Missions for DJI OSDK.">
<polygon fill="white" stroke="black" points="816.581,-224.5 816.581,-243.5 901.581,-243.5 901.581,-224.5 816.581,-224.5"/>
<text text-anchor="middle" x="859.081" y="-231.5" font-family="Helvetica,sans-Serif" font-size="10.00">dji_hotpoint.hpp</text>
</a>
</g>
</g>
<!-- Node25&#45;&gt;Node26 -->
<g id="edge47" class="edge"><title>Node25&#45;&gt;Node26</title>
<path fill="none" stroke="midnightblue" d="M891.641,-280.083C886.132,-272.455 878.05,-261.264 871.316,-251.941"/>
<polygon fill="midnightblue" stroke="midnightblue" points="874.094,-249.809 865.401,-243.751 868.419,-253.907 874.094,-249.809"/>
</g>
<!-- Node28 -->
<g id="node29" class="node"><title>Node28</title>
<g id="a_node29"><a xlink:href="dji__waypoint_8hpp.html" target="_top" xlink:title="Implementation of GPS Waypoint Missions for DJI OSDK.">
<polygon fill="white" stroke="black" points="709.581,-224.5 709.581,-243.5 798.581,-243.5 798.581,-224.5 709.581,-224.5"/>
<text text-anchor="middle" x="754.081" y="-231.5" font-family="Helvetica,sans-Serif" font-size="10.00">dji_waypoint.hpp</text>
</a>
</g>
</g>
<!-- Node25&#45;&gt;Node28 -->
<g id="edge53" class="edge"><title>Node25&#45;&gt;Node28</title>
<path fill="none" stroke="midnightblue" d="M875.264,-280.444C851.25,-271.438 813.252,-257.189 786.212,-247.049"/>
<polygon fill="midnightblue" stroke="midnightblue" points="787.384,-243.751 776.792,-243.516 784.926,-250.305 787.384,-243.751"/>
</g>
<!-- Node29 -->
<g id="node30" class="node"><title>Node29</title>
<g id="a_node30"><a xlink:title=" ">
<polygon fill="white" stroke="#bfbfbf" points="1034.08,-224.5 1034.08,-243.5 1078.08,-243.5 1078.08,-224.5 1034.08,-224.5"/>
<text text-anchor="middle" x="1056.08" y="-231.5" font-family="Helvetica,sans-Serif" font-size="10.00">vector</text>
</a>
</g>
</g>
<!-- Node25&#45;&gt;Node29 -->
<g id="edge55" class="edge"><title>Node25&#45;&gt;Node29</title>
<path fill="none" stroke="midnightblue" d="M923.117,-280.444C950.557,-271.065 994.637,-256 1024.45,-245.811"/>
<polygon fill="midnightblue" stroke="midnightblue" points="1025.64,-249.104 1033.97,-242.558 1023.37,-242.48 1025.64,-249.104"/>
</g>
<!-- Node26&#45;&gt;Node13 -->
<g id="edge52" class="edge"><title>Node26&#45;&gt;Node13</title>
<path fill="none" stroke="midnightblue" d="M858.586,-224.083C858.193,-217.006 857.629,-206.861 857.136,-197.986"/>
<polygon fill="midnightblue" stroke="midnightblue" points="860.617,-197.542 856.567,-187.751 853.628,-197.93 860.617,-197.542"/>
</g>
<!-- Node27 -->
<g id="node28" class="node"><title>Node27</title>
<g id="a_node28"><a xlink:href="dji__mission__base_8hpp.html" target="_top" xlink:title="Mission&#45;Base abstract class for DJI OSDK library.">
<polygon fill="white" stroke="black" points="682.081,-168.5 682.081,-187.5 792.081,-187.5 792.081,-168.5 682.081,-168.5"/>
<text text-anchor="middle" x="737.081" y="-175.5" font-family="Helvetica,sans-Serif" font-size="10.00">dji_mission_base.hpp</text>
</a>
</g>
</g>
<!-- Node26&#45;&gt;Node27 -->
<g id="edge48" class="edge"><title>Node26&#45;&gt;Node27</title>
<path fill="none" stroke="midnightblue" d="M839.75,-224.444C819.761,-215.596 788.338,-201.687 765.517,-191.586"/>
<polygon fill="midnightblue" stroke="midnightblue" points="766.883,-188.363 756.322,-187.516 764.05,-194.764 766.883,-188.363"/>
</g>
<!-- Node27&#45;&gt;Node3 -->
<g id="edge49" class="edge"><title>Node27&#45;&gt;Node3</title>
<path fill="none" stroke="midnightblue" d="M682.032,-170.858C589.491,-160.533 403.697,-139.804 309.951,-129.345"/>
<polygon fill="midnightblue" stroke="midnightblue" points="310.132,-125.844 299.806,-128.213 309.356,-132.8 310.132,-125.844"/>
</g>
<!-- Node27&#45;&gt;Node7 -->
<g id="edge50" class="edge"><title>Node27&#45;&gt;Node7</title>
<path fill="none" stroke="midnightblue" d="M703.331,-168.444C666.563,-159.122 607.635,-144.183 567.459,-133.997"/>
<polygon fill="midnightblue" stroke="midnightblue" points="568.227,-130.581 557.674,-131.516 566.507,-137.367 568.227,-130.581"/>
</g>
<!-- Node27&#45;&gt;Node16 -->
<g id="edge51" class="edge"><title>Node27&#45;&gt;Node16</title>
<path fill="none" stroke="midnightblue" d="M792.206,-168.97C795.206,-168.62 798.179,-168.293 801.081,-168 1041.2,-143.733 1327.29,-130.657 1457.81,-125.559"/>
<polygon fill="midnightblue" stroke="midnightblue" points="1458.21,-129.047 1468.07,-125.163 1457.94,-122.052 1458.21,-129.047"/>
</g>
<!-- Node28&#45;&gt;Node27 -->
<g id="edge54" class="edge"><title>Node28&#45;&gt;Node27</title>
<path fill="none" stroke="midnightblue" d="M751.274,-224.083C748.997,-216.849 745.71,-206.409 742.873,-197.397"/>
<polygon fill="midnightblue" stroke="midnightblue" points="746.178,-196.239 739.836,-187.751 739.501,-198.341 746.178,-196.239"/>
</g>
<!-- Node30&#45;&gt;Node16 -->
<g id="edge58" class="edge"><title>Node30&#45;&gt;Node16</title>
<path fill="none" stroke="midnightblue" d="M1526.09,-280.388C1525.1,-271.342 1523.64,-256.694 1523.08,-244 1521.47,-207.705 1524.77,-165.301 1527.08,-141.556"/>
<polygon fill="midnightblue" stroke="midnightblue" points="1530.57,-141.812 1528.11,-131.507 1523.61,-141.098 1530.57,-141.812"/>
</g>
<!-- Node31 -->
<g id="node32" class="node"><title>Node31</title>
<g id="a_node32"><a xlink:title=" ">
<polygon fill="white" stroke="#bfbfbf" points="1392.58,-224.5 1392.58,-243.5 1475.58,-243.5 1475.58,-224.5 1392.58,-224.5"/>
<text text-anchor="middle" x="1434.08" y="-231.5" font-family="Helvetica,sans-Serif" font-size="10.00">dji_macros.hpp</text>
</a>
</g>
</g>
<!-- Node30&#45;&gt;Node31 -->
<g id="edge57" class="edge"><title>Node30&#45;&gt;Node31</title>
<path fill="none" stroke="midnightblue" d="M1512.14,-280.324C1497.5,-271.822 1474.95,-258.729 1457.84,-248.797"/>
<polygon fill="midnightblue" stroke="midnightblue" points="1459.39,-245.649 1448.99,-243.655 1455.88,-251.703 1459.39,-245.649"/>
</g>
<!-- Node32&#45;&gt;Node16 -->
<g id="edge60" class="edge"><title>Node32&#45;&gt;Node16</title>
<path fill="none" stroke="midnightblue" d="M1776.05,-224.368C1728.89,-205.01 1614.51,-158.065 1559.55,-135.507"/>
<polygon fill="midnightblue" stroke="midnightblue" points="1560.59,-132.151 1550.01,-131.591 1557.94,-138.626 1560.59,-132.151"/>
</g>
<!-- Node35&#45;&gt;Node12 -->
<g id="edge65" class="edge"><title>Node35&#45;&gt;Node12</title>
<path fill="none" stroke="midnightblue" d="M1718.28,-224.432C1769.36,-214.685 1844.68,-198.732 1853.08,-188 1858.56,-181.001 1858.35,-175.16 1853.08,-168 1821.79,-125.473 1675.53,-92.9908 1590.6,-77.3309"/>
<polygon fill="midnightblue" stroke="midnightblue" points="1591.02,-73.8506 1580.56,-75.505 1589.77,-80.7377 1591.02,-73.8506"/>
</g>
<!-- Node35&#45;&gt;Node13 -->
<g id="edge66" class="edge"><title>Node35&#45;&gt;Node13</title>
<path fill="none" stroke="midnightblue" d="M1619.54,-225.074C1616.34,-224.682 1613.17,-224.319 1610.08,-224 1474.74,-210.004 1063.36,-189.129 912.401,-181.724"/>
<polygon fill="midnightblue" stroke="midnightblue" points="912.149,-178.208 901.989,-181.215 911.806,-185.2 912.149,-178.208"/>
</g>
<!-- Node35&#45;&gt;Node16 -->
<g id="edge67" class="edge"><title>Node35&#45;&gt;Node16</title>
<path fill="none" stroke="midnightblue" d="M1659.94,-224.368C1635.78,-205.653 1578.33,-161.151 1548.23,-137.832"/>
<polygon fill="midnightblue" stroke="midnightblue" points="1550.22,-134.949 1540.17,-131.591 1545.93,-140.482 1550.22,-134.949"/>
</g>
<!-- Node37&#45;&gt;Node16 -->
<g id="edge74" class="edge"><title>Node37&#45;&gt;Node16</title>
<path fill="none" stroke="midnightblue" d="M1744.52,-168.444C1699.77,-159.004 1627.7,-143.802 1579.39,-133.611"/>
<polygon fill="midnightblue" stroke="midnightblue" points="1579.96,-130.156 1569.46,-131.516 1578.52,-137.005 1579.96,-130.156"/>
</g>
</g>
</svg>
        <g id="navigator" transform="translate(0 0)" fill="#404254">
                <rect fill="#f2f5e9" fill-opacity="0.5" stroke="#606060" stroke-width=".5" x="0" y="0" width="60" height="60"/>
                <use id="zoomplus" xlink:href="#zoomPlus" x="17" y="9" onmousedown="handleZoom(evt,'in')"/>
                <use id="zoomminus" xlink:href="#zoomMin" x="42" y="9" onmousedown="handleZoom(evt,'out')"/>
                <use id="reset" xlink:href="#resetDef" x="30" y="36" onmousedown="handleReset()"/>
                <g id="arrowUp" xlink:href="#dirArrow" transform="translate(30 24)" onmousedown="handlePan(0,-1)">
                  <use xlink:href="#rim" fill="#404040">
                        <set attributeName="fill" to="#808080" begin="arrowUp.mouseover" end="arrowUp.mouseout"/>
                  </use>
                  <path fill="none" stroke="white" stroke-width="1.5" d="M0,-3.0v7 M-2.5,-0.5L0,-3.0L2.5,-0.5"/>
                </g>
                <g id="arrowRight" xlink:href="#dirArrow" transform="rotate(90) translate(36 -43)" onmousedown="handlePan(1,0)">
                  <use xlink:href="#rim" fill="#404040">
                        <set attributeName="fill" to="#808080" begin="arrowRight.mouseover" end="arrowRight.mouseout"/>
                  </use>
                  <path fill="none" stroke="white" stroke-width="1.5" d="M0,-3.0v7 M-2.5,-0.5L0,-3.0L2.5,-0.5"/>
                </g>
                <g id="arrowDown" xlink:href="#dirArrow" transform="rotate(180) translate(-30 -48)" onmousedown="handlePan(0,1)">
                  <use xlink:href="#rim" fill="#404040">
                        <set attributeName="fill" to="#808080" begin="arrowDown.mouseover" end="arrowDown.mouseout"/>
                  </use>
                  <path fill="none" stroke="white" stroke-width="1.5" d="M0,-3.0v7 M-2.5,-0.5L0,-3.0L2.5,-0.5"/>
                </g>
                <g id="arrowLeft" xlink:href="#dirArrow" transform="rotate(270) translate(-36 17)" onmousedown="handlePan(-1,0)">
                  <use xlink:href="#rim" fill="#404040">
                        <set attributeName="fill" to="#808080" begin="arrowLeft.mouseover" end="arrowLeft.mouseout"/>
                  </use>
                  <path fill="none" stroke="white" stroke-width="1.5" d="M0,-3.0v7 M-2.5,-0.5L0,-3.0L2.5,-0.5"/>
                </g>
        </g>
        <svg viewBox="0 0 15 15" width="100%" height="30px" preserveAspectRatio="xMaxYMin meet">
         <g id="arrow_out" transform="scale(0.3 0.3)">
          <a xlink:href="dji__virtual__rc_8cpp__incl_org.svg" target="_base">
           <rect id="button" ry="5" rx="5" y="6" x="6" height="38" width="38"
                fill="#f2f5e9" fill-opacity="0.5" stroke="#606060" stroke-width="1.0"/>
           <path id="arrow"
             d="M 11.500037,31.436501 C 11.940474,20.09759 22.043105,11.32322 32.158766,21.979434 L 37.068811,17.246167 C 37.068811,17.246167 37.088388,32 37.088388,32 L 22.160133,31.978069 C 22.160133,31.978069 26.997745,27.140456 26.997745,27.140456 C 18.528582,18.264221 13.291696,25.230495 11.500037,31.436501 z"
             style="fill:#404040;"/>
          </a>
         </g>
        </svg>
</svg>
