<?xml version="1.0" encoding="UTF-8" standalone="no"?>
<!DOCTYPE svg PUBLIC "-//W3C//DTD SVG 1.1//EN"
 "http://www.w3.org/Graphics/SVG/1.1/DTD/svg11.dtd">
<!-- Generated by graphviz version 2.38.0 (20140413.2041)
 -->
<!-- Title: osdk&#45;core/api/inc/dji_vehicle.hpp Pages: 1 -->
<svg width="2066pt" height="375pt"
 viewBox="0.00 0.00 2066.13 375.00" xmlns="http://www.w3.org/2000/svg" xmlns:xlink="http://www.w3.org/1999/xlink">
<g id="graph0" class="graph" transform="scale(1 1) rotate(0) translate(4 371)">
<title>osdk&#45;core/api/inc/dji_vehicle.hpp</title>
<polygon fill="white" stroke="none" points="-4,4 -4,-371 2062.13,-371 2062.13,4 -4,4"/>
<!-- Node1 -->
<g id="node1" class="node"><title>Node1</title>
<polygon fill="#bfbfbf" stroke="black" points="1136,-336.5 1136,-366.5 1240,-366.5 1240,-336.5 1136,-336.5"/>
<text text-anchor="start" x="1144" y="-354.5" font-family="Helvetica,sans-Serif" font-size="10.00">osdk&#45;core/api/inc/dji</text>
<text text-anchor="middle" x="1188" y="-343.5" font-family="Helvetica,sans-Serif" font-size="10.00">_vehicle.hpp</text>
</g>
<!-- Node2 -->
<g id="node2" class="node"><title>Node2</title>
<polygon fill="white" stroke="#bfbfbf" points="0,-112.5 0,-131.5 46,-131.5 46,-112.5 0,-112.5"/>
<text text-anchor="middle" x="23" y="-119.5" font-family="Helvetica,sans-Serif" font-size="10.00">cstdint</text>
</g>
<!-- Node1&#45;&gt;Node2 -->
<g id="edge1" class="edge"><title>Node1&#45;&gt;Node2</title>
<path fill="none" stroke="midnightblue" d="M1135.76,-350.745C929.79,-351.356 180.721,-350.086 88,-300 33.95,-270.804 25.9196,-246.445 7,-188 1.91641,-172.296 7.39869,-154.01 13.2875,-140.84"/>
<polygon fill="midnightblue" stroke="midnightblue" points="16.6005,-142.037 17.9034,-131.523 10.328,-138.93 16.6005,-142.037"/>
</g>
<!-- Node3 -->
<g id="node3" class="node"><title>Node3</title>
<g id="a_node3"><a xlink:href="dji__broadcast_8hpp.html" target="_top" xlink:title="Broadcast Telemetry API for DJI onboardSDK library. ">
<polygon fill="white" stroke="black" points="1331.5,-224.5 1331.5,-243.5 1424.5,-243.5 1424.5,-224.5 1331.5,-224.5"/>
<text text-anchor="middle" x="1378" y="-231.5" font-family="Helvetica,sans-Serif" font-size="10.00">dji_broadcast.hpp</text>
</a>
</g>
</g>
<!-- Node1&#45;&gt;Node3 -->
<g id="edge2" class="edge"><title>Node1&#45;&gt;Node3</title>
<path fill="none" stroke="midnightblue" d="M1237.86,-336.438C1262.61,-328.103 1292.22,-316.006 1316,-300 1335.71,-286.732 1353.93,-266.23 1365.44,-251.807"/>
<polygon fill="midnightblue" stroke="midnightblue" points="1368.34,-253.779 1371.69,-243.731 1362.8,-249.492 1368.34,-253.779"/>
</g>
<!-- Node5 -->
<g id="node5" class="node"><title>Node5</title>
<g id="a_node5"><a xlink:href="dji__type_8hpp.html" target="_top" xlink:title="Data type and Data Structure definitions for use throughout DJI OSDK. ">
<polygon fill="white" stroke="black" points="582.5,-112.5 582.5,-131.5 651.5,-131.5 651.5,-112.5 582.5,-112.5"/>
<text text-anchor="middle" x="617" y="-119.5" font-family="Helvetica,sans-Serif" font-size="10.00">dji_type.hpp</text>
</a>
</g>
</g>
<!-- Node1&#45;&gt;Node5 -->
<g id="edge60" class="edge"><title>Node1&#45;&gt;Node5</title>
<path fill="none" stroke="midnightblue" d="M1146.65,-336.485C1126.63,-328.191 1103.26,-316.117 1086,-300 1036.36,-253.643 1065.87,-205.136 1009,-168 952.725,-131.25 752.399,-124.4 661.924,-123.204"/>
<polygon fill="midnightblue" stroke="midnightblue" points="661.749,-119.702 651.709,-123.087 661.669,-126.701 661.749,-119.702"/>
</g>
<!-- Node8 -->
<g id="node8" class="node"><title>Node8</title>
<g id="a_node8"><a xlink:href="dji__vehicle__callback_8hpp.html" target="_top" xlink:title="Type definition for new Vehicle&#45;style callbacks. ">
<polygon fill="white" stroke="black" points="1317,-112.5 1317,-131.5 1439,-131.5 1439,-112.5 1317,-112.5"/>
<text text-anchor="middle" x="1378" y="-119.5" font-family="Helvetica,sans-Serif" font-size="10.00">dji_vehicle_callback.hpp</text>
</a>
</g>
</g>
<!-- Node1&#45;&gt;Node8 -->
<g id="edge61" class="edge"><title>Node1&#45;&gt;Node8</title>
<path fill="none" stroke="midnightblue" d="M1240.29,-337.298C1278.98,-327.398 1332.9,-313.317 1380,-300 1385.17,-298.539 1561.8,-248.312 1565,-244 1606.46,-188.136 1497.3,-151.032 1428.74,-133.91"/>
<polygon fill="midnightblue" stroke="midnightblue" points="1429.48,-130.49 1418.94,-131.529 1427.83,-137.292 1429.48,-130.49"/>
</g>
<!-- Node9 -->
<g id="node9" class="node"><title>Node9</title>
<polygon fill="white" stroke="#bfbfbf" points="1167.5,-56.5 1167.5,-75.5 1278.5,-75.5 1278.5,-56.5 1167.5,-56.5"/>
<text text-anchor="middle" x="1223" y="-63.5" font-family="Helvetica,sans-Serif" font-size="10.00">dji_open_protocol.hpp</text>
</g>
<!-- Node1&#45;&gt;Node9 -->
<g id="edge52" class="edge"><title>Node1&#45;&gt;Node9</title>
<path fill="none" stroke="midnightblue" d="M1240.11,-350.834C1415.31,-351.493 1975.68,-349.666 2038,-300 2061.54,-281.242 2057,-265.098 2057,-235 2057,-235 2057,-235 2057,-177 2057,-99.6562 1485.94,-74.9938 1288.9,-68.7862"/>
<polygon fill="midnightblue" stroke="midnightblue" points="1288.79,-65.2813 1278.69,-68.4705 1288.58,-72.2779 1288.79,-65.2813"/>
</g>
<!-- Node10 -->
<g id="node10" class="node"><title>Node10</title>
<g id="a_node10"><a xlink:href="dji__camera_8hpp.html" target="_top" xlink:title="Camera/Gimbal API for DJI onboardSDK library. ">
<polygon fill="white" stroke="black" points="251.5,-168.5 251.5,-187.5 334.5,-187.5 334.5,-168.5 251.5,-168.5"/>
<text text-anchor="middle" x="293" y="-175.5" font-family="Helvetica,sans-Serif" font-size="10.00">dji_camera.hpp</text>
</a>
</g>
</g>
<!-- Node1&#45;&gt;Node10 -->
<g id="edge9" class="edge"><title>Node1&#45;&gt;Node10</title>
<path fill="none" stroke="midnightblue" d="M1135.66,-350.923C1032.52,-350.677 796.29,-344.75 604,-300 494.267,-274.463 371.787,-217.901 319.247,-192.185"/>
<polygon fill="midnightblue" stroke="midnightblue" points="320.499,-188.9 309.982,-187.614 317.401,-195.178 320.499,-188.9"/>
</g>
<!-- Node11 -->
<g id="node11" class="node"><title>Node11</title>
<g id="a_node11"><a xlink:href="dji__command_8hpp.html" target="_top" xlink:title="All DJI OSDK OpenProtocol Command IDs. ">
<polygon fill="white" stroke="black" points="246.5,-112.5 246.5,-131.5 339.5,-131.5 339.5,-112.5 246.5,-112.5"/>
<text text-anchor="middle" x="293" y="-119.5" font-family="Helvetica,sans-Serif" font-size="10.00">dji_command.hpp</text>
</a>
</g>
</g>
<!-- Node1&#45;&gt;Node11 -->
<g id="edge16" class="edge"><title>Node1&#45;&gt;Node11</title>
<path fill="none" stroke="midnightblue" d="M1135.75,-348.755C990.46,-343.611 583.794,-327.141 453,-300 380.052,-284.862 365.012,-269.474 295,-244 228.128,-219.668 185.576,-246.459 145,-188 119.272,-150.933 184.24,-134.787 236.128,-127.904"/>
<polygon fill="midnightblue" stroke="midnightblue" points="236.805,-131.347 246.301,-126.647 235.947,-124.4 236.805,-131.347"/>
</g>
<!-- Node13 -->
<g id="node13" class="node"><title>Node13</title>
<polygon fill="white" stroke="#bfbfbf" points="819,-280.5 819,-299.5 931,-299.5 931,-280.5 819,-280.5"/>
<text text-anchor="middle" x="875" y="-287.5" font-family="Helvetica,sans-Serif" font-size="10.00">dji_circular_buffer.hpp</text>
</g>
<!-- Node1&#45;&gt;Node13 -->
<g id="edge15" class="edge"><title>Node1&#45;&gt;Node13</title>
<path fill="none" stroke="midnightblue" d="M1135.96,-340.608C1079.06,-329.791 988.246,-312.528 930.143,-301.482"/>
<polygon fill="midnightblue" stroke="midnightblue" points="930.523,-297.992 920.045,-299.563 929.215,-304.869 930.523,-297.992"/>
</g>
<!-- Node14 -->
<g id="node14" class="node"><title>Node14</title>
<g id="a_node14"><a xlink:href="dji__control_8hpp.html" target="_top" xlink:title="Control API for DJI OSDK library. ">
<polygon fill="white" stroke="black" points="1095,-280.5 1095,-299.5 1175,-299.5 1175,-280.5 1095,-280.5"/>
<text text-anchor="middle" x="1135" y="-287.5" font-family="Helvetica,sans-Serif" font-size="10.00">dji_control.hpp</text>
</a>
</g>
</g>
<!-- Node1&#45;&gt;Node14 -->
<g id="edge17" class="edge"><title>Node1&#45;&gt;Node14</title>
<path fill="none" stroke="midnightblue" d="M1175.44,-336.399C1167.66,-327.664 1157.64,-316.413 1149.52,-307.296"/>
<polygon fill="midnightblue" stroke="midnightblue" points="1151.98,-304.797 1142.71,-299.658 1146.75,-309.453 1151.98,-304.797"/>
</g>
<!-- Node17 -->
<g id="node17" class="node"><title>Node17</title>
<g id="a_node17"><a xlink:href="dji__version_8hpp.html" target="_top" xlink:title="Drone/SDK Version definition for DJI onboardSDK library. ">
<polygon fill="white" stroke="black" points="16,-168.5 16,-187.5 98,-187.5 98,-168.5 16,-168.5"/>
<text text-anchor="middle" x="57" y="-175.5" font-family="Helvetica,sans-Serif" font-size="10.00">dji_version.hpp</text>
</a>
</g>
</g>
<!-- Node1&#45;&gt;Node17 -->
<g id="edge62" class="edge"><title>Node1&#45;&gt;Node17</title>
<path fill="none" stroke="midnightblue" d="M1135.92,-349.558C926.46,-345.578 154.792,-328.996 112,-300 77.2455,-276.45 64.1111,-225.26 59.4201,-197.611"/>
<polygon fill="midnightblue" stroke="midnightblue" points="62.8718,-197.027 57.9275,-187.657 55.9492,-198.066 62.8718,-197.027"/>
</g>
<!-- Node19 -->
<g id="node19" class="node"><title>Node19</title>
<g id="a_node19"><a xlink:href="dji__gimbal_8hpp.html" target="_top" xlink:title="Gimbal API for OSDK library. ">
<polygon fill="white" stroke="black" points="154.5,-168.5 154.5,-187.5 233.5,-187.5 233.5,-168.5 154.5,-168.5"/>
<text text-anchor="middle" x="194" y="-175.5" font-family="Helvetica,sans-Serif" font-size="10.00">dji_gimbal.hpp</text>
</a>
</g>
</g>
<!-- Node1&#45;&gt;Node19 -->
<g id="edge30" class="edge"><title>Node1&#45;&gt;Node19</title>
<path fill="none" stroke="midnightblue" d="M1135.79,-351.195C1023.7,-351.666 752.22,-347.317 531,-300 412.294,-274.61 278.599,-217.55 221.852,-191.909"/>
<polygon fill="midnightblue" stroke="midnightblue" points="223.034,-188.602 212.483,-187.644 220.134,-194.973 223.034,-188.602"/>
</g>
<!-- Node20 -->
<g id="node20" class="node"><title>Node20</title>
<polygon fill="white" stroke="#bfbfbf" points="1193,-280.5 1193,-299.5 1291,-299.5 1291,-280.5 1193,-280.5"/>
<text text-anchor="middle" x="1242" y="-287.5" font-family="Helvetica,sans-Serif" font-size="10.00">dji_hard_driver.hpp</text>
</g>
<!-- Node1&#45;&gt;Node20 -->
<g id="edge33" class="edge"><title>Node1&#45;&gt;Node20</title>
<path fill="none" stroke="midnightblue" d="M1200.8,-336.399C1208.72,-327.664 1218.94,-316.413 1227.21,-307.296"/>
<polygon fill="midnightblue" stroke="midnightblue" points="1230.01,-309.415 1234.14,-299.658 1224.83,-304.711 1230.01,-309.415"/>
</g>
<!-- Node21 -->
<g id="node21" class="node"><title>Node21</title>
<g id="a_node21"><a xlink:href="dji__hardware__sync_8hpp.html" target="_top" xlink:title="Hardware Sync API for DJI OSDK. ">
<polygon fill="white" stroke="black" points="353,-168.5 353,-187.5 469,-187.5 469,-168.5 353,-168.5"/>
<text text-anchor="middle" x="411" y="-175.5" font-family="Helvetica,sans-Serif" font-size="10.00">dji_hardware_sync.hpp</text>
</a>
</g>
</g>
<!-- Node1&#45;&gt;Node21 -->
<g id="edge34" class="edge"><title>Node1&#45;&gt;Node21</title>
<path fill="none" stroke="midnightblue" d="M1135.96,-351.429C1040.55,-351.835 831.967,-346.684 664,-300 573.723,-274.909 476.202,-219.163 433.345,-193.031"/>
<polygon fill="midnightblue" stroke="midnightblue" points="434.936,-189.9 424.586,-187.636 431.265,-195.86 434.936,-189.9"/>
</g>
<!-- Node22 -->
<g id="node22" class="node"><title>Node22</title>
<g id="a_node22"><a xlink:href="dji__mfio_8hpp.html" target="_top" xlink:title="MFIO API for DJI OSDK library. ">
<polygon fill="white" stroke="black" points="1799.5,-224.5 1799.5,-243.5 1868.5,-243.5 1868.5,-224.5 1799.5,-224.5"/>
<text text-anchor="middle" x="1834" y="-231.5" font-family="Helvetica,sans-Serif" font-size="10.00">dji_mfio.hpp</text>
</a>
</g>
</g>
<!-- Node1&#45;&gt;Node22 -->
<g id="edge36" class="edge"><title>Node1&#45;&gt;Node22</title>
<path fill="none" stroke="midnightblue" d="M1240.06,-350.572C1390.86,-350.241 1819.97,-345.293 1862,-300 1874.85,-286.146 1862.15,-265.475 1849.97,-251.18"/>
<polygon fill="midnightblue" stroke="midnightblue" points="1852.37,-248.626 1843.05,-243.6 1847.2,-253.345 1852.37,-248.626"/>
</g>
<!-- Node23 -->
<g id="node23" class="node"><title>Node23</title>
<g id="a_node23"><a xlink:href="dji__mission__manager_8hpp.html" target="_top" xlink:title="Mission&#45;Manager API for DJI OSDK library. ">
<polygon fill="white" stroke="black" points="673.5,-280.5 673.5,-299.5 800.5,-299.5 800.5,-280.5 673.5,-280.5"/>
<text text-anchor="middle" x="737" y="-287.5" font-family="Helvetica,sans-Serif" font-size="10.00">dji_mission_manager.hpp</text>
</a>
</g>
</g>
<!-- Node1&#45;&gt;Node23 -->
<g id="edge38" class="edge"><title>Node1&#45;&gt;Node23</title>
<path fill="none" stroke="midnightblue" d="M1135.82,-343.616C1055.7,-333.046 902.07,-312.778 810.646,-300.716"/>
<polygon fill="midnightblue" stroke="midnightblue" points="811.005,-297.233 800.633,-299.395 810.09,-304.173 811.005,-297.233"/>
</g>
<!-- Node27 -->
<g id="node27" class="node"><title>Node27</title>
<g id="a_node27"><a xlink:href="dji__mobile__communication_8hpp.html" target="_top" xlink:title="Implementation of DJI Mobile&#45;Onboard SDK Communication (MOC) ">
<polygon fill="white" stroke="black" points="1461,-280.5 1461,-299.5 1611,-299.5 1611,-280.5 1461,-280.5"/>
<text text-anchor="middle" x="1536" y="-287.5" font-family="Helvetica,sans-Serif" font-size="10.00">dji_mobile_communication.hpp</text>
</a>
</g>
</g>
<!-- Node1&#45;&gt;Node27 -->
<g id="edge47" class="edge"><title>Node1&#45;&gt;Node27</title>
<path fill="none" stroke="midnightblue" d="M1240.1,-341.592C1303.31,-330.784 1409.66,-312.601 1476.17,-301.229"/>
<polygon fill="midnightblue" stroke="midnightblue" points="1476.82,-304.669 1486.09,-299.534 1475.64,-297.769 1476.82,-304.669"/>
</g>
<!-- Node29 -->
<g id="node29" class="node"><title>Node29</title>
<g id="a_node29"><a xlink:href="dji__mobile__device_8hpp.html" target="_top" xlink:title="Implementation of DJI Mobile Device Abstraction. ">
<polygon fill="white" stroke="black" points="1442.5,-224.5 1442.5,-243.5 1555.5,-243.5 1555.5,-224.5 1442.5,-224.5"/>
<text text-anchor="middle" x="1499" y="-231.5" font-family="Helvetica,sans-Serif" font-size="10.00">dji_mobile_device.hpp</text>
</a>
</g>
</g>
<!-- Node1&#45;&gt;Node29 -->
<g id="edge50" class="edge"><title>Node1&#45;&gt;Node29</title>
<path fill="none" stroke="midnightblue" d="M1233.8,-336.481C1264.59,-326.811 1305.98,-313.339 1342,-300 1387.18,-283.266 1438.62,-261.428 1469.93,-247.809"/>
<polygon fill="midnightblue" stroke="midnightblue" points="1471.6,-250.902 1479.36,-243.693 1468.8,-244.486 1471.6,-250.902"/>
</g>
<!-- Node30 -->
<g id="node30" class="node"><title>Node30</title>
<polygon fill="white" stroke="#bfbfbf" points="1629,-280.5 1629,-299.5 1757,-299.5 1757,-280.5 1629,-280.5"/>
<text text-anchor="middle" x="1693" y="-287.5" font-family="Helvetica,sans-Serif" font-size="10.00">dji_platform_manager.hpp</text>
</g>
<!-- Node1&#45;&gt;Node30 -->
<g id="edge53" class="edge"><title>Node1&#45;&gt;Node30</title>
<path fill="none" stroke="midnightblue" d="M1240.21,-344.504C1319.54,-335.37 1475.46,-317.325 1618.62,-300.159"/>
<polygon fill="midnightblue" stroke="midnightblue" points="1619.4,-303.592 1628.91,-298.925 1618.56,-296.641 1619.4,-303.592"/>
</g>
<!-- Node31 -->
<g id="node31" class="node"><title>Node31</title>
<g id="a_node31"><a xlink:href="dji__status_8hpp.html" target="_top" xlink:title="Status information for DJI Vehicle. ">
<polygon fill="white" stroke="black" points="1775.5,-280.5 1775.5,-299.5 1852.5,-299.5 1852.5,-280.5 1775.5,-280.5"/>
<text text-anchor="middle" x="1814" y="-287.5" font-family="Helvetica,sans-Serif" font-size="10.00">dji_status.hpp</text>
</a>
</g>
</g>
<!-- Node1&#45;&gt;Node31 -->
<g id="edge54" class="edge"><title>Node1&#45;&gt;Node31</title>
<path fill="none" stroke="midnightblue" d="M1240,-347.674C1339.8,-341.877 1565.25,-326.98 1765.18,-299.976"/>
<polygon fill="midnightblue" stroke="midnightblue" points="1765.85,-303.417 1775.28,-298.598 1764.9,-296.481 1765.85,-303.417"/>
</g>
<!-- Node32 -->
<g id="node32" class="node"><title>Node32</title>
<g id="a_node32"><a xlink:href="dji__subscription_8hpp.html" target="_top" xlink:title="Telemetry Subscription API for DJI OSDK library. ">
<polygon fill="white" stroke="black" points="1171.5,-224.5 1171.5,-243.5 1274.5,-243.5 1274.5,-224.5 1171.5,-224.5"/>
<text text-anchor="middle" x="1223" y="-231.5" font-family="Helvetica,sans-Serif" font-size="10.00">dji_subscription.hpp</text>
</a>
</g>
</g>
<!-- Node1&#45;&gt;Node32 -->
<g id="edge55" class="edge"><title>Node1&#45;&gt;Node32</title>
<path fill="none" stroke="midnightblue" d="M1240.1,-340.262C1262.53,-332.993 1286.63,-320.693 1300,-300 1314.37,-277.752 1284.81,-259.084 1258.26,-247.543"/>
<polygon fill="midnightblue" stroke="midnightblue" points="1259.27,-244.178 1248.69,-243.621 1256.62,-250.655 1259.27,-244.178"/>
</g>
<!-- Node33 -->
<g id="node33" class="node"><title>Node33</title>
<polygon fill="white" stroke="#bfbfbf" points="1909,-280.5 1909,-299.5 2029,-299.5 2029,-280.5 1909,-280.5"/>
<text text-anchor="middle" x="1969" y="-287.5" font-family="Helvetica,sans-Serif" font-size="10.00">dji_thread_manager.hpp</text>
</g>
<!-- Node1&#45;&gt;Node33 -->
<g id="edge59" class="edge"><title>Node1&#45;&gt;Node33</title>
<path fill="none" stroke="midnightblue" d="M1240.4,-347.651C1357.77,-341.074 1650.64,-323.572 1895,-300 1896.27,-299.878 1897.55,-299.751 1898.84,-299.622"/>
<polygon fill="midnightblue" stroke="midnightblue" points="1899.27,-303.095 1908.85,-298.569 1898.54,-296.134 1899.27,-303.095"/>
</g>
<!-- Node34 -->
<g id="node34" class="node"><title>Node34</title>
<g id="a_node34"><a xlink:href="dji__virtual__rc_8hpp.html" target="_top" xlink:title="Virtual Radio Control API for DJI onboardSDK library. ">
<polygon fill="white" stroke="black" points="949,-280.5 949,-299.5 1039,-299.5 1039,-280.5 949,-280.5"/>
<text text-anchor="middle" x="994" y="-287.5" font-family="Helvetica,sans-Serif" font-size="10.00">dji_virtual_rc.hpp</text>
</a>
</g>
</g>
<!-- Node1&#45;&gt;Node34 -->
<g id="edge63" class="edge"><title>Node1&#45;&gt;Node34</title>
<path fill="none" stroke="midnightblue" d="M1142.02,-336.399C1108.36,-326.073 1063.22,-312.231 1031.68,-302.556"/>
<polygon fill="midnightblue" stroke="midnightblue" points="1032.53,-299.157 1021.95,-299.571 1030.48,-305.849 1032.53,-299.157"/>
</g>
<!-- Node4 -->
<g id="node4" class="node"><title>Node4</title>
<g id="a_node4"><a xlink:href="dji__telemetry_8hpp.html" target="_top" xlink:title="Enumeration of all telemetry data types, structures and maps. ">
<polygon fill="white" stroke="black" points="909.5,-168.5 909.5,-187.5 1000.5,-187.5 1000.5,-168.5 909.5,-168.5"/>
<text text-anchor="middle" x="955" y="-175.5" font-family="Helvetica,sans-Serif" font-size="10.00">dji_telemetry.hpp</text>
</a>
</g>
</g>
<!-- Node3&#45;&gt;Node4 -->
<g id="edge3" class="edge"><title>Node3&#45;&gt;Node4</title>
<path fill="none" stroke="midnightblue" d="M1331.12,-227.015C1252.65,-216.998 1095.07,-196.881 1010.94,-186.141"/>
<polygon fill="midnightblue" stroke="midnightblue" points="1011.17,-182.643 1000.81,-184.848 1010.29,-189.586 1011.17,-182.643"/>
</g>
<!-- Node3&#45;&gt;Node8 -->
<g id="edge7" class="edge"><title>Node3&#45;&gt;Node8</title>
<path fill="none" stroke="midnightblue" d="M1378,-224.368C1378,-206.617 1378,-165.666 1378,-141.597"/>
<polygon fill="midnightblue" stroke="midnightblue" points="1381.5,-141.591 1378,-131.591 1374.5,-141.591 1381.5,-141.591"/>
</g>
<!-- Node4&#45;&gt;Node5 -->
<g id="edge4" class="edge"><title>Node4&#45;&gt;Node5</title>
<path fill="none" stroke="midnightblue" d="M909.384,-169.519C906.209,-169.004 903.057,-168.493 900,-168 815.85,-154.425 717.574,-138.864 661.774,-130.056"/>
<polygon fill="midnightblue" stroke="midnightblue" points="662.286,-126.593 651.862,-128.492 661.195,-133.508 662.286,-126.593"/>
</g>
<!-- Node6 -->
<g id="node6" class="node"><title>Node6</title>
<polygon fill="white" stroke="#bfbfbf" points="595.5,-56.5 595.5,-75.5 638.5,-75.5 638.5,-56.5 595.5,-56.5"/>
<text text-anchor="middle" x="617" y="-63.5" font-family="Helvetica,sans-Serif" font-size="10.00">cstdio</text>
</g>
<!-- Node5&#45;&gt;Node6 -->
<g id="edge5" class="edge"><title>Node5&#45;&gt;Node6</title>
<path fill="none" stroke="midnightblue" d="M617,-112.083C617,-105.006 617,-94.8611 617,-85.9865"/>
<polygon fill="midnightblue" stroke="midnightblue" points="620.5,-85.751 617,-75.7511 613.5,-85.7511 620.5,-85.751"/>
</g>
<!-- Node7 -->
<g id="node7" class="node"><title>Node7</title>
<polygon fill="white" stroke="#bfbfbf" points="331.5,-0.5 331.5,-19.5 380.5,-19.5 380.5,-0.5 331.5,-0.5"/>
<text text-anchor="middle" x="356" y="-7.5" font-family="Helvetica,sans-Serif" font-size="10.00">stdint.h</text>
</g>
<!-- Node5&#45;&gt;Node7 -->
<g id="edge6" class="edge"><title>Node5&#45;&gt;Node7</title>
<path fill="none" stroke="midnightblue" d="M596.52,-112.368C550.589,-93.0105 439.199,-46.0645 385.677,-23.5074"/>
<polygon fill="midnightblue" stroke="midnightblue" points="386.959,-20.2499 376.385,-19.5914 384.241,-26.7005 386.959,-20.2499"/>
</g>
<!-- Node8&#45;&gt;Node9 -->
<g id="edge8" class="edge"><title>Node8&#45;&gt;Node9</title>
<path fill="none" stroke="midnightblue" d="M1353.44,-112.444C1327.48,-103.399 1286.33,-89.064 1257.2,-78.9158"/>
<polygon fill="midnightblue" stroke="midnightblue" points="1258.04,-75.5013 1247.45,-75.5164 1255.74,-82.1116 1258.04,-75.5013"/>
</g>
<!-- Node10&#45;&gt;Node5 -->
<g id="edge14" class="edge"><title>Node10&#45;&gt;Node5</title>
<path fill="none" stroke="midnightblue" d="M334.742,-169.594C337.874,-169.051 340.987,-168.514 344,-168 424.294,-154.298 517.997,-139.004 572.116,-130.239"/>
<polygon fill="midnightblue" stroke="midnightblue" points="572.76,-133.68 582.072,-128.628 571.641,-126.77 572.76,-133.68"/>
</g>
<!-- Node10&#45;&gt;Node11 -->
<g id="edge10" class="edge"><title>Node10&#45;&gt;Node11</title>
<path fill="none" stroke="midnightblue" d="M293,-168.083C293,-161.006 293,-150.861 293,-141.986"/>
<polygon fill="midnightblue" stroke="midnightblue" points="296.5,-141.751 293,-131.751 289.5,-141.751 296.5,-141.751"/>
</g>
<!-- Node11&#45;&gt;Node7 -->
<g id="edge13" class="edge"><title>Node11&#45;&gt;Node7</title>
<path fill="none" stroke="midnightblue" d="M304.343,-112.179C314.307,-103.859 328.504,-90.5244 337,-76 345.44,-61.5704 350.366,-43.1178 353.078,-29.5626"/>
<polygon fill="midnightblue" stroke="midnightblue" points="356.558,-29.9822 354.863,-19.5238 349.666,-28.7564 356.558,-29.9822"/>
</g>
<!-- Node12 -->
<g id="node12" class="node"><title>Node12</title>
<g id="a_node12"><a xlink:href="dji__error_8hpp.html" target="_top" xlink:title="All DJI OSDK OpenProtocol ACK Error Codes. ">
<polygon fill="white" stroke="black" points="258,-56.5 258,-75.5 328,-75.5 328,-56.5 258,-56.5"/>
<text text-anchor="middle" x="293" y="-63.5" font-family="Helvetica,sans-Serif" font-size="10.00">dji_error.hpp</text>
</a>
</g>
</g>
<!-- Node11&#45;&gt;Node12 -->
<g id="edge11" class="edge"><title>Node11&#45;&gt;Node12</title>
<path fill="none" stroke="midnightblue" d="M293,-112.083C293,-105.006 293,-94.8611 293,-85.9865"/>
<polygon fill="midnightblue" stroke="midnightblue" points="296.5,-85.751 293,-75.7511 289.5,-85.7511 296.5,-85.751"/>
</g>
<!-- Node12&#45;&gt;Node7 -->
<g id="edge12" class="edge"><title>Node12&#45;&gt;Node7</title>
<path fill="none" stroke="midnightblue" d="M303.122,-56.324C312.526,-48.2631 326.744,-36.0765 338.069,-26.3695"/>
<polygon fill="midnightblue" stroke="midnightblue" points="340.379,-28.9993 345.694,-19.8339 335.823,-23.6844 340.379,-28.9993"/>
</g>
<!-- Node14&#45;&gt;Node5 -->
<g id="edge28" class="edge"><title>Node14&#45;&gt;Node5</title>
<path fill="none" stroke="midnightblue" d="M1134.07,-280.455C1131.1,-257.761 1119.65,-195.817 1081,-168 1047.43,-143.84 771.65,-129.572 661.853,-124.803"/>
<polygon fill="midnightblue" stroke="midnightblue" points="661.9,-121.302 651.759,-124.371 661.6,-128.295 661.9,-121.302"/>
</g>
<!-- Node14&#45;&gt;Node8 -->
<g id="edge29" class="edge"><title>Node14&#45;&gt;Node8</title>
<path fill="none" stroke="midnightblue" d="M1171.91,-280.477C1209.54,-271.316 1264.88,-256.4 1283,-244 1323.06,-216.58 1354.13,-167.092 1368.78,-140.701"/>
<polygon fill="midnightblue" stroke="midnightblue" points="1371.9,-142.275 1373.57,-131.812 1365.74,-138.952 1371.9,-142.275"/>
</g>
<!-- Node14&#45;&gt;Node9 -->
<g id="edge27" class="edge"><title>Node14&#45;&gt;Node9</title>
<path fill="none" stroke="midnightblue" d="M1138.45,-280.297C1151.45,-247.494 1197.68,-130.884 1215.72,-85.3774"/>
<polygon fill="midnightblue" stroke="midnightblue" points="1219.05,-86.4698 1219.48,-75.8837 1212.54,-83.8902 1219.05,-86.4698"/>
</g>
<!-- Node15 -->
<g id="node15" class="node"><title>Node15</title>
<g id="a_node15"><a xlink:href="dji__ack_8hpp.html" target="_top" xlink:title="All DJI OSDK ACK parsing. ">
<polygon fill="white" stroke="black" points="629,-224.5 629,-243.5 695,-243.5 695,-224.5 629,-224.5"/>
<text text-anchor="middle" x="662" y="-231.5" font-family="Helvetica,sans-Serif" font-size="10.00">dji_ack.hpp</text>
</a>
</g>
</g>
<!-- Node14&#45;&gt;Node15 -->
<g id="edge18" class="edge"><title>Node14&#45;&gt;Node15</title>
<path fill="none" stroke="midnightblue" d="M1094.97,-284.849C998.716,-274.864 758.787,-249.954 705.505,-243.765"/>
<polygon fill="midnightblue" stroke="midnightblue" points="705.768,-240.27 695.41,-242.497 704.896,-247.216 705.768,-240.27"/>
</g>
<!-- Node15&#45;&gt;Node5 -->
<g id="edge22" class="edge"><title>Node15&#45;&gt;Node5</title>
<path fill="none" stroke="midnightblue" d="M668.367,-224.17C676.827,-211.262 689.644,-186.741 680,-168 672.923,-154.247 659.479,-143.766 646.822,-136.394"/>
<polygon fill="midnightblue" stroke="midnightblue" points="648.313,-133.222 637.847,-131.573 645.001,-139.389 648.313,-133.222"/>
</g>
<!-- Node15&#45;&gt;Node11 -->
<g id="edge19" class="edge"><title>Node15&#45;&gt;Node11</title>
<path fill="none" stroke="midnightblue" d="M640.144,-224.47C605.916,-211.295 537.426,-185.675 478,-168 432.822,-154.563 380.576,-142.133 343.152,-133.758"/>
<polygon fill="midnightblue" stroke="midnightblue" points="343.528,-130.256 333.007,-131.506 342.011,-137.09 343.528,-130.256"/>
</g>
<!-- Node16 -->
<g id="node16" class="node"><title>Node16</title>
<g id="a_node16"><a xlink:href="dji__mission__type_8hpp.html" target="_top" xlink:title="Mission related data struct for DJI OSDK library. ">
<polygon fill="white" stroke="black" points="563,-168.5 563,-187.5 671,-187.5 671,-168.5 563,-168.5"/>
<text text-anchor="middle" x="617" y="-175.5" font-family="Helvetica,sans-Serif" font-size="10.00">dji_mission_type.hpp</text>
</a>
</g>
</g>
<!-- Node15&#45;&gt;Node16 -->
<g id="edge20" class="edge"><title>Node15&#45;&gt;Node16</title>
<path fill="none" stroke="midnightblue" d="M654.569,-224.083C648.147,-216.377 638.694,-205.033 630.878,-195.653"/>
<polygon fill="midnightblue" stroke="midnightblue" points="633.383,-193.193 624.293,-187.751 628.006,-197.674 633.383,-193.193"/>
</g>
<!-- Node15&#45;&gt;Node17 -->
<g id="edge23" class="edge"><title>Node15&#45;&gt;Node17</title>
<path fill="none" stroke="midnightblue" d="M628.718,-230.278C546.559,-223.522 327.53,-205.277 145,-188 133.175,-186.881 120.462,-185.616 108.478,-184.397"/>
<polygon fill="midnightblue" stroke="midnightblue" points="108.48,-180.878 98.1749,-183.341 107.766,-187.842 108.48,-180.878"/>
</g>
<!-- Node18 -->
<g id="node18" class="node"><title>Node18</title>
<polygon fill="white" stroke="#bfbfbf" points="727.5,-168.5 727.5,-187.5 762.5,-187.5 762.5,-168.5 727.5,-168.5"/>
<text text-anchor="middle" x="745" y="-175.5" font-family="Helvetica,sans-Serif" font-size="10.00">map</text>
</g>
<!-- Node15&#45;&gt;Node18 -->
<g id="edge26" class="edge"><title>Node15&#45;&gt;Node18</title>
<path fill="none" stroke="midnightblue" d="M675.335,-224.324C688.162,-215.979 707.785,-203.212 722.94,-193.352"/>
<polygon fill="midnightblue" stroke="midnightblue" points="725.224,-196.042 731.698,-187.655 721.407,-190.174 725.224,-196.042"/>
</g>
<!-- Node16&#45;&gt;Node5 -->
<g id="edge21" class="edge"><title>Node16&#45;&gt;Node5</title>
<path fill="none" stroke="midnightblue" d="M617,-168.083C617,-161.006 617,-150.861 617,-141.986"/>
<polygon fill="midnightblue" stroke="midnightblue" points="620.5,-141.751 617,-131.751 613.5,-141.751 620.5,-141.751"/>
</g>
<!-- Node17&#45;&gt;Node2 -->
<g id="edge25" class="edge"><title>Node17&#45;&gt;Node2</title>
<path fill="none" stroke="midnightblue" d="M51.3856,-168.083C46.6326,-160.534 39.6819,-149.495 33.8484,-140.23"/>
<polygon fill="midnightblue" stroke="midnightblue" points="36.7999,-138.349 28.5099,-131.751 30.8763,-142.078 36.7999,-138.349"/>
</g>
<!-- Node17&#45;&gt;Node11 -->
<g id="edge24" class="edge"><title>Node17&#45;&gt;Node11</title>
<path fill="none" stroke="midnightblue" d="M94.3949,-168.444C135.392,-159.063 201.254,-143.993 245.784,-133.804"/>
<polygon fill="midnightblue" stroke="midnightblue" points="246.813,-137.159 255.78,-131.516 245.251,-130.335 246.813,-137.159"/>
</g>
<!-- Node19&#45;&gt;Node5 -->
<g id="edge32" class="edge"><title>Node19&#45;&gt;Node5</title>
<path fill="none" stroke="midnightblue" d="M233.517,-169.377C236.384,-168.889 239.235,-168.425 242,-168 360.67,-149.775 501.422,-134.6 571.961,-127.435"/>
<polygon fill="midnightblue" stroke="midnightblue" points="572.659,-130.883 582.257,-126.396 571.956,-123.918 572.659,-130.883"/>
</g>
<!-- Node19&#45;&gt;Node11 -->
<g id="edge31" class="edge"><title>Node19&#45;&gt;Node11</title>
<path fill="none" stroke="midnightblue" d="M209.906,-168.324C225.638,-159.743 249.942,-146.486 268.209,-136.522"/>
<polygon fill="midnightblue" stroke="midnightblue" points="270.03,-139.516 277.133,-131.655 266.678,-133.37 270.03,-139.516"/>
</g>
<!-- Node21&#45;&gt;Node5 -->
<g id="edge35" class="edge"><title>Node21&#45;&gt;Node5</title>
<path fill="none" stroke="midnightblue" d="M443.641,-168.444C479.05,-159.162 535.709,-144.309 574.553,-134.127"/>
<polygon fill="midnightblue" stroke="midnightblue" points="575.726,-137.438 584.511,-131.516 573.951,-130.667 575.726,-137.438"/>
</g>
<!-- Node22&#45;&gt;Node8 -->
<g id="edge37" class="edge"><title>Node22&#45;&gt;Node8</title>
<path fill="none" stroke="midnightblue" d="M1811.45,-224.409C1775.02,-210.804 1700.76,-184.187 1636,-168 1573.66,-152.417 1501.52,-140.325 1449.4,-132.619"/>
<polygon fill="midnightblue" stroke="midnightblue" points="1449.65,-129.118 1439.25,-131.136 1448.64,-136.045 1449.65,-129.118"/>
</g>
<!-- Node24 -->
<g id="node24" class="node"><title>Node24</title>
<g id="a_node24"><a xlink:href="dji__hotpoint_8hpp.html" target="_top" xlink:title="Implementation of HotPoint (Point of Interest) Missions for DJI OSDK. ">
<polygon fill="white" stroke="black" points="820.5,-224.5 820.5,-243.5 905.5,-243.5 905.5,-224.5 820.5,-224.5"/>
<text text-anchor="middle" x="863" y="-231.5" font-family="Helvetica,sans-Serif" font-size="10.00">dji_hotpoint.hpp</text>
</a>
</g>
</g>
<!-- Node23&#45;&gt;Node24 -->
<g id="edge39" class="edge"><title>Node23&#45;&gt;Node24</title>
<path fill="none" stroke="midnightblue" d="M756.965,-280.444C777.609,-271.596 810.063,-257.687 833.632,-247.586"/>
<polygon fill="midnightblue" stroke="midnightblue" points="835.316,-250.673 843.128,-243.516 832.558,-244.239 835.316,-250.673"/>
</g>
<!-- Node26 -->
<g id="node26" class="node"><title>Node26</title>
<g id="a_node26"><a xlink:href="dji__waypoint_8hpp.html" target="_top" xlink:title="Implementation of GPS Waypoint Missions for DJI OSDK. ">
<polygon fill="white" stroke="black" points="713.5,-224.5 713.5,-243.5 802.5,-243.5 802.5,-224.5 713.5,-224.5"/>
<text text-anchor="middle" x="758" y="-231.5" font-family="Helvetica,sans-Serif" font-size="10.00">dji_waypoint.hpp</text>
</a>
</g>
</g>
<!-- Node23&#45;&gt;Node26 -->
<g id="edge45" class="edge"><title>Node23&#45;&gt;Node26</title>
<path fill="none" stroke="midnightblue" d="M740.468,-280.083C743.312,-272.77 747.429,-262.181 750.96,-253.103"/>
<polygon fill="midnightblue" stroke="midnightblue" points="754.234,-254.34 754.597,-243.751 747.71,-251.803 754.234,-254.34"/>
</g>
<!-- Node24&#45;&gt;Node4 -->
<g id="edge44" class="edge"><title>Node24&#45;&gt;Node4</title>
<path fill="none" stroke="midnightblue" d="M877.781,-224.324C892.267,-215.822 914.573,-202.729 931.493,-192.797"/>
<polygon fill="midnightblue" stroke="midnightblue" points="933.403,-195.735 940.255,-187.655 929.859,-189.698 933.403,-195.735"/>
</g>
<!-- Node25 -->
<g id="node25" class="node"><title>Node25</title>
<g id="a_node25"><a xlink:href="dji__mission__base_8hpp.html" target="_top" xlink:title="Mission&#45;Base abstract class for DJI OSDK library. ">
<polygon fill="white" stroke="black" points="781,-168.5 781,-187.5 891,-187.5 891,-168.5 781,-168.5"/>
<text text-anchor="middle" x="836" y="-175.5" font-family="Helvetica,sans-Serif" font-size="10.00">dji_mission_base.hpp</text>
</a>
</g>
</g>
<!-- Node24&#45;&gt;Node25 -->
<g id="edge40" class="edge"><title>Node24&#45;&gt;Node25</title>
<path fill="none" stroke="midnightblue" d="M858.541,-224.083C854.846,-216.691 849.477,-205.953 844.906,-196.811"/>
<polygon fill="midnightblue" stroke="midnightblue" points="847.978,-195.13 840.376,-187.751 841.717,-198.261 847.978,-195.13"/>
</g>
<!-- Node25&#45;&gt;Node5 -->
<g id="edge42" class="edge"><title>Node25&#45;&gt;Node5</title>
<path fill="none" stroke="midnightblue" d="M801.299,-168.444C763.415,-159.102 702.651,-144.119 661.338,-133.933"/>
<polygon fill="midnightblue" stroke="midnightblue" points="662.086,-130.512 651.539,-131.516 660.41,-137.309 662.086,-130.512"/>
</g>
<!-- Node25&#45;&gt;Node8 -->
<g id="edge43" class="edge"><title>Node25&#45;&gt;Node8</title>
<path fill="none" stroke="midnightblue" d="M891.137,-169.083C894.134,-168.704 897.103,-168.34 900,-168 1044.03,-151.102 1213.06,-136.388 1306.59,-128.694"/>
<polygon fill="midnightblue" stroke="midnightblue" points="1307.11,-132.164 1316.79,-127.859 1306.53,-125.187 1307.11,-132.164"/>
</g>
<!-- Node25&#45;&gt;Node11 -->
<g id="edge41" class="edge"><title>Node25&#45;&gt;Node11</title>
<path fill="none" stroke="midnightblue" d="M780.703,-169.176C777.422,-168.764 774.169,-168.368 771,-168 619.083,-150.34 439.38,-134.878 349.764,-127.536"/>
<polygon fill="midnightblue" stroke="midnightblue" points="349.801,-124.027 339.55,-126.702 349.232,-131.004 349.801,-124.027"/>
</g>
<!-- Node26&#45;&gt;Node25 -->
<g id="edge46" class="edge"><title>Node26&#45;&gt;Node25</title>
<path fill="none" stroke="midnightblue" d="M770.532,-224.324C782.586,-215.979 801.027,-203.212 815.269,-193.352"/>
<polygon fill="midnightblue" stroke="midnightblue" points="817.269,-196.224 823.499,-187.655 813.285,-190.469 817.269,-196.224"/>
</g>
<!-- Node27&#45;&gt;Node8 -->
<g id="edge49" class="edge"><title>Node27&#45;&gt;Node8</title>
<path fill="none" stroke="midnightblue" d="M1556.22,-280.495C1570.77,-273.168 1589.3,-261.063 1598,-244 1613.34,-213.907 1619.36,-194.168 1598,-168 1579.37,-145.171 1506.02,-133.612 1449.08,-127.973"/>
<polygon fill="midnightblue" stroke="midnightblue" points="1449.3,-124.478 1439.02,-127.02 1448.64,-131.447 1449.3,-124.478"/>
</g>
<!-- Node28 -->
<g id="node28" class="node"><title>Node28</title>
<polygon fill="white" stroke="#bfbfbf" points="1650.5,-224.5 1650.5,-243.5 1733.5,-243.5 1733.5,-224.5 1650.5,-224.5"/>
<text text-anchor="middle" x="1692" y="-231.5" font-family="Helvetica,sans-Serif" font-size="10.00">dji_macros.hpp</text>
</g>
<!-- Node27&#45;&gt;Node28 -->
<g id="edge48" class="edge"><title>Node27&#45;&gt;Node28</title>
<path fill="none" stroke="midnightblue" d="M1560.72,-280.444C1586.85,-271.399 1628.26,-257.064 1657.58,-246.916"/>
<polygon fill="midnightblue" stroke="midnightblue" points="1659.09,-250.095 1667.4,-243.516 1656.8,-243.48 1659.09,-250.095"/>
</g>
<!-- Node29&#45;&gt;Node8 -->
<g id="edge51" class="edge"><title>Node29&#45;&gt;Node8</title>
<path fill="none" stroke="midnightblue" d="M1489.51,-224.368C1469.1,-205.814 1420.8,-161.913 1394.98,-138.438"/>
<polygon fill="midnightblue" stroke="midnightblue" points="1397.2,-135.728 1387.45,-131.591 1392.5,-140.908 1397.2,-135.728"/>
</g>
<!-- Node32&#45;&gt;Node4 -->
<g id="edge57" class="edge"><title>Node32&#45;&gt;Node4</title>
<path fill="none" stroke="midnightblue" d="M1180.53,-224.444C1133.59,-214.984 1057.92,-199.738 1007.35,-189.547"/>
<polygon fill="midnightblue" stroke="midnightblue" points="1007.76,-186.061 997.267,-187.516 1006.38,-192.923 1007.76,-186.061"/>
</g>
<!-- Node32&#45;&gt;Node8 -->
<g id="edge58" class="edge"><title>Node32&#45;&gt;Node8</title>
<path fill="none" stroke="midnightblue" d="M1230.4,-224.127C1241.9,-210.726 1265.23,-185.077 1289,-168 1307.03,-155.045 1329.34,-143.776 1347.1,-135.755"/>
<polygon fill="midnightblue" stroke="midnightblue" points="1348.71,-138.874 1356.45,-131.644 1345.89,-132.466 1348.71,-138.874"/>
</g>
<!-- Node32&#45;&gt;Node9 -->
<g id="edge56" class="edge"><title>Node32&#45;&gt;Node9</title>
<path fill="none" stroke="midnightblue" d="M1223,-224.075C1223,-197.945 1223,-121.211 1223,-85.577"/>
<polygon fill="midnightblue" stroke="midnightblue" points="1226.5,-85.5681 1223,-75.5681 1219.5,-85.5681 1226.5,-85.5681"/>
</g>
<!-- Node34&#45;&gt;Node4 -->
<g id="edge67" class="edge"><title>Node34&#45;&gt;Node4</title>
<path fill="none" stroke="midnightblue" d="M990.94,-280.368C984.618,-262.537 969.996,-221.295 961.478,-197.272"/>
<polygon fill="midnightblue" stroke="midnightblue" points="964.687,-195.847 958.046,-187.591 958.089,-198.186 964.687,-195.847"/>
</g>
<!-- Node34&#45;&gt;Node5 -->
<g id="edge66" class="edge"><title>Node34&#45;&gt;Node5</title>
<path fill="none" stroke="midnightblue" d="M948.946,-281.307C945.921,-280.847 942.918,-280.407 940,-280 798.253,-260.229 751.382,-300.763 620,-244 578.932,-226.257 533.529,-207.779 554,-168 561.077,-154.247 574.521,-143.766 587.178,-136.394"/>
<polygon fill="midnightblue" stroke="midnightblue" points="588.999,-139.389 596.153,-131.573 585.687,-133.222 588.999,-139.389"/>
</g>
<!-- Node34&#45;&gt;Node9 -->
<g id="edge65" class="edge"><title>Node34&#45;&gt;Node9</title>
<path fill="none" stroke="midnightblue" d="M1002.98,-280.297C1037.46,-246.871 1161.7,-126.425 1206.64,-82.8633"/>
<polygon fill="midnightblue" stroke="midnightblue" points="1209.09,-85.3572 1213.84,-75.8837 1204.22,-80.3313 1209.09,-85.3572"/>
</g>
<!-- Node34&#45;&gt;Node15 -->
<g id="edge64" class="edge"><title>Node34&#45;&gt;Node15</title>
<path fill="none" stroke="midnightblue" d="M948.926,-281.44C945.906,-280.948 942.91,-280.464 940,-280 838.396,-263.784 810.062,-263.149 705.459,-244.184"/>
<polygon fill="midnightblue" stroke="midnightblue" points="705.901,-240.707 695.435,-242.353 704.643,-247.593 705.901,-240.707"/>
</g>
</g>
</svg>
