<?xml version="1.0" encoding="UTF-8" standalone="no"?>
<!DOCTYPE svg PUBLIC "-//W3C//DTD SVG 1.1//EN"
 "http://www.w3.org/Graphics/SVG/1.1/DTD/svg11.dtd">
<!-- Generated by graphviz version 2.38.0 (20140413.2041)
 -->
<!-- Title: osdk&#45;core/api/src/dji_broadcast.cpp Pages: 1 -->
<svg width="1605pt" height="431pt"
 viewBox="0.00 0.00 1605.18 431.00" xmlns="http://www.w3.org/2000/svg" xmlns:xlink="http://www.w3.org/1999/xlink">
<g id="graph0" class="graph" transform="scale(1 1) rotate(0) translate(4 427)">
<title>osdk&#45;core/api/src/dji_broadcast.cpp</title>
<polygon fill="white" stroke="none" points="-4,4 -4,-427 1601.18,-427 1601.18,4 -4,4"/>
<!-- Node1 -->
<g id="node1" class="node"><title>Node1</title>
<polygon fill="#bfbfbf" stroke="black" points="1077,-392.5 1077,-422.5 1181,-422.5 1181,-392.5 1077,-392.5"/>
<text text-anchor="start" x="1085" y="-410.5" font-family="Helvetica,sans-Serif" font-size="10.00">osdk&#45;core/api/src/dji</text>
<text text-anchor="middle" x="1129" y="-399.5" font-family="Helvetica,sans-Serif" font-size="10.00">_broadcast.cpp</text>
</g>
<!-- Node2 -->
<g id="node2" class="node"><title>Node2</title>
<g id="a_node2"><a xlink:href="dji__broadcast_8hpp.html" target="_top" xlink:title="Broadcast Telemetry API for DJI onboardSDK library. ">
<polygon fill="white" stroke="black" points="1228.5,-224.5 1228.5,-243.5 1321.5,-243.5 1321.5,-224.5 1228.5,-224.5"/>
<text text-anchor="middle" x="1275" y="-231.5" font-family="Helvetica,sans-Serif" font-size="10.00">dji_broadcast.hpp</text>
</a>
</g>
</g>
<!-- Node1&#45;&gt;Node2 -->
<g id="edge1" class="edge"><title>Node1&#45;&gt;Node2</title>
<path fill="none" stroke="midnightblue" d="M1181.27,-398.541C1235.77,-387.15 1318.52,-360.441 1357,-300 1371.7,-276.902 1340.67,-258.47 1312.65,-247.217"/>
<polygon fill="midnightblue" stroke="midnightblue" points="1313.54,-243.811 1302.95,-243.54 1311.06,-250.357 1313.54,-243.811"/>
</g>
<!-- Node9 -->
<g id="node9" class="node"><title>Node9</title>
<g id="a_node9"><a xlink:href="dji__vehicle_8hpp.html" target="_top" xlink:title="Vehicle API for DJI onboardSDK library. ">
<polygon fill="white" stroke="black" points="803.5,-336.5 803.5,-355.5 884.5,-355.5 884.5,-336.5 803.5,-336.5"/>
<text text-anchor="middle" x="844" y="-343.5" font-family="Helvetica,sans-Serif" font-size="10.00">dji_vehicle.hpp</text>
</a>
</g>
</g>
<!-- Node1&#45;&gt;Node9 -->
<g id="edge8" class="edge"><title>Node1&#45;&gt;Node9</title>
<path fill="none" stroke="midnightblue" d="M1076.73,-395.587C1024.9,-384.767 946.029,-368.301 894.744,-357.594"/>
<polygon fill="midnightblue" stroke="midnightblue" points="895.376,-354.15 884.871,-355.533 893.945,-361.003 895.376,-354.15"/>
</g>
<!-- Node3 -->
<g id="node3" class="node"><title>Node3</title>
<g id="a_node3"><a xlink:href="dji__telemetry_8hpp.html" target="_top" xlink:title="Enumeration of all telemetry data types, structures and maps. ">
<polygon fill="white" stroke="black" points="890.5,-168.5 890.5,-187.5 981.5,-187.5 981.5,-168.5 890.5,-168.5"/>
<text text-anchor="middle" x="936" y="-175.5" font-family="Helvetica,sans-Serif" font-size="10.00">dji_telemetry.hpp</text>
</a>
</g>
</g>
<!-- Node2&#45;&gt;Node3 -->
<g id="edge2" class="edge"><title>Node2&#45;&gt;Node3</title>
<path fill="none" stroke="midnightblue" d="M1228.22,-225.548C1166.5,-215.716 1057.98,-198.43 991.974,-187.916"/>
<polygon fill="midnightblue" stroke="midnightblue" points="992.185,-184.406 981.759,-186.289 991.084,-191.319 992.185,-184.406"/>
</g>
<!-- Node7 -->
<g id="node7" class="node"><title>Node7</title>
<g id="a_node7"><a xlink:href="dji__vehicle__callback_8hpp.html" target="_top" xlink:title="Type definition for new Vehicle&#45;style callbacks. ">
<polygon fill="white" stroke="black" points="1228,-112.5 1228,-131.5 1350,-131.5 1350,-112.5 1228,-112.5"/>
<text text-anchor="middle" x="1289" y="-119.5" font-family="Helvetica,sans-Serif" font-size="10.00">dji_vehicle_callback.hpp</text>
</a>
</g>
</g>
<!-- Node2&#45;&gt;Node7 -->
<g id="edge6" class="edge"><title>Node2&#45;&gt;Node7</title>
<path fill="none" stroke="midnightblue" d="M1276.1,-224.368C1278.36,-206.617 1283.57,-165.666 1286.63,-141.597"/>
<polygon fill="midnightblue" stroke="midnightblue" points="1290.12,-141.953 1287.91,-131.591 1283.17,-141.069 1290.12,-141.953"/>
</g>
<!-- Node4 -->
<g id="node4" class="node"><title>Node4</title>
<g id="a_node4"><a xlink:href="dji__type_8hpp.html" target="_top" xlink:title="Data type and Data Structure definitions for use throughout DJI OSDK. ">
<polygon fill="white" stroke="black" points="533.5,-112.5 533.5,-131.5 602.5,-131.5 602.5,-112.5 533.5,-112.5"/>
<text text-anchor="middle" x="568" y="-119.5" font-family="Helvetica,sans-Serif" font-size="10.00">dji_type.hpp</text>
</a>
</g>
</g>
<!-- Node3&#45;&gt;Node4 -->
<g id="edge3" class="edge"><title>Node3&#45;&gt;Node4</title>
<path fill="none" stroke="midnightblue" d="M890.466,-170.151C885.583,-169.422 880.689,-168.694 876,-168 782.453,-154.15 672.88,-138.208 612.902,-129.506"/>
<polygon fill="midnightblue" stroke="midnightblue" points="613.048,-125.99 602.649,-128.018 612.043,-132.918 613.048,-125.99"/>
</g>
<!-- Node5 -->
<g id="node5" class="node"><title>Node5</title>
<polygon fill="white" stroke="#bfbfbf" points="546.5,-56.5 546.5,-75.5 589.5,-75.5 589.5,-56.5 546.5,-56.5"/>
<text text-anchor="middle" x="568" y="-63.5" font-family="Helvetica,sans-Serif" font-size="10.00">cstdio</text>
</g>
<!-- Node4&#45;&gt;Node5 -->
<g id="edge4" class="edge"><title>Node4&#45;&gt;Node5</title>
<path fill="none" stroke="midnightblue" d="M568,-112.083C568,-105.006 568,-94.8611 568,-85.9865"/>
<polygon fill="midnightblue" stroke="midnightblue" points="571.5,-85.751 568,-75.7511 564.5,-85.7511 571.5,-85.751"/>
</g>
<!-- Node6 -->
<g id="node6" class="node"><title>Node6</title>
<polygon fill="white" stroke="#bfbfbf" points="332.5,-0.5 332.5,-19.5 381.5,-19.5 381.5,-0.5 332.5,-0.5"/>
<text text-anchor="middle" x="357" y="-7.5" font-family="Helvetica,sans-Serif" font-size="10.00">stdint.h</text>
</g>
<!-- Node4&#45;&gt;Node6 -->
<g id="edge5" class="edge"><title>Node4&#45;&gt;Node6</title>
<path fill="none" stroke="midnightblue" d="M551.443,-112.368C514.696,-93.2113 426.123,-47.0355 382.353,-24.2172"/>
<polygon fill="midnightblue" stroke="midnightblue" points="383.965,-21.1107 373.48,-19.5914 380.729,-27.3178 383.965,-21.1107"/>
</g>
<!-- Node8 -->
<g id="node8" class="node"><title>Node8</title>
<polygon fill="white" stroke="#bfbfbf" points="1030.5,-56.5 1030.5,-75.5 1141.5,-75.5 1141.5,-56.5 1030.5,-56.5"/>
<text text-anchor="middle" x="1086" y="-63.5" font-family="Helvetica,sans-Serif" font-size="10.00">dji_open_protocol.hpp</text>
</g>
<!-- Node7&#45;&gt;Node8 -->
<g id="edge7" class="edge"><title>Node7&#45;&gt;Node8</title>
<path fill="none" stroke="midnightblue" d="M1256.83,-112.444C1221.94,-103.162 1166.11,-88.3093 1127.83,-78.127"/>
<polygon fill="midnightblue" stroke="midnightblue" points="1128.58,-74.7048 1118.02,-75.5164 1126.78,-81.4696 1128.58,-74.7048"/>
</g>
<!-- Node9&#45;&gt;Node2 -->
<g id="edge10" class="edge"><title>Node9&#45;&gt;Node2</title>
<path fill="none" stroke="midnightblue" d="M884.689,-337.709C924.336,-330.104 986.062,-316.931 1038,-300 1059.58,-292.964 1063.43,-287.086 1085,-280 1129.49,-265.382 1181.3,-253.436 1219.57,-245.535"/>
<polygon fill="midnightblue" stroke="midnightblue" points="1220.39,-248.94 1229.49,-243.515 1218.99,-242.081 1220.39,-248.94"/>
</g>
<!-- Node9&#45;&gt;Node4 -->
<g id="edge58" class="edge"><title>Node9&#45;&gt;Node4</title>
<path fill="none" stroke="midnightblue" d="M803.159,-345.632C702.301,-346.486 444.441,-344.168 373,-300 341.369,-280.445 325.653,-259.078 338,-224 348.601,-193.882 356.054,-185.129 383,-168 425.764,-140.816 483.652,-130.052 523.215,-125.791"/>
<polygon fill="midnightblue" stroke="midnightblue" points="523.748,-129.256 533.359,-124.797 523.065,-122.289 523.748,-129.256"/>
</g>
<!-- Node9&#45;&gt;Node7 -->
<g id="edge59" class="edge"><title>Node9&#45;&gt;Node7</title>
<path fill="none" stroke="midnightblue" d="M884.609,-345.117C978.798,-344.671 1219.05,-339.401 1415,-300 1492.99,-284.318 1538.37,-308.452 1585,-244 1644.83,-161.292 1466.01,-134.972 1360.49,-126.706"/>
<polygon fill="midnightblue" stroke="midnightblue" points="1360.44,-123.193 1350.21,-125.939 1359.92,-130.174 1360.44,-123.193"/>
</g>
<!-- Node9&#45;&gt;Node8 -->
<g id="edge51" class="edge"><title>Node9&#45;&gt;Node8</title>
<path fill="none" stroke="midnightblue" d="M884.682,-344.87C964.18,-343.784 1136.21,-337.086 1180,-300 1203.06,-280.465 1200,-265.225 1200,-235 1200,-235 1200,-235 1200,-177 1200,-130.115 1149.45,-96.8944 1115.67,-79.9302"/>
<polygon fill="midnightblue" stroke="midnightblue" points="1117.17,-76.7687 1106.64,-75.5787 1114.13,-83.0742 1117.17,-76.7687"/>
</g>
<!-- Node10 -->
<g id="node10" class="node"><title>Node10</title>
<polygon fill="white" stroke="#bfbfbf" points="0,-112.5 0,-131.5 46,-131.5 46,-112.5 0,-112.5"/>
<text text-anchor="middle" x="23" y="-119.5" font-family="Helvetica,sans-Serif" font-size="10.00">cstdint</text>
</g>
<!-- Node9&#45;&gt;Node10 -->
<g id="edge9" class="edge"><title>Node9&#45;&gt;Node10</title>
<path fill="none" stroke="midnightblue" d="M803.493,-344.585C655.974,-342.8 152.783,-334.235 90,-300 35.8362,-270.465 27.1714,-246.639 8,-188 2.88837,-172.365 8.06591,-154.071 13.689,-140.881"/>
<polygon fill="midnightblue" stroke="midnightblue" points="16.9928,-142.082 18.106,-131.546 10.6654,-139.088 16.9928,-142.082"/>
</g>
<!-- Node11 -->
<g id="node11" class="node"><title>Node11</title>
<g id="a_node11"><a xlink:href="dji__camera_8hpp.html" target="_top" xlink:title="Camera/Gimbal API for DJI onboardSDK library. ">
<polygon fill="white" stroke="black" points="252.5,-168.5 252.5,-187.5 335.5,-187.5 335.5,-168.5 252.5,-168.5"/>
<text text-anchor="middle" x="294" y="-175.5" font-family="Helvetica,sans-Serif" font-size="10.00">dji_camera.hpp</text>
</a>
</g>
</g>
<!-- Node9&#45;&gt;Node11 -->
<g id="edge11" class="edge"><title>Node9&#45;&gt;Node11</title>
<path fill="none" stroke="midnightblue" d="M803.15,-344.552C683.521,-342.838 340.154,-334.896 305,-300 278.016,-273.214 283.578,-224.161 289.232,-197.477"/>
<polygon fill="midnightblue" stroke="midnightblue" points="292.686,-198.076 291.566,-187.541 285.872,-196.476 292.686,-198.076"/>
</g>
<!-- Node12 -->
<g id="node12" class="node"><title>Node12</title>
<g id="a_node12"><a xlink:href="dji__command_8hpp.html" target="_top" xlink:title="All DJI OSDK OpenProtocol Command IDs. ">
<polygon fill="white" stroke="black" points="247.5,-112.5 247.5,-131.5 340.5,-131.5 340.5,-112.5 247.5,-112.5"/>
<text text-anchor="middle" x="294" y="-119.5" font-family="Helvetica,sans-Serif" font-size="10.00">dji_command.hpp</text>
</a>
</g>
</g>
<!-- Node9&#45;&gt;Node12 -->
<g id="edge18" class="edge"><title>Node9&#45;&gt;Node12</title>
<path fill="none" stroke="midnightblue" d="M803.13,-345.474C686.822,-346.26 356.154,-344.423 259,-300 188.767,-267.886 100.016,-230.044 146,-168 166.851,-139.867 204.855,-128.718 237.131,-124.551"/>
<polygon fill="midnightblue" stroke="midnightblue" points="237.819,-127.997 247.38,-123.43 237.058,-121.038 237.819,-127.997"/>
</g>
<!-- Node14 -->
<g id="node14" class="node"><title>Node14</title>
<polygon fill="white" stroke="#bfbfbf" points="528,-280.5 528,-299.5 640,-299.5 640,-280.5 528,-280.5"/>
<text text-anchor="middle" x="584" y="-287.5" font-family="Helvetica,sans-Serif" font-size="10.00">dji_circular_buffer.hpp</text>
</g>
<!-- Node9&#45;&gt;Node14 -->
<g id="edge17" class="edge"><title>Node9&#45;&gt;Node14</title>
<path fill="none" stroke="midnightblue" d="M803.375,-336.562C757.945,-327.127 684.292,-311.83 635.017,-301.596"/>
<polygon fill="midnightblue" stroke="midnightblue" points="635.701,-298.163 625.198,-299.556 634.277,-305.017 635.701,-298.163"/>
</g>
<!-- Node15 -->
<g id="node15" class="node"><title>Node15</title>
<g id="a_node15"><a xlink:href="dji__control_8hpp.html" target="_top" xlink:title="Control API for DJI OSDK library. ">
<polygon fill="white" stroke="black" points="804,-280.5 804,-299.5 884,-299.5 884,-280.5 804,-280.5"/>
<text text-anchor="middle" x="844" y="-287.5" font-family="Helvetica,sans-Serif" font-size="10.00">dji_control.hpp</text>
</a>
</g>
</g>
<!-- Node9&#45;&gt;Node15 -->
<g id="edge19" class="edge"><title>Node9&#45;&gt;Node15</title>
<path fill="none" stroke="midnightblue" d="M844,-336.083C844,-329.006 844,-318.861 844,-309.986"/>
<polygon fill="midnightblue" stroke="midnightblue" points="847.5,-309.751 844,-299.751 840.5,-309.751 847.5,-309.751"/>
</g>
<!-- Node18 -->
<g id="node18" class="node"><title>Node18</title>
<g id="a_node18"><a xlink:href="dji__version_8hpp.html" target="_top" xlink:title="Drone/SDK Version definition for DJI onboardSDK library. ">
<polygon fill="white" stroke="black" points="17,-168.5 17,-187.5 99,-187.5 99,-168.5 17,-168.5"/>
<text text-anchor="middle" x="58" y="-175.5" font-family="Helvetica,sans-Serif" font-size="10.00">dji_version.hpp</text>
</a>
</g>
</g>
<!-- Node9&#45;&gt;Node18 -->
<g id="edge60" class="edge"><title>Node9&#45;&gt;Node18</title>
<path fill="none" stroke="midnightblue" d="M803.488,-344.914C658.353,-344.279 169.984,-339.222 113,-300 78.4182,-276.198 65.2109,-225.114 60.4634,-197.548"/>
<polygon fill="midnightblue" stroke="midnightblue" points="63.9179,-196.983 58.9491,-187.625 56.998,-198.039 63.9179,-196.983"/>
</g>
<!-- Node20 -->
<g id="node20" class="node"><title>Node20</title>
<g id="a_node20"><a xlink:href="dji__gimbal_8hpp.html" target="_top" xlink:title="Gimbal API for OSDK library. ">
<polygon fill="white" stroke="black" points="155.5,-168.5 155.5,-187.5 234.5,-187.5 234.5,-168.5 155.5,-168.5"/>
<text text-anchor="middle" x="195" y="-175.5" font-family="Helvetica,sans-Serif" font-size="10.00">dji_gimbal.hpp</text>
</a>
</g>
</g>
<!-- Node9&#45;&gt;Node20 -->
<g id="edge32" class="edge"><title>Node9&#45;&gt;Node20</title>
<path fill="none" stroke="midnightblue" d="M803.169,-343.581C682.627,-339.131 333.911,-324.28 289,-300 246.049,-276.779 216.365,-224.653 203.004,-197.009"/>
<polygon fill="midnightblue" stroke="midnightblue" points="206.078,-195.317 198.689,-187.724 199.73,-198.267 206.078,-195.317"/>
</g>
<!-- Node21 -->
<g id="node21" class="node"><title>Node21</title>
<polygon fill="white" stroke="#bfbfbf" points="902,-280.5 902,-299.5 1000,-299.5 1000,-280.5 902,-280.5"/>
<text text-anchor="middle" x="951" y="-287.5" font-family="Helvetica,sans-Serif" font-size="10.00">dji_hard_driver.hpp</text>
</g>
<!-- Node9&#45;&gt;Node21 -->
<g id="edge35" class="edge"><title>Node9&#45;&gt;Node21</title>
<path fill="none" stroke="midnightblue" d="M861.191,-336.324C878.351,-327.664 904.946,-314.242 924.747,-304.249"/>
<polygon fill="midnightblue" stroke="midnightblue" points="926.501,-307.285 933.851,-299.655 923.347,-301.035 926.501,-307.285"/>
</g>
<!-- Node22 -->
<g id="node22" class="node"><title>Node22</title>
<g id="a_node22"><a xlink:href="dji__hardware__sync_8hpp.html" target="_top" xlink:title="Hardware Sync API for DJI OSDK. ">
<polygon fill="white" stroke="black" points="558,-224.5 558,-243.5 674,-243.5 674,-224.5 558,-224.5"/>
<text text-anchor="middle" x="616" y="-231.5" font-family="Helvetica,sans-Serif" font-size="10.00">dji_hardware_sync.hpp</text>
</a>
</g>
</g>
<!-- Node9&#45;&gt;Node22 -->
<g id="edge36" class="edge"><title>Node9&#45;&gt;Node22</title>
<path fill="none" stroke="midnightblue" d="M803.301,-338.673C770.372,-332.332 723.62,-320.494 687,-300 664.325,-287.31 643.003,-266.057 629.755,-251.324"/>
<polygon fill="midnightblue" stroke="midnightblue" points="632.152,-248.748 622.938,-243.517 626.879,-253.352 632.152,-248.748"/>
</g>
<!-- Node23 -->
<g id="node23" class="node"><title>Node23</title>
<g id="a_node23"><a xlink:href="dji__mfio_8hpp.html" target="_top" xlink:title="MFIO API for DJI OSDK library. ">
<polygon fill="white" stroke="black" points="1339.5,-224.5 1339.5,-243.5 1408.5,-243.5 1408.5,-224.5 1339.5,-224.5"/>
<text text-anchor="middle" x="1374" y="-231.5" font-family="Helvetica,sans-Serif" font-size="10.00">dji_mfio.hpp</text>
</a>
</g>
</g>
<!-- Node9&#45;&gt;Node23 -->
<g id="edge38" class="edge"><title>Node9&#45;&gt;Node23</title>
<path fill="none" stroke="midnightblue" d="M884.675,-344.086C999.675,-341.138 1321.18,-330.246 1357,-300 1370.21,-288.846 1373.82,-268.819 1374.52,-253.932"/>
<polygon fill="midnightblue" stroke="midnightblue" points="1378.02,-253.809 1374.6,-243.782 1371.02,-253.755 1378.02,-253.809"/>
</g>
<!-- Node24 -->
<g id="node24" class="node"><title>Node24</title>
<g id="a_node24"><a xlink:href="dji__mission__manager_8hpp.html" target="_top" xlink:title="Mission&#45;Manager API for DJI OSDK library. ">
<polygon fill="white" stroke="black" points="382.5,-280.5 382.5,-299.5 509.5,-299.5 509.5,-280.5 382.5,-280.5"/>
<text text-anchor="middle" x="446" y="-287.5" font-family="Helvetica,sans-Serif" font-size="10.00">dji_mission_manager.hpp</text>
</a>
</g>
</g>
<!-- Node9&#45;&gt;Node24 -->
<g id="edge40" class="edge"><title>Node9&#45;&gt;Node24</title>
<path fill="none" stroke="midnightblue" d="M803.277,-339.475C736.359,-330.395 602.242,-312.199 518.713,-300.866"/>
<polygon fill="midnightblue" stroke="midnightblue" points="519.165,-297.395 508.785,-299.519 518.224,-304.331 519.165,-297.395"/>
</g>
<!-- Node28 -->
<g id="node28" class="node"><title>Node28</title>
<g id="a_node28"><a xlink:href="dji__mobile__communication_8hpp.html" target="_top" xlink:title="Implementation of DJI Mobile&#45;Onboard SDK Communication (MOC) ">
<polygon fill="white" stroke="black" points="1426,-224.5 1426,-243.5 1576,-243.5 1576,-224.5 1426,-224.5"/>
<text text-anchor="middle" x="1501" y="-231.5" font-family="Helvetica,sans-Serif" font-size="10.00">dji_mobile_communication.hpp</text>
</a>
</g>
</g>
<!-- Node9&#45;&gt;Node28 -->
<g id="edge49" class="edge"><title>Node9&#45;&gt;Node28</title>
<path fill="none" stroke="midnightblue" d="M884.654,-343.676C992.778,-339.821 1285.48,-327.117 1378,-300 1416.47,-288.725 1456.76,-264.749 1480.33,-249.28"/>
<polygon fill="midnightblue" stroke="midnightblue" points="1482.43,-252.088 1488.8,-243.619 1478.54,-246.269 1482.43,-252.088"/>
</g>
<!-- Node29 -->
<g id="node29" class="node"><title>Node29</title>
<g id="a_node29"><a xlink:href="dji__status_8hpp.html" target="_top" xlink:title="Status information for DJI Vehicle. ">
<polygon fill="white" stroke="black" points="1094.5,-280.5 1094.5,-299.5 1171.5,-299.5 1171.5,-280.5 1094.5,-280.5"/>
<text text-anchor="middle" x="1133" y="-287.5" font-family="Helvetica,sans-Serif" font-size="10.00">dji_status.hpp</text>
</a>
</g>
</g>
<!-- Node9&#45;&gt;Node29 -->
<g id="edge52" class="edge"><title>Node9&#45;&gt;Node29</title>
<path fill="none" stroke="midnightblue" d="M884.794,-337.378C937.232,-327.58 1028.18,-310.586 1084.22,-300.115"/>
<polygon fill="midnightblue" stroke="midnightblue" points="1085.07,-303.516 1094.26,-298.238 1083.79,-296.635 1085.07,-303.516"/>
</g>
<!-- Node30 -->
<g id="node30" class="node"><title>Node30</title>
<g id="a_node30"><a xlink:href="dji__subscription_8hpp.html" target="_top" xlink:title="Telemetry Subscription API for DJI OSDK library. ">
<polygon fill="white" stroke="black" points="1030.5,-224.5 1030.5,-243.5 1133.5,-243.5 1133.5,-224.5 1030.5,-224.5"/>
<text text-anchor="middle" x="1082" y="-231.5" font-family="Helvetica,sans-Serif" font-size="10.00">dji_subscription.hpp</text>
</a>
</g>
</g>
<!-- Node9&#45;&gt;Node30 -->
<g id="edge53" class="edge"><title>Node9&#45;&gt;Node30</title>
<path fill="none" stroke="midnightblue" d="M884.612,-339.285C919.263,-333.188 969.587,-321.372 1009,-300 1032.19,-287.423 1054.14,-266.146 1067.8,-251.376"/>
<polygon fill="midnightblue" stroke="midnightblue" points="1070.76,-253.326 1074.83,-243.547 1065.55,-248.648 1070.76,-253.326"/>
</g>
<!-- Node31 -->
<g id="node31" class="node"><title>Node31</title>
<polygon fill="white" stroke="#bfbfbf" points="1228,-280.5 1228,-299.5 1348,-299.5 1348,-280.5 1228,-280.5"/>
<text text-anchor="middle" x="1288" y="-287.5" font-family="Helvetica,sans-Serif" font-size="10.00">dji_thread_manager.hpp</text>
</g>
<!-- Node9&#45;&gt;Node31 -->
<g id="edge57" class="edge"><title>Node9&#45;&gt;Node31</title>
<path fill="none" stroke="midnightblue" d="M884.579,-340.065C960.279,-330.858 1123.85,-310.964 1217.8,-299.538"/>
<polygon fill="midnightblue" stroke="midnightblue" points="1218.28,-303.005 1227.79,-298.323 1217.44,-296.056 1218.28,-303.005"/>
</g>
<!-- Node32 -->
<g id="node32" class="node"><title>Node32</title>
<g id="a_node32"><a xlink:href="dji__virtual__rc_8hpp.html" target="_top" xlink:title="Virtual Radio Control API for DJI onboardSDK library. ">
<polygon fill="white" stroke="black" points="696,-280.5 696,-299.5 786,-299.5 786,-280.5 696,-280.5"/>
<text text-anchor="middle" x="741" y="-287.5" font-family="Helvetica,sans-Serif" font-size="10.00">dji_virtual_rc.hpp</text>
</a>
</g>
</g>
<!-- Node9&#45;&gt;Node32 -->
<g id="edge61" class="edge"><title>Node9&#45;&gt;Node32</title>
<path fill="none" stroke="midnightblue" d="M827.451,-336.324C811.008,-327.703 785.565,-314.364 766.532,-304.386"/>
<polygon fill="midnightblue" stroke="midnightblue" points="767.989,-301.198 757.508,-299.655 764.739,-307.398 767.989,-301.198"/>
</g>
<!-- Node11&#45;&gt;Node4 -->
<g id="edge16" class="edge"><title>Node11&#45;&gt;Node4</title>
<path fill="none" stroke="midnightblue" d="M335.615,-168.799C386.282,-158.813 471.503,-142.018 523.459,-131.778"/>
<polygon fill="midnightblue" stroke="midnightblue" points="524.252,-135.189 533.387,-129.822 522.899,-128.321 524.252,-135.189"/>
</g>
<!-- Node11&#45;&gt;Node12 -->
<g id="edge12" class="edge"><title>Node11&#45;&gt;Node12</title>
<path fill="none" stroke="midnightblue" d="M294,-168.083C294,-161.006 294,-150.861 294,-141.986"/>
<polygon fill="midnightblue" stroke="midnightblue" points="297.5,-141.751 294,-131.751 290.5,-141.751 297.5,-141.751"/>
</g>
<!-- Node12&#45;&gt;Node6 -->
<g id="edge15" class="edge"><title>Node12&#45;&gt;Node6</title>
<path fill="none" stroke="midnightblue" d="M305.343,-112.179C315.307,-103.859 329.504,-90.5244 338,-76 346.44,-61.5704 351.366,-43.1178 354.078,-29.5626"/>
<polygon fill="midnightblue" stroke="midnightblue" points="357.558,-29.9822 355.863,-19.5238 350.666,-28.7564 357.558,-29.9822"/>
</g>
<!-- Node13 -->
<g id="node13" class="node"><title>Node13</title>
<g id="a_node13"><a xlink:href="dji__error_8hpp.html" target="_top" xlink:title="All DJI OSDK OpenProtocol ACK Error Codes. ">
<polygon fill="white" stroke="black" points="259,-56.5 259,-75.5 329,-75.5 329,-56.5 259,-56.5"/>
<text text-anchor="middle" x="294" y="-63.5" font-family="Helvetica,sans-Serif" font-size="10.00">dji_error.hpp</text>
</a>
</g>
</g>
<!-- Node12&#45;&gt;Node13 -->
<g id="edge13" class="edge"><title>Node12&#45;&gt;Node13</title>
<path fill="none" stroke="midnightblue" d="M294,-112.083C294,-105.006 294,-94.8611 294,-85.9865"/>
<polygon fill="midnightblue" stroke="midnightblue" points="297.5,-85.751 294,-75.7511 290.5,-85.7511 297.5,-85.751"/>
</g>
<!-- Node13&#45;&gt;Node6 -->
<g id="edge14" class="edge"><title>Node13&#45;&gt;Node6</title>
<path fill="none" stroke="midnightblue" d="M304.122,-56.324C313.526,-48.2631 327.744,-36.0765 339.069,-26.3695"/>
<polygon fill="midnightblue" stroke="midnightblue" points="341.379,-28.9993 346.694,-19.8339 336.823,-23.6844 341.379,-28.9993"/>
</g>
<!-- Node15&#45;&gt;Node4 -->
<g id="edge30" class="edge"><title>Node15&#45;&gt;Node4</title>
<path fill="none" stroke="midnightblue" d="M847.145,-280.388C854.498,-258.58 870.149,-200.599 842,-168 812.857,-134.249 682.739,-125.778 612.809,-123.676"/>
<polygon fill="midnightblue" stroke="midnightblue" points="612.628,-120.17 602.537,-123.4 612.439,-127.167 612.628,-120.17"/>
</g>
<!-- Node15&#45;&gt;Node7 -->
<g id="edge31" class="edge"><title>Node15&#45;&gt;Node7</title>
<path fill="none" stroke="midnightblue" d="M884.09,-281.508C887.103,-280.985 890.098,-280.476 893,-280 1003.34,-261.897 1039.73,-289.2 1142,-244 1198.47,-219.043 1250.79,-166.089 1274.96,-139.279"/>
<polygon fill="midnightblue" stroke="midnightblue" points="1277.78,-141.371 1281.78,-131.562 1272.54,-136.734 1277.78,-141.371"/>
</g>
<!-- Node15&#45;&gt;Node8 -->
<g id="edge29" class="edge"><title>Node15&#45;&gt;Node8</title>
<path fill="none" stroke="midnightblue" d="M884.182,-281.666C912.289,-275.13 949.713,-263.5 978,-244 1035.75,-204.191 1068.15,-122.446 1080.34,-85.6619"/>
<polygon fill="midnightblue" stroke="midnightblue" points="1083.79,-86.3761 1083.48,-75.7857 1077.12,-84.2558 1083.79,-86.3761"/>
</g>
<!-- Node16 -->
<g id="node16" class="node"><title>Node16</title>
<g id="a_node16"><a xlink:href="dji__ack_8hpp.html" target="_top" xlink:title="All DJI OSDK ACK parsing. ">
<polygon fill="white" stroke="black" points="730,-224.5 730,-243.5 796,-243.5 796,-224.5 730,-224.5"/>
<text text-anchor="middle" x="763" y="-231.5" font-family="Helvetica,sans-Serif" font-size="10.00">dji_ack.hpp</text>
</a>
</g>
</g>
<!-- Node15&#45;&gt;Node16 -->
<g id="edge20" class="edge"><title>Node15&#45;&gt;Node16</title>
<path fill="none" stroke="midnightblue" d="M830.986,-280.324C818.468,-271.979 799.318,-259.212 784.529,-249.352"/>
<polygon fill="midnightblue" stroke="midnightblue" points="786.244,-246.289 775.982,-243.655 782.361,-252.114 786.244,-246.289"/>
</g>
<!-- Node16&#45;&gt;Node4 -->
<g id="edge24" class="edge"><title>Node16&#45;&gt;Node4</title>
<path fill="none" stroke="midnightblue" d="M741,-224.419C720.367,-216.067 688.899,-202.536 663,-188 635.619,-172.632 606.064,-151.644 587.316,-137.723"/>
<polygon fill="midnightblue" stroke="midnightblue" points="589.374,-134.892 579.274,-131.691 585.174,-140.491 589.374,-134.892"/>
</g>
<!-- Node16&#45;&gt;Node12 -->
<g id="edge21" class="edge"><title>Node16&#45;&gt;Node12</title>
<path fill="none" stroke="midnightblue" d="M731.69,-224.408C684.159,-211.482 590.875,-186.572 511,-168 455.72,-155.147 392.098,-142.165 348.101,-133.47"/>
<polygon fill="midnightblue" stroke="midnightblue" points="348.678,-130.017 338.19,-131.519 347.326,-136.885 348.678,-130.017"/>
</g>
<!-- Node17 -->
<g id="node17" class="node"><title>Node17</title>
<g id="a_node17"><a xlink:href="dji__mission__type_8hpp.html" target="_top" xlink:title="Mission related data struct for DJI OSDK library. ">
<polygon fill="white" stroke="black" points="672,-168.5 672,-187.5 780,-187.5 780,-168.5 672,-168.5"/>
<text text-anchor="middle" x="726" y="-175.5" font-family="Helvetica,sans-Serif" font-size="10.00">dji_mission_type.hpp</text>
</a>
</g>
</g>
<!-- Node16&#45;&gt;Node17 -->
<g id="edge22" class="edge"><title>Node16&#45;&gt;Node17</title>
<path fill="none" stroke="midnightblue" d="M756.89,-224.083C751.718,-216.534 744.154,-205.495 737.806,-196.23"/>
<polygon fill="midnightblue" stroke="midnightblue" points="740.536,-194.022 731.996,-187.751 734.761,-197.979 740.536,-194.022"/>
</g>
<!-- Node16&#45;&gt;Node18 -->
<g id="edge25" class="edge"><title>Node16&#45;&gt;Node18</title>
<path fill="none" stroke="midnightblue" d="M729.95,-228.943C715.544,-227.263 698.452,-225.386 683,-224 444.755,-202.624 384.35,-208.172 146,-188 134.164,-186.998 121.448,-185.78 109.463,-184.568"/>
<polygon fill="midnightblue" stroke="midnightblue" points="109.465,-181.05 99.1597,-183.51 108.75,-188.014 109.465,-181.05"/>
</g>
<!-- Node19 -->
<g id="node19" class="node"><title>Node19</title>
<polygon fill="white" stroke="#bfbfbf" points="798.5,-168.5 798.5,-187.5 833.5,-187.5 833.5,-168.5 798.5,-168.5"/>
<text text-anchor="middle" x="816" y="-175.5" font-family="Helvetica,sans-Serif" font-size="10.00">map</text>
</g>
<!-- Node16&#45;&gt;Node19 -->
<g id="edge28" class="edge"><title>Node16&#45;&gt;Node19</title>
<path fill="none" stroke="midnightblue" d="M771.752,-224.083C779.47,-216.22 790.905,-204.569 800.217,-195.081"/>
<polygon fill="midnightblue" stroke="midnightblue" points="802.904,-197.34 807.411,-187.751 797.908,-192.436 802.904,-197.34"/>
</g>
<!-- Node17&#45;&gt;Node4 -->
<g id="edge23" class="edge"><title>Node17&#45;&gt;Node4</title>
<path fill="none" stroke="midnightblue" d="M700.964,-168.444C674.384,-159.359 632.191,-144.939 602.477,-134.783"/>
<polygon fill="midnightblue" stroke="midnightblue" points="603.513,-131.439 592.918,-131.516 601.249,-138.062 603.513,-131.439"/>
</g>
<!-- Node18&#45;&gt;Node10 -->
<g id="edge27" class="edge"><title>Node18&#45;&gt;Node10</title>
<path fill="none" stroke="midnightblue" d="M52.2205,-168.083C47.3276,-160.534 40.1726,-149.495 34.1674,-140.23"/>
<polygon fill="midnightblue" stroke="midnightblue" points="37.048,-138.239 28.672,-131.751 31.174,-142.046 37.048,-138.239"/>
</g>
<!-- Node18&#45;&gt;Node12 -->
<g id="edge26" class="edge"><title>Node18&#45;&gt;Node12</title>
<path fill="none" stroke="midnightblue" d="M95.3949,-168.444C136.392,-159.063 202.254,-143.993 246.784,-133.804"/>
<polygon fill="midnightblue" stroke="midnightblue" points="247.813,-137.159 256.78,-131.516 246.251,-130.335 247.813,-137.159"/>
</g>
<!-- Node20&#45;&gt;Node4 -->
<g id="edge34" class="edge"><title>Node20&#45;&gt;Node4</title>
<path fill="none" stroke="midnightblue" d="M234.526,-169.434C237.391,-168.933 240.238,-168.45 243,-168 342.855,-151.735 460.592,-136.378 523.333,-128.499"/>
<polygon fill="midnightblue" stroke="midnightblue" points="523.799,-131.968 533.287,-127.253 522.93,-125.022 523.799,-131.968"/>
</g>
<!-- Node20&#45;&gt;Node12 -->
<g id="edge33" class="edge"><title>Node20&#45;&gt;Node12</title>
<path fill="none" stroke="midnightblue" d="M210.906,-168.324C226.638,-159.743 250.942,-146.486 269.209,-136.522"/>
<polygon fill="midnightblue" stroke="midnightblue" points="271.03,-139.516 278.133,-131.655 267.678,-133.37 271.03,-139.516"/>
</g>
<!-- Node22&#45;&gt;Node4 -->
<g id="edge37" class="edge"><title>Node22&#45;&gt;Node4</title>
<path fill="none" stroke="midnightblue" d="M610.853,-224.214C605.725,-215.272 597.8,-200.925 592,-188 585.074,-172.567 578.515,-154.475 574.01,-141.303"/>
<polygon fill="midnightblue" stroke="midnightblue" points="577.242,-139.931 570.746,-131.562 570.604,-142.155 577.242,-139.931"/>
</g>
<!-- Node23&#45;&gt;Node7 -->
<g id="edge39" class="edge"><title>Node23&#45;&gt;Node7</title>
<path fill="none" stroke="midnightblue" d="M1367.33,-224.368C1353.24,-206.135 1320.24,-163.426 1301.89,-139.675"/>
<polygon fill="midnightblue" stroke="midnightblue" points="1304.52,-137.364 1295.64,-131.591 1298.98,-141.644 1304.52,-137.364"/>
</g>
<!-- Node25 -->
<g id="node25" class="node"><title>Node25</title>
<g id="a_node25"><a xlink:href="dji__hotpoint_8hpp.html" target="_top" xlink:title="Implementation of HotPoint (Point of Interest) Missions for DJI OSDK. ">
<polygon fill="white" stroke="black" points="454.5,-224.5 454.5,-243.5 539.5,-243.5 539.5,-224.5 454.5,-224.5"/>
<text text-anchor="middle" x="497" y="-231.5" font-family="Helvetica,sans-Serif" font-size="10.00">dji_hotpoint.hpp</text>
</a>
</g>
</g>
<!-- Node24&#45;&gt;Node25 -->
<g id="edge41" class="edge"><title>Node24&#45;&gt;Node25</title>
<path fill="none" stroke="midnightblue" d="M454.422,-280.083C461.848,-272.22 472.852,-260.569 481.812,-251.081"/>
<polygon fill="midnightblue" stroke="midnightblue" points="484.413,-253.424 488.735,-243.751 479.324,-248.618 484.413,-253.424"/>
</g>
<!-- Node27 -->
<g id="node27" class="node"><title>Node27</title>
<g id="a_node27"><a xlink:href="dji__waypoint_8hpp.html" target="_top" xlink:title="Implementation of GPS Waypoint Missions for DJI OSDK. ">
<polygon fill="white" stroke="black" points="347.5,-224.5 347.5,-243.5 436.5,-243.5 436.5,-224.5 347.5,-224.5"/>
<text text-anchor="middle" x="392" y="-231.5" font-family="Helvetica,sans-Serif" font-size="10.00">dji_waypoint.hpp</text>
</a>
</g>
</g>
<!-- Node24&#45;&gt;Node27 -->
<g id="edge47" class="edge"><title>Node24&#45;&gt;Node27</title>
<path fill="none" stroke="midnightblue" d="M437.083,-280.083C429.22,-272.22 417.569,-260.569 408.081,-251.081"/>
<polygon fill="midnightblue" stroke="midnightblue" points="410.297,-248.347 400.751,-243.751 405.347,-253.297 410.297,-248.347"/>
</g>
<!-- Node25&#45;&gt;Node3 -->
<g id="edge46" class="edge"><title>Node25&#45;&gt;Node3</title>
<path fill="none" stroke="midnightblue" d="M539.536,-225.44C542.736,-224.932 545.917,-224.446 549,-224 666.484,-207.016 804.762,-192.17 880.112,-184.513"/>
<polygon fill="midnightblue" stroke="midnightblue" points="880.721,-187.969 890.318,-183.481 880.016,-181.005 880.721,-187.969"/>
</g>
<!-- Node26 -->
<g id="node26" class="node"><title>Node26</title>
<g id="a_node26"><a xlink:href="dji__mission__base_8hpp.html" target="_top" xlink:title="Mission&#45;Base abstract class for DJI OSDK library. ">
<polygon fill="white" stroke="black" points="392,-168.5 392,-187.5 502,-187.5 502,-168.5 392,-168.5"/>
<text text-anchor="middle" x="447" y="-175.5" font-family="Helvetica,sans-Serif" font-size="10.00">dji_mission_base.hpp</text>
</a>
</g>
</g>
<!-- Node25&#45;&gt;Node26 -->
<g id="edge42" class="edge"><title>Node25&#45;&gt;Node26</title>
<path fill="none" stroke="midnightblue" d="M488.744,-224.083C481.535,-216.298 470.89,-204.801 462.154,-195.367"/>
<polygon fill="midnightblue" stroke="midnightblue" points="464.465,-192.711 455.103,-187.751 459.329,-197.467 464.465,-192.711"/>
</g>
<!-- Node26&#45;&gt;Node4 -->
<g id="edge44" class="edge"><title>Node26&#45;&gt;Node4</title>
<path fill="none" stroke="midnightblue" d="M466.173,-168.444C485.909,-159.636 516.885,-145.812 539.493,-135.722"/>
<polygon fill="midnightblue" stroke="midnightblue" points="541.211,-138.788 548.917,-131.516 538.359,-132.396 541.211,-138.788"/>
</g>
<!-- Node26&#45;&gt;Node7 -->
<g id="edge45" class="edge"><title>Node26&#45;&gt;Node7</title>
<path fill="none" stroke="midnightblue" d="M502.246,-173.457C649.891,-163.988 1053.55,-138.1 1217.93,-127.558"/>
<polygon fill="midnightblue" stroke="midnightblue" points="1218.18,-131.049 1227.94,-126.916 1217.73,-124.063 1218.18,-131.049"/>
</g>
<!-- Node26&#45;&gt;Node12 -->
<g id="edge43" class="edge"><title>Node26&#45;&gt;Node12</title>
<path fill="none" stroke="midnightblue" d="M422.757,-168.444C397.129,-159.399 356.515,-145.064 327.762,-134.916"/>
<polygon fill="midnightblue" stroke="midnightblue" points="328.725,-131.544 318.13,-131.516 326.395,-138.145 328.725,-131.544"/>
</g>
<!-- Node27&#45;&gt;Node26 -->
<g id="edge48" class="edge"><title>Node27&#45;&gt;Node26</title>
<path fill="none" stroke="midnightblue" d="M401.082,-224.083C409.171,-216.141 421.195,-204.335 430.91,-194.797"/>
<polygon fill="midnightblue" stroke="midnightblue" points="433.403,-197.254 438.087,-187.751 428.499,-192.26 433.403,-197.254"/>
</g>
<!-- Node28&#45;&gt;Node7 -->
<g id="edge50" class="edge"><title>Node28&#45;&gt;Node7</title>
<path fill="none" stroke="midnightblue" d="M1484.36,-224.368C1447.44,-205.211 1358.45,-159.036 1314.47,-136.217"/>
<polygon fill="midnightblue" stroke="midnightblue" points="1316.05,-133.09 1305.56,-131.591 1312.82,-139.304 1316.05,-133.09"/>
</g>
<!-- Node30&#45;&gt;Node3 -->
<g id="edge55" class="edge"><title>Node30&#45;&gt;Node3</title>
<path fill="none" stroke="midnightblue" d="M1058.87,-224.444C1034.52,-215.438 995.993,-201.189 968.577,-191.049"/>
<polygon fill="midnightblue" stroke="midnightblue" points="969.619,-187.703 959.026,-187.516 967.191,-194.268 969.619,-187.703"/>
</g>
<!-- Node30&#45;&gt;Node7 -->
<g id="edge56" class="edge"><title>Node30&#45;&gt;Node7</title>
<path fill="none" stroke="midnightblue" d="M1088.71,-224.098C1099.66,-210.185 1122.67,-183.299 1148,-168 1174.54,-151.968 1207.39,-141.051 1234.71,-133.989"/>
<polygon fill="midnightblue" stroke="midnightblue" points="1235.64,-137.365 1244.5,-131.56 1233.95,-130.571 1235.64,-137.365"/>
</g>
<!-- Node30&#45;&gt;Node8 -->
<g id="edge54" class="edge"><title>Node30&#45;&gt;Node8</title>
<path fill="none" stroke="midnightblue" d="M1082.22,-224.075C1082.84,-197.945 1084.69,-121.211 1085.55,-85.577"/>
<polygon fill="midnightblue" stroke="midnightblue" points="1089.05,-85.6496 1085.79,-75.5681 1082.05,-85.4809 1089.05,-85.6496"/>
</g>
<!-- Node32&#45;&gt;Node3 -->
<g id="edge65" class="edge"><title>Node32&#45;&gt;Node3</title>
<path fill="none" stroke="midnightblue" d="M756.301,-280.368C790.119,-261.292 871.433,-215.422 912.059,-192.505"/>
<polygon fill="midnightblue" stroke="midnightblue" points="913.78,-195.553 920.77,-187.591 910.34,-189.456 913.78,-195.553"/>
</g>
<!-- Node32&#45;&gt;Node4 -->
<g id="edge64" class="edge"><title>Node32&#45;&gt;Node4</title>
<path fill="none" stroke="midnightblue" d="M734.51,-280.327C724.416,-267.187 703.932,-241.875 683,-224 660.5,-204.786 649.582,-207.119 627,-188 609.635,-173.298 592.457,-153.637 581.155,-139.801"/>
<polygon fill="midnightblue" stroke="midnightblue" points="583.617,-137.277 574.633,-131.661 578.154,-141.654 583.617,-137.277"/>
</g>
<!-- Node32&#45;&gt;Node8 -->
<g id="edge63" class="edge"><title>Node32&#45;&gt;Node8</title>
<path fill="none" stroke="midnightblue" d="M777.768,-280.471C829.155,-267.213 923.599,-237.86 990,-188 1028.98,-158.731 1061.01,-110.02 1076.3,-84.235"/>
<polygon fill="midnightblue" stroke="midnightblue" points="1079.34,-85.971 1081.32,-75.5633 1073.28,-82.4628 1079.34,-85.971"/>
</g>
<!-- Node32&#45;&gt;Node16 -->
<g id="edge62" class="edge"><title>Node32&#45;&gt;Node16</title>
<path fill="none" stroke="midnightblue" d="M744.633,-280.083C747.612,-272.77 751.926,-262.181 755.625,-253.103"/>
<polygon fill="midnightblue" stroke="midnightblue" points="758.903,-254.333 759.435,-243.751 752.42,-251.691 758.903,-254.333"/>
</g>
</g>
</svg>
