<?xml version="1.0" encoding="UTF-8" standalone="no"?>
<!DOCTYPE svg PUBLIC "-//W3C//DTD SVG 1.1//EN"
 "http://www.w3.org/Graphics/SVG/1.1/DTD/svg11.dtd">
<!-- Generated by graphviz version 2.40.1 (20161225.0304)
 -->
<!-- Title: osdk&#45;lib/x86/osdk&#45;core/inc/dji_ack.hpp Pages: 1 -->
<svg width="373pt" height="319pt"
 viewBox="0.00 0.00 372.50 319.00" xmlns="http://www.w3.org/2000/svg" xmlns:xlink="http://www.w3.org/1999/xlink">
<g id="graph0" class="graph" transform="scale(1 1) rotate(0) translate(4 315)">
<title>osdk&#45;lib/x86/osdk&#45;core/inc/dji_ack.hpp</title>
<polygon fill="#ffffff" stroke="transparent" points="-4,4 -4,-315 368.5,-315 368.5,4 -4,4"/>
<!-- Node0 -->
<g id="node1" class="node">
<title>Node0</title>
<g id="a_node1"><a xlink:title="All DJI OSDK ACK parsing.">
<polygon fill="#bfbfbf" stroke="#000000" points="98,-280.5 98,-310.5 213,-310.5 213,-280.5 98,-280.5"/>
<text text-anchor="start" x="106" y="-298.5" font-family="Helvetica,sans-Serif" font-size="10.00" fill="#000000">osdk&#45;lib/x86/osdk&#45;core</text>
<text text-anchor="middle" x="155.5" y="-287.5" font-family="Helvetica,sans-Serif" font-size="10.00" fill="#000000">/inc/dji_ack.hpp</text>
</a>
</g>
</g>
<!-- Node1 -->
<g id="node2" class="node">
<title>Node1</title>
<g id="a_node2"><a xlink:href="dji__command_8hpp.html" target="_top" xlink:title="All DJI OSDK OpenProtocol Command IDs.">
<polygon fill="#ffffff" stroke="#000000" points="107,-168.5 107,-187.5 200,-187.5 200,-168.5 107,-168.5"/>
<text text-anchor="middle" x="153.5" y="-175.5" font-family="Helvetica,sans-Serif" font-size="10.00" fill="#000000">dji_command.hpp</text>
</a>
</g>
</g>
<!-- Node0&#45;&gt;Node1 -->
<g id="edge1" class="edge">
<title>Node0&#45;&gt;Node1</title>
<path fill="none" stroke="#191970" d="M155.2385,-280.1389C154.8782,-258.9692 154.2288,-220.8174 153.8338,-197.6112"/>
<polygon fill="#191970" stroke="#191970" points="157.3325,-197.4984 153.6627,-187.5595 150.3335,-197.6176 157.3325,-197.4984"/>
</g>
<!-- Node4 -->
<g id="node5" class="node">
<title>Node4</title>
<g id="a_node5"><a xlink:title=" ">
<polygon fill="#ffffff" stroke="#bfbfbf" points="0,-56.5 0,-75.5 35,-75.5 35,-56.5 0,-56.5"/>
<text text-anchor="middle" x="17.5" y="-63.5" font-family="Helvetica,sans-Serif" font-size="10.00" fill="#000000">map</text>
</a>
</g>
</g>
<!-- Node0&#45;&gt;Node4 -->
<g id="edge18" class="edge">
<title>Node0&#45;&gt;Node4</title>
<path fill="none" stroke="#191970" d="M97.852,-283.8161C75.2105,-276.2585 51.1756,-263.9452 36.5,-244 1.4318,-196.3399 8.0165,-121.1146 13.6946,-85.6885"/>
<polygon fill="#191970" stroke="#191970" points="17.1714,-86.1248 15.4523,-75.6704 10.2768,-84.9151 17.1714,-86.1248"/>
</g>
<!-- Node8 -->
<g id="node9" class="node">
<title>Node8</title>
<g id="a_node9"><a xlink:href="dji__mission__type_8hpp.html" target="_top" xlink:title="Mission related data struct for DJI OSDK library.">
<polygon fill="#ffffff" stroke="#000000" points="221.5,-224.5 221.5,-243.5 329.5,-243.5 329.5,-224.5 221.5,-224.5"/>
<text text-anchor="middle" x="275.5" y="-231.5" font-family="Helvetica,sans-Serif" font-size="10.00" fill="#000000">dji_mission_type.hpp</text>
</a>
</g>
</g>
<!-- Node0&#45;&gt;Node8 -->
<g id="edge9" class="edge">
<title>Node0&#45;&gt;Node8</title>
<path fill="none" stroke="#191970" d="M184.8553,-280.4554C204.0873,-270.599 229.0612,-257.7999 247.9241,-248.1327"/>
<polygon fill="#191970" stroke="#191970" points="249.6013,-251.206 256.9043,-243.5303 246.4086,-244.9765 249.6013,-251.206"/>
</g>
<!-- Node10 -->
<g id="node11" class="node">
<title>Node10</title>
<g id="a_node11"><a xlink:href="dji__type_8hpp.html" target="_top" xlink:title="Data type and Data Structure definitions for use throughout DJI OSDK.">
<polygon fill="#ffffff" stroke="#000000" points="233,-168.5 233,-187.5 302,-187.5 302,-168.5 233,-168.5"/>
<text text-anchor="middle" x="267.5" y="-175.5" font-family="Helvetica,sans-Serif" font-size="10.00" fill="#000000">dji_type.hpp</text>
</a>
</g>
</g>
<!-- Node0&#45;&gt;Node10 -->
<g id="edge14" class="edge">
<title>Node0&#45;&gt;Node10</title>
<path fill="none" stroke="#191970" d="M166.2523,-280.2606C177.146,-265.2652 194.8626,-242.0566 212.5,-224 223.0696,-213.1792 235.9972,-202.2667 246.6628,-193.7875"/>
<polygon fill="#191970" stroke="#191970" points="248.9145,-196.47 254.6432,-187.5574 244.6069,-190.9522 248.9145,-196.47"/>
</g>
<!-- Node12 -->
<g id="node13" class="node">
<title>Node12</title>
<g id="a_node13"><a xlink:href="dji__version_8hpp.html" target="_top" xlink:title="Drone/SDK Version definition for DJI onboardSDK library.">
<polygon fill="#ffffff" stroke="#000000" points="45.5,-224.5 45.5,-243.5 127.5,-243.5 127.5,-224.5 45.5,-224.5"/>
<text text-anchor="middle" x="86.5" y="-231.5" font-family="Helvetica,sans-Serif" font-size="10.00" fill="#000000">dji_version.hpp</text>
</a>
</g>
</g>
<!-- Node0&#45;&gt;Node12 -->
<g id="edge15" class="edge">
<title>Node0&#45;&gt;Node12</title>
<path fill="none" stroke="#191970" d="M138.4438,-280.2977C128.3671,-271.3163 115.596,-259.9334 105.2389,-250.702"/>
<polygon fill="#191970" stroke="#191970" points="107.3417,-247.8879 97.5478,-243.8469 102.6841,-253.1135 107.3417,-247.8879"/>
</g>
<!-- Node2 -->
<g id="node3" class="node">
<title>Node2</title>
<g id="a_node3"><a xlink:href="dji__error_8hpp.html" target="_top" xlink:title="All DJI OSDK OpenProtocol ACK Error Codes.">
<polygon fill="#ffffff" stroke="#000000" points="111.5,-112.5 111.5,-131.5 181.5,-131.5 181.5,-112.5 111.5,-112.5"/>
<text text-anchor="middle" x="146.5" y="-119.5" font-family="Helvetica,sans-Serif" font-size="10.00" fill="#000000">dji_error.hpp</text>
</a>
</g>
</g>
<!-- Node1&#45;&gt;Node2 -->
<g id="edge2" class="edge">
<title>Node1&#45;&gt;Node2</title>
<path fill="none" stroke="#191970" d="M152.2807,-168.2455C151.3673,-160.9382 150.0868,-150.6944 148.9631,-141.7046"/>
<polygon fill="#191970" stroke="#191970" points="152.4187,-141.1313 147.7053,-131.6427 145.4728,-141.9996 152.4187,-141.1313"/>
</g>
<!-- Node7 -->
<g id="node8" class="node">
<title>Node7</title>
<g id="a_node8"><a xlink:title=" ">
<polygon fill="#ffffff" stroke="#bfbfbf" points="205,-.5 205,-19.5 254,-19.5 254,-.5 205,-.5"/>
<text text-anchor="middle" x="229.5" y="-7.5" font-family="Helvetica,sans-Serif" font-size="10.00" fill="#000000">stdint.h</text>
</a>
</g>
</g>
<!-- Node1&#45;&gt;Node7 -->
<g id="edge8" class="edge">
<title>Node1&#45;&gt;Node7</title>
<path fill="none" stroke="#191970" d="M163.1448,-168.1535C171.3629,-159.3111 183.0007,-145.6545 190.5,-132 208.9727,-98.3654 220.2626,-54.6386 225.6593,-29.71"/>
<polygon fill="#191970" stroke="#191970" points="229.1352,-30.1839 227.7288,-19.6829 222.2796,-28.769 229.1352,-30.1839"/>
</g>
<!-- Node3 -->
<g id="node4" class="node">
<title>Node3</title>
<g id="a_node4"><a xlink:title=" ">
<polygon fill="#ffffff" stroke="#bfbfbf" points="53.5,-56.5 53.5,-75.5 99.5,-75.5 99.5,-56.5 53.5,-56.5"/>
<text text-anchor="middle" x="76.5" y="-63.5" font-family="Helvetica,sans-Serif" font-size="10.00" fill="#000000">cstdint</text>
</a>
</g>
</g>
<!-- Node2&#45;&gt;Node3 -->
<g id="edge3" class="edge">
<title>Node2&#45;&gt;Node3</title>
<path fill="none" stroke="#191970" d="M134.3069,-112.2455C123.8679,-103.8943 108.6345,-91.7076 96.426,-81.9408"/>
<polygon fill="#191970" stroke="#191970" points="98.5485,-79.1566 88.5533,-75.6427 94.1756,-84.6227 98.5485,-79.1566"/>
</g>
<!-- Node2&#45;&gt;Node4 -->
<g id="edge4" class="edge">
<title>Node2&#45;&gt;Node4</title>
<path fill="none" stroke="#191970" d="M124.3241,-112.3733C102.2627,-102.7962 68.374,-88.0848 44.6998,-77.8077"/>
<polygon fill="#191970" stroke="#191970" points="45.8101,-74.4741 35.2434,-73.7026 43.0226,-80.8952 45.8101,-74.4741"/>
</g>
<!-- Node5 -->
<g id="node6" class="node">
<title>Node5</title>
<g id="a_node6"><a xlink:href="osdk__typedef_8h_source.html" target="_top" xlink:title=" ">
<polygon fill="#ffffff" stroke="#000000" points="118,-56.5 118,-75.5 201,-75.5 201,-56.5 118,-56.5"/>
<text text-anchor="middle" x="159.5" y="-63.5" font-family="Helvetica,sans-Serif" font-size="10.00" fill="#000000">osdk_typedef.h</text>
</a>
</g>
</g>
<!-- Node2&#45;&gt;Node5 -->
<g id="edge5" class="edge">
<title>Node2&#45;&gt;Node5</title>
<path fill="none" stroke="#191970" d="M148.7644,-112.2455C150.4794,-104.8579 152.8912,-94.4689 154.9944,-85.4087"/>
<polygon fill="#191970" stroke="#191970" points="158.4095,-86.1751 157.2615,-75.6427 151.5908,-84.5922 158.4095,-86.1751"/>
</g>
<!-- Node6 -->
<g id="node7" class="node">
<title>Node6</title>
<g id="a_node7"><a xlink:title=" ">
<polygon fill="#ffffff" stroke="#bfbfbf" points="133.5,-.5 133.5,-19.5 185.5,-19.5 185.5,-.5 133.5,-.5"/>
<text text-anchor="middle" x="159.5" y="-7.5" font-family="Helvetica,sans-Serif" font-size="10.00" fill="#000000">stddef.h</text>
</a>
</g>
</g>
<!-- Node5&#45;&gt;Node6 -->
<g id="edge6" class="edge">
<title>Node5&#45;&gt;Node6</title>
<path fill="none" stroke="#191970" d="M159.5,-56.2455C159.5,-48.9382 159.5,-38.6944 159.5,-29.7046"/>
<polygon fill="#191970" stroke="#191970" points="163.0001,-29.6426 159.5,-19.6427 156.0001,-29.6427 163.0001,-29.6426"/>
</g>
<!-- Node5&#45;&gt;Node7 -->
<g id="edge7" class="edge">
<title>Node5&#45;&gt;Node7</title>
<path fill="none" stroke="#191970" d="M171.6931,-56.2455C182.1321,-47.8943 197.3655,-35.7076 209.574,-25.9408"/>
<polygon fill="#191970" stroke="#191970" points="211.8244,-28.6227 217.4467,-19.6427 207.4515,-23.1566 211.8244,-28.6227"/>
</g>
<!-- Node9 -->
<g id="node10" class="node">
<title>Node9</title>
<g id="a_node10"><a xlink:title=" ">
<polygon fill="#ffffff" stroke="#bfbfbf" points="320.5,-168.5 320.5,-187.5 364.5,-187.5 364.5,-168.5 320.5,-168.5"/>
<text text-anchor="middle" x="342.5" y="-175.5" font-family="Helvetica,sans-Serif" font-size="10.00" fill="#000000">vector</text>
</a>
</g>
</g>
<!-- Node8&#45;&gt;Node9 -->
<g id="edge10" class="edge">
<title>Node8&#45;&gt;Node9</title>
<path fill="none" stroke="#191970" d="M287.1705,-224.2455C297.0661,-215.9746 311.4627,-203.9416 323.0901,-194.2232"/>
<polygon fill="#191970" stroke="#191970" points="325.535,-196.7413 330.9632,-187.6427 321.0458,-191.3703 325.535,-196.7413"/>
</g>
<!-- Node8&#45;&gt;Node10 -->
<g id="edge11" class="edge">
<title>Node8&#45;&gt;Node10</title>
<path fill="none" stroke="#191970" d="M274.1065,-224.2455C273.0626,-216.9382 271.5992,-206.6944 270.3149,-197.7046"/>
<polygon fill="#191970" stroke="#191970" points="273.7566,-197.0472 268.8775,-187.6427 266.827,-198.0372 273.7566,-197.0472"/>
</g>
<!-- Node10&#45;&gt;Node7 -->
<g id="edge13" class="edge">
<title>Node10&#45;&gt;Node7</title>
<path fill="none" stroke="#191970" d="M265.9579,-168.4361C262.5516,-147.7706 253.8606,-97.4666 243.5,-56 241.3051,-47.2153 238.4568,-37.6166 235.9029,-29.4708"/>
<polygon fill="#191970" stroke="#191970" points="239.1842,-28.2414 232.7947,-19.79 232.5193,-30.3813 239.1842,-28.2414"/>
</g>
<!-- Node11 -->
<g id="node12" class="node">
<title>Node11</title>
<g id="a_node12"><a xlink:title=" ">
<polygon fill="#ffffff" stroke="#bfbfbf" points="296,-112.5 296,-131.5 339,-131.5 339,-112.5 296,-112.5"/>
<text text-anchor="middle" x="317.5" y="-119.5" font-family="Helvetica,sans-Serif" font-size="10.00" fill="#000000">cstdio</text>
</a>
</g>
</g>
<!-- Node10&#45;&gt;Node11 -->
<g id="edge12" class="edge">
<title>Node10&#45;&gt;Node11</title>
<path fill="none" stroke="#191970" d="M276.2093,-168.2455C283.3073,-160.2958 293.5084,-148.8706 301.995,-139.3656"/>
<polygon fill="#191970" stroke="#191970" points="304.8411,-141.4331 308.8905,-131.6427 299.6195,-136.771 304.8411,-141.4331"/>
</g>
<!-- Node12&#45;&gt;Node1 -->
<g id="edge16" class="edge">
<title>Node12&#45;&gt;Node1</title>
<path fill="none" stroke="#191970" d="M98.1705,-224.2455C108.0661,-215.9746 122.4627,-203.9416 134.0901,-194.2232"/>
<polygon fill="#191970" stroke="#191970" points="136.535,-196.7413 141.9632,-187.6427 132.0458,-191.3703 136.535,-196.7413"/>
</g>
<!-- Node12&#45;&gt;Node3 -->
<g id="edge17" class="edge">
<title>Node12&#45;&gt;Node3</title>
<path fill="none" stroke="#191970" d="M85.9337,-224.4862C84.3529,-197.9293 79.867,-122.5651 77.7003,-86.1655"/>
<polygon fill="#191970" stroke="#191970" points="81.1731,-85.6022 77.085,-75.8279 74.1855,-86.0182 81.1731,-85.6022"/>
</g>
</g>
</svg>
