<?xml version="1.0" encoding="UTF-8" standalone="no"?>
<!DOCTYPE svg PUBLIC "-//W3C//DTD SVG 1.1//EN"
 "http://www.w3.org/Graphics/SVG/1.1/DTD/svg11.dtd">
<!-- Generated by graphviz version 2.38.0 (20140413.2041)
 -->
<!-- Title: osdk&#45;core/api/src/dji_mfio.cpp Pages: 1 -->
<!--zoomable 431 -->
<svg id="main" version="1.1" xmlns="http://www.w3.org/2000/svg" xmlns:xlink="http://www.w3.org/1999/xlink" xml:space="preserve" onload="init(evt)">
<style type="text/css"><![CDATA[
.edge:hover path { stroke: red; }
.edge:hover polygon { stroke: red; fill: red; }
]]></style>
<script type="text/javascript"><![CDATA[
var edges = document.getElementsByTagName('g');
if (edges && edges.length) {
  for (var i=0;i<edges.length;i++) {
    if (edges[i].id.substr(0,4)=='edge') {
      edges[i].setAttribute('class','edge');
    }
  }
}
]]></script>
        <defs>
                <circle id="rim" cx="0" cy="0" r="7"/>
                <circle id="rim2" cx="0" cy="0" r="3.5"/>
                <g id="zoomPlus">
                        <use xlink:href="#rim" fill="#404040">
                                <set attributeName="fill" to="#808080" begin="zoomplus.mouseover" end="zoomplus.mouseout"/>
                        </use>
                        <path d="M-4,0h8M0,-4v8" fill="none" stroke="white" stroke-width="1.5" pointer-events="none"/>
                </g>
                <g id="zoomMin">
                        <use xlink:href="#rim" fill="#404040">
                                <set attributeName="fill" to="#808080" begin="zoomminus.mouseover" end="zoomminus.mouseout"/>
                        </use>
                        <path d="M-4,0h8" fill="none" stroke="white" stroke-width="1.5" pointer-events="none"/>
                </g>
                <g id="dirArrow">
                        <path fill="none" stroke="white" stroke-width="1.5" d="M0,-3.0v7 M-2.5,-0.5L0,-3.0L2.5,-0.5"/>
                </g>
               <g id="resetDef">
                       <use xlink:href="#rim2" fill="#404040">
                               <set attributeName="fill" to="#808080" begin="reset.mouseover" end="reset.mouseout"/>
                       </use>
               </g>
        </defs>

<script type="text/javascript">
var viewWidth = 1910;
var viewHeight = 431;
var sectionId = 'dynsection-0';
</script>
<script xlink:href="svgpan.js"/>
<svg id="graph" class="graph">
<g id="viewport">
<title>osdk&#45;core/api/src/dji_mfio.cpp</title>
<polygon fill="white" stroke="none" points="-4,4 -4,-427 1905.59,-427 1905.59,4 -4,4"/>
<!-- Node1 -->
<g id="node1" class="node"><title>Node1</title>
<polygon fill="#bfbfbf" stroke="black" points="636.5,-392.5 636.5,-422.5 740.5,-422.5 740.5,-392.5 636.5,-392.5"/>
<text text-anchor="start" x="644.5" y="-410.5" font-family="Helvetica,sans-Serif" font-size="10.00">osdk&#45;core/api/src/dji</text>
<text text-anchor="middle" x="688.5" y="-399.5" font-family="Helvetica,sans-Serif" font-size="10.00">_mfio.cpp</text>
</g>
<!-- Node2 -->
<g id="node2" class="node"><title>Node2</title>
<g id="a_node2"><a xlink:href="dji__mfio_8hpp.html" target="_top" xlink:title="MFIO API for DJI OSDK library. ">
<polygon fill="white" stroke="black" points="0,-280.5 0,-299.5 69,-299.5 69,-280.5 0,-280.5"/>
<text text-anchor="middle" x="34.5" y="-287.5" font-family="Helvetica,sans-Serif" font-size="10.00">dji_mfio.hpp</text>
</a>
</g>
</g>
<!-- Node1&#45;&gt;Node2 -->
<g id="edge1" class="edge"><title>Node1&#45;&gt;Node2</title>
<path fill="none" stroke="midnightblue" d="M636.28,-397.442C531.449,-379.227 287.92,-336.765 83.5,-300 82.0369,-299.737 80.5494,-299.468 79.0473,-299.197"/>
<polygon fill="midnightblue" stroke="midnightblue" points="79.4926,-295.72 69.0278,-297.375 78.2403,-302.607 79.4926,-295.72"/>
</g>
<!-- Node5 -->
<g id="node5" class="node"><title>Node5</title>
<g id="a_node5"><a xlink:href="dji__vehicle_8hpp.html" target="_top" xlink:title="Vehicle API for DJI onboardSDK library. ">
<polygon fill="white" stroke="black" points="889,-336.5 889,-355.5 970,-355.5 970,-336.5 889,-336.5"/>
<text text-anchor="middle" x="929.5" y="-343.5" font-family="Helvetica,sans-Serif" font-size="10.00">dji_vehicle.hpp</text>
</a>
</g>
</g>
<!-- Node1&#45;&gt;Node5 -->
<g id="edge4" class="edge"><title>Node1&#45;&gt;Node5</title>
<path fill="none" stroke="midnightblue" d="M740.793,-393.589C783.802,-382.971 844.096,-368.085 884.863,-358.02"/>
<polygon fill="midnightblue" stroke="midnightblue" points="885.915,-361.366 894.784,-355.571 884.237,-354.57 885.915,-361.366"/>
</g>
<!-- Node3 -->
<g id="node3" class="node"><title>Node3</title>
<g id="a_node3"><a xlink:href="dji__vehicle__callback_8hpp.html" target="_top" xlink:title="Type definition for new Vehicle&#45;style callbacks. ">
<polygon fill="white" stroke="black" points="240.5,-112.5 240.5,-131.5 362.5,-131.5 362.5,-112.5 240.5,-112.5"/>
<text text-anchor="middle" x="301.5" y="-119.5" font-family="Helvetica,sans-Serif" font-size="10.00">dji_vehicle_callback.hpp</text>
</a>
</g>
</g>
<!-- Node2&#45;&gt;Node3 -->
<g id="edge2" class="edge"><title>Node2&#45;&gt;Node3</title>
<path fill="none" stroke="midnightblue" d="M34.7294,-280.401C35.8169,-258.109 41.9729,-198.103 76.5,-168 99.1606,-148.243 173.316,-136.14 230.366,-129.534"/>
<polygon fill="midnightblue" stroke="midnightblue" points="230.895,-132.997 240.443,-128.403 230.114,-126.04 230.895,-132.997"/>
</g>
<!-- Node4 -->
<g id="node4" class="node"><title>Node4</title>
<polygon fill="white" stroke="#bfbfbf" points="385,-56.5 385,-75.5 496,-75.5 496,-56.5 385,-56.5"/>
<text text-anchor="middle" x="440.5" y="-63.5" font-family="Helvetica,sans-Serif" font-size="10.00">dji_open_protocol.hpp</text>
</g>
<!-- Node3&#45;&gt;Node4 -->
<g id="edge3" class="edge"><title>Node3&#45;&gt;Node4</title>
<path fill="none" stroke="midnightblue" d="M323.525,-112.444C346.604,-103.478 383.062,-89.314 409.141,-79.1827"/>
<polygon fill="midnightblue" stroke="midnightblue" points="410.524,-82.4002 418.578,-75.5164 407.989,-75.8753 410.524,-82.4002"/>
</g>
<!-- Node5&#45;&gt;Node2 -->
<g id="edge39" class="edge"><title>Node5&#45;&gt;Node2</title>
<path fill="none" stroke="midnightblue" d="M888.838,-344.687C766.573,-343.349 391.708,-336.349 83.5,-300 82.1954,-299.846 80.8732,-299.679 79.54,-299.5"/>
<polygon fill="midnightblue" stroke="midnightblue" points="79.6248,-295.974 69.2151,-297.946 78.5825,-302.896 79.6248,-295.974"/>
</g>
<!-- Node5&#45;&gt;Node3 -->
<g id="edge59" class="edge"><title>Node5&#45;&gt;Node3</title>
<path fill="none" stroke="midnightblue" d="M888.826,-343.291C729.997,-336.184 157.938,-306.383 109.5,-244 66.0281,-188.013 178.474,-150.959 249.166,-133.878"/>
<polygon fill="midnightblue" stroke="midnightblue" points="250.336,-137.198 259.27,-131.502 248.734,-130.384 250.336,-137.198"/>
</g>
<!-- Node5&#45;&gt;Node4 -->
<g id="edge51" class="edge"><title>Node5&#45;&gt;Node4</title>
<path fill="none" stroke="midnightblue" d="M888.85,-343.777C783.034,-340.206 505.167,-328.211 475.5,-300 444.699,-270.711 440.841,-135.435 440.48,-85.5454"/>
<polygon fill="midnightblue" stroke="midnightblue" points="443.98,-85.5206 440.448,-75.5319 436.98,-85.543 443.98,-85.5206"/>
</g>
<!-- Node6 -->
<g id="node6" class="node"><title>Node6</title>
<polygon fill="white" stroke="#bfbfbf" points="741.5,-112.5 741.5,-131.5 787.5,-131.5 787.5,-112.5 741.5,-112.5"/>
<text text-anchor="middle" x="764.5" y="-119.5" font-family="Helvetica,sans-Serif" font-size="10.00">cstdint</text>
</g>
<!-- Node5&#45;&gt;Node6 -->
<g id="edge5" class="edge"><title>Node5&#45;&gt;Node6</title>
<path fill="none" stroke="midnightblue" d="M888.991,-339.166C806.746,-326.391 624.963,-293.111 589.5,-244 547.595,-185.968 669.414,-146.458 731.095,-130.683"/>
<polygon fill="midnightblue" stroke="midnightblue" points="732.292,-133.992 741.153,-128.184 730.604,-127.198 732.292,-133.992"/>
</g>
<!-- Node7 -->
<g id="node7" class="node"><title>Node7</title>
<g id="a_node7"><a xlink:href="dji__broadcast_8hpp.html" target="_top" xlink:title="Broadcast Telemetry API for DJI onboardSDK library. ">
<polygon fill="white" stroke="black" points="599,-224.5 599,-243.5 692,-243.5 692,-224.5 599,-224.5"/>
<text text-anchor="middle" x="645.5" y="-231.5" font-family="Helvetica,sans-Serif" font-size="10.00">dji_broadcast.hpp</text>
</a>
</g>
</g>
<!-- Node5&#45;&gt;Node7 -->
<g id="edge6" class="edge"><title>Node5&#45;&gt;Node7</title>
<path fill="none" stroke="midnightblue" d="M907.215,-336.368C857.029,-316.93 735.023,-269.674 677.07,-247.228"/>
<polygon fill="midnightblue" stroke="midnightblue" points="678.271,-243.94 667.681,-243.591 675.742,-250.467 678.271,-243.94"/>
</g>
<!-- Node9 -->
<g id="node9" class="node"><title>Node9</title>
<g id="a_node9"><a xlink:href="dji__type_8hpp.html" target="_top" xlink:title="Data type and Data Structure definitions for use throughout DJI OSDK. ">
<polygon fill="white" stroke="black" points="1108,-112.5 1108,-131.5 1177,-131.5 1177,-112.5 1108,-112.5"/>
<text text-anchor="middle" x="1142.5" y="-119.5" font-family="Helvetica,sans-Serif" font-size="10.00">dji_type.hpp</text>
</a>
</g>
</g>
<!-- Node5&#45;&gt;Node9 -->
<g id="edge58" class="edge"><title>Node5&#45;&gt;Node9</title>
<path fill="none" stroke="midnightblue" d="M970.163,-344.516C1041.38,-342.755 1184.29,-334.851 1217.5,-300 1258.03,-257.468 1254.42,-218.557 1224.5,-168 1215.53,-152.84 1199.43,-142.448 1183.87,-135.504"/>
<polygon fill="midnightblue" stroke="midnightblue" points="1184.89,-132.143 1174.31,-131.615 1182.25,-138.627 1184.89,-132.143"/>
</g>
<!-- Node12 -->
<g id="node12" class="node"><title>Node12</title>
<g id="a_node12"><a xlink:href="dji__camera_8hpp.html" target="_top" xlink:title="Camera/Gimbal API for DJI onboardSDK library. ">
<polygon fill="white" stroke="black" points="1329,-168.5 1329,-187.5 1412,-187.5 1412,-168.5 1329,-168.5"/>
<text text-anchor="middle" x="1370.5" y="-175.5" font-family="Helvetica,sans-Serif" font-size="10.00">dji_camera.hpp</text>
</a>
</g>
</g>
<!-- Node5&#45;&gt;Node12 -->
<g id="edge12" class="edge"><title>Node5&#45;&gt;Node12</title>
<path fill="none" stroke="midnightblue" d="M970.195,-345.142C1057.71,-344.683 1260.27,-339.278 1314.5,-300 1348.46,-275.406 1362.4,-225.043 1367.64,-197.686"/>
<polygon fill="midnightblue" stroke="midnightblue" points="1371.15,-197.962 1369.4,-187.513 1364.25,-196.774 1371.15,-197.962"/>
</g>
<!-- Node13 -->
<g id="node13" class="node"><title>Node13</title>
<g id="a_node13"><a xlink:href="dji__command_8hpp.html" target="_top" xlink:title="All DJI OSDK OpenProtocol Command IDs. ">
<polygon fill="white" stroke="black" points="1329,-112.5 1329,-131.5 1422,-131.5 1422,-112.5 1329,-112.5"/>
<text text-anchor="middle" x="1375.5" y="-119.5" font-family="Helvetica,sans-Serif" font-size="10.00">dji_command.hpp</text>
</a>
</g>
</g>
<!-- Node5&#45;&gt;Node13 -->
<g id="edge19" class="edge"><title>Node5&#45;&gt;Node13</title>
<path fill="none" stroke="midnightblue" d="M970.133,-344.613C1147.18,-342.73 1843.82,-333.225 1875.5,-300 2008.51,-160.507 1589.75,-130.794 1432.59,-124.595"/>
<polygon fill="midnightblue" stroke="midnightblue" points="1432.3,-121.082 1422.18,-124.204 1432.04,-128.077 1432.3,-121.082"/>
</g>
<!-- Node15 -->
<g id="node15" class="node"><title>Node15</title>
<polygon fill="white" stroke="#bfbfbf" points="1404.5,-280.5 1404.5,-299.5 1516.5,-299.5 1516.5,-280.5 1404.5,-280.5"/>
<text text-anchor="middle" x="1460.5" y="-287.5" font-family="Helvetica,sans-Serif" font-size="10.00">dji_circular_buffer.hpp</text>
</g>
<!-- Node5&#45;&gt;Node15 -->
<g id="edge18" class="edge"><title>Node5&#45;&gt;Node15</title>
<path fill="none" stroke="midnightblue" d="M970.245,-341.444C1050.67,-334.332 1235.48,-317.527 1390.5,-300 1391.77,-299.857 1393.05,-299.71 1394.34,-299.561"/>
<polygon fill="midnightblue" stroke="midnightblue" points="1394.84,-303.026 1404.35,-298.372 1394.01,-296.075 1394.84,-303.026"/>
</g>
<!-- Node16 -->
<g id="node16" class="node"><title>Node16</title>
<g id="a_node16"><a xlink:href="dji__control_8hpp.html" target="_top" xlink:title="Control API for DJI OSDK library. ">
<polygon fill="white" stroke="black" points="484.5,-280.5 484.5,-299.5 564.5,-299.5 564.5,-280.5 484.5,-280.5"/>
<text text-anchor="middle" x="524.5" y="-287.5" font-family="Helvetica,sans-Serif" font-size="10.00">dji_control.hpp</text>
</a>
</g>
</g>
<!-- Node5&#45;&gt;Node16 -->
<g id="edge20" class="edge"><title>Node5&#45;&gt;Node16</title>
<path fill="none" stroke="midnightblue" d="M888.896,-340.298C823.454,-332.606 690.639,-316.527 578.5,-300 577.231,-299.813 575.945,-299.621 574.648,-299.424"/>
<polygon fill="midnightblue" stroke="midnightblue" points="574.998,-295.936 564.578,-297.852 573.919,-302.853 574.998,-295.936"/>
</g>
<!-- Node19 -->
<g id="node19" class="node"><title>Node19</title>
<g id="a_node19"><a xlink:href="dji__version_8hpp.html" target="_top" xlink:title="Drone/SDK Version definition for DJI onboardSDK library. ">
<polygon fill="white" stroke="black" points="896.5,-168.5 896.5,-187.5 978.5,-187.5 978.5,-168.5 896.5,-168.5"/>
<text text-anchor="middle" x="937.5" y="-175.5" font-family="Helvetica,sans-Serif" font-size="10.00">dji_version.hpp</text>
</a>
</g>
</g>
<!-- Node5&#45;&gt;Node19 -->
<g id="edge60" class="edge"><title>Node5&#45;&gt;Node19</title>
<path fill="none" stroke="midnightblue" d="M948.405,-336.278C976.816,-321.871 1028.86,-290.044 1044.5,-244 1047.36,-235.583 1049.42,-231.404 1044.5,-224 1036.56,-212.04 1004.3,-199.451 977.263,-190.64"/>
<polygon fill="midnightblue" stroke="midnightblue" points="978.182,-187.26 967.592,-187.573 976.066,-193.932 978.182,-187.26"/>
</g>
<!-- Node21 -->
<g id="node21" class="node"><title>Node21</title>
<g id="a_node21"><a xlink:href="dji__gimbal_8hpp.html" target="_top" xlink:title="Gimbal API for OSDK library. ">
<polygon fill="white" stroke="black" points="1469,-168.5 1469,-187.5 1548,-187.5 1548,-168.5 1469,-168.5"/>
<text text-anchor="middle" x="1508.5" y="-175.5" font-family="Helvetica,sans-Serif" font-size="10.00">dji_gimbal.hpp</text>
</a>
</g>
</g>
<!-- Node5&#45;&gt;Node21 -->
<g id="edge33" class="edge"><title>Node5&#45;&gt;Node21</title>
<path fill="none" stroke="midnightblue" d="M970.069,-343.134C1059.66,-338.595 1271.75,-325.437 1338.5,-300 1402.28,-275.696 1464.26,-221.629 1492.54,-194.771"/>
<polygon fill="midnightblue" stroke="midnightblue" points="1495.14,-197.13 1499.9,-187.667 1490.28,-192.093 1495.14,-197.13"/>
</g>
<!-- Node22 -->
<g id="node22" class="node"><title>Node22</title>
<polygon fill="white" stroke="#bfbfbf" points="1534.5,-280.5 1534.5,-299.5 1632.5,-299.5 1632.5,-280.5 1534.5,-280.5"/>
<text text-anchor="middle" x="1583.5" y="-287.5" font-family="Helvetica,sans-Serif" font-size="10.00">dji_hard_driver.hpp</text>
</g>
<!-- Node5&#45;&gt;Node22 -->
<g id="edge36" class="edge"><title>Node5&#45;&gt;Node22</title>
<path fill="none" stroke="midnightblue" d="M970.073,-343.039C1065.06,-338.211 1309.47,-324.42 1524.28,-300.051"/>
<polygon fill="midnightblue" stroke="midnightblue" points="1524.95,-303.497 1534.49,-298.882 1524.16,-296.542 1524.95,-303.497"/>
</g>
<!-- Node23 -->
<g id="node23" class="node"><title>Node23</title>
<g id="a_node23"><a xlink:href="dji__hardware__sync_8hpp.html" target="_top" xlink:title="Hardware Sync API for DJI OSDK. ">
<polygon fill="white" stroke="black" points="709.5,-224.5 709.5,-243.5 825.5,-243.5 825.5,-224.5 709.5,-224.5"/>
<text text-anchor="middle" x="767.5" y="-231.5" font-family="Helvetica,sans-Serif" font-size="10.00">dji_hardware_sync.hpp</text>
</a>
</g>
</g>
<!-- Node5&#45;&gt;Node23 -->
<g id="edge37" class="edge"><title>Node5&#45;&gt;Node23</title>
<path fill="none" stroke="midnightblue" d="M914.744,-336.366C899.845,-327.542 876.272,-313.285 856.5,-300 832.156,-283.644 805.057,-263.571 787.23,-250.097"/>
<polygon fill="midnightblue" stroke="midnightblue" points="788.897,-246.968 778.816,-243.706 784.663,-252.542 788.897,-246.968"/>
</g>
<!-- Node24 -->
<g id="node24" class="node"><title>Node24</title>
<g id="a_node24"><a xlink:href="dji__mission__manager_8hpp.html" target="_top" xlink:title="Mission&#45;Manager API for DJI OSDK library. ">
<polygon fill="white" stroke="black" points="866,-280.5 866,-299.5 993,-299.5 993,-280.5 866,-280.5"/>
<text text-anchor="middle" x="929.5" y="-287.5" font-family="Helvetica,sans-Serif" font-size="10.00">dji_mission_manager.hpp</text>
</a>
</g>
</g>
<!-- Node5&#45;&gt;Node24 -->
<g id="edge40" class="edge"><title>Node5&#45;&gt;Node24</title>
<path fill="none" stroke="midnightblue" d="M929.5,-336.083C929.5,-329.006 929.5,-318.861 929.5,-309.986"/>
<polygon fill="midnightblue" stroke="midnightblue" points="933,-309.751 929.5,-299.751 926,-309.751 933,-309.751"/>
</g>
<!-- Node28 -->
<g id="node28" class="node"><title>Node28</title>
<g id="a_node28"><a xlink:href="dji__mobile__communication_8hpp.html" target="_top" xlink:title="Implementation of DJI Mobile&#45;Onboard SDK Communication (MOC) ">
<polygon fill="white" stroke="black" points="118.5,-224.5 118.5,-243.5 268.5,-243.5 268.5,-224.5 118.5,-224.5"/>
<text text-anchor="middle" x="193.5" y="-231.5" font-family="Helvetica,sans-Serif" font-size="10.00">dji_mobile_communication.hpp</text>
</a>
</g>
</g>
<!-- Node5&#45;&gt;Node28 -->
<g id="edge49" class="edge"><title>Node5&#45;&gt;Node28</title>
<path fill="none" stroke="midnightblue" d="M888.736,-344.291C800.671,-342.145 586.395,-333.602 410.5,-300 343.625,-287.225 267.961,-262.002 225.978,-247.01"/>
<polygon fill="midnightblue" stroke="midnightblue" points="227.146,-243.711 216.552,-243.613 224.773,-250.296 227.146,-243.711"/>
</g>
<!-- Node29 -->
<g id="node29" class="node"><title>Node29</title>
<g id="a_node29"><a xlink:href="dji__status_8hpp.html" target="_top" xlink:title="Status information for DJI Vehicle. ">
<polygon fill="white" stroke="black" points="1651,-280.5 1651,-299.5 1728,-299.5 1728,-280.5 1651,-280.5"/>
<text text-anchor="middle" x="1689.5" y="-287.5" font-family="Helvetica,sans-Serif" font-size="10.00">dji_status.hpp</text>
</a>
</g>
</g>
<!-- Node5&#45;&gt;Node29 -->
<g id="edge52" class="edge"><title>Node5&#45;&gt;Node29</title>
<path fill="none" stroke="midnightblue" d="M970.203,-344.168C1077.95,-341.593 1379.61,-331.98 1640.74,-299.926"/>
<polygon fill="midnightblue" stroke="midnightblue" points="1641.3,-303.383 1650.79,-298.678 1640.44,-296.437 1641.3,-303.383"/>
</g>
<!-- Node30 -->
<g id="node30" class="node"><title>Node30</title>
<g id="a_node30"><a xlink:href="dji__subscription_8hpp.html" target="_top" xlink:title="Telemetry Subscription API for DJI OSDK library. ">
<polygon fill="white" stroke="black" points="325,-224.5 325,-243.5 428,-243.5 428,-224.5 325,-224.5"/>
<text text-anchor="middle" x="376.5" y="-231.5" font-family="Helvetica,sans-Serif" font-size="10.00">dji_subscription.hpp</text>
</a>
</g>
</g>
<!-- Node5&#45;&gt;Node30 -->
<g id="edge53" class="edge"><title>Node5&#45;&gt;Node30</title>
<path fill="none" stroke="midnightblue" d="M888.988,-344.725C786.883,-343.484 521.524,-336.717 442.5,-300 419.579,-289.35 399.927,-267.28 388.169,-251.825"/>
<polygon fill="midnightblue" stroke="midnightblue" points="390.911,-249.645 382.192,-243.625 385.254,-253.768 390.911,-249.645"/>
</g>
<!-- Node31 -->
<g id="node31" class="node"><title>Node31</title>
<polygon fill="white" stroke="#bfbfbf" points="1746.5,-280.5 1746.5,-299.5 1866.5,-299.5 1866.5,-280.5 1746.5,-280.5"/>
<text text-anchor="middle" x="1806.5" y="-287.5" font-family="Helvetica,sans-Serif" font-size="10.00">dji_thread_manager.hpp</text>
</g>
<!-- Node5&#45;&gt;Node31 -->
<g id="edge57" class="edge"><title>Node5&#45;&gt;Node31</title>
<path fill="none" stroke="midnightblue" d="M970.357,-343.795C1087.72,-340.104 1436.13,-327.556 1736.12,-300.059"/>
<polygon fill="midnightblue" stroke="midnightblue" points="1736.68,-303.522 1746.32,-299.116 1736.04,-296.551 1736.68,-303.522"/>
</g>
<!-- Node32 -->
<g id="node32" class="node"><title>Node32</title>
<g id="a_node32"><a xlink:href="dji__virtual__rc_8hpp.html" target="_top" xlink:title="Virtual Radio Control API for DJI onboardSDK library. ">
<polygon fill="white" stroke="black" points="1118.5,-280.5 1118.5,-299.5 1208.5,-299.5 1208.5,-280.5 1118.5,-280.5"/>
<text text-anchor="middle" x="1163.5" y="-287.5" font-family="Helvetica,sans-Serif" font-size="10.00">dji_virtual_rc.hpp</text>
</a>
</g>
</g>
<!-- Node5&#45;&gt;Node32 -->
<g id="edge61" class="edge"><title>Node5&#45;&gt;Node32</title>
<path fill="none" stroke="midnightblue" d="M966.578,-336.444C1007.23,-327.063 1072.53,-311.993 1116.68,-301.804"/>
<polygon fill="midnightblue" stroke="midnightblue" points="1117.64,-305.175 1126.6,-299.516 1116.06,-298.355 1117.64,-305.175"/>
</g>
<!-- Node7&#45;&gt;Node3 -->
<g id="edge11" class="edge"><title>Node7&#45;&gt;Node3</title>
<path fill="none" stroke="midnightblue" d="M618.793,-224.46C557.706,-204.926 407.71,-156.963 338.095,-134.702"/>
<polygon fill="midnightblue" stroke="midnightblue" points="339.018,-131.322 328.427,-131.61 336.886,-137.99 339.018,-131.322"/>
</g>
<!-- Node8 -->
<g id="node8" class="node"><title>Node8</title>
<g id="a_node8"><a xlink:href="dji__telemetry_8hpp.html" target="_top" xlink:title="Enumeration of all telemetry data types, structures and maps. ">
<polygon fill="white" stroke="black" points="659,-168.5 659,-187.5 750,-187.5 750,-168.5 659,-168.5"/>
<text text-anchor="middle" x="704.5" y="-175.5" font-family="Helvetica,sans-Serif" font-size="10.00">dji_telemetry.hpp</text>
</a>
</g>
</g>
<!-- Node7&#45;&gt;Node8 -->
<g id="edge7" class="edge"><title>Node7&#45;&gt;Node8</title>
<path fill="none" stroke="midnightblue" d="M654.979,-224.324C663.701,-216.341 676.843,-204.313 687.398,-194.653"/>
<polygon fill="midnightblue" stroke="midnightblue" points="689.834,-197.167 694.848,-187.834 685.108,-192.004 689.834,-197.167"/>
</g>
<!-- Node8&#45;&gt;Node9 -->
<g id="edge8" class="edge"><title>Node8&#45;&gt;Node9</title>
<path fill="none" stroke="midnightblue" d="M750.094,-169.376C753.275,-168.894 756.434,-168.431 759.5,-168 881.618,-150.843 1026.28,-135.08 1097.83,-127.586"/>
<polygon fill="midnightblue" stroke="midnightblue" points="1098.26,-131.06 1107.84,-126.541 1097.53,-124.098 1098.26,-131.06"/>
</g>
<!-- Node10 -->
<g id="node10" class="node"><title>Node10</title>
<polygon fill="white" stroke="#bfbfbf" points="1121,-56.5 1121,-75.5 1164,-75.5 1164,-56.5 1121,-56.5"/>
<text text-anchor="middle" x="1142.5" y="-63.5" font-family="Helvetica,sans-Serif" font-size="10.00">cstdio</text>
</g>
<!-- Node9&#45;&gt;Node10 -->
<g id="edge9" class="edge"><title>Node9&#45;&gt;Node10</title>
<path fill="none" stroke="midnightblue" d="M1142.5,-112.083C1142.5,-105.006 1142.5,-94.8611 1142.5,-85.9865"/>
<polygon fill="midnightblue" stroke="midnightblue" points="1146,-85.751 1142.5,-75.7511 1139,-85.7511 1146,-85.751"/>
</g>
<!-- Node11 -->
<g id="node11" class="node"><title>Node11</title>
<polygon fill="white" stroke="#bfbfbf" points="1288,-0.5 1288,-19.5 1337,-19.5 1337,-0.5 1288,-0.5"/>
<text text-anchor="middle" x="1312.5" y="-7.5" font-family="Helvetica,sans-Serif" font-size="10.00">stdint.h</text>
</g>
<!-- Node9&#45;&gt;Node11 -->
<g id="edge10" class="edge"><title>Node9&#45;&gt;Node11</title>
<path fill="none" stroke="midnightblue" d="M1155.84,-112.368C1185.01,-93.4924 1254.72,-48.385 1290.5,-25.2367"/>
<polygon fill="midnightblue" stroke="midnightblue" points="1292.73,-27.9625 1299.22,-19.5914 1288.93,-22.0855 1292.73,-27.9625"/>
</g>
<!-- Node12&#45;&gt;Node9 -->
<g id="edge17" class="edge"><title>Node12&#45;&gt;Node9</title>
<path fill="none" stroke="midnightblue" d="M1334.37,-168.444C1294.5,-159 1230.28,-143.79 1187.25,-133.599"/>
<polygon fill="midnightblue" stroke="midnightblue" points="1187.87,-130.15 1177.34,-131.251 1186.26,-136.961 1187.87,-130.15"/>
</g>
<!-- Node12&#45;&gt;Node13 -->
<g id="edge13" class="edge"><title>Node12&#45;&gt;Node13</title>
<path fill="none" stroke="midnightblue" d="M1371.33,-168.083C1371.98,-161.006 1372.92,-150.861 1373.74,-141.986"/>
<polygon fill="midnightblue" stroke="midnightblue" points="1377.25,-142.031 1374.69,-131.751 1370.28,-141.386 1377.25,-142.031"/>
</g>
<!-- Node13&#45;&gt;Node11 -->
<g id="edge16" class="edge"><title>Node13&#45;&gt;Node11</title>
<path fill="none" stroke="midnightblue" d="M1364.16,-112.179C1354.19,-103.859 1340,-90.5244 1331.5,-76 1323.06,-61.5704 1318.13,-43.1178 1315.42,-29.5626"/>
<polygon fill="midnightblue" stroke="midnightblue" points="1318.83,-28.7564 1313.64,-19.5238 1311.94,-29.9822 1318.83,-28.7564"/>
</g>
<!-- Node14 -->
<g id="node14" class="node"><title>Node14</title>
<g id="a_node14"><a xlink:href="dji__error_8hpp.html" target="_top" xlink:title="All DJI OSDK OpenProtocol ACK Error Codes. ">
<polygon fill="white" stroke="black" points="1340.5,-56.5 1340.5,-75.5 1410.5,-75.5 1410.5,-56.5 1340.5,-56.5"/>
<text text-anchor="middle" x="1375.5" y="-63.5" font-family="Helvetica,sans-Serif" font-size="10.00">dji_error.hpp</text>
</a>
</g>
</g>
<!-- Node13&#45;&gt;Node14 -->
<g id="edge14" class="edge"><title>Node13&#45;&gt;Node14</title>
<path fill="none" stroke="midnightblue" d="M1375.5,-112.083C1375.5,-105.006 1375.5,-94.8611 1375.5,-85.9865"/>
<polygon fill="midnightblue" stroke="midnightblue" points="1379,-85.751 1375.5,-75.7511 1372,-85.7511 1379,-85.751"/>
</g>
<!-- Node14&#45;&gt;Node11 -->
<g id="edge15" class="edge"><title>Node14&#45;&gt;Node11</title>
<path fill="none" stroke="midnightblue" d="M1365.38,-56.324C1355.97,-48.2631 1341.76,-36.0765 1330.43,-26.3695"/>
<polygon fill="midnightblue" stroke="midnightblue" points="1332.68,-23.6844 1322.81,-19.8339 1328.12,-28.9993 1332.68,-23.6844"/>
</g>
<!-- Node16&#45;&gt;Node3 -->
<g id="edge32" class="edge"><title>Node16&#45;&gt;Node3</title>
<path fill="none" stroke="midnightblue" d="M484.299,-285.826C430.071,-280.662 337.7,-268.462 315.5,-244 290.122,-216.036 293.337,-168.208 297.603,-141.836"/>
<polygon fill="midnightblue" stroke="midnightblue" points="301.106,-142.14 299.477,-131.671 294.222,-140.871 301.106,-142.14"/>
</g>
<!-- Node16&#45;&gt;Node4 -->
<g id="edge30" class="edge"><title>Node16&#45;&gt;Node4</title>
<path fill="none" stroke="midnightblue" d="M521.207,-280.297C508.795,-247.494 464.672,-130.884 447.454,-85.3774"/>
<polygon fill="midnightblue" stroke="midnightblue" points="450.674,-83.998 443.861,-75.8837 444.127,-86.4753 450.674,-83.998"/>
</g>
<!-- Node16&#45;&gt;Node9 -->
<g id="edge31" class="edge"><title>Node16&#45;&gt;Node9</title>
<path fill="none" stroke="midnightblue" d="M529.59,-280.266C543.631,-257.102 585.482,-194.095 639.5,-168 719.817,-129.2 990.225,-123.65 1097.81,-123.006"/>
<polygon fill="midnightblue" stroke="midnightblue" points="1098.02,-126.505 1108,-122.957 1097.98,-119.505 1098.02,-126.505"/>
</g>
<!-- Node17 -->
<g id="node17" class="node"><title>Node17</title>
<g id="a_node17"><a xlink:href="dji__ack_8hpp.html" target="_top" xlink:title="All DJI OSDK ACK parsing. ">
<polygon fill="white" stroke="black" points="1130.5,-224.5 1130.5,-243.5 1196.5,-243.5 1196.5,-224.5 1130.5,-224.5"/>
<text text-anchor="middle" x="1163.5" y="-231.5" font-family="Helvetica,sans-Serif" font-size="10.00">dji_ack.hpp</text>
</a>
</g>
</g>
<!-- Node16&#45;&gt;Node17 -->
<g id="edge21" class="edge"><title>Node16&#45;&gt;Node17</title>
<path fill="none" stroke="midnightblue" d="M564.957,-285.581C679.07,-275.938 1002.8,-248.58 1120.25,-238.655"/>
<polygon fill="midnightblue" stroke="midnightblue" points="1120.64,-242.134 1130.31,-237.804 1120.05,-235.159 1120.64,-242.134"/>
</g>
<!-- Node17&#45;&gt;Node9 -->
<g id="edge25" class="edge"><title>Node17&#45;&gt;Node9</title>
<path fill="none" stroke="midnightblue" d="M1130.51,-224.438C1112.04,-217.769 1090.55,-206.453 1079.5,-188 1067.21,-167.472 1091.82,-148.37 1113.79,-136.26"/>
<polygon fill="midnightblue" stroke="midnightblue" points="1115.66,-139.229 1122.93,-131.513 1112.44,-133.017 1115.66,-139.229"/>
</g>
<!-- Node17&#45;&gt;Node13 -->
<g id="edge22" class="edge"><title>Node17&#45;&gt;Node13</title>
<path fill="none" stroke="midnightblue" d="M1196.93,-232.263C1259.91,-230.094 1392.31,-221.555 1420.5,-188 1434.23,-171.654 1414.66,-151.175 1397.19,-137.62"/>
<polygon fill="midnightblue" stroke="midnightblue" points="1399.07,-134.659 1388.94,-131.57 1394.94,-140.305 1399.07,-134.659"/>
</g>
<!-- Node18 -->
<g id="node18" class="node"><title>Node18</title>
<g id="a_node18"><a xlink:href="dji__mission__type_8hpp.html" target="_top" xlink:title="Mission related data struct for DJI OSDK library. ">
<polygon fill="white" stroke="black" points="1088.5,-168.5 1088.5,-187.5 1196.5,-187.5 1196.5,-168.5 1088.5,-168.5"/>
<text text-anchor="middle" x="1142.5" y="-175.5" font-family="Helvetica,sans-Serif" font-size="10.00">dji_mission_type.hpp</text>
</a>
</g>
</g>
<!-- Node17&#45;&gt;Node18 -->
<g id="edge23" class="edge"><title>Node17&#45;&gt;Node18</title>
<path fill="none" stroke="midnightblue" d="M1160.03,-224.083C1157.19,-216.77 1153.07,-206.181 1149.54,-197.103"/>
<polygon fill="midnightblue" stroke="midnightblue" points="1152.79,-195.803 1145.9,-187.751 1146.27,-198.34 1152.79,-195.803"/>
</g>
<!-- Node17&#45;&gt;Node19 -->
<g id="edge26" class="edge"><title>Node17&#45;&gt;Node19</title>
<path fill="none" stroke="midnightblue" d="M1130.15,-225.032C1091.2,-215.724 1026.54,-200.275 982.994,-189.87"/>
<polygon fill="midnightblue" stroke="midnightblue" points="983.764,-186.456 973.225,-187.536 982.137,-193.264 983.764,-186.456"/>
</g>
<!-- Node20 -->
<g id="node20" class="node"><title>Node20</title>
<polygon fill="white" stroke="#bfbfbf" points="997,-168.5 997,-187.5 1032,-187.5 1032,-168.5 997,-168.5"/>
<text text-anchor="middle" x="1014.5" y="-175.5" font-family="Helvetica,sans-Serif" font-size="10.00">map</text>
</g>
<!-- Node17&#45;&gt;Node20 -->
<g id="edge29" class="edge"><title>Node17&#45;&gt;Node20</title>
<path fill="none" stroke="midnightblue" d="M1139.89,-224.444C1113.29,-214.802 1070.1,-199.151 1042,-188.966"/>
<polygon fill="midnightblue" stroke="midnightblue" points="1042.98,-185.599 1032.39,-185.483 1040.6,-192.181 1042.98,-185.599"/>
</g>
<!-- Node18&#45;&gt;Node9 -->
<g id="edge24" class="edge"><title>Node18&#45;&gt;Node9</title>
<path fill="none" stroke="midnightblue" d="M1142.5,-168.083C1142.5,-161.006 1142.5,-150.861 1142.5,-141.986"/>
<polygon fill="midnightblue" stroke="midnightblue" points="1146,-141.751 1142.5,-131.751 1139,-141.751 1146,-141.751"/>
</g>
<!-- Node19&#45;&gt;Node6 -->
<g id="edge28" class="edge"><title>Node19&#45;&gt;Node6</title>
<path fill="none" stroke="midnightblue" d="M910.088,-168.444C879.436,-158.876 829.822,-143.389 797.178,-133.2"/>
<polygon fill="midnightblue" stroke="midnightblue" points="798.22,-129.859 787.632,-130.22 796.135,-136.541 798.22,-129.859"/>
</g>
<!-- Node19&#45;&gt;Node13 -->
<g id="edge27" class="edge"><title>Node19&#45;&gt;Node13</title>
<path fill="none" stroke="midnightblue" d="M978.667,-169.379C981.653,-168.891 984.621,-168.426 987.5,-168 1104.75,-150.666 1242.75,-136.025 1318.52,-128.48"/>
<polygon fill="midnightblue" stroke="midnightblue" points="1319.18,-131.932 1328.79,-127.463 1318.49,-124.966 1319.18,-131.932"/>
</g>
<!-- Node21&#45;&gt;Node9 -->
<g id="edge35" class="edge"><title>Node21&#45;&gt;Node9</title>
<path fill="none" stroke="midnightblue" d="M1468.98,-171.17C1400.36,-161.045 1259.61,-140.278 1187.4,-129.625"/>
<polygon fill="midnightblue" stroke="midnightblue" points="1187.66,-126.126 1177.26,-128.129 1186.64,-133.051 1187.66,-126.126"/>
</g>
<!-- Node21&#45;&gt;Node13 -->
<g id="edge34" class="edge"><title>Node21&#45;&gt;Node13</title>
<path fill="none" stroke="midnightblue" d="M1487.43,-168.444C1465.44,-159.517 1430.77,-145.439 1405.84,-135.317"/>
<polygon fill="midnightblue" stroke="midnightblue" points="1407.06,-132.035 1396.48,-131.516 1404.42,-138.521 1407.06,-132.035"/>
</g>
<!-- Node23&#45;&gt;Node9 -->
<g id="edge38" class="edge"><title>Node23&#45;&gt;Node9</title>
<path fill="none" stroke="midnightblue" d="M721.122,-224.463C677.994,-214.579 623.955,-195.983 649.5,-168 679.387,-135.261 981.29,-126.064 1097.37,-123.728"/>
<polygon fill="midnightblue" stroke="midnightblue" points="1097.75,-127.221 1107.68,-123.528 1097.61,-120.222 1097.75,-127.221"/>
</g>
<!-- Node25 -->
<g id="node25" class="node"><title>Node25</title>
<g id="a_node25"><a xlink:href="dji__hotpoint_8hpp.html" target="_top" xlink:title="Implementation of HotPoint (Point of Interest) Missions for DJI OSDK. ">
<polygon fill="white" stroke="black" points="844,-224.5 844,-243.5 929,-243.5 929,-224.5 844,-224.5"/>
<text text-anchor="middle" x="886.5" y="-231.5" font-family="Helvetica,sans-Serif" font-size="10.00">dji_hotpoint.hpp</text>
</a>
</g>
</g>
<!-- Node24&#45;&gt;Node25 -->
<g id="edge41" class="edge"><title>Node24&#45;&gt;Node25</title>
<path fill="none" stroke="midnightblue" d="M922.399,-280.083C916.263,-272.377 907.23,-261.033 899.761,-251.653"/>
<polygon fill="midnightblue" stroke="midnightblue" points="902.436,-249.394 893.468,-243.751 896.96,-253.754 902.436,-249.394"/>
</g>
<!-- Node27 -->
<g id="node27" class="node"><title>Node27</title>
<g id="a_node27"><a xlink:href="dji__waypoint_8hpp.html" target="_top" xlink:title="Implementation of GPS Waypoint Missions for DJI OSDK. ">
<polygon fill="white" stroke="black" points="947,-224.5 947,-243.5 1036,-243.5 1036,-224.5 947,-224.5"/>
<text text-anchor="middle" x="991.5" y="-231.5" font-family="Helvetica,sans-Serif" font-size="10.00">dji_waypoint.hpp</text>
</a>
</g>
</g>
<!-- Node24&#45;&gt;Node27 -->
<g id="edge47" class="edge"><title>Node24&#45;&gt;Node27</title>
<path fill="none" stroke="midnightblue" d="M939.461,-280.324C948.627,-272.341 962.437,-260.313 973.528,-250.653"/>
<polygon fill="midnightblue" stroke="midnightblue" points="976.115,-253.041 981.357,-243.834 971.518,-247.762 976.115,-253.041"/>
</g>
<!-- Node25&#45;&gt;Node8 -->
<g id="edge46" class="edge"><title>Node25&#45;&gt;Node8</title>
<path fill="none" stroke="midnightblue" d="M857.662,-224.444C826.644,-215.241 777.171,-200.562 742.882,-190.388"/>
<polygon fill="midnightblue" stroke="midnightblue" points="743.786,-187.006 733.204,-187.516 741.795,-193.716 743.786,-187.006"/>
</g>
<!-- Node26 -->
<g id="node26" class="node"><title>Node26</title>
<g id="a_node26"><a xlink:href="dji__mission__base_8hpp.html" target="_top" xlink:title="Mission&#45;Base abstract class for DJI OSDK library. ">
<polygon fill="white" stroke="black" points="768.5,-168.5 768.5,-187.5 878.5,-187.5 878.5,-168.5 768.5,-168.5"/>
<text text-anchor="middle" x="823.5" y="-175.5" font-family="Helvetica,sans-Serif" font-size="10.00">dji_mission_base.hpp</text>
</a>
</g>
</g>
<!-- Node25&#45;&gt;Node26 -->
<g id="edge42" class="edge"><title>Node25&#45;&gt;Node26</title>
<path fill="none" stroke="midnightblue" d="M876.378,-224.324C866.974,-216.263 852.756,-204.077 841.431,-194.369"/>
<polygon fill="midnightblue" stroke="midnightblue" points="843.677,-191.684 833.806,-187.834 839.121,-196.999 843.677,-191.684"/>
</g>
<!-- Node26&#45;&gt;Node3 -->
<g id="edge45" class="edge"><title>Node26&#45;&gt;Node3</title>
<path fill="none" stroke="midnightblue" d="M768.201,-169.192C764.92,-168.776 761.668,-168.375 758.5,-168 622.234,-151.864 462.622,-137.084 372.653,-129.131"/>
<polygon fill="midnightblue" stroke="midnightblue" points="372.836,-125.633 362.567,-128.242 372.221,-132.606 372.836,-125.633"/>
</g>
<!-- Node26&#45;&gt;Node9 -->
<g id="edge44" class="edge"><title>Node26&#45;&gt;Node9</title>
<path fill="none" stroke="midnightblue" d="M874.046,-168.444C935.699,-158.007 1038.95,-140.528 1097.82,-130.564"/>
<polygon fill="midnightblue" stroke="midnightblue" points="1098.65,-133.974 1107.92,-128.854 1097.48,-127.072 1098.65,-133.974"/>
</g>
<!-- Node26&#45;&gt;Node13 -->
<g id="edge43" class="edge"><title>Node26&#45;&gt;Node13</title>
<path fill="none" stroke="midnightblue" d="M878.636,-169.076C881.633,-168.699 884.602,-168.337 887.5,-168 1043.33,-149.868 1227.86,-134.51 1318.89,-127.337"/>
<polygon fill="midnightblue" stroke="midnightblue" points="1319.3,-130.816 1329,-126.544 1318.75,-123.837 1319.3,-130.816"/>
</g>
<!-- Node27&#45;&gt;Node26 -->
<g id="edge48" class="edge"><title>Node27&#45;&gt;Node26</title>
<path fill="none" stroke="midnightblue" d="M964.88,-224.444C936.494,-215.32 891.363,-200.813 859.747,-190.651"/>
<polygon fill="midnightblue" stroke="midnightblue" points="860.587,-187.244 849.996,-187.516 858.445,-193.909 860.587,-187.244"/>
</g>
<!-- Node28&#45;&gt;Node3 -->
<g id="edge50" class="edge"><title>Node28&#45;&gt;Node3</title>
<path fill="none" stroke="midnightblue" d="M201.975,-224.368C220.113,-205.894 262.922,-162.293 286.043,-138.744"/>
<polygon fill="midnightblue" stroke="midnightblue" points="288.556,-141.179 293.065,-131.591 283.561,-136.275 288.556,-141.179"/>
</g>
<!-- Node30&#45;&gt;Node3 -->
<g id="edge56" class="edge"><title>Node30&#45;&gt;Node3</title>
<path fill="none" stroke="midnightblue" d="M370.615,-224.368C358.238,-206.215 329.319,-163.802 313.084,-139.99"/>
<polygon fill="midnightblue" stroke="midnightblue" points="315.883,-137.882 307.358,-131.591 310.099,-141.825 315.883,-137.882"/>
</g>
<!-- Node30&#45;&gt;Node4 -->
<g id="edge54" class="edge"><title>Node30&#45;&gt;Node4</title>
<path fill="none" stroke="midnightblue" d="M379.941,-224.075C390.059,-197.832 419.856,-120.545 433.515,-85.1165"/>
<polygon fill="midnightblue" stroke="midnightblue" points="436.865,-86.1578 437.197,-75.5681 430.334,-83.6396 436.865,-86.1578"/>
</g>
<!-- Node30&#45;&gt;Node8 -->
<g id="edge55" class="edge"><title>Node30&#45;&gt;Node8</title>
<path fill="none" stroke="midnightblue" d="M428.111,-224.503C488.18,-214.614 587.011,-198.343 648.783,-188.173"/>
<polygon fill="midnightblue" stroke="midnightblue" points="649.444,-191.611 658.742,-186.533 648.307,-184.704 649.444,-191.611"/>
</g>
<!-- Node32&#45;&gt;Node4 -->
<g id="edge63" class="edge"><title>Node32&#45;&gt;Node4</title>
<path fill="none" stroke="midnightblue" d="M1182.71,-280.438C1196.8,-273.015 1214.91,-260.811 1223.5,-244 1251.29,-189.642 1238.74,-141.877 1185.5,-112 1127.12,-79.238 677.525,-70.046 506.366,-67.7196"/>
<polygon fill="midnightblue" stroke="midnightblue" points="506.276,-64.2182 496.23,-67.5854 506.183,-71.2175 506.276,-64.2182"/>
</g>
<!-- Node32&#45;&gt;Node8 -->
<g id="edge65" class="edge"><title>Node32&#45;&gt;Node8</title>
<path fill="none" stroke="midnightblue" d="M1151.35,-280.332C1130.58,-265.985 1086.39,-237.546 1044.5,-224 926.106,-185.71 887.795,-205.254 760.252,-188.017"/>
<polygon fill="midnightblue" stroke="midnightblue" points="760.488,-184.516 750.099,-186.593 759.516,-191.448 760.488,-184.516"/>
</g>
<!-- Node32&#45;&gt;Node9 -->
<g id="edge64" class="edge"><title>Node32&#45;&gt;Node9</title>
<path fill="none" stroke="midnightblue" d="M1175.71,-280.236C1185.85,-272.143 1199.54,-259.112 1205.5,-244 1217.89,-212.575 1220.96,-198.034 1205.5,-168 1198.42,-154.247 1184.98,-143.766 1172.32,-136.394"/>
<polygon fill="midnightblue" stroke="midnightblue" points="1173.81,-133.222 1163.35,-131.573 1170.5,-139.389 1173.81,-133.222"/>
</g>
<!-- Node32&#45;&gt;Node17 -->
<g id="edge62" class="edge"><title>Node32&#45;&gt;Node17</title>
<path fill="none" stroke="midnightblue" d="M1163.5,-280.083C1163.5,-273.006 1163.5,-262.861 1163.5,-253.986"/>
<polygon fill="midnightblue" stroke="midnightblue" points="1167,-253.751 1163.5,-243.751 1160,-253.751 1167,-253.751"/>
</g>
</g>
</svg>
        <g id="navigator" transform="translate(0 0)" fill="#404254">
                <rect fill="#f2f5e9" fill-opacity="0.5" stroke="#606060" stroke-width=".5" x="0" y="0" width="60" height="60"/>
                <use id="zoomplus" xlink:href="#zoomPlus" x="17" y="9" onmousedown="handleZoom(evt,'in')"/>
                <use id="zoomminus" xlink:href="#zoomMin" x="42" y="9" onmousedown="handleZoom(evt,'out')"/>
                <use id="reset" xlink:href="#resetDef" x="30" y="36" onmousedown="handleReset()"/>
                <g id="arrowUp" xlink:href="#dirArrow" transform="translate(30 24)" onmousedown="handlePan(0,-1)">
                  <use xlink:href="#rim" fill="#404040">
                        <set attributeName="fill" to="#808080" begin="arrowUp.mouseover" end="arrowUp.mouseout"/>
                  </use>
                  <path fill="none" stroke="white" stroke-width="1.5" d="M0,-3.0v7 M-2.5,-0.5L0,-3.0L2.5,-0.5"/>
                </g>
                <g id="arrowRight" xlink:href="#dirArrow" transform="rotate(90) translate(36 -43)" onmousedown="handlePan(1,0)">
                  <use xlink:href="#rim" fill="#404040">
                        <set attributeName="fill" to="#808080" begin="arrowRight.mouseover" end="arrowRight.mouseout"/>
                  </use>
                  <path fill="none" stroke="white" stroke-width="1.5" d="M0,-3.0v7 M-2.5,-0.5L0,-3.0L2.5,-0.5"/>
                </g>
                <g id="arrowDown" xlink:href="#dirArrow" transform="rotate(180) translate(-30 -48)" onmousedown="handlePan(0,1)">
                  <use xlink:href="#rim" fill="#404040">
                        <set attributeName="fill" to="#808080" begin="arrowDown.mouseover" end="arrowDown.mouseout"/>
                  </use>
                  <path fill="none" stroke="white" stroke-width="1.5" d="M0,-3.0v7 M-2.5,-0.5L0,-3.0L2.5,-0.5"/>
                </g>
                <g id="arrowLeft" xlink:href="#dirArrow" transform="rotate(270) translate(-36 17)" onmousedown="handlePan(-1,0)">
                  <use xlink:href="#rim" fill="#404040">
                        <set attributeName="fill" to="#808080" begin="arrowLeft.mouseover" end="arrowLeft.mouseout"/>
                  </use>
                  <path fill="none" stroke="white" stroke-width="1.5" d="M0,-3.0v7 M-2.5,-0.5L0,-3.0L2.5,-0.5"/>
                </g>
        </g>
        <svg viewBox="0 0 15 15" width="100%" height="30px" preserveAspectRatio="xMaxYMin meet">
         <g id="arrow_out" transform="scale(0.3 0.3)">
          <a xlink:href="dji__mfio_8cpp__incl_org.svg" target="_base">
           <rect id="button" ry="5" rx="5" y="6" x="6" height="38" width="38"
                fill="#f2f5e9" fill-opacity="0.5" stroke="#606060" stroke-width="1.0"/>
           <path id="arrow"
             d="M 11.500037,31.436501 C 11.940474,20.09759 22.043105,11.32322 32.158766,21.979434 L 37.068811,17.246167 C 37.068811,17.246167 37.088388,32 37.088388,32 L 22.160133,31.978069 C 22.160133,31.978069 26.997745,27.140456 26.997745,27.140456 C 18.528582,18.264221 13.291696,25.230495 11.500037,31.436501 z"
             style="fill:#404040;"/>
          </a>
         </g>
        </svg>
</svg>
