<?xml version="1.0" encoding="UTF-8" standalone="no"?>
<!DOCTYPE svg PUBLIC "-//W3C//DTD SVG 1.1//EN"
 "http://www.w3.org/Graphics/SVG/1.1/DTD/svg11.dtd">
<!-- Generated by graphviz version 2.38.0 (20140413.2041)
 -->
<!-- Title: osdk&#45;core/api/src/dji_subscription.cpp Pages: 1 -->
<!--zoomable 431 -->
<svg id="main" version="1.1" xmlns="http://www.w3.org/2000/svg" xmlns:xlink="http://www.w3.org/1999/xlink" xml:space="preserve" onload="init(evt)">
<style type="text/css"><![CDATA[
.edge:hover path { stroke: red; }
.edge:hover polygon { stroke: red; fill: red; }
]]></style>
<script type="text/javascript"><![CDATA[
var edges = document.getElementsByTagName('g');
if (edges && edges.length) {
  for (var i=0;i<edges.length;i++) {
    if (edges[i].id.substr(0,4)=='edge') {
      edges[i].setAttribute('class','edge');
    }
  }
}
]]></script>
        <defs>
                <circle id="rim" cx="0" cy="0" r="7"/>
                <circle id="rim2" cx="0" cy="0" r="3.5"/>
                <g id="zoomPlus">
                        <use xlink:href="#rim" fill="#404040">
                                <set attributeName="fill" to="#808080" begin="zoomplus.mouseover" end="zoomplus.mouseout"/>
                        </use>
                        <path d="M-4,0h8M0,-4v8" fill="none" stroke="white" stroke-width="1.5" pointer-events="none"/>
                </g>
                <g id="zoomMin">
                        <use xlink:href="#rim" fill="#404040">
                                <set attributeName="fill" to="#808080" begin="zoomminus.mouseover" end="zoomminus.mouseout"/>
                        </use>
                        <path d="M-4,0h8" fill="none" stroke="white" stroke-width="1.5" pointer-events="none"/>
                </g>
                <g id="dirArrow">
                        <path fill="none" stroke="white" stroke-width="1.5" d="M0,-3.0v7 M-2.5,-0.5L0,-3.0L2.5,-0.5"/>
                </g>
               <g id="resetDef">
                       <use xlink:href="#rim2" fill="#404040">
                               <set attributeName="fill" to="#808080" begin="reset.mouseover" end="reset.mouseout"/>
                       </use>
               </g>
        </defs>

<script type="text/javascript">
var viewWidth = 1878;
var viewHeight = 431;
var sectionId = 'dynsection-0';
</script>
<script xlink:href="svgpan.js"/>
<svg id="graph" class="graph">
<g id="viewport">
<title>osdk&#45;core/api/src/dji_subscription.cpp</title>
<polygon fill="white" stroke="none" points="-4,4 -4,-427 1873.69,-427 1873.69,4 -4,4"/>
<!-- Node1 -->
<g id="node1" class="node"><title>Node1</title>
<polygon fill="#bfbfbf" stroke="black" points="552,-392.5 552,-422.5 656,-422.5 656,-392.5 552,-392.5"/>
<text text-anchor="start" x="560" y="-410.5" font-family="Helvetica,sans-Serif" font-size="10.00">osdk&#45;core/api/src/dji</text>
<text text-anchor="middle" x="604" y="-399.5" font-family="Helvetica,sans-Serif" font-size="10.00">_subscription.cpp</text>
</g>
<!-- Node2 -->
<g id="node2" class="node"><title>Node2</title>
<g id="a_node2"><a xlink:href="dji__subscription_8hpp.html" target="_top" xlink:title="Telemetry Subscription API for DJI OSDK library. ">
<polygon fill="white" stroke="black" points="28.5,-224.5 28.5,-243.5 131.5,-243.5 131.5,-224.5 28.5,-224.5"/>
<text text-anchor="middle" x="80" y="-231.5" font-family="Helvetica,sans-Serif" font-size="10.00">dji_subscription.hpp</text>
</a>
</g>
</g>
<!-- Node1&#45;&gt;Node2 -->
<g id="edge1" class="edge"><title>Node1&#45;&gt;Node2</title>
<path fill="none" stroke="midnightblue" d="M551.899,-394.541C477.951,-376.975 338.78,-341.72 224,-300 181.8,-284.661 134.689,-262.361 106.202,-248.274"/>
<polygon fill="midnightblue" stroke="midnightblue" points="107.453,-244.987 96.9417,-243.659 104.331,-251.252 107.453,-244.987"/>
</g>
<!-- Node9 -->
<g id="node9" class="node"><title>Node9</title>
<g id="a_node9"><a xlink:href="dji__vehicle_8hpp.html" target="_top" xlink:title="Vehicle API for DJI onboardSDK library. ">
<polygon fill="white" stroke="black" points="1071.5,-336.5 1071.5,-355.5 1152.5,-355.5 1152.5,-336.5 1071.5,-336.5"/>
<text text-anchor="middle" x="1112" y="-343.5" font-family="Helvetica,sans-Serif" font-size="10.00">dji_vehicle.hpp</text>
</a>
</g>
</g>
<!-- Node1&#45;&gt;Node9 -->
<g id="edge9" class="edge"><title>Node1&#45;&gt;Node9</title>
<path fill="none" stroke="midnightblue" d="M656.452,-400.357C754.532,-388.869 964.514,-364.274 1061.27,-352.942"/>
<polygon fill="midnightblue" stroke="midnightblue" points="1061.86,-356.397 1071.38,-351.757 1061.04,-349.444 1061.86,-356.397"/>
</g>
<!-- Node3 -->
<g id="node3" class="node"><title>Node3</title>
<polygon fill="white" stroke="#bfbfbf" points="359.5,-56.5 359.5,-75.5 470.5,-75.5 470.5,-56.5 359.5,-56.5"/>
<text text-anchor="middle" x="415" y="-63.5" font-family="Helvetica,sans-Serif" font-size="10.00">dji_open_protocol.hpp</text>
</g>
<!-- Node2&#45;&gt;Node3 -->
<g id="edge2" class="edge"><title>Node2&#45;&gt;Node3</title>
<path fill="none" stroke="midnightblue" d="M97.5394,-224.309C152.602,-197.024 322.277,-112.947 388.313,-80.2239"/>
<polygon fill="midnightblue" stroke="midnightblue" points="390.228,-83.1813 397.634,-75.6051 387.12,-76.9091 390.228,-83.1813"/>
</g>
<!-- Node4 -->
<g id="node4" class="node"><title>Node4</title>
<g id="a_node4"><a xlink:href="dji__telemetry_8hpp.html" target="_top" xlink:title="Enumeration of all telemetry data types, structures and maps. ">
<polygon fill="white" stroke="black" points="643.5,-168.5 643.5,-187.5 734.5,-187.5 734.5,-168.5 643.5,-168.5"/>
<text text-anchor="middle" x="689" y="-175.5" font-family="Helvetica,sans-Serif" font-size="10.00">dji_telemetry.hpp</text>
</a>
</g>
</g>
<!-- Node2&#45;&gt;Node4 -->
<g id="edge3" class="edge"><title>Node2&#45;&gt;Node4</title>
<path fill="none" stroke="midnightblue" d="M131.554,-225.155C134.748,-224.743 137.916,-224.354 141,-224 320.528,-203.407 534.194,-188.663 633.345,-182.379"/>
<polygon fill="midnightblue" stroke="midnightblue" points="633.675,-185.865 643.435,-181.743 633.235,-178.879 633.675,-185.865"/>
</g>
<!-- Node8 -->
<g id="node8" class="node"><title>Node8</title>
<g id="a_node8"><a xlink:href="dji__vehicle__callback_8hpp.html" target="_top" xlink:title="Type definition for new Vehicle&#45;style callbacks. ">
<polygon fill="white" stroke="black" points="354,-112.5 354,-131.5 476,-131.5 476,-112.5 354,-112.5"/>
<text text-anchor="middle" x="415" y="-119.5" font-family="Helvetica,sans-Serif" font-size="10.00">dji_vehicle_callback.hpp</text>
</a>
</g>
</g>
<!-- Node2&#45;&gt;Node8 -->
<g id="edge7" class="edge"><title>Node2&#45;&gt;Node8</title>
<path fill="none" stroke="midnightblue" d="M106.008,-224.46C165.375,-204.966 310.97,-157.159 378.945,-134.839"/>
<polygon fill="midnightblue" stroke="midnightblue" points="380.368,-138.055 388.777,-131.61 378.185,-131.405 380.368,-138.055"/>
</g>
<!-- Node5 -->
<g id="node5" class="node"><title>Node5</title>
<g id="a_node5"><a xlink:href="dji__type_8hpp.html" target="_top" xlink:title="Data type and Data Structure definitions for use throughout DJI OSDK. ">
<polygon fill="white" stroke="black" points="1112.5,-112.5 1112.5,-131.5 1181.5,-131.5 1181.5,-112.5 1112.5,-112.5"/>
<text text-anchor="middle" x="1147" y="-119.5" font-family="Helvetica,sans-Serif" font-size="10.00">dji_type.hpp</text>
</a>
</g>
</g>
<!-- Node4&#45;&gt;Node5 -->
<g id="edge4" class="edge"><title>Node4&#45;&gt;Node5</title>
<path fill="none" stroke="midnightblue" d="M734.512,-169.996C739.399,-169.297 744.301,-168.618 749,-168 876.81,-151.194 1028.22,-135.131 1102.03,-127.547"/>
<polygon fill="midnightblue" stroke="midnightblue" points="1102.75,-130.991 1112.34,-126.491 1102.04,-124.028 1102.75,-130.991"/>
</g>
<!-- Node6 -->
<g id="node6" class="node"><title>Node6</title>
<polygon fill="white" stroke="#bfbfbf" points="1125.5,-56.5 1125.5,-75.5 1168.5,-75.5 1168.5,-56.5 1125.5,-56.5"/>
<text text-anchor="middle" x="1147" y="-63.5" font-family="Helvetica,sans-Serif" font-size="10.00">cstdio</text>
</g>
<!-- Node5&#45;&gt;Node6 -->
<g id="edge5" class="edge"><title>Node5&#45;&gt;Node6</title>
<path fill="none" stroke="midnightblue" d="M1147,-112.083C1147,-105.006 1147,-94.8611 1147,-85.9865"/>
<polygon fill="midnightblue" stroke="midnightblue" points="1150.5,-85.751 1147,-75.7511 1143.5,-85.7511 1150.5,-85.751"/>
</g>
<!-- Node7 -->
<g id="node7" class="node"><title>Node7</title>
<polygon fill="white" stroke="#bfbfbf" points="1243.5,-0.5 1243.5,-19.5 1292.5,-19.5 1292.5,-0.5 1243.5,-0.5"/>
<text text-anchor="middle" x="1268" y="-7.5" font-family="Helvetica,sans-Serif" font-size="10.00">stdint.h</text>
</g>
<!-- Node5&#45;&gt;Node7 -->
<g id="edge6" class="edge"><title>Node5&#45;&gt;Node7</title>
<path fill="none" stroke="midnightblue" d="M1156.49,-112.368C1176.9,-93.8137 1225.2,-49.9129 1251.02,-26.4376"/>
<polygon fill="midnightblue" stroke="midnightblue" points="1253.5,-28.908 1258.55,-19.5914 1248.8,-23.7284 1253.5,-28.908"/>
</g>
<!-- Node8&#45;&gt;Node3 -->
<g id="edge8" class="edge"><title>Node8&#45;&gt;Node3</title>
<path fill="none" stroke="midnightblue" d="M415,-112.083C415,-105.006 415,-94.8611 415,-85.9865"/>
<polygon fill="midnightblue" stroke="midnightblue" points="418.5,-85.751 415,-75.7511 411.5,-85.7511 418.5,-85.751"/>
</g>
<!-- Node9&#45;&gt;Node2 -->
<g id="edge56" class="edge"><title>Node9&#45;&gt;Node2</title>
<path fill="none" stroke="midnightblue" d="M1071.3,-343.888C929.78,-339.836 459.72,-324.795 311,-300 239.326,-288.05 158.091,-262.212 113.592,-246.956"/>
<polygon fill="midnightblue" stroke="midnightblue" points="114.479,-243.56 103.884,-243.596 112.189,-250.174 114.479,-243.56"/>
</g>
<!-- Node9&#45;&gt;Node3 -->
<g id="edge54" class="edge"><title>Node9&#45;&gt;Node3</title>
<path fill="none" stroke="midnightblue" d="M1071.44,-345.329C871.446,-346.428 0,-344.912 0,-235 0,-235 0,-235 0,-177 0,-105.642 232.153,-79.4915 349.189,-70.8422"/>
<polygon fill="midnightblue" stroke="midnightblue" points="349.738,-74.3119 359.462,-70.1061 349.237,-67.3298 349.738,-74.3119"/>
</g>
<!-- Node9&#45;&gt;Node5 -->
<g id="edge58" class="edge"><title>Node9&#45;&gt;Node5</title>
<path fill="none" stroke="midnightblue" d="M1137.4,-336.415C1153.84,-329.397 1173.98,-317.703 1184,-300 1212.9,-248.938 1206.51,-222.973 1186,-168 1181.83,-156.812 1173.48,-146.56 1165.58,-138.676"/>
<polygon fill="midnightblue" stroke="midnightblue" points="1167.7,-135.872 1157.99,-131.635 1162.94,-141.003 1167.7,-135.872"/>
</g>
<!-- Node9&#45;&gt;Node8 -->
<g id="edge59" class="edge"><title>Node9&#45;&gt;Node8</title>
<path fill="none" stroke="midnightblue" d="M1071.18,-343.799C960.406,-340.203 656,-327.989 560,-300 508.848,-285.087 490.409,-282.901 454,-244 427.067,-215.224 418.732,-167.717 416.154,-141.613"/>
<polygon fill="midnightblue" stroke="midnightblue" points="419.636,-141.248 415.346,-131.56 412.658,-141.809 419.636,-141.248"/>
</g>
<!-- Node10 -->
<g id="node10" class="node"><title>Node10</title>
<polygon fill="white" stroke="#bfbfbf" points="1771,-112.5 1771,-131.5 1817,-131.5 1817,-112.5 1771,-112.5"/>
<text text-anchor="middle" x="1794" y="-119.5" font-family="Helvetica,sans-Serif" font-size="10.00">cstdint</text>
</g>
<!-- Node9&#45;&gt;Node10 -->
<g id="edge10" class="edge"><title>Node9&#45;&gt;Node10</title>
<path fill="none" stroke="midnightblue" d="M1152.5,-344.064C1303.99,-340.369 1829.79,-325.726 1854,-300 1897.87,-253.387 1838.49,-173.502 1808.95,-139.307"/>
<polygon fill="midnightblue" stroke="midnightblue" points="1811.41,-136.81 1802.16,-131.646 1806.17,-141.452 1811.41,-136.81"/>
</g>
<!-- Node11 -->
<g id="node11" class="node"><title>Node11</title>
<g id="a_node11"><a xlink:href="dji__broadcast_8hpp.html" target="_top" xlink:title="Broadcast Telemetry API for DJI onboardSDK library. ">
<polygon fill="white" stroke="black" points="481.5,-224.5 481.5,-243.5 574.5,-243.5 574.5,-224.5 481.5,-224.5"/>
<text text-anchor="middle" x="528" y="-231.5" font-family="Helvetica,sans-Serif" font-size="10.00">dji_broadcast.hpp</text>
</a>
</g>
</g>
<!-- Node9&#45;&gt;Node11 -->
<g id="edge11" class="edge"><title>Node9&#45;&gt;Node11</title>
<path fill="none" stroke="midnightblue" d="M1071.47,-345.073C964.475,-344.706 676.864,-339.925 592,-300 569.479,-289.405 550.49,-267.322 539.183,-251.849"/>
<polygon fill="midnightblue" stroke="midnightblue" points="542.043,-249.831 533.445,-243.639 536.305,-253.841 542.043,-249.831"/>
</g>
<!-- Node12 -->
<g id="node12" class="node"><title>Node12</title>
<g id="a_node12"><a xlink:href="dji__camera_8hpp.html" target="_top" xlink:title="Camera/Gimbal API for DJI onboardSDK library. ">
<polygon fill="white" stroke="black" points="1289.5,-168.5 1289.5,-187.5 1372.5,-187.5 1372.5,-168.5 1289.5,-168.5"/>
<text text-anchor="middle" x="1331" y="-175.5" font-family="Helvetica,sans-Serif" font-size="10.00">dji_camera.hpp</text>
</a>
</g>
</g>
<!-- Node9&#45;&gt;Node12 -->
<g id="edge14" class="edge"><title>Node9&#45;&gt;Node12</title>
<path fill="none" stroke="midnightblue" d="M1152.53,-337.552C1178.79,-331.112 1212.54,-319.639 1237,-300 1268.15,-274.988 1259.88,-255.068 1285,-224 1293.5,-213.49 1304.23,-202.865 1313.2,-194.58"/>
<polygon fill="midnightblue" stroke="midnightblue" points="1315.74,-197 1320.82,-187.7 1311.05,-191.805 1315.74,-197"/>
</g>
<!-- Node13 -->
<g id="node13" class="node"><title>Node13</title>
<g id="a_node13"><a xlink:href="dji__command_8hpp.html" target="_top" xlink:title="All DJI OSDK OpenProtocol Command IDs. ">
<polygon fill="white" stroke="black" points="1284.5,-112.5 1284.5,-131.5 1377.5,-131.5 1377.5,-112.5 1284.5,-112.5"/>
<text text-anchor="middle" x="1331" y="-119.5" font-family="Helvetica,sans-Serif" font-size="10.00">dji_command.hpp</text>
</a>
</g>
</g>
<!-- Node9&#45;&gt;Node13 -->
<g id="edge21" class="edge"><title>Node9&#45;&gt;Node13</title>
<path fill="none" stroke="midnightblue" d="M1152.65,-338.511C1190.08,-331.701 1246.66,-319.268 1293,-300 1381.75,-263.1 1430.81,-271.734 1478,-188 1499.79,-149.337 1437.77,-133.626 1387.66,-127.271"/>
<polygon fill="midnightblue" stroke="midnightblue" points="1387.85,-123.769 1377.51,-126.086 1387.03,-130.722 1387.85,-123.769"/>
</g>
<!-- Node15 -->
<g id="node15" class="node"><title>Node15</title>
<polygon fill="white" stroke="#bfbfbf" points="1365,-280.5 1365,-299.5 1477,-299.5 1477,-280.5 1365,-280.5"/>
<text text-anchor="middle" x="1421" y="-287.5" font-family="Helvetica,sans-Serif" font-size="10.00">dji_circular_buffer.hpp</text>
</g>
<!-- Node9&#45;&gt;Node15 -->
<g id="edge20" class="edge"><title>Node9&#45;&gt;Node15</title>
<path fill="none" stroke="midnightblue" d="M1152.71,-337.885C1206.35,-328.512 1301.04,-311.964 1362.38,-301.244"/>
<polygon fill="midnightblue" stroke="midnightblue" points="1363.05,-304.68 1372.3,-299.511 1361.85,-297.784 1363.05,-304.68"/>
</g>
<!-- Node16 -->
<g id="node16" class="node"><title>Node16</title>
<g id="a_node16"><a xlink:href="dji__control_8hpp.html" target="_top" xlink:title="Control API for DJI OSDK library. ">
<polygon fill="white" stroke="black" points="601,-280.5 601,-299.5 681,-299.5 681,-280.5 601,-280.5"/>
<text text-anchor="middle" x="641" y="-287.5" font-family="Helvetica,sans-Serif" font-size="10.00">dji_control.hpp</text>
</a>
</g>
</g>
<!-- Node9&#45;&gt;Node16 -->
<g id="edge22" class="edge"><title>Node9&#45;&gt;Node16</title>
<path fill="none" stroke="midnightblue" d="M1071.44,-340.349C985.512,-330.498 785.366,-307.552 691.407,-296.779"/>
<polygon fill="midnightblue" stroke="midnightblue" points="691.634,-293.282 681.3,-295.62 690.836,-300.237 691.634,-293.282"/>
</g>
<!-- Node19 -->
<g id="node19" class="node"><title>Node19</title>
<g id="a_node19"><a xlink:href="dji__version_8hpp.html" target="_top" xlink:title="Drone/SDK Version definition for DJI onboardSDK library. ">
<polygon fill="white" stroke="black" points="1654,-168.5 1654,-187.5 1736,-187.5 1736,-168.5 1654,-168.5"/>
<text text-anchor="middle" x="1695" y="-175.5" font-family="Helvetica,sans-Serif" font-size="10.00">dji_version.hpp</text>
</a>
</g>
</g>
<!-- Node9&#45;&gt;Node19 -->
<g id="edge60" class="edge"><title>Node9&#45;&gt;Node19</title>
<path fill="none" stroke="midnightblue" d="M1152.54,-344C1301.67,-340.125 1812.44,-325.065 1836,-300 1877.28,-256.074 1783.16,-211.803 1729.32,-191.096"/>
<polygon fill="midnightblue" stroke="midnightblue" points="1730.37,-187.751 1719.78,-187.509 1727.91,-194.304 1730.37,-187.751"/>
</g>
<!-- Node21 -->
<g id="node21" class="node"><title>Node21</title>
<g id="a_node21"><a xlink:href="dji__gimbal_8hpp.html" target="_top" xlink:title="Gimbal API for OSDK library. ">
<polygon fill="white" stroke="black" points="1390.5,-168.5 1390.5,-187.5 1469.5,-187.5 1469.5,-168.5 1390.5,-168.5"/>
<text text-anchor="middle" x="1430" y="-175.5" font-family="Helvetica,sans-Serif" font-size="10.00">dji_gimbal.hpp</text>
</a>
</g>
</g>
<!-- Node9&#45;&gt;Node21 -->
<g id="edge35" class="edge"><title>Node9&#45;&gt;Node21</title>
<path fill="none" stroke="midnightblue" d="M1152.56,-336.563C1183.31,-329.272 1226.09,-317.182 1261,-300 1321.41,-270.27 1383.53,-219.601 1412.79,-194.308"/>
<polygon fill="midnightblue" stroke="midnightblue" points="1415.23,-196.821 1420.45,-187.604 1410.62,-191.551 1415.23,-196.821"/>
</g>
<!-- Node22 -->
<g id="node22" class="node"><title>Node22</title>
<polygon fill="white" stroke="#bfbfbf" points="1495,-280.5 1495,-299.5 1593,-299.5 1593,-280.5 1495,-280.5"/>
<text text-anchor="middle" x="1544" y="-287.5" font-family="Helvetica,sans-Serif" font-size="10.00">dji_hard_driver.hpp</text>
</g>
<!-- Node9&#45;&gt;Node22 -->
<g id="edge38" class="edge"><title>Node9&#45;&gt;Node22</title>
<path fill="none" stroke="midnightblue" d="M1152.74,-340.56C1219.77,-333.154 1357.77,-317.483 1485.05,-300.091"/>
<polygon fill="midnightblue" stroke="midnightblue" points="1485.54,-303.557 1494.97,-298.729 1484.59,-296.622 1485.54,-303.557"/>
</g>
<!-- Node23 -->
<g id="node23" class="node"><title>Node23</title>
<g id="a_node23"><a xlink:href="dji__hardware__sync_8hpp.html" target="_top" xlink:title="Hardware Sync API for DJI OSDK. ">
<polygon fill="white" stroke="black" points="707,-224.5 707,-243.5 823,-243.5 823,-224.5 707,-224.5"/>
<text text-anchor="middle" x="765" y="-231.5" font-family="Helvetica,sans-Serif" font-size="10.00">dji_hardware_sync.hpp</text>
</a>
</g>
</g>
<!-- Node9&#45;&gt;Node23 -->
<g id="edge39" class="edge"><title>Node9&#45;&gt;Node23</title>
<path fill="none" stroke="midnightblue" d="M1071.32,-336.471C1034.36,-328.348 978.512,-315.138 931,-300 881.96,-284.375 826.584,-261.622 793.798,-247.594"/>
<polygon fill="midnightblue" stroke="midnightblue" points="794.949,-244.279 784.38,-243.539 792.181,-250.708 794.949,-244.279"/>
</g>
<!-- Node24 -->
<g id="node24" class="node"><title>Node24</title>
<g id="a_node24"><a xlink:href="dji__mfio_8hpp.html" target="_top" xlink:title="MFIO API for DJI OSDK library. ">
<polygon fill="white" stroke="black" points="317.5,-224.5 317.5,-243.5 386.5,-243.5 386.5,-224.5 317.5,-224.5"/>
<text text-anchor="middle" x="352" y="-231.5" font-family="Helvetica,sans-Serif" font-size="10.00">dji_mfio.hpp</text>
</a>
</g>
</g>
<!-- Node9&#45;&gt;Node24 -->
<g id="edge41" class="edge"><title>Node9&#45;&gt;Node24</title>
<path fill="none" stroke="midnightblue" d="M1071.15,-344.392C928.786,-342.004 460.008,-331.78 401,-300 381.812,-289.666 367.96,-268.194 359.978,-252.753"/>
<polygon fill="midnightblue" stroke="midnightblue" points="363.085,-251.138 355.584,-243.656 356.782,-254.182 363.085,-251.138"/>
</g>
<!-- Node25 -->
<g id="node25" class="node"><title>Node25</title>
<g id="a_node25"><a xlink:href="dji__mission__manager_8hpp.html" target="_top" xlink:title="Mission&#45;Manager API for DJI OSDK library. ">
<polygon fill="white" stroke="black" points="1048.5,-280.5 1048.5,-299.5 1175.5,-299.5 1175.5,-280.5 1048.5,-280.5"/>
<text text-anchor="middle" x="1112" y="-287.5" font-family="Helvetica,sans-Serif" font-size="10.00">dji_mission_manager.hpp</text>
</a>
</g>
</g>
<!-- Node9&#45;&gt;Node25 -->
<g id="edge43" class="edge"><title>Node9&#45;&gt;Node25</title>
<path fill="none" stroke="midnightblue" d="M1112,-336.083C1112,-329.006 1112,-318.861 1112,-309.986"/>
<polygon fill="midnightblue" stroke="midnightblue" points="1115.5,-309.751 1112,-299.751 1108.5,-309.751 1115.5,-309.751"/>
</g>
<!-- Node29 -->
<g id="node29" class="node"><title>Node29</title>
<g id="a_node29"><a xlink:href="dji__mobile__communication_8hpp.html" target="_top" xlink:title="Implementation of DJI Mobile&#45;Onboard SDK Communication (MOC) ">
<polygon fill="white" stroke="black" points="150,-224.5 150,-243.5 300,-243.5 300,-224.5 150,-224.5"/>
<text text-anchor="middle" x="225" y="-231.5" font-family="Helvetica,sans-Serif" font-size="10.00">dji_mobile_communication.hpp</text>
</a>
</g>
</g>
<!-- Node9&#45;&gt;Node29 -->
<g id="edge52" class="edge"><title>Node9&#45;&gt;Node29</title>
<path fill="none" stroke="midnightblue" d="M1071.13,-344.383C936.514,-342.057 508.005,-332.244 374,-300 327.653,-288.848 277.602,-264.116 248.91,-248.579"/>
<polygon fill="midnightblue" stroke="midnightblue" points="250.483,-245.45 240.035,-243.695 247.108,-251.582 250.483,-245.45"/>
</g>
<!-- Node30 -->
<g id="node30" class="node"><title>Node30</title>
<g id="a_node30"><a xlink:href="dji__status_8hpp.html" target="_top" xlink:title="Status information for DJI Vehicle. ">
<polygon fill="white" stroke="black" points="1611.5,-280.5 1611.5,-299.5 1688.5,-299.5 1688.5,-280.5 1611.5,-280.5"/>
<text text-anchor="middle" x="1650" y="-287.5" font-family="Helvetica,sans-Serif" font-size="10.00">dji_status.hpp</text>
</a>
</g>
</g>
<!-- Node9&#45;&gt;Node30 -->
<g id="edge55" class="edge"><title>Node9&#45;&gt;Node30</title>
<path fill="none" stroke="midnightblue" d="M1152.8,-342.551C1235.43,-337.313 1428.62,-323.644 1601.25,-299.973"/>
<polygon fill="midnightblue" stroke="midnightblue" points="1601.85,-303.422 1611.28,-298.583 1600.89,-296.489 1601.85,-303.422"/>
</g>
<!-- Node31 -->
<g id="node31" class="node"><title>Node31</title>
<polygon fill="white" stroke="#bfbfbf" points="1707,-280.5 1707,-299.5 1827,-299.5 1827,-280.5 1707,-280.5"/>
<text text-anchor="middle" x="1767" y="-287.5" font-family="Helvetica,sans-Serif" font-size="10.00">dji_thread_manager.hpp</text>
</g>
<!-- Node9&#45;&gt;Node31 -->
<g id="edge57" class="edge"><title>Node9&#45;&gt;Node31</title>
<path fill="none" stroke="midnightblue" d="M1152.56,-342.629C1246.38,-336.985 1485.85,-321.664 1696.79,-300.075"/>
<polygon fill="midnightblue" stroke="midnightblue" points="1697.22,-303.549 1706.81,-299.042 1696.51,-296.585 1697.22,-303.549"/>
</g>
<!-- Node32 -->
<g id="node32" class="node"><title>Node32</title>
<g id="a_node32"><a xlink:href="dji__virtual__rc_8hpp.html" target="_top" xlink:title="Virtual Radio Control API for DJI onboardSDK library. ">
<polygon fill="white" stroke="black" points="940,-280.5 940,-299.5 1030,-299.5 1030,-280.5 940,-280.5"/>
<text text-anchor="middle" x="985" y="-287.5" font-family="Helvetica,sans-Serif" font-size="10.00">dji_virtual_rc.hpp</text>
</a>
</g>
</g>
<!-- Node9&#45;&gt;Node32 -->
<g id="edge61" class="edge"><title>Node9&#45;&gt;Node32</title>
<path fill="none" stroke="midnightblue" d="M1091.88,-336.444C1070.98,-327.557 1038.07,-313.563 1014.28,-303.451"/>
<polygon fill="midnightblue" stroke="midnightblue" points="1015.6,-300.208 1005.03,-299.516 1012.86,-306.65 1015.6,-300.208"/>
</g>
<!-- Node11&#45;&gt;Node4 -->
<g id="edge12" class="edge"><title>Node11&#45;&gt;Node4</title>
<path fill="none" stroke="midnightblue" d="M553.511,-224.444C580.596,-215.359 623.59,-200.939 653.869,-190.783"/>
<polygon fill="midnightblue" stroke="midnightblue" points="655.24,-194.015 663.608,-187.516 653.014,-187.378 655.24,-194.015"/>
</g>
<!-- Node11&#45;&gt;Node8 -->
<g id="edge13" class="edge"><title>Node11&#45;&gt;Node8</title>
<path fill="none" stroke="midnightblue" d="M520.375,-224.317C509.086,-211.592 487.09,-187.296 467,-168 456.237,-157.662 443.587,-146.691 433.459,-138.17"/>
<polygon fill="midnightblue" stroke="midnightblue" points="435.564,-135.368 425.641,-131.656 431.083,-140.746 435.564,-135.368"/>
</g>
<!-- Node12&#45;&gt;Node5 -->
<g id="edge19" class="edge"><title>Node12&#45;&gt;Node5</title>
<path fill="none" stroke="midnightblue" d="M1301.84,-168.444C1270.49,-159.241 1220.47,-144.562 1185.8,-134.388"/>
<polygon fill="midnightblue" stroke="midnightblue" points="1186.6,-130.974 1176.02,-131.516 1184.63,-137.691 1186.6,-130.974"/>
</g>
<!-- Node12&#45;&gt;Node13 -->
<g id="edge15" class="edge"><title>Node12&#45;&gt;Node13</title>
<path fill="none" stroke="midnightblue" d="M1331,-168.083C1331,-161.006 1331,-150.861 1331,-141.986"/>
<polygon fill="midnightblue" stroke="midnightblue" points="1334.5,-141.751 1331,-131.751 1327.5,-141.751 1334.5,-141.751"/>
</g>
<!-- Node13&#45;&gt;Node7 -->
<g id="edge18" class="edge"><title>Node13&#45;&gt;Node7</title>
<path fill="none" stroke="midnightblue" d="M1319.66,-112.179C1309.69,-103.859 1295.5,-90.5244 1287,-76 1278.56,-61.5704 1273.63,-43.1178 1270.92,-29.5626"/>
<polygon fill="midnightblue" stroke="midnightblue" points="1274.33,-28.7564 1269.14,-19.5238 1267.44,-29.9822 1274.33,-28.7564"/>
</g>
<!-- Node14 -->
<g id="node14" class="node"><title>Node14</title>
<g id="a_node14"><a xlink:href="dji__error_8hpp.html" target="_top" xlink:title="All DJI OSDK OpenProtocol ACK Error Codes. ">
<polygon fill="white" stroke="black" points="1296,-56.5 1296,-75.5 1366,-75.5 1366,-56.5 1296,-56.5"/>
<text text-anchor="middle" x="1331" y="-63.5" font-family="Helvetica,sans-Serif" font-size="10.00">dji_error.hpp</text>
</a>
</g>
</g>
<!-- Node13&#45;&gt;Node14 -->
<g id="edge16" class="edge"><title>Node13&#45;&gt;Node14</title>
<path fill="none" stroke="midnightblue" d="M1331,-112.083C1331,-105.006 1331,-94.8611 1331,-85.9865"/>
<polygon fill="midnightblue" stroke="midnightblue" points="1334.5,-85.751 1331,-75.7511 1327.5,-85.7511 1334.5,-85.751"/>
</g>
<!-- Node14&#45;&gt;Node7 -->
<g id="edge17" class="edge"><title>Node14&#45;&gt;Node7</title>
<path fill="none" stroke="midnightblue" d="M1320.88,-56.324C1311.47,-48.2631 1297.26,-36.0765 1285.93,-26.3695"/>
<polygon fill="midnightblue" stroke="midnightblue" points="1288.18,-23.6844 1278.31,-19.8339 1283.62,-28.9993 1288.18,-23.6844"/>
</g>
<!-- Node16&#45;&gt;Node3 -->
<g id="edge32" class="edge"><title>Node16&#45;&gt;Node3</title>
<path fill="none" stroke="midnightblue" d="M634.596,-280.127C614.623,-252.839 550.862,-168.594 485,-112 471.111,-100.066 453.816,-88.9177 439.892,-80.7031"/>
<polygon fill="midnightblue" stroke="midnightblue" points="441.286,-77.4676 430.874,-75.5111 437.794,-83.5339 441.286,-77.4676"/>
</g>
<!-- Node16&#45;&gt;Node5 -->
<g id="edge33" class="edge"><title>Node16&#45;&gt;Node5</title>
<path fill="none" stroke="midnightblue" d="M647.261,-280.214C657.028,-266.927 676.963,-241.425 698,-224 735.745,-192.736 746.625,-183.861 793,-168 899.775,-131.482 1033.82,-124.149 1102.27,-122.957"/>
<polygon fill="midnightblue" stroke="midnightblue" points="1102.34,-126.456 1112.29,-122.819 1102.24,-119.457 1102.34,-126.456"/>
</g>
<!-- Node16&#45;&gt;Node8 -->
<g id="edge34" class="edge"><title>Node16&#45;&gt;Node8</title>
<path fill="none" stroke="midnightblue" d="M600.79,-287.688C563.52,-284.483 508.484,-274.444 472,-244 455.327,-230.087 432.592,-171.918 421.552,-141.586"/>
<polygon fill="midnightblue" stroke="midnightblue" points="424.715,-140.036 418.046,-131.803 418.125,-142.398 424.715,-140.036"/>
</g>
<!-- Node17 -->
<g id="node17" class="node"><title>Node17</title>
<g id="a_node17"><a xlink:href="dji__ack_8hpp.html" target="_top" xlink:title="All DJI OSDK ACK parsing. ">
<polygon fill="white" stroke="black" points="983,-224.5 983,-243.5 1049,-243.5 1049,-224.5 983,-224.5"/>
<text text-anchor="middle" x="1016" y="-231.5" font-family="Helvetica,sans-Serif" font-size="10.00">dji_ack.hpp</text>
</a>
</g>
</g>
<!-- Node16&#45;&gt;Node17 -->
<g id="edge23" class="edge"><title>Node16&#45;&gt;Node17</title>
<path fill="none" stroke="midnightblue" d="M681.003,-284.516C741.69,-277.508 860.854,-262.949 972.613,-243.946"/>
<polygon fill="midnightblue" stroke="midnightblue" points="973.447,-247.354 982.71,-242.213 972.263,-240.455 973.447,-247.354"/>
</g>
<!-- Node17&#45;&gt;Node5 -->
<g id="edge27" class="edge"><title>Node17&#45;&gt;Node5</title>
<path fill="none" stroke="midnightblue" d="M1045.33,-224.424C1074.52,-215.345 1116.56,-200.613 1128,-188 1139.47,-175.355 1144.04,-156.146 1145.85,-141.886"/>
<polygon fill="midnightblue" stroke="midnightblue" points="1149.35,-142.009 1146.79,-131.73 1142.38,-141.366 1149.35,-142.009"/>
</g>
<!-- Node17&#45;&gt;Node13 -->
<g id="edge24" class="edge"><title>Node17&#45;&gt;Node13</title>
<path fill="none" stroke="midnightblue" d="M1041.34,-224.469C1067.94,-215.488 1110.96,-200.892 1148,-188 1200.39,-169.766 1261.03,-148.121 1297.67,-134.981"/>
<polygon fill="midnightblue" stroke="midnightblue" points="1299.11,-138.182 1307.34,-131.511 1296.75,-131.594 1299.11,-138.182"/>
</g>
<!-- Node18 -->
<g id="node18" class="node"><title>Node18</title>
<g id="a_node18"><a xlink:href="dji__mission__type_8hpp.html" target="_top" xlink:title="Mission related data struct for DJI OSDK library. ">
<polygon fill="white" stroke="black" points="883,-168.5 883,-187.5 991,-187.5 991,-168.5 883,-168.5"/>
<text text-anchor="middle" x="937" y="-175.5" font-family="Helvetica,sans-Serif" font-size="10.00">dji_mission_type.hpp</text>
</a>
</g>
</g>
<!-- Node17&#45;&gt;Node18 -->
<g id="edge25" class="edge"><title>Node17&#45;&gt;Node18</title>
<path fill="none" stroke="midnightblue" d="M1003.31,-224.324C991.099,-215.979 972.422,-203.212 957.997,-193.352"/>
<polygon fill="midnightblue" stroke="midnightblue" points="959.892,-190.408 949.661,-187.655 955.942,-196.187 959.892,-190.408"/>
</g>
<!-- Node17&#45;&gt;Node19 -->
<g id="edge28" class="edge"><title>Node17&#45;&gt;Node19</title>
<path fill="none" stroke="midnightblue" d="M1049.39,-225.401C1052.3,-224.876 1055.19,-224.398 1058,-224 1170.75,-208.018 1512.76,-188.707 1643.46,-181.703"/>
<polygon fill="midnightblue" stroke="midnightblue" points="1643.81,-185.189 1653.61,-181.161 1643.43,-178.199 1643.81,-185.189"/>
</g>
<!-- Node20 -->
<g id="node20" class="node"><title>Node20</title>
<polygon fill="white" stroke="#bfbfbf" points="829.5,-168.5 829.5,-187.5 864.5,-187.5 864.5,-168.5 829.5,-168.5"/>
<text text-anchor="middle" x="847" y="-175.5" font-family="Helvetica,sans-Serif" font-size="10.00">map</text>
</g>
<!-- Node17&#45;&gt;Node20 -->
<g id="edge31" class="edge"><title>Node17&#45;&gt;Node20</title>
<path fill="none" stroke="midnightblue" d="M988.739,-224.493C962.024,-216.127 919.911,-202.864 874.453,-188.113"/>
<polygon fill="midnightblue" stroke="midnightblue" points="875.299,-184.708 864.706,-184.944 873.134,-191.365 875.299,-184.708"/>
</g>
<!-- Node18&#45;&gt;Node5 -->
<g id="edge26" class="edge"><title>Node18&#45;&gt;Node5</title>
<path fill="none" stroke="midnightblue" d="M970.275,-168.444C1006.45,-159.142 1064.38,-144.246 1103.98,-134.062"/>
<polygon fill="midnightblue" stroke="midnightblue" points="1105.07,-137.397 1113.88,-131.516 1103.32,-130.617 1105.07,-137.397"/>
</g>
<!-- Node19&#45;&gt;Node10 -->
<g id="edge30" class="edge"><title>Node19&#45;&gt;Node10</title>
<path fill="none" stroke="midnightblue" d="M1710.91,-168.324C1726.64,-159.743 1750.94,-146.486 1769.21,-136.522"/>
<polygon fill="midnightblue" stroke="midnightblue" points="1771.03,-139.516 1778.13,-131.655 1767.68,-133.37 1771.03,-139.516"/>
</g>
<!-- Node19&#45;&gt;Node13 -->
<g id="edge29" class="edge"><title>Node19&#45;&gt;Node13</title>
<path fill="none" stroke="midnightblue" d="M1653.95,-170.91C1588.78,-161.242 1461.48,-142.357 1387.67,-131.406"/>
<polygon fill="midnightblue" stroke="midnightblue" points="1388.02,-127.921 1377.62,-129.916 1386.99,-134.845 1388.02,-127.921"/>
</g>
<!-- Node21&#45;&gt;Node5 -->
<g id="edge37" class="edge"><title>Node21&#45;&gt;Node5</title>
<path fill="none" stroke="midnightblue" d="M1390.35,-169.435C1338.19,-159.481 1246.74,-142.033 1192.03,-131.592"/>
<polygon fill="midnightblue" stroke="midnightblue" points="1192.41,-128.102 1181.93,-129.665 1191.1,-134.977 1192.41,-128.102"/>
</g>
<!-- Node21&#45;&gt;Node13 -->
<g id="edge36" class="edge"><title>Node21&#45;&gt;Node13</title>
<path fill="none" stroke="midnightblue" d="M1414.09,-168.324C1398.36,-159.743 1374.06,-146.486 1355.79,-136.522"/>
<polygon fill="midnightblue" stroke="midnightblue" points="1357.32,-133.37 1346.87,-131.655 1353.97,-139.516 1357.32,-133.37"/>
</g>
<!-- Node23&#45;&gt;Node5 -->
<g id="edge40" class="edge"><title>Node23&#45;&gt;Node5</title>
<path fill="none" stroke="midnightblue" d="M769.683,-224.049C777.789,-209.557 795.906,-181.246 820,-168 867.602,-141.831 1024.04,-129.742 1102,-125.231"/>
<polygon fill="midnightblue" stroke="midnightblue" points="1102.68,-128.699 1112.46,-124.644 1102.28,-121.71 1102.68,-128.699"/>
</g>
<!-- Node24&#45;&gt;Node8 -->
<g id="edge42" class="edge"><title>Node24&#45;&gt;Node8</title>
<path fill="none" stroke="midnightblue" d="M356.944,-224.368C367.294,-206.296 391.417,-164.176 405.088,-140.307"/>
<polygon fill="midnightblue" stroke="midnightblue" points="408.147,-142.008 410.079,-131.591 402.072,-138.53 408.147,-142.008"/>
</g>
<!-- Node26 -->
<g id="node26" class="node"><title>Node26</title>
<g id="a_node26"><a xlink:href="dji__hotpoint_8hpp.html" target="_top" xlink:title="Implementation of HotPoint (Point of Interest) Missions for DJI OSDK. ">
<polygon fill="white" stroke="black" points="879.5,-224.5 879.5,-243.5 964.5,-243.5 964.5,-224.5 879.5,-224.5"/>
<text text-anchor="middle" x="922" y="-231.5" font-family="Helvetica,sans-Serif" font-size="10.00">dji_hotpoint.hpp</text>
</a>
</g>
</g>
<!-- Node25&#45;&gt;Node26 -->
<g id="edge44" class="edge"><title>Node25&#45;&gt;Node26</title>
<path fill="none" stroke="midnightblue" d="M1081.89,-280.444C1049.37,-271.201 997.421,-256.436 961.609,-246.257"/>
<polygon fill="midnightblue" stroke="midnightblue" points="962.541,-242.884 951.965,-243.516 960.627,-249.617 962.541,-242.884"/>
</g>
<!-- Node28 -->
<g id="node28" class="node"><title>Node28</title>
<g id="a_node28"><a xlink:href="dji__waypoint_8hpp.html" target="_top" xlink:title="Implementation of GPS Waypoint Missions for DJI OSDK. ">
<polygon fill="white" stroke="black" points="1067.5,-224.5 1067.5,-243.5 1156.5,-243.5 1156.5,-224.5 1067.5,-224.5"/>
<text text-anchor="middle" x="1112" y="-231.5" font-family="Helvetica,sans-Serif" font-size="10.00">dji_waypoint.hpp</text>
</a>
</g>
</g>
<!-- Node25&#45;&gt;Node28 -->
<g id="edge50" class="edge"><title>Node25&#45;&gt;Node28</title>
<path fill="none" stroke="midnightblue" d="M1112,-280.083C1112,-273.006 1112,-262.861 1112,-253.986"/>
<polygon fill="midnightblue" stroke="midnightblue" points="1115.5,-253.751 1112,-243.751 1108.5,-253.751 1115.5,-253.751"/>
</g>
<!-- Node26&#45;&gt;Node4 -->
<g id="edge49" class="edge"><title>Node26&#45;&gt;Node4</title>
<path fill="none" stroke="midnightblue" d="M885.08,-224.444C844.605,-215.063 779.579,-199.993 735.616,-189.804"/>
<polygon fill="midnightblue" stroke="midnightblue" points="736.279,-186.365 725.747,-187.516 734.698,-193.184 736.279,-186.365"/>
</g>
<!-- Node27 -->
<g id="node27" class="node"><title>Node27</title>
<g id="a_node27"><a xlink:href="dji__mission__base_8hpp.html" target="_top" xlink:title="Mission&#45;Base abstract class for DJI OSDK library. ">
<polygon fill="white" stroke="black" points="1009,-168.5 1009,-187.5 1119,-187.5 1119,-168.5 1009,-168.5"/>
<text text-anchor="middle" x="1064" y="-175.5" font-family="Helvetica,sans-Serif" font-size="10.00">dji_mission_base.hpp</text>
</a>
</g>
</g>
<!-- Node26&#45;&gt;Node27 -->
<g id="edge45" class="edge"><title>Node26&#45;&gt;Node27</title>
<path fill="none" stroke="midnightblue" d="M944.5,-224.444C968.077,-215.478 1005.32,-201.314 1031.96,-191.183"/>
<polygon fill="midnightblue" stroke="midnightblue" points="1033.5,-194.342 1041.6,-187.516 1031.01,-187.8 1033.5,-194.342"/>
</g>
<!-- Node27&#45;&gt;Node5 -->
<g id="edge47" class="edge"><title>Node27&#45;&gt;Node5</title>
<path fill="none" stroke="midnightblue" d="M1077.34,-168.324C1090.16,-159.979 1109.78,-147.212 1124.94,-137.352"/>
<polygon fill="midnightblue" stroke="midnightblue" points="1127.22,-140.042 1133.7,-131.655 1123.41,-134.174 1127.22,-140.042"/>
</g>
<!-- Node27&#45;&gt;Node8 -->
<g id="edge48" class="edge"><title>Node27&#45;&gt;Node8</title>
<path fill="none" stroke="midnightblue" d="M1008.87,-169.023C1005.87,-168.659 1002.9,-168.315 1000,-168 815.137,-147.912 596.451,-133.591 486.182,-127.026"/>
<polygon fill="midnightblue" stroke="midnightblue" points="486.365,-123.531 476.176,-126.434 485.952,-130.519 486.365,-123.531"/>
</g>
<!-- Node27&#45;&gt;Node13 -->
<g id="edge46" class="edge"><title>Node27&#45;&gt;Node13</title>
<path fill="none" stroke="midnightblue" d="M1106.31,-168.444C1153.08,-158.984 1228.46,-143.738 1278.85,-133.547"/>
<polygon fill="midnightblue" stroke="midnightblue" points="1279.78,-136.929 1288.89,-131.516 1278.4,-130.068 1279.78,-136.929"/>
</g>
<!-- Node28&#45;&gt;Node27 -->
<g id="edge51" class="edge"><title>Node28&#45;&gt;Node27</title>
<path fill="none" stroke="midnightblue" d="M1104.07,-224.083C1097.15,-216.298 1086.93,-204.801 1078.55,-195.367"/>
<polygon fill="midnightblue" stroke="midnightblue" points="1081.04,-192.9 1071.78,-187.751 1075.81,-197.55 1081.04,-192.9"/>
</g>
<!-- Node29&#45;&gt;Node8 -->
<g id="edge53" class="edge"><title>Node29&#45;&gt;Node8</title>
<path fill="none" stroke="midnightblue" d="M239.909,-224.368C272.791,-205.332 351.755,-159.615 391.422,-136.65"/>
<polygon fill="midnightblue" stroke="midnightblue" points="393.26,-139.631 400.16,-131.591 389.752,-133.573 393.26,-139.631"/>
</g>
<!-- Node32&#45;&gt;Node3 -->
<g id="edge63" class="edge"><title>Node32&#45;&gt;Node3</title>
<path fill="none" stroke="midnightblue" d="M939.821,-288.191C881.825,-285.764 779.021,-276.722 698,-244 603.334,-205.767 598.229,-163.371 510,-112 488.915,-99.7231 463.942,-87.9959 444.894,-79.5928"/>
<polygon fill="midnightblue" stroke="midnightblue" points="446.091,-76.2966 435.525,-75.5161 443.298,-82.7153 446.091,-76.2966"/>
</g>
<!-- Node32&#45;&gt;Node4 -->
<g id="edge65" class="edge"><title>Node32&#45;&gt;Node4</title>
<path fill="none" stroke="midnightblue" d="M960.889,-280.456C937.394,-271.923 900.808,-258.082 870,-244 852.642,-236.066 849.618,-231.338 832,-224 799.118,-210.303 760.522,-198.39 731.721,-190.268"/>
<polygon fill="midnightblue" stroke="midnightblue" points="732.539,-186.863 721.967,-187.556 730.664,-193.607 732.539,-186.863"/>
</g>
<!-- Node32&#45;&gt;Node5 -->
<g id="edge64" class="edge"><title>Node32&#45;&gt;Node5</title>
<path fill="none" stroke="midnightblue" d="M1030.33,-280.658C1080.86,-270.902 1156.62,-254.727 1165,-244 1188.54,-213.852 1170.05,-166.239 1157.02,-140.654"/>
<polygon fill="midnightblue" stroke="midnightblue" points="1160.04,-138.88 1152.23,-131.722 1153.87,-142.189 1160.04,-138.88"/>
</g>
<!-- Node32&#45;&gt;Node17 -->
<g id="edge62" class="edge"><title>Node32&#45;&gt;Node17</title>
<path fill="none" stroke="midnightblue" d="M990.119,-280.083C994.408,-272.613 1000.66,-261.724 1005.94,-252.52"/>
<polygon fill="midnightblue" stroke="midnightblue" points="1009.03,-254.166 1010.98,-243.751 1002.96,-250.681 1009.03,-254.166"/>
</g>
</g>
</svg>
        <g id="navigator" transform="translate(0 0)" fill="#404254">
                <rect fill="#f2f5e9" fill-opacity="0.5" stroke="#606060" stroke-width=".5" x="0" y="0" width="60" height="60"/>
                <use id="zoomplus" xlink:href="#zoomPlus" x="17" y="9" onmousedown="handleZoom(evt,'in')"/>
                <use id="zoomminus" xlink:href="#zoomMin" x="42" y="9" onmousedown="handleZoom(evt,'out')"/>
                <use id="reset" xlink:href="#resetDef" x="30" y="36" onmousedown="handleReset()"/>
                <g id="arrowUp" xlink:href="#dirArrow" transform="translate(30 24)" onmousedown="handlePan(0,-1)">
                  <use xlink:href="#rim" fill="#404040">
                        <set attributeName="fill" to="#808080" begin="arrowUp.mouseover" end="arrowUp.mouseout"/>
                  </use>
                  <path fill="none" stroke="white" stroke-width="1.5" d="M0,-3.0v7 M-2.5,-0.5L0,-3.0L2.5,-0.5"/>
                </g>
                <g id="arrowRight" xlink:href="#dirArrow" transform="rotate(90) translate(36 -43)" onmousedown="handlePan(1,0)">
                  <use xlink:href="#rim" fill="#404040">
                        <set attributeName="fill" to="#808080" begin="arrowRight.mouseover" end="arrowRight.mouseout"/>
                  </use>
                  <path fill="none" stroke="white" stroke-width="1.5" d="M0,-3.0v7 M-2.5,-0.5L0,-3.0L2.5,-0.5"/>
                </g>
                <g id="arrowDown" xlink:href="#dirArrow" transform="rotate(180) translate(-30 -48)" onmousedown="handlePan(0,1)">
                  <use xlink:href="#rim" fill="#404040">
                        <set attributeName="fill" to="#808080" begin="arrowDown.mouseover" end="arrowDown.mouseout"/>
                  </use>
                  <path fill="none" stroke="white" stroke-width="1.5" d="M0,-3.0v7 M-2.5,-0.5L0,-3.0L2.5,-0.5"/>
                </g>
                <g id="arrowLeft" xlink:href="#dirArrow" transform="rotate(270) translate(-36 17)" onmousedown="handlePan(-1,0)">
                  <use xlink:href="#rim" fill="#404040">
                        <set attributeName="fill" to="#808080" begin="arrowLeft.mouseover" end="arrowLeft.mouseout"/>
                  </use>
                  <path fill="none" stroke="white" stroke-width="1.5" d="M0,-3.0v7 M-2.5,-0.5L0,-3.0L2.5,-0.5"/>
                </g>
        </g>
        <svg viewBox="0 0 15 15" width="100%" height="30px" preserveAspectRatio="xMaxYMin meet">
         <g id="arrow_out" transform="scale(0.3 0.3)">
          <a xlink:href="dji__subscription_8cpp__incl_org.svg" target="_base">
           <rect id="button" ry="5" rx="5" y="6" x="6" height="38" width="38"
                fill="#f2f5e9" fill-opacity="0.5" stroke="#606060" stroke-width="1.0"/>
           <path id="arrow"
             d="M 11.500037,31.436501 C 11.940474,20.09759 22.043105,11.32322 32.158766,21.979434 L 37.068811,17.246167 C 37.068811,17.246167 37.088388,32 37.088388,32 L 22.160133,31.978069 C 22.160133,31.978069 26.997745,27.140456 26.997745,27.140456 C 18.528582,18.264221 13.291696,25.230495 11.500037,31.436501 z"
             style="fill:#404040;"/>
          </a>
         </g>
        </svg>
</svg>
