<?xml version="1.0" encoding="UTF-8" standalone="no"?>
<!DOCTYPE svg PUBLIC "-//W3C//DTD SVG 1.1//EN"
 "http://www.w3.org/Graphics/SVG/1.1/DTD/svg11.dtd">
<!-- Generated by graphviz version 2.38.0 (20140413.2041)
 -->
<!-- Title: osdk&#45;core/api/src/dji_vehicle.cpp Pages: 1 -->
<svg width="1782pt" height="431pt"
 viewBox="0.00 0.00 1782.00 431.00" xmlns="http://www.w3.org/2000/svg" xmlns:xlink="http://www.w3.org/1999/xlink">
<g id="graph0" class="graph" transform="scale(1 1) rotate(0) translate(4 427)">
<title>osdk&#45;core/api/src/dji_vehicle.cpp</title>
<polygon fill="white" stroke="none" points="-4,4 -4,-427 1778,-427 1778,4 -4,4"/>
<!-- Node1 -->
<g id="node1" class="node"><title>Node1</title>
<polygon fill="#bfbfbf" stroke="black" points="960,-392.5 960,-422.5 1064,-422.5 1064,-392.5 960,-392.5"/>
<text text-anchor="start" x="968" y="-410.5" font-family="Helvetica,sans-Serif" font-size="10.00">osdk&#45;core/api/src/dji</text>
<text text-anchor="middle" x="1012" y="-399.5" font-family="Helvetica,sans-Serif" font-size="10.00">_vehicle.cpp</text>
</g>
<!-- Node2 -->
<g id="node2" class="node"><title>Node2</title>
<g id="a_node2"><a xlink:href="dji__vehicle_8hpp.html" target="_top" xlink:title="Vehicle API for DJI onboardSDK library. ">
<polygon fill="white" stroke="black" points="933.5,-336.5 933.5,-355.5 1014.5,-355.5 1014.5,-336.5 933.5,-336.5"/>
<text text-anchor="middle" x="974" y="-343.5" font-family="Helvetica,sans-Serif" font-size="10.00">dji_vehicle.hpp</text>
</a>
</g>
</g>
<!-- Node1&#45;&gt;Node2 -->
<g id="edge1" class="edge"><title>Node1&#45;&gt;Node2</title>
<path fill="none" stroke="midnightblue" d="M1002.99,-392.399C997.587,-383.932 990.668,-373.099 984.946,-364.139"/>
<polygon fill="midnightblue" stroke="midnightblue" points="987.862,-362.202 979.529,-355.658 981.962,-365.97 987.862,-362.202"/>
</g>
<!-- Node32 -->
<g id="node32" class="node"><title>Node32</title>
<polygon fill="white" stroke="#bfbfbf" points="1032.5,-336.5 1032.5,-355.5 1067.5,-355.5 1067.5,-336.5 1032.5,-336.5"/>
<text text-anchor="middle" x="1050" y="-343.5" font-family="Helvetica,sans-Serif" font-size="10.00">new</text>
</g>
<!-- Node1&#45;&gt;Node32 -->
<g id="edge60" class="edge"><title>Node1&#45;&gt;Node32</title>
<path fill="none" stroke="midnightblue" d="M1021.01,-392.399C1026.41,-383.932 1033.33,-373.099 1039.05,-364.139"/>
<polygon fill="midnightblue" stroke="midnightblue" points="1042.04,-365.97 1044.47,-355.658 1036.14,-362.202 1042.04,-365.97"/>
</g>
<!-- Node3 -->
<g id="node3" class="node"><title>Node3</title>
<polygon fill="white" stroke="#bfbfbf" points="0,-112.5 0,-131.5 46,-131.5 46,-112.5 0,-112.5"/>
<text text-anchor="middle" x="23" y="-119.5" font-family="Helvetica,sans-Serif" font-size="10.00">cstdint</text>
</g>
<!-- Node2&#45;&gt;Node3 -->
<g id="edge2" class="edge"><title>Node2&#45;&gt;Node3</title>
<path fill="none" stroke="midnightblue" d="M933.369,-344.971C769.689,-344.578 163.846,-340.386 89,-300 34.7066,-270.704 26.1714,-246.639 7,-188 1.8706,-172.311 7.3579,-154.023 13.2603,-140.849"/>
<polygon fill="midnightblue" stroke="midnightblue" points="16.5761,-142.041 17.888,-131.528 10.3063,-138.928 16.5761,-142.041"/>
</g>
<!-- Node4 -->
<g id="node4" class="node"><title>Node4</title>
<g id="a_node4"><a xlink:href="dji__broadcast_8hpp.html" target="_top" xlink:title="Broadcast Telemetry API for DJI onboardSDK library. ">
<polygon fill="white" stroke="black" points="927.5,-224.5 927.5,-243.5 1020.5,-243.5 1020.5,-224.5 927.5,-224.5"/>
<text text-anchor="middle" x="974" y="-231.5" font-family="Helvetica,sans-Serif" font-size="10.00">dji_broadcast.hpp</text>
</a>
</g>
</g>
<!-- Node2&#45;&gt;Node4 -->
<g id="edge3" class="edge"><title>Node2&#45;&gt;Node4</title>
<path fill="none" stroke="midnightblue" d="M974,-336.368C974,-318.617 974,-277.666 974,-253.597"/>
<polygon fill="midnightblue" stroke="midnightblue" points="977.5,-253.591 974,-243.591 970.5,-253.591 977.5,-253.591"/>
</g>
<!-- Node6 -->
<g id="node6" class="node"><title>Node6</title>
<g id="a_node6"><a xlink:href="dji__type_8hpp.html" target="_top" xlink:title="Data type and Data Structure definitions for use throughout DJI OSDK. ">
<polygon fill="white" stroke="black" points="473.5,-112.5 473.5,-131.5 542.5,-131.5 542.5,-112.5 473.5,-112.5"/>
<text text-anchor="middle" x="508" y="-119.5" font-family="Helvetica,sans-Serif" font-size="10.00">dji_type.hpp</text>
</a>
</g>
</g>
<!-- Node2&#45;&gt;Node6 -->
<g id="edge57" class="edge"><title>Node2&#45;&gt;Node6</title>
<path fill="none" stroke="midnightblue" d="M933.438,-340.743C831.347,-329.362 566.924,-295.548 497,-244 466.441,-221.472 442.554,-202.682 458,-168 463.568,-155.498 474.516,-145.012 484.751,-137.317"/>
<polygon fill="midnightblue" stroke="midnightblue" points="486.851,-140.119 493.048,-131.526 482.844,-134.379 486.851,-140.119"/>
</g>
<!-- Node9 -->
<g id="node9" class="node"><title>Node9</title>
<g id="a_node9"><a xlink:href="dji__vehicle__callback_8hpp.html" target="_top" xlink:title="Type definition for new Vehicle&#45;style callbacks. ">
<polygon fill="white" stroke="black" points="1113,-112.5 1113,-131.5 1235,-131.5 1235,-112.5 1113,-112.5"/>
<text text-anchor="middle" x="1174" y="-119.5" font-family="Helvetica,sans-Serif" font-size="10.00">dji_vehicle_callback.hpp</text>
</a>
</g>
</g>
<!-- Node2&#45;&gt;Node9 -->
<g id="edge58" class="edge"><title>Node2&#45;&gt;Node9</title>
<path fill="none" stroke="midnightblue" d="M1003.88,-336.441C1043.81,-323.378 1113.73,-294.505 1150,-244 1172.1,-213.227 1175.12,-167.203 1174.87,-141.701"/>
<polygon fill="midnightblue" stroke="midnightblue" points="1178.37,-141.454 1174.59,-131.557 1171.37,-141.651 1178.37,-141.454"/>
</g>
<!-- Node10 -->
<g id="node10" class="node"><title>Node10</title>
<polygon fill="white" stroke="#bfbfbf" points="1073.5,-56.5 1073.5,-75.5 1184.5,-75.5 1184.5,-56.5 1073.5,-56.5"/>
<text text-anchor="middle" x="1129" y="-63.5" font-family="Helvetica,sans-Serif" font-size="10.00">dji_open_protocol.hpp</text>
</g>
<!-- Node2&#45;&gt;Node10 -->
<g id="edge50" class="edge"><title>Node2&#45;&gt;Node10</title>
<path fill="none" stroke="midnightblue" d="M1014.63,-337.461C1017.46,-336.959 1020.27,-336.468 1023,-336 1123.25,-318.812 1150.61,-325.787 1249,-300 1273.76,-293.511 1278.57,-287.621 1303,-280 1364.74,-260.742 1404.32,-295.078 1444,-244 1517.31,-149.626 1307.08,-97.6939 1194.71,-77.2976"/>
<polygon fill="midnightblue" stroke="midnightblue" points="1195.27,-73.8426 1184.81,-75.5367 1194.04,-80.7344 1195.27,-73.8426"/>
</g>
<!-- Node11 -->
<g id="node11" class="node"><title>Node11</title>
<g id="a_node11"><a xlink:href="dji__camera_8hpp.html" target="_top" xlink:title="Camera/Gimbal API for DJI onboardSDK library. ">
<polygon fill="white" stroke="black" points="251.5,-168.5 251.5,-187.5 334.5,-187.5 334.5,-168.5 251.5,-168.5"/>
<text text-anchor="middle" x="293" y="-175.5" font-family="Helvetica,sans-Serif" font-size="10.00">dji_camera.hpp</text>
</a>
</g>
</g>
<!-- Node2&#45;&gt;Node11 -->
<g id="edge10" class="edge"><title>Node2&#45;&gt;Node11</title>
<path fill="none" stroke="midnightblue" d="M933.45,-345.125C796.606,-345.157 357.823,-341.963 312,-300 283.733,-274.114 285.852,-224.694 289.581,-197.714"/>
<polygon fill="midnightblue" stroke="midnightblue" points="293.066,-198.087 291.194,-187.659 286.155,-196.978 293.066,-198.087"/>
</g>
<!-- Node12 -->
<g id="node12" class="node"><title>Node12</title>
<g id="a_node12"><a xlink:href="dji__command_8hpp.html" target="_top" xlink:title="All DJI OSDK OpenProtocol Command IDs. ">
<polygon fill="white" stroke="black" points="246.5,-112.5 246.5,-131.5 339.5,-131.5 339.5,-112.5 246.5,-112.5"/>
<text text-anchor="middle" x="293" y="-119.5" font-family="Helvetica,sans-Serif" font-size="10.00">dji_command.hpp</text>
</a>
</g>
</g>
<!-- Node2&#45;&gt;Node12 -->
<g id="edge17" class="edge"><title>Node2&#45;&gt;Node12</title>
<path fill="none" stroke="midnightblue" d="M933.378,-344.029C791.804,-340.424 325.402,-326.629 264,-300 191.534,-268.573 97.9678,-231.459 145,-168 165.851,-139.867 203.855,-128.718 236.131,-124.551"/>
<polygon fill="midnightblue" stroke="midnightblue" points="236.819,-127.997 246.38,-123.43 236.058,-121.038 236.819,-127.997"/>
</g>
<!-- Node14 -->
<g id="node14" class="node"><title>Node14</title>
<polygon fill="white" stroke="#bfbfbf" points="1312,-280.5 1312,-299.5 1424,-299.5 1424,-280.5 1312,-280.5"/>
<text text-anchor="middle" x="1368" y="-287.5" font-family="Helvetica,sans-Serif" font-size="10.00">dji_circular_buffer.hpp</text>
</g>
<!-- Node2&#45;&gt;Node14 -->
<g id="edge16" class="edge"><title>Node2&#45;&gt;Node14</title>
<path fill="none" stroke="midnightblue" d="M1014.61,-337.372C1017.45,-336.892 1020.27,-336.429 1023,-336 1036.6,-333.866 1205.78,-311.952 1302.06,-299.511"/>
<polygon fill="midnightblue" stroke="midnightblue" points="1302.53,-302.98 1312,-298.227 1301.63,-296.037 1302.53,-302.98"/>
</g>
<!-- Node15 -->
<g id="node15" class="node"><title>Node15</title>
<g id="a_node15"><a xlink:href="dji__control_8hpp.html" target="_top" xlink:title="Control API for DJI OSDK library. ">
<polygon fill="white" stroke="black" points="828,-280.5 828,-299.5 908,-299.5 908,-280.5 828,-280.5"/>
<text text-anchor="middle" x="868" y="-287.5" font-family="Helvetica,sans-Serif" font-size="10.00">dji_control.hpp</text>
</a>
</g>
</g>
<!-- Node2&#45;&gt;Node15 -->
<g id="edge18" class="edge"><title>Node2&#45;&gt;Node15</title>
<path fill="none" stroke="midnightblue" d="M956.969,-336.324C939.97,-327.664 913.624,-314.242 894.007,-304.249"/>
<polygon fill="midnightblue" stroke="midnightblue" points="895.488,-301.075 884.988,-299.655 892.31,-307.312 895.488,-301.075"/>
</g>
<!-- Node18 -->
<g id="node18" class="node"><title>Node18</title>
<g id="a_node18"><a xlink:href="dji__version_8hpp.html" target="_top" xlink:title="Drone/SDK Version definition for DJI onboardSDK library. ">
<polygon fill="white" stroke="black" points="16,-168.5 16,-187.5 98,-187.5 98,-168.5 16,-168.5"/>
<text text-anchor="middle" x="57" y="-175.5" font-family="Helvetica,sans-Serif" font-size="10.00">dji_version.hpp</text>
</a>
</g>
</g>
<!-- Node2&#45;&gt;Node18 -->
<g id="edge59" class="edge"><title>Node2&#45;&gt;Node18</title>
<path fill="none" stroke="midnightblue" d="M933.358,-345.324C771.778,-346.286 180.343,-346.572 112,-300 77.3076,-276.359 64.1469,-225.208 59.4356,-197.588"/>
<polygon fill="midnightblue" stroke="midnightblue" points="62.8883,-197.011 57.9353,-187.646 55.9667,-198.056 62.8883,-197.011"/>
</g>
<!-- Node20 -->
<g id="node20" class="node"><title>Node20</title>
<g id="a_node20"><a xlink:href="dji__gimbal_8hpp.html" target="_top" xlink:title="Gimbal API for OSDK library. ">
<polygon fill="white" stroke="black" points="154.5,-168.5 154.5,-187.5 233.5,-187.5 233.5,-168.5 154.5,-168.5"/>
<text text-anchor="middle" x="194" y="-175.5" font-family="Helvetica,sans-Serif" font-size="10.00">dji_gimbal.hpp</text>
</a>
</g>
</g>
<!-- Node2&#45;&gt;Node20 -->
<g id="edge31" class="edge"><title>Node2&#45;&gt;Node20</title>
<path fill="none" stroke="midnightblue" d="M933.135,-344.156C795.13,-341.049 351.792,-328.899 295,-300 250.039,-277.121 217.455,-224.442 202.739,-196.749"/>
<polygon fill="midnightblue" stroke="midnightblue" points="205.815,-195.078 198.136,-187.779 199.587,-198.274 205.815,-195.078"/>
</g>
<!-- Node21 -->
<g id="node21" class="node"><title>Node21</title>
<polygon fill="white" stroke="#bfbfbf" points="1442,-280.5 1442,-299.5 1540,-299.5 1540,-280.5 1442,-280.5"/>
<text text-anchor="middle" x="1491" y="-287.5" font-family="Helvetica,sans-Serif" font-size="10.00">dji_hard_driver.hpp</text>
</g>
<!-- Node2&#45;&gt;Node21 -->
<g id="edge34" class="edge"><title>Node2&#45;&gt;Node21</title>
<path fill="none" stroke="midnightblue" d="M1014.59,-337.24C1017.43,-336.791 1020.26,-336.371 1023,-336 1200.99,-311.894 1249.66,-321.666 1431.79,-300.065"/>
<polygon fill="midnightblue" stroke="midnightblue" points="1432.47,-303.508 1441.98,-298.84 1431.64,-296.558 1432.47,-303.508"/>
</g>
<!-- Node22 -->
<g id="node22" class="node"><title>Node22</title>
<g id="a_node22"><a xlink:href="dji__hardware__sync_8hpp.html" target="_top" xlink:title="Hardware Sync API for DJI OSDK. ">
<polygon fill="white" stroke="black" points="321,-280.5 321,-299.5 437,-299.5 437,-280.5 321,-280.5"/>
<text text-anchor="middle" x="379" y="-287.5" font-family="Helvetica,sans-Serif" font-size="10.00">dji_hardware_sync.hpp</text>
</a>
</g>
</g>
<!-- Node2&#45;&gt;Node22 -->
<g id="edge35" class="edge"><title>Node2&#45;&gt;Node22</title>
<path fill="none" stroke="midnightblue" d="M933.261,-342.032C845.175,-335.496 630.45,-318.929 451,-300 449.732,-299.866 448.451,-299.729 447.161,-299.589"/>
<polygon fill="midnightblue" stroke="midnightblue" points="447.465,-296.101 437.137,-298.462 446.683,-303.057 447.465,-296.101"/>
</g>
<!-- Node23 -->
<g id="node23" class="node"><title>Node23</title>
<g id="a_node23"><a xlink:href="dji__mfio_8hpp.html" target="_top" xlink:title="MFIO API for DJI OSDK library. ">
<polygon fill="white" stroke="black" points="1198.5,-224.5 1198.5,-243.5 1267.5,-243.5 1267.5,-224.5 1198.5,-224.5"/>
<text text-anchor="middle" x="1233" y="-231.5" font-family="Helvetica,sans-Serif" font-size="10.00">dji_mfio.hpp</text>
</a>
</g>
</g>
<!-- Node2&#45;&gt;Node23 -->
<g id="edge37" class="edge"><title>Node2&#45;&gt;Node23</title>
<path fill="none" stroke="midnightblue" d="M1014.7,-337.037C1073.73,-325.382 1176.85,-304.563 1184,-300 1202,-288.512 1215.83,-267.935 1224.13,-253.004"/>
<polygon fill="midnightblue" stroke="midnightblue" points="1227.44,-254.232 1228.98,-243.75 1221.24,-250.982 1227.44,-254.232"/>
</g>
<!-- Node24 -->
<g id="node24" class="node"><title>Node24</title>
<g id="a_node24"><a xlink:href="dji__mission__manager_8hpp.html" target="_top" xlink:title="Mission&#45;Manager API for DJI OSDK library. ">
<polygon fill="white" stroke="black" points="682.5,-280.5 682.5,-299.5 809.5,-299.5 809.5,-280.5 682.5,-280.5"/>
<text text-anchor="middle" x="746" y="-287.5" font-family="Helvetica,sans-Serif" font-size="10.00">dji_mission_manager.hpp</text>
</a>
</g>
</g>
<!-- Node2&#45;&gt;Node24 -->
<g id="edge39" class="edge"><title>Node2&#45;&gt;Node24</title>
<path fill="none" stroke="midnightblue" d="M937.873,-336.444C898.349,-327.083 834.903,-312.056 791.887,-301.868"/>
<polygon fill="midnightblue" stroke="midnightblue" points="792.496,-298.415 781.958,-299.516 790.882,-305.227 792.496,-298.415"/>
</g>
<!-- Node28 -->
<g id="node28" class="node"><title>Node28</title>
<g id="a_node28"><a xlink:href="dji__mobile__communication_8hpp.html" target="_top" xlink:title="Implementation of DJI Mobile&#45;Onboard SDK Communication (MOC) ">
<polygon fill="white" stroke="black" points="1285,-224.5 1285,-243.5 1435,-243.5 1435,-224.5 1285,-224.5"/>
<text text-anchor="middle" x="1360" y="-231.5" font-family="Helvetica,sans-Serif" font-size="10.00">dji_mobile_communication.hpp</text>
</a>
</g>
</g>
<!-- Node2&#45;&gt;Node28 -->
<g id="edge48" class="edge"><title>Node2&#45;&gt;Node28</title>
<path fill="none" stroke="midnightblue" d="M1014.51,-337.479C1079.25,-325.426 1199.74,-302.842 1209,-300 1254.35,-286.079 1304.46,-262.834 1334.04,-248.242"/>
<polygon fill="midnightblue" stroke="midnightblue" points="1335.86,-251.246 1343.25,-243.65 1332.73,-244.981 1335.86,-251.246"/>
</g>
<!-- Node29 -->
<g id="node29" class="node"><title>Node29</title>
<g id="a_node29"><a xlink:href="dji__status_8hpp.html" target="_top" xlink:title="Status information for DJI Vehicle. ">
<polygon fill="white" stroke="black" points="1558.5,-280.5 1558.5,-299.5 1635.5,-299.5 1635.5,-280.5 1558.5,-280.5"/>
<text text-anchor="middle" x="1597" y="-287.5" font-family="Helvetica,sans-Serif" font-size="10.00">dji_status.hpp</text>
</a>
</g>
</g>
<!-- Node2&#45;&gt;Node29 -->
<g id="edge51" class="edge"><title>Node2&#45;&gt;Node29</title>
<path fill="none" stroke="midnightblue" d="M1014.59,-337.179C1017.43,-336.744 1020.25,-336.345 1023,-336 1252.2,-307.201 1314.79,-329.006 1548.13,-299.945"/>
<polygon fill="midnightblue" stroke="midnightblue" points="1548.81,-303.387 1558.29,-298.661 1547.93,-296.442 1548.81,-303.387"/>
</g>
<!-- Node30 -->
<g id="node30" class="node"><title>Node30</title>
<g id="a_node30"><a xlink:href="dji__subscription_8hpp.html" target="_top" xlink:title="Telemetry Subscription API for DJI OSDK library. ">
<polygon fill="white" stroke="black" points="1038.5,-224.5 1038.5,-243.5 1141.5,-243.5 1141.5,-224.5 1038.5,-224.5"/>
<text text-anchor="middle" x="1090" y="-231.5" font-family="Helvetica,sans-Serif" font-size="10.00">dji_subscription.hpp</text>
</a>
</g>
</g>
<!-- Node2&#45;&gt;Node30 -->
<g id="edge52" class="edge"><title>Node2&#45;&gt;Node30</title>
<path fill="none" stroke="midnightblue" d="M983.102,-336.368C1002.58,-317.894 1048.56,-274.293 1073.4,-250.744"/>
<polygon fill="midnightblue" stroke="midnightblue" points="1076.09,-253.012 1080.94,-243.591 1071.28,-247.933 1076.09,-253.012"/>
</g>
<!-- Node31 -->
<g id="node31" class="node"><title>Node31</title>
<polygon fill="white" stroke="#bfbfbf" points="1654,-280.5 1654,-299.5 1774,-299.5 1774,-280.5 1654,-280.5"/>
<text text-anchor="middle" x="1714" y="-287.5" font-family="Helvetica,sans-Serif" font-size="10.00">dji_thread_manager.hpp</text>
</g>
<!-- Node2&#45;&gt;Node31 -->
<g id="edge56" class="edge"><title>Node2&#45;&gt;Node31</title>
<path fill="none" stroke="midnightblue" d="M1014.58,-337.146C1017.43,-336.719 1020.25,-336.331 1023,-336 1294.57,-303.329 1367.54,-325.371 1643.49,-300.069"/>
<polygon fill="midnightblue" stroke="midnightblue" points="1644.18,-303.52 1653.82,-299.109 1643.54,-296.55 1644.18,-303.52"/>
</g>
<!-- Node5 -->
<g id="node5" class="node"><title>Node5</title>
<g id="a_node5"><a xlink:href="dji__telemetry_8hpp.html" target="_top" xlink:title="Enumeration of all telemetry data types, structures and maps. ">
<polygon fill="white" stroke="black" points="927.5,-168.5 927.5,-187.5 1018.5,-187.5 1018.5,-168.5 927.5,-168.5"/>
<text text-anchor="middle" x="973" y="-175.5" font-family="Helvetica,sans-Serif" font-size="10.00">dji_telemetry.hpp</text>
</a>
</g>
</g>
<!-- Node4&#45;&gt;Node5 -->
<g id="edge4" class="edge"><title>Node4&#45;&gt;Node5</title>
<path fill="none" stroke="midnightblue" d="M973.835,-224.083C973.704,-217.006 973.516,-206.861 973.352,-197.986"/>
<polygon fill="midnightblue" stroke="midnightblue" points="976.847,-197.685 973.162,-187.751 969.848,-197.814 976.847,-197.685"/>
</g>
<!-- Node4&#45;&gt;Node9 -->
<g id="edge8" class="edge"><title>Node4&#45;&gt;Node9</title>
<path fill="none" stroke="midnightblue" d="M989.694,-224.368C1024.38,-205.292 1107.78,-159.422 1149.44,-136.505"/>
<polygon fill="midnightblue" stroke="midnightblue" points="1151.3,-139.477 1158.38,-131.591 1147.93,-133.344 1151.3,-139.477"/>
</g>
<!-- Node5&#45;&gt;Node6 -->
<g id="edge5" class="edge"><title>Node5&#45;&gt;Node6</title>
<path fill="none" stroke="midnightblue" d="M927.141,-171.674C837.769,-161.296 641.307,-138.481 552.794,-128.202"/>
<polygon fill="midnightblue" stroke="midnightblue" points="553.138,-124.718 542.801,-127.041 552.33,-131.672 553.138,-124.718"/>
</g>
<!-- Node7 -->
<g id="node7" class="node"><title>Node7</title>
<polygon fill="white" stroke="#bfbfbf" points="486.5,-56.5 486.5,-75.5 529.5,-75.5 529.5,-56.5 486.5,-56.5"/>
<text text-anchor="middle" x="508" y="-63.5" font-family="Helvetica,sans-Serif" font-size="10.00">cstdio</text>
</g>
<!-- Node6&#45;&gt;Node7 -->
<g id="edge6" class="edge"><title>Node6&#45;&gt;Node7</title>
<path fill="none" stroke="midnightblue" d="M508,-112.083C508,-105.006 508,-94.8611 508,-85.9865"/>
<polygon fill="midnightblue" stroke="midnightblue" points="511.5,-85.751 508,-75.7511 504.5,-85.7511 511.5,-85.751"/>
</g>
<!-- Node8 -->
<g id="node8" class="node"><title>Node8</title>
<polygon fill="white" stroke="#bfbfbf" points="331.5,-0.5 331.5,-19.5 380.5,-19.5 380.5,-0.5 331.5,-0.5"/>
<text text-anchor="middle" x="356" y="-7.5" font-family="Helvetica,sans-Serif" font-size="10.00">stdint.h</text>
</g>
<!-- Node6&#45;&gt;Node8 -->
<g id="edge7" class="edge"><title>Node6&#45;&gt;Node8</title>
<path fill="none" stroke="midnightblue" d="M496.073,-112.368C470.101,-93.5728 408.189,-48.7684 376.082,-25.5334"/>
<polygon fill="midnightblue" stroke="midnightblue" points="378.025,-22.6187 367.872,-19.5914 373.921,-28.2896 378.025,-22.6187"/>
</g>
<!-- Node9&#45;&gt;Node10 -->
<g id="edge9" class="edge"><title>Node9&#45;&gt;Node10</title>
<path fill="none" stroke="midnightblue" d="M1166.57,-112.083C1160.15,-104.377 1150.69,-93.0333 1142.88,-83.6531"/>
<polygon fill="midnightblue" stroke="midnightblue" points="1145.38,-81.1927 1136.29,-75.7511 1140.01,-85.674 1145.38,-81.1927"/>
</g>
<!-- Node11&#45;&gt;Node6 -->
<g id="edge15" class="edge"><title>Node11&#45;&gt;Node6</title>
<path fill="none" stroke="midnightblue" d="M327.067,-168.444C364.18,-159.122 423.661,-144.183 464.215,-133.997"/>
<polygon fill="midnightblue" stroke="midnightblue" points="465.246,-137.347 474.092,-131.516 463.541,-130.558 465.246,-137.347"/>
</g>
<!-- Node11&#45;&gt;Node12 -->
<g id="edge11" class="edge"><title>Node11&#45;&gt;Node12</title>
<path fill="none" stroke="midnightblue" d="M293,-168.083C293,-161.006 293,-150.861 293,-141.986"/>
<polygon fill="midnightblue" stroke="midnightblue" points="296.5,-141.751 293,-131.751 289.5,-141.751 296.5,-141.751"/>
</g>
<!-- Node12&#45;&gt;Node8 -->
<g id="edge14" class="edge"><title>Node12&#45;&gt;Node8</title>
<path fill="none" stroke="midnightblue" d="M294.137,-112.476C296.151,-99.531 301.196,-74.4699 312,-56 318.505,-44.8797 328.351,-34.4572 337.081,-26.4485"/>
<polygon fill="midnightblue" stroke="midnightblue" points="339.435,-29.0399 344.657,-19.8215 334.826,-23.7712 339.435,-29.0399"/>
</g>
<!-- Node13 -->
<g id="node13" class="node"><title>Node13</title>
<g id="a_node13"><a xlink:href="dji__error_8hpp.html" target="_top" xlink:title="All DJI OSDK OpenProtocol ACK Error Codes. ">
<polygon fill="white" stroke="black" points="321,-56.5 321,-75.5 391,-75.5 391,-56.5 321,-56.5"/>
<text text-anchor="middle" x="356" y="-63.5" font-family="Helvetica,sans-Serif" font-size="10.00">dji_error.hpp</text>
</a>
</g>
</g>
<!-- Node12&#45;&gt;Node13 -->
<g id="edge12" class="edge"><title>Node12&#45;&gt;Node13</title>
<path fill="none" stroke="midnightblue" d="M303.122,-112.324C312.526,-104.263 326.744,-92.0765 338.069,-82.3695"/>
<polygon fill="midnightblue" stroke="midnightblue" points="340.379,-84.9993 345.694,-75.8339 335.823,-79.6844 340.379,-84.9993"/>
</g>
<!-- Node13&#45;&gt;Node8 -->
<g id="edge13" class="edge"><title>Node13&#45;&gt;Node8</title>
<path fill="none" stroke="midnightblue" d="M356,-56.083C356,-49.0059 356,-38.8611 356,-29.9865"/>
<polygon fill="midnightblue" stroke="midnightblue" points="359.5,-29.751 356,-19.7511 352.5,-29.7511 359.5,-29.751"/>
</g>
<!-- Node15&#45;&gt;Node6 -->
<g id="edge29" class="edge"><title>Node15&#45;&gt;Node6</title>
<path fill="none" stroke="midnightblue" d="M863.888,-280.152C851.42,-253.488 814.269,-175.293 804,-168 764.467,-139.921 625.335,-128.868 552.779,-124.938"/>
<polygon fill="midnightblue" stroke="midnightblue" points="552.745,-121.432 542.577,-124.409 552.382,-128.423 552.745,-121.432"/>
</g>
<!-- Node15&#45;&gt;Node9 -->
<g id="edge30" class="edge"><title>Node15&#45;&gt;Node9</title>
<path fill="none" stroke="midnightblue" d="M868.798,-280.31C871.361,-257.801 881.488,-197.314 918,-168 945.807,-145.675 1036.85,-133.764 1102.45,-127.918"/>
<polygon fill="midnightblue" stroke="midnightblue" points="1103.09,-131.376 1112.75,-127.031 1102.49,-124.402 1103.09,-131.376"/>
</g>
<!-- Node15&#45;&gt;Node10 -->
<g id="edge28" class="edge"><title>Node15&#45;&gt;Node10</title>
<path fill="none" stroke="midnightblue" d="M867.334,-280.302C866.156,-258.292 866.26,-199.876 897,-168 945.314,-117.901 1022.69,-91.1278 1074.65,-77.9976"/>
<polygon fill="midnightblue" stroke="midnightblue" points="1075.8,-81.3197 1084.68,-75.5505 1074.14,-74.5189 1075.8,-81.3197"/>
</g>
<!-- Node16 -->
<g id="node16" class="node"><title>Node16</title>
<g id="a_node16"><a xlink:href="dji__ack_8hpp.html" target="_top" xlink:title="All DJI OSDK ACK parsing. ">
<polygon fill="white" stroke="black" points="506,-224.5 506,-243.5 572,-243.5 572,-224.5 506,-224.5"/>
<text text-anchor="middle" x="539" y="-231.5" font-family="Helvetica,sans-Serif" font-size="10.00">dji_ack.hpp</text>
</a>
</g>
</g>
<!-- Node15&#45;&gt;Node16 -->
<g id="edge19" class="edge"><title>Node15&#45;&gt;Node16</title>
<path fill="none" stroke="midnightblue" d="M827.895,-281.71C824.549,-281.124 821.217,-280.547 818,-280 718.16,-263.029 692.948,-260.325 593,-244 589.518,-243.431 585.91,-242.838 582.286,-242.24"/>
<polygon fill="midnightblue" stroke="midnightblue" points="582.559,-238.737 572.121,-240.555 581.415,-245.643 582.559,-238.737"/>
</g>
<!-- Node16&#45;&gt;Node6 -->
<g id="edge23" class="edge"><title>Node16&#45;&gt;Node6</title>
<path fill="none" stroke="midnightblue" d="M572.185,-225.328C607.871,-215.447 656.98,-196.13 637,-168 618.018,-141.274 581.934,-130.289 552.746,-125.839"/>
<polygon fill="midnightblue" stroke="midnightblue" points="553.12,-122.358 542.748,-124.522 552.206,-129.298 553.12,-122.358"/>
</g>
<!-- Node16&#45;&gt;Node12 -->
<g id="edge20" class="edge"><title>Node16&#45;&gt;Node12</title>
<path fill="none" stroke="midnightblue" d="M519.697,-224.368C476.585,-205.091 372.287,-158.454 321.602,-135.789"/>
<polygon fill="midnightblue" stroke="midnightblue" points="322.771,-132.478 312.214,-131.591 319.914,-138.869 322.771,-132.478"/>
</g>
<!-- Node17 -->
<g id="node17" class="node"><title>Node17</title>
<g id="a_node17"><a xlink:href="dji__mission__type_8hpp.html" target="_top" xlink:title="Mission related data struct for DJI OSDK library. ">
<polygon fill="white" stroke="black" points="467,-168.5 467,-187.5 575,-187.5 575,-168.5 467,-168.5"/>
<text text-anchor="middle" x="521" y="-175.5" font-family="Helvetica,sans-Serif" font-size="10.00">dji_mission_type.hpp</text>
</a>
</g>
</g>
<!-- Node16&#45;&gt;Node17 -->
<g id="edge21" class="edge"><title>Node16&#45;&gt;Node17</title>
<path fill="none" stroke="midnightblue" d="M536.028,-224.083C533.616,-216.849 530.136,-206.409 527.132,-197.397"/>
<polygon fill="midnightblue" stroke="midnightblue" points="530.4,-196.131 523.917,-187.751 523.759,-198.345 530.4,-196.131"/>
</g>
<!-- Node16&#45;&gt;Node18 -->
<g id="edge24" class="edge"><title>Node16&#45;&gt;Node18</title>
<path fill="none" stroke="midnightblue" d="M505.87,-229.288C423.188,-220.025 207.296,-195.838 108.142,-184.73"/>
<polygon fill="midnightblue" stroke="midnightblue" points="108.392,-181.236 98.0642,-183.601 107.612,-188.192 108.392,-181.236"/>
</g>
<!-- Node19 -->
<g id="node19" class="node"><title>Node19</title>
<polygon fill="white" stroke="#bfbfbf" points="593.5,-168.5 593.5,-187.5 628.5,-187.5 628.5,-168.5 593.5,-168.5"/>
<text text-anchor="middle" x="611" y="-175.5" font-family="Helvetica,sans-Serif" font-size="10.00">map</text>
</g>
<!-- Node16&#45;&gt;Node19 -->
<g id="edge27" class="edge"><title>Node16&#45;&gt;Node19</title>
<path fill="none" stroke="midnightblue" d="M550.568,-224.324C561.42,-216.185 577.881,-203.839 590.883,-194.087"/>
<polygon fill="midnightblue" stroke="midnightblue" points="593.321,-196.634 599.221,-187.834 589.121,-191.034 593.321,-196.634"/>
</g>
<!-- Node17&#45;&gt;Node6 -->
<g id="edge22" class="edge"><title>Node17&#45;&gt;Node6</title>
<path fill="none" stroke="midnightblue" d="M518.853,-168.083C517.131,-160.927 514.653,-150.635 512.5,-141.691"/>
<polygon fill="midnightblue" stroke="midnightblue" points="515.85,-140.654 510.107,-131.751 509.045,-142.293 515.85,-140.654"/>
</g>
<!-- Node18&#45;&gt;Node3 -->
<g id="edge26" class="edge"><title>Node18&#45;&gt;Node3</title>
<path fill="none" stroke="midnightblue" d="M51.3856,-168.083C46.6326,-160.534 39.6819,-149.495 33.8484,-140.23"/>
<polygon fill="midnightblue" stroke="midnightblue" points="36.7999,-138.349 28.5099,-131.751 30.8763,-142.078 36.7999,-138.349"/>
</g>
<!-- Node18&#45;&gt;Node12 -->
<g id="edge25" class="edge"><title>Node18&#45;&gt;Node12</title>
<path fill="none" stroke="midnightblue" d="M94.3949,-168.444C135.392,-159.063 201.254,-143.993 245.784,-133.804"/>
<polygon fill="midnightblue" stroke="midnightblue" points="246.813,-137.159 255.78,-131.516 245.251,-130.335 246.813,-137.159"/>
</g>
<!-- Node20&#45;&gt;Node6 -->
<g id="edge33" class="edge"><title>Node20&#45;&gt;Node6</title>
<path fill="none" stroke="midnightblue" d="M233.542,-169.528C236.404,-169.005 239.246,-168.491 242,-168 319.593,-154.163 410.115,-139.073 463.04,-130.356"/>
<polygon fill="midnightblue" stroke="midnightblue" points="463.81,-133.776 473.109,-128.7 462.673,-126.869 463.81,-133.776"/>
</g>
<!-- Node20&#45;&gt;Node12 -->
<g id="edge32" class="edge"><title>Node20&#45;&gt;Node12</title>
<path fill="none" stroke="midnightblue" d="M209.906,-168.324C225.638,-159.743 249.942,-146.486 268.209,-136.522"/>
<polygon fill="midnightblue" stroke="midnightblue" points="270.03,-139.516 277.133,-131.655 266.678,-133.37 270.03,-139.516"/>
</g>
<!-- Node22&#45;&gt;Node6 -->
<g id="edge36" class="edge"><title>Node22&#45;&gt;Node6</title>
<path fill="none" stroke="midnightblue" d="M380.187,-280.322C383.528,-258.855 394.817,-202.509 425,-168 437.72,-153.458 456.321,-142.767 472.692,-135.464"/>
<polygon fill="midnightblue" stroke="midnightblue" points="474.146,-138.65 482.012,-131.552 471.437,-132.196 474.146,-138.65"/>
</g>
<!-- Node23&#45;&gt;Node9 -->
<g id="edge38" class="edge"><title>Node23&#45;&gt;Node9</title>
<path fill="none" stroke="midnightblue" d="M1228.37,-224.368C1218.72,-206.376 1196.29,-164.55 1183.45,-140.627"/>
<polygon fill="midnightblue" stroke="midnightblue" points="1186.42,-138.749 1178.61,-131.591 1180.25,-142.058 1186.42,-138.749"/>
</g>
<!-- Node25 -->
<g id="node25" class="node"><title>Node25</title>
<g id="a_node25"><a xlink:href="dji__hotpoint_8hpp.html" target="_top" xlink:title="Implementation of HotPoint (Point of Interest) Missions for DJI OSDK. ">
<polygon fill="white" stroke="black" points="709.5,-224.5 709.5,-243.5 794.5,-243.5 794.5,-224.5 709.5,-224.5"/>
<text text-anchor="middle" x="752" y="-231.5" font-family="Helvetica,sans-Serif" font-size="10.00">dji_hotpoint.hpp</text>
</a>
</g>
</g>
<!-- Node24&#45;&gt;Node25 -->
<g id="edge40" class="edge"><title>Node24&#45;&gt;Node25</title>
<path fill="none" stroke="midnightblue" d="M746.991,-280.083C747.786,-272.927 748.929,-262.635 749.923,-253.691"/>
<polygon fill="midnightblue" stroke="midnightblue" points="753.402,-254.076 751.028,-243.751 746.445,-253.303 753.402,-254.076"/>
</g>
<!-- Node27 -->
<g id="node27" class="node"><title>Node27</title>
<g id="a_node27"><a xlink:href="dji__waypoint_8hpp.html" target="_top" xlink:title="Implementation of GPS Waypoint Missions for DJI OSDK. ">
<polygon fill="white" stroke="black" points="602.5,-224.5 602.5,-243.5 691.5,-243.5 691.5,-224.5 602.5,-224.5"/>
<text text-anchor="middle" x="647" y="-231.5" font-family="Helvetica,sans-Serif" font-size="10.00">dji_waypoint.hpp</text>
</a>
</g>
</g>
<!-- Node24&#45;&gt;Node27 -->
<g id="edge46" class="edge"><title>Node24&#45;&gt;Node27</title>
<path fill="none" stroke="midnightblue" d="M730.094,-280.324C714.362,-271.743 690.058,-258.486 671.791,-248.522"/>
<polygon fill="midnightblue" stroke="midnightblue" points="673.322,-245.37 662.867,-243.655 669.97,-251.516 673.322,-245.37"/>
</g>
<!-- Node25&#45;&gt;Node5 -->
<g id="edge45" class="edge"><title>Node25&#45;&gt;Node5</title>
<path fill="none" stroke="midnightblue" d="M787.018,-224.444C825.248,-215.102 886.567,-200.119 928.257,-189.933"/>
<polygon fill="midnightblue" stroke="midnightblue" points="929.262,-193.29 938.146,-187.516 927.601,-186.49 929.262,-193.29"/>
</g>
<!-- Node26 -->
<g id="node26" class="node"><title>Node26</title>
<g id="a_node26"><a xlink:href="dji__mission__base_8hpp.html" target="_top" xlink:title="Mission&#45;Base abstract class for DJI OSDK library. ">
<polygon fill="white" stroke="black" points="685,-168.5 685,-187.5 795,-187.5 795,-168.5 685,-168.5"/>
<text text-anchor="middle" x="740" y="-175.5" font-family="Helvetica,sans-Serif" font-size="10.00">dji_mission_base.hpp</text>
</a>
</g>
</g>
<!-- Node25&#45;&gt;Node26 -->
<g id="edge41" class="edge"><title>Node25&#45;&gt;Node26</title>
<path fill="none" stroke="midnightblue" d="M750.018,-224.083C748.428,-216.927 746.141,-206.635 744.154,-197.691"/>
<polygon fill="midnightblue" stroke="midnightblue" points="747.531,-196.754 741.945,-187.751 740.697,-198.272 747.531,-196.754"/>
</g>
<!-- Node26&#45;&gt;Node6 -->
<g id="edge43" class="edge"><title>Node26&#45;&gt;Node6</title>
<path fill="none" stroke="midnightblue" d="M703.239,-168.444C662.344,-158.925 596.281,-143.548 552.498,-133.357"/>
<polygon fill="midnightblue" stroke="midnightblue" points="553.228,-129.934 542.695,-131.075 551.641,-136.751 553.228,-129.934"/>
</g>
<!-- Node26&#45;&gt;Node9 -->
<g id="edge44" class="edge"><title>Node26&#45;&gt;Node9</title>
<path fill="none" stroke="midnightblue" d="M795.407,-170.106C873.771,-160.356 1017,-142.535 1103.05,-131.828"/>
<polygon fill="midnightblue" stroke="midnightblue" points="1103.5,-135.299 1112.99,-130.591 1102.64,-128.353 1103.5,-135.299"/>
</g>
<!-- Node26&#45;&gt;Node12 -->
<g id="edge42" class="edge"><title>Node26&#45;&gt;Node12</title>
<path fill="none" stroke="midnightblue" d="M684.741,-170.324C599.334,-160.007 436.128,-140.291 349.797,-129.861"/>
<polygon fill="midnightblue" stroke="midnightblue" points="350.008,-126.362 339.661,-128.637 349.169,-133.311 350.008,-126.362"/>
</g>
<!-- Node27&#45;&gt;Node26 -->
<g id="edge47" class="edge"><title>Node27&#45;&gt;Node26</title>
<path fill="none" stroke="midnightblue" d="M661.942,-224.324C676.585,-215.822 699.134,-202.729 716.238,-192.797"/>
<polygon fill="midnightblue" stroke="midnightblue" points="718.205,-195.703 725.095,-187.655 714.69,-189.649 718.205,-195.703"/>
</g>
<!-- Node28&#45;&gt;Node9 -->
<g id="edge49" class="edge"><title>Node28&#45;&gt;Node9</title>
<path fill="none" stroke="midnightblue" d="M1345.4,-224.368C1313.35,-205.412 1236.56,-160.001 1197.58,-136.942"/>
<polygon fill="midnightblue" stroke="midnightblue" points="1198.92,-133.669 1188.53,-131.591 1195.35,-139.694 1198.92,-133.669"/>
</g>
<!-- Node30&#45;&gt;Node5 -->
<g id="edge54" class="edge"><title>Node30&#45;&gt;Node5</title>
<path fill="none" stroke="midnightblue" d="M1071.46,-224.444C1052.38,-215.636 1022.43,-201.812 1000.56,-191.722"/>
<polygon fill="midnightblue" stroke="midnightblue" points="1002,-188.529 991.452,-187.516 999.065,-194.885 1002,-188.529"/>
</g>
<!-- Node30&#45;&gt;Node9 -->
<g id="edge55" class="edge"><title>Node30&#45;&gt;Node9</title>
<path fill="none" stroke="midnightblue" d="M1096.59,-224.368C1110.52,-206.135 1143.13,-163.426 1161.27,-139.675"/>
<polygon fill="midnightblue" stroke="midnightblue" points="1164.15,-141.663 1167.44,-131.591 1158.59,-137.415 1164.15,-141.663"/>
</g>
<!-- Node30&#45;&gt;Node10 -->
<g id="edge53" class="edge"><title>Node30&#45;&gt;Node10</title>
<path fill="none" stroke="midnightblue" d="M1089.86,-224.248C1089.78,-203.98 1090.99,-152.465 1104,-112 1107.11,-102.338 1112.38,-92.393 1117.28,-84.3173"/>
<polygon fill="midnightblue" stroke="midnightblue" points="1120.27,-86.1343 1122.71,-75.8248 1114.38,-82.3611 1120.27,-86.1343"/>
</g>
</g>
</svg>
