<?xml version="1.0" encoding="UTF-8" standalone="no"?>
<!DOCTYPE svg PUBLIC "-//W3C//DTD SVG 1.1//EN"
 "http://www.w3.org/Graphics/SVG/1.1/DTD/svg11.dtd">
<!-- Generated by graphviz version 2.38.0 (20140413.2041)
 -->
<!-- Title: osdk&#45;core/api/src/dji_virtual_rc.cpp Pages: 1 -->
<svg width="1967pt" height="431pt"
 viewBox="0.00 0.00 1966.74 431.00" xmlns="http://www.w3.org/2000/svg" xmlns:xlink="http://www.w3.org/1999/xlink">
<g id="graph0" class="graph" transform="scale(1 1) rotate(0) translate(4 427)">
<title>osdk&#45;core/api/src/dji_virtual_rc.cpp</title>
<polygon fill="white" stroke="none" points="-4,4 -4,-427 1962.74,-427 1962.74,4 -4,4"/>
<!-- Node1 -->
<g id="node1" class="node"><title>Node1</title>
<polygon fill="#bfbfbf" stroke="black" points="764.741,-392.5 764.741,-422.5 868.741,-422.5 868.741,-392.5 764.741,-392.5"/>
<text text-anchor="start" x="772.741" y="-410.5" font-family="Helvetica,sans-Serif" font-size="10.00">osdk&#45;core/api/src/dji</text>
<text text-anchor="middle" x="816.741" y="-399.5" font-family="Helvetica,sans-Serif" font-size="10.00">_virtual_rc.cpp</text>
</g>
<!-- Node2 -->
<g id="node2" class="node"><title>Node2</title>
<g id="a_node2"><a xlink:href="dji__virtual__rc_8hpp.html" target="_top" xlink:title="Virtual Radio Control API for DJI onboardSDK library. ">
<polygon fill="white" stroke="black" points="433.741,-280.5 433.741,-299.5 523.741,-299.5 523.741,-280.5 433.741,-280.5"/>
<text text-anchor="middle" x="478.741" y="-287.5" font-family="Helvetica,sans-Serif" font-size="10.00">dji_virtual_rc.hpp</text>
</a>
</g>
</g>
<!-- Node1&#45;&gt;Node2 -->
<g id="edge1" class="edge"><title>Node1&#45;&gt;Node2</title>
<path fill="none" stroke="midnightblue" d="M775.633,-392.453C708.471,-369.503 576.413,-324.376 513.568,-302.901"/>
<polygon fill="midnightblue" stroke="midnightblue" points="514.334,-299.464 503.739,-299.542 512.07,-306.088 514.334,-299.464"/>
</g>
<!-- Node15 -->
<g id="node15" class="node"><title>Node15</title>
<g id="a_node15"><a xlink:href="dji__vehicle_8hpp.html" target="_top" xlink:title="Vehicle API for DJI onboardSDK library. ">
<polygon fill="white" stroke="black" points="934.241,-336.5 934.241,-355.5 1015.24,-355.5 1015.24,-336.5 934.241,-336.5"/>
<text text-anchor="middle" x="974.741" y="-343.5" font-family="Helvetica,sans-Serif" font-size="10.00">dji_vehicle.hpp</text>
</a>
</g>
</g>
<!-- Node1&#45;&gt;Node15 -->
<g id="edge20" class="edge"><title>Node1&#45;&gt;Node15</title>
<path fill="none" stroke="midnightblue" d="M854.185,-392.399C880.931,-382.327 916.562,-368.909 942.14,-359.277"/>
<polygon fill="midnightblue" stroke="midnightblue" points="943.626,-362.458 951.751,-355.658 941.159,-355.907 943.626,-362.458"/>
</g>
<!-- Node3 -->
<g id="node3" class="node"><title>Node3</title>
<g id="a_node3"><a xlink:href="dji__ack_8hpp.html" target="_top" xlink:title="All DJI OSDK ACK parsing. ">
<polygon fill="white" stroke="black" points="380.741,-224.5 380.741,-243.5 446.741,-243.5 446.741,-224.5 380.741,-224.5"/>
<text text-anchor="middle" x="413.741" y="-231.5" font-family="Helvetica,sans-Serif" font-size="10.00">dji_ack.hpp</text>
</a>
</g>
</g>
<!-- Node2&#45;&gt;Node3 -->
<g id="edge2" class="edge"><title>Node2&#45;&gt;Node3</title>
<path fill="none" stroke="midnightblue" d="M468.298,-280.324C458.595,-272.263 443.926,-260.077 432.241,-250.369"/>
<polygon fill="midnightblue" stroke="midnightblue" points="434.303,-247.532 424.374,-243.834 429.83,-252.916 434.303,-247.532"/>
</g>
<!-- Node8 -->
<g id="node8" class="node"><title>Node8</title>
<g id="a_node8"><a xlink:href="dji__type_8hpp.html" target="_top" xlink:title="Data type and Data Structure definitions for use throughout DJI OSDK. ">
<polygon fill="white" stroke="black" points="328.241,-112.5 328.241,-131.5 397.241,-131.5 397.241,-112.5 328.241,-112.5"/>
<text text-anchor="middle" x="362.741" y="-119.5" font-family="Helvetica,sans-Serif" font-size="10.00">dji_type.hpp</text>
</a>
</g>
</g>
<!-- Node2&#45;&gt;Node8 -->
<g id="edge17" class="edge"><title>Node2&#45;&gt;Node8</title>
<path fill="none" stroke="midnightblue" d="M439.165,-280.491C394.937,-268.519 326.078,-241.85 299.741,-188 289.396,-166.848 312.74,-148.19 333.882,-136.353"/>
<polygon fill="midnightblue" stroke="midnightblue" points="335.782,-139.308 343.008,-131.559 332.527,-133.111 335.782,-139.308"/>
</g>
<!-- Node13 -->
<g id="node13" class="node"><title>Node13</title>
<polygon fill="white" stroke="#bfbfbf" points="1017.24,-56.5 1017.24,-75.5 1128.24,-75.5 1128.24,-56.5 1017.24,-56.5"/>
<text text-anchor="middle" x="1072.74" y="-63.5" font-family="Helvetica,sans-Serif" font-size="10.00">dji_open_protocol.hpp</text>
</g>
<!-- Node2&#45;&gt;Node13 -->
<g id="edge16" class="edge"><title>Node2&#45;&gt;Node13</title>
<path fill="none" stroke="midnightblue" d="M523.923,-281.472C597.978,-269.109 737.556,-245.697 742.741,-244 795.634,-226.692 811.025,-222.441 854.741,-188 889.428,-160.672 881.746,-136.111 918.741,-112 945.147,-94.7901 978.298,-84.0022 1007.07,-77.3216"/>
<polygon fill="midnightblue" stroke="midnightblue" points="1008.04,-80.6935 1017.05,-75.126 1006.53,-73.8571 1008.04,-80.6935"/>
</g>
<!-- Node14 -->
<g id="node14" class="node"><title>Node14</title>
<g id="a_node14"><a xlink:href="dji__telemetry_8hpp.html" target="_top" xlink:title="Enumeration of all telemetry data types, structures and maps. ">
<polygon fill="white" stroke="black" points="755.241,-168.5 755.241,-187.5 846.241,-187.5 846.241,-168.5 755.241,-168.5"/>
<text text-anchor="middle" x="800.741" y="-175.5" font-family="Helvetica,sans-Serif" font-size="10.00">dji_telemetry.hpp</text>
</a>
</g>
</g>
<!-- Node2&#45;&gt;Node14 -->
<g id="edge18" class="edge"><title>Node2&#45;&gt;Node14</title>
<path fill="none" stroke="midnightblue" d="M497.811,-280.495C527.688,-267.354 587.522,-241.777 639.741,-224 678.415,-210.834 723.237,-198.541 755.752,-190.142"/>
<polygon fill="midnightblue" stroke="midnightblue" points="757.034,-193.427 765.853,-187.556 755.298,-186.646 757.034,-193.427"/>
</g>
<!-- Node4 -->
<g id="node4" class="node"><title>Node4</title>
<g id="a_node4"><a xlink:href="dji__command_8hpp.html" target="_top" xlink:title="All DJI OSDK OpenProtocol Command IDs. ">
<polygon fill="white" stroke="black" points="126.241,-112.5 126.241,-131.5 219.241,-131.5 219.241,-112.5 126.241,-112.5"/>
<text text-anchor="middle" x="172.741" y="-119.5" font-family="Helvetica,sans-Serif" font-size="10.00">dji_command.hpp</text>
</a>
</g>
</g>
<!-- Node3&#45;&gt;Node4 -->
<g id="edge3" class="edge"><title>Node3&#45;&gt;Node4</title>
<path fill="none" stroke="midnightblue" d="M380.486,-229.743C287.41,-220.552 30.6628,-194.646 24.741,-188 -5.60053,-153.946 62.2354,-136.933 115.819,-129.049"/>
<polygon fill="midnightblue" stroke="midnightblue" points="116.55,-132.481 125.972,-127.636 115.585,-125.548 116.55,-132.481"/>
</g>
<!-- Node7 -->
<g id="node7" class="node"><title>Node7</title>
<g id="a_node7"><a xlink:href="dji__mission__type_8hpp.html" target="_top" xlink:title="Mission related data struct for DJI OSDK library. ">
<polygon fill="white" stroke="black" points="308.741,-168.5 308.741,-187.5 416.741,-187.5 416.741,-168.5 308.741,-168.5"/>
<text text-anchor="middle" x="362.741" y="-175.5" font-family="Helvetica,sans-Serif" font-size="10.00">dji_mission_type.hpp</text>
</a>
</g>
</g>
<!-- Node3&#45;&gt;Node7 -->
<g id="edge7" class="edge"><title>Node3&#45;&gt;Node7</title>
<path fill="none" stroke="midnightblue" d="M405.319,-224.083C397.893,-216.22 386.889,-204.569 377.929,-195.081"/>
<polygon fill="midnightblue" stroke="midnightblue" points="380.417,-192.618 371.006,-187.751 375.328,-197.424 380.417,-192.618"/>
</g>
<!-- Node3&#45;&gt;Node8 -->
<g id="edge11" class="edge"><title>Node3&#45;&gt;Node8</title>
<path fill="none" stroke="midnightblue" d="M418.785,-224.071C425.42,-211.04 435.193,-186.366 425.741,-168 418.664,-154.247 405.22,-143.766 392.563,-136.394"/>
<polygon fill="midnightblue" stroke="midnightblue" points="394.054,-133.222 383.588,-131.573 390.742,-139.389 394.054,-133.222"/>
</g>
<!-- Node10 -->
<g id="node10" class="node"><title>Node10</title>
<g id="a_node10"><a xlink:href="dji__version_8hpp.html" target="_top" xlink:title="Drone/SDK Version definition for DJI onboardSDK library. ">
<polygon fill="white" stroke="black" points="526.741,-168.5 526.741,-187.5 608.741,-187.5 608.741,-168.5 526.741,-168.5"/>
<text text-anchor="middle" x="567.741" y="-175.5" font-family="Helvetica,sans-Serif" font-size="10.00">dji_version.hpp</text>
</a>
</g>
</g>
<!-- Node3&#45;&gt;Node10 -->
<g id="edge12" class="edge"><title>Node3&#45;&gt;Node10</title>
<path fill="none" stroke="midnightblue" d="M438.143,-224.444C463.938,-215.399 504.818,-201.064 533.759,-190.916"/>
<polygon fill="midnightblue" stroke="midnightblue" points="535.175,-194.128 543.453,-187.516 532.859,-187.523 535.175,-194.128"/>
</g>
<!-- Node12 -->
<g id="node12" class="node"><title>Node12</title>
<polygon fill="white" stroke="#bfbfbf" points="473.241,-168.5 473.241,-187.5 508.241,-187.5 508.241,-168.5 473.241,-168.5"/>
<text text-anchor="middle" x="490.741" y="-175.5" font-family="Helvetica,sans-Serif" font-size="10.00">map</text>
</g>
<!-- Node3&#45;&gt;Node12 -->
<g id="edge15" class="edge"><title>Node3&#45;&gt;Node12</title>
<path fill="none" stroke="midnightblue" d="M426.112,-224.324C437.899,-216.058 455.873,-203.453 469.877,-193.632"/>
<polygon fill="midnightblue" stroke="midnightblue" points="472.223,-196.262 478.4,-187.655 468.203,-190.531 472.223,-196.262"/>
</g>
<!-- Node5 -->
<g id="node5" class="node"><title>Node5</title>
<g id="a_node5"><a xlink:href="dji__error_8hpp.html" target="_top" xlink:title="All DJI OSDK OpenProtocol ACK Error Codes. ">
<polygon fill="white" stroke="black" points="137.741,-56.5 137.741,-75.5 207.741,-75.5 207.741,-56.5 137.741,-56.5"/>
<text text-anchor="middle" x="172.741" y="-63.5" font-family="Helvetica,sans-Serif" font-size="10.00">dji_error.hpp</text>
</a>
</g>
</g>
<!-- Node4&#45;&gt;Node5 -->
<g id="edge4" class="edge"><title>Node4&#45;&gt;Node5</title>
<path fill="none" stroke="midnightblue" d="M172.741,-112.083C172.741,-105.006 172.741,-94.8611 172.741,-85.9865"/>
<polygon fill="midnightblue" stroke="midnightblue" points="176.241,-85.751 172.741,-75.7511 169.241,-85.7511 176.241,-85.751"/>
</g>
<!-- Node6 -->
<g id="node6" class="node"><title>Node6</title>
<polygon fill="white" stroke="#bfbfbf" points="211.241,-0.5 211.241,-19.5 260.241,-19.5 260.241,-0.5 211.241,-0.5"/>
<text text-anchor="middle" x="235.741" y="-7.5" font-family="Helvetica,sans-Serif" font-size="10.00">stdint.h</text>
</g>
<!-- Node4&#45;&gt;Node6 -->
<g id="edge6" class="edge"><title>Node4&#45;&gt;Node6</title>
<path fill="none" stroke="midnightblue" d="M184.084,-112.179C194.048,-103.859 208.245,-90.5244 216.741,-76 225.181,-61.5704 230.107,-43.1178 232.819,-29.5626"/>
<polygon fill="midnightblue" stroke="midnightblue" points="236.299,-29.9822 234.604,-19.5238 229.407,-28.7564 236.299,-29.9822"/>
</g>
<!-- Node5&#45;&gt;Node6 -->
<g id="edge5" class="edge"><title>Node5&#45;&gt;Node6</title>
<path fill="none" stroke="midnightblue" d="M182.863,-56.324C192.267,-48.2631 206.485,-36.0765 217.81,-26.3695"/>
<polygon fill="midnightblue" stroke="midnightblue" points="220.12,-28.9993 225.435,-19.8339 215.564,-23.6844 220.12,-28.9993"/>
</g>
<!-- Node7&#45;&gt;Node8 -->
<g id="edge8" class="edge"><title>Node7&#45;&gt;Node8</title>
<path fill="none" stroke="midnightblue" d="M362.741,-168.083C362.741,-161.006 362.741,-150.861 362.741,-141.986"/>
<polygon fill="midnightblue" stroke="midnightblue" points="366.241,-141.751 362.741,-131.751 359.241,-141.751 366.241,-141.751"/>
</g>
<!-- Node8&#45;&gt;Node6 -->
<g id="edge10" class="edge"><title>Node8&#45;&gt;Node6</title>
<path fill="none" stroke="midnightblue" d="M362.344,-112.29C361.273,-98.6394 357.319,-72.1073 342.741,-56 323.894,-35.1752 293.853,-23.6874 270.393,-17.5426"/>
<polygon fill="midnightblue" stroke="midnightblue" points="271.01,-14.0912 260.469,-15.1527 269.371,-20.8966 271.01,-14.0912"/>
</g>
<!-- Node9 -->
<g id="node9" class="node"><title>Node9</title>
<polygon fill="white" stroke="#bfbfbf" points="291.241,-56.5 291.241,-75.5 334.241,-75.5 334.241,-56.5 291.241,-56.5"/>
<text text-anchor="middle" x="312.741" y="-63.5" font-family="Helvetica,sans-Serif" font-size="10.00">cstdio</text>
</g>
<!-- Node8&#45;&gt;Node9 -->
<g id="edge9" class="edge"><title>Node8&#45;&gt;Node9</title>
<path fill="none" stroke="midnightblue" d="M354.485,-112.083C347.276,-104.298 336.631,-92.8015 327.895,-83.3665"/>
<polygon fill="midnightblue" stroke="midnightblue" points="330.206,-80.7108 320.844,-75.7511 325.07,-85.4666 330.206,-80.7108"/>
</g>
<!-- Node10&#45;&gt;Node4 -->
<g id="edge13" class="edge"><title>Node10&#45;&gt;Node4</title>
<path fill="none" stroke="midnightblue" d="M526.571,-169.572C523.248,-169.022 519.94,-168.491 516.741,-168 415.805,-152.5 297.678,-137.793 229.405,-129.627"/>
<polygon fill="midnightblue" stroke="midnightblue" points="229.638,-126.13 219.294,-128.422 228.81,-133.081 229.638,-126.13"/>
</g>
<!-- Node11 -->
<g id="node11" class="node"><title>Node11</title>
<polygon fill="white" stroke="#bfbfbf" points="927.741,-112.5 927.741,-131.5 973.741,-131.5 973.741,-112.5 927.741,-112.5"/>
<text text-anchor="middle" x="950.741" y="-119.5" font-family="Helvetica,sans-Serif" font-size="10.00">cstdint</text>
</g>
<!-- Node10&#45;&gt;Node11 -->
<g id="edge14" class="edge"><title>Node10&#45;&gt;Node11</title>
<path fill="none" stroke="midnightblue" d="M608.918,-169.441C611.901,-168.938 614.866,-168.453 617.741,-168 727.284,-150.748 857.748,-134.306 917.668,-126.982"/>
<polygon fill="midnightblue" stroke="midnightblue" points="918.175,-130.447 927.678,-125.764 917.329,-123.498 918.175,-130.447"/>
</g>
<!-- Node14&#45;&gt;Node8 -->
<g id="edge19" class="edge"><title>Node14&#45;&gt;Node8</title>
<path fill="none" stroke="midnightblue" d="M755.147,-169.376C751.966,-168.894 748.807,-168.431 745.741,-168 623.623,-150.843 478.962,-135.08 407.415,-127.586"/>
<polygon fill="midnightblue" stroke="midnightblue" points="407.71,-124.098 397.401,-126.541 406.984,-131.06 407.71,-124.098"/>
</g>
<!-- Node15&#45;&gt;Node2 -->
<g id="edge69" class="edge"><title>Node15&#45;&gt;Node2</title>
<path fill="none" stroke="midnightblue" d="M934.115,-341.735C857.802,-335.414 687.614,-320.423 533.89,-300.076"/>
<polygon fill="midnightblue" stroke="midnightblue" points="534.165,-296.582 523.79,-298.729 533.239,-303.521 534.165,-296.582"/>
</g>
<!-- Node15&#45;&gt;Node4 -->
<g id="edge30" class="edge"><title>Node15&#45;&gt;Node4</title>
<path fill="none" stroke="midnightblue" d="M934.003,-343.999C781.268,-340.069 247.689,-324.691 175.741,-300 87.8948,-269.853 -42.2803,-242.077 13.741,-168 26.2638,-151.441 75.4497,-139.222 115.839,-131.729"/>
<polygon fill="midnightblue" stroke="midnightblue" points="116.666,-135.136 125.891,-129.926 115.43,-128.246 116.666,-135.136"/>
</g>
<!-- Node15&#45;&gt;Node8 -->
<g id="edge66" class="edge"><title>Node15&#45;&gt;Node8</title>
<path fill="none" stroke="midnightblue" d="M934.035,-338.189C907.526,-332.004 873.57,-320.576 849.741,-300 822.256,-276.267 806.081,-257.647 819.741,-224 830.782,-196.806 874.527,-189.678 854.741,-168 824.918,-135.324 523.625,-126.089 407.784,-123.735"/>
<polygon fill="midnightblue" stroke="midnightblue" points="407.558,-120.23 397.491,-123.534 407.421,-127.229 407.558,-120.23"/>
</g>
<!-- Node15&#45;&gt;Node10 -->
<g id="edge68" class="edge"><title>Node15&#45;&gt;Node10</title>
<path fill="none" stroke="midnightblue" d="M934.117,-339.58C868.216,-329.355 735.726,-302.738 639.741,-244 617.647,-230.48 596.111,-209.741 582.438,-195.339"/>
<polygon fill="midnightblue" stroke="midnightblue" points="584.716,-192.649 575.351,-187.695 579.583,-197.408 584.716,-192.649"/>
</g>
<!-- Node15&#45;&gt;Node11 -->
<g id="edge21" class="edge"><title>Node15&#45;&gt;Node11</title>
<path fill="none" stroke="midnightblue" d="M973.8,-336.297C970.269,-303.633 957.754,-187.866 952.79,-141.957"/>
<polygon fill="midnightblue" stroke="midnightblue" points="956.256,-141.45 951.701,-131.884 949.297,-142.202 956.256,-141.45"/>
</g>
<!-- Node15&#45;&gt;Node13 -->
<g id="edge58" class="edge"><title>Node15&#45;&gt;Node13</title>
<path fill="none" stroke="midnightblue" d="M1015.43,-345.352C1186.69,-346.527 1843.75,-347.859 1921.74,-300 1950.07,-282.614 1958.74,-268.241 1958.74,-235 1958.74,-235 1958.74,-235 1958.74,-177 1958.74,-94.3559 1343.8,-73.0672 1138.54,-68.2632"/>
<polygon fill="midnightblue" stroke="midnightblue" points="1138.58,-64.7632 1128.5,-68.0338 1138.42,-71.7614 1138.58,-64.7632"/>
</g>
<!-- Node16 -->
<g id="node16" class="node"><title>Node16</title>
<g id="a_node16"><a xlink:href="dji__broadcast_8hpp.html" target="_top" xlink:title="Broadcast Telemetry API for DJI onboardSDK library. ">
<polygon fill="white" stroke="black" points="829.241,-224.5 829.241,-243.5 922.241,-243.5 922.241,-224.5 829.241,-224.5"/>
<text text-anchor="middle" x="875.741" y="-231.5" font-family="Helvetica,sans-Serif" font-size="10.00">dji_broadcast.hpp</text>
</a>
</g>
</g>
<!-- Node15&#45;&gt;Node16 -->
<g id="edge22" class="edge"><title>Node15&#45;&gt;Node16</title>
<path fill="none" stroke="midnightblue" d="M934.208,-340.965C907.651,-335.98 874.805,-324.846 857.741,-300 847.938,-285.727 855.466,-266.255 863.574,-252.353"/>
<polygon fill="midnightblue" stroke="midnightblue" points="866.636,-254.061 869.074,-243.75 860.739,-250.29 866.636,-254.061"/>
</g>
<!-- Node17 -->
<g id="node17" class="node"><title>Node17</title>
<g id="a_node17"><a xlink:href="dji__vehicle__callback_8hpp.html" target="_top" xlink:title="Type definition for new Vehicle&#45;style callbacks. ">
<polygon fill="white" stroke="black" points="1125.74,-112.5 1125.74,-131.5 1247.74,-131.5 1247.74,-112.5 1125.74,-112.5"/>
<text text-anchor="middle" x="1186.74" y="-119.5" font-family="Helvetica,sans-Serif" font-size="10.00">dji_vehicle_callback.hpp</text>
</a>
</g>
</g>
<!-- Node15&#45;&gt;Node17 -->
<g id="edge67" class="edge"><title>Node15&#45;&gt;Node17</title>
<path fill="none" stroke="midnightblue" d="M1015.47,-344.527C1188.17,-342.327 1852.46,-331.817 1882.74,-300 1905.96,-275.602 2007.96,-301.331 1880.74,-168 1838.42,-123.646 1426.43,-121.346 1257.97,-122.289"/>
<polygon fill="midnightblue" stroke="midnightblue" points="1257.94,-118.789 1247.96,-122.35 1257.98,-125.789 1257.94,-118.789"/>
</g>
<!-- Node18 -->
<g id="node18" class="node"><title>Node18</title>
<g id="a_node18"><a xlink:href="dji__camera_8hpp.html" target="_top" xlink:title="Camera/Gimbal API for DJI onboardSDK library. ">
<polygon fill="white" stroke="black" points="131.241,-168.5 131.241,-187.5 214.241,-187.5 214.241,-168.5 131.241,-168.5"/>
<text text-anchor="middle" x="172.741" y="-175.5" font-family="Helvetica,sans-Serif" font-size="10.00">dji_camera.hpp</text>
</a>
</g>
</g>
<!-- Node15&#45;&gt;Node18 -->
<g id="edge26" class="edge"><title>Node15&#45;&gt;Node18</title>
<path fill="none" stroke="midnightblue" d="M934.065,-345.273C834.364,-345.245 570.235,-340.959 354.741,-300 272.849,-284.435 226.642,-310.012 175.741,-244 165.726,-231.011 166.106,-211.849 168.311,-197.692"/>
<polygon fill="midnightblue" stroke="midnightblue" points="171.795,-198.116 170.307,-187.626 164.929,-196.754 171.795,-198.116"/>
</g>
<!-- Node19 -->
<g id="node19" class="node"><title>Node19</title>
<polygon fill="white" stroke="#bfbfbf" points="1078.74,-280.5 1078.74,-299.5 1190.74,-299.5 1190.74,-280.5 1078.74,-280.5"/>
<text text-anchor="middle" x="1134.74" y="-287.5" font-family="Helvetica,sans-Serif" font-size="10.00">dji_circular_buffer.hpp</text>
</g>
<!-- Node15&#45;&gt;Node19 -->
<g id="edge29" class="edge"><title>Node15&#45;&gt;Node19</title>
<path fill="none" stroke="midnightblue" d="M1000.09,-336.444C1027.01,-327.359 1069.74,-312.939 1099.83,-302.783"/>
<polygon fill="midnightblue" stroke="midnightblue" points="1101.15,-306.031 1109.51,-299.516 1098.91,-299.398 1101.15,-306.031"/>
</g>
<!-- Node20 -->
<g id="node20" class="node"><title>Node20</title>
<g id="a_node20"><a xlink:href="dji__control_8hpp.html" target="_top" xlink:title="Control API for DJI OSDK library. ">
<polygon fill="white" stroke="black" points="866.741,-280.5 866.741,-299.5 946.741,-299.5 946.741,-280.5 866.741,-280.5"/>
<text text-anchor="middle" x="906.741" y="-287.5" font-family="Helvetica,sans-Serif" font-size="10.00">dji_control.hpp</text>
</a>
</g>
</g>
<!-- Node15&#45;&gt;Node20 -->
<g id="edge31" class="edge"><title>Node15&#45;&gt;Node20</title>
<path fill="none" stroke="midnightblue" d="M963.816,-336.324C953.566,-328.185 938.02,-315.839 925.74,-306.087"/>
<polygon fill="midnightblue" stroke="midnightblue" points="927.873,-303.312 917.865,-299.834 923.52,-308.794 927.873,-303.312"/>
</g>
<!-- Node21 -->
<g id="node21" class="node"><title>Node21</title>
<g id="a_node21"><a xlink:href="dji__gimbal_8hpp.html" target="_top" xlink:title="Gimbal API for OSDK library. ">
<polygon fill="white" stroke="black" points="34.241,-168.5 34.241,-187.5 113.241,-187.5 113.241,-168.5 34.241,-168.5"/>
<text text-anchor="middle" x="73.741" y="-175.5" font-family="Helvetica,sans-Serif" font-size="10.00">dji_gimbal.hpp</text>
</a>
</g>
</g>
<!-- Node15&#45;&gt;Node21 -->
<g id="edge36" class="edge"><title>Node15&#45;&gt;Node21</title>
<path fill="none" stroke="midnightblue" d="M934.088,-344.12C786.005,-340.708 280.605,-327.165 213.741,-300 157.879,-277.305 108.676,-222.849 86.3943,-195.402"/>
<polygon fill="midnightblue" stroke="midnightblue" points="89.0909,-193.169 80.1317,-187.514 83.6087,-197.522 89.0909,-193.169"/>
</g>
<!-- Node22 -->
<g id="node22" class="node"><title>Node22</title>
<polygon fill="white" stroke="#bfbfbf" points="1208.74,-280.5 1208.74,-299.5 1306.74,-299.5 1306.74,-280.5 1208.74,-280.5"/>
<text text-anchor="middle" x="1257.74" y="-287.5" font-family="Helvetica,sans-Serif" font-size="10.00">dji_hard_driver.hpp</text>
</g>
<!-- Node15&#45;&gt;Node22 -->
<g id="edge39" class="edge"><title>Node15&#45;&gt;Node22</title>
<path fill="none" stroke="midnightblue" d="M1015.29,-337.263C1064.64,-327.846 1148.18,-311.906 1203.15,-301.417"/>
<polygon fill="midnightblue" stroke="midnightblue" points="1203.9,-304.837 1213.07,-299.524 1202.59,-297.961 1203.9,-304.837"/>
</g>
<!-- Node23 -->
<g id="node23" class="node"><title>Node23</title>
<g id="a_node23"><a xlink:href="dji__hardware__sync_8hpp.html" target="_top" xlink:title="Hardware Sync API for DJI OSDK. ">
<polygon fill="white" stroke="black" points="184.741,-224.5 184.741,-243.5 300.741,-243.5 300.741,-224.5 184.741,-224.5"/>
<text text-anchor="middle" x="242.741" y="-231.5" font-family="Helvetica,sans-Serif" font-size="10.00">dji_hardware_sync.hpp</text>
</a>
</g>
</g>
<!-- Node15&#45;&gt;Node23 -->
<g id="edge40" class="edge"><title>Node15&#45;&gt;Node23</title>
<path fill="none" stroke="midnightblue" d="M934.189,-345.279C842.381,-345.132 612.048,-340.38 424.741,-300 368.62,-287.901 306.212,-262.937 270.994,-247.711"/>
<polygon fill="midnightblue" stroke="midnightblue" points="271.956,-244.312 261.391,-243.508 269.149,-250.724 271.956,-244.312"/>
</g>
<!-- Node24 -->
<g id="node24" class="node"><title>Node24</title>
<g id="a_node24"><a xlink:href="dji__mfio_8hpp.html" target="_top" xlink:title="MFIO API for DJI OSDK library. ">
<polygon fill="white" stroke="black" points="1215.24,-224.5 1215.24,-243.5 1284.24,-243.5 1284.24,-224.5 1215.24,-224.5"/>
<text text-anchor="middle" x="1249.74" y="-231.5" font-family="Helvetica,sans-Serif" font-size="10.00">dji_mfio.hpp</text>
</a>
</g>
</g>
<!-- Node15&#45;&gt;Node24 -->
<g id="edge42" class="edge"><title>Node15&#45;&gt;Node24</title>
<path fill="none" stroke="midnightblue" d="M986.304,-336.319C1007.55,-320.496 1052.24,-287.867 1069.74,-280 1093.71,-269.224 1160.24,-253.905 1205.35,-244.211"/>
<polygon fill="midnightblue" stroke="midnightblue" points="1206.14,-247.621 1215.19,-242.112 1204.68,-240.775 1206.14,-247.621"/>
</g>
<!-- Node25 -->
<g id="node25" class="node"><title>Node25</title>
<g id="a_node25"><a xlink:href="dji__mission__manager_8hpp.html" target="_top" xlink:title="Mission&#45;Manager API for DJI OSDK library. ">
<polygon fill="white" stroke="black" points="542.241,-280.5 542.241,-299.5 669.241,-299.5 669.241,-280.5 542.241,-280.5"/>
<text text-anchor="middle" x="605.741" y="-287.5" font-family="Helvetica,sans-Serif" font-size="10.00">dji_mission_manager.hpp</text>
</a>
</g>
</g>
<!-- Node15&#45;&gt;Node25 -->
<g id="edge44" class="edge"><title>Node15&#45;&gt;Node25</title>
<path fill="none" stroke="midnightblue" d="M934.196,-339.067C871.485,-329.889 750.247,-312.147 673.902,-300.975"/>
<polygon fill="midnightblue" stroke="midnightblue" points="674.301,-297.496 663.9,-299.511 673.288,-304.422 674.301,-297.496"/>
</g>
<!-- Node29 -->
<g id="node29" class="node"><title>Node29</title>
<g id="a_node29"><a xlink:href="dji__mobile__communication_8hpp.html" target="_top" xlink:title="Implementation of DJI Mobile&#45;Onboard SDK Communication (MOC) ">
<polygon fill="white" stroke="black" points="1704.74,-280.5 1704.74,-299.5 1854.74,-299.5 1854.74,-280.5 1704.74,-280.5"/>
<text text-anchor="middle" x="1779.74" y="-287.5" font-family="Helvetica,sans-Serif" font-size="10.00">dji_mobile_communication.hpp</text>
</a>
</g>
</g>
<!-- Node15&#45;&gt;Node29 -->
<g id="edge53" class="edge"><title>Node15&#45;&gt;Node29</title>
<path fill="none" stroke="midnightblue" d="M1015.44,-343.094C1123.91,-337.88 1429.17,-322.322 1694.44,-300.074"/>
<polygon fill="midnightblue" stroke="midnightblue" points="1694.98,-303.541 1704.65,-299.212 1694.39,-296.565 1694.98,-303.541"/>
</g>
<!-- Node31 -->
<g id="node31" class="node"><title>Node31</title>
<g id="a_node31"><a xlink:href="dji__mobile__device_8hpp.html" target="_top" xlink:title="Implementation of DJI Mobile Device Abstraction. ">
<polygon fill="white" stroke="black" points="1759.24,-168.5 1759.24,-187.5 1872.24,-187.5 1872.24,-168.5 1759.24,-168.5"/>
<text text-anchor="middle" x="1815.74" y="-175.5" font-family="Helvetica,sans-Serif" font-size="10.00">dji_mobile_device.hpp</text>
</a>
</g>
</g>
<!-- Node15&#45;&gt;Node31 -->
<g id="edge56" class="edge"><title>Node15&#45;&gt;Node31</title>
<path fill="none" stroke="midnightblue" d="M1015.48,-344.482C1185.89,-342.121 1834.16,-331.116 1863.74,-300 1892.4,-269.849 1855.03,-220.497 1831.77,-195.146"/>
<polygon fill="midnightblue" stroke="midnightblue" points="1834.23,-192.66 1824.81,-187.813 1829.15,-197.477 1834.23,-192.66"/>
</g>
<!-- Node32 -->
<g id="node32" class="node"><title>Node32</title>
<polygon fill="white" stroke="#bfbfbf" points="1324.74,-280.5 1324.74,-299.5 1452.74,-299.5 1452.74,-280.5 1324.74,-280.5"/>
<text text-anchor="middle" x="1388.74" y="-287.5" font-family="Helvetica,sans-Serif" font-size="10.00">dji_platform_manager.hpp</text>
</g>
<!-- Node15&#45;&gt;Node32 -->
<g id="edge59" class="edge"><title>Node15&#45;&gt;Node32</title>
<path fill="none" stroke="midnightblue" d="M1015.57,-339.674C1085.03,-330.614 1227.16,-312.075 1314.58,-300.674"/>
<polygon fill="midnightblue" stroke="midnightblue" points="1315.23,-304.118 1324.69,-299.354 1314.32,-297.177 1315.23,-304.118"/>
</g>
<!-- Node33 -->
<g id="node33" class="node"><title>Node33</title>
<g id="a_node33"><a xlink:href="dji__status_8hpp.html" target="_top" xlink:title="Status information for DJI Vehicle. ">
<polygon fill="white" stroke="black" points="1471.24,-280.5 1471.24,-299.5 1548.24,-299.5 1548.24,-280.5 1471.24,-280.5"/>
<text text-anchor="middle" x="1509.74" y="-287.5" font-family="Helvetica,sans-Serif" font-size="10.00">dji_status.hpp</text>
</a>
</g>
</g>
<!-- Node15&#45;&gt;Node33 -->
<g id="edge60" class="edge"><title>Node15&#45;&gt;Node33</title>
<path fill="none" stroke="midnightblue" d="M1015.29,-342.536C1097.42,-337.269 1289.42,-323.552 1461.05,-299.966"/>
<polygon fill="midnightblue" stroke="midnightblue" points="1461.6,-303.423 1471.02,-298.581 1460.63,-296.49 1461.6,-303.423"/>
</g>
<!-- Node34 -->
<g id="node34" class="node"><title>Node34</title>
<g id="a_node34"><a xlink:href="dji__subscription_8hpp.html" target="_top" xlink:title="Telemetry Subscription API for DJI OSDK library. ">
<polygon fill="white" stroke="black" points="1055.24,-224.5 1055.24,-243.5 1158.24,-243.5 1158.24,-224.5 1055.24,-224.5"/>
<text text-anchor="middle" x="1106.74" y="-231.5" font-family="Helvetica,sans-Serif" font-size="10.00">dji_subscription.hpp</text>
</a>
</g>
</g>
<!-- Node15&#45;&gt;Node34 -->
<g id="edge61" class="edge"><title>Node15&#45;&gt;Node34</title>
<path fill="none" stroke="midnightblue" d="M981.801,-336.376C992.751,-323.3 1014.85,-298.071 1036.74,-280 1050.95,-268.267 1068.38,-257.053 1082.29,-248.755"/>
<polygon fill="midnightblue" stroke="midnightblue" points="1084.41,-251.572 1091.28,-243.505 1080.88,-245.527 1084.41,-251.572"/>
</g>
<!-- Node35 -->
<g id="node35" class="node"><title>Node35</title>
<polygon fill="white" stroke="#bfbfbf" points="1566.74,-280.5 1566.74,-299.5 1686.74,-299.5 1686.74,-280.5 1566.74,-280.5"/>
<text text-anchor="middle" x="1626.74" y="-287.5" font-family="Helvetica,sans-Serif" font-size="10.00">dji_thread_manager.hpp</text>
</g>
<!-- Node15&#45;&gt;Node35 -->
<g id="edge65" class="edge"><title>Node15&#45;&gt;Node35</title>
<path fill="none" stroke="midnightblue" d="M1015.38,-342.57C1108.8,-336.829 1346.28,-321.366 1556.45,-299.974"/>
<polygon fill="midnightblue" stroke="midnightblue" points="1556.84,-303.452 1566.43,-298.951 1556.13,-296.488 1556.84,-303.452"/>
</g>
<!-- Node16&#45;&gt;Node14 -->
<g id="edge23" class="edge"><title>Node16&#45;&gt;Node14</title>
<path fill="none" stroke="midnightblue" d="M863.691,-224.324C852.278,-216.107 834.91,-203.602 821.306,-193.807"/>
<polygon fill="midnightblue" stroke="midnightblue" points="823.171,-190.837 813.01,-187.834 819.081,-196.517 823.171,-190.837"/>
</g>
<!-- Node16&#45;&gt;Node17 -->
<g id="edge24" class="edge"><title>Node16&#45;&gt;Node17</title>
<path fill="none" stroke="midnightblue" d="M899.886,-224.46C954.886,-205.006 1089.61,-157.355 1152.88,-134.977"/>
<polygon fill="midnightblue" stroke="midnightblue" points="1154.14,-138.245 1162.4,-131.61 1151.8,-131.645 1154.14,-138.245"/>
</g>
<!-- Node17&#45;&gt;Node13 -->
<g id="edge25" class="edge"><title>Node17&#45;&gt;Node13</title>
<path fill="none" stroke="midnightblue" d="M1168.68,-112.444C1150.17,-103.675 1121.16,-89.9355 1099.89,-79.8579"/>
<polygon fill="midnightblue" stroke="midnightblue" points="1101.26,-76.6343 1090.72,-75.5164 1098.26,-82.9604 1101.26,-76.6343"/>
</g>
<!-- Node18&#45;&gt;Node4 -->
<g id="edge27" class="edge"><title>Node18&#45;&gt;Node4</title>
<path fill="none" stroke="midnightblue" d="M172.741,-168.083C172.741,-161.006 172.741,-150.861 172.741,-141.986"/>
<polygon fill="midnightblue" stroke="midnightblue" points="176.241,-141.751 172.741,-131.751 169.241,-141.751 176.241,-141.751"/>
</g>
<!-- Node18&#45;&gt;Node8 -->
<g id="edge28" class="edge"><title>Node18&#45;&gt;Node8</title>
<path fill="none" stroke="midnightblue" d="M202.847,-168.444C235.367,-159.201 287.32,-144.436 323.132,-134.257"/>
<polygon fill="midnightblue" stroke="midnightblue" points="324.114,-137.617 332.776,-131.516 322.2,-130.884 324.114,-137.617"/>
</g>
<!-- Node20&#45;&gt;Node3 -->
<g id="edge32" class="edge"><title>Node20&#45;&gt;Node3</title>
<path fill="none" stroke="midnightblue" d="M866.733,-286.514C789.489,-281.39 614.298,-268.191 457.452,-244.112"/>
<polygon fill="midnightblue" stroke="midnightblue" points="457.568,-240.588 447.149,-242.511 456.493,-247.505 457.568,-240.588"/>
</g>
<!-- Node20&#45;&gt;Node8 -->
<g id="edge34" class="edge"><title>Node20&#45;&gt;Node8</title>
<path fill="none" stroke="midnightblue" d="M912.466,-280.197C926.162,-257.94 957.477,-198.992 926.741,-168 890.453,-131.41 534.675,-124.57 407.581,-123.293"/>
<polygon fill="midnightblue" stroke="midnightblue" points="407.449,-119.791 397.417,-123.198 407.383,-126.791 407.449,-119.791"/>
</g>
<!-- Node20&#45;&gt;Node13 -->
<g id="edge33" class="edge"><title>Node20&#45;&gt;Node13</title>
<path fill="none" stroke="midnightblue" d="M915.489,-280.366C924.261,-271.541 937.976,-257.284 948.741,-244 993.91,-188.259 1040.78,-117.035 1061.62,-84.5583"/>
<polygon fill="midnightblue" stroke="midnightblue" points="1064.79,-86.0961 1067.21,-75.7831 1058.88,-82.3314 1064.79,-86.0961"/>
</g>
<!-- Node20&#45;&gt;Node17 -->
<g id="edge35" class="edge"><title>Node20&#45;&gt;Node17</title>
<path fill="none" stroke="midnightblue" d="M946.891,-284.618C1015.98,-276.706 1151.43,-259.424 1166.74,-244 1193.64,-216.892 1192.67,-168.366 1189.67,-141.746"/>
<polygon fill="midnightblue" stroke="midnightblue" points="1193.13,-141.251 1188.34,-131.805 1186.2,-142.181 1193.13,-141.251"/>
</g>
<!-- Node21&#45;&gt;Node4 -->
<g id="edge37" class="edge"><title>Node21&#45;&gt;Node4</title>
<path fill="none" stroke="midnightblue" d="M89.6471,-168.324C105.379,-159.743 129.683,-146.486 147.95,-136.522"/>
<polygon fill="midnightblue" stroke="midnightblue" points="149.771,-139.516 156.874,-131.655 146.419,-133.37 149.771,-139.516"/>
</g>
<!-- Node21&#45;&gt;Node8 -->
<g id="edge38" class="edge"><title>Node21&#45;&gt;Node8</title>
<path fill="none" stroke="midnightblue" d="M113.293,-169.582C116.152,-169.046 118.991,-168.515 121.741,-168 190.29,-155.174 269.813,-140.332 318.184,-131.309"/>
<polygon fill="midnightblue" stroke="midnightblue" points="318.829,-134.749 328.018,-129.475 317.546,-127.868 318.829,-134.749"/>
</g>
<!-- Node23&#45;&gt;Node8 -->
<g id="edge41" class="edge"><title>Node23&#45;&gt;Node8</title>
<path fill="none" stroke="midnightblue" d="M243.815,-224.335C245.919,-210.747 251.766,-184.299 266.741,-168 280.951,-152.533 301.567,-141.914 320.055,-134.894"/>
<polygon fill="midnightblue" stroke="midnightblue" points="321.232,-138.19 329.483,-131.544 318.889,-131.594 321.232,-138.19"/>
</g>
<!-- Node24&#45;&gt;Node17 -->
<g id="edge43" class="edge"><title>Node24&#45;&gt;Node17</title>
<path fill="none" stroke="midnightblue" d="M1244.8,-224.368C1234.45,-206.296 1210.32,-164.176 1196.65,-140.307"/>
<polygon fill="midnightblue" stroke="midnightblue" points="1199.67,-138.53 1191.66,-131.591 1193.59,-142.008 1199.67,-138.53"/>
</g>
<!-- Node26 -->
<g id="node26" class="node"><title>Node26</title>
<g id="a_node26"><a xlink:href="dji__hotpoint_8hpp.html" target="_top" xlink:title="Implementation of HotPoint (Point of Interest) Missions for DJI OSDK. ">
<polygon fill="white" stroke="black" points="649.241,-224.5 649.241,-243.5 734.241,-243.5 734.241,-224.5 649.241,-224.5"/>
<text text-anchor="middle" x="691.741" y="-231.5" font-family="Helvetica,sans-Serif" font-size="10.00">dji_hotpoint.hpp</text>
</a>
</g>
</g>
<!-- Node25&#45;&gt;Node26 -->
<g id="edge45" class="edge"><title>Node25&#45;&gt;Node26</title>
<path fill="none" stroke="midnightblue" d="M619.558,-280.324C632.974,-271.9 653.565,-258.971 669.327,-249.074"/>
<polygon fill="midnightblue" stroke="midnightblue" points="671.35,-251.936 677.958,-243.655 667.628,-246.008 671.35,-251.936"/>
</g>
<!-- Node28 -->
<g id="node28" class="node"><title>Node28</title>
<g id="a_node28"><a xlink:href="dji__waypoint_8hpp.html" target="_top" xlink:title="Implementation of GPS Waypoint Missions for DJI OSDK. ">
<polygon fill="white" stroke="black" points="465.241,-224.5 465.241,-243.5 554.241,-243.5 554.241,-224.5 465.241,-224.5"/>
<text text-anchor="middle" x="509.741" y="-231.5" font-family="Helvetica,sans-Serif" font-size="10.00">dji_waypoint.hpp</text>
</a>
</g>
</g>
<!-- Node25&#45;&gt;Node28 -->
<g id="edge51" class="edge"><title>Node25&#45;&gt;Node28</title>
<path fill="none" stroke="midnightblue" d="M590.317,-280.324C575.201,-271.822 551.926,-258.729 534.27,-248.797"/>
<polygon fill="midnightblue" stroke="midnightblue" points="535.558,-245.507 525.127,-243.655 532.127,-251.608 535.558,-245.507"/>
</g>
<!-- Node26&#45;&gt;Node14 -->
<g id="edge50" class="edge"><title>Node26&#45;&gt;Node14</title>
<path fill="none" stroke="midnightblue" d="M709.254,-224.324C726.813,-215.625 754.072,-202.12 774.272,-192.113"/>
<polygon fill="midnightblue" stroke="midnightblue" points="775.865,-195.23 783.272,-187.655 772.757,-188.958 775.865,-195.23"/>
</g>
<!-- Node27 -->
<g id="node27" class="node"><title>Node27</title>
<g id="a_node27"><a xlink:href="dji__mission__base_8hpp.html" target="_top" xlink:title="Mission&#45;Base abstract class for DJI OSDK library. ">
<polygon fill="white" stroke="black" points="626.741,-168.5 626.741,-187.5 736.741,-187.5 736.741,-168.5 626.741,-168.5"/>
<text text-anchor="middle" x="681.741" y="-175.5" font-family="Helvetica,sans-Serif" font-size="10.00">dji_mission_base.hpp</text>
</a>
</g>
</g>
<!-- Node26&#45;&gt;Node27 -->
<g id="edge46" class="edge"><title>Node26&#45;&gt;Node27</title>
<path fill="none" stroke="midnightblue" d="M690.09,-224.083C688.765,-216.927 686.859,-206.635 685.202,-197.691"/>
<polygon fill="midnightblue" stroke="midnightblue" points="688.624,-196.947 683.362,-187.751 681.741,-198.221 688.624,-196.947"/>
</g>
<!-- Node27&#45;&gt;Node4 -->
<g id="edge47" class="edge"><title>Node27&#45;&gt;Node4</title>
<path fill="none" stroke="midnightblue" d="M626.601,-169.107C623.605,-168.722 620.637,-168.35 617.741,-168 478.429,-151.167 314.054,-135.675 229.42,-128.019"/>
<polygon fill="midnightblue" stroke="midnightblue" points="229.527,-124.515 219.253,-127.103 228.899,-131.487 229.527,-124.515"/>
</g>
<!-- Node27&#45;&gt;Node8 -->
<g id="edge48" class="edge"><title>Node27&#45;&gt;Node8</title>
<path fill="none" stroke="midnightblue" d="M631.195,-168.444C569.542,-158.007 466.288,-140.528 407.425,-130.564"/>
<polygon fill="midnightblue" stroke="midnightblue" points="407.764,-127.072 397.32,-128.854 406.596,-133.974 407.764,-127.072"/>
</g>
<!-- Node27&#45;&gt;Node17 -->
<g id="edge49" class="edge"><title>Node27&#45;&gt;Node17</title>
<path fill="none" stroke="midnightblue" d="M736.882,-169.11C739.877,-168.724 742.845,-168.351 745.741,-168 876.003,-152.201 1028.37,-137.486 1115.61,-129.419"/>
<polygon fill="midnightblue" stroke="midnightblue" points="1116.03,-132.895 1125.67,-128.492 1115.39,-125.925 1116.03,-132.895"/>
</g>
<!-- Node28&#45;&gt;Node27 -->
<g id="edge52" class="edge"><title>Node28&#45;&gt;Node27</title>
<path fill="none" stroke="midnightblue" d="M536.995,-224.444C566.182,-215.28 612.662,-200.688 645.05,-190.519"/>
<polygon fill="midnightblue" stroke="midnightblue" points="646.122,-193.851 654.615,-187.516 644.025,-187.173 646.122,-193.851"/>
</g>
<!-- Node29&#45;&gt;Node17 -->
<g id="edge55" class="edge"><title>Node29&#45;&gt;Node17</title>
<path fill="none" stroke="midnightblue" d="M1749.11,-280.425C1650.1,-252.709 1338.67,-165.531 1227.05,-134.284"/>
<polygon fill="midnightblue" stroke="midnightblue" points="1227.76,-130.849 1217.19,-131.524 1225.88,-137.59 1227.76,-130.849"/>
</g>
<!-- Node30 -->
<g id="node30" class="node"><title>Node30</title>
<polygon fill="white" stroke="#bfbfbf" points="1738.24,-224.5 1738.24,-243.5 1821.24,-243.5 1821.24,-224.5 1738.24,-224.5"/>
<text text-anchor="middle" x="1779.74" y="-231.5" font-family="Helvetica,sans-Serif" font-size="10.00">dji_macros.hpp</text>
</g>
<!-- Node29&#45;&gt;Node30 -->
<g id="edge54" class="edge"><title>Node29&#45;&gt;Node30</title>
<path fill="none" stroke="midnightblue" d="M1779.74,-280.083C1779.74,-273.006 1779.74,-262.861 1779.74,-253.986"/>
<polygon fill="midnightblue" stroke="midnightblue" points="1783.24,-253.751 1779.74,-243.751 1776.24,-253.751 1783.24,-253.751"/>
</g>
<!-- Node31&#45;&gt;Node17 -->
<g id="edge57" class="edge"><title>Node31&#45;&gt;Node17</title>
<path fill="none" stroke="midnightblue" d="M1759.09,-172.137C1644.25,-162.277 1384.23,-139.954 1258.06,-129.123"/>
<polygon fill="midnightblue" stroke="midnightblue" points="1258.01,-125.606 1247.75,-128.237 1257.41,-132.58 1258.01,-125.606"/>
</g>
<!-- Node34&#45;&gt;Node13 -->
<g id="edge62" class="edge"><title>Node34&#45;&gt;Node13</title>
<path fill="none" stroke="midnightblue" d="M1104.91,-224.075C1099.56,-197.945 1083.84,-121.211 1076.55,-85.577"/>
<polygon fill="midnightblue" stroke="midnightblue" points="1079.93,-84.6624 1074.5,-75.5681 1073.07,-86.067 1079.93,-84.6624"/>
</g>
<!-- Node34&#45;&gt;Node14 -->
<g id="edge63" class="edge"><title>Node34&#45;&gt;Node14</title>
<path fill="none" stroke="midnightblue" d="M1058.25,-224.444C1003.41,-214.765 914.236,-199.029 856.54,-188.847"/>
<polygon fill="midnightblue" stroke="midnightblue" points="856.958,-185.367 846.502,-187.075 855.741,-192.26 856.958,-185.367"/>
</g>
<!-- Node34&#45;&gt;Node17 -->
<g id="edge64" class="edge"><title>Node34&#45;&gt;Node17</title>
<path fill="none" stroke="midnightblue" d="M1113.02,-224.368C1126.22,-206.215 1157.07,-163.802 1174.38,-139.99"/>
<polygon fill="midnightblue" stroke="midnightblue" points="1177.44,-141.737 1180.49,-131.591 1171.78,-137.62 1177.44,-141.737"/>
</g>
</g>
</svg>
