<?xml version="1.0" encoding="UTF-8" standalone="no"?>
<!DOCTYPE svg PUBLIC "-//W3C//DTD SVG 1.1//EN"
 "http://www.w3.org/Graphics/SVG/1.1/DTD/svg11.dtd">
<!-- Generated by graphviz version 2.40.1 (20161225.0304)
 -->
<!-- Title: osdk&#45;lib/x86/advanced&#45;sensing&#45;2.0.3/inc/dji_protocol_base.hpp Pages: 1 -->
<svg width="885pt" height="386pt"
 viewBox="0.00 0.00 885.00 386.00" xmlns="http://www.w3.org/2000/svg" xmlns:xlink="http://www.w3.org/1999/xlink">
<g id="graph0" class="graph" transform="scale(1 1) rotate(0) translate(4 382)">
<title>osdk&#45;lib/x86/advanced&#45;sensing&#45;2.0.3/inc/dji_protocol_base.hpp</title>
<polygon fill="#ffffff" stroke="transparent" points="-4,4 -4,-382 881,-382 881,4 -4,4"/>
<!-- Node0 -->
<g id="node1" class="node">
<title>Node0</title>
<g id="a_node1"><a xlink:title="Abstract protocol implementation for DJI OSDK.">
<polygon fill="#bfbfbf" stroke="#000000" points="563.5,-336.5 563.5,-377.5 677.5,-377.5 677.5,-336.5 563.5,-336.5"/>
<text text-anchor="start" x="571.5" y="-365.5" font-family="Helvetica,sans-Serif" font-size="10.00" fill="#000000">osdk&#45;lib/x86/advanced</text>
<text text-anchor="start" x="571.5" y="-354.5" font-family="Helvetica,sans-Serif" font-size="10.00" fill="#000000">&#45;sensing&#45;2.0.3/inc/dji</text>
<text text-anchor="middle" x="620.5" y="-343.5" font-family="Helvetica,sans-Serif" font-size="10.00" fill="#000000">_protocol_base.hpp</text>
</a>
</g>
</g>
<!-- Node1 -->
<g id="node2" class="node">
<title>Node1</title>
<g id="a_node2"><a xlink:href="dji__ack_8hpp.html" target="_top" xlink:title="All DJI OSDK ACK parsing.">
<polygon fill="#ffffff" stroke="#000000" points="133.5,-280.5 133.5,-299.5 199.5,-299.5 199.5,-280.5 133.5,-280.5"/>
<text text-anchor="middle" x="166.5" y="-287.5" font-family="Helvetica,sans-Serif" font-size="10.00" fill="#000000">dji_ack.hpp</text>
</a>
</g>
</g>
<!-- Node0&#45;&gt;Node1 -->
<g id="edge1" class="edge">
<title>Node0&#45;&gt;Node1</title>
<path fill="none" stroke="#191970" d="M563.4603,-348.5822C471.4206,-334.9993 292.156,-308.5439 209.7863,-296.3881"/>
<polygon fill="#191970" stroke="#191970" points="210.1675,-292.9065 199.7637,-294.909 209.1455,-299.8315 210.1675,-292.9065"/>
</g>
<!-- Node11 -->
<g id="node12" class="node">
<title>Node11</title>
<g id="a_node12"><a xlink:href="dji__type_8hpp.html" target="_top" xlink:title="Data type and Data Structure definitions for use throughout DJI OSDK.">
<polygon fill="#ffffff" stroke="#000000" points="314,-168.5 314,-187.5 383,-187.5 383,-168.5 314,-168.5"/>
<text text-anchor="middle" x="348.5" y="-175.5" font-family="Helvetica,sans-Serif" font-size="10.00" fill="#000000">dji_type.hpp</text>
</a>
</g>
</g>
<!-- Node0&#45;&gt;Node11 -->
<g id="edge38" class="edge">
<title>Node0&#45;&gt;Node11</title>
<path fill="none" stroke="#191970" d="M563.44,-348.4972C503.2717,-336.3454 410.5428,-307.9354 361.5,-244 351.4046,-230.8389 348.5096,-211.9659 347.9329,-197.7702"/>
<polygon fill="#191970" stroke="#191970" points="351.4319,-197.5664 347.8741,-187.5868 344.432,-197.6069 351.4319,-197.5664"/>
</g>
<!-- Node14 -->
<g id="node15" class="node">
<title>Node14</title>
<g id="a_node15"><a xlink:href="dji__aes_8hpp.html" target="_top" xlink:title=" ">
<polygon fill="#ffffff" stroke="#000000" points="467.5,-56.5 467.5,-75.5 533.5,-75.5 533.5,-56.5 467.5,-56.5"/>
<text text-anchor="middle" x="500.5" y="-63.5" font-family="Helvetica,sans-Serif" font-size="10.00" fill="#000000">dji_aes.hpp</text>
</a>
</g>
</g>
<!-- Node0&#45;&gt;Node14 -->
<g id="edge20" class="edge">
<title>Node0&#45;&gt;Node14</title>
<path fill="none" stroke="#191970" d="M620.2305,-336.0537C619.2801,-309.2695 615.5386,-261.831 601.5,-224 580.7527,-168.0905 537.9857,-111.2974 515.3328,-83.51"/>
<polygon fill="#191970" stroke="#191970" points="517.8115,-81.0156 508.7381,-75.5452 512.4198,-85.4798 517.8115,-81.0156"/>
</g>
<!-- Node15 -->
<g id="node16" class="node">
<title>Node15</title>
<g id="a_node16"><a xlink:href="dji__hard__driver_8hpp.html" target="_top" xlink:title="Serial device driver abstraction. Provided as an abstract class. Please inherit and implement for ind...">
<polygon fill="#ffffff" stroke="#000000" points="484.5,-280.5 484.5,-299.5 582.5,-299.5 582.5,-280.5 484.5,-280.5"/>
<text text-anchor="middle" x="533.5" y="-287.5" font-family="Helvetica,sans-Serif" font-size="10.00" fill="#000000">dji_hard_driver.hpp</text>
</a>
</g>
</g>
<!-- Node0&#45;&gt;Node15 -->
<g id="edge22" class="edge">
<title>Node0&#45;&gt;Node15</title>
<path fill="none" stroke="#191970" d="M593.4496,-336.168C580.7658,-326.4001 565.8938,-314.9469 554.1356,-305.8918"/>
<polygon fill="#191970" stroke="#191970" points="556.2584,-303.109 546.2,-299.7805 551.9873,-308.655 556.2584,-303.109"/>
</g>
<!-- Node16 -->
<g id="node17" class="node">
<title>Node16</title>
<g id="a_node17"><a xlink:href="dji__log_8hpp.html" target="_top" xlink:title="Logging mechanism for printing status and error messages to the screen.">
<polygon fill="#ffffff" stroke="#000000" points="663,-224.5 663,-243.5 726,-243.5 726,-224.5 663,-224.5"/>
<text text-anchor="middle" x="694.5" y="-231.5" font-family="Helvetica,sans-Serif" font-size="10.00" fill="#000000">dji_log.hpp</text>
</a>
</g>
</g>
<!-- Node0&#45;&gt;Node16 -->
<g id="edge36" class="edge">
<title>Node0&#45;&gt;Node16</title>
<path fill="none" stroke="#191970" d="M632.8859,-336.4126C647.0705,-312.8355 670.088,-274.5767 683.6122,-252.0973"/>
<polygon fill="#191970" stroke="#191970" points="686.6175,-253.8913 688.7736,-243.5182 680.6193,-250.2826 686.6175,-253.8913"/>
</g>
<!-- Node23 -->
<g id="node24" class="node">
<title>Node23</title>
<g id="a_node24"><a xlink:href="dji__thread__manager_8hpp.html" target="_top" xlink:title="Data protection and thread management abstract classes.">
<polygon fill="#ffffff" stroke="#000000" points="686.5,-280.5 686.5,-299.5 806.5,-299.5 806.5,-280.5 686.5,-280.5"/>
<text text-anchor="middle" x="746.5" y="-287.5" font-family="Helvetica,sans-Serif" font-size="10.00" fill="#000000">dji_thread_manager.hpp</text>
</a>
</g>
</g>
<!-- Node0&#45;&gt;Node23 -->
<g id="edge37" class="edge">
<title>Node0&#45;&gt;Node23</title>
<path fill="none" stroke="#191970" d="M659.3323,-336.3511C678.7335,-326.0346 701.7389,-313.8015 719.2429,-304.4939"/>
<polygon fill="#191970" stroke="#191970" points="721.1574,-307.4399 728.3435,-299.6546 717.8709,-301.2594 721.1574,-307.4399"/>
</g>
<!-- Node24 -->
<g id="node25" class="node">
<title>Node24</title>
<g id="a_node25"><a xlink:title=" ">
<polygon fill="#ffffff" stroke="#bfbfbf" points="824.5,-280.5 824.5,-299.5 870.5,-299.5 870.5,-280.5 824.5,-280.5"/>
<text text-anchor="middle" x="847.5" y="-287.5" font-family="Helvetica,sans-Serif" font-size="10.00" fill="#000000">cstring</text>
</a>
</g>
</g>
<!-- Node0&#45;&gt;Node24 -->
<g id="edge39" class="edge">
<title>Node0&#45;&gt;Node24</title>
<path fill="none" stroke="#191970" d="M677.7509,-340.567C714.3734,-329.9853 763.1308,-315.7694 814.7702,-300.1861"/>
<polygon fill="#191970" stroke="#191970" points="815.8848,-303.5056 824.4437,-297.261 813.8586,-296.8053 815.8848,-303.5056"/>
</g>
<!-- Node2 -->
<g id="node3" class="node">
<title>Node2</title>
<g id="a_node3"><a xlink:href="dji__command_8hpp.html" target="_top" xlink:title="All DJI OSDK OpenProtocol Command IDs.">
<polygon fill="#ffffff" stroke="#000000" points="58,-168.5 58,-187.5 151,-187.5 151,-168.5 58,-168.5"/>
<text text-anchor="middle" x="104.5" y="-175.5" font-family="Helvetica,sans-Serif" font-size="10.00" fill="#000000">dji_command.hpp</text>
</a>
</g>
</g>
<!-- Node1&#45;&gt;Node2 -->
<g id="edge2" class="edge">
<title>Node1&#45;&gt;Node2</title>
<path fill="none" stroke="#191970" d="M133.4607,-285.5304C108.4794,-280.2283 75.7931,-268.7395 59.5,-244 48.1328,-226.74 65.2488,-207.2096 81.5386,-193.901"/>
<polygon fill="#191970" stroke="#191970" points="84.0154,-196.4127 89.8265,-187.5536 79.7592,-190.8552 84.0154,-196.4127"/>
</g>
<!-- Node5 -->
<g id="node6" class="node">
<title>Node5</title>
<g id="a_node6"><a xlink:title=" ">
<polygon fill="#ffffff" stroke="#bfbfbf" points="0,-56.5 0,-75.5 35,-75.5 35,-56.5 0,-56.5"/>
<text text-anchor="middle" x="17.5" y="-63.5" font-family="Helvetica,sans-Serif" font-size="10.00" fill="#000000">map</text>
</a>
</g>
</g>
<!-- Node1&#45;&gt;Node5 -->
<g id="edge19" class="edge">
<title>Node1&#45;&gt;Node5</title>
<path fill="none" stroke="#191970" d="M133.4952,-285.3463C107.581,-279.917 72.6232,-268.3466 52.5,-244 14.2979,-197.7803 13.5602,-121.8529 15.691,-85.9723"/>
<polygon fill="#191970" stroke="#191970" points="19.1948,-86.0487 16.4397,-75.8184 12.2137,-85.5339 19.1948,-86.0487"/>
</g>
<!-- Node9 -->
<g id="node10" class="node">
<title>Node9</title>
<g id="a_node10"><a xlink:href="dji__mission__type_8hpp.html" target="_top" xlink:title="Mission related data struct for DJI OSDK library.">
<polygon fill="#ffffff" stroke="#000000" points="168.5,-224.5 168.5,-243.5 276.5,-243.5 276.5,-224.5 168.5,-224.5"/>
<text text-anchor="middle" x="222.5" y="-231.5" font-family="Helvetica,sans-Serif" font-size="10.00" fill="#000000">dji_mission_type.hpp</text>
</a>
</g>
</g>
<!-- Node1&#45;&gt;Node9 -->
<g id="edge10" class="edge">
<title>Node1&#45;&gt;Node9</title>
<path fill="none" stroke="#191970" d="M176.2545,-280.2455C184.3648,-272.1352 196.0925,-260.4075 205.7081,-250.7919"/>
<polygon fill="#191970" stroke="#191970" points="208.2611,-253.1887 212.8573,-243.6427 203.3113,-248.2389 208.2611,-253.1887"/>
</g>
<!-- Node1&#45;&gt;Node11 -->
<g id="edge15" class="edge">
<title>Node1&#45;&gt;Node11</title>
<path fill="none" stroke="#191970" d="M199.6706,-281.4608C224.6381,-274.053 258.9748,-261.7123 285.5,-244 305.1367,-230.8875 323.2653,-210.6682 334.9843,-196.0641"/>
<polygon fill="#191970" stroke="#191970" points="338.0284,-197.8514 341.409,-187.8103 332.5046,-193.5517 338.0284,-197.8514"/>
</g>
<!-- Node13 -->
<g id="node14" class="node">
<title>Node13</title>
<g id="a_node14"><a xlink:href="dji__version_8hpp.html" target="_top" xlink:title="Drone/SDK Version definition for DJI onboardSDK library.">
<polygon fill="#ffffff" stroke="#000000" points="68.5,-224.5 68.5,-243.5 150.5,-243.5 150.5,-224.5 68.5,-224.5"/>
<text text-anchor="middle" x="109.5" y="-231.5" font-family="Helvetica,sans-Serif" font-size="10.00" fill="#000000">dji_version.hpp</text>
</a>
</g>
</g>
<!-- Node1&#45;&gt;Node13 -->
<g id="edge16" class="edge">
<title>Node1&#45;&gt;Node13</title>
<path fill="none" stroke="#191970" d="M156.5714,-280.2455C148.3162,-272.1352 136.3791,-260.4075 126.5918,-250.7919"/>
<polygon fill="#191970" stroke="#191970" points="128.9011,-248.1542 119.3149,-243.6427 123.9954,-253.1476 128.9011,-248.1542"/>
</g>
<!-- Node3 -->
<g id="node4" class="node">
<title>Node3</title>
<g id="a_node4"><a xlink:href="dji__error_8hpp.html" target="_top" xlink:title="All DJI OSDK OpenProtocol ACK Error Codes.">
<polygon fill="#ffffff" stroke="#000000" points="121.5,-112.5 121.5,-131.5 191.5,-131.5 191.5,-112.5 121.5,-112.5"/>
<text text-anchor="middle" x="156.5" y="-119.5" font-family="Helvetica,sans-Serif" font-size="10.00" fill="#000000">dji_error.hpp</text>
</a>
</g>
</g>
<!-- Node2&#45;&gt;Node3 -->
<g id="edge3" class="edge">
<title>Node2&#45;&gt;Node3</title>
<path fill="none" stroke="#191970" d="M113.5577,-168.2455C121.0142,-160.2155 131.7634,-148.6394 140.6417,-139.0781"/>
<polygon fill="#191970" stroke="#191970" points="143.3063,-141.3522 147.5461,-131.6427 138.1768,-136.589 143.3063,-141.3522"/>
</g>
<!-- Node8 -->
<g id="node9" class="node">
<title>Node8</title>
<g id="a_node9"><a xlink:title=" ">
<polygon fill="#ffffff" stroke="#bfbfbf" points="429,-.5 429,-19.5 478,-19.5 478,-.5 429,-.5"/>
<text text-anchor="middle" x="453.5" y="-7.5" font-family="Helvetica,sans-Serif" font-size="10.00" fill="#000000">stdint.h</text>
</a>
</g>
</g>
<!-- Node2&#45;&gt;Node8 -->
<g id="edge9" class="edge">
<title>Node2&#45;&gt;Node8</title>
<path fill="none" stroke="#191970" d="M103.4074,-168.3037C102.357,-154.7417 102.202,-129.7779 112.5,-112 133.3515,-76.003 149.2866,-72.441 187.5,-56 228.6032,-38.3157 356.3856,-21.4196 418.6682,-13.9751"/>
<polygon fill="#191970" stroke="#191970" points="419.27,-17.4284 428.7904,-12.7797 418.4489,-10.4768 419.27,-17.4284"/>
</g>
<!-- Node4 -->
<g id="node5" class="node">
<title>Node4</title>
<g id="a_node5"><a xlink:title=" ">
<polygon fill="#ffffff" stroke="#bfbfbf" points="196.5,-56.5 196.5,-75.5 242.5,-75.5 242.5,-56.5 196.5,-56.5"/>
<text text-anchor="middle" x="219.5" y="-63.5" font-family="Helvetica,sans-Serif" font-size="10.00" fill="#000000">cstdint</text>
</a>
</g>
</g>
<!-- Node3&#45;&gt;Node4 -->
<g id="edge4" class="edge">
<title>Node3&#45;&gt;Node4</title>
<path fill="none" stroke="#191970" d="M167.4738,-112.2455C176.6882,-104.0549 190.0532,-92.1749 200.9297,-82.5069"/>
<polygon fill="#191970" stroke="#191970" points="203.5032,-84.9023 208.652,-75.6427 198.8526,-79.6704 203.5032,-84.9023"/>
</g>
<!-- Node3&#45;&gt;Node5 -->
<g id="edge5" class="edge">
<title>Node3&#45;&gt;Node5</title>
<path fill="none" stroke="#191970" d="M132.605,-112.3733C108.2101,-102.5451 70.3937,-87.3097 44.8245,-77.0084"/>
<polygon fill="#191970" stroke="#191970" points="45.9331,-73.6817 35.3496,-73.1912 43.3172,-80.1746 45.9331,-73.6817"/>
</g>
<!-- Node6 -->
<g id="node7" class="node">
<title>Node6</title>
<g id="a_node7"><a xlink:href="osdk__typedef_8h_source.html" target="_top" xlink:title=" ">
<polygon fill="#ffffff" stroke="#000000" points="569,-56.5 569,-75.5 652,-75.5 652,-56.5 569,-56.5"/>
<text text-anchor="middle" x="610.5" y="-63.5" font-family="Helvetica,sans-Serif" font-size="10.00" fill="#000000">osdk_typedef.h</text>
</a>
</g>
</g>
<!-- Node3&#45;&gt;Node6 -->
<g id="edge6" class="edge">
<title>Node3&#45;&gt;Node6</title>
<path fill="none" stroke="#191970" d="M191.6669,-118.1356C259.5593,-110.6028 413.3865,-93.1836 542.5,-76 547.6896,-75.3093 553.0978,-74.5616 558.4971,-73.7968"/>
<polygon fill="#191970" stroke="#191970" points="559.4091,-77.2018 568.8097,-72.3153 558.4136,-70.273 559.4091,-77.2018"/>
</g>
<!-- Node7 -->
<g id="node8" class="node">
<title>Node7</title>
<g id="a_node8"><a xlink:title=" ">
<polygon fill="#ffffff" stroke="#bfbfbf" points="584.5,-.5 584.5,-19.5 636.5,-19.5 636.5,-.5 584.5,-.5"/>
<text text-anchor="middle" x="610.5" y="-7.5" font-family="Helvetica,sans-Serif" font-size="10.00" fill="#000000">stddef.h</text>
</a>
</g>
</g>
<!-- Node6&#45;&gt;Node7 -->
<g id="edge7" class="edge">
<title>Node6&#45;&gt;Node7</title>
<path fill="none" stroke="#191970" d="M610.5,-56.2455C610.5,-48.9382 610.5,-38.6944 610.5,-29.7046"/>
<polygon fill="#191970" stroke="#191970" points="614.0001,-29.6426 610.5,-19.6427 607.0001,-29.6427 614.0001,-29.6426"/>
</g>
<!-- Node6&#45;&gt;Node8 -->
<g id="edge8" class="edge">
<title>Node6&#45;&gt;Node8</title>
<path fill="none" stroke="#191970" d="M583.5107,-56.3733C557.0026,-46.9181 516.4641,-32.4585 487.7099,-22.2023"/>
<polygon fill="#191970" stroke="#191970" points="488.6677,-18.828 478.073,-18.7649 486.3159,-25.4211 488.6677,-18.828"/>
</g>
<!-- Node10 -->
<g id="node11" class="node">
<title>Node10</title>
<g id="a_node11"><a xlink:title=" ">
<polygon fill="#ffffff" stroke="#bfbfbf" points="247.5,-168.5 247.5,-187.5 291.5,-187.5 291.5,-168.5 247.5,-168.5"/>
<text text-anchor="middle" x="269.5" y="-175.5" font-family="Helvetica,sans-Serif" font-size="10.00" fill="#000000">vector</text>
</a>
</g>
</g>
<!-- Node9&#45;&gt;Node10 -->
<g id="edge11" class="edge">
<title>Node9&#45;&gt;Node10</title>
<path fill="none" stroke="#191970" d="M230.6868,-224.2455C237.3589,-216.2958 246.9479,-204.8706 254.9253,-195.3656"/>
<polygon fill="#191970" stroke="#191970" points="257.6592,-197.5525 261.407,-187.6427 252.2974,-193.0524 257.6592,-197.5525"/>
</g>
<!-- Node9&#45;&gt;Node11 -->
<g id="edge12" class="edge">
<title>Node9&#45;&gt;Node11</title>
<path fill="none" stroke="#191970" d="M244.1602,-224.3733C264.4772,-215.3435 295.064,-201.7494 317.875,-191.6111"/>
<polygon fill="#191970" stroke="#191970" points="319.4059,-194.7609 327.1225,-187.5011 316.5628,-188.3642 319.4059,-194.7609"/>
</g>
<!-- Node11&#45;&gt;Node8 -->
<g id="edge14" class="edge">
<title>Node11&#45;&gt;Node8</title>
<path fill="none" stroke="#191970" d="M355.2892,-168.2196C361.6636,-158.9685 371.4041,-144.6553 379.5,-132 402.7312,-95.6854 428.5736,-52.3665 442.742,-28.347"/>
<polygon fill="#191970" stroke="#191970" points="445.8417,-29.9805 447.8961,-19.5867 439.8085,-26.4308 445.8417,-29.9805"/>
</g>
<!-- Node12 -->
<g id="node13" class="node">
<title>Node12</title>
<g id="a_node13"><a xlink:title=" ">
<polygon fill="#ffffff" stroke="#bfbfbf" points="327,-112.5 327,-131.5 370,-131.5 370,-112.5 327,-112.5"/>
<text text-anchor="middle" x="348.5" y="-119.5" font-family="Helvetica,sans-Serif" font-size="10.00" fill="#000000">cstdio</text>
</a>
</g>
</g>
<!-- Node11&#45;&gt;Node12 -->
<g id="edge13" class="edge">
<title>Node11&#45;&gt;Node12</title>
<path fill="none" stroke="#191970" d="M348.5,-168.2455C348.5,-160.9382 348.5,-150.6944 348.5,-141.7046"/>
<polygon fill="#191970" stroke="#191970" points="352.0001,-141.6426 348.5,-131.6427 345.0001,-141.6427 352.0001,-141.6426"/>
</g>
<!-- Node13&#45;&gt;Node2 -->
<g id="edge17" class="edge">
<title>Node13&#45;&gt;Node2</title>
<path fill="none" stroke="#191970" d="M108.6291,-224.2455C107.9766,-216.9382 107.062,-206.6944 106.2593,-197.7046"/>
<polygon fill="#191970" stroke="#191970" points="109.7365,-197.2918 105.361,-187.6427 102.7642,-197.9143 109.7365,-197.2918"/>
</g>
<!-- Node13&#45;&gt;Node4 -->
<g id="edge18" class="edge">
<title>Node13&#45;&gt;Node4</title>
<path fill="none" stroke="#191970" d="M121.5087,-224.4474C141.4064,-207.9022 180.9523,-171.8406 200.5,-132 207.7218,-117.2812 212.667,-99.3335 215.6978,-85.8716"/>
<polygon fill="#191970" stroke="#191970" points="219.1854,-86.2921 217.8014,-75.788 212.3329,-84.8625 219.1854,-86.2921"/>
</g>
<!-- Node14&#45;&gt;Node8 -->
<g id="edge21" class="edge">
<title>Node14&#45;&gt;Node8</title>
<path fill="none" stroke="#191970" d="M492.3132,-56.2455C485.6411,-48.2958 476.0521,-36.8706 468.0747,-27.3656"/>
<polygon fill="#191970" stroke="#191970" points="470.7026,-25.0524 461.593,-19.6427 465.3408,-29.5525 470.7026,-25.0524"/>
</g>
<!-- Node15&#45;&gt;Node4 -->
<g id="edge34" class="edge">
<title>Node15&#45;&gt;Node4</title>
<path fill="none" stroke="#191970" d="M528.2713,-280.3623C511.299,-250.0741 454.4796,-156.2016 379.5,-112 339.5087,-88.4245 286.7162,-76.3244 252.9281,-70.5805"/>
<polygon fill="#191970" stroke="#191970" points="253.0946,-67.0625 242.6661,-68.9324 251.9846,-73.9739 253.0946,-67.0625"/>
</g>
<!-- Node15&#45;&gt;Node11 -->
<g id="edge33" class="edge">
<title>Node15&#45;&gt;Node11</title>
<path fill="none" stroke="#191970" d="M525.6602,-280.2451C513.8972,-266.1552 490.3909,-240.0435 465.5,-224 443.1272,-209.5795 415.5186,-198.4592 392.7399,-190.7673"/>
<polygon fill="#191970" stroke="#191970" points="393.5698,-187.3564 382.9773,-187.5781 391.3961,-194.0104 393.5698,-187.3564"/>
</g>
<!-- Node15&#45;&gt;Node16 -->
<g id="edge23" class="edge">
<title>Node15&#45;&gt;Node16</title>
<path fill="none" stroke="#191970" d="M561.1769,-280.3733C587.8328,-271.1016 628.3238,-257.0178 657.6884,-246.804"/>
<polygon fill="#191970" stroke="#191970" points="658.8891,-250.0921 667.1843,-243.5011 656.5895,-243.4807 658.8891,-250.0921"/>
</g>
<!-- Node21 -->
<g id="node22" class="node">
<title>Node21</title>
<g id="a_node22"><a xlink:href="dji__memory_8hpp.html" target="_top" xlink:title="Implement memory management for DJI OSDK .">
<polygon fill="#ffffff" stroke="#000000" points="370.5,-224.5 370.5,-243.5 456.5,-243.5 456.5,-224.5 370.5,-224.5"/>
<text text-anchor="middle" x="413.5" y="-231.5" font-family="Helvetica,sans-Serif" font-size="10.00" fill="#000000">dji_memory.hpp</text>
</a>
</g>
</g>
<!-- Node15&#45;&gt;Node21 -->
<g id="edge31" class="edge">
<title>Node15&#45;&gt;Node21</title>
<path fill="none" stroke="#191970" d="M512.8713,-280.3733C493.6081,-271.3838 464.6514,-257.8706 442.9581,-247.7471"/>
<polygon fill="#191970" stroke="#191970" points="444.4015,-244.5584 433.8595,-243.5011 441.4413,-250.9017 444.4015,-244.5584"/>
</g>
<!-- Node22 -->
<g id="node23" class="node">
<title>Node22</title>
<g id="a_node23"><a xlink:title=" ">
<polygon fill="#ffffff" stroke="#bfbfbf" points="551,-224.5 551,-243.5 592,-243.5 592,-224.5 551,-224.5"/>
<text text-anchor="middle" x="571.5" y="-231.5" font-family="Helvetica,sans-Serif" font-size="10.00" fill="#000000">ctime</text>
</a>
</g>
</g>
<!-- Node15&#45;&gt;Node22 -->
<g id="edge35" class="edge">
<title>Node15&#45;&gt;Node22</title>
<path fill="none" stroke="#191970" d="M540.1191,-280.2455C545.4046,-272.4564 552.9541,-261.3308 559.3238,-251.9439"/>
<polygon fill="#191970" stroke="#191970" points="562.2379,-253.8827 564.9568,-243.6427 556.4455,-249.9522 562.2379,-253.8827"/>
</g>
<!-- Node17 -->
<g id="node18" class="node">
<title>Node17</title>
<g id="a_node18"><a xlink:href="dji__singleton_8hpp.html" target="_top" xlink:title="Singleton Template Class implementation for use with the DJI OSDK.">
<polygon fill="#ffffff" stroke="#000000" points="788,-112.5 788,-131.5 877,-131.5 877,-112.5 788,-112.5"/>
<text text-anchor="middle" x="832.5" y="-119.5" font-family="Helvetica,sans-Serif" font-size="10.00" fill="#000000">dji_singleton.hpp</text>
</a>
</g>
</g>
<!-- Node16&#45;&gt;Node17 -->
<g id="edge24" class="edge">
<title>Node16&#45;&gt;Node17</title>
<path fill="none" stroke="#191970" d="M709.3232,-224.4891C722.9722,-215.542 743.6031,-201.5335 760.5,-188 779.9722,-172.4038 800.8435,-152.9351 815.0744,-139.1962"/>
<polygon fill="#191970" stroke="#191970" points="817.9037,-141.3263 822.6252,-131.8417 813.0195,-136.3118 817.9037,-141.3263"/>
</g>
<!-- Node18 -->
<g id="node19" class="node">
<title>Node18</title>
<g id="a_node19"><a xlink:href="dji__platform_8hpp.html" target="_top" xlink:title="Vehicle API for DJI onboardSDK library.">
<polygon fill="#ffffff" stroke="#000000" points="665.5,-168.5 665.5,-187.5 751.5,-187.5 751.5,-168.5 665.5,-168.5"/>
<text text-anchor="middle" x="708.5" y="-175.5" font-family="Helvetica,sans-Serif" font-size="10.00" fill="#000000">dji_platform.hpp</text>
</a>
</g>
</g>
<!-- Node16&#45;&gt;Node18 -->
<g id="edge25" class="edge">
<title>Node16&#45;&gt;Node18</title>
<path fill="none" stroke="#191970" d="M696.9386,-224.2455C698.7855,-216.8579 701.3828,-206.4689 703.6478,-197.4087"/>
<polygon fill="#191970" stroke="#191970" points="707.0594,-198.193 706.0893,-187.6427 700.2684,-196.4952 707.0594,-198.193"/>
</g>
<!-- Node18&#45;&gt;Node17 -->
<g id="edge28" class="edge">
<title>Node18&#45;&gt;Node17</title>
<path fill="none" stroke="#191970" d="M729.8164,-168.3733C749.7216,-159.3838 779.6436,-145.8706 802.06,-135.7471"/>
<polygon fill="#191970" stroke="#191970" points="803.7887,-138.8068 811.4618,-131.5011 800.9075,-132.4272 803.7887,-138.8068"/>
</g>
<!-- Node19 -->
<g id="node20" class="node">
<title>Node19</title>
<g id="a_node20"><a xlink:href="osdk__platform_8h.html" target="_top" xlink:title="This is the header file for define OSDK platform interfaces.">
<polygon fill="#ffffff" stroke="#000000" points="588.5,-112.5 588.5,-131.5 674.5,-131.5 674.5,-112.5 588.5,-112.5"/>
<text text-anchor="middle" x="631.5" y="-119.5" font-family="Helvetica,sans-Serif" font-size="10.00" fill="#000000">osdk_platform.h</text>
</a>
</g>
</g>
<!-- Node18&#45;&gt;Node19 -->
<g id="edge26" class="edge">
<title>Node18&#45;&gt;Node19</title>
<path fill="none" stroke="#191970" d="M695.0876,-168.2455C683.4943,-159.814 666.5252,-147.4729 653.0322,-137.6598"/>
<polygon fill="#191970" stroke="#191970" points="654.9047,-134.6938 644.7587,-131.6427 650.7874,-140.355 654.9047,-134.6938"/>
</g>
<!-- Node20 -->
<g id="node21" class="node">
<title>Node20</title>
<g id="a_node21"><a xlink:href="osdk__logger_8h.html" target="_top" xlink:title="This is the header file for &quot;osdk_logger.c&quot;, defining the structure and (exported) function prototype...">
<polygon fill="#ffffff" stroke="#000000" points="693,-112.5 693,-131.5 770,-131.5 770,-112.5 693,-112.5"/>
<text text-anchor="middle" x="731.5" y="-119.5" font-family="Helvetica,sans-Serif" font-size="10.00" fill="#000000">osdk_logger.h</text>
</a>
</g>
</g>
<!-- Node18&#45;&gt;Node20 -->
<g id="edge29" class="edge">
<title>Node18&#45;&gt;Node20</title>
<path fill="none" stroke="#191970" d="M712.5063,-168.2455C715.5735,-160.7776 719.9003,-150.2427 723.6497,-141.1137"/>
<polygon fill="#191970" stroke="#191970" points="726.9779,-142.2226 727.5396,-131.6427 720.5028,-139.5631 726.9779,-142.2226"/>
</g>
<!-- Node19&#45;&gt;Node6 -->
<g id="edge27" class="edge">
<title>Node19&#45;&gt;Node6</title>
<path fill="none" stroke="#191970" d="M627.8421,-112.2455C625.0416,-104.7776 621.091,-94.2427 617.6676,-85.1137"/>
<polygon fill="#191970" stroke="#191970" points="620.9045,-83.777 614.116,-75.6427 614.3501,-86.2349 620.9045,-83.777"/>
</g>
<!-- Node20&#45;&gt;Node6 -->
<g id="edge30" class="edge">
<title>Node20&#45;&gt;Node6</title>
<path fill="none" stroke="#191970" d="M710.6994,-112.3733C691.2757,-103.3838 662.0776,-89.8706 640.2036,-79.7471"/>
<polygon fill="#191970" stroke="#191970" points="641.5745,-76.5249 631.0292,-75.5011 638.6344,-82.8776 641.5745,-76.5249"/>
</g>
<!-- Node21&#45;&gt;Node11 -->
<g id="edge32" class="edge">
<title>Node21&#45;&gt;Node11</title>
<path fill="none" stroke="#191970" d="M402.1779,-224.2455C392.5777,-215.9746 378.6108,-203.9416 367.3305,-194.2232"/>
<polygon fill="#191970" stroke="#191970" points="369.553,-191.5182 359.6924,-187.6427 364.984,-196.8214 369.553,-191.5182"/>
</g>
</g>
</svg>
