<?xml version="1.0" encoding="UTF-8" standalone="no"?>
<!DOCTYPE svg PUBLIC "-//W3C//DTD SVG 1.1//EN"
 "http://www.w3.org/Graphics/SVG/1.1/DTD/svg11.dtd">
<!-- Generated by graphviz version 2.40.1 (20161225.0304)
 -->
<!-- Title: osdk&#45;lib/x86/advanced&#45;sensing&#45;2.0.3/inc/dji_liveview.hpp Pages: 1 -->
<svg width="186pt" height="162pt"
 viewBox="0.00 0.00 186.00 162.00" xmlns="http://www.w3.org/2000/svg" xmlns:xlink="http://www.w3.org/1999/xlink">
<g id="graph0" class="graph" transform="scale(1 1) rotate(0) translate(4 158)">
<title>osdk&#45;lib/x86/advanced&#45;sensing&#45;2.0.3/inc/dji_liveview.hpp</title>
<polygon fill="#ffffff" stroke="transparent" points="-4,4 -4,-158 182,-158 182,4 -4,4"/>
<!-- Node0 -->
<g id="node1" class="node">
<title>Node0</title>
<g id="a_node1"><a xlink:title="Camera liveview API of OSDK.">
<polygon fill="#bfbfbf" stroke="#000000" points="15,-112.5 15,-153.5 129,-153.5 129,-112.5 15,-112.5"/>
<text text-anchor="start" x="23" y="-141.5" font-family="Helvetica,sans-Serif" font-size="10.00" fill="#000000">osdk&#45;lib/x86/advanced</text>
<text text-anchor="start" x="23" y="-130.5" font-family="Helvetica,sans-Serif" font-size="10.00" fill="#000000">&#45;sensing&#45;2.0.3/inc/dji</text>
<text text-anchor="middle" x="72" y="-119.5" font-family="Helvetica,sans-Serif" font-size="10.00" fill="#000000">_liveview.hpp</text>
</a>
</g>
</g>
<!-- Node1 -->
<g id="node2" class="node">
<title>Node1</title>
<g id="a_node2"><a xlink:title=" ">
<polygon fill="#ffffff" stroke="#bfbfbf" points="0,-56.5 0,-75.5 46,-75.5 46,-56.5 0,-56.5"/>
<text text-anchor="middle" x="23" y="-63.5" font-family="Helvetica,sans-Serif" font-size="10.00" fill="#000000">cstring</text>
</a>
</g>
</g>
<!-- Node0&#45;&gt;Node1 -->
<g id="edge1" class="edge">
<title>Node0&#45;&gt;Node1</title>
<path fill="none" stroke="#191970" d="M56.7647,-112.168C50.1758,-103.1587 42.5385,-92.7159 36.1958,-84.0432"/>
<polygon fill="#191970" stroke="#191970" points="38.8812,-81.7861 30.1529,-75.7805 33.231,-85.9183 38.8812,-81.7861"/>
</g>
<!-- Node2 -->
<g id="node3" class="node">
<title>Node2</title>
<g id="a_node3"><a xlink:href="dji__camera__image_8hpp_source.html" target="_top" xlink:title=" ">
<polygon fill="#ffffff" stroke="#000000" points="64,-56.5 64,-75.5 178,-75.5 178,-56.5 64,-56.5"/>
<text text-anchor="middle" x="121" y="-63.5" font-family="Helvetica,sans-Serif" font-size="10.00" fill="#000000">dji_camera_image.hpp</text>
</a>
</g>
</g>
<!-- Node0&#45;&gt;Node2 -->
<g id="edge2" class="edge">
<title>Node0&#45;&gt;Node2</title>
<path fill="none" stroke="#191970" d="M87.2353,-112.168C93.8242,-103.1587 101.4615,-92.7159 107.8042,-84.0432"/>
<polygon fill="#191970" stroke="#191970" points="110.769,-85.9183 113.8471,-75.7805 105.1188,-81.7861 110.769,-85.9183"/>
</g>
<!-- Node3 -->
<g id="node4" class="node">
<title>Node3</title>
<g id="a_node4"><a xlink:title=" ">
<polygon fill="#ffffff" stroke="#bfbfbf" points="66,-.5 66,-19.5 112,-19.5 112,-.5 66,-.5"/>
<text text-anchor="middle" x="89" y="-7.5" font-family="Helvetica,sans-Serif" font-size="10.00" fill="#000000">cstdint</text>
</a>
</g>
</g>
<!-- Node2&#45;&gt;Node3 -->
<g id="edge3" class="edge">
<title>Node2&#45;&gt;Node3</title>
<path fill="none" stroke="#191970" d="M115.426,-56.2455C111.0669,-48.617 104.8789,-37.7881 99.5867,-28.5267"/>
<polygon fill="#191970" stroke="#191970" points="102.5104,-26.5886 94.5101,-19.6427 96.4327,-30.0616 102.5104,-26.5886"/>
</g>
<!-- Node4 -->
<g id="node5" class="node">
<title>Node4</title>
<g id="a_node5"><a xlink:title=" ">
<polygon fill="#ffffff" stroke="#bfbfbf" points="130,-.5 130,-19.5 174,-19.5 174,-.5 130,-.5"/>
<text text-anchor="middle" x="152" y="-7.5" font-family="Helvetica,sans-Serif" font-size="10.00" fill="#000000">vector</text>
</a>
</g>
</g>
<!-- Node2&#45;&gt;Node4 -->
<g id="edge4" class="edge">
<title>Node2&#45;&gt;Node4</title>
<path fill="none" stroke="#191970" d="M126.3998,-56.2455C130.6227,-48.617 136.6173,-37.7881 141.7441,-28.5267"/>
<polygon fill="#191970" stroke="#191970" points="144.881,-30.0867 146.6621,-19.6427 138.7568,-26.6965 144.881,-30.0867"/>
</g>
</g>
</svg>
