<?xml version="1.0" encoding="UTF-8" standalone="no"?>
<!DOCTYPE svg PUBLIC "-//W3C//DTD SVG 1.1//EN"
 "http://www.w3.org/Graphics/SVG/1.1/DTD/svg11.dtd">
<!-- Generated by graphviz version 2.38.0 (20140413.2041)
 -->
<!-- Title: osdk&#45;core/api/src/dji_camera.cpp Pages: 1 -->
<svg width="2216pt" height="431pt"
 viewBox="0.00 0.00 2215.69 431.00" xmlns="http://www.w3.org/2000/svg" xmlns:xlink="http://www.w3.org/1999/xlink">
<g id="graph0" class="graph" transform="scale(1 1) rotate(0) translate(4 427)">
<title>osdk&#45;core/api/src/dji_camera.cpp</title>
<polygon fill="white" stroke="none" points="-4,4 -4,-427 2211.69,-427 2211.69,4 -4,4"/>
<!-- Node0 -->
<g id="node1" class="node"><title>Node0</title>
<g id="a_node1"><a xlink:title="Camera/Gimbal API for DJI onboardSDK library.">
<polygon fill="#bfbfbf" stroke="black" points="499.782,-392.5 499.782,-422.5 603.782,-422.5 603.782,-392.5 499.782,-392.5"/>
<text text-anchor="start" x="507.782" y="-410.5" font-family="Helvetica,sans-Serif" font-size="10.00">osdk&#45;core/api/src/dji</text>
<text text-anchor="middle" x="551.782" y="-399.5" font-family="Helvetica,sans-Serif" font-size="10.00">_camera.cpp</text>
</a>
</g>
</g>
<!-- Node1 -->
<g id="node2" class="node"><title>Node1</title>
<g id="a_node2"><a xlink:href="dji__camera_8hpp.html" target="_top" xlink:title="Camera/Gimbal API for DJI onboardSDK library.">
<polygon fill="white" stroke="black" points="22.2815,-224.5 22.2815,-243.5 105.282,-243.5 105.282,-224.5 22.2815,-224.5"/>
<text text-anchor="middle" x="63.7815" y="-231.5" font-family="Helvetica,sans-Serif" font-size="10.00">dji_camera.hpp</text>
</a>
</g>
</g>
<!-- Node0&#45;&gt;Node1 -->
<g id="edge1" class="edge"><title>Node0&#45;&gt;Node1</title>
<path fill="none" stroke="midnightblue" d="M499.633,-395.83C426.106,-379.857 288.569,-346.554 177.782,-300 143.966,-285.79 107.594,-263.745 85.2565,-249.34"/>
<polygon fill="midnightblue" stroke="midnightblue" points="86.877,-246.218 76.5908,-243.679 83.0487,-252.078 86.877,-246.218"/>
</g>
<!-- Node7 -->
<g id="node8" class="node"><title>Node7</title>
<g id="a_node8"><a xlink:href="dji__vehicle_8hpp.html" target="_top" xlink:title="Vehicle API for DJI onboardSDK library.">
<polygon fill="white" stroke="black" points="1108.28,-336.5 1108.28,-355.5 1189.28,-355.5 1189.28,-336.5 1108.28,-336.5"/>
<text text-anchor="middle" x="1148.78" y="-343.5" font-family="Helvetica,sans-Serif" font-size="10.00">dji_vehicle.hpp</text>
</a>
</g>
</g>
<!-- Node0&#45;&gt;Node7 -->
<g id="edge9" class="edge"><title>Node0&#45;&gt;Node7</title>
<path fill="none" stroke="midnightblue" d="M603.977,-401.298C717.486,-389.985 985.584,-363.265 1097.89,-352.072"/>
<polygon fill="midnightblue" stroke="midnightblue" points="1098.34,-355.544 1107.95,-351.07 1097.65,-348.579 1098.34,-355.544"/>
</g>
<!-- Node2 -->
<g id="node3" class="node"><title>Node2</title>
<g id="a_node3"><a xlink:href="dji__command_8hpp.html" target="_top" xlink:title="All DJI OSDK OpenProtocol Command IDs.">
<polygon fill="white" stroke="black" points="416.282,-112.5 416.282,-131.5 509.282,-131.5 509.282,-112.5 416.282,-112.5"/>
<text text-anchor="middle" x="462.782" y="-119.5" font-family="Helvetica,sans-Serif" font-size="10.00">dji_command.hpp</text>
</a>
</g>
</g>
<!-- Node1&#45;&gt;Node2 -->
<g id="edge2" class="edge"><title>Node1&#45;&gt;Node2</title>
<path fill="none" stroke="midnightblue" d="M69.1714,-224.494C78.7907,-210.122 100.401,-181.304 126.782,-168 139.096,-161.79 313.565,-140.542 406.089,-129.612"/>
<polygon fill="midnightblue" stroke="midnightblue" points="406.615,-133.075 416.136,-128.428 405.795,-126.123 406.615,-133.075"/>
</g>
<!-- Node5 -->
<g id="node6" class="node"><title>Node5</title>
<g id="a_node6"><a xlink:href="dji__type_8hpp.html" target="_top" xlink:title="Data type and Data Structure definitions for use throughout DJI OSDK.">
<polygon fill="white" stroke="black" points="303.282,-112.5 303.282,-131.5 372.282,-131.5 372.282,-112.5 303.282,-112.5"/>
<text text-anchor="middle" x="337.782" y="-119.5" font-family="Helvetica,sans-Serif" font-size="10.00">dji_type.hpp</text>
</a>
</g>
</g>
<!-- Node1&#45;&gt;Node5 -->
<g id="edge6" class="edge"><title>Node1&#45;&gt;Node5</title>
<path fill="none" stroke="midnightblue" d="M59.017,-224.244C52.2769,-210.532 42.2039,-183.916 55.7815,-168 85.7595,-132.859 221.501,-125.033 293.159,-123.377"/>
<polygon fill="midnightblue" stroke="midnightblue" points="293.318,-126.874 303.246,-123.174 293.178,-119.876 293.318,-126.874"/>
</g>
<!-- Node3 -->
<g id="node4" class="node"><title>Node3</title>
<g id="a_node4"><a xlink:href="dji__error_8hpp.html" target="_top" xlink:title="All DJI OSDK OpenProtocol ACK Error Codes.">
<polygon fill="white" stroke="black" points="402.782,-56.5 402.782,-75.5 472.782,-75.5 472.782,-56.5 402.782,-56.5"/>
<text text-anchor="middle" x="437.782" y="-63.5" font-family="Helvetica,sans-Serif" font-size="10.00">dji_error.hpp</text>
</a>
</g>
</g>
<!-- Node2&#45;&gt;Node3 -->
<g id="edge3" class="edge"><title>Node2&#45;&gt;Node3</title>
<path fill="none" stroke="midnightblue" d="M458.653,-112.083C455.268,-104.77 450.365,-94.1814 446.163,-85.1034"/>
<polygon fill="midnightblue" stroke="midnightblue" points="449.21,-83.3553 441.833,-75.7511 442.858,-86.2962 449.21,-83.3553"/>
</g>
<!-- Node4 -->
<g id="node5" class="node"><title>Node4</title>
<g id="a_node5"><a xlink:title=" ">
<polygon fill="white" stroke="#bfbfbf" points="413.282,-0.5 413.282,-19.5 462.282,-19.5 462.282,-0.5 413.282,-0.5"/>
<text text-anchor="middle" x="437.782" y="-7.5" font-family="Helvetica,sans-Serif" font-size="10.00">stdint.h</text>
</a>
</g>
</g>
<!-- Node2&#45;&gt;Node4 -->
<g id="edge5" class="edge"><title>Node2&#45;&gt;Node4</title>
<path fill="none" stroke="midnightblue" d="M468.923,-112.397C477.131,-99.7706 489.77,-75.5968 481.782,-56 476.982,-44.2251 467.453,-33.8564 458.487,-26.0486"/>
<polygon fill="midnightblue" stroke="midnightblue" points="460.536,-23.2048 450.562,-19.6314 456.131,-28.6448 460.536,-23.2048"/>
</g>
<!-- Node3&#45;&gt;Node4 -->
<g id="edge4" class="edge"><title>Node3&#45;&gt;Node4</title>
<path fill="none" stroke="midnightblue" d="M437.782,-56.083C437.782,-49.0059 437.782,-38.8611 437.782,-29.9865"/>
<polygon fill="midnightblue" stroke="midnightblue" points="441.282,-29.751 437.782,-19.7511 434.282,-29.7511 441.282,-29.751"/>
</g>
<!-- Node5&#45;&gt;Node4 -->
<g id="edge8" class="edge"><title>Node5&#45;&gt;Node4</title>
<path fill="none" stroke="midnightblue" d="M333.714,-112.158C328.233,-98.7966 320.398,-73.1996 331.782,-56 347.519,-32.222 378.623,-20.9712 403.086,-15.6695"/>
<polygon fill="midnightblue" stroke="midnightblue" points="403.941,-19.0693 413.099,-13.7424 402.618,-12.1954 403.941,-19.0693"/>
</g>
<!-- Node6 -->
<g id="node7" class="node"><title>Node6</title>
<g id="a_node7"><a xlink:title=" ">
<polygon fill="white" stroke="#bfbfbf" points="341.282,-56.5 341.282,-75.5 384.282,-75.5 384.282,-56.5 341.282,-56.5"/>
<text text-anchor="middle" x="362.782" y="-63.5" font-family="Helvetica,sans-Serif" font-size="10.00">cstdio</text>
</a>
</g>
</g>
<!-- Node5&#45;&gt;Node6 -->
<g id="edge7" class="edge"><title>Node5&#45;&gt;Node6</title>
<path fill="none" stroke="midnightblue" d="M341.91,-112.083C345.295,-104.77 350.198,-94.1814 354.4,-85.1034"/>
<polygon fill="midnightblue" stroke="midnightblue" points="357.705,-86.2962 358.73,-75.7511 351.353,-83.3553 357.705,-86.2962"/>
</g>
<!-- Node7&#45;&gt;Node1 -->
<g id="edge16" class="edge"><title>Node7&#45;&gt;Node1</title>
<path fill="none" stroke="midnightblue" d="M1108.25,-344.418C956.792,-342.017 424.237,-331.474 257.782,-300 197.388,-288.58 130.003,-262.901 92.6712,-247.457"/>
<polygon fill="midnightblue" stroke="midnightblue" points="93.9853,-244.213 83.4094,-243.579 91.2818,-250.67 93.9853,-244.213"/>
</g>
<!-- Node7&#45;&gt;Node2 -->
<g id="edge18" class="edge"><title>Node7&#45;&gt;Node2</title>
<path fill="none" stroke="midnightblue" d="M1108.11,-342.049C1074.56,-337.677 1027.47,-326.841 995.782,-300 946.028,-257.864 985.315,-205.216 931.782,-168 898.614,-144.942 637.382,-130.675 519.798,-125.361"/>
<polygon fill="midnightblue" stroke="midnightblue" points="519.7,-121.853 509.554,-124.904 519.389,-128.846 519.7,-121.853"/>
</g>
<!-- Node7&#45;&gt;Node5 -->
<g id="edge65" class="edge"><title>Node7&#45;&gt;Node5</title>
<path fill="none" stroke="midnightblue" d="M1108.22,-344.634C948.19,-342.956 360.498,-334.525 177.782,-300 101.686,-285.621 57.8913,-306.947 12.7815,-244 -58.4216,-144.642 187.729,-126.775 292.647,-123.636"/>
<polygon fill="midnightblue" stroke="midnightblue" points="293.035,-127.127 302.938,-123.362 292.849,-120.129 293.035,-127.127"/>
</g>
<!-- Node8 -->
<g id="node9" class="node"><title>Node8</title>
<g id="a_node9"><a xlink:title=" ">
<polygon fill="white" stroke="#bfbfbf" points="832.782,-112.5 832.782,-131.5 878.782,-131.5 878.782,-112.5 832.782,-112.5"/>
<text text-anchor="middle" x="855.782" y="-119.5" font-family="Helvetica,sans-Serif" font-size="10.00">cstdint</text>
</a>
</g>
</g>
<!-- Node7&#45;&gt;Node8 -->
<g id="edge10" class="edge"><title>Node7&#45;&gt;Node8</title>
<path fill="none" stroke="midnightblue" d="M1108.2,-340.893C1078.53,-335.873 1039.19,-324.727 1013.78,-300 969.048,-256.459 1009.04,-213.005 965.782,-168 945.263,-146.653 913.184,-135.099 888.952,-129.066"/>
<polygon fill="midnightblue" stroke="midnightblue" points="889.634,-125.631 879.105,-126.806 888.068,-132.454 889.634,-125.631"/>
</g>
<!-- Node9 -->
<g id="node10" class="node"><title>Node9</title>
<g id="a_node10"><a xlink:href="dji__broadcast_8hpp.html" target="_top" xlink:title="Broadcast Telemetry API for DJI onboardSDK library.">
<polygon fill="white" stroke="black" points="1056.28,-224.5 1056.28,-243.5 1149.28,-243.5 1149.28,-224.5 1056.28,-224.5"/>
<text text-anchor="middle" x="1102.78" y="-231.5" font-family="Helvetica,sans-Serif" font-size="10.00">dji_broadcast.hpp</text>
</a>
</g>
</g>
<!-- Node7&#45;&gt;Node9 -->
<g id="edge11" class="edge"><title>Node7&#45;&gt;Node9</title>
<path fill="none" stroke="midnightblue" d="M1145.17,-336.368C1137.68,-318.456 1120.31,-276.923 1110.29,-252.948"/>
<polygon fill="midnightblue" stroke="midnightblue" points="1113.46,-251.467 1106.37,-243.591 1107,-254.168 1113.46,-251.467"/>
</g>
<!-- Node11 -->
<g id="node12" class="node"><title>Node11</title>
<g id="a_node12"><a xlink:href="dji__vehicle__callback_8hpp.html" target="_top" xlink:title="Type definition for new Vehicle&#45;style callbacks.">
<polygon fill="white" stroke="black" points="1265.78,-112.5 1265.78,-131.5 1387.78,-131.5 1387.78,-112.5 1265.78,-112.5"/>
<text text-anchor="middle" x="1326.78" y="-119.5" font-family="Helvetica,sans-Serif" font-size="10.00">dji_vehicle_callback.hpp</text>
</a>
</g>
</g>
<!-- Node7&#45;&gt;Node11 -->
<g id="edge66" class="edge"><title>Node7&#45;&gt;Node11</title>
<path fill="none" stroke="midnightblue" d="M1189.53,-344.804C1378.21,-343.702 2159.42,-336.917 2194.78,-300 2308.66,-181.116 1625.04,-137.286 1398.13,-126.12"/>
<polygon fill="midnightblue" stroke="midnightblue" points="1398.15,-122.617 1387.99,-125.628 1397.81,-129.609 1398.15,-122.617"/>
</g>
<!-- Node12 -->
<g id="node13" class="node"><title>Node12</title>
<g id="a_node13"><a xlink:title=" ">
<polygon fill="white" stroke="#bfbfbf" points="972.282,-56.5 972.282,-75.5 1083.28,-75.5 1083.28,-56.5 972.282,-56.5"/>
<text text-anchor="middle" x="1027.78" y="-63.5" font-family="Helvetica,sans-Serif" font-size="10.00">dji_open_protocol.hpp</text>
</a>
</g>
</g>
<!-- Node7&#45;&gt;Node12 -->
<g id="edge57" class="edge"><title>Node7&#45;&gt;Node12</title>
<path fill="none" stroke="midnightblue" d="M1126.02,-336.43C1090.97,-321.579 1027.78,-287.522 1027.78,-235 1027.78,-235 1027.78,-235 1027.78,-177 1027.78,-144.948 1027.78,-107.643 1027.78,-85.7489"/>
<polygon fill="midnightblue" stroke="midnightblue" points="1031.28,-85.5577 1027.78,-75.5578 1024.28,-85.5578 1031.28,-85.5577"/>
</g>
<!-- Node13 -->
<g id="node14" class="node"><title>Node13</title>
<g id="a_node14"><a xlink:title=" ">
<polygon fill="white" stroke="#bfbfbf" points="1577.78,-280.5 1577.78,-299.5 1689.78,-299.5 1689.78,-280.5 1577.78,-280.5"/>
<text text-anchor="middle" x="1633.78" y="-287.5" font-family="Helvetica,sans-Serif" font-size="10.00">dji_circular_buffer.hpp</text>
</a>
</g>
</g>
<!-- Node7&#45;&gt;Node13 -->
<g id="edge17" class="edge"><title>Node7&#45;&gt;Node13</title>
<path fill="none" stroke="midnightblue" d="M1189.46,-340.86C1263.82,-333.231 1426.68,-316.245 1563.78,-300 1565.05,-299.85 1566.33,-299.697 1567.62,-299.542"/>
<polygon fill="midnightblue" stroke="midnightblue" points="1568.13,-303.006 1577.63,-298.319 1567.28,-296.057 1568.13,-303.006"/>
</g>
<!-- Node14 -->
<g id="node15" class="node"><title>Node14</title>
<g id="a_node15"><a xlink:href="dji__control_8hpp.html" target="_top" xlink:title="Control API for DJI OSDK library.">
<polygon fill="white" stroke="black" points="486.782,-280.5 486.782,-299.5 566.782,-299.5 566.782,-280.5 486.782,-280.5"/>
<text text-anchor="middle" x="526.782" y="-287.5" font-family="Helvetica,sans-Serif" font-size="10.00">dji_control.hpp</text>
</a>
</g>
</g>
<!-- Node7&#45;&gt;Node14 -->
<g id="edge19" class="edge"><title>Node7&#45;&gt;Node14</title>
<path fill="none" stroke="midnightblue" d="M1107.97,-341.457C998.197,-331.927 696.844,-305.764 576.946,-295.355"/>
<polygon fill="midnightblue" stroke="midnightblue" points="577.2,-291.864 566.934,-294.486 576.594,-298.838 577.2,-291.864"/>
</g>
<!-- Node17 -->
<g id="node18" class="node"><title>Node17</title>
<g id="a_node18"><a xlink:href="dji__version_8hpp.html" target="_top" xlink:title="Drone/SDK Version definition for DJI onboardSDK library.">
<polygon fill="white" stroke="black" points="693.782,-168.5 693.782,-187.5 775.782,-187.5 775.782,-168.5 693.782,-168.5"/>
<text text-anchor="middle" x="734.782" y="-175.5" font-family="Helvetica,sans-Serif" font-size="10.00">dji_version.hpp</text>
</a>
</g>
</g>
<!-- Node7&#45;&gt;Node17 -->
<g id="edge67" class="edge"><title>Node7&#45;&gt;Node17</title>
<path fill="none" stroke="midnightblue" d="M1108.08,-340.334C1054.63,-333.536 964.432,-319.555 937.782,-300 906.492,-277.041 925.32,-247.949 894.782,-224 863.607,-199.552 819.849,-188.384 785.973,-183.284"/>
<polygon fill="midnightblue" stroke="midnightblue" points="786.185,-179.78 775.802,-181.888 785.233,-186.715 786.185,-179.78"/>
</g>
<!-- Node19 -->
<g id="node20" class="node"><title>Node19</title>
<g id="a_node20"><a xlink:href="dji__gimbal_8hpp.html" target="_top" xlink:title="Gimbal API for OSDK library.">
<polygon fill="white" stroke="black" points="136.282,-168.5 136.282,-187.5 215.282,-187.5 215.282,-168.5 136.282,-168.5"/>
<text text-anchor="middle" x="175.782" y="-175.5" font-family="Helvetica,sans-Serif" font-size="10.00">dji_gimbal.hpp</text>
</a>
</g>
</g>
<!-- Node7&#45;&gt;Node19 -->
<g id="edge32" class="edge"><title>Node7&#45;&gt;Node19</title>
<path fill="none" stroke="midnightblue" d="M1108.14,-344.036C955.155,-340.225 418.907,-325.184 346.782,-300 281.781,-277.304 219.403,-222.005 191.315,-194.735"/>
<polygon fill="midnightblue" stroke="midnightblue" points="193.603,-192.075 184.03,-187.536 188.683,-197.055 193.603,-192.075"/>
</g>
<!-- Node20 -->
<g id="node21" class="node"><title>Node20</title>
<g id="a_node21"><a xlink:title=" ">
<polygon fill="white" stroke="#bfbfbf" points="1707.78,-280.5 1707.78,-299.5 1805.78,-299.5 1805.78,-280.5 1707.78,-280.5"/>
<text text-anchor="middle" x="1756.78" y="-287.5" font-family="Helvetica,sans-Serif" font-size="10.00">dji_hard_driver.hpp</text>
</a>
</g>
</g>
<!-- Node7&#45;&gt;Node20 -->
<g id="edge35" class="edge"><title>Node7&#45;&gt;Node20</title>
<path fill="none" stroke="midnightblue" d="M1189.59,-342.674C1279.42,-337.336 1501.22,-322.964 1697.55,-300.063"/>
<polygon fill="midnightblue" stroke="midnightblue" points="1698.25,-303.505 1707.77,-298.861 1697.43,-296.553 1698.25,-303.505"/>
</g>
<!-- Node21 -->
<g id="node22" class="node"><title>Node21</title>
<g id="a_node22"><a xlink:href="dji__hardware__sync_8hpp.html" target="_top" xlink:title="Hardware Sync API for DJI OSDK.">
<polygon fill="white" stroke="black" points="1055.78,-168.5 1055.78,-187.5 1171.78,-187.5 1171.78,-168.5 1055.78,-168.5"/>
<text text-anchor="middle" x="1113.78" y="-175.5" font-family="Helvetica,sans-Serif" font-size="10.00">dji_hardware_sync.hpp</text>
</a>
</g>
</g>
<!-- Node7&#45;&gt;Node21 -->
<g id="edge36" class="edge"><title>Node7&#45;&gt;Node21</title>
<path fill="none" stroke="midnightblue" d="M1151.96,-336.379C1158.95,-315.96 1173.84,-263.403 1157.78,-224 1152.98,-212.225 1143.45,-201.856 1134.49,-194.049"/>
<polygon fill="midnightblue" stroke="midnightblue" points="1136.54,-191.205 1126.56,-187.631 1132.13,-196.645 1136.54,-191.205"/>
</g>
<!-- Node23 -->
<g id="node24" class="node"><title>Node23</title>
<g id="a_node24"><a xlink:href="dji__mfio_8hpp.html" target="_top" xlink:title="MFIO API for DJI OSDK library.">
<polygon fill="white" stroke="black" points="1304.28,-168.5 1304.28,-187.5 1373.28,-187.5 1373.28,-168.5 1304.28,-168.5"/>
<text text-anchor="middle" x="1338.78" y="-175.5" font-family="Helvetica,sans-Serif" font-size="10.00">dji_mfio.hpp</text>
</a>
</g>
</g>
<!-- Node7&#45;&gt;Node23 -->
<g id="edge40" class="edge"><title>Node7&#45;&gt;Node23</title>
<path fill="none" stroke="midnightblue" d="M1174.18,-336.423C1211.1,-322.683 1279.36,-292.27 1317.78,-244 1328.39,-230.675 1333.7,-211.845 1336.33,-197.88"/>
<polygon fill="midnightblue" stroke="midnightblue" points="1339.8,-198.345 1337.9,-187.921 1332.88,-197.251 1339.8,-198.345"/>
</g>
<!-- Node24 -->
<g id="node25" class="node"><title>Node24</title>
<g id="a_node25"><a xlink:href="dji__mission__manager_8hpp.html" target="_top" xlink:title="Mission&#45;Manager API for DJI OSDK library.">
<polygon fill="white" stroke="black" points="738.282,-280.5 738.282,-299.5 865.282,-299.5 865.282,-280.5 738.282,-280.5"/>
<text text-anchor="middle" x="801.782" y="-287.5" font-family="Helvetica,sans-Serif" font-size="10.00">dji_mission_manager.hpp</text>
</a>
</g>
</g>
<!-- Node7&#45;&gt;Node24 -->
<g id="edge42" class="edge"><title>Node7&#45;&gt;Node24</title>
<path fill="none" stroke="midnightblue" d="M1107.96,-338.647C1048.45,-329.386 937.287,-312.087 866.541,-301.078"/>
<polygon fill="midnightblue" stroke="midnightblue" points="866.826,-297.58 856.407,-299.501 865.75,-304.497 866.826,-297.58"/>
</g>
<!-- Node29 -->
<g id="node30" class="node"><title>Node29</title>
<g id="a_node30"><a xlink:href="dji__mobile__communication_8hpp.html" target="_top" xlink:title="Implementation of DJI Mobile&#45;Onboard SDK Communication (MOC)">
<polygon fill="white" stroke="black" points="1371.78,-280.5 1371.78,-299.5 1521.78,-299.5 1521.78,-280.5 1371.78,-280.5"/>
<text text-anchor="middle" x="1446.78" y="-287.5" font-family="Helvetica,sans-Serif" font-size="10.00">dji_mobile_communication.hpp</text>
</a>
</g>
</g>
<!-- Node7&#45;&gt;Node29 -->
<g id="edge52" class="edge"><title>Node7&#45;&gt;Node29</title>
<path fill="none" stroke="midnightblue" d="M1189.59,-337.605C1241.4,-328.217 1331.06,-311.97 1389.64,-301.354"/>
<polygon fill="midnightblue" stroke="midnightblue" points="1390.63,-304.732 1399.85,-299.505 1389.38,-297.844 1390.63,-304.732"/>
</g>
<!-- Node31 -->
<g id="node32" class="node"><title>Node31</title>
<g id="a_node32"><a xlink:href="dji__mobile__device_8hpp.html" target="_top" xlink:title="Implementation of DJI Mobile Device Abstraction.">
<polygon fill="white" stroke="black" points="1366.28,-224.5 1366.28,-243.5 1479.28,-243.5 1479.28,-224.5 1366.28,-224.5"/>
<text text-anchor="middle" x="1422.78" y="-231.5" font-family="Helvetica,sans-Serif" font-size="10.00">dji_mobile_device.hpp</text>
</a>
</g>
</g>
<!-- Node7&#45;&gt;Node31 -->
<g id="edge55" class="edge"><title>Node7&#45;&gt;Node31</title>
<path fill="none" stroke="midnightblue" d="M1189.33,-337.966C1224.73,-330.981 1276.99,-318.606 1319.78,-300 1350.89,-286.474 1383.46,-264.374 1403.44,-249.758"/>
<polygon fill="midnightblue" stroke="midnightblue" points="1405.75,-252.403 1411.69,-243.627 1401.57,-246.785 1405.75,-252.403"/>
</g>
<!-- Node32 -->
<g id="node33" class="node"><title>Node32</title>
<g id="a_node33"><a xlink:title=" ">
<polygon fill="white" stroke="#bfbfbf" points="1823.78,-280.5 1823.78,-299.5 1951.78,-299.5 1951.78,-280.5 1823.78,-280.5"/>
<text text-anchor="middle" x="1887.78" y="-287.5" font-family="Helvetica,sans-Serif" font-size="10.00">dji_platform_manager.hpp</text>
</a>
</g>
</g>
<!-- Node7&#45;&gt;Node32 -->
<g id="edge58" class="edge"><title>Node7&#45;&gt;Node32</title>
<path fill="none" stroke="midnightblue" d="M1189.39,-343.039C1292.06,-337.913 1570.53,-322.967 1813.62,-300.059"/>
<polygon fill="midnightblue" stroke="midnightblue" points="1814.08,-303.531 1823.71,-299.102 1813.42,-296.563 1814.08,-303.531"/>
</g>
<!-- Node33 -->
<g id="node34" class="node"><title>Node33</title>
<g id="a_node34"><a xlink:href="dji__status_8hpp.html" target="_top" xlink:title="Status information for DJI Vehicle.">
<polygon fill="white" stroke="black" points="1970.28,-280.5 1970.28,-299.5 2047.28,-299.5 2047.28,-280.5 1970.28,-280.5"/>
<text text-anchor="middle" x="2008.78" y="-287.5" font-family="Helvetica,sans-Serif" font-size="10.00">dji_status.hpp</text>
</a>
</g>
</g>
<!-- Node7&#45;&gt;Node33 -->
<g id="edge59" class="edge"><title>Node7&#45;&gt;Node33</title>
<path fill="none" stroke="midnightblue" d="M1189.5,-344.612C1307.26,-343.092 1658.42,-335.766 1959.83,-299.936"/>
<polygon fill="midnightblue" stroke="midnightblue" points="1960.56,-303.373 1970.08,-298.704 1959.73,-296.423 1960.56,-303.373"/>
</g>
<!-- Node34 -->
<g id="node35" class="node"><title>Node34</title>
<g id="a_node35"><a xlink:href="dji__subscription_8hpp.html" target="_top" xlink:title="Telemetry Subscription API for DJI OSDK library.">
<polygon fill="white" stroke="black" points="1206.28,-224.5 1206.28,-243.5 1309.28,-243.5 1309.28,-224.5 1206.28,-224.5"/>
<text text-anchor="middle" x="1257.78" y="-231.5" font-family="Helvetica,sans-Serif" font-size="10.00">dji_subscription.hpp</text>
</a>
</g>
</g>
<!-- Node7&#45;&gt;Node34 -->
<g id="edge60" class="edge"><title>Node7&#45;&gt;Node34</title>
<path fill="none" stroke="midnightblue" d="M1157.33,-336.368C1175.64,-317.894 1218.85,-274.293 1242.18,-250.744"/>
<polygon fill="midnightblue" stroke="midnightblue" points="1244.72,-253.158 1249.27,-243.591 1239.74,-248.231 1244.72,-253.158"/>
</g>
<!-- Node35 -->
<g id="node36" class="node"><title>Node35</title>
<g id="a_node36"><a xlink:title=" ">
<polygon fill="white" stroke="#bfbfbf" points="2065.78,-280.5 2065.78,-299.5 2185.78,-299.5 2185.78,-280.5 2065.78,-280.5"/>
<text text-anchor="middle" x="2125.78" y="-287.5" font-family="Helvetica,sans-Serif" font-size="10.00">dji_thread_manager.hpp</text>
</a>
</g>
</g>
<!-- Node7&#45;&gt;Node35 -->
<g id="edge64" class="edge"><title>Node7&#45;&gt;Node35</title>
<path fill="none" stroke="midnightblue" d="M1189.59,-344.144C1316.37,-341.235 1714.85,-330.232 2055.54,-300.037"/>
<polygon fill="midnightblue" stroke="midnightblue" points="2055.95,-303.514 2065.6,-299.138 2055.33,-296.542 2055.95,-303.514"/>
</g>
<!-- Node36 -->
<g id="node37" class="node"><title>Node36</title>
<g id="a_node37"><a xlink:href="dji__virtual__rc_8hpp.html" target="_top" xlink:title="Virtual Radio Control API for DJI onboardSDK library.">
<polygon fill="white" stroke="black" points="355.782,-280.5 355.782,-299.5 445.782,-299.5 445.782,-280.5 355.782,-280.5"/>
<text text-anchor="middle" x="400.782" y="-287.5" font-family="Helvetica,sans-Serif" font-size="10.00">dji_virtual_rc.hpp</text>
</a>
</g>
</g>
<!-- Node7&#45;&gt;Node36 -->
<g id="edge68" class="edge"><title>Node7&#45;&gt;Node36</title>
<path fill="none" stroke="midnightblue" d="M1108.26,-342.982C1003.73,-337.623 716.415,-321.934 477.782,-300 470.767,-299.355 463.403,-298.598 456.124,-297.801"/>
<polygon fill="midnightblue" stroke="midnightblue" points="456.266,-294.295 445.937,-296.656 455.483,-301.251 456.266,-294.295"/>
</g>
<!-- Node37 -->
<g id="node38" class="node"><title>Node37</title>
<g id="a_node38"><a xlink:href="dji__payload__device_8hpp.html" target="_top" xlink:title="Implementation of DJI Payload Device Abstraction.">
<polygon fill="white" stroke="black" points="1562.78,-168.5 1562.78,-187.5 1680.78,-187.5 1680.78,-168.5 1562.78,-168.5"/>
<text text-anchor="middle" x="1621.78" y="-175.5" font-family="Helvetica,sans-Serif" font-size="10.00">dji_payload_device.hpp</text>
</a>
</g>
</g>
<!-- Node7&#45;&gt;Node37 -->
<g id="edge73" class="edge"><title>Node7&#45;&gt;Node37</title>
<path fill="none" stroke="midnightblue" d="M1189.53,-345.533C1260.67,-345.305 1411.31,-339.647 1530.78,-300 1536.69,-298.04 1624.67,-249.389 1627.78,-244 1635.92,-229.906 1633.04,-211.169 1628.94,-197.435"/>
<polygon fill="midnightblue" stroke="midnightblue" points="1632.15,-195.992 1625.58,-187.676 1625.53,-198.271 1632.15,-195.992"/>
</g>
<!-- Node10 -->
<g id="node11" class="node"><title>Node10</title>
<g id="a_node11"><a xlink:href="dji__telemetry_8hpp.html" target="_top" xlink:title="Enumeration of all telemetry data types, structures and maps.">
<polygon fill="white" stroke="black" points="832.282,-168.5 832.282,-187.5 923.282,-187.5 923.282,-168.5 832.282,-168.5"/>
<text text-anchor="middle" x="877.782" y="-175.5" font-family="Helvetica,sans-Serif" font-size="10.00">dji_telemetry.hpp</text>
</a>
</g>
</g>
<!-- Node9&#45;&gt;Node10 -->
<g id="edge12" class="edge"><title>Node9&#45;&gt;Node10</title>
<path fill="none" stroke="midnightblue" d="M1067.13,-224.444C1028.13,-215.083 965.515,-200.056 923.065,-189.868"/>
<polygon fill="midnightblue" stroke="midnightblue" points="923.807,-186.447 913.267,-187.516 922.174,-193.254 923.807,-186.447"/>
</g>
<!-- Node9&#45;&gt;Node11 -->
<g id="edge14" class="edge"><title>Node9&#45;&gt;Node11</title>
<path fill="none" stroke="midnightblue" d="M1120.36,-224.368C1159.45,-205.171 1253.79,-158.842 1300.16,-136.074"/>
<polygon fill="midnightblue" stroke="midnightblue" points="1301.85,-139.141 1309.29,-131.591 1298.77,-132.858 1301.85,-139.141"/>
</g>
<!-- Node10&#45;&gt;Node5 -->
<g id="edge13" class="edge"><title>Node10&#45;&gt;Node5</title>
<path fill="none" stroke="midnightblue" d="M831.899,-172.546C816.883,-171.092 800.121,-169.473 784.782,-168 616.794,-151.872 574.478,-150.917 406.782,-132 398.932,-131.115 390.59,-130.094 382.52,-129.066"/>
<polygon fill="midnightblue" stroke="midnightblue" points="382.868,-125.582 372.501,-127.768 381.969,-132.524 382.868,-125.582"/>
</g>
<!-- Node11&#45;&gt;Node12 -->
<g id="edge15" class="edge"><title>Node11&#45;&gt;Node12</title>
<path fill="none" stroke="midnightblue" d="M1279.4,-112.444C1226.7,-102.925 1141.55,-87.5472 1085.12,-77.3563"/>
<polygon fill="midnightblue" stroke="midnightblue" points="1085.4,-73.8495 1074.94,-75.5164 1084.16,-80.7381 1085.4,-73.8495"/>
</g>
<!-- Node14&#45;&gt;Node5 -->
<g id="edge30" class="edge"><title>Node14&#45;&gt;Node5</title>
<path fill="none" stroke="midnightblue" d="M522.864,-280.463C512.548,-258.832 482.591,-201.231 441.782,-168 423.427,-153.055 399.354,-142.218 378.992,-134.929"/>
<polygon fill="midnightblue" stroke="midnightblue" points="379.929,-131.55 369.335,-131.633 377.668,-138.175 379.929,-131.55"/>
</g>
<!-- Node14&#45;&gt;Node11 -->
<g id="edge31" class="edge"><title>Node14&#45;&gt;Node11</title>
<path fill="none" stroke="midnightblue" d="M536.555,-280.392C552.978,-266.392 587.673,-238.773 621.782,-224 689.861,-194.515 715.113,-213.504 784.782,-188 802.704,-181.439 804.476,-173.398 822.782,-168 863.186,-156.085 1125.97,-136.763 1255.22,-127.822"/>
<polygon fill="midnightblue" stroke="midnightblue" points="1255.69,-131.298 1265.42,-127.119 1255.21,-124.315 1255.69,-131.298"/>
</g>
<!-- Node14&#45;&gt;Node12 -->
<g id="edge29" class="edge"><title>Node14&#45;&gt;Node12</title>
<path fill="none" stroke="midnightblue" d="M526.085,-280.182C524.847,-257.891 524.914,-198.87 556.782,-168 613.923,-112.647 846.281,-83.7838 961.855,-72.61"/>
<polygon fill="midnightblue" stroke="midnightblue" points="962.368,-76.0771 971.992,-71.6464 961.706,-69.1085 962.368,-76.0771"/>
</g>
<!-- Node15 -->
<g id="node16" class="node"><title>Node15</title>
<g id="a_node16"><a xlink:href="dji__ack_8hpp.html" target="_top" xlink:title="All DJI OSDK ACK parsing.">
<polygon fill="white" stroke="black" points="367.782,-224.5 367.782,-243.5 433.782,-243.5 433.782,-224.5 367.782,-224.5"/>
<text text-anchor="middle" x="400.782" y="-231.5" font-family="Helvetica,sans-Serif" font-size="10.00">dji_ack.hpp</text>
</a>
</g>
</g>
<!-- Node14&#45;&gt;Node15 -->
<g id="edge20" class="edge"><title>Node14&#45;&gt;Node15</title>
<path fill="none" stroke="midnightblue" d="M506.816,-280.444C486.172,-271.596 453.719,-257.687 430.15,-247.586"/>
<polygon fill="midnightblue" stroke="midnightblue" points="431.223,-244.239 420.653,-243.516 428.466,-250.673 431.223,-244.239"/>
</g>
<!-- Node15&#45;&gt;Node2 -->
<g id="edge21" class="edge"><title>Node15&#45;&gt;Node2</title>
<path fill="none" stroke="midnightblue" d="M410.875,-224.293C420.093,-215.852 433.508,-202.261 441.782,-188 450.15,-173.575 455.662,-155.384 458.929,-141.917"/>
<polygon fill="midnightblue" stroke="midnightblue" points="462.402,-142.425 461.16,-131.903 455.57,-140.903 462.402,-142.425"/>
</g>
<!-- Node15&#45;&gt;Node5 -->
<g id="edge24" class="edge"><title>Node15&#45;&gt;Node5</title>
<path fill="none" stroke="midnightblue" d="M395.838,-224.368C385.487,-206.296 361.364,-164.176 347.694,-140.307"/>
<polygon fill="midnightblue" stroke="midnightblue" points="350.709,-138.53 342.702,-131.591 344.635,-142.008 350.709,-138.53"/>
</g>
<!-- Node16 -->
<g id="node17" class="node"><title>Node16</title>
<g id="a_node17"><a xlink:href="dji__mission__type_8hpp.html" target="_top" xlink:title="Mission related data struct for DJI OSDK library.">
<polygon fill="white" stroke="black" points="233.782,-168.5 233.782,-187.5 341.782,-187.5 341.782,-168.5 233.782,-168.5"/>
<text text-anchor="middle" x="287.782" y="-175.5" font-family="Helvetica,sans-Serif" font-size="10.00">dji_mission_type.hpp</text>
</a>
</g>
</g>
<!-- Node15&#45;&gt;Node16 -->
<g id="edge22" class="edge"><title>Node15&#45;&gt;Node16</title>
<path fill="none" stroke="midnightblue" d="M382.876,-224.444C364.528,-215.675 335.776,-201.935 314.688,-191.858"/>
<polygon fill="midnightblue" stroke="midnightblue" points="316.135,-188.67 305.603,-187.516 313.117,-194.986 316.135,-188.67"/>
</g>
<!-- Node15&#45;&gt;Node17 -->
<g id="edge25" class="edge"><title>Node15&#45;&gt;Node17</title>
<path fill="none" stroke="midnightblue" d="M434.048,-227.96C485.361,-220.136 587.163,-204.414 683.671,-188.161"/>
<polygon fill="midnightblue" stroke="midnightblue" points="684.315,-191.601 693.593,-186.484 683.149,-184.699 684.315,-191.601"/>
</g>
<!-- Node18 -->
<g id="node19" class="node"><title>Node18</title>
<g id="a_node19"><a xlink:title=" ">
<polygon fill="white" stroke="#bfbfbf" points="398.282,-168.5 398.282,-187.5 433.282,-187.5 433.282,-168.5 398.282,-168.5"/>
<text text-anchor="middle" x="415.782" y="-175.5" font-family="Helvetica,sans-Serif" font-size="10.00">map</text>
</a>
</g>
</g>
<!-- Node15&#45;&gt;Node18 -->
<g id="edge28" class="edge"><title>Node15&#45;&gt;Node18</title>
<path fill="none" stroke="midnightblue" d="M403.258,-224.083C405.268,-216.849 408.168,-206.409 410.671,-197.397"/>
<polygon fill="midnightblue" stroke="midnightblue" points="414.046,-198.323 413.351,-187.751 407.302,-196.449 414.046,-198.323"/>
</g>
<!-- Node16&#45;&gt;Node5 -->
<g id="edge23" class="edge"><title>Node16&#45;&gt;Node5</title>
<path fill="none" stroke="midnightblue" d="M296.038,-168.083C303.246,-160.298 313.891,-148.801 322.627,-139.367"/>
<polygon fill="midnightblue" stroke="midnightblue" points="325.453,-141.467 329.679,-131.751 320.316,-136.711 325.453,-141.467"/>
</g>
<!-- Node17&#45;&gt;Node2 -->
<g id="edge26" class="edge"><title>Node17&#45;&gt;Node2</title>
<path fill="none" stroke="midnightblue" d="M693.766,-168.857C646.321,-159.438 568.072,-143.903 515.984,-133.562"/>
<polygon fill="midnightblue" stroke="midnightblue" points="516.422,-130.081 505.932,-131.567 515.059,-136.947 516.422,-130.081"/>
</g>
<!-- Node17&#45;&gt;Node8 -->
<g id="edge27" class="edge"><title>Node17&#45;&gt;Node8</title>
<path fill="none" stroke="midnightblue" d="M753.954,-168.444C773.691,-159.636 804.667,-145.812 827.275,-135.722"/>
<polygon fill="midnightblue" stroke="midnightblue" points="828.993,-138.788 836.698,-131.516 826.14,-132.396 828.993,-138.788"/>
</g>
<!-- Node19&#45;&gt;Node2 -->
<g id="edge33" class="edge"><title>Node19&#45;&gt;Node2</title>
<path fill="none" stroke="midnightblue" d="M215.386,-169.548C265.185,-160.179 350.962,-144.039 407.281,-133.443"/>
<polygon fill="midnightblue" stroke="midnightblue" points="408.259,-136.82 417.439,-131.531 406.964,-129.941 408.259,-136.82"/>
</g>
<!-- Node19&#45;&gt;Node5 -->
<g id="edge34" class="edge"><title>Node19&#45;&gt;Node5</title>
<path fill="none" stroke="midnightblue" d="M201.451,-168.444C228.704,-159.359 271.965,-144.939 302.432,-134.783"/>
<polygon fill="midnightblue" stroke="midnightblue" points="303.852,-137.999 312.232,-131.516 301.639,-131.358 303.852,-137.999"/>
</g>
<!-- Node21&#45;&gt;Node5 -->
<g id="edge37" class="edge"><title>Node21&#45;&gt;Node5</title>
<path fill="none" stroke="midnightblue" d="M1055.72,-173.802C910.141,-165.703 532.26,-144.163 406.782,-132 398.919,-131.238 390.571,-130.278 382.499,-129.271"/>
<polygon fill="midnightblue" stroke="midnightblue" points="382.844,-125.786 372.479,-127.981 381.95,-132.729 382.844,-125.786"/>
</g>
<!-- Node21&#45;&gt;Node11 -->
<g id="edge38" class="edge"><title>Node21&#45;&gt;Node11</title>
<path fill="none" stroke="midnightblue" d="M1147.53,-168.444C1184.3,-159.122 1243.23,-144.183 1283.4,-133.997"/>
<polygon fill="midnightblue" stroke="midnightblue" points="1284.36,-137.367 1293.19,-131.516 1282.64,-130.581 1284.36,-137.367"/>
</g>
<!-- Node22 -->
<g id="node23" class="node"><title>Node22</title>
<g id="a_node23"><a xlink:title=" ">
<polygon fill="white" stroke="#bfbfbf" points="1093.28,-112.5 1093.28,-131.5 1134.28,-131.5 1134.28,-112.5 1093.28,-112.5"/>
<text text-anchor="middle" x="1113.78" y="-119.5" font-family="Helvetica,sans-Serif" font-size="10.00">string</text>
</a>
</g>
</g>
<!-- Node21&#45;&gt;Node22 -->
<g id="edge39" class="edge"><title>Node21&#45;&gt;Node22</title>
<path fill="none" stroke="midnightblue" d="M1113.78,-168.083C1113.78,-161.006 1113.78,-150.861 1113.78,-141.986"/>
<polygon fill="midnightblue" stroke="midnightblue" points="1117.28,-141.751 1113.78,-131.751 1110.28,-141.751 1117.28,-141.751"/>
</g>
<!-- Node23&#45;&gt;Node11 -->
<g id="edge41" class="edge"><title>Node23&#45;&gt;Node11</title>
<path fill="none" stroke="midnightblue" d="M1336.8,-168.083C1335.21,-160.927 1332.92,-150.635 1330.94,-141.691"/>
<polygon fill="midnightblue" stroke="midnightblue" points="1334.31,-140.754 1328.73,-131.751 1327.48,-142.272 1334.31,-140.754"/>
</g>
<!-- Node25 -->
<g id="node26" class="node"><title>Node25</title>
<g id="a_node26"><a xlink:href="dji__hotpoint_8hpp.html" target="_top" xlink:title="Implementation of HotPoint (Point of Interest) Missions for DJI OSDK.">
<polygon fill="white" stroke="black" points="738.282,-224.5 738.282,-243.5 823.282,-243.5 823.282,-224.5 738.282,-224.5"/>
<text text-anchor="middle" x="780.782" y="-231.5" font-family="Helvetica,sans-Serif" font-size="10.00">dji_hotpoint.hpp</text>
</a>
</g>
</g>
<!-- Node24&#45;&gt;Node25 -->
<g id="edge43" class="edge"><title>Node24&#45;&gt;Node25</title>
<path fill="none" stroke="midnightblue" d="M798.314,-280.083C795.47,-272.77 791.352,-262.181 787.822,-253.103"/>
<polygon fill="midnightblue" stroke="midnightblue" points="791.071,-251.803 784.185,-243.751 784.547,-254.34 791.071,-251.803"/>
</g>
<!-- Node27 -->
<g id="node28" class="node"><title>Node27</title>
<g id="a_node28"><a xlink:href="dji__waypoint_8hpp.html" target="_top" xlink:title="Implementation of GPS Waypoint Missions for DJI OSDK.">
<polygon fill="white" stroke="black" points="631.282,-224.5 631.282,-243.5 720.282,-243.5 720.282,-224.5 631.282,-224.5"/>
<text text-anchor="middle" x="675.782" y="-231.5" font-family="Helvetica,sans-Serif" font-size="10.00">dji_waypoint.hpp</text>
</a>
</g>
</g>
<!-- Node24&#45;&gt;Node27 -->
<g id="edge49" class="edge"><title>Node24&#45;&gt;Node27</title>
<path fill="none" stroke="midnightblue" d="M781.816,-280.444C761.172,-271.596 728.719,-257.687 705.15,-247.586"/>
<polygon fill="midnightblue" stroke="midnightblue" points="706.223,-244.239 695.653,-243.516 703.466,-250.673 706.223,-244.239"/>
</g>
<!-- Node28 -->
<g id="node29" class="node"><title>Node28</title>
<g id="a_node29"><a xlink:title=" ">
<polygon fill="white" stroke="#bfbfbf" points="841.782,-224.5 841.782,-243.5 885.782,-243.5 885.782,-224.5 841.782,-224.5"/>
<text text-anchor="middle" x="863.782" y="-231.5" font-family="Helvetica,sans-Serif" font-size="10.00">vector</text>
</a>
</g>
</g>
<!-- Node24&#45;&gt;Node28 -->
<g id="edge51" class="edge"><title>Node24&#45;&gt;Node28</title>
<path fill="none" stroke="midnightblue" d="M811.743,-280.324C820.908,-272.341 834.719,-260.313 845.81,-250.653"/>
<polygon fill="midnightblue" stroke="midnightblue" points="848.397,-253.041 853.639,-243.834 843.799,-247.762 848.397,-253.041"/>
</g>
<!-- Node25&#45;&gt;Node10 -->
<g id="edge48" class="edge"><title>Node25&#45;&gt;Node10</title>
<path fill="none" stroke="midnightblue" d="M796.366,-224.324C811.781,-215.743 835.594,-202.486 853.491,-192.522"/>
<polygon fill="midnightblue" stroke="midnightblue" points="855.201,-195.577 862.235,-187.655 851.796,-189.461 855.201,-195.577"/>
</g>
<!-- Node26 -->
<g id="node27" class="node"><title>Node26</title>
<g id="a_node27"><a xlink:href="dji__mission__base_8hpp.html" target="_top" xlink:title="Mission&#45;Base abstract class for DJI OSDK library.">
<polygon fill="white" stroke="black" points="565.782,-168.5 565.782,-187.5 675.782,-187.5 675.782,-168.5 565.782,-168.5"/>
<text text-anchor="middle" x="620.782" y="-175.5" font-family="Helvetica,sans-Serif" font-size="10.00">dji_mission_base.hpp</text>
</a>
</g>
</g>
<!-- Node25&#45;&gt;Node26 -->
<g id="edge44" class="edge"><title>Node25&#45;&gt;Node26</title>
<path fill="none" stroke="midnightblue" d="M755.429,-224.444C728.512,-215.359 685.785,-200.939 655.695,-190.783"/>
<polygon fill="midnightblue" stroke="midnightblue" points="656.61,-187.398 646.015,-187.516 654.371,-194.031 656.61,-187.398"/>
</g>
<!-- Node26&#45;&gt;Node2 -->
<g id="edge45" class="edge"><title>Node26&#45;&gt;Node2</title>
<path fill="none" stroke="midnightblue" d="M595.746,-168.444C569.166,-159.359 526.973,-144.939 497.258,-134.783"/>
<polygon fill="midnightblue" stroke="midnightblue" points="498.295,-131.439 487.7,-131.516 496.031,-138.062 498.295,-131.439"/>
</g>
<!-- Node26&#45;&gt;Node5 -->
<g id="edge46" class="edge"><title>Node26&#45;&gt;Node5</title>
<path fill="none" stroke="midnightblue" d="M575.939,-168.444C523.046,-158.351 435.635,-141.672 382.706,-131.572"/>
<polygon fill="midnightblue" stroke="midnightblue" points="383.079,-128.08 372.6,-129.644 381.767,-134.956 383.079,-128.08"/>
</g>
<!-- Node26&#45;&gt;Node11 -->
<g id="edge47" class="edge"><title>Node26&#45;&gt;Node11</title>
<path fill="none" stroke="midnightblue" d="M675.909,-168.999C678.908,-168.641 681.88,-168.305 684.782,-168 891.547,-146.242 1136.92,-132.339 1255.53,-126.368"/>
<polygon fill="midnightblue" stroke="midnightblue" points="1255.77,-129.861 1265.58,-125.866 1255.42,-122.87 1255.77,-129.861"/>
</g>
<!-- Node27&#45;&gt;Node26 -->
<g id="edge50" class="edge"><title>Node27&#45;&gt;Node26</title>
<path fill="none" stroke="midnightblue" d="M666.699,-224.083C658.61,-216.141 646.586,-204.335 636.871,-194.797"/>
<polygon fill="midnightblue" stroke="midnightblue" points="639.282,-192.26 629.695,-187.751 634.378,-197.254 639.282,-192.26"/>
</g>
<!-- Node29&#45;&gt;Node11 -->
<g id="edge54" class="edge"><title>Node29&#45;&gt;Node11</title>
<path fill="none" stroke="midnightblue" d="M1459,-280.406C1474.79,-268.184 1498.99,-244.939 1487.78,-224 1462.59,-176.933 1404.94,-149.017 1365.91,-134.845"/>
<polygon fill="midnightblue" stroke="midnightblue" points="1367.02,-131.524 1356.42,-131.535 1364.71,-138.133 1367.02,-131.524"/>
</g>
<!-- Node30 -->
<g id="node31" class="node"><title>Node30</title>
<g id="a_node31"><a xlink:title=" ">
<polygon fill="white" stroke="#bfbfbf" points="1536.28,-224.5 1536.28,-243.5 1619.28,-243.5 1619.28,-224.5 1536.28,-224.5"/>
<text text-anchor="middle" x="1577.78" y="-231.5" font-family="Helvetica,sans-Serif" font-size="10.00">dji_macros.hpp</text>
</a>
</g>
</g>
<!-- Node29&#45;&gt;Node30 -->
<g id="edge53" class="edge"><title>Node29&#45;&gt;Node30</title>
<path fill="none" stroke="midnightblue" d="M1467.54,-280.444C1489.1,-271.557 1523.04,-257.563 1547.58,-247.451"/>
<polygon fill="midnightblue" stroke="midnightblue" points="1549.21,-250.563 1557.12,-243.516 1546.54,-244.092 1549.21,-250.563"/>
</g>
<!-- Node31&#45;&gt;Node11 -->
<g id="edge56" class="edge"><title>Node31&#45;&gt;Node11</title>
<path fill="none" stroke="midnightblue" d="M1418.52,-224.407C1411.8,-211.371 1397.86,-186.193 1381.78,-168 1371.72,-156.622 1358.62,-145.782 1347.73,-137.593"/>
<polygon fill="midnightblue" stroke="midnightblue" points="1349.71,-134.704 1339.57,-131.634 1345.58,-140.357 1349.71,-134.704"/>
</g>
<!-- Node34&#45;&gt;Node10 -->
<g id="edge62" class="edge"><title>Node34&#45;&gt;Node10</title>
<path fill="none" stroke="midnightblue" d="M1206.14,-225.661C1134.81,-215.526 1006.68,-197.317 933.344,-186.896"/>
<polygon fill="midnightblue" stroke="midnightblue" points="933.764,-183.42 923.371,-185.478 932.779,-190.351 933.764,-183.42"/>
</g>
<!-- Node34&#45;&gt;Node11 -->
<g id="edge63" class="edge"><title>Node34&#45;&gt;Node11</title>
<path fill="none" stroke="midnightblue" d="M1262.3,-224.425C1269.03,-211.835 1282.21,-187.705 1294.78,-168 1300.84,-158.504 1308.08,-148.245 1314.14,-139.924"/>
<polygon fill="midnightblue" stroke="midnightblue" points="1317.02,-141.909 1320.14,-131.783 1311.39,-137.756 1317.02,-141.909"/>
</g>
<!-- Node34&#45;&gt;Node12 -->
<g id="edge61" class="edge"><title>Node34&#45;&gt;Node12</title>
<path fill="none" stroke="midnightblue" d="M1251.78,-224.453C1236.17,-202.799 1192.09,-145.148 1142.78,-112 1120.62,-97.0995 1092.8,-86.0452 1070.07,-78.6221"/>
<polygon fill="midnightblue" stroke="midnightblue" points="1070.94,-75.2266 1060.35,-75.5645 1068.84,-81.904 1070.94,-75.2266"/>
</g>
<!-- Node36&#45;&gt;Node5 -->
<g id="edge71" class="edge"><title>Node36&#45;&gt;Node5</title>
<path fill="none" stroke="midnightblue" d="M355.679,-287.311C292.28,-282.218 178.754,-262.548 126.782,-188 121.698,-180.708 121.19,-174.91 126.782,-168 147.257,-142.698 237.182,-131.01 292.821,-126.113"/>
<polygon fill="midnightblue" stroke="midnightblue" points="293.451,-129.573 303.123,-125.249 292.866,-122.597 293.451,-129.573"/>
</g>
<!-- Node36&#45;&gt;Node10 -->
<g id="edge72" class="edge"><title>Node36&#45;&gt;Node10</title>
<path fill="none" stroke="midnightblue" d="M426.39,-280.449C467.31,-267.017 550.132,-240.778 621.782,-224 690.159,-207.988 770.008,-194.814 822.112,-186.944"/>
<polygon fill="midnightblue" stroke="midnightblue" points="822.779,-190.384 832.151,-185.442 821.743,-183.461 822.779,-190.384"/>
</g>
<!-- Node36&#45;&gt;Node12 -->
<g id="edge70" class="edge"><title>Node36&#45;&gt;Node12</title>
<path fill="none" stroke="midnightblue" d="M355.77,-286.411C261.349,-279.248 56.2754,-253.63 118.782,-168 166.929,-102.04 213.519,-127.059 293.782,-112 420.89,-88.1515 806.513,-73.8666 961.874,-68.9444"/>
<polygon fill="midnightblue" stroke="midnightblue" points="962.327,-72.432 972.213,-68.62 962.108,-65.4355 962.327,-72.432"/>
</g>
<!-- Node36&#45;&gt;Node15 -->
<g id="edge69" class="edge"><title>Node36&#45;&gt;Node15</title>
<path fill="none" stroke="midnightblue" d="M400.782,-280.083C400.782,-273.006 400.782,-262.861 400.782,-253.986"/>
<polygon fill="midnightblue" stroke="midnightblue" points="404.282,-253.751 400.782,-243.751 397.282,-253.751 404.282,-253.751"/>
</g>
<!-- Node37&#45;&gt;Node11 -->
<g id="edge74" class="edge"><title>Node37&#45;&gt;Node11</title>
<path fill="none" stroke="midnightblue" d="M1575.04,-168.444C1523.04,-158.925 1439.03,-143.547 1383.36,-133.356"/>
<polygon fill="midnightblue" stroke="midnightblue" points="1383.77,-129.874 1373.31,-131.516 1382.51,-136.76 1383.77,-129.874"/>
</g>
</g>
</svg>
