<?xml version="1.0" encoding="UTF-8" standalone="no"?>
<!DOCTYPE svg PUBLIC "-//W3C//DTD SVG 1.1//EN"
 "http://www.w3.org/Graphics/SVG/1.1/DTD/svg11.dtd">
<!-- Generated by graphviz version 2.40.1 (20161225.0304)
 -->
<!-- Title: osdk&#45;core/api/inc/dji_mobile_device.hpp Pages: 1 -->
<svg width="461pt" height="375pt"
 viewBox="0.00 0.00 460.50 375.00" xmlns="http://www.w3.org/2000/svg" xmlns:xlink="http://www.w3.org/1999/xlink">
<g id="graph0" class="graph" transform="scale(1 1) rotate(0) translate(4 371)">
<title>osdk&#45;core/api/inc/dji_mobile_device.hpp</title>
<polygon fill="#ffffff" stroke="transparent" points="-4,4 -4,-371 456.5,-371 456.5,4 -4,4"/>
<!-- Node0 -->
<g id="node1" class="node">
<title>Node0</title>
<g id="a_node1"><a xlink:title="Implementation of DJI Mobile Device Abstraction.">
<polygon fill="#bfbfbf" stroke="#000000" points="309,-336.5 309,-366.5 413,-366.5 413,-336.5 309,-336.5"/>
<text text-anchor="start" x="317" y="-354.5" font-family="Helvetica,sans-Serif" font-size="10.00" fill="#000000">osdk&#45;core/api/inc/dji</text>
<text text-anchor="middle" x="361" y="-343.5" font-family="Helvetica,sans-Serif" font-size="10.00" fill="#000000">_mobile_device.hpp</text>
</a>
</g>
</g>
<!-- Node1 -->
<g id="node2" class="node">
<title>Node1</title>
<g id="a_node2"><a xlink:href="dji__vehicle__callback_8hpp.html" target="_top" xlink:title="Type definition for new Vehicle&#45;style callbacks.">
<polygon fill="#ffffff" stroke="#000000" points="300,-280.5 300,-299.5 422,-299.5 422,-280.5 300,-280.5"/>
<text text-anchor="middle" x="361" y="-287.5" font-family="Helvetica,sans-Serif" font-size="10.00" fill="#000000">dji_vehicle_callback.hpp</text>
</a>
</g>
</g>
<!-- Node0&#45;&gt;Node1 -->
<g id="edge1" class="edge">
<title>Node0&#45;&gt;Node1</title>
<path fill="none" stroke="#191970" d="M361,-336.2977C361,-328.3834 361,-318.6043 361,-310.0759"/>
<polygon fill="#191970" stroke="#191970" points="364.5001,-309.8469 361,-299.8469 357.5001,-309.847 364.5001,-309.8469"/>
</g>
<!-- Node2 -->
<g id="node3" class="node">
<title>Node2</title>
<g id="a_node3"><a xlink:href="dji__ack_8hpp.html" target="_top" xlink:title="All DJI OSDK ACK parsing.">
<polygon fill="#ffffff" stroke="#000000" points="202,-224.5 202,-243.5 268,-243.5 268,-224.5 202,-224.5"/>
<text text-anchor="middle" x="235" y="-231.5" font-family="Helvetica,sans-Serif" font-size="10.00" fill="#000000">dji_ack.hpp</text>
</a>
</g>
</g>
<!-- Node1&#45;&gt;Node2 -->
<g id="edge2" class="edge">
<title>Node1&#45;&gt;Node2</title>
<path fill="none" stroke="#191970" d="M339.3398,-280.3733C319.0228,-271.3435 288.436,-257.7494 265.625,-247.6111"/>
<polygon fill="#191970" stroke="#191970" points="266.9372,-244.3642 256.3775,-243.5011 264.0941,-250.7609 266.9372,-244.3642"/>
</g>
<!-- Node11 -->
<g id="node12" class="node">
<title>Node11</title>
<g id="a_node12"><a xlink:href="dji__type_8hpp.html" target="_top" xlink:title="Data type and Data Structure definitions for use throughout DJI OSDK.">
<polygon fill="#ffffff" stroke="#000000" points="225.5,-112.5 225.5,-131.5 294.5,-131.5 294.5,-112.5 225.5,-112.5"/>
<text text-anchor="middle" x="260" y="-119.5" font-family="Helvetica,sans-Serif" font-size="10.00" fill="#000000">dji_type.hpp</text>
</a>
</g>
</g>
<!-- Node1&#45;&gt;Node11 -->
<g id="edge20" class="edge">
<title>Node1&#45;&gt;Node11</title>
<path fill="none" stroke="#191970" d="M355.2804,-280.4862C339.1073,-253.5845 292.8246,-176.5994 271.2827,-140.7673"/>
<polygon fill="#191970" stroke="#191970" points="274.0606,-138.5949 265.9084,-131.8279 268.0613,-142.2017 274.0606,-138.5949"/>
</g>
<!-- Node14 -->
<g id="node15" class="node">
<title>Node14</title>
<g id="a_node15"><a xlink:title=" ">
<polygon fill="#ffffff" stroke="#bfbfbf" points="389.5,-224.5 389.5,-243.5 452.5,-243.5 452.5,-224.5 389.5,-224.5"/>
<text text-anchor="middle" x="421" y="-231.5" font-family="Helvetica,sans-Serif" font-size="10.00" fill="#000000">dji_log.hpp</text>
</a>
</g>
</g>
<!-- Node1&#45;&gt;Node14 -->
<g id="edge19" class="edge">
<title>Node1&#45;&gt;Node14</title>
<path fill="none" stroke="#191970" d="M371.4512,-280.2455C380.2269,-272.0549 392.9554,-260.1749 403.314,-250.5069"/>
<polygon fill="#191970" stroke="#191970" points="405.7461,-253.0246 410.6686,-243.6427 400.9699,-247.9072 405.7461,-253.0246"/>
</g>
<!-- Node3 -->
<g id="node4" class="node">
<title>Node3</title>
<g id="a_node4"><a xlink:href="dji__command_8hpp.html" target="_top" xlink:title="All DJI OSDK OpenProtocol Command IDs.">
<polygon fill="#ffffff" stroke="#000000" points="51.5,-112.5 51.5,-131.5 144.5,-131.5 144.5,-112.5 51.5,-112.5"/>
<text text-anchor="middle" x="98" y="-119.5" font-family="Helvetica,sans-Serif" font-size="10.00" fill="#000000">dji_command.hpp</text>
</a>
</g>
</g>
<!-- Node2&#45;&gt;Node3 -->
<g id="edge3" class="edge">
<title>Node2&#45;&gt;Node3</title>
<path fill="none" stroke="#191970" d="M201.6472,-225.6761C179.3956,-218.7031 150.7146,-206.8052 131,-188 117.7035,-175.3169 108.9471,-156.1265 103.8175,-141.7027"/>
<polygon fill="#191970" stroke="#191970" points="107.0129,-140.212 100.5867,-131.7886 100.3574,-142.381 107.0129,-140.212"/>
</g>
<!-- Node6 -->
<g id="node7" class="node">
<title>Node6</title>
<g id="a_node7"><a xlink:title=" ">
<polygon fill="#ffffff" stroke="#bfbfbf" points="235.5,-.5 235.5,-19.5 270.5,-19.5 270.5,-.5 235.5,-.5"/>
<text text-anchor="middle" x="253" y="-7.5" font-family="Helvetica,sans-Serif" font-size="10.00" fill="#000000">map</text>
</a>
</g>
</g>
<!-- Node2&#45;&gt;Node6 -->
<g id="edge18" class="edge">
<title>Node2&#45;&gt;Node6</title>
<path fill="none" stroke="#191970" d="M244.8352,-224.4557C261.3073,-207.6468 293.6836,-170.8471 304,-132 312.7956,-98.8796 306.1911,-86.7173 291,-56 285.7652,-45.4149 277.6571,-35.1352 270.2728,-26.9879"/>
<polygon fill="#191970" stroke="#191970" points="272.6914,-24.4522 263.2631,-19.6192 267.6196,-29.2769 272.6914,-24.4522"/>
</g>
<!-- Node9 -->
<g id="node10" class="node">
<title>Node9</title>
<g id="a_node10"><a xlink:href="dji__mission__type_8hpp.html" target="_top" xlink:title="Mission related data struct for DJI OSDK library.">
<polygon fill="#ffffff" stroke="#000000" points="140,-168.5 140,-187.5 248,-187.5 248,-168.5 140,-168.5"/>
<text text-anchor="middle" x="194" y="-175.5" font-family="Helvetica,sans-Serif" font-size="10.00" fill="#000000">dji_mission_type.hpp</text>
</a>
</g>
</g>
<!-- Node2&#45;&gt;Node9 -->
<g id="edge9" class="edge">
<title>Node2&#45;&gt;Node9</title>
<path fill="none" stroke="#191970" d="M227.8583,-224.2455C222.1556,-216.4564 214.01,-205.3308 207.1375,-195.9439"/>
<polygon fill="#191970" stroke="#191970" points="209.7913,-193.6437 201.0598,-187.6427 204.1432,-197.7789 209.7913,-193.6437"/>
</g>
<!-- Node2&#45;&gt;Node11 -->
<g id="edge14" class="edge">
<title>Node2&#45;&gt;Node11</title>
<path fill="none" stroke="#191970" d="M241.1149,-224.2091C246.3956,-215.1836 253.6832,-201.2232 257,-188 260.7988,-172.8554 261.4059,-155.1555 261.1415,-141.8999"/>
<polygon fill="#191970" stroke="#191970" points="264.626,-141.4287 260.7431,-131.571 257.6312,-141.6985 264.626,-141.4287"/>
</g>
<!-- Node13 -->
<g id="node14" class="node">
<title>Node13</title>
<g id="a_node14"><a xlink:href="dji__version_8hpp.html" target="_top" xlink:title="Drone/SDK Version definition for DJI onboardSDK library.">
<polygon fill="#ffffff" stroke="#000000" points="2,-168.5 2,-187.5 84,-187.5 84,-168.5 2,-168.5"/>
<text text-anchor="middle" x="43" y="-175.5" font-family="Helvetica,sans-Serif" font-size="10.00" fill="#000000">dji_version.hpp</text>
</a>
</g>
</g>
<!-- Node2&#45;&gt;Node13 -->
<g id="edge15" class="edge">
<title>Node2&#45;&gt;Node13</title>
<path fill="none" stroke="#191970" d="M201.994,-224.3733C169.7909,-214.9807 120.6558,-200.6496 85.5361,-190.4064"/>
<polygon fill="#191970" stroke="#191970" points="86.1553,-186.9412 75.5753,-187.5011 84.1953,-193.6612 86.1553,-186.9412"/>
</g>
<!-- Node4 -->
<g id="node5" class="node">
<title>Node4</title>
<g id="a_node5"><a xlink:href="dji__error_8hpp.html" target="_top" xlink:title="All DJI OSDK OpenProtocol ACK Error Codes.">
<polygon fill="#ffffff" stroke="#000000" points="67,-56.5 67,-75.5 137,-75.5 137,-56.5 67,-56.5"/>
<text text-anchor="middle" x="102" y="-63.5" font-family="Helvetica,sans-Serif" font-size="10.00" fill="#000000">dji_error.hpp</text>
</a>
</g>
</g>
<!-- Node3&#45;&gt;Node4 -->
<g id="edge4" class="edge">
<title>Node3&#45;&gt;Node4</title>
<path fill="none" stroke="#191970" d="M98.6967,-112.2455C99.2187,-104.9382 99.9504,-94.6944 100.5925,-85.7046"/>
<polygon fill="#191970" stroke="#191970" points="104.0898,-85.8667 101.3112,-75.6427 97.1076,-85.3679 104.0898,-85.8667"/>
</g>
<!-- Node8 -->
<g id="node9" class="node">
<title>Node8</title>
<g id="a_node9"><a xlink:title=" ">
<polygon fill="#ffffff" stroke="#bfbfbf" points="161.5,-56.5 161.5,-75.5 210.5,-75.5 210.5,-56.5 161.5,-56.5"/>
<text text-anchor="middle" x="186" y="-63.5" font-family="Helvetica,sans-Serif" font-size="10.00" fill="#000000">stdint.h</text>
</a>
</g>
</g>
<!-- Node3&#45;&gt;Node8 -->
<g id="edge8" class="edge">
<title>Node3&#45;&gt;Node8</title>
<path fill="none" stroke="#191970" d="M113.3284,-112.2455C126.8303,-103.6534 146.7122,-91.0014 162.2686,-81.1018"/>
<polygon fill="#191970" stroke="#191970" points="164.2897,-83.9643 170.8472,-75.6427 160.5315,-78.0587 164.2897,-83.9643"/>
</g>
<!-- Node5 -->
<g id="node6" class="node">
<title>Node5</title>
<g id="a_node6"><a xlink:title=" ">
<polygon fill="#ffffff" stroke="#bfbfbf" points="0,-.5 0,-19.5 46,-19.5 46,-.5 0,-.5"/>
<text text-anchor="middle" x="23" y="-7.5" font-family="Helvetica,sans-Serif" font-size="10.00" fill="#000000">cstdint</text>
</a>
</g>
</g>
<!-- Node4&#45;&gt;Node5 -->
<g id="edge5" class="edge">
<title>Node4&#45;&gt;Node5</title>
<path fill="none" stroke="#191970" d="M88.2393,-56.2455C76.3448,-47.814 58.935,-35.4729 45.0915,-25.6598"/>
<polygon fill="#191970" stroke="#191970" points="46.7854,-22.5704 36.6031,-19.6427 42.7372,-28.2811 46.7854,-22.5704"/>
</g>
<!-- Node4&#45;&gt;Node6 -->
<g id="edge6" class="edge">
<title>Node4&#45;&gt;Node6</title>
<path fill="none" stroke="#191970" d="M127.9578,-56.3733C155.2941,-46.2353 198.1442,-30.3439 225.9026,-20.0494"/>
<polygon fill="#191970" stroke="#191970" points="227.2308,-23.2898 235.3898,-16.5309 224.7968,-16.7266 227.2308,-23.2898"/>
</g>
<!-- Node7 -->
<g id="node8" class="node">
<title>Node7</title>
<g id="a_node8"><a xlink:title=" ">
<polygon fill="#ffffff" stroke="#bfbfbf" points="64.5,-.5 64.5,-19.5 147.5,-19.5 147.5,-.5 64.5,-.5"/>
<text text-anchor="middle" x="106" y="-7.5" font-family="Helvetica,sans-Serif" font-size="10.00" fill="#000000">osdk_typedef.h</text>
</a>
</g>
</g>
<!-- Node4&#45;&gt;Node7 -->
<g id="edge7" class="edge">
<title>Node4&#45;&gt;Node7</title>
<path fill="none" stroke="#191970" d="M102.6967,-56.2455C103.2187,-48.9382 103.9504,-38.6944 104.5925,-29.7046"/>
<polygon fill="#191970" stroke="#191970" points="108.0898,-29.8667 105.3112,-19.6427 101.1076,-29.3679 108.0898,-29.8667"/>
</g>
<!-- Node10 -->
<g id="node11" class="node">
<title>Node10</title>
<g id="a_node11"><a xlink:title=" ">
<polygon fill="#ffffff" stroke="#bfbfbf" points="163,-112.5 163,-131.5 207,-131.5 207,-112.5 163,-112.5"/>
<text text-anchor="middle" x="185" y="-119.5" font-family="Helvetica,sans-Serif" font-size="10.00" fill="#000000">vector</text>
</a>
</g>
</g>
<!-- Node9&#45;&gt;Node10 -->
<g id="edge10" class="edge">
<title>Node9&#45;&gt;Node10</title>
<path fill="none" stroke="#191970" d="M192.4323,-168.2455C191.2579,-160.9382 189.6116,-150.6944 188.1668,-141.7046"/>
<polygon fill="#191970" stroke="#191970" points="191.5922,-140.9606 186.5497,-131.6427 184.6809,-142.0714 191.5922,-140.9606"/>
</g>
<!-- Node9&#45;&gt;Node11 -->
<g id="edge11" class="edge">
<title>Node9&#45;&gt;Node11</title>
<path fill="none" stroke="#191970" d="M205.4963,-168.2455C215.2442,-159.9746 229.4259,-147.9416 240.8798,-138.2232"/>
<polygon fill="#191970" stroke="#191970" points="243.2747,-140.7813 248.6354,-131.6427 238.7459,-135.4437 243.2747,-140.7813"/>
</g>
<!-- Node11&#45;&gt;Node8 -->
<g id="edge13" class="edge">
<title>Node11&#45;&gt;Node8</title>
<path fill="none" stroke="#191970" d="M247.1102,-112.2455C236.0746,-103.8943 219.9708,-91.7076 207.0647,-81.9408"/>
<polygon fill="#191970" stroke="#191970" points="208.8283,-78.8862 198.7421,-75.6427 204.6041,-84.4681 208.8283,-78.8862"/>
</g>
<!-- Node12 -->
<g id="node13" class="node">
<title>Node12</title>
<g id="a_node13"><a xlink:title=" ">
<polygon fill="#ffffff" stroke="#bfbfbf" points="238.5,-56.5 238.5,-75.5 281.5,-75.5 281.5,-56.5 238.5,-56.5"/>
<text text-anchor="middle" x="260" y="-63.5" font-family="Helvetica,sans-Serif" font-size="10.00" fill="#000000">cstdio</text>
</a>
</g>
</g>
<!-- Node11&#45;&gt;Node12 -->
<g id="edge12" class="edge">
<title>Node11&#45;&gt;Node12</title>
<path fill="none" stroke="#191970" d="M260,-112.2455C260,-104.9382 260,-94.6944 260,-85.7046"/>
<polygon fill="#191970" stroke="#191970" points="263.5001,-85.6426 260,-75.6427 256.5001,-85.6427 263.5001,-85.6426"/>
</g>
<!-- Node13&#45;&gt;Node3 -->
<g id="edge16" class="edge">
<title>Node13&#45;&gt;Node3</title>
<path fill="none" stroke="#191970" d="M52.5803,-168.2455C60.5458,-160.1352 72.0641,-148.4075 81.5079,-138.7919"/>
<polygon fill="#191970" stroke="#191970" points="84.0195,-141.2297 88.5295,-131.6427 79.0253,-136.3247 84.0195,-141.2297"/>
</g>
<!-- Node13&#45;&gt;Node5 -->
<g id="edge17" class="edge">
<title>Node13&#45;&gt;Node5</title>
<path fill="none" stroke="#191970" d="M41.8674,-168.4862C38.7059,-141.9293 29.7339,-66.5651 25.4007,-30.1655"/>
<polygon fill="#191970" stroke="#191970" points="28.8277,-29.344 24.17,-19.8279 21.8767,-30.1715 28.8277,-29.344"/>
</g>
</g>
</svg>
