<?xml version="1.0" encoding="UTF-8" standalone="no"?>
<!DOCTYPE svg PUBLIC "-//W3C//DTD SVG 1.1//EN"
 "http://www.w3.org/Graphics/SVG/1.1/DTD/svg11.dtd">
<!-- Generated by graphviz version 2.38.0 (20140413.2041)
 -->
<!-- Title: osdk&#45;core/api/src/dji_control.cpp Pages: 1 -->
<svg width="1835pt" height="431pt"
 viewBox="0.00 0.00 1835.00 431.00" xmlns="http://www.w3.org/2000/svg" xmlns:xlink="http://www.w3.org/1999/xlink">
<g id="graph0" class="graph" transform="scale(1 1) rotate(0) translate(4 427)">
<title>osdk&#45;core/api/src/dji_control.cpp</title>
<polygon fill="white" stroke="none" points="-4,4 -4,-427 1831,-427 1831,4 -4,4"/>
<!-- Node1 -->
<g id="node1" class="node"><title>Node1</title>
<polygon fill="#bfbfbf" stroke="black" points="934,-392.5 934,-422.5 1038,-422.5 1038,-392.5 934,-392.5"/>
<text text-anchor="start" x="942" y="-410.5" font-family="Helvetica,sans-Serif" font-size="10.00">osdk&#45;core/api/src/dji</text>
<text text-anchor="middle" x="986" y="-399.5" font-family="Helvetica,sans-Serif" font-size="10.00">_control.cpp</text>
</g>
<!-- Node2 -->
<g id="node2" class="node"><title>Node2</title>
<g id="a_node2"><a xlink:href="dji__control_8hpp.html" target="_top" xlink:title="Control API for DJI OSDK library. ">
<polygon fill="white" stroke="black" points="631,-280.5 631,-299.5 711,-299.5 711,-280.5 631,-280.5"/>
<text text-anchor="middle" x="671" y="-287.5" font-family="Helvetica,sans-Serif" font-size="10.00">dji_control.hpp</text>
</a>
</g>
</g>
<!-- Node1&#45;&gt;Node2 -->
<g id="edge1" class="edge"><title>Node1&#45;&gt;Node2</title>
<path fill="none" stroke="midnightblue" d="M947.69,-392.453C885.227,-369.55 762.533,-324.562 703.82,-303.034"/>
<polygon fill="midnightblue" stroke="midnightblue" points="704.891,-299.699 694.297,-299.542 702.481,-306.271 704.891,-299.699"/>
</g>
<!-- Node15 -->
<g id="node15" class="node"><title>Node15</title>
<g id="a_node15"><a xlink:href="dji__vehicle_8hpp.html" target="_top" xlink:title="Vehicle API for DJI onboardSDK library. ">
<polygon fill="white" stroke="black" points="1078.5,-336.5 1078.5,-355.5 1159.5,-355.5 1159.5,-336.5 1078.5,-336.5"/>
<text text-anchor="middle" x="1119" y="-343.5" font-family="Helvetica,sans-Serif" font-size="10.00">dji_vehicle.hpp</text>
</a>
</g>
</g>
<!-- Node1&#45;&gt;Node15 -->
<g id="edge20" class="edge"><title>Node1&#45;&gt;Node15</title>
<path fill="none" stroke="midnightblue" d="M1017.52,-392.399C1039.64,-382.505 1068.97,-369.383 1090.41,-359.792"/>
<polygon fill="midnightblue" stroke="midnightblue" points="1091.95,-362.936 1099.65,-355.658 1089.09,-356.547 1091.95,-362.936"/>
</g>
<!-- Node3 -->
<g id="node3" class="node"><title>Node3</title>
<g id="a_node3"><a xlink:href="dji__ack_8hpp.html" target="_top" xlink:title="All DJI OSDK ACK parsing. ">
<polygon fill="white" stroke="black" points="522,-224.5 522,-243.5 588,-243.5 588,-224.5 522,-224.5"/>
<text text-anchor="middle" x="555" y="-231.5" font-family="Helvetica,sans-Serif" font-size="10.00">dji_ack.hpp</text>
</a>
</g>
</g>
<!-- Node2&#45;&gt;Node3 -->
<g id="edge2" class="edge"><title>Node2&#45;&gt;Node3</title>
<path fill="none" stroke="midnightblue" d="M652.619,-280.444C633.784,-271.675 604.269,-257.935 582.621,-247.858"/>
<polygon fill="midnightblue" stroke="midnightblue" points="583.838,-244.564 573.295,-243.516 580.883,-250.91 583.838,-244.564"/>
</g>
<!-- Node8 -->
<g id="node8" class="node"><title>Node8</title>
<g id="a_node8"><a xlink:href="dji__type_8hpp.html" target="_top" xlink:title="Data type and Data Structure definitions for use throughout DJI OSDK. ">
<polygon fill="white" stroke="black" points="305.5,-112.5 305.5,-131.5 374.5,-131.5 374.5,-112.5 305.5,-112.5"/>
<text text-anchor="middle" x="340" y="-119.5" font-family="Helvetica,sans-Serif" font-size="10.00">dji_type.hpp</text>
</a>
</g>
</g>
<!-- Node2&#45;&gt;Node8 -->
<g id="edge17" class="edge"><title>Node2&#45;&gt;Node8</title>
<path fill="none" stroke="midnightblue" d="M631.569,-280.461C532.527,-258.834 280.367,-202.577 269,-188 253.074,-167.578 282.447,-148.062 308.112,-135.838"/>
<polygon fill="midnightblue" stroke="midnightblue" points="309.641,-138.988 317.309,-131.677 306.755,-132.611 309.641,-138.988"/>
</g>
<!-- Node13 -->
<g id="node13" class="node"><title>Node13</title>
<polygon fill="white" stroke="#bfbfbf" points="1184.5,-56.5 1184.5,-75.5 1295.5,-75.5 1295.5,-56.5 1184.5,-56.5"/>
<text text-anchor="middle" x="1240" y="-63.5" font-family="Helvetica,sans-Serif" font-size="10.00">dji_open_protocol.hpp</text>
</g>
<!-- Node2&#45;&gt;Node13 -->
<g id="edge16" class="edge"><title>Node2&#45;&gt;Node13</title>
<path fill="none" stroke="midnightblue" d="M700.926,-280.467C729.331,-272.097 773.051,-258.511 810,-244 829.618,-236.295 833.103,-230.954 853,-224 917.313,-201.524 938.09,-211.598 1002,-188 1023.84,-179.937 1157.95,-110.025 1214.69,-80.292"/>
<polygon fill="midnightblue" stroke="midnightblue" points="1216.49,-83.2986 1223.72,-75.5549 1213.24,-77.0992 1216.49,-83.2986"/>
</g>
<!-- Node14 -->
<g id="node14" class="node"><title>Node14</title>
<g id="a_node14"><a xlink:href="dji__vehicle__callback_8hpp.html" target="_top" xlink:title="Type definition for new Vehicle&#45;style callbacks. ">
<polygon fill="white" stroke="black" points="1179,-112.5 1179,-131.5 1301,-131.5 1301,-112.5 1179,-112.5"/>
<text text-anchor="middle" x="1240" y="-119.5" font-family="Helvetica,sans-Serif" font-size="10.00">dji_vehicle_callback.hpp</text>
</a>
</g>
</g>
<!-- Node2&#45;&gt;Node14 -->
<g id="edge18" class="edge"><title>Node2&#45;&gt;Node14</title>
<path fill="none" stroke="midnightblue" d="M711.123,-286.412C798.692,-280.451 1004.43,-264.666 1071,-244 1121.51,-228.32 1133.63,-219.651 1176,-188 1195.12,-173.716 1213.91,-153.721 1226.13,-139.691"/>
<polygon fill="midnightblue" stroke="midnightblue" points="1229.01,-141.71 1232.84,-131.83 1223.68,-137.167 1229.01,-141.71"/>
</g>
<!-- Node4 -->
<g id="node4" class="node"><title>Node4</title>
<g id="a_node4"><a xlink:href="dji__command_8hpp.html" target="_top" xlink:title="All DJI OSDK OpenProtocol Command IDs. ">
<polygon fill="white" stroke="black" points="598.5,-112.5 598.5,-131.5 691.5,-131.5 691.5,-112.5 598.5,-112.5"/>
<text text-anchor="middle" x="645" y="-119.5" font-family="Helvetica,sans-Serif" font-size="10.00">dji_command.hpp</text>
</a>
</g>
</g>
<!-- Node3&#45;&gt;Node4 -->
<g id="edge3" class="edge"><title>Node3&#45;&gt;Node4</title>
<path fill="none" stroke="midnightblue" d="M559.627,-224.091C566.595,-211.084 580.615,-186.44 596,-168 605.042,-157.162 616.617,-146.417 626.247,-138.146"/>
<polygon fill="midnightblue" stroke="midnightblue" points="628.675,-140.678 634.095,-131.574 624.181,-135.311 628.675,-140.678"/>
</g>
<!-- Node7 -->
<g id="node7" class="node"><title>Node7</title>
<g id="a_node7"><a xlink:href="dji__mission__type_8hpp.html" target="_top" xlink:title="Mission related data struct for DJI OSDK library. ">
<polygon fill="white" stroke="black" points="286,-168.5 286,-187.5 394,-187.5 394,-168.5 286,-168.5"/>
<text text-anchor="middle" x="340" y="-175.5" font-family="Helvetica,sans-Serif" font-size="10.00">dji_mission_type.hpp</text>
</a>
</g>
</g>
<!-- Node3&#45;&gt;Node7 -->
<g id="edge7" class="edge"><title>Node3&#45;&gt;Node7</title>
<path fill="none" stroke="midnightblue" d="M521.877,-224.681C484.849,-215.381 424.727,-200.28 383.828,-190.008"/>
<polygon fill="midnightblue" stroke="midnightblue" points="384.421,-186.548 373.87,-187.507 382.716,-193.338 384.421,-186.548"/>
</g>
<!-- Node3&#45;&gt;Node8 -->
<g id="edge11" class="edge"><title>Node3&#45;&gt;Node8</title>
<path fill="none" stroke="midnightblue" d="M521.974,-232.765C455.264,-231.517 308.135,-224.58 277,-188 261.084,-169.3 288.069,-149.211 311.513,-136.396"/>
<polygon fill="midnightblue" stroke="midnightblue" points="313.294,-139.415 320.554,-131.698 310.066,-133.204 313.294,-139.415"/>
</g>
<!-- Node10 -->
<g id="node10" class="node"><title>Node10</title>
<g id="a_node10"><a xlink:href="dji__version_8hpp.html" target="_top" xlink:title="Drone/SDK Version definition for DJI onboardSDK library. ">
<polygon fill="white" stroke="black" points="1054,-168.5 1054,-187.5 1136,-187.5 1136,-168.5 1054,-168.5"/>
<text text-anchor="middle" x="1095" y="-175.5" font-family="Helvetica,sans-Serif" font-size="10.00">dji_version.hpp</text>
</a>
</g>
</g>
<!-- Node3&#45;&gt;Node10 -->
<g id="edge12" class="edge"><title>Node3&#45;&gt;Node10</title>
<path fill="none" stroke="midnightblue" d="M588.372,-229.663C679.703,-220.53 934.221,-195.078 1043.78,-184.122"/>
<polygon fill="midnightblue" stroke="midnightblue" points="1044.31,-187.586 1053.92,-183.108 1043.62,-180.621 1044.31,-187.586"/>
</g>
<!-- Node12 -->
<g id="node12" class="node"><title>Node12</title>
<polygon fill="white" stroke="#bfbfbf" points="513.5,-168.5 513.5,-187.5 548.5,-187.5 548.5,-168.5 513.5,-168.5"/>
<text text-anchor="middle" x="531" y="-175.5" font-family="Helvetica,sans-Serif" font-size="10.00">map</text>
</g>
<!-- Node3&#45;&gt;Node12 -->
<g id="edge15" class="edge"><title>Node3&#45;&gt;Node12</title>
<path fill="none" stroke="midnightblue" d="M551.037,-224.083C547.787,-216.77 543.081,-206.181 539.046,-197.103"/>
<polygon fill="midnightblue" stroke="midnightblue" points="542.149,-195.468 534.889,-187.751 535.752,-198.311 542.149,-195.468"/>
</g>
<!-- Node5 -->
<g id="node5" class="node"><title>Node5</title>
<g id="a_node5"><a xlink:href="dji__error_8hpp.html" target="_top" xlink:title="All DJI OSDK OpenProtocol ACK Error Codes. ">
<polygon fill="white" stroke="black" points="547,-56.5 547,-75.5 617,-75.5 617,-56.5 547,-56.5"/>
<text text-anchor="middle" x="582" y="-63.5" font-family="Helvetica,sans-Serif" font-size="10.00">dji_error.hpp</text>
</a>
</g>
</g>
<!-- Node4&#45;&gt;Node5 -->
<g id="edge4" class="edge"><title>Node4&#45;&gt;Node5</title>
<path fill="none" stroke="midnightblue" d="M634.878,-112.324C625.474,-104.263 611.256,-92.0765 599.931,-82.3695"/>
<polygon fill="midnightblue" stroke="midnightblue" points="602.177,-79.6844 592.306,-75.8339 597.621,-84.9993 602.177,-79.6844"/>
</g>
<!-- Node6 -->
<g id="node6" class="node"><title>Node6</title>
<polygon fill="white" stroke="#bfbfbf" points="557.5,-0.5 557.5,-19.5 606.5,-19.5 606.5,-0.5 557.5,-0.5"/>
<text text-anchor="middle" x="582" y="-7.5" font-family="Helvetica,sans-Serif" font-size="10.00">stdint.h</text>
</g>
<!-- Node4&#45;&gt;Node6 -->
<g id="edge6" class="edge"><title>Node4&#45;&gt;Node6</title>
<path fill="none" stroke="midnightblue" d="M643.863,-112.476C641.849,-99.531 636.804,-74.4699 626,-56 619.495,-44.8797 609.649,-34.4572 600.919,-26.4485"/>
<polygon fill="midnightblue" stroke="midnightblue" points="603.174,-23.7712 593.343,-19.8215 598.565,-29.0399 603.174,-23.7712"/>
</g>
<!-- Node5&#45;&gt;Node6 -->
<g id="edge5" class="edge"><title>Node5&#45;&gt;Node6</title>
<path fill="none" stroke="midnightblue" d="M582,-56.083C582,-49.0059 582,-38.8611 582,-29.9865"/>
<polygon fill="midnightblue" stroke="midnightblue" points="585.5,-29.751 582,-19.7511 578.5,-29.7511 585.5,-29.751"/>
</g>
<!-- Node7&#45;&gt;Node8 -->
<g id="edge8" class="edge"><title>Node7&#45;&gt;Node8</title>
<path fill="none" stroke="midnightblue" d="M340,-168.083C340,-161.006 340,-150.861 340,-141.986"/>
<polygon fill="midnightblue" stroke="midnightblue" points="343.5,-141.751 340,-131.751 336.5,-141.751 343.5,-141.751"/>
</g>
<!-- Node8&#45;&gt;Node6 -->
<g id="edge10" class="edge"><title>Node8&#45;&gt;Node6</title>
<path fill="none" stroke="midnightblue" d="M358.989,-112.368C401.4,-93.0908 504.002,-46.4536 553.863,-23.7894"/>
<polygon fill="midnightblue" stroke="midnightblue" points="555.444,-26.9158 563.099,-19.5914 552.547,-20.5432 555.444,-26.9158"/>
</g>
<!-- Node9 -->
<g id="node9" class="node"><title>Node9</title>
<polygon fill="white" stroke="#bfbfbf" points="318.5,-56.5 318.5,-75.5 361.5,-75.5 361.5,-56.5 318.5,-56.5"/>
<text text-anchor="middle" x="340" y="-63.5" font-family="Helvetica,sans-Serif" font-size="10.00">cstdio</text>
</g>
<!-- Node8&#45;&gt;Node9 -->
<g id="edge9" class="edge"><title>Node8&#45;&gt;Node9</title>
<path fill="none" stroke="midnightblue" d="M340,-112.083C340,-105.006 340,-94.8611 340,-85.9865"/>
<polygon fill="midnightblue" stroke="midnightblue" points="343.5,-85.751 340,-75.7511 336.5,-85.7511 343.5,-85.751"/>
</g>
<!-- Node10&#45;&gt;Node4 -->
<g id="edge13" class="edge"><title>Node10&#45;&gt;Node4</title>
<path fill="none" stroke="midnightblue" d="M1053.87,-172.065C973.044,-162.365 793.377,-140.805 701.493,-129.779"/>
<polygon fill="midnightblue" stroke="midnightblue" points="701.886,-126.301 691.54,-128.585 701.052,-133.251 701.886,-126.301"/>
</g>
<!-- Node11 -->
<g id="node11" class="node"><title>Node11</title>
<polygon fill="white" stroke="#bfbfbf" points="1517,-112.5 1517,-131.5 1563,-131.5 1563,-112.5 1517,-112.5"/>
<text text-anchor="middle" x="1540" y="-119.5" font-family="Helvetica,sans-Serif" font-size="10.00">cstdint</text>
</g>
<!-- Node10&#45;&gt;Node11 -->
<g id="edge14" class="edge"><title>Node10&#45;&gt;Node11</title>
<path fill="none" stroke="midnightblue" d="M1136.07,-172.017C1223.58,-161.397 1426.97,-136.716 1506.9,-127.017"/>
<polygon fill="midnightblue" stroke="midnightblue" points="1507.39,-130.483 1516.9,-125.804 1506.55,-123.534 1507.39,-130.483"/>
</g>
<!-- Node14&#45;&gt;Node13 -->
<g id="edge19" class="edge"><title>Node14&#45;&gt;Node13</title>
<path fill="none" stroke="midnightblue" d="M1240,-112.083C1240,-105.006 1240,-94.8611 1240,-85.9865"/>
<polygon fill="midnightblue" stroke="midnightblue" points="1243.5,-85.751 1240,-75.7511 1236.5,-85.7511 1243.5,-85.751"/>
</g>
<!-- Node15&#45;&gt;Node2 -->
<g id="edge31" class="edge"><title>Node15&#45;&gt;Node2</title>
<path fill="none" stroke="midnightblue" d="M1078.36,-341.054C1006.8,-333.952 853.688,-318.061 725,-300 723.729,-299.822 722.443,-299.637 721.145,-299.448"/>
<polygon fill="midnightblue" stroke="midnightblue" points="721.482,-295.959 711.069,-297.914 720.429,-302.879 721.482,-295.959"/>
</g>
<!-- Node15&#45;&gt;Node4 -->
<g id="edge30" class="edge"><title>Node15&#45;&gt;Node4</title>
<path fill="none" stroke="midnightblue" d="M1116.53,-336.311C1109.32,-311.461 1087.76,-240.803 1071,-224 1019.45,-172.302 805.384,-141.319 701.735,-129.073"/>
<polygon fill="midnightblue" stroke="midnightblue" points="702.096,-125.592 691.758,-127.912 701.286,-132.545 702.096,-125.592"/>
</g>
<!-- Node15&#45;&gt;Node8 -->
<g id="edge58" class="edge"><title>Node15&#45;&gt;Node8</title>
<path fill="none" stroke="midnightblue" d="M1078.4,-343.83C906.862,-338.464 247.661,-313.42 190,-244 181.12,-233.309 167.625,-198.897 191,-168 215.009,-136.265 260.703,-126.15 295.187,-123.283"/>
<polygon fill="midnightblue" stroke="midnightblue" points="295.742,-126.754 305.493,-122.61 295.286,-119.769 295.742,-126.754"/>
</g>
<!-- Node15&#45;&gt;Node10 -->
<g id="edge60" class="edge"><title>Node15&#45;&gt;Node10</title>
<path fill="none" stroke="midnightblue" d="M1118.32,-336.449C1116.67,-316.603 1112.06,-265.915 1105,-224 1103.52,-215.21 1101.43,-205.551 1099.55,-197.443"/>
<polygon fill="midnightblue" stroke="midnightblue" points="1102.92,-196.482 1097.18,-187.575 1096.11,-198.115 1102.92,-196.482"/>
</g>
<!-- Node15&#45;&gt;Node11 -->
<g id="edge21" class="edge"><title>Node15&#45;&gt;Node11</title>
<path fill="none" stroke="midnightblue" d="M1159.68,-345.227C1292.74,-345.551 1708.88,-343.085 1749,-300 1814.3,-229.873 1647.28,-160.471 1573.24,-134.108"/>
<polygon fill="midnightblue" stroke="midnightblue" points="1574.04,-130.679 1563.44,-130.678 1571.72,-137.286 1574.04,-130.679"/>
</g>
<!-- Node15&#45;&gt;Node13 -->
<g id="edge51" class="edge"><title>Node15&#45;&gt;Node13</title>
<path fill="none" stroke="midnightblue" d="M1159.87,-343.932C1293.72,-340.192 1713.44,-326.456 1768,-300 1803.11,-282.978 1827,-274.015 1827,-235 1827,-235 1827,-235 1827,-177 1827,-124.486 1459.37,-86.1974 1305.98,-72.5079"/>
<polygon fill="midnightblue" stroke="midnightblue" points="1306.02,-68.9981 1295.75,-71.6034 1305.41,-75.9709 1306.02,-68.9981"/>
</g>
<!-- Node15&#45;&gt;Node14 -->
<g id="edge59" class="edge"><title>Node15&#45;&gt;Node14</title>
<path fill="none" stroke="midnightblue" d="M1123.74,-336.297C1141.7,-303.356 1205.72,-185.898 1230.3,-140.805"/>
<polygon fill="midnightblue" stroke="midnightblue" points="1233.45,-142.339 1235.16,-131.884 1227.3,-138.989 1233.45,-142.339"/>
</g>
<!-- Node16 -->
<g id="node16" class="node"><title>Node16</title>
<g id="a_node16"><a xlink:href="dji__broadcast_8hpp.html" target="_top" xlink:title="Broadcast Telemetry API for DJI onboardSDK library. ">
<polygon fill="white" stroke="black" points="969.5,-224.5 969.5,-243.5 1062.5,-243.5 1062.5,-224.5 969.5,-224.5"/>
<text text-anchor="middle" x="1016" y="-231.5" font-family="Helvetica,sans-Serif" font-size="10.00">dji_broadcast.hpp</text>
</a>
</g>
</g>
<!-- Node15&#45;&gt;Node16 -->
<g id="edge22" class="edge"><title>Node15&#45;&gt;Node16</title>
<path fill="none" stroke="midnightblue" d="M1107.69,-336.269C1096.77,-327.596 1080.01,-313.655 1067,-300 1052.53,-284.814 1037.95,-265.765 1028.1,-252.223"/>
<polygon fill="midnightblue" stroke="midnightblue" points="1030.77,-249.938 1022.11,-243.843 1025.08,-254.012 1030.77,-249.938"/>
</g>
<!-- Node18 -->
<g id="node18" class="node"><title>Node18</title>
<g id="a_node18"><a xlink:href="dji__camera_8hpp.html" target="_top" xlink:title="Camera/Gimbal API for DJI onboardSDK library. ">
<polygon fill="white" stroke="black" points="412.5,-168.5 412.5,-187.5 495.5,-187.5 495.5,-168.5 412.5,-168.5"/>
<text text-anchor="middle" x="454" y="-175.5" font-family="Helvetica,sans-Serif" font-size="10.00">dji_camera.hpp</text>
</a>
</g>
</g>
<!-- Node15&#45;&gt;Node18 -->
<g id="edge26" class="edge"><title>Node15&#45;&gt;Node18</title>
<path fill="none" stroke="midnightblue" d="M1078.37,-344.286C950.281,-341.72 560.639,-331.387 514,-300 478.608,-276.183 463.217,-225.106 457.274,-197.544"/>
<polygon fill="midnightblue" stroke="midnightblue" points="460.687,-196.763 455.327,-187.624 453.818,-198.11 460.687,-196.763"/>
</g>
<!-- Node19 -->
<g id="node19" class="node"><title>Node19</title>
<polygon fill="white" stroke="#bfbfbf" points="1261,-280.5 1261,-299.5 1373,-299.5 1373,-280.5 1261,-280.5"/>
<text text-anchor="middle" x="1317" y="-287.5" font-family="Helvetica,sans-Serif" font-size="10.00">dji_circular_buffer.hpp</text>
</g>
<!-- Node15&#45;&gt;Node19 -->
<g id="edge29" class="edge"><title>Node15&#45;&gt;Node19</title>
<path fill="none" stroke="midnightblue" d="M1150.37,-336.444C1184.26,-327.201 1238.4,-312.436 1275.72,-302.257"/>
<polygon fill="midnightblue" stroke="midnightblue" points="1277.05,-305.524 1285.77,-299.516 1275.2,-298.771 1277.05,-305.524"/>
</g>
<!-- Node20 -->
<g id="node20" class="node"><title>Node20</title>
<g id="a_node20"><a xlink:href="dji__gimbal_8hpp.html" target="_top" xlink:title="Gimbal API for OSDK library. ">
<polygon fill="white" stroke="black" points="605.5,-168.5 605.5,-187.5 684.5,-187.5 684.5,-168.5 605.5,-168.5"/>
<text text-anchor="middle" x="645" y="-175.5" font-family="Helvetica,sans-Serif" font-size="10.00">dji_gimbal.hpp</text>
</a>
</g>
</g>
<!-- Node15&#45;&gt;Node20 -->
<g id="edge32" class="edge"><title>Node15&#45;&gt;Node20</title>
<path fill="none" stroke="midnightblue" d="M1078.25,-340.981C979.691,-330.469 732.212,-299.095 673,-244 659.81,-231.728 652.544,-212.19 648.743,-197.736"/>
<polygon fill="midnightblue" stroke="midnightblue" points="652.128,-196.836 646.471,-187.878 645.306,-198.409 652.128,-196.836"/>
</g>
<!-- Node21 -->
<g id="node21" class="node"><title>Node21</title>
<polygon fill="white" stroke="#bfbfbf" points="1391,-280.5 1391,-299.5 1489,-299.5 1489,-280.5 1391,-280.5"/>
<text text-anchor="middle" x="1440" y="-287.5" font-family="Helvetica,sans-Serif" font-size="10.00">dji_hard_driver.hpp</text>
</g>
<!-- Node15&#45;&gt;Node21 -->
<g id="edge35" class="edge"><title>Node15&#45;&gt;Node21</title>
<path fill="none" stroke="midnightblue" d="M1159.65,-338.161C1215.54,-328.759 1316.47,-311.78 1380.76,-300.965"/>
<polygon fill="midnightblue" stroke="midnightblue" points="1381.47,-304.395 1390.75,-299.285 1380.31,-297.492 1381.47,-304.395"/>
</g>
<!-- Node22 -->
<g id="node22" class="node"><title>Node22</title>
<g id="a_node22"><a xlink:href="dji__hardware__sync_8hpp.html" target="_top" xlink:title="Hardware Sync API for DJI OSDK. ">
<polygon fill="white" stroke="black" points="0,-224.5 0,-243.5 116,-243.5 116,-224.5 0,-224.5"/>
<text text-anchor="middle" x="58" y="-231.5" font-family="Helvetica,sans-Serif" font-size="10.00">dji_hardware_sync.hpp</text>
</a>
</g>
</g>
<!-- Node15&#45;&gt;Node22 -->
<g id="edge36" class="edge"><title>Node15&#45;&gt;Node22</title>
<path fill="none" stroke="midnightblue" d="M1078.35,-344.765C903.308,-343.536 218.63,-336.423 130,-300 105.292,-289.846 83.56,-267.32 70.6022,-251.652"/>
<polygon fill="midnightblue" stroke="midnightblue" points="73.3046,-249.427 64.343,-243.775 67.8242,-253.781 73.3046,-249.427"/>
</g>
<!-- Node23 -->
<g id="node23" class="node"><title>Node23</title>
<g id="a_node23"><a xlink:href="dji__mfio_8hpp.html" target="_top" xlink:title="MFIO API for DJI OSDK library. ">
<polygon fill="white" stroke="black" points="1243.5,-224.5 1243.5,-243.5 1312.5,-243.5 1312.5,-224.5 1243.5,-224.5"/>
<text text-anchor="middle" x="1278" y="-231.5" font-family="Helvetica,sans-Serif" font-size="10.00">dji_mfio.hpp</text>
</a>
</g>
</g>
<!-- Node15&#45;&gt;Node23 -->
<g id="edge38" class="edge"><title>Node15&#45;&gt;Node23</title>
<path fill="none" stroke="midnightblue" d="M1131.48,-336.368C1158.64,-317.573 1223.41,-272.768 1256.99,-249.533"/>
<polygon fill="midnightblue" stroke="midnightblue" points="1259.35,-252.159 1265.58,-243.591 1255.37,-246.403 1259.35,-252.159"/>
</g>
<!-- Node24 -->
<g id="node24" class="node"><title>Node24</title>
<g id="a_node24"><a xlink:href="dji__mission__manager_8hpp.html" target="_top" xlink:title="Mission&#45;Manager API for DJI OSDK library. ">
<polygon fill="white" stroke="black" points="843.5,-280.5 843.5,-299.5 970.5,-299.5 970.5,-280.5 843.5,-280.5"/>
<text text-anchor="middle" x="907" y="-287.5" font-family="Helvetica,sans-Serif" font-size="10.00">dji_mission_manager.hpp</text>
</a>
</g>
</g>
<!-- Node15&#45;&gt;Node24 -->
<g id="edge40" class="edge"><title>Node15&#45;&gt;Node24</title>
<path fill="none" stroke="midnightblue" d="M1085.41,-336.444C1048.81,-327.122 990.162,-312.183 950.174,-301.997"/>
<polygon fill="midnightblue" stroke="midnightblue" points="950.989,-298.593 940.435,-299.516 949.261,-305.377 950.989,-298.593"/>
</g>
<!-- Node28 -->
<g id="node28" class="node"><title>Node28</title>
<g id="a_node28"><a xlink:href="dji__mobile__communication_8hpp.html" target="_top" xlink:title="Implementation of DJI Mobile&#45;Onboard SDK Communication (MOC) ">
<polygon fill="white" stroke="black" points="1330,-224.5 1330,-243.5 1480,-243.5 1480,-224.5 1330,-224.5"/>
<text text-anchor="middle" x="1405" y="-231.5" font-family="Helvetica,sans-Serif" font-size="10.00">dji_mobile_communication.hpp</text>
</a>
</g>
</g>
<!-- Node15&#45;&gt;Node28 -->
<g id="edge49" class="edge"><title>Node15&#45;&gt;Node28</title>
<path fill="none" stroke="midnightblue" d="M1137.44,-336.353C1156.45,-327.4 1186.9,-312.936 1213,-300 1230.45,-291.349 1233.91,-287.225 1252,-280 1287.11,-265.977 1328.3,-254.109 1359.09,-246.088"/>
<polygon fill="midnightblue" stroke="midnightblue" points="1360.3,-249.393 1369.11,-243.518 1358.56,-242.613 1360.3,-249.393"/>
</g>
<!-- Node29 -->
<g id="node29" class="node"><title>Node29</title>
<g id="a_node29"><a xlink:href="dji__status_8hpp.html" target="_top" xlink:title="Status information for DJI Vehicle. ">
<polygon fill="white" stroke="black" points="1507.5,-280.5 1507.5,-299.5 1584.5,-299.5 1584.5,-280.5 1507.5,-280.5"/>
<text text-anchor="middle" x="1546" y="-287.5" font-family="Helvetica,sans-Serif" font-size="10.00">dji_status.hpp</text>
</a>
</g>
</g>
<!-- Node15&#45;&gt;Node29 -->
<g id="edge52" class="edge"><title>Node15&#45;&gt;Node29</title>
<path fill="none" stroke="midnightblue" d="M1159.51,-341.093C1227.2,-334.367 1367.81,-319.56 1497.18,-300.03"/>
<polygon fill="midnightblue" stroke="midnightblue" points="1497.91,-303.459 1507.27,-298.494 1496.85,-296.539 1497.91,-303.459"/>
</g>
<!-- Node30 -->
<g id="node30" class="node"><title>Node30</title>
<g id="a_node30"><a xlink:href="dji__subscription_8hpp.html" target="_top" xlink:title="Telemetry Subscription API for DJI OSDK library. ">
<polygon fill="white" stroke="black" points="1581.5,-224.5 1581.5,-243.5 1684.5,-243.5 1684.5,-224.5 1581.5,-224.5"/>
<text text-anchor="middle" x="1633" y="-231.5" font-family="Helvetica,sans-Serif" font-size="10.00">dji_subscription.hpp</text>
</a>
</g>
</g>
<!-- Node15&#45;&gt;Node30 -->
<g id="edge53" class="edge"><title>Node15&#45;&gt;Node30</title>
<path fill="none" stroke="midnightblue" d="M1159.95,-345.141C1290.89,-345.168 1693.14,-341.82 1732,-300 1753.69,-276.664 1712.86,-257.767 1677.25,-246.482"/>
<polygon fill="midnightblue" stroke="midnightblue" points="1677.98,-243.048 1667.4,-243.504 1675.96,-249.748 1677.98,-243.048"/>
</g>
<!-- Node31 -->
<g id="node31" class="node"><title>Node31</title>
<polygon fill="white" stroke="#bfbfbf" points="1603,-280.5 1603,-299.5 1723,-299.5 1723,-280.5 1603,-280.5"/>
<text text-anchor="middle" x="1663" y="-287.5" font-family="Helvetica,sans-Serif" font-size="10.00">dji_thread_manager.hpp</text>
</g>
<!-- Node15&#45;&gt;Node31 -->
<g id="edge57" class="edge"><title>Node15&#45;&gt;Node31</title>
<path fill="none" stroke="midnightblue" d="M1159.71,-341.63C1240.3,-334.854 1426.04,-318.713 1592.86,-300.094"/>
<polygon fill="midnightblue" stroke="midnightblue" points="1593.26,-303.572 1602.8,-298.979 1592.48,-296.615 1593.26,-303.572"/>
</g>
<!-- Node32 -->
<g id="node32" class="node"><title>Node32</title>
<g id="a_node32"><a xlink:href="dji__virtual__rc_8hpp.html" target="_top" xlink:title="Virtual Radio Control API for DJI onboardSDK library. ">
<polygon fill="white" stroke="black" points="523,-280.5 523,-299.5 613,-299.5 613,-280.5 523,-280.5"/>
<text text-anchor="middle" x="568" y="-287.5" font-family="Helvetica,sans-Serif" font-size="10.00">dji_virtual_rc.hpp</text>
</a>
</g>
</g>
<!-- Node15&#45;&gt;Node32 -->
<g id="edge61" class="edge"><title>Node15&#45;&gt;Node32</title>
<path fill="none" stroke="midnightblue" d="M1078.3,-342.352C994.889,-336.7 798.329,-322.235 622.966,-300.034"/>
<polygon fill="midnightblue" stroke="midnightblue" points="623.407,-296.562 613.044,-298.766 622.52,-303.505 623.407,-296.562"/>
</g>
<!-- Node16&#45;&gt;Node14 -->
<g id="edge25" class="edge"><title>Node16&#45;&gt;Node14</title>
<path fill="none" stroke="midnightblue" d="M1047.7,-224.496C1074.41,-216.737 1113.24,-204.045 1145,-188 1173.33,-173.685 1203.08,-152.109 1221.58,-137.795"/>
<polygon fill="midnightblue" stroke="midnightblue" points="1223.77,-140.526 1229.47,-131.598 1219.44,-135.021 1223.77,-140.526"/>
</g>
<!-- Node17 -->
<g id="node17" class="node"><title>Node17</title>
<g id="a_node17"><a xlink:href="dji__telemetry_8hpp.html" target="_top" xlink:title="Enumeration of all telemetry data types, structures and maps. ">
<polygon fill="white" stroke="black" points="702.5,-168.5 702.5,-187.5 793.5,-187.5 793.5,-168.5 702.5,-168.5"/>
<text text-anchor="middle" x="748" y="-175.5" font-family="Helvetica,sans-Serif" font-size="10.00">dji_telemetry.hpp</text>
</a>
</g>
</g>
<!-- Node16&#45;&gt;Node17 -->
<g id="edge23" class="edge"><title>Node16&#45;&gt;Node17</title>
<path fill="none" stroke="midnightblue" d="M973.535,-224.444C926.587,-214.984 850.924,-199.738 800.346,-189.547"/>
<polygon fill="midnightblue" stroke="midnightblue" points="800.761,-186.061 790.267,-187.516 799.378,-192.923 800.761,-186.061"/>
</g>
<!-- Node17&#45;&gt;Node8 -->
<g id="edge24" class="edge"><title>Node17&#45;&gt;Node8</title>
<path fill="none" stroke="midnightblue" d="M702.401,-169.411C699.221,-168.921 696.064,-168.446 693,-168 582.449,-151.914 451.95,-136.1 384.842,-128.201"/>
<polygon fill="midnightblue" stroke="midnightblue" points="384.968,-124.692 374.628,-127.002 384.152,-131.644 384.968,-124.692"/>
</g>
<!-- Node18&#45;&gt;Node4 -->
<g id="edge27" class="edge"><title>Node18&#45;&gt;Node4</title>
<path fill="none" stroke="midnightblue" d="M484.265,-168.444C516.955,-159.201 569.182,-144.436 605.183,-134.257"/>
<polygon fill="midnightblue" stroke="midnightblue" points="606.206,-137.605 614.877,-131.516 604.302,-130.869 606.206,-137.605"/>
</g>
<!-- Node18&#45;&gt;Node8 -->
<g id="edge28" class="edge"><title>Node18&#45;&gt;Node8</title>
<path fill="none" stroke="midnightblue" d="M435.936,-168.444C417.425,-159.675 388.419,-145.935 367.145,-135.858"/>
<polygon fill="midnightblue" stroke="midnightblue" points="368.515,-132.634 357.979,-131.516 365.518,-138.96 368.515,-132.634"/>
</g>
<!-- Node20&#45;&gt;Node4 -->
<g id="edge33" class="edge"><title>Node20&#45;&gt;Node4</title>
<path fill="none" stroke="midnightblue" d="M645,-168.083C645,-161.006 645,-150.861 645,-141.986"/>
<polygon fill="midnightblue" stroke="midnightblue" points="648.5,-141.751 645,-131.751 641.5,-141.751 648.5,-141.751"/>
</g>
<!-- Node20&#45;&gt;Node8 -->
<g id="edge34" class="edge"><title>Node20&#45;&gt;Node8</title>
<path fill="none" stroke="midnightblue" d="M605.439,-169.996C548.606,-159.934 444.161,-141.442 384.637,-130.903"/>
<polygon fill="midnightblue" stroke="midnightblue" points="385.233,-127.454 374.776,-129.157 384.012,-134.347 385.233,-127.454"/>
</g>
<!-- Node22&#45;&gt;Node8 -->
<g id="edge37" class="edge"><title>Node22&#45;&gt;Node8</title>
<path fill="none" stroke="midnightblue" d="M64.9506,-224.277C76.7405,-210.112 102.112,-182.262 130,-168 182.861,-140.967 251.21,-130.153 295.328,-125.841"/>
<polygon fill="midnightblue" stroke="midnightblue" points="295.807,-129.312 305.451,-124.924 295.176,-122.34 295.807,-129.312"/>
</g>
<!-- Node23&#45;&gt;Node14 -->
<g id="edge39" class="edge"><title>Node23&#45;&gt;Node14</title>
<path fill="none" stroke="midnightblue" d="M1275.02,-224.368C1268.86,-206.537 1254.61,-165.295 1246.31,-141.272"/>
<polygon fill="midnightblue" stroke="midnightblue" points="1249.54,-139.9 1242.97,-131.591 1242.93,-142.186 1249.54,-139.9"/>
</g>
<!-- Node25 -->
<g id="node25" class="node"><title>Node25</title>
<g id="a_node25"><a xlink:href="dji__hotpoint_8hpp.html" target="_top" xlink:title="Implementation of HotPoint (Point of Interest) Missions for DJI OSDK. ">
<polygon fill="white" stroke="black" points="682.5,-224.5 682.5,-243.5 767.5,-243.5 767.5,-224.5 682.5,-224.5"/>
<text text-anchor="middle" x="725" y="-231.5" font-family="Helvetica,sans-Serif" font-size="10.00">dji_hotpoint.hpp</text>
</a>
</g>
</g>
<!-- Node24&#45;&gt;Node25 -->
<g id="edge41" class="edge"><title>Node24&#45;&gt;Node25</title>
<path fill="none" stroke="midnightblue" d="M878.162,-280.444C847.144,-271.241 797.671,-256.562 763.382,-246.388"/>
<polygon fill="midnightblue" stroke="midnightblue" points="764.286,-243.006 753.704,-243.516 762.295,-249.716 764.286,-243.006"/>
</g>
<!-- Node27 -->
<g id="node27" class="node"><title>Node27</title>
<g id="a_node27"><a xlink:href="dji__waypoint_8hpp.html" target="_top" xlink:title="Implementation of GPS Waypoint Missions for DJI OSDK. ">
<polygon fill="white" stroke="black" points="862.5,-224.5 862.5,-243.5 951.5,-243.5 951.5,-224.5 862.5,-224.5"/>
<text text-anchor="middle" x="907" y="-231.5" font-family="Helvetica,sans-Serif" font-size="10.00">dji_waypoint.hpp</text>
</a>
</g>
</g>
<!-- Node24&#45;&gt;Node27 -->
<g id="edge47" class="edge"><title>Node24&#45;&gt;Node27</title>
<path fill="none" stroke="midnightblue" d="M907,-280.083C907,-273.006 907,-262.861 907,-253.986"/>
<polygon fill="midnightblue" stroke="midnightblue" points="910.5,-253.751 907,-243.751 903.5,-253.751 910.5,-253.751"/>
</g>
<!-- Node25&#45;&gt;Node17 -->
<g id="edge46" class="edge"><title>Node25&#45;&gt;Node17</title>
<path fill="none" stroke="midnightblue" d="M728.798,-224.083C731.913,-216.77 736.423,-206.181 740.289,-197.103"/>
<polygon fill="midnightblue" stroke="midnightblue" points="743.574,-198.323 744.273,-187.751 737.134,-195.58 743.574,-198.323"/>
</g>
<!-- Node26 -->
<g id="node26" class="node"><title>Node26</title>
<g id="a_node26"><a xlink:href="dji__mission__base_8hpp.html" target="_top" xlink:title="Mission&#45;Base abstract class for DJI OSDK library. ">
<polygon fill="white" stroke="black" points="812,-168.5 812,-187.5 922,-187.5 922,-168.5 812,-168.5"/>
<text text-anchor="middle" x="867" y="-175.5" font-family="Helvetica,sans-Serif" font-size="10.00">dji_mission_base.hpp</text>
</a>
</g>
</g>
<!-- Node25&#45;&gt;Node26 -->
<g id="edge42" class="edge"><title>Node25&#45;&gt;Node26</title>
<path fill="none" stroke="midnightblue" d="M747.5,-224.444C771.077,-215.478 808.322,-201.314 834.964,-191.183"/>
<polygon fill="midnightblue" stroke="midnightblue" points="836.502,-194.342 844.605,-187.516 834.014,-187.8 836.502,-194.342"/>
</g>
<!-- Node26&#45;&gt;Node4 -->
<g id="edge43" class="edge"><title>Node26&#45;&gt;Node4</title>
<path fill="none" stroke="midnightblue" d="M831.823,-168.444C793.421,-159.102 731.824,-144.119 689.945,-133.933"/>
<polygon fill="midnightblue" stroke="midnightblue" points="690.556,-130.479 680.012,-131.516 688.901,-137.281 690.556,-130.479"/>
</g>
<!-- Node26&#45;&gt;Node8 -->
<g id="edge44" class="edge"><title>Node26&#45;&gt;Node8</title>
<path fill="none" stroke="midnightblue" d="M811.701,-169.188C808.42,-168.773 805.168,-168.373 802,-168 649.073,-149.973 467.051,-133.786 384.563,-126.736"/>
<polygon fill="midnightblue" stroke="midnightblue" points="384.796,-123.244 374.535,-125.882 384.202,-130.218 384.796,-123.244"/>
</g>
<!-- Node26&#45;&gt;Node14 -->
<g id="edge45" class="edge"><title>Node26&#45;&gt;Node14</title>
<path fill="none" stroke="midnightblue" d="M922.037,-169.032C988.095,-159.469 1098.92,-143.424 1170.74,-133.028"/>
<polygon fill="midnightblue" stroke="midnightblue" points="1171.64,-136.433 1181.04,-131.536 1170.64,-129.505 1171.64,-136.433"/>
</g>
<!-- Node27&#45;&gt;Node26 -->
<g id="edge48" class="edge"><title>Node27&#45;&gt;Node26</title>
<path fill="none" stroke="midnightblue" d="M900.395,-224.083C894.745,-216.455 886.455,-205.264 879.549,-195.941"/>
<polygon fill="midnightblue" stroke="midnightblue" points="882.247,-193.703 873.482,-187.751 876.622,-197.87 882.247,-193.703"/>
</g>
<!-- Node28&#45;&gt;Node14 -->
<g id="edge50" class="edge"><title>Node28&#45;&gt;Node14</title>
<path fill="none" stroke="midnightblue" d="M1392.05,-224.368C1363.74,-205.492 1296.08,-160.385 1261.36,-137.237"/>
<polygon fill="midnightblue" stroke="midnightblue" points="1263.15,-134.226 1252.89,-131.591 1259.27,-140.051 1263.15,-134.226"/>
</g>
<!-- Node30&#45;&gt;Node13 -->
<g id="edge54" class="edge"><title>Node30&#45;&gt;Node13</title>
<path fill="none" stroke="midnightblue" d="M1631.44,-224.175C1626.91,-201.338 1611.46,-140.13 1572,-112 1530.47,-82.3951 1390.04,-72.2337 1305.7,-68.7696"/>
<polygon fill="midnightblue" stroke="midnightblue" points="1305.83,-65.2722 1295.7,-68.3795 1305.56,-72.2669 1305.83,-65.2722"/>
</g>
<!-- Node30&#45;&gt;Node14 -->
<g id="edge56" class="edge"><title>Node30&#45;&gt;Node14</title>
<path fill="none" stroke="midnightblue" d="M1602.49,-224.46C1532.33,-204.822 1359.51,-156.45 1280.54,-134.348"/>
<polygon fill="midnightblue" stroke="midnightblue" points="1281.06,-130.86 1270.49,-131.535 1279.18,-137.6 1281.06,-130.86"/>
</g>
<!-- Node30&#45;&gt;Node17 -->
<g id="edge55" class="edge"><title>Node30&#45;&gt;Node17</title>
<path fill="none" stroke="midnightblue" d="M1581.35,-229.647C1553.92,-227.898 1519.63,-225.761 1489,-224 1187.47,-206.666 1108.25,-220.399 803.572,-187.926"/>
<polygon fill="midnightblue" stroke="midnightblue" points="803.883,-184.439 793.566,-186.852 803.135,-191.399 803.883,-184.439"/>
</g>
<!-- Node32&#45;&gt;Node3 -->
<g id="edge62" class="edge"><title>Node32&#45;&gt;Node3</title>
<path fill="none" stroke="midnightblue" d="M565.853,-280.083C564.131,-272.927 561.653,-262.635 559.5,-253.691"/>
<polygon fill="midnightblue" stroke="midnightblue" points="562.85,-252.654 557.107,-243.751 556.045,-254.293 562.85,-252.654"/>
</g>
<!-- Node32&#45;&gt;Node8 -->
<g id="edge64" class="edge"><title>Node32&#45;&gt;Node8</title>
<path fill="none" stroke="midnightblue" d="M522.822,-286.676C430.403,-281.458 226.676,-267.405 206,-244 183.637,-218.685 186.28,-195.424 206,-168 226.209,-139.896 264.829,-129.1 295.437,-125.072"/>
<polygon fill="midnightblue" stroke="midnightblue" points="295.922,-128.539 305.472,-123.95 295.145,-121.583 295.922,-128.539"/>
</g>
<!-- Node32&#45;&gt;Node13 -->
<g id="edge63" class="edge"><title>Node32&#45;&gt;Node13</title>
<path fill="none" stroke="midnightblue" d="M613.204,-280.961C665.105,-271.427 746.834,-255.393 776,-244 792.33,-237.621 793.925,-230.996 810,-224 861.447,-201.612 878.149,-206.837 931,-188 1013.57,-158.571 1031.21,-143.539 1113,-112 1143.83,-100.112 1179.3,-87.6429 1204.91,-78.8532"/>
<polygon fill="midnightblue" stroke="midnightblue" points="1206.22,-82.1038 1214.55,-75.5573 1203.95,-75.4801 1206.22,-82.1038"/>
</g>
<!-- Node32&#45;&gt;Node17 -->
<g id="edge65" class="edge"><title>Node32&#45;&gt;Node17</title>
<path fill="none" stroke="midnightblue" d="M581.889,-280.317C601.952,-267.794 640.23,-243.973 673,-224 690.231,-213.498 709.783,-201.773 724.603,-192.925"/>
<polygon fill="midnightblue" stroke="midnightblue" points="726.79,-195.696 733.586,-187.568 723.205,-189.684 726.79,-195.696"/>
</g>
</g>
</svg>
