<?xml version="1.0" encoding="UTF-8" standalone="no"?>
<!DOCTYPE svg PUBLIC "-//W3C//DTD SVG 1.1//EN"
 "http://www.w3.org/Graphics/SVG/1.1/DTD/svg11.dtd">
<!-- Generated by graphviz version 2.40.1 (20161225.0304)
 -->
<!-- Title: osdk&#45;core/api/inc/dji_mission_manager.hpp Pages: 1 -->
<svg width="389pt" height="319pt"
 viewBox="0.00 0.00 388.50 319.00" xmlns="http://www.w3.org/2000/svg" xmlns:xlink="http://www.w3.org/1999/xlink">
<g id="graph0" class="graph" transform="scale(1 1) rotate(0) translate(4 315)">
<title>osdk&#45;core/api/inc/dji_mission_manager.hpp</title>
<polygon fill="#ffffff" stroke="transparent" points="-4,4 -4,-315 384.5,-315 384.5,4 -4,4"/>
<!-- Node0 -->
<g id="node1" class="node">
<title>Node0</title>
<g id="a_node1"><a xlink:title="Mission&#45;Manager API for DJI OSDK library.">
<polygon fill="#bfbfbf" stroke="#000000" points="217,-280.5 217,-310.5 334,-310.5 334,-280.5 217,-280.5"/>
<text text-anchor="start" x="225" y="-298.5" font-family="Helvetica,sans-Serif" font-size="10.00" fill="#000000">osdk&#45;core/api/inc/dji</text>
<text text-anchor="middle" x="275.5" y="-287.5" font-family="Helvetica,sans-Serif" font-size="10.00" fill="#000000">_mission_manager.hpp</text>
</a>
</g>
</g>
<!-- Node1 -->
<g id="node2" class="node">
<title>Node1</title>
<g id="a_node2"><a xlink:href="dji__hotpoint_8hpp.html" target="_top" xlink:title="Implementation of HotPoint (Point of Interest) Missions for DJI OSDK.">
<polygon fill="#ffffff" stroke="#000000" points="233,-224.5 233,-243.5 318,-243.5 318,-224.5 233,-224.5"/>
<text text-anchor="middle" x="275.5" y="-231.5" font-family="Helvetica,sans-Serif" font-size="10.00" fill="#000000">dji_hotpoint.hpp</text>
</a>
</g>
</g>
<!-- Node0&#45;&gt;Node1 -->
<g id="edge1" class="edge">
<title>Node0&#45;&gt;Node1</title>
<path fill="none" stroke="#191970" d="M275.5,-280.2977C275.5,-272.3834 275.5,-262.6043 275.5,-254.0759"/>
<polygon fill="#191970" stroke="#191970" points="279.0001,-253.8469 275.5,-243.8469 272.0001,-253.847 279.0001,-253.8469"/>
</g>
<!-- Node11 -->
<g id="node12" class="node">
<title>Node11</title>
<g id="a_node12"><a xlink:href="dji__waypoint_8hpp.html" target="_top" xlink:title="Implementation of GPS Waypoint Missions for DJI OSDK.">
<polygon fill="#ffffff" stroke="#000000" points="126,-224.5 126,-243.5 215,-243.5 215,-224.5 126,-224.5"/>
<text text-anchor="middle" x="170.5" y="-231.5" font-family="Helvetica,sans-Serif" font-size="10.00" fill="#000000">dji_waypoint.hpp</text>
</a>
</g>
</g>
<!-- Node0&#45;&gt;Node11 -->
<g id="edge14" class="edge">
<title>Node0&#45;&gt;Node11</title>
<path fill="none" stroke="#191970" d="M249.8141,-280.4554C233.3703,-270.8241 212.1292,-258.3828 195.7677,-248.7996"/>
<polygon fill="#191970" stroke="#191970" points="197.169,-245.5643 186.7713,-243.5303 193.6312,-251.6045 197.169,-245.5643"/>
</g>
<!-- Node12 -->
<g id="node13" class="node">
<title>Node12</title>
<g id="a_node13"><a xlink:title=" ">
<polygon fill="#ffffff" stroke="#bfbfbf" points="336.5,-224.5 336.5,-243.5 380.5,-243.5 380.5,-224.5 336.5,-224.5"/>
<text text-anchor="middle" x="358.5" y="-231.5" font-family="Helvetica,sans-Serif" font-size="10.00" fill="#000000">vector</text>
</a>
</g>
</g>
<!-- Node0&#45;&gt;Node12 -->
<g id="edge16" class="edge">
<title>Node0&#45;&gt;Node12</title>
<path fill="none" stroke="#191970" d="M296.0169,-280.2977C308.4982,-271.0495 324.4159,-259.2551 337.0614,-249.8853"/>
<polygon fill="#191970" stroke="#191970" points="339.2596,-252.6126 345.2106,-243.8469 335.0922,-246.9882 339.2596,-252.6126"/>
</g>
<!-- Node2 -->
<g id="node3" class="node">
<title>Node2</title>
<g id="a_node3"><a xlink:href="dji__mission__base_8hpp.html" target="_top" xlink:title="Mission&#45;Base abstract class for DJI OSDK library.">
<polygon fill="#ffffff" stroke="#000000" points="115.5,-168.5 115.5,-187.5 225.5,-187.5 225.5,-168.5 115.5,-168.5"/>
<text text-anchor="middle" x="170.5" y="-175.5" font-family="Helvetica,sans-Serif" font-size="10.00" fill="#000000">dji_mission_base.hpp</text>
</a>
</g>
</g>
<!-- Node1&#45;&gt;Node2 -->
<g id="edge2" class="edge">
<title>Node1&#45;&gt;Node2</title>
<path fill="none" stroke="#191970" d="M257.2104,-224.2455C240.7238,-215.4527 216.2648,-202.4079 197.5235,-192.4125"/>
<polygon fill="#191970" stroke="#191970" points="199.0506,-189.2604 188.58,-187.6427 195.7565,-195.4368 199.0506,-189.2604"/>
</g>
<!-- Node10 -->
<g id="node11" class="node">
<title>Node10</title>
<g id="a_node11"><a xlink:href="dji__telemetry_8hpp.html" target="_top" xlink:title="Enumeration of all telemetry data types, structures and maps.">
<polygon fill="#ffffff" stroke="#000000" points="244,-168.5 244,-187.5 335,-187.5 335,-168.5 244,-168.5"/>
<text text-anchor="middle" x="289.5" y="-175.5" font-family="Helvetica,sans-Serif" font-size="10.00" fill="#000000">dji_telemetry.hpp</text>
</a>
</g>
</g>
<!-- Node1&#45;&gt;Node10 -->
<g id="edge12" class="edge">
<title>Node1&#45;&gt;Node10</title>
<path fill="none" stroke="#191970" d="M277.9386,-224.2455C279.7855,-216.8579 282.3828,-206.4689 284.6478,-197.4087"/>
<polygon fill="#191970" stroke="#191970" points="288.0594,-198.193 287.0893,-187.6427 281.2684,-196.4952 288.0594,-198.193"/>
</g>
<!-- Node3 -->
<g id="node4" class="node">
<title>Node3</title>
<g id="a_node4"><a xlink:href="dji__command_8hpp.html" target="_top" xlink:title="All DJI OSDK OpenProtocol Command IDs.">
<polygon fill="#ffffff" stroke="#000000" points="0,-112.5 0,-131.5 93,-131.5 93,-112.5 0,-112.5"/>
<text text-anchor="middle" x="46.5" y="-119.5" font-family="Helvetica,sans-Serif" font-size="10.00" fill="#000000">dji_command.hpp</text>
</a>
</g>
</g>
<!-- Node2&#45;&gt;Node3 -->
<g id="edge3" class="edge">
<title>Node2&#45;&gt;Node3</title>
<path fill="none" stroke="#191970" d="M149.1836,-168.3733C129.2784,-159.3838 99.3564,-145.8706 76.94,-135.7471"/>
<polygon fill="#191970" stroke="#191970" points="78.0925,-132.4272 67.5382,-131.5011 75.2113,-138.8068 78.0925,-132.4272"/>
</g>
<!-- Node6 -->
<g id="node7" class="node">
<title>Node6</title>
<g id="a_node7"><a xlink:href="dji__type_8hpp.html" target="_top" xlink:title="Data type and Data Structure definitions for use throughout DJI OSDK.">
<polygon fill="#ffffff" stroke="#000000" points="254,-112.5 254,-131.5 323,-131.5 323,-112.5 254,-112.5"/>
<text text-anchor="middle" x="288.5" y="-119.5" font-family="Helvetica,sans-Serif" font-size="10.00" fill="#000000">dji_type.hpp</text>
</a>
</g>
</g>
<!-- Node2&#45;&gt;Node6 -->
<g id="edge7" class="edge">
<title>Node2&#45;&gt;Node6</title>
<path fill="none" stroke="#191970" d="M190.7849,-168.3733C209.6421,-159.4241 237.946,-145.9917 259.2455,-135.8835"/>
<polygon fill="#191970" stroke="#191970" points="260.9461,-138.9506 268.4798,-131.5011 257.9449,-132.6266 260.9461,-138.9506"/>
</g>
<!-- Node8 -->
<g id="node9" class="node">
<title>Node8</title>
<g id="a_node9"><a xlink:href="dji__vehicle__callback_8hpp.html" target="_top" xlink:title="Type definition for new Vehicle&#45;style callbacks.">
<polygon fill="#ffffff" stroke="#000000" points="111.5,-112.5 111.5,-131.5 233.5,-131.5 233.5,-112.5 111.5,-112.5"/>
<text text-anchor="middle" x="172.5" y="-119.5" font-family="Helvetica,sans-Serif" font-size="10.00" fill="#000000">dji_vehicle_callback.hpp</text>
</a>
</g>
</g>
<!-- Node2&#45;&gt;Node8 -->
<g id="edge10" class="edge">
<title>Node2&#45;&gt;Node8</title>
<path fill="none" stroke="#191970" d="M170.8484,-168.2455C171.1093,-160.9382 171.4752,-150.6944 171.7963,-141.7046"/>
<polygon fill="#191970" stroke="#191970" points="175.2964,-141.7613 172.1556,-131.6427 168.3008,-141.5113 175.2964,-141.7613"/>
</g>
<!-- Node4 -->
<g id="node5" class="node">
<title>Node4</title>
<g id="a_node5"><a xlink:href="dji__error_8hpp.html" target="_top" xlink:title="All DJI OSDK OpenProtocol ACK Error Codes.">
<polygon fill="#ffffff" stroke="#000000" points="28.5,-56.5 28.5,-75.5 98.5,-75.5 98.5,-56.5 28.5,-56.5"/>
<text text-anchor="middle" x="63.5" y="-63.5" font-family="Helvetica,sans-Serif" font-size="10.00" fill="#000000">dji_error.hpp</text>
</a>
</g>
</g>
<!-- Node3&#45;&gt;Node4 -->
<g id="edge4" class="edge">
<title>Node3&#45;&gt;Node4</title>
<path fill="none" stroke="#191970" d="M49.4612,-112.2455C51.7038,-104.8579 54.8577,-94.4689 57.6081,-85.4087"/>
<polygon fill="#191970" stroke="#191970" points="61.017,-86.2282 60.5728,-75.6427 54.3188,-84.1948 61.017,-86.2282"/>
</g>
<!-- Node5 -->
<g id="node6" class="node">
<title>Node5</title>
<g id="a_node6"><a xlink:title=" ">
<polygon fill="#ffffff" stroke="#bfbfbf" points="39,-.5 39,-19.5 88,-19.5 88,-.5 39,-.5"/>
<text text-anchor="middle" x="63.5" y="-7.5" font-family="Helvetica,sans-Serif" font-size="10.00" fill="#000000">stdint.h</text>
</a>
</g>
</g>
<!-- Node3&#45;&gt;Node5 -->
<g id="edge6" class="edge">
<title>Node3&#45;&gt;Node5</title>
<path fill="none" stroke="#191970" d="M37.4949,-112.1768C26.8343,-99.2977 11.4781,-75.9919 19.5,-56 24.1633,-44.3782 33.3188,-34.0324 42.0762,-26.1099"/>
<polygon fill="#191970" stroke="#191970" points="44.4727,-28.6675 49.8664,-19.5484 39.9632,-23.3136 44.4727,-28.6675"/>
</g>
<!-- Node4&#45;&gt;Node5 -->
<g id="edge5" class="edge">
<title>Node4&#45;&gt;Node5</title>
<path fill="none" stroke="#191970" d="M63.5,-56.2455C63.5,-48.9382 63.5,-38.6944 63.5,-29.7046"/>
<polygon fill="#191970" stroke="#191970" points="67.0001,-29.6426 63.5,-19.6427 60.0001,-29.6427 67.0001,-29.6426"/>
</g>
<!-- Node6&#45;&gt;Node5 -->
<g id="edge9" class="edge">
<title>Node6&#45;&gt;Node5</title>
<path fill="none" stroke="#191970" d="M294.1263,-112.2614C301.4282,-98.1918 311.7583,-72.1051 298.5,-56 273.5118,-25.6462 157.1647,-15.0349 98.099,-11.5627"/>
<polygon fill="#191970" stroke="#191970" points="98.2892,-8.0679 88.1115,-11.0117 97.9035,-15.0573 98.2892,-8.0679"/>
</g>
<!-- Node7 -->
<g id="node8" class="node">
<title>Node7</title>
<g id="a_node8"><a xlink:title=" ">
<polygon fill="#ffffff" stroke="#bfbfbf" points="246,-56.5 246,-75.5 289,-75.5 289,-56.5 246,-56.5"/>
<text text-anchor="middle" x="267.5" y="-63.5" font-family="Helvetica,sans-Serif" font-size="10.00" fill="#000000">cstdio</text>
</a>
</g>
</g>
<!-- Node6&#45;&gt;Node7 -->
<g id="edge8" class="edge">
<title>Node6&#45;&gt;Node7</title>
<path fill="none" stroke="#191970" d="M284.8421,-112.2455C282.0416,-104.7776 278.091,-94.2427 274.6676,-85.1137"/>
<polygon fill="#191970" stroke="#191970" points="277.9045,-83.777 271.116,-75.6427 271.3501,-86.2349 277.9045,-83.777"/>
</g>
<!-- Node9 -->
<g id="node10" class="node">
<title>Node9</title>
<g id="a_node10"><a xlink:title=" ">
<polygon fill="#ffffff" stroke="#bfbfbf" points="117,-56.5 117,-75.5 228,-75.5 228,-56.5 117,-56.5"/>
<text text-anchor="middle" x="172.5" y="-63.5" font-family="Helvetica,sans-Serif" font-size="10.00" fill="#000000">dji_open_protocol.hpp</text>
</a>
</g>
</g>
<!-- Node8&#45;&gt;Node9 -->
<g id="edge11" class="edge">
<title>Node8&#45;&gt;Node9</title>
<path fill="none" stroke="#191970" d="M172.5,-112.2455C172.5,-104.9382 172.5,-94.6944 172.5,-85.7046"/>
<polygon fill="#191970" stroke="#191970" points="176.0001,-85.6426 172.5,-75.6427 169.0001,-85.6427 176.0001,-85.6426"/>
</g>
<!-- Node10&#45;&gt;Node6 -->
<g id="edge13" class="edge">
<title>Node10&#45;&gt;Node6</title>
<path fill="none" stroke="#191970" d="M289.3258,-168.2455C289.1953,-160.9382 289.0124,-150.6944 288.8519,-141.7046"/>
<polygon fill="#191970" stroke="#191970" points="292.3503,-141.5786 288.6722,-131.6427 285.3514,-141.7036 292.3503,-141.5786"/>
</g>
<!-- Node11&#45;&gt;Node2 -->
<g id="edge15" class="edge">
<title>Node11&#45;&gt;Node2</title>
<path fill="none" stroke="#191970" d="M170.5,-224.2455C170.5,-216.9382 170.5,-206.6944 170.5,-197.7046"/>
<polygon fill="#191970" stroke="#191970" points="174.0001,-197.6426 170.5,-187.6427 167.0001,-197.6427 174.0001,-197.6426"/>
</g>
</g>
</svg>
