<?xml version="1.0" encoding="UTF-8" standalone="no"?>
<!DOCTYPE svg PUBLIC "-//W3C//DTD SVG 1.1//EN"
 "http://www.w3.org/Graphics/SVG/1.1/DTD/svg11.dtd">
<!-- Generated by graphviz version 2.38.0 (20140413.2041)
 -->
<!-- Title: osdk&#45;core/api/src/dji_subscription.cpp Pages: 1 -->
<!--zoomable 431 -->
<svg id="main" version="1.1" xmlns="http://www.w3.org/2000/svg" xmlns:xlink="http://www.w3.org/1999/xlink" xml:space="preserve" onload="init(evt)">
<style type="text/css"><![CDATA[
.edge:hover path { stroke: red; }
.edge:hover polygon { stroke: red; fill: red; }
]]></style>
<script type="text/javascript"><![CDATA[
var edges = document.getElementsByTagName('g');
if (edges && edges.length) {
  for (var i=0;i<edges.length;i++) {
    if (edges[i].id.substr(0,4)=='edge') {
      edges[i].setAttribute('class','edge');
    }
  }
}
]]></script>
        <defs>
                <circle id="rim" cx="0" cy="0" r="7"/>
                <circle id="rim2" cx="0" cy="0" r="3.5"/>
                <g id="zoomPlus">
                        <use xlink:href="#rim" fill="#404040">
                                <set attributeName="fill" to="#808080" begin="zoomplus.mouseover" end="zoomplus.mouseout"/>
                        </use>
                        <path d="M-4,0h8M0,-4v8" fill="none" stroke="white" stroke-width="1.5" pointer-events="none"/>
                </g>
                <g id="zoomMin">
                        <use xlink:href="#rim" fill="#404040">
                                <set attributeName="fill" to="#808080" begin="zoomminus.mouseover" end="zoomminus.mouseout"/>
                        </use>
                        <path d="M-4,0h8" fill="none" stroke="white" stroke-width="1.5" pointer-events="none"/>
                </g>
                <g id="dirArrow">
                        <path fill="none" stroke="white" stroke-width="1.5" d="M0,-3.0v7 M-2.5,-0.5L0,-3.0L2.5,-0.5"/>
                </g>
               <g id="resetDef">
                       <use xlink:href="#rim2" fill="#404040">
                               <set attributeName="fill" to="#808080" begin="reset.mouseover" end="reset.mouseout"/>
                       </use>
               </g>
        </defs>

<script type="text/javascript">
var viewWidth = 1978;
var viewHeight = 431;
var sectionId = 'dynsection-0';
</script>
<script xlink:href="svgpan.js"/>
<svg id="graph" class="graph">
<g id="viewport">
<title>osdk&#45;core/api/src/dji_subscription.cpp</title>
<polygon fill="white" stroke="none" points="-4,4 -4,-427 1974,-427 1974,4 -4,4"/>
<!-- Node1 -->
<g id="node1" class="node"><title>Node1</title>
<polygon fill="#bfbfbf" stroke="black" points="556,-392.5 556,-422.5 660,-422.5 660,-392.5 556,-392.5"/>
<text text-anchor="start" x="564" y="-410.5" font-family="Helvetica,sans-Serif" font-size="10.00">osdk&#45;core/api/src/dji</text>
<text text-anchor="middle" x="608" y="-399.5" font-family="Helvetica,sans-Serif" font-size="10.00">_subscription.cpp</text>
</g>
<!-- Node2 -->
<g id="node2" class="node"><title>Node2</title>
<g id="a_node2"><a xlink:href="dji__subscription_8hpp.html" target="_top" xlink:title="Telemetry Subscription API for DJI OSDK library. ">
<polygon fill="white" stroke="black" points="206.5,-224.5 206.5,-243.5 309.5,-243.5 309.5,-224.5 206.5,-224.5"/>
<text text-anchor="middle" x="258" y="-231.5" font-family="Helvetica,sans-Serif" font-size="10.00">dji_subscription.hpp</text>
</a>
</g>
</g>
<!-- Node1&#45;&gt;Node2 -->
<g id="edge1" class="edge"><title>Node1&#45;&gt;Node2</title>
<path fill="none" stroke="midnightblue" d="M579.358,-392.465C512.894,-359.898 348.956,-279.568 284.571,-248.02"/>
<polygon fill="midnightblue" stroke="midnightblue" points="285.989,-244.817 275.469,-243.56 282.909,-251.103 285.989,-244.817"/>
</g>
<!-- Node9 -->
<g id="node9" class="node"><title>Node9</title>
<g id="a_node9"><a xlink:href="dji__vehicle_8hpp.html" target="_top" xlink:title="Vehicle API for DJI onboardSDK library. ">
<polygon fill="white" stroke="black" points="843.5,-336.5 843.5,-355.5 924.5,-355.5 924.5,-336.5 843.5,-336.5"/>
<text text-anchor="middle" x="884" y="-343.5" font-family="Helvetica,sans-Serif" font-size="10.00">dji_vehicle.hpp</text>
</a>
</g>
</g>
<!-- Node1&#45;&gt;Node9 -->
<g id="edge9" class="edge"><title>Node1&#45;&gt;Node9</title>
<path fill="none" stroke="midnightblue" d="M660.238,-395.239C710.282,-384.45 785.256,-368.287 834.401,-357.693"/>
<polygon fill="midnightblue" stroke="midnightblue" points="835.439,-361.049 844.477,-355.52 833.964,-354.206 835.439,-361.049"/>
</g>
<!-- Node3 -->
<g id="node3" class="node"><title>Node3</title>
<polygon fill="white" stroke="#bfbfbf" points="437.5,-56.5 437.5,-75.5 548.5,-75.5 548.5,-56.5 437.5,-56.5"/>
<text text-anchor="middle" x="493" y="-63.5" font-family="Helvetica,sans-Serif" font-size="10.00">dji_open_protocol.hpp</text>
</g>
<!-- Node2&#45;&gt;Node3 -->
<g id="edge2" class="edge"><title>Node2&#45;&gt;Node3</title>
<path fill="none" stroke="midnightblue" d="M269.427,-224.244C295.996,-203.968 364.153,-152.436 423,-112 438.576,-101.297 456.511,-89.7824 470.328,-81.0802"/>
<polygon fill="midnightblue" stroke="midnightblue" points="472.539,-83.8248 479.155,-75.5495 468.823,-77.8929 472.539,-83.8248"/>
</g>
<!-- Node4 -->
<g id="node4" class="node"><title>Node4</title>
<g id="a_node4"><a xlink:href="dji__telemetry_8hpp.html" target="_top" xlink:title="Enumeration of all telemetry data types, structures and maps. ">
<polygon fill="white" stroke="black" points="661.5,-168.5 661.5,-187.5 752.5,-187.5 752.5,-168.5 661.5,-168.5"/>
<text text-anchor="middle" x="707" y="-175.5" font-family="Helvetica,sans-Serif" font-size="10.00">dji_telemetry.hpp</text>
</a>
</g>
</g>
<!-- Node2&#45;&gt;Node4 -->
<g id="edge3" class="edge"><title>Node2&#45;&gt;Node4</title>
<path fill="none" stroke="midnightblue" d="M309.695,-225.133C312.503,-224.741 315.285,-224.361 318,-224 436.433,-208.272 575.575,-192.932 651.185,-184.859"/>
<polygon fill="midnightblue" stroke="midnightblue" points="651.85,-188.308 661.424,-183.769 651.109,-181.347 651.85,-188.308"/>
</g>
<!-- Node8 -->
<g id="node8" class="node"><title>Node8</title>
<g id="a_node8"><a xlink:href="dji__vehicle__callback_8hpp.html" target="_top" xlink:title="Type definition for new Vehicle&#45;style callbacks. ">
<polygon fill="white" stroke="black" points="432,-112.5 432,-131.5 554,-131.5 554,-112.5 432,-112.5"/>
<text text-anchor="middle" x="493" y="-119.5" font-family="Helvetica,sans-Serif" font-size="10.00">dji_vehicle_callback.hpp</text>
</a>
</g>
</g>
<!-- Node2&#45;&gt;Node8 -->
<g id="edge7" class="edge"><title>Node2&#45;&gt;Node8</title>
<path fill="none" stroke="midnightblue" d="M276.44,-224.368C317.538,-205.131 416.843,-158.648 465.374,-135.931"/>
<polygon fill="midnightblue" stroke="midnightblue" points="467.073,-139.001 474.646,-131.591 464.105,-132.661 467.073,-139.001"/>
</g>
<!-- Node5 -->
<g id="node5" class="node"><title>Node5</title>
<g id="a_node5"><a xlink:href="dji__type_8hpp.html" target="_top" xlink:title="Data type and Data Structure definitions for use throughout DJI OSDK. ">
<polygon fill="white" stroke="black" points="1116.5,-112.5 1116.5,-131.5 1185.5,-131.5 1185.5,-112.5 1116.5,-112.5"/>
<text text-anchor="middle" x="1151" y="-119.5" font-family="Helvetica,sans-Serif" font-size="10.00">dji_type.hpp</text>
</a>
</g>
</g>
<!-- Node4&#45;&gt;Node5 -->
<g id="edge4" class="edge"><title>Node4&#45;&gt;Node5</title>
<path fill="none" stroke="midnightblue" d="M752.515,-170.015C757.401,-169.312 762.302,-168.627 767,-168 889.546,-151.633 1034.54,-135.523 1106.24,-127.772"/>
<polygon fill="midnightblue" stroke="midnightblue" points="1106.7,-131.242 1116.27,-126.69 1105.95,-124.283 1106.7,-131.242"/>
</g>
<!-- Node6 -->
<g id="node6" class="node"><title>Node6</title>
<polygon fill="white" stroke="#bfbfbf" points="1179.5,-56.5 1179.5,-75.5 1222.5,-75.5 1222.5,-56.5 1179.5,-56.5"/>
<text text-anchor="middle" x="1201" y="-63.5" font-family="Helvetica,sans-Serif" font-size="10.00">cstdio</text>
</g>
<!-- Node5&#45;&gt;Node6 -->
<g id="edge5" class="edge"><title>Node5&#45;&gt;Node6</title>
<path fill="none" stroke="midnightblue" d="M1159.26,-112.083C1166.46,-104.298 1177.11,-92.8015 1185.85,-83.3665"/>
<polygon fill="midnightblue" stroke="midnightblue" points="1188.67,-85.4666 1192.9,-75.7511 1183.53,-80.7108 1188.67,-85.4666"/>
</g>
<!-- Node7 -->
<g id="node7" class="node"><title>Node7</title>
<polygon fill="white" stroke="#bfbfbf" points="1284.5,-0.5 1284.5,-19.5 1333.5,-19.5 1333.5,-0.5 1284.5,-0.5"/>
<text text-anchor="middle" x="1309" y="-7.5" font-family="Helvetica,sans-Serif" font-size="10.00">stdint.h</text>
</g>
<!-- Node5&#45;&gt;Node7 -->
<g id="edge6" class="edge"><title>Node5&#45;&gt;Node7</title>
<path fill="none" stroke="midnightblue" d="M1151.09,-112.149C1151.7,-98.3061 1154.92,-71.5147 1170,-56 1197.47,-27.7252 1242.83,-17.1961 1274.22,-13.287"/>
<polygon fill="midnightblue" stroke="midnightblue" points="1274.72,-16.7535 1284.28,-12.1991 1273.97,-9.79409 1274.72,-16.7535"/>
</g>
<!-- Node8&#45;&gt;Node3 -->
<g id="edge8" class="edge"><title>Node8&#45;&gt;Node3</title>
<path fill="none" stroke="midnightblue" d="M493,-112.083C493,-105.006 493,-94.8611 493,-85.9865"/>
<polygon fill="midnightblue" stroke="midnightblue" points="496.5,-85.751 493,-75.7511 489.5,-85.7511 496.5,-85.751"/>
</g>
<!-- Node9&#45;&gt;Node2 -->
<g id="edge64" class="edge"><title>Node9&#45;&gt;Node2</title>
<path fill="none" stroke="midnightblue" d="M843.345,-342.194C772.932,-336.899 623.931,-323.774 500,-300 425.966,-285.798 341.277,-261.04 294.279,-246.524"/>
<polygon fill="midnightblue" stroke="midnightblue" points="295.15,-243.13 284.562,-243.503 293.072,-249.814 295.15,-243.13"/>
</g>
<!-- Node9&#45;&gt;Node3 -->
<g id="edge61" class="edge"><title>Node9&#45;&gt;Node3</title>
<path fill="none" stroke="midnightblue" d="M843.323,-344.405C688.271,-341.912 139.437,-330.961 68,-300 29.6394,-283.374 0,-276.808 0,-235 0,-235 0,-235 0,-177 0,-90.4634 293.007,-71.9775 427.245,-68.0492"/>
<polygon fill="midnightblue" stroke="midnightblue" points="427.505,-71.5435 437.405,-67.7709 427.313,-64.5461 427.505,-71.5435"/>
</g>
<!-- Node9&#45;&gt;Node5 -->
<g id="edge66" class="edge"><title>Node9&#45;&gt;Node5</title>
<path fill="none" stroke="midnightblue" d="M869.339,-336.402C857.594,-328.585 841.969,-315.862 835,-300 831.425,-291.862 832.312,-288.473 835,-280 853.418,-221.936 862.784,-200.977 914,-168 945.142,-147.948 1046.39,-134.123 1106,-127.492"/>
<polygon fill="midnightblue" stroke="midnightblue" points="1106.7,-130.937 1116.27,-126.376 1105.95,-123.978 1106.7,-130.937"/>
</g>
<!-- Node9&#45;&gt;Node8 -->
<g id="edge67" class="edge"><title>Node9&#45;&gt;Node8</title>
<path fill="none" stroke="midnightblue" d="M843.349,-344.802C690.99,-343.771 159.2,-337.497 94,-300 68.1407,-285.128 65.5855,-272.569 57,-244 54.4417,-235.487 51.7136,-231.146 57,-224 99.8497,-166.076 309.442,-139.071 421.693,-128.586"/>
<polygon fill="midnightblue" stroke="midnightblue" points="422.273,-132.047 431.913,-127.652 421.636,-125.076 422.273,-132.047"/>
</g>
<!-- Node10 -->
<g id="node10" class="node"><title>Node10</title>
<polygon fill="white" stroke="#bfbfbf" points="722,-112.5 722,-131.5 768,-131.5 768,-112.5 722,-112.5"/>
<text text-anchor="middle" x="745" y="-119.5" font-family="Helvetica,sans-Serif" font-size="10.00">cstdint</text>
</g>
<!-- Node9&#45;&gt;Node10 -->
<g id="edge10" class="edge"><title>Node9&#45;&gt;Node10</title>
<path fill="none" stroke="midnightblue" d="M843.237,-340.319C792.924,-333.758 711.273,-320.307 689,-300 666.488,-279.475 635.816,-193.81 652,-168 665.02,-147.236 690.636,-135.817 711.693,-129.684"/>
<polygon fill="midnightblue" stroke="midnightblue" points="712.808,-133.009 721.588,-127.079 711.026,-126.24 712.808,-133.009"/>
</g>
<!-- Node11 -->
<g id="node11" class="node"><title>Node11</title>
<g id="a_node11"><a xlink:href="dji__broadcast_8hpp.html" target="_top" xlink:title="Broadcast Telemetry API for DJI onboardSDK library. ">
<polygon fill="white" stroke="black" points="545.5,-224.5 545.5,-243.5 638.5,-243.5 638.5,-224.5 545.5,-224.5"/>
<text text-anchor="middle" x="592" y="-231.5" font-family="Helvetica,sans-Serif" font-size="10.00">dji_broadcast.hpp</text>
</a>
</g>
</g>
<!-- Node9&#45;&gt;Node11 -->
<g id="edge11" class="edge"><title>Node9&#45;&gt;Node11</title>
<path fill="none" stroke="midnightblue" d="M843.465,-344.53C795.232,-342.36 713.618,-333.492 653,-300 632.135,-288.472 614.295,-267.285 603.393,-252.236"/>
<polygon fill="midnightblue" stroke="midnightblue" points="606.115,-250.018 597.537,-243.8 600.365,-254.01 606.115,-250.018"/>
</g>
<!-- Node12 -->
<g id="node12" class="node"><title>Node12</title>
<g id="a_node12"><a xlink:href="dji__camera_8hpp.html" target="_top" xlink:title="Camera/Gimbal API for DJI onboardSDK library. ">
<polygon fill="white" stroke="black" points="1542.5,-168.5 1542.5,-187.5 1625.5,-187.5 1625.5,-168.5 1542.5,-168.5"/>
<text text-anchor="middle" x="1584" y="-175.5" font-family="Helvetica,sans-Serif" font-size="10.00">dji_camera.hpp</text>
</a>
</g>
</g>
<!-- Node9&#45;&gt;Node12 -->
<g id="edge14" class="edge"><title>Node9&#45;&gt;Node12</title>
<path fill="none" stroke="midnightblue" d="M924.711,-344.451C1093.5,-341.979 1730.9,-330.638 1760,-300 1807.25,-250.264 1694.29,-209.221 1628,-190.282"/>
<polygon fill="midnightblue" stroke="midnightblue" points="1628.76,-186.86 1618.19,-187.541 1626.88,-193.602 1628.76,-186.86"/>
</g>
<!-- Node13 -->
<g id="node13" class="node"><title>Node13</title>
<g id="a_node13"><a xlink:href="dji__command_8hpp.html" target="_top" xlink:title="All DJI OSDK OpenProtocol Command IDs. ">
<polygon fill="white" stroke="black" points="1325.5,-112.5 1325.5,-131.5 1418.5,-131.5 1418.5,-112.5 1325.5,-112.5"/>
<text text-anchor="middle" x="1372" y="-119.5" font-family="Helvetica,sans-Serif" font-size="10.00">dji_command.hpp</text>
</a>
</g>
</g>
<!-- Node9&#45;&gt;Node13 -->
<g id="edge21" class="edge"><title>Node9&#45;&gt;Node13</title>
<path fill="none" stroke="midnightblue" d="M924.769,-344.499C1096.08,-342.196 1750.16,-331.372 1780,-300 1888.64,-185.762 1564.44,-141.156 1428.74,-127.779"/>
<polygon fill="midnightblue" stroke="midnightblue" points="1428.82,-124.27 1418.53,-126.796 1428.15,-131.238 1428.82,-124.27"/>
</g>
<!-- Node15 -->
<g id="node15" class="node"><title>Node15</title>
<polygon fill="white" stroke="#bfbfbf" points="1126,-280.5 1126,-299.5 1238,-299.5 1238,-280.5 1126,-280.5"/>
<text text-anchor="middle" x="1182" y="-287.5" font-family="Helvetica,sans-Serif" font-size="10.00">dji_circular_buffer.hpp</text>
</g>
<!-- Node9&#45;&gt;Node15 -->
<g id="edge20" class="edge"><title>Node9&#45;&gt;Node15</title>
<path fill="none" stroke="midnightblue" d="M924.811,-337.605C976.615,-328.217 1066.28,-311.97 1124.86,-301.354"/>
<polygon fill="midnightblue" stroke="midnightblue" points="1125.85,-304.732 1135.06,-299.505 1124.6,-297.844 1125.85,-304.732"/>
</g>
<!-- Node16 -->
<g id="node16" class="node"><title>Node16</title>
<g id="a_node16"><a xlink:href="dji__control_8hpp.html" target="_top" xlink:title="Control API for DJI OSDK library. ">
<polygon fill="white" stroke="black" points="844,-280.5 844,-299.5 924,-299.5 924,-280.5 844,-280.5"/>
<text text-anchor="middle" x="884" y="-287.5" font-family="Helvetica,sans-Serif" font-size="10.00">dji_control.hpp</text>
</a>
</g>
</g>
<!-- Node9&#45;&gt;Node16 -->
<g id="edge22" class="edge"><title>Node9&#45;&gt;Node16</title>
<path fill="none" stroke="midnightblue" d="M884,-336.083C884,-329.006 884,-318.861 884,-309.986"/>
<polygon fill="midnightblue" stroke="midnightblue" points="887.5,-309.751 884,-299.751 880.5,-309.751 887.5,-309.751"/>
</g>
<!-- Node19 -->
<g id="node19" class="node"><title>Node19</title>
<g id="a_node19"><a xlink:href="dji__version_8hpp.html" target="_top" xlink:title="Drone/SDK Version definition for DJI onboardSDK library. ">
<polygon fill="white" stroke="black" points="1217,-168.5 1217,-187.5 1299,-187.5 1299,-168.5 1217,-168.5"/>
<text text-anchor="middle" x="1258" y="-175.5" font-family="Helvetica,sans-Serif" font-size="10.00">dji_version.hpp</text>
</a>
</g>
</g>
<!-- Node9&#45;&gt;Node19 -->
<g id="edge68" class="edge"><title>Node9&#45;&gt;Node19</title>
<path fill="none" stroke="midnightblue" d="M894.363,-336.487C910.324,-323.555 942.107,-298.512 971,-280 981.968,-272.972 1061.85,-228.698 1074,-224 1117.46,-207.198 1169.17,-195.211 1206.69,-187.855"/>
<polygon fill="midnightblue" stroke="midnightblue" points="1207.72,-191.222 1216.88,-185.903 1206.4,-184.347 1207.72,-191.222"/>
</g>
<!-- Node21 -->
<g id="node21" class="node"><title>Node21</title>
<g id="a_node21"><a xlink:href="dji__gimbal_8hpp.html" target="_top" xlink:title="Gimbal API for OSDK library. ">
<polygon fill="white" stroke="black" points="1445.5,-168.5 1445.5,-187.5 1524.5,-187.5 1524.5,-168.5 1445.5,-168.5"/>
<text text-anchor="middle" x="1485" y="-175.5" font-family="Helvetica,sans-Serif" font-size="10.00">dji_gimbal.hpp</text>
</a>
</g>
</g>
<!-- Node9&#45;&gt;Node21 -->
<g id="edge35" class="edge"><title>Node9&#45;&gt;Node21</title>
<path fill="none" stroke="midnightblue" d="M924.765,-344.407C1091.55,-341.785 1714.52,-330.009 1743,-300 1776.23,-264.984 1608.87,-213.038 1527.43,-190.323"/>
<polygon fill="midnightblue" stroke="midnightblue" points="1528.04,-186.862 1517.47,-187.572 1526.18,-193.609 1528.04,-186.862"/>
</g>
<!-- Node22 -->
<g id="node22" class="node"><title>Node22</title>
<polygon fill="white" stroke="#bfbfbf" points="1256,-280.5 1256,-299.5 1354,-299.5 1354,-280.5 1256,-280.5"/>
<text text-anchor="middle" x="1305" y="-287.5" font-family="Helvetica,sans-Serif" font-size="10.00">dji_hard_driver.hpp</text>
</g>
<!-- Node9&#45;&gt;Node22 -->
<g id="edge38" class="edge"><title>Node9&#45;&gt;Node22</title>
<path fill="none" stroke="midnightblue" d="M924.611,-340.376C990.002,-332.842 1122.93,-317.157 1245.99,-300.105"/>
<polygon fill="midnightblue" stroke="midnightblue" points="1246.55,-303.561 1255.97,-298.716 1245.58,-296.628 1246.55,-303.561"/>
</g>
<!-- Node23 -->
<g id="node23" class="node"><title>Node23</title>
<g id="a_node23"><a xlink:href="dji__hardware__sync_8hpp.html" target="_top" xlink:title="Hardware Sync API for DJI OSDK. ">
<polygon fill="white" stroke="black" points="1854,-168.5 1854,-187.5 1970,-187.5 1970,-168.5 1854,-168.5"/>
<text text-anchor="middle" x="1912" y="-175.5" font-family="Helvetica,sans-Serif" font-size="10.00">dji_hardware_sync.hpp</text>
</a>
</g>
</g>
<!-- Node9&#45;&gt;Node23 -->
<g id="edge39" class="edge"><title>Node9&#45;&gt;Node23</title>
<path fill="none" stroke="midnightblue" d="M924.64,-344.257C1103.39,-340.841 1812.62,-325.711 1852,-300 1887.72,-276.677 1902.97,-225.391 1908.81,-197.668"/>
<polygon fill="midnightblue" stroke="midnightblue" points="1912.28,-198.164 1910.71,-187.685 1905.4,-196.852 1912.28,-198.164"/>
</g>
<!-- Node26 -->
<g id="node26" class="node"><title>Node26</title>
<g id="a_node26"><a xlink:href="dji__mfio_8hpp.html" target="_top" xlink:title="MFIO API for DJI OSDK library. ">
<polygon fill="white" stroke="black" points="458.5,-224.5 458.5,-243.5 527.5,-243.5 527.5,-224.5 458.5,-224.5"/>
<text text-anchor="middle" x="493" y="-231.5" font-family="Helvetica,sans-Serif" font-size="10.00">dji_mfio.hpp</text>
</a>
</g>
</g>
<!-- Node9&#45;&gt;Node26 -->
<g id="edge44" class="edge"><title>Node9&#45;&gt;Node26</title>
<path fill="none" stroke="midnightblue" d="M843.485,-341.643C791.582,-336.52 699.328,-324.628 624,-300 584.199,-286.988 541.309,-263.763 515.829,-248.885"/>
<polygon fill="midnightblue" stroke="midnightblue" points="517.347,-245.716 506.959,-243.63 513.779,-251.739 517.347,-245.716"/>
</g>
<!-- Node27 -->
<g id="node27" class="node"><title>Node27</title>
<g id="a_node27"><a xlink:href="dji__mission__manager_8hpp.html" target="_top" xlink:title="Mission&#45;Manager API for DJI OSDK library. ">
<polygon fill="white" stroke="black" points="980.5,-280.5 980.5,-299.5 1107.5,-299.5 1107.5,-280.5 980.5,-280.5"/>
<text text-anchor="middle" x="1044" y="-287.5" font-family="Helvetica,sans-Serif" font-size="10.00">dji_mission_manager.hpp</text>
</a>
</g>
</g>
<!-- Node9&#45;&gt;Node27 -->
<g id="edge46" class="edge"><title>Node9&#45;&gt;Node27</title>
<path fill="none" stroke="midnightblue" d="M909.352,-336.444C936.269,-327.359 978.996,-312.939 1009.09,-302.783"/>
<polygon fill="midnightblue" stroke="midnightblue" points="1010.41,-306.031 1018.77,-299.516 1008.17,-299.398 1010.41,-306.031"/>
</g>
<!-- Node32 -->
<g id="node32" class="node"><title>Node32</title>
<g id="a_node32"><a xlink:href="dji__mobile__communication_8hpp.html" target="_top" xlink:title="Implementation of DJI Mobile&#45;Onboard SDK Communication (MOC) ">
<polygon fill="white" stroke="black" points="103,-280.5 103,-299.5 253,-299.5 253,-280.5 103,-280.5"/>
<text text-anchor="middle" x="178" y="-287.5" font-family="Helvetica,sans-Serif" font-size="10.00">dji_mobile_communication.hpp</text>
</a>
</g>
</g>
<!-- Node9&#45;&gt;Node32 -->
<g id="edge56" class="edge"><title>Node9&#45;&gt;Node32</title>
<path fill="none" stroke="midnightblue" d="M843.249,-341.883C731.156,-333.309 416.418,-309.236 263.514,-297.541"/>
<polygon fill="midnightblue" stroke="midnightblue" points="263.473,-294.027 253.235,-296.755 262.939,-301.007 263.473,-294.027"/>
</g>
<!-- Node34 -->
<g id="node34" class="node"><title>Node34</title>
<g id="a_node34"><a xlink:href="dji__mobile__device_8hpp.html" target="_top" xlink:title="Implementation of DJI Mobile Device Abstraction. ">
<polygon fill="white" stroke="black" points="327.5,-224.5 327.5,-243.5 440.5,-243.5 440.5,-224.5 327.5,-224.5"/>
<text text-anchor="middle" x="384" y="-231.5" font-family="Helvetica,sans-Serif" font-size="10.00">dji_mobile_device.hpp</text>
</a>
</g>
</g>
<!-- Node9&#45;&gt;Node34 -->
<g id="edge59" class="edge"><title>Node9&#45;&gt;Node34</title>
<path fill="none" stroke="midnightblue" d="M843.144,-341.599C783.088,-336.04 667.731,-323.23 572,-300 514.942,-286.154 450.752,-262.03 414.069,-247.387"/>
<polygon fill="midnightblue" stroke="midnightblue" points="415.064,-244.014 404.48,-243.524 412.448,-250.507 415.064,-244.014"/>
</g>
<!-- Node35 -->
<g id="node35" class="node"><title>Node35</title>
<polygon fill="white" stroke="#bfbfbf" points="1372,-280.5 1372,-299.5 1500,-299.5 1500,-280.5 1372,-280.5"/>
<text text-anchor="middle" x="1436" y="-287.5" font-family="Helvetica,sans-Serif" font-size="10.00">dji_platform_manager.hpp</text>
</g>
<!-- Node9&#45;&gt;Node35 -->
<g id="edge62" class="edge"><title>Node9&#45;&gt;Node35</title>
<path fill="none" stroke="midnightblue" d="M924.73,-341.575C1005.8,-334.67 1193.35,-318.264 1361.87,-300.095"/>
<polygon fill="midnightblue" stroke="midnightblue" points="1362.35,-303.563 1371.92,-299.007 1361.6,-296.604 1362.35,-303.563"/>
</g>
<!-- Node36 -->
<g id="node36" class="node"><title>Node36</title>
<g id="a_node36"><a xlink:href="dji__status_8hpp.html" target="_top" xlink:title="Status information for DJI Vehicle. ">
<polygon fill="white" stroke="black" points="1518.5,-280.5 1518.5,-299.5 1595.5,-299.5 1595.5,-280.5 1518.5,-280.5"/>
<text text-anchor="middle" x="1557" y="-287.5" font-family="Helvetica,sans-Serif" font-size="10.00">dji_status.hpp</text>
</a>
</g>
</g>
<!-- Node9&#45;&gt;Node36 -->
<g id="edge63" class="edge"><title>Node9&#45;&gt;Node36</title>
<path fill="none" stroke="midnightblue" d="M924.742,-343.668C1023.2,-340.106 1281.99,-328.7 1508.22,-299.943"/>
<polygon fill="midnightblue" stroke="midnightblue" points="1508.82,-303.395 1518.29,-298.649 1507.92,-296.452 1508.82,-303.395"/>
</g>
<!-- Node37 -->
<g id="node37" class="node"><title>Node37</title>
<polygon fill="white" stroke="#bfbfbf" points="1614,-280.5 1614,-299.5 1734,-299.5 1734,-280.5 1614,-280.5"/>
<text text-anchor="middle" x="1674" y="-287.5" font-family="Helvetica,sans-Serif" font-size="10.00">dji_thread_manager.hpp</text>
</g>
<!-- Node9&#45;&gt;Node37 -->
<g id="edge65" class="edge"><title>Node9&#45;&gt;Node37</title>
<path fill="none" stroke="midnightblue" d="M924.671,-343.392C1033.06,-338.908 1338.04,-324.989 1603.48,-299.978"/>
<polygon fill="midnightblue" stroke="midnightblue" points="1604.07,-303.437 1613.7,-299.007 1603.41,-296.468 1604.07,-303.437"/>
</g>
<!-- Node38 -->
<g id="node38" class="node"><title>Node38</title>
<g id="a_node38"><a xlink:href="dji__virtual__rc_8hpp.html" target="_top" xlink:title="Virtual Radio Control API for DJI onboardSDK library. ">
<polygon fill="white" stroke="black" points="698,-280.5 698,-299.5 788,-299.5 788,-280.5 698,-280.5"/>
<text text-anchor="middle" x="743" y="-287.5" font-family="Helvetica,sans-Serif" font-size="10.00">dji_virtual_rc.hpp</text>
</a>
</g>
</g>
<!-- Node9&#45;&gt;Node38 -->
<g id="edge69" class="edge"><title>Node9&#45;&gt;Node38</title>
<path fill="none" stroke="midnightblue" d="M861.658,-336.444C838.247,-327.478 801.264,-313.314 774.81,-303.183"/>
<polygon fill="midnightblue" stroke="midnightblue" points="775.828,-299.824 765.237,-299.516 773.324,-306.361 775.828,-299.824"/>
</g>
<!-- Node11&#45;&gt;Node4 -->
<g id="edge12" class="edge"><title>Node11&#45;&gt;Node4</title>
<path fill="none" stroke="midnightblue" d="M610.222,-224.444C628.896,-215.675 658.156,-201.935 679.617,-191.858"/>
<polygon fill="midnightblue" stroke="midnightblue" points="681.299,-194.935 688.863,-187.516 678.324,-188.599 681.299,-194.935"/>
</g>
<!-- Node11&#45;&gt;Node8 -->
<g id="edge13" class="edge"><title>Node11&#45;&gt;Node8</title>
<path fill="none" stroke="midnightblue" d="M584.232,-224.368C567.677,-205.974 528.704,-162.671 507.447,-139.052"/>
<polygon fill="midnightblue" stroke="midnightblue" points="510.023,-136.683 500.732,-131.591 504.82,-141.366 510.023,-136.683"/>
</g>
<!-- Node12&#45;&gt;Node5 -->
<g id="edge19" class="edge"><title>Node12&#45;&gt;Node5</title>
<path fill="none" stroke="midnightblue" d="M1542.28,-169.437C1539.15,-168.93 1536.02,-168.445 1533,-168 1411.31,-150.11 1266.98,-134.668 1195.58,-127.413"/>
<polygon fill="midnightblue" stroke="midnightblue" points="1195.89,-123.926 1185.59,-126.402 1195.19,-130.891 1195.89,-123.926"/>
</g>
<!-- Node12&#45;&gt;Node13 -->
<g id="edge15" class="edge"><title>Node12&#45;&gt;Node13</title>
<path fill="none" stroke="midnightblue" d="M1550.41,-168.444C1513.81,-159.122 1455.16,-144.183 1415.17,-133.997"/>
<polygon fill="midnightblue" stroke="midnightblue" points="1415.99,-130.593 1405.43,-131.516 1414.26,-137.377 1415.99,-130.593"/>
</g>
<!-- Node13&#45;&gt;Node7 -->
<g id="edge18" class="edge"><title>Node13&#45;&gt;Node7</title>
<path fill="none" stroke="midnightblue" d="M1360.66,-112.179C1350.69,-103.859 1336.5,-90.5244 1328,-76 1319.56,-61.5704 1314.63,-43.1178 1311.92,-29.5626"/>
<polygon fill="midnightblue" stroke="midnightblue" points="1315.33,-28.7564 1310.14,-19.5238 1308.44,-29.9822 1315.33,-28.7564"/>
</g>
<!-- Node14 -->
<g id="node14" class="node"><title>Node14</title>
<g id="a_node14"><a xlink:href="dji__error_8hpp.html" target="_top" xlink:title="All DJI OSDK OpenProtocol ACK Error Codes. ">
<polygon fill="white" stroke="black" points="1337,-56.5 1337,-75.5 1407,-75.5 1407,-56.5 1337,-56.5"/>
<text text-anchor="middle" x="1372" y="-63.5" font-family="Helvetica,sans-Serif" font-size="10.00">dji_error.hpp</text>
</a>
</g>
</g>
<!-- Node13&#45;&gt;Node14 -->
<g id="edge16" class="edge"><title>Node13&#45;&gt;Node14</title>
<path fill="none" stroke="midnightblue" d="M1372,-112.083C1372,-105.006 1372,-94.8611 1372,-85.9865"/>
<polygon fill="midnightblue" stroke="midnightblue" points="1375.5,-85.751 1372,-75.7511 1368.5,-85.7511 1375.5,-85.751"/>
</g>
<!-- Node14&#45;&gt;Node7 -->
<g id="edge17" class="edge"><title>Node14&#45;&gt;Node7</title>
<path fill="none" stroke="midnightblue" d="M1361.88,-56.324C1352.47,-48.2631 1338.26,-36.0765 1326.93,-26.3695"/>
<polygon fill="midnightblue" stroke="midnightblue" points="1329.18,-23.6844 1319.31,-19.8339 1324.62,-28.9993 1329.18,-23.6844"/>
</g>
<!-- Node16&#45;&gt;Node3 -->
<g id="edge32" class="edge"><title>Node16&#45;&gt;Node3</title>
<path fill="none" stroke="midnightblue" d="M881.802,-280.389C873.751,-250.818 842.845,-152.99 777,-112 741.555,-89.9347 631.177,-77.4923 558.924,-71.518"/>
<polygon fill="midnightblue" stroke="midnightblue" points="558.802,-67.997 548.554,-70.6831 558.241,-74.9744 558.802,-67.997"/>
</g>
<!-- Node16&#45;&gt;Node5 -->
<g id="edge33" class="edge"><title>Node16&#45;&gt;Node5</title>
<path fill="none" stroke="midnightblue" d="M906.873,-280.429C930.008,-271.654 966.718,-257.435 998,-244 1017.37,-235.682 1021.64,-232.325 1041,-224 1080.96,-206.821 1102.7,-220.142 1132,-188 1143.5,-175.386 1148.07,-156.173 1149.87,-141.903"/>
<polygon fill="midnightblue" stroke="midnightblue" points="1153.37,-142.016 1150.8,-131.739 1146.4,-141.379 1153.37,-142.016"/>
</g>
<!-- Node16&#45;&gt;Node8 -->
<g id="edge34" class="edge"><title>Node16&#45;&gt;Node8</title>
<path fill="none" stroke="midnightblue" d="M878.277,-280.495C862.564,-257.9 816.233,-196.18 761,-168 699.48,-136.612 620.684,-126.407 564.487,-123.422"/>
<polygon fill="midnightblue" stroke="midnightblue" points="564.419,-119.915 554.266,-122.945 564.092,-126.907 564.419,-119.915"/>
</g>
<!-- Node17 -->
<g id="node17" class="node"><title>Node17</title>
<g id="a_node17"><a xlink:href="dji__ack_8hpp.html" target="_top" xlink:title="All DJI OSDK ACK parsing. ">
<polygon fill="white" stroke="black" points="923,-224.5 923,-243.5 989,-243.5 989,-224.5 923,-224.5"/>
<text text-anchor="middle" x="956" y="-231.5" font-family="Helvetica,sans-Serif" font-size="10.00">dji_ack.hpp</text>
</a>
</g>
</g>
<!-- Node16&#45;&gt;Node17 -->
<g id="edge23" class="edge"><title>Node16&#45;&gt;Node17</title>
<path fill="none" stroke="midnightblue" d="M895.568,-280.324C906.42,-272.185 922.881,-259.839 935.883,-250.087"/>
<polygon fill="midnightblue" stroke="midnightblue" points="938.321,-252.634 944.221,-243.834 934.121,-247.034 938.321,-252.634"/>
</g>
<!-- Node17&#45;&gt;Node5 -->
<g id="edge27" class="edge"><title>Node17&#45;&gt;Node5</title>
<path fill="none" stroke="midnightblue" d="M960.295,-224.471C967.719,-210.586 984.265,-183.127 1006,-168 1036.03,-147.1 1076.12,-135.635 1106.54,-129.517"/>
<polygon fill="midnightblue" stroke="midnightblue" points="1107.28,-132.94 1116.46,-127.642 1105.98,-126.062 1107.28,-132.94"/>
</g>
<!-- Node17&#45;&gt;Node13 -->
<g id="edge24" class="edge"><title>Node17&#45;&gt;Node13</title>
<path fill="none" stroke="midnightblue" d="M989.123,-224.68C1024.53,-215.752 1082.29,-201.087 1132,-188 1202.15,-169.533 1283.62,-147.302 1331.32,-134.206"/>
<polygon fill="midnightblue" stroke="midnightblue" points="1332.25,-137.579 1340.97,-131.555 1330.4,-130.829 1332.25,-137.579"/>
</g>
<!-- Node18 -->
<g id="node18" class="node"><title>Node18</title>
<g id="a_node18"><a xlink:href="dji__mission__type_8hpp.html" target="_top" xlink:title="Mission related data struct for DJI OSDK library. ">
<polygon fill="white" stroke="black" points="1015,-168.5 1015,-187.5 1123,-187.5 1123,-168.5 1015,-168.5"/>
<text text-anchor="middle" x="1069" y="-175.5" font-family="Helvetica,sans-Serif" font-size="10.00">dji_mission_type.hpp</text>
</a>
</g>
</g>
<!-- Node17&#45;&gt;Node18 -->
<g id="edge25" class="edge"><title>Node17&#45;&gt;Node18</title>
<path fill="none" stroke="midnightblue" d="M973.905,-224.444C992.254,-215.675 1021.01,-201.935 1042.09,-191.858"/>
<polygon fill="midnightblue" stroke="midnightblue" points="1043.67,-194.986 1051.18,-187.516 1040.65,-188.67 1043.67,-194.986"/>
</g>
<!-- Node17&#45;&gt;Node19 -->
<g id="edge28" class="edge"><title>Node17&#45;&gt;Node19</title>
<path fill="none" stroke="midnightblue" d="M989.183,-227.067C1041.8,-217.659 1144.75,-199.25 1206.86,-188.145"/>
<polygon fill="midnightblue" stroke="midnightblue" points="1207.61,-191.566 1216.83,-186.361 1206.37,-184.676 1207.61,-191.566"/>
</g>
<!-- Node20 -->
<g id="node20" class="node"><title>Node20</title>
<polygon fill="white" stroke="#bfbfbf" points="923.5,-168.5 923.5,-187.5 958.5,-187.5 958.5,-168.5 923.5,-168.5"/>
<text text-anchor="middle" x="941" y="-175.5" font-family="Helvetica,sans-Serif" font-size="10.00">map</text>
</g>
<!-- Node17&#45;&gt;Node20 -->
<g id="edge31" class="edge"><title>Node17&#45;&gt;Node20</title>
<path fill="none" stroke="midnightblue" d="M953.523,-224.083C951.514,-216.849 948.614,-206.409 946.11,-197.397"/>
<polygon fill="midnightblue" stroke="midnightblue" points="949.48,-196.449 943.431,-187.751 942.735,-198.323 949.48,-196.449"/>
</g>
<!-- Node18&#45;&gt;Node5 -->
<g id="edge26" class="edge"><title>Node18&#45;&gt;Node5</title>
<path fill="none" stroke="midnightblue" d="M1082.17,-168.324C1094.85,-159.979 1114.23,-147.212 1129.21,-137.352"/>
<polygon fill="midnightblue" stroke="midnightblue" points="1131.43,-140.078 1137.86,-131.655 1127.58,-134.231 1131.43,-140.078"/>
</g>
<!-- Node19&#45;&gt;Node10 -->
<g id="edge30" class="edge"><title>Node19&#45;&gt;Node10</title>
<path fill="none" stroke="midnightblue" d="M1216.89,-172.672C1118.07,-162.271 868.751,-136.026 778.373,-126.513"/>
<polygon fill="midnightblue" stroke="midnightblue" points="778.472,-123.004 768.16,-125.438 777.739,-129.966 778.472,-123.004"/>
</g>
<!-- Node19&#45;&gt;Node13 -->
<g id="edge29" class="edge"><title>Node19&#45;&gt;Node13</title>
<path fill="none" stroke="midnightblue" d="M1276.06,-168.444C1294.57,-159.675 1323.58,-145.935 1344.86,-135.858"/>
<polygon fill="midnightblue" stroke="midnightblue" points="1346.48,-138.96 1354.02,-131.516 1343.49,-132.634 1346.48,-138.96"/>
</g>
<!-- Node21&#45;&gt;Node5 -->
<g id="edge37" class="edge"><title>Node21&#45;&gt;Node5</title>
<path fill="none" stroke="midnightblue" d="M1445.43,-169.645C1442.24,-169.079 1439.07,-168.524 1436,-168 1351.17,-153.514 1251.84,-138.204 1195.68,-129.7"/>
<polygon fill="midnightblue" stroke="midnightblue" points="1196.12,-126.227 1185.7,-128.193 1195.07,-133.148 1196.12,-126.227"/>
</g>
<!-- Node21&#45;&gt;Node13 -->
<g id="edge36" class="edge"><title>Node21&#45;&gt;Node13</title>
<path fill="none" stroke="midnightblue" d="M1467.09,-168.444C1448.75,-159.675 1419.99,-145.935 1398.91,-135.858"/>
<polygon fill="midnightblue" stroke="midnightblue" points="1400.35,-132.67 1389.82,-131.516 1397.33,-138.986 1400.35,-132.67"/>
</g>
<!-- Node23&#45;&gt;Node5 -->
<g id="edge40" class="edge"><title>Node23&#45;&gt;Node5</title>
<path fill="none" stroke="midnightblue" d="M1853.86,-172.875C1707.55,-162.493 1326.47,-135.451 1195.76,-126.176"/>
<polygon fill="midnightblue" stroke="midnightblue" points="1195.93,-122.679 1185.71,-125.463 1195.43,-129.662 1195.93,-122.679"/>
</g>
<!-- Node23&#45;&gt;Node8 -->
<g id="edge41" class="edge"><title>Node23&#45;&gt;Node8</title>
<path fill="none" stroke="midnightblue" d="M1853.98,-174.892C1680.67,-168.58 1151.67,-149.205 713,-132 663.316,-130.051 607.325,-127.76 564.263,-125.976"/>
<polygon fill="midnightblue" stroke="midnightblue" points="564.302,-122.475 554.165,-125.558 564.012,-129.469 564.302,-122.475"/>
</g>
<!-- Node24 -->
<g id="node24" class="node"><title>Node24</title>
<polygon fill="white" stroke="#bfbfbf" points="1921,-112.5 1921,-131.5 1967,-131.5 1967,-112.5 1921,-112.5"/>
<text text-anchor="middle" x="1944" y="-119.5" font-family="Helvetica,sans-Serif" font-size="10.00">chrono</text>
</g>
<!-- Node23&#45;&gt;Node24 -->
<g id="edge42" class="edge"><title>Node23&#45;&gt;Node24</title>
<path fill="none" stroke="midnightblue" d="M1917.28,-168.083C1921.71,-160.613 1928.16,-149.724 1933.62,-140.52"/>
<polygon fill="midnightblue" stroke="midnightblue" points="1936.73,-142.138 1938.81,-131.751 1930.71,-138.57 1936.73,-142.138"/>
</g>
<!-- Node25 -->
<g id="node25" class="node"><title>Node25</title>
<polygon fill="white" stroke="#bfbfbf" points="1857,-112.5 1857,-131.5 1903,-131.5 1903,-112.5 1857,-112.5"/>
<text text-anchor="middle" x="1880" y="-119.5" font-family="Helvetica,sans-Serif" font-size="10.00">atomic</text>
</g>
<!-- Node23&#45;&gt;Node25 -->
<g id="edge43" class="edge"><title>Node23&#45;&gt;Node25</title>
<path fill="none" stroke="midnightblue" d="M1906.72,-168.083C1902.29,-160.613 1895.84,-149.724 1890.38,-140.52"/>
<polygon fill="midnightblue" stroke="midnightblue" points="1893.29,-138.57 1885.19,-131.751 1887.27,-142.138 1893.29,-138.57"/>
</g>
<!-- Node26&#45;&gt;Node8 -->
<g id="edge45" class="edge"><title>Node26&#45;&gt;Node8</title>
<path fill="none" stroke="midnightblue" d="M493,-224.368C493,-206.617 493,-165.666 493,-141.597"/>
<polygon fill="midnightblue" stroke="midnightblue" points="496.5,-141.591 493,-131.591 489.5,-141.591 496.5,-141.591"/>
</g>
<!-- Node28 -->
<g id="node28" class="node"><title>Node28</title>
<g id="a_node28"><a xlink:href="dji__hotpoint_8hpp.html" target="_top" xlink:title="Implementation of HotPoint (Point of Interest) Missions for DJI OSDK. ">
<polygon fill="white" stroke="black" points="1145.5,-224.5 1145.5,-243.5 1230.5,-243.5 1230.5,-224.5 1145.5,-224.5"/>
<text text-anchor="middle" x="1188" y="-231.5" font-family="Helvetica,sans-Serif" font-size="10.00">dji_hotpoint.hpp</text>
</a>
</g>
</g>
<!-- Node27&#45;&gt;Node28 -->
<g id="edge47" class="edge"><title>Node27&#45;&gt;Node28</title>
<path fill="none" stroke="midnightblue" d="M1066.82,-280.444C1090.83,-271.438 1128.83,-257.189 1155.87,-247.049"/>
<polygon fill="midnightblue" stroke="midnightblue" points="1157.16,-250.305 1165.29,-243.516 1154.7,-243.751 1157.16,-250.305"/>
</g>
<!-- Node30 -->
<g id="node30" class="node"><title>Node30</title>
<g id="a_node30"><a xlink:href="dji__waypoint_8hpp.html" target="_top" xlink:title="Implementation of GPS Waypoint Missions for DJI OSDK. ">
<polygon fill="white" stroke="black" points="1288.5,-224.5 1288.5,-243.5 1377.5,-243.5 1377.5,-224.5 1288.5,-224.5"/>
<text text-anchor="middle" x="1333" y="-231.5" font-family="Helvetica,sans-Serif" font-size="10.00">dji_waypoint.hpp</text>
</a>
</g>
</g>
<!-- Node27&#45;&gt;Node30 -->
<g id="edge53" class="edge"><title>Node27&#45;&gt;Node30</title>
<path fill="none" stroke="midnightblue" d="M1089.79,-280.444C1141.04,-270.869 1224,-255.366 1278.53,-245.177"/>
<polygon fill="midnightblue" stroke="midnightblue" points="1279.18,-248.616 1288.37,-243.339 1277.9,-241.735 1279.18,-248.616"/>
</g>
<!-- Node31 -->
<g id="node31" class="node"><title>Node31</title>
<polygon fill="white" stroke="#bfbfbf" points="1083,-224.5 1083,-243.5 1127,-243.5 1127,-224.5 1083,-224.5"/>
<text text-anchor="middle" x="1105" y="-231.5" font-family="Helvetica,sans-Serif" font-size="10.00">vector</text>
</g>
<!-- Node27&#45;&gt;Node31 -->
<g id="edge55" class="edge"><title>Node27&#45;&gt;Node31</title>
<path fill="none" stroke="midnightblue" d="M1053.8,-280.324C1062.82,-272.341 1076.41,-260.313 1087.32,-250.653"/>
<polygon fill="midnightblue" stroke="midnightblue" points="1089.85,-253.083 1095.02,-243.834 1085.21,-247.842 1089.85,-253.083"/>
</g>
<!-- Node28&#45;&gt;Node4 -->
<g id="edge52" class="edge"><title>Node28&#45;&gt;Node4</title>
<path fill="none" stroke="midnightblue" d="M1145.47,-225.4C1142.27,-224.902 1139.09,-224.428 1136,-224 1002.45,-205.459 844.546,-190.739 762.61,-183.637"/>
<polygon fill="midnightblue" stroke="midnightblue" points="762.785,-180.139 752.521,-182.767 762.184,-187.113 762.785,-180.139"/>
</g>
<!-- Node29 -->
<g id="node29" class="node"><title>Node29</title>
<g id="a_node29"><a xlink:href="dji__mission__base_8hpp.html" target="_top" xlink:title="Mission&#45;Base abstract class for DJI OSDK library. ">
<polygon fill="white" stroke="black" points="1317,-168.5 1317,-187.5 1427,-187.5 1427,-168.5 1317,-168.5"/>
<text text-anchor="middle" x="1372" y="-175.5" font-family="Helvetica,sans-Serif" font-size="10.00">dji_mission_base.hpp</text>
</a>
</g>
</g>
<!-- Node28&#45;&gt;Node29 -->
<g id="edge48" class="edge"><title>Node28&#45;&gt;Node29</title>
<path fill="none" stroke="midnightblue" d="M1217.16,-224.444C1248.51,-215.241 1298.53,-200.562 1333.2,-190.388"/>
<polygon fill="midnightblue" stroke="midnightblue" points="1334.37,-193.691 1342.98,-187.516 1332.4,-186.974 1334.37,-193.691"/>
</g>
<!-- Node29&#45;&gt;Node5 -->
<g id="edge50" class="edge"><title>Node29&#45;&gt;Node5</title>
<path fill="none" stroke="midnightblue" d="M1336.98,-168.444C1298.75,-159.102 1237.43,-144.119 1195.74,-133.933"/>
<polygon fill="midnightblue" stroke="midnightblue" points="1196.4,-130.49 1185.85,-131.516 1194.74,-137.29 1196.4,-130.49"/>
</g>
<!-- Node29&#45;&gt;Node8 -->
<g id="edge51" class="edge"><title>Node29&#45;&gt;Node8</title>
<path fill="none" stroke="midnightblue" d="M1316.88,-168.947C1313.88,-168.603 1310.9,-168.284 1308,-168 1164.69,-153.992 735.311,-133.866 564.361,-126.163"/>
<polygon fill="midnightblue" stroke="midnightblue" points="564.36,-122.66 554.213,-125.707 564.045,-129.653 564.36,-122.66"/>
</g>
<!-- Node29&#45;&gt;Node13 -->
<g id="edge49" class="edge"><title>Node29&#45;&gt;Node13</title>
<path fill="none" stroke="midnightblue" d="M1372,-168.083C1372,-161.006 1372,-150.861 1372,-141.986"/>
<polygon fill="midnightblue" stroke="midnightblue" points="1375.5,-141.751 1372,-131.751 1368.5,-141.751 1375.5,-141.751"/>
</g>
<!-- Node30&#45;&gt;Node29 -->
<g id="edge54" class="edge"><title>Node30&#45;&gt;Node29</title>
<path fill="none" stroke="midnightblue" d="M1339.44,-224.083C1344.95,-216.455 1353.03,-205.264 1359.76,-195.941"/>
<polygon fill="midnightblue" stroke="midnightblue" points="1362.66,-197.907 1365.68,-187.751 1356.99,-193.809 1362.66,-197.907"/>
</g>
<!-- Node32&#45;&gt;Node8 -->
<g id="edge58" class="edge"><title>Node32&#45;&gt;Node8</title>
<path fill="none" stroke="midnightblue" d="M178.152,-280.212C178.862,-266.456 182.204,-239.781 197,-224 255.64,-161.457 354.547,-137.643 421.741,-128.575"/>
<polygon fill="midnightblue" stroke="midnightblue" points="422.351,-132.026 431.829,-127.292 421.468,-125.082 422.351,-132.026"/>
</g>
<!-- Node33 -->
<g id="node33" class="node"><title>Node33</title>
<polygon fill="white" stroke="#bfbfbf" points="66.5,-224.5 66.5,-243.5 149.5,-243.5 149.5,-224.5 66.5,-224.5"/>
<text text-anchor="middle" x="108" y="-231.5" font-family="Helvetica,sans-Serif" font-size="10.00">dji_macros.hpp</text>
</g>
<!-- Node32&#45;&gt;Node33 -->
<g id="edge57" class="edge"><title>Node32&#45;&gt;Node33</title>
<path fill="none" stroke="midnightblue" d="M166.753,-280.324C156.203,-272.185 140.199,-259.839 127.558,-250.087"/>
<polygon fill="midnightblue" stroke="midnightblue" points="129.507,-247.171 119.451,-243.834 125.231,-252.713 129.507,-247.171"/>
</g>
<!-- Node34&#45;&gt;Node8 -->
<g id="edge60" class="edge"><title>Node34&#45;&gt;Node8</title>
<path fill="none" stroke="midnightblue" d="M392.553,-224.368C410.86,-205.894 454.065,-162.293 477.4,-138.744"/>
<polygon fill="midnightblue" stroke="midnightblue" points="479.934,-141.158 484.487,-131.591 474.962,-136.231 479.934,-141.158"/>
</g>
<!-- Node38&#45;&gt;Node3 -->
<g id="edge71" class="edge"><title>Node38&#45;&gt;Node3</title>
<path fill="none" stroke="midnightblue" d="M735.309,-280.251C711.394,-253.323 635.587,-170.001 563,-112 548.602,-100.496 531.173,-89.283 517.307,-80.9279"/>
<polygon fill="midnightblue" stroke="midnightblue" points="518.747,-77.7131 508.359,-75.6317 515.182,-83.7371 518.747,-77.7131"/>
</g>
<!-- Node38&#45;&gt;Node4 -->
<g id="edge73" class="edge"><title>Node38&#45;&gt;Node4</title>
<path fill="none" stroke="midnightblue" d="M740.175,-280.368C734.339,-262.537 720.842,-221.295 712.98,-197.272"/>
<polygon fill="midnightblue" stroke="midnightblue" points="716.249,-196.007 709.812,-187.591 709.596,-198.184 716.249,-196.007"/>
</g>
<!-- Node38&#45;&gt;Node5 -->
<g id="edge72" class="edge"><title>Node38&#45;&gt;Node5</title>
<path fill="none" stroke="midnightblue" d="M749.555,-280.222C767.517,-256.947 820.251,-193.691 881,-168 955.836,-136.352 1051.15,-126.905 1106.2,-124.121"/>
<polygon fill="midnightblue" stroke="midnightblue" points="1106.5,-127.612 1116.33,-123.662 1106.18,-120.619 1106.5,-127.612"/>
</g>
<!-- Node38&#45;&gt;Node17 -->
<g id="edge70" class="edge"><title>Node38&#45;&gt;Node17</title>
<path fill="none" stroke="midnightblue" d="M776.75,-280.444C813.626,-271.095 872.793,-256.095 912.976,-245.907"/>
<polygon fill="midnightblue" stroke="midnightblue" points="913.925,-249.278 922.758,-243.428 912.205,-242.492 913.925,-249.278"/>
</g>
</g>
</svg>
        <g id="navigator" transform="translate(0 0)" fill="#404254">
                <rect fill="#f2f5e9" fill-opacity="0.5" stroke="#606060" stroke-width=".5" x="0" y="0" width="60" height="60"/>
                <use id="zoomplus" xlink:href="#zoomPlus" x="17" y="9" onmousedown="handleZoom(evt,'in')"/>
                <use id="zoomminus" xlink:href="#zoomMin" x="42" y="9" onmousedown="handleZoom(evt,'out')"/>
                <use id="reset" xlink:href="#resetDef" x="30" y="36" onmousedown="handleReset()"/>
                <g id="arrowUp" xlink:href="#dirArrow" transform="translate(30 24)" onmousedown="handlePan(0,-1)">
                  <use xlink:href="#rim" fill="#404040">
                        <set attributeName="fill" to="#808080" begin="arrowUp.mouseover" end="arrowUp.mouseout"/>
                  </use>
                  <path fill="none" stroke="white" stroke-width="1.5" d="M0,-3.0v7 M-2.5,-0.5L0,-3.0L2.5,-0.5"/>
                </g>
                <g id="arrowRight" xlink:href="#dirArrow" transform="rotate(90) translate(36 -43)" onmousedown="handlePan(1,0)">
                  <use xlink:href="#rim" fill="#404040">
                        <set attributeName="fill" to="#808080" begin="arrowRight.mouseover" end="arrowRight.mouseout"/>
                  </use>
                  <path fill="none" stroke="white" stroke-width="1.5" d="M0,-3.0v7 M-2.5,-0.5L0,-3.0L2.5,-0.5"/>
                </g>
                <g id="arrowDown" xlink:href="#dirArrow" transform="rotate(180) translate(-30 -48)" onmousedown="handlePan(0,1)">
                  <use xlink:href="#rim" fill="#404040">
                        <set attributeName="fill" to="#808080" begin="arrowDown.mouseover" end="arrowDown.mouseout"/>
                  </use>
                  <path fill="none" stroke="white" stroke-width="1.5" d="M0,-3.0v7 M-2.5,-0.5L0,-3.0L2.5,-0.5"/>
                </g>
                <g id="arrowLeft" xlink:href="#dirArrow" transform="rotate(270) translate(-36 17)" onmousedown="handlePan(-1,0)">
                  <use xlink:href="#rim" fill="#404040">
                        <set attributeName="fill" to="#808080" begin="arrowLeft.mouseover" end="arrowLeft.mouseout"/>
                  </use>
                  <path fill="none" stroke="white" stroke-width="1.5" d="M0,-3.0v7 M-2.5,-0.5L0,-3.0L2.5,-0.5"/>
                </g>
        </g>
        <svg viewBox="0 0 15 15" width="100%" height="30px" preserveAspectRatio="xMaxYMin meet">
         <g id="arrow_out" transform="scale(0.3 0.3)">
          <a xlink:href="dji__subscription_8cpp__incl_org.svg" target="_base">
           <rect id="button" ry="5" rx="5" y="6" x="6" height="38" width="38"
                fill="#f2f5e9" fill-opacity="0.5" stroke="#606060" stroke-width="1.0"/>
           <path id="arrow"
             d="M 11.500037,31.436501 C 11.940474,20.09759 22.043105,11.32322 32.158766,21.979434 L 37.068811,17.246167 C 37.068811,17.246167 37.088388,32 37.088388,32 L 22.160133,31.978069 C 22.160133,31.978069 26.997745,27.140456 26.997745,27.140456 C 18.528582,18.264221 13.291696,25.230495 11.500037,31.436501 z"
             style="fill:#404040;"/>
          </a>
         </g>
        </svg>
</svg>
