<?xml version="1.0" encoding="UTF-8" standalone="no"?>
<!DOCTYPE svg PUBLIC "-//W3C//DTD SVG 1.1//EN"
 "http://www.w3.org/Graphics/SVG/1.1/DTD/svg11.dtd">
<!-- Generated by graphviz version 2.40.1 (20161225.0304)
 -->
<!-- Title: osdk&#45;lib/x86/advanced&#45;sensing&#45;2.0.3/inc/dji_advanced_sensing.hpp Pages: 1 -->
<svg width="1297pt" height="509pt"
 viewBox="0.00 0.00 1297.00 509.00" xmlns="http://www.w3.org/2000/svg" xmlns:xlink="http://www.w3.org/1999/xlink">
<g id="graph0" class="graph" transform="scale(1 1) rotate(0) translate(4 505)">
<title>osdk&#45;lib/x86/advanced&#45;sensing&#45;2.0.3/inc/dji_advanced_sensing.hpp</title>
<polygon fill="#ffffff" stroke="transparent" points="-4,4 -4,-505 1293,-505 1293,4 -4,4"/>
<!-- Node0 -->
<g id="node1" class="node">
<title>Node0</title>
<g id="a_node1"><a xlink:title=" ">
<polygon fill="#bfbfbf" stroke="#000000" points="303,-459.5 303,-500.5 425,-500.5 425,-459.5 303,-459.5"/>
<text text-anchor="start" x="311" y="-488.5" font-family="Helvetica,sans-Serif" font-size="10.00" fill="#000000">osdk&#45;lib/x86/advanced</text>
<text text-anchor="start" x="311" y="-477.5" font-family="Helvetica,sans-Serif" font-size="10.00" fill="#000000">&#45;sensing&#45;2.0.3/inc/dji</text>
<text text-anchor="middle" x="364" y="-466.5" font-family="Helvetica,sans-Serif" font-size="10.00" fill="#000000">_advanced_sensing.hpp</text>
</a>
</g>
</g>
<!-- Node1 -->
<g id="node2" class="node">
<title>Node1</title>
<g id="a_node2"><a xlink:href="dji__type_8hpp.html" target="_top" xlink:title="Data type and Data Structure definitions for use throughout DJI OSDK.">
<polygon fill="#ffffff" stroke="#000000" points="725.5,-168.5 725.5,-187.5 794.5,-187.5 794.5,-168.5 725.5,-168.5"/>
<text text-anchor="middle" x="760" y="-175.5" font-family="Helvetica,sans-Serif" font-size="10.00" fill="#000000">dji_type.hpp</text>
</a>
</g>
</g>
<!-- Node0&#45;&gt;Node1 -->
<g id="edge1" class="edge">
<title>Node0&#45;&gt;Node1</title>
<path fill="none" stroke="#191970" d="M425.2583,-479.0248C612.1011,-474.4424 1166.3369,-448.3567 1237,-300 1240.8224,-291.9749 1242.5897,-286.9114 1237,-280 1223.2366,-262.9824 920.5549,-206.9182 804.6256,-185.9805"/>
<polygon fill="#191970" stroke="#191970" points="805.1147,-182.5123 794.6524,-184.1827 803.8729,-189.4013 805.1147,-182.5123"/>
</g>
<!-- Node4 -->
<g id="node5" class="node">
<title>Node4</title>
<g id="a_node5"><a xlink:title=" ">
<polygon fill="#ffffff" stroke="#bfbfbf" points="379,-280.5 379,-299.5 425,-299.5 425,-280.5 379,-280.5"/>
<text text-anchor="middle" x="402" y="-287.5" font-family="Helvetica,sans-Serif" font-size="10.00" fill="#000000">cstring</text>
</a>
</g>
</g>
<!-- Node0&#45;&gt;Node4 -->
<g id="edge4" class="edge">
<title>Node0&#45;&gt;Node4</title>
<path fill="none" stroke="#191970" d="M369.3648,-459.4921C372.1114,-448.6748 375.4123,-435.1594 378,-423 386.5088,-383.0181 394.5517,-335.8576 398.8221,-309.8064"/>
<polygon fill="#191970" stroke="#191970" points="402.3119,-310.1511 400.4594,-299.7195 395.4023,-309.0295 402.3119,-310.1511"/>
</g>
<!-- Node5 -->
<g id="node6" class="node">
<title>Node5</title>
<g id="a_node6"><a xlink:href="dji__advanced__sensing__protocol_8hpp.html" target="_top" xlink:title=" ">
<polygon fill="#ffffff" stroke="#000000" points="726.5,-392.5 726.5,-422.5 839.5,-422.5 839.5,-392.5 726.5,-392.5"/>
<text text-anchor="start" x="734.5" y="-410.5" font-family="Helvetica,sans-Serif" font-size="10.00" fill="#000000">dji_advanced_sensing</text>
<text text-anchor="middle" x="783" y="-399.5" font-family="Helvetica,sans-Serif" font-size="10.00" fill="#000000">_protocol.hpp</text>
</a>
</g>
</g>
<!-- Node0&#45;&gt;Node5 -->
<g id="edge5" class="edge">
<title>Node0&#45;&gt;Node5</title>
<path fill="none" stroke="#191970" d="M425.3749,-469.3802C503.0862,-455.9338 636.4692,-432.8544 716.5279,-419.0017"/>
<polygon fill="#191970" stroke="#191970" points="717.2422,-422.4302 726.499,-417.2764 716.0487,-415.5327 717.2422,-422.4302"/>
</g>
<!-- Node25 -->
<g id="node26" class="node">
<title>Node25</title>
<g id="a_node26"><a xlink:href="dji__version_8hpp.html" target="_top" xlink:title="Drone/SDK Version definition for DJI onboardSDK library.">
<polygon fill="#ffffff" stroke="#000000" points="344,-224.5 344,-243.5 426,-243.5 426,-224.5 344,-224.5"/>
<text text-anchor="middle" x="385" y="-231.5" font-family="Helvetica,sans-Serif" font-size="10.00" fill="#000000">dji_version.hpp</text>
</a>
</g>
</g>
<!-- Node0&#45;&gt;Node25 -->
<g id="edge58" class="edge">
<title>Node0&#45;&gt;Node25</title>
<path fill="none" stroke="#191970" d="M362.7007,-459.3636C360.8274,-422.8672 358.724,-344.679 370,-280 371.5648,-271.024 374.4965,-261.3962 377.3558,-253.2803"/>
<polygon fill="#191970" stroke="#191970" points="380.7274,-254.2566 380.9519,-243.6641 374.1709,-251.8046 380.7274,-254.2566"/>
</g>
<!-- Node34 -->
<g id="node35" class="node">
<title>Node34</title>
<g id="a_node35"><a xlink:href="dji__liveview_8hpp.html" target="_top" xlink:title="Camera liveview API of OSDK.">
<polygon fill="#ffffff" stroke="#000000" points="250,-336.5 250,-355.5 336,-355.5 336,-336.5 250,-336.5"/>
<text text-anchor="middle" x="293" y="-343.5" font-family="Helvetica,sans-Serif" font-size="10.00" fill="#000000">dji_liveview.hpp</text>
</a>
</g>
</g>
<!-- Node0&#45;&gt;Node34 -->
<g id="edge59" class="edge">
<title>Node0&#45;&gt;Node34</title>
<path fill="none" stroke="#191970" d="M353.0618,-459.3562C339.3866,-433.5465 316.1733,-389.7356 302.9682,-364.8132"/>
<polygon fill="#191970" stroke="#191970" points="305.9058,-362.8817 298.1311,-355.6841 299.7204,-366.1591 305.9058,-362.8817"/>
</g>
<!-- Node36 -->
<g id="node37" class="node">
<title>Node36</title>
<g id="a_node37"><a xlink:href="dji__perception_8hpp.html" target="_top" xlink:title="Camera dji perception API of OSDK.">
<polygon fill="#ffffff" stroke="#000000" points="136.5,-336.5 136.5,-355.5 231.5,-355.5 231.5,-336.5 136.5,-336.5"/>
<text text-anchor="middle" x="184" y="-343.5" font-family="Helvetica,sans-Serif" font-size="10.00" fill="#000000">dji_perception.hpp</text>
</a>
</g>
</g>
<!-- Node0&#45;&gt;Node36 -->
<g id="edge64" class="edge">
<title>Node0&#45;&gt;Node36</title>
<path fill="none" stroke="#191970" d="M336.2695,-459.3562C300.213,-432.5141 238.0026,-386.2019 205.3791,-361.9156"/>
<polygon fill="#191970" stroke="#191970" points="207.1199,-358.8481 197.0085,-355.6841 202.9398,-364.4631 207.1199,-358.8481"/>
</g>
<!-- Node37 -->
<g id="node38" class="node">
<title>Node37</title>
<g id="a_node38"><a xlink:href="dji__camera__stream_8hpp.html" target="_top" xlink:title="The high level APIs to interact with the camera.">
<polygon fill="#ffffff" stroke="#000000" points="0,-336.5 0,-355.5 118,-355.5 118,-336.5 0,-336.5"/>
<text text-anchor="middle" x="59" y="-343.5" font-family="Helvetica,sans-Serif" font-size="10.00" fill="#000000">dji_camera_stream.hpp</text>
</a>
</g>
</g>
<!-- Node0&#45;&gt;Node37 -->
<g id="edge67" class="edge">
<title>Node0&#45;&gt;Node37</title>
<path fill="none" stroke="#191970" d="M317.0122,-459.3562C253.9314,-431.642 143.6081,-383.1721 89.9998,-359.6196"/>
<polygon fill="#191970" stroke="#191970" points="91.2374,-356.3404 80.6741,-355.5224 88.4217,-362.7492 91.2374,-356.3404"/>
</g>
<!-- Node2 -->
<g id="node3" class="node">
<title>Node2</title>
<g id="a_node3"><a xlink:title=" ">
<polygon fill="#ffffff" stroke="#bfbfbf" points="713.5,-112.5 713.5,-131.5 756.5,-131.5 756.5,-112.5 713.5,-112.5"/>
<text text-anchor="middle" x="735" y="-119.5" font-family="Helvetica,sans-Serif" font-size="10.00" fill="#000000">cstdio</text>
</a>
</g>
</g>
<!-- Node1&#45;&gt;Node2 -->
<g id="edge2" class="edge">
<title>Node1&#45;&gt;Node2</title>
<path fill="none" stroke="#191970" d="M755.6453,-168.2455C752.2756,-160.6973 747.507,-150.0158 743.4017,-140.8197"/>
<polygon fill="#191970" stroke="#191970" points="746.5773,-139.3473 739.3048,-131.6427 740.1853,-142.2009 746.5773,-139.3473"/>
</g>
<!-- Node3 -->
<g id="node4" class="node">
<title>Node3</title>
<g id="a_node4"><a xlink:title=" ">
<polygon fill="#ffffff" stroke="#bfbfbf" points="760.5,-.5 760.5,-19.5 809.5,-19.5 809.5,-.5 760.5,-.5"/>
<text text-anchor="middle" x="785" y="-7.5" font-family="Helvetica,sans-Serif" font-size="10.00" fill="#000000">stdint.h</text>
</a>
</g>
</g>
<!-- Node1&#45;&gt;Node3 -->
<g id="edge3" class="edge">
<title>Node1&#45;&gt;Node3</title>
<path fill="none" stroke="#191970" d="M761.4157,-168.4862C765.3677,-141.9293 776.5826,-66.5651 781.9992,-30.1655"/>
<polygon fill="#191970" stroke="#191970" points="785.5274,-30.2342 783.5375,-19.8279 778.6037,-29.2038 785.5274,-30.2342"/>
</g>
<!-- Node5&#45;&gt;Node4 -->
<g id="edge57" class="edge">
<title>Node5&#45;&gt;Node4</title>
<path fill="none" stroke="#191970" d="M726.3376,-398.3979C678.3971,-389.9018 608.2417,-375.5873 549,-356 505.8073,-341.7191 458.1729,-318.9497 429.1683,-304.2385"/>
<polygon fill="#191970" stroke="#191970" points="430.5754,-301.0269 420.0795,-299.5823 427.3837,-307.2569 430.5754,-301.0269"/>
</g>
<!-- Node6 -->
<g id="node7" class="node">
<title>Node6</title>
<g id="a_node7"><a xlink:href="dji__hard__driver_8hpp.html" target="_top" xlink:title="Serial device driver abstraction. Provided as an abstract class. Please inherit and implement for ind...">
<polygon fill="#ffffff" stroke="#000000" points="802,-280.5 802,-299.5 900,-299.5 900,-280.5 802,-280.5"/>
<text text-anchor="middle" x="851" y="-287.5" font-family="Helvetica,sans-Serif" font-size="10.00" fill="#000000">dji_hard_driver.hpp</text>
</a>
</g>
</g>
<!-- Node5&#45;&gt;Node6 -->
<g id="edge6" class="edge">
<title>Node5&#45;&gt;Node6</title>
<path fill="none" stroke="#191970" d="M791.8898,-392.1389C804.364,-370.5843 827.0267,-331.4245 840.3744,-308.3604"/>
<polygon fill="#191970" stroke="#191970" points="843.488,-309.9677 845.4677,-299.5595 837.4295,-306.4615 843.488,-309.9677"/>
</g>
<!-- Node17 -->
<g id="node18" class="node">
<title>Node17</title>
<g id="a_node18"><a xlink:href="dji__thread__manager_8hpp.html" target="_top" xlink:title="Data protection and thread management abstract classes.">
<polygon fill="#ffffff" stroke="#000000" points="1032,-280.5 1032,-299.5 1152,-299.5 1152,-280.5 1032,-280.5"/>
<text text-anchor="middle" x="1092" y="-287.5" font-family="Helvetica,sans-Serif" font-size="10.00" fill="#000000">dji_thread_manager.hpp</text>
</a>
</g>
</g>
<!-- Node5&#45;&gt;Node17 -->
<g id="edge22" class="edge">
<title>Node5&#45;&gt;Node17</title>
<path fill="none" stroke="#191970" d="M839.6458,-395.6059C877.555,-386.7726 928.1596,-373.2782 971,-356 1006.4601,-341.6984 1044.7946,-319.5369 1068.6001,-304.8993"/>
<polygon fill="#191970" stroke="#191970" points="1070.6299,-307.7586 1077.2715,-299.5039 1066.9318,-301.8152 1070.6299,-307.7586"/>
</g>
<!-- Node18 -->
<g id="node19" class="node">
<title>Node18</title>
<g id="a_node19"><a xlink:href="dji__protocol__base_8hpp.html" target="_top" xlink:title="Abstract protocol implementation for DJI OSDK.">
<polygon fill="#ffffff" stroke="#000000" points="850.5,-336.5 850.5,-355.5 961.5,-355.5 961.5,-336.5 850.5,-336.5"/>
<text text-anchor="middle" x="906" y="-343.5" font-family="Helvetica,sans-Serif" font-size="10.00" fill="#000000">dji_protocol_base.hpp</text>
</a>
</g>
</g>
<!-- Node5&#45;&gt;Node18 -->
<g id="edge23" class="edge">
<title>Node5&#45;&gt;Node18</title>
<path fill="none" stroke="#191970" d="M813.0892,-392.4554C832.8019,-382.599 858.4002,-369.7999 877.7347,-360.1327"/>
<polygon fill="#191970" stroke="#191970" points="879.5603,-363.133 886.9394,-355.5303 876.4298,-356.872 879.5603,-363.133"/>
</g>
<!-- Node19 -->
<g id="node20" class="node">
<title>Node19</title>
<g id="a_node20"><a xlink:href="dji__ack_8hpp.html" target="_top" xlink:title="All DJI OSDK ACK parsing.">
<polygon fill="#ffffff" stroke="#000000" points="718,-280.5 718,-299.5 784,-299.5 784,-280.5 718,-280.5"/>
<text text-anchor="middle" x="751" y="-287.5" font-family="Helvetica,sans-Serif" font-size="10.00" fill="#000000">dji_ack.hpp</text>
</a>
</g>
</g>
<!-- Node5&#45;&gt;Node19 -->
<g id="edge53" class="edge">
<title>Node5&#45;&gt;Node19</title>
<path fill="none" stroke="#191970" d="M778.8166,-392.1389C773.025,-370.873 762.5664,-332.4702 756.255,-309.2956"/>
<polygon fill="#191970" stroke="#191970" points="759.6082,-308.2883 753.6034,-299.5595 752.8542,-310.1278 759.6082,-308.2883"/>
</g>
<!-- Node27 -->
<g id="node28" class="node">
<title>Node27</title>
<g id="a_node28"><a xlink:href="linux__usb__device_8hpp.html" target="_top" xlink:title=" ">
<polygon fill="#ffffff" stroke="#000000" points="558,-336.5 558,-355.5 668,-355.5 668,-336.5 558,-336.5"/>
<text text-anchor="middle" x="613" y="-343.5" font-family="Helvetica,sans-Serif" font-size="10.00" fill="#000000">linux_usb_device.hpp</text>
</a>
</g>
</g>
<!-- Node5&#45;&gt;Node27 -->
<g id="edge46" class="edge">
<title>Node5&#45;&gt;Node27</title>
<path fill="none" stroke="#191970" d="M741.4133,-392.4554C713.0484,-382.194 675.8667,-368.7429 648.8164,-358.9571"/>
<polygon fill="#191970" stroke="#191970" points="649.9382,-355.641 639.344,-355.5303 647.5569,-362.2235 649.9382,-355.641"/>
</g>
<!-- Node32 -->
<g id="node33" class="node">
<title>Node32</title>
<g id="a_node33"><a xlink:href="posix__thread__manager_8hpp.html" target="_top" xlink:title="Thread safety and data protection for DJI Onboard SDK on linux platforms.">
<polygon fill="#ffffff" stroke="#000000" points="1025,-336.5 1025,-355.5 1159,-355.5 1159,-336.5 1025,-336.5"/>
<text text-anchor="middle" x="1092" y="-343.5" font-family="Helvetica,sans-Serif" font-size="10.00" fill="#000000">posix_thread_manager.hpp</text>
</a>
</g>
</g>
<!-- Node5&#45;&gt;Node32 -->
<g id="edge54" class="edge">
<title>Node5&#45;&gt;Node32</title>
<path fill="none" stroke="#191970" d="M839.6754,-396.22C894.7864,-385.2512 978.1083,-368.6678 1033.7494,-357.5936"/>
<polygon fill="#191970" stroke="#191970" points="1034.6792,-360.9772 1043.8036,-355.5925 1033.3127,-354.1119 1034.6792,-360.9772"/>
</g>
<!-- Node6&#45;&gt;Node1 -->
<g id="edge19" class="edge">
<title>Node6&#45;&gt;Node1</title>
<path fill="none" stroke="#191970" d="M804.4591,-280.4351C784.426,-273.7628 762.9075,-262.5844 751,-244 742.1506,-230.1885 745.8707,-211.4202 750.9482,-197.4281"/>
<polygon fill="#191970" stroke="#191970" points="754.3334,-198.3996 754.9098,-187.8205 747.8619,-195.7312 754.3334,-198.3996"/>
</g>
<!-- Node7 -->
<g id="node8" class="node">
<title>Node7</title>
<g id="a_node8"><a xlink:href="dji__log_8hpp.html" target="_top" xlink:title="Logging mechanism for printing status and error messages to the screen.">
<polygon fill="#ffffff" stroke="#000000" points="1114.5,-224.5 1114.5,-243.5 1177.5,-243.5 1177.5,-224.5 1114.5,-224.5"/>
<text text-anchor="middle" x="1146" y="-231.5" font-family="Helvetica,sans-Serif" font-size="10.00" fill="#000000">dji_log.hpp</text>
</a>
</g>
</g>
<!-- Node6&#45;&gt;Node7 -->
<g id="edge7" class="edge">
<title>Node6&#45;&gt;Node7</title>
<path fill="none" stroke="#191970" d="M900.0444,-280.6899C957.1476,-269.8499 1050.4827,-252.1321 1104.2592,-241.9237"/>
<polygon fill="#191970" stroke="#191970" points="1104.9717,-245.351 1114.1435,-240.0473 1103.6662,-238.4738 1104.9717,-245.351"/>
</g>
<!-- Node14 -->
<g id="node15" class="node">
<title>Node14</title>
<g id="a_node15"><a xlink:href="dji__memory_8hpp.html" target="_top" xlink:title="Implement memory management for DJI OSDK .">
<polygon fill="#ffffff" stroke="#000000" points="760,-224.5 760,-243.5 846,-243.5 846,-224.5 760,-224.5"/>
<text text-anchor="middle" x="803" y="-231.5" font-family="Helvetica,sans-Serif" font-size="10.00" fill="#000000">dji_memory.hpp</text>
</a>
</g>
</g>
<!-- Node6&#45;&gt;Node14 -->
<g id="edge17" class="edge">
<title>Node6&#45;&gt;Node14</title>
<path fill="none" stroke="#191970" d="M842.639,-280.2455C835.825,-272.2958 826.0319,-260.8706 817.8848,-251.3656"/>
<polygon fill="#191970" stroke="#191970" points="820.4305,-248.9575 811.2651,-243.6427 815.1157,-253.513 820.4305,-248.9575"/>
</g>
<!-- Node15 -->
<g id="node16" class="node">
<title>Node15</title>
<g id="a_node16"><a xlink:title=" ">
<polygon fill="#ffffff" stroke="#bfbfbf" points="380,-56.5 380,-75.5 426,-75.5 426,-56.5 380,-56.5"/>
<text text-anchor="middle" x="403" y="-63.5" font-family="Helvetica,sans-Serif" font-size="10.00" fill="#000000">cstdint</text>
</a>
</g>
</g>
<!-- Node6&#45;&gt;Node15 -->
<g id="edge20" class="edge">
<title>Node6&#45;&gt;Node15</title>
<path fill="none" stroke="#191970" d="M826.4815,-280.3815C804.2076,-271.472 770.5653,-257.5852 742,-244 677.0022,-213.0882 665.026,-196.6499 599,-168 553.7436,-148.3624 537.7836,-154.7326 494,-132 467.2067,-118.0888 439.5675,-96.8916 421.8873,-82.2927"/>
<polygon fill="#191970" stroke="#191970" points="423.9644,-79.4666 414.0553,-75.7168 419.4632,-84.8275 423.9644,-79.4666"/>
</g>
<!-- Node16 -->
<g id="node17" class="node">
<title>Node16</title>
<g id="a_node17"><a xlink:title=" ">
<polygon fill="#ffffff" stroke="#bfbfbf" points="864.5,-224.5 864.5,-243.5 905.5,-243.5 905.5,-224.5 864.5,-224.5"/>
<text text-anchor="middle" x="885" y="-231.5" font-family="Helvetica,sans-Serif" font-size="10.00" fill="#000000">ctime</text>
</a>
</g>
</g>
<!-- Node6&#45;&gt;Node16 -->
<g id="edge21" class="edge">
<title>Node6&#45;&gt;Node16</title>
<path fill="none" stroke="#191970" d="M856.9223,-280.2455C861.6027,-272.5367 868.2673,-261.5598 873.9289,-252.2348"/>
<polygon fill="#191970" stroke="#191970" points="876.9475,-254.007 879.1455,-243.6427 870.9639,-250.3741 876.9475,-254.007"/>
</g>
<!-- Node8 -->
<g id="node9" class="node">
<title>Node8</title>
<g id="a_node9"><a xlink:href="dji__singleton_8hpp.html" target="_top" xlink:title="Singleton Template Class implementation for use with the DJI OSDK.">
<polygon fill="#ffffff" stroke="#000000" points="1000.5,-112.5 1000.5,-131.5 1089.5,-131.5 1089.5,-112.5 1000.5,-112.5"/>
<text text-anchor="middle" x="1045" y="-119.5" font-family="Helvetica,sans-Serif" font-size="10.00" fill="#000000">dji_singleton.hpp</text>
</a>
</g>
</g>
<!-- Node7&#45;&gt;Node8 -->
<g id="edge8" class="edge">
<title>Node7&#45;&gt;Node8</title>
<path fill="none" stroke="#191970" d="M1133.7907,-224.4242C1122.8196,-215.5435 1106.5515,-201.6749 1094,-188 1080.2005,-172.9654 1066.5283,-154.1335 1057.147,-140.4378"/>
<polygon fill="#191970" stroke="#191970" points="1059.8775,-138.2264 1051.3889,-131.8865 1054.0711,-142.1362 1059.8775,-138.2264"/>
</g>
<!-- Node9 -->
<g id="node10" class="node">
<title>Node9</title>
<g id="a_node10"><a xlink:href="dji__platform_8hpp.html" target="_top" xlink:title="Vehicle API for DJI onboardSDK library.">
<polygon fill="#ffffff" stroke="#000000" points="1103,-168.5 1103,-187.5 1189,-187.5 1189,-168.5 1103,-168.5"/>
<text text-anchor="middle" x="1146" y="-175.5" font-family="Helvetica,sans-Serif" font-size="10.00" fill="#000000">dji_platform.hpp</text>
</a>
</g>
</g>
<!-- Node7&#45;&gt;Node9 -->
<g id="edge9" class="edge">
<title>Node7&#45;&gt;Node9</title>
<path fill="none" stroke="#191970" d="M1146,-224.2455C1146,-216.9382 1146,-206.6944 1146,-197.7046"/>
<polygon fill="#191970" stroke="#191970" points="1149.5001,-197.6426 1146,-187.6427 1142.5001,-197.6427 1149.5001,-197.6426"/>
</g>
<!-- Node9&#45;&gt;Node8 -->
<g id="edge14" class="edge">
<title>Node9&#45;&gt;Node8</title>
<path fill="none" stroke="#191970" d="M1128.4071,-168.2455C1112.621,-159.4928 1089.2361,-146.527 1071.2413,-136.5496"/>
<polygon fill="#191970" stroke="#191970" points="1072.8341,-133.4308 1062.3913,-131.6427 1069.4397,-139.5528 1072.8341,-133.4308"/>
</g>
<!-- Node10 -->
<g id="node11" class="node">
<title>Node10</title>
<g id="a_node11"><a xlink:href="osdk__platform_8h.html" target="_top" xlink:title="This is the header file for define OSDK platform interfaces.">
<polygon fill="#ffffff" stroke="#000000" points="1203,-112.5 1203,-131.5 1289,-131.5 1289,-112.5 1203,-112.5"/>
<text text-anchor="middle" x="1246" y="-119.5" font-family="Helvetica,sans-Serif" font-size="10.00" fill="#000000">osdk_platform.h</text>
</a>
</g>
</g>
<!-- Node9&#45;&gt;Node10 -->
<g id="edge10" class="edge">
<title>Node9&#45;&gt;Node10</title>
<path fill="none" stroke="#191970" d="M1163.4187,-168.2455C1179.0485,-159.4928 1202.2019,-146.527 1220.0185,-136.5496"/>
<polygon fill="#191970" stroke="#191970" points="1221.766,-139.5825 1228.7809,-131.6427 1218.3457,-133.475 1221.766,-139.5825"/>
</g>
<!-- Node13 -->
<g id="node14" class="node">
<title>Node13</title>
<g id="a_node14"><a xlink:href="osdk__logger_8h.html" target="_top" xlink:title="This is the header file for &quot;osdk_logger.c&quot;, defining the structure and (exported) function prototype...">
<polygon fill="#ffffff" stroke="#000000" points="1107.5,-112.5 1107.5,-131.5 1184.5,-131.5 1184.5,-112.5 1107.5,-112.5"/>
<text text-anchor="middle" x="1146" y="-119.5" font-family="Helvetica,sans-Serif" font-size="10.00" fill="#000000">osdk_logger.h</text>
</a>
</g>
</g>
<!-- Node9&#45;&gt;Node13 -->
<g id="edge15" class="edge">
<title>Node9&#45;&gt;Node13</title>
<path fill="none" stroke="#191970" d="M1146,-168.2455C1146,-160.9382 1146,-150.6944 1146,-141.7046"/>
<polygon fill="#191970" stroke="#191970" points="1149.5001,-141.6426 1146,-131.6427 1142.5001,-141.6427 1149.5001,-141.6426"/>
</g>
<!-- Node11 -->
<g id="node12" class="node">
<title>Node11</title>
<g id="a_node12"><a xlink:href="osdk__typedef_8h_source.html" target="_top" xlink:title=" ">
<polygon fill="#ffffff" stroke="#000000" points="1071.5,-56.5 1071.5,-75.5 1154.5,-75.5 1154.5,-56.5 1071.5,-56.5"/>
<text text-anchor="middle" x="1113" y="-63.5" font-family="Helvetica,sans-Serif" font-size="10.00" fill="#000000">osdk_typedef.h</text>
</a>
</g>
</g>
<!-- Node10&#45;&gt;Node11 -->
<g id="edge11" class="edge">
<title>Node10&#45;&gt;Node11</title>
<path fill="none" stroke="#191970" d="M1223.1365,-112.3733C1201.595,-103.3032 1169.1162,-89.6279 1145.0044,-79.4755"/>
<polygon fill="#191970" stroke="#191970" points="1146.1397,-76.156 1135.5652,-75.5011 1143.4233,-82.6075 1146.1397,-76.156"/>
</g>
<!-- Node11&#45;&gt;Node3 -->
<g id="edge13" class="edge">
<title>Node11&#45;&gt;Node3</title>
<path fill="none" stroke="#191970" d="M1071.4586,-58.9076C1006.1132,-47.751 880.5052,-26.3058 819.6872,-15.9222"/>
<polygon fill="#191970" stroke="#191970" points="820.2531,-12.4683 809.8067,-14.2353 819.075,-19.3684 820.2531,-12.4683"/>
</g>
<!-- Node12 -->
<g id="node13" class="node">
<title>Node12</title>
<g id="a_node13"><a xlink:title=" ">
<polygon fill="#ffffff" stroke="#bfbfbf" points="1087,-.5 1087,-19.5 1139,-19.5 1139,-.5 1087,-.5"/>
<text text-anchor="middle" x="1113" y="-7.5" font-family="Helvetica,sans-Serif" font-size="10.00" fill="#000000">stddef.h</text>
</a>
</g>
</g>
<!-- Node11&#45;&gt;Node12 -->
<g id="edge12" class="edge">
<title>Node11&#45;&gt;Node12</title>
<path fill="none" stroke="#191970" d="M1113,-56.2455C1113,-48.9382 1113,-38.6944 1113,-29.7046"/>
<polygon fill="#191970" stroke="#191970" points="1116.5001,-29.6426 1113,-19.6427 1109.5001,-29.6427 1116.5001,-29.6426"/>
</g>
<!-- Node13&#45;&gt;Node11 -->
<g id="edge16" class="edge">
<title>Node13&#45;&gt;Node11</title>
<path fill="none" stroke="#191970" d="M1140.2518,-112.2455C1135.7565,-104.617 1129.3752,-93.7881 1123.9175,-84.5267"/>
<polygon fill="#191970" stroke="#191970" points="1126.7747,-82.4811 1118.6823,-75.6427 1120.7439,-86.035 1126.7747,-82.4811"/>
</g>
<!-- Node14&#45;&gt;Node1 -->
<g id="edge18" class="edge">
<title>Node14&#45;&gt;Node1</title>
<path fill="none" stroke="#191970" d="M795.51,-224.2455C789.4674,-216.3761 780.8097,-205.101 773.5559,-195.6542"/>
<polygon fill="#191970" stroke="#191970" points="776.2705,-193.4426 767.4042,-187.6427 770.7185,-197.7058 776.2705,-193.4426"/>
</g>
<!-- Node18&#45;&gt;Node1 -->
<g id="edge44" class="edge">
<title>Node18&#45;&gt;Node1</title>
<path fill="none" stroke="#191970" d="M910.6034,-336.2632C920.4229,-313.9094 940.5328,-258.211 915,-224 901.7281,-206.2173 845.7307,-192.8543 804.8429,-185.2345"/>
<polygon fill="#191970" stroke="#191970" points="805.2714,-181.7554 794.8085,-183.4218 804.027,-188.6439 805.2714,-181.7554"/>
</g>
<!-- Node18&#45;&gt;Node4 -->
<g id="edge45" class="edge">
<title>Node18&#45;&gt;Node4</title>
<path fill="none" stroke="#191970" d="M850.2267,-344.2735C763.2608,-340.7715 590.1165,-330.5515 435.4349,-299.9281"/>
<polygon fill="#191970" stroke="#191970" points="435.7683,-296.4251 425.2741,-297.8814 434.386,-303.2872 435.7683,-296.4251"/>
</g>
<!-- Node18&#45;&gt;Node6 -->
<g id="edge41" class="edge">
<title>Node18&#45;&gt;Node6</title>
<path fill="none" stroke="#191970" d="M896.4197,-336.2455C888.4542,-328.1352 876.9359,-316.4075 867.4921,-306.7919"/>
<polygon fill="#191970" stroke="#191970" points="869.9747,-304.3247 860.4705,-299.6427 864.9805,-309.2297 869.9747,-304.3247"/>
</g>
<!-- Node18&#45;&gt;Node7 -->
<g id="edge42" class="edge">
<title>Node18&#45;&gt;Node7</title>
<path fill="none" stroke="#191970" d="M921.1159,-336.4612C943.032,-322.8674 985.1554,-297.6201 1023,-280 1050.4299,-267.2289 1082.4765,-255.3365 1106.9812,-246.8441"/>
<polygon fill="#191970" stroke="#191970" points="1108.3215,-250.0848 1116.6485,-243.5341 1106.0539,-243.4622 1108.3215,-250.0848"/>
</g>
<!-- Node18&#45;&gt;Node17 -->
<g id="edge43" class="edge">
<title>Node18&#45;&gt;Node17</title>
<path fill="none" stroke="#191970" d="M937.9745,-336.3733C969.1713,-326.9807 1016.771,-312.6496 1050.7932,-302.4064"/>
<polygon fill="#191970" stroke="#191970" points="1051.8763,-305.7355 1060.4427,-299.5011 1049.8582,-299.0327 1051.8763,-305.7355"/>
</g>
<!-- Node18&#45;&gt;Node19 -->
<g id="edge24" class="edge">
<title>Node18&#45;&gt;Node19</title>
<path fill="none" stroke="#191970" d="M879.3546,-336.3733C853.8036,-327.1419 815.0488,-313.1402 786.8091,-302.9375"/>
<polygon fill="#191970" stroke="#191970" points="787.8921,-299.6074 777.2978,-299.5011 785.5135,-306.1909 787.8921,-299.6074"/>
</g>
<!-- Node26 -->
<g id="node27" class="node">
<title>Node26</title>
<g id="a_node27"><a xlink:href="dji__aes_8hpp.html" target="_top" xlink:title=" ">
<polygon fill="#ffffff" stroke="#000000" points="902,-56.5 902,-75.5 968,-75.5 968,-56.5 902,-56.5"/>
<text text-anchor="middle" x="935" y="-63.5" font-family="Helvetica,sans-Serif" font-size="10.00" fill="#000000">dji_aes.hpp</text>
</a>
</g>
</g>
<!-- Node18&#45;&gt;Node26 -->
<g id="edge39" class="edge">
<title>Node18&#45;&gt;Node26</title>
<path fill="none" stroke="#191970" d="M915.3618,-336.3788C923.1234,-327.6808 933.575,-314.1096 938,-300 961.893,-223.8145 947.3342,-126.6995 939.2796,-85.6863"/>
<polygon fill="#191970" stroke="#191970" points="942.6622,-84.759 937.2176,-75.6701 935.806,-86.1705 942.6622,-84.759"/>
</g>
<!-- Node19&#45;&gt;Node1 -->
<g id="edge34" class="edge">
<title>Node19&#45;&gt;Node1</title>
<path fill="none" stroke="#191970" d="M740.5306,-280.4201C728.0815,-267.8041 709.9396,-244.7824 718,-224 722.3858,-212.692 730.9902,-202.463 739.2749,-194.5381"/>
<polygon fill="#191970" stroke="#191970" points="741.8301,-196.9494 746.972,-187.6859 737.1756,-191.721 741.8301,-196.9494"/>
</g>
<!-- Node20 -->
<g id="node21" class="node">
<title>Node20</title>
<g id="a_node21"><a xlink:href="dji__command_8hpp.html" target="_top" xlink:title="All DJI OSDK OpenProtocol Command IDs.">
<polygon fill="#ffffff" stroke="#000000" points="497.5,-168.5 497.5,-187.5 590.5,-187.5 590.5,-168.5 497.5,-168.5"/>
<text text-anchor="middle" x="544" y="-175.5" font-family="Helvetica,sans-Serif" font-size="10.00" fill="#000000">dji_command.hpp</text>
</a>
</g>
</g>
<!-- Node19&#45;&gt;Node20 -->
<g id="edge25" class="edge">
<title>Node19&#45;&gt;Node20</title>
<path fill="none" stroke="#191970" d="M717.5659,-281.8679C714.673,-281.2164 711.7876,-280.5848 709,-280 665.2315,-270.8175 539.6551,-278.3349 511,-244 498.6719,-229.2283 512.1668,-209.0728 525.4287,-194.9347"/>
<polygon fill="#191970" stroke="#191970" points="528.0006,-197.3128 532.607,-187.7717 523.0561,-192.3578 528.0006,-197.3128"/>
</g>
<!-- Node22 -->
<g id="node23" class="node">
<title>Node22</title>
<g id="a_node23"><a xlink:title=" ">
<polygon fill="#ffffff" stroke="#bfbfbf" points="496.5,-56.5 496.5,-75.5 531.5,-75.5 531.5,-56.5 496.5,-56.5"/>
<text text-anchor="middle" x="514" y="-63.5" font-family="Helvetica,sans-Serif" font-size="10.00" fill="#000000">map</text>
</a>
</g>
</g>
<!-- Node19&#45;&gt;Node22 -->
<g id="edge38" class="edge">
<title>Node19&#45;&gt;Node22</title>
<path fill="none" stroke="#191970" d="M717.5702,-281.8471C714.6764,-281.2001 711.7896,-280.5753 709,-280 617.9724,-261.2276 571.5699,-306.7422 503,-244 458.5269,-203.3067 488.0624,-121.5544 504.7585,-84.7333"/>
<polygon fill="#191970" stroke="#191970" points="507.9605,-86.149 509.0551,-75.6108 501.6278,-83.1663 507.9605,-86.149"/>
</g>
<!-- Node23 -->
<g id="node24" class="node">
<title>Node23</title>
<g id="a_node24"><a xlink:href="dji__mission__type_8hpp.html" target="_top" xlink:title="Mission related data struct for DJI OSDK library.">
<polygon fill="#ffffff" stroke="#000000" points="520,-224.5 520,-243.5 628,-243.5 628,-224.5 520,-224.5"/>
<text text-anchor="middle" x="574" y="-231.5" font-family="Helvetica,sans-Serif" font-size="10.00" fill="#000000">dji_mission_type.hpp</text>
</a>
</g>
</g>
<!-- Node19&#45;&gt;Node23 -->
<g id="edge31" class="edge">
<title>Node19&#45;&gt;Node23</title>
<path fill="none" stroke="#191970" d="M720.5726,-280.3733C691.0128,-271.021 645.9774,-256.7725 613.6305,-246.5385"/>
<polygon fill="#191970" stroke="#191970" points="614.6203,-243.1807 604.0303,-243.5011 612.5087,-249.8546 614.6203,-243.1807"/>
</g>
<!-- Node19&#45;&gt;Node25 -->
<g id="edge35" class="edge">
<title>Node19&#45;&gt;Node25</title>
<path fill="none" stroke="#191970" d="M717.594,-281.7256C714.6951,-281.105 711.8005,-280.5194 709,-280 590.4013,-258.0029 559.1483,-262.7939 440,-244 438.7328,-243.8001 437.4498,-243.5942 436.156,-243.3834"/>
<polygon fill="#191970" stroke="#191970" points="436.5521,-239.9009 426.1097,-241.6915 435.3895,-246.8037 436.5521,-239.9009"/>
</g>
<!-- Node20&#45;&gt;Node3 -->
<g id="edge30" class="edge">
<title>Node20&#45;&gt;Node3</title>
<path fill="none" stroke="#191970" d="M557.6477,-168.4862C597.4872,-140.7144 713.8949,-59.5671 762.8758,-25.4227"/>
<polygon fill="#191970" stroke="#191970" points="765.0013,-28.2075 771.2032,-19.6177 760.9982,-22.4651 765.0013,-28.2075"/>
</g>
<!-- Node21 -->
<g id="node22" class="node">
<title>Node21</title>
<g id="a_node22"><a xlink:href="dji__error_8hpp.html" target="_top" xlink:title="All DJI OSDK OpenProtocol ACK Error Codes.">
<polygon fill="#ffffff" stroke="#000000" points="503,-112.5 503,-131.5 573,-131.5 573,-112.5 503,-112.5"/>
<text text-anchor="middle" x="538" y="-119.5" font-family="Helvetica,sans-Serif" font-size="10.00" fill="#000000">dji_error.hpp</text>
</a>
</g>
</g>
<!-- Node20&#45;&gt;Node21 -->
<g id="edge26" class="edge">
<title>Node20&#45;&gt;Node21</title>
<path fill="none" stroke="#191970" d="M542.9549,-168.2455C542.172,-160.9382 541.0744,-150.6944 540.1112,-141.7046"/>
<polygon fill="#191970" stroke="#191970" points="543.5786,-141.2129 539.0331,-131.6427 536.6185,-141.9587 543.5786,-141.2129"/>
</g>
<!-- Node21&#45;&gt;Node11 -->
<g id="edge29" class="edge">
<title>Node21&#45;&gt;Node11</title>
<path fill="none" stroke="#191970" d="M573.1033,-118.5812C670.7365,-109.0726 945.8705,-82.277 1061.1583,-71.0489"/>
<polygon fill="#191970" stroke="#191970" points="1061.5371,-74.5287 1071.1507,-70.0758 1060.8585,-67.5617 1061.5371,-74.5287"/>
</g>
<!-- Node21&#45;&gt;Node15 -->
<g id="edge27" class="edge">
<title>Node21&#45;&gt;Node15</title>
<path fill="none" stroke="#191970" d="M514.7927,-112.3733C492.8301,-103.2629 459.6668,-89.5062 435.1599,-79.3404"/>
<polygon fill="#191970" stroke="#191970" points="436.4824,-76.0999 425.9045,-75.5011 433.8003,-82.5657 436.4824,-76.0999"/>
</g>
<!-- Node21&#45;&gt;Node22 -->
<g id="edge28" class="edge">
<title>Node21&#45;&gt;Node22</title>
<path fill="none" stroke="#191970" d="M533.8195,-112.2455C530.619,-104.7776 526.104,-94.2427 522.1916,-85.1137"/>
<polygon fill="#191970" stroke="#191970" points="525.2888,-83.4554 518.1326,-75.6427 518.8548,-86.2129 525.2888,-83.4554"/>
</g>
<!-- Node23&#45;&gt;Node1 -->
<g id="edge33" class="edge">
<title>Node23&#45;&gt;Node1</title>
<path fill="none" stroke="#191970" d="M605.9745,-224.3733C637.1713,-214.9807 684.771,-200.6496 718.7932,-190.4064"/>
<polygon fill="#191970" stroke="#191970" points="719.8763,-193.7355 728.4427,-187.5011 717.8582,-187.0327 719.8763,-193.7355"/>
</g>
<!-- Node24 -->
<g id="node25" class="node">
<title>Node24</title>
<g id="a_node25"><a xlink:title=" ">
<polygon fill="#ffffff" stroke="#bfbfbf" points="397,-168.5 397,-187.5 441,-187.5 441,-168.5 397,-168.5"/>
<text text-anchor="middle" x="419" y="-175.5" font-family="Helvetica,sans-Serif" font-size="10.00" fill="#000000">vector</text>
</a>
</g>
</g>
<!-- Node23&#45;&gt;Node24 -->
<g id="edge32" class="edge">
<title>Node23&#45;&gt;Node24</title>
<path fill="none" stroke="#191970" d="M547.3546,-224.3733C520.5647,-214.6944 479.2597,-199.7712 450.7783,-189.4812"/>
<polygon fill="#191970" stroke="#191970" points="451.8781,-186.1572 441.2838,-186.0509 449.4995,-192.7407 451.8781,-186.1572"/>
</g>
<!-- Node25&#45;&gt;Node15 -->
<g id="edge37" class="edge">
<title>Node25&#45;&gt;Node15</title>
<path fill="none" stroke="#191970" d="M385.1391,-224.1382C385.3921,-211.2175 386.0926,-187.8667 388,-168 390.7712,-139.1367 396.0419,-105.9574 399.5389,-85.483"/>
<polygon fill="#191970" stroke="#191970" points="403.0057,-85.9755 401.2721,-75.5234 396.1094,-84.7753 403.0057,-85.9755"/>
</g>
<!-- Node25&#45;&gt;Node20 -->
<g id="edge36" class="edge">
<title>Node25&#45;&gt;Node20</title>
<path fill="none" stroke="#191970" d="M412.3331,-224.3733C438.5434,-215.1419 478.2984,-201.1402 507.2668,-190.9375"/>
<polygon fill="#191970" stroke="#191970" points="508.7542,-194.1244 517.0236,-187.5011 506.4288,-187.5219 508.7542,-194.1244"/>
</g>
<!-- Node26&#45;&gt;Node3 -->
<g id="edge40" class="edge">
<title>Node26&#45;&gt;Node3</title>
<path fill="none" stroke="#191970" d="M909.2141,-56.3733C884.4461,-47.1265 846.8576,-33.0935 819.5173,-22.8865"/>
<polygon fill="#191970" stroke="#191970" points="820.5436,-19.5337 809.951,-19.315 818.0953,-26.0916 820.5436,-19.5337"/>
</g>
<!-- Node27&#45;&gt;Node4 -->
<g id="edge47" class="edge">
<title>Node27&#45;&gt;Node4</title>
<path fill="none" stroke="#191970" d="M573.3829,-336.4387C539.1379,-328.0358 488.0989,-315.184 434.9706,-300.1782"/>
<polygon fill="#191970" stroke="#191970" points="435.6057,-296.7201 425.0297,-297.3518 433.6913,-303.4533 435.6057,-296.7201"/>
</g>
<!-- Node27&#45;&gt;Node6 -->
<g id="edge52" class="edge">
<title>Node27&#45;&gt;Node6</title>
<path fill="none" stroke="#191970" d="M653.6432,-336.4369C694.2895,-326.8731 756.8913,-312.1432 800.6587,-301.845"/>
<polygon fill="#191970" stroke="#191970" points="801.5919,-305.2211 810.5244,-299.5237 799.9886,-298.4072 801.5919,-305.2211"/>
</g>
<!-- Node28 -->
<g id="node29" class="node">
<title>Node28</title>
<g id="a_node29"><a xlink:title=" ">
<polygon fill="#ffffff" stroke="#bfbfbf" points="656,-280.5 656,-299.5 700,-299.5 700,-280.5 656,-280.5"/>
<text text-anchor="middle" x="678" y="-287.5" font-family="Helvetica,sans-Serif" font-size="10.00" fill="#000000">fcntl.h</text>
</a>
</g>
</g>
<!-- Node27&#45;&gt;Node28 -->
<g id="edge48" class="edge">
<title>Node27&#45;&gt;Node28</title>
<path fill="none" stroke="#191970" d="M624.3221,-336.2455C633.9223,-327.9746 647.8892,-315.9416 659.1695,-306.2232"/>
<polygon fill="#191970" stroke="#191970" points="661.516,-308.8214 666.8076,-299.6427 656.947,-303.5182 661.516,-308.8214"/>
</g>
<!-- Node29 -->
<g id="node30" class="node">
<title>Node29</title>
<g id="a_node30"><a xlink:title=" ">
<polygon fill="#ffffff" stroke="#bfbfbf" points="443.5,-280.5 443.5,-299.5 500.5,-299.5 500.5,-280.5 443.5,-280.5"/>
<text text-anchor="middle" x="472" y="-287.5" font-family="Helvetica,sans-Serif" font-size="10.00" fill="#000000">termios.h</text>
</a>
</g>
</g>
<!-- Node27&#45;&gt;Node29 -->
<g id="edge49" class="edge">
<title>Node27&#45;&gt;Node29</title>
<path fill="none" stroke="#191970" d="M588.7612,-336.3733C565.7211,-327.2226 530.8786,-313.3844 505.2499,-303.2057"/>
<polygon fill="#191970" stroke="#191970" points="506.5082,-299.9395 495.9225,-299.5011 503.9244,-306.4452 506.5082,-299.9395"/>
</g>
<!-- Node30 -->
<g id="node31" class="node">
<title>Node30</title>
<g id="a_node31"><a xlink:title=" ">
<polygon fill="#ffffff" stroke="#bfbfbf" points="518.5,-280.5 518.5,-299.5 569.5,-299.5 569.5,-280.5 518.5,-280.5"/>
<text text-anchor="middle" x="544" y="-287.5" font-family="Helvetica,sans-Serif" font-size="10.00" fill="#000000">unistd.h</text>
</a>
</g>
</g>
<!-- Node27&#45;&gt;Node30 -->
<g id="edge50" class="edge">
<title>Node27&#45;&gt;Node30</title>
<path fill="none" stroke="#191970" d="M600.9811,-336.2455C590.7902,-327.9746 575.9638,-315.9416 563.9893,-306.2232"/>
<polygon fill="#191970" stroke="#191970" points="565.8514,-303.2268 555.8812,-299.6427 561.4402,-308.662 565.8514,-303.2268"/>
</g>
<!-- Node31 -->
<g id="node32" class="node">
<title>Node31</title>
<g id="a_node32"><a xlink:title=" ">
<polygon fill="#ffffff" stroke="#bfbfbf" points="588,-280.5 588,-299.5 638,-299.5 638,-280.5 588,-280.5"/>
<text text-anchor="middle" x="613" y="-287.5" font-family="Helvetica,sans-Serif" font-size="10.00" fill="#000000">libusb.h</text>
</a>
</g>
</g>
<!-- Node27&#45;&gt;Node31 -->
<g id="edge51" class="edge">
<title>Node27&#45;&gt;Node31</title>
<path fill="none" stroke="#191970" d="M613,-336.2455C613,-328.9382 613,-318.6944 613,-309.7046"/>
<polygon fill="#191970" stroke="#191970" points="616.5001,-309.6426 613,-299.6427 609.5001,-309.6427 616.5001,-309.6426"/>
</g>
<!-- Node32&#45;&gt;Node17 -->
<g id="edge55" class="edge">
<title>Node32&#45;&gt;Node17</title>
<path fill="none" stroke="#191970" d="M1092,-336.2455C1092,-328.9382 1092,-318.6944 1092,-309.7046"/>
<polygon fill="#191970" stroke="#191970" points="1095.5001,-309.6426 1092,-299.6427 1088.5001,-309.6427 1095.5001,-309.6426"/>
</g>
<!-- Node33 -->
<g id="node34" class="node">
<title>Node33</title>
<g id="a_node34"><a xlink:title=" ">
<polygon fill="#ffffff" stroke="#bfbfbf" points="1170.5,-280.5 1170.5,-299.5 1227.5,-299.5 1227.5,-280.5 1170.5,-280.5"/>
<text text-anchor="middle" x="1199" y="-287.5" font-family="Helvetica,sans-Serif" font-size="10.00" fill="#000000">pthread.h</text>
</a>
</g>
</g>
<!-- Node32&#45;&gt;Node33 -->
<g id="edge56" class="edge">
<title>Node32&#45;&gt;Node33</title>
<path fill="none" stroke="#191970" d="M1110.638,-336.2455C1127.4386,-327.4527 1152.3634,-314.4079 1171.4618,-304.4125"/>
<polygon fill="#191970" stroke="#191970" points="1173.3386,-307.3807 1180.5756,-299.6427 1170.0927,-301.1787 1173.3386,-307.3807"/>
</g>
<!-- Node34&#45;&gt;Node4 -->
<g id="edge60" class="edge">
<title>Node34&#45;&gt;Node4</title>
<path fill="none" stroke="#191970" d="M311.9864,-336.2455C329.1792,-327.4125 354.7238,-314.2887 374.2132,-304.2758"/>
<polygon fill="#191970" stroke="#191970" points="375.9359,-307.3257 383.2312,-299.6427 372.737,-301.0993 375.9359,-307.3257"/>
</g>
<!-- Node35 -->
<g id="node36" class="node">
<title>Node35</title>
<g id="a_node36"><a xlink:href="dji__camera__image_8hpp_source.html" target="_top" xlink:title=" ">
<polygon fill="#ffffff" stroke="#000000" points="212,-224.5 212,-243.5 326,-243.5 326,-224.5 212,-224.5"/>
<text text-anchor="middle" x="269" y="-231.5" font-family="Helvetica,sans-Serif" font-size="10.00" fill="#000000">dji_camera_image.hpp</text>
</a>
</g>
</g>
<!-- Node34&#45;&gt;Node35 -->
<g id="edge61" class="edge">
<title>Node34&#45;&gt;Node35</title>
<path fill="none" stroke="#191970" d="M290.9538,-336.4509C287.0217,-318.1013 278.3409,-277.5908 273.1506,-253.3693"/>
<polygon fill="#191970" stroke="#191970" points="276.5587,-252.5695 271.041,-243.5249 269.7141,-254.0363 276.5587,-252.5695"/>
</g>
<!-- Node35&#45;&gt;Node15 -->
<g id="edge62" class="edge">
<title>Node35&#45;&gt;Node15</title>
<path fill="none" stroke="#191970" d="M276.5884,-224.4862C298.2291,-197.3545 360.503,-119.2798 388.7565,-83.8576"/>
<polygon fill="#191970" stroke="#191970" points="391.6617,-85.8281 395.1611,-75.8279 386.1892,-81.4632 391.6617,-85.8281"/>
</g>
<!-- Node35&#45;&gt;Node24 -->
<g id="edge63" class="edge">
<title>Node35&#45;&gt;Node24</title>
<path fill="none" stroke="#191970" d="M294.7859,-224.3733C320.4491,-214.7923 359.8764,-200.0728 387.406,-189.7951"/>
<polygon fill="#191970" stroke="#191970" points="388.8184,-193.0038 396.9627,-186.2273 386.3701,-186.4459 388.8184,-193.0038"/>
</g>
<!-- Node36&#45;&gt;Node3 -->
<g id="edge66" class="edge">
<title>Node36&#45;&gt;Node3</title>
<path fill="none" stroke="#191970" d="M184,-336.4116C184,-317.0538 184,-271.9167 184,-234 184,-234 184,-234 184,-122 184,-33.8643 285.0853,-75.6615 371,-56 509.1287,-24.3894 678.3452,-14.2198 750.1404,-11.188"/>
<polygon fill="#191970" stroke="#191970" points="750.5581,-14.6741 760.4096,-10.7756 750.2772,-7.6798 750.5581,-14.6741"/>
</g>
<!-- Node36&#45;&gt;Node4 -->
<g id="edge65" class="edge">
<title>Node36&#45;&gt;Node4</title>
<path fill="none" stroke="#191970" d="M221.4755,-336.3733C263.0233,-325.7004 329.3941,-308.651 369.0336,-298.4684"/>
<polygon fill="#191970" stroke="#191970" points="369.9289,-301.8522 378.7436,-295.9741 368.1872,-295.0723 369.9289,-301.8522"/>
</g>
<!-- Node37&#45;&gt;Node35 -->
<g id="edge69" class="edge">
<title>Node37&#45;&gt;Node35</title>
<path fill="none" stroke="#191970" d="M76.9045,-336.4509C113.8672,-316.7375 198.7877,-271.4465 242.2731,-248.2543"/>
<polygon fill="#191970" stroke="#191970" points="243.9644,-251.3191 251.1408,-243.5249 240.6702,-245.1426 243.9644,-251.3191"/>
</g>
<!-- Node38 -->
<g id="node39" class="node">
<title>Node38</title>
<g id="a_node39"><a xlink:title=" ">
<polygon fill="#ffffff" stroke="#bfbfbf" points="38.5,-280.5 38.5,-299.5 79.5,-299.5 79.5,-280.5 38.5,-280.5"/>
<text text-anchor="middle" x="59" y="-287.5" font-family="Helvetica,sans-Serif" font-size="10.00" fill="#000000">string</text>
</a>
</g>
</g>
<!-- Node37&#45;&gt;Node38 -->
<g id="edge68" class="edge">
<title>Node37&#45;&gt;Node38</title>
<path fill="none" stroke="#191970" d="M59,-336.2455C59,-328.9382 59,-318.6944 59,-309.7046"/>
<polygon fill="#191970" stroke="#191970" points="62.5001,-309.6426 59,-299.6427 55.5001,-309.6427 62.5001,-309.6426"/>
</g>
</g>
</svg>
