<?xml version="1.0" encoding="UTF-8" standalone="no"?>
<!DOCTYPE svg PUBLIC "-//W3C//DTD SVG 1.1//EN"
 "http://www.w3.org/Graphics/SVG/1.1/DTD/svg11.dtd">
<!-- Generated by graphviz version 2.40.1 (20161225.0304)
 -->
<!-- Title: osdk&#45;core/api/inc/dji_control.hpp Pages: 1 -->
<!--zoomable 375 -->
<svg id="main" version="1.1" xmlns="http://www.w3.org/2000/svg" xmlns:xlink="http://www.w3.org/1999/xlink" xml:space="preserve" onload="init(evt)">
<style type="text/css"><![CDATA[
.edge:hover path { stroke: red; }
.edge:hover polygon { stroke: red; fill: red; }
]]></style>
<script type="text/javascript"><![CDATA[
var edges = document.getElementsByTagName('g');
if (edges && edges.length) {
  for (var i=0;i<edges.length;i++) {
    if (edges[i].id.substr(0,4)=='edge') {
      edges[i].setAttribute('class','edge');
    }
  }
}
]]></script>
        <defs>
                <circle id="rim" cx="0" cy="0" r="7"/>
                <circle id="rim2" cx="0" cy="0" r="3.5"/>
                <g id="zoomPlus">
                        <use xlink:href="#rim" fill="#404040">
                                <set attributeName="fill" to="#808080" begin="zoomplus.mouseover" end="zoomplus.mouseout"/>
                        </use>
                        <path d="M-4,0h8M0,-4v8" fill="none" stroke="white" stroke-width="1.5" pointer-events="none"/>
                </g>
                <g id="zoomMin">
                        <use xlink:href="#rim" fill="#404040">
                                <set attributeName="fill" to="#808080" begin="zoomminus.mouseover" end="zoomminus.mouseout"/>
                        </use>
                        <path d="M-4,0h8" fill="none" stroke="white" stroke-width="1.5" pointer-events="none"/>
                </g>
                <g id="dirArrow">
                        <path fill="none" stroke="white" stroke-width="1.5" d="M0,-3.0v7 M-2.5,-0.5L0,-3.0L2.5,-0.5"/>
                </g>
               <g id="resetDef">
                       <use xlink:href="#rim2" fill="#404040">
                               <set attributeName="fill" to="#808080" begin="reset.mouseover" end="reset.mouseout"/>
                       </use>
               </g>
        </defs>

<script type="text/javascript">
var viewWidth = 577;
var viewHeight = 375;
var sectionId = 'dynsection-0';
</script>
<script xlink:href="svgpan.js"/>
<svg id="graph" class="graph">
<g id="viewport">
<title>osdk&#45;core/api/inc/dji_control.hpp</title>
<polygon fill="#ffffff" stroke="transparent" points="-4,4 -4,-371 573,-371 573,4 -4,4"/>
<!-- Node0 -->
<g id="node1" class="node">
<title>Node0</title>
<g id="a_node1"><a xlink:title="Control API for DJI OSDK library.">
<polygon fill="#bfbfbf" stroke="#000000" points="367,-336.5 367,-366.5 471,-366.5 471,-336.5 367,-336.5"/>
<text text-anchor="start" x="375" y="-354.5" font-family="Helvetica,sans-Serif" font-size="10.00" fill="#000000">osdk&#45;core/api/inc/dji</text>
<text text-anchor="middle" x="419" y="-343.5" font-family="Helvetica,sans-Serif" font-size="10.00" fill="#000000">_control.hpp</text>
</a>
</g>
</g>
<!-- Node1 -->
<g id="node2" class="node">
<title>Node1</title>
<g id="a_node2"><a xlink:href="dji__ack_8hpp.html" target="_top" xlink:title="All DJI OSDK ACK parsing.">
<polygon fill="#ffffff" stroke="#000000" points="266,-224.5 266,-243.5 332,-243.5 332,-224.5 266,-224.5"/>
<text text-anchor="middle" x="299" y="-231.5" font-family="Helvetica,sans-Serif" font-size="10.00" fill="#000000">dji_ack.hpp</text>
</a>
</g>
</g>
<!-- Node0&#45;&gt;Node1 -->
<g id="edge1" class="edge">
<title>Node0&#45;&gt;Node1</title>
<path fill="none" stroke="#191970" d="M403.3121,-336.1389C380.8075,-314.1032 339.5115,-273.6675 316.1987,-250.8403"/>
<polygon fill="#191970" stroke="#191970" points="318.3567,-248.055 308.7629,-243.5595 313.4593,-253.0566 318.3567,-248.055"/>
</g>
<!-- Node10 -->
<g id="node11" class="node">
<title>Node10</title>
<g id="a_node11"><a xlink:href="dji__type_8hpp.html" target="_top" xlink:title="Data type and Data Structure definitions for use throughout DJI OSDK.">
<polygon fill="#ffffff" stroke="#000000" points="346.5,-112.5 346.5,-131.5 415.5,-131.5 415.5,-112.5 346.5,-112.5"/>
<text text-anchor="middle" x="381" y="-119.5" font-family="Helvetica,sans-Serif" font-size="10.00" fill="#000000">dji_type.hpp</text>
</a>
</g>
</g>
<!-- Node0&#45;&gt;Node10 -->
<g id="edge18" class="edge">
<title>Node0&#45;&gt;Node10</title>
<path fill="none" stroke="#191970" d="M416.5067,-336.4419C409.8701,-296.3599 391.7714,-187.0534 384.2969,-141.9113"/>
<polygon fill="#191970" stroke="#191970" points="387.7255,-141.192 382.6389,-131.8981 380.8195,-142.3356 387.7255,-141.192"/>
</g>
<!-- Node13 -->
<g id="node14" class="node">
<title>Node13</title>
<g id="a_node14"><a xlink:href="dji__vehicle__callback_8hpp.html" target="_top" xlink:title="Type definition for new Vehicle&#45;style callbacks.">
<polygon fill="#ffffff" stroke="#000000" points="447,-280.5 447,-299.5 569,-299.5 569,-280.5 447,-280.5"/>
<text text-anchor="middle" x="508" y="-287.5" font-family="Helvetica,sans-Serif" font-size="10.00" fill="#000000">dji_vehicle_callback.hpp</text>
</a>
</g>
</g>
<!-- Node0&#45;&gt;Node13 -->
<g id="edge19" class="edge">
<title>Node0&#45;&gt;Node13</title>
<path fill="none" stroke="#191970" d="M441,-336.2977C454.5968,-326.9022 471.9966,-314.8787 485.6567,-305.4395"/>
<polygon fill="#191970" stroke="#191970" points="487.7785,-308.2276 494.0158,-299.6633 483.7991,-302.4688 487.7785,-308.2276"/>
</g>
<!-- Node2 -->
<g id="node3" class="node">
<title>Node2</title>
<g id="a_node3"><a xlink:href="dji__command_8hpp.html" target="_top" xlink:title="All DJI OSDK OpenProtocol Command IDs.">
<polygon fill="#ffffff" stroke="#000000" points="79.5,-112.5 79.5,-131.5 172.5,-131.5 172.5,-112.5 79.5,-112.5"/>
<text text-anchor="middle" x="126" y="-119.5" font-family="Helvetica,sans-Serif" font-size="10.00" fill="#000000">dji_command.hpp</text>
</a>
</g>
</g>
<!-- Node1&#45;&gt;Node2 -->
<g id="edge2" class="edge">
<title>Node1&#45;&gt;Node2</title>
<path fill="none" stroke="#191970" d="M274.7962,-224.4911C254.8043,-216.1544 226.0678,-203.0387 203,-188 180.8485,-173.5587 158.1863,-153.3459 143.2367,-139.1041"/>
<polygon fill="#191970" stroke="#191970" points="145.3958,-136.3228 135.7771,-131.8808 140.5263,-141.3515 145.3958,-136.3228"/>
</g>
<!-- Node5 -->
<g id="node6" class="node">
<title>Node5</title>
<g id="a_node6"><a xlink:title=" ">
<polygon fill="#ffffff" stroke="#bfbfbf" points="182.5,-.5 182.5,-19.5 217.5,-19.5 217.5,-.5 182.5,-.5"/>
<text text-anchor="middle" x="200" y="-7.5" font-family="Helvetica,sans-Serif" font-size="10.00" fill="#000000">map</text>
</a>
</g>
</g>
<!-- Node1&#45;&gt;Node5 -->
<g id="edge17" class="edge">
<title>Node1&#45;&gt;Node5</title>
<path fill="none" stroke="#191970" d="M278.8195,-224.3912C264.6238,-216.5743 246.3749,-204.1921 236,-188 203.9081,-137.9139 199.5655,-64.9707 199.5012,-30.0669"/>
<polygon fill="#191970" stroke="#191970" points="203.0039,-29.8126 199.6094,-19.7763 196.0043,-29.7389 203.0039,-29.8126"/>
</g>
<!-- Node8 -->
<g id="node9" class="node">
<title>Node8</title>
<g id="a_node9"><a xlink:href="dji__mission__type_8hpp.html" target="_top" xlink:title="Mission related data struct for DJI OSDK library.">
<polygon fill="#ffffff" stroke="#000000" points="245,-168.5 245,-187.5 353,-187.5 353,-168.5 245,-168.5"/>
<text text-anchor="middle" x="299" y="-175.5" font-family="Helvetica,sans-Serif" font-size="10.00" fill="#000000">dji_mission_type.hpp</text>
</a>
</g>
</g>
<!-- Node1&#45;&gt;Node8 -->
<g id="edge8" class="edge">
<title>Node1&#45;&gt;Node8</title>
<path fill="none" stroke="#191970" d="M299,-224.2455C299,-216.9382 299,-206.6944 299,-197.7046"/>
<polygon fill="#191970" stroke="#191970" points="302.5001,-197.6426 299,-187.6427 295.5001,-197.6427 302.5001,-197.6426"/>
</g>
<!-- Node1&#45;&gt;Node10 -->
<g id="edge13" class="edge">
<title>Node1&#45;&gt;Node10</title>
<path fill="none" stroke="#191970" d="M318.2075,-224.4673C332.2882,-216.5391 350.8249,-203.9821 362,-188 371.5968,-174.2752 376.3823,-155.7437 378.7472,-141.8112"/>
<polygon fill="#191970" stroke="#191970" points="382.2275,-142.1965 380.1705,-131.8033 375.2973,-141.2108 382.2275,-142.1965"/>
</g>
<!-- Node12 -->
<g id="node13" class="node">
<title>Node12</title>
<g id="a_node13"><a xlink:href="dji__version_8hpp.html" target="_top" xlink:title="Drone/SDK Version definition for DJI onboardSDK library.">
<polygon fill="#ffffff" stroke="#000000" points="69,-168.5 69,-187.5 151,-187.5 151,-168.5 69,-168.5"/>
<text text-anchor="middle" x="110" y="-175.5" font-family="Helvetica,sans-Serif" font-size="10.00" fill="#000000">dji_version.hpp</text>
</a>
</g>
</g>
<!-- Node1&#45;&gt;Node12 -->
<g id="edge14" class="edge">
<title>Node1&#45;&gt;Node12</title>
<path fill="none" stroke="#191970" d="M266.5097,-224.3733C234.8098,-214.9807 186.4424,-200.6496 151.8714,-190.4064"/>
<polygon fill="#191970" stroke="#191970" points="152.6486,-186.9863 142.0663,-187.5011 150.6599,-193.6979 152.6486,-186.9863"/>
</g>
<!-- Node3 -->
<g id="node4" class="node">
<title>Node3</title>
<g id="a_node4"><a xlink:href="dji__error_8hpp.html" target="_top" xlink:title="All DJI OSDK OpenProtocol ACK Error Codes.">
<polygon fill="#ffffff" stroke="#000000" points="51,-56.5 51,-75.5 121,-75.5 121,-56.5 51,-56.5"/>
<text text-anchor="middle" x="86" y="-63.5" font-family="Helvetica,sans-Serif" font-size="10.00" fill="#000000">dji_error.hpp</text>
</a>
</g>
</g>
<!-- Node2&#45;&gt;Node3 -->
<g id="edge3" class="edge">
<title>Node2&#45;&gt;Node3</title>
<path fill="none" stroke="#191970" d="M119.0325,-112.2455C113.4689,-104.4564 105.522,-93.3308 98.8171,-83.9439"/>
<polygon fill="#191970" stroke="#191970" points="101.5481,-81.7457 92.8876,-75.6427 95.852,-85.8144 101.5481,-81.7457"/>
</g>
<!-- Node7 -->
<g id="node8" class="node">
<title>Node7</title>
<g id="a_node8"><a xlink:title=" ">
<polygon fill="#ffffff" stroke="#bfbfbf" points="139.5,-56.5 139.5,-75.5 188.5,-75.5 188.5,-56.5 139.5,-56.5"/>
<text text-anchor="middle" x="164" y="-63.5" font-family="Helvetica,sans-Serif" font-size="10.00" fill="#000000">stdint.h</text>
</a>
</g>
</g>
<!-- Node2&#45;&gt;Node7 -->
<g id="edge7" class="edge">
<title>Node2&#45;&gt;Node7</title>
<path fill="none" stroke="#191970" d="M132.6191,-112.2455C137.9046,-104.4564 145.4541,-93.3308 151.8238,-83.9439"/>
<polygon fill="#191970" stroke="#191970" points="154.7379,-85.8827 157.4568,-75.6427 148.9455,-81.9522 154.7379,-85.8827"/>
</g>
<!-- Node4 -->
<g id="node5" class="node">
<title>Node4</title>
<g id="a_node5"><a xlink:title=" ">
<polygon fill="#ffffff" stroke="#bfbfbf" points="0,-.5 0,-19.5 46,-19.5 46,-.5 0,-.5"/>
<text text-anchor="middle" x="23" y="-7.5" font-family="Helvetica,sans-Serif" font-size="10.00" fill="#000000">cstdint</text>
</a>
</g>
</g>
<!-- Node3&#45;&gt;Node4 -->
<g id="edge4" class="edge">
<title>Node3&#45;&gt;Node4</title>
<path fill="none" stroke="#191970" d="M75.0262,-56.2455C65.8118,-48.0549 52.4468,-36.1749 41.5703,-26.5069"/>
<polygon fill="#191970" stroke="#191970" points="43.6474,-23.6704 33.848,-19.6427 38.9968,-28.9023 43.6474,-23.6704"/>
</g>
<!-- Node3&#45;&gt;Node5 -->
<g id="edge5" class="edge">
<title>Node3&#45;&gt;Node5</title>
<path fill="none" stroke="#191970" d="M105.5973,-56.3733C124.1728,-47.2485 152.2367,-33.4627 172.941,-23.2922"/>
<polygon fill="#191970" stroke="#191970" points="174.7248,-26.3154 182.1572,-18.7649 171.6384,-20.0326 174.7248,-26.3154"/>
</g>
<!-- Node6 -->
<g id="node7" class="node">
<title>Node6</title>
<g id="a_node7"><a xlink:title=" ">
<polygon fill="#ffffff" stroke="#bfbfbf" points="64.5,-.5 64.5,-19.5 147.5,-19.5 147.5,-.5 64.5,-.5"/>
<text text-anchor="middle" x="106" y="-7.5" font-family="Helvetica,sans-Serif" font-size="10.00" fill="#000000">osdk_typedef.h</text>
</a>
</g>
</g>
<!-- Node3&#45;&gt;Node6 -->
<g id="edge6" class="edge">
<title>Node3&#45;&gt;Node6</title>
<path fill="none" stroke="#191970" d="M89.4837,-56.2455C92.1508,-48.7776 95.9133,-38.2427 99.1737,-29.1137"/>
<polygon fill="#191970" stroke="#191970" points="102.4889,-30.2373 102.5562,-19.6427 95.8967,-27.8829 102.4889,-30.2373"/>
</g>
<!-- Node9 -->
<g id="node10" class="node">
<title>Node9</title>
<g id="a_node10"><a xlink:title=" ">
<polygon fill="#ffffff" stroke="#bfbfbf" points="277,-112.5 277,-131.5 321,-131.5 321,-112.5 277,-112.5"/>
<text text-anchor="middle" x="299" y="-119.5" font-family="Helvetica,sans-Serif" font-size="10.00" fill="#000000">vector</text>
</a>
</g>
</g>
<!-- Node8&#45;&gt;Node9 -->
<g id="edge9" class="edge">
<title>Node8&#45;&gt;Node9</title>
<path fill="none" stroke="#191970" d="M299,-168.2455C299,-160.9382 299,-150.6944 299,-141.7046"/>
<polygon fill="#191970" stroke="#191970" points="302.5001,-141.6426 299,-131.6427 295.5001,-141.6427 302.5001,-141.6426"/>
</g>
<!-- Node8&#45;&gt;Node10 -->
<g id="edge10" class="edge">
<title>Node8&#45;&gt;Node10</title>
<path fill="none" stroke="#191970" d="M313.2833,-168.2455C325.747,-159.7337 344.0451,-147.2375 358.4792,-137.3801"/>
<polygon fill="#191970" stroke="#191970" points="360.5962,-140.1726 366.8804,-131.6427 356.6485,-134.392 360.5962,-140.1726"/>
</g>
<!-- Node10&#45;&gt;Node7 -->
<g id="edge12" class="edge">
<title>Node10&#45;&gt;Node7</title>
<path fill="none" stroke="#191970" d="M346.1352,-113.0026C305.577,-102.536 239.0271,-85.3618 198.5877,-74.9259"/>
<polygon fill="#191970" stroke="#191970" points="199.2124,-71.4725 188.655,-72.3626 197.4632,-78.2504 199.2124,-71.4725"/>
</g>
<!-- Node11 -->
<g id="node12" class="node">
<title>Node11</title>
<g id="a_node12"><a xlink:title=" ">
<polygon fill="#ffffff" stroke="#bfbfbf" points="359.5,-56.5 359.5,-75.5 402.5,-75.5 402.5,-56.5 359.5,-56.5"/>
<text text-anchor="middle" x="381" y="-63.5" font-family="Helvetica,sans-Serif" font-size="10.00" fill="#000000">cstdio</text>
</a>
</g>
</g>
<!-- Node10&#45;&gt;Node11 -->
<g id="edge11" class="edge">
<title>Node10&#45;&gt;Node11</title>
<path fill="none" stroke="#191970" d="M381,-112.2455C381,-104.9382 381,-94.6944 381,-85.7046"/>
<polygon fill="#191970" stroke="#191970" points="384.5001,-85.6426 381,-75.6427 377.5001,-85.6427 384.5001,-85.6426"/>
</g>
<!-- Node12&#45;&gt;Node2 -->
<g id="edge15" class="edge">
<title>Node12&#45;&gt;Node2</title>
<path fill="none" stroke="#191970" d="M112.787,-168.2455C114.8977,-160.8579 117.866,-150.4689 120.4547,-141.4087"/>
<polygon fill="#191970" stroke="#191970" points="123.863,-142.2195 123.245,-131.6427 117.1323,-140.2964 123.863,-142.2195"/>
</g>
<!-- Node12&#45;&gt;Node4 -->
<g id="edge16" class="edge">
<title>Node12&#45;&gt;Node4</title>
<path fill="none" stroke="#191970" d="M100.3265,-168.3626C91.6976,-159.4404 79.0635,-145.5455 70,-132 54.5254,-108.873 52.1137,-101.9236 42,-76 36.0411,-60.7262 31.0022,-42.8197 27.6139,-29.5148"/>
<polygon fill="#191970" stroke="#191970" points="30.9578,-28.4555 25.1722,-19.5799 24.1601,-30.1263 30.9578,-28.4555"/>
</g>
<!-- Node13&#45;&gt;Node1 -->
<g id="edge20" class="edge">
<title>Node13&#45;&gt;Node1</title>
<path fill="none" stroke="#191970" d="M472.0716,-280.3733C435.9663,-270.6991 380.3082,-255.7859 341.9062,-245.4964"/>
<polygon fill="#191970" stroke="#191970" points="342.616,-242.0632 332.0509,-242.8557 340.8043,-248.8247 342.616,-242.0632"/>
</g>
<!-- Node13&#45;&gt;Node10 -->
<g id="edge22" class="edge">
<title>Node13&#45;&gt;Node10</title>
<path fill="none" stroke="#191970" d="M500.8644,-280.3076C494.1943,-271.1186 484.0787,-256.8474 476,-244 455.3408,-211.1462 457.4247,-198.1597 433,-168 423.992,-156.8769 412.1521,-146.1752 402.0458,-137.8972"/>
<polygon fill="#191970" stroke="#191970" points="404.0718,-135.0368 394.0644,-131.5578 399.718,-140.5181 404.0718,-135.0368"/>
</g>
<!-- Node14 -->
<g id="node15" class="node">
<title>Node14</title>
<g id="a_node15"><a xlink:title=" ">
<polygon fill="#ffffff" stroke="#bfbfbf" points="485.5,-224.5 485.5,-243.5 548.5,-243.5 548.5,-224.5 485.5,-224.5"/>
<text text-anchor="middle" x="517" y="-231.5" font-family="Helvetica,sans-Serif" font-size="10.00" fill="#000000">dji_log.hpp</text>
</a>
</g>
</g>
<!-- Node13&#45;&gt;Node14 -->
<g id="edge21" class="edge">
<title>Node13&#45;&gt;Node14</title>
<path fill="none" stroke="#191970" d="M509.5677,-280.2455C510.7421,-272.9382 512.3884,-262.6944 513.8332,-253.7046"/>
<polygon fill="#191970" stroke="#191970" points="517.3191,-254.0714 515.4503,-243.6427 510.4078,-252.9606 517.3191,-254.0714"/>
</g>
</g>
</svg>
        <g id="navigator" transform="translate(0 0)" fill="#404254">
                <rect fill="#f2f5e9" fill-opacity="0.5" stroke="#606060" stroke-width=".5" x="0" y="0" width="60" height="60"/>
                <use id="zoomplus" xlink:href="#zoomPlus" x="17" y="9" onmousedown="handleZoom(evt,'in')"/>
                <use id="zoomminus" xlink:href="#zoomMin" x="42" y="9" onmousedown="handleZoom(evt,'out')"/>
                <use id="reset" xlink:href="#resetDef" x="30" y="36" onmousedown="handleReset()"/>
                <g id="arrowUp" xlink:href="#dirArrow" transform="translate(30 24)" onmousedown="handlePan(0,-1)">
                  <use xlink:href="#rim" fill="#404040">
                        <set attributeName="fill" to="#808080" begin="arrowUp.mouseover" end="arrowUp.mouseout"/>
                  </use>
                  <path fill="none" stroke="white" stroke-width="1.5" d="M0,-3.0v7 M-2.5,-0.5L0,-3.0L2.5,-0.5"/>
                </g>
                <g id="arrowRight" xlink:href="#dirArrow" transform="rotate(90) translate(36 -43)" onmousedown="handlePan(1,0)">
                  <use xlink:href="#rim" fill="#404040">
                        <set attributeName="fill" to="#808080" begin="arrowRight.mouseover" end="arrowRight.mouseout"/>
                  </use>
                  <path fill="none" stroke="white" stroke-width="1.5" d="M0,-3.0v7 M-2.5,-0.5L0,-3.0L2.5,-0.5"/>
                </g>
                <g id="arrowDown" xlink:href="#dirArrow" transform="rotate(180) translate(-30 -48)" onmousedown="handlePan(0,1)">
                  <use xlink:href="#rim" fill="#404040">
                        <set attributeName="fill" to="#808080" begin="arrowDown.mouseover" end="arrowDown.mouseout"/>
                  </use>
                  <path fill="none" stroke="white" stroke-width="1.5" d="M0,-3.0v7 M-2.5,-0.5L0,-3.0L2.5,-0.5"/>
                </g>
                <g id="arrowLeft" xlink:href="#dirArrow" transform="rotate(270) translate(-36 17)" onmousedown="handlePan(-1,0)">
                  <use xlink:href="#rim" fill="#404040">
                        <set attributeName="fill" to="#808080" begin="arrowLeft.mouseover" end="arrowLeft.mouseout"/>
                  </use>
                  <path fill="none" stroke="white" stroke-width="1.5" d="M0,-3.0v7 M-2.5,-0.5L0,-3.0L2.5,-0.5"/>
                </g>
        </g>
        <svg viewBox="0 0 15 15" width="100%" height="30px" preserveAspectRatio="xMaxYMin meet">
         <g id="arrow_out" transform="scale(0.3 0.3)">
          <a xlink:href="dji__control_8hpp__incl_org.svg" target="_base">
           <rect id="button" ry="5" rx="5" y="6" x="6" height="38" width="38"
                fill="#f2f5e9" fill-opacity="0.5" stroke="#606060" stroke-width="1.0"/>
           <path id="arrow"
             d="M 11.500037,31.436501 C 11.940474,20.09759 22.043105,11.32322 32.158766,21.979434 L 37.068811,17.246167 C 37.068811,17.246167 37.088388,32 37.088388,32 L 22.160133,31.978069 C 22.160133,31.978069 26.997745,27.140456 26.997745,27.140456 C 18.528582,18.264221 13.291696,25.230495 11.500037,31.436501 z"
             style="fill:#404040;"/>
          </a>
         </g>
        </svg>
</svg>
