<?xml version="1.0" encoding="UTF-8" standalone="no"?>
<!DOCTYPE svg PUBLIC "-//W3C//DTD SVG 1.1//EN"
 "http://www.w3.org/Graphics/SVG/1.1/DTD/svg11.dtd">
<!-- Generated by graphviz version 2.40.1 (20161225.0304)
 -->
<!-- Title: osdk&#45;lib/x86/osdk&#45;core/inc/dji_mission_manager.hpp Pages: 1 -->
<svg width="805pt" height="543pt"
 viewBox="0.00 0.00 805.00 543.00" xmlns="http://www.w3.org/2000/svg" xmlns:xlink="http://www.w3.org/1999/xlink">
<g id="graph0" class="graph" transform="scale(1 1) rotate(0) translate(4 539)">
<title>osdk&#45;lib/x86/osdk&#45;core/inc/dji_mission_manager.hpp</title>
<polygon fill="#ffffff" stroke="transparent" points="-4,4 -4,-539 801,-539 801,4 -4,4"/>
<!-- Node0 -->
<g id="node1" class="node">
<title>Node0</title>
<g id="a_node1"><a xlink:title="Mission&#45;Manager API for DJI OSDK library.">
<polygon fill="#bfbfbf" stroke="#000000" points="640,-504.5 640,-534.5 786,-534.5 786,-504.5 640,-504.5"/>
<text text-anchor="start" x="648" y="-522.5" font-family="Helvetica,sans-Serif" font-size="10.00" fill="#000000">osdk&#45;lib/x86/osdk&#45;core</text>
<text text-anchor="middle" x="713" y="-511.5" font-family="Helvetica,sans-Serif" font-size="10.00" fill="#000000">/inc/dji_mission_manager.hpp</text>
</a>
</g>
</g>
<!-- Node1 -->
<g id="node2" class="node">
<title>Node1</title>
<g id="a_node2"><a xlink:href="dji__hotpoint_8hpp.html" target="_top" xlink:title="Implementation of HotPoint (Point of Interest) Missions for DJI OSDK.">
<polygon fill="#ffffff" stroke="#000000" points="670.5,-448.5 670.5,-467.5 755.5,-467.5 755.5,-448.5 670.5,-448.5"/>
<text text-anchor="middle" x="713" y="-455.5" font-family="Helvetica,sans-Serif" font-size="10.00" fill="#000000">dji_hotpoint.hpp</text>
</a>
</g>
</g>
<!-- Node0&#45;&gt;Node1 -->
<g id="edge1" class="edge">
<title>Node0&#45;&gt;Node1</title>
<path fill="none" stroke="#191970" d="M713,-504.2977C713,-496.3834 713,-486.6043 713,-478.0759"/>
<polygon fill="#191970" stroke="#191970" points="716.5001,-477.8469 713,-467.8469 709.5001,-477.847 716.5001,-477.8469"/>
</g>
<!-- Node15 -->
<g id="node16" class="node">
<title>Node15</title>
<g id="a_node16"><a xlink:title=" ">
<polygon fill="#ffffff" stroke="#bfbfbf" points="715,-168.5 715,-187.5 759,-187.5 759,-168.5 715,-168.5"/>
<text text-anchor="middle" x="737" y="-175.5" font-family="Helvetica,sans-Serif" font-size="10.00" fill="#000000">vector</text>
</a>
</g>
</g>
<!-- Node0&#45;&gt;Node15 -->
<g id="edge38" class="edge">
<title>Node0&#45;&gt;Node15</title>
<path fill="none" stroke="#191970" d="M733.3341,-504.4865C758.1941,-484.234 797,-445.6322 797,-402 797,-402 797,-402 797,-290 797,-252.7757 770.9289,-215.9604 753.1578,-195.1895"/>
<polygon fill="#191970" stroke="#191970" points="755.6346,-192.7077 746.375,-187.5588 750.4027,-197.3582 755.6346,-192.7077"/>
</g>
<!-- Node23 -->
<g id="node24" class="node">
<title>Node23</title>
<g id="a_node24"><a xlink:href="dji__waypoint_8hpp.html" target="_top" xlink:title="Implementation of GPS Waypoint Missions for DJI OSDK.">
<polygon fill="#ffffff" stroke="#000000" points="552.5,-448.5 552.5,-467.5 641.5,-467.5 641.5,-448.5 552.5,-448.5"/>
<text text-anchor="middle" x="597" y="-455.5" font-family="Helvetica,sans-Serif" font-size="10.00" fill="#000000">dji_waypoint.hpp</text>
</a>
</g>
</g>
<!-- Node0&#45;&gt;Node23 -->
<g id="edge36" class="edge">
<title>Node0&#45;&gt;Node23</title>
<path fill="none" stroke="#191970" d="M684.6232,-504.4554C666.1172,-494.644 642.1112,-481.9167 623.9069,-472.2653"/>
<polygon fill="#191970" stroke="#191970" points="625.4505,-469.1222 614.9759,-467.5303 622.1715,-475.3068 625.4505,-469.1222"/>
</g>
<!-- Node2 -->
<g id="node3" class="node">
<title>Node2</title>
<g id="a_node3"><a xlink:href="dji__mission__base_8hpp.html" target="_top" xlink:title="Mission&#45;Base abstract class for DJI OSDK library.">
<polygon fill="#ffffff" stroke="#000000" points="540,-392.5 540,-411.5 650,-411.5 650,-392.5 540,-392.5"/>
<text text-anchor="middle" x="595" y="-399.5" font-family="Helvetica,sans-Serif" font-size="10.00" fill="#000000">dji_mission_base.hpp</text>
</a>
</g>
</g>
<!-- Node1&#45;&gt;Node2 -->
<g id="edge2" class="edge">
<title>Node1&#45;&gt;Node2</title>
<path fill="none" stroke="#191970" d="M692.7151,-448.3733C673.8579,-439.4241 645.554,-425.9917 624.2545,-415.8835"/>
<polygon fill="#191970" stroke="#191970" points="625.5551,-412.6266 615.0202,-411.5011 622.5539,-418.9506 625.5551,-412.6266"/>
</g>
<!-- Node22 -->
<g id="node23" class="node">
<title>Node22</title>
<g id="a_node23"><a xlink:href="dji__telemetry_8hpp.html" target="_top" xlink:title="Enumeration of all telemetry data types, structures and maps.">
<polygon fill="#ffffff" stroke="#000000" points="671.5,-336.5 671.5,-355.5 762.5,-355.5 762.5,-336.5 671.5,-336.5"/>
<text text-anchor="middle" x="717" y="-343.5" font-family="Helvetica,sans-Serif" font-size="10.00" fill="#000000">dji_telemetry.hpp</text>
</a>
</g>
</g>
<!-- Node1&#45;&gt;Node22 -->
<g id="edge34" class="edge">
<title>Node1&#45;&gt;Node22</title>
<path fill="none" stroke="#191970" d="M713.341,-448.4509C713.9934,-430.184 715.4302,-389.9553 716.2965,-365.6976"/>
<polygon fill="#191970" stroke="#191970" points="719.8006,-365.6435 716.6598,-355.5249 712.805,-365.3936 719.8006,-365.6435"/>
</g>
<!-- Node3 -->
<g id="node4" class="node">
<title>Node3</title>
<g id="a_node4"><a xlink:href="dji__command_8hpp.html" target="_top" xlink:title="All DJI OSDK OpenProtocol Command IDs.">
<polygon fill="#ffffff" stroke="#000000" points="345.5,-168.5 345.5,-187.5 438.5,-187.5 438.5,-168.5 345.5,-168.5"/>
<text text-anchor="middle" x="392" y="-175.5" font-family="Helvetica,sans-Serif" font-size="10.00" fill="#000000">dji_command.hpp</text>
</a>
</g>
</g>
<!-- Node2&#45;&gt;Node3 -->
<g id="edge3" class="edge">
<title>Node2&#45;&gt;Node3</title>
<path fill="none" stroke="#191970" d="M539.6353,-394.074C506.3752,-387.5226 464.2091,-375.9446 431,-356 371.9826,-320.5556 349.6174,-307.8992 324,-244 320.6923,-235.7494 319.8322,-231.8512 324,-224 331.3846,-210.0889 345.0636,-199.6166 358.2272,-192.2062"/>
<polygon fill="#191970" stroke="#191970" points="359.9124,-195.275 367.1745,-187.5605 356.6866,-189.0625 359.9124,-195.275"/>
</g>
<!-- Node10 -->
<g id="node11" class="node">
<title>Node10</title>
<g id="a_node11"><a xlink:href="dji__type_8hpp.html" target="_top" xlink:title="Data type and Data Structure definitions for use throughout DJI OSDK.">
<polygon fill="#ffffff" stroke="#000000" points="555.5,-168.5 555.5,-187.5 624.5,-187.5 624.5,-168.5 555.5,-168.5"/>
<text text-anchor="middle" x="590" y="-175.5" font-family="Helvetica,sans-Serif" font-size="10.00" fill="#000000">dji_type.hpp</text>
</a>
</g>
</g>
<!-- Node2&#45;&gt;Node10 -->
<g id="edge11" class="edge">
<title>Node2&#45;&gt;Node10</title>
<path fill="none" stroke="#191970" d="M594.7852,-392.375C594.0287,-358.4851 591.4784,-244.2317 590.4427,-197.8332"/>
<polygon fill="#191970" stroke="#191970" points="593.9364,-197.5085 590.214,-187.5891 586.9382,-197.6648 593.9364,-197.5085"/>
</g>
<!-- Node12 -->
<g id="node13" class="node">
<title>Node12</title>
<g id="a_node13"><a xlink:href="dji__vehicle__callback_8hpp.html" target="_top" xlink:title="Type definition for new Vehicle&#45;style callbacks.">
<polygon fill="#ffffff" stroke="#000000" points="440,-336.5 440,-355.5 562,-355.5 562,-336.5 440,-336.5"/>
<text text-anchor="middle" x="501" y="-343.5" font-family="Helvetica,sans-Serif" font-size="10.00" fill="#000000">dji_vehicle_callback.hpp</text>
</a>
</g>
</g>
<!-- Node2&#45;&gt;Node12 -->
<g id="edge14" class="edge">
<title>Node2&#45;&gt;Node12</title>
<path fill="none" stroke="#191970" d="M578.6264,-392.2455C564.0692,-383.5731 542.569,-370.7645 525.8848,-360.825"/>
<polygon fill="#191970" stroke="#191970" points="527.5683,-357.7539 517.1859,-355.6427 523.9856,-363.7676 527.5683,-357.7539"/>
</g>
<!-- Node4 -->
<g id="node5" class="node">
<title>Node4</title>
<g id="a_node5"><a xlink:href="dji__error_8hpp.html" target="_top" xlink:title="All DJI OSDK OpenProtocol ACK Error Codes.">
<polygon fill="#ffffff" stroke="#000000" points="345,-112.5 345,-131.5 415,-131.5 415,-112.5 345,-112.5"/>
<text text-anchor="middle" x="380" y="-119.5" font-family="Helvetica,sans-Serif" font-size="10.00" fill="#000000">dji_error.hpp</text>
</a>
</g>
</g>
<!-- Node3&#45;&gt;Node4 -->
<g id="edge4" class="edge">
<title>Node3&#45;&gt;Node4</title>
<path fill="none" stroke="#191970" d="M389.9098,-168.2455C388.3439,-160.9382 386.1488,-150.6944 384.2224,-141.7046"/>
<polygon fill="#191970" stroke="#191970" points="387.584,-140.6873 382.0663,-131.6427 380.7393,-142.1541 387.584,-140.6873"/>
</g>
<!-- Node9 -->
<g id="node10" class="node">
<title>Node9</title>
<g id="a_node10"><a xlink:title=" ">
<polygon fill="#ffffff" stroke="#bfbfbf" points="418.5,-.5 418.5,-19.5 467.5,-19.5 467.5,-.5 418.5,-.5"/>
<text text-anchor="middle" x="443" y="-7.5" font-family="Helvetica,sans-Serif" font-size="10.00" fill="#000000">stdint.h</text>
</a>
</g>
</g>
<!-- Node3&#45;&gt;Node9 -->
<g id="edge10" class="edge">
<title>Node3&#45;&gt;Node9</title>
<path fill="none" stroke="#191970" d="M400.8293,-168.1889C408.2495,-159.3692 418.4993,-145.726 424,-132 437.6986,-97.8173 441.5681,-54.5721 442.6316,-29.8209"/>
<polygon fill="#191970" stroke="#191970" points="446.1381,-29.6673 442.9536,-19.5623 439.1415,-29.4476 446.1381,-29.6673"/>
</g>
<!-- Node5 -->
<g id="node6" class="node">
<title>Node5</title>
<g id="a_node6"><a xlink:title=" ">
<polygon fill="#ffffff" stroke="#bfbfbf" points="326,-56.5 326,-75.5 372,-75.5 372,-56.5 326,-56.5"/>
<text text-anchor="middle" x="349" y="-63.5" font-family="Helvetica,sans-Serif" font-size="10.00" fill="#000000">cstdint</text>
</a>
</g>
</g>
<!-- Node4&#45;&gt;Node5 -->
<g id="edge5" class="edge">
<title>Node4&#45;&gt;Node5</title>
<path fill="none" stroke="#191970" d="M374.6002,-112.2455C370.3773,-104.617 364.3827,-93.7881 359.2559,-84.5267"/>
<polygon fill="#191970" stroke="#191970" points="362.2432,-82.6965 354.3379,-75.6427 356.119,-86.0867 362.2432,-82.6965"/>
</g>
<!-- Node6 -->
<g id="node7" class="node">
<title>Node6</title>
<g id="a_node7"><a xlink:title=" ">
<polygon fill="#ffffff" stroke="#bfbfbf" points="471.5,-56.5 471.5,-75.5 506.5,-75.5 506.5,-56.5 471.5,-56.5"/>
<text text-anchor="middle" x="489" y="-63.5" font-family="Helvetica,sans-Serif" font-size="10.00" fill="#000000">map</text>
</a>
</g>
</g>
<!-- Node4&#45;&gt;Node6 -->
<g id="edge6" class="edge">
<title>Node4&#45;&gt;Node6</title>
<path fill="none" stroke="#191970" d="M398.9864,-112.2455C416.4937,-103.2509 442.6611,-89.8071 462.2766,-79.7295"/>
<polygon fill="#191970" stroke="#191970" points="464.0177,-82.7699 471.313,-75.0869 460.8188,-76.5436 464.0177,-82.7699"/>
</g>
<!-- Node7 -->
<g id="node8" class="node">
<title>Node7</title>
<g id="a_node8"><a xlink:href="osdk__typedef_8h_source.html" target="_top" xlink:title=" ">
<polygon fill="#ffffff" stroke="#000000" points="163.5,-56.5 163.5,-75.5 246.5,-75.5 246.5,-56.5 163.5,-56.5"/>
<text text-anchor="middle" x="205" y="-63.5" font-family="Helvetica,sans-Serif" font-size="10.00" fill="#000000">osdk_typedef.h</text>
</a>
</g>
</g>
<!-- Node4&#45;&gt;Node7 -->
<g id="edge7" class="edge">
<title>Node4&#45;&gt;Node7</title>
<path fill="none" stroke="#191970" d="M349.9164,-112.3733C320.8166,-103.0613 276.5477,-88.8953 244.597,-78.671"/>
<polygon fill="#191970" stroke="#191970" points="245.282,-75.2155 234.691,-75.5011 243.1485,-81.8824 245.282,-75.2155"/>
</g>
<!-- Node8 -->
<g id="node9" class="node">
<title>Node8</title>
<g id="a_node9"><a xlink:title=" ">
<polygon fill="#ffffff" stroke="#bfbfbf" points="179,-.5 179,-19.5 231,-19.5 231,-.5 179,-.5"/>
<text text-anchor="middle" x="205" y="-7.5" font-family="Helvetica,sans-Serif" font-size="10.00" fill="#000000">stddef.h</text>
</a>
</g>
</g>
<!-- Node7&#45;&gt;Node8 -->
<g id="edge8" class="edge">
<title>Node7&#45;&gt;Node8</title>
<path fill="none" stroke="#191970" d="M205,-56.2455C205,-48.9382 205,-38.6944 205,-29.7046"/>
<polygon fill="#191970" stroke="#191970" points="208.5001,-29.6426 205,-19.6427 201.5001,-29.6427 208.5001,-29.6426"/>
</g>
<!-- Node7&#45;&gt;Node9 -->
<g id="edge9" class="edge">
<title>Node7&#45;&gt;Node9</title>
<path fill="none" stroke="#191970" d="M245.6432,-56.4369C291.4891,-45.6496 365.267,-28.2901 408.4454,-18.1305"/>
<polygon fill="#191970" stroke="#191970" points="409.2774,-21.5304 418.2099,-15.833 407.6741,-14.7165 409.2774,-21.5304"/>
</g>
<!-- Node10&#45;&gt;Node9 -->
<g id="edge13" class="edge">
<title>Node10&#45;&gt;Node9</title>
<path fill="none" stroke="#191970" d="M583.1514,-168.2572C576.735,-159.0326 566.9662,-144.7374 559,-132 538.3041,-98.9086 541.9886,-84.1953 515,-56 502.7157,-43.1664 486.1669,-32.2729 472.0324,-24.313"/>
<polygon fill="#191970" stroke="#191970" points="473.6226,-21.194 463.1617,-19.5149 470.2923,-27.351 473.6226,-21.194"/>
</g>
<!-- Node11 -->
<g id="node12" class="node">
<title>Node11</title>
<g id="a_node12"><a xlink:title=" ">
<polygon fill="#ffffff" stroke="#bfbfbf" points="568.5,-112.5 568.5,-131.5 611.5,-131.5 611.5,-112.5 568.5,-112.5"/>
<text text-anchor="middle" x="590" y="-119.5" font-family="Helvetica,sans-Serif" font-size="10.00" fill="#000000">cstdio</text>
</a>
</g>
</g>
<!-- Node10&#45;&gt;Node11 -->
<g id="edge12" class="edge">
<title>Node10&#45;&gt;Node11</title>
<path fill="none" stroke="#191970" d="M590,-168.2455C590,-160.9382 590,-150.6944 590,-141.7046"/>
<polygon fill="#191970" stroke="#191970" points="593.5001,-141.6426 590,-131.6427 586.5001,-141.6427 593.5001,-141.6426"/>
</g>
<!-- Node12&#45;&gt;Node10 -->
<g id="edge33" class="edge">
<title>Node12&#45;&gt;Node10</title>
<path fill="none" stroke="#191970" d="M507.808,-336.3548C514.1449,-327.1991 523.6849,-312.9505 531,-300 551.047,-264.5093 570.9821,-221.1797 581.7753,-196.876"/>
<polygon fill="#191970" stroke="#191970" points="584.9875,-198.2658 585.8149,-187.7033 578.5813,-195.4445 584.9875,-198.2658"/>
</g>
<!-- Node13 -->
<g id="node14" class="node">
<title>Node13</title>
<g id="a_node14"><a xlink:href="dji__ack_8hpp.html" target="_top" xlink:title="All DJI OSDK ACK parsing.">
<polygon fill="#ffffff" stroke="#000000" points="456,-280.5 456,-299.5 522,-299.5 522,-280.5 456,-280.5"/>
<text text-anchor="middle" x="489" y="-287.5" font-family="Helvetica,sans-Serif" font-size="10.00" fill="#000000">dji_ack.hpp</text>
</a>
</g>
</g>
<!-- Node12&#45;&gt;Node13 -->
<g id="edge15" class="edge">
<title>Node12&#45;&gt;Node13</title>
<path fill="none" stroke="#191970" d="M498.9098,-336.2455C497.3439,-328.9382 495.1488,-318.6944 493.2224,-309.7046"/>
<polygon fill="#191970" stroke="#191970" points="496.584,-308.6873 491.0663,-299.6427 489.7393,-310.1541 496.584,-308.6873"/>
</g>
<!-- Node17 -->
<g id="node18" class="node">
<title>Node17</title>
<g id="a_node18"><a xlink:href="dji__log_8hpp.html" target="_top" xlink:title="Logging mechanism for printing status and error messages to the screen.">
<polygon fill="#ffffff" stroke="#000000" points="212.5,-224.5 212.5,-243.5 275.5,-243.5 275.5,-224.5 212.5,-224.5"/>
<text text-anchor="middle" x="244" y="-231.5" font-family="Helvetica,sans-Serif" font-size="10.00" fill="#000000">dji_log.hpp</text>
</a>
</g>
</g>
<!-- Node12&#45;&gt;Node17 -->
<g id="edge25" class="edge">
<title>Node12&#45;&gt;Node17</title>
<path fill="none" stroke="#191970" d="M479.0883,-336.4509C433.3788,-316.5308 327.7413,-270.4942 275.0519,-247.5323"/>
<polygon fill="#191970" stroke="#191970" points="276.4218,-244.3115 265.8562,-243.5249 273.6252,-250.7286 276.4218,-244.3115"/>
</g>
<!-- Node13&#45;&gt;Node3 -->
<g id="edge16" class="edge">
<title>Node13&#45;&gt;Node3</title>
<path fill="none" stroke="#191970" d="M480.7298,-280.4509C464.3366,-261.5227 427.5211,-219.014 406.834,-195.1279"/>
<polygon fill="#191970" stroke="#191970" points="409.4417,-192.7927 400.2492,-187.5249 404.1503,-197.3754 409.4417,-192.7927"/>
</g>
<!-- Node13&#45;&gt;Node6 -->
<g id="edge24" class="edge">
<title>Node13&#45;&gt;Node6</title>
<path fill="none" stroke="#191970" d="M489,-280.375C489,-246.4851 489,-132.2317 489,-85.8332"/>
<polygon fill="#191970" stroke="#191970" points="492.5001,-85.5891 489,-75.5891 485.5001,-85.5892 492.5001,-85.5891"/>
</g>
<!-- Node13&#45;&gt;Node10 -->
<g id="edge20" class="edge">
<title>Node13&#45;&gt;Node10</title>
<path fill="none" stroke="#191970" d="M496.3718,-280.3248C506.4842,-267.2112 525.4123,-243.2254 543,-224 552.2985,-213.8357 563.2724,-203.0342 572.2769,-194.4541"/>
<polygon fill="#191970" stroke="#191970" points="574.7164,-196.9644 579.5913,-187.5577 569.9143,-191.8712 574.7164,-196.9644"/>
</g>
<!-- Node14 -->
<g id="node15" class="node">
<title>Node14</title>
<g id="a_node15"><a xlink:href="dji__mission__type_8hpp.html" target="_top" xlink:title="Mission related data struct for DJI OSDK library.">
<polygon fill="#ffffff" stroke="#000000" points="623,-224.5 623,-243.5 731,-243.5 731,-224.5 623,-224.5"/>
<text text-anchor="middle" x="677" y="-231.5" font-family="Helvetica,sans-Serif" font-size="10.00" fill="#000000">dji_mission_type.hpp</text>
</a>
</g>
</g>
<!-- Node13&#45;&gt;Node14 -->
<g id="edge17" class="edge">
<title>Node13&#45;&gt;Node14</title>
<path fill="none" stroke="#191970" d="M521.3184,-280.3733C552.8506,-270.9807 600.9621,-256.6496 635.3501,-246.4064"/>
<polygon fill="#191970" stroke="#191970" points="636.5187,-249.7103 645.1034,-243.5011 634.5203,-243.0016 636.5187,-249.7103"/>
</g>
<!-- Node16 -->
<g id="node17" class="node">
<title>Node16</title>
<g id="a_node17"><a xlink:href="dji__version_8hpp.html" target="_top" xlink:title="Drone/SDK Version definition for DJI onboardSDK library.">
<polygon fill="#ffffff" stroke="#000000" points="333,-224.5 333,-243.5 415,-243.5 415,-224.5 333,-224.5"/>
<text text-anchor="middle" x="374" y="-231.5" font-family="Helvetica,sans-Serif" font-size="10.00" fill="#000000">dji_version.hpp</text>
</a>
</g>
</g>
<!-- Node13&#45;&gt;Node16 -->
<g id="edge21" class="edge">
<title>Node13&#45;&gt;Node16</title>
<path fill="none" stroke="#191970" d="M469.2308,-280.3733C450.8531,-271.4241 423.2688,-257.9917 402.5107,-247.8835"/>
<polygon fill="#191970" stroke="#191970" points="404.0343,-244.7325 393.5112,-243.5011 400.9696,-251.026 404.0343,-244.7325"/>
</g>
<!-- Node14&#45;&gt;Node10 -->
<g id="edge19" class="edge">
<title>Node14&#45;&gt;Node10</title>
<path fill="none" stroke="#191970" d="M661.8458,-224.2455C648.4973,-215.6534 628.8414,-203.0014 613.4617,-193.1018"/>
<polygon fill="#191970" stroke="#191970" points="615.2836,-190.1121 604.9806,-187.6427 611.4949,-195.9982 615.2836,-190.1121"/>
</g>
<!-- Node14&#45;&gt;Node15 -->
<g id="edge18" class="edge">
<title>Node14&#45;&gt;Node15</title>
<path fill="none" stroke="#191970" d="M687.4512,-224.2455C696.2269,-216.0549 708.9554,-204.1749 719.314,-194.5069"/>
<polygon fill="#191970" stroke="#191970" points="721.7461,-197.0246 726.6686,-187.6427 716.9699,-191.9072 721.7461,-197.0246"/>
</g>
<!-- Node16&#45;&gt;Node3 -->
<g id="edge22" class="edge">
<title>Node16&#45;&gt;Node3</title>
<path fill="none" stroke="#191970" d="M377.1354,-224.2455C379.51,-216.8579 382.8493,-206.4689 385.7615,-197.4087"/>
<polygon fill="#191970" stroke="#191970" points="389.1725,-198.234 388.9006,-187.6427 382.5083,-196.0919 389.1725,-198.234"/>
</g>
<!-- Node16&#45;&gt;Node5 -->
<g id="edge23" class="edge">
<title>Node16&#45;&gt;Node5</title>
<path fill="none" stroke="#191970" d="M362.5547,-224.3916C353.4007,-215.901 341.2581,-202.6212 336,-188 323.5047,-153.2547 333.8923,-109.625 341.9022,-85.0743"/>
<polygon fill="#191970" stroke="#191970" points="345.2462,-86.1139 345.2201,-75.5191 338.6335,-83.8177 345.2462,-86.1139"/>
</g>
<!-- Node18 -->
<g id="node19" class="node">
<title>Node18</title>
<g id="a_node19"><a xlink:href="dji__singleton_8hpp.html" target="_top" xlink:title="Singleton Template Class implementation for use with the DJI OSDK.">
<polygon fill="#ffffff" stroke="#000000" points="199.5,-112.5 199.5,-131.5 288.5,-131.5 288.5,-112.5 199.5,-112.5"/>
<text text-anchor="middle" x="244" y="-119.5" font-family="Helvetica,sans-Serif" font-size="10.00" fill="#000000">dji_singleton.hpp</text>
</a>
</g>
</g>
<!-- Node17&#45;&gt;Node18 -->
<g id="edge26" class="edge">
<title>Node17&#45;&gt;Node18</title>
<path fill="none" stroke="#191970" d="M244,-224.4509C244,-206.184 244,-165.9553 244,-141.6976"/>
<polygon fill="#191970" stroke="#191970" points="247.5001,-141.5249 244,-131.5249 240.5001,-141.5249 247.5001,-141.5249"/>
</g>
<!-- Node19 -->
<g id="node20" class="node">
<title>Node19</title>
<g id="a_node20"><a xlink:href="dji__platform_8hpp.html" target="_top" xlink:title="Vehicle API for DJI onboardSDK library.">
<polygon fill="#ffffff" stroke="#000000" points="115,-168.5 115,-187.5 201,-187.5 201,-168.5 115,-168.5"/>
<text text-anchor="middle" x="158" y="-175.5" font-family="Helvetica,sans-Serif" font-size="10.00" fill="#000000">dji_platform.hpp</text>
</a>
</g>
</g>
<!-- Node17&#45;&gt;Node19 -->
<g id="edge27" class="edge">
<title>Node17&#45;&gt;Node19</title>
<path fill="none" stroke="#191970" d="M229.0199,-224.2455C215.8249,-215.6534 196.3949,-203.0014 181.1921,-193.1018"/>
<polygon fill="#191970" stroke="#191970" points="183.0983,-190.1665 172.8084,-187.6427 179.2785,-196.0325 183.0983,-190.1665"/>
</g>
<!-- Node19&#45;&gt;Node18 -->
<g id="edge30" class="edge">
<title>Node19&#45;&gt;Node18</title>
<path fill="none" stroke="#191970" d="M172.9801,-168.2455C186.1751,-159.6534 205.6051,-147.0014 220.8079,-137.1018"/>
<polygon fill="#191970" stroke="#191970" points="222.7215,-140.0325 229.1916,-131.6427 218.9017,-134.1665 222.7215,-140.0325"/>
</g>
<!-- Node20 -->
<g id="node21" class="node">
<title>Node20</title>
<g id="a_node21"><a xlink:href="osdk__platform_8h.html" target="_top" xlink:title="This is the header file for define OSDK platform interfaces.">
<polygon fill="#ffffff" stroke="#000000" points="0,-112.5 0,-131.5 86,-131.5 86,-112.5 0,-112.5"/>
<text text-anchor="middle" x="43" y="-119.5" font-family="Helvetica,sans-Serif" font-size="10.00" fill="#000000">osdk_platform.h</text>
</a>
</g>
</g>
<!-- Node19&#45;&gt;Node20 -->
<g id="edge28" class="edge">
<title>Node19&#45;&gt;Node20</title>
<path fill="none" stroke="#191970" d="M138.2308,-168.3733C119.8531,-159.4241 92.2688,-145.9917 71.5107,-135.8835"/>
<polygon fill="#191970" stroke="#191970" points="73.0343,-132.7325 62.5112,-131.5011 69.9696,-139.026 73.0343,-132.7325"/>
</g>
<!-- Node21 -->
<g id="node22" class="node">
<title>Node21</title>
<g id="a_node22"><a xlink:href="osdk__logger_8h.html" target="_top" xlink:title="This is the header file for &quot;osdk_logger.c&quot;, defining the structure and (exported) function prototype...">
<polygon fill="#ffffff" stroke="#000000" points="104.5,-112.5 104.5,-131.5 181.5,-131.5 181.5,-112.5 104.5,-112.5"/>
<text text-anchor="middle" x="143" y="-119.5" font-family="Helvetica,sans-Serif" font-size="10.00" fill="#000000">osdk_logger.h</text>
</a>
</g>
</g>
<!-- Node19&#45;&gt;Node21 -->
<g id="edge31" class="edge">
<title>Node19&#45;&gt;Node21</title>
<path fill="none" stroke="#191970" d="M155.3872,-168.2455C153.4084,-160.8579 150.6256,-150.4689 148.1988,-141.4087"/>
<polygon fill="#191970" stroke="#191970" points="151.5511,-140.3966 145.5829,-131.6427 144.7895,-142.2078 151.5511,-140.3966"/>
</g>
<!-- Node20&#45;&gt;Node7 -->
<g id="edge29" class="edge">
<title>Node20&#45;&gt;Node7</title>
<path fill="none" stroke="#191970" d="M70.8488,-112.3733C97.6703,-103.1016 138.4127,-89.0178 167.9598,-78.804"/>
<polygon fill="#191970" stroke="#191970" points="169.2069,-82.0762 177.5146,-75.5011 166.9198,-75.4603 169.2069,-82.0762"/>
</g>
<!-- Node21&#45;&gt;Node7 -->
<g id="edge32" class="edge">
<title>Node21&#45;&gt;Node7</title>
<path fill="none" stroke="#191970" d="M153.7996,-112.2455C162.8678,-104.0549 176.0206,-92.1749 186.7245,-82.5069"/>
<polygon fill="#191970" stroke="#191970" points="189.2491,-84.9429 194.3242,-75.6427 184.5571,-79.7482 189.2491,-84.9429"/>
</g>
<!-- Node22&#45;&gt;Node10 -->
<g id="edge35" class="edge">
<title>Node22&#45;&gt;Node10</title>
<path fill="none" stroke="#191970" d="M723.295,-336.3498C736.8876,-314.1781 765.7545,-258.8364 740,-224 727.3383,-206.8734 674.1691,-193.5052 634.7084,-185.6949"/>
<polygon fill="#191970" stroke="#191970" points="635.2314,-182.2314 624.7508,-183.7828 633.9113,-189.1059 635.2314,-182.2314"/>
</g>
<!-- Node23&#45;&gt;Node2 -->
<g id="edge37" class="edge">
<title>Node23&#45;&gt;Node2</title>
<path fill="none" stroke="#191970" d="M596.6516,-448.2455C596.3907,-440.9382 596.0248,-430.6944 595.7037,-421.7046"/>
<polygon fill="#191970" stroke="#191970" points="599.1992,-421.5113 595.3444,-411.6427 592.2036,-421.7613 599.1992,-421.5113"/>
</g>
</g>
</svg>
