<?xml version="1.0" encoding="UTF-8" standalone="no"?>
<!DOCTYPE svg PUBLIC "-//W3C//DTD SVG 1.1//EN"
 "http://www.w3.org/Graphics/SVG/1.1/DTD/svg11.dtd">
<!-- Generated by graphviz version 2.40.1 (20161225.0304)
 -->
<!-- Title: osdk&#45;core/modules/inc/payload/dji_camera_module.hpp Pages: 1 -->
<svg width="539pt" height="375pt"
 viewBox="0.00 0.00 539.23 375.00" xmlns="http://www.w3.org/2000/svg" xmlns:xlink="http://www.w3.org/1999/xlink">
<g id="graph0" class="graph" transform="scale(1 1) rotate(0) translate(4 371)">
<title>osdk&#45;core/modules/inc/payload/dji_camera_module.hpp</title>
<polygon fill="#ffffff" stroke="transparent" points="-4,4 -4,-371 535.2254,-371 535.2254,4 -4,4"/>
<!-- Node0 -->
<g id="node1" class="node">
<title>Node0</title>
<g id="a_node1"><a xlink:title="Implementation of camera module for payload node.">
<polygon fill="#bfbfbf" stroke="#000000" points="154.5,-336.5 154.5,-366.5 313.5,-366.5 313.5,-336.5 154.5,-336.5"/>
<text text-anchor="start" x="162.5" y="-354.5" font-family="Helvetica,sans-Serif" font-size="10.00" fill="#000000">osdk&#45;core/modules/inc</text>
<text text-anchor="middle" x="234" y="-343.5" font-family="Helvetica,sans-Serif" font-size="10.00" fill="#000000">/payload/dji_camera_module.hpp</text>
</a>
</g>
</g>
<!-- Node1 -->
<g id="node2" class="node">
<title>Node1</title>
<g id="a_node2"><a xlink:href="dji__command_8hpp.html" target="_top" xlink:title="All DJI OSDK OpenProtocol Command IDs.">
<polygon fill="#ffffff" stroke="#000000" points="128.5,-112.5 128.5,-131.5 221.5,-131.5 221.5,-112.5 128.5,-112.5"/>
<text text-anchor="middle" x="175" y="-119.5" font-family="Helvetica,sans-Serif" font-size="10.00" fill="#000000">dji_command.hpp</text>
</a>
</g>
</g>
<!-- Node0&#45;&gt;Node1 -->
<g id="edge1" class="edge">
<title>Node0&#45;&gt;Node1</title>
<path fill="none" stroke="#191970" d="M224.9179,-336.4236C208.628,-308.4012 175.0231,-245.8717 163,-188 159.7797,-172.4994 163.363,-154.8508 167.4324,-141.7061"/>
<polygon fill="#191970" stroke="#191970" points="170.8732,-142.4645 170.8264,-131.8698 164.256,-140.1812 170.8732,-142.4645"/>
</g>
<!-- Node7 -->
<g id="node8" class="node">
<title>Node7</title>
<g id="a_node8"><a xlink:href="dji__payload__base_8hpp.html" target="_top" xlink:title="Abstract protocol implementation for payload module.">
<polygon fill="#ffffff" stroke="#000000" points="0,-112.5 0,-131.5 110,-131.5 110,-112.5 0,-112.5"/>
<text text-anchor="middle" x="55" y="-119.5" font-family="Helvetica,sans-Serif" font-size="10.00" fill="#000000">dji_payload_base.hpp</text>
</a>
</g>
</g>
<!-- Node0&#45;&gt;Node7 -->
<g id="edge7" class="edge">
<title>Node0&#45;&gt;Node7</title>
<path fill="none" stroke="#191970" d="M221.7488,-336.2173C213.5732,-325.9926 202.602,-312.2218 193,-300 147.0717,-241.5407 93.2468,-171.735 68.5871,-139.6806"/>
<polygon fill="#191970" stroke="#191970" points="71.3063,-137.4751 62.4359,-131.6815 65.7573,-141.7423 71.3063,-137.4751"/>
</g>
<!-- Node9 -->
<g id="node10" class="node">
<title>Node9</title>
<g id="a_node10"><a xlink:href="dji__type_8hpp.html" target="_top" xlink:title="Data type and Data Structure definitions for use throughout DJI OSDK.">
<polygon fill="#ffffff" stroke="#000000" points="422.5,-112.5 422.5,-131.5 491.5,-131.5 491.5,-112.5 422.5,-112.5"/>
<text text-anchor="middle" x="457" y="-119.5" font-family="Helvetica,sans-Serif" font-size="10.00" fill="#000000">dji_type.hpp</text>
</a>
</g>
</g>
<!-- Node0&#45;&gt;Node9 -->
<g id="edge12" class="edge">
<title>Node0&#45;&gt;Node9</title>
<path fill="none" stroke="#191970" d="M303.7497,-336.4306C382.36,-317.7386 502.2109,-283.4708 525,-244 546.7558,-206.3188 504.6048,-161.5226 477.4464,-138.0984"/>
<polygon fill="#191970" stroke="#191970" points="479.5089,-135.2612 469.5866,-131.5465 475.0268,-140.638 479.5089,-135.2612"/>
</g>
<!-- Node11 -->
<g id="node12" class="node">
<title>Node11</title>
<g id="a_node12"><a xlink:href="dji__vehicle__callback_8hpp.html" target="_top" xlink:title="Type definition for new Vehicle&#45;style callbacks.">
<polygon fill="#ffffff" stroke="#000000" points="297,-280.5 297,-299.5 419,-299.5 419,-280.5 297,-280.5"/>
<text text-anchor="middle" x="358" y="-287.5" font-family="Helvetica,sans-Serif" font-size="10.00" fill="#000000">dji_vehicle_callback.hpp</text>
</a>
</g>
</g>
<!-- Node0&#45;&gt;Node11 -->
<g id="edge15" class="edge">
<title>Node0&#45;&gt;Node11</title>
<path fill="none" stroke="#191970" d="M264.3338,-336.4554C284.2976,-326.554 310.249,-313.683 329.7715,-304.0004"/>
<polygon fill="#191970" stroke="#191970" points="331.3809,-307.1091 338.7844,-299.5303 328.2706,-300.838 331.3809,-307.1091"/>
</g>
<!-- Node2 -->
<g id="node3" class="node">
<title>Node2</title>
<g id="a_node3"><a xlink:href="dji__error_8hpp.html" target="_top" xlink:title="All DJI OSDK OpenProtocol ACK Error Codes.">
<polygon fill="#ffffff" stroke="#000000" points="89,-56.5 89,-75.5 159,-75.5 159,-56.5 89,-56.5"/>
<text text-anchor="middle" x="124" y="-63.5" font-family="Helvetica,sans-Serif" font-size="10.00" fill="#000000">dji_error.hpp</text>
</a>
</g>
</g>
<!-- Node1&#45;&gt;Node2 -->
<g id="edge2" class="edge">
<title>Node1&#45;&gt;Node2</title>
<path fill="none" stroke="#191970" d="M166.1165,-112.2455C158.8034,-104.2155 148.2609,-92.6394 139.5533,-83.0781"/>
<polygon fill="#191970" stroke="#191970" points="142.1028,-80.6795 132.7817,-75.6427 136.9273,-85.3928 142.1028,-80.6795"/>
</g>
<!-- Node6 -->
<g id="node7" class="node">
<title>Node6</title>
<g id="a_node7"><a xlink:title=" ">
<polygon fill="#ffffff" stroke="#bfbfbf" points="177.5,-56.5 177.5,-75.5 226.5,-75.5 226.5,-56.5 177.5,-56.5"/>
<text text-anchor="middle" x="202" y="-63.5" font-family="Helvetica,sans-Serif" font-size="10.00" fill="#000000">stdint.h</text>
</a>
</g>
</g>
<!-- Node1&#45;&gt;Node6 -->
<g id="edge6" class="edge">
<title>Node1&#45;&gt;Node6</title>
<path fill="none" stroke="#191970" d="M179.703,-112.2455C183.3424,-104.6973 188.4924,-94.0158 192.9262,-84.8197"/>
<polygon fill="#191970" stroke="#191970" points="196.1605,-86.1704 197.3509,-75.6427 189.8551,-83.1303 196.1605,-86.1704"/>
</g>
<!-- Node3 -->
<g id="node4" class="node">
<title>Node3</title>
<g id="a_node4"><a xlink:title=" ">
<polygon fill="#ffffff" stroke="#bfbfbf" points="128,-.5 128,-19.5 174,-19.5 174,-.5 128,-.5"/>
<text text-anchor="middle" x="151" y="-7.5" font-family="Helvetica,sans-Serif" font-size="10.00" fill="#000000">cstdint</text>
</a>
</g>
</g>
<!-- Node2&#45;&gt;Node3 -->
<g id="edge3" class="edge">
<title>Node2&#45;&gt;Node3</title>
<path fill="none" stroke="#191970" d="M128.703,-56.2455C132.3424,-48.6973 137.4924,-38.0158 141.9262,-28.8197"/>
<polygon fill="#191970" stroke="#191970" points="145.1605,-30.1704 146.3509,-19.6427 138.8551,-27.1303 145.1605,-30.1704"/>
</g>
<!-- Node4 -->
<g id="node5" class="node">
<title>Node4</title>
<g id="a_node5"><a xlink:title=" ">
<polygon fill="#ffffff" stroke="#bfbfbf" points="247.5,-.5 247.5,-19.5 282.5,-19.5 282.5,-.5 247.5,-.5"/>
<text text-anchor="middle" x="265" y="-7.5" font-family="Helvetica,sans-Serif" font-size="10.00" fill="#000000">map</text>
</a>
</g>
</g>
<!-- Node2&#45;&gt;Node4 -->
<g id="edge4" class="edge">
<title>Node2&#45;&gt;Node4</title>
<path fill="none" stroke="#191970" d="M148.2388,-56.3733C173.1237,-46.4899 211.7767,-31.1383 237.7183,-20.8353"/>
<polygon fill="#191970" stroke="#191970" points="239.3132,-23.9679 247.3151,-17.0238 236.7293,-17.4622 239.3132,-23.9679"/>
</g>
<!-- Node5 -->
<g id="node6" class="node">
<title>Node5</title>
<g id="a_node6"><a xlink:title=" ">
<polygon fill="#ffffff" stroke="#bfbfbf" points="6.5,-.5 6.5,-19.5 89.5,-19.5 89.5,-.5 6.5,-.5"/>
<text text-anchor="middle" x="48" y="-7.5" font-family="Helvetica,sans-Serif" font-size="10.00" fill="#000000">osdk_typedef.h</text>
</a>
</g>
</g>
<!-- Node2&#45;&gt;Node5 -->
<g id="edge5" class="edge">
<title>Node2&#45;&gt;Node5</title>
<path fill="none" stroke="#191970" d="M110.7618,-56.2455C99.319,-47.814 82.5704,-35.4729 69.2525,-25.6598"/>
<polygon fill="#191970" stroke="#191970" points="71.2133,-22.757 61.0865,-19.6427 67.0609,-28.3924 71.2133,-22.757"/>
</g>
<!-- Node7&#45;&gt;Node2 -->
<g id="edge11" class="edge">
<title>Node7&#45;&gt;Node2</title>
<path fill="none" stroke="#191970" d="M67.0189,-112.2455C77.2098,-103.9746 92.0362,-91.9416 104.0107,-82.2232"/>
<polygon fill="#191970" stroke="#191970" points="106.5598,-84.662 112.1188,-75.6427 102.1486,-79.2268 106.5598,-84.662"/>
</g>
<!-- Node7&#45;&gt;Node5 -->
<g id="edge10" class="edge">
<title>Node7&#45;&gt;Node5</title>
<path fill="none" stroke="#191970" d="M44.441,-112.2076C35.9991,-103.6048 24.8094,-90.2634 20,-76 14.3777,-59.3256 23.5045,-40.9396 32.8048,-27.8177"/>
<polygon fill="#191970" stroke="#191970" points="35.7597,-29.7171 39.0921,-19.66 30.2153,-25.444 35.7597,-29.7171"/>
</g>
<!-- Node7&#45;&gt;Node6 -->
<g id="edge8" class="edge">
<title>Node7&#45;&gt;Node6</title>
<path fill="none" stroke="#191970" d="M80.2702,-112.3733C104.3966,-103.1822 140.9362,-89.2624 167.6877,-79.0713"/>
<polygon fill="#191970" stroke="#191970" points="168.9607,-82.3318 177.0596,-75.5011 166.4687,-75.7904 168.9607,-82.3318"/>
</g>
<!-- Node8 -->
<g id="node9" class="node">
<title>Node8</title>
<g id="a_node9"><a xlink:title=" ">
<polygon fill="#ffffff" stroke="#bfbfbf" points="29.5,-56.5 29.5,-75.5 70.5,-75.5 70.5,-56.5 29.5,-56.5"/>
<text text-anchor="middle" x="50" y="-63.5" font-family="Helvetica,sans-Serif" font-size="10.00" fill="#000000">string</text>
</a>
</g>
</g>
<!-- Node7&#45;&gt;Node8 -->
<g id="edge9" class="edge">
<title>Node7&#45;&gt;Node8</title>
<path fill="none" stroke="#191970" d="M54.1291,-112.2455C53.4766,-104.9382 52.562,-94.6944 51.7593,-85.7046"/>
<polygon fill="#191970" stroke="#191970" points="55.2365,-85.2918 50.861,-75.6427 48.2642,-85.9143 55.2365,-85.2918"/>
</g>
<!-- Node9&#45;&gt;Node6 -->
<g id="edge14" class="edge">
<title>Node9&#45;&gt;Node6</title>
<path fill="none" stroke="#191970" d="M422.3442,-114.3893C373.6275,-103.6907 285.4131,-84.3182 236.6822,-73.6165"/>
<polygon fill="#191970" stroke="#191970" points="237.1422,-70.1342 226.6242,-71.4077 235.6406,-76.9712 237.1422,-70.1342"/>
</g>
<!-- Node10 -->
<g id="node11" class="node">
<title>Node10</title>
<g id="a_node11"><a xlink:title=" ">
<polygon fill="#ffffff" stroke="#bfbfbf" points="435.5,-56.5 435.5,-75.5 478.5,-75.5 478.5,-56.5 435.5,-56.5"/>
<text text-anchor="middle" x="457" y="-63.5" font-family="Helvetica,sans-Serif" font-size="10.00" fill="#000000">cstdio</text>
</a>
</g>
</g>
<!-- Node9&#45;&gt;Node10 -->
<g id="edge13" class="edge">
<title>Node9&#45;&gt;Node10</title>
<path fill="none" stroke="#191970" d="M457,-112.2455C457,-104.9382 457,-94.6944 457,-85.7046"/>
<polygon fill="#191970" stroke="#191970" points="460.5001,-85.6426 457,-75.6427 453.5001,-85.6427 460.5001,-85.6426"/>
</g>
<!-- Node11&#45;&gt;Node9 -->
<g id="edge27" class="edge">
<title>Node11&#45;&gt;Node9</title>
<path fill="none" stroke="#191970" d="M373.0391,-280.319C396.2585,-264.363 439.9369,-230.0793 457,-188 462.9205,-173.3995 462.4811,-155.443 460.8057,-141.9477"/>
<polygon fill="#191970" stroke="#191970" points="464.2266,-141.1698 459.2202,-131.8324 457.311,-142.2538 464.2266,-141.1698"/>
</g>
<!-- Node12 -->
<g id="node13" class="node">
<title>Node12</title>
<g id="a_node13"><a xlink:href="dji__ack_8hpp.html" target="_top" xlink:title="All DJI OSDK ACK parsing.">
<polygon fill="#ffffff" stroke="#000000" points="295,-224.5 295,-243.5 361,-243.5 361,-224.5 295,-224.5"/>
<text text-anchor="middle" x="328" y="-231.5" font-family="Helvetica,sans-Serif" font-size="10.00" fill="#000000">dji_ack.hpp</text>
</a>
</g>
</g>
<!-- Node11&#45;&gt;Node12 -->
<g id="edge16" class="edge">
<title>Node11&#45;&gt;Node12</title>
<path fill="none" stroke="#191970" d="M352.7744,-280.2455C348.6877,-272.617 342.8865,-261.7881 337.925,-252.5267"/>
<polygon fill="#191970" stroke="#191970" points="340.9732,-250.8047 333.1657,-243.6427 334.8028,-254.1103 340.9732,-250.8047"/>
</g>
<!-- Node16 -->
<g id="node17" class="node">
<title>Node16</title>
<g id="a_node17"><a xlink:title=" ">
<polygon fill="#ffffff" stroke="#bfbfbf" points="452.5,-224.5 452.5,-243.5 515.5,-243.5 515.5,-224.5 452.5,-224.5"/>
<text text-anchor="middle" x="484" y="-231.5" font-family="Helvetica,sans-Serif" font-size="10.00" fill="#000000">dji_log.hpp</text>
</a>
</g>
</g>
<!-- Node11&#45;&gt;Node16 -->
<g id="edge26" class="edge">
<title>Node11&#45;&gt;Node16</title>
<path fill="none" stroke="#191970" d="M379.6602,-280.3733C399.9772,-271.3435 430.564,-257.7494 453.375,-247.6111"/>
<polygon fill="#191970" stroke="#191970" points="454.9059,-250.7609 462.6225,-243.5011 452.0628,-244.3642 454.9059,-250.7609"/>
</g>
<!-- Node12&#45;&gt;Node1 -->
<g id="edge17" class="edge">
<title>Node12&#45;&gt;Node1</title>
<path fill="none" stroke="#191970" d="M294.8329,-228.7952C254.0564,-221.6404 188.461,-207.4118 174,-188 164.1801,-174.8182 165.6784,-155.688 168.8945,-141.4135"/>
<polygon fill="#191970" stroke="#191970" points="172.3102,-142.1892 171.5297,-131.6232 165.5508,-140.3698 172.3102,-142.1892"/>
</g>
<!-- Node12&#45;&gt;Node4 -->
<g id="edge25" class="edge">
<title>Node12&#45;&gt;Node4</title>
<path fill="none" stroke="#191970" d="M324.347,-224.2012C320.9517,-214.9371 315.8532,-200.6151 312,-188 294.6278,-131.1249 277.6804,-62.8961 269.7171,-29.8616"/>
<polygon fill="#191970" stroke="#191970" points="273.0215,-28.6311 267.2891,-19.721 266.2139,-30.2611 273.0215,-28.6311"/>
</g>
<!-- Node12&#45;&gt;Node9 -->
<g id="edge21" class="edge">
<title>Node12&#45;&gt;Node9</title>
<path fill="none" stroke="#191970" d="M361.104,-228.1357C385.626,-222.1151 418.1087,-210.3387 438,-188 449.2622,-175.3521 453.8761,-156.4228 455.7521,-142.0753"/>
<polygon fill="#191970" stroke="#191970" points="459.2708,-142.0479 456.7444,-131.7588 452.303,-141.3777 459.2708,-142.0479"/>
</g>
<!-- Node13 -->
<g id="node14" class="node">
<title>Node13</title>
<g id="a_node14"><a xlink:href="dji__mission__type_8hpp.html" target="_top" xlink:title="Mission related data struct for DJI OSDK library.">
<polygon fill="#ffffff" stroke="#000000" points="321,-168.5 321,-187.5 429,-187.5 429,-168.5 321,-168.5"/>
<text text-anchor="middle" x="375" y="-175.5" font-family="Helvetica,sans-Serif" font-size="10.00" fill="#000000">dji_mission_type.hpp</text>
</a>
</g>
</g>
<!-- Node12&#45;&gt;Node13 -->
<g id="edge18" class="edge">
<title>Node12&#45;&gt;Node13</title>
<path fill="none" stroke="#191970" d="M336.1868,-224.2455C342.8589,-216.2958 352.4479,-204.8706 360.4253,-195.3656"/>
<polygon fill="#191970" stroke="#191970" points="363.1592,-197.5525 366.907,-187.6427 357.7974,-193.0524 363.1592,-197.5525"/>
</g>
<!-- Node15 -->
<g id="node16" class="node">
<title>Node15</title>
<g id="a_node16"><a xlink:href="dji__version_8hpp.html" target="_top" xlink:title="Drone/SDK Version definition for DJI onboardSDK library.">
<polygon fill="#ffffff" stroke="#000000" points="183,-168.5 183,-187.5 265,-187.5 265,-168.5 183,-168.5"/>
<text text-anchor="middle" x="224" y="-175.5" font-family="Helvetica,sans-Serif" font-size="10.00" fill="#000000">dji_version.hpp</text>
</a>
</g>
</g>
<!-- Node12&#45;&gt;Node15 -->
<g id="edge22" class="edge">
<title>Node12&#45;&gt;Node15</title>
<path fill="none" stroke="#191970" d="M309.8846,-224.2455C293.555,-215.4527 269.329,-202.4079 250.7661,-192.4125"/>
<polygon fill="#191970" stroke="#191970" points="252.3719,-189.3021 241.9078,-187.6427 249.0532,-195.4654 252.3719,-189.3021"/>
</g>
<!-- Node13&#45;&gt;Node9 -->
<g id="edge20" class="edge">
<title>Node13&#45;&gt;Node9</title>
<path fill="none" stroke="#191970" d="M389.2833,-168.2455C401.747,-159.7337 420.0451,-147.2375 434.4792,-137.3801"/>
<polygon fill="#191970" stroke="#191970" points="436.5962,-140.1726 442.8804,-131.6427 432.6485,-134.392 436.5962,-140.1726"/>
</g>
<!-- Node14 -->
<g id="node15" class="node">
<title>Node14</title>
<g id="a_node15"><a xlink:title=" ">
<polygon fill="#ffffff" stroke="#bfbfbf" points="353,-112.5 353,-131.5 397,-131.5 397,-112.5 353,-112.5"/>
<text text-anchor="middle" x="375" y="-119.5" font-family="Helvetica,sans-Serif" font-size="10.00" fill="#000000">vector</text>
</a>
</g>
</g>
<!-- Node13&#45;&gt;Node14 -->
<g id="edge19" class="edge">
<title>Node13&#45;&gt;Node14</title>
<path fill="none" stroke="#191970" d="M375,-168.2455C375,-160.9382 375,-150.6944 375,-141.7046"/>
<polygon fill="#191970" stroke="#191970" points="378.5001,-141.6426 375,-131.6427 371.5001,-141.6427 378.5001,-141.6426"/>
</g>
<!-- Node15&#45;&gt;Node1 -->
<g id="edge23" class="edge">
<title>Node15&#45;&gt;Node1</title>
<path fill="none" stroke="#191970" d="M215.4649,-168.2455C208.5088,-160.2958 198.5117,-148.8706 190.1949,-139.3656"/>
<polygon fill="#191970" stroke="#191970" points="192.6564,-136.8637 183.4373,-131.6427 187.3884,-141.4732 192.6564,-136.8637"/>
</g>
<!-- Node15&#45;&gt;Node3 -->
<g id="edge24" class="edge">
<title>Node15&#45;&gt;Node3</title>
<path fill="none" stroke="#191970" d="M228.4612,-168.2934C237.7716,-146.4719 256.6811,-92.5921 235,-56 223.9362,-37.3271 202.3142,-25.7367 183.7785,-18.8611"/>
<polygon fill="#191970" stroke="#191970" points="184.7573,-15.4973 174.1629,-15.5972 182.5072,-22.1258 184.7573,-15.4973"/>
</g>
</g>
</svg>
