<?xml version="1.0" encoding="UTF-8" standalone="no"?>
<!DOCTYPE svg PUBLIC "-//W3C//DTD SVG 1.1//EN"
 "http://www.w3.org/Graphics/SVG/1.1/DTD/svg11.dtd">
<!-- Generated by graphviz version 2.38.0 (20140413.2041)
 -->
<!-- Title: osdk&#45;core/api/inc/dji_mission_manager.hpp Pages: 1 -->
<svg width="343pt" height="319pt"
 viewBox="0.00 0.00 343.00 319.00" xmlns="http://www.w3.org/2000/svg" xmlns:xlink="http://www.w3.org/1999/xlink">
<g id="graph0" class="graph" transform="scale(1 1) rotate(0) translate(4 315)">
<title>osdk&#45;core/api/inc/dji_mission_manager.hpp</title>
<polygon fill="white" stroke="none" points="-4,4 -4,-315 339,-315 339,4 -4,4"/>
<!-- Node1 -->
<g id="node1" class="node"><title>Node1</title>
<polygon fill="#bfbfbf" stroke="black" points="164,-280.5 164,-310.5 281,-310.5 281,-280.5 164,-280.5"/>
<text text-anchor="start" x="172" y="-298.5" font-family="Helvetica,sans-Serif" font-size="10.00">osdk&#45;core/api/inc/dji</text>
<text text-anchor="middle" x="222.5" y="-287.5" font-family="Helvetica,sans-Serif" font-size="10.00">_mission_manager.hpp</text>
</g>
<!-- Node2 -->
<g id="node2" class="node"><title>Node2</title>
<g id="a_node2"><a xlink:href="dji__hotpoint_8hpp.html" target="_top" xlink:title="Implementation of HotPoint (Point of Interest) Missions for DJI OSDK. ">
<polygon fill="white" stroke="black" points="233,-224.5 233,-243.5 318,-243.5 318,-224.5 233,-224.5"/>
<text text-anchor="middle" x="275.5" y="-231.5" font-family="Helvetica,sans-Serif" font-size="10.00">dji_hotpoint.hpp</text>
</a>
</g>
</g>
<!-- Node1&#45;&gt;Node2 -->
<g id="edge1" class="edge"><title>Node1&#45;&gt;Node2</title>
<path fill="none" stroke="midnightblue" d="M235.06,-280.399C242.841,-271.664 252.864,-260.413 260.984,-251.296"/>
<polygon fill="midnightblue" stroke="midnightblue" points="263.75,-253.453 267.788,-243.658 258.523,-248.797 263.75,-253.453"/>
</g>
<!-- Node12 -->
<g id="node12" class="node"><title>Node12</title>
<g id="a_node12"><a xlink:href="dji__waypoint_8hpp.html" target="_top" xlink:title="Implementation of GPS Waypoint Missions for DJI OSDK. ">
<polygon fill="white" stroke="black" points="126,-224.5 126,-243.5 215,-243.5 215,-224.5 126,-224.5"/>
<text text-anchor="middle" x="170.5" y="-231.5" font-family="Helvetica,sans-Serif" font-size="10.00">dji_waypoint.hpp</text>
</a>
</g>
</g>
<!-- Node1&#45;&gt;Node12 -->
<g id="edge14" class="edge"><title>Node1&#45;&gt;Node12</title>
<path fill="none" stroke="midnightblue" d="M210.177,-280.399C202.543,-271.664 192.709,-260.413 184.742,-251.296"/>
<polygon fill="midnightblue" stroke="midnightblue" points="187.282,-248.884 178.066,-243.658 182.012,-253.491 187.282,-248.884"/>
</g>
<!-- Node3 -->
<g id="node3" class="node"><title>Node3</title>
<g id="a_node3"><a xlink:href="dji__mission__base_8hpp.html" target="_top" xlink:title="Mission&#45;Base abstract class for DJI OSDK library. ">
<polygon fill="white" stroke="black" points="115.5,-168.5 115.5,-187.5 225.5,-187.5 225.5,-168.5 115.5,-168.5"/>
<text text-anchor="middle" x="170.5" y="-175.5" font-family="Helvetica,sans-Serif" font-size="10.00">dji_mission_base.hpp</text>
</a>
</g>
</g>
<!-- Node2&#45;&gt;Node3 -->
<g id="edge2" class="edge"><title>Node2&#45;&gt;Node3</title>
<path fill="none" stroke="midnightblue" d="M258.63,-224.324C241.791,-215.664 215.693,-202.242 196.262,-192.249"/>
<polygon fill="midnightblue" stroke="midnightblue" points="197.822,-189.116 187.328,-187.655 194.62,-195.341 197.822,-189.116"/>
</g>
<!-- Node11 -->
<g id="node11" class="node"><title>Node11</title>
<g id="a_node11"><a xlink:href="dji__telemetry_8hpp.html" target="_top" xlink:title="Enumeration of all telemetry data types, structures and maps. ">
<polygon fill="white" stroke="black" points="244,-168.5 244,-187.5 335,-187.5 335,-168.5 244,-168.5"/>
<text text-anchor="middle" x="289.5" y="-175.5" font-family="Helvetica,sans-Serif" font-size="10.00">dji_telemetry.hpp</text>
</a>
</g>
</g>
<!-- Node2&#45;&gt;Node11 -->
<g id="edge12" class="edge"><title>Node2&#45;&gt;Node11</title>
<path fill="none" stroke="midnightblue" d="M277.812,-224.083C279.667,-216.927 282.335,-206.635 284.654,-197.691"/>
<polygon fill="midnightblue" stroke="midnightblue" points="288.109,-198.309 287.231,-187.751 281.334,-196.553 288.109,-198.309"/>
</g>
<!-- Node4 -->
<g id="node4" class="node"><title>Node4</title>
<g id="a_node4"><a xlink:href="dji__command_8hpp.html" target="_top" xlink:title="All DJI OSDK OpenProtocol Command IDs. ">
<polygon fill="white" stroke="black" points="0,-112.5 0,-131.5 93,-131.5 93,-112.5 0,-112.5"/>
<text text-anchor="middle" x="46.5" y="-119.5" font-family="Helvetica,sans-Serif" font-size="10.00">dji_command.hpp</text>
</a>
</g>
</g>
<!-- Node3&#45;&gt;Node4 -->
<g id="edge3" class="edge"><title>Node3&#45;&gt;Node4</title>
<path fill="none" stroke="midnightblue" d="M150.852,-168.444C130.535,-159.596 98.5972,-145.687 75.4023,-135.586"/>
<polygon fill="midnightblue" stroke="midnightblue" points="76.6221,-132.3 66.0562,-131.516 73.8271,-138.718 76.6221,-132.3"/>
</g>
<!-- Node7 -->
<g id="node7" class="node"><title>Node7</title>
<g id="a_node7"><a xlink:href="dji__type_8hpp.html" target="_top" xlink:title="Data type and Data Structure definitions for use throughout DJI OSDK. ">
<polygon fill="white" stroke="black" points="253,-112.5 253,-131.5 322,-131.5 322,-112.5 253,-112.5"/>
<text text-anchor="middle" x="287.5" y="-119.5" font-family="Helvetica,sans-Serif" font-size="10.00">dji_type.hpp</text>
</a>
</g>
</g>
<!-- Node3&#45;&gt;Node7 -->
<g id="edge7" class="edge"><title>Node3&#45;&gt;Node7</title>
<path fill="none" stroke="midnightblue" d="M189.039,-168.444C208.123,-159.636 238.075,-145.812 259.936,-135.722"/>
<polygon fill="midnightblue" stroke="midnightblue" points="261.435,-138.885 269.048,-131.516 258.501,-132.529 261.435,-138.885"/>
</g>
<!-- Node9 -->
<g id="node9" class="node"><title>Node9</title>
<g id="a_node9"><a xlink:href="dji__vehicle__callback_8hpp.html" target="_top" xlink:title="Type definition for new Vehicle&#45;style callbacks. ">
<polygon fill="white" stroke="black" points="111.5,-112.5 111.5,-131.5 233.5,-131.5 233.5,-112.5 111.5,-112.5"/>
<text text-anchor="middle" x="172.5" y="-119.5" font-family="Helvetica,sans-Serif" font-size="10.00">dji_vehicle_callback.hpp</text>
</a>
</g>
</g>
<!-- Node3&#45;&gt;Node9 -->
<g id="edge10" class="edge"><title>Node3&#45;&gt;Node9</title>
<path fill="none" stroke="midnightblue" d="M170.83,-168.083C171.092,-161.006 171.468,-150.861 171.797,-141.986"/>
<polygon fill="midnightblue" stroke="midnightblue" points="175.303,-141.874 172.176,-131.751 168.308,-141.615 175.303,-141.874"/>
</g>
<!-- Node5 -->
<g id="node5" class="node"><title>Node5</title>
<g id="a_node5"><a xlink:href="dji__error_8hpp.html" target="_top" xlink:title="All DJI OSDK OpenProtocol ACK Error Codes. ">
<polygon fill="white" stroke="black" points="28.5,-56.5 28.5,-75.5 98.5,-75.5 98.5,-56.5 28.5,-56.5"/>
<text text-anchor="middle" x="63.5" y="-63.5" font-family="Helvetica,sans-Serif" font-size="10.00">dji_error.hpp</text>
</a>
</g>
</g>
<!-- Node4&#45;&gt;Node5 -->
<g id="edge4" class="edge"><title>Node4&#45;&gt;Node5</title>
<path fill="none" stroke="midnightblue" d="M49.3072,-112.083C51.5847,-104.849 54.8713,-94.4087 57.7084,-85.3968"/>
<polygon fill="midnightblue" stroke="midnightblue" points="61.0806,-86.3406 60.745,-75.7511 54.4036,-84.2385 61.0806,-86.3406"/>
</g>
<!-- Node6 -->
<g id="node6" class="node"><title>Node6</title>
<polygon fill="white" stroke="#bfbfbf" points="39,-0.5 39,-19.5 88,-19.5 88,-0.5 39,-0.5"/>
<text text-anchor="middle" x="63.5" y="-7.5" font-family="Helvetica,sans-Serif" font-size="10.00">stdint.h</text>
</g>
<!-- Node4&#45;&gt;Node6 -->
<g id="edge6" class="edge"><title>Node4&#45;&gt;Node6</title>
<path fill="none" stroke="midnightblue" d="M38.2211,-112.184C27.55,-99.6986 11.2893,-76.1416 19.5,-56 24.3,-44.2251 33.8286,-33.8564 42.7948,-26.0486"/>
<polygon fill="midnightblue" stroke="midnightblue" points="45.1504,-28.6448 50.7191,-19.6314 40.745,-23.2048 45.1504,-28.6448"/>
</g>
<!-- Node5&#45;&gt;Node6 -->
<g id="edge5" class="edge"><title>Node5&#45;&gt;Node6</title>
<path fill="none" stroke="midnightblue" d="M63.5,-56.083C63.5,-49.0059 63.5,-38.8611 63.5,-29.9865"/>
<polygon fill="midnightblue" stroke="midnightblue" points="67.0001,-29.751 63.5,-19.7511 60.0001,-29.7511 67.0001,-29.751"/>
</g>
<!-- Node7&#45;&gt;Node6 -->
<g id="edge9" class="edge"><title>Node7&#45;&gt;Node6</title>
<path fill="none" stroke="midnightblue" d="M292.603,-112.311C299.86,-98.69 310.879,-72.1971 297.5,-56 272.636,-25.8985 157.228,-15.7221 98.3108,-12.4528"/>
<polygon fill="midnightblue" stroke="midnightblue" points="98.1692,-8.94088 88.0017,-11.9195 97.8075,-15.9315 98.1692,-8.94088"/>
</g>
<!-- Node8 -->
<g id="node8" class="node"><title>Node8</title>
<polygon fill="white" stroke="#bfbfbf" points="246,-56.5 246,-75.5 289,-75.5 289,-56.5 246,-56.5"/>
<text text-anchor="middle" x="267.5" y="-63.5" font-family="Helvetica,sans-Serif" font-size="10.00">cstdio</text>
</g>
<!-- Node7&#45;&gt;Node8 -->
<g id="edge8" class="edge"><title>Node7&#45;&gt;Node8</title>
<path fill="none" stroke="midnightblue" d="M284.197,-112.083C281.518,-104.849 277.651,-94.4087 274.314,-85.3968"/>
<polygon fill="midnightblue" stroke="midnightblue" points="277.496,-83.9129 270.741,-75.7511 270.932,-86.3442 277.496,-83.9129"/>
</g>
<!-- Node10 -->
<g id="node10" class="node"><title>Node10</title>
<polygon fill="white" stroke="#bfbfbf" points="117,-56.5 117,-75.5 228,-75.5 228,-56.5 117,-56.5"/>
<text text-anchor="middle" x="172.5" y="-63.5" font-family="Helvetica,sans-Serif" font-size="10.00">dji_open_protocol.hpp</text>
</g>
<!-- Node9&#45;&gt;Node10 -->
<g id="edge11" class="edge"><title>Node9&#45;&gt;Node10</title>
<path fill="none" stroke="midnightblue" d="M172.5,-112.083C172.5,-105.006 172.5,-94.8611 172.5,-85.9865"/>
<polygon fill="midnightblue" stroke="midnightblue" points="176,-85.751 172.5,-75.7511 169,-85.7511 176,-85.751"/>
</g>
<!-- Node11&#45;&gt;Node7 -->
<g id="edge13" class="edge"><title>Node11&#45;&gt;Node7</title>
<path fill="none" stroke="midnightblue" d="M289.17,-168.083C288.908,-161.006 288.532,-150.861 288.203,-141.986"/>
<polygon fill="midnightblue" stroke="midnightblue" points="291.692,-141.615 287.824,-131.751 284.697,-141.874 291.692,-141.615"/>
</g>
<!-- Node12&#45;&gt;Node3 -->
<g id="edge15" class="edge"><title>Node12&#45;&gt;Node3</title>
<path fill="none" stroke="midnightblue" d="M170.5,-224.083C170.5,-217.006 170.5,-206.861 170.5,-197.986"/>
<polygon fill="midnightblue" stroke="midnightblue" points="174,-197.751 170.5,-187.751 167,-197.751 174,-197.751"/>
</g>
</g>
</svg>
