<?xml version="1.0" encoding="UTF-8" standalone="no"?>
<!DOCTYPE svg PUBLIC "-//W3C//DTD SVG 1.1//EN"
 "http://www.w3.org/Graphics/SVG/1.1/DTD/svg11.dtd">
<!-- Generated by graphviz version 2.40.1 (20161225.0304)
 -->
<!-- Title: osdk&#45;lib/x86/advanced&#45;sensing&#45;2.0.3/inc/dji_advanced_sensing_protocol.hpp Pages: 1 -->
<!--zoomable 442 -->
<svg id="main" version="1.1" xmlns="http://www.w3.org/2000/svg" xmlns:xlink="http://www.w3.org/1999/xlink" xml:space="preserve" onload="init(evt)">
<style type="text/css"><![CDATA[
.edge:hover path { stroke: red; }
.edge:hover polygon { stroke: red; fill: red; }
]]></style>
<script type="text/javascript"><![CDATA[
var edges = document.getElementsByTagName('g');
if (edges && edges.length) {
  for (var i=0;i<edges.length;i++) {
    if (edges[i].id.substr(0,4)=='edge') {
      edges[i].setAttribute('class','edge');
    }
  }
}
]]></script>
        <defs>
                <circle id="rim" cx="0" cy="0" r="7"/>
                <circle id="rim2" cx="0" cy="0" r="3.5"/>
                <g id="zoomPlus">
                        <use xlink:href="#rim" fill="#404040">
                                <set attributeName="fill" to="#808080" begin="zoomplus.mouseover" end="zoomplus.mouseout"/>
                        </use>
                        <path d="M-4,0h8M0,-4v8" fill="none" stroke="white" stroke-width="1.5" pointer-events="none"/>
                </g>
                <g id="zoomMin">
                        <use xlink:href="#rim" fill="#404040">
                                <set attributeName="fill" to="#808080" begin="zoomminus.mouseover" end="zoomminus.mouseout"/>
                        </use>
                        <path d="M-4,0h8" fill="none" stroke="white" stroke-width="1.5" pointer-events="none"/>
                </g>
                <g id="dirArrow">
                        <path fill="none" stroke="white" stroke-width="1.5" d="M0,-3.0v7 M-2.5,-0.5L0,-3.0L2.5,-0.5"/>
                </g>
               <g id="resetDef">
                       <use xlink:href="#rim2" fill="#404040">
                               <set attributeName="fill" to="#808080" begin="reset.mouseover" end="reset.mouseout"/>
                       </use>
               </g>
        </defs>

<script type="text/javascript">
var viewWidth = 1199;
var viewHeight = 442;
var sectionId = 'dynsection-0';
</script>
<script xlink:href="svgpan.js"/>
<svg id="graph" class="graph">
<g id="viewport">
<title>osdk&#45;lib/x86/advanced&#45;sensing&#45;2.0.3/inc/dji_advanced_sensing_protocol.hpp</title>
<polygon fill="#ffffff" stroke="transparent" points="-4,4 -4,-438 1195.4276,-438 1195.4276,4 -4,4"/>
<!-- Node0 -->
<g id="node1" class="node">
<title>Node0</title>
<g id="a_node1"><a xlink:title=" ">
<polygon fill="#bfbfbf" stroke="#000000" points="602.9276,-392.5 602.9276,-433.5 763.9276,-433.5 763.9276,-392.5 602.9276,-392.5"/>
<text text-anchor="start" x="610.9276" y="-421.5" font-family="Helvetica,sans-Serif" font-size="10.00" fill="#000000">osdk&#45;lib/x86/advanced</text>
<text text-anchor="start" x="610.9276" y="-410.5" font-family="Helvetica,sans-Serif" font-size="10.00" fill="#000000">&#45;sensing&#45;2.0.3/inc/dji</text>
<text text-anchor="middle" x="683.4276" y="-399.5" font-family="Helvetica,sans-Serif" font-size="10.00" fill="#000000">_advanced_sensing_protocol.hpp</text>
</a>
</g>
</g>
<!-- Node1 -->
<g id="node2" class="node">
<title>Node1</title>
<g id="a_node2"><a xlink:href="dji__hard__driver_8hpp.html" target="_top" xlink:title="Serial device driver abstraction. Provided as an abstract class. Please inherit and implement for ind...">
<polygon fill="#ffffff" stroke="#000000" points="464.4276,-280.5 464.4276,-299.5 562.4276,-299.5 562.4276,-280.5 464.4276,-280.5"/>
<text text-anchor="middle" x="513.4276" y="-287.5" font-family="Helvetica,sans-Serif" font-size="10.00" fill="#000000">dji_hard_driver.hpp</text>
</a>
</g>
</g>
<!-- Node0&#45;&gt;Node1 -->
<g id="edge1" class="edge">
<title>Node0&#45;&gt;Node1</title>
<path fill="none" stroke="#191970" d="M602.6629,-397.0791C577.5992,-388.5889 551.771,-375.6531 533.4276,-356 521.7096,-343.4453 516.8441,-324.2395 514.8309,-309.7772"/>
<polygon fill="#191970" stroke="#191970" points="518.3115,-309.4086 513.7811,-299.8312 511.3502,-310.1434 518.3115,-309.4086"/>
</g>
<!-- Node15 -->
<g id="node16" class="node">
<title>Node15</title>
<g id="a_node16"><a xlink:href="dji__thread__manager_8hpp.html" target="_top" xlink:title="Data protection and thread management abstract classes.">
<polygon fill="#ffffff" stroke="#000000" points="656.4276,-280.5 656.4276,-299.5 776.4276,-299.5 776.4276,-280.5 656.4276,-280.5"/>
<text text-anchor="middle" x="716.4276" y="-287.5" font-family="Helvetica,sans-Serif" font-size="10.00" fill="#000000">dji_thread_manager.hpp</text>
</a>
</g>
</g>
<!-- Node0&#45;&gt;Node15 -->
<g id="edge19" class="edge">
<title>Node0&#45;&gt;Node15</title>
<path fill="none" stroke="#191970" d="M688.2102,-392.3327C691.8848,-376.7847 697.2008,-354.9833 702.4276,-336 704.8313,-327.2701 707.7115,-317.6798 710.2328,-309.5255"/>
<polygon fill="#191970" stroke="#191970" points="713.6217,-310.4151 713.2704,-299.8261 706.9416,-308.3231 713.6217,-310.4151"/>
</g>
<!-- Node16 -->
<g id="node17" class="node">
<title>Node16</title>
<g id="a_node17"><a xlink:href="dji__protocol__base_8hpp.html" target="_top" xlink:title="Abstract protocol implementation for DJI OSDK.">
<polygon fill="#ffffff" stroke="#000000" points="542.9276,-336.5 542.9276,-355.5 653.9276,-355.5 653.9276,-336.5 542.9276,-336.5"/>
<text text-anchor="middle" x="598.4276" y="-343.5" font-family="Helvetica,sans-Serif" font-size="10.00" fill="#000000">dji_protocol_base.hpp</text>
</a>
</g>
</g>
<!-- Node0&#45;&gt;Node16 -->
<g id="edge20" class="edge">
<title>Node0&#45;&gt;Node16</title>
<path fill="none" stroke="#191970" d="M656.999,-392.168C644.7272,-382.4949 630.3587,-371.1692 618.9244,-362.1562"/>
<polygon fill="#191970" stroke="#191970" points="620.8559,-359.2222 610.8357,-355.7805 616.5226,-364.7197 620.8559,-359.2222"/>
</g>
<!-- Node17 -->
<g id="node18" class="node">
<title>Node17</title>
<g id="a_node18"><a xlink:href="dji__ack_8hpp.html" target="_top" xlink:title="All DJI OSDK ACK parsing.">
<polygon fill="#ffffff" stroke="#000000" points="159.4276,-280.5 159.4276,-299.5 225.4276,-299.5 225.4276,-280.5 159.4276,-280.5"/>
<text text-anchor="middle" x="192.4276" y="-287.5" font-family="Helvetica,sans-Serif" font-size="10.00" fill="#000000">dji_ack.hpp</text>
</a>
</g>
</g>
<!-- Node0&#45;&gt;Node17 -->
<g id="edge50" class="edge">
<title>Node0&#45;&gt;Node17</title>
<path fill="none" stroke="#191970" d="M602.8988,-392.8268C497.7786,-366.4932 317.5516,-321.3447 235.4442,-300.776"/>
<polygon fill="#191970" stroke="#191970" points="236.2458,-297.3688 225.695,-298.3338 234.5447,-304.1589 236.2458,-297.3688"/>
</g>
<!-- Node25 -->
<g id="node26" class="node">
<title>Node25</title>
<g id="a_node26"><a xlink:title=" ">
<polygon fill="#ffffff" stroke="#bfbfbf" points="870.4276,-280.5 870.4276,-299.5 916.4276,-299.5 916.4276,-280.5 870.4276,-280.5"/>
<text text-anchor="middle" x="893.4276" y="-287.5" font-family="Helvetica,sans-Serif" font-size="10.00" fill="#000000">cstring</text>
</a>
</g>
</g>
<!-- Node0&#45;&gt;Node25 -->
<g id="edge54" class="edge">
<title>Node0&#45;&gt;Node25</title>
<path fill="none" stroke="#191970" d="M764.1753,-398.692C794.8699,-390.1976 828.6227,-376.8427 854.4276,-356 869.5911,-343.7524 880.1689,-323.9177 886.4452,-309.1852"/>
<polygon fill="#191970" stroke="#191970" points="889.8363,-310.1272 890.259,-299.5408 883.3268,-307.553 889.8363,-310.1272"/>
</g>
<!-- Node26 -->
<g id="node27" class="node">
<title>Node26</title>
<g id="a_node27"><a xlink:href="linux__usb__device_8hpp.html" target="_top" xlink:title=" ">
<polygon fill="#ffffff" stroke="#000000" points="901.4276,-336.5 901.4276,-355.5 1011.4276,-355.5 1011.4276,-336.5 901.4276,-336.5"/>
<text text-anchor="middle" x="956.4276" y="-343.5" font-family="Helvetica,sans-Serif" font-size="10.00" fill="#000000">linux_usb_device.hpp</text>
</a>
</g>
</g>
<!-- Node0&#45;&gt;Node26 -->
<g id="edge43" class="edge">
<title>Node0&#45;&gt;Node26</title>
<path fill="none" stroke="#191970" d="M764.2286,-393.1697C810.9009,-381.7153 868.0597,-367.6874 907.8571,-357.9202"/>
<polygon fill="#191970" stroke="#191970" points="908.7065,-361.3157 917.5841,-355.533 907.0381,-354.5175 908.7065,-361.3157"/>
</g>
<!-- Node31 -->
<g id="node32" class="node">
<title>Node31</title>
<g id="a_node32"><a xlink:href="posix__thread__manager_8hpp.html" target="_top" xlink:title="Thread safety and data protection for DJI Onboard SDK on linux platforms.">
<polygon fill="#ffffff" stroke="#000000" points="711.4276,-336.5 711.4276,-355.5 845.4276,-355.5 845.4276,-336.5 711.4276,-336.5"/>
<text text-anchor="middle" x="778.4276" y="-343.5" font-family="Helvetica,sans-Serif" font-size="10.00" fill="#000000">posix_thread_manager.hpp</text>
</a>
</g>
</g>
<!-- Node0&#45;&gt;Node31 -->
<g id="edge51" class="edge">
<title>Node0&#45;&gt;Node31</title>
<path fill="none" stroke="#191970" d="M712.7059,-392.3511C726.7921,-382.4167 743.3981,-370.7051 756.3935,-361.5398"/>
<polygon fill="#191970" stroke="#191970" points="758.5834,-364.2784 764.7382,-355.6546 754.5489,-358.5579 758.5834,-364.2784"/>
</g>
<!-- Node2 -->
<g id="node3" class="node">
<title>Node2</title>
<g id="a_node3"><a xlink:href="dji__log_8hpp.html" target="_top" xlink:title="Logging mechanism for printing status and error messages to the screen.">
<polygon fill="#ffffff" stroke="#000000" points="618.9276,-224.5 618.9276,-243.5 681.9276,-243.5 681.9276,-224.5 618.9276,-224.5"/>
<text text-anchor="middle" x="650.4276" y="-231.5" font-family="Helvetica,sans-Serif" font-size="10.00" fill="#000000">dji_log.hpp</text>
</a>
</g>
</g>
<!-- Node1&#45;&gt;Node2 -->
<g id="edge2" class="edge">
<title>Node1&#45;&gt;Node2</title>
<path fill="none" stroke="#191970" d="M536.9788,-280.3733C559.2667,-271.2629 592.9213,-257.5062 617.7913,-247.3404"/>
<polygon fill="#191970" stroke="#191970" points="619.2516,-250.5247 627.1838,-243.5011 616.603,-244.0451 619.2516,-250.5247"/>
</g>
<!-- Node10 -->
<g id="node11" class="node">
<title>Node10</title>
<g id="a_node11"><a xlink:href="dji__memory_8hpp.html" target="_top" xlink:title="Implement memory management for DJI OSDK .">
<polygon fill="#ffffff" stroke="#000000" points="476.4276,-224.5 476.4276,-243.5 562.4276,-243.5 562.4276,-224.5 476.4276,-224.5"/>
<text text-anchor="middle" x="519.4276" y="-231.5" font-family="Helvetica,sans-Serif" font-size="10.00" fill="#000000">dji_memory.hpp</text>
</a>
</g>
</g>
<!-- Node1&#45;&gt;Node10 -->
<g id="edge12" class="edge">
<title>Node1&#45;&gt;Node10</title>
<path fill="none" stroke="#191970" d="M514.4728,-280.2455C515.2557,-272.9382 516.3532,-262.6944 517.3164,-253.7046"/>
<polygon fill="#191970" stroke="#191970" points="520.8092,-253.9587 518.3945,-243.6427 513.849,-253.2129 520.8092,-253.9587"/>
</g>
<!-- Node11 -->
<g id="node12" class="node">
<title>Node11</title>
<g id="a_node12"><a xlink:href="dji__type_8hpp.html" target="_top" xlink:title="Data type and Data Structure definitions for use throughout DJI OSDK.">
<polygon fill="#ffffff" stroke="#000000" points="392.9276,-168.5 392.9276,-187.5 461.9276,-187.5 461.9276,-168.5 392.9276,-168.5"/>
<text text-anchor="middle" x="427.4276" y="-175.5" font-family="Helvetica,sans-Serif" font-size="10.00" fill="#000000">dji_type.hpp</text>
</a>
</g>
</g>
<!-- Node1&#45;&gt;Node11 -->
<g id="edge16" class="edge">
<title>Node1&#45;&gt;Node11</title>
<path fill="none" stroke="#191970" d="M502.4513,-280.4292C492.6278,-271.5519 478.1619,-257.6853 467.4276,-244 455.7166,-229.0693 444.721,-210.459 437.2334,-196.8099"/>
<polygon fill="#191970" stroke="#191970" points="440.2511,-195.0311 432.4413,-187.8717 434.0818,-198.3388 440.2511,-195.0311"/>
</g>
<!-- Node13 -->
<g id="node14" class="node">
<title>Node13</title>
<g id="a_node14"><a xlink:title=" ">
<polygon fill="#ffffff" stroke="#bfbfbf" points="141.4276,-56.5 141.4276,-75.5 187.4276,-75.5 187.4276,-56.5 141.4276,-56.5"/>
<text text-anchor="middle" x="164.4276" y="-63.5" font-family="Helvetica,sans-Serif" font-size="10.00" fill="#000000">cstdint</text>
</a>
</g>
</g>
<!-- Node1&#45;&gt;Node13 -->
<g id="edge17" class="edge">
<title>Node1&#45;&gt;Node13</title>
<path fill="none" stroke="#191970" d="M467.7009,-280.4392C438.3847,-273.1163 400.1982,-261.2971 369.4276,-244 288.7867,-198.6693 211.3014,-118.222 179.5315,-83.1473"/>
<polygon fill="#191970" stroke="#191970" points="182.074,-80.74 172.7941,-75.6279 176.8606,-85.4113 182.074,-80.74"/>
</g>
<!-- Node14 -->
<g id="node15" class="node">
<title>Node14</title>
<g id="a_node15"><a xlink:title=" ">
<polygon fill="#ffffff" stroke="#bfbfbf" points="378.9276,-224.5 378.9276,-243.5 419.9276,-243.5 419.9276,-224.5 378.9276,-224.5"/>
<text text-anchor="middle" x="399.4276" y="-231.5" font-family="Helvetica,sans-Serif" font-size="10.00" fill="#000000">ctime</text>
</a>
</g>
</g>
<!-- Node1&#45;&gt;Node14 -->
<g id="edge18" class="edge">
<title>Node1&#45;&gt;Node14</title>
<path fill="none" stroke="#191970" d="M493.8303,-280.3733C475.6945,-271.4644 448.5141,-258.1127 427.969,-248.0203"/>
<polygon fill="#191970" stroke="#191970" points="429.288,-244.7688 418.7692,-243.5011 426.2016,-251.0517 429.288,-244.7688"/>
</g>
<!-- Node3 -->
<g id="node4" class="node">
<title>Node3</title>
<g id="a_node4"><a xlink:href="dji__singleton_8hpp.html" target="_top" xlink:title="Singleton Template Class implementation for use with the DJI OSDK.">
<polygon fill="#ffffff" stroke="#000000" points="484.9276,-112.5 484.9276,-131.5 573.9276,-131.5 573.9276,-112.5 484.9276,-112.5"/>
<text text-anchor="middle" x="529.4276" y="-119.5" font-family="Helvetica,sans-Serif" font-size="10.00" fill="#000000">dji_singleton.hpp</text>
</a>
</g>
</g>
<!-- Node2&#45;&gt;Node3 -->
<g id="edge3" class="edge">
<title>Node2&#45;&gt;Node3</title>
<path fill="none" stroke="#191970" d="M636.5555,-224.3986C624.0417,-215.5007 605.3627,-201.6211 590.4276,-188 573.6251,-172.6758 556.1824,-153.4074 544.2749,-139.6531"/>
<polygon fill="#191970" stroke="#191970" points="546.7913,-137.2104 537.6313,-131.8863 541.4718,-141.7606 546.7913,-137.2104"/>
</g>
<!-- Node4 -->
<g id="node5" class="node">
<title>Node4</title>
<g id="a_node5"><a xlink:href="dji__platform_8hpp.html" target="_top" xlink:title="Vehicle API for DJI onboardSDK library.">
<polygon fill="#ffffff" stroke="#000000" points="599.4276,-168.5 599.4276,-187.5 685.4276,-187.5 685.4276,-168.5 599.4276,-168.5"/>
<text text-anchor="middle" x="642.4276" y="-175.5" font-family="Helvetica,sans-Serif" font-size="10.00" fill="#000000">dji_platform.hpp</text>
</a>
</g>
</g>
<!-- Node2&#45;&gt;Node4 -->
<g id="edge4" class="edge">
<title>Node2&#45;&gt;Node4</title>
<path fill="none" stroke="#191970" d="M649.0342,-224.2455C647.9902,-216.9382 646.5268,-206.6944 645.2426,-197.7046"/>
<polygon fill="#191970" stroke="#191970" points="648.6843,-197.0472 643.8052,-187.6427 641.7546,-198.0372 648.6843,-197.0472"/>
</g>
<!-- Node4&#45;&gt;Node3 -->
<g id="edge9" class="edge">
<title>Node4&#45;&gt;Node3</title>
<path fill="none" stroke="#191970" d="M623.0023,-168.3733C605.0255,-159.4644 578.0836,-146.1127 557.7186,-136.0203"/>
<polygon fill="#191970" stroke="#191970" points="559.1138,-132.8055 548.5996,-131.5011 556.0055,-139.0776 559.1138,-132.8055"/>
</g>
<!-- Node5 -->
<g id="node6" class="node">
<title>Node5</title>
<g id="a_node6"><a xlink:href="osdk__platform_8h.html" target="_top" xlink:title="This is the header file for define OSDK platform interfaces.">
<polygon fill="#ffffff" stroke="#000000" points="592.4276,-112.5 592.4276,-131.5 678.4276,-131.5 678.4276,-112.5 592.4276,-112.5"/>
<text text-anchor="middle" x="635.4276" y="-119.5" font-family="Helvetica,sans-Serif" font-size="10.00" fill="#000000">osdk_platform.h</text>
</a>
</g>
</g>
<!-- Node4&#45;&gt;Node5 -->
<g id="edge5" class="edge">
<title>Node4&#45;&gt;Node5</title>
<path fill="none" stroke="#191970" d="M641.2083,-168.2455C640.2949,-160.9382 639.0144,-150.6944 637.8907,-141.7046"/>
<polygon fill="#191970" stroke="#191970" points="641.3464,-141.1313 636.633,-131.6427 634.4004,-141.9996 641.3464,-141.1313"/>
</g>
<!-- Node9 -->
<g id="node10" class="node">
<title>Node9</title>
<g id="a_node10"><a xlink:href="osdk__logger_8h.html" target="_top" xlink:title="This is the header file for &quot;osdk_logger.c&quot;, defining the structure and (exported) function prototype...">
<polygon fill="#ffffff" stroke="#000000" points="696.9276,-112.5 696.9276,-131.5 773.9276,-131.5 773.9276,-112.5 696.9276,-112.5"/>
<text text-anchor="middle" x="735.4276" y="-119.5" font-family="Helvetica,sans-Serif" font-size="10.00" fill="#000000">osdk_logger.h</text>
</a>
</g>
</g>
<!-- Node4&#45;&gt;Node9 -->
<g id="edge10" class="edge">
<title>Node4&#45;&gt;Node9</title>
<path fill="none" stroke="#191970" d="M658.627,-168.2455C673.0294,-159.5731 694.3009,-146.7645 710.8076,-136.825"/>
<polygon fill="#191970" stroke="#191970" points="712.6526,-139.7996 719.4139,-131.6427 709.0416,-133.8028 712.6526,-139.7996"/>
</g>
<!-- Node6 -->
<g id="node7" class="node">
<title>Node6</title>
<g id="a_node7"><a xlink:href="osdk__typedef_8h_source.html" target="_top" xlink:title=" ">
<polygon fill="#ffffff" stroke="#000000" points="509.9276,-56.5 509.9276,-75.5 592.9276,-75.5 592.9276,-56.5 509.9276,-56.5"/>
<text text-anchor="middle" x="551.4276" y="-63.5" font-family="Helvetica,sans-Serif" font-size="10.00" fill="#000000">osdk_typedef.h</text>
</a>
</g>
</g>
<!-- Node5&#45;&gt;Node6 -->
<g id="edge6" class="edge">
<title>Node5&#45;&gt;Node6</title>
<path fill="none" stroke="#191970" d="M620.796,-112.2455C608.0282,-103.7337 589.2839,-91.2375 574.4978,-81.3801"/>
<polygon fill="#191970" stroke="#191970" points="576.1536,-78.2775 565.8917,-75.6427 572.2707,-84.1019 576.1536,-78.2775"/>
</g>
<!-- Node7 -->
<g id="node8" class="node">
<title>Node7</title>
<g id="a_node8"><a xlink:title=" ">
<polygon fill="#ffffff" stroke="#bfbfbf" points="525.4276,-.5 525.4276,-19.5 577.4276,-19.5 577.4276,-.5 525.4276,-.5"/>
<text text-anchor="middle" x="551.4276" y="-7.5" font-family="Helvetica,sans-Serif" font-size="10.00" fill="#000000">stddef.h</text>
</a>
</g>
</g>
<!-- Node6&#45;&gt;Node7 -->
<g id="edge7" class="edge">
<title>Node6&#45;&gt;Node7</title>
<path fill="none" stroke="#191970" d="M551.4276,-56.2455C551.4276,-48.9382 551.4276,-38.6944 551.4276,-29.7046"/>
<polygon fill="#191970" stroke="#191970" points="554.9277,-29.6426 551.4276,-19.6427 547.9277,-29.6427 554.9277,-29.6426"/>
</g>
<!-- Node8 -->
<g id="node9" class="node">
<title>Node8</title>
<g id="a_node9"><a xlink:title=" ">
<polygon fill="#ffffff" stroke="#bfbfbf" points="372.9276,-.5 372.9276,-19.5 421.9276,-19.5 421.9276,-.5 372.9276,-.5"/>
<text text-anchor="middle" x="397.4276" y="-7.5" font-family="Helvetica,sans-Serif" font-size="10.00" fill="#000000">stdint.h</text>
</a>
</g>
</g>
<!-- Node6&#45;&gt;Node8 -->
<g id="edge8" class="edge">
<title>Node6&#45;&gt;Node8</title>
<path fill="none" stroke="#191970" d="M524.9541,-56.3733C499.1064,-46.9741 459.6587,-32.6295 431.4858,-22.3848"/>
<polygon fill="#191970" stroke="#191970" points="432.6257,-19.0751 422.0317,-18.9469 430.2335,-25.6537 432.6257,-19.0751"/>
</g>
<!-- Node9&#45;&gt;Node6 -->
<g id="edge11" class="edge">
<title>Node9&#45;&gt;Node6</title>
<path fill="none" stroke="#191970" d="M703.7969,-112.3733C673.0681,-103.021 626.2517,-88.7725 592.6255,-78.5385"/>
<polygon fill="#191970" stroke="#191970" points="593.2315,-75.0644 582.6456,-75.5011 591.1933,-81.7612 593.2315,-75.0644"/>
</g>
<!-- Node10&#45;&gt;Node11 -->
<g id="edge13" class="edge">
<title>Node10&#45;&gt;Node11</title>
<path fill="none" stroke="#191970" d="M503.4025,-224.2455C489.2868,-215.6534 468.5013,-203.0014 452.2378,-193.1018"/>
<polygon fill="#191970" stroke="#191970" points="453.631,-189.8525 443.2692,-187.6427 449.9914,-195.8319 453.631,-189.8525"/>
</g>
<!-- Node11&#45;&gt;Node8 -->
<g id="edge15" class="edge">
<title>Node11&#45;&gt;Node8</title>
<path fill="none" stroke="#191970" d="M425.7288,-168.4862C420.9659,-141.8144 407.4119,-65.9117 400.9446,-29.695"/>
<polygon fill="#191970" stroke="#191970" points="404.3861,-29.0569 399.1826,-19.8279 397.4951,-30.2875 404.3861,-29.0569"/>
</g>
<!-- Node12 -->
<g id="node13" class="node">
<title>Node12</title>
<g id="a_node13"><a xlink:title=" ">
<polygon fill="#ffffff" stroke="#bfbfbf" points="355.9276,-112.5 355.9276,-131.5 398.9276,-131.5 398.9276,-112.5 355.9276,-112.5"/>
<text text-anchor="middle" x="377.4276" y="-119.5" font-family="Helvetica,sans-Serif" font-size="10.00" fill="#000000">cstdio</text>
</a>
</g>
</g>
<!-- Node11&#45;&gt;Node12 -->
<g id="edge14" class="edge">
<title>Node11&#45;&gt;Node12</title>
<path fill="none" stroke="#191970" d="M418.7183,-168.2455C411.6203,-160.2958 401.4192,-148.8706 392.9326,-139.3656"/>
<polygon fill="#191970" stroke="#191970" points="395.3082,-136.771 386.0372,-131.6427 390.0866,-141.4331 395.3082,-136.771"/>
</g>
<!-- Node16&#45;&gt;Node1 -->
<g id="edge38" class="edge">
<title>Node16&#45;&gt;Node1</title>
<path fill="none" stroke="#191970" d="M583.6218,-336.2455C570.702,-327.7337 551.7345,-315.2375 536.7724,-305.3801"/>
<polygon fill="#191970" stroke="#191970" points="538.34,-302.2216 528.0638,-299.6427 534.4889,-308.067 538.34,-302.2216"/>
</g>
<!-- Node16&#45;&gt;Node2 -->
<g id="edge39" class="edge">
<title>Node16&#45;&gt;Node2</title>
<path fill="none" stroke="#191970" d="M602.8611,-336.4509C611.4574,-317.936 630.5288,-276.8591 641.7368,-252.7187"/>
<polygon fill="#191970" stroke="#191970" points="644.9687,-254.0689 646.0054,-243.5249 638.6197,-251.1211 644.9687,-254.0689"/>
</g>
<!-- Node16&#45;&gt;Node11 -->
<g id="edge41" class="edge">
<title>Node16&#45;&gt;Node11</title>
<path fill="none" stroke="#191970" d="M599.2732,-336.3257C600.6995,-313.6151 600.9652,-256.3686 571.4276,-224 557.9255,-209.2037 509.3258,-195.6975 472.2855,-187.2038"/>
<polygon fill="#191970" stroke="#191970" points="472.7064,-183.7115 462.1836,-184.9441 471.1784,-190.5427 472.7064,-183.7115"/>
</g>
<!-- Node16&#45;&gt;Node15 -->
<g id="edge40" class="edge">
<title>Node16&#45;&gt;Node15</title>
<path fill="none" stroke="#191970" d="M618.7126,-336.3733C637.5697,-327.4241 665.8736,-313.9917 687.1731,-303.8835"/>
<polygon fill="#191970" stroke="#191970" points="688.8738,-306.9506 696.4074,-299.5011 685.8725,-300.6266 688.8738,-306.9506"/>
</g>
<!-- Node16&#45;&gt;Node17 -->
<g id="edge21" class="edge">
<title>Node16&#45;&gt;Node17</title>
<path fill="none" stroke="#191970" d="M542.8264,-338.3309C460.8961,-327.0301 309.466,-306.1432 235.4361,-295.9322"/>
<polygon fill="#191970" stroke="#191970" points="235.9036,-292.4636 225.5192,-294.5643 234.9471,-299.398 235.9036,-292.4636"/>
</g>
<!-- Node24 -->
<g id="node25" class="node">
<title>Node24</title>
<g id="a_node25"><a xlink:href="dji__aes_8hpp.html" target="_top" xlink:title=" ">
<polygon fill="#ffffff" stroke="#000000" points="313.4276,-56.5 313.4276,-75.5 379.4276,-75.5 379.4276,-56.5 313.4276,-56.5"/>
<text text-anchor="middle" x="346.4276" y="-63.5" font-family="Helvetica,sans-Serif" font-size="10.00" fill="#000000">dji_aes.hpp</text>
</a>
</g>
</g>
<!-- Node16&#45;&gt;Node24 -->
<g id="edge36" class="edge">
<title>Node16&#45;&gt;Node24</title>
<path fill="none" stroke="#191970" d="M542.7657,-338.0563C488.5362,-327.0847 408.6974,-301.6385 369.4276,-244 336.1685,-195.1836 339.5546,-121.0582 343.5515,-85.8756"/>
<polygon fill="#191970" stroke="#191970" points="347.0777,-85.8938 344.8783,-75.5298 340.1346,-85.0033 347.0777,-85.8938"/>
</g>
<!-- Node16&#45;&gt;Node25 -->
<g id="edge42" class="edge">
<title>Node16&#45;&gt;Node25</title>
<path fill="none" stroke="#191970" d="M654.0175,-338.4182C705.3509,-330.935 783.83,-318.278 860.3074,-300.0421"/>
<polygon fill="#191970" stroke="#191970" points="861.2101,-303.4248 870.1069,-297.6717 859.5643,-296.621 861.2101,-303.4248"/>
</g>
<!-- Node17&#45;&gt;Node11 -->
<g id="edge31" class="edge">
<title>Node17&#45;&gt;Node11</title>
<path fill="none" stroke="#191970" d="M212.4636,-280.4509C254.0001,-260.6548 349.6546,-215.0663 398.1287,-191.9638"/>
<polygon fill="#191970" stroke="#191970" points="399.921,-194.9868 407.4424,-187.5249 396.9094,-188.6677 399.921,-194.9868"/>
</g>
<!-- Node18 -->
<g id="node19" class="node">
<title>Node18</title>
<g id="a_node19"><a xlink:href="dji__command_8hpp.html" target="_top" xlink:title="All DJI OSDK OpenProtocol Command IDs.">
<polygon fill="#ffffff" stroke="#000000" points="16.9276,-168.5 16.9276,-187.5 109.9276,-187.5 109.9276,-168.5 16.9276,-168.5"/>
<text text-anchor="middle" x="63.4276" y="-175.5" font-family="Helvetica,sans-Serif" font-size="10.00" fill="#000000">dji_command.hpp</text>
</a>
</g>
</g>
<!-- Node17&#45;&gt;Node18 -->
<g id="edge22" class="edge">
<title>Node17&#45;&gt;Node18</title>
<path fill="none" stroke="#191970" d="M159.1973,-285.3757C116.2303,-278.6374 45.0432,-264.6323 29.4276,-244 17.7451,-228.5643 31.4724,-208.5239 44.816,-194.5944"/>
<polygon fill="#191970" stroke="#191970" points="47.3174,-197.0437 52.0258,-187.5526 42.4263,-192.036 47.3174,-197.0437"/>
</g>
<!-- Node20 -->
<g id="node21" class="node">
<title>Node20</title>
<g id="a_node21"><a xlink:title=" ">
<polygon fill="#ffffff" stroke="#bfbfbf" points="75.9276,-56.5 75.9276,-75.5 110.9276,-75.5 110.9276,-56.5 75.9276,-56.5"/>
<text text-anchor="middle" x="93.4276" y="-63.5" font-family="Helvetica,sans-Serif" font-size="10.00" fill="#000000">map</text>
</a>
</g>
</g>
<!-- Node17&#45;&gt;Node20 -->
<g id="edge35" class="edge">
<title>Node17&#45;&gt;Node20</title>
<path fill="none" stroke="#191970" d="M159.0722,-285.1069C114.9406,-277.969 40.4942,-263.4091 21.4276,-244 -2.6415,-219.4984 -4.3576,-200.2609 7.4276,-168 20.4782,-132.2754 52.1689,-100.415 73.2183,-82.1595"/>
<polygon fill="#191970" stroke="#191970" points="75.5754,-84.7502 80.9698,-75.6315 71.0663,-79.396 75.5754,-84.7502"/>
</g>
<!-- Node21 -->
<g id="node22" class="node">
<title>Node21</title>
<g id="a_node22"><a xlink:href="dji__mission__type_8hpp.html" target="_top" xlink:title="Mission related data struct for DJI OSDK library.">
<polygon fill="#ffffff" stroke="#000000" points="138.4276,-224.5 138.4276,-243.5 246.4276,-243.5 246.4276,-224.5 138.4276,-224.5"/>
<text text-anchor="middle" x="192.4276" y="-231.5" font-family="Helvetica,sans-Serif" font-size="10.00" fill="#000000">dji_mission_type.hpp</text>
</a>
</g>
</g>
<!-- Node17&#45;&gt;Node21 -->
<g id="edge28" class="edge">
<title>Node17&#45;&gt;Node21</title>
<path fill="none" stroke="#191970" d="M192.4276,-280.2455C192.4276,-272.9382 192.4276,-262.6944 192.4276,-253.7046"/>
<polygon fill="#191970" stroke="#191970" points="195.9277,-253.6426 192.4276,-243.6427 188.9277,-253.6427 195.9277,-253.6426"/>
</g>
<!-- Node23 -->
<g id="node24" class="node">
<title>Node23</title>
<g id="a_node24"><a xlink:href="dji__version_8hpp.html" target="_top" xlink:title="Drone/SDK Version definition for DJI onboardSDK library.">
<polygon fill="#ffffff" stroke="#000000" points="38.4276,-224.5 38.4276,-243.5 120.4276,-243.5 120.4276,-224.5 38.4276,-224.5"/>
<text text-anchor="middle" x="79.4276" y="-231.5" font-family="Helvetica,sans-Serif" font-size="10.00" fill="#000000">dji_version.hpp</text>
</a>
</g>
</g>
<!-- Node17&#45;&gt;Node23 -->
<g id="edge32" class="edge">
<title>Node17&#45;&gt;Node23</title>
<path fill="none" stroke="#191970" d="M173.0023,-280.3733C155.0255,-271.4644 128.0836,-258.1127 107.7186,-248.0203"/>
<polygon fill="#191970" stroke="#191970" points="109.1138,-244.8055 98.5996,-243.5011 106.0055,-251.0776 109.1138,-244.8055"/>
</g>
<!-- Node18&#45;&gt;Node8 -->
<g id="edge27" class="edge">
<title>Node18&#45;&gt;Node8</title>
<path fill="none" stroke="#191970" d="M59.8082,-168.3465C51.8155,-145.1715 35.6937,-86.0873 66.4276,-56 87.4069,-35.4622 282.1396,-18.6443 362.7462,-12.5033"/>
<polygon fill="#191970" stroke="#191970" points="363.1775,-15.9808 372.8872,-11.7413 362.653,-9.0005 363.1775,-15.9808"/>
</g>
<!-- Node19 -->
<g id="node20" class="node">
<title>Node19</title>
<g id="a_node20"><a xlink:href="dji__error_8hpp.html" target="_top" xlink:title="All DJI OSDK OpenProtocol ACK Error Codes.">
<polygon fill="#ffffff" stroke="#000000" points="66.4276,-112.5 66.4276,-131.5 136.4276,-131.5 136.4276,-112.5 66.4276,-112.5"/>
<text text-anchor="middle" x="101.4276" y="-119.5" font-family="Helvetica,sans-Serif" font-size="10.00" fill="#000000">dji_error.hpp</text>
</a>
</g>
</g>
<!-- Node18&#45;&gt;Node19 -->
<g id="edge23" class="edge">
<title>Node18&#45;&gt;Node19</title>
<path fill="none" stroke="#191970" d="M70.0467,-168.2455C75.3322,-160.4564 82.8818,-149.3308 89.2514,-139.9439"/>
<polygon fill="#191970" stroke="#191970" points="92.1655,-141.8827 94.8844,-131.6427 86.3732,-137.9522 92.1655,-141.8827"/>
</g>
<!-- Node19&#45;&gt;Node6 -->
<g id="edge26" class="edge">
<title>Node19&#45;&gt;Node6</title>
<path fill="none" stroke="#191970" d="M136.7384,-117.6058C215.8225,-107.7642 407.46,-83.916 499.8843,-72.4143"/>
<polygon fill="#191970" stroke="#191970" points="500.3579,-75.8824 509.8491,-71.1742 499.4934,-68.936 500.3579,-75.8824"/>
</g>
<!-- Node19&#45;&gt;Node13 -->
<g id="edge24" class="edge">
<title>Node19&#45;&gt;Node13</title>
<path fill="none" stroke="#191970" d="M112.4014,-112.2455C121.6159,-104.0549 134.9809,-92.1749 145.8573,-82.5069"/>
<polygon fill="#191970" stroke="#191970" points="148.4308,-84.9023 153.5796,-75.6427 143.7802,-79.6704 148.4308,-84.9023"/>
</g>
<!-- Node19&#45;&gt;Node20 -->
<g id="edge25" class="edge">
<title>Node19&#45;&gt;Node20</title>
<path fill="none" stroke="#191970" d="M100.0342,-112.2455C98.9902,-104.9382 97.5268,-94.6944 96.2426,-85.7046"/>
<polygon fill="#191970" stroke="#191970" points="99.6843,-85.0472 94.8052,-75.6427 92.7546,-86.0372 99.6843,-85.0472"/>
</g>
<!-- Node21&#45;&gt;Node11 -->
<g id="edge30" class="edge">
<title>Node21&#45;&gt;Node11</title>
<path fill="none" stroke="#191970" d="M232.5586,-224.4369C274.3071,-214.4883 339.5136,-198.9497 382.8437,-188.6243"/>
<polygon fill="#191970" stroke="#191970" points="383.9034,-191.9698 392.8197,-186.247 382.2807,-185.1605 383.9034,-191.9698"/>
</g>
<!-- Node22 -->
<g id="node23" class="node">
<title>Node22</title>
<g id="a_node23"><a xlink:title=" ">
<polygon fill="#ffffff" stroke="#bfbfbf" points="192.4276,-168.5 192.4276,-187.5 236.4276,-187.5 236.4276,-168.5 192.4276,-168.5"/>
<text text-anchor="middle" x="214.4276" y="-175.5" font-family="Helvetica,sans-Serif" font-size="10.00" fill="#000000">vector</text>
</a>
</g>
</g>
<!-- Node21&#45;&gt;Node22 -->
<g id="edge29" class="edge">
<title>Node21&#45;&gt;Node22</title>
<path fill="none" stroke="#191970" d="M196.2598,-224.2455C199.1936,-216.7776 203.3323,-206.2427 206.9187,-197.1137"/>
<polygon fill="#191970" stroke="#191970" points="210.2405,-198.23 210.6395,-187.6427 203.7252,-195.6704 210.2405,-198.23"/>
</g>
<!-- Node23&#45;&gt;Node13 -->
<g id="edge34" class="edge">
<title>Node23&#45;&gt;Node13</title>
<path fill="none" stroke="#191970" d="M88.8838,-224.3505C97.3134,-215.4202 109.6421,-201.5201 118.4276,-188 139.9157,-154.932 153.461,-110.3696 159.9224,-85.2726"/>
<polygon fill="#191970" stroke="#191970" points="163.3338,-86.0571 162.3283,-75.5101 156.5371,-84.382 163.3338,-86.0571"/>
</g>
<!-- Node23&#45;&gt;Node18 -->
<g id="edge33" class="edge">
<title>Node23&#45;&gt;Node18</title>
<path fill="none" stroke="#191970" d="M76.6407,-224.2455C74.5299,-216.8579 71.5616,-206.4689 68.973,-197.4087"/>
<polygon fill="#191970" stroke="#191970" points="72.2953,-196.2964 66.1827,-187.6427 65.5646,-198.2195 72.2953,-196.2964"/>
</g>
<!-- Node24&#45;&gt;Node8 -->
<g id="edge37" class="edge">
<title>Node24&#45;&gt;Node8</title>
<path fill="none" stroke="#191970" d="M355.3112,-56.2455C362.6242,-48.2155 373.1668,-36.6394 381.8743,-27.0781"/>
<polygon fill="#191970" stroke="#191970" points="384.5003,-29.3928 388.6459,-19.6427 379.3249,-24.6795 384.5003,-29.3928"/>
</g>
<!-- Node26&#45;&gt;Node1 -->
<g id="edge49" class="edge">
<title>Node26&#45;&gt;Node1</title>
<path fill="none" stroke="#191970" d="M901.2171,-339.0208C817.4138,-328.4271 658.7709,-308.373 572.649,-297.4862"/>
<polygon fill="#191970" stroke="#191970" points="572.8757,-293.9871 562.5157,-296.2053 571.9978,-300.9318 572.8757,-293.9871"/>
</g>
<!-- Node26&#45;&gt;Node25 -->
<g id="edge44" class="edge">
<title>Node26&#45;&gt;Node25</title>
<path fill="none" stroke="#191970" d="M945.4539,-336.2455C936.2394,-328.0549 922.8744,-316.1749 911.9979,-306.5069"/>
<polygon fill="#191970" stroke="#191970" points="914.0751,-303.6704 904.2757,-299.6427 909.4245,-308.9023 914.0751,-303.6704"/>
</g>
<!-- Node27 -->
<g id="node28" class="node">
<title>Node27</title>
<g id="a_node28"><a xlink:title=" ">
<polygon fill="#ffffff" stroke="#bfbfbf" points="934.4276,-280.5 934.4276,-299.5 978.4276,-299.5 978.4276,-280.5 934.4276,-280.5"/>
<text text-anchor="middle" x="956.4276" y="-287.5" font-family="Helvetica,sans-Serif" font-size="10.00" fill="#000000">fcntl.h</text>
</a>
</g>
</g>
<!-- Node26&#45;&gt;Node27 -->
<g id="edge45" class="edge">
<title>Node26&#45;&gt;Node27</title>
<path fill="none" stroke="#191970" d="M956.4276,-336.2455C956.4276,-328.9382 956.4276,-318.6944 956.4276,-309.7046"/>
<polygon fill="#191970" stroke="#191970" points="959.9277,-309.6426 956.4276,-299.6427 952.9277,-309.6427 959.9277,-309.6426"/>
</g>
<!-- Node28 -->
<g id="node29" class="node">
<title>Node28</title>
<g id="a_node29"><a xlink:title=" ">
<polygon fill="#ffffff" stroke="#bfbfbf" points="996.9276,-280.5 996.9276,-299.5 1053.9276,-299.5 1053.9276,-280.5 996.9276,-280.5"/>
<text text-anchor="middle" x="1025.4276" y="-287.5" font-family="Helvetica,sans-Serif" font-size="10.00" fill="#000000">termios.h</text>
</a>
</g>
</g>
<!-- Node26&#45;&gt;Node28 -->
<g id="edge46" class="edge">
<title>Node26&#45;&gt;Node28</title>
<path fill="none" stroke="#191970" d="M968.4465,-336.2455C978.6375,-327.9746 993.4639,-315.9416 1005.4383,-306.2232"/>
<polygon fill="#191970" stroke="#191970" points="1007.9875,-308.662 1013.5465,-299.6427 1003.5763,-303.2268 1007.9875,-308.662"/>
</g>
<!-- Node29 -->
<g id="node30" class="node">
<title>Node29</title>
<g id="a_node30"><a xlink:title=" ">
<polygon fill="#ffffff" stroke="#bfbfbf" points="1071.9276,-280.5 1071.9276,-299.5 1122.9276,-299.5 1122.9276,-280.5 1071.9276,-280.5"/>
<text text-anchor="middle" x="1097.4276" y="-287.5" font-family="Helvetica,sans-Serif" font-size="10.00" fill="#000000">unistd.h</text>
</a>
</g>
</g>
<!-- Node26&#45;&gt;Node29 -->
<g id="edge47" class="edge">
<title>Node26&#45;&gt;Node29</title>
<path fill="none" stroke="#191970" d="M980.6664,-336.3733C1003.7066,-327.2226 1038.549,-313.3844 1064.1777,-303.2057"/>
<polygon fill="#191970" stroke="#191970" points="1065.5033,-306.4452 1073.5052,-299.5011 1062.9194,-299.9395 1065.5033,-306.4452"/>
</g>
<!-- Node30 -->
<g id="node31" class="node">
<title>Node30</title>
<g id="a_node31"><a xlink:title=" ">
<polygon fill="#ffffff" stroke="#bfbfbf" points="1141.4276,-280.5 1141.4276,-299.5 1191.4276,-299.5 1191.4276,-280.5 1141.4276,-280.5"/>
<text text-anchor="middle" x="1166.4276" y="-287.5" font-family="Helvetica,sans-Serif" font-size="10.00" fill="#000000">libusb.h</text>
</a>
</g>
</g>
<!-- Node26&#45;&gt;Node30 -->
<g id="edge48" class="edge">
<title>Node26&#45;&gt;Node30</title>
<path fill="none" stroke="#191970" d="M994.2824,-336.4605C1027.8929,-327.9117 1078.5801,-314.8278 1131.331,-300.2507"/>
<polygon fill="#191970" stroke="#191970" points="1132.5009,-303.5584 1141.2011,-297.5123 1130.6294,-296.8133 1132.5009,-303.5584"/>
</g>
<!-- Node31&#45;&gt;Node15 -->
<g id="edge52" class="edge">
<title>Node31&#45;&gt;Node15</title>
<path fill="none" stroke="#191970" d="M767.6281,-336.2455C758.5599,-328.0549 745.407,-316.1749 734.7032,-306.5069"/>
<polygon fill="#191970" stroke="#191970" points="736.8705,-303.7482 727.1035,-299.6427 732.1785,-308.9429 736.8705,-303.7482"/>
</g>
<!-- Node32 -->
<g id="node33" class="node">
<title>Node32</title>
<g id="a_node33"><a xlink:title=" ">
<polygon fill="#ffffff" stroke="#bfbfbf" points="794.9276,-280.5 794.9276,-299.5 851.9276,-299.5 851.9276,-280.5 794.9276,-280.5"/>
<text text-anchor="middle" x="823.4276" y="-287.5" font-family="Helvetica,sans-Serif" font-size="10.00" fill="#000000">pthread.h</text>
</a>
</g>
</g>
<!-- Node31&#45;&gt;Node32 -->
<g id="edge53" class="edge">
<title>Node31&#45;&gt;Node32</title>
<path fill="none" stroke="#191970" d="M786.266,-336.2455C792.5897,-328.3761 801.65,-317.101 809.2412,-307.6542"/>
<polygon fill="#191970" stroke="#191970" points="812.1434,-309.6302 815.6791,-299.6427 806.6868,-305.2454 812.1434,-309.6302"/>
</g>
</g>
</svg>
        <g id="navigator" transform="translate(0 0)" fill="#404254">
                <rect fill="#f2f5e9" fill-opacity="0.5" stroke="#606060" stroke-width=".5" x="0" y="0" width="60" height="60"/>
                <use id="zoomplus" xlink:href="#zoomPlus" x="17" y="9" onmousedown="handleZoom(evt,'in')"/>
                <use id="zoomminus" xlink:href="#zoomMin" x="42" y="9" onmousedown="handleZoom(evt,'out')"/>
                <use id="reset" xlink:href="#resetDef" x="30" y="36" onmousedown="handleReset()"/>
                <g id="arrowUp" xlink:href="#dirArrow" transform="translate(30 24)" onmousedown="handlePan(0,-1)">
                  <use xlink:href="#rim" fill="#404040">
                        <set attributeName="fill" to="#808080" begin="arrowUp.mouseover" end="arrowUp.mouseout"/>
                  </use>
                  <path fill="none" stroke="white" stroke-width="1.5" d="M0,-3.0v7 M-2.5,-0.5L0,-3.0L2.5,-0.5"/>
                </g>
                <g id="arrowRight" xlink:href="#dirArrow" transform="rotate(90) translate(36 -43)" onmousedown="handlePan(1,0)">
                  <use xlink:href="#rim" fill="#404040">
                        <set attributeName="fill" to="#808080" begin="arrowRight.mouseover" end="arrowRight.mouseout"/>
                  </use>
                  <path fill="none" stroke="white" stroke-width="1.5" d="M0,-3.0v7 M-2.5,-0.5L0,-3.0L2.5,-0.5"/>
                </g>
                <g id="arrowDown" xlink:href="#dirArrow" transform="rotate(180) translate(-30 -48)" onmousedown="handlePan(0,1)">
                  <use xlink:href="#rim" fill="#404040">
                        <set attributeName="fill" to="#808080" begin="arrowDown.mouseover" end="arrowDown.mouseout"/>
                  </use>
                  <path fill="none" stroke="white" stroke-width="1.5" d="M0,-3.0v7 M-2.5,-0.5L0,-3.0L2.5,-0.5"/>
                </g>
                <g id="arrowLeft" xlink:href="#dirArrow" transform="rotate(270) translate(-36 17)" onmousedown="handlePan(-1,0)">
                  <use xlink:href="#rim" fill="#404040">
                        <set attributeName="fill" to="#808080" begin="arrowLeft.mouseover" end="arrowLeft.mouseout"/>
                  </use>
                  <path fill="none" stroke="white" stroke-width="1.5" d="M0,-3.0v7 M-2.5,-0.5L0,-3.0L2.5,-0.5"/>
                </g>
        </g>
        <svg viewBox="0 0 15 15" width="100%" height="30px" preserveAspectRatio="xMaxYMin meet">
         <g id="arrow_out" transform="scale(0.3 0.3)">
          <a xlink:href="dji__advanced__sensing__protocol_8hpp__incl_org.svg" target="_base">
           <rect id="button" ry="5" rx="5" y="6" x="6" height="38" width="38"
                fill="#f2f5e9" fill-opacity="0.5" stroke="#606060" stroke-width="1.0"/>
           <path id="arrow"
             d="M 11.500037,31.436501 C 11.940474,20.09759 22.043105,11.32322 32.158766,21.979434 L 37.068811,17.246167 C 37.068811,17.246167 37.088388,32 37.088388,32 L 22.160133,31.978069 C 22.160133,31.978069 26.997745,27.140456 26.997745,27.140456 C 18.528582,18.264221 13.291696,25.230495 11.500037,31.436501 z"
             style="fill:#404040;"/>
          </a>
         </g>
        </svg>
</svg>
