<?xml version="1.0" encoding="UTF-8" standalone="no"?>
<!DOCTYPE svg PUBLIC "-//W3C//DTD SVG 1.1//EN"
 "http://www.w3.org/Graphics/SVG/1.1/DTD/svg11.dtd">
<!-- Generated by graphviz version 2.40.1 (20161225.0304)
 -->
<!-- Title: osdk&#45;lib/x86/osdk&#45;core/inc/dji_type.hpp Pages: 1 -->
<svg width="123pt" height="95pt"
 viewBox="0.00 0.00 123.00 95.00" xmlns="http://www.w3.org/2000/svg" xmlns:xlink="http://www.w3.org/1999/xlink">
<g id="graph0" class="graph" transform="scale(1 1) rotate(0) translate(4 91)">
<title>osdk&#45;lib/x86/osdk&#45;core/inc/dji_type.hpp</title>
<polygon fill="#ffffff" stroke="transparent" points="-4,4 -4,-91 119,-91 119,4 -4,4"/>
<!-- Node0 -->
<g id="node1" class="node">
<title>Node0</title>
<g id="a_node1"><a xlink:title="Data type and Data Structure definitions for use throughout DJI OSDK.">
<polygon fill="#bfbfbf" stroke="#000000" points="0,-56.5 0,-86.5 115,-86.5 115,-56.5 0,-56.5"/>
<text text-anchor="start" x="8" y="-74.5" font-family="Helvetica,sans-Serif" font-size="10.00" fill="#000000">osdk&#45;lib/x86/osdk&#45;core</text>
<text text-anchor="middle" x="57.5" y="-63.5" font-family="Helvetica,sans-Serif" font-size="10.00" fill="#000000">/inc/dji_type.hpp</text>
</a>
</g>
</g>
<!-- Node1 -->
<g id="node2" class="node">
<title>Node1</title>
<g id="a_node2"><a xlink:title=" ">
<polygon fill="#ffffff" stroke="#bfbfbf" points="4,-.5 4,-19.5 47,-19.5 47,-.5 4,-.5"/>
<text text-anchor="middle" x="25.5" y="-7.5" font-family="Helvetica,sans-Serif" font-size="10.00" fill="#000000">cstdio</text>
</a>
</g>
</g>
<!-- Node0&#45;&gt;Node1 -->
<g id="edge1" class="edge">
<title>Node0&#45;&gt;Node1</title>
<path fill="none" stroke="#191970" d="M49.5899,-56.2977C45.2868,-48.0277 39.9242,-37.7215 35.3518,-28.9339"/>
<polygon fill="#191970" stroke="#191970" points="38.3443,-27.1024 30.6236,-19.8469 32.1346,-30.3335 38.3443,-27.1024"/>
</g>
<!-- Node2 -->
<g id="node3" class="node">
<title>Node2</title>
<g id="a_node3"><a xlink:title=" ">
<polygon fill="#ffffff" stroke="#bfbfbf" points="65,-.5 65,-19.5 114,-19.5 114,-.5 65,-.5"/>
<text text-anchor="middle" x="89.5" y="-7.5" font-family="Helvetica,sans-Serif" font-size="10.00" fill="#000000">stdint.h</text>
</a>
</g>
</g>
<!-- Node0&#45;&gt;Node2 -->
<g id="edge2" class="edge">
<title>Node0&#45;&gt;Node2</title>
<path fill="none" stroke="#191970" d="M65.4101,-56.2977C69.7132,-48.0277 75.0758,-37.7215 79.6482,-28.9339"/>
<polygon fill="#191970" stroke="#191970" points="82.8654,-30.3335 84.3764,-19.8469 76.6557,-27.1024 82.8654,-30.3335"/>
</g>
</g>
</svg>
