<?xml version="1.0" encoding="UTF-8" standalone="no"?>
<!DOCTYPE svg PUBLIC "-//W3C//DTD SVG 1.1//EN"
 "http://www.w3.org/Graphics/SVG/1.1/DTD/svg11.dtd">
<!-- Generated by graphviz version 2.38.0 (20140413.2041)
 -->
<!-- Title: osdk&#45;core/api/src/dji_mobile_communication.cpp Pages: 1 -->
<svg width="1832pt" height="431pt"
 viewBox="0.00 0.00 1831.50 431.00" xmlns="http://www.w3.org/2000/svg" xmlns:xlink="http://www.w3.org/1999/xlink">
<g id="graph0" class="graph" transform="scale(1 1) rotate(0) translate(4 427)">
<title>osdk&#45;core/api/src/dji_mobile_communication.cpp</title>
<polygon fill="white" stroke="none" points="-4,4 -4,-427 1827.5,-427 1827.5,4 -4,4"/>
<!-- Node1 -->
<g id="node1" class="node"><title>Node1</title>
<polygon fill="#bfbfbf" stroke="black" points="796,-392.5 796,-422.5 936,-422.5 936,-392.5 796,-392.5"/>
<text text-anchor="start" x="804" y="-410.5" font-family="Helvetica,sans-Serif" font-size="10.00">osdk&#45;core/api/src/dji</text>
<text text-anchor="middle" x="866" y="-399.5" font-family="Helvetica,sans-Serif" font-size="10.00">_mobile_communication.cpp</text>
</g>
<!-- Node2 -->
<g id="node2" class="node"><title>Node2</title>
<g id="a_node2"><a xlink:href="dji__mobile__communication_8hpp.html" target="_top" xlink:title="Implementation of DJI Mobile&#45;Onboard SDK Communication (MOC) ">
<polygon fill="white" stroke="black" points="502,-280.5 502,-299.5 652,-299.5 652,-280.5 502,-280.5"/>
<text text-anchor="middle" x="577" y="-287.5" font-family="Helvetica,sans-Serif" font-size="10.00">dji_mobile_communication.hpp</text>
</a>
</g>
</g>
<!-- Node1&#45;&gt;Node2 -->
<g id="edge1" class="edge"><title>Node1&#45;&gt;Node2</title>
<path fill="none" stroke="midnightblue" d="M830.852,-392.453C773.782,-369.645 661.907,-324.933 607.782,-303.302"/>
<polygon fill="midnightblue" stroke="midnightblue" points="608.959,-300.003 598.374,-299.542 606.361,-306.504 608.959,-300.003"/>
</g>
<!-- Node6 -->
<g id="node6" class="node"><title>Node6</title>
<g id="a_node6"><a xlink:href="dji__vehicle_8hpp.html" target="_top" xlink:title="Vehicle API for DJI onboardSDK library. ">
<polygon fill="white" stroke="black" points="945.5,-336.5 945.5,-355.5 1026.5,-355.5 1026.5,-336.5 945.5,-336.5"/>
<text text-anchor="middle" x="986" y="-343.5" font-family="Helvetica,sans-Serif" font-size="10.00">dji_vehicle.hpp</text>
</a>
</g>
</g>
<!-- Node1&#45;&gt;Node6 -->
<g id="edge5" class="edge"><title>Node1&#45;&gt;Node6</title>
<path fill="none" stroke="midnightblue" d="M894.438,-392.399C914.123,-382.639 940.143,-369.737 959.413,-360.183"/>
<polygon fill="midnightblue" stroke="midnightblue" points="961.135,-363.236 968.539,-355.658 958.025,-356.964 961.135,-363.236"/>
</g>
<!-- Node3 -->
<g id="node3" class="node"><title>Node3</title>
<polygon fill="white" stroke="#bfbfbf" points="593.5,-224.5 593.5,-243.5 676.5,-243.5 676.5,-224.5 593.5,-224.5"/>
<text text-anchor="middle" x="635" y="-231.5" font-family="Helvetica,sans-Serif" font-size="10.00">dji_macros.hpp</text>
</g>
<!-- Node2&#45;&gt;Node3 -->
<g id="edge2" class="edge"><title>Node2&#45;&gt;Node3</title>
<path fill="none" stroke="midnightblue" d="M586.319,-280.324C594.893,-272.341 607.812,-260.313 618.188,-250.653"/>
<polygon fill="midnightblue" stroke="midnightblue" points="620.578,-253.21 625.512,-243.834 615.808,-248.086 620.578,-253.21"/>
</g>
<!-- Node4 -->
<g id="node4" class="node"><title>Node4</title>
<g id="a_node4"><a xlink:href="dji__vehicle__callback_8hpp.html" target="_top" xlink:title="Type definition for new Vehicle&#45;style callbacks. ">
<polygon fill="white" stroke="black" points="1335,-112.5 1335,-131.5 1457,-131.5 1457,-112.5 1335,-112.5"/>
<text text-anchor="middle" x="1396" y="-119.5" font-family="Helvetica,sans-Serif" font-size="10.00">dji_vehicle_callback.hpp</text>
</a>
</g>
</g>
<!-- Node2&#45;&gt;Node4 -->
<g id="edge3" class="edge"><title>Node2&#45;&gt;Node4</title>
<path fill="none" stroke="midnightblue" d="M652.092,-280.81C655.1,-280.527 658.078,-280.256 661,-280 894.871,-259.491 958.419,-293.077 1188,-244 1258.4,-228.95 1280.84,-229.026 1340,-188 1358.47,-175.189 1374.63,-154.889 1384.78,-140.384"/>
<polygon fill="midnightblue" stroke="midnightblue" points="1387.86,-142.075 1390.55,-131.826 1382.06,-138.164 1387.86,-142.075"/>
</g>
<!-- Node5 -->
<g id="node5" class="node"><title>Node5</title>
<polygon fill="white" stroke="#bfbfbf" points="1100.5,-56.5 1100.5,-75.5 1211.5,-75.5 1211.5,-56.5 1100.5,-56.5"/>
<text text-anchor="middle" x="1156" y="-63.5" font-family="Helvetica,sans-Serif" font-size="10.00">dji_open_protocol.hpp</text>
</g>
<!-- Node4&#45;&gt;Node5 -->
<g id="edge4" class="edge"><title>Node4&#45;&gt;Node5</title>
<path fill="none" stroke="midnightblue" d="M1357.97,-112.444C1316.19,-103.043 1249.02,-87.9291 1203.73,-77.7393"/>
<polygon fill="midnightblue" stroke="midnightblue" points="1204.38,-74.297 1193.85,-75.5164 1202.84,-81.1263 1204.38,-74.297"/>
</g>
<!-- Node6&#45;&gt;Node2 -->
<g id="edge55" class="edge"><title>Node6&#45;&gt;Node2</title>
<path fill="none" stroke="midnightblue" d="M945.288,-339.625C876.874,-330.592 737.88,-312.241 651.577,-300.846"/>
<polygon fill="midnightblue" stroke="midnightblue" points="651.954,-297.366 641.582,-299.527 651.037,-304.306 651.954,-297.366"/>
</g>
<!-- Node6&#45;&gt;Node4 -->
<g id="edge67" class="edge"><title>Node6&#45;&gt;Node4</title>
<path fill="none" stroke="midnightblue" d="M1026.69,-344.824C1149.32,-343.875 1509.07,-337.859 1544,-300 1566.9,-275.174 1559.78,-253.867 1544,-224 1520.23,-178.996 1466.39,-150.262 1430.62,-135.384"/>
<polygon fill="midnightblue" stroke="midnightblue" points="1431.64,-132.021 1421.06,-131.553 1429.04,-138.519 1431.64,-132.021"/>
</g>
<!-- Node6&#45;&gt;Node5 -->
<g id="edge58" class="edge"><title>Node6&#45;&gt;Node5</title>
<path fill="none" stroke="midnightblue" d="M1026.53,-345.528C1067.16,-343.882 1129.13,-335.144 1168,-300 1187.6,-282.276 1183.49,-270.041 1188,-244 1189.52,-235.242 1189.53,-232.756 1188,-224 1185.07,-207.243 1179.23,-204.478 1175,-188 1165.87,-152.421 1160.41,-109.767 1157.83,-85.7836"/>
<polygon fill="midnightblue" stroke="midnightblue" points="1161.29,-85.2132 1156.78,-75.6226 1154.32,-85.9275 1161.29,-85.2132"/>
</g>
<!-- Node7 -->
<g id="node7" class="node"><title>Node7</title>
<polygon fill="white" stroke="#bfbfbf" points="0,-112.5 0,-131.5 46,-131.5 46,-112.5 0,-112.5"/>
<text text-anchor="middle" x="23" y="-119.5" font-family="Helvetica,sans-Serif" font-size="10.00">cstdint</text>
</g>
<!-- Node6&#45;&gt;Node7 -->
<g id="edge6" class="edge"><title>Node6&#45;&gt;Node7</title>
<path fill="none" stroke="midnightblue" d="M945.373,-345.013C780.279,-344.788 164.838,-341.174 89,-300 35.0122,-270.689 26.9196,-246.445 8,-188 2.93403,-172.35 8.10656,-154.058 13.7161,-140.873"/>
<polygon fill="midnightblue" stroke="midnightblue" points="17.0174,-142.078 18.1213,-131.541 10.6873,-139.09 17.0174,-142.078"/>
</g>
<!-- Node8 -->
<g id="node8" class="node"><title>Node8</title>
<g id="a_node8"><a xlink:href="dji__broadcast_8hpp.html" target="_top" xlink:title="Broadcast Telemetry API for DJI onboardSDK library. ">
<polygon fill="white" stroke="black" points="1086.5,-224.5 1086.5,-243.5 1179.5,-243.5 1179.5,-224.5 1086.5,-224.5"/>
<text text-anchor="middle" x="1133" y="-231.5" font-family="Helvetica,sans-Serif" font-size="10.00">dji_broadcast.hpp</text>
</a>
</g>
</g>
<!-- Node6&#45;&gt;Node8 -->
<g id="edge7" class="edge"><title>Node6&#45;&gt;Node8</title>
<path fill="none" stroke="midnightblue" d="M1026.5,-339.609C1070.32,-332.85 1135.95,-319.703 1151,-300 1161.51,-286.239 1153.87,-266.688 1145.55,-252.627"/>
<polygon fill="midnightblue" stroke="midnightblue" points="1148.27,-250.39 1139.89,-243.908 1142.39,-254.202 1148.27,-250.39"/>
</g>
<!-- Node10 -->
<g id="node10" class="node"><title>Node10</title>
<g id="a_node10"><a xlink:href="dji__type_8hpp.html" target="_top" xlink:title="Data type and Data Structure definitions for use throughout DJI OSDK. ">
<polygon fill="white" stroke="black" points="488.5,-112.5 488.5,-131.5 557.5,-131.5 557.5,-112.5 488.5,-112.5"/>
<text text-anchor="middle" x="523" y="-119.5" font-family="Helvetica,sans-Serif" font-size="10.00">dji_type.hpp</text>
</a>
</g>
</g>
<!-- Node6&#45;&gt;Node10 -->
<g id="edge66" class="edge"><title>Node6&#45;&gt;Node10</title>
<path fill="none" stroke="midnightblue" d="M945.401,-345.077C816.546,-344.901 423.032,-340.986 385,-300 350.353,-262.662 312.205,-306.763 447,-168 460.095,-154.52 478.071,-143.632 493.253,-135.945"/>
<polygon fill="midnightblue" stroke="midnightblue" points="494.8,-139.085 502.277,-131.578 491.751,-132.784 494.8,-139.085"/>
</g>
<!-- Node13 -->
<g id="node13" class="node"><title>Node13</title>
<g id="a_node13"><a xlink:href="dji__camera_8hpp.html" target="_top" xlink:title="Camera/Gimbal API for DJI onboardSDK library. ">
<polygon fill="white" stroke="black" points="155.5,-168.5 155.5,-187.5 238.5,-187.5 238.5,-168.5 155.5,-168.5"/>
<text text-anchor="middle" x="197" y="-175.5" font-family="Helvetica,sans-Serif" font-size="10.00">dji_camera.hpp</text>
</a>
</g>
</g>
<!-- Node6&#45;&gt;Node13 -->
<g id="edge13" class="edge"><title>Node6&#45;&gt;Node13</title>
<path fill="none" stroke="midnightblue" d="M945.184,-345.555C820.442,-346.725 445.998,-346.203 335,-300 280.053,-277.129 231.823,-223.217 209.759,-195.737"/>
<polygon fill="midnightblue" stroke="midnightblue" points="212.468,-193.52 203.539,-187.816 206.962,-197.843 212.468,-193.52"/>
</g>
<!-- Node14 -->
<g id="node14" class="node"><title>Node14</title>
<g id="a_node14"><a xlink:href="dji__command_8hpp.html" target="_top" xlink:title="All DJI OSDK OpenProtocol Command IDs. ">
<polygon fill="white" stroke="black" points="220.5,-112.5 220.5,-131.5 313.5,-131.5 313.5,-112.5 220.5,-112.5"/>
<text text-anchor="middle" x="267" y="-119.5" font-family="Helvetica,sans-Serif" font-size="10.00">dji_command.hpp</text>
</a>
</g>
</g>
<!-- Node6&#45;&gt;Node14 -->
<g id="edge20" class="edge"><title>Node6&#45;&gt;Node14</title>
<path fill="none" stroke="midnightblue" d="M945.269,-345.336C816.108,-345.936 417.131,-344.083 297,-300 218.558,-271.215 183.566,-262.636 146,-188 130.401,-157.009 171.619,-140.249 210.109,-131.554"/>
<polygon fill="midnightblue" stroke="midnightblue" points="211.252,-134.891 220.32,-129.412 209.815,-128.04 211.252,-134.891"/>
</g>
<!-- Node16 -->
<g id="node16" class="node"><title>Node16</title>
<polygon fill="white" stroke="#bfbfbf" points="670,-280.5 670,-299.5 782,-299.5 782,-280.5 670,-280.5"/>
<text text-anchor="middle" x="726" y="-287.5" font-family="Helvetica,sans-Serif" font-size="10.00">dji_circular_buffer.hpp</text>
</g>
<!-- Node6&#45;&gt;Node16 -->
<g id="edge19" class="edge"><title>Node6&#45;&gt;Node16</title>
<path fill="none" stroke="midnightblue" d="M945.375,-336.562C899.945,-327.127 826.292,-311.83 777.017,-301.596"/>
<polygon fill="midnightblue" stroke="midnightblue" points="777.701,-298.163 767.198,-299.556 776.277,-305.017 777.701,-298.163"/>
</g>
<!-- Node17 -->
<g id="node17" class="node"><title>Node17</title>
<g id="a_node17"><a xlink:href="dji__control_8hpp.html" target="_top" xlink:title="Control API for DJI OSDK library. ">
<polygon fill="white" stroke="black" points="946,-280.5 946,-299.5 1026,-299.5 1026,-280.5 946,-280.5"/>
<text text-anchor="middle" x="986" y="-287.5" font-family="Helvetica,sans-Serif" font-size="10.00">dji_control.hpp</text>
</a>
</g>
</g>
<!-- Node6&#45;&gt;Node17 -->
<g id="edge21" class="edge"><title>Node6&#45;&gt;Node17</title>
<path fill="none" stroke="midnightblue" d="M986,-336.083C986,-329.006 986,-318.861 986,-309.986"/>
<polygon fill="midnightblue" stroke="midnightblue" points="989.5,-309.751 986,-299.751 982.5,-309.751 989.5,-309.751"/>
</g>
<!-- Node20 -->
<g id="node20" class="node"><title>Node20</title>
<g id="a_node20"><a xlink:href="dji__version_8hpp.html" target="_top" xlink:title="Drone/SDK Version definition for DJI onboardSDK library. ">
<polygon fill="white" stroke="black" points="17,-168.5 17,-187.5 99,-187.5 99,-168.5 17,-168.5"/>
<text text-anchor="middle" x="58" y="-175.5" font-family="Helvetica,sans-Serif" font-size="10.00">dji_version.hpp</text>
</a>
</g>
</g>
<!-- Node6&#45;&gt;Node20 -->
<g id="edge68" class="edge"><title>Node6&#45;&gt;Node20</title>
<path fill="none" stroke="midnightblue" d="M945.394,-345.353C782.558,-346.441 182.306,-347.195 113,-300 78.2998,-276.37 65.1425,-225.214 60.4337,-197.591"/>
<polygon fill="midnightblue" stroke="midnightblue" points="63.8863,-197.013 58.9343,-187.647 56.9645,-198.057 63.8863,-197.013"/>
</g>
<!-- Node22 -->
<g id="node22" class="node"><title>Node22</title>
<g id="a_node22"><a xlink:href="dji__gimbal_8hpp.html" target="_top" xlink:title="Gimbal API for OSDK library. ">
<polygon fill="white" stroke="black" points="295.5,-168.5 295.5,-187.5 374.5,-187.5 374.5,-168.5 295.5,-168.5"/>
<text text-anchor="middle" x="335" y="-175.5" font-family="Helvetica,sans-Serif" font-size="10.00">dji_gimbal.hpp</text>
</a>
</g>
</g>
<!-- Node6&#45;&gt;Node22 -->
<g id="edge34" class="edge"><title>Node6&#45;&gt;Node22</title>
<path fill="none" stroke="midnightblue" d="M945.295,-345.02C812.1,-344.695 395.305,-340.427 352,-300 324.05,-273.907 327.031,-224.572 331.243,-197.659"/>
<polygon fill="midnightblue" stroke="midnightblue" points="334.721,-198.092 333.037,-187.632 327.83,-196.859 334.721,-198.092"/>
</g>
<!-- Node23 -->
<g id="node23" class="node"><title>Node23</title>
<polygon fill="white" stroke="#bfbfbf" points="1044,-280.5 1044,-299.5 1142,-299.5 1142,-280.5 1044,-280.5"/>
<text text-anchor="middle" x="1093" y="-287.5" font-family="Helvetica,sans-Serif" font-size="10.00">dji_hard_driver.hpp</text>
</g>
<!-- Node6&#45;&gt;Node23 -->
<g id="edge37" class="edge"><title>Node6&#45;&gt;Node23</title>
<path fill="none" stroke="midnightblue" d="M1003.19,-336.324C1020.35,-327.664 1046.95,-314.242 1066.75,-304.249"/>
<polygon fill="midnightblue" stroke="midnightblue" points="1068.5,-307.285 1075.85,-299.655 1065.35,-301.035 1068.5,-307.285"/>
</g>
<!-- Node24 -->
<g id="node24" class="node"><title>Node24</title>
<g id="a_node24"><a xlink:href="dji__hardware__sync_8hpp.html" target="_top" xlink:title="Hardware Sync API for DJI OSDK. ">
<polygon fill="white" stroke="black" points="1184,-168.5 1184,-187.5 1300,-187.5 1300,-168.5 1184,-168.5"/>
<text text-anchor="middle" x="1242" y="-175.5" font-family="Helvetica,sans-Serif" font-size="10.00">dji_hardware_sync.hpp</text>
</a>
</g>
</g>
<!-- Node6&#45;&gt;Node24 -->
<g id="edge38" class="edge"><title>Node6&#45;&gt;Node24</title>
<path fill="none" stroke="midnightblue" d="M1026.62,-342.739C1086.8,-338.513 1195.42,-327.242 1222,-300 1248.55,-272.786 1247.79,-224.662 1244.9,-198.041"/>
<polygon fill="midnightblue" stroke="midnightblue" points="1248.33,-197.236 1243.56,-187.774 1241.39,-198.143 1248.33,-197.236"/>
</g>
<!-- Node27 -->
<g id="node27" class="node"><title>Node27</title>
<g id="a_node27"><a xlink:href="dji__mfio_8hpp.html" target="_top" xlink:title="MFIO API for DJI OSDK library. ">
<polygon fill="white" stroke="black" points="1613.5,-224.5 1613.5,-243.5 1682.5,-243.5 1682.5,-224.5 1613.5,-224.5"/>
<text text-anchor="middle" x="1648" y="-231.5" font-family="Helvetica,sans-Serif" font-size="10.00">dji_mfio.hpp</text>
</a>
</g>
</g>
<!-- Node6&#45;&gt;Node27 -->
<g id="edge43" class="edge"><title>Node6&#45;&gt;Node27</title>
<path fill="none" stroke="midnightblue" d="M1026.64,-344.036C1177.36,-340.267 1697.05,-325.462 1721,-300 1739.31,-280.54 1707.49,-260.432 1680.27,-247.832"/>
<polygon fill="midnightblue" stroke="midnightblue" points="1681.49,-244.544 1670.93,-243.702 1678.66,-250.946 1681.49,-244.544"/>
</g>
<!-- Node28 -->
<g id="node28" class="node"><title>Node28</title>
<g id="a_node28"><a xlink:href="dji__mission__manager_8hpp.html" target="_top" xlink:title="Mission&#45;Manager API for DJI OSDK library. ">
<polygon fill="white" stroke="black" points="800.5,-280.5 800.5,-299.5 927.5,-299.5 927.5,-280.5 800.5,-280.5"/>
<text text-anchor="middle" x="864" y="-287.5" font-family="Helvetica,sans-Serif" font-size="10.00">dji_mission_manager.hpp</text>
</a>
</g>
</g>
<!-- Node6&#45;&gt;Node28 -->
<g id="edge45" class="edge"><title>Node6&#45;&gt;Node28</title>
<path fill="none" stroke="midnightblue" d="M966.669,-336.444C946.68,-327.596 915.257,-313.687 892.436,-303.586"/>
<polygon fill="midnightblue" stroke="midnightblue" points="893.802,-300.363 883.241,-299.516 890.968,-306.764 893.802,-300.363"/>
</g>
<!-- Node33 -->
<g id="node33" class="node"><title>Node33</title>
<g id="a_node33"><a xlink:href="dji__mobile__device_8hpp.html" target="_top" xlink:title="Implementation of DJI Mobile Device Abstraction. ">
<polygon fill="white" stroke="black" points="1710.5,-224.5 1710.5,-243.5 1823.5,-243.5 1823.5,-224.5 1710.5,-224.5"/>
<text text-anchor="middle" x="1767" y="-231.5" font-family="Helvetica,sans-Serif" font-size="10.00">dji_mobile_device.hpp</text>
</a>
</g>
</g>
<!-- Node6&#45;&gt;Node33 -->
<g id="edge56" class="edge"><title>Node6&#45;&gt;Node33</title>
<path fill="none" stroke="midnightblue" d="M1026.66,-345.002C1174.7,-344.681 1679.36,-340.591 1738,-300 1753.37,-289.361 1760.7,-268.597 1764.13,-253.39"/>
<polygon fill="midnightblue" stroke="midnightblue" points="1767.57,-253.999 1765.99,-243.524 1760.7,-252.7 1767.57,-253.999"/>
</g>
<!-- Node34 -->
<g id="node34" class="node"><title>Node34</title>
<polygon fill="white" stroke="#bfbfbf" points="1312,-280.5 1312,-299.5 1440,-299.5 1440,-280.5 1312,-280.5"/>
<text text-anchor="middle" x="1376" y="-287.5" font-family="Helvetica,sans-Serif" font-size="10.00">dji_platform_manager.hpp</text>
</g>
<!-- Node6&#45;&gt;Node34 -->
<g id="edge59" class="edge"><title>Node6&#45;&gt;Node34</title>
<path fill="none" stroke="midnightblue" d="M1026.63,-339.374C1092.3,-330.281 1222.63,-312.236 1304.21,-300.94"/>
<polygon fill="midnightblue" stroke="midnightblue" points="1304.98,-304.367 1314.4,-299.529 1304.02,-297.434 1304.98,-304.367"/>
</g>
<!-- Node35 -->
<g id="node35" class="node"><title>Node35</title>
<g id="a_node35"><a xlink:href="dji__status_8hpp.html" target="_top" xlink:title="Status information for DJI Vehicle. ">
<polygon fill="white" stroke="black" points="1458.5,-280.5 1458.5,-299.5 1535.5,-299.5 1535.5,-280.5 1458.5,-280.5"/>
<text text-anchor="middle" x="1497" y="-287.5" font-family="Helvetica,sans-Serif" font-size="10.00">dji_status.hpp</text>
</a>
</g>
</g>
<!-- Node6&#45;&gt;Node35 -->
<g id="edge60" class="edge"><title>Node6&#45;&gt;Node35</title>
<path fill="none" stroke="midnightblue" d="M1026.71,-342.26C1105.84,-336.671 1286.09,-322.655 1448.12,-299.999"/>
<polygon fill="midnightblue" stroke="midnightblue" points="1448.86,-303.43 1458.28,-298.565 1447.88,-296.498 1448.86,-303.43"/>
</g>
<!-- Node36 -->
<g id="node36" class="node"><title>Node36</title>
<g id="a_node36"><a xlink:href="dji__subscription_8hpp.html" target="_top" xlink:title="Telemetry Subscription API for DJI OSDK library. ">
<polygon fill="white" stroke="black" points="1432.5,-224.5 1432.5,-243.5 1535.5,-243.5 1535.5,-224.5 1432.5,-224.5"/>
<text text-anchor="middle" x="1484" y="-231.5" font-family="Helvetica,sans-Serif" font-size="10.00">dji_subscription.hpp</text>
</a>
</g>
</g>
<!-- Node6&#45;&gt;Node36 -->
<g id="edge61" class="edge"><title>Node6&#45;&gt;Node36</title>
<path fill="none" stroke="midnightblue" d="M1026.72,-341.801C1080.94,-336.757 1179.38,-324.855 1260,-300 1280.14,-293.79 1283.13,-287.019 1303,-280 1344.72,-265.264 1393.48,-253.438 1429.87,-245.614"/>
<polygon fill="midnightblue" stroke="midnightblue" points="1430.73,-249.009 1439.79,-243.514 1429.28,-242.161 1430.73,-249.009"/>
</g>
<!-- Node37 -->
<g id="node37" class="node"><title>Node37</title>
<polygon fill="white" stroke="#bfbfbf" points="1592,-280.5 1592,-299.5 1712,-299.5 1712,-280.5 1592,-280.5"/>
<text text-anchor="middle" x="1652" y="-287.5" font-family="Helvetica,sans-Serif" font-size="10.00">dji_thread_manager.hpp</text>
</g>
<!-- Node6&#45;&gt;Node37 -->
<g id="edge65" class="edge"><title>Node6&#45;&gt;Node37</title>
<path fill="none" stroke="midnightblue" d="M1026.61,-342.548C1122.61,-336.611 1371.05,-320.439 1578,-300 1579.27,-299.875 1580.55,-299.746 1581.84,-299.614"/>
<polygon fill="midnightblue" stroke="midnightblue" points="1582.28,-303.087 1591.85,-298.546 1581.53,-296.126 1582.28,-303.087"/>
</g>
<!-- Node38 -->
<g id="node38" class="node"><title>Node38</title>
<g id="a_node38"><a xlink:href="dji__virtual__rc_8hpp.html" target="_top" xlink:title="Virtual Radio Control API for DJI onboardSDK library. ">
<polygon fill="white" stroke="black" points="394,-280.5 394,-299.5 484,-299.5 484,-280.5 394,-280.5"/>
<text text-anchor="middle" x="439" y="-287.5" font-family="Helvetica,sans-Serif" font-size="10.00">dji_virtual_rc.hpp</text>
</a>
</g>
</g>
<!-- Node6&#45;&gt;Node38 -->
<g id="edge69" class="edge"><title>Node6&#45;&gt;Node38</title>
<path fill="none" stroke="midnightblue" d="M945.307,-342.311C862.423,-336.613 667.883,-322.112 494.138,-300.057"/>
<polygon fill="midnightblue" stroke="midnightblue" points="494.408,-296.563 484.044,-298.764 493.519,-303.506 494.408,-296.563"/>
</g>
<!-- Node8&#45;&gt;Node4 -->
<g id="edge12" class="edge"><title>Node8&#45;&gt;Node4</title>
<path fill="none" stroke="midnightblue" d="M1179.55,-226.216C1216.05,-219.705 1267.46,-207.862 1309,-188 1335.94,-175.118 1362.85,-153.294 1379.45,-138.525"/>
<polygon fill="midnightblue" stroke="midnightblue" points="1382.1,-140.848 1387.14,-131.529 1377.39,-135.671 1382.1,-140.848"/>
</g>
<!-- Node9 -->
<g id="node9" class="node"><title>Node9</title>
<g id="a_node9"><a xlink:href="dji__telemetry_8hpp.html" target="_top" xlink:title="Enumeration of all telemetry data types, structures and maps. ">
<polygon fill="white" stroke="black" points="853.5,-168.5 853.5,-187.5 944.5,-187.5 944.5,-168.5 853.5,-168.5"/>
<text text-anchor="middle" x="899" y="-175.5" font-family="Helvetica,sans-Serif" font-size="10.00">dji_telemetry.hpp</text>
</a>
</g>
</g>
<!-- Node8&#45;&gt;Node9 -->
<g id="edge8" class="edge"><title>Node8&#45;&gt;Node9</title>
<path fill="none" stroke="midnightblue" d="M1095.92,-224.444C1055.27,-215.063 989.968,-199.993 945.816,-189.804"/>
<polygon fill="midnightblue" stroke="midnightblue" points="946.435,-186.355 935.905,-187.516 944.861,-193.175 946.435,-186.355"/>
</g>
<!-- Node9&#45;&gt;Node10 -->
<g id="edge9" class="edge"><title>Node9&#45;&gt;Node10</title>
<path fill="none" stroke="midnightblue" d="M853.468,-170.134C848.585,-169.408 843.69,-168.686 839,-168 742.331,-153.867 628.939,-137.858 567.705,-129.259"/>
<polygon fill="midnightblue" stroke="midnightblue" points="568.004,-125.767 557.614,-127.843 567.031,-132.699 568.004,-125.767"/>
</g>
<!-- Node11 -->
<g id="node11" class="node"><title>Node11</title>
<polygon fill="white" stroke="#bfbfbf" points="501.5,-56.5 501.5,-75.5 544.5,-75.5 544.5,-56.5 501.5,-56.5"/>
<text text-anchor="middle" x="523" y="-63.5" font-family="Helvetica,sans-Serif" font-size="10.00">cstdio</text>
</g>
<!-- Node10&#45;&gt;Node11 -->
<g id="edge10" class="edge"><title>Node10&#45;&gt;Node11</title>
<path fill="none" stroke="midnightblue" d="M523,-112.083C523,-105.006 523,-94.8611 523,-85.9865"/>
<polygon fill="midnightblue" stroke="midnightblue" points="526.5,-85.751 523,-75.7511 519.5,-85.7511 526.5,-85.751"/>
</g>
<!-- Node12 -->
<g id="node12" class="node"><title>Node12</title>
<polygon fill="white" stroke="#bfbfbf" points="305.5,-0.5 305.5,-19.5 354.5,-19.5 354.5,-0.5 305.5,-0.5"/>
<text text-anchor="middle" x="330" y="-7.5" font-family="Helvetica,sans-Serif" font-size="10.00">stdint.h</text>
</g>
<!-- Node10&#45;&gt;Node12 -->
<g id="edge11" class="edge"><title>Node10&#45;&gt;Node12</title>
<path fill="none" stroke="midnightblue" d="M507.856,-112.368C474.455,-93.3318 394.243,-47.6153 353.95,-24.6505"/>
<polygon fill="midnightblue" stroke="midnightblue" points="355.495,-21.5024 345.074,-19.5914 352.029,-27.584 355.495,-21.5024"/>
</g>
<!-- Node13&#45;&gt;Node10 -->
<g id="edge18" class="edge"><title>Node13&#45;&gt;Node10</title>
<path fill="none" stroke="midnightblue" d="M238.619,-170.106C300.082,-159.925 414.664,-140.945 478.007,-130.453"/>
<polygon fill="midnightblue" stroke="midnightblue" points="478.798,-133.87 488.092,-128.782 477.654,-126.964 478.798,-133.87"/>
</g>
<!-- Node13&#45;&gt;Node14 -->
<g id="edge14" class="edge"><title>Node13&#45;&gt;Node14</title>
<path fill="none" stroke="midnightblue" d="M208.247,-168.324C218.797,-160.185 234.801,-147.839 247.442,-138.087"/>
<polygon fill="midnightblue" stroke="midnightblue" points="249.769,-140.713 255.549,-131.834 245.493,-135.171 249.769,-140.713"/>
</g>
<!-- Node14&#45;&gt;Node12 -->
<g id="edge17" class="edge"><title>Node14&#45;&gt;Node12</title>
<path fill="none" stroke="midnightblue" d="M278.343,-112.179C288.307,-103.859 302.504,-90.5244 311,-76 319.44,-61.5704 324.366,-43.1178 327.078,-29.5626"/>
<polygon fill="midnightblue" stroke="midnightblue" points="330.558,-29.9822 328.863,-19.5238 323.666,-28.7564 330.558,-29.9822"/>
</g>
<!-- Node15 -->
<g id="node15" class="node"><title>Node15</title>
<g id="a_node15"><a xlink:href="dji__error_8hpp.html" target="_top" xlink:title="All DJI OSDK OpenProtocol ACK Error Codes. ">
<polygon fill="white" stroke="black" points="232,-56.5 232,-75.5 302,-75.5 302,-56.5 232,-56.5"/>
<text text-anchor="middle" x="267" y="-63.5" font-family="Helvetica,sans-Serif" font-size="10.00">dji_error.hpp</text>
</a>
</g>
</g>
<!-- Node14&#45;&gt;Node15 -->
<g id="edge15" class="edge"><title>Node14&#45;&gt;Node15</title>
<path fill="none" stroke="midnightblue" d="M267,-112.083C267,-105.006 267,-94.8611 267,-85.9865"/>
<polygon fill="midnightblue" stroke="midnightblue" points="270.5,-85.751 267,-75.7511 263.5,-85.7511 270.5,-85.751"/>
</g>
<!-- Node15&#45;&gt;Node12 -->
<g id="edge16" class="edge"><title>Node15&#45;&gt;Node12</title>
<path fill="none" stroke="midnightblue" d="M277.122,-56.324C286.526,-48.2631 300.744,-36.0765 312.069,-26.3695"/>
<polygon fill="midnightblue" stroke="midnightblue" points="314.379,-28.9993 319.694,-19.8339 309.823,-23.6844 314.379,-28.9993"/>
</g>
<!-- Node17&#45;&gt;Node4 -->
<g id="edge33" class="edge"><title>Node17&#45;&gt;Node4</title>
<path fill="none" stroke="midnightblue" d="M1026.07,-281.378C1029.09,-280.885 1032.09,-280.419 1035,-280 1111.3,-269.029 1324.75,-297.751 1380,-244 1407.38,-217.366 1404.13,-168.251 1399.82,-141.517"/>
<polygon fill="midnightblue" stroke="midnightblue" points="1403.24,-140.764 1397.99,-131.561 1396.35,-142.029 1403.24,-140.764"/>
</g>
<!-- Node17&#45;&gt;Node5 -->
<g id="edge31" class="edge"><title>Node17&#45;&gt;Node5</title>
<path fill="none" stroke="midnightblue" d="M992.664,-280.297C1018.05,-247.148 1108.97,-128.414 1143.01,-83.9613"/>
<polygon fill="midnightblue" stroke="midnightblue" points="1145.9,-85.9512 1149.2,-75.8837 1140.34,-81.6953 1145.9,-85.9512"/>
</g>
<!-- Node17&#45;&gt;Node10 -->
<g id="edge32" class="edge"><title>Node17&#45;&gt;Node10</title>
<path fill="none" stroke="midnightblue" d="M991.224,-280.385C998.672,-266.865 1010.07,-240.509 997,-224 953.628,-169.238 909.433,-212.464 844,-188 826.123,-181.316 824.11,-174.023 806,-168 724.674,-140.951 624.643,-129.929 567.913,-125.612"/>
<polygon fill="midnightblue" stroke="midnightblue" points="568.065,-122.114 557.838,-124.882 567.559,-129.096 568.065,-122.114"/>
</g>
<!-- Node18 -->
<g id="node18" class="node"><title>Node18</title>
<g id="a_node18"><a xlink:href="dji__ack_8hpp.html" target="_top" xlink:title="All DJI OSDK ACK parsing. ">
<polygon fill="white" stroke="black" points="471,-224.5 471,-243.5 537,-243.5 537,-224.5 471,-224.5"/>
<text text-anchor="middle" x="504" y="-231.5" font-family="Helvetica,sans-Serif" font-size="10.00">dji_ack.hpp</text>
</a>
</g>
</g>
<!-- Node17&#45;&gt;Node18 -->
<g id="edge22" class="edge"><title>Node17&#45;&gt;Node18</title>
<path fill="none" stroke="midnightblue" d="M945.926,-281.51C942.573,-280.967 939.231,-280.455 936,-280 780.278,-258.055 740.362,-260.791 584,-244 572.07,-242.719 559.144,-241.285 547.232,-239.945"/>
<polygon fill="midnightblue" stroke="midnightblue" points="547.406,-236.442 537.076,-238.797 546.62,-243.398 547.406,-236.442"/>
</g>
<!-- Node18&#45;&gt;Node10 -->
<g id="edge26" class="edge"><title>Node18&#45;&gt;Node10</title>
<path fill="none" stroke="midnightblue" d="M535.809,-224.385C553.946,-217.661 575.164,-206.306 586,-188 598.117,-167.528 573.877,-148.54 552.039,-136.438"/>
<polygon fill="midnightblue" stroke="midnightblue" points="553.425,-133.213 542.94,-131.689 550.186,-139.419 553.425,-133.213"/>
</g>
<!-- Node18&#45;&gt;Node14 -->
<g id="edge23" class="edge"><title>Node18&#45;&gt;Node14</title>
<path fill="none" stroke="midnightblue" d="M470.815,-230.294C416.64,-225.217 312.561,-212.497 286,-188 273.19,-176.186 268.845,-156.263 267.456,-141.581"/>
<polygon fill="midnightblue" stroke="midnightblue" points="270.95,-141.378 266.879,-131.597 263.962,-141.782 270.95,-141.378"/>
</g>
<!-- Node19 -->
<g id="node19" class="node"><title>Node19</title>
<g id="a_node19"><a xlink:href="dji__mission__type_8hpp.html" target="_top" xlink:title="Mission related data struct for DJI OSDK library. ">
<polygon fill="white" stroke="black" points="469,-168.5 469,-187.5 577,-187.5 577,-168.5 469,-168.5"/>
<text text-anchor="middle" x="523" y="-175.5" font-family="Helvetica,sans-Serif" font-size="10.00">dji_mission_type.hpp</text>
</a>
</g>
</g>
<!-- Node18&#45;&gt;Node19 -->
<g id="edge24" class="edge"><title>Node18&#45;&gt;Node19</title>
<path fill="none" stroke="midnightblue" d="M507.137,-224.083C509.683,-216.849 513.356,-206.409 516.527,-197.397"/>
<polygon fill="midnightblue" stroke="midnightblue" points="519.903,-198.346 519.921,-187.751 513.3,-196.023 519.903,-198.346"/>
</g>
<!-- Node18&#45;&gt;Node20 -->
<g id="edge27" class="edge"><title>Node18&#45;&gt;Node20</title>
<path fill="none" stroke="midnightblue" d="M470.842,-228.985C393.689,-219.644 201.696,-196.398 109.289,-185.21"/>
<polygon fill="midnightblue" stroke="midnightblue" points="109.677,-181.731 99.3284,-184.004 108.835,-188.681 109.677,-181.731"/>
</g>
<!-- Node21 -->
<g id="node21" class="node"><title>Node21</title>
<polygon fill="white" stroke="#bfbfbf" points="633.5,-168.5 633.5,-187.5 668.5,-187.5 668.5,-168.5 633.5,-168.5"/>
<text text-anchor="middle" x="651" y="-175.5" font-family="Helvetica,sans-Serif" font-size="10.00">map</text>
</g>
<!-- Node18&#45;&gt;Node21 -->
<g id="edge30" class="edge"><title>Node18&#45;&gt;Node21</title>
<path fill="none" stroke="midnightblue" d="M527.293,-224.444C553.538,-214.802 596.143,-199.151 623.869,-188.966"/>
<polygon fill="midnightblue" stroke="midnightblue" points="625.173,-192.216 633.353,-185.483 622.759,-185.646 625.173,-192.216"/>
</g>
<!-- Node19&#45;&gt;Node10 -->
<g id="edge25" class="edge"><title>Node19&#45;&gt;Node10</title>
<path fill="none" stroke="midnightblue" d="M523,-168.083C523,-161.006 523,-150.861 523,-141.986"/>
<polygon fill="midnightblue" stroke="midnightblue" points="526.5,-141.751 523,-131.751 519.5,-141.751 526.5,-141.751"/>
</g>
<!-- Node20&#45;&gt;Node7 -->
<g id="edge29" class="edge"><title>Node20&#45;&gt;Node7</title>
<path fill="none" stroke="midnightblue" d="M52.2205,-168.083C47.3276,-160.534 40.1726,-149.495 34.1674,-140.23"/>
<polygon fill="midnightblue" stroke="midnightblue" points="37.048,-138.239 28.672,-131.751 31.174,-142.046 37.048,-138.239"/>
</g>
<!-- Node20&#45;&gt;Node14 -->
<g id="edge28" class="edge"><title>Node20&#45;&gt;Node14</title>
<path fill="none" stroke="midnightblue" d="M91.1167,-168.444C127.118,-159.142 184.77,-144.246 224.186,-134.062"/>
<polygon fill="midnightblue" stroke="midnightblue" points="225.232,-137.407 234.038,-131.516 223.481,-130.629 225.232,-137.407"/>
</g>
<!-- Node22&#45;&gt;Node10 -->
<g id="edge36" class="edge"><title>Node22&#45;&gt;Node10</title>
<path fill="none" stroke="midnightblue" d="M364.789,-168.444C396.829,-159.241 447.933,-144.562 483.353,-134.388"/>
<polygon fill="midnightblue" stroke="midnightblue" points="484.705,-137.641 493.35,-131.516 482.773,-130.913 484.705,-137.641"/>
</g>
<!-- Node22&#45;&gt;Node14 -->
<g id="edge35" class="edge"><title>Node22&#45;&gt;Node14</title>
<path fill="none" stroke="midnightblue" d="M324.075,-168.324C313.825,-160.185 298.279,-147.839 285.999,-138.087"/>
<polygon fill="midnightblue" stroke="midnightblue" points="288.132,-135.312 278.124,-131.834 283.779,-140.794 288.132,-135.312"/>
</g>
<!-- Node24&#45;&gt;Node4 -->
<g id="edge40" class="edge"><title>Node24&#45;&gt;Node4</title>
<path fill="none" stroke="midnightblue" d="M1266.4,-168.444C1292.2,-159.399 1333.08,-145.064 1362.02,-134.916"/>
<polygon fill="midnightblue" stroke="midnightblue" points="1363.43,-138.128 1371.71,-131.516 1361.12,-131.523 1363.43,-138.128"/>
</g>
<!-- Node24&#45;&gt;Node10 -->
<g id="edge39" class="edge"><title>Node24&#45;&gt;Node10</title>
<path fill="none" stroke="midnightblue" d="M1183.77,-172.627C1044.25,-162.148 693.159,-135.78 568.103,-126.387"/>
<polygon fill="midnightblue" stroke="midnightblue" points="567.989,-122.869 557.755,-125.61 567.465,-129.849 567.989,-122.869"/>
</g>
<!-- Node25 -->
<g id="node25" class="node"><title>Node25</title>
<polygon fill="white" stroke="#bfbfbf" points="1192,-112.5 1192,-131.5 1238,-131.5 1238,-112.5 1192,-112.5"/>
<text text-anchor="middle" x="1215" y="-119.5" font-family="Helvetica,sans-Serif" font-size="10.00">chrono</text>
</g>
<!-- Node24&#45;&gt;Node25 -->
<g id="edge41" class="edge"><title>Node24&#45;&gt;Node25</title>
<path fill="none" stroke="midnightblue" d="M1237.54,-168.083C1233.85,-160.691 1228.48,-149.953 1223.91,-140.811"/>
<polygon fill="midnightblue" stroke="midnightblue" points="1226.98,-139.13 1219.38,-131.751 1220.72,-142.261 1226.98,-139.13"/>
</g>
<!-- Node26 -->
<g id="node26" class="node"><title>Node26</title>
<polygon fill="white" stroke="#bfbfbf" points="1256,-112.5 1256,-131.5 1302,-131.5 1302,-112.5 1256,-112.5"/>
<text text-anchor="middle" x="1279" y="-119.5" font-family="Helvetica,sans-Serif" font-size="10.00">atomic</text>
</g>
<!-- Node24&#45;&gt;Node26 -->
<g id="edge42" class="edge"><title>Node24&#45;&gt;Node26</title>
<path fill="none" stroke="midnightblue" d="M1248.11,-168.083C1253.28,-160.534 1260.85,-149.495 1267.19,-140.23"/>
<polygon fill="midnightblue" stroke="midnightblue" points="1270.24,-141.979 1273,-131.751 1264.46,-138.022 1270.24,-141.979"/>
</g>
<!-- Node27&#45;&gt;Node4 -->
<g id="edge44" class="edge"><title>Node27&#45;&gt;Node4</title>
<path fill="none" stroke="midnightblue" d="M1641.25,-224.367C1629.79,-210.332 1605.14,-182.664 1578,-168 1543.99,-149.622 1502.36,-138.611 1467.5,-132.087"/>
<polygon fill="midnightblue" stroke="midnightblue" points="1467.85,-128.594 1457.39,-130.283 1466.62,-135.485 1467.85,-128.594"/>
</g>
<!-- Node29 -->
<g id="node29" class="node"><title>Node29</title>
<g id="a_node29"><a xlink:href="dji__hotpoint_8hpp.html" target="_top" xlink:title="Implementation of HotPoint (Point of Interest) Missions for DJI OSDK. ">
<polygon fill="white" stroke="black" points="802.5,-224.5 802.5,-243.5 887.5,-243.5 887.5,-224.5 802.5,-224.5"/>
<text text-anchor="middle" x="845" y="-231.5" font-family="Helvetica,sans-Serif" font-size="10.00">dji_hotpoint.hpp</text>
</a>
</g>
</g>
<!-- Node28&#45;&gt;Node29 -->
<g id="edge46" class="edge"><title>Node28&#45;&gt;Node29</title>
<path fill="none" stroke="midnightblue" d="M860.863,-280.083C858.317,-272.849 854.644,-262.409 851.473,-253.397"/>
<polygon fill="midnightblue" stroke="midnightblue" points="854.7,-252.023 848.079,-243.751 848.097,-254.346 854.7,-252.023"/>
</g>
<!-- Node31 -->
<g id="node31" class="node"><title>Node31</title>
<g id="a_node31"><a xlink:href="dji__waypoint_8hpp.html" target="_top" xlink:title="Implementation of GPS Waypoint Missions for DJI OSDK. ">
<polygon fill="white" stroke="black" points="695.5,-224.5 695.5,-243.5 784.5,-243.5 784.5,-224.5 695.5,-224.5"/>
<text text-anchor="middle" x="740" y="-231.5" font-family="Helvetica,sans-Serif" font-size="10.00">dji_waypoint.hpp</text>
</a>
</g>
</g>
<!-- Node28&#45;&gt;Node31 -->
<g id="edge52" class="edge"><title>Node28&#45;&gt;Node31</title>
<path fill="none" stroke="midnightblue" d="M844.352,-280.444C824.035,-271.596 792.097,-257.687 768.902,-247.586"/>
<polygon fill="midnightblue" stroke="midnightblue" points="770.122,-244.3 759.556,-243.516 767.327,-250.718 770.122,-244.3"/>
</g>
<!-- Node32 -->
<g id="node32" class="node"><title>Node32</title>
<polygon fill="white" stroke="#bfbfbf" points="944,-224.5 944,-243.5 988,-243.5 988,-224.5 944,-224.5"/>
<text text-anchor="middle" x="966" y="-231.5" font-family="Helvetica,sans-Serif" font-size="10.00">vector</text>
</g>
<!-- Node28&#45;&gt;Node32 -->
<g id="edge54" class="edge"><title>Node28&#45;&gt;Node32</title>
<path fill="none" stroke="midnightblue" d="M880.388,-280.324C896.671,-271.703 921.867,-258.364 940.716,-248.386"/>
<polygon fill="midnightblue" stroke="midnightblue" points="942.452,-251.427 949.653,-243.655 939.177,-245.24 942.452,-251.427"/>
</g>
<!-- Node29&#45;&gt;Node9 -->
<g id="edge51" class="edge"><title>Node29&#45;&gt;Node9</title>
<path fill="none" stroke="midnightblue" d="M853.917,-224.083C861.78,-216.22 873.431,-204.569 882.919,-195.081"/>
<polygon fill="midnightblue" stroke="midnightblue" points="885.653,-197.297 890.249,-187.751 880.703,-192.347 885.653,-197.297"/>
</g>
<!-- Node30 -->
<g id="node30" class="node"><title>Node30</title>
<g id="a_node30"><a xlink:href="dji__mission__base_8hpp.html" target="_top" xlink:title="Mission&#45;Base abstract class for DJI OSDK library. ">
<polygon fill="white" stroke="black" points="687,-168.5 687,-187.5 797,-187.5 797,-168.5 687,-168.5"/>
<text text-anchor="middle" x="742" y="-175.5" font-family="Helvetica,sans-Serif" font-size="10.00">dji_mission_base.hpp</text>
</a>
</g>
</g>
<!-- Node29&#45;&gt;Node30 -->
<g id="edge47" class="edge"><title>Node29&#45;&gt;Node30</title>
<path fill="none" stroke="midnightblue" d="M828.451,-224.324C812.008,-215.703 786.565,-202.364 767.532,-192.386"/>
<polygon fill="midnightblue" stroke="midnightblue" points="768.989,-189.198 758.508,-187.655 765.739,-195.398 768.989,-189.198"/>
</g>
<!-- Node30&#45;&gt;Node4 -->
<g id="edge50" class="edge"><title>Node30&#45;&gt;Node4</title>
<path fill="none" stroke="midnightblue" d="M797.044,-172.031C812.253,-170.688 828.764,-169.259 844,-168 1051.46,-150.851 1103.69,-150.962 1311,-132 1315.44,-131.594 1320.01,-131.159 1324.62,-130.707"/>
<polygon fill="midnightblue" stroke="midnightblue" points="1325.13,-134.174 1334.74,-129.698 1324.44,-127.208 1325.13,-134.174"/>
</g>
<!-- Node30&#45;&gt;Node10 -->
<g id="edge49" class="edge"><title>Node30&#45;&gt;Node10</title>
<path fill="none" stroke="midnightblue" d="M707.299,-168.444C669.415,-159.102 608.651,-144.119 567.338,-133.933"/>
<polygon fill="midnightblue" stroke="midnightblue" points="568.086,-130.512 557.539,-131.516 566.41,-137.309 568.086,-130.512"/>
</g>
<!-- Node30&#45;&gt;Node14 -->
<g id="edge48" class="edge"><title>Node30&#45;&gt;Node14</title>
<path fill="none" stroke="midnightblue" d="M686.696,-169.234C683.416,-168.807 680.166,-168.393 677,-168 551.182,-152.388 403.287,-136.846 324.033,-128.745"/>
<polygon fill="midnightblue" stroke="midnightblue" points="324.084,-125.233 313.781,-127.7 323.374,-132.196 324.084,-125.233"/>
</g>
<!-- Node31&#45;&gt;Node30 -->
<g id="edge53" class="edge"><title>Node31&#45;&gt;Node30</title>
<path fill="none" stroke="midnightblue" d="M740.33,-224.083C740.592,-217.006 740.968,-206.861 741.297,-197.986"/>
<polygon fill="midnightblue" stroke="midnightblue" points="744.803,-197.874 741.676,-187.751 737.808,-197.615 744.803,-197.874"/>
</g>
<!-- Node33&#45;&gt;Node4 -->
<g id="edge57" class="edge"><title>Node33&#45;&gt;Node4</title>
<path fill="none" stroke="midnightblue" d="M1748.54,-224.324C1719,-210.721 1659.03,-184.253 1606,-168 1556.99,-152.979 1500.06,-141.113 1457.84,-133.346"/>
<polygon fill="midnightblue" stroke="midnightblue" points="1458.45,-129.899 1447.99,-131.558 1457.2,-136.787 1458.45,-129.899"/>
</g>
<!-- Node36&#45;&gt;Node4 -->
<g id="edge64" class="edge"><title>Node36&#45;&gt;Node4</title>
<path fill="none" stroke="midnightblue" d="M1477.09,-224.368C1462.51,-206.135 1428.34,-163.426 1409.34,-139.675"/>
<polygon fill="midnightblue" stroke="midnightblue" points="1411.85,-137.214 1402.87,-131.591 1406.39,-141.587 1411.85,-137.214"/>
</g>
<!-- Node36&#45;&gt;Node5 -->
<g id="edge62" class="edge"><title>Node36&#45;&gt;Node5</title>
<path fill="none" stroke="midnightblue" d="M1485.75,-224.49C1489.76,-202.413 1496.99,-142.882 1466,-112 1432.61,-78.7305 1302.32,-69.8837 1221.65,-67.6392"/>
<polygon fill="midnightblue" stroke="midnightblue" points="1221.67,-64.1386 1211.58,-67.386 1221.49,-71.1364 1221.67,-64.1386"/>
</g>
<!-- Node36&#45;&gt;Node9 -->
<g id="edge63" class="edge"><title>Node36&#45;&gt;Node9</title>
<path fill="none" stroke="midnightblue" d="M1432.34,-228.232C1322.82,-218.121 1068.07,-194.606 954.901,-184.16"/>
<polygon fill="midnightblue" stroke="midnightblue" points="955.004,-180.655 944.725,-183.221 954.361,-187.625 955.004,-180.655"/>
</g>
<!-- Node38&#45;&gt;Node5 -->
<g id="edge71" class="edge"><title>Node38&#45;&gt;Node5</title>
<path fill="none" stroke="midnightblue" d="M484.043,-281.23C487.071,-280.789 490.077,-280.374 493,-280 671.373,-257.202 726.675,-304.545 896,-244 922.905,-234.38 1079.61,-122.174 1135.89,-81.5595"/>
<polygon fill="midnightblue" stroke="midnightblue" points="1137.97,-84.3759 1144.02,-75.6824 1133.87,-78.7019 1137.97,-84.3759"/>
</g>
<!-- Node38&#45;&gt;Node9 -->
<g id="edge73" class="edge"><title>Node38&#45;&gt;Node9</title>
<path fill="none" stroke="midnightblue" d="M460.966,-280.408C482.768,-271.73 517.027,-257.685 546,-244 563.257,-235.849 565.843,-229.88 584,-224 631.028,-208.77 766.248,-192.842 843.371,-184.635"/>
<polygon fill="midnightblue" stroke="midnightblue" points="843.816,-188.107 853.394,-183.577 843.082,-181.146 843.816,-188.107"/>
</g>
<!-- Node38&#45;&gt;Node10 -->
<g id="edge72" class="edge"><title>Node38&#45;&gt;Node10</title>
<path fill="none" stroke="midnightblue" d="M438.366,-280.3C437.258,-259.257 436.966,-204.643 460,-168 468.404,-154.631 482.363,-144.055 495.008,-136.524"/>
<polygon fill="midnightblue" stroke="midnightblue" points="496.85,-139.505 503.886,-131.583 493.446,-133.388 496.85,-139.505"/>
</g>
<!-- Node38&#45;&gt;Node18 -->
<g id="edge70" class="edge"><title>Node38&#45;&gt;Node18</title>
<path fill="none" stroke="midnightblue" d="M449.443,-280.324C459.146,-272.263 473.815,-260.077 485.5,-250.369"/>
<polygon fill="midnightblue" stroke="midnightblue" points="487.911,-252.916 493.367,-243.834 483.438,-247.532 487.911,-252.916"/>
</g>
</g>
</svg>
