<?xml version="1.0" encoding="UTF-8" standalone="no"?>
<!DOCTYPE svg PUBLIC "-//W3C//DTD SVG 1.1//EN"
 "http://www.w3.org/Graphics/SVG/1.1/DTD/svg11.dtd">
<!-- Generated by graphviz version 2.40.1 (20161225.0304)
 -->
<!-- Title: osdk&#45;lib/x86/osdk&#45;core/inc/dji_platform.hpp Pages: 1 -->
<svg width="297pt" height="207pt"
 viewBox="0.00 0.00 296.50 207.00" xmlns="http://www.w3.org/2000/svg" xmlns:xlink="http://www.w3.org/1999/xlink">
<g id="graph0" class="graph" transform="scale(1 1) rotate(0) translate(4 203)">
<title>osdk&#45;lib/x86/osdk&#45;core/inc/dji_platform.hpp</title>
<polygon fill="#ffffff" stroke="transparent" points="-4,4 -4,-203 292.5,-203 292.5,4 -4,4"/>
<!-- Node0 -->
<g id="node1" class="node">
<title>Node0</title>
<g id="a_node1"><a xlink:title="Vehicle API for DJI onboardSDK library.">
<polygon fill="#bfbfbf" stroke="#000000" points="91.5,-168.5 91.5,-198.5 206.5,-198.5 206.5,-168.5 91.5,-168.5"/>
<text text-anchor="start" x="99.5" y="-186.5" font-family="Helvetica,sans-Serif" font-size="10.00" fill="#000000">osdk&#45;lib/x86/osdk&#45;core</text>
<text text-anchor="middle" x="149" y="-175.5" font-family="Helvetica,sans-Serif" font-size="10.00" fill="#000000">/inc/dji_platform.hpp</text>
</a>
</g>
</g>
<!-- Node1 -->
<g id="node2" class="node">
<title>Node1</title>
<g id="a_node2"><a xlink:href="osdk__platform_8h.html" target="_top" xlink:title="This is the header file for define OSDK platform interfaces.">
<polygon fill="#ffffff" stroke="#000000" points="0,-112.5 0,-131.5 86,-131.5 86,-112.5 0,-112.5"/>
<text text-anchor="middle" x="43" y="-119.5" font-family="Helvetica,sans-Serif" font-size="10.00" fill="#000000">osdk_platform.h</text>
</a>
</g>
</g>
<!-- Node0&#45;&gt;Node1 -->
<g id="edge1" class="edge">
<title>Node0&#45;&gt;Node1</title>
<path fill="none" stroke="#191970" d="M123.0695,-168.4554C106.4691,-158.8241 85.0256,-146.3828 68.5083,-136.7996"/>
<polygon fill="#191970" stroke="#191970" points="69.8323,-133.5214 59.4262,-131.5303 66.3194,-139.5761 69.8323,-133.5214"/>
</g>
<!-- Node5 -->
<g id="node6" class="node">
<title>Node5</title>
<g id="a_node6"><a xlink:href="dji__singleton_8hpp.html" target="_top" xlink:title="Singleton Template Class implementation for use with the DJI OSDK.">
<polygon fill="#ffffff" stroke="#000000" points="104.5,-112.5 104.5,-131.5 193.5,-131.5 193.5,-112.5 104.5,-112.5"/>
<text text-anchor="middle" x="149" y="-119.5" font-family="Helvetica,sans-Serif" font-size="10.00" fill="#000000">dji_singleton.hpp</text>
</a>
</g>
</g>
<!-- Node0&#45;&gt;Node5 -->
<g id="edge5" class="edge">
<title>Node0&#45;&gt;Node5</title>
<path fill="none" stroke="#191970" d="M149,-168.2977C149,-160.3834 149,-150.6043 149,-142.0759"/>
<polygon fill="#191970" stroke="#191970" points="152.5001,-141.8469 149,-131.8469 145.5001,-141.847 152.5001,-141.8469"/>
</g>
<!-- Node6 -->
<g id="node7" class="node">
<title>Node6</title>
<g id="a_node7"><a xlink:href="osdk__logger_8h.html" target="_top" xlink:title="This is the header file for &quot;osdk_logger.c&quot;, defining the structure and (exported) function prototype...">
<polygon fill="#ffffff" stroke="#000000" points="211.5,-112.5 211.5,-131.5 288.5,-131.5 288.5,-112.5 211.5,-112.5"/>
<text text-anchor="middle" x="250" y="-119.5" font-family="Helvetica,sans-Serif" font-size="10.00" fill="#000000">osdk_logger.h</text>
</a>
</g>
</g>
<!-- Node0&#45;&gt;Node6 -->
<g id="edge6" class="edge">
<title>Node0&#45;&gt;Node6</title>
<path fill="none" stroke="#191970" d="M173.7074,-168.4554C189.5247,-158.8241 209.9567,-146.3828 225.6949,-136.7996"/>
<polygon fill="#191970" stroke="#191970" points="227.6277,-139.7206 234.3486,-131.5303 223.9871,-133.7418 227.6277,-139.7206"/>
</g>
<!-- Node2 -->
<g id="node3" class="node">
<title>Node2</title>
<g id="a_node3"><a xlink:href="osdk__typedef_8h_source.html" target="_top" xlink:title=" ">
<polygon fill="#ffffff" stroke="#000000" points="104.5,-56.5 104.5,-75.5 187.5,-75.5 187.5,-56.5 104.5,-56.5"/>
<text text-anchor="middle" x="146" y="-63.5" font-family="Helvetica,sans-Serif" font-size="10.00" fill="#000000">osdk_typedef.h</text>
</a>
</g>
</g>
<!-- Node1&#45;&gt;Node2 -->
<g id="edge2" class="edge">
<title>Node1&#45;&gt;Node2</title>
<path fill="none" stroke="#191970" d="M60.9412,-112.2455C77.04,-103.4928 100.8879,-90.527 119.2391,-80.5496"/>
<polygon fill="#191970" stroke="#191970" points="121.1507,-83.4942 128.2644,-75.6427 117.8071,-77.3444 121.1507,-83.4942"/>
</g>
<!-- Node3 -->
<g id="node4" class="node">
<title>Node3</title>
<g id="a_node4"><a xlink:title=" ">
<polygon fill="#ffffff" stroke="#bfbfbf" points="86,-.5 86,-19.5 138,-19.5 138,-.5 86,-.5"/>
<text text-anchor="middle" x="112" y="-7.5" font-family="Helvetica,sans-Serif" font-size="10.00" fill="#000000">stddef.h</text>
</a>
</g>
</g>
<!-- Node2&#45;&gt;Node3 -->
<g id="edge3" class="edge">
<title>Node2&#45;&gt;Node3</title>
<path fill="none" stroke="#191970" d="M140.0777,-56.2455C135.3973,-48.5367 128.7327,-37.5598 123.0711,-28.2348"/>
<polygon fill="#191970" stroke="#191970" points="126.0361,-26.3741 117.8545,-19.6427 120.0525,-30.007 126.0361,-26.3741"/>
</g>
<!-- Node4 -->
<g id="node5" class="node">
<title>Node4</title>
<g id="a_node5"><a xlink:title=" ">
<polygon fill="#ffffff" stroke="#bfbfbf" points="156.5,-.5 156.5,-19.5 205.5,-19.5 205.5,-.5 156.5,-.5"/>
<text text-anchor="middle" x="181" y="-7.5" font-family="Helvetica,sans-Serif" font-size="10.00" fill="#000000">stdint.h</text>
</a>
</g>
</g>
<!-- Node2&#45;&gt;Node4 -->
<g id="edge4" class="edge">
<title>Node2&#45;&gt;Node4</title>
<path fill="none" stroke="#191970" d="M152.0965,-56.2455C156.9145,-48.5367 163.7751,-37.5598 169.6032,-28.2348"/>
<polygon fill="#191970" stroke="#191970" points="172.6413,-29.9777 174.9733,-19.6427 166.7053,-26.2677 172.6413,-29.9777"/>
</g>
<!-- Node6&#45;&gt;Node2 -->
<g id="edge7" class="edge">
<title>Node6&#45;&gt;Node2</title>
<path fill="none" stroke="#191970" d="M231.8846,-112.2455C215.555,-103.4527 191.329,-90.4079 172.7661,-80.4125"/>
<polygon fill="#191970" stroke="#191970" points="174.3719,-77.3021 163.9078,-75.6427 171.0532,-83.4654 174.3719,-77.3021"/>
</g>
</g>
</svg>
