<?xml version="1.0" encoding="UTF-8" standalone="no"?>
<!DOCTYPE svg PUBLIC "-//W3C//DTD SVG 1.1//EN"
 "http://www.w3.org/Graphics/SVG/1.1/DTD/svg11.dtd">
<!-- Generated by graphviz version 2.40.1 (20161225.0304)
 -->
<!-- Title: osdk&#45;core/api/inc/dji_ack.hpp Pages: 1 -->
<svg width="374pt" height="263pt"
 viewBox="0.00 0.00 374.16 263.00" xmlns="http://www.w3.org/2000/svg" xmlns:xlink="http://www.w3.org/1999/xlink">
<g id="graph0" class="graph" transform="scale(1 1) rotate(0) translate(4 259)">
<title>osdk&#45;core/api/inc/dji_ack.hpp</title>
<polygon fill="#ffffff" stroke="transparent" points="-4,4 -4,-259 370.1625,-259 370.1625,4 -4,4"/>
<!-- Node0 -->
<g id="node1" class="node">
<title>Node0</title>
<g id="a_node1"><a xlink:title="All DJI OSDK ACK parsing.">
<polygon fill="#bfbfbf" stroke="#000000" points="165,-224.5 165,-254.5 269,-254.5 269,-224.5 165,-224.5"/>
<text text-anchor="start" x="173" y="-242.5" font-family="Helvetica,sans-Serif" font-size="10.00" fill="#000000">osdk&#45;core/api/inc/dji</text>
<text text-anchor="middle" x="217" y="-231.5" font-family="Helvetica,sans-Serif" font-size="10.00" fill="#000000">_ack.hpp</text>
</a>
</g>
</g>
<!-- Node1 -->
<g id="node2" class="node">
<title>Node1</title>
<g id="a_node2"><a xlink:href="dji__command_8hpp.html" target="_top" xlink:title="All DJI OSDK OpenProtocol Command IDs.">
<polygon fill="#ffffff" stroke="#000000" points="79.5,-112.5 79.5,-131.5 172.5,-131.5 172.5,-112.5 79.5,-112.5"/>
<text text-anchor="middle" x="126" y="-119.5" font-family="Helvetica,sans-Serif" font-size="10.00" fill="#000000">dji_command.hpp</text>
</a>
</g>
</g>
<!-- Node0&#45;&gt;Node1 -->
<g id="edge1" class="edge">
<title>Node0&#45;&gt;Node1</title>
<path fill="none" stroke="#191970" d="M205.1033,-224.1389C188.261,-202.3919 157.5393,-162.7238 139.7441,-139.7465"/>
<polygon fill="#191970" stroke="#191970" points="142.2938,-137.3226 133.4035,-131.5595 136.7595,-141.6088 142.2938,-137.3226"/>
</g>
<!-- Node5 -->
<g id="node6" class="node">
<title>Node5</title>
<g id="a_node6"><a xlink:title=" ">
<polygon fill="#ffffff" stroke="#bfbfbf" points="182.5,-.5 182.5,-19.5 217.5,-19.5 217.5,-.5 182.5,-.5"/>
<text text-anchor="middle" x="200" y="-7.5" font-family="Helvetica,sans-Serif" font-size="10.00" fill="#000000">map</text>
</a>
</g>
</g>
<!-- Node0&#45;&gt;Node5 -->
<g id="edge15" class="edge">
<title>Node0&#45;&gt;Node5</title>
<path fill="none" stroke="#191970" d="M215.8846,-224.4419C212.9155,-184.3599 204.8188,-75.0534 201.4749,-29.9113"/>
<polygon fill="#191970" stroke="#191970" points="204.9624,-29.6122 200.7332,-19.8981 197.9816,-30.1294 204.9624,-29.6122"/>
</g>
<!-- Node7 -->
<g id="node8" class="node">
<title>Node7</title>
<g id="a_node8"><a xlink:href="dji__mission__type_8hpp.html" target="_top" xlink:title="Mission related data struct for DJI OSDK library.">
<polygon fill="#ffffff" stroke="#000000" points="245,-168.5 245,-187.5 353,-187.5 353,-168.5 245,-168.5"/>
<text text-anchor="middle" x="299" y="-175.5" font-family="Helvetica,sans-Serif" font-size="10.00" fill="#000000">dji_mission_type.hpp</text>
</a>
</g>
</g>
<!-- Node0&#45;&gt;Node7 -->
<g id="edge7" class="edge">
<title>Node0&#45;&gt;Node7</title>
<path fill="none" stroke="#191970" d="M237.2697,-224.2977C249.6006,-215.0495 265.3266,-203.2551 277.8197,-193.8853"/>
<polygon fill="#191970" stroke="#191970" points="279.9708,-196.647 285.8708,-187.8469 275.7707,-191.047 279.9708,-196.647"/>
</g>
<!-- Node8 -->
<g id="node9" class="node">
<title>Node8</title>
<g id="a_node9"><a xlink:href="dji__type_8hpp.html" target="_top" xlink:title="Data type and Data Structure definitions for use throughout DJI OSDK.">
<polygon fill="#ffffff" stroke="#000000" points="264.5,-112.5 264.5,-131.5 333.5,-131.5 333.5,-112.5 264.5,-112.5"/>
<text text-anchor="middle" x="299" y="-119.5" font-family="Helvetica,sans-Serif" font-size="10.00" fill="#000000">dji_type.hpp</text>
</a>
</g>
</g>
<!-- Node0&#45;&gt;Node8 -->
<g id="edge11" class="edge">
<title>Node0&#45;&gt;Node8</title>
<path fill="none" stroke="#191970" d="M269.2238,-227.6746C306.1048,-218.143 350.8679,-203.7673 362,-188 375.7311,-168.5516 351.6257,-149.1909 329.3775,-136.5181"/>
<polygon fill="#191970" stroke="#191970" points="330.855,-133.3386 320.3911,-131.6782 327.5357,-139.5016 330.855,-133.3386"/>
</g>
<!-- Node10 -->
<g id="node11" class="node">
<title>Node10</title>
<g id="a_node11"><a xlink:href="dji__version_8hpp.html" target="_top" xlink:title="Drone/SDK Version definition for DJI onboardSDK library.">
<polygon fill="#ffffff" stroke="#000000" points="69,-168.5 69,-187.5 151,-187.5 151,-168.5 69,-168.5"/>
<text text-anchor="middle" x="110" y="-175.5" font-family="Helvetica,sans-Serif" font-size="10.00" fill="#000000">dji_version.hpp</text>
</a>
</g>
</g>
<!-- Node0&#45;&gt;Node10 -->
<g id="edge12" class="edge">
<title>Node0&#45;&gt;Node10</title>
<path fill="none" stroke="#191970" d="M190.8249,-224.4554C173.9113,-214.734 152.0171,-202.15 135.2828,-192.5317"/>
<polygon fill="#191970" stroke="#191970" points="136.9953,-189.4791 126.5812,-187.5303 133.507,-195.548 136.9953,-189.4791"/>
</g>
<!-- Node2 -->
<g id="node3" class="node">
<title>Node2</title>
<g id="a_node3"><a xlink:href="dji__error_8hpp.html" target="_top" xlink:title="All DJI OSDK OpenProtocol ACK Error Codes.">
<polygon fill="#ffffff" stroke="#000000" points="51,-56.5 51,-75.5 121,-75.5 121,-56.5 51,-56.5"/>
<text text-anchor="middle" x="86" y="-63.5" font-family="Helvetica,sans-Serif" font-size="10.00" fill="#000000">dji_error.hpp</text>
</a>
</g>
</g>
<!-- Node1&#45;&gt;Node2 -->
<g id="edge2" class="edge">
<title>Node1&#45;&gt;Node2</title>
<path fill="none" stroke="#191970" d="M119.0325,-112.2455C113.4689,-104.4564 105.522,-93.3308 98.8171,-83.9439"/>
<polygon fill="#191970" stroke="#191970" points="101.5481,-81.7457 92.8876,-75.6427 95.852,-85.8144 101.5481,-81.7457"/>
</g>
<!-- Node6 -->
<g id="node7" class="node">
<title>Node6</title>
<g id="a_node7"><a xlink:title=" ">
<polygon fill="#ffffff" stroke="#bfbfbf" points="139.5,-56.5 139.5,-75.5 188.5,-75.5 188.5,-56.5 139.5,-56.5"/>
<text text-anchor="middle" x="164" y="-63.5" font-family="Helvetica,sans-Serif" font-size="10.00" fill="#000000">stdint.h</text>
</a>
</g>
</g>
<!-- Node1&#45;&gt;Node6 -->
<g id="edge6" class="edge">
<title>Node1&#45;&gt;Node6</title>
<path fill="none" stroke="#191970" d="M132.6191,-112.2455C137.9046,-104.4564 145.4541,-93.3308 151.8238,-83.9439"/>
<polygon fill="#191970" stroke="#191970" points="154.7379,-85.8827 157.4568,-75.6427 148.9455,-81.9522 154.7379,-85.8827"/>
</g>
<!-- Node3 -->
<g id="node4" class="node">
<title>Node3</title>
<g id="a_node4"><a xlink:title=" ">
<polygon fill="#ffffff" stroke="#bfbfbf" points="0,-.5 0,-19.5 46,-19.5 46,-.5 0,-.5"/>
<text text-anchor="middle" x="23" y="-7.5" font-family="Helvetica,sans-Serif" font-size="10.00" fill="#000000">cstdint</text>
</a>
</g>
</g>
<!-- Node2&#45;&gt;Node3 -->
<g id="edge3" class="edge">
<title>Node2&#45;&gt;Node3</title>
<path fill="none" stroke="#191970" d="M75.0262,-56.2455C65.8118,-48.0549 52.4468,-36.1749 41.5703,-26.5069"/>
<polygon fill="#191970" stroke="#191970" points="43.6474,-23.6704 33.848,-19.6427 38.9968,-28.9023 43.6474,-23.6704"/>
</g>
<!-- Node4 -->
<g id="node5" class="node">
<title>Node4</title>
<g id="a_node5"><a xlink:title=" ">
<polygon fill="#ffffff" stroke="#bfbfbf" points="64.5,-.5 64.5,-19.5 147.5,-19.5 147.5,-.5 64.5,-.5"/>
<text text-anchor="middle" x="106" y="-7.5" font-family="Helvetica,sans-Serif" font-size="10.00" fill="#000000">dji_macros.hpp</text>
</a>
</g>
</g>
<!-- Node2&#45;&gt;Node4 -->
<g id="edge4" class="edge">
<title>Node2&#45;&gt;Node4</title>
<path fill="none" stroke="#191970" d="M89.4837,-56.2455C92.1508,-48.7776 95.9133,-38.2427 99.1737,-29.1137"/>
<polygon fill="#191970" stroke="#191970" points="102.4889,-30.2373 102.5562,-19.6427 95.8967,-27.8829 102.4889,-30.2373"/>
</g>
<!-- Node2&#45;&gt;Node5 -->
<g id="edge5" class="edge">
<title>Node2&#45;&gt;Node5</title>
<path fill="none" stroke="#191970" d="M105.5973,-56.3733C124.1728,-47.2485 152.2367,-33.4627 172.941,-23.2922"/>
<polygon fill="#191970" stroke="#191970" points="174.7248,-26.3154 182.1572,-18.7649 171.6384,-20.0326 174.7248,-26.3154"/>
</g>
<!-- Node7&#45;&gt;Node8 -->
<g id="edge8" class="edge">
<title>Node7&#45;&gt;Node8</title>
<path fill="none" stroke="#191970" d="M299,-168.2455C299,-160.9382 299,-150.6944 299,-141.7046"/>
<polygon fill="#191970" stroke="#191970" points="302.5001,-141.6426 299,-131.6427 295.5001,-141.6427 302.5001,-141.6426"/>
</g>
<!-- Node8&#45;&gt;Node6 -->
<g id="edge10" class="edge">
<title>Node8&#45;&gt;Node6</title>
<path fill="none" stroke="#191970" d="M275.7927,-112.3733C253.8301,-103.2629 220.6668,-89.5062 196.1599,-79.3404"/>
<polygon fill="#191970" stroke="#191970" points="197.4824,-76.0999 186.9045,-75.5011 194.8003,-82.5657 197.4824,-76.0999"/>
</g>
<!-- Node9 -->
<g id="node10" class="node">
<title>Node9</title>
<g id="a_node10"><a xlink:title=" ">
<polygon fill="#ffffff" stroke="#bfbfbf" points="277.5,-56.5 277.5,-75.5 320.5,-75.5 320.5,-56.5 277.5,-56.5"/>
<text text-anchor="middle" x="299" y="-63.5" font-family="Helvetica,sans-Serif" font-size="10.00" fill="#000000">cstdio</text>
</a>
</g>
</g>
<!-- Node8&#45;&gt;Node9 -->
<g id="edge9" class="edge">
<title>Node8&#45;&gt;Node9</title>
<path fill="none" stroke="#191970" d="M299,-112.2455C299,-104.9382 299,-94.6944 299,-85.7046"/>
<polygon fill="#191970" stroke="#191970" points="302.5001,-85.6426 299,-75.6427 295.5001,-85.6427 302.5001,-85.6426"/>
</g>
<!-- Node10&#45;&gt;Node1 -->
<g id="edge13" class="edge">
<title>Node10&#45;&gt;Node1</title>
<path fill="none" stroke="#191970" d="M112.787,-168.2455C114.8977,-160.8579 117.866,-150.4689 120.4547,-141.4087"/>
<polygon fill="#191970" stroke="#191970" points="123.863,-142.2195 123.245,-131.6427 117.1323,-140.2964 123.863,-142.2195"/>
</g>
<!-- Node10&#45;&gt;Node3 -->
<g id="edge14" class="edge">
<title>Node10&#45;&gt;Node3</title>
<path fill="none" stroke="#191970" d="M100.3265,-168.3626C91.6976,-159.4404 79.0635,-145.5455 70,-132 54.5254,-108.873 52.1137,-101.9236 42,-76 36.0411,-60.7262 31.0022,-42.8197 27.6139,-29.5148"/>
<polygon fill="#191970" stroke="#191970" points="30.9578,-28.4555 25.1722,-19.5799 24.1601,-30.1263 30.9578,-28.4555"/>
</g>
</g>
</svg>
