<?xml version="1.0" encoding="UTF-8" standalone="no"?>
<!DOCTYPE svg PUBLIC "-//W3C//DTD SVG 1.1//EN"
 "http://www.w3.org/Graphics/SVG/1.1/DTD/svg11.dtd">
<!-- Generated by graphviz version 2.38.0 (20140413.2041)
 -->
<!-- Title: osdk&#45;core/api/src/dji_camera.cpp Pages: 1 -->
<!--zoomable 431 -->
<svg id="main" version="1.1" xmlns="http://www.w3.org/2000/svg" xmlns:xlink="http://www.w3.org/1999/xlink" xml:space="preserve" onload="init(evt)">
<style type="text/css"><![CDATA[
.edge:hover path { stroke: red; }
.edge:hover polygon { stroke: red; fill: red; }
]]></style>
<script type="text/javascript"><![CDATA[
var edges = document.getElementsByTagName('g');
if (edges && edges.length) {
  for (var i=0;i<edges.length;i++) {
    if (edges[i].id.substr(0,4)=='edge') {
      edges[i].setAttribute('class','edge');
    }
  }
}
]]></script>
        <defs>
                <circle id="rim" cx="0" cy="0" r="7"/>
                <circle id="rim2" cx="0" cy="0" r="3.5"/>
                <g id="zoomPlus">
                        <use xlink:href="#rim" fill="#404040">
                                <set attributeName="fill" to="#808080" begin="zoomplus.mouseover" end="zoomplus.mouseout"/>
                        </use>
                        <path d="M-4,0h8M0,-4v8" fill="none" stroke="white" stroke-width="1.5" pointer-events="none"/>
                </g>
                <g id="zoomMin">
                        <use xlink:href="#rim" fill="#404040">
                                <set attributeName="fill" to="#808080" begin="zoomminus.mouseover" end="zoomminus.mouseout"/>
                        </use>
                        <path d="M-4,0h8" fill="none" stroke="white" stroke-width="1.5" pointer-events="none"/>
                </g>
                <g id="dirArrow">
                        <path fill="none" stroke="white" stroke-width="1.5" d="M0,-3.0v7 M-2.5,-0.5L0,-3.0L2.5,-0.5"/>
                </g>
               <g id="resetDef">
                       <use xlink:href="#rim2" fill="#404040">
                               <set attributeName="fill" to="#808080" begin="reset.mouseover" end="reset.mouseout"/>
                       </use>
               </g>
        </defs>

<script type="text/javascript">
var viewWidth = 1850;
var viewHeight = 431;
var sectionId = 'dynsection-0';
</script>
<script xlink:href="svgpan.js"/>
<svg id="graph" class="graph">
<g id="viewport">
<title>osdk&#45;core/api/src/dji_camera.cpp</title>
<polygon fill="white" stroke="none" points="-4,4 -4,-427 1845.56,-427 1845.56,4 -4,4"/>
<!-- Node1 -->
<g id="node1" class="node"><title>Node1</title>
<polygon fill="#bfbfbf" stroke="black" points="585,-392.5 585,-422.5 689,-422.5 689,-392.5 585,-392.5"/>
<text text-anchor="start" x="593" y="-410.5" font-family="Helvetica,sans-Serif" font-size="10.00">osdk&#45;core/api/src/dji</text>
<text text-anchor="middle" x="637" y="-399.5" font-family="Helvetica,sans-Serif" font-size="10.00">_camera.cpp</text>
</g>
<!-- Node2 -->
<g id="node2" class="node"><title>Node2</title>
<g id="a_node2"><a xlink:href="dji__camera_8hpp.html" target="_top" xlink:title="Camera/Gimbal API for DJI onboardSDK library. ">
<polygon fill="white" stroke="black" points="134.5,-224.5 134.5,-243.5 217.5,-243.5 217.5,-224.5 134.5,-224.5"/>
<text text-anchor="middle" x="176" y="-231.5" font-family="Helvetica,sans-Serif" font-size="10.00">dji_camera.hpp</text>
</a>
</g>
</g>
<!-- Node1&#45;&gt;Node2 -->
<g id="edge1" class="edge"><title>Node1&#45;&gt;Node2</title>
<path fill="none" stroke="midnightblue" d="M584.992,-399.684C482.747,-385.352 260.494,-349.305 203,-300 189.251,-288.21 182.372,-268.283 179.017,-253.594"/>
<polygon fill="midnightblue" stroke="midnightblue" points="182.42,-252.756 177.082,-243.603 175.547,-254.086 182.42,-252.756"/>
</g>
<!-- Node8 -->
<g id="node8" class="node"><title>Node8</title>
<g id="a_node8"><a xlink:href="dji__vehicle_8hpp.html" target="_top" xlink:title="Vehicle API for DJI onboardSDK library. ">
<polygon fill="white" stroke="black" points="1064.5,-336.5 1064.5,-355.5 1145.5,-355.5 1145.5,-336.5 1064.5,-336.5"/>
<text text-anchor="middle" x="1105" y="-343.5" font-family="Helvetica,sans-Serif" font-size="10.00">dji_vehicle.hpp</text>
</a>
</g>
</g>
<!-- Node1&#45;&gt;Node8 -->
<g id="edge9" class="edge"><title>Node1&#45;&gt;Node8</title>
<path fill="none" stroke="midnightblue" d="M689.323,-399.848C779.836,-388.34 964.52,-364.86 1054.06,-353.476"/>
<polygon fill="midnightblue" stroke="midnightblue" points="1054.76,-356.916 1064.24,-352.182 1053.88,-349.972 1054.76,-356.916"/>
</g>
<!-- Node3 -->
<g id="node3" class="node"><title>Node3</title>
<g id="a_node3"><a xlink:href="dji__command_8hpp.html" target="_top" xlink:title="All DJI OSDK OpenProtocol Command IDs. ">
<polygon fill="white" stroke="black" points="484.5,-112.5 484.5,-131.5 577.5,-131.5 577.5,-112.5 484.5,-112.5"/>
<text text-anchor="middle" x="531" y="-119.5" font-family="Helvetica,sans-Serif" font-size="10.00">dji_command.hpp</text>
</a>
</g>
</g>
<!-- Node2&#45;&gt;Node3 -->
<g id="edge2" class="edge"><title>Node2&#45;&gt;Node3</title>
<path fill="none" stroke="midnightblue" d="M187.627,-224.326C207.113,-210.231 248.068,-182.479 287,-168 348.756,-145.032 423.825,-133.445 474.249,-127.839"/>
<polygon fill="midnightblue" stroke="midnightblue" points="474.736,-131.307 484.307,-126.764 473.992,-124.347 474.736,-131.307"/>
</g>
<!-- Node6 -->
<g id="node6" class="node"><title>Node6</title>
<g id="a_node6"><a xlink:href="dji__type_8hpp.html" target="_top" xlink:title="Data type and Data Structure definitions for use throughout DJI OSDK. ">
<polygon fill="white" stroke="black" points="351.5,-112.5 351.5,-131.5 420.5,-131.5 420.5,-112.5 351.5,-112.5"/>
<text text-anchor="middle" x="386" y="-119.5" font-family="Helvetica,sans-Serif" font-size="10.00">dji_type.hpp</text>
</a>
</g>
</g>
<!-- Node2&#45;&gt;Node6 -->
<g id="edge6" class="edge"><title>Node2&#45;&gt;Node6</title>
<path fill="none" stroke="midnightblue" d="M173.232,-224.256C169.491,-210.56 164.709,-183.965 178,-168 198.486,-143.392 286.583,-131.478 341.345,-126.349"/>
<polygon fill="midnightblue" stroke="midnightblue" points="341.843,-129.818 351.49,-125.44 341.218,-122.846 341.843,-129.818"/>
</g>
<!-- Node4 -->
<g id="node4" class="node"><title>Node4</title>
<g id="a_node4"><a xlink:href="dji__error_8hpp.html" target="_top" xlink:title="All DJI OSDK OpenProtocol ACK Error Codes. ">
<polygon fill="white" stroke="black" points="451,-56.5 451,-75.5 521,-75.5 521,-56.5 451,-56.5"/>
<text text-anchor="middle" x="486" y="-63.5" font-family="Helvetica,sans-Serif" font-size="10.00">dji_error.hpp</text>
</a>
</g>
</g>
<!-- Node3&#45;&gt;Node4 -->
<g id="edge3" class="edge"><title>Node3&#45;&gt;Node4</title>
<path fill="none" stroke="midnightblue" d="M523.569,-112.083C517.147,-104.377 507.694,-93.0333 499.878,-83.6531"/>
<polygon fill="midnightblue" stroke="midnightblue" points="502.383,-81.1927 493.293,-75.7511 497.006,-85.674 502.383,-81.1927"/>
</g>
<!-- Node5 -->
<g id="node5" class="node"><title>Node5</title>
<polygon fill="white" stroke="#bfbfbf" points="461.5,-0.5 461.5,-19.5 510.5,-19.5 510.5,-0.5 461.5,-0.5"/>
<text text-anchor="middle" x="486" y="-7.5" font-family="Helvetica,sans-Serif" font-size="10.00">stdint.h</text>
</g>
<!-- Node3&#45;&gt;Node5 -->
<g id="edge5" class="edge"><title>Node3&#45;&gt;Node5</title>
<path fill="none" stroke="midnightblue" d="M532.854,-112.173C535.133,-99.2692 537.813,-74.7524 530,-56 525.11,-44.2624 515.573,-33.897 506.625,-26.0819"/>
<polygon fill="midnightblue" stroke="midnightblue" points="508.689,-23.2496 498.722,-19.6555 504.272,-28.6804 508.689,-23.2496"/>
</g>
<!-- Node4&#45;&gt;Node5 -->
<g id="edge4" class="edge"><title>Node4&#45;&gt;Node5</title>
<path fill="none" stroke="midnightblue" d="M486,-56.083C486,-49.0059 486,-38.8611 486,-29.9865"/>
<polygon fill="midnightblue" stroke="midnightblue" points="489.5,-29.751 486,-19.7511 482.5,-29.7511 489.5,-29.751"/>
</g>
<!-- Node6&#45;&gt;Node5 -->
<g id="edge8" class="edge"><title>Node6&#45;&gt;Node5</title>
<path fill="none" stroke="midnightblue" d="M381.932,-112.158C376.451,-98.7966 368.616,-73.1996 380,-56 395.738,-32.222 426.841,-20.9712 451.304,-15.6695"/>
<polygon fill="midnightblue" stroke="midnightblue" points="452.159,-19.0693 461.317,-13.7424 450.836,-12.1954 452.159,-19.0693"/>
</g>
<!-- Node7 -->
<g id="node7" class="node"><title>Node7</title>
<polygon fill="white" stroke="#bfbfbf" points="389.5,-56.5 389.5,-75.5 432.5,-75.5 432.5,-56.5 389.5,-56.5"/>
<text text-anchor="middle" x="411" y="-63.5" font-family="Helvetica,sans-Serif" font-size="10.00">cstdio</text>
</g>
<!-- Node6&#45;&gt;Node7 -->
<g id="edge7" class="edge"><title>Node6&#45;&gt;Node7</title>
<path fill="none" stroke="midnightblue" d="M390.128,-112.083C393.514,-104.77 398.416,-94.1814 402.619,-85.1034"/>
<polygon fill="midnightblue" stroke="midnightblue" points="405.923,-86.2962 406.949,-75.7511 399.571,-83.3553 405.923,-86.2962"/>
</g>
<!-- Node8&#45;&gt;Node2 -->
<g id="edge16" class="edge"><title>Node8&#45;&gt;Node2</title>
<path fill="none" stroke="midnightblue" d="M1064.46,-344.773C902.522,-343.616 307.255,-336.871 232,-300 211.175,-289.797 194.968,-267.964 185.464,-252.42"/>
<polygon fill="midnightblue" stroke="midnightblue" points="188.467,-250.62 180.432,-243.714 182.406,-254.123 188.467,-250.62"/>
</g>
<!-- Node8&#45;&gt;Node3 -->
<g id="edge18" class="edge"><title>Node8&#45;&gt;Node3</title>
<path fill="none" stroke="midnightblue" d="M1064.22,-343.138C1033.61,-339.341 993.571,-328.747 973,-300 967.827,-292.771 969.959,-288.353 973,-280 984.115,-249.467 998.391,-248.266 1020,-224 1034.64,-207.564 1045.87,-208.451 1054,-188 1057.28,-179.74 1060.01,-174.549 1054,-168 1022.95,-134.168 716.636,-125.715 587.717,-123.65"/>
<polygon fill="midnightblue" stroke="midnightblue" points="587.695,-120.149 577.643,-123.496 587.588,-127.148 587.695,-120.149"/>
</g>
<!-- Node8&#45;&gt;Node6 -->
<g id="edge58" class="edge"><title>Node8&#45;&gt;Node6</title>
<path fill="none" stroke="midnightblue" d="M1064.09,-344.562C941.697,-342.867 579.909,-334.954 468,-300 374.799,-270.889 327.34,-272.836 279,-188 262.328,-158.741 305.028,-141.09 341.341,-131.713"/>
<polygon fill="midnightblue" stroke="midnightblue" points="342.466,-135.042 351.36,-129.284 340.817,-128.239 342.466,-135.042"/>
</g>
<!-- Node9 -->
<g id="node9" class="node"><title>Node9</title>
<polygon fill="white" stroke="#bfbfbf" points="955,-112.5 955,-131.5 1001,-131.5 1001,-112.5 955,-112.5"/>
<text text-anchor="middle" x="978" y="-119.5" font-family="Helvetica,sans-Serif" font-size="10.00">cstdint</text>
</g>
<!-- Node8&#45;&gt;Node9 -->
<g id="edge10" class="edge"><title>Node8&#45;&gt;Node9</title>
<path fill="none" stroke="midnightblue" d="M1114.35,-336.414C1134.85,-316.496 1180.38,-265.665 1160,-224 1131.85,-166.449 1055.4,-140.17 1011.05,-129.451"/>
<polygon fill="midnightblue" stroke="midnightblue" points="1011.58,-125.98 1001.05,-127.165 1010.02,-132.804 1011.58,-125.98"/>
</g>
<!-- Node10 -->
<g id="node10" class="node"><title>Node10</title>
<g id="a_node10"><a xlink:href="dji__broadcast_8hpp.html" target="_top" xlink:title="Broadcast Telemetry API for DJI onboardSDK library. ">
<polygon fill="white" stroke="black" points="1058.5,-224.5 1058.5,-243.5 1151.5,-243.5 1151.5,-224.5 1058.5,-224.5"/>
<text text-anchor="middle" x="1105" y="-231.5" font-family="Helvetica,sans-Serif" font-size="10.00">dji_broadcast.hpp</text>
</a>
</g>
</g>
<!-- Node8&#45;&gt;Node10 -->
<g id="edge11" class="edge"><title>Node8&#45;&gt;Node10</title>
<path fill="none" stroke="midnightblue" d="M1105,-336.368C1105,-318.617 1105,-277.666 1105,-253.597"/>
<polygon fill="midnightblue" stroke="midnightblue" points="1108.5,-253.591 1105,-243.591 1101.5,-253.591 1108.5,-253.591"/>
</g>
<!-- Node12 -->
<g id="node12" class="node"><title>Node12</title>
<g id="a_node12"><a xlink:href="dji__vehicle__callback_8hpp.html" target="_top" xlink:title="Type definition for new Vehicle&#45;style callbacks. ">
<polygon fill="white" stroke="black" points="1292,-112.5 1292,-131.5 1414,-131.5 1414,-112.5 1292,-112.5"/>
<text text-anchor="middle" x="1353" y="-119.5" font-family="Helvetica,sans-Serif" font-size="10.00">dji_vehicle_callback.hpp</text>
</a>
</g>
</g>
<!-- Node8&#45;&gt;Node12 -->
<g id="edge59" class="edge"><title>Node8&#45;&gt;Node12</title>
<path fill="none" stroke="midnightblue" d="M1143.18,-336.449C1174.87,-328.74 1220.77,-316.144 1259,-300 1282.29,-290.168 1345.27,-265.834 1358,-244 1376.73,-211.885 1367.2,-166.403 1359.51,-141.344"/>
<polygon fill="midnightblue" stroke="midnightblue" points="1362.78,-140.069 1356.32,-131.671 1356.13,-142.264 1362.78,-140.069"/>
</g>
<!-- Node13 -->
<g id="node13" class="node"><title>Node13</title>
<polygon fill="white" stroke="#bfbfbf" points="1132.5,-56.5 1132.5,-75.5 1243.5,-75.5 1243.5,-56.5 1132.5,-56.5"/>
<text text-anchor="middle" x="1188" y="-63.5" font-family="Helvetica,sans-Serif" font-size="10.00">dji_open_protocol.hpp</text>
</g>
<!-- Node8&#45;&gt;Node13 -->
<g id="edge51" class="edge"><title>Node8&#45;&gt;Node13</title>
<path fill="none" stroke="midnightblue" d="M1123.13,-336.362C1137.07,-328.755 1155.65,-316.343 1166,-300 1209.41,-231.454 1198.48,-128.073 1191.58,-85.9102"/>
<polygon fill="midnightblue" stroke="midnightblue" points="1195,-85.1743 1189.82,-75.9311 1188.11,-86.386 1195,-85.1743"/>
</g>
<!-- Node14 -->
<g id="node14" class="node"><title>Node14</title>
<polygon fill="white" stroke="#bfbfbf" points="1360,-280.5 1360,-299.5 1472,-299.5 1472,-280.5 1360,-280.5"/>
<text text-anchor="middle" x="1416" y="-287.5" font-family="Helvetica,sans-Serif" font-size="10.00">dji_circular_buffer.hpp</text>
</g>
<!-- Node8&#45;&gt;Node14 -->
<g id="edge17" class="edge"><title>Node8&#45;&gt;Node14</title>
<path fill="none" stroke="midnightblue" d="M1145.66,-337.94C1199.54,-328.584 1295,-312.009 1356.87,-301.267"/>
<polygon fill="midnightblue" stroke="midnightblue" points="1357.62,-304.689 1366.87,-299.53 1356.42,-297.792 1357.62,-304.689"/>
</g>
<!-- Node15 -->
<g id="node15" class="node"><title>Node15</title>
<g id="a_node15"><a xlink:href="dji__control_8hpp.html" target="_top" xlink:title="Control API for DJI OSDK library. ">
<polygon fill="white" stroke="black" points="982,-280.5 982,-299.5 1062,-299.5 1062,-280.5 982,-280.5"/>
<text text-anchor="middle" x="1022" y="-287.5" font-family="Helvetica,sans-Serif" font-size="10.00">dji_control.hpp</text>
</a>
</g>
</g>
<!-- Node8&#45;&gt;Node15 -->
<g id="edge19" class="edge"><title>Node8&#45;&gt;Node15</title>
<path fill="none" stroke="midnightblue" d="M1091.66,-336.324C1078.84,-327.979 1059.22,-315.212 1044.06,-305.352"/>
<polygon fill="midnightblue" stroke="midnightblue" points="1045.59,-302.174 1035.3,-299.655 1041.78,-308.042 1045.59,-302.174"/>
</g>
<!-- Node18 -->
<g id="node18" class="node"><title>Node18</title>
<g id="a_node18"><a xlink:href="dji__version_8hpp.html" target="_top" xlink:title="Drone/SDK Version definition for DJI onboardSDK library. ">
<polygon fill="white" stroke="black" points="854,-168.5 854,-187.5 936,-187.5 936,-168.5 854,-168.5"/>
<text text-anchor="middle" x="895" y="-175.5" font-family="Helvetica,sans-Serif" font-size="10.00">dji_version.hpp</text>
</a>
</g>
</g>
<!-- Node8&#45;&gt;Node18 -->
<g id="edge60" class="edge"><title>Node8&#45;&gt;Node18</title>
<path fill="none" stroke="midnightblue" d="M1064.44,-344.042C1027.64,-341.061 974.08,-331.15 940,-300 910.458,-272.998 900.234,-224.79 896.752,-198.1"/>
<polygon fill="midnightblue" stroke="midnightblue" points="900.191,-197.355 895.608,-187.803 893.234,-198.128 900.191,-197.355"/>
</g>
<!-- Node20 -->
<g id="node20" class="node"><title>Node20</title>
<g id="a_node20"><a xlink:href="dji__gimbal_8hpp.html" target="_top" xlink:title="Gimbal API for OSDK library. ">
<polygon fill="white" stroke="black" points="296.5,-168.5 296.5,-187.5 375.5,-187.5 375.5,-168.5 296.5,-168.5"/>
<text text-anchor="middle" x="336" y="-175.5" font-family="Helvetica,sans-Serif" font-size="10.00">dji_gimbal.hpp</text>
</a>
</g>
</g>
<!-- Node8&#45;&gt;Node20 -->
<g id="edge32" class="edge"><title>Node8&#45;&gt;Node20</title>
<path fill="none" stroke="midnightblue" d="M1064.42,-344.637C948.061,-343.17 615.113,-335.864 513,-300 446.549,-276.661 381.635,-221.723 352.287,-194.645"/>
<polygon fill="midnightblue" stroke="midnightblue" points="354.671,-192.081 344.981,-187.796 349.883,-197.188 354.671,-192.081"/>
</g>
<!-- Node21 -->
<g id="node21" class="node"><title>Node21</title>
<polygon fill="white" stroke="#bfbfbf" points="1490,-280.5 1490,-299.5 1588,-299.5 1588,-280.5 1490,-280.5"/>
<text text-anchor="middle" x="1539" y="-287.5" font-family="Helvetica,sans-Serif" font-size="10.00">dji_hard_driver.hpp</text>
</g>
<!-- Node8&#45;&gt;Node21 -->
<g id="edge35" class="edge"><title>Node8&#45;&gt;Node21</title>
<path fill="none" stroke="midnightblue" d="M1145.68,-340.602C1212.96,-333.224 1351.91,-317.555 1479.98,-300.099"/>
<polygon fill="midnightblue" stroke="midnightblue" points="1480.54,-303.556 1489.97,-298.731 1479.59,-296.621 1480.54,-303.556"/>
</g>
<!-- Node22 -->
<g id="node22" class="node"><title>Node22</title>
<g id="a_node22"><a xlink:href="dji__hardware__sync_8hpp.html" target="_top" xlink:title="Hardware Sync API for DJI OSDK. ">
<polygon fill="white" stroke="black" points="0,-224.5 0,-243.5 116,-243.5 116,-224.5 0,-224.5"/>
<text text-anchor="middle" x="58" y="-231.5" font-family="Helvetica,sans-Serif" font-size="10.00">dji_hardware_sync.hpp</text>
</a>
</g>
</g>
<!-- Node8&#45;&gt;Node22 -->
<g id="edge36" class="edge"><title>Node8&#45;&gt;Node22</title>
<path fill="none" stroke="midnightblue" d="M1064.38,-344.964C911.365,-344.518 369.943,-340.082 203,-300 157.648,-289.111 108.957,-264.255 81.1171,-248.629"/>
<polygon fill="midnightblue" stroke="midnightblue" points="82.5986,-245.445 72.1791,-243.525 79.1273,-251.523 82.5986,-245.445"/>
</g>
<!-- Node23 -->
<g id="node23" class="node"><title>Node23</title>
<g id="a_node23"><a xlink:href="dji__mfio_8hpp.html" target="_top" xlink:title="MFIO API for DJI OSDK library. ">
<polygon fill="white" stroke="black" points="1406.5,-224.5 1406.5,-243.5 1475.5,-243.5 1475.5,-224.5 1406.5,-224.5"/>
<text text-anchor="middle" x="1441" y="-231.5" font-family="Helvetica,sans-Serif" font-size="10.00">dji_mfio.hpp</text>
</a>
</g>
</g>
<!-- Node8&#45;&gt;Node23 -->
<g id="edge38" class="edge"><title>Node8&#45;&gt;Node23</title>
<path fill="none" stroke="midnightblue" d="M1145.84,-338.869C1187.4,-331.956 1253.31,-319.123 1308,-300 1318.81,-296.22 1379.04,-266.193 1414.63,-248.301"/>
<polygon fill="midnightblue" stroke="midnightblue" points="1416.6,-251.231 1423.96,-243.609 1413.45,-244.978 1416.6,-251.231"/>
</g>
<!-- Node24 -->
<g id="node24" class="node"><title>Node24</title>
<g id="a_node24"><a xlink:href="dji__mission__manager_8hpp.html" target="_top" xlink:title="Mission&#45;Manager API for DJI OSDK library. ">
<polygon fill="white" stroke="black" points="760.5,-280.5 760.5,-299.5 887.5,-299.5 887.5,-280.5 760.5,-280.5"/>
<text text-anchor="middle" x="824" y="-287.5" font-family="Helvetica,sans-Serif" font-size="10.00">dji_mission_manager.hpp</text>
</a>
</g>
</g>
<!-- Node8&#45;&gt;Node24 -->
<g id="edge40" class="edge"><title>Node8&#45;&gt;Node24</title>
<path fill="none" stroke="midnightblue" d="M1064.44,-337.206C1015.36,-327.774 932.555,-311.861 878.083,-301.393"/>
<polygon fill="midnightblue" stroke="midnightblue" points="878.737,-297.955 868.256,-299.505 877.416,-304.829 878.737,-297.955"/>
</g>
<!-- Node28 -->
<g id="node28" class="node"><title>Node28</title>
<g id="a_node28"><a xlink:href="dji__mobile__communication_8hpp.html" target="_top" xlink:title="Implementation of DJI Mobile&#45;Onboard SDK Communication (MOC) ">
<polygon fill="white" stroke="black" points="1622,-168.5 1622,-187.5 1772,-187.5 1772,-168.5 1622,-168.5"/>
<text text-anchor="middle" x="1697" y="-175.5" font-family="Helvetica,sans-Serif" font-size="10.00">dji_mobile_communication.hpp</text>
</a>
</g>
</g>
<!-- Node8&#45;&gt;Node28 -->
<g id="edge49" class="edge"><title>Node8&#45;&gt;Node28</title>
<path fill="none" stroke="midnightblue" d="M1145.65,-344.004C1295.2,-340.145 1807.38,-325.132 1831,-300 1871.13,-257.301 1781.19,-212.436 1729.75,-191.341"/>
<polygon fill="midnightblue" stroke="midnightblue" points="1730.91,-188.036 1720.32,-187.565 1728.31,-194.534 1730.91,-188.036"/>
</g>
<!-- Node29 -->
<g id="node29" class="node"><title>Node29</title>
<g id="a_node29"><a xlink:href="dji__status_8hpp.html" target="_top" xlink:title="Status information for DJI Vehicle. ">
<polygon fill="white" stroke="black" points="1606.5,-280.5 1606.5,-299.5 1683.5,-299.5 1683.5,-280.5 1606.5,-280.5"/>
<text text-anchor="middle" x="1645" y="-287.5" font-family="Helvetica,sans-Serif" font-size="10.00">dji_status.hpp</text>
</a>
</g>
</g>
<!-- Node8&#45;&gt;Node29 -->
<g id="edge52" class="edge"><title>Node8&#45;&gt;Node29</title>
<path fill="none" stroke="midnightblue" d="M1145.65,-342.582C1228.43,-337.377 1422.69,-323.735 1596.2,-299.979"/>
<polygon fill="midnightblue" stroke="midnightblue" points="1596.85,-303.422 1606.28,-298.584 1595.89,-296.488 1596.85,-303.422"/>
</g>
<!-- Node30 -->
<g id="node30" class="node"><title>Node30</title>
<g id="a_node30"><a xlink:href="dji__subscription_8hpp.html" target="_top" xlink:title="Telemetry Subscription API for DJI OSDK library. ">
<polygon fill="white" stroke="black" points="1246.5,-224.5 1246.5,-243.5 1349.5,-243.5 1349.5,-224.5 1246.5,-224.5"/>
<text text-anchor="middle" x="1298" y="-231.5" font-family="Helvetica,sans-Serif" font-size="10.00">dji_subscription.hpp</text>
</a>
</g>
</g>
<!-- Node8&#45;&gt;Node30 -->
<g id="edge53" class="edge"><title>Node8&#45;&gt;Node30</title>
<path fill="none" stroke="midnightblue" d="M1142.21,-336.432C1168.61,-329.286 1204.14,-317.434 1232,-300 1252.97,-286.878 1272.57,-266.06 1284.87,-251.53"/>
<polygon fill="midnightblue" stroke="midnightblue" points="1287.57,-253.753 1291.23,-243.808 1282.17,-249.304 1287.57,-253.753"/>
</g>
<!-- Node31 -->
<g id="node31" class="node"><title>Node31</title>
<polygon fill="white" stroke="#bfbfbf" points="1702,-280.5 1702,-299.5 1822,-299.5 1822,-280.5 1702,-280.5"/>
<text text-anchor="middle" x="1762" y="-287.5" font-family="Helvetica,sans-Serif" font-size="10.00">dji_thread_manager.hpp</text>
</g>
<!-- Node8&#45;&gt;Node31 -->
<g id="edge57" class="edge"><title>Node8&#45;&gt;Node31</title>
<path fill="none" stroke="midnightblue" d="M1145.7,-342.635C1239.84,-337.004 1480.13,-321.708 1691.76,-300.078"/>
<polygon fill="midnightblue" stroke="midnightblue" points="1692.22,-303.548 1701.81,-299.043 1691.51,-296.585 1692.22,-303.548"/>
</g>
<!-- Node32 -->
<g id="node32" class="node"><title>Node32</title>
<g id="a_node32"><a xlink:href="dji__virtual__rc_8hpp.html" target="_top" xlink:title="Virtual Radio Control API for DJI onboardSDK library. ">
<polygon fill="white" stroke="black" points="522,-280.5 522,-299.5 612,-299.5 612,-280.5 522,-280.5"/>
<text text-anchor="middle" x="567" y="-287.5" font-family="Helvetica,sans-Serif" font-size="10.00">dji_virtual_rc.hpp</text>
</a>
</g>
</g>
<!-- Node8&#45;&gt;Node32 -->
<g id="edge61" class="edge"><title>Node8&#45;&gt;Node32</title>
<path fill="none" stroke="midnightblue" d="M1064.12,-340.897C968.625,-331.312 730.795,-307.44 622.404,-296.561"/>
<polygon fill="midnightblue" stroke="midnightblue" points="622.628,-293.066 612.328,-295.55 621.929,-300.031 622.628,-293.066"/>
</g>
<!-- Node11 -->
<g id="node11" class="node"><title>Node11</title>
<g id="a_node11"><a xlink:href="dji__telemetry_8hpp.html" target="_top" xlink:title="Enumeration of all telemetry data types, structures and maps. ">
<polygon fill="white" stroke="black" points="954.5,-168.5 954.5,-187.5 1045.5,-187.5 1045.5,-168.5 954.5,-168.5"/>
<text text-anchor="middle" x="1000" y="-175.5" font-family="Helvetica,sans-Serif" font-size="10.00">dji_telemetry.hpp</text>
</a>
</g>
</g>
<!-- Node10&#45;&gt;Node11 -->
<g id="edge12" class="edge"><title>Node10&#45;&gt;Node11</title>
<path fill="none" stroke="midnightblue" d="M1088.13,-224.324C1071.29,-215.664 1045.19,-202.242 1025.76,-192.249"/>
<polygon fill="midnightblue" stroke="midnightblue" points="1027.32,-189.116 1016.83,-187.655 1024.12,-195.341 1027.32,-189.116"/>
</g>
<!-- Node10&#45;&gt;Node12 -->
<g id="edge14" class="edge"><title>Node10&#45;&gt;Node12</title>
<path fill="none" stroke="midnightblue" d="M1136.5,-224.446C1164.3,-216.443 1205.63,-203.427 1240,-188 1273.06,-173.161 1308.97,-151.455 1331.24,-137.278"/>
<polygon fill="midnightblue" stroke="midnightblue" points="1333.38,-140.061 1339.89,-131.705 1329.59,-134.175 1333.38,-140.061"/>
</g>
<!-- Node11&#45;&gt;Node6 -->
<g id="edge13" class="edge"><title>Node11&#45;&gt;Node6</title>
<path fill="none" stroke="midnightblue" d="M954.424,-169.233C951.239,-168.786 948.074,-168.369 945,-168 736.989,-143.061 683.679,-150.54 475,-132 460.56,-130.717 444.818,-129.173 430.643,-127.729"/>
<polygon fill="midnightblue" stroke="midnightblue" points="430.945,-124.242 420.64,-126.701 430.229,-131.205 430.945,-124.242"/>
</g>
<!-- Node12&#45;&gt;Node13 -->
<g id="edge15" class="edge"><title>Node12&#45;&gt;Node13</title>
<path fill="none" stroke="midnightblue" d="M1326.86,-112.444C1298.98,-103.32 1254.65,-88.8133 1223.6,-78.6509"/>
<polygon fill="midnightblue" stroke="midnightblue" points="1224.62,-75.3005 1214.02,-75.5164 1222.44,-81.9533 1224.62,-75.3005"/>
</g>
<!-- Node15&#45;&gt;Node6 -->
<g id="edge30" class="edge"><title>Node15&#45;&gt;Node6</title>
<path fill="none" stroke="midnightblue" d="M981.752,-285.855C934.923,-281.129 855.983,-269.816 793,-244 736.313,-220.764 735.153,-190.065 678,-168 633.794,-150.933 501.294,-135.061 430.977,-127.549"/>
<polygon fill="midnightblue" stroke="midnightblue" points="430.972,-124.03 420.66,-126.46 430.237,-130.991 430.972,-124.03"/>
</g>
<!-- Node15&#45;&gt;Node12 -->
<g id="edge31" class="edge"><title>Node15&#45;&gt;Node12</title>
<path fill="none" stroke="midnightblue" d="M1023.3,-280.1C1025.79,-266.19 1032.53,-239.308 1049,-224 1068.83,-205.564 1234.43,-156.724 1312.53,-134.41"/>
<polygon fill="midnightblue" stroke="midnightblue" points="1313.84,-137.676 1322.5,-131.57 1311.93,-130.944 1313.84,-137.676"/>
</g>
<!-- Node15&#45;&gt;Node13 -->
<g id="edge29" class="edge"><title>Node15&#45;&gt;Node13</title>
<path fill="none" stroke="midnightblue" d="M1021.01,-280.215C1019.96,-266.928 1019.77,-241.428 1031,-224 1047.23,-198.815 1065.51,-207.796 1088,-188 1124.82,-155.59 1159.3,-108.934 1176.53,-84.0902"/>
<polygon fill="midnightblue" stroke="midnightblue" points="1179.5,-85.9425 1182.26,-75.7115 1173.72,-81.9928 1179.5,-85.9425"/>
</g>
<!-- Node16 -->
<g id="node16" class="node"><title>Node16</title>
<g id="a_node16"><a xlink:href="dji__ack_8hpp.html" target="_top" xlink:title="All DJI OSDK ACK parsing. ">
<polygon fill="white" stroke="black" points="534,-224.5 534,-243.5 600,-243.5 600,-224.5 534,-224.5"/>
<text text-anchor="middle" x="567" y="-231.5" font-family="Helvetica,sans-Serif" font-size="10.00">dji_ack.hpp</text>
</a>
</g>
</g>
<!-- Node15&#45;&gt;Node16 -->
<g id="edge20" class="edge"><title>Node15&#45;&gt;Node16</title>
<path fill="none" stroke="midnightblue" d="M981.948,-286.01C909.698,-280.318 752.595,-266.586 610.608,-244.116"/>
<polygon fill="midnightblue" stroke="midnightblue" points="610.84,-240.609 600.412,-242.483 609.733,-247.52 610.84,-240.609"/>
</g>
<!-- Node16&#45;&gt;Node3 -->
<g id="edge21" class="edge"><title>Node16&#45;&gt;Node3</title>
<path fill="none" stroke="midnightblue" d="M564.964,-224.496C561.899,-211.993 555.737,-187.971 549,-168 545.937,-158.918 542.036,-149.009 538.649,-140.807"/>
<polygon fill="midnightblue" stroke="midnightblue" points="541.845,-139.378 534.736,-131.522 535.394,-142.096 541.845,-139.378"/>
</g>
<!-- Node16&#45;&gt;Node6 -->
<g id="edge24" class="edge"><title>Node16&#45;&gt;Node6</title>
<path fill="none" stroke="midnightblue" d="M533.718,-229.634C502.228,-224.947 455.126,-213.878 423,-188 407.865,-175.808 397.78,-155.654 392.014,-141.015"/>
<polygon fill="midnightblue" stroke="midnightblue" points="395.27,-139.729 388.567,-131.524 388.69,-142.118 395.27,-139.729"/>
</g>
<!-- Node17 -->
<g id="node17" class="node"><title>Node17</title>
<g id="a_node17"><a xlink:href="dji__mission__type_8hpp.html" target="_top" xlink:title="Mission related data struct for DJI OSDK library. ">
<polygon fill="white" stroke="black" points="432,-168.5 432,-187.5 540,-187.5 540,-168.5 432,-168.5"/>
<text text-anchor="middle" x="486" y="-175.5" font-family="Helvetica,sans-Serif" font-size="10.00">dji_mission_type.hpp</text>
</a>
</g>
</g>
<!-- Node16&#45;&gt;Node17 -->
<g id="edge22" class="edge"><title>Node16&#45;&gt;Node17</title>
<path fill="none" stroke="midnightblue" d="M553.986,-224.324C541.468,-215.979 522.318,-203.212 507.529,-193.352"/>
<polygon fill="midnightblue" stroke="midnightblue" points="509.244,-190.289 498.982,-187.655 505.361,-196.114 509.244,-190.289"/>
</g>
<!-- Node16&#45;&gt;Node18 -->
<g id="edge25" class="edge"><title>Node16&#45;&gt;Node18</title>
<path fill="none" stroke="midnightblue" d="M600.435,-225.647C603.327,-225.068 606.213,-224.511 609,-224 710.205,-205.455 738.63,-205.386 843.741,-188.167"/>
<polygon fill="midnightblue" stroke="midnightblue" points="844.519,-191.586 853.814,-186.503 843.378,-184.68 844.519,-191.586"/>
</g>
<!-- Node19 -->
<g id="node19" class="node"><title>Node19</title>
<polygon fill="white" stroke="#bfbfbf" points="634.5,-168.5 634.5,-187.5 669.5,-187.5 669.5,-168.5 634.5,-168.5"/>
<text text-anchor="middle" x="652" y="-175.5" font-family="Helvetica,sans-Serif" font-size="10.00">map</text>
</g>
<!-- Node16&#45;&gt;Node19 -->
<g id="edge28" class="edge"><title>Node16&#45;&gt;Node19</title>
<path fill="none" stroke="midnightblue" d="M580.657,-224.324C593.916,-215.9 614.268,-202.971 629.846,-193.074"/>
<polygon fill="midnightblue" stroke="midnightblue" points="631.813,-195.971 638.377,-187.655 628.06,-190.063 631.813,-195.971"/>
</g>
<!-- Node17&#45;&gt;Node6 -->
<g id="edge23" class="edge"><title>Node17&#45;&gt;Node6</title>
<path fill="none" stroke="midnightblue" d="M469.933,-168.324C454.042,-159.743 429.493,-146.486 411.042,-136.522"/>
<polygon fill="midnightblue" stroke="midnightblue" points="412.489,-133.326 402.027,-131.655 409.163,-139.486 412.489,-133.326"/>
</g>
<!-- Node18&#45;&gt;Node3 -->
<g id="edge26" class="edge"><title>Node18&#45;&gt;Node3</title>
<path fill="none" stroke="midnightblue" d="M853.819,-169.467C850.837,-168.959 847.873,-168.464 845,-168 755.264,-153.498 650.707,-138.989 587.748,-130.511"/>
<polygon fill="midnightblue" stroke="midnightblue" points="588.006,-127.015 577.629,-129.152 587.075,-133.952 588.006,-127.015"/>
</g>
<!-- Node18&#45;&gt;Node9 -->
<g id="edge27" class="edge"><title>Node18&#45;&gt;Node9</title>
<path fill="none" stroke="midnightblue" d="M908.335,-168.324C921.162,-159.979 940.785,-147.212 955.94,-137.352"/>
<polygon fill="midnightblue" stroke="midnightblue" points="958.224,-140.042 964.698,-131.655 954.407,-134.174 958.224,-140.042"/>
</g>
<!-- Node20&#45;&gt;Node3 -->
<g id="edge33" class="edge"><title>Node20&#45;&gt;Node3</title>
<path fill="none" stroke="midnightblue" d="M366.898,-168.444C400.274,-159.201 453.594,-144.436 490.349,-134.257"/>
<polygon fill="midnightblue" stroke="midnightblue" points="491.543,-137.558 500.246,-131.516 489.675,-130.812 491.543,-137.558"/>
</g>
<!-- Node20&#45;&gt;Node6 -->
<g id="edge34" class="edge"><title>Node20&#45;&gt;Node6</title>
<path fill="none" stroke="midnightblue" d="M344.256,-168.083C351.465,-160.298 362.11,-148.801 370.846,-139.367"/>
<polygon fill="midnightblue" stroke="midnightblue" points="373.671,-141.467 377.897,-131.751 368.535,-136.711 373.671,-141.467"/>
</g>
<!-- Node22&#45;&gt;Node6 -->
<g id="edge37" class="edge"><title>Node22&#45;&gt;Node6</title>
<path fill="none" stroke="midnightblue" d="M69.4227,-224.404C88.5663,-210.421 128.795,-182.827 167,-168 224.91,-145.526 296,-133.565 341.161,-127.756"/>
<polygon fill="midnightblue" stroke="midnightblue" points="341.731,-131.212 351.224,-126.508 340.87,-124.265 341.731,-131.212"/>
</g>
<!-- Node23&#45;&gt;Node12 -->
<g id="edge39" class="edge"><title>Node23&#45;&gt;Node12</title>
<path fill="none" stroke="midnightblue" d="M1434.84,-224.445C1425.72,-211.879 1408,-187.779 1392,-168 1384.2,-158.354 1375.14,-147.863 1367.72,-139.439"/>
<polygon fill="midnightblue" stroke="midnightblue" points="1370.21,-136.968 1360.95,-131.812 1364.97,-141.615 1370.21,-136.968"/>
</g>
<!-- Node25 -->
<g id="node25" class="node"><title>Node25</title>
<g id="a_node25"><a xlink:href="dji__hotpoint_8hpp.html" target="_top" xlink:title="Implementation of HotPoint (Point of Interest) Missions for DJI OSDK. ">
<polygon fill="white" stroke="black" points="802.5,-224.5 802.5,-243.5 887.5,-243.5 887.5,-224.5 802.5,-224.5"/>
<text text-anchor="middle" x="845" y="-231.5" font-family="Helvetica,sans-Serif" font-size="10.00">dji_hotpoint.hpp</text>
</a>
</g>
</g>
<!-- Node24&#45;&gt;Node25 -->
<g id="edge41" class="edge"><title>Node24&#45;&gt;Node25</title>
<path fill="none" stroke="midnightblue" d="M827.468,-280.083C830.312,-272.77 834.429,-262.181 837.96,-253.103"/>
<polygon fill="midnightblue" stroke="midnightblue" points="841.234,-254.34 841.597,-243.751 834.71,-251.803 841.234,-254.34"/>
</g>
<!-- Node27 -->
<g id="node27" class="node"><title>Node27</title>
<g id="a_node27"><a xlink:href="dji__waypoint_8hpp.html" target="_top" xlink:title="Implementation of GPS Waypoint Missions for DJI OSDK. ">
<polygon fill="white" stroke="black" points="618.5,-224.5 618.5,-243.5 707.5,-243.5 707.5,-224.5 618.5,-224.5"/>
<text text-anchor="middle" x="663" y="-231.5" font-family="Helvetica,sans-Serif" font-size="10.00">dji_waypoint.hpp</text>
</a>
</g>
</g>
<!-- Node24&#45;&gt;Node27 -->
<g id="edge47" class="edge"><title>Node24&#45;&gt;Node27</title>
<path fill="none" stroke="midnightblue" d="M798.489,-280.444C771.404,-271.359 728.41,-256.939 698.131,-246.783"/>
<polygon fill="midnightblue" stroke="midnightblue" points="698.986,-243.378 688.392,-243.516 696.76,-250.015 698.986,-243.378"/>
</g>
<!-- Node25&#45;&gt;Node11 -->
<g id="edge46" class="edge"><title>Node25&#45;&gt;Node11</title>
<path fill="none" stroke="midnightblue" d="M869.56,-224.444C895.523,-215.399 936.668,-201.064 965.797,-190.916"/>
<polygon fill="midnightblue" stroke="midnightblue" points="967.263,-194.112 975.555,-187.516 964.96,-187.501 967.263,-194.112"/>
</g>
<!-- Node26 -->
<g id="node26" class="node"><title>Node26</title>
<g id="a_node26"><a xlink:href="dji__mission__base_8hpp.html" target="_top" xlink:title="Mission&#45;Base abstract class for DJI OSDK library. ">
<polygon fill="white" stroke="black" points="726,-168.5 726,-187.5 836,-187.5 836,-168.5 726,-168.5"/>
<text text-anchor="middle" x="781" y="-175.5" font-family="Helvetica,sans-Serif" font-size="10.00">dji_mission_base.hpp</text>
</a>
</g>
</g>
<!-- Node25&#45;&gt;Node26 -->
<g id="edge42" class="edge"><title>Node25&#45;&gt;Node26</title>
<path fill="none" stroke="midnightblue" d="M834.717,-224.324C825.164,-216.263 810.72,-204.077 799.216,-194.369"/>
<polygon fill="midnightblue" stroke="midnightblue" points="801.37,-191.608 791.47,-187.834 796.856,-196.958 801.37,-191.608"/>
</g>
<!-- Node26&#45;&gt;Node3 -->
<g id="edge43" class="edge"><title>Node26&#45;&gt;Node3</title>
<path fill="none" stroke="midnightblue" d="M741.387,-168.444C697.775,-159.023 627.6,-143.866 580.422,-133.675"/>
<polygon fill="midnightblue" stroke="midnightblue" points="580.941,-130.207 570.428,-131.516 579.464,-137.049 580.941,-130.207"/>
</g>
<!-- Node26&#45;&gt;Node6 -->
<g id="edge44" class="edge"><title>Node26&#45;&gt;Node6</title>
<path fill="none" stroke="midnightblue" d="M725.661,-169.435C646.736,-158.645 503.379,-139.047 430.747,-129.117"/>
<polygon fill="midnightblue" stroke="midnightblue" points="430.942,-125.612 420.56,-127.725 429.994,-132.547 430.942,-125.612"/>
</g>
<!-- Node26&#45;&gt;Node12 -->
<g id="edge45" class="edge"><title>Node26&#45;&gt;Node12</title>
<path fill="none" stroke="midnightblue" d="M836.135,-169.063C839.132,-168.689 842.102,-168.332 845,-168 1000.47,-150.194 1183.41,-135.525 1281.78,-128.149"/>
<polygon fill="midnightblue" stroke="midnightblue" points="1282.19,-131.628 1291.9,-127.393 1281.67,-124.647 1282.19,-131.628"/>
</g>
<!-- Node27&#45;&gt;Node26 -->
<g id="edge48" class="edge"><title>Node27&#45;&gt;Node26</title>
<path fill="none" stroke="midnightblue" d="M681.697,-224.444C700.944,-215.636 731.152,-201.812 753.2,-191.722"/>
<polygon fill="midnightblue" stroke="midnightblue" points="754.753,-194.86 762.39,-187.516 751.84,-188.495 754.753,-194.86"/>
</g>
<!-- Node28&#45;&gt;Node12 -->
<g id="edge50" class="edge"><title>Node28&#45;&gt;Node12</title>
<path fill="none" stroke="midnightblue" d="M1642.49,-168.444C1581.35,-158.846 1482.26,-143.292 1417.36,-133.104"/>
<polygon fill="midnightblue" stroke="midnightblue" points="1417.67,-129.61 1407.25,-131.516 1416.59,-136.525 1417.67,-129.61"/>
</g>
<!-- Node30&#45;&gt;Node11 -->
<g id="edge55" class="edge"><title>Node30&#45;&gt;Node11</title>
<path fill="none" stroke="midnightblue" d="M1250.78,-224.444C1197.79,-214.841 1111.89,-199.275 1055.67,-189.088"/>
<polygon fill="midnightblue" stroke="midnightblue" points="1056,-185.59 1045.53,-187.251 1054.75,-192.478 1056,-185.59"/>
</g>
<!-- Node30&#45;&gt;Node12 -->
<g id="edge56" class="edge"><title>Node30&#45;&gt;Node12</title>
<path fill="none" stroke="midnightblue" d="M1302.32,-224.368C1311.31,-206.376 1332.22,-164.55 1344.19,-140.627"/>
<polygon fill="midnightblue" stroke="midnightblue" points="1347.36,-142.101 1348.7,-131.591 1341.1,-138.97 1347.36,-142.101"/>
</g>
<!-- Node30&#45;&gt;Node13 -->
<g id="edge54" class="edge"><title>Node30&#45;&gt;Node13</title>
<path fill="none" stroke="midnightblue" d="M1292.09,-224.075C1274.55,-197.606 1222.6,-119.209 1199.4,-84.2097"/>
<polygon fill="midnightblue" stroke="midnightblue" points="1202.12,-81.9707 1193.68,-75.5681 1196.28,-85.8374 1202.12,-81.9707"/>
</g>
<!-- Node32&#45;&gt;Node6 -->
<g id="edge64" class="edge"><title>Node32&#45;&gt;Node6</title>
<path fill="none" stroke="midnightblue" d="M521.755,-287.707C457.171,-283.129 340.463,-264.119 287,-188 269.038,-162.426 307.305,-144.306 341.362,-133.805"/>
<polygon fill="midnightblue" stroke="midnightblue" points="342.646,-137.076 351.267,-130.918 340.687,-130.356 342.646,-137.076"/>
</g>
<!-- Node32&#45;&gt;Node11 -->
<g id="edge65" class="edge"><title>Node32&#45;&gt;Node11</title>
<path fill="none" stroke="midnightblue" d="M594.674,-280.401C637.119,-267.358 720.952,-242.171 793,-224 844.887,-210.914 904.662,-198.166 946.597,-189.6"/>
<polygon fill="midnightblue" stroke="midnightblue" points="947.489,-192.99 956.591,-187.568 946.095,-186.13 947.489,-192.99"/>
</g>
<!-- Node32&#45;&gt;Node13 -->
<g id="edge63" class="edge"><title>Node32&#45;&gt;Node13</title>
<path fill="none" stroke="midnightblue" d="M554.311,-280.321C537.936,-267.998 512.907,-244.632 525,-224 550.758,-180.054 577.045,-185.179 625,-168 798.204,-105.951 1015.59,-80.8133 1122.49,-71.6595"/>
<polygon fill="midnightblue" stroke="midnightblue" points="1122.81,-75.1449 1132.48,-70.8228 1122.22,-68.1693 1122.81,-75.1449"/>
</g>
<!-- Node32&#45;&gt;Node16 -->
<g id="edge62" class="edge"><title>Node32&#45;&gt;Node16</title>
<path fill="none" stroke="midnightblue" d="M567,-280.083C567,-273.006 567,-262.861 567,-253.986"/>
<polygon fill="midnightblue" stroke="midnightblue" points="570.5,-253.751 567,-243.751 563.5,-253.751 570.5,-253.751"/>
</g>
</g>
</svg>
        <g id="navigator" transform="translate(0 0)" fill="#404254">
                <rect fill="#f2f5e9" fill-opacity="0.5" stroke="#606060" stroke-width=".5" x="0" y="0" width="60" height="60"/>
                <use id="zoomplus" xlink:href="#zoomPlus" x="17" y="9" onmousedown="handleZoom(evt,'in')"/>
                <use id="zoomminus" xlink:href="#zoomMin" x="42" y="9" onmousedown="handleZoom(evt,'out')"/>
                <use id="reset" xlink:href="#resetDef" x="30" y="36" onmousedown="handleReset()"/>
                <g id="arrowUp" xlink:href="#dirArrow" transform="translate(30 24)" onmousedown="handlePan(0,-1)">
                  <use xlink:href="#rim" fill="#404040">
                        <set attributeName="fill" to="#808080" begin="arrowUp.mouseover" end="arrowUp.mouseout"/>
                  </use>
                  <path fill="none" stroke="white" stroke-width="1.5" d="M0,-3.0v7 M-2.5,-0.5L0,-3.0L2.5,-0.5"/>
                </g>
                <g id="arrowRight" xlink:href="#dirArrow" transform="rotate(90) translate(36 -43)" onmousedown="handlePan(1,0)">
                  <use xlink:href="#rim" fill="#404040">
                        <set attributeName="fill" to="#808080" begin="arrowRight.mouseover" end="arrowRight.mouseout"/>
                  </use>
                  <path fill="none" stroke="white" stroke-width="1.5" d="M0,-3.0v7 M-2.5,-0.5L0,-3.0L2.5,-0.5"/>
                </g>
                <g id="arrowDown" xlink:href="#dirArrow" transform="rotate(180) translate(-30 -48)" onmousedown="handlePan(0,1)">
                  <use xlink:href="#rim" fill="#404040">
                        <set attributeName="fill" to="#808080" begin="arrowDown.mouseover" end="arrowDown.mouseout"/>
                  </use>
                  <path fill="none" stroke="white" stroke-width="1.5" d="M0,-3.0v7 M-2.5,-0.5L0,-3.0L2.5,-0.5"/>
                </g>
                <g id="arrowLeft" xlink:href="#dirArrow" transform="rotate(270) translate(-36 17)" onmousedown="handlePan(-1,0)">
                  <use xlink:href="#rim" fill="#404040">
                        <set attributeName="fill" to="#808080" begin="arrowLeft.mouseover" end="arrowLeft.mouseout"/>
                  </use>
                  <path fill="none" stroke="white" stroke-width="1.5" d="M0,-3.0v7 M-2.5,-0.5L0,-3.0L2.5,-0.5"/>
                </g>
        </g>
        <svg viewBox="0 0 15 15" width="100%" height="30px" preserveAspectRatio="xMaxYMin meet">
         <g id="arrow_out" transform="scale(0.3 0.3)">
          <a xlink:href="dji__camera_8cpp__incl_org.svg" target="_base">
           <rect id="button" ry="5" rx="5" y="6" x="6" height="38" width="38"
                fill="#f2f5e9" fill-opacity="0.5" stroke="#606060" stroke-width="1.0"/>
           <path id="arrow"
             d="M 11.500037,31.436501 C 11.940474,20.09759 22.043105,11.32322 32.158766,21.979434 L 37.068811,17.246167 C 37.068811,17.246167 37.088388,32 37.088388,32 L 22.160133,31.978069 C 22.160133,31.978069 26.997745,27.140456 26.997745,27.140456 C 18.528582,18.264221 13.291696,25.230495 11.500037,31.436501 z"
             style="fill:#404040;"/>
          </a>
         </g>
        </svg>
</svg>
