<?xml version="1.0" encoding="UTF-8" standalone="no"?>
<!DOCTYPE svg PUBLIC "-//W3C//DTD SVG 1.1//EN"
 "http://www.w3.org/Graphics/SVG/1.1/DTD/svg11.dtd">
<!-- Generated by graphviz version 2.38.0 (20140413.2041)
 -->
<!-- Title: osdk&#45;core/api/src/dji_mobile_communication.cpp Pages: 1 -->
<!--zoomable 431 -->
<svg id="main" version="1.1" xmlns="http://www.w3.org/2000/svg" xmlns:xlink="http://www.w3.org/1999/xlink" xml:space="preserve" onload="init(evt)">
<style type="text/css"><![CDATA[
.edge:hover path { stroke: red; }
.edge:hover polygon { stroke: red; fill: red; }
]]></style>
<script type="text/javascript"><![CDATA[
var edges = document.getElementsByTagName('g');
if (edges && edges.length) {
  for (var i=0;i<edges.length;i++) {
    if (edges[i].id.substr(0,4)=='edge') {
      edges[i].setAttribute('class','edge');
    }
  }
}
]]></script>
        <defs>
                <circle id="rim" cx="0" cy="0" r="7"/>
                <circle id="rim2" cx="0" cy="0" r="3.5"/>
                <g id="zoomPlus">
                        <use xlink:href="#rim" fill="#404040">
                                <set attributeName="fill" to="#808080" begin="zoomplus.mouseover" end="zoomplus.mouseout"/>
                        </use>
                        <path d="M-4,0h8M0,-4v8" fill="none" stroke="white" stroke-width="1.5" pointer-events="none"/>
                </g>
                <g id="zoomMin">
                        <use xlink:href="#rim" fill="#404040">
                                <set attributeName="fill" to="#808080" begin="zoomminus.mouseover" end="zoomminus.mouseout"/>
                        </use>
                        <path d="M-4,0h8" fill="none" stroke="white" stroke-width="1.5" pointer-events="none"/>
                </g>
                <g id="dirArrow">
                        <path fill="none" stroke="white" stroke-width="1.5" d="M0,-3.0v7 M-2.5,-0.5L0,-3.0L2.5,-0.5"/>
                </g>
               <g id="resetDef">
                       <use xlink:href="#rim2" fill="#404040">
                               <set attributeName="fill" to="#808080" begin="reset.mouseover" end="reset.mouseout"/>
                       </use>
               </g>
        </defs>

<script type="text/javascript">
var viewWidth = 1726;
var viewHeight = 431;
var sectionId = 'dynsection-0';
</script>
<script xlink:href="svgpan.js"/>
<svg id="graph" class="graph">
<g id="viewport">
<title>osdk&#45;core/api/src/dji_mobile_communication.cpp</title>
<polygon fill="white" stroke="none" points="-4,4 -4,-427 1722,-427 1722,4 -4,4"/>
<!-- Node1 -->
<g id="node1" class="node"><title>Node1</title>
<polygon fill="#bfbfbf" stroke="black" points="1028,-392.5 1028,-422.5 1168,-422.5 1168,-392.5 1028,-392.5"/>
<text text-anchor="start" x="1036" y="-410.5" font-family="Helvetica,sans-Serif" font-size="10.00">osdk&#45;core/api/src/dji</text>
<text text-anchor="middle" x="1098" y="-399.5" font-family="Helvetica,sans-Serif" font-size="10.00">_mobile_communication.cpp</text>
</g>
<!-- Node2 -->
<g id="node2" class="node"><title>Node2</title>
<g id="a_node2"><a xlink:href="dji__mobile__communication_8hpp.html" target="_top" xlink:title="Implementation of DJI Mobile&#45;Onboard SDK Communication (MOC) ">
<polygon fill="white" stroke="black" points="1568,-280.5 1568,-299.5 1718,-299.5 1718,-280.5 1568,-280.5"/>
<text text-anchor="middle" x="1643" y="-287.5" font-family="Helvetica,sans-Serif" font-size="10.00">dji_mobile_communication.hpp</text>
</a>
</g>
</g>
<!-- Node1&#45;&gt;Node2 -->
<g id="edge1" class="edge"><title>Node1&#45;&gt;Node2</title>
<path fill="none" stroke="midnightblue" d="M1164.28,-392.453C1274.7,-369.053 1493.89,-322.6 1592.67,-301.667"/>
<polygon fill="midnightblue" stroke="midnightblue" points="1593.64,-305.04 1602.69,-299.542 1592.18,-298.192 1593.64,-305.04"/>
</g>
<!-- Node5 -->
<g id="node5" class="node"><title>Node5</title>
<g id="a_node5"><a xlink:href="dji__vehicle_8hpp.html" target="_top" xlink:title="Vehicle API for DJI onboardSDK library. ">
<polygon fill="white" stroke="black" points="834.5,-336.5 834.5,-355.5 915.5,-355.5 915.5,-336.5 834.5,-336.5"/>
<text text-anchor="middle" x="875" y="-343.5" font-family="Helvetica,sans-Serif" font-size="10.00">dji_vehicle.hpp</text>
</a>
</g>
</g>
<!-- Node1&#45;&gt;Node5 -->
<g id="edge4" class="edge"><title>Node1&#45;&gt;Node5</title>
<path fill="none" stroke="midnightblue" d="M1045.43,-392.475C1006.12,-381.986 953.094,-367.837 916.684,-358.122"/>
<polygon fill="midnightblue" stroke="midnightblue" points="917.445,-354.703 906.881,-355.506 915.641,-361.466 917.445,-354.703"/>
</g>
<!-- Node3 -->
<g id="node3" class="node"><title>Node3</title>
<g id="a_node3"><a xlink:href="dji__vehicle__callback_8hpp.html" target="_top" xlink:title="Type definition for new Vehicle&#45;style callbacks. ">
<polygon fill="white" stroke="black" points="1185,-112.5 1185,-131.5 1307,-131.5 1307,-112.5 1185,-112.5"/>
<text text-anchor="middle" x="1246" y="-119.5" font-family="Helvetica,sans-Serif" font-size="10.00">dji_vehicle_callback.hpp</text>
</a>
</g>
</g>
<!-- Node2&#45;&gt;Node3 -->
<g id="edge2" class="edge"><title>Node2&#45;&gt;Node3</title>
<path fill="none" stroke="midnightblue" d="M1622.49,-280.425C1557.15,-253.103 1353.62,-168.001 1276.26,-135.652"/>
<polygon fill="midnightblue" stroke="midnightblue" points="1277.2,-132.252 1266.62,-131.624 1274.5,-138.711 1277.2,-132.252"/>
</g>
<!-- Node4 -->
<g id="node4" class="node"><title>Node4</title>
<polygon fill="white" stroke="#bfbfbf" points="1317.5,-56.5 1317.5,-75.5 1428.5,-75.5 1428.5,-56.5 1317.5,-56.5"/>
<text text-anchor="middle" x="1373" y="-63.5" font-family="Helvetica,sans-Serif" font-size="10.00">dji_open_protocol.hpp</text>
</g>
<!-- Node3&#45;&gt;Node4 -->
<g id="edge3" class="edge"><title>Node3&#45;&gt;Node4</title>
<path fill="none" stroke="midnightblue" d="M1266.12,-112.444C1287.02,-103.557 1319.93,-89.5632 1343.72,-79.4514"/>
<polygon fill="midnightblue" stroke="midnightblue" points="1345.14,-82.6504 1352.97,-75.5164 1342.4,-76.2085 1345.14,-82.6504"/>
</g>
<!-- Node5&#45;&gt;Node2 -->
<g id="edge50" class="edge"><title>Node5&#45;&gt;Node2</title>
<path fill="none" stroke="midnightblue" d="M915.599,-342.801C1021.01,-336.984 1312.07,-320.243 1554,-300 1555.12,-299.906 1556.25,-299.81 1557.39,-299.713"/>
<polygon fill="midnightblue" stroke="midnightblue" points="1558.1,-303.163 1567.75,-298.794 1557.48,-296.191 1558.1,-303.163"/>
</g>
<!-- Node5&#45;&gt;Node3 -->
<g id="edge60" class="edge"><title>Node5&#45;&gt;Node3</title>
<path fill="none" stroke="midnightblue" d="M915.678,-343.79C1018.06,-340.326 1280.13,-328.714 1306,-300 1327.82,-275.778 1278.41,-180.505 1256.15,-140.663"/>
<polygon fill="midnightblue" stroke="midnightblue" points="1259.11,-138.784 1251.14,-131.805 1253.02,-142.232 1259.11,-138.784"/>
</g>
<!-- Node5&#45;&gt;Node4 -->
<g id="edge51" class="edge"><title>Node5&#45;&gt;Node4</title>
<path fill="none" stroke="midnightblue" d="M915.551,-344.238C1046.32,-341.486 1451.28,-330.558 1501,-300 1529.7,-282.36 1540,-268.69 1540,-235 1540,-235 1540,-235 1540,-177 1540,-121.297 1474.4,-92.2083 1425.43,-78.2536"/>
<polygon fill="midnightblue" stroke="midnightblue" points="1426.14,-74.8198 1415.57,-75.5812 1424.31,-81.5759 1426.14,-74.8198"/>
</g>
<!-- Node6 -->
<g id="node6" class="node"><title>Node6</title>
<polygon fill="white" stroke="#bfbfbf" points="0,-112.5 0,-131.5 46,-131.5 46,-112.5 0,-112.5"/>
<text text-anchor="middle" x="23" y="-119.5" font-family="Helvetica,sans-Serif" font-size="10.00">cstdint</text>
</g>
<!-- Node5&#45;&gt;Node6 -->
<g id="edge5" class="edge"><title>Node5&#45;&gt;Node6</title>
<path fill="none" stroke="midnightblue" d="M834.401,-344.687C682.861,-343.244 155.622,-335.683 90,-300 35.8015,-270.529 27.1714,-246.639 8,-188 2.88837,-172.365 8.06591,-154.071 13.689,-140.881"/>
<polygon fill="midnightblue" stroke="midnightblue" points="16.9928,-142.082 18.106,-131.546 10.6654,-139.088 16.9928,-142.082"/>
</g>
<!-- Node7 -->
<g id="node7" class="node"><title>Node7</title>
<g id="a_node7"><a xlink:href="dji__broadcast_8hpp.html" target="_top" xlink:title="Broadcast Telemetry API for DJI onboardSDK library. ">
<polygon fill="white" stroke="black" points="1049.5,-224.5 1049.5,-243.5 1142.5,-243.5 1142.5,-224.5 1049.5,-224.5"/>
<text text-anchor="middle" x="1096" y="-231.5" font-family="Helvetica,sans-Serif" font-size="10.00">dji_broadcast.hpp</text>
</a>
</g>
</g>
<!-- Node5&#45;&gt;Node7 -->
<g id="edge6" class="edge"><title>Node5&#45;&gt;Node7</title>
<path fill="none" stroke="midnightblue" d="M900.439,-336.364C923.901,-328.072 959.461,-314.669 989,-300 1020.03,-284.589 1053.91,-263.167 1075.05,-249.196"/>
<polygon fill="midnightblue" stroke="midnightblue" points="1077.17,-251.987 1083.55,-243.526 1073.29,-246.163 1077.17,-251.987"/>
</g>
<!-- Node9 -->
<g id="node9" class="node"><title>Node9</title>
<g id="a_node9"><a xlink:href="dji__type_8hpp.html" target="_top" xlink:title="Data type and Data Structure definitions for use throughout DJI OSDK. ">
<polygon fill="white" stroke="black" points="487.5,-112.5 487.5,-131.5 556.5,-131.5 556.5,-112.5 487.5,-112.5"/>
<text text-anchor="middle" x="522" y="-119.5" font-family="Helvetica,sans-Serif" font-size="10.00">dji_type.hpp</text>
</a>
</g>
</g>
<!-- Node5&#45;&gt;Node9 -->
<g id="edge59" class="edge"><title>Node5&#45;&gt;Node9</title>
<path fill="none" stroke="midnightblue" d="M834.449,-340.458C808.241,-335.244 775.81,-324.047 758,-300 737.869,-272.818 748.169,-257.318 754,-224 758.405,-198.832 783.354,-187.631 767,-168 742.025,-138.02 630.524,-127.946 566.89,-124.611"/>
<polygon fill="midnightblue" stroke="midnightblue" points="566.89,-121.107 556.731,-124.115 566.548,-128.099 566.89,-121.107"/>
</g>
<!-- Node12 -->
<g id="node12" class="node"><title>Node12</title>
<g id="a_node12"><a xlink:href="dji__camera_8hpp.html" target="_top" xlink:title="Camera/Gimbal API for DJI onboardSDK library. ">
<polygon fill="white" stroke="black" points="155.5,-168.5 155.5,-187.5 238.5,-187.5 238.5,-168.5 155.5,-168.5"/>
<text text-anchor="middle" x="197" y="-175.5" font-family="Helvetica,sans-Serif" font-size="10.00">dji_camera.hpp</text>
</a>
</g>
</g>
<!-- Node5&#45;&gt;Node12 -->
<g id="edge12" class="edge"><title>Node5&#45;&gt;Node12</title>
<path fill="none" stroke="midnightblue" d="M834.355,-343.649C710.828,-339.293 345.376,-324.456 298,-300 253.173,-276.86 220.53,-224.295 205.77,-196.688"/>
<polygon fill="midnightblue" stroke="midnightblue" points="208.851,-195.025 201.152,-187.746 202.632,-198.237 208.851,-195.025"/>
</g>
<!-- Node13 -->
<g id="node13" class="node"><title>Node13</title>
<g id="a_node13"><a xlink:href="dji__command_8hpp.html" target="_top" xlink:title="All DJI OSDK OpenProtocol Command IDs. ">
<polygon fill="white" stroke="black" points="249.5,-112.5 249.5,-131.5 342.5,-131.5 342.5,-112.5 249.5,-112.5"/>
<text text-anchor="middle" x="296" y="-119.5" font-family="Helvetica,sans-Serif" font-size="10.00">dji_command.hpp</text>
</a>
</g>
</g>
<!-- Node5&#45;&gt;Node13 -->
<g id="edge19" class="edge"><title>Node5&#45;&gt;Node13</title>
<path fill="none" stroke="midnightblue" d="M834.314,-345.449C715.214,-346.227 369.275,-344.492 267,-300 194.021,-268.252 98.4931,-231.851 146,-168 167.4,-139.238 206.55,-128.166 239.488,-124.192"/>
<polygon fill="midnightblue" stroke="midnightblue" points="239.89,-127.669 249.484,-123.175 239.181,-120.705 239.89,-127.669"/>
</g>
<!-- Node15 -->
<g id="node15" class="node"><title>Node15</title>
<polygon fill="white" stroke="#bfbfbf" points="568,-280.5 568,-299.5 680,-299.5 680,-280.5 568,-280.5"/>
<text text-anchor="middle" x="624" y="-287.5" font-family="Helvetica,sans-Serif" font-size="10.00">dji_circular_buffer.hpp</text>
</g>
<!-- Node5&#45;&gt;Node15 -->
<g id="edge18" class="edge"><title>Node5&#45;&gt;Node15</title>
<path fill="none" stroke="midnightblue" d="M835.228,-336.444C791.442,-327.023 720.986,-311.866 673.62,-301.675"/>
<polygon fill="midnightblue" stroke="midnightblue" points="674.098,-298.198 663.586,-299.516 672.626,-305.041 674.098,-298.198"/>
</g>
<!-- Node16 -->
<g id="node16" class="node"><title>Node16</title>
<g id="a_node16"><a xlink:href="dji__control_8hpp.html" target="_top" xlink:title="Control API for DJI OSDK library. ">
<polygon fill="white" stroke="black" points="470,-280.5 470,-299.5 550,-299.5 550,-280.5 470,-280.5"/>
<text text-anchor="middle" x="510" y="-287.5" font-family="Helvetica,sans-Serif" font-size="10.00">dji_control.hpp</text>
</a>
</g>
</g>
<!-- Node5&#45;&gt;Node16 -->
<g id="edge20" class="edge"><title>Node5&#45;&gt;Node16</title>
<path fill="none" stroke="midnightblue" d="M834.014,-339.699C775.564,-332.021 664.657,-317.02 560.177,-300.138"/>
<polygon fill="midnightblue" stroke="midnightblue" points="560.521,-296.648 550.089,-298.499 559.398,-303.557 560.521,-296.648"/>
</g>
<!-- Node19 -->
<g id="node19" class="node"><title>Node19</title>
<g id="a_node19"><a xlink:href="dji__version_8hpp.html" target="_top" xlink:title="Drone/SDK Version definition for DJI onboardSDK library. ">
<polygon fill="white" stroke="black" points="17,-168.5 17,-187.5 99,-187.5 99,-168.5 17,-168.5"/>
<text text-anchor="middle" x="58" y="-175.5" font-family="Helvetica,sans-Serif" font-size="10.00">dji_version.hpp</text>
</a>
</g>
</g>
<!-- Node5&#45;&gt;Node19 -->
<g id="edge61" class="edge"><title>Node5&#45;&gt;Node19</title>
<path fill="none" stroke="midnightblue" d="M834.324,-345.023C685.007,-344.78 172.648,-340.945 113,-300 78.3885,-276.241 65.1938,-225.139 60.456,-197.558"/>
<polygon fill="midnightblue" stroke="midnightblue" points="63.9099,-196.991 58.9454,-187.631 56.9896,-198.044 63.9099,-196.991"/>
</g>
<!-- Node21 -->
<g id="node21" class="node"><title>Node21</title>
<g id="a_node21"><a xlink:href="dji__gimbal_8hpp.html" target="_top" xlink:title="Gimbal API for OSDK library. ">
<polygon fill="white" stroke="black" points="256.5,-168.5 256.5,-187.5 335.5,-187.5 335.5,-168.5 256.5,-168.5"/>
<text text-anchor="middle" x="296" y="-175.5" font-family="Helvetica,sans-Serif" font-size="10.00">dji_gimbal.hpp</text>
</a>
</g>
</g>
<!-- Node5&#45;&gt;Node21 -->
<g id="edge33" class="edge"><title>Node5&#45;&gt;Node21</title>
<path fill="none" stroke="midnightblue" d="M834.417,-344.584C712.074,-342.942 352.908,-335.146 315,-300 286.893,-273.94 288.947,-224.591 292.623,-197.668"/>
<polygon fill="midnightblue" stroke="midnightblue" points="296.105,-198.061 294.215,-187.636 289.191,-196.964 296.105,-198.061"/>
</g>
<!-- Node22 -->
<g id="node22" class="node"><title>Node22</title>
<polygon fill="white" stroke="#bfbfbf" points="882,-280.5 882,-299.5 980,-299.5 980,-280.5 882,-280.5"/>
<text text-anchor="middle" x="931" y="-287.5" font-family="Helvetica,sans-Serif" font-size="10.00">dji_hard_driver.hpp</text>
</g>
<!-- Node5&#45;&gt;Node22 -->
<g id="edge36" class="edge"><title>Node5&#45;&gt;Node22</title>
<path fill="none" stroke="midnightblue" d="M883.997,-336.324C892.194,-328.42 904.506,-316.548 914.472,-306.938"/>
<polygon fill="midnightblue" stroke="midnightblue" points="917.07,-309.295 921.839,-299.834 912.211,-304.256 917.07,-309.295"/>
</g>
<!-- Node23 -->
<g id="node23" class="node"><title>Node23</title>
<g id="a_node23"><a xlink:href="dji__hardware__sync_8hpp.html" target="_top" xlink:title="Hardware Sync API for DJI OSDK. ">
<polygon fill="white" stroke="black" points="763,-224.5 763,-243.5 879,-243.5 879,-224.5 763,-224.5"/>
<text text-anchor="middle" x="821" y="-231.5" font-family="Helvetica,sans-Serif" font-size="10.00">dji_hardware_sync.hpp</text>
</a>
</g>
</g>
<!-- Node5&#45;&gt;Node23 -->
<g id="edge37" class="edge"><title>Node5&#45;&gt;Node23</title>
<path fill="none" stroke="midnightblue" d="M834.365,-339.721C809.827,-334.209 780.411,-322.955 765,-300 752.271,-281.04 774.873,-261.477 795.053,-248.833"/>
<polygon fill="midnightblue" stroke="midnightblue" points="796.907,-251.804 803.731,-243.699 793.342,-245.779 796.907,-251.804"/>
</g>
<!-- Node24 -->
<g id="node24" class="node"><title>Node24</title>
<g id="a_node24"><a xlink:href="dji__mfio_8hpp.html" target="_top" xlink:title="MFIO API for DJI OSDK library. ">
<polygon fill="white" stroke="black" points="1172.5,-224.5 1172.5,-243.5 1241.5,-243.5 1241.5,-224.5 1172.5,-224.5"/>
<text text-anchor="middle" x="1207" y="-231.5" font-family="Helvetica,sans-Serif" font-size="10.00">dji_mfio.hpp</text>
</a>
</g>
</g>
<!-- Node5&#45;&gt;Node24 -->
<g id="edge39" class="edge"><title>Node5&#45;&gt;Node24</title>
<path fill="none" stroke="midnightblue" d="M907.552,-336.431C937.632,-328.185 983.374,-314.813 1022,-300 1041.68,-292.453 1045.36,-287.644 1065,-280 1098.63,-266.912 1137.79,-254.722 1166.46,-246.339"/>
<polygon fill="midnightblue" stroke="midnightblue" points="1167.5,-249.68 1176.14,-243.537 1165.56,-242.957 1167.5,-249.68"/>
</g>
<!-- Node25 -->
<g id="node25" class="node"><title>Node25</title>
<g id="a_node25"><a xlink:href="dji__mission__manager_8hpp.html" target="_top" xlink:title="Mission&#45;Manager API for DJI OSDK library. ">
<polygon fill="white" stroke="black" points="324.5,-280.5 324.5,-299.5 451.5,-299.5 451.5,-280.5 324.5,-280.5"/>
<text text-anchor="middle" x="388" y="-287.5" font-family="Helvetica,sans-Serif" font-size="10.00">dji_mission_manager.hpp</text>
</a>
</g>
</g>
<!-- Node5&#45;&gt;Node25 -->
<g id="edge41" class="edge"><title>Node5&#45;&gt;Node25</title>
<path fill="none" stroke="midnightblue" d="M834.431,-340.786C761.998,-333.22 605.377,-316.668 461.994,-300.1"/>
<polygon fill="midnightblue" stroke="midnightblue" points="462.031,-296.581 451.695,-298.908 461.226,-303.535 462.031,-296.581"/>
</g>
<!-- Node29 -->
<g id="node29" class="node"><title>Node29</title>
<polygon fill="white" stroke="#bfbfbf" points="1074,-280.5 1074,-299.5 1202,-299.5 1202,-280.5 1074,-280.5"/>
<text text-anchor="middle" x="1138" y="-287.5" font-family="Helvetica,sans-Serif" font-size="10.00">dji_platform_manager.hpp</text>
</g>
<!-- Node5&#45;&gt;Node29 -->
<g id="edge52" class="edge"><title>Node5&#45;&gt;Node29</title>
<path fill="none" stroke="midnightblue" d="M915.517,-336.681C961.485,-327.243 1036.55,-311.831 1086.6,-301.554"/>
<polygon fill="midnightblue" stroke="midnightblue" points="1087.48,-304.947 1096.57,-299.507 1086.07,-298.09 1087.48,-304.947"/>
</g>
<!-- Node30 -->
<g id="node30" class="node"><title>Node30</title>
<g id="a_node30"><a xlink:href="dji__status_8hpp.html" target="_top" xlink:title="Status information for DJI Vehicle. ">
<polygon fill="white" stroke="black" points="1220.5,-280.5 1220.5,-299.5 1297.5,-299.5 1297.5,-280.5 1220.5,-280.5"/>
<text text-anchor="middle" x="1259" y="-287.5" font-family="Helvetica,sans-Serif" font-size="10.00">dji_status.hpp</text>
</a>
</g>
</g>
<!-- Node5&#45;&gt;Node30 -->
<g id="edge53" class="edge"><title>Node5&#45;&gt;Node30</title>
<path fill="none" stroke="midnightblue" d="M915.701,-340.245C977.146,-332.914 1097.49,-317.964 1210.09,-300.072"/>
<polygon fill="midnightblue" stroke="midnightblue" points="1210.94,-303.48 1220.26,-298.444 1209.83,-296.568 1210.94,-303.48"/>
</g>
<!-- Node31 -->
<g id="node31" class="node"><title>Node31</title>
<g id="a_node31"><a xlink:href="dji__subscription_8hpp.html" target="_top" xlink:title="Telemetry Subscription API for DJI OSDK library. ">
<polygon fill="white" stroke="black" points="1321.5,-224.5 1321.5,-243.5 1424.5,-243.5 1424.5,-224.5 1321.5,-224.5"/>
<text text-anchor="middle" x="1373" y="-231.5" font-family="Helvetica,sans-Serif" font-size="10.00">dji_subscription.hpp</text>
</a>
</g>
</g>
<!-- Node5&#45;&gt;Node31 -->
<g id="edge54" class="edge"><title>Node5&#45;&gt;Node31</title>
<path fill="none" stroke="midnightblue" d="M915.614,-345.114C1045.49,-345.06 1444.46,-341.493 1483,-300 1506.03,-275.202 1462.54,-256.874 1423.64,-246.113"/>
<polygon fill="midnightblue" stroke="midnightblue" points="1424.45,-242.708 1413.89,-243.541 1422.66,-249.477 1424.45,-242.708"/>
</g>
<!-- Node32 -->
<g id="node32" class="node"><title>Node32</title>
<polygon fill="white" stroke="#bfbfbf" points="1354,-280.5 1354,-299.5 1474,-299.5 1474,-280.5 1354,-280.5"/>
<text text-anchor="middle" x="1414" y="-287.5" font-family="Helvetica,sans-Serif" font-size="10.00">dji_thread_manager.hpp</text>
</g>
<!-- Node5&#45;&gt;Node32 -->
<g id="edge58" class="edge"><title>Node5&#45;&gt;Node32</title>
<path fill="none" stroke="midnightblue" d="M915.776,-341.393C996.715,-334.159 1183.38,-317.1 1340,-300 1341.27,-299.862 1342.54,-299.721 1343.83,-299.578"/>
<polygon fill="midnightblue" stroke="midnightblue" points="1344.3,-303.047 1353.84,-298.442 1343.51,-296.092 1344.3,-303.047"/>
</g>
<!-- Node33 -->
<g id="node33" class="node"><title>Node33</title>
<g id="a_node33"><a xlink:href="dji__virtual__rc_8hpp.html" target="_top" xlink:title="Virtual Radio Control API for DJI onboardSDK library. ">
<polygon fill="white" stroke="black" points="774,-280.5 774,-299.5 864,-299.5 864,-280.5 774,-280.5"/>
<text text-anchor="middle" x="819" y="-287.5" font-family="Helvetica,sans-Serif" font-size="10.00">dji_virtual_rc.hpp</text>
</a>
</g>
</g>
<!-- Node5&#45;&gt;Node33 -->
<g id="edge62" class="edge"><title>Node5&#45;&gt;Node33</title>
<path fill="none" stroke="midnightblue" d="M866.003,-336.324C857.806,-328.42 845.494,-316.548 835.528,-306.938"/>
<polygon fill="midnightblue" stroke="midnightblue" points="837.789,-304.256 828.161,-299.834 832.93,-309.295 837.789,-304.256"/>
</g>
<!-- Node7&#45;&gt;Node3 -->
<g id="edge11" class="edge"><title>Node7&#45;&gt;Node3</title>
<path fill="none" stroke="midnightblue" d="M1107.77,-224.368C1133.4,-205.573 1194.5,-160.768 1226.18,-137.533"/>
<polygon fill="midnightblue" stroke="midnightblue" points="1228.29,-140.328 1234.28,-131.591 1224.15,-134.683 1228.29,-140.328"/>
</g>
<!-- Node8 -->
<g id="node8" class="node"><title>Node8</title>
<g id="a_node8"><a xlink:href="dji__telemetry_8hpp.html" target="_top" xlink:title="Enumeration of all telemetry data types, structures and maps. ">
<polygon fill="white" stroke="black" points="1011.5,-168.5 1011.5,-187.5 1102.5,-187.5 1102.5,-168.5 1011.5,-168.5"/>
<text text-anchor="middle" x="1057" y="-175.5" font-family="Helvetica,sans-Serif" font-size="10.00">dji_telemetry.hpp</text>
</a>
</g>
</g>
<!-- Node7&#45;&gt;Node8 -->
<g id="edge7" class="edge"><title>Node7&#45;&gt;Node8</title>
<path fill="none" stroke="midnightblue" d="M1089.56,-224.083C1084.05,-216.455 1075.97,-205.264 1069.24,-195.941"/>
<polygon fill="midnightblue" stroke="midnightblue" points="1072.01,-193.809 1063.32,-187.751 1066.34,-197.907 1072.01,-193.809"/>
</g>
<!-- Node8&#45;&gt;Node9 -->
<g id="edge8" class="edge"><title>Node8&#45;&gt;Node9</title>
<path fill="none" stroke="midnightblue" d="M1011.39,-172.396C910.104,-162.173 667.481,-137.684 566.883,-127.53"/>
<polygon fill="midnightblue" stroke="midnightblue" points="567.049,-124.029 556.748,-126.507 566.346,-130.994 567.049,-124.029"/>
</g>
<!-- Node10 -->
<g id="node10" class="node"><title>Node10</title>
<polygon fill="white" stroke="#bfbfbf" points="500.5,-56.5 500.5,-75.5 543.5,-75.5 543.5,-56.5 500.5,-56.5"/>
<text text-anchor="middle" x="522" y="-63.5" font-family="Helvetica,sans-Serif" font-size="10.00">cstdio</text>
</g>
<!-- Node9&#45;&gt;Node10 -->
<g id="edge9" class="edge"><title>Node9&#45;&gt;Node10</title>
<path fill="none" stroke="midnightblue" d="M522,-112.083C522,-105.006 522,-94.8611 522,-85.9865"/>
<polygon fill="midnightblue" stroke="midnightblue" points="525.5,-85.751 522,-75.7511 518.5,-85.7511 525.5,-85.751"/>
</g>
<!-- Node11 -->
<g id="node11" class="node"><title>Node11</title>
<polygon fill="white" stroke="#bfbfbf" points="334.5,-0.5 334.5,-19.5 383.5,-19.5 383.5,-0.5 334.5,-0.5"/>
<text text-anchor="middle" x="359" y="-7.5" font-family="Helvetica,sans-Serif" font-size="10.00">stdint.h</text>
</g>
<!-- Node9&#45;&gt;Node11 -->
<g id="edge10" class="edge"><title>Node9&#45;&gt;Node11</title>
<path fill="none" stroke="midnightblue" d="M509.21,-112.368C481.239,-93.4924 414.398,-48.385 380.096,-25.2367"/>
<polygon fill="midnightblue" stroke="midnightblue" points="381.978,-22.2841 371.731,-19.5914 378.062,-28.0865 381.978,-22.2841"/>
</g>
<!-- Node12&#45;&gt;Node9 -->
<g id="edge17" class="edge"><title>Node12&#45;&gt;Node9</title>
<path fill="none" stroke="midnightblue" d="M238.733,-169.437C241.53,-168.946 244.305,-168.463 247,-168 328.075,-154.071 422.774,-138.792 477.229,-130.102"/>
<polygon fill="midnightblue" stroke="midnightblue" points="477.917,-133.537 487.241,-128.506 476.815,-126.624 477.917,-133.537"/>
</g>
<!-- Node12&#45;&gt;Node13 -->
<g id="edge13" class="edge"><title>Node12&#45;&gt;Node13</title>
<path fill="none" stroke="midnightblue" d="M212.906,-168.324C228.638,-159.743 252.942,-146.486 271.209,-136.522"/>
<polygon fill="midnightblue" stroke="midnightblue" points="273.03,-139.516 280.133,-131.655 269.678,-133.37 273.03,-139.516"/>
</g>
<!-- Node13&#45;&gt;Node11 -->
<g id="edge16" class="edge"><title>Node13&#45;&gt;Node11</title>
<path fill="none" stroke="midnightblue" d="M297.137,-112.476C299.151,-99.531 304.196,-74.4699 315,-56 321.505,-44.8797 331.351,-34.4572 340.081,-26.4485"/>
<polygon fill="midnightblue" stroke="midnightblue" points="342.435,-29.0399 347.657,-19.8215 337.826,-23.7712 342.435,-29.0399"/>
</g>
<!-- Node14 -->
<g id="node14" class="node"><title>Node14</title>
<g id="a_node14"><a xlink:href="dji__error_8hpp.html" target="_top" xlink:title="All DJI OSDK OpenProtocol ACK Error Codes. ">
<polygon fill="white" stroke="black" points="324,-56.5 324,-75.5 394,-75.5 394,-56.5 324,-56.5"/>
<text text-anchor="middle" x="359" y="-63.5" font-family="Helvetica,sans-Serif" font-size="10.00">dji_error.hpp</text>
</a>
</g>
</g>
<!-- Node13&#45;&gt;Node14 -->
<g id="edge14" class="edge"><title>Node13&#45;&gt;Node14</title>
<path fill="none" stroke="midnightblue" d="M306.122,-112.324C315.526,-104.263 329.744,-92.0765 341.069,-82.3695"/>
<polygon fill="midnightblue" stroke="midnightblue" points="343.379,-84.9993 348.694,-75.8339 338.823,-79.6844 343.379,-84.9993"/>
</g>
<!-- Node14&#45;&gt;Node11 -->
<g id="edge15" class="edge"><title>Node14&#45;&gt;Node11</title>
<path fill="none" stroke="midnightblue" d="M359,-56.083C359,-49.0059 359,-38.8611 359,-29.9865"/>
<polygon fill="midnightblue" stroke="midnightblue" points="362.5,-29.751 359,-19.7511 355.5,-29.7511 362.5,-29.751"/>
</g>
<!-- Node16&#45;&gt;Node3 -->
<g id="edge32" class="edge"><title>Node16&#45;&gt;Node3</title>
<path fill="none" stroke="midnightblue" d="M550.067,-281.362C553.086,-280.872 556.088,-280.411 559,-280 719.092,-257.377 773.791,-310.863 921,-244 965.946,-223.585 957.942,-190.267 1002,-168 1055.95,-140.733 1124.07,-129.838 1174.62,-125.559"/>
<polygon fill="midnightblue" stroke="midnightblue" points="1175.11,-129.032 1184.8,-124.766 1174.56,-122.053 1175.11,-129.032"/>
</g>
<!-- Node16&#45;&gt;Node4 -->
<g id="edge30" class="edge"><title>Node16&#45;&gt;Node4</title>
<path fill="none" stroke="midnightblue" d="M550.072,-281.395C553.089,-280.897 556.09,-280.426 559,-280 704.545,-258.699 753.646,-303.882 888,-244 934.287,-223.37 928.512,-192.267 973,-168 1055.16,-123.182 1085.25,-134.871 1176,-112 1225.91,-99.4209 1283.33,-86.4786 1323.25,-77.7217"/>
<polygon fill="midnightblue" stroke="midnightblue" points="1324.23,-81.0883 1333.26,-75.533 1322.74,-74.2498 1324.23,-81.0883"/>
</g>
<!-- Node16&#45;&gt;Node9 -->
<g id="edge31" class="edge"><title>Node16&#45;&gt;Node9</title>
<path fill="none" stroke="midnightblue" d="M473.298,-280.349C454.166,-273.775 432.428,-262.583 421,-244 416.344,-236.428 418.836,-232.621 421,-224 427.873,-196.614 431.777,-188.682 451,-168 463.225,-154.847 480.101,-143.942 494.333,-136.162"/>
<polygon fill="midnightblue" stroke="midnightblue" points="495.989,-139.246 503.227,-131.509 492.744,-133.043 495.989,-139.246"/>
</g>
<!-- Node17 -->
<g id="node17" class="node"><title>Node17</title>
<g id="a_node17"><a xlink:href="dji__ack_8hpp.html" target="_top" xlink:title="All DJI OSDK ACK parsing. ">
<polygon fill="white" stroke="black" points="430,-224.5 430,-243.5 496,-243.5 496,-224.5 430,-224.5"/>
<text text-anchor="middle" x="463" y="-231.5" font-family="Helvetica,sans-Serif" font-size="10.00">dji_ack.hpp</text>
</a>
</g>
</g>
<!-- Node16&#45;&gt;Node17 -->
<g id="edge21" class="edge"><title>Node16&#45;&gt;Node17</title>
<path fill="none" stroke="midnightblue" d="M502.239,-280.083C495.463,-272.298 485.457,-260.801 477.245,-251.367"/>
<polygon fill="midnightblue" stroke="midnightblue" points="479.822,-248.996 470.617,-243.751 474.542,-253.592 479.822,-248.996"/>
</g>
<!-- Node17&#45;&gt;Node9 -->
<g id="edge25" class="edge"><title>Node17&#45;&gt;Node9</title>
<path fill="none" stroke="midnightblue" d="M459.83,-224.433C455.578,-211.431 449.584,-186.296 459,-168 466.077,-154.247 479.521,-143.766 492.178,-136.394"/>
<polygon fill="midnightblue" stroke="midnightblue" points="493.999,-139.389 501.153,-131.573 490.687,-133.222 493.999,-139.389"/>
</g>
<!-- Node17&#45;&gt;Node13 -->
<g id="edge22" class="edge"><title>Node17&#45;&gt;Node13</title>
<path fill="none" stroke="midnightblue" d="M449.896,-224.368C421.239,-205.492 352.757,-160.385 317.614,-137.237"/>
<polygon fill="midnightblue" stroke="midnightblue" points="319.32,-134.169 309.043,-131.591 315.469,-140.015 319.32,-134.169"/>
</g>
<!-- Node18 -->
<g id="node18" class="node"><title>Node18</title>
<g id="a_node18"><a xlink:href="dji__mission__type_8hpp.html" target="_top" xlink:title="Mission related data struct for DJI OSDK library. ">
<polygon fill="white" stroke="black" points="468,-168.5 468,-187.5 576,-187.5 576,-168.5 468,-168.5"/>
<text text-anchor="middle" x="522" y="-175.5" font-family="Helvetica,sans-Serif" font-size="10.00">dji_mission_type.hpp</text>
</a>
</g>
</g>
<!-- Node17&#45;&gt;Node18 -->
<g id="edge23" class="edge"><title>Node17&#45;&gt;Node18</title>
<path fill="none" stroke="midnightblue" d="M472.479,-224.324C481.201,-216.341 494.343,-204.313 504.898,-194.653"/>
<polygon fill="midnightblue" stroke="midnightblue" points="507.334,-197.167 512.348,-187.834 502.608,-192.004 507.334,-197.167"/>
</g>
<!-- Node17&#45;&gt;Node19 -->
<g id="edge26" class="edge"><title>Node17&#45;&gt;Node19</title>
<path fill="none" stroke="midnightblue" d="M429.857,-228.581C359.22,-219.163 193.437,-197.058 109.146,-185.82"/>
<polygon fill="midnightblue" stroke="midnightblue" points="109.412,-182.324 99.0374,-184.472 108.487,-189.263 109.412,-182.324"/>
</g>
<!-- Node20 -->
<g id="node20" class="node"><title>Node20</title>
<polygon fill="white" stroke="#bfbfbf" points="594.5,-168.5 594.5,-187.5 629.5,-187.5 629.5,-168.5 594.5,-168.5"/>
<text text-anchor="middle" x="612" y="-175.5" font-family="Helvetica,sans-Serif" font-size="10.00">map</text>
</g>
<!-- Node17&#45;&gt;Node20 -->
<g id="edge29" class="edge"><title>Node17&#45;&gt;Node20</title>
<path fill="none" stroke="midnightblue" d="M486.609,-224.444C513.212,-214.802 556.397,-199.151 584.5,-188.966"/>
<polygon fill="midnightblue" stroke="midnightblue" points="585.904,-192.181 594.113,-185.483 583.519,-185.599 585.904,-192.181"/>
</g>
<!-- Node18&#45;&gt;Node9 -->
<g id="edge24" class="edge"><title>Node18&#45;&gt;Node9</title>
<path fill="none" stroke="midnightblue" d="M522,-168.083C522,-161.006 522,-150.861 522,-141.986"/>
<polygon fill="midnightblue" stroke="midnightblue" points="525.5,-141.751 522,-131.751 518.5,-141.751 525.5,-141.751"/>
</g>
<!-- Node19&#45;&gt;Node6 -->
<g id="edge28" class="edge"><title>Node19&#45;&gt;Node6</title>
<path fill="none" stroke="midnightblue" d="M52.2205,-168.083C47.3276,-160.534 40.1726,-149.495 34.1674,-140.23"/>
<polygon fill="midnightblue" stroke="midnightblue" points="37.048,-138.239 28.672,-131.751 31.174,-142.046 37.048,-138.239"/>
</g>
<!-- Node19&#45;&gt;Node13 -->
<g id="edge27" class="edge"><title>Node19&#45;&gt;Node13</title>
<path fill="none" stroke="midnightblue" d="M95.7118,-168.444C137.143,-159.043 203.757,-143.929 248.667,-133.739"/>
<polygon fill="midnightblue" stroke="midnightblue" points="249.487,-137.142 258.465,-131.516 247.938,-130.316 249.487,-137.142"/>
</g>
<!-- Node21&#45;&gt;Node9 -->
<g id="edge35" class="edge"><title>Node21&#45;&gt;Node9</title>
<path fill="none" stroke="midnightblue" d="M331.81,-168.444C371.333,-159 434.988,-143.79 477.639,-133.599"/>
<polygon fill="midnightblue" stroke="midnightblue" points="478.556,-136.979 487.469,-131.251 476.929,-130.171 478.556,-136.979"/>
</g>
<!-- Node21&#45;&gt;Node13 -->
<g id="edge34" class="edge"><title>Node21&#45;&gt;Node13</title>
<path fill="none" stroke="midnightblue" d="M296,-168.083C296,-161.006 296,-150.861 296,-141.986"/>
<polygon fill="midnightblue" stroke="midnightblue" points="299.5,-141.751 296,-131.751 292.5,-141.751 299.5,-141.751"/>
</g>
<!-- Node23&#45;&gt;Node9 -->
<g id="edge38" class="edge"><title>Node23&#45;&gt;Node9</title>
<path fill="none" stroke="midnightblue" d="M820.902,-224.301C820.239,-210.17 816.737,-182.368 800,-168 765.773,-138.617 636.449,-128.213 566.904,-124.693"/>
<polygon fill="midnightblue" stroke="midnightblue" points="566.844,-121.186 556.688,-124.204 566.509,-128.178 566.844,-121.186"/>
</g>
<!-- Node24&#45;&gt;Node3 -->
<g id="edge40" class="edge"><title>Node24&#45;&gt;Node3</title>
<path fill="none" stroke="midnightblue" d="M1210.06,-224.368C1216.38,-206.537 1231,-165.295 1239.52,-141.272"/>
<polygon fill="midnightblue" stroke="midnightblue" points="1242.91,-142.186 1242.95,-131.591 1236.31,-139.847 1242.91,-142.186"/>
</g>
<!-- Node26 -->
<g id="node26" class="node"><title>Node26</title>
<g id="a_node26"><a xlink:href="dji__hotpoint_8hpp.html" target="_top" xlink:title="Implementation of HotPoint (Point of Interest) Missions for DJI OSDK. ">
<polygon fill="white" stroke="black" points="621.5,-224.5 621.5,-243.5 706.5,-243.5 706.5,-224.5 621.5,-224.5"/>
<text text-anchor="middle" x="664" y="-231.5" font-family="Helvetica,sans-Serif" font-size="10.00">dji_hotpoint.hpp</text>
</a>
</g>
</g>
<!-- Node25&#45;&gt;Node26 -->
<g id="edge42" class="edge"><title>Node25&#45;&gt;Node26</title>
<path fill="none" stroke="midnightblue" d="M431.733,-280.444C480.468,-270.908 559.25,-255.495 611.334,-245.304"/>
<polygon fill="midnightblue" stroke="midnightblue" points="612.237,-248.694 621.378,-243.339 610.892,-241.824 612.237,-248.694"/>
</g>
<!-- Node28 -->
<g id="node28" class="node"><title>Node28</title>
<g id="a_node28"><a xlink:href="dji__waypoint_8hpp.html" target="_top" xlink:title="Implementation of GPS Waypoint Missions for DJI OSDK. ">
<polygon fill="white" stroke="black" points="514.5,-224.5 514.5,-243.5 603.5,-243.5 603.5,-224.5 514.5,-224.5"/>
<text text-anchor="middle" x="559" y="-231.5" font-family="Helvetica,sans-Serif" font-size="10.00">dji_waypoint.hpp</text>
</a>
</g>
</g>
<!-- Node25&#45;&gt;Node28 -->
<g id="edge48" class="edge"><title>Node25&#45;&gt;Node28</title>
<path fill="none" stroke="midnightblue" d="M415.095,-280.444C443.988,-271.32 489.925,-256.813 522.105,-246.651"/>
<polygon fill="midnightblue" stroke="midnightblue" points="523.549,-249.865 532.031,-243.516 521.441,-243.19 523.549,-249.865"/>
</g>
<!-- Node26&#45;&gt;Node8 -->
<g id="edge47" class="edge"><title>Node26&#45;&gt;Node8</title>
<path fill="none" stroke="midnightblue" d="M706.806,-227.118C778.203,-217.308 921.57,-197.609 1000.93,-186.704"/>
<polygon fill="midnightblue" stroke="midnightblue" points="1001.79,-190.119 1011.22,-185.29 1000.84,-183.184 1001.79,-190.119"/>
</g>
<!-- Node27 -->
<g id="node27" class="node"><title>Node27</title>
<g id="a_node27"><a xlink:href="dji__mission__base_8hpp.html" target="_top" xlink:title="Mission&#45;Base abstract class for DJI OSDK library. ">
<polygon fill="white" stroke="black" points="648,-168.5 648,-187.5 758,-187.5 758,-168.5 648,-168.5"/>
<text text-anchor="middle" x="703" y="-175.5" font-family="Helvetica,sans-Serif" font-size="10.00">dji_mission_base.hpp</text>
</a>
</g>
</g>
<!-- Node26&#45;&gt;Node27 -->
<g id="edge43" class="edge"><title>Node26&#45;&gt;Node27</title>
<path fill="none" stroke="midnightblue" d="M670.44,-224.083C675.949,-216.455 684.031,-205.264 690.765,-195.941"/>
<polygon fill="midnightblue" stroke="midnightblue" points="693.662,-197.907 696.68,-187.751 687.987,-193.809 693.662,-197.907"/>
</g>
<!-- Node27&#45;&gt;Node3 -->
<g id="edge46" class="edge"><title>Node27&#45;&gt;Node3</title>
<path fill="none" stroke="midnightblue" d="M758.054,-171.525C857.016,-161.683 1064.85,-141.015 1174.61,-130.1"/>
<polygon fill="midnightblue" stroke="midnightblue" points="1174.99,-133.579 1184.59,-129.107 1174.3,-126.614 1174.99,-133.579"/>
</g>
<!-- Node27&#45;&gt;Node9 -->
<g id="edge45" class="edge"><title>Node27&#45;&gt;Node9</title>
<path fill="none" stroke="midnightblue" d="M674.32,-168.444C643.473,-159.241 594.272,-144.562 560.171,-134.388"/>
<polygon fill="midnightblue" stroke="midnightblue" points="561.129,-131.021 550.546,-131.516 559.128,-137.729 561.129,-131.021"/>
</g>
<!-- Node27&#45;&gt;Node13 -->
<g id="edge44" class="edge"><title>Node27&#45;&gt;Node13</title>
<path fill="none" stroke="midnightblue" d="M647.685,-169.315C644.408,-168.868 641.161,-168.427 638,-168 537.659,-154.452 420.685,-139.171 352.813,-130.356"/>
<polygon fill="midnightblue" stroke="midnightblue" points="353.125,-126.867 342.757,-129.051 352.224,-133.809 353.125,-126.867"/>
</g>
<!-- Node28&#45;&gt;Node27 -->
<g id="edge49" class="edge"><title>Node28&#45;&gt;Node27</title>
<path fill="none" stroke="midnightblue" d="M581.817,-224.444C605.832,-215.438 643.829,-201.189 670.869,-191.049"/>
<polygon fill="midnightblue" stroke="midnightblue" points="672.155,-194.305 680.29,-187.516 669.697,-187.751 672.155,-194.305"/>
</g>
<!-- Node31&#45;&gt;Node3 -->
<g id="edge57" class="edge"><title>Node31&#45;&gt;Node3</title>
<path fill="none" stroke="midnightblue" d="M1364.82,-224.185C1352.7,-211.295 1329.02,-186.796 1307,-168 1294.4,-157.241 1279.44,-146.18 1267.49,-137.717"/>
<polygon fill="midnightblue" stroke="midnightblue" points="1269.22,-134.661 1259.02,-131.799 1265.21,-140.398 1269.22,-134.661"/>
</g>
<!-- Node31&#45;&gt;Node4 -->
<g id="edge55" class="edge"><title>Node31&#45;&gt;Node4</title>
<path fill="none" stroke="midnightblue" d="M1373,-224.075C1373,-197.945 1373,-121.211 1373,-85.577"/>
<polygon fill="midnightblue" stroke="midnightblue" points="1376.5,-85.5681 1373,-75.5681 1369.5,-85.5681 1376.5,-85.5681"/>
</g>
<!-- Node31&#45;&gt;Node8 -->
<g id="edge56" class="edge"><title>Node31&#45;&gt;Node8</title>
<path fill="none" stroke="midnightblue" d="M1322.93,-224.444C1265.68,-214.66 1172.21,-198.688 1112.71,-188.519"/>
<polygon fill="midnightblue" stroke="midnightblue" points="1113.18,-185.05 1102.73,-186.815 1112,-191.95 1113.18,-185.05"/>
</g>
<!-- Node33&#45;&gt;Node4 -->
<g id="edge64" class="edge"><title>Node33&#45;&gt;Node4</title>
<path fill="none" stroke="midnightblue" d="M864.033,-281.145C867.063,-280.725 870.073,-280.337 873,-280 934.941,-272.866 1390.35,-289.481 1433,-244 1476.79,-197.308 1417.45,-117.465 1387.93,-83.2949"/>
<polygon fill="midnightblue" stroke="midnightblue" points="1390.4,-80.8035 1381.15,-75.6395 1385.16,-85.4455 1390.4,-80.8035"/>
</g>
<!-- Node33&#45;&gt;Node8 -->
<g id="edge66" class="edge"><title>Node33&#45;&gt;Node8</title>
<path fill="none" stroke="midnightblue" d="M864.397,-280.592C909.423,-271.712 974.809,-257.197 997,-244 1017.33,-231.909 1034.92,-210.836 1045.7,-195.968"/>
<polygon fill="midnightblue" stroke="midnightblue" points="1048.66,-197.852 1051.5,-187.647 1042.91,-193.85 1048.66,-197.852"/>
</g>
<!-- Node33&#45;&gt;Node9 -->
<g id="edge65" class="edge"><title>Node33&#45;&gt;Node9</title>
<path fill="none" stroke="midnightblue" d="M842.788,-280.499C858.721,-273.413 878.463,-261.605 888,-244 912.816,-198.188 833.196,-173.487 821,-168 737.001,-130.207 627.684,-123.081 567.216,-122.338"/>
<polygon fill="midnightblue" stroke="midnightblue" points="566.892,-118.835 556.869,-122.268 566.845,-125.835 566.892,-118.835"/>
</g>
<!-- Node33&#45;&gt;Node17 -->
<g id="edge63" class="edge"><title>Node33&#45;&gt;Node17</title>
<path fill="none" stroke="midnightblue" d="M773.866,-283.522C714.699,-276.123 607.474,-261.966 506.495,-244.17"/>
<polygon fill="midnightblue" stroke="midnightblue" points="506.888,-240.685 496.43,-242.38 505.663,-247.577 506.888,-240.685"/>
</g>
</g>
</svg>
        <g id="navigator" transform="translate(0 0)" fill="#404254">
                <rect fill="#f2f5e9" fill-opacity="0.5" stroke="#606060" stroke-width=".5" x="0" y="0" width="60" height="60"/>
                <use id="zoomplus" xlink:href="#zoomPlus" x="17" y="9" onmousedown="handleZoom(evt,'in')"/>
                <use id="zoomminus" xlink:href="#zoomMin" x="42" y="9" onmousedown="handleZoom(evt,'out')"/>
                <use id="reset" xlink:href="#resetDef" x="30" y="36" onmousedown="handleReset()"/>
                <g id="arrowUp" xlink:href="#dirArrow" transform="translate(30 24)" onmousedown="handlePan(0,-1)">
                  <use xlink:href="#rim" fill="#404040">
                        <set attributeName="fill" to="#808080" begin="arrowUp.mouseover" end="arrowUp.mouseout"/>
                  </use>
                  <path fill="none" stroke="white" stroke-width="1.5" d="M0,-3.0v7 M-2.5,-0.5L0,-3.0L2.5,-0.5"/>
                </g>
                <g id="arrowRight" xlink:href="#dirArrow" transform="rotate(90) translate(36 -43)" onmousedown="handlePan(1,0)">
                  <use xlink:href="#rim" fill="#404040">
                        <set attributeName="fill" to="#808080" begin="arrowRight.mouseover" end="arrowRight.mouseout"/>
                  </use>
                  <path fill="none" stroke="white" stroke-width="1.5" d="M0,-3.0v7 M-2.5,-0.5L0,-3.0L2.5,-0.5"/>
                </g>
                <g id="arrowDown" xlink:href="#dirArrow" transform="rotate(180) translate(-30 -48)" onmousedown="handlePan(0,1)">
                  <use xlink:href="#rim" fill="#404040">
                        <set attributeName="fill" to="#808080" begin="arrowDown.mouseover" end="arrowDown.mouseout"/>
                  </use>
                  <path fill="none" stroke="white" stroke-width="1.5" d="M0,-3.0v7 M-2.5,-0.5L0,-3.0L2.5,-0.5"/>
                </g>
                <g id="arrowLeft" xlink:href="#dirArrow" transform="rotate(270) translate(-36 17)" onmousedown="handlePan(-1,0)">
                  <use xlink:href="#rim" fill="#404040">
                        <set attributeName="fill" to="#808080" begin="arrowLeft.mouseover" end="arrowLeft.mouseout"/>
                  </use>
                  <path fill="none" stroke="white" stroke-width="1.5" d="M0,-3.0v7 M-2.5,-0.5L0,-3.0L2.5,-0.5"/>
                </g>
        </g>
        <svg viewBox="0 0 15 15" width="100%" height="30px" preserveAspectRatio="xMaxYMin meet">
         <g id="arrow_out" transform="scale(0.3 0.3)">
          <a xlink:href="dji__mobile__communication_8cpp__incl_org.svg" target="_base">
           <rect id="button" ry="5" rx="5" y="6" x="6" height="38" width="38"
                fill="#f2f5e9" fill-opacity="0.5" stroke="#606060" stroke-width="1.0"/>
           <path id="arrow"
             d="M 11.500037,31.436501 C 11.940474,20.09759 22.043105,11.32322 32.158766,21.979434 L 37.068811,17.246167 C 37.068811,17.246167 37.088388,32 37.088388,32 L 22.160133,31.978069 C 22.160133,31.978069 26.997745,27.140456 26.997745,27.140456 C 18.528582,18.264221 13.291696,25.230495 11.500037,31.436501 z"
             style="fill:#404040;"/>
          </a>
         </g>
        </svg>
</svg>
