<?xml version="1.0" encoding="UTF-8" standalone="no"?>
<!DOCTYPE svg PUBLIC "-//W3C//DTD SVG 1.1//EN"
 "http://www.w3.org/Graphics/SVG/1.1/DTD/svg11.dtd">
<!-- Generated by graphviz version 2.40.1 (20161225.0304)
 -->
<!-- Title: osdk&#45;core/api/inc/dji_ack.hpp Pages: 1 -->
<svg width="346pt" height="263pt"
 viewBox="0.00 0.00 345.50 263.00" xmlns="http://www.w3.org/2000/svg" xmlns:xlink="http://www.w3.org/1999/xlink">
<g id="graph0" class="graph" transform="scale(1 1) rotate(0) translate(4 259)">
<title>osdk&#45;core/api/inc/dji_ack.hpp</title>
<polygon fill="#ffffff" stroke="transparent" points="-4,4 -4,-259 341.5,-259 341.5,4 -4,4"/>
<!-- Node0 -->
<g id="node1" class="node">
<title>Node0</title>
<g id="a_node1"><a xlink:title="All DJI OSDK ACK parsing.">
<polygon fill="#bfbfbf" stroke="#000000" points="122,-224.5 122,-254.5 226,-254.5 226,-224.5 122,-224.5"/>
<text text-anchor="start" x="130" y="-242.5" font-family="Helvetica,sans-Serif" font-size="10.00" fill="#000000">osdk&#45;core/api/inc/dji</text>
<text text-anchor="middle" x="174" y="-231.5" font-family="Helvetica,sans-Serif" font-size="10.00" fill="#000000">_ack.hpp</text>
</a>
</g>
</g>
<!-- Node1 -->
<g id="node2" class="node">
<title>Node1</title>
<g id="a_node2"><a xlink:href="dji__command_8hpp.html" target="_top" xlink:title="All DJI OSDK OpenProtocol Command IDs.">
<polygon fill="#ffffff" stroke="#000000" points="127.5,-112.5 127.5,-131.5 220.5,-131.5 220.5,-112.5 127.5,-112.5"/>
<text text-anchor="middle" x="174" y="-119.5" font-family="Helvetica,sans-Serif" font-size="10.00" fill="#000000">dji_command.hpp</text>
</a>
</g>
</g>
<!-- Node0&#45;&gt;Node1 -->
<g id="edge1" class="edge">
<title>Node0&#45;&gt;Node1</title>
<path fill="none" stroke="#191970" d="M174,-224.1389C174,-202.9692 174,-164.8174 174,-141.6112"/>
<polygon fill="#191970" stroke="#191970" points="177.5001,-141.5594 174,-131.5595 170.5001,-141.5595 177.5001,-141.5594"/>
</g>
<!-- Node4 -->
<g id="node5" class="node">
<title>Node4</title>
<g id="a_node5"><a xlink:href="dji__mission__type_8hpp.html" target="_top" xlink:title="Mission related data struct for DJI OSDK library.">
<polygon fill="#ffffff" stroke="#000000" points="0,-168.5 0,-187.5 108,-187.5 108,-168.5 0,-168.5"/>
<text text-anchor="middle" x="54" y="-175.5" font-family="Helvetica,sans-Serif" font-size="10.00" fill="#000000">dji_mission_type.hpp</text>
</a>
</g>
</g>
<!-- Node0&#45;&gt;Node4 -->
<g id="edge5" class="edge">
<title>Node0&#45;&gt;Node4</title>
<path fill="none" stroke="#191970" d="M144.6447,-224.4554C125.4127,-214.599 100.4388,-201.7999 81.5759,-192.1327"/>
<polygon fill="#191970" stroke="#191970" points="83.0914,-188.9765 72.5957,-187.5303 79.8987,-195.206 83.0914,-188.9765"/>
</g>
<!-- Node5 -->
<g id="node6" class="node">
<title>Node5</title>
<g id="a_node6"><a xlink:href="dji__type_8hpp.html" target="_top" xlink:title="Data type and Data Structure definitions for use throughout DJI OSDK.">
<polygon fill="#ffffff" stroke="#000000" points="29.5,-112.5 29.5,-131.5 98.5,-131.5 98.5,-112.5 29.5,-112.5"/>
<text text-anchor="middle" x="64" y="-119.5" font-family="Helvetica,sans-Serif" font-size="10.00" fill="#000000">dji_type.hpp</text>
</a>
</g>
</g>
<!-- Node0&#45;&gt;Node5 -->
<g id="edge9" class="edge">
<title>Node0&#45;&gt;Node5</title>
<path fill="none" stroke="#191970" d="M163.1763,-224.3297C152.2283,-209.3868 134.4716,-186.2171 117,-168 106.8536,-157.4206 94.538,-146.6251 84.3331,-138.1533"/>
<polygon fill="#191970" stroke="#191970" points="86.3119,-135.2505 76.3515,-131.6393 81.8859,-140.6737 86.3119,-135.2505"/>
</g>
<!-- Node7 -->
<g id="node8" class="node">
<title>Node7</title>
<g id="a_node8"><a xlink:href="dji__version_8hpp.html" target="_top" xlink:title="Drone/SDK Version definition for DJI onboardSDK library.">
<polygon fill="#ffffff" stroke="#000000" points="202,-168.5 202,-187.5 284,-187.5 284,-168.5 202,-168.5"/>
<text text-anchor="middle" x="243" y="-175.5" font-family="Helvetica,sans-Serif" font-size="10.00" fill="#000000">dji_version.hpp</text>
</a>
</g>
</g>
<!-- Node0&#45;&gt;Node7 -->
<g id="edge10" class="edge">
<title>Node0&#45;&gt;Node7</title>
<path fill="none" stroke="#191970" d="M191.0562,-224.2977C201.1329,-215.3163 213.904,-203.9334 224.2611,-194.702"/>
<polygon fill="#191970" stroke="#191970" points="226.8159,-197.1135 231.9522,-187.8469 222.1583,-191.8879 226.8159,-197.1135"/>
</g>
<!-- Node9 -->
<g id="node10" class="node">
<title>Node9</title>
<g id="a_node10"><a xlink:title=" ">
<polygon fill="#ffffff" stroke="#bfbfbf" points="302.5,-168.5 302.5,-187.5 337.5,-187.5 337.5,-168.5 302.5,-168.5"/>
<text text-anchor="middle" x="320" y="-175.5" font-family="Helvetica,sans-Serif" font-size="10.00" fill="#000000">map</text>
</a>
</g>
</g>
<!-- Node0&#45;&gt;Node9 -->
<g id="edge13" class="edge">
<title>Node0&#45;&gt;Node9</title>
<path fill="none" stroke="#191970" d="M209.7156,-224.4554C235.4215,-213.6272 269.559,-199.2474 293.0069,-189.3704"/>
<polygon fill="#191970" stroke="#191970" points="294.4888,-192.5441 302.3458,-185.4365 291.7714,-186.093 294.4888,-192.5441"/>
</g>
<!-- Node2 -->
<g id="node3" class="node">
<title>Node2</title>
<g id="a_node3"><a xlink:href="dji__error_8hpp.html" target="_top" xlink:title="All DJI OSDK OpenProtocol ACK Error Codes.">
<polygon fill="#ffffff" stroke="#000000" points="122,-56.5 122,-75.5 192,-75.5 192,-56.5 122,-56.5"/>
<text text-anchor="middle" x="157" y="-63.5" font-family="Helvetica,sans-Serif" font-size="10.00" fill="#000000">dji_error.hpp</text>
</a>
</g>
</g>
<!-- Node1&#45;&gt;Node2 -->
<g id="edge2" class="edge">
<title>Node1&#45;&gt;Node2</title>
<path fill="none" stroke="#191970" d="M171.0388,-112.2455C168.7962,-104.8579 165.6423,-94.4689 162.8919,-85.4087"/>
<polygon fill="#191970" stroke="#191970" points="166.1812,-84.1948 159.9272,-75.6427 159.483,-86.2282 166.1812,-84.1948"/>
</g>
<!-- Node3 -->
<g id="node4" class="node">
<title>Node3</title>
<g id="a_node4"><a xlink:title=" ">
<polygon fill="#ffffff" stroke="#bfbfbf" points="132.5,-.5 132.5,-19.5 181.5,-19.5 181.5,-.5 132.5,-.5"/>
<text text-anchor="middle" x="157" y="-7.5" font-family="Helvetica,sans-Serif" font-size="10.00" fill="#000000">stdint.h</text>
</a>
</g>
</g>
<!-- Node1&#45;&gt;Node3 -->
<g id="edge4" class="edge">
<title>Node1&#45;&gt;Node3</title>
<path fill="none" stroke="#191970" d="M183.0051,-112.1768C193.6657,-99.2977 209.0219,-75.9919 201,-56 196.3367,-44.3782 187.1812,-34.0324 178.4238,-26.1099"/>
<polygon fill="#191970" stroke="#191970" points="180.5368,-23.3136 170.6336,-19.5484 176.0273,-28.6675 180.5368,-23.3136"/>
</g>
<!-- Node2&#45;&gt;Node3 -->
<g id="edge3" class="edge">
<title>Node2&#45;&gt;Node3</title>
<path fill="none" stroke="#191970" d="M157,-56.2455C157,-48.9382 157,-38.6944 157,-29.7046"/>
<polygon fill="#191970" stroke="#191970" points="160.5001,-29.6426 157,-19.6427 153.5001,-29.6427 160.5001,-29.6426"/>
</g>
<!-- Node4&#45;&gt;Node5 -->
<g id="edge6" class="edge">
<title>Node4&#45;&gt;Node5</title>
<path fill="none" stroke="#191970" d="M55.7419,-168.2455C57.0467,-160.9382 58.876,-150.6944 60.4813,-141.7046"/>
<polygon fill="#191970" stroke="#191970" points="63.9656,-142.1022 62.2781,-131.6427 57.0746,-140.8717 63.9656,-142.1022"/>
</g>
<!-- Node5&#45;&gt;Node3 -->
<g id="edge8" class="edge">
<title>Node5&#45;&gt;Node3</title>
<path fill="none" stroke="#191970" d="M57.9388,-112.193C50.3357,-98.4995 39.596,-73.3804 51,-56 66.6963,-32.0779 97.8045,-20.5331 122.2797,-14.9994"/>
<polygon fill="#191970" stroke="#191970" points="123.1889,-18.3866 132.2987,-12.9772 121.8039,-11.5249 123.1889,-18.3866"/>
</g>
<!-- Node6 -->
<g id="node7" class="node">
<title>Node6</title>
<g id="a_node7"><a xlink:title=" ">
<polygon fill="#ffffff" stroke="#bfbfbf" points="60.5,-56.5 60.5,-75.5 103.5,-75.5 103.5,-56.5 60.5,-56.5"/>
<text text-anchor="middle" x="82" y="-63.5" font-family="Helvetica,sans-Serif" font-size="10.00" fill="#000000">cstdio</text>
</a>
</g>
</g>
<!-- Node5&#45;&gt;Node6 -->
<g id="edge7" class="edge">
<title>Node5&#45;&gt;Node6</title>
<path fill="none" stroke="#191970" d="M67.1354,-112.2455C69.51,-104.8579 72.8493,-94.4689 75.7615,-85.4087"/>
<polygon fill="#191970" stroke="#191970" points="79.1725,-86.234 78.9006,-75.6427 72.5083,-84.0919 79.1725,-86.234"/>
</g>
<!-- Node7&#45;&gt;Node1 -->
<g id="edge11" class="edge">
<title>Node7&#45;&gt;Node1</title>
<path fill="none" stroke="#191970" d="M230.9811,-168.2455C220.7902,-159.9746 205.9638,-147.9416 193.9893,-138.2232"/>
<polygon fill="#191970" stroke="#191970" points="195.8514,-135.2268 185.8812,-131.6427 191.4402,-140.662 195.8514,-135.2268"/>
</g>
<!-- Node8 -->
<g id="node9" class="node">
<title>Node8</title>
<g id="a_node9"><a xlink:title=" ">
<polygon fill="#ffffff" stroke="#bfbfbf" points="239,-112.5 239,-131.5 285,-131.5 285,-112.5 239,-112.5"/>
<text text-anchor="middle" x="262" y="-119.5" font-family="Helvetica,sans-Serif" font-size="10.00" fill="#000000">cstdint</text>
</a>
</g>
</g>
<!-- Node7&#45;&gt;Node8 -->
<g id="edge12" class="edge">
<title>Node7&#45;&gt;Node8</title>
<path fill="none" stroke="#191970" d="M246.3095,-168.2455C248.8433,-160.7776 252.4177,-150.2427 255.515,-141.1137"/>
<polygon fill="#191970" stroke="#191970" points="258.8298,-142.237 258.7284,-131.6427 252.2009,-139.9879 258.8298,-142.237"/>
</g>
</g>
</svg>
