<?xml version="1.0" encoding="UTF-8" standalone="no"?>
<!DOCTYPE svg PUBLIC "-//W3C//DTD SVG 1.1//EN"
 "http://www.w3.org/Graphics/SVG/1.1/DTD/svg11.dtd">
<!-- Generated by graphviz version 2.40.1 (20161225.0304)
 -->
<!-- Title: osdk&#45;core/api/inc/dji_version.hpp Pages: 1 -->
<svg width="236pt" height="207pt"
 viewBox="0.00 0.00 235.50 207.00" xmlns="http://www.w3.org/2000/svg" xmlns:xlink="http://www.w3.org/1999/xlink">
<g id="graph0" class="graph" transform="scale(1 1) rotate(0) translate(4 203)">
<title>osdk&#45;core/api/inc/dji_version.hpp</title>
<polygon fill="#ffffff" stroke="transparent" points="-4,4 -4,-203 231.5,-203 231.5,4 -4,4"/>
<!-- Node0 -->
<g id="node1" class="node">
<title>Node0</title>
<g id="a_node1"><a xlink:title="Drone/SDK Version definition for DJI onboardSDK library.">
<polygon fill="#bfbfbf" stroke="#000000" points="123.5,-168.5 123.5,-198.5 227.5,-198.5 227.5,-168.5 123.5,-168.5"/>
<text text-anchor="start" x="131.5" y="-186.5" font-family="Helvetica,sans-Serif" font-size="10.00" fill="#000000">osdk&#45;core/api/inc/dji</text>
<text text-anchor="middle" x="175.5" y="-175.5" font-family="Helvetica,sans-Serif" font-size="10.00" fill="#000000">_version.hpp</text>
</a>
</g>
</g>
<!-- Node1 -->
<g id="node2" class="node">
<title>Node1</title>
<g id="a_node2"><a xlink:href="dji__command_8hpp.html" target="_top" xlink:title="All DJI OSDK OpenProtocol Command IDs.">
<polygon fill="#ffffff" stroke="#000000" points="92,-112.5 92,-131.5 185,-131.5 185,-112.5 92,-112.5"/>
<text text-anchor="middle" x="138.5" y="-119.5" font-family="Helvetica,sans-Serif" font-size="10.00" fill="#000000">dji_command.hpp</text>
</a>
</g>
</g>
<!-- Node0&#45;&gt;Node1 -->
<g id="edge1" class="edge">
<title>Node0&#45;&gt;Node1</title>
<path fill="none" stroke="#191970" d="M166.3539,-168.2977C161.3249,-159.9388 155.0445,-149.4997 149.7209,-140.6509"/>
<polygon fill="#191970" stroke="#191970" points="152.5785,-138.6114 144.4242,-131.8469 146.5803,-142.2201 152.5785,-138.6114"/>
</g>
<!-- Node3 -->
<g id="node4" class="node">
<title>Node3</title>
<g id="a_node4"><a xlink:title=" ">
<polygon fill="#ffffff" stroke="#bfbfbf" points="178.5,-.5 178.5,-19.5 224.5,-19.5 224.5,-.5 178.5,-.5"/>
<text text-anchor="middle" x="201.5" y="-7.5" font-family="Helvetica,sans-Serif" font-size="10.00" fill="#000000">cstdint</text>
</a>
</g>
</g>
<!-- Node0&#45;&gt;Node3 -->
<g id="edge7" class="edge">
<title>Node0&#45;&gt;Node3</title>
<path fill="none" stroke="#191970" d="M181.9633,-168.4811C186.0106,-158.3679 190.9301,-144.6221 193.5,-132 200.7387,-96.4478 201.8774,-53.9821 201.8349,-29.6848"/>
<polygon fill="#191970" stroke="#191970" points="205.3342,-29.5761 201.7454,-19.6076 198.3345,-29.6383 205.3342,-29.5761"/>
</g>
<!-- Node2 -->
<g id="node3" class="node">
<title>Node2</title>
<g id="a_node3"><a xlink:href="dji__error_8hpp.html" target="_top" xlink:title="All DJI OSDK OpenProtocol ACK Error Codes.">
<polygon fill="#ffffff" stroke="#000000" points="47.5,-56.5 47.5,-75.5 117.5,-75.5 117.5,-56.5 47.5,-56.5"/>
<text text-anchor="middle" x="82.5" y="-63.5" font-family="Helvetica,sans-Serif" font-size="10.00" fill="#000000">dji_error.hpp</text>
</a>
</g>
</g>
<!-- Node1&#45;&gt;Node2 -->
<g id="edge2" class="edge">
<title>Node1&#45;&gt;Node2</title>
<path fill="none" stroke="#191970" d="M128.7455,-112.2455C120.6352,-104.1352 108.9075,-92.4075 99.2919,-82.7919"/>
<polygon fill="#191970" stroke="#191970" points="101.6887,-80.2389 92.1427,-75.6427 96.7389,-85.1887 101.6887,-80.2389"/>
</g>
<!-- Node6 -->
<g id="node7" class="node">
<title>Node6</title>
<g id="a_node7"><a xlink:title=" ">
<polygon fill="#ffffff" stroke="#bfbfbf" points="136,-56.5 136,-75.5 185,-75.5 185,-56.5 136,-56.5"/>
<text text-anchor="middle" x="160.5" y="-63.5" font-family="Helvetica,sans-Serif" font-size="10.00" fill="#000000">stdint.h</text>
</a>
</g>
</g>
<!-- Node1&#45;&gt;Node6 -->
<g id="edge6" class="edge">
<title>Node1&#45;&gt;Node6</title>
<path fill="none" stroke="#191970" d="M142.3321,-112.2455C145.2659,-104.7776 149.4047,-94.2427 152.991,-85.1137"/>
<polygon fill="#191970" stroke="#191970" points="156.3129,-86.23 156.7118,-75.6427 149.7976,-83.6704 156.3129,-86.23"/>
</g>
<!-- Node2&#45;&gt;Node3 -->
<g id="edge3" class="edge">
<title>Node2&#45;&gt;Node3</title>
<path fill="none" stroke="#191970" d="M102.9568,-56.3733C121.9738,-47.4241 150.5175,-33.9917 171.9976,-23.8835"/>
<polygon fill="#191970" stroke="#191970" points="173.7522,-26.926 181.3101,-19.5011 170.7716,-20.5923 173.7522,-26.926"/>
</g>
<!-- Node4 -->
<g id="node5" class="node">
<title>Node4</title>
<g id="a_node5"><a xlink:title=" ">
<polygon fill="#ffffff" stroke="#bfbfbf" points="0,-.5 0,-19.5 35,-19.5 35,-.5 0,-.5"/>
<text text-anchor="middle" x="17.5" y="-7.5" font-family="Helvetica,sans-Serif" font-size="10.00" fill="#000000">map</text>
</a>
</g>
</g>
<!-- Node2&#45;&gt;Node4 -->
<g id="edge4" class="edge">
<title>Node2&#45;&gt;Node4</title>
<path fill="none" stroke="#191970" d="M71.1779,-56.2455C61.5777,-47.9746 47.6108,-35.9416 36.3305,-26.2232"/>
<polygon fill="#191970" stroke="#191970" points="38.553,-23.5182 28.6924,-19.6427 33.984,-28.8214 38.553,-23.5182"/>
</g>
<!-- Node5 -->
<g id="node6" class="node">
<title>Node5</title>
<g id="a_node6"><a xlink:title=" ">
<polygon fill="#ffffff" stroke="#bfbfbf" points="53,-.5 53,-19.5 136,-19.5 136,-.5 53,-.5"/>
<text text-anchor="middle" x="94.5" y="-7.5" font-family="Helvetica,sans-Serif" font-size="10.00" fill="#000000">osdk_typedef.h</text>
</a>
</g>
</g>
<!-- Node2&#45;&gt;Node5 -->
<g id="edge5" class="edge">
<title>Node2&#45;&gt;Node5</title>
<path fill="none" stroke="#191970" d="M84.5902,-56.2455C86.1561,-48.9382 88.3512,-38.6944 90.2776,-29.7046"/>
<polygon fill="#191970" stroke="#191970" points="93.7607,-30.1541 92.4337,-19.6427 86.916,-28.6873 93.7607,-30.1541"/>
</g>
</g>
</svg>
