<?xml version="1.0" encoding="UTF-8" standalone="no"?>
<!DOCTYPE svg PUBLIC "-//W3C//DTD SVG 1.1//EN"
 "http://www.w3.org/Graphics/SVG/1.1/DTD/svg11.dtd">
<!-- Generated by graphviz version 2.38.0 (20140413.2041)
 -->
<!-- Title: osdk&#45;core/api/src/dji_mobile_device.cpp Pages: 1 -->
<!--zoomable 431 -->
<svg id="main" version="1.1" xmlns="http://www.w3.org/2000/svg" xmlns:xlink="http://www.w3.org/1999/xlink" xml:space="preserve" onload="init(evt)">
<style type="text/css"><![CDATA[
.edge:hover path { stroke: red; }
.edge:hover polygon { stroke: red; fill: red; }
]]></style>
<script type="text/javascript"><![CDATA[
var edges = document.getElementsByTagName('g');
if (edges && edges.length) {
  for (var i=0;i<edges.length;i++) {
    if (edges[i].id.substr(0,4)=='edge') {
      edges[i].setAttribute('class','edge');
    }
  }
}
]]></script>
        <defs>
                <circle id="rim" cx="0" cy="0" r="7"/>
                <circle id="rim2" cx="0" cy="0" r="3.5"/>
                <g id="zoomPlus">
                        <use xlink:href="#rim" fill="#404040">
                                <set attributeName="fill" to="#808080" begin="zoomplus.mouseover" end="zoomplus.mouseout"/>
                        </use>
                        <path d="M-4,0h8M0,-4v8" fill="none" stroke="white" stroke-width="1.5" pointer-events="none"/>
                </g>
                <g id="zoomMin">
                        <use xlink:href="#rim" fill="#404040">
                                <set attributeName="fill" to="#808080" begin="zoomminus.mouseover" end="zoomminus.mouseout"/>
                        </use>
                        <path d="M-4,0h8" fill="none" stroke="white" stroke-width="1.5" pointer-events="none"/>
                </g>
                <g id="dirArrow">
                        <path fill="none" stroke="white" stroke-width="1.5" d="M0,-3.0v7 M-2.5,-0.5L0,-3.0L2.5,-0.5"/>
                </g>
               <g id="resetDef">
                       <use xlink:href="#rim2" fill="#404040">
                               <set attributeName="fill" to="#808080" begin="reset.mouseover" end="reset.mouseout"/>
                       </use>
               </g>
        </defs>

<script type="text/javascript">
var viewWidth = 2077;
var viewHeight = 431;
var sectionId = 'dynsection-0';
</script>
<script xlink:href="svgpan.js"/>
<svg id="graph" class="graph">
<g id="viewport">
<title>osdk&#45;core/api/src/dji_mobile_device.cpp</title>
<polygon fill="white" stroke="none" points="-4,4 -4,-427 2073.12,-427 2073.12,4 -4,4"/>
<!-- Node0 -->
<g id="node1" class="node"><title>Node0</title>
<g id="a_node1"><a xlink:title="Implementation of DJI Mobile Device Abstraction.">
<polygon fill="#bfbfbf" stroke="black" points="1340.62,-392.5 1340.62,-422.5 1444.62,-422.5 1444.62,-392.5 1340.62,-392.5"/>
<text text-anchor="start" x="1348.62" y="-410.5" font-family="Helvetica,sans-Serif" font-size="10.00">osdk&#45;core/api/src/dji</text>
<text text-anchor="middle" x="1392.62" y="-399.5" font-family="Helvetica,sans-Serif" font-size="10.00">_mobile_device.cpp</text>
</a>
</g>
</g>
<!-- Node1 -->
<g id="node2" class="node"><title>Node1</title>
<g id="a_node2"><a xlink:href="dji__mobile__device_8hpp.html" target="_top" xlink:title="Implementation of DJI Mobile Device Abstraction.">
<polygon fill="white" stroke="black" points="1956.12,-280.5 1956.12,-299.5 2069.12,-299.5 2069.12,-280.5 1956.12,-280.5"/>
<text text-anchor="middle" x="2012.62" y="-287.5" font-family="Helvetica,sans-Serif" font-size="10.00">dji_mobile_device.hpp</text>
</a>
</g>
</g>
<!-- Node0&#45;&gt;Node1 -->
<g id="edge1" class="edge"><title>Node0&#45;&gt;Node1</title>
<path fill="none" stroke="midnightblue" d="M1444.68,-396.802C1560.39,-375.248 1838.03,-323.524 1956.99,-301.364"/>
<polygon fill="midnightblue" stroke="midnightblue" points="1957.79,-304.775 1966.98,-299.503 1956.51,-297.894 1957.79,-304.775"/>
</g>
<!-- Node4 -->
<g id="node5" class="node"><title>Node4</title>
<g id="a_node5"><a xlink:href="dji__vehicle_8hpp.html" target="_top" xlink:title="Vehicle API for DJI onboardSDK library.">
<polygon fill="white" stroke="black" points="1110.12,-336.5 1110.12,-355.5 1191.12,-355.5 1191.12,-336.5 1110.12,-336.5"/>
<text text-anchor="middle" x="1150.62" y="-343.5" font-family="Helvetica,sans-Serif" font-size="10.00">dji_vehicle.hpp</text>
</a>
</g>
</g>
<!-- Node0&#45;&gt;Node4 -->
<g id="edge4" class="edge"><title>Node0&#45;&gt;Node4</title>
<path fill="none" stroke="midnightblue" d="M1340.41,-393.663C1297.02,-382.995 1235.97,-367.983 1194.93,-357.894"/>
<polygon fill="midnightblue" stroke="midnightblue" points="1195.76,-354.493 1185.21,-355.504 1194.09,-361.29 1195.76,-354.493"/>
</g>
<!-- Node2 -->
<g id="node3" class="node"><title>Node2</title>
<g id="a_node3"><a xlink:href="dji__vehicle__callback_8hpp.html" target="_top" xlink:title="Type definition for new Vehicle&#45;style callbacks.">
<polygon fill="white" stroke="black" points="1255.62,-112.5 1255.62,-131.5 1377.62,-131.5 1377.62,-112.5 1255.62,-112.5"/>
<text text-anchor="middle" x="1316.62" y="-119.5" font-family="Helvetica,sans-Serif" font-size="10.00">dji_vehicle_callback.hpp</text>
</a>
</g>
</g>
<!-- Node1&#45;&gt;Node2 -->
<g id="edge2" class="edge"><title>Node1&#45;&gt;Node2</title>
<path fill="none" stroke="midnightblue" d="M2010.52,-280.323C2004.44,-257.3 1984.45,-194.611 1941.62,-168 1895.56,-139.374 1542.01,-128.04 1387.97,-124.428"/>
<polygon fill="midnightblue" stroke="midnightblue" points="1387.75,-120.922 1377.68,-124.191 1387.59,-127.92 1387.75,-120.922"/>
</g>
<!-- Node3 -->
<g id="node4" class="node"><title>Node3</title>
<g id="a_node4"><a xlink:title=" ">
<polygon fill="white" stroke="#bfbfbf" points="1172.12,-56.5 1172.12,-75.5 1283.12,-75.5 1283.12,-56.5 1172.12,-56.5"/>
<text text-anchor="middle" x="1227.62" y="-63.5" font-family="Helvetica,sans-Serif" font-size="10.00">dji_open_protocol.hpp</text>
</a>
</g>
</g>
<!-- Node2&#45;&gt;Node3 -->
<g id="edge3" class="edge"><title>Node2&#45;&gt;Node3</title>
<path fill="none" stroke="midnightblue" d="M1302.32,-112.324C1288.44,-103.9 1267.13,-90.9709 1250.82,-81.0741"/>
<polygon fill="midnightblue" stroke="midnightblue" points="1252.25,-77.8495 1241.89,-75.6545 1248.62,-83.8341 1252.25,-77.8495"/>
</g>
<!-- Node4&#45;&gt;Node1 -->
<g id="edge56" class="edge"><title>Node4&#45;&gt;Node1</title>
<path fill="none" stroke="midnightblue" d="M1191.45,-343.676C1308.46,-339.666 1655.01,-326.287 1941.62,-300 1943.09,-299.865 1944.58,-299.724 1946.08,-299.576"/>
<polygon fill="midnightblue" stroke="midnightblue" points="1946.5,-303.051 1956.08,-298.526 1945.77,-296.089 1946.5,-303.051"/>
</g>
<!-- Node4&#45;&gt;Node2 -->
<g id="edge66" class="edge"><title>Node4&#45;&gt;Node2</title>
<path fill="none" stroke="midnightblue" d="M1191.37,-344.041C1342.51,-340.287 1863.61,-325.53 1887.62,-300 2034.72,-143.649 1571.36,-124.403 1387.98,-122.777"/>
<polygon fill="midnightblue" stroke="midnightblue" points="1387.91,-119.277 1377.88,-122.703 1387.86,-126.277 1387.91,-119.277"/>
</g>
<!-- Node4&#45;&gt;Node3 -->
<g id="edge57" class="edge"><title>Node4&#45;&gt;Node3</title>
<path fill="none" stroke="midnightblue" d="M1162.32,-336.468C1183.86,-319.665 1227.62,-279.99 1227.62,-235 1227.62,-235 1227.62,-235 1227.62,-177 1227.62,-144.948 1227.62,-107.643 1227.62,-85.7489"/>
<polygon fill="midnightblue" stroke="midnightblue" points="1231.12,-85.5577 1227.62,-75.5578 1224.12,-85.5578 1231.12,-85.5577"/>
</g>
<!-- Node5 -->
<g id="node6" class="node"><title>Node5</title>
<g id="a_node6"><a xlink:title=" ">
<polygon fill="white" stroke="#bfbfbf" points="1007.62,-112.5 1007.62,-131.5 1053.62,-131.5 1053.62,-112.5 1007.62,-112.5"/>
<text text-anchor="middle" x="1030.62" y="-119.5" font-family="Helvetica,sans-Serif" font-size="10.00">cstdint</text>
</a>
</g>
</g>
<!-- Node4&#45;&gt;Node5 -->
<g id="edge5" class="edge"><title>Node4&#45;&gt;Node5</title>
<path fill="none" stroke="midnightblue" d="M1115.99,-336.395C1094.02,-329.511 1066.17,-317.98 1046.62,-300 1025.84,-280.885 1023.5,-271.386 1016.62,-244 1007.69,-208.41 1017.3,-165.476 1024.42,-141.504"/>
<polygon fill="midnightblue" stroke="midnightblue" points="1027.86,-142.236 1027.53,-131.647 1021.18,-140.129 1027.86,-142.236"/>
</g>
<!-- Node6 -->
<g id="node7" class="node"><title>Node6</title>
<g id="a_node7"><a xlink:href="dji__broadcast_8hpp.html" target="_top" xlink:title="Broadcast Telemetry API for DJI onboardSDK library.">
<polygon fill="white" stroke="black" points="1026.12,-224.5 1026.12,-243.5 1119.12,-243.5 1119.12,-224.5 1026.12,-224.5"/>
<text text-anchor="middle" x="1072.62" y="-231.5" font-family="Helvetica,sans-Serif" font-size="10.00">dji_broadcast.hpp</text>
</a>
</g>
</g>
<!-- Node4&#45;&gt;Node6 -->
<g id="edge6" class="edge"><title>Node4&#45;&gt;Node6</title>
<path fill="none" stroke="midnightblue" d="M1109.65,-336.654C1089.41,-330.242 1066.77,-319.107 1054.62,-300 1045.34,-285.387 1052.78,-265.968 1060.73,-252.171"/>
<polygon fill="midnightblue" stroke="midnightblue" points="1063.74,-253.969 1066.12,-243.645 1057.82,-250.232 1063.74,-253.969"/>
</g>
<!-- Node8 -->
<g id="node9" class="node"><title>Node8</title>
<g id="a_node9"><a xlink:href="dji__type_8hpp.html" target="_top" xlink:title="Data type and Data Structure definitions for use throughout DJI OSDK.">
<polygon fill="white" stroke="black" points="403.124,-112.5 403.124,-131.5 472.124,-131.5 472.124,-112.5 403.124,-112.5"/>
<text text-anchor="middle" x="437.624" y="-119.5" font-family="Helvetica,sans-Serif" font-size="10.00">dji_type.hpp</text>
</a>
</g>
</g>
<!-- Node4&#45;&gt;Node8 -->
<g id="edge65" class="edge"><title>Node4&#45;&gt;Node8</title>
<path fill="none" stroke="midnightblue" d="M1110.02,-344.389C976.306,-342.081 550.654,-332.316 417.624,-300 357.679,-285.438 324.314,-295.676 290.624,-244 272.176,-215.705 270.537,-195.156 290.624,-168 313.926,-136.497 358.847,-126.328 392.928,-123.383"/>
<polygon fill="midnightblue" stroke="midnightblue" points="393.383,-126.86 403.12,-122.686 392.905,-119.877 393.383,-126.86"/>
</g>
<!-- Node11 -->
<g id="node12" class="node"><title>Node11</title>
<g id="a_node12"><a xlink:href="dji__camera_8hpp.html" target="_top" xlink:title="Camera/Gimbal API for DJI onboardSDK library.">
<polygon fill="white" stroke="black" points="160.124,-168.5 160.124,-187.5 243.124,-187.5 243.124,-168.5 160.124,-168.5"/>
<text text-anchor="middle" x="201.624" y="-175.5" font-family="Helvetica,sans-Serif" font-size="10.00">dji_camera.hpp</text>
</a>
</g>
</g>
<!-- Node4&#45;&gt;Node11 -->
<g id="edge12" class="edge"><title>Node4&#45;&gt;Node11</title>
<path fill="none" stroke="midnightblue" d="M1109.94,-345.391C944.657,-346.654 328.826,-348.072 257.624,-300 222.721,-276.435 209.144,-225.252 204.209,-197.607"/>
<polygon fill="midnightblue" stroke="midnightblue" points="207.654,-196.982 202.629,-187.655 200.741,-198.08 207.654,-196.982"/>
</g>
<!-- Node12 -->
<g id="node13" class="node"><title>Node12</title>
<g id="a_node13"><a xlink:href="dji__command_8hpp.html" target="_top" xlink:title="All DJI OSDK OpenProtocol Command IDs.">
<polygon fill="white" stroke="black" points="155.124,-112.5 155.124,-131.5 248.124,-131.5 248.124,-112.5 155.124,-112.5"/>
<text text-anchor="middle" x="201.624" y="-119.5" font-family="Helvetica,sans-Serif" font-size="10.00">dji_command.hpp</text>
</a>
</g>
</g>
<!-- Node4&#45;&gt;Node12 -->
<g id="edge19" class="edge"><title>Node4&#45;&gt;Node12</title>
<path fill="none" stroke="midnightblue" d="M1110.11,-344.337C938.739,-341.366 278.157,-328.17 189.624,-300 96.7874,-270.461 -45.6695,-244.524 14.6239,-168 30.6375,-147.676 95.7946,-135.467 144.726,-128.997"/>
<polygon fill="midnightblue" stroke="midnightblue" points="145.419,-132.437 154.897,-127.703 144.536,-125.493 145.419,-132.437"/>
</g>
<!-- Node14 -->
<g id="node15" class="node"><title>Node14</title>
<g id="a_node15"><a xlink:title=" ">
<polygon fill="white" stroke="#bfbfbf" points="819.624,-280.5 819.624,-299.5 931.624,-299.5 931.624,-280.5 819.624,-280.5"/>
<text text-anchor="middle" x="875.624" y="-287.5" font-family="Helvetica,sans-Serif" font-size="10.00">dji_circular_buffer.hpp</text>
</a>
</g>
</g>
<!-- Node4&#45;&gt;Node14 -->
<g id="edge18" class="edge"><title>Node4&#45;&gt;Node14</title>
<path fill="none" stroke="midnightblue" d="M1110.05,-337.032C1062.04,-327.606 981.974,-311.883 928.986,-301.478"/>
<polygon fill="midnightblue" stroke="midnightblue" points="929.581,-298.028 919.094,-299.536 928.232,-304.897 929.581,-298.028"/>
</g>
<!-- Node15 -->
<g id="node16" class="node"><title>Node15</title>
<g id="a_node16"><a xlink:href="dji__control_8hpp.html" target="_top" xlink:title="Control API for DJI OSDK library.">
<polygon fill="white" stroke="black" points="721.624,-280.5 721.624,-299.5 801.624,-299.5 801.624,-280.5 721.624,-280.5"/>
<text text-anchor="middle" x="761.624" y="-287.5" font-family="Helvetica,sans-Serif" font-size="10.00">dji_control.hpp</text>
</a>
</g>
</g>
<!-- Node4&#45;&gt;Node15 -->
<g id="edge20" class="edge"><title>Node4&#45;&gt;Node15</title>
<path fill="none" stroke="midnightblue" d="M1109.97,-340.286C1047.9,-332.945 925.582,-317.903 811.646,-300.095"/>
<polygon fill="midnightblue" stroke="midnightblue" points="812.13,-296.628 801.707,-298.531 811.042,-303.543 812.13,-296.628"/>
</g>
<!-- Node18 -->
<g id="node19" class="node"><title>Node18</title>
<g id="a_node19"><a xlink:href="dji__version_8hpp.html" target="_top" xlink:title="Drone/SDK Version definition for DJI onboardSDK library.">
<polygon fill="white" stroke="black" points="721.624,-168.5 721.624,-187.5 803.624,-187.5 803.624,-168.5 721.624,-168.5"/>
<text text-anchor="middle" x="762.624" y="-175.5" font-family="Helvetica,sans-Serif" font-size="10.00">dji_version.hpp</text>
</a>
</g>
</g>
<!-- Node4&#45;&gt;Node18 -->
<g id="edge67" class="edge"><title>Node4&#45;&gt;Node18</title>
<path fill="none" stroke="midnightblue" d="M1109.94,-336.881C1075.57,-329.356 1025.42,-316.793 983.624,-300 943.67,-283.946 834.463,-221.022 786.15,-192.812"/>
<polygon fill="midnightblue" stroke="midnightblue" points="787.737,-189.686 777.338,-187.658 784.203,-195.728 787.737,-189.686"/>
</g>
<!-- Node20 -->
<g id="node21" class="node"><title>Node20</title>
<g id="a_node21"><a xlink:href="dji__gimbal_8hpp.html" target="_top" xlink:title="Gimbal API for OSDK library.">
<polygon fill="white" stroke="black" points="24.1239,-168.5 24.1239,-187.5 103.124,-187.5 103.124,-168.5 24.1239,-168.5"/>
<text text-anchor="middle" x="63.6239" y="-175.5" font-family="Helvetica,sans-Serif" font-size="10.00">dji_gimbal.hpp</text>
</a>
</g>
</g>
<!-- Node4&#45;&gt;Node20 -->
<g id="edge33" class="edge"><title>Node4&#45;&gt;Node20</title>
<path fill="none" stroke="midnightblue" d="M1109.98,-344.349C943.301,-341.497 317.063,-328.935 233.624,-300 168.828,-277.53 106.899,-222.123 79.0309,-194.781"/>
<polygon fill="midnightblue" stroke="midnightblue" points="81.3527,-192.153 71.8038,-187.563 76.4061,-197.106 81.3527,-192.153"/>
</g>
<!-- Node21 -->
<g id="node22" class="node"><title>Node21</title>
<g id="a_node22"><a xlink:title=" ">
<polygon fill="white" stroke="#bfbfbf" points="1063.62,-280.5 1063.62,-299.5 1161.62,-299.5 1161.62,-280.5 1063.62,-280.5"/>
<text text-anchor="middle" x="1112.62" y="-287.5" font-family="Helvetica,sans-Serif" font-size="10.00">dji_hard_driver.hpp</text>
</a>
</g>
</g>
<!-- Node4&#45;&gt;Node21 -->
<g id="edge36" class="edge"><title>Node4&#45;&gt;Node21</title>
<path fill="none" stroke="midnightblue" d="M1144.35,-336.083C1138.98,-328.455 1131.11,-317.264 1124.55,-307.941"/>
<polygon fill="midnightblue" stroke="midnightblue" points="1127.4,-305.915 1118.78,-299.751 1121.67,-309.943 1127.4,-305.915"/>
</g>
<!-- Node22 -->
<g id="node23" class="node"><title>Node22</title>
<g id="a_node23"><a xlink:href="dji__hardware__sync_8hpp.html" target="_top" xlink:title="Hardware Sync API for DJI OSDK.">
<polygon fill="white" stroke="black" points="1045.62,-168.5 1045.62,-187.5 1161.62,-187.5 1161.62,-168.5 1045.62,-168.5"/>
<text text-anchor="middle" x="1103.62" y="-175.5" font-family="Helvetica,sans-Serif" font-size="10.00">dji_hardware_sync.hpp</text>
</a>
</g>
</g>
<!-- Node4&#45;&gt;Node22 -->
<g id="edge37" class="edge"><title>Node4&#45;&gt;Node22</title>
<path fill="none" stroke="midnightblue" d="M1156.75,-336.178C1164.65,-323.686 1176.69,-300.121 1170.62,-280 1160.51,-246.457 1135.21,-213.822 1118.76,-195.103"/>
<polygon fill="midnightblue" stroke="midnightblue" points="1121.21,-192.597 1111.91,-187.529 1116.02,-197.293 1121.21,-192.597"/>
</g>
<!-- Node24 -->
<g id="node25" class="node"><title>Node24</title>
<g id="a_node25"><a xlink:href="dji__mfio_8hpp.html" target="_top" xlink:title="MFIO API for DJI OSDK library.">
<polygon fill="white" stroke="black" points="1256.12,-224.5 1256.12,-243.5 1325.12,-243.5 1325.12,-224.5 1256.12,-224.5"/>
<text text-anchor="middle" x="1290.62" y="-231.5" font-family="Helvetica,sans-Serif" font-size="10.00">dji_mfio.hpp</text>
</a>
</g>
</g>
<!-- Node4&#45;&gt;Node24 -->
<g id="edge41" class="edge"><title>Node4&#45;&gt;Node24</title>
<path fill="none" stroke="midnightblue" d="M1175.22,-336.464C1194.63,-328.916 1221.68,-316.532 1241.62,-300 1257.89,-286.518 1271.87,-266.615 1280.68,-252.389"/>
<polygon fill="midnightblue" stroke="midnightblue" points="1283.81,-253.977 1285.93,-243.595 1277.8,-250.392 1283.81,-253.977"/>
</g>
<!-- Node25 -->
<g id="node26" class="node"><title>Node25</title>
<g id="a_node26"><a xlink:href="dji__mission__manager_8hpp.html" target="_top" xlink:title="Mission&#45;Manager API for DJI OSDK library.">
<polygon fill="white" stroke="black" points="427.124,-280.5 427.124,-299.5 554.124,-299.5 554.124,-280.5 427.124,-280.5"/>
<text text-anchor="middle" x="490.624" y="-287.5" font-family="Helvetica,sans-Serif" font-size="10.00">dji_mission_manager.hpp</text>
</a>
</g>
</g>
<!-- Node4&#45;&gt;Node25 -->
<g id="edge43" class="edge"><title>Node4&#45;&gt;Node25</title>
<path fill="none" stroke="midnightblue" d="M1109.84,-341.663C1001.19,-332.774 703.611,-308.426 564.335,-297.031"/>
<polygon fill="midnightblue" stroke="midnightblue" points="564.434,-293.527 554.182,-296.2 563.863,-300.504 564.434,-293.527"/>
</g>
<!-- Node30 -->
<g id="node31" class="node"><title>Node30</title>
<g id="a_node31"><a xlink:href="dji__mobile__communication_8hpp.html" target="_top" xlink:title="Implementation of DJI Mobile&#45;Onboard SDK Communication (MOC)">
<polygon fill="white" stroke="black" points="1293.62,-280.5 1293.62,-299.5 1443.62,-299.5 1443.62,-280.5 1293.62,-280.5"/>
<text text-anchor="middle" x="1368.62" y="-287.5" font-family="Helvetica,sans-Serif" font-size="10.00">dji_mobile_communication.hpp</text>
</a>
</g>
</g>
<!-- Node4&#45;&gt;Node30 -->
<g id="edge53" class="edge"><title>Node4&#45;&gt;Node30</title>
<path fill="none" stroke="midnightblue" d="M1185.17,-336.444C1222.88,-327.102 1283.36,-312.119 1324.49,-301.933"/>
<polygon fill="midnightblue" stroke="midnightblue" points="1325.38,-305.318 1334.24,-299.516 1323.69,-298.524 1325.38,-305.318"/>
</g>
<!-- Node32 -->
<g id="node33" class="node"><title>Node32</title>
<g id="a_node33"><a xlink:title=" ">
<polygon fill="white" stroke="#bfbfbf" points="1461.62,-280.5 1461.62,-299.5 1589.62,-299.5 1589.62,-280.5 1461.62,-280.5"/>
<text text-anchor="middle" x="1525.62" y="-287.5" font-family="Helvetica,sans-Serif" font-size="10.00">dji_platform_manager.hpp</text>
</a>
</g>
</g>
<!-- Node4&#45;&gt;Node32 -->
<g id="edge58" class="edge"><title>Node4&#45;&gt;Node32</title>
<path fill="none" stroke="midnightblue" d="M1191.47,-339.118C1255.05,-329.962 1378.46,-312.191 1456.2,-300.997"/>
<polygon fill="midnightblue" stroke="midnightblue" points="1456.99,-304.42 1466.39,-299.53 1455.99,-297.491 1456.99,-304.42"/>
</g>
<!-- Node33 -->
<g id="node34" class="node"><title>Node33</title>
<g id="a_node34"><a xlink:href="dji__status_8hpp.html" target="_top" xlink:title="Status information for DJI Vehicle.">
<polygon fill="white" stroke="black" points="1608.12,-280.5 1608.12,-299.5 1685.12,-299.5 1685.12,-280.5 1608.12,-280.5"/>
<text text-anchor="middle" x="1646.62" y="-287.5" font-family="Helvetica,sans-Serif" font-size="10.00">dji_status.hpp</text>
</a>
</g>
</g>
<!-- Node4&#45;&gt;Node33 -->
<g id="edge59" class="edge"><title>Node4&#45;&gt;Node33</title>
<path fill="none" stroke="midnightblue" d="M1191.23,-342.087C1268.34,-336.304 1441.45,-322.115 1597.64,-300.021"/>
<polygon fill="midnightblue" stroke="midnightblue" points="1598.49,-303.434 1607.9,-298.554 1597.5,-296.504 1598.49,-303.434"/>
</g>
<!-- Node34 -->
<g id="node35" class="node"><title>Node34</title>
<g id="a_node35"><a xlink:href="dji__subscription_8hpp.html" target="_top" xlink:title="Telemetry Subscription API for DJI OSDK library.">
<polygon fill="white" stroke="black" points="1578.12,-224.5 1578.12,-243.5 1681.12,-243.5 1681.12,-224.5 1578.12,-224.5"/>
<text text-anchor="middle" x="1629.62" y="-231.5" font-family="Helvetica,sans-Serif" font-size="10.00">dji_subscription.hpp</text>
</a>
</g>
</g>
<!-- Node4&#45;&gt;Node34 -->
<g id="edge60" class="edge"><title>Node4&#45;&gt;Node34</title>
<path fill="none" stroke="midnightblue" d="M1191.5,-344.725C1312.04,-343.493 1659.79,-336.755 1693.62,-300 1710.55,-281.61 1682.28,-261.188 1658.11,-248.23"/>
<polygon fill="midnightblue" stroke="midnightblue" points="1659.64,-245.085 1649.14,-243.65 1656.46,-251.318 1659.64,-245.085"/>
</g>
<!-- Node35 -->
<g id="node36" class="node"><title>Node35</title>
<g id="a_node36"><a xlink:title=" ">
<polygon fill="white" stroke="#bfbfbf" points="1741.62,-280.5 1741.62,-299.5 1861.62,-299.5 1861.62,-280.5 1741.62,-280.5"/>
<text text-anchor="middle" x="1801.62" y="-287.5" font-family="Helvetica,sans-Serif" font-size="10.00">dji_thread_manager.hpp</text>
</a>
</g>
</g>
<!-- Node4&#45;&gt;Node35 -->
<g id="edge64" class="edge"><title>Node4&#45;&gt;Node35</title>
<path fill="none" stroke="midnightblue" d="M1191.25,-342.437C1285.57,-336.355 1526.66,-320.048 1727.62,-300 1728.89,-299.874 1730.17,-299.743 1731.46,-299.61"/>
<polygon fill="midnightblue" stroke="midnightblue" points="1731.9,-303.083 1741.47,-298.536 1731.16,-296.123 1731.9,-303.083"/>
</g>
<!-- Node36 -->
<g id="node37" class="node"><title>Node36</title>
<g id="a_node37"><a xlink:href="dji__virtual__rc_8hpp.html" target="_top" xlink:title="Virtual Radio Control API for DJI onboardSDK library.">
<polygon fill="white" stroke="black" points="613.624,-280.5 613.624,-299.5 703.624,-299.5 703.624,-280.5 613.624,-280.5"/>
<text text-anchor="middle" x="658.624" y="-287.5" font-family="Helvetica,sans-Serif" font-size="10.00">dji_virtual_rc.hpp</text>
</a>
</g>
</g>
<!-- Node4&#45;&gt;Node36 -->
<g id="edge68" class="edge"><title>Node4&#45;&gt;Node36</title>
<path fill="none" stroke="midnightblue" d="M1110.06,-341.69C1034.3,-335.32 865.899,-320.289 713.675,-300.065"/>
<polygon fill="midnightblue" stroke="midnightblue" points="714.049,-296.584 703.673,-298.725 713.12,-303.522 714.049,-296.584"/>
</g>
<!-- Node37 -->
<g id="node38" class="node"><title>Node37</title>
<g id="a_node38"><a xlink:href="dji__payload__device_8hpp.html" target="_top" xlink:title="Implementation of DJI Payload Device Abstraction.">
<polygon fill="white" stroke="black" points="1754.62,-224.5 1754.62,-243.5 1872.62,-243.5 1872.62,-224.5 1754.62,-224.5"/>
<text text-anchor="middle" x="1813.62" y="-231.5" font-family="Helvetica,sans-Serif" font-size="10.00">dji_payload_device.hpp</text>
</a>
</g>
</g>
<!-- Node4&#45;&gt;Node37 -->
<g id="edge73" class="edge"><title>Node4&#45;&gt;Node37</title>
<path fill="none" stroke="midnightblue" d="M1191.19,-343.984C1339.83,-340.069 1847.22,-324.917 1870.62,-300 1886.88,-282.694 1861.28,-261.954 1839.34,-248.634"/>
<polygon fill="midnightblue" stroke="midnightblue" points="1841.01,-245.556 1830.6,-243.579 1837.51,-251.616 1841.01,-245.556"/>
</g>
<!-- Node6&#45;&gt;Node2 -->
<g id="edge11" class="edge"><title>Node6&#45;&gt;Node2</title>
<path fill="none" stroke="midnightblue" d="M1091.77,-224.368C1134.53,-205.091 1237.98,-158.454 1288.25,-135.789"/>
<polygon fill="midnightblue" stroke="midnightblue" points="1289.89,-138.892 1297.57,-131.591 1287.01,-132.511 1289.89,-138.892"/>
</g>
<!-- Node7 -->
<g id="node8" class="node"><title>Node7</title>
<g id="a_node8"><a xlink:href="dji__telemetry_8hpp.html" target="_top" xlink:title="Enumeration of all telemetry data types, structures and maps.">
<polygon fill="white" stroke="black" points="822.124,-168.5 822.124,-187.5 913.124,-187.5 913.124,-168.5 822.124,-168.5"/>
<text text-anchor="middle" x="867.624" y="-175.5" font-family="Helvetica,sans-Serif" font-size="10.00">dji_telemetry.hpp</text>
</a>
</g>
</g>
<!-- Node6&#45;&gt;Node7 -->
<g id="edge7" class="edge"><title>Node6&#45;&gt;Node7</title>
<path fill="none" stroke="midnightblue" d="M1040.14,-224.444C1004.9,-215.162 948.52,-200.309 909.865,-190.127"/>
<polygon fill="midnightblue" stroke="midnightblue" points="910.516,-186.679 899.955,-187.516 908.733,-193.448 910.516,-186.679"/>
</g>
<!-- Node7&#45;&gt;Node8 -->
<g id="edge8" class="edge"><title>Node7&#45;&gt;Node8</title>
<path fill="none" stroke="midnightblue" d="M822.028,-169.385C818.848,-168.901 815.689,-168.435 812.624,-168 693.751,-151.15 553.086,-135.383 482.613,-127.77"/>
<polygon fill="midnightblue" stroke="midnightblue" points="482.645,-124.253 472.328,-126.663 481.896,-131.213 482.645,-124.253"/>
</g>
<!-- Node9 -->
<g id="node10" class="node"><title>Node9</title>
<g id="a_node10"><a xlink:title=" ">
<polygon fill="white" stroke="#bfbfbf" points="416.124,-56.5 416.124,-75.5 459.124,-75.5 459.124,-56.5 416.124,-56.5"/>
<text text-anchor="middle" x="437.624" y="-63.5" font-family="Helvetica,sans-Serif" font-size="10.00">cstdio</text>
</a>
</g>
</g>
<!-- Node8&#45;&gt;Node9 -->
<g id="edge9" class="edge"><title>Node8&#45;&gt;Node9</title>
<path fill="none" stroke="midnightblue" d="M437.624,-112.083C437.624,-105.006 437.624,-94.8611 437.624,-85.9865"/>
<polygon fill="midnightblue" stroke="midnightblue" points="441.124,-85.751 437.624,-75.7511 434.124,-85.7511 441.124,-85.751"/>
</g>
<!-- Node10 -->
<g id="node11" class="node"><title>Node10</title>
<g id="a_node11"><a xlink:title=" ">
<polygon fill="white" stroke="#bfbfbf" points="240.124,-0.5 240.124,-19.5 289.124,-19.5 289.124,-0.5 240.124,-0.5"/>
<text text-anchor="middle" x="264.624" y="-7.5" font-family="Helvetica,sans-Serif" font-size="10.00">stdint.h</text>
</a>
</g>
</g>
<!-- Node8&#45;&gt;Node10 -->
<g id="edge10" class="edge"><title>Node8&#45;&gt;Node10</title>
<path fill="none" stroke="midnightblue" d="M424.049,-112.368C394.362,-93.4924 323.42,-48.385 287.014,-25.2367"/>
<polygon fill="midnightblue" stroke="midnightblue" points="288.452,-22.0035 278.136,-19.5914 284.697,-27.9106 288.452,-22.0035"/>
</g>
<!-- Node11&#45;&gt;Node8 -->
<g id="edge17" class="edge"><title>Node11&#45;&gt;Node8</title>
<path fill="none" stroke="midnightblue" d="M239.019,-168.444C280.86,-158.87 348.601,-143.37 393.131,-133.181"/>
<polygon fill="midnightblue" stroke="midnightblue" points="394.124,-136.544 403.091,-130.902 392.563,-129.72 394.124,-136.544"/>
</g>
<!-- Node11&#45;&gt;Node12 -->
<g id="edge13" class="edge"><title>Node11&#45;&gt;Node12</title>
<path fill="none" stroke="midnightblue" d="M201.624,-168.083C201.624,-161.006 201.624,-150.861 201.624,-141.986"/>
<polygon fill="midnightblue" stroke="midnightblue" points="205.124,-141.751 201.624,-131.751 198.124,-141.751 205.124,-141.751"/>
</g>
<!-- Node12&#45;&gt;Node10 -->
<g id="edge16" class="edge"><title>Node12&#45;&gt;Node10</title>
<path fill="none" stroke="midnightblue" d="M212.967,-112.179C222.931,-103.859 237.128,-90.5244 245.624,-76 254.064,-61.5704 258.99,-43.1178 261.702,-29.5626"/>
<polygon fill="midnightblue" stroke="midnightblue" points="265.182,-29.9822 263.487,-19.5238 258.29,-28.7564 265.182,-29.9822"/>
</g>
<!-- Node13 -->
<g id="node14" class="node"><title>Node13</title>
<g id="a_node14"><a xlink:href="dji__error_8hpp.html" target="_top" xlink:title="All DJI OSDK OpenProtocol ACK Error Codes.">
<polygon fill="white" stroke="black" points="166.624,-56.5 166.624,-75.5 236.624,-75.5 236.624,-56.5 166.624,-56.5"/>
<text text-anchor="middle" x="201.624" y="-63.5" font-family="Helvetica,sans-Serif" font-size="10.00">dji_error.hpp</text>
</a>
</g>
</g>
<!-- Node12&#45;&gt;Node13 -->
<g id="edge14" class="edge"><title>Node12&#45;&gt;Node13</title>
<path fill="none" stroke="midnightblue" d="M201.624,-112.083C201.624,-105.006 201.624,-94.8611 201.624,-85.9865"/>
<polygon fill="midnightblue" stroke="midnightblue" points="205.124,-85.751 201.624,-75.7511 198.124,-85.7511 205.124,-85.751"/>
</g>
<!-- Node13&#45;&gt;Node10 -->
<g id="edge15" class="edge"><title>Node13&#45;&gt;Node10</title>
<path fill="none" stroke="midnightblue" d="M211.746,-56.324C221.15,-48.2631 235.368,-36.0765 246.693,-26.3695"/>
<polygon fill="midnightblue" stroke="midnightblue" points="249.003,-28.9993 254.318,-19.8339 244.447,-23.6844 249.003,-28.9993"/>
</g>
<!-- Node15&#45;&gt;Node2 -->
<g id="edge32" class="edge"><title>Node15&#45;&gt;Node2</title>
<path fill="none" stroke="midnightblue" d="M801.698,-281.408C804.714,-280.908 807.715,-280.432 810.624,-280 950.882,-259.18 994.007,-291.457 1127.62,-244 1197.09,-219.328 1267.12,-165.027 1298.93,-138.372"/>
<polygon fill="midnightblue" stroke="midnightblue" points="1301.5,-140.778 1306.85,-131.635 1296.97,-135.445 1301.5,-140.778"/>
</g>
<!-- Node15&#45;&gt;Node3 -->
<g id="edge30" class="edge"><title>Node15&#45;&gt;Node3</title>
<path fill="none" stroke="midnightblue" d="M788.755,-280.481C829.254,-266.634 906.049,-235.876 955.624,-188 983.541,-161.04 967.15,-134.706 998.624,-112 1024.24,-93.5226 1103.57,-80.862 1161.7,-73.7857"/>
<polygon fill="midnightblue" stroke="midnightblue" points="1162.41,-77.2263 1171.93,-72.5714 1161.59,-70.2751 1162.41,-77.2263"/>
</g>
<!-- Node15&#45;&gt;Node8 -->
<g id="edge31" class="edge"><title>Node15&#45;&gt;Node8</title>
<path fill="none" stroke="midnightblue" d="M758.036,-280.235C748.257,-257.545 718.811,-196.659 673.624,-168 642.472,-148.243 541.703,-134.305 482.391,-127.577"/>
<polygon fill="midnightblue" stroke="midnightblue" points="482.505,-124.068 472.18,-126.443 481.732,-131.025 482.505,-124.068"/>
</g>
<!-- Node16 -->
<g id="node17" class="node"><title>Node16</title>
<g id="a_node17"><a xlink:href="dji__ack_8hpp.html" target="_top" xlink:title="All DJI OSDK ACK parsing.">
<polygon fill="white" stroke="black" points="610.624,-224.5 610.624,-243.5 676.624,-243.5 676.624,-224.5 610.624,-224.5"/>
<text text-anchor="middle" x="643.624" y="-231.5" font-family="Helvetica,sans-Serif" font-size="10.00">dji_ack.hpp</text>
</a>
</g>
</g>
<!-- Node15&#45;&gt;Node16 -->
<g id="edge21" class="edge"><title>Node15&#45;&gt;Node16</title>
<path fill="none" stroke="midnightblue" d="M742.926,-280.444C723.679,-271.636 693.471,-257.812 671.424,-247.722"/>
<polygon fill="midnightblue" stroke="midnightblue" points="672.783,-244.495 662.234,-243.516 669.87,-250.86 672.783,-244.495"/>
</g>
<!-- Node16&#45;&gt;Node8 -->
<g id="edge25" class="edge"><title>Node16&#45;&gt;Node8</title>
<path fill="none" stroke="midnightblue" d="M610.346,-225.224C572.608,-216.014 513.822,-200.362 494.624,-188 475.37,-175.602 458.819,-154.893 448.589,-140.184"/>
<polygon fill="midnightblue" stroke="midnightblue" points="451.277,-137.906 442.814,-131.532 445.454,-141.792 451.277,-137.906"/>
</g>
<!-- Node16&#45;&gt;Node12 -->
<g id="edge22" class="edge"><title>Node16&#45;&gt;Node12</title>
<path fill="none" stroke="midnightblue" d="M610.559,-229.092C596.152,-227.438 579.061,-225.541 563.624,-224 517.789,-219.425 181.749,-221.956 150.624,-188 135.342,-171.329 158.23,-150.537 178.067,-137.024"/>
<polygon fill="midnightblue" stroke="midnightblue" points="180.046,-139.912 186.54,-131.54 176.243,-134.035 180.046,-139.912"/>
</g>
<!-- Node17 -->
<g id="node18" class="node"><title>Node17</title>
<g id="a_node18"><a xlink:href="dji__mission__type_8hpp.html" target="_top" xlink:title="Mission related data struct for DJI OSDK library.">
<polygon fill="white" stroke="black" points="503.624,-168.5 503.624,-187.5 611.624,-187.5 611.624,-168.5 503.624,-168.5"/>
<text text-anchor="middle" x="557.624" y="-175.5" font-family="Helvetica,sans-Serif" font-size="10.00">dji_mission_type.hpp</text>
</a>
</g>
</g>
<!-- Node16&#45;&gt;Node17 -->
<g id="edge23" class="edge"><title>Node16&#45;&gt;Node17</title>
<path fill="none" stroke="midnightblue" d="M629.806,-224.324C616.391,-215.9 595.8,-202.971 580.038,-193.074"/>
<polygon fill="midnightblue" stroke="midnightblue" points="581.737,-190.008 571.407,-187.655 578.015,-195.936 581.737,-190.008"/>
</g>
<!-- Node16&#45;&gt;Node18 -->
<g id="edge26" class="edge"><title>Node16&#45;&gt;Node18</title>
<path fill="none" stroke="midnightblue" d="M662.48,-224.444C681.89,-215.636 712.354,-201.812 734.588,-191.722"/>
<polygon fill="midnightblue" stroke="midnightblue" points="736.196,-194.836 743.856,-187.516 733.304,-188.462 736.196,-194.836"/>
</g>
<!-- Node19 -->
<g id="node20" class="node"><title>Node19</title>
<g id="a_node20"><a xlink:title=" ">
<polygon fill="white" stroke="#bfbfbf" points="630.124,-168.5 630.124,-187.5 665.124,-187.5 665.124,-168.5 630.124,-168.5"/>
<text text-anchor="middle" x="647.624" y="-175.5" font-family="Helvetica,sans-Serif" font-size="10.00">map</text>
</a>
</g>
</g>
<!-- Node16&#45;&gt;Node19 -->
<g id="edge29" class="edge"><title>Node16&#45;&gt;Node19</title>
<path fill="none" stroke="midnightblue" d="M644.284,-224.083C644.809,-217.006 645.56,-206.861 646.217,-197.986"/>
<polygon fill="midnightblue" stroke="midnightblue" points="649.727,-197.982 646.976,-187.751 642.746,-197.465 649.727,-197.982"/>
</g>
<!-- Node17&#45;&gt;Node8 -->
<g id="edge24" class="edge"><title>Node17&#45;&gt;Node8</title>
<path fill="none" stroke="midnightblue" d="M538.61,-168.444C519.036,-159.636 488.316,-145.812 465.895,-135.722"/>
<polygon fill="midnightblue" stroke="midnightblue" points="467.105,-132.428 456.549,-131.516 464.232,-138.812 467.105,-132.428"/>
</g>
<!-- Node18&#45;&gt;Node5 -->
<g id="edge28" class="edge"><title>Node18&#45;&gt;Node5</title>
<path fill="none" stroke="midnightblue" d="M803.912,-168.681C857.123,-157.959 948.593,-139.529 997.501,-129.674"/>
<polygon fill="midnightblue" stroke="midnightblue" points="998.435,-133.056 1007.55,-127.65 997.053,-126.194 998.435,-133.056"/>
</g>
<!-- Node18&#45;&gt;Node12 -->
<g id="edge27" class="edge"><title>Node18&#45;&gt;Node12</title>
<path fill="none" stroke="midnightblue" d="M721.421,-172.784C706.38,-171.258 689.234,-169.533 673.624,-168 523.704,-153.273 346.924,-136.606 258.299,-128.298"/>
<polygon fill="midnightblue" stroke="midnightblue" points="258.476,-124.799 248.194,-127.351 257.823,-131.768 258.476,-124.799"/>
</g>
<!-- Node20&#45;&gt;Node8 -->
<g id="edge35" class="edge"><title>Node20&#45;&gt;Node8</title>
<path fill="none" stroke="midnightblue" d="M103.294,-171.272C173.444,-161.144 318.925,-140.138 392.672,-129.49"/>
<polygon fill="midnightblue" stroke="midnightblue" points="393.618,-132.89 403.015,-127.997 392.617,-125.962 393.618,-132.89"/>
</g>
<!-- Node20&#45;&gt;Node12 -->
<g id="edge34" class="edge"><title>Node20&#45;&gt;Node12</title>
<path fill="none" stroke="midnightblue" d="M85.4904,-168.444C108.403,-159.478 144.599,-145.314 170.49,-135.183"/>
<polygon fill="midnightblue" stroke="midnightblue" points="171.823,-138.42 179.86,-131.516 169.272,-131.901 171.823,-138.42"/>
</g>
<!-- Node22&#45;&gt;Node2 -->
<g id="edge39" class="edge"><title>Node22&#45;&gt;Node2</title>
<path fill="none" stroke="midnightblue" d="M1137.37,-168.444C1174.14,-159.122 1233.07,-144.183 1273.25,-133.997"/>
<polygon fill="midnightblue" stroke="midnightblue" points="1274.2,-137.367 1283.03,-131.516 1272.48,-130.581 1274.2,-137.367"/>
</g>
<!-- Node22&#45;&gt;Node8 -->
<g id="edge38" class="edge"><title>Node22&#45;&gt;Node8</title>
<path fill="none" stroke="midnightblue" d="M1045.4,-172.279C914.487,-161.665 599.264,-136.106 482.295,-126.622"/>
<polygon fill="midnightblue" stroke="midnightblue" points="482.507,-123.128 472.257,-125.808 481.941,-130.105 482.507,-123.128"/>
</g>
<!-- Node23 -->
<g id="node24" class="node"><title>Node23</title>
<g id="a_node24"><a xlink:title=" ">
<polygon fill="white" stroke="#bfbfbf" points="1083.12,-112.5 1083.12,-131.5 1124.12,-131.5 1124.12,-112.5 1083.12,-112.5"/>
<text text-anchor="middle" x="1103.62" y="-119.5" font-family="Helvetica,sans-Serif" font-size="10.00">string</text>
</a>
</g>
</g>
<!-- Node22&#45;&gt;Node23 -->
<g id="edge40" class="edge"><title>Node22&#45;&gt;Node23</title>
<path fill="none" stroke="midnightblue" d="M1103.62,-168.083C1103.62,-161.006 1103.62,-150.861 1103.62,-141.986"/>
<polygon fill="midnightblue" stroke="midnightblue" points="1107.12,-141.751 1103.62,-131.751 1100.12,-141.751 1107.12,-141.751"/>
</g>
<!-- Node24&#45;&gt;Node2 -->
<g id="edge42" class="edge"><title>Node24&#45;&gt;Node2</title>
<path fill="none" stroke="midnightblue" d="M1292.66,-224.368C1296.86,-206.617 1306.54,-165.666 1312.23,-141.597"/>
<polygon fill="midnightblue" stroke="midnightblue" points="1315.7,-142.128 1314.59,-131.591 1308.89,-140.518 1315.7,-142.128"/>
</g>
<!-- Node26 -->
<g id="node27" class="node"><title>Node26</title>
<g id="a_node27"><a xlink:href="dji__hotpoint_8hpp.html" target="_top" xlink:title="Implementation of HotPoint (Point of Interest) Missions for DJI OSDK.">
<polygon fill="white" stroke="black" points="407.124,-224.5 407.124,-243.5 492.124,-243.5 492.124,-224.5 407.124,-224.5"/>
<text text-anchor="middle" x="449.624" y="-231.5" font-family="Helvetica,sans-Serif" font-size="10.00">dji_hotpoint.hpp</text>
</a>
</g>
</g>
<!-- Node25&#45;&gt;Node26 -->
<g id="edge44" class="edge"><title>Node25&#45;&gt;Node26</title>
<path fill="none" stroke="midnightblue" d="M483.854,-280.083C478.062,-272.455 469.565,-261.264 462.486,-251.941"/>
<polygon fill="midnightblue" stroke="midnightblue" points="465.103,-249.599 456.268,-243.751 459.528,-253.832 465.103,-249.599"/>
</g>
<!-- Node28 -->
<g id="node29" class="node"><title>Node28</title>
<g id="a_node29"><a xlink:href="dji__waypoint_8hpp.html" target="_top" xlink:title="Implementation of GPS Waypoint Missions for DJI OSDK.">
<polygon fill="white" stroke="black" points="300.124,-224.5 300.124,-243.5 389.124,-243.5 389.124,-224.5 300.124,-224.5"/>
<text text-anchor="middle" x="344.624" y="-231.5" font-family="Helvetica,sans-Serif" font-size="10.00">dji_waypoint.hpp</text>
</a>
</g>
</g>
<!-- Node25&#45;&gt;Node28 -->
<g id="edge50" class="edge"><title>Node25&#45;&gt;Node28</title>
<path fill="none" stroke="midnightblue" d="M467.49,-280.444C443.142,-271.438 404.617,-257.189 377.201,-247.049"/>
<polygon fill="midnightblue" stroke="midnightblue" points="378.243,-243.703 367.65,-243.516 375.815,-250.268 378.243,-243.703"/>
</g>
<!-- Node29 -->
<g id="node30" class="node"><title>Node29</title>
<g id="a_node30"><a xlink:title=" ">
<polygon fill="white" stroke="#bfbfbf" points="510.624,-224.5 510.624,-243.5 554.624,-243.5 554.624,-224.5 510.624,-224.5"/>
<text text-anchor="middle" x="532.624" y="-231.5" font-family="Helvetica,sans-Serif" font-size="10.00">vector</text>
</a>
</g>
</g>
<!-- Node25&#45;&gt;Node29 -->
<g id="edge52" class="edge"><title>Node25&#45;&gt;Node29</title>
<path fill="none" stroke="midnightblue" d="M497.559,-280.083C503.553,-272.377 512.376,-261.033 519.672,-251.653"/>
<polygon fill="midnightblue" stroke="midnightblue" points="522.441,-253.793 525.817,-243.751 516.915,-249.496 522.441,-253.793"/>
</g>
<!-- Node26&#45;&gt;Node7 -->
<g id="edge49" class="edge"><title>Node26&#45;&gt;Node7</title>
<path fill="none" stroke="midnightblue" d="M492.16,-225.438C495.359,-224.93 498.541,-224.445 501.624,-224 636.115,-204.593 673.096,-207.107 811.861,-188.041"/>
<polygon fill="midnightblue" stroke="midnightblue" points="812.606,-191.471 822.03,-186.63 811.644,-184.537 812.606,-191.471"/>
</g>
<!-- Node27 -->
<g id="node28" class="node"><title>Node27</title>
<g id="a_node28"><a xlink:href="dji__mission__base_8hpp.html" target="_top" xlink:title="Mission&#45;Base abstract class for DJI OSDK library.">
<polygon fill="white" stroke="black" points="299.624,-168.5 299.624,-187.5 409.624,-187.5 409.624,-168.5 299.624,-168.5"/>
<text text-anchor="middle" x="354.624" y="-175.5" font-family="Helvetica,sans-Serif" font-size="10.00">dji_mission_base.hpp</text>
</a>
</g>
</g>
<!-- Node26&#45;&gt;Node27 -->
<g id="edge45" class="edge"><title>Node26&#45;&gt;Node27</title>
<path fill="none" stroke="midnightblue" d="M434.36,-224.324C419.402,-215.822 396.369,-202.729 378.897,-192.797"/>
<polygon fill="midnightblue" stroke="midnightblue" points="380.273,-189.553 369.849,-187.655 376.813,-195.639 380.273,-189.553"/>
</g>
<!-- Node27&#45;&gt;Node2 -->
<g id="edge48" class="edge"><title>Node27&#45;&gt;Node2</title>
<path fill="none" stroke="midnightblue" d="M409.806,-173.331C435.573,-171.649 466.664,-169.664 494.624,-168 772.127,-151.485 1102.47,-134.088 1245.16,-126.683"/>
<polygon fill="midnightblue" stroke="midnightblue" points="1245.71,-130.159 1255.51,-126.146 1245.35,-123.169 1245.71,-130.159"/>
</g>
<!-- Node27&#45;&gt;Node8 -->
<g id="edge47" class="edge"><title>Node27&#45;&gt;Node8</title>
<path fill="none" stroke="midnightblue" d="M367.959,-168.324C380.786,-159.979 400.409,-147.212 415.564,-137.352"/>
<polygon fill="midnightblue" stroke="midnightblue" points="417.848,-140.042 424.322,-131.655 414.031,-134.174 417.848,-140.042"/>
</g>
<!-- Node27&#45;&gt;Node12 -->
<g id="edge46" class="edge"><title>Node27&#45;&gt;Node12</title>
<path fill="none" stroke="midnightblue" d="M330.381,-168.444C304.753,-159.399 264.139,-145.064 235.385,-134.916"/>
<polygon fill="midnightblue" stroke="midnightblue" points="236.349,-131.544 225.754,-131.516 234.019,-138.145 236.349,-131.544"/>
</g>
<!-- Node28&#45;&gt;Node27 -->
<g id="edge51" class="edge"><title>Node28&#45;&gt;Node27</title>
<path fill="none" stroke="midnightblue" d="M346.275,-224.083C347.6,-216.927 349.506,-206.635 351.163,-197.691"/>
<polygon fill="midnightblue" stroke="midnightblue" points="354.624,-198.221 353.003,-187.751 347.741,-196.947 354.624,-198.221"/>
</g>
<!-- Node30&#45;&gt;Node2 -->
<g id="edge55" class="edge"><title>Node30&#45;&gt;Node2</title>
<path fill="none" stroke="midnightblue" d="M1389.84,-280.33C1413.2,-269.349 1446.06,-248.835 1434.62,-224 1415.88,-183.287 1371.73,-152.865 1343.07,-136.533"/>
<polygon fill="midnightblue" stroke="midnightblue" points="1344.45,-133.298 1334,-131.54 1341.08,-139.43 1344.45,-133.298"/>
</g>
<!-- Node31 -->
<g id="node32" class="node"><title>Node31</title>
<g id="a_node32"><a xlink:title=" ">
<polygon fill="white" stroke="#bfbfbf" points="1343.12,-224.5 1343.12,-243.5 1426.12,-243.5 1426.12,-224.5 1343.12,-224.5"/>
<text text-anchor="middle" x="1384.62" y="-231.5" font-family="Helvetica,sans-Serif" font-size="10.00">dji_macros.hpp</text>
</a>
</g>
</g>
<!-- Node30&#45;&gt;Node31 -->
<g id="edge54" class="edge"><title>Node30&#45;&gt;Node31</title>
<path fill="none" stroke="midnightblue" d="M1371.27,-280.083C1373.41,-272.849 1376.5,-262.409 1379.17,-253.397"/>
<polygon fill="midnightblue" stroke="midnightblue" points="1382.55,-254.333 1382.03,-243.751 1375.83,-252.345 1382.55,-254.333"/>
</g>
<!-- Node34&#45;&gt;Node2 -->
<g id="edge63" class="edge"><title>Node34&#45;&gt;Node2</title>
<path fill="none" stroke="midnightblue" d="M1610.03,-224.378C1579.94,-211.304 1520.42,-186.077 1468.62,-168 1431.86,-155.168 1389.29,-142.773 1358.58,-134.252"/>
<polygon fill="midnightblue" stroke="midnightblue" points="1359.21,-130.796 1348.64,-131.516 1357.35,-137.545 1359.21,-130.796"/>
</g>
<!-- Node34&#45;&gt;Node3 -->
<g id="edge61" class="edge"><title>Node34&#45;&gt;Node3</title>
<path fill="none" stroke="midnightblue" d="M1613.98,-224.301C1590.9,-211.556 1546.3,-187.236 1507.62,-168 1454.56,-141.613 1442.19,-132.577 1386.62,-112 1349.36,-98.2018 1305.87,-86.1615 1273.81,-78.0161"/>
<polygon fill="midnightblue" stroke="midnightblue" points="1274.37,-74.5491 1263.82,-75.5111 1272.67,-81.3388 1274.37,-74.5491"/>
</g>
<!-- Node34&#45;&gt;Node7 -->
<g id="edge62" class="edge"><title>Node34&#45;&gt;Node7</title>
<path fill="none" stroke="midnightblue" d="M1577.85,-229.331C1440.27,-219.581 1066.38,-193.085 923.85,-182.985"/>
<polygon fill="midnightblue" stroke="midnightblue" points="923.813,-179.473 913.591,-182.258 923.319,-186.456 923.813,-179.473"/>
</g>
<!-- Node36&#45;&gt;Node3 -->
<g id="edge70" class="edge"><title>Node36&#45;&gt;Node3</title>
<path fill="none" stroke="midnightblue" d="M701.454,-280.429C756.762,-267.707 853.936,-239.587 921.624,-188 954.994,-162.568 942.007,-134.178 977.624,-112 1007.63,-93.3136 1098.11,-80.3831 1161.54,-73.328"/>
<polygon fill="midnightblue" stroke="midnightblue" points="1162.31,-76.7655 1171.87,-72.2044 1161.55,-69.8066 1162.31,-76.7655"/>
</g>
<!-- Node36&#45;&gt;Node7 -->
<g id="edge72" class="edge"><title>Node36&#45;&gt;Node7</title>
<path fill="none" stroke="midnightblue" d="M665.875,-280.133C677.658,-266.267 702.307,-239.446 728.624,-224 755.51,-208.22 788.62,-197.22 815.779,-190.047"/>
<polygon fill="midnightblue" stroke="midnightblue" points="816.665,-193.433 825.494,-187.576 814.939,-186.649 816.665,-193.433"/>
</g>
<!-- Node36&#45;&gt;Node8 -->
<g id="edge71" class="edge"><title>Node36&#45;&gt;Node8</title>
<path fill="none" stroke="midnightblue" d="M648.049,-280.492C631.053,-267.12 596.249,-240.961 563.624,-224 523.193,-202.981 501.01,-219.014 467.624,-188 454.272,-175.597 446.374,-156.079 442.061,-141.665"/>
<polygon fill="midnightblue" stroke="midnightblue" points="445.398,-140.594 439.432,-131.839 438.636,-142.404 445.398,-140.594"/>
</g>
<!-- Node36&#45;&gt;Node16 -->
<g id="edge69" class="edge"><title>Node36&#45;&gt;Node16</title>
<path fill="none" stroke="midnightblue" d="M656.147,-280.083C654.137,-272.849 651.237,-262.409 648.734,-253.397"/>
<polygon fill="midnightblue" stroke="midnightblue" points="652.104,-252.449 646.055,-243.751 645.359,-254.323 652.104,-252.449"/>
</g>
<!-- Node37&#45;&gt;Node2 -->
<g id="edge74" class="edge"><title>Node37&#45;&gt;Node2</title>
<path fill="none" stroke="midnightblue" d="M1775.04,-224.46C1685.5,-204.642 1463.73,-155.559 1365.17,-133.745"/>
<polygon fill="midnightblue" stroke="midnightblue" points="1365.7,-130.278 1355.18,-131.535 1364.19,-137.113 1365.7,-130.278"/>
</g>
</g>
</svg>
        <g id="navigator" transform="translate(0 0)" fill="#404254">
                <rect fill="#f2f5e9" fill-opacity="0.5" stroke="#606060" stroke-width=".5" x="0" y="0" width="60" height="60"/>
                <use id="zoomplus" xlink:href="#zoomPlus" x="17" y="9" onmousedown="handleZoom(evt,'in')"/>
                <use id="zoomminus" xlink:href="#zoomMin" x="42" y="9" onmousedown="handleZoom(evt,'out')"/>
                <use id="reset" xlink:href="#resetDef" x="30" y="36" onmousedown="handleReset()"/>
                <g id="arrowUp" xlink:href="#dirArrow" transform="translate(30 24)" onmousedown="handlePan(0,-1)">
                  <use xlink:href="#rim" fill="#404040">
                        <set attributeName="fill" to="#808080" begin="arrowUp.mouseover" end="arrowUp.mouseout"/>
                  </use>
                  <path fill="none" stroke="white" stroke-width="1.5" d="M0,-3.0v7 M-2.5,-0.5L0,-3.0L2.5,-0.5"/>
                </g>
                <g id="arrowRight" xlink:href="#dirArrow" transform="rotate(90) translate(36 -43)" onmousedown="handlePan(1,0)">
                  <use xlink:href="#rim" fill="#404040">
                        <set attributeName="fill" to="#808080" begin="arrowRight.mouseover" end="arrowRight.mouseout"/>
                  </use>
                  <path fill="none" stroke="white" stroke-width="1.5" d="M0,-3.0v7 M-2.5,-0.5L0,-3.0L2.5,-0.5"/>
                </g>
                <g id="arrowDown" xlink:href="#dirArrow" transform="rotate(180) translate(-30 -48)" onmousedown="handlePan(0,1)">
                  <use xlink:href="#rim" fill="#404040">
                        <set attributeName="fill" to="#808080" begin="arrowDown.mouseover" end="arrowDown.mouseout"/>
                  </use>
                  <path fill="none" stroke="white" stroke-width="1.5" d="M0,-3.0v7 M-2.5,-0.5L0,-3.0L2.5,-0.5"/>
                </g>
                <g id="arrowLeft" xlink:href="#dirArrow" transform="rotate(270) translate(-36 17)" onmousedown="handlePan(-1,0)">
                  <use xlink:href="#rim" fill="#404040">
                        <set attributeName="fill" to="#808080" begin="arrowLeft.mouseover" end="arrowLeft.mouseout"/>
                  </use>
                  <path fill="none" stroke="white" stroke-width="1.5" d="M0,-3.0v7 M-2.5,-0.5L0,-3.0L2.5,-0.5"/>
                </g>
        </g>
        <svg viewBox="0 0 15 15" width="100%" height="30px" preserveAspectRatio="xMaxYMin meet">
         <g id="arrow_out" transform="scale(0.3 0.3)">
          <a xlink:href="dji__mobile__device_8cpp__incl_org.svg" target="_base">
           <rect id="button" ry="5" rx="5" y="6" x="6" height="38" width="38"
                fill="#f2f5e9" fill-opacity="0.5" stroke="#606060" stroke-width="1.0"/>
           <path id="arrow"
             d="M 11.500037,31.436501 C 11.940474,20.09759 22.043105,11.32322 32.158766,21.979434 L 37.068811,17.246167 C 37.068811,17.246167 37.088388,32 37.088388,32 L 22.160133,31.978069 C 22.160133,31.978069 26.997745,27.140456 26.997745,27.140456 C 18.528582,18.264221 13.291696,25.230495 11.500037,31.436501 z"
             style="fill:#404040;"/>
          </a>
         </g>
        </svg>
</svg>
