<?xml version="1.0" encoding="UTF-8" standalone="no"?>
<!DOCTYPE svg PUBLIC "-//W3C//DTD SVG 1.1//EN"
 "http://www.w3.org/Graphics/SVG/1.1/DTD/svg11.dtd">
<!-- Generated by graphviz version 2.40.1 (20161225.0304)
 -->
<!-- Title: osdk&#45;core/api/inc/dji_control.hpp Pages: 1 -->
<!--zoomable 319 -->
<svg id="main" version="1.1" xmlns="http://www.w3.org/2000/svg" xmlns:xlink="http://www.w3.org/1999/xlink" xml:space="preserve" onload="init(evt)">
<style type="text/css"><![CDATA[
.edge:hover path { stroke: red; }
.edge:hover polygon { stroke: red; fill: red; }
]]></style>
<script type="text/javascript"><![CDATA[
var edges = document.getElementsByTagName('g');
if (edges && edges.length) {
  for (var i=0;i<edges.length;i++) {
    if (edges[i].id.substr(0,4)=='edge') {
      edges[i].setAttribute('class','edge');
    }
  }
}
]]></script>
        <defs>
                <circle id="rim" cx="0" cy="0" r="7"/>
                <circle id="rim2" cx="0" cy="0" r="3.5"/>
                <g id="zoomPlus">
                        <use xlink:href="#rim" fill="#404040">
                                <set attributeName="fill" to="#808080" begin="zoomplus.mouseover" end="zoomplus.mouseout"/>
                        </use>
                        <path d="M-4,0h8M0,-4v8" fill="none" stroke="white" stroke-width="1.5" pointer-events="none"/>
                </g>
                <g id="zoomMin">
                        <use xlink:href="#rim" fill="#404040">
                                <set attributeName="fill" to="#808080" begin="zoomminus.mouseover" end="zoomminus.mouseout"/>
                        </use>
                        <path d="M-4,0h8" fill="none" stroke="white" stroke-width="1.5" pointer-events="none"/>
                </g>
                <g id="dirArrow">
                        <path fill="none" stroke="white" stroke-width="1.5" d="M0,-3.0v7 M-2.5,-0.5L0,-3.0L2.5,-0.5"/>
                </g>
               <g id="resetDef">
                       <use xlink:href="#rim2" fill="#404040">
                               <set attributeName="fill" to="#808080" begin="reset.mouseover" end="reset.mouseout"/>
                       </use>
               </g>
        </defs>

<script type="text/javascript">
var viewWidth = 562;
var viewHeight = 319;
var sectionId = 'dynsection-0';
</script>
<script xlink:href="svgpan.js"/>
<svg id="graph" class="graph">
<g id="viewport">
<title>osdk&#45;core/api/inc/dji_control.hpp</title>
<polygon fill="#ffffff" stroke="transparent" points="-4,4 -4,-315 558,-315 558,4 -4,4"/>
<!-- Node0 -->
<g id="node1" class="node">
<title>Node0</title>
<g id="a_node1"><a xlink:title="Control API for DJI OSDK library.">
<polygon fill="#bfbfbf" stroke="#000000" points="333,-280.5 333,-310.5 437,-310.5 437,-280.5 333,-280.5"/>
<text text-anchor="start" x="341" y="-298.5" font-family="Helvetica,sans-Serif" font-size="10.00" fill="#000000">osdk&#45;core/api/inc/dji</text>
<text text-anchor="middle" x="385" y="-287.5" font-family="Helvetica,sans-Serif" font-size="10.00" fill="#000000">_control.hpp</text>
</a>
</g>
</g>
<!-- Node1 -->
<g id="node2" class="node">
<title>Node1</title>
<g id="a_node2"><a xlink:href="dji__ack_8hpp.html" target="_top" xlink:title="All DJI OSDK ACK parsing.">
<polygon fill="#ffffff" stroke="#000000" points="168,-224.5 168,-243.5 234,-243.5 234,-224.5 168,-224.5"/>
<text text-anchor="middle" x="201" y="-231.5" font-family="Helvetica,sans-Serif" font-size="10.00" fill="#000000">dji_ack.hpp</text>
</a>
</g>
</g>
<!-- Node0&#45;&gt;Node1 -->
<g id="edge1" class="edge">
<title>Node0&#45;&gt;Node1</title>
<path fill="none" stroke="#191970" d="M339.9885,-280.4554C309.0184,-270.104 268.3372,-256.5067 238.998,-246.7004"/>
<polygon fill="#191970" stroke="#191970" points="240.1073,-243.3809 229.5135,-243.5303 237.8882,-250.0199 240.1073,-243.3809"/>
</g>
<!-- Node6 -->
<g id="node7" class="node">
<title>Node6</title>
<g id="a_node7"><a xlink:href="dji__type_8hpp.html" target="_top" xlink:title="Data type and Data Structure definitions for use throughout DJI OSDK.">
<polygon fill="#ffffff" stroke="#000000" points="284.5,-112.5 284.5,-131.5 353.5,-131.5 353.5,-112.5 284.5,-112.5"/>
<text text-anchor="middle" x="319" y="-119.5" font-family="Helvetica,sans-Serif" font-size="10.00" fill="#000000">dji_type.hpp</text>
</a>
</g>
</g>
<!-- Node0&#45;&gt;Node6 -->
<g id="edge16" class="edge">
<title>Node0&#45;&gt;Node6</title>
<path fill="none" stroke="#191970" d="M379.2584,-280.4065C367.2643,-248.8767 339.5681,-176.0692 326.319,-141.24"/>
<polygon fill="#191970" stroke="#191970" points="329.5312,-139.8402 322.7044,-131.738 322.9886,-142.329 329.5312,-139.8402"/>
</g>
<!-- Node11 -->
<g id="node12" class="node">
<title>Node11</title>
<g id="a_node12"><a xlink:title=" ">
<polygon fill="#ffffff" stroke="#bfbfbf" points="416.5,-168.5 416.5,-187.5 527.5,-187.5 527.5,-168.5 416.5,-168.5"/>
<text text-anchor="middle" x="472" y="-175.5" font-family="Helvetica,sans-Serif" font-size="10.00" fill="#000000">dji_open_protocol.hpp</text>
</a>
</g>
</g>
<!-- Node0&#45;&gt;Node11 -->
<g id="edge15" class="edge">
<title>Node0&#45;&gt;Node11</title>
<path fill="none" stroke="#191970" d="M391.2603,-280.4151C397.9107,-265.3308 409.3393,-241.8681 423,-224 431.3314,-213.1026 442.3444,-202.513 451.8191,-194.2467"/>
<polygon fill="#191970" stroke="#191970" points="454.2669,-196.7604 459.6432,-187.631 449.7472,-191.4151 454.2669,-196.7604"/>
</g>
<!-- Node12 -->
<g id="node13" class="node">
<title>Node12</title>
<g id="a_node13"><a xlink:href="dji__vehicle__callback_8hpp.html" target="_top" xlink:title="Type definition for new Vehicle&#45;style callbacks.">
<polygon fill="#ffffff" stroke="#000000" points="432,-224.5 432,-243.5 554,-243.5 554,-224.5 432,-224.5"/>
<text text-anchor="middle" x="493" y="-231.5" font-family="Helvetica,sans-Serif" font-size="10.00" fill="#000000">dji_vehicle_callback.hpp</text>
</a>
</g>
</g>
<!-- Node0&#45;&gt;Node12 -->
<g id="edge17" class="edge">
<title>Node0&#45;&gt;Node12</title>
<path fill="none" stroke="#191970" d="M411.4198,-280.4554C428.4914,-270.734 450.5902,-258.15 467.4809,-248.5317"/>
<polygon fill="#191970" stroke="#191970" points="469.3059,-251.5202 476.2638,-243.5303 465.842,-245.4373 469.3059,-251.5202"/>
</g>
<!-- Node2 -->
<g id="node3" class="node">
<title>Node2</title>
<g id="a_node3"><a xlink:href="dji__command_8hpp.html" target="_top" xlink:title="All DJI OSDK OpenProtocol Command IDs.">
<polygon fill="#ffffff" stroke="#000000" points="72.5,-112.5 72.5,-131.5 165.5,-131.5 165.5,-112.5 72.5,-112.5"/>
<text text-anchor="middle" x="119" y="-119.5" font-family="Helvetica,sans-Serif" font-size="10.00" fill="#000000">dji_command.hpp</text>
</a>
</g>
</g>
<!-- Node1&#45;&gt;Node2 -->
<g id="edge2" class="edge">
<title>Node1&#45;&gt;Node2</title>
<path fill="none" stroke="#191970" d="M175.9693,-224.4672C159.9158,-217.0151 140.0742,-205.0392 129,-188 120.1298,-174.352 117.9827,-155.813 117.8515,-141.8581"/>
<polygon fill="#191970" stroke="#191970" points="121.3511,-141.9104 118.0885,-131.8304 114.3531,-141.7448 121.3511,-141.9104"/>
</g>
<!-- Node5 -->
<g id="node6" class="node">
<title>Node5</title>
<g id="a_node6"><a xlink:href="dji__mission__type_8hpp.html" target="_top" xlink:title="Mission related data struct for DJI OSDK library.">
<polygon fill="#ffffff" stroke="#000000" points="192,-168.5 192,-187.5 300,-187.5 300,-168.5 192,-168.5"/>
<text text-anchor="middle" x="246" y="-175.5" font-family="Helvetica,sans-Serif" font-size="10.00" fill="#000000">dji_mission_type.hpp</text>
</a>
</g>
</g>
<!-- Node1&#45;&gt;Node5 -->
<g id="edge6" class="edge">
<title>Node1&#45;&gt;Node5</title>
<path fill="none" stroke="#191970" d="M208.8384,-224.2455C215.162,-216.3761 224.2224,-205.101 231.8136,-195.6542"/>
<polygon fill="#191970" stroke="#191970" points="234.7158,-197.6302 238.2514,-187.6427 229.2592,-193.2454 234.7158,-197.6302"/>
</g>
<!-- Node1&#45;&gt;Node6 -->
<g id="edge10" class="edge">
<title>Node1&#45;&gt;Node6</title>
<path fill="none" stroke="#191970" d="M234.0964,-228.7295C258.6551,-223.0137 290.8992,-211.3584 309,-188 319.0823,-174.9891 321.0553,-156.0996 320.8136,-141.8595"/>
<polygon fill="#191970" stroke="#191970" points="324.2957,-141.4323 320.2577,-131.6371 317.306,-141.8125 324.2957,-141.4323"/>
</g>
<!-- Node8 -->
<g id="node9" class="node">
<title>Node8</title>
<g id="a_node9"><a xlink:href="dji__version_8hpp.html" target="_top" xlink:title="Drone/SDK Version definition for DJI onboardSDK library.">
<polygon fill="#ffffff" stroke="#000000" points="0,-168.5 0,-187.5 82,-187.5 82,-168.5 0,-168.5"/>
<text text-anchor="middle" x="41" y="-175.5" font-family="Helvetica,sans-Serif" font-size="10.00" fill="#000000">dji_version.hpp</text>
</a>
</g>
</g>
<!-- Node1&#45;&gt;Node8 -->
<g id="edge11" class="edge">
<title>Node1&#45;&gt;Node8</title>
<path fill="none" stroke="#191970" d="M173.495,-224.3733C147.1198,-215.1419 107.1149,-201.1402 77.9642,-190.9375"/>
<polygon fill="#191970" stroke="#191970" points="78.7409,-187.5012 68.1461,-187.5011 76.4284,-194.1082 78.7409,-187.5012"/>
</g>
<!-- Node10 -->
<g id="node11" class="node">
<title>Node10</title>
<g id="a_node11"><a xlink:title=" ">
<polygon fill="#ffffff" stroke="#bfbfbf" points="138.5,-168.5 138.5,-187.5 173.5,-187.5 173.5,-168.5 138.5,-168.5"/>
<text text-anchor="middle" x="156" y="-175.5" font-family="Helvetica,sans-Serif" font-size="10.00" fill="#000000">map</text>
</a>
</g>
</g>
<!-- Node1&#45;&gt;Node10 -->
<g id="edge14" class="edge">
<title>Node1&#45;&gt;Node10</title>
<path fill="none" stroke="#191970" d="M193.1616,-224.2455C186.838,-216.3761 177.7776,-205.101 170.1864,-195.6542"/>
<polygon fill="#191970" stroke="#191970" points="172.7408,-193.2454 163.7486,-187.6427 167.2842,-197.6302 172.7408,-193.2454"/>
</g>
<!-- Node3 -->
<g id="node4" class="node">
<title>Node3</title>
<g id="a_node4"><a xlink:href="dji__error_8hpp.html" target="_top" xlink:title="All DJI OSDK OpenProtocol ACK Error Codes.">
<polygon fill="#ffffff" stroke="#000000" points="147,-56.5 147,-75.5 217,-75.5 217,-56.5 147,-56.5"/>
<text text-anchor="middle" x="182" y="-63.5" font-family="Helvetica,sans-Serif" font-size="10.00" fill="#000000">dji_error.hpp</text>
</a>
</g>
</g>
<!-- Node2&#45;&gt;Node3 -->
<g id="edge3" class="edge">
<title>Node2&#45;&gt;Node3</title>
<path fill="none" stroke="#191970" d="M129.9738,-112.2455C139.1882,-104.0549 152.5532,-92.1749 163.4297,-82.5069"/>
<polygon fill="#191970" stroke="#191970" points="166.0032,-84.9023 171.152,-75.6427 161.3526,-79.6704 166.0032,-84.9023"/>
</g>
<!-- Node4 -->
<g id="node5" class="node">
<title>Node4</title>
<g id="a_node5"><a xlink:title=" ">
<polygon fill="#ffffff" stroke="#bfbfbf" points="157.5,-.5 157.5,-19.5 206.5,-19.5 206.5,-.5 157.5,-.5"/>
<text text-anchor="middle" x="182" y="-7.5" font-family="Helvetica,sans-Serif" font-size="10.00" fill="#000000">stdint.h</text>
</a>
</g>
</g>
<!-- Node2&#45;&gt;Node4 -->
<g id="edge5" class="edge">
<title>Node2&#45;&gt;Node4</title>
<path fill="none" stroke="#191970" d="M120.2707,-112.477C122.3684,-99.121 127.4221,-74.4004 138,-56 144.3254,-44.9969 153.8305,-34.6085 162.3895,-26.4976"/>
<polygon fill="#191970" stroke="#191970" points="164.7961,-29.0402 169.8654,-19.7369 160.1008,-23.8484 164.7961,-29.0402"/>
</g>
<!-- Node3&#45;&gt;Node4 -->
<g id="edge4" class="edge">
<title>Node3&#45;&gt;Node4</title>
<path fill="none" stroke="#191970" d="M182,-56.2455C182,-48.9382 182,-38.6944 182,-29.7046"/>
<polygon fill="#191970" stroke="#191970" points="185.5001,-29.6426 182,-19.6427 178.5001,-29.6427 185.5001,-29.6426"/>
</g>
<!-- Node5&#45;&gt;Node6 -->
<g id="edge7" class="edge">
<title>Node5&#45;&gt;Node6</title>
<path fill="none" stroke="#191970" d="M258.7156,-168.2455C269.602,-159.8943 285.4883,-147.7076 298.22,-137.9408"/>
<polygon fill="#191970" stroke="#191970" points="300.6261,-140.5063 306.4301,-131.6427 296.3654,-134.9523 300.6261,-140.5063"/>
</g>
<!-- Node6&#45;&gt;Node4 -->
<g id="edge9" class="edge">
<title>Node6&#45;&gt;Node4</title>
<path fill="none" stroke="#191970" d="M307.3195,-112.4509C283.7617,-93.1921 230.3437,-49.5218 201.4411,-25.8935"/>
<polygon fill="#191970" stroke="#191970" points="203.6084,-23.1445 193.651,-19.5249 199.1778,-28.564 203.6084,-23.1445"/>
</g>
<!-- Node7 -->
<g id="node8" class="node">
<title>Node7</title>
<g id="a_node8"><a xlink:title=" ">
<polygon fill="#ffffff" stroke="#bfbfbf" points="297.5,-56.5 297.5,-75.5 340.5,-75.5 340.5,-56.5 297.5,-56.5"/>
<text text-anchor="middle" x="319" y="-63.5" font-family="Helvetica,sans-Serif" font-size="10.00" fill="#000000">cstdio</text>
</a>
</g>
</g>
<!-- Node6&#45;&gt;Node7 -->
<g id="edge8" class="edge">
<title>Node6&#45;&gt;Node7</title>
<path fill="none" stroke="#191970" d="M319,-112.2455C319,-104.9382 319,-94.6944 319,-85.7046"/>
<polygon fill="#191970" stroke="#191970" points="322.5001,-85.6426 319,-75.6427 315.5001,-85.6427 322.5001,-85.6426"/>
</g>
<!-- Node8&#45;&gt;Node2 -->
<g id="edge12" class="edge">
<title>Node8&#45;&gt;Node2</title>
<path fill="none" stroke="#191970" d="M54.5866,-168.2455C66.3305,-159.814 83.5199,-147.4729 97.1882,-137.6598"/>
<polygon fill="#191970" stroke="#191970" points="99.4871,-140.3179 105.5691,-131.6427 95.4046,-134.6316 99.4871,-140.3179"/>
</g>
<!-- Node9 -->
<g id="node10" class="node">
<title>Node9</title>
<g id="a_node10"><a xlink:title=" ">
<polygon fill="#ffffff" stroke="#bfbfbf" points="8,-112.5 8,-131.5 54,-131.5 54,-112.5 8,-112.5"/>
<text text-anchor="middle" x="31" y="-119.5" font-family="Helvetica,sans-Serif" font-size="10.00" fill="#000000">cstdint</text>
</a>
</g>
</g>
<!-- Node8&#45;&gt;Node9 -->
<g id="edge13" class="edge">
<title>Node8&#45;&gt;Node9</title>
<path fill="none" stroke="#191970" d="M39.2581,-168.2455C37.9533,-160.9382 36.124,-150.6944 34.5187,-141.7046"/>
<polygon fill="#191970" stroke="#191970" points="37.9254,-140.8717 32.7219,-131.6427 31.0344,-142.1022 37.9254,-140.8717"/>
</g>
<!-- Node12&#45;&gt;Node11 -->
<g id="edge18" class="edge">
<title>Node12&#45;&gt;Node11</title>
<path fill="none" stroke="#191970" d="M489.3421,-224.2455C486.5416,-216.7776 482.591,-206.2427 479.1676,-197.1137"/>
<polygon fill="#191970" stroke="#191970" points="482.4045,-195.777 475.616,-187.6427 475.8501,-198.2349 482.4045,-195.777"/>
</g>
</g>
</svg>
        <g id="navigator" transform="translate(0 0)" fill="#404254">
                <rect fill="#f2f5e9" fill-opacity="0.5" stroke="#606060" stroke-width=".5" x="0" y="0" width="60" height="60"/>
                <use id="zoomplus" xlink:href="#zoomPlus" x="17" y="9" onmousedown="handleZoom(evt,'in')"/>
                <use id="zoomminus" xlink:href="#zoomMin" x="42" y="9" onmousedown="handleZoom(evt,'out')"/>
                <use id="reset" xlink:href="#resetDef" x="30" y="36" onmousedown="handleReset()"/>
                <g id="arrowUp" xlink:href="#dirArrow" transform="translate(30 24)" onmousedown="handlePan(0,-1)">
                  <use xlink:href="#rim" fill="#404040">
                        <set attributeName="fill" to="#808080" begin="arrowUp.mouseover" end="arrowUp.mouseout"/>
                  </use>
                  <path fill="none" stroke="white" stroke-width="1.5" d="M0,-3.0v7 M-2.5,-0.5L0,-3.0L2.5,-0.5"/>
                </g>
                <g id="arrowRight" xlink:href="#dirArrow" transform="rotate(90) translate(36 -43)" onmousedown="handlePan(1,0)">
                  <use xlink:href="#rim" fill="#404040">
                        <set attributeName="fill" to="#808080" begin="arrowRight.mouseover" end="arrowRight.mouseout"/>
                  </use>
                  <path fill="none" stroke="white" stroke-width="1.5" d="M0,-3.0v7 M-2.5,-0.5L0,-3.0L2.5,-0.5"/>
                </g>
                <g id="arrowDown" xlink:href="#dirArrow" transform="rotate(180) translate(-30 -48)" onmousedown="handlePan(0,1)">
                  <use xlink:href="#rim" fill="#404040">
                        <set attributeName="fill" to="#808080" begin="arrowDown.mouseover" end="arrowDown.mouseout"/>
                  </use>
                  <path fill="none" stroke="white" stroke-width="1.5" d="M0,-3.0v7 M-2.5,-0.5L0,-3.0L2.5,-0.5"/>
                </g>
                <g id="arrowLeft" xlink:href="#dirArrow" transform="rotate(270) translate(-36 17)" onmousedown="handlePan(-1,0)">
                  <use xlink:href="#rim" fill="#404040">
                        <set attributeName="fill" to="#808080" begin="arrowLeft.mouseover" end="arrowLeft.mouseout"/>
                  </use>
                  <path fill="none" stroke="white" stroke-width="1.5" d="M0,-3.0v7 M-2.5,-0.5L0,-3.0L2.5,-0.5"/>
                </g>
        </g>
        <svg viewBox="0 0 15 15" width="100%" height="30px" preserveAspectRatio="xMaxYMin meet">
         <g id="arrow_out" transform="scale(0.3 0.3)">
          <a xlink:href="dji__control_8hpp__incl_org.svg" target="_base">
           <rect id="button" ry="5" rx="5" y="6" x="6" height="38" width="38"
                fill="#f2f5e9" fill-opacity="0.5" stroke="#606060" stroke-width="1.0"/>
           <path id="arrow"
             d="M 11.500037,31.436501 C 11.940474,20.09759 22.043105,11.32322 32.158766,21.979434 L 37.068811,17.246167 C 37.068811,17.246167 37.088388,32 37.088388,32 L 22.160133,31.978069 C 22.160133,31.978069 26.997745,27.140456 26.997745,27.140456 C 18.528582,18.264221 13.291696,25.230495 11.500037,31.436501 z"
             style="fill:#404040;"/>
          </a>
         </g>
        </svg>
</svg>
