<?xml version="1.0" encoding="UTF-8" standalone="no"?>
<!DOCTYPE svg PUBLIC "-//W3C//DTD SVG 1.1//EN"
 "http://www.w3.org/Graphics/SVG/1.1/DTD/svg11.dtd">
<!-- Generated by graphviz version 2.40.1 (20161225.0304)
 -->
<!-- Title: osdk&#45;core/modules/inc/mop/dji_mop_server.hpp Pages: 1 -->
<svg width="268pt" height="274pt"
 viewBox="0.00 0.00 268.00 274.00" xmlns="http://www.w3.org/2000/svg" xmlns:xlink="http://www.w3.org/1999/xlink">
<g id="graph0" class="graph" transform="scale(1 1) rotate(0) translate(4 270)">
<title>osdk&#45;core/modules/inc/mop/dji_mop_server.hpp</title>
<polygon fill="#ffffff" stroke="transparent" points="-4,4 -4,-270 264,-270 264,4 -4,4"/>
<!-- Node0 -->
<g id="node1" class="node">
<title>Node0</title>
<g id="a_node1"><a xlink:title="Implementation of the mop client.">
<polygon fill="#bfbfbf" stroke="#000000" points="60.5,-235.5 60.5,-265.5 186.5,-265.5 186.5,-235.5 60.5,-235.5"/>
<text text-anchor="start" x="68.5" y="-253.5" font-family="Helvetica,sans-Serif" font-size="10.00" fill="#000000">osdk&#45;core/modules/inc</text>
<text text-anchor="middle" x="123.5" y="-242.5" font-family="Helvetica,sans-Serif" font-size="10.00" fill="#000000">/mop/dji_mop_server.hpp</text>
</a>
</g>
</g>
<!-- Node1 -->
<g id="node2" class="node">
<title>Node1</title>
<g id="a_node2"><a xlink:href="dji__mop__pipeline_8hpp.html" target="_top" xlink:title="Implementation of mop pipeline.">
<polygon fill="#ffffff" stroke="#000000" points="23,-112.5 23,-131.5 130,-131.5 130,-112.5 23,-112.5"/>
<text text-anchor="middle" x="76.5" y="-119.5" font-family="Helvetica,sans-Serif" font-size="10.00" fill="#000000">dji_mop_pipeline.hpp</text>
</a>
</g>
</g>
<!-- Node0&#45;&gt;Node1 -->
<g id="edge1" class="edge">
<title>Node0&#45;&gt;Node1</title>
<path fill="none" stroke="#191970" d="M113.8432,-235.2221C107.8713,-225.2289 100.4308,-211.7146 95.5,-199 88.2089,-180.1991 83.0417,-157.7091 79.9546,-141.9041"/>
<polygon fill="#191970" stroke="#191970" points="83.3326,-140.9229 78.0736,-131.7254 76.4491,-142.1949 83.3326,-140.9229"/>
</g>
<!-- Node6 -->
<g id="node7" class="node">
<title>Node6</title>
<g id="a_node7"><a xlink:href="dji__mop__pipeline__manager__base_8hpp.html" target="_top" xlink:title="Implementation of mop pipeline manager base.">
<polygon fill="#ffffff" stroke="#000000" points="105,-168.5 105,-198.5 236,-198.5 236,-168.5 105,-168.5"/>
<text text-anchor="start" x="113" y="-186.5" font-family="Helvetica,sans-Serif" font-size="10.00" fill="#000000">dji_mop_pipeline_manager</text>
<text text-anchor="middle" x="170.5" y="-175.5" font-family="Helvetica,sans-Serif" font-size="10.00" fill="#000000">_base.hpp</text>
</a>
</g>
</g>
<!-- Node0&#45;&gt;Node6 -->
<g id="edge6" class="edge">
<title>Node0&#45;&gt;Node6</title>
<path fill="none" stroke="#191970" d="M134.165,-235.2967C140.0541,-226.9016 147.4944,-216.2952 154.1062,-206.8698"/>
<polygon fill="#191970" stroke="#191970" points="156.9996,-208.8398 159.8772,-198.6432 151.269,-204.8198 156.9996,-208.8398"/>
</g>
<!-- Node2 -->
<g id="node3" class="node">
<title>Node2</title>
<g id="a_node3"><a xlink:title=" ">
<polygon fill="#ffffff" stroke="#bfbfbf" points="0,-56.5 0,-75.5 49,-75.5 49,-56.5 0,-56.5"/>
<text text-anchor="middle" x="24.5" y="-63.5" font-family="Helvetica,sans-Serif" font-size="10.00" fill="#000000">stdint.h</text>
</a>
</g>
</g>
<!-- Node1&#45;&gt;Node2 -->
<g id="edge2" class="edge">
<title>Node1&#45;&gt;Node2</title>
<path fill="none" stroke="#191970" d="M67.4423,-112.2455C59.9858,-104.2155 49.2366,-92.6394 40.3583,-83.0781"/>
<polygon fill="#191970" stroke="#191970" points="42.8232,-80.589 33.4539,-75.6427 37.6937,-85.3522 42.8232,-80.589"/>
</g>
<!-- Node3 -->
<g id="node4" class="node">
<title>Node3</title>
<g id="a_node4"><a xlink:href="dji__mop__define_8hpp.html" target="_top" xlink:title="Enumeration of all mop data types, structures.">
<polygon fill="#ffffff" stroke="#000000" points="67,-56.5 67,-75.5 168,-75.5 168,-56.5 67,-56.5"/>
<text text-anchor="middle" x="117.5" y="-63.5" font-family="Helvetica,sans-Serif" font-size="10.00" fill="#000000">dji_mop_define.hpp</text>
</a>
</g>
</g>
<!-- Node1&#45;&gt;Node3 -->
<g id="edge3" class="edge">
<title>Node1&#45;&gt;Node3</title>
<path fill="none" stroke="#191970" d="M83.6417,-112.2455C89.3444,-104.4564 97.49,-93.3308 104.3625,-83.9439"/>
<polygon fill="#191970" stroke="#191970" points="107.3568,-85.7789 110.4402,-75.6427 101.7087,-81.6437 107.3568,-85.7789"/>
</g>
<!-- Node4 -->
<g id="node5" class="node">
<title>Node4</title>
<g id="a_node5"><a xlink:title=" ">
<polygon fill="#ffffff" stroke="#bfbfbf" points="50,-.5 50,-19.5 147,-19.5 147,-.5 50,-.5"/>
<text text-anchor="middle" x="98.5" y="-7.5" font-family="Helvetica,sans-Serif" font-size="10.00" fill="#000000">mop_entry_osdk.h</text>
</a>
</g>
</g>
<!-- Node3&#45;&gt;Node4 -->
<g id="edge4" class="edge">
<title>Node3&#45;&gt;Node4</title>
<path fill="none" stroke="#191970" d="M114.1905,-56.2455C111.6567,-48.7776 108.0823,-38.2427 104.985,-29.1137"/>
<polygon fill="#191970" stroke="#191970" points="108.2991,-27.9879 101.7716,-19.6427 101.6702,-30.237 108.2991,-27.9879"/>
</g>
<!-- Node5 -->
<g id="node6" class="node">
<title>Node5</title>
<g id="a_node6"><a xlink:title=" ">
<polygon fill="#ffffff" stroke="#bfbfbf" points="165,-.5 165,-19.5 228,-19.5 228,-.5 165,-.5"/>
<text text-anchor="middle" x="196.5" y="-7.5" font-family="Helvetica,sans-Serif" font-size="10.00" fill="#000000">dji_log.hpp</text>
</a>
</g>
</g>
<!-- Node3&#45;&gt;Node5 -->
<g id="edge5" class="edge">
<title>Node3&#45;&gt;Node5</title>
<path fill="none" stroke="#191970" d="M131.2607,-56.2455C143.1552,-47.814 160.565,-35.4729 174.4085,-25.6598"/>
<polygon fill="#191970" stroke="#191970" points="176.7628,-28.2811 182.8969,-19.6427 172.7146,-22.5704 176.7628,-28.2811"/>
</g>
<!-- Node6&#45;&gt;Node1 -->
<g id="edge8" class="edge">
<title>Node6&#45;&gt;Node1</title>
<path fill="none" stroke="#191970" d="M147.264,-168.2977C132.7666,-158.8127 114.1756,-146.6495 99.6874,-137.1705"/>
<polygon fill="#191970" stroke="#191970" points="101.5543,-134.2094 91.2699,-131.6633 97.7218,-140.0671 101.5543,-134.2094"/>
</g>
<!-- Node6&#45;&gt;Node3 -->
<g id="edge7" class="edge">
<title>Node6&#45;&gt;Node3</title>
<path fill="none" stroke="#191970" d="M163.7903,-168.4206C157.3378,-153.9402 147.2947,-131.4561 138.5,-112 134.4381,-103.0142 129.8977,-93.0576 126.0807,-84.7123"/>
<polygon fill="#191970" stroke="#191970" points="129.2103,-83.14 121.8644,-75.5054 122.8459,-86.0547 129.2103,-83.14"/>
</g>
<!-- Node6&#45;&gt;Node5 -->
<g id="edge9" class="edge">
<title>Node6&#45;&gt;Node5</title>
<path fill="none" stroke="#191970" d="M172.7618,-168.4065C177.4664,-137.0126 188.3035,-64.6961 193.549,-29.6925"/>
<polygon fill="#191970" stroke="#191970" points="197.02,-30.1463 195.0407,-19.738 190.0973,-29.1088 197.02,-30.1463"/>
</g>
<!-- Node7 -->
<g id="node8" class="node">
<title>Node7</title>
<g id="a_node8"><a xlink:title=" ">
<polygon fill="#ffffff" stroke="#bfbfbf" points="225,-112.5 225,-131.5 260,-131.5 260,-112.5 225,-112.5"/>
<text text-anchor="middle" x="242.5" y="-119.5" font-family="Helvetica,sans-Serif" font-size="10.00" fill="#000000">map</text>
</a>
</g>
</g>
<!-- Node6&#45;&gt;Node7 -->
<g id="edge10" class="edge">
<title>Node6&#45;&gt;Node7</title>
<path fill="none" stroke="#191970" d="M188.2978,-168.2977C198.9167,-159.2274 212.4031,-147.7077 223.2667,-138.4285"/>
<polygon fill="#191970" stroke="#191970" points="225.6413,-141.0031 230.9719,-131.8469 221.0949,-135.6805 225.6413,-141.0031"/>
</g>
</g>
</svg>
