<?xml version="1.0" encoding="UTF-8" standalone="no"?>
<!DOCTYPE svg PUBLIC "-//W3C//DTD SVG 1.1//EN"
 "http://www.w3.org/Graphics/SVG/1.1/DTD/svg11.dtd">
<!-- Generated by graphviz version 2.38.0 (20140413.2041)
 -->
<!-- Title: osdk&#45;core/api/src/dji_broadcast.cpp Pages: 1 -->
<svg width="1859pt" height="431pt"
 viewBox="0.00 0.00 1858.75 431.00" xmlns="http://www.w3.org/2000/svg" xmlns:xlink="http://www.w3.org/1999/xlink">
<g id="graph0" class="graph" transform="scale(1 1) rotate(0) translate(4 427)">
<title>osdk&#45;core/api/src/dji_broadcast.cpp</title>
<polygon fill="white" stroke="none" points="-4,4 -4,-427 1854.75,-427 1854.75,4 -4,4"/>
<!-- Node1 -->
<g id="node1" class="node"><title>Node1</title>
<polygon fill="#bfbfbf" stroke="black" points="1278.01,-392.5 1278.01,-422.5 1382.01,-422.5 1382.01,-392.5 1278.01,-392.5"/>
<text text-anchor="start" x="1286.01" y="-410.5" font-family="Helvetica,sans-Serif" font-size="10.00">osdk&#45;core/api/src/dji</text>
<text text-anchor="middle" x="1330.01" y="-399.5" font-family="Helvetica,sans-Serif" font-size="10.00">_broadcast.cpp</text>
</g>
<!-- Node2 -->
<g id="node2" class="node"><title>Node2</title>
<g id="a_node2"><a xlink:href="dji__broadcast_8hpp.html" target="_top" xlink:title="Broadcast Telemetry API for DJI onboardSDK library. ">
<polygon fill="white" stroke="black" points="1324.51,-224.5 1324.51,-243.5 1417.51,-243.5 1417.51,-224.5 1324.51,-224.5"/>
<text text-anchor="middle" x="1371.01" y="-231.5" font-family="Helvetica,sans-Serif" font-size="10.00">dji_broadcast.hpp</text>
</a>
</g>
</g>
<!-- Node1&#45;&gt;Node2 -->
<g id="edge1" class="edge"><title>Node1&#45;&gt;Node2</title>
<path fill="none" stroke="midnightblue" d="M1382.27,-398.541C1436.78,-387.15 1519.53,-360.441 1558.01,-300 1562.78,-292.502 1563.51,-286.982 1558.01,-280 1549.8,-269.58 1479.73,-254.757 1427.76,-245.013"/>
<polygon fill="midnightblue" stroke="midnightblue" points="1428.1,-241.516 1417.63,-243.134 1426.82,-248.399 1428.1,-241.516"/>
</g>
<!-- Node9 -->
<g id="node9" class="node"><title>Node9</title>
<g id="a_node9"><a xlink:href="dji__vehicle_8hpp.html" target="_top" xlink:title="Vehicle API for DJI onboardSDK library. ">
<polygon fill="white" stroke="black" points="1004.51,-336.5 1004.51,-355.5 1085.51,-355.5 1085.51,-336.5 1004.51,-336.5"/>
<text text-anchor="middle" x="1045.01" y="-343.5" font-family="Helvetica,sans-Serif" font-size="10.00">dji_vehicle.hpp</text>
</a>
</g>
</g>
<!-- Node1&#45;&gt;Node9 -->
<g id="edge8" class="edge"><title>Node1&#45;&gt;Node9</title>
<path fill="none" stroke="midnightblue" d="M1277.73,-395.587C1225.91,-384.767 1147.04,-368.301 1095.75,-357.594"/>
<polygon fill="midnightblue" stroke="midnightblue" points="1096.38,-354.15 1085.88,-355.533 1094.95,-361.003 1096.38,-354.15"/>
</g>
<!-- Node3 -->
<g id="node3" class="node"><title>Node3</title>
<g id="a_node3"><a xlink:href="dji__telemetry_8hpp.html" target="_top" xlink:title="Enumeration of all telemetry data types, structures and maps. ">
<polygon fill="white" stroke="black" points="849.507,-168.5 849.507,-187.5 940.507,-187.5 940.507,-168.5 849.507,-168.5"/>
<text text-anchor="middle" x="895.007" y="-175.5" font-family="Helvetica,sans-Serif" font-size="10.00">dji_telemetry.hpp</text>
</a>
</g>
</g>
<!-- Node2&#45;&gt;Node3 -->
<g id="edge2" class="edge"><title>Node2&#45;&gt;Node3</title>
<path fill="none" stroke="midnightblue" d="M1324.5,-227.724C1236.36,-217.725 1045.36,-196.057 950.617,-185.309"/>
<polygon fill="midnightblue" stroke="midnightblue" points="950.984,-181.828 940.654,-184.178 950.195,-188.783 950.984,-181.828"/>
</g>
<!-- Node7 -->
<g id="node7" class="node"><title>Node7</title>
<g id="a_node7"><a xlink:href="dji__vehicle__callback_8hpp.html" target="_top" xlink:title="Type definition for new Vehicle&#45;style callbacks. ">
<polygon fill="white" stroke="black" points="1278.01,-112.5 1278.01,-131.5 1400.01,-131.5 1400.01,-112.5 1278.01,-112.5"/>
<text text-anchor="middle" x="1339.01" y="-119.5" font-family="Helvetica,sans-Serif" font-size="10.00">dji_vehicle_callback.hpp</text>
</a>
</g>
</g>
<!-- Node2&#45;&gt;Node7 -->
<g id="edge6" class="edge"><title>Node2&#45;&gt;Node7</title>
<path fill="none" stroke="midnightblue" d="M1368.5,-224.368C1363.31,-206.537 1351.31,-165.295 1344.32,-141.272"/>
<polygon fill="midnightblue" stroke="midnightblue" points="1347.66,-140.216 1341.51,-131.591 1340.94,-142.171 1347.66,-140.216"/>
</g>
<!-- Node4 -->
<g id="node4" class="node"><title>Node4</title>
<g id="a_node4"><a xlink:href="dji__type_8hpp.html" target="_top" xlink:title="Data type and Data Structure definitions for use throughout DJI OSDK. ">
<polygon fill="white" stroke="black" points="352.507,-112.5 352.507,-131.5 421.507,-131.5 421.507,-112.5 352.507,-112.5"/>
<text text-anchor="middle" x="387.007" y="-119.5" font-family="Helvetica,sans-Serif" font-size="10.00">dji_type.hpp</text>
</a>
</g>
</g>
<!-- Node3&#45;&gt;Node4 -->
<g id="edge3" class="edge"><title>Node3&#45;&gt;Node4</title>
<path fill="none" stroke="midnightblue" d="M849.502,-169.936C844.614,-169.248 839.71,-168.589 835.007,-168 687.843,-149.583 512.737,-133.747 431.941,-126.783"/>
<polygon fill="midnightblue" stroke="midnightblue" points="431.903,-123.267 421.64,-125.899 431.304,-130.241 431.903,-123.267"/>
</g>
<!-- Node5 -->
<g id="node5" class="node"><title>Node5</title>
<polygon fill="white" stroke="#bfbfbf" points="390.507,-56.5 390.507,-75.5 433.507,-75.5 433.507,-56.5 390.507,-56.5"/>
<text text-anchor="middle" x="412.007" y="-63.5" font-family="Helvetica,sans-Serif" font-size="10.00">cstdio</text>
</g>
<!-- Node4&#45;&gt;Node5 -->
<g id="edge4" class="edge"><title>Node4&#45;&gt;Node5</title>
<path fill="none" stroke="midnightblue" d="M391.135,-112.083C394.521,-104.77 399.423,-94.1814 403.626,-85.1034"/>
<polygon fill="midnightblue" stroke="midnightblue" points="406.93,-86.2962 407.955,-75.7511 400.578,-83.3553 406.93,-86.2962"/>
</g>
<!-- Node6 -->
<g id="node6" class="node"><title>Node6</title>
<polygon fill="white" stroke="#bfbfbf" points="274.507,-0.5 274.507,-19.5 323.507,-19.5 323.507,-0.5 274.507,-0.5"/>
<text text-anchor="middle" x="299.007" y="-7.5" font-family="Helvetica,sans-Serif" font-size="10.00">stdint.h</text>
</g>
<!-- Node4&#45;&gt;Node6 -->
<g id="edge5" class="edge"><title>Node4&#45;&gt;Node6</title>
<path fill="none" stroke="midnightblue" d="M381.777,-112.239C373.97,-99.4171 358.518,-75.0015 343.007,-56 334.543,-45.6312 324.104,-34.8817 315.518,-26.49"/>
<polygon fill="midnightblue" stroke="midnightblue" points="317.902,-23.9265 308.265,-19.5249 313.054,-28.9756 317.902,-23.9265"/>
</g>
<!-- Node8 -->
<g id="node8" class="node"><title>Node8</title>
<polygon fill="white" stroke="#bfbfbf" points="995.507,-56.5 995.507,-75.5 1106.51,-75.5 1106.51,-56.5 995.507,-56.5"/>
<text text-anchor="middle" x="1051.01" y="-63.5" font-family="Helvetica,sans-Serif" font-size="10.00">dji_open_protocol.hpp</text>
</g>
<!-- Node7&#45;&gt;Node8 -->
<g id="edge7" class="edge"><title>Node7&#45;&gt;Node8</title>
<path fill="none" stroke="midnightblue" d="M1293.37,-112.444C1242.71,-102.944 1160.93,-87.611 1106.58,-77.4198"/>
<polygon fill="midnightblue" stroke="midnightblue" points="1106.9,-73.9193 1096.43,-75.5164 1105.61,-80.7994 1106.9,-73.9193"/>
</g>
<!-- Node9&#45;&gt;Node2 -->
<g id="edge10" class="edge"><title>Node9&#45;&gt;Node2</title>
<path fill="none" stroke="midnightblue" d="M1054.74,-336.296C1071.1,-322.158 1105.72,-294.345 1140.01,-280 1170.76,-267.133 1256.19,-252.383 1314.08,-243.38"/>
<polygon fill="midnightblue" stroke="midnightblue" points="1314.84,-246.804 1324.19,-241.822 1313.77,-239.886 1314.84,-246.804"/>
</g>
<!-- Node9&#45;&gt;Node4 -->
<g id="edge66" class="edge"><title>Node9&#45;&gt;Node4</title>
<path fill="none" stroke="midnightblue" d="M1004.38,-345.413C862.944,-346.442 398.147,-346.252 352.007,-300 310.515,-258.408 323.463,-222.656 345.007,-168 349.521,-156.548 358.476,-146.291 366.961,-138.472"/>
<polygon fill="midnightblue" stroke="midnightblue" points="369.475,-140.927 374.793,-131.764 364.922,-135.611 369.475,-140.927"/>
</g>
<!-- Node9&#45;&gt;Node7 -->
<g id="edge67" class="edge"><title>Node9&#45;&gt;Node7</title>
<path fill="none" stroke="midnightblue" d="M1085.56,-345.16C1236.27,-345.415 1758.49,-343.151 1818.01,-300 1846.48,-279.36 1861.38,-251.924 1840.01,-224 1788.67,-156.924 1536.57,-133.754 1410.73,-126.284"/>
<polygon fill="midnightblue" stroke="midnightblue" points="1410.61,-122.771 1400.43,-125.691 1410.21,-129.76 1410.61,-122.771"/>
</g>
<!-- Node9&#45;&gt;Node8 -->
<g id="edge58" class="edge"><title>Node9&#45;&gt;Node8</title>
<path fill="none" stroke="midnightblue" d="M1045.19,-336.375C1046.03,-297.782 1049.42,-140.454 1050.6,-85.8074"/>
<polygon fill="midnightblue" stroke="midnightblue" points="1054.11,-85.5975 1050.82,-75.5243 1047.11,-85.4464 1054.11,-85.5975"/>
</g>
<!-- Node10 -->
<g id="node10" class="node"><title>Node10</title>
<polygon fill="white" stroke="#bfbfbf" points="977.007,-112.5 977.007,-131.5 1023.01,-131.5 1023.01,-112.5 977.007,-112.5"/>
<text text-anchor="middle" x="1000.01" y="-119.5" font-family="Helvetica,sans-Serif" font-size="10.00">cstdint</text>
</g>
<!-- Node9&#45;&gt;Node10 -->
<g id="edge9" class="edge"><title>Node9&#45;&gt;Node10</title>
<path fill="none" stroke="midnightblue" d="M1004.29,-343.532C972.884,-339.997 931.314,-329.562 910.007,-300 879.012,-256.997 962.174,-272.808 983.007,-244 1005,-213.591 1004.71,-167.428 1002.44,-141.805"/>
<polygon fill="midnightblue" stroke="midnightblue" points="1005.89,-141.17 1001.33,-131.609 998.932,-141.929 1005.89,-141.17"/>
</g>
<!-- Node11 -->
<g id="node11" class="node"><title>Node11</title>
<g id="a_node11"><a xlink:href="dji__camera_8hpp.html" target="_top" xlink:title="Camera/Gimbal API for DJI onboardSDK library. ">
<polygon fill="white" stroke="black" points="14.5068,-168.5 14.5068,-187.5 97.5068,-187.5 97.5068,-168.5 14.5068,-168.5"/>
<text text-anchor="middle" x="56.0068" y="-175.5" font-family="Helvetica,sans-Serif" font-size="10.00">dji_camera.hpp</text>
</a>
</g>
</g>
<!-- Node9&#45;&gt;Node11 -->
<g id="edge11" class="edge"><title>Node9&#45;&gt;Node11</title>
<path fill="none" stroke="midnightblue" d="M1004.41,-344.497C844.308,-342.296 261.8,-332.129 186.007,-300 132.957,-277.512 88.0848,-223.378 67.7196,-195.783"/>
<polygon fill="midnightblue" stroke="midnightblue" points="70.4591,-193.598 61.7763,-187.527 64.7778,-197.687 70.4591,-193.598"/>
</g>
<!-- Node12 -->
<g id="node12" class="node"><title>Node12</title>
<g id="a_node12"><a xlink:href="dji__command_8hpp.html" target="_top" xlink:title="All DJI OSDK OpenProtocol Command IDs. ">
<polygon fill="white" stroke="black" points="207.507,-112.5 207.507,-131.5 300.507,-131.5 300.507,-112.5 207.507,-112.5"/>
<text text-anchor="middle" x="254.007" y="-119.5" font-family="Helvetica,sans-Serif" font-size="10.00">dji_command.hpp</text>
</a>
</g>
</g>
<!-- Node9&#45;&gt;Node12 -->
<g id="edge18" class="edge"><title>Node9&#45;&gt;Node12</title>
<path fill="none" stroke="midnightblue" d="M1004.05,-344.606C863.602,-342.948 407.058,-334.898 352.007,-300 293.935,-263.187 267.373,-179.182 258.087,-141.68"/>
<polygon fill="midnightblue" stroke="midnightblue" points="261.424,-140.581 255.744,-131.638 254.607,-142.172 261.424,-140.581"/>
</g>
<!-- Node14 -->
<g id="node14" class="node"><title>Node14</title>
<polygon fill="white" stroke="#bfbfbf" points="615.007,-280.5 615.007,-299.5 727.007,-299.5 727.007,-280.5 615.007,-280.5"/>
<text text-anchor="middle" x="671.007" y="-287.5" font-family="Helvetica,sans-Serif" font-size="10.00">dji_circular_buffer.hpp</text>
</g>
<!-- Node9&#45;&gt;Node14 -->
<g id="edge17" class="edge"><title>Node9&#45;&gt;Node14</title>
<path fill="none" stroke="midnightblue" d="M1004.27,-339.118C940.04,-329.844 814.602,-311.733 737.275,-300.568"/>
<polygon fill="midnightblue" stroke="midnightblue" points="737.558,-297.073 727.16,-299.108 736.558,-304.001 737.558,-297.073"/>
</g>
<!-- Node15 -->
<g id="node15" class="node"><title>Node15</title>
<g id="a_node15"><a xlink:href="dji__control_8hpp.html" target="_top" xlink:title="Control API for DJI OSDK library. ">
<polygon fill="white" stroke="black" points="783.007,-280.5 783.007,-299.5 863.007,-299.5 863.007,-280.5 783.007,-280.5"/>
<text text-anchor="middle" x="823.007" y="-287.5" font-family="Helvetica,sans-Serif" font-size="10.00">dji_control.hpp</text>
</a>
</g>
</g>
<!-- Node9&#45;&gt;Node15 -->
<g id="edge19" class="edge"><title>Node9&#45;&gt;Node15</title>
<path fill="none" stroke="midnightblue" d="M1009.83,-336.444C971.428,-327.102 909.831,-312.119 867.952,-301.933"/>
<polygon fill="midnightblue" stroke="midnightblue" points="868.563,-298.479 858.019,-299.516 866.908,-305.281 868.563,-298.479"/>
</g>
<!-- Node18 -->
<g id="node18" class="node"><title>Node18</title>
<g id="a_node18"><a xlink:href="dji__version_8hpp.html" target="_top" xlink:title="Drone/SDK Version definition for DJI onboardSDK library. ">
<polygon fill="white" stroke="black" points="583.007,-168.5 583.007,-187.5 665.007,-187.5 665.007,-168.5 583.007,-168.5"/>
<text text-anchor="middle" x="624.007" y="-175.5" font-family="Helvetica,sans-Serif" font-size="10.00">dji_version.hpp</text>
</a>
</g>
</g>
<!-- Node9&#45;&gt;Node18 -->
<g id="edge68" class="edge"><title>Node9&#45;&gt;Node18</title>
<path fill="none" stroke="midnightblue" d="M1004.08,-342.29C950.147,-337.804 852.887,-326.536 774.007,-300 755.918,-293.915 753.776,-286.963 736.007,-280 678.59,-257.501 639.531,-292.936 602.007,-244 591.184,-229.885 600.467,-210.127 610.086,-196.107"/>
<polygon fill="midnightblue" stroke="midnightblue" points="613.078,-197.95 616.247,-187.841 607.465,-193.767 613.078,-197.95"/>
</g>
<!-- Node20 -->
<g id="node20" class="node"><title>Node20</title>
<g id="a_node20"><a xlink:href="dji__gimbal_8hpp.html" target="_top" xlink:title="Gimbal API for OSDK library. ">
<polygon fill="white" stroke="black" points="115.507,-168.5 115.507,-187.5 194.507,-187.5 194.507,-168.5 115.507,-168.5"/>
<text text-anchor="middle" x="155.007" y="-175.5" font-family="Helvetica,sans-Serif" font-size="10.00">dji_gimbal.hpp</text>
</a>
</g>
</g>
<!-- Node9&#45;&gt;Node20 -->
<g id="edge32" class="edge"><title>Node9&#45;&gt;Node20</title>
<path fill="none" stroke="midnightblue" d="M1004.24,-345.267C845.588,-345.974 274.914,-345.323 209.007,-300 174.522,-276.286 161.779,-225.165 157.292,-197.57"/>
<polygon fill="midnightblue" stroke="midnightblue" points="160.752,-197.041 155.872,-187.636 153.822,-198.031 160.752,-197.041"/>
</g>
<!-- Node21 -->
<g id="node21" class="node"><title>Node21</title>
<polygon fill="white" stroke="#bfbfbf" points="919.007,-280.5 919.007,-299.5 1017.01,-299.5 1017.01,-280.5 919.007,-280.5"/>
<text text-anchor="middle" x="968.007" y="-287.5" font-family="Helvetica,sans-Serif" font-size="10.00">dji_hard_driver.hpp</text>
</g>
<!-- Node9&#45;&gt;Node21 -->
<g id="edge35" class="edge"><title>Node9&#45;&gt;Node21</title>
<path fill="none" stroke="midnightblue" d="M1032.64,-336.324C1020.85,-328.058 1002.87,-315.453 988.871,-305.632"/>
<polygon fill="midnightblue" stroke="midnightblue" points="990.544,-302.531 980.347,-299.655 986.525,-308.262 990.544,-302.531"/>
</g>
<!-- Node22 -->
<g id="node22" class="node"><title>Node22</title>
<g id="a_node22"><a xlink:href="dji__hardware__sync_8hpp.html" target="_top" xlink:title="Hardware Sync API for DJI OSDK. ">
<polygon fill="white" stroke="black" points="1073.01,-168.5 1073.01,-187.5 1189.01,-187.5 1189.01,-168.5 1073.01,-168.5"/>
<text text-anchor="middle" x="1131.01" y="-175.5" font-family="Helvetica,sans-Serif" font-size="10.00">dji_hardware_sync.hpp</text>
</a>
</g>
</g>
<!-- Node9&#45;&gt;Node22 -->
<g id="edge36" class="edge"><title>Node9&#45;&gt;Node22</title>
<path fill="none" stroke="midnightblue" d="M1049.63,-336.075C1063.28,-309.719 1103.61,-231.878 1121.86,-196.661"/>
<polygon fill="midnightblue" stroke="midnightblue" points="1125.08,-198.057 1126.57,-187.568 1118.86,-194.837 1125.08,-198.057"/>
</g>
<!-- Node25 -->
<g id="node25" class="node"><title>Node25</title>
<g id="a_node25"><a xlink:href="dji__mfio_8hpp.html" target="_top" xlink:title="MFIO API for DJI OSDK library. ">
<polygon fill="white" stroke="black" points="1449.51,-224.5 1449.51,-243.5 1518.51,-243.5 1518.51,-224.5 1449.51,-224.5"/>
<text text-anchor="middle" x="1484.01" y="-231.5" font-family="Helvetica,sans-Serif" font-size="10.00">dji_mfio.hpp</text>
</a>
</g>
</g>
<!-- Node9&#45;&gt;Node25 -->
<g id="edge41" class="edge"><title>Node9&#45;&gt;Node25</title>
<path fill="none" stroke="midnightblue" d="M1085.67,-344.516C1201.41,-342.719 1526.3,-334.609 1558.01,-300 1576.19,-280.15 1544.02,-260.131 1516.55,-247.659"/>
<polygon fill="midnightblue" stroke="midnightblue" points="1517.69,-244.338 1507.13,-243.574 1514.91,-250.761 1517.69,-244.338"/>
</g>
<!-- Node26 -->
<g id="node26" class="node"><title>Node26</title>
<g id="a_node26"><a xlink:href="dji__mission__manager_8hpp.html" target="_top" xlink:title="Mission&#45;Manager API for DJI OSDK library. ">
<polygon fill="white" stroke="black" points="469.507,-280.5 469.507,-299.5 596.507,-299.5 596.507,-280.5 469.507,-280.5"/>
<text text-anchor="middle" x="533.007" y="-287.5" font-family="Helvetica,sans-Serif" font-size="10.00">dji_mission_manager.hpp</text>
</a>
</g>
</g>
<!-- Node9&#45;&gt;Node26 -->
<g id="edge43" class="edge"><title>Node9&#45;&gt;Node26</title>
<path fill="none" stroke="midnightblue" d="M1004.43,-341.121C928.601,-333.812 760.007,-317.274 606.769,-300.065"/>
<polygon fill="midnightblue" stroke="midnightblue" points="607.028,-296.572 596.699,-298.931 606.244,-303.528 607.028,-296.572"/>
</g>
<!-- Node31 -->
<g id="node31" class="node"><title>Node31</title>
<g id="a_node31"><a xlink:href="dji__mobile__communication_8hpp.html" target="_top" xlink:title="Implementation of DJI Mobile&#45;Onboard SDK Communication (MOC) ">
<polygon fill="white" stroke="black" points="1643.01,-280.5 1643.01,-299.5 1793.01,-299.5 1793.01,-280.5 1643.01,-280.5"/>
<text text-anchor="middle" x="1718.01" y="-287.5" font-family="Helvetica,sans-Serif" font-size="10.00">dji_mobile_communication.hpp</text>
</a>
</g>
</g>
<!-- Node9&#45;&gt;Node31 -->
<g id="edge53" class="edge"><title>Node9&#45;&gt;Node31</title>
<path fill="none" stroke="midnightblue" d="M1085.59,-341.744C1192.99,-333.126 1486.41,-309.582 1632.72,-297.843"/>
<polygon fill="midnightblue" stroke="midnightblue" points="1633.31,-301.308 1642.99,-297.019 1632.75,-294.33 1633.31,-301.308"/>
</g>
<!-- Node33 -->
<g id="node33" class="node"><title>Node33</title>
<g id="a_node33"><a xlink:href="dji__mobile__device_8hpp.html" target="_top" xlink:title="Implementation of DJI Mobile Device Abstraction. ">
<polygon fill="white" stroke="black" points="1717.51,-224.5 1717.51,-243.5 1830.51,-243.5 1830.51,-224.5 1717.51,-224.5"/>
<text text-anchor="middle" x="1774.01" y="-231.5" font-family="Helvetica,sans-Serif" font-size="10.00">dji_mobile_device.hpp</text>
</a>
</g>
</g>
<!-- Node9&#45;&gt;Node33 -->
<g id="edge56" class="edge"><title>Node9&#45;&gt;Node33</title>
<path fill="none" stroke="midnightblue" d="M1085.54,-344.114C1239.03,-340.563 1777.25,-326.275 1802.01,-300 1814.97,-286.245 1802.25,-265.554 1790.02,-251.228"/>
<polygon fill="midnightblue" stroke="midnightblue" points="1792.41,-248.652 1783.08,-243.628 1787.24,-253.372 1792.41,-248.652"/>
</g>
<!-- Node34 -->
<g id="node34" class="node"><title>Node34</title>
<polygon fill="white" stroke="#bfbfbf" points="1149.01,-280.5 1149.01,-299.5 1277.01,-299.5 1277.01,-280.5 1149.01,-280.5"/>
<text text-anchor="middle" x="1213.01" y="-287.5" font-family="Helvetica,sans-Serif" font-size="10.00">dji_platform_manager.hpp</text>
</g>
<!-- Node9&#45;&gt;Node34 -->
<g id="edge59" class="edge"><title>Node9&#45;&gt;Node34</title>
<path fill="none" stroke="midnightblue" d="M1071.63,-336.444C1100.01,-327.32 1145.14,-312.813 1176.76,-302.651"/>
<polygon fill="midnightblue" stroke="midnightblue" points="1178.06,-305.909 1186.51,-299.516 1175.92,-299.244 1178.06,-305.909"/>
</g>
<!-- Node35 -->
<g id="node35" class="node"><title>Node35</title>
<g id="a_node35"><a xlink:href="dji__status_8hpp.html" target="_top" xlink:title="Status information for DJI Vehicle. ">
<polygon fill="white" stroke="black" points="1295.51,-280.5 1295.51,-299.5 1372.51,-299.5 1372.51,-280.5 1295.51,-280.5"/>
<text text-anchor="middle" x="1334.01" y="-287.5" font-family="Helvetica,sans-Serif" font-size="10.00">dji_status.hpp</text>
</a>
</g>
</g>
<!-- Node9&#45;&gt;Node35 -->
<g id="edge60" class="edge"><title>Node9&#45;&gt;Node35</title>
<path fill="none" stroke="midnightblue" d="M1085.52,-337.445C1131.44,-328.879 1208.83,-314.437 1285.64,-300.067"/>
<polygon fill="midnightblue" stroke="midnightblue" points="1286.31,-303.503 1295.49,-298.224 1285.02,-296.623 1286.31,-303.503"/>
</g>
<!-- Node36 -->
<g id="node36" class="node"><title>Node36</title>
<g id="a_node36"><a xlink:href="dji__subscription_8hpp.html" target="_top" xlink:title="Telemetry Subscription API for DJI OSDK library. ">
<polygon fill="white" stroke="black" points="1164.51,-224.5 1164.51,-243.5 1267.51,-243.5 1267.51,-224.5 1164.51,-224.5"/>
<text text-anchor="middle" x="1216.01" y="-231.5" font-family="Helvetica,sans-Serif" font-size="10.00">dji_subscription.hpp</text>
</a>
</g>
</g>
<!-- Node9&#45;&gt;Node36 -->
<g id="edge61" class="edge"><title>Node9&#45;&gt;Node36</title>
<path fill="none" stroke="midnightblue" d="M1085.78,-345.899C1166.7,-346.716 1343.07,-343.351 1381.01,-300 1414.21,-262.052 1337.4,-246.055 1277.75,-239.455"/>
<polygon fill="midnightblue" stroke="midnightblue" points="1277.9,-235.952 1267.59,-238.401 1277.18,-242.914 1277.9,-235.952"/>
</g>
<!-- Node37 -->
<g id="node37" class="node"><title>Node37</title>
<polygon fill="white" stroke="#bfbfbf" points="1429.01,-280.5 1429.01,-299.5 1549.01,-299.5 1549.01,-280.5 1429.01,-280.5"/>
<text text-anchor="middle" x="1489.01" y="-287.5" font-family="Helvetica,sans-Serif" font-size="10.00">dji_thread_manager.hpp</text>
</g>
<!-- Node9&#45;&gt;Node37 -->
<g id="edge65" class="edge"><title>Node9&#45;&gt;Node37</title>
<path fill="none" stroke="midnightblue" d="M1085.59,-340.065C1161.29,-330.858 1324.85,-310.964 1418.81,-299.538"/>
<polygon fill="midnightblue" stroke="midnightblue" points="1419.29,-303.005 1428.79,-298.323 1418.44,-296.056 1419.29,-303.005"/>
</g>
<!-- Node38 -->
<g id="node38" class="node"><title>Node38</title>
<g id="a_node38"><a xlink:href="dji__virtual__rc_8hpp.html" target="_top" xlink:title="Virtual Radio Control API for DJI onboardSDK library. ">
<polygon fill="white" stroke="black" points="361.007,-280.5 361.007,-299.5 451.007,-299.5 451.007,-280.5 361.007,-280.5"/>
<text text-anchor="middle" x="406.007" y="-287.5" font-family="Helvetica,sans-Serif" font-size="10.00">dji_virtual_rc.hpp</text>
</a>
</g>
</g>
<!-- Node9&#45;&gt;Node38 -->
<g id="edge69" class="edge"><title>Node9&#45;&gt;Node38</title>
<path fill="none" stroke="midnightblue" d="M1004.46,-343.117C910.681,-338.498 671.393,-325.192 461.039,-300.02"/>
<polygon fill="midnightblue" stroke="midnightblue" points="461.393,-296.537 451.045,-298.812 460.553,-303.487 461.393,-296.537"/>
</g>
<!-- Node11&#45;&gt;Node4 -->
<g id="edge16" class="edge"><title>Node11&#45;&gt;Node4</title>
<path fill="none" stroke="midnightblue" d="M97.7381,-169.426C100.535,-168.938 103.311,-168.458 106.007,-168 189.286,-153.838 286.671,-138.52 342.17,-129.907"/>
<polygon fill="midnightblue" stroke="midnightblue" points="343.017,-133.318 352.363,-128.328 341.945,-126.4 343.017,-133.318"/>
</g>
<!-- Node11&#45;&gt;Node12 -->
<g id="edge12" class="edge"><title>Node11&#45;&gt;Node12</title>
<path fill="none" stroke="midnightblue" d="M87.3805,-168.444C121.269,-159.201 175.41,-144.436 212.73,-134.257"/>
<polygon fill="midnightblue" stroke="midnightblue" points="214.053,-137.524 222.78,-131.516 212.211,-130.771 214.053,-137.524"/>
</g>
<!-- Node12&#45;&gt;Node6 -->
<g id="edge15" class="edge"><title>Node12&#45;&gt;Node6</title>
<path fill="none" stroke="midnightblue" d="M252.153,-112.173C249.873,-99.2692 247.194,-74.7524 255.007,-56 259.897,-44.2624 269.434,-33.897 278.382,-26.0819"/>
<polygon fill="midnightblue" stroke="midnightblue" points="280.734,-28.6804 286.284,-19.6555 276.318,-23.2496 280.734,-28.6804"/>
</g>
<!-- Node13 -->
<g id="node13" class="node"><title>Node13</title>
<g id="a_node13"><a xlink:href="dji__error_8hpp.html" target="_top" xlink:title="All DJI OSDK OpenProtocol ACK Error Codes. ">
<polygon fill="white" stroke="black" points="264.007,-56.5 264.007,-75.5 334.007,-75.5 334.007,-56.5 264.007,-56.5"/>
<text text-anchor="middle" x="299.007" y="-63.5" font-family="Helvetica,sans-Serif" font-size="10.00">dji_error.hpp</text>
</a>
</g>
</g>
<!-- Node12&#45;&gt;Node13 -->
<g id="edge13" class="edge"><title>Node12&#45;&gt;Node13</title>
<path fill="none" stroke="midnightblue" d="M261.438,-112.083C267.859,-104.377 277.312,-93.0333 285.129,-83.6531"/>
<polygon fill="midnightblue" stroke="midnightblue" points="288.001,-85.674 291.714,-75.7511 282.624,-81.1927 288.001,-85.674"/>
</g>
<!-- Node13&#45;&gt;Node6 -->
<g id="edge14" class="edge"><title>Node13&#45;&gt;Node6</title>
<path fill="none" stroke="midnightblue" d="M299.007,-56.083C299.007,-49.0059 299.007,-38.8611 299.007,-29.9865"/>
<polygon fill="midnightblue" stroke="midnightblue" points="302.507,-29.751 299.007,-19.7511 295.507,-29.7511 302.507,-29.751"/>
</g>
<!-- Node15&#45;&gt;Node4 -->
<g id="edge30" class="edge"><title>Node15&#45;&gt;Node4</title>
<path fill="none" stroke="midnightblue" d="M824.591,-280.386C828.146,-258.058 834.112,-197.972 802.007,-168 775.338,-143.103 533.838,-129.53 431.988,-124.872"/>
<polygon fill="midnightblue" stroke="midnightblue" points="431.862,-121.363 421.715,-124.41 431.548,-128.355 431.862,-121.363"/>
</g>
<!-- Node15&#45;&gt;Node7 -->
<g id="edge31" class="edge"><title>Node15&#45;&gt;Node7</title>
<path fill="none" stroke="midnightblue" d="M863.285,-284.791C877.987,-283.265 894.748,-281.54 910.007,-280 991.32,-271.795 1208.3,-289.767 1276.01,-244 1311.71,-219.87 1328.48,-168.925 1335.2,-141.465"/>
<polygon fill="midnightblue" stroke="midnightblue" points="1338.64,-142.109 1337.43,-131.584 1331.82,-140.57 1338.64,-142.109"/>
</g>
<!-- Node15&#45;&gt;Node8 -->
<g id="edge29" class="edge"><title>Node15&#45;&gt;Node8</title>
<path fill="none" stroke="midnightblue" d="M839.805,-280.322C867.103,-265.325 920.866,-231.901 949.007,-188 967.796,-158.688 946.674,-139.516 968.007,-112 979.508,-97.1644 997.33,-86.5966 1013.52,-79.4472"/>
<polygon fill="midnightblue" stroke="midnightblue" points="1014.88,-82.67 1022.8,-75.6264 1012.22,-76.1971 1014.88,-82.67"/>
</g>
<!-- Node16 -->
<g id="node16" class="node"><title>Node16</title>
<g id="a_node16"><a xlink:href="dji__ack_8hpp.html" target="_top" xlink:title="All DJI OSDK ACK parsing. ">
<polygon fill="white" stroke="black" points="389.007,-224.5 389.007,-243.5 455.007,-243.5 455.007,-224.5 389.007,-224.5"/>
<text text-anchor="middle" x="422.007" y="-231.5" font-family="Helvetica,sans-Serif" font-size="10.00">dji_ack.hpp</text>
</a>
</g>
</g>
<!-- Node15&#45;&gt;Node16 -->
<g id="edge20" class="edge"><title>Node15&#45;&gt;Node16</title>
<path fill="none" stroke="midnightblue" d="M782.721,-283.575C706.786,-273.349 543.114,-251.309 465.084,-240.801"/>
<polygon fill="midnightblue" stroke="midnightblue" points="465.485,-237.323 455.107,-239.457 464.55,-244.261 465.485,-237.323"/>
</g>
<!-- Node16&#45;&gt;Node4 -->
<g id="edge24" class="edge"><title>Node16&#45;&gt;Node4</title>
<path fill="none" stroke="midnightblue" d="M399.548,-224.382C384.238,-217.184 365.144,-205.288 356.007,-188 347.299,-171.523 359.242,-152.197 370.74,-138.925"/>
<polygon fill="midnightblue" stroke="midnightblue" points="373.384,-141.221 377.652,-131.524 368.269,-136.443 373.384,-141.221"/>
</g>
<!-- Node16&#45;&gt;Node12 -->
<g id="edge21" class="edge"><title>Node16&#45;&gt;Node12</title>
<path fill="none" stroke="midnightblue" d="M455.073,-226.959C497.029,-217.887 560.997,-198.483 535.007,-168 527.764,-159.505 390.639,-140.569 310.67,-130.174"/>
<polygon fill="midnightblue" stroke="midnightblue" points="311.104,-126.701 300.737,-128.888 310.205,-133.643 311.104,-126.701"/>
</g>
<!-- Node17 -->
<g id="node17" class="node"><title>Node17</title>
<g id="a_node17"><a xlink:href="dji__mission__type_8hpp.html" target="_top" xlink:title="Mission related data struct for DJI OSDK library. ">
<polygon fill="white" stroke="black" points="365.007,-168.5 365.007,-187.5 473.007,-187.5 473.007,-168.5 365.007,-168.5"/>
<text text-anchor="middle" x="419.007" y="-175.5" font-family="Helvetica,sans-Serif" font-size="10.00">dji_mission_type.hpp</text>
</a>
</g>
</g>
<!-- Node16&#45;&gt;Node17 -->
<g id="edge22" class="edge"><title>Node16&#45;&gt;Node17</title>
<path fill="none" stroke="midnightblue" d="M421.511,-224.083C421.118,-217.006 420.555,-206.861 420.062,-197.986"/>
<polygon fill="midnightblue" stroke="midnightblue" points="423.542,-197.542 419.493,-187.751 416.553,-197.93 423.542,-197.542"/>
</g>
<!-- Node16&#45;&gt;Node18 -->
<g id="edge25" class="edge"><title>Node16&#45;&gt;Node18</title>
<path fill="none" stroke="midnightblue" d="M454.014,-224.444C488.736,-215.162 544.294,-200.309 582.384,-190.127"/>
<polygon fill="midnightblue" stroke="midnightblue" points="583.392,-193.48 592.149,-187.516 581.584,-186.718 583.392,-193.48"/>
</g>
<!-- Node19 -->
<g id="node19" class="node"><title>Node19</title>
<polygon fill="white" stroke="#bfbfbf" points="491.507,-168.5 491.507,-187.5 526.507,-187.5 526.507,-168.5 491.507,-168.5"/>
<text text-anchor="middle" x="509.007" y="-175.5" font-family="Helvetica,sans-Serif" font-size="10.00">map</text>
</g>
<!-- Node16&#45;&gt;Node19 -->
<g id="edge28" class="edge"><title>Node16&#45;&gt;Node19</title>
<path fill="none" stroke="midnightblue" d="M435.985,-224.324C449.556,-215.9 470.387,-202.971 486.332,-193.074"/>
<polygon fill="midnightblue" stroke="midnightblue" points="488.413,-195.902 495.063,-187.655 484.721,-189.954 488.413,-195.902"/>
</g>
<!-- Node17&#45;&gt;Node4 -->
<g id="edge23" class="edge"><title>Node17&#45;&gt;Node4</title>
<path fill="none" stroke="midnightblue" d="M413.723,-168.083C409.296,-160.613 402.844,-149.724 397.389,-140.52"/>
<polygon fill="midnightblue" stroke="midnightblue" points="400.302,-138.57 392.193,-131.751 394.28,-142.138 400.302,-138.57"/>
</g>
<!-- Node18&#45;&gt;Node10 -->
<g id="edge27" class="edge"><title>Node18&#45;&gt;Node10</title>
<path fill="none" stroke="midnightblue" d="M665.185,-169.45C668.168,-168.946 671.132,-168.457 674.007,-168 780.511,-151.071 907.185,-134.643 966.387,-127.18"/>
<polygon fill="midnightblue" stroke="midnightblue" points="967.15,-130.611 976.636,-125.892 966.277,-123.666 967.15,-130.611"/>
</g>
<!-- Node18&#45;&gt;Node12 -->
<g id="edge26" class="edge"><title>Node18&#45;&gt;Node12</title>
<path fill="none" stroke="midnightblue" d="M582.876,-170.176C578.2,-169.428 573.502,-168.689 569.007,-168 478.875,-154.189 374.017,-139.48 310.894,-130.773"/>
<polygon fill="midnightblue" stroke="midnightblue" points="311.133,-127.273 300.749,-129.376 310.178,-134.207 311.133,-127.273"/>
</g>
<!-- Node20&#45;&gt;Node4 -->
<g id="edge34" class="edge"><title>Node20&#45;&gt;Node4</title>
<path fill="none" stroke="midnightblue" d="M191.768,-168.444C232.663,-158.925 298.726,-143.548 342.509,-133.357"/>
<polygon fill="midnightblue" stroke="midnightblue" points="343.366,-136.751 352.312,-131.075 341.779,-129.934 343.366,-136.751"/>
</g>
<!-- Node20&#45;&gt;Node12 -->
<g id="edge33" class="edge"><title>Node20&#45;&gt;Node12</title>
<path fill="none" stroke="midnightblue" d="M170.913,-168.324C186.645,-159.743 210.949,-146.486 229.216,-136.522"/>
<polygon fill="midnightblue" stroke="midnightblue" points="231.037,-139.516 238.14,-131.655 227.685,-133.37 231.037,-139.516"/>
</g>
<!-- Node22&#45;&gt;Node4 -->
<g id="edge37" class="edge"><title>Node22&#45;&gt;Node4</title>
<path fill="none" stroke="midnightblue" d="M1072.94,-172.785C929.403,-162.367 560.272,-135.576 431.85,-126.255"/>
<polygon fill="midnightblue" stroke="midnightblue" points="431.827,-122.744 421.6,-125.511 431.32,-129.726 431.827,-122.744"/>
</g>
<!-- Node22&#45;&gt;Node7 -->
<g id="edge38" class="edge"><title>Node22&#45;&gt;Node7</title>
<path fill="none" stroke="midnightblue" d="M1163.97,-168.444C1199.79,-159.142 1257.17,-144.246 1296.4,-134.062"/>
<polygon fill="midnightblue" stroke="midnightblue" points="1297.4,-137.417 1306.2,-131.516 1295.64,-130.642 1297.4,-137.417"/>
</g>
<!-- Node23 -->
<g id="node23" class="node"><title>Node23</title>
<polygon fill="white" stroke="#bfbfbf" points="1079.01,-112.5 1079.01,-131.5 1125.01,-131.5 1125.01,-112.5 1079.01,-112.5"/>
<text text-anchor="middle" x="1102.01" y="-119.5" font-family="Helvetica,sans-Serif" font-size="10.00">chrono</text>
</g>
<!-- Node22&#45;&gt;Node23 -->
<g id="edge39" class="edge"><title>Node22&#45;&gt;Node23</title>
<path fill="none" stroke="midnightblue" d="M1126.22,-168.083C1122.25,-160.691 1116.48,-149.953 1111.57,-140.811"/>
<polygon fill="midnightblue" stroke="midnightblue" points="1114.52,-138.905 1106.71,-131.751 1108.35,-142.217 1114.52,-138.905"/>
</g>
<!-- Node24 -->
<g id="node24" class="node"><title>Node24</title>
<polygon fill="white" stroke="#bfbfbf" points="1143.01,-112.5 1143.01,-131.5 1189.01,-131.5 1189.01,-112.5 1143.01,-112.5"/>
<text text-anchor="middle" x="1166.01" y="-119.5" font-family="Helvetica,sans-Serif" font-size="10.00">atomic</text>
</g>
<!-- Node22&#45;&gt;Node24 -->
<g id="edge40" class="edge"><title>Node22&#45;&gt;Node24</title>
<path fill="none" stroke="midnightblue" d="M1136.79,-168.083C1141.68,-160.534 1148.83,-149.495 1154.84,-140.23"/>
<polygon fill="midnightblue" stroke="midnightblue" points="1157.83,-142.046 1160.33,-131.751 1151.96,-138.239 1157.83,-142.046"/>
</g>
<!-- Node25&#45;&gt;Node7 -->
<g id="edge42" class="edge"><title>Node25&#45;&gt;Node7</title>
<path fill="none" stroke="midnightblue" d="M1472.63,-224.368C1447.96,-205.653 1389.3,-161.151 1358.56,-137.832"/>
<polygon fill="midnightblue" stroke="midnightblue" points="1360.41,-134.847 1350.33,-131.591 1356.18,-140.424 1360.41,-134.847"/>
</g>
<!-- Node27 -->
<g id="node27" class="node"><title>Node27</title>
<g id="a_node27"><a xlink:href="dji__hotpoint_8hpp.html" target="_top" xlink:title="Implementation of HotPoint (Point of Interest) Missions for DJI OSDK. ">
<polygon fill="white" stroke="black" points="718.507,-224.5 718.507,-243.5 803.507,-243.5 803.507,-224.5 718.507,-224.5"/>
<text text-anchor="middle" x="761.007" y="-231.5" font-family="Helvetica,sans-Serif" font-size="10.00">dji_hotpoint.hpp</text>
</a>
</g>
</g>
<!-- Node26&#45;&gt;Node27 -->
<g id="edge44" class="edge"><title>Node26&#45;&gt;Node27</title>
<path fill="none" stroke="midnightblue" d="M569.134,-280.444C608.658,-271.083 672.103,-256.056 715.12,-245.868"/>
<polygon fill="midnightblue" stroke="midnightblue" points="716.124,-249.227 725.049,-243.516 714.511,-242.415 716.124,-249.227"/>
</g>
<!-- Node29 -->
<g id="node29" class="node"><title>Node29</title>
<g id="a_node29"><a xlink:href="dji__waypoint_8hpp.html" target="_top" xlink:title="Implementation of GPS Waypoint Missions for DJI OSDK. ">
<polygon fill="white" stroke="black" points="611.507,-224.5 611.507,-243.5 700.507,-243.5 700.507,-224.5 611.507,-224.5"/>
<text text-anchor="middle" x="656.007" y="-231.5" font-family="Helvetica,sans-Serif" font-size="10.00">dji_waypoint.hpp</text>
</a>
</g>
</g>
<!-- Node26&#45;&gt;Node29 -->
<g id="edge50" class="edge"><title>Node26&#45;&gt;Node29</title>
<path fill="none" stroke="midnightblue" d="M552.497,-280.444C572.649,-271.596 604.33,-257.687 627.338,-247.586"/>
<polygon fill="midnightblue" stroke="midnightblue" points="628.859,-250.741 636.608,-243.516 626.045,-244.332 628.859,-250.741"/>
</g>
<!-- Node30 -->
<g id="node30" class="node"><title>Node30</title>
<polygon fill="white" stroke="#bfbfbf" points="511.007,-224.5 511.007,-243.5 555.007,-243.5 555.007,-224.5 511.007,-224.5"/>
<text text-anchor="middle" x="533.007" y="-231.5" font-family="Helvetica,sans-Serif" font-size="10.00">vector</text>
</g>
<!-- Node26&#45;&gt;Node30 -->
<g id="edge52" class="edge"><title>Node26&#45;&gt;Node30</title>
<path fill="none" stroke="midnightblue" d="M533.007,-280.083C533.007,-273.006 533.007,-262.861 533.007,-253.986"/>
<polygon fill="midnightblue" stroke="midnightblue" points="536.507,-253.751 533.007,-243.751 529.507,-253.751 536.507,-253.751"/>
</g>
<!-- Node27&#45;&gt;Node3 -->
<g id="edge49" class="edge"><title>Node27&#45;&gt;Node3</title>
<path fill="none" stroke="midnightblue" d="M782.24,-224.444C804.39,-215.517 839.326,-201.439 864.443,-191.317"/>
<polygon fill="midnightblue" stroke="midnightblue" points="865.906,-194.501 873.873,-187.516 863.29,-188.008 865.906,-194.501"/>
</g>
<!-- Node28 -->
<g id="node28" class="node"><title>Node28</title>
<g id="a_node28"><a xlink:href="dji__mission__base_8hpp.html" target="_top" xlink:title="Mission&#45;Base abstract class for DJI OSDK library. ">
<polygon fill="white" stroke="black" points="683.007,-168.5 683.007,-187.5 793.007,-187.5 793.007,-168.5 683.007,-168.5"/>
<text text-anchor="middle" x="738.007" y="-175.5" font-family="Helvetica,sans-Serif" font-size="10.00">dji_mission_base.hpp</text>
</a>
</g>
</g>
<!-- Node27&#45;&gt;Node28 -->
<g id="edge45" class="edge"><title>Node27&#45;&gt;Node28</title>
<path fill="none" stroke="midnightblue" d="M757.209,-224.083C754.094,-216.77 749.584,-206.181 745.718,-197.103"/>
<polygon fill="midnightblue" stroke="midnightblue" points="748.873,-195.58 741.734,-187.751 742.433,-198.323 748.873,-195.58"/>
</g>
<!-- Node28&#45;&gt;Node4 -->
<g id="edge47" class="edge"><title>Node28&#45;&gt;Node4</title>
<path fill="none" stroke="midnightblue" d="M682.777,-168.503C613.466,-157.84 495.932,-139.758 431.882,-129.904"/>
<polygon fill="midnightblue" stroke="midnightblue" points="432.116,-126.399 421.7,-128.337 431.052,-133.317 432.116,-126.399"/>
</g>
<!-- Node28&#45;&gt;Node7 -->
<g id="edge48" class="edge"><title>Node28&#45;&gt;Node7</title>
<path fill="none" stroke="midnightblue" d="M793.202,-172.041C902.464,-162.224 1146.2,-140.323 1267.54,-129.421"/>
<polygon fill="midnightblue" stroke="midnightblue" points="1268.18,-132.878 1277.83,-128.497 1267.56,-125.906 1268.18,-132.878"/>
</g>
<!-- Node28&#45;&gt;Node12 -->
<g id="edge46" class="edge"><title>Node28&#45;&gt;Node12</title>
<path fill="none" stroke="midnightblue" d="M682.864,-169.128C679.869,-168.737 676.902,-168.359 674.007,-168 605.122,-159.469 408.458,-138.949 310.655,-128.835"/>
<polygon fill="midnightblue" stroke="midnightblue" points="310.959,-125.348 300.652,-127.801 310.24,-132.311 310.959,-125.348"/>
</g>
<!-- Node29&#45;&gt;Node28 -->
<g id="edge51" class="edge"><title>Node29&#45;&gt;Node28</title>
<path fill="none" stroke="midnightblue" d="M669.182,-224.324C681.854,-215.979 701.24,-203.212 716.212,-193.352"/>
<polygon fill="midnightblue" stroke="midnightblue" points="718.438,-196.078 724.865,-187.655 714.588,-190.231 718.438,-196.078"/>
</g>
<!-- Node31&#45;&gt;Node7 -->
<g id="edge55" class="edge"><title>Node31&#45;&gt;Node7</title>
<path fill="none" stroke="midnightblue" d="M1696.42,-280.422C1674.17,-271.525 1638.53,-257.105 1608.01,-244 1519.3,-205.918 1415.37,-158.309 1366.74,-135.854"/>
<polygon fill="midnightblue" stroke="midnightblue" points="1368.04,-132.601 1357.5,-131.582 1365.11,-138.955 1368.04,-132.601"/>
</g>
<!-- Node32 -->
<g id="node32" class="node"><title>Node32</title>
<polygon fill="white" stroke="#bfbfbf" points="1616.51,-224.5 1616.51,-243.5 1699.51,-243.5 1699.51,-224.5 1616.51,-224.5"/>
<text text-anchor="middle" x="1658.01" y="-231.5" font-family="Helvetica,sans-Serif" font-size="10.00">dji_macros.hpp</text>
</g>
<!-- Node31&#45;&gt;Node32 -->
<g id="edge54" class="edge"><title>Node31&#45;&gt;Node32</title>
<path fill="none" stroke="midnightblue" d="M1708.37,-280.324C1699.5,-272.341 1686.13,-260.313 1675.4,-250.653"/>
<polygon fill="midnightblue" stroke="midnightblue" points="1677.6,-247.922 1667.82,-243.834 1672.91,-253.125 1677.6,-247.922"/>
</g>
<!-- Node33&#45;&gt;Node7 -->
<g id="edge57" class="edge"><title>Node33&#45;&gt;Node7</title>
<path fill="none" stroke="midnightblue" d="M1753.14,-224.493C1719.09,-210.884 1649.2,-184.115 1588.01,-168 1528.89,-152.432 1460.46,-140.492 1410.32,-132.836"/>
<polygon fill="midnightblue" stroke="midnightblue" points="1410.64,-129.344 1400.23,-131.315 1409.59,-136.266 1410.64,-129.344"/>
</g>
<!-- Node36&#45;&gt;Node3 -->
<g id="edge63" class="edge"><title>Node36&#45;&gt;Node3</title>
<path fill="none" stroke="midnightblue" d="M1165.14,-224.444C1106.74,-214.618 1011.22,-198.551 950.815,-188.388"/>
<polygon fill="midnightblue" stroke="midnightblue" points="951.139,-184.894 940.697,-186.686 949.977,-191.797 951.139,-184.894"/>
</g>
<!-- Node36&#45;&gt;Node7 -->
<g id="edge64" class="edge"><title>Node36&#45;&gt;Node7</title>
<path fill="none" stroke="midnightblue" d="M1224.26,-224.279C1236.49,-211.508 1260.3,-187.154 1282.01,-168 1293.94,-157.468 1307.97,-146.379 1319.12,-137.845"/>
<polygon fill="midnightblue" stroke="midnightblue" points="1321.5,-140.436 1327.35,-131.607 1317.27,-134.857 1321.5,-140.436"/>
</g>
<!-- Node36&#45;&gt;Node8 -->
<g id="edge62" class="edge"><title>Node36&#45;&gt;Node8</title>
<path fill="none" stroke="midnightblue" d="M1217.53,-224.435C1220.87,-202.739 1226.41,-144.998 1198.01,-112 1177.84,-88.5672 1145.82,-77.1271 1116.81,-71.6243"/>
<polygon fill="midnightblue" stroke="midnightblue" points="1117.14,-68.1307 1106.7,-69.9155 1115.97,-75.0329 1117.14,-68.1307"/>
</g>
<!-- Node38&#45;&gt;Node3 -->
<g id="edge73" class="edge"><title>Node38&#45;&gt;Node3</title>
<path fill="none" stroke="midnightblue" d="M417.278,-280.353C438.478,-264.264 483.792,-230.744 502.007,-224 517.608,-218.224 734.807,-195.405 839.437,-184.656"/>
<polygon fill="midnightblue" stroke="midnightblue" points="839.913,-188.126 849.504,-183.624 839.199,-181.162 839.913,-188.126"/>
</g>
<!-- Node38&#45;&gt;Node4 -->
<g id="edge72" class="edge"><title>Node38&#45;&gt;Node4</title>
<path fill="none" stroke="midnightblue" d="M399.213,-280.479C386.472,-263.878 359.427,-225.532 350.007,-188 347.843,-179.379 347.008,-176.368 350.007,-168 353.947,-157.003 361.864,-146.769 369.366,-138.848"/>
<polygon fill="midnightblue" stroke="midnightblue" points="371.899,-141.266 376.568,-131.755 366.987,-136.278 371.899,-141.266"/>
</g>
<!-- Node38&#45;&gt;Node8 -->
<g id="edge71" class="edge"><title>Node38&#45;&gt;Node8</title>
<path fill="none" stroke="midnightblue" d="M360.944,-283.809C247.092,-269.744 -39.9749,-227.889 5.00681,-168 58.646,-96.5848 109.942,-126.895 198.007,-112 349.18,-86.4307 812.647,-72.8086 985.291,-68.5154"/>
<polygon fill="midnightblue" stroke="midnightblue" points="985.591,-72.0091 995.502,-68.2639 985.419,-65.0112 985.591,-72.0091"/>
</g>
<!-- Node38&#45;&gt;Node16 -->
<g id="edge70" class="edge"><title>Node38&#45;&gt;Node16</title>
<path fill="none" stroke="midnightblue" d="M408.649,-280.083C410.792,-272.849 413.886,-262.409 416.556,-253.397"/>
<polygon fill="midnightblue" stroke="midnightblue" points="419.929,-254.333 419.414,-243.751 413.217,-252.345 419.929,-254.333"/>
</g>
</g>
</svg>
