<?xml version="1.0" encoding="UTF-8" standalone="no"?>
<!DOCTYPE svg PUBLIC "-//W3C//DTD SVG 1.1//EN"
 "http://www.w3.org/Graphics/SVG/1.1/DTD/svg11.dtd">
<!-- Generated by graphviz version 2.38.0 (20140413.2041)
 -->
<!-- Title: osdk&#45;core/api/src/dji_broadcast.cpp Pages: 1 -->
<!--zoomable 431 -->
<svg id="main" version="1.1" xmlns="http://www.w3.org/2000/svg" xmlns:xlink="http://www.w3.org/1999/xlink" xml:space="preserve" onload="init(evt)">
<style type="text/css"><![CDATA[
.edge:hover path { stroke: red; }
.edge:hover polygon { stroke: red; fill: red; }
]]></style>
<script type="text/javascript"><![CDATA[
var edges = document.getElementsByTagName('g');
if (edges && edges.length) {
  for (var i=0;i<edges.length;i++) {
    if (edges[i].id.substr(0,4)=='edge') {
      edges[i].setAttribute('class','edge');
    }
  }
}
]]></script>
        <defs>
                <circle id="rim" cx="0" cy="0" r="7"/>
                <circle id="rim2" cx="0" cy="0" r="3.5"/>
                <g id="zoomPlus">
                        <use xlink:href="#rim" fill="#404040">
                                <set attributeName="fill" to="#808080" begin="zoomplus.mouseover" end="zoomplus.mouseout"/>
                        </use>
                        <path d="M-4,0h8M0,-4v8" fill="none" stroke="white" stroke-width="1.5" pointer-events="none"/>
                </g>
                <g id="zoomMin">
                        <use xlink:href="#rim" fill="#404040">
                                <set attributeName="fill" to="#808080" begin="zoomminus.mouseover" end="zoomminus.mouseout"/>
                        </use>
                        <path d="M-4,0h8" fill="none" stroke="white" stroke-width="1.5" pointer-events="none"/>
                </g>
                <g id="dirArrow">
                        <path fill="none" stroke="white" stroke-width="1.5" d="M0,-3.0v7 M-2.5,-0.5L0,-3.0L2.5,-0.5"/>
                </g>
               <g id="resetDef">
                       <use xlink:href="#rim2" fill="#404040">
                               <set attributeName="fill" to="#808080" begin="reset.mouseover" end="reset.mouseout"/>
                       </use>
               </g>
        </defs>

<script type="text/javascript">
var viewWidth = 2160;
var viewHeight = 431;
var sectionId = 'dynsection-0';
</script>
<script xlink:href="svgpan.js"/>
<svg id="graph" class="graph">
<g id="viewport">
<title>osdk&#45;core/api/src/dji_broadcast.cpp</title>
<polygon fill="white" stroke="none" points="-4,4 -4,-427 2156.03,-427 2156.03,4 -4,4"/>
<!-- Node0 -->
<g id="node1" class="node"><title>Node0</title>
<g id="a_node1"><a xlink:title="Broadcast Telemetry API for DJI onboardSDK library.">
<polygon fill="#bfbfbf" stroke="black" points="873.083,-392.5 873.083,-422.5 977.083,-422.5 977.083,-392.5 873.083,-392.5"/>
<text text-anchor="start" x="881.083" y="-410.5" font-family="Helvetica,sans-Serif" font-size="10.00">osdk&#45;core/api/src/dji</text>
<text text-anchor="middle" x="925.083" y="-399.5" font-family="Helvetica,sans-Serif" font-size="10.00">_broadcast.cpp</text>
</a>
</g>
</g>
<!-- Node1 -->
<g id="node2" class="node"><title>Node1</title>
<g id="a_node2"><a xlink:href="dji__broadcast_8hpp.html" target="_top" xlink:title="Broadcast Telemetry API for DJI onboardSDK library.">
<polygon fill="white" stroke="black" points="817.583,-224.5 817.583,-243.5 910.583,-243.5 910.583,-224.5 817.583,-224.5"/>
<text text-anchor="middle" x="864.083" y="-231.5" font-family="Helvetica,sans-Serif" font-size="10.00">dji_broadcast.hpp</text>
</a>
</g>
</g>
<!-- Node0&#45;&gt;Node1 -->
<g id="edge1" class="edge"><title>Node0&#45;&gt;Node1</title>
<path fill="none" stroke="midnightblue" d="M917.745,-392.394C907.573,-372.339 889.189,-334.216 878.083,-300 873.121,-284.714 869.415,-266.831 867.067,-253.696"/>
<polygon fill="midnightblue" stroke="midnightblue" points="870.472,-252.837 865.355,-243.559 863.569,-254.003 870.472,-252.837"/>
</g>
<!-- Node8 -->
<g id="node9" class="node"><title>Node8</title>
<g id="a_node9"><a xlink:href="dji__vehicle_8hpp.html" target="_top" xlink:title="Vehicle API for DJI onboardSDK library.">
<polygon fill="white" stroke="black" points="1104.58,-336.5 1104.58,-355.5 1185.58,-355.5 1185.58,-336.5 1104.58,-336.5"/>
<text text-anchor="middle" x="1145.08" y="-343.5" font-family="Helvetica,sans-Serif" font-size="10.00">dji_vehicle.hpp</text>
</a>
</g>
</g>
<!-- Node0&#45;&gt;Node8 -->
<g id="edge8" class="edge"><title>Node0&#45;&gt;Node8</title>
<path fill="none" stroke="midnightblue" d="M976.941,-392.475C1015.72,-381.986 1068.04,-367.837 1103.96,-358.122"/>
<polygon fill="midnightblue" stroke="midnightblue" points="1104.89,-361.496 1113.63,-355.506 1103.06,-354.739 1104.89,-361.496"/>
</g>
<!-- Node2 -->
<g id="node3" class="node"><title>Node2</title>
<g id="a_node3"><a xlink:href="dji__telemetry_8hpp.html" target="_top" xlink:title="Enumeration of all telemetry data types, structures and maps.">
<polygon fill="white" stroke="black" points="819.583,-168.5 819.583,-187.5 910.583,-187.5 910.583,-168.5 819.583,-168.5"/>
<text text-anchor="middle" x="865.083" y="-175.5" font-family="Helvetica,sans-Serif" font-size="10.00">dji_telemetry.hpp</text>
</a>
</g>
</g>
<!-- Node1&#45;&gt;Node2 -->
<g id="edge2" class="edge"><title>Node1&#45;&gt;Node2</title>
<path fill="none" stroke="midnightblue" d="M864.248,-224.083C864.379,-217.006 864.567,-206.861 864.731,-197.986"/>
<polygon fill="midnightblue" stroke="midnightblue" points="868.235,-197.814 864.921,-187.751 861.236,-197.685 868.235,-197.814"/>
</g>
<!-- Node6 -->
<g id="node7" class="node"><title>Node6</title>
<g id="a_node7"><a xlink:href="dji__vehicle__callback_8hpp.html" target="_top" xlink:title="Type definition for new Vehicle&#45;style callbacks.">
<polygon fill="white" stroke="black" points="1278.08,-112.5 1278.08,-131.5 1400.08,-131.5 1400.08,-112.5 1278.08,-112.5"/>
<text text-anchor="middle" x="1339.08" y="-119.5" font-family="Helvetica,sans-Serif" font-size="10.00">dji_vehicle_callback.hpp</text>
</a>
</g>
</g>
<!-- Node1&#45;&gt;Node6 -->
<g id="edge6" class="edge"><title>Node1&#45;&gt;Node6</title>
<path fill="none" stroke="midnightblue" d="M910.807,-229.248C991.298,-222.388 1152.62,-206.783 1206.08,-188 1222.26,-182.316 1223.9,-175.978 1239.08,-168 1261.97,-155.975 1288.71,-144.046 1308.78,-135.495"/>
<polygon fill="midnightblue" stroke="midnightblue" points="1310.19,-138.696 1318.05,-131.583 1307.47,-132.246 1310.19,-138.696"/>
</g>
<!-- Node3 -->
<g id="node4" class="node"><title>Node3</title>
<g id="a_node4"><a xlink:href="dji__type_8hpp.html" target="_top" xlink:title="Data type and Data Structure definitions for use throughout DJI OSDK.">
<polygon fill="white" stroke="black" points="348.583,-112.5 348.583,-131.5 417.583,-131.5 417.583,-112.5 348.583,-112.5"/>
<text text-anchor="middle" x="383.083" y="-119.5" font-family="Helvetica,sans-Serif" font-size="10.00">dji_type.hpp</text>
</a>
</g>
</g>
<!-- Node2&#45;&gt;Node3 -->
<g id="edge3" class="edge"><title>Node2&#45;&gt;Node3</title>
<path fill="none" stroke="midnightblue" d="M819.494,-169.334C816.312,-168.862 813.151,-168.412 810.083,-168 671.257,-149.342 506.168,-133.829 428.171,-126.897"/>
<polygon fill="midnightblue" stroke="midnightblue" points="428.025,-123.37 417.755,-125.976 427.408,-130.343 428.025,-123.37"/>
</g>
<!-- Node4 -->
<g id="node5" class="node"><title>Node4</title>
<g id="a_node5"><a xlink:title=" ">
<polygon fill="white" stroke="#bfbfbf" points="311.583,-56.5 311.583,-75.5 354.583,-75.5 354.583,-56.5 311.583,-56.5"/>
<text text-anchor="middle" x="333.083" y="-63.5" font-family="Helvetica,sans-Serif" font-size="10.00">cstdio</text>
</a>
</g>
</g>
<!-- Node3&#45;&gt;Node4 -->
<g id="edge4" class="edge"><title>Node3&#45;&gt;Node4</title>
<path fill="none" stroke="midnightblue" d="M374.826,-112.083C367.618,-104.298 356.973,-92.8015 348.237,-83.3665"/>
<polygon fill="midnightblue" stroke="midnightblue" points="350.548,-80.7108 341.185,-75.7511 345.411,-85.4666 350.548,-80.7108"/>
</g>
<!-- Node5 -->
<g id="node6" class="node"><title>Node5</title>
<g id="a_node6"><a xlink:title=" ">
<polygon fill="white" stroke="#bfbfbf" points="197.583,-0.5 197.583,-19.5 246.583,-19.5 246.583,-0.5 197.583,-0.5"/>
<text text-anchor="middle" x="222.083" y="-7.5" font-family="Helvetica,sans-Serif" font-size="10.00">stdint.h</text>
</a>
</g>
</g>
<!-- Node3&#45;&gt;Node5 -->
<g id="edge5" class="edge"><title>Node3&#45;&gt;Node5</title>
<path fill="none" stroke="midnightblue" d="M382.853,-112.132C382.01,-98.2649 378.364,-71.4415 363.083,-56 334.908,-27.5302 288.767,-17.0467 256.986,-13.2013"/>
<polygon fill="midnightblue" stroke="midnightblue" points="257.115,-9.69579 246.805,-12.1353 256.386,-16.6577 257.115,-9.69579"/>
</g>
<!-- Node7 -->
<g id="node8" class="node"><title>Node7</title>
<g id="a_node8"><a xlink:title=" ">
<polygon fill="white" stroke="#bfbfbf" points="959.583,-56.5 959.583,-75.5 1070.58,-75.5 1070.58,-56.5 959.583,-56.5"/>
<text text-anchor="middle" x="1015.08" y="-63.5" font-family="Helvetica,sans-Serif" font-size="10.00">dji_open_protocol.hpp</text>
</a>
</g>
</g>
<!-- Node6&#45;&gt;Node7 -->
<g id="edge7" class="edge"><title>Node6&#45;&gt;Node7</title>
<path fill="none" stroke="midnightblue" d="M1287.74,-112.444C1230.27,-102.865 1137.22,-87.3556 1076.08,-77.1667"/>
<polygon fill="midnightblue" stroke="midnightblue" points="1076.62,-73.7081 1066.18,-75.5164 1075.47,-80.6129 1076.62,-73.7081"/>
</g>
<!-- Node8&#45;&gt;Node1 -->
<g id="edge10" class="edge"><title>Node8&#45;&gt;Node1</title>
<path fill="none" stroke="midnightblue" d="M1104.37,-341.899C1042.93,-336.514 930.246,-323.675 898.083,-300 882.732,-288.701 873.709,-268.395 868.862,-253.477"/>
<polygon fill="midnightblue" stroke="midnightblue" points="872.193,-252.397 866.04,-243.772 865.471,-254.352 872.193,-252.397"/>
</g>
<!-- Node8&#45;&gt;Node3 -->
<g id="edge65" class="edge"><title>Node8&#45;&gt;Node3</title>
<path fill="none" stroke="midnightblue" d="M1104.35,-344.186C947.448,-340.856 389.707,-327.143 364.083,-300 322.76,-256.228 355.315,-176.603 373.251,-141.019"/>
<polygon fill="midnightblue" stroke="midnightblue" points="376.516,-142.329 378.05,-131.846 370.313,-139.084 376.516,-142.329"/>
</g>
<!-- Node8&#45;&gt;Node6 -->
<g id="edge66" class="edge"><title>Node8&#45;&gt;Node6</title>
<path fill="none" stroke="midnightblue" d="M1185.66,-344.712C1368.28,-343.222 2106.59,-335.04 2140.08,-300 2244.52,-190.728 1625.02,-140.973 1410.35,-127.164"/>
<polygon fill="midnightblue" stroke="midnightblue" points="1410.33,-123.656 1400.13,-126.514 1409.89,-130.642 1410.33,-123.656"/>
</g>
<!-- Node8&#45;&gt;Node7 -->
<g id="edge57" class="edge"><title>Node8&#45;&gt;Node7</title>
<path fill="none" stroke="midnightblue" d="M1119.4,-336.466C1081.51,-322.066 1015.08,-289.104 1015.08,-235 1015.08,-235 1015.08,-235 1015.08,-177 1015.08,-144.948 1015.08,-107.643 1015.08,-85.7489"/>
<polygon fill="midnightblue" stroke="midnightblue" points="1018.58,-85.5577 1015.08,-75.5578 1011.58,-85.5578 1018.58,-85.5577"/>
</g>
<!-- Node9 -->
<g id="node10" class="node"><title>Node9</title>
<g id="a_node10"><a xlink:title=" ">
<polygon fill="white" stroke="#bfbfbf" points="941.083,-112.5 941.083,-131.5 987.083,-131.5 987.083,-112.5 941.083,-112.5"/>
<text text-anchor="middle" x="964.083" y="-119.5" font-family="Helvetica,sans-Serif" font-size="10.00">cstdint</text>
</a>
</g>
</g>
<!-- Node8&#45;&gt;Node9 -->
<g id="edge9" class="edge"><title>Node8&#45;&gt;Node9</title>
<path fill="none" stroke="midnightblue" d="M1153.41,-336.203C1178.72,-308.418 1250.34,-221.241 1206.08,-168 1179.93,-136.533 1057.48,-126.962 997.445,-124.138"/>
<polygon fill="midnightblue" stroke="midnightblue" points="997.483,-120.636 987.34,-123.699 997.179,-127.629 997.483,-120.636"/>
</g>
<!-- Node10 -->
<g id="node11" class="node"><title>Node10</title>
<g id="a_node11"><a xlink:href="dji__camera_8hpp.html" target="_top" xlink:title="Camera/Gimbal API for DJI onboardSDK library.">
<polygon fill="white" stroke="black" points="22.5826,-168.5 22.5826,-187.5 105.583,-187.5 105.583,-168.5 22.5826,-168.5"/>
<text text-anchor="middle" x="64.0826" y="-175.5" font-family="Helvetica,sans-Serif" font-size="10.00">dji_camera.hpp</text>
</a>
</g>
</g>
<!-- Node8&#45;&gt;Node10 -->
<g id="edge11" class="edge"><title>Node8&#45;&gt;Node10</title>
<path fill="none" stroke="midnightblue" d="M1104.56,-344.72C933.915,-343.32 278.776,-335.65 194.083,-300 140.977,-277.646 96.13,-223.45 75.7831,-195.813"/>
<polygon fill="midnightblue" stroke="midnightblue" points="78.5207,-193.624 69.8455,-187.542 72.8344,-197.707 78.5207,-193.624"/>
</g>
<!-- Node11 -->
<g id="node12" class="node"><title>Node11</title>
<g id="a_node12"><a xlink:href="dji__command_8hpp.html" target="_top" xlink:title="All DJI OSDK OpenProtocol Command IDs.">
<polygon fill="white" stroke="black" points="112.583,-112.5 112.583,-131.5 205.583,-131.5 205.583,-112.5 112.583,-112.5"/>
<text text-anchor="middle" x="159.083" y="-119.5" font-family="Helvetica,sans-Serif" font-size="10.00">dji_command.hpp</text>
</a>
</g>
</g>
<!-- Node8&#45;&gt;Node11 -->
<g id="edge18" class="edge"><title>Node8&#45;&gt;Node11</title>
<path fill="none" stroke="midnightblue" d="M1104.29,-344.588C929.404,-342.627 247.81,-332.919 158.083,-300 76.2664,-269.984 -38.6756,-238.114 13.0826,-168 33.4803,-140.368 70.596,-129.177 102.299,-124.863"/>
<polygon fill="midnightblue" stroke="midnightblue" points="102.845,-128.323 112.374,-123.692 102.037,-121.37 102.845,-128.323"/>
</g>
<!-- Node13 -->
<g id="node14" class="node"><title>Node13</title>
<g id="a_node14"><a xlink:title=" ">
<polygon fill="white" stroke="#bfbfbf" points="1523.08,-280.5 1523.08,-299.5 1635.08,-299.5 1635.08,-280.5 1523.08,-280.5"/>
<text text-anchor="middle" x="1579.08" y="-287.5" font-family="Helvetica,sans-Serif" font-size="10.00">dji_circular_buffer.hpp</text>
</a>
</g>
</g>
<!-- Node8&#45;&gt;Node13 -->
<g id="edge17" class="edge"><title>Node8&#45;&gt;Node13</title>
<path fill="none" stroke="midnightblue" d="M1185.76,-340.037C1253.04,-331.813 1391.73,-314.797 1509.08,-300 1510.35,-299.84 1511.63,-299.679 1512.91,-299.516"/>
<polygon fill="midnightblue" stroke="midnightblue" points="1513.44,-302.977 1522.92,-298.245 1512.56,-296.033 1513.44,-302.977"/>
</g>
<!-- Node14 -->
<g id="node15" class="node"><title>Node14</title>
<g id="a_node15"><a xlink:href="dji__control_8hpp.html" target="_top" xlink:title="Control API for DJI OSDK library.">
<polygon fill="white" stroke="black" points="907.083,-280.5 907.083,-299.5 987.083,-299.5 987.083,-280.5 907.083,-280.5"/>
<text text-anchor="middle" x="947.083" y="-287.5" font-family="Helvetica,sans-Serif" font-size="10.00">dji_control.hpp</text>
</a>
</g>
</g>
<!-- Node8&#45;&gt;Node14 -->
<g id="edge19" class="edge"><title>Node8&#45;&gt;Node14</title>
<path fill="none" stroke="midnightblue" d="M1113.71,-336.444C1079.82,-327.201 1025.68,-312.436 988.359,-302.257"/>
<polygon fill="midnightblue" stroke="midnightblue" points="988.878,-298.771 978.31,-299.516 987.036,-305.524 988.878,-298.771"/>
</g>
<!-- Node17 -->
<g id="node18" class="node"><title>Node17</title>
<g id="a_node18"><a xlink:href="dji__version_8hpp.html" target="_top" xlink:title="Drone/SDK Version definition for DJI onboardSDK library.">
<polygon fill="white" stroke="black" points="591.083,-168.5 591.083,-187.5 673.083,-187.5 673.083,-168.5 591.083,-168.5"/>
<text text-anchor="middle" x="632.083" y="-175.5" font-family="Helvetica,sans-Serif" font-size="10.00">dji_version.hpp</text>
</a>
</g>
</g>
<!-- Node8&#45;&gt;Node17 -->
<g id="edge67" class="edge"><title>Node8&#45;&gt;Node17</title>
<path fill="none" stroke="midnightblue" d="M1104.32,-343.452C1023.1,-338.761 837.523,-319.878 705.083,-244 682.435,-231.025 660.649,-210.176 646.866,-195.6"/>
<polygon fill="midnightblue" stroke="midnightblue" points="649.077,-192.835 639.729,-187.849 643.928,-197.576 649.077,-192.835"/>
</g>
<!-- Node19 -->
<g id="node20" class="node"><title>Node19</title>
<g id="a_node20"><a xlink:href="dji__gimbal_8hpp.html" target="_top" xlink:title="Gimbal API for OSDK library.">
<polygon fill="white" stroke="black" points="123.583,-168.5 123.583,-187.5 202.583,-187.5 202.583,-168.5 123.583,-168.5"/>
<text text-anchor="middle" x="163.083" y="-175.5" font-family="Helvetica,sans-Serif" font-size="10.00">dji_gimbal.hpp</text>
</a>
</g>
</g>
<!-- Node8&#45;&gt;Node19 -->
<g id="edge32" class="edge"><title>Node8&#45;&gt;Node19</title>
<path fill="none" stroke="midnightblue" d="M1104.35,-344.209C930.064,-340.672 254.177,-325.364 217.083,-300 182.535,-276.377 169.818,-225.218 165.352,-197.593"/>
<polygon fill="midnightblue" stroke="midnightblue" points="168.811,-197.057 163.94,-187.648 161.88,-198.041 168.811,-197.057"/>
</g>
<!-- Node20 -->
<g id="node21" class="node"><title>Node20</title>
<g id="a_node21"><a xlink:title=" ">
<polygon fill="white" stroke="#bfbfbf" points="1653.08,-280.5 1653.08,-299.5 1751.08,-299.5 1751.08,-280.5 1653.08,-280.5"/>
<text text-anchor="middle" x="1702.08" y="-287.5" font-family="Helvetica,sans-Serif" font-size="10.00">dji_hard_driver.hpp</text>
</a>
</g>
</g>
<!-- Node8&#45;&gt;Node20 -->
<g id="edge35" class="edge"><title>Node8&#45;&gt;Node20</title>
<path fill="none" stroke="midnightblue" d="M1185.6,-342.23C1269.13,-336.328 1466.7,-321.386 1643.09,-300.049"/>
<polygon fill="midnightblue" stroke="midnightblue" points="1643.56,-303.517 1653.07,-298.832 1642.72,-296.568 1643.56,-303.517"/>
</g>
<!-- Node21 -->
<g id="node22" class="node"><title>Node21</title>
<g id="a_node22"><a xlink:href="dji__hardware__sync_8hpp.html" target="_top" xlink:title="Hardware Sync API for DJI OSDK.">
<polygon fill="white" stroke="black" points="1081.08,-168.5 1081.08,-187.5 1197.08,-187.5 1197.08,-168.5 1081.08,-168.5"/>
<text text-anchor="middle" x="1139.08" y="-175.5" font-family="Helvetica,sans-Serif" font-size="10.00">dji_hardware_sync.hpp</text>
</a>
</g>
</g>
<!-- Node8&#45;&gt;Node21 -->
<g id="edge36" class="edge"><title>Node8&#45;&gt;Node21</title>
<path fill="none" stroke="midnightblue" d="M1147.27,-336.426C1152.01,-316.533 1162.28,-265.751 1155.08,-224 1153.51,-214.91 1150.29,-205.222 1147.14,-197.173"/>
<polygon fill="midnightblue" stroke="midnightblue" points="1150.28,-195.602 1143.19,-187.723 1143.82,-198.299 1150.28,-195.602"/>
</g>
<!-- Node23 -->
<g id="node24" class="node"><title>Node23</title>
<g id="a_node24"><a xlink:href="dji__mfio_8hpp.html" target="_top" xlink:title="MFIO API for DJI OSDK library.">
<polygon fill="white" stroke="black" points="1279.58,-224.5 1279.58,-243.5 1348.58,-243.5 1348.58,-224.5 1279.58,-224.5"/>
<text text-anchor="middle" x="1314.08" y="-231.5" font-family="Helvetica,sans-Serif" font-size="10.00">dji_mfio.hpp</text>
</a>
</g>
</g>
<!-- Node8&#45;&gt;Node23 -->
<g id="edge40" class="edge"><title>Node8&#45;&gt;Node23</title>
<path fill="none" stroke="midnightblue" d="M1162.45,-336.369C1179.33,-327.771 1205.51,-313.884 1227.08,-300 1251.52,-284.274 1278.07,-263.922 1295.33,-250.215"/>
<polygon fill="midnightblue" stroke="midnightblue" points="1297.83,-252.696 1303.45,-243.713 1293.45,-247.233 1297.83,-252.696"/>
</g>
<!-- Node24 -->
<g id="node25" class="node"><title>Node24</title>
<g id="a_node25"><a xlink:href="dji__mission__manager_8hpp.html" target="_top" xlink:title="Mission&#45;Manager API for DJI OSDK library.">
<polygon fill="white" stroke="black" points="549.583,-280.5 549.583,-299.5 676.583,-299.5 676.583,-280.5 549.583,-280.5"/>
<text text-anchor="middle" x="613.083" y="-287.5" font-family="Helvetica,sans-Serif" font-size="10.00">dji_mission_manager.hpp</text>
</a>
</g>
</g>
<!-- Node8&#45;&gt;Node24 -->
<g id="edge42" class="edge"><title>Node8&#45;&gt;Node24</title>
<path fill="none" stroke="midnightblue" d="M1104.22,-340.852C1014.71,-331.767 800.254,-309.999 686.627,-298.465"/>
<polygon fill="midnightblue" stroke="midnightblue" points="686.923,-294.977 676.621,-297.449 686.216,-301.941 686.923,-294.977"/>
</g>
<!-- Node29 -->
<g id="node30" class="node"><title>Node29</title>
<g id="a_node30"><a xlink:href="dji__mobile__communication_8hpp.html" target="_top" xlink:title="Implementation of DJI Mobile&#45;Onboard SDK Communication (MOC)">
<polygon fill="white" stroke="black" points="1279.08,-280.5 1279.08,-299.5 1429.08,-299.5 1429.08,-280.5 1279.08,-280.5"/>
<text text-anchor="middle" x="1354.08" y="-287.5" font-family="Helvetica,sans-Serif" font-size="10.00">dji_mobile_communication.hpp</text>
</a>
</g>
</g>
<!-- Node8&#45;&gt;Node29 -->
<g id="edge52" class="edge"><title>Node8&#45;&gt;Node29</title>
<path fill="none" stroke="midnightblue" d="M1178.2,-336.444C1214.2,-327.142 1271.85,-312.246 1311.27,-302.062"/>
<polygon fill="midnightblue" stroke="midnightblue" points="1312.31,-305.407 1321.12,-299.516 1310.56,-298.629 1312.31,-305.407"/>
</g>
<!-- Node31 -->
<g id="node32" class="node"><title>Node31</title>
<g id="a_node32"><a xlink:href="dji__mobile__device_8hpp.html" target="_top" xlink:title="Implementation of DJI Mobile Device Abstraction.">
<polygon fill="white" stroke="black" points="1506.58,-224.5 1506.58,-243.5 1619.58,-243.5 1619.58,-224.5 1506.58,-224.5"/>
<text text-anchor="middle" x="1563.08" y="-231.5" font-family="Helvetica,sans-Serif" font-size="10.00">dji_mobile_device.hpp</text>
</a>
</g>
</g>
<!-- Node8&#45;&gt;Node31 -->
<g id="edge55" class="edge"><title>Node8&#45;&gt;Node31</title>
<path fill="none" stroke="midnightblue" d="M1185.86,-342.941C1243.37,-339.101 1351.01,-328.465 1438.08,-300 1448.4,-296.628 1504.49,-266.69 1537.93,-248.642"/>
<polygon fill="midnightblue" stroke="midnightblue" points="1539.97,-251.517 1547.1,-243.682 1536.64,-245.359 1539.97,-251.517"/>
</g>
<!-- Node32 -->
<g id="node33" class="node"><title>Node32</title>
<g id="a_node33"><a xlink:title=" ">
<polygon fill="white" stroke="#bfbfbf" points="1769.08,-280.5 1769.08,-299.5 1897.08,-299.5 1897.08,-280.5 1769.08,-280.5"/>
<text text-anchor="middle" x="1833.08" y="-287.5" font-family="Helvetica,sans-Serif" font-size="10.00">dji_platform_manager.hpp</text>
</a>
</g>
</g>
<!-- Node8&#45;&gt;Node32 -->
<g id="edge58" class="edge"><title>Node8&#45;&gt;Node32</title>
<path fill="none" stroke="midnightblue" d="M1185.8,-342.722C1282.96,-337.134 1536.24,-321.683 1758.77,-300.082"/>
<polygon fill="midnightblue" stroke="midnightblue" points="1759.4,-303.538 1769.01,-299.082 1758.72,-296.571 1759.4,-303.538"/>
</g>
<!-- Node33 -->
<g id="node34" class="node"><title>Node33</title>
<g id="a_node34"><a xlink:href="dji__status_8hpp.html" target="_top" xlink:title="Status information for DJI Vehicle.">
<polygon fill="white" stroke="black" points="1915.58,-280.5 1915.58,-299.5 1992.58,-299.5 1992.58,-280.5 1915.58,-280.5"/>
<text text-anchor="middle" x="1954.08" y="-287.5" font-family="Helvetica,sans-Serif" font-size="10.00">dji_status.hpp</text>
</a>
</g>
</g>
<!-- Node8&#45;&gt;Node33 -->
<g id="edge59" class="edge"><title>Node8&#45;&gt;Node33</title>
<path fill="none" stroke="midnightblue" d="M1185.67,-344.401C1298.31,-342.357 1624.43,-333.841 1905.4,-299.91"/>
<polygon fill="midnightblue" stroke="midnightblue" points="1905.87,-303.378 1915.38,-298.692 1905.02,-296.429 1905.87,-303.378"/>
</g>
<!-- Node34 -->
<g id="node35" class="node"><title>Node34</title>
<g id="a_node35"><a xlink:href="dji__subscription_8hpp.html" target="_top" xlink:title="Telemetry Subscription API for DJI OSDK library.">
<polygon fill="white" stroke="black" points="1043.58,-224.5 1043.58,-243.5 1146.58,-243.5 1146.58,-224.5 1043.58,-224.5"/>
<text text-anchor="middle" x="1095.08" y="-231.5" font-family="Helvetica,sans-Serif" font-size="10.00">dji_subscription.hpp</text>
</a>
</g>
</g>
<!-- Node8&#45;&gt;Node34 -->
<g id="edge60" class="edge"><title>Node8&#45;&gt;Node34</title>
<path fill="none" stroke="midnightblue" d="M1141.16,-336.368C1133.02,-318.456 1114.14,-276.923 1103.24,-252.948"/>
<polygon fill="midnightblue" stroke="midnightblue" points="1106.31,-251.247 1098.99,-243.591 1099.94,-254.143 1106.31,-251.247"/>
</g>
<!-- Node35 -->
<g id="node36" class="node"><title>Node35</title>
<g id="a_node36"><a xlink:title=" ">
<polygon fill="white" stroke="#bfbfbf" points="2011.08,-280.5 2011.08,-299.5 2131.08,-299.5 2131.08,-280.5 2011.08,-280.5"/>
<text text-anchor="middle" x="2071.08" y="-287.5" font-family="Helvetica,sans-Serif" font-size="10.00">dji_thread_manager.hpp</text>
</a>
</g>
</g>
<!-- Node8&#45;&gt;Node35 -->
<g id="edge64" class="edge"><title>Node8&#45;&gt;Node35</title>
<path fill="none" stroke="midnightblue" d="M1185.76,-343.98C1307.61,-340.687 1680.52,-328.885 2000.5,-300.072"/>
<polygon fill="midnightblue" stroke="midnightblue" points="2001.26,-303.518 2010.9,-299.128 2000.63,-296.546 2001.26,-303.518"/>
</g>
<!-- Node36 -->
<g id="node37" class="node"><title>Node36</title>
<g id="a_node37"><a xlink:href="dji__virtual__rc_8hpp.html" target="_top" xlink:title="Virtual Radio Control API for DJI onboardSDK library.">
<polygon fill="white" stroke="black" points="373.083,-280.5 373.083,-299.5 463.083,-299.5 463.083,-280.5 373.083,-280.5"/>
<text text-anchor="middle" x="418.083" y="-287.5" font-family="Helvetica,sans-Serif" font-size="10.00">dji_virtual_rc.hpp</text>
</a>
</g>
</g>
<!-- Node8&#45;&gt;Node36 -->
<g id="edge68" class="edge"><title>Node8&#45;&gt;Node36</title>
<path fill="none" stroke="midnightblue" d="M1104.44,-341.981C981.621,-332.858 614.173,-305.565 473.609,-295.124"/>
<polygon fill="midnightblue" stroke="midnightblue" points="473.722,-291.623 463.49,-294.373 473.203,-298.604 473.722,-291.623"/>
</g>
<!-- Node37 -->
<g id="node38" class="node"><title>Node37</title>
<g id="a_node38"><a xlink:href="dji__payload__device_8hpp.html" target="_top" xlink:title="Implementation of DJI Payload Device Abstraction.">
<polygon fill="white" stroke="black" points="1578.08,-168.5 1578.08,-187.5 1696.08,-187.5 1696.08,-168.5 1578.08,-168.5"/>
<text text-anchor="middle" x="1637.08" y="-175.5" font-family="Helvetica,sans-Serif" font-size="10.00">dji_payload_device.hpp</text>
</a>
</g>
</g>
<!-- Node8&#45;&gt;Node37 -->
<g id="edge73" class="edge"><title>Node8&#45;&gt;Node37</title>
<path fill="none" stroke="midnightblue" d="M1185.59,-343.559C1248.42,-340.414 1372.58,-330.549 1473.08,-300 1492.48,-294.104 1495.25,-287.518 1514.08,-280 1563.43,-260.299 1593.8,-284.595 1628.08,-244 1638.75,-231.363 1640.22,-212.153 1639.48,-197.89"/>
<polygon fill="midnightblue" stroke="midnightblue" points="1642.95,-197.373 1638.56,-187.732 1635.98,-198.008 1642.95,-197.373"/>
</g>
<!-- Node10&#45;&gt;Node3 -->
<g id="edge16" class="edge"><title>Node10&#45;&gt;Node3</title>
<path fill="none" stroke="midnightblue" d="M105.818,-169.448C108.614,-168.954 111.389,-168.468 114.083,-168 192.808,-154.33 284.631,-139.129 338.076,-130.355"/>
<polygon fill="midnightblue" stroke="midnightblue" points="338.936,-133.761 348.238,-128.688 337.803,-126.853 338.936,-133.761"/>
</g>
<!-- Node10&#45;&gt;Node11 -->
<g id="edge12" class="edge"><title>Node10&#45;&gt;Node11</title>
<path fill="none" stroke="midnightblue" d="M79.346,-168.324C94.304,-159.822 117.337,-146.729 134.809,-136.797"/>
<polygon fill="midnightblue" stroke="midnightblue" points="136.893,-139.639 143.857,-131.655 133.434,-133.553 136.893,-139.639"/>
</g>
<!-- Node11&#45;&gt;Node5 -->
<g id="edge15" class="edge"><title>Node11&#45;&gt;Node5</title>
<path fill="none" stroke="midnightblue" d="M160.219,-112.476C162.233,-99.531 167.279,-74.4699 178.083,-56 184.587,-44.8797 194.434,-34.4572 203.164,-26.4485"/>
<polygon fill="midnightblue" stroke="midnightblue" points="205.518,-29.0399 210.74,-19.8215 200.909,-23.7712 205.518,-29.0399"/>
</g>
<!-- Node12 -->
<g id="node13" class="node"><title>Node12</title>
<g id="a_node13"><a xlink:href="dji__error_8hpp.html" target="_top" xlink:title="All DJI OSDK OpenProtocol ACK Error Codes.">
<polygon fill="white" stroke="black" points="187.083,-56.5 187.083,-75.5 257.083,-75.5 257.083,-56.5 187.083,-56.5"/>
<text text-anchor="middle" x="222.083" y="-63.5" font-family="Helvetica,sans-Serif" font-size="10.00">dji_error.hpp</text>
</a>
</g>
</g>
<!-- Node11&#45;&gt;Node12 -->
<g id="edge13" class="edge"><title>Node11&#45;&gt;Node12</title>
<path fill="none" stroke="midnightblue" d="M169.205,-112.324C178.609,-104.263 192.827,-92.0765 204.152,-82.3695"/>
<polygon fill="midnightblue" stroke="midnightblue" points="206.462,-84.9993 211.776,-75.8339 201.906,-79.6844 206.462,-84.9993"/>
</g>
<!-- Node12&#45;&gt;Node5 -->
<g id="edge14" class="edge"><title>Node12&#45;&gt;Node5</title>
<path fill="none" stroke="midnightblue" d="M222.083,-56.083C222.083,-49.0059 222.083,-38.8611 222.083,-29.9865"/>
<polygon fill="midnightblue" stroke="midnightblue" points="225.583,-29.751 222.083,-19.7511 218.583,-29.7511 225.583,-29.751"/>
</g>
<!-- Node14&#45;&gt;Node3 -->
<g id="edge30" class="edge"><title>Node14&#45;&gt;Node3</title>
<path fill="none" stroke="midnightblue" d="M948.139,-280.283C950.331,-257.707 952.664,-197.073 919.083,-168 882.296,-136.151 550.118,-126.334 427.925,-123.785"/>
<polygon fill="midnightblue" stroke="midnightblue" points="427.857,-120.283 417.788,-123.58 427.716,-127.282 427.857,-120.283"/>
</g>
<!-- Node14&#45;&gt;Node6 -->
<g id="edge31" class="edge"><title>Node14&#45;&gt;Node6</title>
<path fill="none" stroke="midnightblue" d="M987.092,-284.373C1051.84,-275.266 1181.39,-250.197 1271.08,-188 1291.5,-173.841 1311.67,-153.554 1324.67,-139.424"/>
<polygon fill="midnightblue" stroke="midnightblue" points="1327.35,-141.679 1331.44,-131.908 1322.15,-136.992 1327.35,-141.679"/>
</g>
<!-- Node14&#45;&gt;Node7 -->
<g id="edge29" class="edge"><title>Node14&#45;&gt;Node7</title>
<path fill="none" stroke="midnightblue" d="M950.938,-280.249C954.64,-271.333 959.972,-257.006 962.083,-244 963.506,-235.226 963.478,-232.779 962.083,-224 958.038,-198.553 918.902,-134.14 932.083,-112 941.179,-96.7208 957.471,-86.3102 973.226,-79.3857"/>
<polygon fill="midnightblue" stroke="midnightblue" points="974.916,-82.4794 982.898,-75.5124 972.314,-75.9811 974.916,-82.4794"/>
</g>
<!-- Node15 -->
<g id="node16" class="node"><title>Node15</title>
<g id="a_node16"><a xlink:href="dji__ack_8hpp.html" target="_top" xlink:title="All DJI OSDK ACK parsing.">
<polygon fill="white" stroke="black" points="385.083,-224.5 385.083,-243.5 451.083,-243.5 451.083,-224.5 385.083,-224.5"/>
<text text-anchor="middle" x="418.083" y="-231.5" font-family="Helvetica,sans-Serif" font-size="10.00">dji_ack.hpp</text>
</a>
</g>
</g>
<!-- Node14&#45;&gt;Node15 -->
<g id="edge20" class="edge"><title>Node14&#45;&gt;Node15</title>
<path fill="none" stroke="midnightblue" d="M906.817,-285.13C828.211,-277.538 648.824,-260.032 498.083,-244 486.151,-242.731 473.225,-241.301 461.313,-239.961"/>
<polygon fill="midnightblue" stroke="midnightblue" points="461.487,-236.458 451.157,-238.812 460.7,-243.414 461.487,-236.458"/>
</g>
<!-- Node15&#45;&gt;Node3 -->
<g id="edge24" class="edge"><title>Node15&#45;&gt;Node3</title>
<path fill="none" stroke="midnightblue" d="M414.868,-224.423C411.527,-215.406 406.219,-200.78 402.083,-188 397.048,-172.445 391.877,-154.609 388.203,-141.56"/>
<polygon fill="midnightblue" stroke="midnightblue" points="391.561,-140.573 385.505,-131.88 384.818,-142.453 391.561,-140.573"/>
</g>
<!-- Node15&#45;&gt;Node11 -->
<g id="edge21" class="edge"><title>Node15&#45;&gt;Node11</title>
<path fill="none" stroke="midnightblue" d="M397.759,-224.368C352.18,-205.01 241.644,-158.065 188.532,-135.507"/>
<polygon fill="midnightblue" stroke="midnightblue" points="189.884,-132.279 179.312,-131.591 187.148,-138.722 189.884,-132.279"/>
</g>
<!-- Node16 -->
<g id="node17" class="node"><title>Node16</title>
<g id="a_node17"><a xlink:href="dji__mission__type_8hpp.html" target="_top" xlink:title="Mission related data struct for DJI OSDK library.">
<polygon fill="white" stroke="black" points="411.083,-168.5 411.083,-187.5 519.083,-187.5 519.083,-168.5 411.083,-168.5"/>
<text text-anchor="middle" x="465.083" y="-175.5" font-family="Helvetica,sans-Serif" font-size="10.00">dji_mission_type.hpp</text>
</a>
</g>
</g>
<!-- Node15&#45;&gt;Node16 -->
<g id="edge22" class="edge"><title>Node15&#45;&gt;Node16</title>
<path fill="none" stroke="midnightblue" d="M425.844,-224.083C432.619,-216.298 442.626,-204.801 450.838,-195.367"/>
<polygon fill="midnightblue" stroke="midnightblue" points="453.541,-197.592 457.466,-187.751 448.261,-192.996 453.541,-197.592"/>
</g>
<!-- Node15&#45;&gt;Node17 -->
<g id="edge25" class="edge"><title>Node15&#45;&gt;Node17</title>
<path fill="none" stroke="midnightblue" d="M451.52,-224.562C488.366,-215.265 547.768,-200.276 588.301,-190.048"/>
<polygon fill="midnightblue" stroke="midnightblue" points="589.334,-193.397 598.174,-187.556 587.621,-186.61 589.334,-193.397"/>
</g>
<!-- Node18 -->
<g id="node19" class="node"><title>Node18</title>
<g id="a_node19"><a xlink:title=" ">
<polygon fill="white" stroke="#bfbfbf" points="537.583,-168.5 537.583,-187.5 572.583,-187.5 572.583,-168.5 537.583,-168.5"/>
<text text-anchor="middle" x="555.083" y="-175.5" font-family="Helvetica,sans-Serif" font-size="10.00">map</text>
</a>
</g>
</g>
<!-- Node15&#45;&gt;Node18 -->
<g id="edge28" class="edge"><title>Node15&#45;&gt;Node18</title>
<path fill="none" stroke="midnightblue" d="M439.791,-224.444C463.636,-215.045 501.973,-199.934 527.825,-189.744"/>
<polygon fill="midnightblue" stroke="midnightblue" points="529.377,-192.894 537.397,-185.971 526.81,-186.382 529.377,-192.894"/>
</g>
<!-- Node16&#45;&gt;Node3 -->
<g id="edge23" class="edge"><title>Node16&#45;&gt;Node3</title>
<path fill="none" stroke="midnightblue" d="M451.908,-168.324C439.236,-159.979 419.849,-147.212 404.877,-137.352"/>
<polygon fill="midnightblue" stroke="midnightblue" points="406.501,-134.231 396.225,-131.655 402.651,-140.078 406.501,-134.231"/>
</g>
<!-- Node17&#45;&gt;Node9 -->
<g id="edge27" class="edge"><title>Node17&#45;&gt;Node9</title>
<path fill="none" stroke="midnightblue" d="M673.272,-169.519C676.252,-168.998 679.213,-168.487 682.083,-168 771.938,-152.745 878.163,-136.194 930.911,-128.075"/>
<polygon fill="midnightblue" stroke="midnightblue" points="931.676,-131.499 941.028,-126.52 930.613,-124.58 931.676,-131.499"/>
</g>
<!-- Node17&#45;&gt;Node11 -->
<g id="edge26" class="edge"><title>Node17&#45;&gt;Node11</title>
<path fill="none" stroke="midnightblue" d="M590.925,-169.488C587.6,-168.957 584.288,-168.453 581.083,-168 450.779,-149.577 296.878,-134.956 215.737,-127.8"/>
<polygon fill="midnightblue" stroke="midnightblue" points="216,-124.31 205.733,-126.923 215.389,-131.283 216,-124.31"/>
</g>
<!-- Node19&#45;&gt;Node3 -->
<g id="edge34" class="edge"><title>Node19&#45;&gt;Node3</title>
<path fill="none" stroke="midnightblue" d="M197.942,-168.444C235.999,-159.102 297.041,-144.119 338.543,-133.933"/>
<polygon fill="midnightblue" stroke="midnightblue" points="339.509,-137.299 348.386,-131.516 337.84,-130.501 339.509,-137.299"/>
</g>
<!-- Node19&#45;&gt;Node11 -->
<g id="edge33" class="edge"><title>Node19&#45;&gt;Node11</title>
<path fill="none" stroke="midnightblue" d="M162.422,-168.083C161.898,-161.006 161.146,-150.861 160.489,-141.986"/>
<polygon fill="midnightblue" stroke="midnightblue" points="163.96,-141.465 159.731,-131.751 156.979,-141.982 163.96,-141.465"/>
</g>
<!-- Node21&#45;&gt;Node3 -->
<g id="edge37" class="edge"><title>Node21&#45;&gt;Node3</title>
<path fill="none" stroke="midnightblue" d="M1081.02,-172.852C935.588,-162.465 558.087,-135.5 427.955,-126.205"/>
<polygon fill="midnightblue" stroke="midnightblue" points="428.16,-122.711 417.936,-125.49 427.661,-129.693 428.16,-122.711"/>
</g>
<!-- Node21&#45;&gt;Node6 -->
<g id="edge38" class="edge"><title>Node21&#45;&gt;Node6</title>
<path fill="none" stroke="midnightblue" d="M1170.77,-168.444C1205.15,-159.162 1260.16,-144.309 1297.87,-134.127"/>
<polygon fill="midnightblue" stroke="midnightblue" points="1298.8,-137.502 1307.54,-131.516 1296.97,-130.744 1298.8,-137.502"/>
</g>
<!-- Node22 -->
<g id="node23" class="node"><title>Node22</title>
<g id="a_node23"><a xlink:title=" ">
<polygon fill="white" stroke="#bfbfbf" points="1118.58,-112.5 1118.58,-131.5 1159.58,-131.5 1159.58,-112.5 1118.58,-112.5"/>
<text text-anchor="middle" x="1139.08" y="-119.5" font-family="Helvetica,sans-Serif" font-size="10.00">string</text>
</a>
</g>
</g>
<!-- Node21&#45;&gt;Node22 -->
<g id="edge39" class="edge"><title>Node21&#45;&gt;Node22</title>
<path fill="none" stroke="midnightblue" d="M1139.08,-168.083C1139.08,-161.006 1139.08,-150.861 1139.08,-141.986"/>
<polygon fill="midnightblue" stroke="midnightblue" points="1142.58,-141.751 1139.08,-131.751 1135.58,-141.751 1142.58,-141.751"/>
</g>
<!-- Node23&#45;&gt;Node6 -->
<g id="edge41" class="edge"><title>Node23&#45;&gt;Node6</title>
<path fill="none" stroke="midnightblue" d="M1325.07,-224.365C1334.54,-216.171 1347.52,-202.917 1353.08,-188 1358.81,-172.639 1353.88,-154.315 1348.34,-141.044"/>
<polygon fill="midnightblue" stroke="midnightblue" points="1351.36,-139.231 1343.97,-131.637 1345.01,-142.181 1351.36,-139.231"/>
</g>
<!-- Node25 -->
<g id="node26" class="node"><title>Node25</title>
<g id="a_node26"><a xlink:href="dji__hotpoint_8hpp.html" target="_top" xlink:title="Implementation of HotPoint (Point of Interest) Missions for DJI OSDK.">
<polygon fill="white" stroke="black" points="714.583,-224.5 714.583,-243.5 799.583,-243.5 799.583,-224.5 714.583,-224.5"/>
<text text-anchor="middle" x="757.083" y="-231.5" font-family="Helvetica,sans-Serif" font-size="10.00">dji_hotpoint.hpp</text>
</a>
</g>
</g>
<!-- Node24&#45;&gt;Node25 -->
<g id="edge43" class="edge"><title>Node24&#45;&gt;Node25</title>
<path fill="none" stroke="midnightblue" d="M635.9,-280.444C659.914,-271.438 697.912,-257.189 724.952,-247.049"/>
<polygon fill="midnightblue" stroke="midnightblue" points="726.238,-250.305 734.372,-243.516 723.78,-243.751 726.238,-250.305"/>
</g>
<!-- Node27 -->
<g id="node28" class="node"><title>Node27</title>
<g id="a_node28"><a xlink:href="dji__waypoint_8hpp.html" target="_top" xlink:title="Implementation of GPS Waypoint Missions for DJI OSDK.">
<polygon fill="white" stroke="black" points="568.583,-224.5 568.583,-243.5 657.583,-243.5 657.583,-224.5 568.583,-224.5"/>
<text text-anchor="middle" x="613.083" y="-231.5" font-family="Helvetica,sans-Serif" font-size="10.00">dji_waypoint.hpp</text>
</a>
</g>
</g>
<!-- Node24&#45;&gt;Node27 -->
<g id="edge49" class="edge"><title>Node24&#45;&gt;Node27</title>
<path fill="none" stroke="midnightblue" d="M613.083,-280.083C613.083,-273.006 613.083,-262.861 613.083,-253.986"/>
<polygon fill="midnightblue" stroke="midnightblue" points="616.583,-253.751 613.083,-243.751 609.583,-253.751 616.583,-253.751"/>
</g>
<!-- Node28 -->
<g id="node29" class="node"><title>Node28</title>
<g id="a_node29"><a xlink:title=" ">
<polygon fill="white" stroke="#bfbfbf" points="507.083,-224.5 507.083,-243.5 551.083,-243.5 551.083,-224.5 507.083,-224.5"/>
<text text-anchor="middle" x="529.083" y="-231.5" font-family="Helvetica,sans-Serif" font-size="10.00">vector</text>
</a>
</g>
</g>
<!-- Node24&#45;&gt;Node28 -->
<g id="edge51" class="edge"><title>Node24&#45;&gt;Node28</title>
<path fill="none" stroke="midnightblue" d="M599.587,-280.324C586.483,-271.9 566.371,-258.971 550.976,-249.074"/>
<polygon fill="midnightblue" stroke="midnightblue" points="552.85,-246.118 542.545,-243.655 549.064,-252.006 552.85,-246.118"/>
</g>
<!-- Node25&#45;&gt;Node2 -->
<g id="edge48" class="edge"><title>Node25&#45;&gt;Node2</title>
<path fill="none" stroke="midnightblue" d="M774.435,-224.324C791.755,-215.664 818.598,-202.242 838.585,-192.249"/>
<polygon fill="midnightblue" stroke="midnightblue" points="840.395,-195.257 847.774,-187.655 837.264,-188.996 840.395,-195.257"/>
</g>
<!-- Node26 -->
<g id="node27" class="node"><title>Node26</title>
<g id="a_node27"><a xlink:href="dji__mission__base_8hpp.html" target="_top" xlink:title="Mission&#45;Base abstract class for DJI OSDK library.">
<polygon fill="white" stroke="black" points="691.083,-168.5 691.083,-187.5 801.083,-187.5 801.083,-168.5 691.083,-168.5"/>
<text text-anchor="middle" x="746.083" y="-175.5" font-family="Helvetica,sans-Serif" font-size="10.00">dji_mission_base.hpp</text>
</a>
</g>
</g>
<!-- Node25&#45;&gt;Node26 -->
<g id="edge44" class="edge"><title>Node25&#45;&gt;Node26</title>
<path fill="none" stroke="midnightblue" d="M755.266,-224.083C753.809,-216.927 751.712,-206.635 749.89,-197.691"/>
<polygon fill="midnightblue" stroke="midnightblue" points="753.291,-196.851 747.865,-187.751 746.432,-198.248 753.291,-196.851"/>
</g>
<!-- Node26&#45;&gt;Node3 -->
<g id="edge46" class="edge"><title>Node26&#45;&gt;Node3</title>
<path fill="none" stroke="midnightblue" d="M690.951,-168.799C619.034,-158.1 494.568,-139.585 428.054,-129.69"/>
<polygon fill="midnightblue" stroke="midnightblue" points="428.3,-126.188 417.894,-128.179 427.27,-133.112 428.3,-126.188"/>
</g>
<!-- Node26&#45;&gt;Node6 -->
<g id="edge47" class="edge"><title>Node26&#45;&gt;Node6</title>
<path fill="none" stroke="midnightblue" d="M801.216,-169.051C804.213,-168.68 807.184,-168.327 810.083,-168 973.458,-149.578 1165.99,-134.981 1267.73,-127.822"/>
<polygon fill="midnightblue" stroke="midnightblue" points="1268.15,-131.301 1277.88,-127.111 1267.66,-124.318 1268.15,-131.301"/>
</g>
<!-- Node26&#45;&gt;Node11 -->
<g id="edge45" class="edge"><title>Node26&#45;&gt;Node11</title>
<path fill="none" stroke="midnightblue" d="M690.949,-169.055C687.952,-168.683 684.981,-168.328 682.083,-168 512.8,-148.829 311.866,-133.661 215.774,-126.872"/>
<polygon fill="midnightblue" stroke="midnightblue" points="215.915,-123.374 205.694,-126.164 215.424,-130.356 215.915,-123.374"/>
</g>
<!-- Node27&#45;&gt;Node26 -->
<g id="edge50" class="edge"><title>Node27&#45;&gt;Node26</title>
<path fill="none" stroke="midnightblue" d="M634.157,-224.444C656.142,-215.517 690.817,-201.439 715.747,-191.317"/>
<polygon fill="midnightblue" stroke="midnightblue" points="717.158,-194.521 725.107,-187.516 714.525,-188.035 717.158,-194.521"/>
</g>
<!-- Node29&#45;&gt;Node6 -->
<g id="edge54" class="edge"><title>Node29&#45;&gt;Node6</title>
<path fill="none" stroke="midnightblue" d="M1397.02,-280.438C1431.42,-271.234 1471.86,-253.756 1458.08,-224 1439.18,-183.171 1394.74,-152.819 1365.84,-136.527"/>
<polygon fill="midnightblue" stroke="midnightblue" points="1367.51,-133.451 1357.06,-131.736 1364.16,-139.597 1367.51,-133.451"/>
</g>
<!-- Node30 -->
<g id="node31" class="node"><title>Node30</title>
<g id="a_node31"><a xlink:title=" ">
<polygon fill="white" stroke="#bfbfbf" points="1366.58,-224.5 1366.58,-243.5 1449.58,-243.5 1449.58,-224.5 1366.58,-224.5"/>
<text text-anchor="middle" x="1408.08" y="-231.5" font-family="Helvetica,sans-Serif" font-size="10.00">dji_macros.hpp</text>
</a>
</g>
</g>
<!-- Node29&#45;&gt;Node30 -->
<g id="edge53" class="edge"><title>Node29&#45;&gt;Node30</title>
<path fill="none" stroke="midnightblue" d="M1363,-280.083C1370.86,-272.22 1382.51,-260.569 1392,-251.081"/>
<polygon fill="midnightblue" stroke="midnightblue" points="1394.74,-253.297 1399.33,-243.751 1389.79,-248.347 1394.74,-253.297"/>
</g>
<!-- Node31&#45;&gt;Node6 -->
<g id="edge56" class="edge"><title>Node31&#45;&gt;Node6</title>
<path fill="none" stroke="midnightblue" d="M1555.75,-224.053C1543.83,-210.078 1518.86,-183.11 1492.08,-168 1463.29,-151.753 1428.06,-140.871 1398.67,-133.885"/>
<polygon fill="midnightblue" stroke="midnightblue" points="1399.07,-130.386 1388.54,-131.574 1397.51,-137.21 1399.07,-130.386"/>
</g>
<!-- Node34&#45;&gt;Node2 -->
<g id="edge62" class="edge"><title>Node34&#45;&gt;Node2</title>
<path fill="none" stroke="midnightblue" d="M1058.64,-224.444C1018.68,-215.063 954.496,-199.993 911.098,-189.804"/>
<polygon fill="midnightblue" stroke="midnightblue" points="911.892,-186.395 901.356,-187.516 910.292,-193.21 911.892,-186.395"/>
</g>
<!-- Node34&#45;&gt;Node6 -->
<g id="edge63" class="edge"><title>Node34&#45;&gt;Node6</title>
<path fill="none" stroke="midnightblue" d="M1131.92,-224.463C1161.64,-216.877 1204.12,-204.443 1239.08,-188 1268.98,-173.938 1300.46,-152.154 1319.93,-137.736"/>
<polygon fill="midnightblue" stroke="midnightblue" points="1322.09,-140.49 1327.98,-131.685 1317.89,-134.894 1322.09,-140.49"/>
</g>
<!-- Node34&#45;&gt;Node7 -->
<g id="edge61" class="edge"><title>Node34&#45;&gt;Node7</title>
<path fill="none" stroke="midnightblue" d="M1090.59,-224.415C1085.89,-215.39 1078.35,-200.759 1072.08,-188 1054.17,-151.503 1034.09,-108.329 1023.2,-84.6831"/>
<polygon fill="midnightblue" stroke="midnightblue" points="1026.36,-83.1765 1019,-75.5537 1020,-86.1014 1026.36,-83.1765"/>
</g>
<!-- Node36&#45;&gt;Node2 -->
<g id="edge72" class="edge"><title>Node36&#45;&gt;Node2</title>
<path fill="none" stroke="midnightblue" d="M425.455,-280.442C438.466,-265.992 467.077,-237.058 498.083,-224 623.712,-171.093 669.673,-205.571 809.274,-187.989"/>
<polygon fill="midnightblue" stroke="midnightblue" points="810.038,-191.418 819.489,-186.631 809.115,-184.479 810.038,-191.418"/>
</g>
<!-- Node36&#45;&gt;Node3 -->
<g id="edge71" class="edge"><title>Node36&#45;&gt;Node3</title>
<path fill="none" stroke="midnightblue" d="M405.869,-280.236C395.729,-272.143 382.039,-259.112 376.083,-244 362.566,-209.708 370.825,-165.691 377.387,-141.314"/>
<polygon fill="midnightblue" stroke="midnightblue" points="380.78,-142.181 380.199,-131.602 374.056,-140.234 380.78,-142.181"/>
</g>
<!-- Node36&#45;&gt;Node7 -->
<g id="edge70" class="edge"><title>Node36&#45;&gt;Node7</title>
<path fill="none" stroke="midnightblue" d="M404.288,-280.347C392.64,-272.324 376.409,-259.335 367.083,-244 335.92,-192.76 298.109,-155.792 339.083,-112 380.169,-68.0875 787.025,-65.617 949.028,-66.3997"/>
<polygon fill="midnightblue" stroke="midnightblue" points="949.319,-69.9012 959.338,-66.4555 949.357,-62.9013 949.319,-69.9012"/>
</g>
<!-- Node36&#45;&gt;Node15 -->
<g id="edge69" class="edge"><title>Node36&#45;&gt;Node15</title>
<path fill="none" stroke="midnightblue" d="M418.083,-280.083C418.083,-273.006 418.083,-262.861 418.083,-253.986"/>
<polygon fill="midnightblue" stroke="midnightblue" points="421.583,-253.751 418.083,-243.751 414.583,-253.751 421.583,-253.751"/>
</g>
<!-- Node37&#45;&gt;Node6 -->
<g id="edge74" class="edge"><title>Node37&#45;&gt;Node6</title>
<path fill="none" stroke="midnightblue" d="M1589.86,-168.444C1537.33,-158.925 1452.47,-143.547 1396.23,-133.356"/>
<polygon fill="midnightblue" stroke="midnightblue" points="1396.54,-129.856 1386.08,-131.516 1395.3,-136.743 1396.54,-129.856"/>
</g>
</g>
</svg>
        <g id="navigator" transform="translate(0 0)" fill="#404254">
                <rect fill="#f2f5e9" fill-opacity="0.5" stroke="#606060" stroke-width=".5" x="0" y="0" width="60" height="60"/>
                <use id="zoomplus" xlink:href="#zoomPlus" x="17" y="9" onmousedown="handleZoom(evt,'in')"/>
                <use id="zoomminus" xlink:href="#zoomMin" x="42" y="9" onmousedown="handleZoom(evt,'out')"/>
                <use id="reset" xlink:href="#resetDef" x="30" y="36" onmousedown="handleReset()"/>
                <g id="arrowUp" xlink:href="#dirArrow" transform="translate(30 24)" onmousedown="handlePan(0,-1)">
                  <use xlink:href="#rim" fill="#404040">
                        <set attributeName="fill" to="#808080" begin="arrowUp.mouseover" end="arrowUp.mouseout"/>
                  </use>
                  <path fill="none" stroke="white" stroke-width="1.5" d="M0,-3.0v7 M-2.5,-0.5L0,-3.0L2.5,-0.5"/>
                </g>
                <g id="arrowRight" xlink:href="#dirArrow" transform="rotate(90) translate(36 -43)" onmousedown="handlePan(1,0)">
                  <use xlink:href="#rim" fill="#404040">
                        <set attributeName="fill" to="#808080" begin="arrowRight.mouseover" end="arrowRight.mouseout"/>
                  </use>
                  <path fill="none" stroke="white" stroke-width="1.5" d="M0,-3.0v7 M-2.5,-0.5L0,-3.0L2.5,-0.5"/>
                </g>
                <g id="arrowDown" xlink:href="#dirArrow" transform="rotate(180) translate(-30 -48)" onmousedown="handlePan(0,1)">
                  <use xlink:href="#rim" fill="#404040">
                        <set attributeName="fill" to="#808080" begin="arrowDown.mouseover" end="arrowDown.mouseout"/>
                  </use>
                  <path fill="none" stroke="white" stroke-width="1.5" d="M0,-3.0v7 M-2.5,-0.5L0,-3.0L2.5,-0.5"/>
                </g>
                <g id="arrowLeft" xlink:href="#dirArrow" transform="rotate(270) translate(-36 17)" onmousedown="handlePan(-1,0)">
                  <use xlink:href="#rim" fill="#404040">
                        <set attributeName="fill" to="#808080" begin="arrowLeft.mouseover" end="arrowLeft.mouseout"/>
                  </use>
                  <path fill="none" stroke="white" stroke-width="1.5" d="M0,-3.0v7 M-2.5,-0.5L0,-3.0L2.5,-0.5"/>
                </g>
        </g>
        <svg viewBox="0 0 15 15" width="100%" height="30px" preserveAspectRatio="xMaxYMin meet">
         <g id="arrow_out" transform="scale(0.3 0.3)">
          <a xlink:href="dji__broadcast_8cpp__incl_org.svg" target="_base">
           <rect id="button" ry="5" rx="5" y="6" x="6" height="38" width="38"
                fill="#f2f5e9" fill-opacity="0.5" stroke="#606060" stroke-width="1.0"/>
           <path id="arrow"
             d="M 11.500037,31.436501 C 11.940474,20.09759 22.043105,11.32322 32.158766,21.979434 L 37.068811,17.246167 C 37.068811,17.246167 37.088388,32 37.088388,32 L 22.160133,31.978069 C 22.160133,31.978069 26.997745,27.140456 26.997745,27.140456 C 18.528582,18.264221 13.291696,25.230495 11.500037,31.436501 z"
             style="fill:#404040;"/>
          </a>
         </g>
        </svg>
</svg>
