<?xml version="1.0" encoding="UTF-8" standalone="no"?>
<!DOCTYPE svg PUBLIC "-//W3C//DTD SVG 1.1//EN"
 "http://www.w3.org/Graphics/SVG/1.1/DTD/svg11.dtd">
<!-- Generated by graphviz version 2.38.0 (20140413.2041)
 -->
<!-- Title: osdk&#45;core/api/src/dji_gimbal.cpp Pages: 1 -->
<!--zoomable 431 -->
<svg id="main" version="1.1" xmlns="http://www.w3.org/2000/svg" xmlns:xlink="http://www.w3.org/1999/xlink" xml:space="preserve" onload="init(evt)">
<style type="text/css"><![CDATA[
.edge:hover path { stroke: red; }
.edge:hover polygon { stroke: red; fill: red; }
]]></style>
<script type="text/javascript"><![CDATA[
var edges = document.getElementsByTagName('g');
if (edges && edges.length) {
  for (var i=0;i<edges.length;i++) {
    if (edges[i].id.substr(0,4)=='edge') {
      edges[i].setAttribute('class','edge');
    }
  }
}
]]></script>
        <defs>
                <circle id="rim" cx="0" cy="0" r="7"/>
                <circle id="rim2" cx="0" cy="0" r="3.5"/>
                <g id="zoomPlus">
                        <use xlink:href="#rim" fill="#404040">
                                <set attributeName="fill" to="#808080" begin="zoomplus.mouseover" end="zoomplus.mouseout"/>
                        </use>
                        <path d="M-4,0h8M0,-4v8" fill="none" stroke="white" stroke-width="1.5" pointer-events="none"/>
                </g>
                <g id="zoomMin">
                        <use xlink:href="#rim" fill="#404040">
                                <set attributeName="fill" to="#808080" begin="zoomminus.mouseover" end="zoomminus.mouseout"/>
                        </use>
                        <path d="M-4,0h8" fill="none" stroke="white" stroke-width="1.5" pointer-events="none"/>
                </g>
                <g id="dirArrow">
                        <path fill="none" stroke="white" stroke-width="1.5" d="M0,-3.0v7 M-2.5,-0.5L0,-3.0L2.5,-0.5"/>
                </g>
               <g id="resetDef">
                       <use xlink:href="#rim2" fill="#404040">
                               <set attributeName="fill" to="#808080" begin="reset.mouseover" end="reset.mouseout"/>
                       </use>
               </g>
        </defs>

<script type="text/javascript">
var viewWidth = 2060;
var viewHeight = 431;
var sectionId = 'dynsection-0';
</script>
<script xlink:href="svgpan.js"/>
<svg id="graph" class="graph">
<g id="viewport">
<title>osdk&#45;core/api/src/dji_gimbal.cpp</title>
<polygon fill="white" stroke="none" points="-4,4 -4,-427 2055.9,-427 2055.9,4 -4,4"/>
<!-- Node1 -->
<g id="node1" class="node"><title>Node1</title>
<polygon fill="#bfbfbf" stroke="black" points="528.903,-392.5 528.903,-422.5 632.903,-422.5 632.903,-392.5 528.903,-392.5"/>
<text text-anchor="start" x="536.903" y="-410.5" font-family="Helvetica,sans-Serif" font-size="10.00">osdk&#45;core/api/src/dji</text>
<text text-anchor="middle" x="580.903" y="-399.5" font-family="Helvetica,sans-Serif" font-size="10.00">_gimbal.cpp</text>
</g>
<!-- Node2 -->
<g id="node2" class="node"><title>Node2</title>
<g id="a_node2"><a xlink:href="dji__gimbal_8hpp.html" target="_top" xlink:title="Gimbal API for OSDK library. ">
<polygon fill="white" stroke="black" points="22.4029,-224.5 22.4029,-243.5 101.403,-243.5 101.403,-224.5 22.4029,-224.5"/>
<text text-anchor="middle" x="61.9029" y="-231.5" font-family="Helvetica,sans-Serif" font-size="10.00">dji_gimbal.hpp</text>
</a>
</g>
</g>
<!-- Node1&#45;&gt;Node2 -->
<g id="edge1" class="edge"><title>Node1&#45;&gt;Node2</title>
<path fill="none" stroke="midnightblue" d="M528.717,-397.746C449.482,-383.393 295.032,-351.222 171.903,-300 138.75,-286.208 103.542,-263.869 82.1336,-249.306"/>
<polygon fill="midnightblue" stroke="midnightblue" points="84.068,-246.389 73.8498,-243.589 80.0917,-252.15 84.068,-246.389"/>
</g>
<!-- Node8 -->
<g id="node8" class="node"><title>Node8</title>
<g id="a_node8"><a xlink:href="dji__vehicle_8hpp.html" target="_top" xlink:title="Vehicle API for DJI onboardSDK library. ">
<polygon fill="white" stroke="black" points="1027.4,-336.5 1027.4,-355.5 1108.4,-355.5 1108.4,-336.5 1027.4,-336.5"/>
<text text-anchor="middle" x="1067.9" y="-343.5" font-family="Helvetica,sans-Serif" font-size="10.00">dji_vehicle.hpp</text>
</a>
</g>
</g>
<!-- Node1&#45;&gt;Node8 -->
<g id="edge9" class="edge"><title>Node1&#45;&gt;Node8</title>
<path fill="none" stroke="midnightblue" d="M633.02,-400.132C727.151,-388.632 924.362,-364.537 1017.34,-353.177"/>
<polygon fill="midnightblue" stroke="midnightblue" points="1017.85,-356.642 1027.35,-351.955 1017,-349.693 1017.85,-356.642"/>
</g>
<!-- Node3 -->
<g id="node3" class="node"><title>Node3</title>
<g id="a_node3"><a xlink:href="dji__command_8hpp.html" target="_top" xlink:title="All DJI OSDK OpenProtocol Command IDs. ">
<polygon fill="white" stroke="black" points="456.403,-112.5 456.403,-131.5 549.403,-131.5 549.403,-112.5 456.403,-112.5"/>
<text text-anchor="middle" x="502.903" y="-119.5" font-family="Helvetica,sans-Serif" font-size="10.00">dji_command.hpp</text>
</a>
</g>
</g>
<!-- Node2&#45;&gt;Node3 -->
<g id="edge2" class="edge"><title>Node2&#45;&gt;Node3</title>
<path fill="none" stroke="midnightblue" d="M89.5898,-224.488C132.484,-211.449 217.694,-186.138 290.903,-168 344.155,-154.807 405.521,-142.044 448.482,-133.501"/>
<polygon fill="midnightblue" stroke="midnightblue" points="449.315,-136.904 458.446,-131.53 447.957,-130.037 449.315,-136.904"/>
</g>
<!-- Node6 -->
<g id="node6" class="node"><title>Node6</title>
<g id="a_node6"><a xlink:href="dji__type_8hpp.html" target="_top" xlink:title="Data type and Data Structure definitions for use throughout DJI OSDK. ">
<polygon fill="white" stroke="black" points="311.403,-112.5 311.403,-131.5 380.403,-131.5 380.403,-112.5 311.403,-112.5"/>
<text text-anchor="middle" x="345.903" y="-119.5" font-family="Helvetica,sans-Serif" font-size="10.00">dji_type.hpp</text>
</a>
</g>
</g>
<!-- Node2&#45;&gt;Node6 -->
<g id="edge6" class="edge"><title>Node2&#45;&gt;Node6</title>
<path fill="none" stroke="midnightblue" d="M57.5265,-224.225C51.3709,-210.486 42.3356,-183.835 55.9029,-168 86.9065,-131.814 227.427,-124.484 300.872,-123.16"/>
<polygon fill="midnightblue" stroke="midnightblue" points="301.254,-126.655 311.2,-123.005 301.149,-119.655 301.254,-126.655"/>
</g>
<!-- Node4 -->
<g id="node4" class="node"><title>Node4</title>
<g id="a_node4"><a xlink:href="dji__error_8hpp.html" target="_top" xlink:title="All DJI OSDK OpenProtocol ACK Error Codes. ">
<polygon fill="white" stroke="black" points="414.903,-56.5 414.903,-75.5 484.903,-75.5 484.903,-56.5 414.903,-56.5"/>
<text text-anchor="middle" x="449.903" y="-63.5" font-family="Helvetica,sans-Serif" font-size="10.00">dji_error.hpp</text>
</a>
</g>
</g>
<!-- Node3&#45;&gt;Node4 -->
<g id="edge3" class="edge"><title>Node3&#45;&gt;Node4</title>
<path fill="none" stroke="midnightblue" d="M494.151,-112.083C486.433,-104.22 474.998,-92.5688 465.686,-83.0813"/>
<polygon fill="midnightblue" stroke="midnightblue" points="467.995,-80.4363 458.492,-75.7511 462.999,-85.3396 467.995,-80.4363"/>
</g>
<!-- Node5 -->
<g id="node5" class="node"><title>Node5</title>
<polygon fill="white" stroke="#bfbfbf" points="425.403,-0.5 425.403,-19.5 474.403,-19.5 474.403,-0.5 425.403,-0.5"/>
<text text-anchor="middle" x="449.903" y="-7.5" font-family="Helvetica,sans-Serif" font-size="10.00">stdint.h</text>
</g>
<!-- Node3&#45;&gt;Node5 -->
<g id="edge5" class="edge"><title>Node3&#45;&gt;Node5</title>
<path fill="none" stroke="midnightblue" d="M503.381,-112.083C503.713,-99.0672 502.931,-74.4121 493.903,-56 488.231,-44.4327 478.45,-33.9748 469.549,-26.0582"/>
<polygon fill="midnightblue" stroke="midnightblue" points="471.679,-23.2771 461.764,-19.5434 467.186,-28.6453 471.679,-23.2771"/>
</g>
<!-- Node4&#45;&gt;Node5 -->
<g id="edge4" class="edge"><title>Node4&#45;&gt;Node5</title>
<path fill="none" stroke="midnightblue" d="M449.903,-56.083C449.903,-49.0059 449.903,-38.8611 449.903,-29.9865"/>
<polygon fill="midnightblue" stroke="midnightblue" points="453.403,-29.751 449.903,-19.7511 446.403,-29.7511 453.403,-29.751"/>
</g>
<!-- Node6&#45;&gt;Node5 -->
<g id="edge8" class="edge"><title>Node6&#45;&gt;Node5</title>
<path fill="none" stroke="midnightblue" d="M353.975,-112.094C365.422,-99.5016 387.074,-75.8183 405.903,-56 415.237,-46.1749 425.855,-35.3071 434.322,-26.7132"/>
<polygon fill="midnightblue" stroke="midnightblue" points="436.855,-29.1289 441.394,-19.5554 431.876,-24.2091 436.855,-29.1289"/>
</g>
<!-- Node7 -->
<g id="node7" class="node"><title>Node7</title>
<polygon fill="white" stroke="#bfbfbf" points="315.403,-56.5 315.403,-75.5 358.403,-75.5 358.403,-56.5 315.403,-56.5"/>
<text text-anchor="middle" x="336.903" y="-63.5" font-family="Helvetica,sans-Serif" font-size="10.00">cstdio</text>
</g>
<!-- Node6&#45;&gt;Node7 -->
<g id="edge7" class="edge"><title>Node6&#45;&gt;Node7</title>
<path fill="none" stroke="midnightblue" d="M344.417,-112.083C343.224,-104.927 341.509,-94.6353 340.018,-85.6911"/>
<polygon fill="midnightblue" stroke="midnightblue" points="343.458,-85.0396 338.361,-75.7511 336.553,-86.1904 343.458,-85.0396"/>
</g>
<!-- Node8&#45;&gt;Node2 -->
<g id="edge34" class="edge"><title>Node8&#45;&gt;Node2</title>
<path fill="none" stroke="midnightblue" d="M1027.23,-344.266C883.558,-341.442 400.489,-329.894 248.903,-300 190.801,-288.542 126.2,-263.063 90.1679,-247.627"/>
<polygon fill="midnightblue" stroke="midnightblue" points="91.3587,-244.328 80.7918,-243.559 88.5729,-250.75 91.3587,-244.328"/>
</g>
<!-- Node8&#45;&gt;Node3 -->
<g id="edge20" class="edge"><title>Node8&#45;&gt;Node3</title>
<path fill="none" stroke="midnightblue" d="M1036.03,-336.473C995.778,-323.798 928.251,-295.729 898.903,-244 894.517,-236.269 895.391,-232.166 898.903,-224 908.095,-202.629 927.71,-209.371 936.903,-188 940.415,-179.834 942.883,-174.577 936.903,-168 910.016,-138.431 632.435,-137.379 559.773,-131.731"/>
<polygon fill="midnightblue" stroke="midnightblue" points="559.914,-128.228 549.621,-130.739 559.234,-135.195 559.914,-128.228"/>
</g>
<!-- Node8&#45;&gt;Node6 -->
<g id="edge66" class="edge"><title>Node8&#45;&gt;Node6</title>
<path fill="none" stroke="midnightblue" d="M1027.39,-344.513C875.377,-342.445 339.143,-332.929 171.903,-300 98.3927,-285.526 56.1956,-305.147 12.9029,-244 -59.5909,-141.609 194.8,-125.565 301.226,-123.274"/>
<polygon fill="midnightblue" stroke="midnightblue" points="301.414,-126.771 311.348,-123.088 301.285,-119.772 301.414,-126.771"/>
</g>
<!-- Node9 -->
<g id="node9" class="node"><title>Node9</title>
<polygon fill="white" stroke="#bfbfbf" points="567.903,-112.5 567.903,-131.5 613.903,-131.5 613.903,-112.5 567.903,-112.5"/>
<text text-anchor="middle" x="590.903" y="-119.5" font-family="Helvetica,sans-Serif" font-size="10.00">cstdint</text>
</g>
<!-- Node8&#45;&gt;Node9 -->
<g id="edge10" class="edge"><title>Node8&#45;&gt;Node9</title>
<path fill="none" stroke="midnightblue" d="M1066.26,-336.217C1060.07,-306.084 1035.2,-206.64 969.903,-168 911.714,-133.564 705.429,-125.434 624.159,-123.553"/>
<polygon fill="midnightblue" stroke="midnightblue" points="624.066,-120.05 613.993,-123.335 623.916,-127.048 624.066,-120.05"/>
</g>
<!-- Node10 -->
<g id="node10" class="node"><title>Node10</title>
<g id="a_node10"><a xlink:href="dji__broadcast_8hpp.html" target="_top" xlink:title="Broadcast Telemetry API for DJI onboardSDK library. ">
<polygon fill="white" stroke="black" points="908.403,-224.5 908.403,-243.5 1001.4,-243.5 1001.4,-224.5 908.403,-224.5"/>
<text text-anchor="middle" x="954.903" y="-231.5" font-family="Helvetica,sans-Serif" font-size="10.00">dji_broadcast.hpp</text>
</a>
</g>
</g>
<!-- Node8&#45;&gt;Node10 -->
<g id="edge11" class="edge"><title>Node8&#45;&gt;Node10</title>
<path fill="none" stroke="midnightblue" d="M1057.26,-336.344C1046.55,-327.502 1029.68,-313.232 1015.9,-300 999.266,-284.02 981.322,-264.612 969.233,-251.185"/>
<polygon fill="midnightblue" stroke="midnightblue" points="971.801,-248.806 962.527,-243.683 966.582,-253.471 971.801,-248.806"/>
</g>
<!-- Node12 -->
<g id="node12" class="node"><title>Node12</title>
<g id="a_node12"><a xlink:href="dji__vehicle__callback_8hpp.html" target="_top" xlink:title="Type definition for new Vehicle&#45;style callbacks. ">
<polygon fill="white" stroke="black" points="1187.9,-112.5 1187.9,-131.5 1309.9,-131.5 1309.9,-112.5 1187.9,-112.5"/>
<text text-anchor="middle" x="1248.9" y="-119.5" font-family="Helvetica,sans-Serif" font-size="10.00">dji_vehicle_callback.hpp</text>
</a>
</g>
</g>
<!-- Node8&#45;&gt;Node12 -->
<g id="edge67" class="edge"><title>Node8&#45;&gt;Node12</title>
<path fill="none" stroke="midnightblue" d="M1108.6,-344.571C1283.5,-342.53 1963.92,-332.52 1994.9,-300 2091.57,-198.529 1524.49,-144.233 1320.18,-128.157"/>
<polygon fill="midnightblue" stroke="midnightblue" points="1320.39,-124.663 1310.14,-127.376 1319.84,-131.642 1320.39,-124.663"/>
</g>
<!-- Node13 -->
<g id="node13" class="node"><title>Node13</title>
<polygon fill="white" stroke="#bfbfbf" points="976.403,-56.5 976.403,-75.5 1087.4,-75.5 1087.4,-56.5 976.403,-56.5"/>
<text text-anchor="middle" x="1031.9" y="-63.5" font-family="Helvetica,sans-Serif" font-size="10.00">dji_open_protocol.hpp</text>
</g>
<!-- Node8&#45;&gt;Node13 -->
<g id="edge58" class="edge"><title>Node8&#45;&gt;Node13</title>
<path fill="none" stroke="midnightblue" d="M1108.53,-345.326C1279.55,-346.396 1935.72,-347.36 2013.9,-300 2042.52,-282.662 2051.9,-268.463 2051.9,-235 2051.9,-235 2051.9,-235 2051.9,-177 2051.9,-80.6319 1322.9,-68.5859 1097.5,-67.1645"/>
<polygon fill="midnightblue" stroke="midnightblue" points="1097.49,-63.6645 1087.47,-67.1063 1097.45,-70.6644 1097.49,-63.6645"/>
</g>
<!-- Node14 -->
<g id="node14" class="node"><title>Node14</title>
<g id="a_node14"><a xlink:href="dji__camera_8hpp.html" target="_top" xlink:title="Camera/Gimbal API for DJI onboardSDK library. ">
<polygon fill="white" stroke="black" points="392.403,-168.5 392.403,-187.5 475.403,-187.5 475.403,-168.5 392.403,-168.5"/>
<text text-anchor="middle" x="433.903" y="-175.5" font-family="Helvetica,sans-Serif" font-size="10.00">dji_camera.hpp</text>
</a>
</g>
</g>
<!-- Node8&#45;&gt;Node14 -->
<g id="edge16" class="edge"><title>Node8&#45;&gt;Node14</title>
<path fill="none" stroke="midnightblue" d="M1027.26,-344.605C923.446,-343.082 650.958,-335.698 568.903,-300 515.228,-276.649 468.292,-223.367 446.631,-195.965"/>
<polygon fill="midnightblue" stroke="midnightblue" points="449.164,-193.519 440.281,-187.745 443.625,-197.799 449.164,-193.519"/>
</g>
<!-- Node15 -->
<g id="node15" class="node"><title>Node15</title>
<polygon fill="white" stroke="#bfbfbf" points="1377.9,-280.5 1377.9,-299.5 1489.9,-299.5 1489.9,-280.5 1377.9,-280.5"/>
<text text-anchor="middle" x="1433.9" y="-287.5" font-family="Helvetica,sans-Serif" font-size="10.00">dji_circular_buffer.hpp</text>
</g>
<!-- Node8&#45;&gt;Node15 -->
<g id="edge19" class="edge"><title>Node8&#45;&gt;Node15</title>
<path fill="none" stroke="midnightblue" d="M1108.47,-339.015C1171.04,-329.783 1291.75,-311.973 1367.27,-300.831"/>
<polygon fill="midnightblue" stroke="midnightblue" points="1368.24,-304.227 1377.62,-299.304 1367.21,-297.302 1368.24,-304.227"/>
</g>
<!-- Node16 -->
<g id="node16" class="node"><title>Node16</title>
<g id="a_node16"><a xlink:href="dji__control_8hpp.html" target="_top" xlink:title="Control API for DJI OSDK library. ">
<polygon fill="white" stroke="black" points="383.903,-280.5 383.903,-299.5 463.903,-299.5 463.903,-280.5 383.903,-280.5"/>
<text text-anchor="middle" x="423.903" y="-287.5" font-family="Helvetica,sans-Serif" font-size="10.00">dji_control.hpp</text>
</a>
</g>
</g>
<!-- Node8&#45;&gt;Node16 -->
<g id="edge21" class="edge"><title>Node8&#45;&gt;Node16</title>
<path fill="none" stroke="midnightblue" d="M1027.36,-343.154C931.541,-338.52 683.65,-324.942 477.903,-300 476.629,-299.846 475.34,-299.682 474.039,-299.512"/>
<polygon fill="midnightblue" stroke="midnightblue" points="474.342,-296.02 463.95,-298.082 473.36,-302.951 474.342,-296.02"/>
</g>
<!-- Node19 -->
<g id="node19" class="node"><title>Node19</title>
<g id="a_node19"><a xlink:href="dji__version_8hpp.html" target="_top" xlink:title="Drone/SDK Version definition for DJI onboardSDK library. ">
<polygon fill="white" stroke="black" points="531.903,-168.5 531.903,-187.5 613.903,-187.5 613.903,-168.5 531.903,-168.5"/>
<text text-anchor="middle" x="572.903" y="-175.5" font-family="Helvetica,sans-Serif" font-size="10.00">dji_version.hpp</text>
</a>
</g>
</g>
<!-- Node8&#45;&gt;Node19 -->
<g id="edge68" class="edge"><title>Node8&#45;&gt;Node19</title>
<path fill="none" stroke="midnightblue" d="M1027.24,-338.906C985.87,-332.022 920.275,-319.212 865.903,-300 813.054,-281.326 802.818,-269.499 752.903,-244 735.907,-235.318 732.513,-231.356 714.903,-224 682.137,-210.313 643.668,-198.362 615.04,-190.223"/>
<polygon fill="midnightblue" stroke="midnightblue" points="615.924,-186.836 605.35,-187.507 614.034,-193.576 615.924,-186.836"/>
</g>
<!-- Node21 -->
<g id="node21" class="node"><title>Node21</title>
<polygon fill="white" stroke="#bfbfbf" points="1507.9,-280.5 1507.9,-299.5 1605.9,-299.5 1605.9,-280.5 1507.9,-280.5"/>
<text text-anchor="middle" x="1556.9" y="-287.5" font-family="Helvetica,sans-Serif" font-size="10.00">dji_hard_driver.hpp</text>
</g>
<!-- Node8&#45;&gt;Node21 -->
<g id="edge35" class="edge"><title>Node8&#45;&gt;Node21</title>
<path fill="none" stroke="midnightblue" d="M1108.69,-341.426C1183.57,-334.715 1348.23,-319.271 1497.61,-300.11"/>
<polygon fill="midnightblue" stroke="midnightblue" points="1498.41,-303.535 1507.88,-298.783 1497.51,-296.593 1498.41,-303.535"/>
</g>
<!-- Node22 -->
<g id="node22" class="node"><title>Node22</title>
<g id="a_node22"><a xlink:href="dji__hardware__sync_8hpp.html" target="_top" xlink:title="Hardware Sync API for DJI OSDK. ">
<polygon fill="white" stroke="black" points="1059.9,-168.5 1059.9,-187.5 1175.9,-187.5 1175.9,-168.5 1059.9,-168.5"/>
<text text-anchor="middle" x="1117.9" y="-175.5" font-family="Helvetica,sans-Serif" font-size="10.00">dji_hardware_sync.hpp</text>
</a>
</g>
</g>
<!-- Node8&#45;&gt;Node22 -->
<g id="edge36" class="edge"><title>Node8&#45;&gt;Node22</title>
<path fill="none" stroke="midnightblue" d="M1075.73,-336.387C1087.3,-323.749 1109.77,-299.56 1129.9,-280 1147.06,-263.334 1160.17,-265.849 1169.9,-244 1178.61,-224.439 1159.82,-205.746 1142.44,-193.47"/>
<polygon fill="midnightblue" stroke="midnightblue" points="1143.91,-190.247 1133.64,-187.664 1140.06,-196.091 1143.91,-190.247"/>
</g>
<!-- Node25 -->
<g id="node25" class="node"><title>Node25</title>
<g id="a_node25"><a xlink:href="dji__mfio_8hpp.html" target="_top" xlink:title="MFIO API for DJI OSDK library. ">
<polygon fill="white" stroke="black" points="1270.4,-168.5 1270.4,-187.5 1339.4,-187.5 1339.4,-168.5 1270.4,-168.5"/>
<text text-anchor="middle" x="1304.9" y="-175.5" font-family="Helvetica,sans-Serif" font-size="10.00">dji_mfio.hpp</text>
</a>
</g>
</g>
<!-- Node8&#45;&gt;Node25 -->
<g id="edge41" class="edge"><title>Node8&#45;&gt;Node25</title>
<path fill="none" stroke="midnightblue" d="M1080.31,-336.309C1118.79,-309.36 1236.36,-227.01 1284.26,-193.457"/>
<polygon fill="midnightblue" stroke="midnightblue" points="1286.43,-196.209 1292.62,-187.605 1282.42,-190.475 1286.43,-196.209"/>
</g>
<!-- Node26 -->
<g id="node26" class="node"><title>Node26</title>
<g id="a_node26"><a xlink:href="dji__mission__manager_8hpp.html" target="_top" xlink:title="Mission&#45;Manager API for DJI OSDK library. ">
<polygon fill="white" stroke="black" points="578.403,-280.5 578.403,-299.5 705.403,-299.5 705.403,-280.5 578.403,-280.5"/>
<text text-anchor="middle" x="641.903" y="-287.5" font-family="Helvetica,sans-Serif" font-size="10.00">dji_mission_manager.hpp</text>
</a>
</g>
</g>
<!-- Node8&#45;&gt;Node26 -->
<g id="edge43" class="edge"><title>Node8&#45;&gt;Node26</title>
<path fill="none" stroke="midnightblue" d="M1027.06,-339.822C955.369,-330.735 805.977,-311.798 715.771,-300.364"/>
<polygon fill="midnightblue" stroke="midnightblue" points="715.974,-296.861 705.613,-299.076 715.093,-303.806 715.974,-296.861"/>
</g>
<!-- Node31 -->
<g id="node31" class="node"><title>Node31</title>
<g id="a_node31"><a xlink:href="dji__mobile__communication_8hpp.html" target="_top" xlink:title="Implementation of DJI Mobile&#45;Onboard SDK Communication (MOC) ">
<polygon fill="white" stroke="black" points="1171.9,-280.5 1171.9,-299.5 1321.9,-299.5 1321.9,-280.5 1171.9,-280.5"/>
<text text-anchor="middle" x="1246.9" y="-287.5" font-family="Helvetica,sans-Serif" font-size="10.00">dji_mobile_communication.hpp</text>
</a>
</g>
</g>
<!-- Node8&#45;&gt;Node31 -->
<g id="edge53" class="edge"><title>Node8&#45;&gt;Node31</title>
<path fill="none" stroke="midnightblue" d="M1096.27,-336.444C1126.64,-327.28 1175.01,-312.688 1208.72,-302.519"/>
<polygon fill="midnightblue" stroke="midnightblue" points="1210.11,-305.756 1218.67,-299.516 1208.09,-299.054 1210.11,-305.756"/>
</g>
<!-- Node33 -->
<g id="node33" class="node"><title>Node33</title>
<g id="a_node33"><a xlink:href="dji__mobile__device_8hpp.html" target="_top" xlink:title="Implementation of DJI Mobile Device Abstraction. ">
<polygon fill="white" stroke="black" points="1396.4,-224.5 1396.4,-243.5 1509.4,-243.5 1509.4,-224.5 1396.4,-224.5"/>
<text text-anchor="middle" x="1452.9" y="-231.5" font-family="Helvetica,sans-Serif" font-size="10.00">dji_mobile_device.hpp</text>
</a>
</g>
</g>
<!-- Node8&#45;&gt;Node33 -->
<g id="edge56" class="edge"><title>Node8&#45;&gt;Node33</title>
<path fill="none" stroke="midnightblue" d="M1108.55,-342.094C1161.09,-337.431 1254.86,-326.005 1330.9,-300 1332.18,-299.563 1392.02,-267.581 1427.41,-248.647"/>
<polygon fill="midnightblue" stroke="midnightblue" points="1429.51,-251.494 1436.67,-243.69 1426.2,-245.322 1429.51,-251.494"/>
</g>
<!-- Node34 -->
<g id="node34" class="node"><title>Node34</title>
<polygon fill="white" stroke="#bfbfbf" points="1623.9,-280.5 1623.9,-299.5 1751.9,-299.5 1751.9,-280.5 1623.9,-280.5"/>
<text text-anchor="middle" x="1687.9" y="-287.5" font-family="Helvetica,sans-Serif" font-size="10.00">dji_platform_manager.hpp</text>
</g>
<!-- Node8&#45;&gt;Node34 -->
<g id="edge59" class="edge"><title>Node8&#45;&gt;Node34</title>
<path fill="none" stroke="midnightblue" d="M1108.44,-342.231C1197.69,-336.012 1418.1,-319.987 1613.65,-300.091"/>
<polygon fill="midnightblue" stroke="midnightblue" points="1614.23,-303.549 1623.83,-299.049 1613.52,-296.585 1614.23,-303.549"/>
</g>
<!-- Node35 -->
<g id="node35" class="node"><title>Node35</title>
<g id="a_node35"><a xlink:href="dji__status_8hpp.html" target="_top" xlink:title="Status information for DJI Vehicle. ">
<polygon fill="white" stroke="black" points="1770.4,-280.5 1770.4,-299.5 1847.4,-299.5 1847.4,-280.5 1770.4,-280.5"/>
<text text-anchor="middle" x="1808.9" y="-287.5" font-family="Helvetica,sans-Serif" font-size="10.00">dji_status.hpp</text>
</a>
</g>
</g>
<!-- Node8&#45;&gt;Node35 -->
<g id="edge60" class="edge"><title>Node8&#45;&gt;Node35</title>
<path fill="none" stroke="midnightblue" d="M1108.68,-344.067C1214.5,-341.281 1506.64,-331.258 1760.06,-299.939"/>
<polygon fill="midnightblue" stroke="midnightblue" points="1760.7,-303.386 1770.19,-298.672 1759.84,-296.44 1760.7,-303.386"/>
</g>
<!-- Node36 -->
<g id="node36" class="node"><title>Node36</title>
<g id="a_node36"><a xlink:href="dji__subscription_8hpp.html" target="_top" xlink:title="Telemetry Subscription API for DJI OSDK library. ">
<polygon fill="white" stroke="black" points="1058.4,-224.5 1058.4,-243.5 1161.4,-243.5 1161.4,-224.5 1058.4,-224.5"/>
<text text-anchor="middle" x="1109.9" y="-231.5" font-family="Helvetica,sans-Serif" font-size="10.00">dji_subscription.hpp</text>
</a>
</g>
</g>
<!-- Node8&#45;&gt;Node36 -->
<g id="edge61" class="edge"><title>Node8&#45;&gt;Node36</title>
<path fill="none" stroke="midnightblue" d="M1071.09,-336.14C1075.62,-323.604 1084.22,-299.986 1091.9,-280 1095.34,-271.054 1099.29,-261.16 1102.6,-252.933"/>
<polygon fill="midnightblue" stroke="midnightblue" points="1105.87,-254.182 1106.38,-243.6 1099.38,-251.554 1105.87,-254.182"/>
</g>
<!-- Node37 -->
<g id="node37" class="node"><title>Node37</title>
<polygon fill="white" stroke="#bfbfbf" points="1865.9,-280.5 1865.9,-299.5 1985.9,-299.5 1985.9,-280.5 1865.9,-280.5"/>
<text text-anchor="middle" x="1925.9" y="-287.5" font-family="Helvetica,sans-Serif" font-size="10.00">dji_thread_manager.hpp</text>
</g>
<!-- Node8&#45;&gt;Node37 -->
<g id="edge65" class="edge"><title>Node8&#45;&gt;Node37</title>
<path fill="none" stroke="midnightblue" d="M1108.63,-343.723C1223.99,-339.884 1562.99,-327.063 1855.34,-300.078"/>
<polygon fill="midnightblue" stroke="midnightblue" points="1856.09,-303.523 1865.72,-299.112 1855.44,-296.553 1856.09,-303.523"/>
</g>
<!-- Node38 -->
<g id="node38" class="node"><title>Node38</title>
<g id="a_node38"><a xlink:href="dji__virtual__rc_8hpp.html" target="_top" xlink:title="Virtual Radio Control API for DJI onboardSDK library. ">
<polygon fill="white" stroke="black" points="257.903,-280.5 257.903,-299.5 347.903,-299.5 347.903,-280.5 257.903,-280.5"/>
<text text-anchor="middle" x="302.903" y="-287.5" font-family="Helvetica,sans-Serif" font-size="10.00">dji_virtual_rc.hpp</text>
</a>
</g>
</g>
<!-- Node8&#45;&gt;Node38 -->
<g id="edge69" class="edge"><title>Node8&#45;&gt;Node38</title>
<path fill="none" stroke="midnightblue" d="M1027.22,-343.206C920.22,-338.303 622.158,-323.46 374.903,-300 369.495,-299.487 363.865,-298.891 358.243,-298.255"/>
<polygon fill="midnightblue" stroke="midnightblue" points="358.518,-294.764 348.179,-297.077 357.704,-301.716 358.518,-294.764"/>
</g>
<!-- Node11 -->
<g id="node11" class="node"><title>Node11</title>
<g id="a_node11"><a xlink:href="dji__telemetry_8hpp.html" target="_top" xlink:title="Enumeration of all telemetry data types, structures and maps. ">
<polygon fill="white" stroke="black" points="708.403,-168.5 708.403,-187.5 799.403,-187.5 799.403,-168.5 708.403,-168.5"/>
<text text-anchor="middle" x="753.903" y="-175.5" font-family="Helvetica,sans-Serif" font-size="10.00">dji_telemetry.hpp</text>
</a>
</g>
</g>
<!-- Node10&#45;&gt;Node11 -->
<g id="edge12" class="edge"><title>Node10&#45;&gt;Node11</title>
<path fill="none" stroke="midnightblue" d="M923.054,-224.444C888.504,-215.162 833.221,-200.309 795.32,-190.127"/>
<polygon fill="midnightblue" stroke="midnightblue" points="796.169,-186.731 785.603,-187.516 794.352,-193.491 796.169,-186.731"/>
</g>
<!-- Node10&#45;&gt;Node12 -->
<g id="edge14" class="edge"><title>Node10&#45;&gt;Node12</title>
<path fill="none" stroke="midnightblue" d="M1001.48,-227.198C1059.22,-219.44 1153.81,-204.71 1184.9,-188 1206.39,-176.451 1225.19,-155.268 1236.76,-140.226"/>
<polygon fill="midnightblue" stroke="midnightblue" points="1239.86,-141.917 1242.98,-131.794 1234.23,-137.759 1239.86,-141.917"/>
</g>
<!-- Node11&#45;&gt;Node6 -->
<g id="edge13" class="edge"><title>Node11&#45;&gt;Node6</title>
<path fill="none" stroke="midnightblue" d="M708.288,-170.963C629.481,-160.532 468.789,-139.264 390.614,-128.918"/>
<polygon fill="midnightblue" stroke="midnightblue" points="390.971,-125.434 380.598,-127.592 390.052,-132.374 390.971,-125.434"/>
</g>
<!-- Node12&#45;&gt;Node13 -->
<g id="edge15" class="edge"><title>Node12&#45;&gt;Node13</title>
<path fill="none" stroke="midnightblue" d="M1214.52,-112.444C1176.98,-103.102 1116.77,-88.1194 1075.84,-77.9326"/>
<polygon fill="midnightblue" stroke="midnightblue" points="1076.68,-74.5349 1066.13,-75.5164 1074.99,-81.3278 1076.68,-74.5349"/>
</g>
<!-- Node14&#45;&gt;Node3 -->
<g id="edge17" class="edge"><title>Node14&#45;&gt;Node3</title>
<path fill="none" stroke="midnightblue" d="M444.989,-168.324C455.389,-160.185 471.164,-147.839 483.624,-138.087"/>
<polygon fill="midnightblue" stroke="midnightblue" points="485.897,-140.753 491.615,-131.834 481.583,-135.241 485.897,-140.753"/>
</g>
<!-- Node14&#45;&gt;Node6 -->
<g id="edge18" class="edge"><title>Node14&#45;&gt;Node6</title>
<path fill="none" stroke="midnightblue" d="M419.764,-168.324C406.037,-159.9 384.967,-146.971 368.839,-137.074"/>
<polygon fill="midnightblue" stroke="midnightblue" points="370.36,-133.902 360.007,-131.655 366.699,-139.868 370.36,-133.902"/>
</g>
<!-- Node16&#45;&gt;Node6 -->
<g id="edge32" class="edge"><title>Node16&#45;&gt;Node6</title>
<path fill="none" stroke="midnightblue" d="M419.709,-280.075C407.325,-253.719 370.749,-175.878 354.201,-140.661"/>
<polygon fill="midnightblue" stroke="midnightblue" points="357.349,-139.13 349.929,-131.568 351.014,-142.107 357.349,-139.13"/>
</g>
<!-- Node16&#45;&gt;Node12 -->
<g id="edge33" class="edge"><title>Node16&#45;&gt;Node12</title>
<path fill="none" stroke="midnightblue" d="M438.55,-280.431C461.535,-267.204 507.71,-241.515 548.903,-224 595.077,-204.367 609.306,-206.609 655.903,-188 675.477,-180.183 678.508,-173.319 698.903,-168 902.778,-114.832 964.214,-152.47 1177.88,-132.029"/>
<polygon fill="midnightblue" stroke="midnightblue" points="1178.23,-135.511 1187.84,-131.044 1177.55,-128.545 1178.23,-135.511"/>
</g>
<!-- Node16&#45;&gt;Node13 -->
<g id="edge31" class="edge"><title>Node16&#45;&gt;Node13</title>
<path fill="none" stroke="midnightblue" d="M432.292,-280.117C445.871,-266.23 474.068,-239.379 502.903,-224 552.033,-197.796 572.019,-210.611 622.903,-188 638.575,-181.036 640.131,-174.736 655.903,-168 763.358,-122.106 897.143,-92.139 972.7,-77.5158"/>
<polygon fill="midnightblue" stroke="midnightblue" points="973.8,-80.8689 982.966,-75.5542 972.487,-73.9933 973.8,-80.8689"/>
</g>
<!-- Node17 -->
<g id="node17" class="node"><title>Node17</title>
<g id="a_node17"><a xlink:href="dji__ack_8hpp.html" target="_top" xlink:title="All DJI OSDK ACK parsing. ">
<polygon fill="white" stroke="black" points="269.903,-224.5 269.903,-243.5 335.903,-243.5 335.903,-224.5 269.903,-224.5"/>
<text text-anchor="middle" x="302.903" y="-231.5" font-family="Helvetica,sans-Serif" font-size="10.00">dji_ack.hpp</text>
</a>
</g>
</g>
<!-- Node16&#45;&gt;Node17 -->
<g id="edge22" class="edge"><title>Node16&#45;&gt;Node17</title>
<path fill="none" stroke="midnightblue" d="M404.73,-280.444C384.994,-271.636 354.018,-257.812 331.41,-247.722"/>
<polygon fill="midnightblue" stroke="midnightblue" points="332.544,-244.396 321.986,-243.516 329.691,-250.788 332.544,-244.396"/>
</g>
<!-- Node17&#45;&gt;Node3 -->
<g id="edge23" class="edge"><title>Node17&#45;&gt;Node3</title>
<path fill="none" stroke="midnightblue" d="M336.116,-228.738C382.387,-222.153 462.94,-208.127 483.903,-188 496.35,-176.05 500.77,-156.438 502.276,-141.877"/>
<polygon fill="midnightblue" stroke="midnightblue" points="505.793,-141.733 502.956,-131.525 498.808,-141.274 505.793,-141.733"/>
</g>
<!-- Node17&#45;&gt;Node6 -->
<g id="edge26" class="edge"><title>Node17&#45;&gt;Node6</title>
<path fill="none" stroke="midnightblue" d="M298.019,-224.151C291.584,-211.218 282.057,-186.666 290.903,-168 297.031,-155.068 308.897,-144.617 320.043,-137.053"/>
<polygon fill="midnightblue" stroke="midnightblue" points="322.098,-139.896 328.705,-131.614 318.375,-133.968 322.098,-139.896"/>
</g>
<!-- Node18 -->
<g id="node18" class="node"><title>Node18</title>
<g id="a_node18"><a xlink:href="dji__mission__type_8hpp.html" target="_top" xlink:title="Mission related data struct for DJI OSDK library. ">
<polygon fill="white" stroke="black" points="97.9029,-168.5 97.9029,-187.5 205.903,-187.5 205.903,-168.5 97.9029,-168.5"/>
<text text-anchor="middle" x="151.903" y="-175.5" font-family="Helvetica,sans-Serif" font-size="10.00">dji_mission_type.hpp</text>
</a>
</g>
</g>
<!-- Node17&#45;&gt;Node18 -->
<g id="edge24" class="edge"><title>Node17&#45;&gt;Node18</title>
<path fill="none" stroke="midnightblue" d="M278.976,-224.444C253.684,-215.399 213.6,-201.064 185.223,-190.916"/>
<polygon fill="midnightblue" stroke="midnightblue" points="186.312,-187.588 175.717,-187.516 183.955,-194.179 186.312,-187.588"/>
</g>
<!-- Node17&#45;&gt;Node19 -->
<g id="edge27" class="edge"><title>Node17&#45;&gt;Node19</title>
<path fill="none" stroke="midnightblue" d="M336.01,-226.379C382.408,-217.099 467.196,-200.141 521.747,-189.231"/>
<polygon fill="midnightblue" stroke="midnightblue" points="522.446,-192.661 531.565,-187.268 521.073,-185.797 522.446,-192.661"/>
</g>
<!-- Node20 -->
<g id="node20" class="node"><title>Node20</title>
<polygon fill="white" stroke="#bfbfbf" points="300.403,-168.5 300.403,-187.5 335.403,-187.5 335.403,-168.5 300.403,-168.5"/>
<text text-anchor="middle" x="317.903" y="-175.5" font-family="Helvetica,sans-Serif" font-size="10.00">map</text>
</g>
<!-- Node17&#45;&gt;Node20 -->
<g id="edge30" class="edge"><title>Node17&#45;&gt;Node20</title>
<path fill="none" stroke="midnightblue" d="M305.38,-224.083C307.389,-216.849 310.289,-206.409 312.793,-197.397"/>
<polygon fill="midnightblue" stroke="midnightblue" points="316.168,-198.323 315.472,-187.751 309.423,-196.449 316.168,-198.323"/>
</g>
<!-- Node18&#45;&gt;Node6 -->
<g id="edge25" class="edge"><title>Node18&#45;&gt;Node6</title>
<path fill="none" stroke="midnightblue" d="M182.643,-168.444C215.847,-159.201 268.894,-144.436 305.46,-134.257"/>
<polygon fill="midnightblue" stroke="midnightblue" points="306.612,-137.57 315.307,-131.516 304.734,-130.826 306.612,-137.57"/>
</g>
<!-- Node19&#45;&gt;Node3 -->
<g id="edge28" class="edge"><title>Node19&#45;&gt;Node3</title>
<path fill="none" stroke="midnightblue" d="M561.656,-168.324C551.105,-160.185 535.102,-147.839 522.461,-138.087"/>
<polygon fill="midnightblue" stroke="midnightblue" points="524.41,-135.171 514.354,-131.834 520.134,-140.713 524.41,-135.171"/>
</g>
<!-- Node19&#45;&gt;Node9 -->
<g id="edge29" class="edge"><title>Node19&#45;&gt;Node9</title>
<path fill="none" stroke="midnightblue" d="M575.875,-168.083C578.287,-160.849 581.767,-150.409 584.771,-141.397"/>
<polygon fill="midnightblue" stroke="midnightblue" points="588.144,-142.345 587.986,-131.751 581.503,-140.131 588.144,-142.345"/>
</g>
<!-- Node22&#45;&gt;Node6 -->
<g id="edge37" class="edge"><title>Node22&#45;&gt;Node6</title>
<path fill="none" stroke="midnightblue" d="M1059.53,-173.517C943.011,-166.469 673.302,-149.677 446.903,-132 428.417,-130.557 408.045,-128.777 390.469,-127.183"/>
<polygon fill="midnightblue" stroke="midnightblue" points="390.756,-123.695 380.479,-126.27 390.118,-130.666 390.756,-123.695"/>
</g>
<!-- Node22&#45;&gt;Node12 -->
<g id="edge38" class="edge"><title>Node22&#45;&gt;Node12</title>
<path fill="none" stroke="midnightblue" d="M1138.66,-168.444C1160.22,-159.557 1194.17,-145.563 1218.7,-135.451"/>
<polygon fill="midnightblue" stroke="midnightblue" points="1220.33,-138.563 1228.24,-131.516 1217.66,-132.092 1220.33,-138.563"/>
</g>
<!-- Node23 -->
<g id="node23" class="node"><title>Node23</title>
<polygon fill="white" stroke="#bfbfbf" points="1123.9,-112.5 1123.9,-131.5 1169.9,-131.5 1169.9,-112.5 1123.9,-112.5"/>
<text text-anchor="middle" x="1146.9" y="-119.5" font-family="Helvetica,sans-Serif" font-size="10.00">chrono</text>
</g>
<!-- Node22&#45;&gt;Node23 -->
<g id="edge39" class="edge"><title>Node22&#45;&gt;Node23</title>
<path fill="none" stroke="midnightblue" d="M1122.69,-168.083C1126.66,-160.691 1132.43,-149.953 1137.34,-140.811"/>
<polygon fill="midnightblue" stroke="midnightblue" points="1140.56,-142.217 1142.2,-131.751 1134.39,-138.905 1140.56,-142.217"/>
</g>
<!-- Node24 -->
<g id="node24" class="node"><title>Node24</title>
<polygon fill="white" stroke="#bfbfbf" points="1059.9,-112.5 1059.9,-131.5 1105.9,-131.5 1105.9,-112.5 1059.9,-112.5"/>
<text text-anchor="middle" x="1082.9" y="-119.5" font-family="Helvetica,sans-Serif" font-size="10.00">atomic</text>
</g>
<!-- Node22&#45;&gt;Node24 -->
<g id="edge40" class="edge"><title>Node22&#45;&gt;Node24</title>
<path fill="none" stroke="midnightblue" d="M1112.12,-168.083C1107.23,-160.534 1100.08,-149.495 1094.07,-140.23"/>
<polygon fill="midnightblue" stroke="midnightblue" points="1096.95,-138.239 1088.57,-131.751 1091.08,-142.046 1096.95,-138.239"/>
</g>
<!-- Node25&#45;&gt;Node12 -->
<g id="edge42" class="edge"><title>Node25&#45;&gt;Node12</title>
<path fill="none" stroke="midnightblue" d="M1295.91,-168.324C1287.71,-160.42 1275.4,-148.548 1265.43,-138.938"/>
<polygon fill="midnightblue" stroke="midnightblue" points="1267.69,-136.256 1258.06,-131.834 1262.83,-141.295 1267.69,-136.256"/>
</g>
<!-- Node27 -->
<g id="node27" class="node"><title>Node27</title>
<g id="a_node27"><a xlink:href="dji__hotpoint_8hpp.html" target="_top" xlink:title="Implementation of HotPoint (Point of Interest) Missions for DJI OSDK. ">
<polygon fill="white" stroke="black" points="558.403,-224.5 558.403,-243.5 643.403,-243.5 643.403,-224.5 558.403,-224.5"/>
<text text-anchor="middle" x="600.903" y="-231.5" font-family="Helvetica,sans-Serif" font-size="10.00">dji_hotpoint.hpp</text>
</a>
</g>
</g>
<!-- Node26&#45;&gt;Node27 -->
<g id="edge44" class="edge"><title>Node26&#45;&gt;Node27</title>
<path fill="none" stroke="midnightblue" d="M635.133,-280.083C629.341,-272.455 620.844,-261.264 613.765,-251.941"/>
<polygon fill="midnightblue" stroke="midnightblue" points="616.382,-249.599 607.547,-243.751 610.807,-253.832 616.382,-249.599"/>
</g>
<!-- Node29 -->
<g id="node29" class="node"><title>Node29</title>
<g id="a_node29"><a xlink:href="dji__waypoint_8hpp.html" target="_top" xlink:title="Implementation of GPS Waypoint Missions for DJI OSDK. ">
<polygon fill="white" stroke="black" points="762.403,-224.5 762.403,-243.5 851.403,-243.5 851.403,-224.5 762.403,-224.5"/>
<text text-anchor="middle" x="806.903" y="-231.5" font-family="Helvetica,sans-Serif" font-size="10.00">dji_waypoint.hpp</text>
</a>
</g>
</g>
<!-- Node26&#45;&gt;Node29 -->
<g id="edge50" class="edge"><title>Node26&#45;&gt;Node29</title>
<path fill="none" stroke="midnightblue" d="M668.048,-280.444C695.926,-271.32 740.251,-256.813 771.303,-246.651"/>
<polygon fill="midnightblue" stroke="midnightblue" points="772.465,-249.953 780.88,-243.516 770.288,-243.3 772.465,-249.953"/>
</g>
<!-- Node30 -->
<g id="node30" class="node"><title>Node30</title>
<polygon fill="white" stroke="#bfbfbf" points="661.903,-224.5 661.903,-243.5 705.903,-243.5 705.903,-224.5 661.903,-224.5"/>
<text text-anchor="middle" x="683.903" y="-231.5" font-family="Helvetica,sans-Serif" font-size="10.00">vector</text>
</g>
<!-- Node26&#45;&gt;Node30 -->
<g id="edge52" class="edge"><title>Node26&#45;&gt;Node30</title>
<path fill="none" stroke="midnightblue" d="M648.838,-280.083C654.832,-272.377 663.655,-261.033 670.951,-251.653"/>
<polygon fill="midnightblue" stroke="midnightblue" points="673.72,-253.793 677.096,-243.751 668.194,-249.496 673.72,-253.793"/>
</g>
<!-- Node27&#45;&gt;Node11 -->
<g id="edge49" class="edge"><title>Node27&#45;&gt;Node11</title>
<path fill="none" stroke="midnightblue" d="M625.146,-224.444C650.774,-215.399 691.388,-201.064 720.141,-190.916"/>
<polygon fill="midnightblue" stroke="midnightblue" points="721.508,-194.145 729.773,-187.516 719.178,-187.544 721.508,-194.145"/>
</g>
<!-- Node28 -->
<g id="node28" class="node"><title>Node28</title>
<g id="a_node28"><a xlink:href="dji__mission__base_8hpp.html" target="_top" xlink:title="Mission&#45;Base abstract class for DJI OSDK library. ">
<polygon fill="white" stroke="black" points="817.903,-168.5 817.903,-187.5 927.903,-187.5 927.903,-168.5 817.903,-168.5"/>
<text text-anchor="middle" x="872.903" y="-175.5" font-family="Helvetica,sans-Serif" font-size="10.00">dji_mission_base.hpp</text>
</a>
</g>
</g>
<!-- Node27&#45;&gt;Node28 -->
<g id="edge45" class="edge"><title>Node27&#45;&gt;Node28</title>
<path fill="none" stroke="midnightblue" d="M643.702,-224.503C691.389,-215.036 768.534,-199.72 819.975,-189.508"/>
<polygon fill="midnightblue" stroke="midnightblue" points="820.778,-192.917 829.905,-187.536 819.414,-186.051 820.778,-192.917"/>
</g>
<!-- Node28&#45;&gt;Node3 -->
<g id="edge46" class="edge"><title>Node28&#45;&gt;Node3</title>
<path fill="none" stroke="midnightblue" d="M817.675,-169.201C745.532,-158.994 622.025,-141.451 559.806,-132.109"/>
<polygon fill="midnightblue" stroke="midnightblue" points="560.055,-128.607 549.644,-130.573 559.009,-135.528 560.055,-128.607"/>
</g>
<!-- Node28&#45;&gt;Node6 -->
<g id="edge47" class="edge"><title>Node28&#45;&gt;Node6</title>
<path fill="none" stroke="midnightblue" d="M817.604,-169.188C814.323,-168.773 811.071,-168.373 807.903,-168 727.706,-158.546 489.939,-136.316 390.455,-127.107"/>
<polygon fill="midnightblue" stroke="midnightblue" points="390.706,-123.615 380.426,-126.179 390.061,-130.586 390.706,-123.615"/>
</g>
<!-- Node28&#45;&gt;Node12 -->
<g id="edge48" class="edge"><title>Node28&#45;&gt;Node12</title>
<path fill="none" stroke="midnightblue" d="M927.979,-169.09C994.704,-159.507 1107.17,-143.356 1179.69,-132.941"/>
<polygon fill="midnightblue" stroke="midnightblue" points="1180.24,-136.397 1189.64,-131.511 1179.25,-129.468 1180.24,-136.397"/>
</g>
<!-- Node29&#45;&gt;Node28 -->
<g id="edge51" class="edge"><title>Node29&#45;&gt;Node28</title>
<path fill="none" stroke="midnightblue" d="M817.507,-224.324C827.359,-216.263 842.254,-204.077 854.118,-194.369"/>
<polygon fill="midnightblue" stroke="midnightblue" points="856.583,-196.875 862.106,-187.834 852.15,-191.457 856.583,-196.875"/>
</g>
<!-- Node31&#45;&gt;Node12 -->
<g id="edge55" class="edge"><title>Node31&#45;&gt;Node12</title>
<path fill="none" stroke="midnightblue" d="M1292.56,-280.431C1313.15,-274.044 1335.57,-262.999 1347.9,-244 1366.3,-215.669 1366.19,-196.399 1347.9,-168 1337.6,-151.995 1320.05,-141.617 1302.57,-134.916"/>
<polygon fill="midnightblue" stroke="midnightblue" points="1303.5,-131.535 1292.91,-131.559 1301.21,-138.147 1303.5,-131.535"/>
</g>
<!-- Node32 -->
<g id="node32" class="node"><title>Node32</title>
<polygon fill="white" stroke="#bfbfbf" points="1256.4,-224.5 1256.4,-243.5 1339.4,-243.5 1339.4,-224.5 1256.4,-224.5"/>
<text text-anchor="middle" x="1297.9" y="-231.5" font-family="Helvetica,sans-Serif" font-size="10.00">dji_macros.hpp</text>
</g>
<!-- Node31&#45;&gt;Node32 -->
<g id="edge54" class="edge"><title>Node31&#45;&gt;Node32</title>
<path fill="none" stroke="midnightblue" d="M1255.32,-280.083C1262.75,-272.22 1273.75,-260.569 1282.72,-251.081"/>
<polygon fill="midnightblue" stroke="midnightblue" points="1285.32,-253.424 1289.64,-243.751 1280.23,-248.618 1285.32,-253.424"/>
</g>
<!-- Node33&#45;&gt;Node12 -->
<g id="edge57" class="edge"><title>Node33&#45;&gt;Node12</title>
<path fill="none" stroke="midnightblue" d="M1445.5,-224.18C1433.47,-210.38 1408.37,-183.645 1381.9,-168 1355.76,-152.549 1323.56,-141.479 1297.4,-134.185"/>
<polygon fill="midnightblue" stroke="midnightblue" points="1298.25,-130.792 1287.69,-131.573 1296.44,-137.551 1298.25,-130.792"/>
</g>
<!-- Node36&#45;&gt;Node11 -->
<g id="edge63" class="edge"><title>Node36&#45;&gt;Node11</title>
<path fill="none" stroke="midnightblue" d="M1058.21,-225.493C1000.27,-217.029 903.256,-202.71 809.458,-188.069"/>
<polygon fill="midnightblue" stroke="midnightblue" points="809.934,-184.601 799.514,-186.513 808.853,-191.517 809.934,-184.601"/>
</g>
<!-- Node36&#45;&gt;Node12 -->
<g id="edge64" class="edge"><title>Node36&#45;&gt;Node12</title>
<path fill="none" stroke="midnightblue" d="M1147.95,-224.483C1170.58,-217.778 1198.55,-206.407 1217.9,-188 1231.19,-175.367 1239.42,-155.882 1244.04,-141.539"/>
<polygon fill="midnightblue" stroke="midnightblue" points="1247.45,-142.35 1246.88,-131.771 1240.72,-140.393 1247.45,-142.35"/>
</g>
<!-- Node36&#45;&gt;Node13 -->
<g id="edge62" class="edge"><title>Node36&#45;&gt;Node13</title>
<path fill="none" stroke="midnightblue" d="M1092.47,-224.475C1078.86,-216.859 1060.66,-204.378 1050.9,-188 1031.82,-155.989 1029.96,-111.102 1030.69,-85.9688"/>
<polygon fill="midnightblue" stroke="midnightblue" points="1034.2,-85.7953 1031.17,-75.6434 1027.21,-85.4699 1034.2,-85.7953"/>
</g>
<!-- Node38&#45;&gt;Node6 -->
<g id="edge72" class="edge"><title>Node38&#45;&gt;Node6</title>
<path fill="none" stroke="midnightblue" d="M257.525,-282.067C206.467,-271.575 125.852,-246.296 88.9029,-188 84.1443,-180.492 83.1852,-174.806 88.9029,-168 115.454,-136.396 234.454,-126.984 300.815,-124.184"/>
<polygon fill="midnightblue" stroke="midnightblue" points="301.135,-127.674 310.991,-123.788 300.863,-120.679 301.135,-127.674"/>
</g>
<!-- Node38&#45;&gt;Node11 -->
<g id="edge73" class="edge"><title>Node38&#45;&gt;Node11</title>
<path fill="none" stroke="midnightblue" d="M333.478,-280.476C379.891,-267.638 470.972,-242.84 548.903,-224 601.091,-211.383 661.118,-198.382 702.67,-189.619"/>
<polygon fill="midnightblue" stroke="midnightblue" points="703.491,-193.023 712.557,-187.54 702.051,-186.173 703.491,-193.023"/>
</g>
<!-- Node38&#45;&gt;Node13 -->
<g id="edge71" class="edge"><title>Node38&#45;&gt;Node13</title>
<path fill="none" stroke="midnightblue" d="M257.812,-288.839C184.351,-287.512 43.898,-280.176 12.9029,-244 -8.79315,-218.678 23.9036,-183.933 45.9029,-168 140.23,-99.6825 186.549,-128.075 301.903,-112 545.263,-78.0869 837.82,-69.7313 966.148,-67.6728"/>
<polygon fill="midnightblue" stroke="midnightblue" points="966.262,-71.1716 976.208,-67.519 966.155,-64.1724 966.262,-71.1716"/>
</g>
<!-- Node38&#45;&gt;Node17 -->
<g id="edge70" class="edge"><title>Node38&#45;&gt;Node17</title>
<path fill="none" stroke="midnightblue" d="M302.903,-280.083C302.903,-273.006 302.903,-262.861 302.903,-253.986"/>
<polygon fill="midnightblue" stroke="midnightblue" points="306.403,-253.751 302.903,-243.751 299.403,-253.751 306.403,-253.751"/>
</g>
</g>
</svg>
        <g id="navigator" transform="translate(0 0)" fill="#404254">
                <rect fill="#f2f5e9" fill-opacity="0.5" stroke="#606060" stroke-width=".5" x="0" y="0" width="60" height="60"/>
                <use id="zoomplus" xlink:href="#zoomPlus" x="17" y="9" onmousedown="handleZoom(evt,'in')"/>
                <use id="zoomminus" xlink:href="#zoomMin" x="42" y="9" onmousedown="handleZoom(evt,'out')"/>
                <use id="reset" xlink:href="#resetDef" x="30" y="36" onmousedown="handleReset()"/>
                <g id="arrowUp" xlink:href="#dirArrow" transform="translate(30 24)" onmousedown="handlePan(0,-1)">
                  <use xlink:href="#rim" fill="#404040">
                        <set attributeName="fill" to="#808080" begin="arrowUp.mouseover" end="arrowUp.mouseout"/>
                  </use>
                  <path fill="none" stroke="white" stroke-width="1.5" d="M0,-3.0v7 M-2.5,-0.5L0,-3.0L2.5,-0.5"/>
                </g>
                <g id="arrowRight" xlink:href="#dirArrow" transform="rotate(90) translate(36 -43)" onmousedown="handlePan(1,0)">
                  <use xlink:href="#rim" fill="#404040">
                        <set attributeName="fill" to="#808080" begin="arrowRight.mouseover" end="arrowRight.mouseout"/>
                  </use>
                  <path fill="none" stroke="white" stroke-width="1.5" d="M0,-3.0v7 M-2.5,-0.5L0,-3.0L2.5,-0.5"/>
                </g>
                <g id="arrowDown" xlink:href="#dirArrow" transform="rotate(180) translate(-30 -48)" onmousedown="handlePan(0,1)">
                  <use xlink:href="#rim" fill="#404040">
                        <set attributeName="fill" to="#808080" begin="arrowDown.mouseover" end="arrowDown.mouseout"/>
                  </use>
                  <path fill="none" stroke="white" stroke-width="1.5" d="M0,-3.0v7 M-2.5,-0.5L0,-3.0L2.5,-0.5"/>
                </g>
                <g id="arrowLeft" xlink:href="#dirArrow" transform="rotate(270) translate(-36 17)" onmousedown="handlePan(-1,0)">
                  <use xlink:href="#rim" fill="#404040">
                        <set attributeName="fill" to="#808080" begin="arrowLeft.mouseover" end="arrowLeft.mouseout"/>
                  </use>
                  <path fill="none" stroke="white" stroke-width="1.5" d="M0,-3.0v7 M-2.5,-0.5L0,-3.0L2.5,-0.5"/>
                </g>
        </g>
        <svg viewBox="0 0 15 15" width="100%" height="30px" preserveAspectRatio="xMaxYMin meet">
         <g id="arrow_out" transform="scale(0.3 0.3)">
          <a xlink:href="dji__gimbal_8cpp__incl_org.svg" target="_base">
           <rect id="button" ry="5" rx="5" y="6" x="6" height="38" width="38"
                fill="#f2f5e9" fill-opacity="0.5" stroke="#606060" stroke-width="1.0"/>
           <path id="arrow"
             d="M 11.500037,31.436501 C 11.940474,20.09759 22.043105,11.32322 32.158766,21.979434 L 37.068811,17.246167 C 37.068811,17.246167 37.088388,32 37.088388,32 L 22.160133,31.978069 C 22.160133,31.978069 26.997745,27.140456 26.997745,27.140456 C 18.528582,18.264221 13.291696,25.230495 11.500037,31.436501 z"
             style="fill:#404040;"/>
          </a>
         </g>
        </svg>
</svg>
