<?xml version="1.0" encoding="UTF-8" standalone="no"?>
<!DOCTYPE svg PUBLIC "-//W3C//DTD SVG 1.1//EN"
 "http://www.w3.org/Graphics/SVG/1.1/DTD/svg11.dtd">
<!-- Generated by graphviz version 2.38.0 (20140413.2041)
 -->
<!-- Title: osdk&#45;core/api/src/dji_subscription.cpp Pages: 1 -->
<!--zoomable 431 -->
<svg id="main" version="1.1" xmlns="http://www.w3.org/2000/svg" xmlns:xlink="http://www.w3.org/1999/xlink" xml:space="preserve" onload="init(evt)">
<style type="text/css"><![CDATA[
.edge:hover path { stroke: red; }
.edge:hover polygon { stroke: red; fill: red; }
]]></style>
<script type="text/javascript"><![CDATA[
var edges = document.getElementsByTagName('g');
if (edges && edges.length) {
  for (var i=0;i<edges.length;i++) {
    if (edges[i].id.substr(0,4)=='edge') {
      edges[i].setAttribute('class','edge');
    }
  }
}
]]></script>
        <defs>
                <circle id="rim" cx="0" cy="0" r="7"/>
                <circle id="rim2" cx="0" cy="0" r="3.5"/>
                <g id="zoomPlus">
                        <use xlink:href="#rim" fill="#404040">
                                <set attributeName="fill" to="#808080" begin="zoomplus.mouseover" end="zoomplus.mouseout"/>
                        </use>
                        <path d="M-4,0h8M0,-4v8" fill="none" stroke="white" stroke-width="1.5" pointer-events="none"/>
                </g>
                <g id="zoomMin">
                        <use xlink:href="#rim" fill="#404040">
                                <set attributeName="fill" to="#808080" begin="zoomminus.mouseover" end="zoomminus.mouseout"/>
                        </use>
                        <path d="M-4,0h8" fill="none" stroke="white" stroke-width="1.5" pointer-events="none"/>
                </g>
                <g id="dirArrow">
                        <path fill="none" stroke="white" stroke-width="1.5" d="M0,-3.0v7 M-2.5,-0.5L0,-3.0L2.5,-0.5"/>
                </g>
               <g id="resetDef">
                       <use xlink:href="#rim2" fill="#404040">
                               <set attributeName="fill" to="#808080" begin="reset.mouseover" end="reset.mouseout"/>
                       </use>
               </g>
        </defs>

<script type="text/javascript">
var viewWidth = 2024;
var viewHeight = 431;
var sectionId = 'dynsection-0';
</script>
<script xlink:href="svgpan.js"/>
<svg id="graph" class="graph">
<g id="viewport">
<title>osdk&#45;core/api/src/dji_subscription.cpp</title>
<polygon fill="white" stroke="none" points="-4,4 -4,-427 2019.7,-427 2019.7,4 -4,4"/>
<!-- Node1 -->
<g id="node1" class="node"><title>Node1</title>
<polygon fill="#bfbfbf" stroke="black" points="580,-392.5 580,-422.5 684,-422.5 684,-392.5 580,-392.5"/>
<text text-anchor="start" x="588" y="-410.5" font-family="Helvetica,sans-Serif" font-size="10.00">osdk&#45;core/api/src/dji</text>
<text text-anchor="middle" x="632" y="-399.5" font-family="Helvetica,sans-Serif" font-size="10.00">_subscription.cpp</text>
</g>
<!-- Node2 -->
<g id="node2" class="node"><title>Node2</title>
<g id="a_node2"><a xlink:href="dji__subscription_8hpp.html" target="_top" xlink:title="Telemetry Subscription API for DJI OSDK library. ">
<polygon fill="white" stroke="black" points="28.5,-224.5 28.5,-243.5 131.5,-243.5 131.5,-224.5 28.5,-224.5"/>
<text text-anchor="middle" x="80" y="-231.5" font-family="Helvetica,sans-Serif" font-size="10.00">dji_subscription.hpp</text>
</a>
</g>
</g>
<!-- Node1&#45;&gt;Node2 -->
<g id="edge1" class="edge"><title>Node1&#45;&gt;Node2</title>
<path fill="none" stroke="midnightblue" d="M579.93,-396.492C500.352,-380.452 344.304,-346.052 217,-300 176.431,-285.324 131.662,-262.802 104.695,-248.493"/>
<polygon fill="midnightblue" stroke="midnightblue" points="106.073,-245.261 95.6055,-243.622 102.767,-251.431 106.073,-245.261"/>
</g>
<!-- Node9 -->
<g id="node9" class="node"><title>Node9</title>
<g id="a_node9"><a xlink:href="dji__vehicle_8hpp.html" target="_top" xlink:title="Vehicle API for DJI onboardSDK library. ">
<polygon fill="white" stroke="black" points="1131.5,-336.5 1131.5,-355.5 1212.5,-355.5 1212.5,-336.5 1131.5,-336.5"/>
<text text-anchor="middle" x="1172" y="-343.5" font-family="Helvetica,sans-Serif" font-size="10.00">dji_vehicle.hpp</text>
</a>
</g>
</g>
<!-- Node1&#45;&gt;Node9 -->
<g id="edge9" class="edge"><title>Node1&#45;&gt;Node9</title>
<path fill="none" stroke="midnightblue" d="M684.268,-400.741C788.035,-389.307 1018.85,-363.875 1121.31,-352.585"/>
<polygon fill="midnightblue" stroke="midnightblue" points="1121.85,-356.048 1131.4,-351.473 1121.08,-349.09 1121.85,-356.048"/>
</g>
<!-- Node3 -->
<g id="node3" class="node"><title>Node3</title>
<polygon fill="white" stroke="#bfbfbf" points="359.5,-56.5 359.5,-75.5 470.5,-75.5 470.5,-56.5 359.5,-56.5"/>
<text text-anchor="middle" x="415" y="-63.5" font-family="Helvetica,sans-Serif" font-size="10.00">dji_open_protocol.hpp</text>
</g>
<!-- Node2&#45;&gt;Node3 -->
<g id="edge2" class="edge"><title>Node2&#45;&gt;Node3</title>
<path fill="none" stroke="midnightblue" d="M97.5394,-224.309C152.602,-197.024 322.277,-112.947 388.313,-80.2239"/>
<polygon fill="midnightblue" stroke="midnightblue" points="390.228,-83.1813 397.634,-75.6051 387.12,-76.9091 390.228,-83.1813"/>
</g>
<!-- Node4 -->
<g id="node4" class="node"><title>Node4</title>
<g id="a_node4"><a xlink:href="dji__telemetry_8hpp.html" target="_top" xlink:title="Enumeration of all telemetry data types, structures and maps. ">
<polygon fill="white" stroke="black" points="643.5,-168.5 643.5,-187.5 734.5,-187.5 734.5,-168.5 643.5,-168.5"/>
<text text-anchor="middle" x="689" y="-175.5" font-family="Helvetica,sans-Serif" font-size="10.00">dji_telemetry.hpp</text>
</a>
</g>
</g>
<!-- Node2&#45;&gt;Node4 -->
<g id="edge3" class="edge"><title>Node2&#45;&gt;Node4</title>
<path fill="none" stroke="midnightblue" d="M131.554,-225.155C134.748,-224.743 137.916,-224.354 141,-224 320.528,-203.407 534.194,-188.663 633.345,-182.379"/>
<polygon fill="midnightblue" stroke="midnightblue" points="633.675,-185.865 643.435,-181.743 633.235,-178.879 633.675,-185.865"/>
</g>
<!-- Node8 -->
<g id="node8" class="node"><title>Node8</title>
<g id="a_node8"><a xlink:href="dji__vehicle__callback_8hpp.html" target="_top" xlink:title="Type definition for new Vehicle&#45;style callbacks. ">
<polygon fill="white" stroke="black" points="354,-112.5 354,-131.5 476,-131.5 476,-112.5 354,-112.5"/>
<text text-anchor="middle" x="415" y="-119.5" font-family="Helvetica,sans-Serif" font-size="10.00">dji_vehicle_callback.hpp</text>
</a>
</g>
</g>
<!-- Node2&#45;&gt;Node8 -->
<g id="edge7" class="edge"><title>Node2&#45;&gt;Node8</title>
<path fill="none" stroke="midnightblue" d="M106.008,-224.46C165.375,-204.966 310.97,-157.159 378.945,-134.839"/>
<polygon fill="midnightblue" stroke="midnightblue" points="380.368,-138.055 388.777,-131.61 378.185,-131.405 380.368,-138.055"/>
</g>
<!-- Node5 -->
<g id="node5" class="node"><title>Node5</title>
<g id="a_node5"><a xlink:href="dji__type_8hpp.html" target="_top" xlink:title="Data type and Data Structure definitions for use throughout DJI OSDK. ">
<polygon fill="white" stroke="black" points="1112.5,-112.5 1112.5,-131.5 1181.5,-131.5 1181.5,-112.5 1112.5,-112.5"/>
<text text-anchor="middle" x="1147" y="-119.5" font-family="Helvetica,sans-Serif" font-size="10.00">dji_type.hpp</text>
</a>
</g>
</g>
<!-- Node4&#45;&gt;Node5 -->
<g id="edge4" class="edge"><title>Node4&#45;&gt;Node5</title>
<path fill="none" stroke="midnightblue" d="M734.512,-169.996C739.399,-169.297 744.301,-168.618 749,-168 876.81,-151.194 1028.22,-135.131 1102.03,-127.547"/>
<polygon fill="midnightblue" stroke="midnightblue" points="1102.75,-130.991 1112.34,-126.491 1102.04,-124.028 1102.75,-130.991"/>
</g>
<!-- Node6 -->
<g id="node6" class="node"><title>Node6</title>
<polygon fill="white" stroke="#bfbfbf" points="1125.5,-56.5 1125.5,-75.5 1168.5,-75.5 1168.5,-56.5 1125.5,-56.5"/>
<text text-anchor="middle" x="1147" y="-63.5" font-family="Helvetica,sans-Serif" font-size="10.00">cstdio</text>
</g>
<!-- Node5&#45;&gt;Node6 -->
<g id="edge5" class="edge"><title>Node5&#45;&gt;Node6</title>
<path fill="none" stroke="midnightblue" d="M1147,-112.083C1147,-105.006 1147,-94.8611 1147,-85.9865"/>
<polygon fill="midnightblue" stroke="midnightblue" points="1150.5,-85.751 1147,-75.7511 1143.5,-85.7511 1150.5,-85.751"/>
</g>
<!-- Node7 -->
<g id="node7" class="node"><title>Node7</title>
<polygon fill="white" stroke="#bfbfbf" points="1243.5,-0.5 1243.5,-19.5 1292.5,-19.5 1292.5,-0.5 1243.5,-0.5"/>
<text text-anchor="middle" x="1268" y="-7.5" font-family="Helvetica,sans-Serif" font-size="10.00">stdint.h</text>
</g>
<!-- Node5&#45;&gt;Node7 -->
<g id="edge6" class="edge"><title>Node5&#45;&gt;Node7</title>
<path fill="none" stroke="midnightblue" d="M1156.49,-112.368C1176.9,-93.8137 1225.2,-49.9129 1251.02,-26.4376"/>
<polygon fill="midnightblue" stroke="midnightblue" points="1253.5,-28.908 1258.55,-19.5914 1248.8,-23.7284 1253.5,-28.908"/>
</g>
<!-- Node8&#45;&gt;Node3 -->
<g id="edge8" class="edge"><title>Node8&#45;&gt;Node3</title>
<path fill="none" stroke="midnightblue" d="M415,-112.083C415,-105.006 415,-94.8611 415,-85.9865"/>
<polygon fill="midnightblue" stroke="midnightblue" points="418.5,-85.751 415,-75.7511 411.5,-85.7511 418.5,-85.751"/>
</g>
<!-- Node9&#45;&gt;Node2 -->
<g id="edge57" class="edge"><title>Node9&#45;&gt;Node2</title>
<path fill="none" stroke="midnightblue" d="M1131.36,-344.073C983.154,-340.505 471.985,-326.518 311,-300 239.112,-288.158 157.644,-262.163 113.231,-246.877"/>
<polygon fill="midnightblue" stroke="midnightblue" points="114.144,-243.489 103.549,-243.512 111.845,-250.101 114.144,-243.489"/>
</g>
<!-- Node9&#45;&gt;Node3 -->
<g id="edge54" class="edge"><title>Node9&#45;&gt;Node3</title>
<path fill="none" stroke="midnightblue" d="M1131.35,-344.321C972.976,-341.484 397.209,-329.333 217,-300 117.63,-283.825 0,-335.678 0,-235 0,-235 0,-235 0,-177 0,-105.642 232.153,-79.4915 349.189,-70.8422"/>
<polygon fill="midnightblue" stroke="midnightblue" points="349.738,-74.3119 359.462,-70.1061 349.237,-67.3298 349.738,-74.3119"/>
</g>
<!-- Node9&#45;&gt;Node5 -->
<g id="edge59" class="edge"><title>Node9&#45;&gt;Node5</title>
<path fill="none" stroke="midnightblue" d="M1177.38,-336.443C1182.56,-327.678 1190.01,-313.467 1193,-300 1200.57,-265.862 1218.61,-247.719 1186,-168 1181.48,-156.948 1173.1,-146.709 1165.26,-138.798"/>
<polygon fill="midnightblue" stroke="midnightblue" points="1167.44,-136.043 1157.77,-131.721 1162.64,-141.132 1167.44,-136.043"/>
</g>
<!-- Node9&#45;&gt;Node8 -->
<g id="edge60" class="edge"><title>Node9&#45;&gt;Node8</title>
<path fill="none" stroke="midnightblue" d="M1131.09,-344.174C1012.1,-341.43 667.772,-330.957 560,-300 508.789,-285.29 490.409,-282.901 454,-244 427.067,-215.224 418.732,-167.717 416.154,-141.613"/>
<polygon fill="midnightblue" stroke="midnightblue" points="419.636,-141.248 415.346,-131.56 412.658,-141.809 419.636,-141.248"/>
</g>
<!-- Node10 -->
<g id="node10" class="node"><title>Node10</title>
<polygon fill="white" stroke="#bfbfbf" points="1880,-112.5 1880,-131.5 1926,-131.5 1926,-112.5 1880,-112.5"/>
<text text-anchor="middle" x="1903" y="-119.5" font-family="Helvetica,sans-Serif" font-size="10.00">cstdint</text>
</g>
<!-- Node9&#45;&gt;Node10 -->
<g id="edge10" class="edge"><title>Node9&#45;&gt;Node10</title>
<path fill="none" stroke="midnightblue" d="M1212.71,-344.328C1375.7,-341.441 1973.62,-328.908 2001,-300 2049.03,-249.289 1963.31,-170.561 1922.65,-137.941"/>
<polygon fill="midnightblue" stroke="midnightblue" points="1924.74,-135.136 1914.72,-131.706 1920.42,-140.639 1924.74,-135.136"/>
</g>
<!-- Node11 -->
<g id="node11" class="node"><title>Node11</title>
<g id="a_node11"><a xlink:href="dji__broadcast_8hpp.html" target="_top" xlink:title="Broadcast Telemetry API for DJI onboardSDK library. ">
<polygon fill="white" stroke="black" points="481.5,-224.5 481.5,-243.5 574.5,-243.5 574.5,-224.5 481.5,-224.5"/>
<text text-anchor="middle" x="528" y="-231.5" font-family="Helvetica,sans-Serif" font-size="10.00">dji_broadcast.hpp</text>
</a>
</g>
</g>
<!-- Node9&#45;&gt;Node11 -->
<g id="edge11" class="edge"><title>Node9&#45;&gt;Node11</title>
<path fill="none" stroke="midnightblue" d="M1131.45,-345.498C1016.06,-346.347 688.043,-344.664 592,-300 569.433,-289.505 550.454,-267.4 539.162,-251.894"/>
<polygon fill="midnightblue" stroke="midnightblue" points="542.02,-249.872 533.434,-243.665 536.275,-253.872 542.02,-249.872"/>
</g>
<!-- Node12 -->
<g id="node12" class="node"><title>Node12</title>
<g id="a_node12"><a xlink:href="dji__camera_8hpp.html" target="_top" xlink:title="Camera/Gimbal API for DJI onboardSDK library. ">
<polygon fill="white" stroke="black" points="1289.5,-168.5 1289.5,-187.5 1372.5,-187.5 1372.5,-168.5 1289.5,-168.5"/>
<text text-anchor="middle" x="1331" y="-175.5" font-family="Helvetica,sans-Serif" font-size="10.00">dji_camera.hpp</text>
</a>
</g>
</g>
<!-- Node9&#45;&gt;Node12 -->
<g id="edge14" class="edge"><title>Node9&#45;&gt;Node12</title>
<path fill="none" stroke="midnightblue" d="M1188.04,-336.37C1202.09,-328.272 1222.47,-315.159 1237,-300 1264.65,-271.161 1259.88,-255.068 1285,-224 1293.5,-213.49 1304.23,-202.865 1313.2,-194.58"/>
<polygon fill="midnightblue" stroke="midnightblue" points="1315.74,-197 1320.82,-187.7 1311.05,-191.805 1315.74,-197"/>
</g>
<!-- Node13 -->
<g id="node13" class="node"><title>Node13</title>
<g id="a_node13"><a xlink:href="dji__command_8hpp.html" target="_top" xlink:title="All DJI OSDK OpenProtocol Command IDs. ">
<polygon fill="white" stroke="black" points="1284.5,-112.5 1284.5,-131.5 1377.5,-131.5 1377.5,-112.5 1284.5,-112.5"/>
<text text-anchor="middle" x="1331" y="-119.5" font-family="Helvetica,sans-Serif" font-size="10.00">dji_command.hpp</text>
</a>
</g>
</g>
<!-- Node9&#45;&gt;Node13 -->
<g id="edge21" class="edge"><title>Node9&#45;&gt;Node13</title>
<path fill="none" stroke="midnightblue" d="M1196.51,-336.376C1263.58,-312.213 1447.18,-242.083 1478,-188 1499.97,-149.44 1437.91,-133.704 1387.74,-127.315"/>
<polygon fill="midnightblue" stroke="midnightblue" points="1387.91,-123.812 1377.57,-126.124 1387.1,-130.764 1387.91,-123.812"/>
</g>
<!-- Node15 -->
<g id="node15" class="node"><title>Node15</title>
<polygon fill="white" stroke="#bfbfbf" points="1365,-280.5 1365,-299.5 1477,-299.5 1477,-280.5 1365,-280.5"/>
<text text-anchor="middle" x="1421" y="-287.5" font-family="Helvetica,sans-Serif" font-size="10.00">dji_circular_buffer.hpp</text>
</g>
<!-- Node9&#45;&gt;Node15 -->
<g id="edge20" class="edge"><title>Node9&#45;&gt;Node15</title>
<path fill="none" stroke="midnightblue" d="M1211.45,-336.444C1254.89,-327.023 1324.79,-311.866 1371.78,-301.675"/>
<polygon fill="midnightblue" stroke="midnightblue" points="1372.7,-305.056 1381.73,-299.516 1371.22,-298.215 1372.7,-305.056"/>
</g>
<!-- Node16 -->
<g id="node16" class="node"><title>Node16</title>
<g id="a_node16"><a xlink:href="dji__control_8hpp.html" target="_top" xlink:title="Control API for DJI OSDK library. ">
<polygon fill="white" stroke="black" points="601,-280.5 601,-299.5 681,-299.5 681,-280.5 601,-280.5"/>
<text text-anchor="middle" x="641" y="-287.5" font-family="Helvetica,sans-Serif" font-size="10.00">dji_control.hpp</text>
</a>
</g>
</g>
<!-- Node9&#45;&gt;Node16 -->
<g id="edge22" class="edge"><title>Node9&#45;&gt;Node16</title>
<path fill="none" stroke="midnightblue" d="M1131.22,-340.852C1035.32,-331.101 795.784,-306.741 691.187,-296.104"/>
<polygon fill="midnightblue" stroke="midnightblue" points="691.5,-292.618 681.197,-295.088 690.792,-299.582 691.5,-292.618"/>
</g>
<!-- Node19 -->
<g id="node19" class="node"><title>Node19</title>
<g id="a_node19"><a xlink:href="dji__version_8hpp.html" target="_top" xlink:title="Drone/SDK Version definition for DJI onboardSDK library. ">
<polygon fill="white" stroke="black" points="1727,-168.5 1727,-187.5 1809,-187.5 1809,-168.5 1727,-168.5"/>
<text text-anchor="middle" x="1768" y="-175.5" font-family="Helvetica,sans-Serif" font-size="10.00">dji_version.hpp</text>
</a>
</g>
</g>
<!-- Node9&#45;&gt;Node19 -->
<g id="edge61" class="edge"><title>Node9&#45;&gt;Node19</title>
<path fill="none" stroke="midnightblue" d="M1212.6,-344.276C1373.01,-341.221 1955.31,-328.217 1982,-300 2036.64,-242.242 1898.45,-204.472 1819.13,-188.183"/>
<polygon fill="midnightblue" stroke="midnightblue" points="1819.78,-184.746 1809.29,-186.211 1818.41,-191.609 1819.78,-184.746"/>
</g>
<!-- Node21 -->
<g id="node21" class="node"><title>Node21</title>
<g id="a_node21"><a xlink:href="dji__gimbal_8hpp.html" target="_top" xlink:title="Gimbal API for OSDK library. ">
<polygon fill="white" stroke="black" points="1390.5,-168.5 1390.5,-187.5 1469.5,-187.5 1469.5,-168.5 1390.5,-168.5"/>
<text text-anchor="middle" x="1430" y="-175.5" font-family="Helvetica,sans-Serif" font-size="10.00">dji_gimbal.hpp</text>
</a>
</g>
</g>
<!-- Node9&#45;&gt;Node21 -->
<g id="edge35" class="edge"><title>Node9&#45;&gt;Node21</title>
<path fill="none" stroke="midnightblue" d="M1190.4,-336.405C1208.29,-327.833 1236.05,-313.965 1259,-300 1316.12,-265.247 1379.39,-218.003 1410.52,-194.134"/>
<polygon fill="midnightblue" stroke="midnightblue" points="1412.98,-196.66 1418.76,-187.783 1408.7,-191.115 1412.98,-196.66"/>
</g>
<!-- Node22 -->
<g id="node22" class="node"><title>Node22</title>
<polygon fill="white" stroke="#bfbfbf" points="1495,-280.5 1495,-299.5 1593,-299.5 1593,-280.5 1495,-280.5"/>
<text text-anchor="middle" x="1544" y="-287.5" font-family="Helvetica,sans-Serif" font-size="10.00">dji_hard_driver.hpp</text>
</g>
<!-- Node9&#45;&gt;Node22 -->
<g id="edge38" class="edge"><title>Node9&#45;&gt;Node22</title>
<path fill="none" stroke="midnightblue" d="M1212.67,-339.325C1270.68,-331.197 1380.8,-315.643 1484.9,-300.15"/>
<polygon fill="midnightblue" stroke="midnightblue" points="1485.58,-303.587 1494.96,-298.651 1484.55,-296.664 1485.58,-303.587"/>
</g>
<!-- Node23 -->
<g id="node23" class="node"><title>Node23</title>
<g id="a_node23"><a xlink:href="dji__hardware__sync_8hpp.html" target="_top" xlink:title="Hardware Sync API for DJI OSDK. ">
<polygon fill="white" stroke="black" points="707,-224.5 707,-243.5 823,-243.5 823,-224.5 707,-224.5"/>
<text text-anchor="middle" x="765" y="-231.5" font-family="Helvetica,sans-Serif" font-size="10.00">dji_hardware_sync.hpp</text>
</a>
</g>
</g>
<!-- Node9&#45;&gt;Node23 -->
<g id="edge39" class="edge"><title>Node9&#45;&gt;Node23</title>
<path fill="none" stroke="midnightblue" d="M1131.29,-339.178C1084.6,-332.023 1005.97,-318.514 940,-300 887.6,-285.294 828.646,-261.913 794.283,-247.566"/>
<polygon fill="midnightblue" stroke="midnightblue" points="795.43,-244.251 784.855,-243.598 792.714,-250.703 795.43,-244.251"/>
</g>
<!-- Node24 -->
<g id="node24" class="node"><title>Node24</title>
<g id="a_node24"><a xlink:href="dji__mfio_8hpp.html" target="_top" xlink:title="MFIO API for DJI OSDK library. ">
<polygon fill="white" stroke="black" points="317.5,-224.5 317.5,-243.5 386.5,-243.5 386.5,-224.5 317.5,-224.5"/>
<text text-anchor="middle" x="352" y="-231.5" font-family="Helvetica,sans-Serif" font-size="10.00">dji_mfio.hpp</text>
</a>
</g>
</g>
<!-- Node9&#45;&gt;Node24 -->
<g id="edge41" class="edge"><title>Node9&#45;&gt;Node24</title>
<path fill="none" stroke="midnightblue" d="M1131.37,-344.612C981.582,-342.91 465.57,-334.571 401,-300 381.786,-289.713 367.94,-268.231 359.966,-252.776"/>
<polygon fill="midnightblue" stroke="midnightblue" points="363.071,-251.157 355.577,-243.668 356.765,-254.196 363.071,-251.157"/>
</g>
<!-- Node25 -->
<g id="node25" class="node"><title>Node25</title>
<g id="a_node25"><a xlink:href="dji__mission__manager_8hpp.html" target="_top" xlink:title="Mission&#45;Manager API for DJI OSDK library. ">
<polygon fill="white" stroke="black" points="1057.5,-280.5 1057.5,-299.5 1184.5,-299.5 1184.5,-280.5 1057.5,-280.5"/>
<text text-anchor="middle" x="1121" y="-287.5" font-family="Helvetica,sans-Serif" font-size="10.00">dji_mission_manager.hpp</text>
</a>
</g>
</g>
<!-- Node9&#45;&gt;Node25 -->
<g id="edge43" class="edge"><title>Node9&#45;&gt;Node25</title>
<path fill="none" stroke="midnightblue" d="M1163.58,-336.083C1156.15,-328.22 1145.15,-316.569 1136.19,-307.081"/>
<polygon fill="midnightblue" stroke="midnightblue" points="1138.68,-304.618 1129.26,-299.751 1133.59,-309.424 1138.68,-304.618"/>
</g>
<!-- Node29 -->
<g id="node29" class="node"><title>Node29</title>
<g id="a_node29"><a xlink:href="dji__mobile__communication_8hpp.html" target="_top" xlink:title="Implementation of DJI Mobile&#45;Onboard SDK Communication (MOC) ">
<polygon fill="white" stroke="black" points="150,-224.5 150,-243.5 300,-243.5 300,-224.5 150,-224.5"/>
<text text-anchor="middle" x="225" y="-231.5" font-family="Helvetica,sans-Serif" font-size="10.00">dji_mobile_communication.hpp</text>
</a>
</g>
</g>
<!-- Node9&#45;&gt;Node29 -->
<g id="edge52" class="edge"><title>Node9&#45;&gt;Node29</title>
<path fill="none" stroke="midnightblue" d="M1131.3,-344.603C989.833,-342.926 520.121,-334.806 374,-300 327.628,-288.954 277.585,-264.188 248.901,-248.615"/>
<polygon fill="midnightblue" stroke="midnightblue" points="250.475,-245.487 240.029,-243.72 247.093,-251.615 250.475,-245.487"/>
</g>
<!-- Node30 -->
<g id="node30" class="node"><title>Node30</title>
<polygon fill="white" stroke="#bfbfbf" points="1611,-280.5 1611,-299.5 1739,-299.5 1739,-280.5 1611,-280.5"/>
<text text-anchor="middle" x="1675" y="-287.5" font-family="Helvetica,sans-Serif" font-size="10.00">dji_platform_manager.hpp</text>
</g>
<!-- Node9&#45;&gt;Node30 -->
<g id="edge55" class="edge"><title>Node9&#45;&gt;Node30</title>
<path fill="none" stroke="midnightblue" d="M1212.64,-340.999C1287.26,-333.597 1451.41,-317.061 1600.65,-300.136"/>
<polygon fill="midnightblue" stroke="midnightblue" points="1601.37,-303.576 1610.91,-298.969 1600.58,-296.621 1601.37,-303.576"/>
</g>
<!-- Node31 -->
<g id="node31" class="node"><title>Node31</title>
<g id="a_node31"><a xlink:href="dji__status_8hpp.html" target="_top" xlink:title="Status information for DJI Vehicle. ">
<polygon fill="white" stroke="black" points="1757.5,-280.5 1757.5,-299.5 1834.5,-299.5 1834.5,-280.5 1757.5,-280.5"/>
<text text-anchor="middle" x="1796" y="-287.5" font-family="Helvetica,sans-Serif" font-size="10.00">dji_status.hpp</text>
</a>
</g>
</g>
<!-- Node9&#45;&gt;Node31 -->
<g id="edge56" class="edge"><title>Node9&#45;&gt;Node31</title>
<path fill="none" stroke="midnightblue" d="M1212.66,-343.326C1305.51,-339.182 1540.4,-326.873 1747.15,-299.962"/>
<polygon fill="midnightblue" stroke="midnightblue" points="1747.83,-303.403 1757.28,-298.628 1746.91,-296.463 1747.83,-303.403"/>
</g>
<!-- Node32 -->
<g id="node32" class="node"><title>Node32</title>
<polygon fill="white" stroke="#bfbfbf" points="1853,-280.5 1853,-299.5 1973,-299.5 1973,-280.5 1853,-280.5"/>
<text text-anchor="middle" x="1913" y="-287.5" font-family="Helvetica,sans-Serif" font-size="10.00">dji_thread_manager.hpp</text>
</g>
<!-- Node9&#45;&gt;Node32 -->
<g id="edge58" class="edge"><title>Node9&#45;&gt;Node32</title>
<path fill="none" stroke="midnightblue" d="M1212.6,-343.172C1315.9,-338.331 1597.33,-323.95 1842.64,-300.075"/>
<polygon fill="midnightblue" stroke="midnightblue" points="1843.2,-303.536 1852.81,-299.077 1842.52,-296.569 1843.2,-303.536"/>
</g>
<!-- Node33 -->
<g id="node33" class="node"><title>Node33</title>
<g id="a_node33"><a xlink:href="dji__virtual__rc_8hpp.html" target="_top" xlink:title="Virtual Radio Control API for DJI onboardSDK library. ">
<polygon fill="white" stroke="black" points="949,-280.5 949,-299.5 1039,-299.5 1039,-280.5 949,-280.5"/>
<text text-anchor="middle" x="994" y="-287.5" font-family="Helvetica,sans-Serif" font-size="10.00">dji_virtual_rc.hpp</text>
</a>
</g>
</g>
<!-- Node9&#45;&gt;Node33 -->
<g id="edge62" class="edge"><title>Node9&#45;&gt;Node33</title>
<path fill="none" stroke="midnightblue" d="M1143.8,-336.444C1113.59,-327.28 1065.49,-312.688 1031.97,-302.519"/>
<polygon fill="midnightblue" stroke="midnightblue" points="1032.66,-299.07 1022.07,-299.516 1030.63,-305.769 1032.66,-299.07"/>
</g>
<!-- Node11&#45;&gt;Node4 -->
<g id="edge12" class="edge"><title>Node11&#45;&gt;Node4</title>
<path fill="none" stroke="midnightblue" d="M553.511,-224.444C580.596,-215.359 623.59,-200.939 653.869,-190.783"/>
<polygon fill="midnightblue" stroke="midnightblue" points="655.24,-194.015 663.608,-187.516 653.014,-187.378 655.24,-194.015"/>
</g>
<!-- Node11&#45;&gt;Node8 -->
<g id="edge13" class="edge"><title>Node11&#45;&gt;Node8</title>
<path fill="none" stroke="midnightblue" d="M520.375,-224.317C509.086,-211.592 487.09,-187.296 467,-168 456.237,-157.662 443.587,-146.691 433.459,-138.17"/>
<polygon fill="midnightblue" stroke="midnightblue" points="435.564,-135.368 425.641,-131.656 431.083,-140.746 435.564,-135.368"/>
</g>
<!-- Node12&#45;&gt;Node5 -->
<g id="edge19" class="edge"><title>Node12&#45;&gt;Node5</title>
<path fill="none" stroke="midnightblue" d="M1301.84,-168.444C1270.49,-159.241 1220.47,-144.562 1185.8,-134.388"/>
<polygon fill="midnightblue" stroke="midnightblue" points="1186.6,-130.974 1176.02,-131.516 1184.63,-137.691 1186.6,-130.974"/>
</g>
<!-- Node12&#45;&gt;Node13 -->
<g id="edge15" class="edge"><title>Node12&#45;&gt;Node13</title>
<path fill="none" stroke="midnightblue" d="M1331,-168.083C1331,-161.006 1331,-150.861 1331,-141.986"/>
<polygon fill="midnightblue" stroke="midnightblue" points="1334.5,-141.751 1331,-131.751 1327.5,-141.751 1334.5,-141.751"/>
</g>
<!-- Node13&#45;&gt;Node7 -->
<g id="edge18" class="edge"><title>Node13&#45;&gt;Node7</title>
<path fill="none" stroke="midnightblue" d="M1319.66,-112.179C1309.69,-103.859 1295.5,-90.5244 1287,-76 1278.56,-61.5704 1273.63,-43.1178 1270.92,-29.5626"/>
<polygon fill="midnightblue" stroke="midnightblue" points="1274.33,-28.7564 1269.14,-19.5238 1267.44,-29.9822 1274.33,-28.7564"/>
</g>
<!-- Node14 -->
<g id="node14" class="node"><title>Node14</title>
<g id="a_node14"><a xlink:href="dji__error_8hpp.html" target="_top" xlink:title="All DJI OSDK OpenProtocol ACK Error Codes. ">
<polygon fill="white" stroke="black" points="1296,-56.5 1296,-75.5 1366,-75.5 1366,-56.5 1296,-56.5"/>
<text text-anchor="middle" x="1331" y="-63.5" font-family="Helvetica,sans-Serif" font-size="10.00">dji_error.hpp</text>
</a>
</g>
</g>
<!-- Node13&#45;&gt;Node14 -->
<g id="edge16" class="edge"><title>Node13&#45;&gt;Node14</title>
<path fill="none" stroke="midnightblue" d="M1331,-112.083C1331,-105.006 1331,-94.8611 1331,-85.9865"/>
<polygon fill="midnightblue" stroke="midnightblue" points="1334.5,-85.751 1331,-75.7511 1327.5,-85.7511 1334.5,-85.751"/>
</g>
<!-- Node14&#45;&gt;Node7 -->
<g id="edge17" class="edge"><title>Node14&#45;&gt;Node7</title>
<path fill="none" stroke="midnightblue" d="M1320.88,-56.324C1311.47,-48.2631 1297.26,-36.0765 1285.93,-26.3695"/>
<polygon fill="midnightblue" stroke="midnightblue" points="1288.18,-23.6844 1278.31,-19.8339 1283.62,-28.9993 1288.18,-23.6844"/>
</g>
<!-- Node16&#45;&gt;Node3 -->
<g id="edge32" class="edge"><title>Node16&#45;&gt;Node3</title>
<path fill="none" stroke="midnightblue" d="M634.596,-280.127C614.623,-252.839 550.862,-168.594 485,-112 471.111,-100.066 453.816,-88.9177 439.892,-80.7031"/>
<polygon fill="midnightblue" stroke="midnightblue" points="441.286,-77.4676 430.874,-75.5111 437.794,-83.5339 441.286,-77.4676"/>
</g>
<!-- Node16&#45;&gt;Node5 -->
<g id="edge33" class="edge"><title>Node16&#45;&gt;Node5</title>
<path fill="none" stroke="midnightblue" d="M647.261,-280.214C657.028,-266.927 676.963,-241.425 698,-224 735.745,-192.736 746.625,-183.861 793,-168 899.775,-131.482 1033.82,-124.149 1102.27,-122.957"/>
<polygon fill="midnightblue" stroke="midnightblue" points="1102.34,-126.456 1112.29,-122.819 1102.24,-119.457 1102.34,-126.456"/>
</g>
<!-- Node16&#45;&gt;Node8 -->
<g id="edge34" class="edge"><title>Node16&#45;&gt;Node8</title>
<path fill="none" stroke="midnightblue" d="M600.79,-287.688C563.52,-284.483 508.484,-274.444 472,-244 455.327,-230.087 432.592,-171.918 421.552,-141.586"/>
<polygon fill="midnightblue" stroke="midnightblue" points="424.715,-140.036 418.046,-131.803 418.125,-142.398 424.715,-140.036"/>
</g>
<!-- Node17 -->
<g id="node17" class="node"><title>Node17</title>
<g id="a_node17"><a xlink:href="dji__ack_8hpp.html" target="_top" xlink:title="All DJI OSDK ACK parsing. ">
<polygon fill="white" stroke="black" points="983,-224.5 983,-243.5 1049,-243.5 1049,-224.5 983,-224.5"/>
<text text-anchor="middle" x="1016" y="-231.5" font-family="Helvetica,sans-Serif" font-size="10.00">dji_ack.hpp</text>
</a>
</g>
</g>
<!-- Node16&#45;&gt;Node17 -->
<g id="edge23" class="edge"><title>Node16&#45;&gt;Node17</title>
<path fill="none" stroke="midnightblue" d="M681.003,-284.516C741.69,-277.508 860.854,-262.949 972.613,-243.946"/>
<polygon fill="midnightblue" stroke="midnightblue" points="973.447,-247.354 982.71,-242.213 972.263,-240.455 973.447,-247.354"/>
</g>
<!-- Node17&#45;&gt;Node5 -->
<g id="edge27" class="edge"><title>Node17&#45;&gt;Node5</title>
<path fill="none" stroke="midnightblue" d="M1045.33,-224.424C1074.52,-215.345 1116.56,-200.613 1128,-188 1139.47,-175.355 1144.04,-156.146 1145.85,-141.886"/>
<polygon fill="midnightblue" stroke="midnightblue" points="1149.35,-142.009 1146.79,-131.73 1142.38,-141.366 1149.35,-142.009"/>
</g>
<!-- Node17&#45;&gt;Node13 -->
<g id="edge24" class="edge"><title>Node17&#45;&gt;Node13</title>
<path fill="none" stroke="midnightblue" d="M1041.34,-224.469C1067.94,-215.488 1110.96,-200.892 1148,-188 1200.39,-169.766 1261.03,-148.121 1297.67,-134.981"/>
<polygon fill="midnightblue" stroke="midnightblue" points="1299.11,-138.182 1307.34,-131.511 1296.75,-131.594 1299.11,-138.182"/>
</g>
<!-- Node18 -->
<g id="node18" class="node"><title>Node18</title>
<g id="a_node18"><a xlink:href="dji__mission__type_8hpp.html" target="_top" xlink:title="Mission related data struct for DJI OSDK library. ">
<polygon fill="white" stroke="black" points="829,-168.5 829,-187.5 937,-187.5 937,-168.5 829,-168.5"/>
<text text-anchor="middle" x="883" y="-175.5" font-family="Helvetica,sans-Serif" font-size="10.00">dji_mission_type.hpp</text>
</a>
</g>
</g>
<!-- Node17&#45;&gt;Node18 -->
<g id="edge25" class="edge"><title>Node17&#45;&gt;Node18</title>
<path fill="none" stroke="midnightblue" d="M994.926,-224.444C972.94,-215.517 938.266,-201.439 913.336,-191.317"/>
<polygon fill="midnightblue" stroke="midnightblue" points="914.558,-188.035 903.976,-187.516 911.924,-194.521 914.558,-188.035"/>
</g>
<!-- Node17&#45;&gt;Node19 -->
<g id="edge28" class="edge"><title>Node17&#45;&gt;Node19</title>
<path fill="none" stroke="midnightblue" d="M1049.39,-225.379C1052.29,-224.858 1055.19,-224.388 1058,-224 1185.42,-206.408 1575.5,-187.653 1716.48,-181.273"/>
<polygon fill="midnightblue" stroke="midnightblue" points="1716.76,-184.765 1726.59,-180.818 1716.44,-177.772 1716.76,-184.765"/>
</g>
<!-- Node20 -->
<g id="node20" class="node"><title>Node20</title>
<polygon fill="white" stroke="#bfbfbf" points="955.5,-168.5 955.5,-187.5 990.5,-187.5 990.5,-168.5 955.5,-168.5"/>
<text text-anchor="middle" x="973" y="-175.5" font-family="Helvetica,sans-Serif" font-size="10.00">map</text>
</g>
<!-- Node17&#45;&gt;Node20 -->
<g id="edge31" class="edge"><title>Node17&#45;&gt;Node20</title>
<path fill="none" stroke="midnightblue" d="M1008.9,-224.083C1002.76,-216.377 993.73,-205.033 986.261,-195.653"/>
<polygon fill="midnightblue" stroke="midnightblue" points="988.936,-193.394 979.968,-187.751 983.46,-197.754 988.936,-193.394"/>
</g>
<!-- Node18&#45;&gt;Node5 -->
<g id="edge26" class="edge"><title>Node18&#45;&gt;Node5</title>
<path fill="none" stroke="midnightblue" d="M924.832,-168.444C973.255,-158.539 1052.69,-142.291 1102.3,-132.143"/>
<polygon fill="midnightblue" stroke="midnightblue" points="1103.01,-135.57 1112.11,-130.137 1101.61,-128.712 1103.01,-135.57"/>
</g>
<!-- Node19&#45;&gt;Node10 -->
<g id="edge30" class="edge"><title>Node19&#45;&gt;Node10</title>
<path fill="none" stroke="midnightblue" d="M1789.39,-168.444C1811.71,-159.517 1846.9,-145.439 1872.21,-135.317"/>
<polygon fill="midnightblue" stroke="midnightblue" points="1873.72,-138.48 1881.71,-131.516 1871.12,-131.981 1873.72,-138.48"/>
</g>
<!-- Node19&#45;&gt;Node13 -->
<g id="edge29" class="edge"><title>Node19&#45;&gt;Node13</title>
<path fill="none" stroke="midnightblue" d="M1726.89,-171.92C1648.33,-162.212 1476.77,-141.013 1387.5,-129.982"/>
<polygon fill="midnightblue" stroke="midnightblue" points="1387.91,-126.506 1377.56,-128.753 1387.05,-133.453 1387.91,-126.506"/>
</g>
<!-- Node21&#45;&gt;Node5 -->
<g id="edge37" class="edge"><title>Node21&#45;&gt;Node5</title>
<path fill="none" stroke="midnightblue" d="M1390.35,-169.435C1338.19,-159.481 1246.74,-142.033 1192.03,-131.592"/>
<polygon fill="midnightblue" stroke="midnightblue" points="1192.41,-128.102 1181.93,-129.665 1191.1,-134.977 1192.41,-128.102"/>
</g>
<!-- Node21&#45;&gt;Node13 -->
<g id="edge36" class="edge"><title>Node21&#45;&gt;Node13</title>
<path fill="none" stroke="midnightblue" d="M1414.09,-168.324C1398.36,-159.743 1374.06,-146.486 1355.79,-136.522"/>
<polygon fill="midnightblue" stroke="midnightblue" points="1357.32,-133.37 1346.87,-131.655 1353.97,-139.516 1357.32,-133.37"/>
</g>
<!-- Node23&#45;&gt;Node5 -->
<g id="edge40" class="edge"><title>Node23&#45;&gt;Node5</title>
<path fill="none" stroke="midnightblue" d="M769.683,-224.049C777.789,-209.557 795.906,-181.246 820,-168 867.602,-141.831 1024.04,-129.742 1102,-125.231"/>
<polygon fill="midnightblue" stroke="midnightblue" points="1102.68,-128.699 1112.46,-124.644 1102.28,-121.71 1102.68,-128.699"/>
</g>
<!-- Node24&#45;&gt;Node8 -->
<g id="edge42" class="edge"><title>Node24&#45;&gt;Node8</title>
<path fill="none" stroke="midnightblue" d="M356.944,-224.368C367.294,-206.296 391.417,-164.176 405.088,-140.307"/>
<polygon fill="midnightblue" stroke="midnightblue" points="408.147,-142.008 410.079,-131.591 402.072,-138.53 408.147,-142.008"/>
</g>
<!-- Node26 -->
<g id="node26" class="node"><title>Node26</title>
<g id="a_node26"><a xlink:href="dji__hotpoint_8hpp.html" target="_top" xlink:title="Implementation of HotPoint (Point of Interest) Missions for DJI OSDK. ">
<polygon fill="white" stroke="black" points="879.5,-224.5 879.5,-243.5 964.5,-243.5 964.5,-224.5 879.5,-224.5"/>
<text text-anchor="middle" x="922" y="-231.5" font-family="Helvetica,sans-Serif" font-size="10.00">dji_hotpoint.hpp</text>
</a>
</g>
</g>
<!-- Node25&#45;&gt;Node26 -->
<g id="edge44" class="edge"><title>Node25&#45;&gt;Node26</title>
<path fill="none" stroke="midnightblue" d="M1089.47,-280.444C1055.41,-271.201 1000.99,-256.436 963.485,-246.257"/>
<polygon fill="midnightblue" stroke="midnightblue" points="963.952,-242.758 953.385,-243.516 962.119,-249.513 963.952,-242.758"/>
</g>
<!-- Node28 -->
<g id="node28" class="node"><title>Node28</title>
<g id="a_node28"><a xlink:href="dji__waypoint_8hpp.html" target="_top" xlink:title="Implementation of GPS Waypoint Missions for DJI OSDK. ">
<polygon fill="white" stroke="black" points="1067.5,-224.5 1067.5,-243.5 1156.5,-243.5 1156.5,-224.5 1067.5,-224.5"/>
<text text-anchor="middle" x="1112" y="-231.5" font-family="Helvetica,sans-Serif" font-size="10.00">dji_waypoint.hpp</text>
</a>
</g>
</g>
<!-- Node25&#45;&gt;Node28 -->
<g id="edge50" class="edge"><title>Node25&#45;&gt;Node28</title>
<path fill="none" stroke="midnightblue" d="M1119.51,-280.083C1118.32,-272.927 1116.61,-262.635 1115.12,-253.691"/>
<polygon fill="midnightblue" stroke="midnightblue" points="1118.55,-253.04 1113.46,-243.751 1111.65,-254.19 1118.55,-253.04"/>
</g>
<!-- Node26&#45;&gt;Node4 -->
<g id="edge49" class="edge"><title>Node26&#45;&gt;Node4</title>
<path fill="none" stroke="midnightblue" d="M885.08,-224.444C844.605,-215.063 779.579,-199.993 735.616,-189.804"/>
<polygon fill="midnightblue" stroke="midnightblue" points="736.279,-186.365 725.747,-187.516 734.698,-193.184 736.279,-186.365"/>
</g>
<!-- Node27 -->
<g id="node27" class="node"><title>Node27</title>
<g id="a_node27"><a xlink:href="dji__mission__base_8hpp.html" target="_top" xlink:title="Mission&#45;Base abstract class for DJI OSDK library. ">
<polygon fill="white" stroke="black" points="1009,-168.5 1009,-187.5 1119,-187.5 1119,-168.5 1009,-168.5"/>
<text text-anchor="middle" x="1064" y="-175.5" font-family="Helvetica,sans-Serif" font-size="10.00">dji_mission_base.hpp</text>
</a>
</g>
</g>
<!-- Node26&#45;&gt;Node27 -->
<g id="edge45" class="edge"><title>Node26&#45;&gt;Node27</title>
<path fill="none" stroke="midnightblue" d="M944.5,-224.444C968.077,-215.478 1005.32,-201.314 1031.96,-191.183"/>
<polygon fill="midnightblue" stroke="midnightblue" points="1033.5,-194.342 1041.6,-187.516 1031.01,-187.8 1033.5,-194.342"/>
</g>
<!-- Node27&#45;&gt;Node5 -->
<g id="edge47" class="edge"><title>Node27&#45;&gt;Node5</title>
<path fill="none" stroke="midnightblue" d="M1077.34,-168.324C1090.16,-159.979 1109.78,-147.212 1124.94,-137.352"/>
<polygon fill="midnightblue" stroke="midnightblue" points="1127.22,-140.042 1133.7,-131.655 1123.41,-134.174 1127.22,-140.042"/>
</g>
<!-- Node27&#45;&gt;Node8 -->
<g id="edge48" class="edge"><title>Node27&#45;&gt;Node8</title>
<path fill="none" stroke="midnightblue" d="M1008.71,-169.112C1005.43,-168.716 1002.17,-168.341 999,-168 814.431,-148.13 596.128,-133.716 486.055,-127.08"/>
<polygon fill="midnightblue" stroke="midnightblue" points="486.258,-123.586 476.067,-126.482 485.839,-130.574 486.258,-123.586"/>
</g>
<!-- Node27&#45;&gt;Node13 -->
<g id="edge46" class="edge"><title>Node27&#45;&gt;Node13</title>
<path fill="none" stroke="midnightblue" d="M1106.31,-168.444C1153.08,-158.984 1228.46,-143.738 1278.85,-133.547"/>
<polygon fill="midnightblue" stroke="midnightblue" points="1279.78,-136.929 1288.89,-131.516 1278.4,-130.068 1279.78,-136.929"/>
</g>
<!-- Node28&#45;&gt;Node27 -->
<g id="edge51" class="edge"><title>Node28&#45;&gt;Node27</title>
<path fill="none" stroke="midnightblue" d="M1104.07,-224.083C1097.15,-216.298 1086.93,-204.801 1078.55,-195.367"/>
<polygon fill="midnightblue" stroke="midnightblue" points="1081.04,-192.9 1071.78,-187.751 1075.81,-197.55 1081.04,-192.9"/>
</g>
<!-- Node29&#45;&gt;Node8 -->
<g id="edge53" class="edge"><title>Node29&#45;&gt;Node8</title>
<path fill="none" stroke="midnightblue" d="M239.909,-224.368C272.791,-205.332 351.755,-159.615 391.422,-136.65"/>
<polygon fill="midnightblue" stroke="midnightblue" points="393.26,-139.631 400.16,-131.591 389.752,-133.573 393.26,-139.631"/>
</g>
<!-- Node33&#45;&gt;Node3 -->
<g id="edge64" class="edge"><title>Node33&#45;&gt;Node3</title>
<path fill="none" stroke="midnightblue" d="M948.953,-288.499C889.439,-286.436 782.303,-277.82 698,-244 603.246,-205.988 598.229,-163.371 510,-112 488.915,-99.7231 463.942,-87.9959 444.894,-79.5928"/>
<polygon fill="midnightblue" stroke="midnightblue" points="446.091,-76.2966 435.525,-75.5161 443.298,-82.7153 446.091,-76.2966"/>
</g>
<!-- Node33&#45;&gt;Node4 -->
<g id="edge66" class="edge"><title>Node33&#45;&gt;Node4</title>
<path fill="none" stroke="midnightblue" d="M966.977,-280.378C941.573,-271.997 902.675,-258.447 870,-244 852.545,-236.282 849.618,-231.338 832,-224 799.118,-210.303 760.522,-198.39 731.721,-190.268"/>
<polygon fill="midnightblue" stroke="midnightblue" points="732.539,-186.863 721.967,-187.556 730.664,-193.607 732.539,-186.863"/>
</g>
<!-- Node33&#45;&gt;Node5 -->
<g id="edge65" class="edge"><title>Node33&#45;&gt;Node5</title>
<path fill="none" stroke="midnightblue" d="M1037.08,-280.5C1085.09,-270.593 1157.08,-254.272 1165,-244 1188.35,-213.708 1169.94,-166.153 1156.97,-140.616"/>
<polygon fill="midnightblue" stroke="midnightblue" points="1160,-138.869 1152.2,-131.702 1153.83,-142.171 1160,-138.869"/>
</g>
<!-- Node33&#45;&gt;Node17 -->
<g id="edge63" class="edge"><title>Node33&#45;&gt;Node17</title>
<path fill="none" stroke="midnightblue" d="M997.633,-280.083C1000.61,-272.77 1004.93,-262.181 1008.62,-253.103"/>
<polygon fill="midnightblue" stroke="midnightblue" points="1011.9,-254.333 1012.43,-243.751 1005.42,-251.691 1011.9,-254.333"/>
</g>
</g>
</svg>
        <g id="navigator" transform="translate(0 0)" fill="#404254">
                <rect fill="#f2f5e9" fill-opacity="0.5" stroke="#606060" stroke-width=".5" x="0" y="0" width="60" height="60"/>
                <use id="zoomplus" xlink:href="#zoomPlus" x="17" y="9" onmousedown="handleZoom(evt,'in')"/>
                <use id="zoomminus" xlink:href="#zoomMin" x="42" y="9" onmousedown="handleZoom(evt,'out')"/>
                <use id="reset" xlink:href="#resetDef" x="30" y="36" onmousedown="handleReset()"/>
                <g id="arrowUp" xlink:href="#dirArrow" transform="translate(30 24)" onmousedown="handlePan(0,-1)">
                  <use xlink:href="#rim" fill="#404040">
                        <set attributeName="fill" to="#808080" begin="arrowUp.mouseover" end="arrowUp.mouseout"/>
                  </use>
                  <path fill="none" stroke="white" stroke-width="1.5" d="M0,-3.0v7 M-2.5,-0.5L0,-3.0L2.5,-0.5"/>
                </g>
                <g id="arrowRight" xlink:href="#dirArrow" transform="rotate(90) translate(36 -43)" onmousedown="handlePan(1,0)">
                  <use xlink:href="#rim" fill="#404040">
                        <set attributeName="fill" to="#808080" begin="arrowRight.mouseover" end="arrowRight.mouseout"/>
                  </use>
                  <path fill="none" stroke="white" stroke-width="1.5" d="M0,-3.0v7 M-2.5,-0.5L0,-3.0L2.5,-0.5"/>
                </g>
                <g id="arrowDown" xlink:href="#dirArrow" transform="rotate(180) translate(-30 -48)" onmousedown="handlePan(0,1)">
                  <use xlink:href="#rim" fill="#404040">
                        <set attributeName="fill" to="#808080" begin="arrowDown.mouseover" end="arrowDown.mouseout"/>
                  </use>
                  <path fill="none" stroke="white" stroke-width="1.5" d="M0,-3.0v7 M-2.5,-0.5L0,-3.0L2.5,-0.5"/>
                </g>
                <g id="arrowLeft" xlink:href="#dirArrow" transform="rotate(270) translate(-36 17)" onmousedown="handlePan(-1,0)">
                  <use xlink:href="#rim" fill="#404040">
                        <set attributeName="fill" to="#808080" begin="arrowLeft.mouseover" end="arrowLeft.mouseout"/>
                  </use>
                  <path fill="none" stroke="white" stroke-width="1.5" d="M0,-3.0v7 M-2.5,-0.5L0,-3.0L2.5,-0.5"/>
                </g>
        </g>
        <svg viewBox="0 0 15 15" width="100%" height="30px" preserveAspectRatio="xMaxYMin meet">
         <g id="arrow_out" transform="scale(0.3 0.3)">
          <a xlink:href="dji__subscription_8cpp__incl_org.svg" target="_base">
           <rect id="button" ry="5" rx="5" y="6" x="6" height="38" width="38"
                fill="#f2f5e9" fill-opacity="0.5" stroke="#606060" stroke-width="1.0"/>
           <path id="arrow"
             d="M 11.500037,31.436501 C 11.940474,20.09759 22.043105,11.32322 32.158766,21.979434 L 37.068811,17.246167 C 37.068811,17.246167 37.088388,32 37.088388,32 L 22.160133,31.978069 C 22.160133,31.978069 26.997745,27.140456 26.997745,27.140456 C 18.528582,18.264221 13.291696,25.230495 11.500037,31.436501 z"
             style="fill:#404040;"/>
          </a>
         </g>
        </svg>
</svg>
