<?xml version="1.0" encoding="UTF-8" standalone="no"?>
<!DOCTYPE svg PUBLIC "-//W3C//DTD SVG 1.1//EN"
 "http://www.w3.org/Graphics/SVG/1.1/DTD/svg11.dtd">
<!-- Generated by graphviz version 2.40.1 (20161225.0304)
 -->
<!-- Title: osdk&#45;lib/x86/osdk&#45;core/inc/dji_flight_link.hpp Pages: 1 -->
<!--zoomable 431 -->
<svg id="main" version="1.1" xmlns="http://www.w3.org/2000/svg" xmlns:xlink="http://www.w3.org/1999/xlink" xml:space="preserve" onload="init(evt)">
<style type="text/css"><![CDATA[
.edge:hover path { stroke: red; }
.edge:hover polygon { stroke: red; fill: red; }
]]></style>
<script type="text/javascript"><![CDATA[
var edges = document.getElementsByTagName('g');
if (edges && edges.length) {
  for (var i=0;i<edges.length;i++) {
    if (edges[i].id.substr(0,4)=='edge') {
      edges[i].setAttribute('class','edge');
    }
  }
}
]]></script>
        <defs>
                <circle id="rim" cx="0" cy="0" r="7"/>
                <circle id="rim2" cx="0" cy="0" r="3.5"/>
                <g id="zoomPlus">
                        <use xlink:href="#rim" fill="#404040">
                                <set attributeName="fill" to="#808080" begin="zoomplus.mouseover" end="zoomplus.mouseout"/>
                        </use>
                        <path d="M-4,0h8M0,-4v8" fill="none" stroke="white" stroke-width="1.5" pointer-events="none"/>
                </g>
                <g id="zoomMin">
                        <use xlink:href="#rim" fill="#404040">
                                <set attributeName="fill" to="#808080" begin="zoomminus.mouseover" end="zoomminus.mouseout"/>
                        </use>
                        <path d="M-4,0h8" fill="none" stroke="white" stroke-width="1.5" pointer-events="none"/>
                </g>
                <g id="dirArrow">
                        <path fill="none" stroke="white" stroke-width="1.5" d="M0,-3.0v7 M-2.5,-0.5L0,-3.0L2.5,-0.5"/>
                </g>
               <g id="resetDef">
                       <use xlink:href="#rim2" fill="#404040">
                               <set attributeName="fill" to="#808080" begin="reset.mouseover" end="reset.mouseout"/>
                       </use>
               </g>
        </defs>

<script type="text/javascript">
var viewWidth = 684;
var viewHeight = 431;
var sectionId = 'dynsection-0';
</script>
<script xlink:href="svgpan.js"/>
<svg id="graph" class="graph">
<g id="viewport">
<title>osdk&#45;lib/x86/osdk&#45;core/inc/dji_flight_link.hpp</title>
<polygon fill="#ffffff" stroke="transparent" points="-4,4 -4,-427 679.5,-427 679.5,4 -4,4"/>
<!-- Node0 -->
<g id="node1" class="node">
<title>Node0</title>
<g id="a_node1"><a xlink:title="Implementation of flight link.">
<polygon fill="#bfbfbf" stroke="#000000" points="137,-392.5 137,-422.5 252,-422.5 252,-392.5 137,-392.5"/>
<text text-anchor="start" x="145" y="-410.5" font-family="Helvetica,sans-Serif" font-size="10.00" fill="#000000">osdk&#45;lib/x86/osdk&#45;core</text>
<text text-anchor="middle" x="194.5" y="-399.5" font-family="Helvetica,sans-Serif" font-size="10.00" fill="#000000">/inc/dji_flight_link.hpp</text>
</a>
</g>
</g>
<!-- Node1 -->
<g id="node2" class="node">
<title>Node1</title>
<g id="a_node2"><a xlink:href="dji__vehicle__callback_8hpp.html" target="_top" xlink:title="Type definition for new Vehicle&#45;style callbacks.">
<polygon fill="#ffffff" stroke="#000000" points="133.5,-336.5 133.5,-355.5 255.5,-355.5 255.5,-336.5 133.5,-336.5"/>
<text text-anchor="middle" x="194.5" y="-343.5" font-family="Helvetica,sans-Serif" font-size="10.00" fill="#000000">dji_vehicle_callback.hpp</text>
</a>
</g>
</g>
<!-- Node0&#45;&gt;Node1 -->
<g id="edge1" class="edge">
<title>Node0&#45;&gt;Node1</title>
<path fill="none" stroke="#191970" d="M194.5,-392.2977C194.5,-384.3834 194.5,-374.6043 194.5,-366.0759"/>
<polygon fill="#191970" stroke="#191970" points="198.0001,-365.8469 194.5,-355.8469 191.0001,-365.847 198.0001,-365.8469"/>
</g>
<!-- Node2 -->
<g id="node3" class="node">
<title>Node2</title>
<g id="a_node3"><a xlink:href="dji__ack_8hpp.html" target="_top" xlink:title="All DJI OSDK ACK parsing.">
<polygon fill="#ffffff" stroke="#000000" points="161.5,-280.5 161.5,-299.5 227.5,-299.5 227.5,-280.5 161.5,-280.5"/>
<text text-anchor="middle" x="194.5" y="-287.5" font-family="Helvetica,sans-Serif" font-size="10.00" fill="#000000">dji_ack.hpp</text>
</a>
</g>
</g>
<!-- Node1&#45;&gt;Node2 -->
<g id="edge2" class="edge">
<title>Node1&#45;&gt;Node2</title>
<path fill="none" stroke="#191970" d="M194.5,-336.2455C194.5,-328.9382 194.5,-318.6944 194.5,-309.7046"/>
<polygon fill="#191970" stroke="#191970" points="198.0001,-309.6426 194.5,-299.6427 191.0001,-309.6427 198.0001,-309.6426"/>
</g>
<!-- Node12 -->
<g id="node13" class="node">
<title>Node12</title>
<g id="a_node13"><a xlink:href="dji__type_8hpp.html" target="_top" xlink:title="Data type and Data Structure definitions for use throughout DJI OSDK.">
<polygon fill="#ffffff" stroke="#000000" points="0,-168.5 0,-187.5 69,-187.5 69,-168.5 0,-168.5"/>
<text text-anchor="middle" x="34.5" y="-175.5" font-family="Helvetica,sans-Serif" font-size="10.00" fill="#000000">dji_type.hpp</text>
</a>
</g>
</g>
<!-- Node1&#45;&gt;Node12 -->
<g id="edge29" class="edge">
<title>Node1&#45;&gt;Node12</title>
<path fill="none" stroke="#191970" d="M163.8965,-336.4212C126.0011,-322.7298 63.0878,-293.5782 35.5,-244 27.6738,-229.9354 28.1342,-211.437 30.1441,-197.6036"/>
<polygon fill="#191970" stroke="#191970" points="33.6022,-198.1501 31.9596,-187.6834 26.7165,-196.8899 33.6022,-198.1501"/>
</g>
<!-- Node15 -->
<g id="node16" class="node">
<title>Node15</title>
<g id="a_node16"><a xlink:href="dji__log_8hpp.html" target="_top" xlink:title="Logging mechanism for printing status and error messages to the screen.">
<polygon fill="#ffffff" stroke="#000000" points="400,-224.5 400,-243.5 463,-243.5 463,-224.5 400,-224.5"/>
<text text-anchor="middle" x="431.5" y="-231.5" font-family="Helvetica,sans-Serif" font-size="10.00" fill="#000000">dji_log.hpp</text>
</a>
</g>
</g>
<!-- Node1&#45;&gt;Node15 -->
<g id="edge21" class="edge">
<title>Node1&#45;&gt;Node15</title>
<path fill="none" stroke="#191970" d="M214.7065,-336.4509C256.6839,-316.6135 353.4681,-270.8758 402.2572,-247.8194"/>
<polygon fill="#191970" stroke="#191970" points="403.7988,-250.9621 411.3447,-243.5249 400.8079,-244.6332 403.7988,-250.9621"/>
</g>
<!-- Node3 -->
<g id="node4" class="node">
<title>Node3</title>
<g id="a_node4"><a xlink:href="dji__command_8hpp.html" target="_top" xlink:title="All DJI OSDK OpenProtocol Command IDs.">
<polygon fill="#ffffff" stroke="#000000" points="274,-168.5 274,-187.5 367,-187.5 367,-168.5 274,-168.5"/>
<text text-anchor="middle" x="320.5" y="-175.5" font-family="Helvetica,sans-Serif" font-size="10.00" fill="#000000">dji_command.hpp</text>
</a>
</g>
</g>
<!-- Node2&#45;&gt;Node3 -->
<g id="edge3" class="edge">
<title>Node2&#45;&gt;Node3</title>
<path fill="none" stroke="#191970" d="M227.596,-286.5781C255.1611,-281.8565 293.0907,-270.6365 313.5,-244 323.4537,-231.0093 324.5173,-212.1176 323.4915,-197.8715"/>
<polygon fill="#191970" stroke="#191970" points="326.9378,-197.1943 322.3508,-187.6439 319.9809,-197.9702 326.9378,-197.1943"/>
</g>
<!-- Node6 -->
<g id="node7" class="node">
<title>Node6</title>
<g id="a_node7"><a xlink:title=" ">
<polygon fill="#ffffff" stroke="#bfbfbf" points="187,-56.5 187,-75.5 222,-75.5 222,-56.5 187,-56.5"/>
<text text-anchor="middle" x="204.5" y="-63.5" font-family="Helvetica,sans-Serif" font-size="10.00" fill="#000000">map</text>
</a>
</g>
</g>
<!-- Node2&#45;&gt;Node6 -->
<g id="edge20" class="edge">
<title>Node2&#45;&gt;Node6</title>
<path fill="none" stroke="#191970" d="M194.9297,-280.375C196.4426,-246.4851 201.5432,-132.2317 203.6146,-85.8332"/>
<polygon fill="#191970" stroke="#191970" points="207.1224,-85.7353 204.0719,-75.5891 200.1293,-85.4231 207.1224,-85.7353"/>
</g>
<!-- Node10 -->
<g id="node11" class="node">
<title>Node10</title>
<g id="a_node11"><a xlink:href="dji__mission__type_8hpp.html" target="_top" xlink:title="Mission related data struct for DJI OSDK library.">
<polygon fill="#ffffff" stroke="#000000" points="58.5,-224.5 58.5,-243.5 166.5,-243.5 166.5,-224.5 58.5,-224.5"/>
<text text-anchor="middle" x="112.5" y="-231.5" font-family="Helvetica,sans-Serif" font-size="10.00" fill="#000000">dji_mission_type.hpp</text>
</a>
</g>
</g>
<!-- Node2&#45;&gt;Node10 -->
<g id="edge11" class="edge">
<title>Node2&#45;&gt;Node10</title>
<path fill="none" stroke="#191970" d="M180.2167,-280.2455C167.753,-271.7337 149.4549,-259.2375 135.0208,-249.3801"/>
<polygon fill="#191970" stroke="#191970" points="136.8515,-246.392 126.6196,-243.6427 132.9038,-252.1726 136.8515,-246.392"/>
</g>
<!-- Node2&#45;&gt;Node12 -->
<g id="edge16" class="edge">
<title>Node2&#45;&gt;Node12</title>
<path fill="none" stroke="#191970" d="M161.2126,-283.4366C123.3049,-275.2996 64.6506,-260.4753 49.5,-244 38.203,-231.7153 34.8242,-212.7462 34.0547,-198.2913"/>
<polygon fill="#191970" stroke="#191970" points="37.5481,-197.8258 33.8956,-187.8805 30.5489,-197.9328 37.5481,-197.8258"/>
</g>
<!-- Node14 -->
<g id="node15" class="node">
<title>Node14</title>
<g id="a_node15"><a xlink:href="dji__version_8hpp.html" target="_top" xlink:title="Drone/SDK Version definition for DJI onboardSDK library.">
<polygon fill="#ffffff" stroke="#000000" points="222.5,-224.5 222.5,-243.5 304.5,-243.5 304.5,-224.5 222.5,-224.5"/>
<text text-anchor="middle" x="263.5" y="-231.5" font-family="Helvetica,sans-Serif" font-size="10.00" fill="#000000">dji_version.hpp</text>
</a>
</g>
</g>
<!-- Node2&#45;&gt;Node14 -->
<g id="edge17" class="edge">
<title>Node2&#45;&gt;Node14</title>
<path fill="none" stroke="#191970" d="M206.5189,-280.2455C216.7098,-271.9746 231.5362,-259.9416 243.5107,-250.2232"/>
<polygon fill="#191970" stroke="#191970" points="246.0598,-252.662 251.6188,-243.6427 241.6486,-247.2268 246.0598,-252.662"/>
</g>
<!-- Node4 -->
<g id="node5" class="node">
<title>Node4</title>
<g id="a_node5"><a xlink:href="dji__error_8hpp.html" target="_top" xlink:title="All DJI OSDK OpenProtocol ACK Error Codes.">
<polygon fill="#ffffff" stroke="#000000" points="260.5,-112.5 260.5,-131.5 330.5,-131.5 330.5,-112.5 260.5,-112.5"/>
<text text-anchor="middle" x="295.5" y="-119.5" font-family="Helvetica,sans-Serif" font-size="10.00" fill="#000000">dji_error.hpp</text>
</a>
</g>
</g>
<!-- Node3&#45;&gt;Node4 -->
<g id="edge4" class="edge">
<title>Node3&#45;&gt;Node4</title>
<path fill="none" stroke="#191970" d="M316.1453,-168.2455C312.7756,-160.6973 308.007,-150.0158 303.9017,-140.8197"/>
<polygon fill="#191970" stroke="#191970" points="307.0773,-139.3473 299.8048,-131.6427 300.6853,-142.2009 307.0773,-139.3473"/>
</g>
<!-- Node9 -->
<g id="node10" class="node">
<title>Node9</title>
<g id="a_node10"><a xlink:title=" ">
<polygon fill="#ffffff" stroke="#bfbfbf" points="334,-.5 334,-19.5 383,-19.5 383,-.5 334,-.5"/>
<text text-anchor="middle" x="358.5" y="-7.5" font-family="Helvetica,sans-Serif" font-size="10.00" fill="#000000">stdint.h</text>
</a>
</g>
</g>
<!-- Node3&#45;&gt;Node9 -->
<g id="edge10" class="edge">
<title>Node3&#45;&gt;Node9</title>
<path fill="none" stroke="#191970" d="M325.2683,-168.3681C329.6043,-159.2219 335.8644,-144.9797 339.5,-132 349.3825,-96.7176 354.5385,-54.1614 356.874,-29.7742"/>
<polygon fill="#191970" stroke="#191970" points="360.3741,-29.9278 357.7789,-19.6557 353.4019,-29.3042 360.3741,-29.9278"/>
</g>
<!-- Node5 -->
<g id="node6" class="node">
<title>Node5</title>
<g id="a_node6"><a xlink:title=" ">
<polygon fill="#ffffff" stroke="#bfbfbf" points="251.5,-56.5 251.5,-75.5 297.5,-75.5 297.5,-56.5 251.5,-56.5"/>
<text text-anchor="middle" x="274.5" y="-63.5" font-family="Helvetica,sans-Serif" font-size="10.00" fill="#000000">cstdint</text>
</a>
</g>
</g>
<!-- Node4&#45;&gt;Node5 -->
<g id="edge5" class="edge">
<title>Node4&#45;&gt;Node5</title>
<path fill="none" stroke="#191970" d="M291.8421,-112.2455C289.0416,-104.7776 285.091,-94.2427 281.6676,-85.1137"/>
<polygon fill="#191970" stroke="#191970" points="284.9045,-83.777 278.116,-75.6427 278.3501,-86.2349 284.9045,-83.777"/>
</g>
<!-- Node4&#45;&gt;Node6 -->
<g id="edge6" class="edge">
<title>Node4&#45;&gt;Node6</title>
<path fill="none" stroke="#191970" d="M279.649,-112.2455C265.6868,-103.6534 245.1272,-91.0014 229.0404,-81.1018"/>
<polygon fill="#191970" stroke="#191970" points="230.5203,-77.9029 220.1693,-75.6427 226.8516,-83.8645 230.5203,-77.9029"/>
</g>
<!-- Node7 -->
<g id="node8" class="node">
<title>Node7</title>
<g id="a_node8"><a xlink:href="osdk__typedef_8h_source.html" target="_top" xlink:title=" ">
<polygon fill="#ffffff" stroke="#000000" points="439,-56.5 439,-75.5 522,-75.5 522,-56.5 439,-56.5"/>
<text text-anchor="middle" x="480.5" y="-63.5" font-family="Helvetica,sans-Serif" font-size="10.00" fill="#000000">osdk_typedef.h</text>
</a>
</g>
</g>
<!-- Node4&#45;&gt;Node7 -->
<g id="edge7" class="edge">
<title>Node4&#45;&gt;Node7</title>
<path fill="none" stroke="#191970" d="M327.3026,-112.3733C358.3317,-102.9807 405.6754,-88.6496 439.5147,-78.4064"/>
<polygon fill="#191970" stroke="#191970" points="440.5553,-81.7483 449.1124,-75.5011 438.5272,-75.0485 440.5553,-81.7483"/>
</g>
<!-- Node8 -->
<g id="node9" class="node">
<title>Node8</title>
<g id="a_node9"><a xlink:title=" ">
<polygon fill="#ffffff" stroke="#bfbfbf" points="454.5,-.5 454.5,-19.5 506.5,-19.5 506.5,-.5 454.5,-.5"/>
<text text-anchor="middle" x="480.5" y="-7.5" font-family="Helvetica,sans-Serif" font-size="10.00" fill="#000000">stddef.h</text>
</a>
</g>
</g>
<!-- Node7&#45;&gt;Node8 -->
<g id="edge8" class="edge">
<title>Node7&#45;&gt;Node8</title>
<path fill="none" stroke="#191970" d="M480.5,-56.2455C480.5,-48.9382 480.5,-38.6944 480.5,-29.7046"/>
<polygon fill="#191970" stroke="#191970" points="484.0001,-29.6426 480.5,-19.6427 477.0001,-29.6427 484.0001,-29.6426"/>
</g>
<!-- Node7&#45;&gt;Node9 -->
<g id="edge9" class="edge">
<title>Node7&#45;&gt;Node9</title>
<path fill="none" stroke="#191970" d="M459.5275,-56.3733C439.9433,-47.3838 410.5039,-33.8706 388.449,-23.7471"/>
<polygon fill="#191970" stroke="#191970" points="389.7473,-20.4919 379.1989,-19.5011 386.8271,-26.8538 389.7473,-20.4919"/>
</g>
<!-- Node11 -->
<g id="node12" class="node">
<title>Node11</title>
<g id="a_node12"><a xlink:title=" ">
<polygon fill="#ffffff" stroke="#bfbfbf" points="90.5,-168.5 90.5,-187.5 134.5,-187.5 134.5,-168.5 90.5,-168.5"/>
<text text-anchor="middle" x="112.5" y="-175.5" font-family="Helvetica,sans-Serif" font-size="10.00" fill="#000000">vector</text>
</a>
</g>
</g>
<!-- Node10&#45;&gt;Node11 -->
<g id="edge12" class="edge">
<title>Node10&#45;&gt;Node11</title>
<path fill="none" stroke="#191970" d="M112.5,-224.2455C112.5,-216.9382 112.5,-206.6944 112.5,-197.7046"/>
<polygon fill="#191970" stroke="#191970" points="116.0001,-197.6426 112.5,-187.6427 109.0001,-197.6427 116.0001,-197.6426"/>
</g>
<!-- Node10&#45;&gt;Node12 -->
<g id="edge13" class="edge">
<title>Node10&#45;&gt;Node12</title>
<path fill="none" stroke="#191970" d="M98.9134,-224.2455C87.1695,-215.814 69.9801,-203.4729 56.3118,-193.6598"/>
<polygon fill="#191970" stroke="#191970" points="58.0954,-190.6316 47.9309,-187.6427 54.0129,-196.3179 58.0954,-190.6316"/>
</g>
<!-- Node12&#45;&gt;Node9 -->
<g id="edge15" class="edge">
<title>Node12&#45;&gt;Node9</title>
<path fill="none" stroke="#191970" d="M34.8155,-168.2939C35.7668,-154.2648 39.4538,-128.2281 53.5,-112 89.6336,-70.2535 251.9724,-32.1323 323.9502,-16.9508"/>
<polygon fill="#191970" stroke="#191970" points="324.8129,-20.3463 333.8885,-14.8797 323.3847,-13.4935 324.8129,-20.3463"/>
</g>
<!-- Node13 -->
<g id="node14" class="node">
<title>Node13</title>
<g id="a_node14"><a xlink:title=" ">
<polygon fill="#ffffff" stroke="#bfbfbf" points="63,-112.5 63,-131.5 106,-131.5 106,-112.5 63,-112.5"/>
<text text-anchor="middle" x="84.5" y="-119.5" font-family="Helvetica,sans-Serif" font-size="10.00" fill="#000000">cstdio</text>
</a>
</g>
</g>
<!-- Node12&#45;&gt;Node13 -->
<g id="edge14" class="edge">
<title>Node12&#45;&gt;Node13</title>
<path fill="none" stroke="#191970" d="M43.2093,-168.2455C50.3073,-160.2958 60.5084,-148.8706 68.995,-139.3656"/>
<polygon fill="#191970" stroke="#191970" points="71.8411,-141.4331 75.8905,-131.6427 66.6195,-136.771 71.8411,-141.4331"/>
</g>
<!-- Node14&#45;&gt;Node3 -->
<g id="edge18" class="edge">
<title>Node14&#45;&gt;Node3</title>
<path fill="none" stroke="#191970" d="M273.4286,-224.2455C281.6838,-216.1352 293.6209,-204.4075 303.4082,-194.7919"/>
<polygon fill="#191970" stroke="#191970" points="306.0046,-197.1476 310.6851,-187.6427 301.0989,-192.1542 306.0046,-197.1476"/>
</g>
<!-- Node14&#45;&gt;Node5 -->
<g id="edge19" class="edge">
<title>Node14&#45;&gt;Node5</title>
<path fill="none" stroke="#191970" d="M260.4403,-224.3662C254.2914,-203.5649 241.8182,-153.0126 251.5,-112 253.7706,-102.3814 258.3775,-92.4809 262.8759,-84.3404"/>
<polygon fill="#191970" stroke="#191970" points="265.8973,-86.1071 267.9603,-75.7151 259.867,-82.5524 265.8973,-86.1071"/>
</g>
<!-- Node16 -->
<g id="node17" class="node">
<title>Node16</title>
<g id="a_node17"><a xlink:href="dji__singleton_8hpp.html" target="_top" xlink:title="Singleton Template Class implementation for use with the DJI OSDK.">
<polygon fill="#ffffff" stroke="#000000" points="387,-112.5 387,-131.5 476,-131.5 476,-112.5 387,-112.5"/>
<text text-anchor="middle" x="431.5" y="-119.5" font-family="Helvetica,sans-Serif" font-size="10.00" fill="#000000">dji_singleton.hpp</text>
</a>
</g>
</g>
<!-- Node15&#45;&gt;Node16 -->
<g id="edge22" class="edge">
<title>Node15&#45;&gt;Node16</title>
<path fill="none" stroke="#191970" d="M431.5,-224.4509C431.5,-206.184 431.5,-165.9553 431.5,-141.6976"/>
<polygon fill="#191970" stroke="#191970" points="435.0001,-141.5249 431.5,-131.5249 428.0001,-141.5249 435.0001,-141.5249"/>
</g>
<!-- Node17 -->
<g id="node18" class="node">
<title>Node17</title>
<g id="a_node18"><a xlink:href="dji__platform_8hpp.html" target="_top" xlink:title="Vehicle API for DJI onboardSDK library.">
<polygon fill="#ffffff" stroke="#000000" points="474.5,-168.5 474.5,-187.5 560.5,-187.5 560.5,-168.5 474.5,-168.5"/>
<text text-anchor="middle" x="517.5" y="-175.5" font-family="Helvetica,sans-Serif" font-size="10.00" fill="#000000">dji_platform.hpp</text>
</a>
</g>
</g>
<!-- Node15&#45;&gt;Node17 -->
<g id="edge23" class="edge">
<title>Node15&#45;&gt;Node17</title>
<path fill="none" stroke="#191970" d="M446.4801,-224.2455C459.6751,-215.6534 479.1051,-203.0014 494.3079,-193.1018"/>
<polygon fill="#191970" stroke="#191970" points="496.2215,-196.0325 502.6916,-187.6427 492.4017,-190.1665 496.2215,-196.0325"/>
</g>
<!-- Node17&#45;&gt;Node16 -->
<g id="edge26" class="edge">
<title>Node17&#45;&gt;Node16</title>
<path fill="none" stroke="#191970" d="M502.5199,-168.2455C489.3249,-159.6534 469.8949,-147.0014 454.6921,-137.1018"/>
<polygon fill="#191970" stroke="#191970" points="456.5983,-134.1665 446.3084,-131.6427 452.7785,-140.0325 456.5983,-134.1665"/>
</g>
<!-- Node18 -->
<g id="node19" class="node">
<title>Node18</title>
<g id="a_node19"><a xlink:href="osdk__platform_8h.html" target="_top" xlink:title="This is the header file for define OSDK platform interfaces.">
<polygon fill="#ffffff" stroke="#000000" points="589.5,-112.5 589.5,-131.5 675.5,-131.5 675.5,-112.5 589.5,-112.5"/>
<text text-anchor="middle" x="632.5" y="-119.5" font-family="Helvetica,sans-Serif" font-size="10.00" fill="#000000">osdk_platform.h</text>
</a>
</g>
</g>
<!-- Node17&#45;&gt;Node18 -->
<g id="edge24" class="edge">
<title>Node17&#45;&gt;Node18</title>
<path fill="none" stroke="#191970" d="M537.2692,-168.3733C555.6469,-159.4241 583.2312,-145.9917 603.9893,-135.8835"/>
<polygon fill="#191970" stroke="#191970" points="605.5304,-139.026 612.9888,-131.5011 602.4657,-132.7325 605.5304,-139.026"/>
</g>
<!-- Node19 -->
<g id="node20" class="node">
<title>Node19</title>
<g id="a_node20"><a xlink:href="osdk__logger_8h.html" target="_top" xlink:title="This is the header file for &quot;osdk_logger.c&quot;, defining the structure and (exported) function prototype...">
<polygon fill="#ffffff" stroke="#000000" points="494,-112.5 494,-131.5 571,-131.5 571,-112.5 494,-112.5"/>
<text text-anchor="middle" x="532.5" y="-119.5" font-family="Helvetica,sans-Serif" font-size="10.00" fill="#000000">osdk_logger.h</text>
</a>
</g>
</g>
<!-- Node17&#45;&gt;Node19 -->
<g id="edge27" class="edge">
<title>Node17&#45;&gt;Node19</title>
<path fill="none" stroke="#191970" d="M520.1128,-168.2455C522.0916,-160.8579 524.8744,-150.4689 527.3012,-141.4087"/>
<polygon fill="#191970" stroke="#191970" points="530.7105,-142.2078 529.9171,-131.6427 523.9489,-140.3966 530.7105,-142.2078"/>
</g>
<!-- Node18&#45;&gt;Node7 -->
<g id="edge25" class="edge">
<title>Node18&#45;&gt;Node7</title>
<path fill="none" stroke="#191970" d="M606.3703,-112.3733C581.4232,-103.1822 543.6408,-89.2624 515.9794,-79.0713"/>
<polygon fill="#191970" stroke="#191970" points="516.8822,-75.674 506.2888,-75.5011 514.4622,-82.2424 516.8822,-75.674"/>
</g>
<!-- Node19&#45;&gt;Node7 -->
<g id="edge28" class="edge">
<title>Node19&#45;&gt;Node7</title>
<path fill="none" stroke="#191970" d="M523.4423,-112.2455C515.9858,-104.2155 505.2366,-92.6394 496.3583,-83.0781"/>
<polygon fill="#191970" stroke="#191970" points="498.8232,-80.589 489.4539,-75.6427 493.6937,-85.3522 498.8232,-80.589"/>
</g>
</g>
</svg>
        <g id="navigator" transform="translate(0 0)" fill="#404254">
                <rect fill="#f2f5e9" fill-opacity="0.5" stroke="#606060" stroke-width=".5" x="0" y="0" width="60" height="60"/>
                <use id="zoomplus" xlink:href="#zoomPlus" x="17" y="9" onmousedown="handleZoom(evt,'in')"/>
                <use id="zoomminus" xlink:href="#zoomMin" x="42" y="9" onmousedown="handleZoom(evt,'out')"/>
                <use id="reset" xlink:href="#resetDef" x="30" y="36" onmousedown="handleReset()"/>
                <g id="arrowUp" xlink:href="#dirArrow" transform="translate(30 24)" onmousedown="handlePan(0,-1)">
                  <use xlink:href="#rim" fill="#404040">
                        <set attributeName="fill" to="#808080" begin="arrowUp.mouseover" end="arrowUp.mouseout"/>
                  </use>
                  <path fill="none" stroke="white" stroke-width="1.5" d="M0,-3.0v7 M-2.5,-0.5L0,-3.0L2.5,-0.5"/>
                </g>
                <g id="arrowRight" xlink:href="#dirArrow" transform="rotate(90) translate(36 -43)" onmousedown="handlePan(1,0)">
                  <use xlink:href="#rim" fill="#404040">
                        <set attributeName="fill" to="#808080" begin="arrowRight.mouseover" end="arrowRight.mouseout"/>
                  </use>
                  <path fill="none" stroke="white" stroke-width="1.5" d="M0,-3.0v7 M-2.5,-0.5L0,-3.0L2.5,-0.5"/>
                </g>
                <g id="arrowDown" xlink:href="#dirArrow" transform="rotate(180) translate(-30 -48)" onmousedown="handlePan(0,1)">
                  <use xlink:href="#rim" fill="#404040">
                        <set attributeName="fill" to="#808080" begin="arrowDown.mouseover" end="arrowDown.mouseout"/>
                  </use>
                  <path fill="none" stroke="white" stroke-width="1.5" d="M0,-3.0v7 M-2.5,-0.5L0,-3.0L2.5,-0.5"/>
                </g>
                <g id="arrowLeft" xlink:href="#dirArrow" transform="rotate(270) translate(-36 17)" onmousedown="handlePan(-1,0)">
                  <use xlink:href="#rim" fill="#404040">
                        <set attributeName="fill" to="#808080" begin="arrowLeft.mouseover" end="arrowLeft.mouseout"/>
                  </use>
                  <path fill="none" stroke="white" stroke-width="1.5" d="M0,-3.0v7 M-2.5,-0.5L0,-3.0L2.5,-0.5"/>
                </g>
        </g>
        <svg viewBox="0 0 15 15" width="100%" height="30px" preserveAspectRatio="xMaxYMin meet">
         <g id="arrow_out" transform="scale(0.3 0.3)">
          <a xlink:href="dji__flight__link_8hpp__incl_org.svg" target="_base">
           <rect id="button" ry="5" rx="5" y="6" x="6" height="38" width="38"
                fill="#f2f5e9" fill-opacity="0.5" stroke="#606060" stroke-width="1.0"/>
           <path id="arrow"
             d="M 11.500037,31.436501 C 11.940474,20.09759 22.043105,11.32322 32.158766,21.979434 L 37.068811,17.246167 C 37.068811,17.246167 37.088388,32 37.088388,32 L 22.160133,31.978069 C 22.160133,31.978069 26.997745,27.140456 26.997745,27.140456 C 18.528582,18.264221 13.291696,25.230495 11.500037,31.436501 z"
             style="fill:#404040;"/>
          </a>
         </g>
        </svg>
</svg>
