<?xml version="1.0" encoding="UTF-8" standalone="no"?>
<!DOCTYPE svg PUBLIC "-//W3C//DTD SVG 1.1//EN"
 "http://www.w3.org/Graphics/SVG/1.1/DTD/svg11.dtd">
<!-- Generated by graphviz version 2.38.0 (20140413.2041)
 -->
<!-- Title: osdk&#45;core/api/src/dji_ack.cpp Pages: 1 -->
<svg width="364pt" height="319pt"
 viewBox="0.00 0.00 363.50 319.00" xmlns="http://www.w3.org/2000/svg" xmlns:xlink="http://www.w3.org/1999/xlink">
<g id="graph0" class="graph" transform="scale(1 1) rotate(0) translate(4 315)">
<title>osdk&#45;core/api/src/dji_ack.cpp</title>
<polygon fill="white" stroke="none" points="-4,4 -4,-315 359.5,-315 359.5,4 -4,4"/>
<!-- Node1 -->
<g id="node1" class="node"><title>Node1</title>
<polygon fill="#bfbfbf" stroke="black" points="205,-280.5 205,-310.5 309,-310.5 309,-280.5 205,-280.5"/>
<text text-anchor="start" x="213" y="-298.5" font-family="Helvetica,sans-Serif" font-size="10.00">osdk&#45;core/api/src/dji</text>
<text text-anchor="middle" x="257" y="-287.5" font-family="Helvetica,sans-Serif" font-size="10.00">_ack.cpp</text>
</g>
<!-- Node2 -->
<g id="node2" class="node"><title>Node2</title>
<g id="a_node2"><a xlink:href="dji__ack_8hpp.html" target="_top" xlink:title="All DJI OSDK ACK parsing. ">
<polygon fill="white" stroke="black" points="141,-224.5 141,-243.5 207,-243.5 207,-224.5 141,-224.5"/>
<text text-anchor="middle" x="174" y="-231.5" font-family="Helvetica,sans-Serif" font-size="10.00">dji_ack.hpp</text>
</a>
</g>
</g>
<!-- Node1&#45;&gt;Node2 -->
<g id="edge1" class="edge"><title>Node1&#45;&gt;Node2</title>
<path fill="none" stroke="midnightblue" d="M237.33,-280.399C224.399,-271.129 207.514,-259.025 194.432,-249.647"/>
<polygon fill="midnightblue" stroke="midnightblue" points="196.244,-246.639 186.077,-243.658 192.165,-252.329 196.244,-246.639"/>
</g>
<!-- Node12 -->
<g id="node12" class="node"><title>Node12</title>
<polygon fill="white" stroke="#bfbfbf" points="225.5,-224.5 225.5,-243.5 288.5,-243.5 288.5,-224.5 225.5,-224.5"/>
<text text-anchor="middle" x="257" y="-231.5" font-family="Helvetica,sans-Serif" font-size="10.00">dji_log.hpp</text>
</g>
<!-- Node1&#45;&gt;Node12 -->
<g id="edge15" class="edge"><title>Node1&#45;&gt;Node12</title>
<path fill="none" stroke="midnightblue" d="M257,-280.399C257,-272.466 257,-262.458 257,-253.858"/>
<polygon fill="midnightblue" stroke="midnightblue" points="260.5,-253.658 257,-243.658 253.5,-253.658 260.5,-253.658"/>
</g>
<!-- Node13 -->
<g id="node13" class="node"><title>Node13</title>
<polygon fill="white" stroke="#bfbfbf" points="306.5,-224.5 306.5,-243.5 355.5,-243.5 355.5,-224.5 306.5,-224.5"/>
<text text-anchor="middle" x="331" y="-231.5" font-family="Helvetica,sans-Serif" font-size="10.00">string.h</text>
</g>
<!-- Node1&#45;&gt;Node13 -->
<g id="edge16" class="edge"><title>Node1&#45;&gt;Node13</title>
<path fill="none" stroke="midnightblue" d="M274.537,-280.399C285.844,-271.308 300.542,-259.49 312.107,-250.191"/>
<polygon fill="midnightblue" stroke="midnightblue" points="314.632,-252.652 320.232,-243.658 310.246,-247.196 314.632,-252.652"/>
</g>
<!-- Node3 -->
<g id="node3" class="node"><title>Node3</title>
<g id="a_node3"><a xlink:href="dji__command_8hpp.html" target="_top" xlink:title="All DJI OSDK OpenProtocol Command IDs. ">
<polygon fill="white" stroke="black" points="127.5,-112.5 127.5,-131.5 220.5,-131.5 220.5,-112.5 127.5,-112.5"/>
<text text-anchor="middle" x="174" y="-119.5" font-family="Helvetica,sans-Serif" font-size="10.00">dji_command.hpp</text>
</a>
</g>
</g>
<!-- Node2&#45;&gt;Node3 -->
<g id="edge2" class="edge"><title>Node2&#45;&gt;Node3</title>
<path fill="none" stroke="midnightblue" d="M174,-224.368C174,-206.617 174,-165.666 174,-141.597"/>
<polygon fill="midnightblue" stroke="midnightblue" points="177.5,-141.591 174,-131.591 170.5,-141.591 177.5,-141.591"/>
</g>
<!-- Node6 -->
<g id="node6" class="node"><title>Node6</title>
<g id="a_node6"><a xlink:href="dji__mission__type_8hpp.html" target="_top" xlink:title="Mission related data struct for DJI OSDK library. ">
<polygon fill="white" stroke="black" points="0,-168.5 0,-187.5 108,-187.5 108,-168.5 0,-168.5"/>
<text text-anchor="middle" x="54" y="-175.5" font-family="Helvetica,sans-Serif" font-size="10.00">dji_mission_type.hpp</text>
</a>
</g>
</g>
<!-- Node2&#45;&gt;Node6 -->
<g id="edge6" class="edge"><title>Node2&#45;&gt;Node6</title>
<path fill="none" stroke="midnightblue" d="M154.986,-224.444C135.412,-215.636 104.692,-201.812 82.2711,-191.722"/>
<polygon fill="midnightblue" stroke="midnightblue" points="83.4809,-188.428 72.9254,-187.516 80.6083,-194.812 83.4809,-188.428"/>
</g>
<!-- Node7 -->
<g id="node7" class="node"><title>Node7</title>
<g id="a_node7"><a xlink:href="dji__type_8hpp.html" target="_top" xlink:title="Data type and Data Structure definitions for use throughout DJI OSDK. ">
<polygon fill="white" stroke="black" points="29.5,-112.5 29.5,-131.5 98.5,-131.5 98.5,-112.5 29.5,-112.5"/>
<text text-anchor="middle" x="64" y="-119.5" font-family="Helvetica,sans-Serif" font-size="10.00">dji_type.hpp</text>
</a>
</g>
</g>
<!-- Node2&#45;&gt;Node7 -->
<g id="edge10" class="edge"><title>Node2&#45;&gt;Node7</title>
<path fill="none" stroke="midnightblue" d="M167.003,-224.226C156.613,-211.387 136.255,-186.95 117,-168 106.246,-157.416 93.3579,-146.44 82.9835,-137.977"/>
<polygon fill="midnightblue" stroke="midnightblue" points="84.9477,-135.065 74.9624,-131.523 80.5596,-140.519 84.9477,-135.065"/>
</g>
<!-- Node9 -->
<g id="node9" class="node"><title>Node9</title>
<g id="a_node9"><a xlink:href="dji__version_8hpp.html" target="_top" xlink:title="Drone/SDK Version definition for DJI onboardSDK library. ">
<polygon fill="white" stroke="black" points="202,-168.5 202,-187.5 284,-187.5 284,-168.5 202,-168.5"/>
<text text-anchor="middle" x="243" y="-175.5" font-family="Helvetica,sans-Serif" font-size="10.00">dji_version.hpp</text>
</a>
</g>
</g>
<!-- Node2&#45;&gt;Node9 -->
<g id="edge11" class="edge"><title>Node2&#45;&gt;Node9</title>
<path fill="none" stroke="midnightblue" d="M185.086,-224.324C195.486,-216.185 211.261,-203.839 223.722,-194.087"/>
<polygon fill="midnightblue" stroke="midnightblue" points="225.994,-196.753 231.712,-187.834 221.68,-191.241 225.994,-196.753"/>
</g>
<!-- Node11 -->
<g id="node11" class="node"><title>Node11</title>
<polygon fill="white" stroke="#bfbfbf" points="302.5,-168.5 302.5,-187.5 337.5,-187.5 337.5,-168.5 302.5,-168.5"/>
<text text-anchor="middle" x="320" y="-175.5" font-family="Helvetica,sans-Serif" font-size="10.00">map</text>
</g>
<!-- Node2&#45;&gt;Node11 -->
<g id="edge14" class="edge"><title>Node2&#45;&gt;Node11</title>
<path fill="none" stroke="midnightblue" d="M197.134,-224.444C223.201,-214.802 265.517,-199.151 293.054,-188.966"/>
<polygon fill="midnightblue" stroke="midnightblue" points="294.308,-192.234 302.473,-185.483 291.88,-185.669 294.308,-192.234"/>
</g>
<!-- Node4 -->
<g id="node4" class="node"><title>Node4</title>
<g id="a_node4"><a xlink:href="dji__error_8hpp.html" target="_top" xlink:title="All DJI OSDK OpenProtocol ACK Error Codes. ">
<polygon fill="white" stroke="black" points="122,-56.5 122,-75.5 192,-75.5 192,-56.5 122,-56.5"/>
<text text-anchor="middle" x="157" y="-63.5" font-family="Helvetica,sans-Serif" font-size="10.00">dji_error.hpp</text>
</a>
</g>
</g>
<!-- Node3&#45;&gt;Node4 -->
<g id="edge3" class="edge"><title>Node3&#45;&gt;Node4</title>
<path fill="none" stroke="midnightblue" d="M171.193,-112.083C168.915,-104.849 165.629,-94.4087 162.792,-85.3968"/>
<polygon fill="midnightblue" stroke="midnightblue" points="166.096,-84.2385 159.755,-75.7511 159.419,-86.3406 166.096,-84.2385"/>
</g>
<!-- Node5 -->
<g id="node5" class="node"><title>Node5</title>
<polygon fill="white" stroke="#bfbfbf" points="132.5,-0.5 132.5,-19.5 181.5,-19.5 181.5,-0.5 132.5,-0.5"/>
<text text-anchor="middle" x="157" y="-7.5" font-family="Helvetica,sans-Serif" font-size="10.00">stdint.h</text>
</g>
<!-- Node3&#45;&gt;Node5 -->
<g id="edge5" class="edge"><title>Node3&#45;&gt;Node5</title>
<path fill="none" stroke="midnightblue" d="M182.279,-112.184C192.95,-99.6986 209.211,-76.1416 201,-56 196.2,-44.2251 186.671,-33.8564 177.705,-26.0486"/>
<polygon fill="midnightblue" stroke="midnightblue" points="179.755,-23.2048 169.781,-19.6314 175.35,-28.6448 179.755,-23.2048"/>
</g>
<!-- Node4&#45;&gt;Node5 -->
<g id="edge4" class="edge"><title>Node4&#45;&gt;Node5</title>
<path fill="none" stroke="midnightblue" d="M157,-56.083C157,-49.0059 157,-38.8611 157,-29.9865"/>
<polygon fill="midnightblue" stroke="midnightblue" points="160.5,-29.751 157,-19.7511 153.5,-29.7511 160.5,-29.751"/>
</g>
<!-- Node6&#45;&gt;Node7 -->
<g id="edge7" class="edge"><title>Node6&#45;&gt;Node7</title>
<path fill="none" stroke="midnightblue" d="M55.6513,-168.083C56.9764,-160.927 58.8824,-150.635 60.5387,-141.691"/>
<polygon fill="midnightblue" stroke="midnightblue" points="63.9999,-142.221 62.3794,-131.751 57.117,-140.947 63.9999,-142.221"/>
</g>
<!-- Node7&#45;&gt;Node5 -->
<g id="edge9" class="edge"><title>Node7&#45;&gt;Node5</title>
<path fill="none" stroke="midnightblue" d="M58.4715,-112.224C50.8876,-98.9506 39.4401,-73.4659 51,-56 66.7375,-32.222 97.841,-20.9712 122.304,-15.6695"/>
<polygon fill="midnightblue" stroke="midnightblue" points="123.159,-19.0693 132.317,-13.7424 121.836,-12.1954 123.159,-19.0693"/>
</g>
<!-- Node8 -->
<g id="node8" class="node"><title>Node8</title>
<polygon fill="white" stroke="#bfbfbf" points="60.5,-56.5 60.5,-75.5 103.5,-75.5 103.5,-56.5 60.5,-56.5"/>
<text text-anchor="middle" x="82" y="-63.5" font-family="Helvetica,sans-Serif" font-size="10.00">cstdio</text>
</g>
<!-- Node7&#45;&gt;Node8 -->
<g id="edge8" class="edge"><title>Node7&#45;&gt;Node8</title>
<path fill="none" stroke="midnightblue" d="M66.9723,-112.083C69.3838,-104.849 72.8638,-94.4087 75.8677,-85.3968"/>
<polygon fill="midnightblue" stroke="midnightblue" points="79.241,-86.3447 79.083,-75.7511 72.6002,-84.1311 79.241,-86.3447"/>
</g>
<!-- Node9&#45;&gt;Node3 -->
<g id="edge12" class="edge"><title>Node9&#45;&gt;Node3</title>
<path fill="none" stroke="midnightblue" d="M231.914,-168.324C221.514,-160.185 205.739,-147.839 193.278,-138.087"/>
<polygon fill="midnightblue" stroke="midnightblue" points="195.32,-135.241 185.288,-131.834 191.006,-140.753 195.32,-135.241"/>
</g>
<!-- Node10 -->
<g id="node10" class="node"><title>Node10</title>
<polygon fill="white" stroke="#bfbfbf" points="239,-112.5 239,-131.5 285,-131.5 285,-112.5 239,-112.5"/>
<text text-anchor="middle" x="262" y="-119.5" font-family="Helvetica,sans-Serif" font-size="10.00">cstdint</text>
</g>
<!-- Node9&#45;&gt;Node10 -->
<g id="edge13" class="edge"><title>Node9&#45;&gt;Node10</title>
<path fill="none" stroke="midnightblue" d="M246.137,-168.083C248.683,-160.849 252.356,-150.409 255.527,-141.397"/>
<polygon fill="midnightblue" stroke="midnightblue" points="258.903,-142.346 258.921,-131.751 252.3,-140.023 258.903,-142.346"/>
</g>
</g>
</svg>
