<?xml version="1.0" encoding="UTF-8" standalone="no"?>
<!DOCTYPE svg PUBLIC "-//W3C//DTD SVG 1.1//EN"
 "http://www.w3.org/Graphics/SVG/1.1/DTD/svg11.dtd">
<!-- Generated by graphviz version 2.40.1 (20161225.0304)
 -->
<!-- Title: osdk&#45;core/modules/inc/mop/dji_mop_pipeline.hpp Pages: 1 -->
<svg width="206pt" height="151pt"
 viewBox="0.00 0.00 206.00 151.00" xmlns="http://www.w3.org/2000/svg" xmlns:xlink="http://www.w3.org/1999/xlink">
<g id="graph0" class="graph" transform="scale(1 1) rotate(0) translate(4 147)">
<title>osdk&#45;core/modules/inc/mop/dji_mop_pipeline.hpp</title>
<polygon fill="#ffffff" stroke="transparent" points="-4,4 -4,-147 202,-147 202,4 -4,4"/>
<!-- Node0 -->
<g id="node1" class="node">
<title>Node0</title>
<g id="a_node1"><a xlink:title="Implementation of mop pipeline.">
<polygon fill="#bfbfbf" stroke="#000000" points="4.5,-112.5 4.5,-142.5 136.5,-142.5 136.5,-112.5 4.5,-112.5"/>
<text text-anchor="start" x="12.5" y="-130.5" font-family="Helvetica,sans-Serif" font-size="10.00" fill="#000000">osdk&#45;core/modules/inc</text>
<text text-anchor="middle" x="70.5" y="-119.5" font-family="Helvetica,sans-Serif" font-size="10.00" fill="#000000">/mop/dji_mop_pipeline.hpp</text>
</a>
</g>
</g>
<!-- Node1 -->
<g id="node2" class="node">
<title>Node1</title>
<g id="a_node2"><a xlink:title=" ">
<polygon fill="#ffffff" stroke="#bfbfbf" points="0,-56.5 0,-75.5 49,-75.5 49,-56.5 0,-56.5"/>
<text text-anchor="middle" x="24.5" y="-63.5" font-family="Helvetica,sans-Serif" font-size="10.00" fill="#000000">stdint.h</text>
</a>
</g>
</g>
<!-- Node0&#45;&gt;Node1 -->
<g id="edge1" class="edge">
<title>Node0&#45;&gt;Node1</title>
<path fill="none" stroke="#191970" d="M59.1292,-112.2977C52.7439,-103.7609 44.7359,-93.0545 38.0295,-84.0883"/>
<polygon fill="#191970" stroke="#191970" points="40.6575,-81.7584 31.8652,-75.8469 35.0521,-85.9511 40.6575,-81.7584"/>
</g>
<!-- Node2 -->
<g id="node3" class="node">
<title>Node2</title>
<g id="a_node3"><a xlink:href="dji__mop__define_8hpp.html" target="_top" xlink:title="Enumeration of all mop data types, structures.">
<polygon fill="#ffffff" stroke="#000000" points="67,-56.5 67,-75.5 168,-75.5 168,-56.5 67,-56.5"/>
<text text-anchor="middle" x="117.5" y="-63.5" font-family="Helvetica,sans-Serif" font-size="10.00" fill="#000000">dji_mop_define.hpp</text>
</a>
</g>
</g>
<!-- Node0&#45;&gt;Node2 -->
<g id="edge2" class="edge">
<title>Node0&#45;&gt;Node2</title>
<path fill="none" stroke="#191970" d="M82.118,-112.2977C88.71,-103.672 96.9948,-92.8312 103.8901,-83.8087"/>
<polygon fill="#191970" stroke="#191970" points="106.6835,-85.9176 109.9747,-75.8469 101.1217,-81.6671 106.6835,-85.9176"/>
</g>
<!-- Node3 -->
<g id="node4" class="node">
<title>Node3</title>
<g id="a_node4"><a xlink:title=" ">
<polygon fill="#ffffff" stroke="#bfbfbf" points="20,-.5 20,-19.5 117,-19.5 117,-.5 20,-.5"/>
<text text-anchor="middle" x="68.5" y="-7.5" font-family="Helvetica,sans-Serif" font-size="10.00" fill="#000000">mop_entry_osdk.h</text>
</a>
</g>
</g>
<!-- Node2&#45;&gt;Node3 -->
<g id="edge3" class="edge">
<title>Node2&#45;&gt;Node3</title>
<path fill="none" stroke="#191970" d="M108.9649,-56.2455C102.0088,-48.2958 92.0117,-36.8706 83.6949,-27.3656"/>
<polygon fill="#191970" stroke="#191970" points="86.1564,-24.8637 76.9373,-19.6427 80.8884,-29.4732 86.1564,-24.8637"/>
</g>
<!-- Node4 -->
<g id="node5" class="node">
<title>Node4</title>
<g id="a_node5"><a xlink:title=" ">
<polygon fill="#ffffff" stroke="#bfbfbf" points="135,-.5 135,-19.5 198,-19.5 198,-.5 135,-.5"/>
<text text-anchor="middle" x="166.5" y="-7.5" font-family="Helvetica,sans-Serif" font-size="10.00" fill="#000000">dji_log.hpp</text>
</a>
</g>
</g>
<!-- Node2&#45;&gt;Node4 -->
<g id="edge4" class="edge">
<title>Node2&#45;&gt;Node4</title>
<path fill="none" stroke="#191970" d="M126.0351,-56.2455C132.9912,-48.2958 142.9883,-36.8706 151.3051,-27.3656"/>
<polygon fill="#191970" stroke="#191970" points="154.1116,-29.4732 158.0627,-19.6427 148.8436,-24.8637 154.1116,-29.4732"/>
</g>
</g>
</svg>
