<?xml version="1.0" encoding="UTF-8" standalone="no"?>
<!DOCTYPE svg PUBLIC "-//W3C//DTD SVG 1.1//EN"
 "http://www.w3.org/Graphics/SVG/1.1/DTD/svg11.dtd">
<!-- Generated by graphviz version 2.40.1 (20161225.0304)
 -->
<!-- Title: osdk&#45;core/modules/inc/mop/dji_mop_pipeline_manager_base.hpp Pages: 1 -->
<svg width="286pt" height="218pt"
 viewBox="0.00 0.00 286.00 218.00" xmlns="http://www.w3.org/2000/svg" xmlns:xlink="http://www.w3.org/1999/xlink">
<g id="graph0" class="graph" transform="scale(1 1) rotate(0) translate(4 214)">
<title>osdk&#45;core/modules/inc/mop/dji_mop_pipeline_manager_base.hpp</title>
<polygon fill="#ffffff" stroke="transparent" points="-4,4 -4,-214 282,-214 282,4 -4,4"/>
<!-- Node0 -->
<g id="node1" class="node">
<title>Node0</title>
<g id="a_node1"><a xlink:title="Implementation of mop pipeline manager base.">
<polygon fill="#bfbfbf" stroke="#000000" points="73,-168.5 73,-209.5 188,-209.5 188,-168.5 73,-168.5"/>
<text text-anchor="start" x="81" y="-197.5" font-family="Helvetica,sans-Serif" font-size="10.00" fill="#000000">osdk&#45;core/modules/inc</text>
<text text-anchor="start" x="81" y="-186.5" font-family="Helvetica,sans-Serif" font-size="10.00" fill="#000000">/mop/dji_mop_pipeline</text>
<text text-anchor="middle" x="130.5" y="-175.5" font-family="Helvetica,sans-Serif" font-size="10.00" fill="#000000">_manager_base.hpp</text>
</a>
</g>
</g>
<!-- Node1 -->
<g id="node2" class="node">
<title>Node1</title>
<g id="a_node2"><a xlink:href="dji__mop__define_8hpp.html" target="_top" xlink:title="Enumeration of all mop data types, structures.">
<polygon fill="#ffffff" stroke="#000000" points="60,-56.5 60,-75.5 161,-75.5 161,-56.5 60,-56.5"/>
<text text-anchor="middle" x="110.5" y="-63.5" font-family="Helvetica,sans-Serif" font-size="10.00" fill="#000000">dji_mop_define.hpp</text>
</a>
</g>
</g>
<!-- Node0&#45;&gt;Node1 -->
<g id="edge1" class="edge">
<title>Node0&#45;&gt;Node1</title>
<path fill="none" stroke="#191970" d="M120.8982,-168.3801C116.4752,-157.7618 111.722,-144.4587 109.5,-132 106.7922,-116.8174 107.2077,-99.3582 108.211,-86.2117"/>
<polygon fill="#191970" stroke="#191970" points="111.7258,-86.2191 109.1803,-75.9346 104.7567,-85.5618 111.7258,-86.2191"/>
</g>
<!-- Node3 -->
<g id="node4" class="node">
<title>Node3</title>
<g id="a_node4"><a xlink:title=" ">
<polygon fill="#ffffff" stroke="#bfbfbf" points="0,-.5 0,-19.5 63,-19.5 63,-.5 0,-.5"/>
<text text-anchor="middle" x="31.5" y="-7.5" font-family="Helvetica,sans-Serif" font-size="10.00" fill="#000000">dji_log.hpp</text>
</a>
</g>
</g>
<!-- Node0&#45;&gt;Node3 -->
<g id="edge7" class="edge">
<title>Node0&#45;&gt;Node3</title>
<path fill="none" stroke="#191970" d="M112.5539,-168.2744C94.5878,-146.5796 67.2693,-110.8773 50.5,-76 43.3957,-61.2241 38.4417,-43.2807 35.3776,-29.8349"/>
<polygon fill="#191970" stroke="#191970" points="38.741,-28.8231 33.2426,-19.7667 31.8932,-30.2752 38.741,-28.8231"/>
</g>
<!-- Node4 -->
<g id="node5" class="node">
<title>Node4</title>
<g id="a_node5"><a xlink:href="dji__mop__pipeline_8hpp.html" target="_top" xlink:title="Implementation of mop pipeline.">
<polygon fill="#ffffff" stroke="#000000" points="118,-112.5 118,-131.5 225,-131.5 225,-112.5 118,-112.5"/>
<text text-anchor="middle" x="171.5" y="-119.5" font-family="Helvetica,sans-Serif" font-size="10.00" fill="#000000">dji_mop_pipeline.hpp</text>
</a>
</g>
</g>
<!-- Node0&#45;&gt;Node4 -->
<g id="edge4" class="edge">
<title>Node0&#45;&gt;Node4</title>
<path fill="none" stroke="#191970" d="M143.2479,-168.168C148.703,-159.2536 155.017,-148.9356 160.2907,-140.3177"/>
<polygon fill="#191970" stroke="#191970" points="163.2806,-142.137 165.5149,-131.7805 157.3099,-138.4833 163.2806,-142.137"/>
</g>
<!-- Node6 -->
<g id="node7" class="node">
<title>Node6</title>
<g id="a_node7"><a xlink:title=" ">
<polygon fill="#ffffff" stroke="#bfbfbf" points="243,-112.5 243,-131.5 278,-131.5 278,-112.5 243,-112.5"/>
<text text-anchor="middle" x="260.5" y="-119.5" font-family="Helvetica,sans-Serif" font-size="10.00" fill="#000000">map</text>
</a>
</g>
</g>
<!-- Node0&#45;&gt;Node6 -->
<g id="edge8" class="edge">
<title>Node0&#45;&gt;Node6</title>
<path fill="none" stroke="#191970" d="M170.565,-168.3511C191.1487,-157.7426 215.6644,-145.1076 233.8971,-135.7107"/>
<polygon fill="#191970" stroke="#191970" points="235.5193,-138.8122 242.8048,-131.1198 232.3124,-132.59 235.5193,-138.8122"/>
</g>
<!-- Node2 -->
<g id="node3" class="node">
<title>Node2</title>
<g id="a_node3"><a xlink:title=" ">
<polygon fill="#ffffff" stroke="#bfbfbf" points="81,-.5 81,-19.5 178,-19.5 178,-.5 81,-.5"/>
<text text-anchor="middle" x="129.5" y="-7.5" font-family="Helvetica,sans-Serif" font-size="10.00" fill="#000000">mop_entry_osdk.h</text>
</a>
</g>
</g>
<!-- Node1&#45;&gt;Node2 -->
<g id="edge2" class="edge">
<title>Node1&#45;&gt;Node2</title>
<path fill="none" stroke="#191970" d="M113.8095,-56.2455C116.3433,-48.7776 119.9177,-38.2427 123.015,-29.1137"/>
<polygon fill="#191970" stroke="#191970" points="126.3298,-30.237 126.2284,-19.6427 119.7009,-27.9879 126.3298,-30.237"/>
</g>
<!-- Node1&#45;&gt;Node3 -->
<g id="edge3" class="edge">
<title>Node1&#45;&gt;Node3</title>
<path fill="none" stroke="#191970" d="M96.7393,-56.2455C84.8448,-47.814 67.435,-35.4729 53.5915,-25.6598"/>
<polygon fill="#191970" stroke="#191970" points="55.2854,-22.5704 45.1031,-19.6427 51.2372,-28.2811 55.2854,-22.5704"/>
</g>
<!-- Node4&#45;&gt;Node1 -->
<g id="edge6" class="edge">
<title>Node4&#45;&gt;Node1</title>
<path fill="none" stroke="#191970" d="M160.8746,-112.2455C151.9527,-104.0549 139.012,-92.1749 128.4808,-82.5069"/>
<polygon fill="#191970" stroke="#191970" points="130.7371,-79.8271 121.0036,-75.6427 126.0032,-84.9837 130.7371,-79.8271"/>
</g>
<!-- Node5 -->
<g id="node6" class="node">
<title>Node5</title>
<g id="a_node6"><a xlink:title=" ">
<polygon fill="#ffffff" stroke="#bfbfbf" points="179,-56.5 179,-75.5 228,-75.5 228,-56.5 179,-56.5"/>
<text text-anchor="middle" x="203.5" y="-63.5" font-family="Helvetica,sans-Serif" font-size="10.00" fill="#000000">stdint.h</text>
</a>
</g>
</g>
<!-- Node4&#45;&gt;Node5 -->
<g id="edge5" class="edge">
<title>Node4&#45;&gt;Node5</title>
<path fill="none" stroke="#191970" d="M177.074,-112.2455C181.4331,-104.617 187.6211,-93.7881 192.9133,-84.5267"/>
<polygon fill="#191970" stroke="#191970" points="196.0673,-86.0616 197.9899,-75.6427 189.9896,-82.5886 196.0673,-86.0616"/>
</g>
</g>
</svg>
