<?xml version="1.0" encoding="UTF-8" standalone="no"?>
<!DOCTYPE svg PUBLIC "-//W3C//DTD SVG 1.1//EN"
 "http://www.w3.org/Graphics/SVG/1.1/DTD/svg11.dtd">
<!-- Generated by graphviz version 2.38.0 (20140413.2041)
 -->
<!-- Title: osdk&#45;core/api/src/dji_subscription.cpp Pages: 1 -->
<svg width="2109pt" height="431pt"
 viewBox="0.00 0.00 2109.00 431.00" xmlns="http://www.w3.org/2000/svg" xmlns:xlink="http://www.w3.org/1999/xlink">
<g id="graph0" class="graph" transform="scale(1 1) rotate(0) translate(4 427)">
<title>osdk&#45;core/api/src/dji_subscription.cpp</title>
<polygon fill="white" stroke="none" points="-4,4 -4,-427 2105,-427 2105,4 -4,4"/>
<!-- Node1 -->
<g id="node1" class="node"><title>Node1</title>
<polygon fill="#bfbfbf" stroke="black" points="549.5,-392.5 549.5,-422.5 653.5,-422.5 653.5,-392.5 549.5,-392.5"/>
<text text-anchor="start" x="557.5" y="-410.5" font-family="Helvetica,sans-Serif" font-size="10.00">osdk&#45;core/api/src/dji</text>
<text text-anchor="middle" x="601.5" y="-399.5" font-family="Helvetica,sans-Serif" font-size="10.00">_subscription.cpp</text>
</g>
<!-- Node2 -->
<g id="node2" class="node"><title>Node2</title>
<g id="a_node2"><a xlink:href="dji__subscription_8hpp.html" target="_top" xlink:title="Telemetry Subscription API for DJI OSDK library. ">
<polygon fill="white" stroke="black" points="123,-224.5 123,-243.5 226,-243.5 226,-224.5 123,-224.5"/>
<text text-anchor="middle" x="174.5" y="-231.5" font-family="Helvetica,sans-Serif" font-size="10.00">dji_subscription.hpp</text>
</a>
</g>
</g>
<!-- Node1&#45;&gt;Node2 -->
<g id="edge1" class="edge"><title>Node1&#45;&gt;Node2</title>
<path fill="none" stroke="midnightblue" d="M549.296,-398.3C477.453,-385.405 345.737,-355.888 246.5,-300 223.931,-287.289 202.49,-266.388 188.97,-251.727"/>
<polygon fill="midnightblue" stroke="midnightblue" points="191.257,-249.034 181.975,-243.924 186.044,-253.707 191.257,-249.034"/>
</g>
<!-- Node9 -->
<g id="node9" class="node"><title>Node9</title>
<g id="a_node9"><a xlink:href="dji__vehicle_8hpp.html" target="_top" xlink:title="Vehicle API for DJI onboardSDK library. ">
<polygon fill="white" stroke="black" points="1145,-336.5 1145,-355.5 1226,-355.5 1226,-336.5 1145,-336.5"/>
<text text-anchor="middle" x="1185.5" y="-343.5" font-family="Helvetica,sans-Serif" font-size="10.00">dji_vehicle.hpp</text>
</a>
</g>
</g>
<!-- Node1&#45;&gt;Node9 -->
<g id="edge9" class="edge"><title>Node1&#45;&gt;Node9</title>
<path fill="none" stroke="midnightblue" d="M653.583,-401.194C764.892,-389.853 1024.75,-363.378 1134.81,-352.164"/>
<polygon fill="midnightblue" stroke="midnightblue" points="1135.39,-355.624 1144.98,-351.128 1134.68,-348.66 1135.39,-355.624"/>
</g>
<!-- Node3 -->
<g id="node3" class="node"><title>Node3</title>
<polygon fill="white" stroke="#bfbfbf" points="464,-56.5 464,-75.5 575,-75.5 575,-56.5 464,-56.5"/>
<text text-anchor="middle" x="519.5" y="-63.5" font-family="Helvetica,sans-Serif" font-size="10.00">dji_open_protocol.hpp</text>
</g>
<!-- Node2&#45;&gt;Node3 -->
<g id="edge2" class="edge"><title>Node2&#45;&gt;Node3</title>
<path fill="none" stroke="midnightblue" d="M178.702,-224.204C190.078,-201.438 223.851,-140.386 271.5,-112 301.547,-94.1003 390.765,-81.009 453.544,-73.7002"/>
<polygon fill="midnightblue" stroke="midnightblue" points="454.229,-77.1448 463.768,-72.5335 453.435,-70.1899 454.229,-77.1448"/>
</g>
<!-- Node4 -->
<g id="node4" class="node"><title>Node4</title>
<g id="a_node4"><a xlink:href="dji__telemetry_8hpp.html" target="_top" xlink:title="Enumeration of all telemetry data types, structures and maps. ">
<polygon fill="white" stroke="black" points="747,-168.5 747,-187.5 838,-187.5 838,-168.5 747,-168.5"/>
<text text-anchor="middle" x="792.5" y="-175.5" font-family="Helvetica,sans-Serif" font-size="10.00">dji_telemetry.hpp</text>
</a>
</g>
</g>
<!-- Node2&#45;&gt;Node4 -->
<g id="edge3" class="edge"><title>Node2&#45;&gt;Node4</title>
<path fill="none" stroke="midnightblue" d="M226.181,-225.019C228.992,-224.656 231.779,-224.313 234.5,-224 417.738,-202.894 635.962,-188.35 736.594,-182.238"/>
<polygon fill="midnightblue" stroke="midnightblue" points="737.058,-185.717 746.829,-181.621 736.636,-178.729 737.058,-185.717"/>
</g>
<!-- Node8 -->
<g id="node8" class="node"><title>Node8</title>
<g id="a_node8"><a xlink:href="dji__vehicle__callback_8hpp.html" target="_top" xlink:title="Type definition for new Vehicle&#45;style callbacks. ">
<polygon fill="white" stroke="black" points="280.5,-112.5 280.5,-131.5 402.5,-131.5 402.5,-112.5 280.5,-112.5"/>
<text text-anchor="middle" x="341.5" y="-119.5" font-family="Helvetica,sans-Serif" font-size="10.00">dji_vehicle_callback.hpp</text>
</a>
</g>
</g>
<!-- Node2&#45;&gt;Node8 -->
<g id="edge7" class="edge"><title>Node2&#45;&gt;Node8</title>
<path fill="none" stroke="midnightblue" d="M187.604,-224.368C216.261,-205.492 284.743,-160.385 319.886,-137.237"/>
<polygon fill="midnightblue" stroke="midnightblue" points="322.031,-140.015 328.457,-131.591 318.18,-134.169 322.031,-140.015"/>
</g>
<!-- Node5 -->
<g id="node5" class="node"><title>Node5</title>
<g id="a_node5"><a xlink:href="dji__type_8hpp.html" target="_top" xlink:title="Data type and Data Structure definitions for use throughout DJI OSDK. ">
<polygon fill="white" stroke="black" points="1134,-112.5 1134,-131.5 1203,-131.5 1203,-112.5 1134,-112.5"/>
<text text-anchor="middle" x="1168.5" y="-119.5" font-family="Helvetica,sans-Serif" font-size="10.00">dji_type.hpp</text>
</a>
</g>
</g>
<!-- Node4&#45;&gt;Node5 -->
<g id="edge4" class="edge"><title>Node4&#45;&gt;Node5</title>
<path fill="none" stroke="midnightblue" d="M838.032,-170.134C842.915,-169.408 847.81,-168.686 852.5,-168 949.169,-153.867 1062.56,-137.858 1123.8,-129.259"/>
<polygon fill="midnightblue" stroke="midnightblue" points="1124.47,-132.699 1133.89,-127.843 1123.5,-125.767 1124.47,-132.699"/>
</g>
<!-- Node6 -->
<g id="node6" class="node"><title>Node6</title>
<polygon fill="white" stroke="#bfbfbf" points="1147,-56.5 1147,-75.5 1190,-75.5 1190,-56.5 1147,-56.5"/>
<text text-anchor="middle" x="1168.5" y="-63.5" font-family="Helvetica,sans-Serif" font-size="10.00">cstdio</text>
</g>
<!-- Node5&#45;&gt;Node6 -->
<g id="edge5" class="edge"><title>Node5&#45;&gt;Node6</title>
<path fill="none" stroke="midnightblue" d="M1168.5,-112.083C1168.5,-105.006 1168.5,-94.8611 1168.5,-85.9865"/>
<polygon fill="midnightblue" stroke="midnightblue" points="1172,-85.751 1168.5,-75.7511 1165,-85.7511 1172,-85.751"/>
</g>
<!-- Node7 -->
<g id="node7" class="node"><title>Node7</title>
<polygon fill="white" stroke="#bfbfbf" points="1307,-0.5 1307,-19.5 1356,-19.5 1356,-0.5 1307,-0.5"/>
<text text-anchor="middle" x="1331.5" y="-7.5" font-family="Helvetica,sans-Serif" font-size="10.00">stdint.h</text>
</g>
<!-- Node5&#45;&gt;Node7 -->
<g id="edge6" class="edge"><title>Node5&#45;&gt;Node7</title>
<path fill="none" stroke="midnightblue" d="M1181.29,-112.368C1209.26,-93.4924 1276.1,-48.385 1310.4,-25.2367"/>
<polygon fill="midnightblue" stroke="midnightblue" points="1312.44,-28.0865 1318.77,-19.5914 1308.52,-22.2841 1312.44,-28.0865"/>
</g>
<!-- Node8&#45;&gt;Node3 -->
<g id="edge8" class="edge"><title>Node8&#45;&gt;Node3</title>
<path fill="none" stroke="midnightblue" d="M369.705,-112.444C399.91,-103.28 448.011,-88.6876 481.529,-78.5192"/>
<polygon fill="midnightblue" stroke="midnightblue" points="482.874,-81.7688 491.427,-75.5164 480.842,-75.0703 482.874,-81.7688"/>
</g>
<!-- Node9&#45;&gt;Node2 -->
<g id="edge60" class="edge"><title>Node9&#45;&gt;Node2</title>
<path fill="none" stroke="midnightblue" d="M1144.8,-345.204C993.36,-345.611 462.865,-343.808 300.5,-300 260.849,-289.302 219.36,-264.937 195.272,-249.265"/>
<polygon fill="midnightblue" stroke="midnightblue" points="196.911,-246.152 186.645,-243.536 193.039,-251.984 196.911,-246.152"/>
</g>
<!-- Node9&#45;&gt;Node3 -->
<g id="edge57" class="edge"><title>Node9&#45;&gt;Node3</title>
<path fill="none" stroke="midnightblue" d="M1144.88,-344.156C1033.14,-341.452 723.065,-331.264 626.5,-300 573.563,-282.861 519.5,-290.643 519.5,-235 519.5,-235 519.5,-235 519.5,-177 519.5,-144.948 519.5,-107.643 519.5,-85.7489"/>
<polygon fill="midnightblue" stroke="midnightblue" points="523,-85.5577 519.5,-75.5578 516,-85.5578 523,-85.5577"/>
</g>
<!-- Node9&#45;&gt;Node5 -->
<g id="edge62" class="edge"><title>Node9&#45;&gt;Node5</title>
<path fill="none" stroke="midnightblue" d="M1200.88,-336.384C1213.34,-328.556 1230.3,-315.827 1239.5,-300 1269.08,-249.099 1280.49,-218.661 1250.5,-168 1241.53,-152.84 1225.43,-142.448 1209.87,-135.504"/>
<polygon fill="midnightblue" stroke="midnightblue" points="1210.89,-132.143 1200.31,-131.615 1208.25,-138.627 1210.89,-132.143"/>
</g>
<!-- Node9&#45;&gt;Node8 -->
<g id="edge63" class="edge"><title>Node9&#45;&gt;Node8</title>
<path fill="none" stroke="midnightblue" d="M1144.87,-344.936C987.926,-344.4 421.376,-339.695 246.5,-300 183.954,-285.803 148.977,-297.432 113.5,-244 68.394,-176.067 104.653,-227.712 239.5,-168 264.138,-157.09 292.145,-144.738 312.569,-135.738"/>
<polygon fill="midnightblue" stroke="midnightblue" points="314.198,-138.845 321.939,-131.611 311.377,-132.439 314.198,-138.845"/>
</g>
<!-- Node10 -->
<g id="node10" class="node"><title>Node10</title>
<polygon fill="white" stroke="#bfbfbf" points="1845.5,-112.5 1845.5,-131.5 1891.5,-131.5 1891.5,-112.5 1845.5,-112.5"/>
<text text-anchor="middle" x="1868.5" y="-119.5" font-family="Helvetica,sans-Serif" font-size="10.00">cstdint</text>
</g>
<!-- Node9&#45;&gt;Node10 -->
<g id="edge10" class="edge"><title>Node9&#45;&gt;Node10</title>
<path fill="none" stroke="midnightblue" d="M1226.16,-344.509C1397.79,-342.244 2055.51,-331.526 2085.5,-300 2153.48,-228.532 1977.41,-159.169 1901.42,-133.465"/>
<polygon fill="midnightblue" stroke="midnightblue" points="1902.42,-130.108 1891.82,-130.271 1900.21,-136.75 1902.42,-130.108"/>
</g>
<!-- Node11 -->
<g id="node11" class="node"><title>Node11</title>
<g id="a_node11"><a xlink:href="dji__broadcast_8hpp.html" target="_top" xlink:title="Broadcast Telemetry API for DJI onboardSDK library. ">
<polygon fill="white" stroke="black" points="548,-224.5 548,-243.5 641,-243.5 641,-224.5 548,-224.5"/>
<text text-anchor="middle" x="594.5" y="-231.5" font-family="Helvetica,sans-Serif" font-size="10.00">dji_broadcast.hpp</text>
</a>
</g>
</g>
<!-- Node9&#45;&gt;Node11 -->
<g id="edge11" class="edge"><title>Node9&#45;&gt;Node11</title>
<path fill="none" stroke="midnightblue" d="M1144.82,-345.127C1036.7,-344.902 744.625,-340.458 658.5,-300 635.973,-289.418 616.985,-267.332 605.681,-251.855"/>
<polygon fill="midnightblue" stroke="midnightblue" points="608.54,-249.836 599.944,-243.643 602.801,-253.845 608.54,-249.836"/>
</g>
<!-- Node12 -->
<g id="node12" class="node"><title>Node12</title>
<g id="a_node12"><a xlink:href="dji__camera_8hpp.html" target="_top" xlink:title="Camera/Gimbal API for DJI onboardSDK library. ">
<polygon fill="white" stroke="black" points="1452,-168.5 1452,-187.5 1535,-187.5 1535,-168.5 1452,-168.5"/>
<text text-anchor="middle" x="1493.5" y="-175.5" font-family="Helvetica,sans-Serif" font-size="10.00">dji_camera.hpp</text>
</a>
</g>
</g>
<!-- Node9&#45;&gt;Node12 -->
<g id="edge14" class="edge"><title>Node9&#45;&gt;Node12</title>
<path fill="none" stroke="midnightblue" d="M1226.22,-338.458C1255.97,-332.215 1296.23,-320.606 1326.5,-300 1362.53,-275.468 1353.68,-250.232 1388.5,-224 1408.05,-209.267 1433.17,-198.279 1453.93,-190.85"/>
<polygon fill="midnightblue" stroke="midnightblue" points="1455.11,-194.146 1463.43,-187.587 1452.83,-187.526 1455.11,-194.146"/>
</g>
<!-- Node13 -->
<g id="node13" class="node"><title>Node13</title>
<g id="a_node13"><a xlink:href="dji__command_8hpp.html" target="_top" xlink:title="All DJI OSDK OpenProtocol Command IDs. ">
<polygon fill="white" stroke="black" points="1348,-112.5 1348,-131.5 1441,-131.5 1441,-112.5 1348,-112.5"/>
<text text-anchor="middle" x="1394.5" y="-119.5" font-family="Helvetica,sans-Serif" font-size="10.00">dji_command.hpp</text>
</a>
</g>
</g>
<!-- Node9&#45;&gt;Node13 -->
<g id="edge21" class="edge"><title>Node9&#45;&gt;Node13</title>
<path fill="none" stroke="midnightblue" d="M1226.05,-337.114C1260.28,-329.732 1310.16,-317.246 1351.5,-300 1443.03,-261.812 1495.01,-273.943 1544.5,-188 1567.21,-148.571 1502.65,-133.035 1451.22,-126.929"/>
<polygon fill="midnightblue" stroke="midnightblue" points="1451.46,-123.434 1441.14,-125.829 1450.7,-130.393 1451.46,-123.434"/>
</g>
<!-- Node15 -->
<g id="node15" class="node"><title>Node15</title>
<polygon fill="white" stroke="#bfbfbf" points="1468.5,-280.5 1468.5,-299.5 1580.5,-299.5 1580.5,-280.5 1468.5,-280.5"/>
<text text-anchor="middle" x="1524.5" y="-287.5" font-family="Helvetica,sans-Serif" font-size="10.00">dji_circular_buffer.hpp</text>
</g>
<!-- Node9&#45;&gt;Node15 -->
<g id="edge20" class="edge"><title>Node9&#45;&gt;Node15</title>
<path fill="none" stroke="midnightblue" d="M1226.05,-338.54C1284.23,-329.273 1391.92,-312.119 1460.79,-301.148"/>
<polygon fill="midnightblue" stroke="midnightblue" points="1461.75,-304.539 1471.08,-299.509 1460.65,-297.626 1461.75,-304.539"/>
</g>
<!-- Node16 -->
<g id="node16" class="node"><title>Node16</title>
<g id="a_node16"><a xlink:href="dji__control_8hpp.html" target="_top" xlink:title="Control API for DJI OSDK library. ">
<polygon fill="white" stroke="black" points="667.5,-280.5 667.5,-299.5 747.5,-299.5 747.5,-280.5 667.5,-280.5"/>
<text text-anchor="middle" x="707.5" y="-287.5" font-family="Helvetica,sans-Serif" font-size="10.00">dji_control.hpp</text>
</a>
</g>
</g>
<!-- Node9&#45;&gt;Node16 -->
<g id="edge22" class="edge"><title>Node9&#45;&gt;Node16</title>
<path fill="none" stroke="midnightblue" d="M1144.75,-340.396C1057.5,-330.54 852.889,-307.425 757.764,-296.678"/>
<polygon fill="midnightblue" stroke="midnightblue" points="758.143,-293.199 747.813,-295.554 757.357,-300.155 758.143,-293.199"/>
</g>
<!-- Node19 -->
<g id="node19" class="node"><title>Node19</title>
<g id="a_node19"><a xlink:href="dji__version_8hpp.html" target="_top" xlink:title="Drone/SDK Version definition for DJI onboardSDK library. ">
<polygon fill="white" stroke="black" points="1591.5,-168.5 1591.5,-187.5 1673.5,-187.5 1673.5,-168.5 1591.5,-168.5"/>
<text text-anchor="middle" x="1632.5" y="-175.5" font-family="Helvetica,sans-Serif" font-size="10.00">dji_version.hpp</text>
</a>
</g>
</g>
<!-- Node9&#45;&gt;Node19 -->
<g id="edge64" class="edge"><title>Node9&#45;&gt;Node19</title>
<path fill="none" stroke="midnightblue" d="M1226.2,-341.033C1273.18,-335.557 1352.25,-323.564 1416.5,-300 1456.24,-285.427 1562.66,-221.671 1609.66,-193.025"/>
<polygon fill="midnightblue" stroke="midnightblue" points="1611.77,-195.833 1618.48,-187.632 1608.12,-189.86 1611.77,-195.833"/>
</g>
<!-- Node21 -->
<g id="node21" class="node"><title>Node21</title>
<g id="a_node21"><a xlink:href="dji__gimbal_8hpp.html" target="_top" xlink:title="Gimbal API for OSDK library. ">
<polygon fill="white" stroke="black" points="1355,-168.5 1355,-187.5 1434,-187.5 1434,-168.5 1355,-168.5"/>
<text text-anchor="middle" x="1394.5" y="-175.5" font-family="Helvetica,sans-Serif" font-size="10.00">dji_gimbal.hpp</text>
</a>
</g>
</g>
<!-- Node9&#45;&gt;Node21 -->
<g id="edge35" class="edge"><title>Node9&#45;&gt;Node21</title>
<path fill="none" stroke="midnightblue" d="M1225.35,-336.46C1249.65,-329.707 1280.21,-318.296 1302.5,-300 1333.38,-274.652 1325.73,-255.345 1350.5,-224 1358.69,-213.629 1368.97,-203.012 1377.53,-194.696"/>
<polygon fill="midnightblue" stroke="midnightblue" points="1379.97,-197.208 1384.8,-187.78 1375.14,-192.137 1379.97,-197.208"/>
</g>
<!-- Node22 -->
<g id="node22" class="node"><title>Node22</title>
<polygon fill="white" stroke="#bfbfbf" points="1598.5,-280.5 1598.5,-299.5 1696.5,-299.5 1696.5,-280.5 1598.5,-280.5"/>
<text text-anchor="middle" x="1647.5" y="-287.5" font-family="Helvetica,sans-Serif" font-size="10.00">dji_hard_driver.hpp</text>
</g>
<!-- Node9&#45;&gt;Node22 -->
<g id="edge38" class="edge"><title>Node9&#45;&gt;Node22</title>
<path fill="none" stroke="midnightblue" d="M1226.28,-341.043C1297.55,-334.001 1449.59,-318.413 1588.5,-300.084"/>
<polygon fill="midnightblue" stroke="midnightblue" points="1589.02,-303.545 1598.47,-298.759 1588.1,-296.606 1589.02,-303.545"/>
</g>
<!-- Node23 -->
<g id="node23" class="node"><title>Node23</title>
<g id="a_node23"><a xlink:href="dji__hardware__sync_8hpp.html" target="_top" xlink:title="Hardware Sync API for DJI OSDK. ">
<polygon fill="white" stroke="black" points="735.5,-224.5 735.5,-243.5 851.5,-243.5 851.5,-224.5 735.5,-224.5"/>
<text text-anchor="middle" x="793.5" y="-231.5" font-family="Helvetica,sans-Serif" font-size="10.00">dji_hardware_sync.hpp</text>
</a>
</g>
</g>
<!-- Node9&#45;&gt;Node23 -->
<g id="edge39" class="edge"><title>Node9&#45;&gt;Node23</title>
<path fill="none" stroke="midnightblue" d="M1144.72,-337.371C1103.49,-329.328 1038.09,-315.667 982.5,-300 926.482,-284.213 862.735,-261.21 825.435,-247.223"/>
<polygon fill="midnightblue" stroke="midnightblue" points="826.236,-243.785 815.644,-243.531 823.766,-250.335 826.236,-243.785"/>
</g>
<!-- Node24 -->
<g id="node24" class="node"><title>Node24</title>
<g id="a_node24"><a xlink:href="dji__mfio_8hpp.html" target="_top" xlink:title="MFIO API for DJI OSDK library. ">
<polygon fill="white" stroke="black" points="244,-224.5 244,-243.5 313,-243.5 313,-224.5 244,-224.5"/>
<text text-anchor="middle" x="278.5" y="-231.5" font-family="Helvetica,sans-Serif" font-size="10.00">dji_mfio.hpp</text>
</a>
</g>
</g>
<!-- Node9&#45;&gt;Node24 -->
<g id="edge41" class="edge"><title>Node9&#45;&gt;Node24</title>
<path fill="none" stroke="midnightblue" d="M1144.77,-344.871C984.175,-344.09 400.104,-338.598 327.5,-300 308.256,-289.77 294.416,-268.276 286.452,-252.803"/>
<polygon fill="midnightblue" stroke="midnightblue" points="289.555,-251.18 282.07,-243.682 283.246,-254.212 289.555,-251.18"/>
</g>
<!-- Node25 -->
<g id="node25" class="node"><title>Node25</title>
<g id="a_node25"><a xlink:href="dji__mission__manager_8hpp.html" target="_top" xlink:title="Mission&#45;Manager API for DJI OSDK library. ">
<polygon fill="white" stroke="black" points="992,-280.5 992,-299.5 1119,-299.5 1119,-280.5 992,-280.5"/>
<text text-anchor="middle" x="1055.5" y="-287.5" font-family="Helvetica,sans-Serif" font-size="10.00">dji_mission_manager.hpp</text>
</a>
</g>
</g>
<!-- Node9&#45;&gt;Node25 -->
<g id="edge43" class="edge"><title>Node9&#45;&gt;Node25</title>
<path fill="none" stroke="midnightblue" d="M1164.9,-336.444C1143.51,-327.557 1109.82,-313.563 1085.48,-303.451"/>
<polygon fill="midnightblue" stroke="midnightblue" points="1086.58,-300.12 1076,-299.516 1083.89,-306.585 1086.58,-300.12"/>
</g>
<!-- Node29 -->
<g id="node29" class="node"><title>Node29</title>
<g id="a_node29"><a xlink:href="dji__mobile__communication_8hpp.html" target="_top" xlink:title="Implementation of DJI Mobile&#45;Onboard SDK Communication (MOC) ">
<polygon fill="white" stroke="black" points="336.5,-280.5 336.5,-299.5 486.5,-299.5 486.5,-280.5 336.5,-280.5"/>
<text text-anchor="middle" x="411.5" y="-287.5" font-family="Helvetica,sans-Serif" font-size="10.00">dji_mobile_communication.hpp</text>
</a>
</g>
</g>
<!-- Node9&#45;&gt;Node29 -->
<g id="edge52" class="edge"><title>Node9&#45;&gt;Node29</title>
<path fill="none" stroke="midnightblue" d="M1144.85,-342.728C1039.29,-336.736 747.842,-319.616 505.5,-300 502.628,-299.768 499.707,-299.524 496.757,-299.274"/>
<polygon fill="midnightblue" stroke="midnightblue" points="496.914,-295.774 486.648,-298.393 496.307,-302.748 496.914,-295.774"/>
</g>
<!-- Node31 -->
<g id="node31" class="node"><title>Node31</title>
<g id="a_node31"><a xlink:href="dji__mobile__device_8hpp.html" target="_top" xlink:title="Implementation of DJI Mobile Device Abstraction. ">
<polygon fill="white" stroke="black" points="0,-168.5 0,-187.5 113,-187.5 113,-168.5 0,-168.5"/>
<text text-anchor="middle" x="56.5" y="-175.5" font-family="Helvetica,sans-Serif" font-size="10.00">dji_mobile_device.hpp</text>
</a>
</g>
</g>
<!-- Node9&#45;&gt;Node31 -->
<g id="edge55" class="edge"><title>Node9&#45;&gt;Node31</title>
<path fill="none" stroke="midnightblue" d="M1144.91,-344.741C950.431,-343.328 121.687,-335.247 80.5,-300 51.1711,-274.901 51.245,-225.159 53.8567,-197.92"/>
<polygon fill="midnightblue" stroke="midnightblue" points="57.3594,-198.102 55.053,-187.762 50.4074,-197.284 57.3594,-198.102"/>
</g>
<!-- Node32 -->
<g id="node32" class="node"><title>Node32</title>
<polygon fill="white" stroke="#bfbfbf" points="1714.5,-280.5 1714.5,-299.5 1842.5,-299.5 1842.5,-280.5 1714.5,-280.5"/>
<text text-anchor="middle" x="1778.5" y="-287.5" font-family="Helvetica,sans-Serif" font-size="10.00">dji_platform_manager.hpp</text>
</g>
<!-- Node9&#45;&gt;Node32 -->
<g id="edge58" class="edge"><title>Node9&#45;&gt;Node32</title>
<path fill="none" stroke="midnightblue" d="M1226,-341.999C1312,-335.518 1519.39,-319.314 1704.24,-300.097"/>
<polygon fill="midnightblue" stroke="midnightblue" points="1704.84,-303.554 1714.42,-299.034 1704.11,-296.592 1704.84,-303.554"/>
</g>
<!-- Node33 -->
<g id="node33" class="node"><title>Node33</title>
<g id="a_node33"><a xlink:href="dji__status_8hpp.html" target="_top" xlink:title="Status information for DJI Vehicle. ">
<polygon fill="white" stroke="black" points="1861,-280.5 1861,-299.5 1938,-299.5 1938,-280.5 1861,-280.5"/>
<text text-anchor="middle" x="1899.5" y="-287.5" font-family="Helvetica,sans-Serif" font-size="10.00">dji_status.hpp</text>
</a>
</g>
</g>
<!-- Node9&#45;&gt;Node33 -->
<g id="edge59" class="edge"><title>Node9&#45;&gt;Node33</title>
<path fill="none" stroke="midnightblue" d="M1226.2,-343.92C1329.1,-340.833 1608.06,-330.246 1850.72,-299.935"/>
<polygon fill="midnightblue" stroke="midnightblue" points="1851.31,-303.389 1860.79,-298.664 1850.43,-296.444 1851.31,-303.389"/>
</g>
<!-- Node34 -->
<g id="node34" class="node"><title>Node34</title>
<polygon fill="white" stroke="#bfbfbf" points="1956.5,-280.5 1956.5,-299.5 2076.5,-299.5 2076.5,-280.5 1956.5,-280.5"/>
<text text-anchor="middle" x="2016.5" y="-287.5" font-family="Helvetica,sans-Serif" font-size="10.00">dji_thread_manager.hpp</text>
</g>
<!-- Node9&#45;&gt;Node34 -->
<g id="edge61" class="edge"><title>Node9&#45;&gt;Node34</title>
<path fill="none" stroke="midnightblue" d="M1226.06,-343.616C1338.62,-339.558 1664.66,-326.344 1946.32,-300.046"/>
<polygon fill="midnightblue" stroke="midnightblue" points="1946.69,-303.526 1956.32,-299.105 1946.03,-296.557 1946.69,-303.526"/>
</g>
<!-- Node35 -->
<g id="node35" class="node"><title>Node35</title>
<g id="a_node35"><a xlink:href="dji__virtual__rc_8hpp.html" target="_top" xlink:title="Virtual Radio Control API for DJI onboardSDK library. ">
<polygon fill="white" stroke="black" points="1140.5,-280.5 1140.5,-299.5 1230.5,-299.5 1230.5,-280.5 1140.5,-280.5"/>
<text text-anchor="middle" x="1185.5" y="-287.5" font-family="Helvetica,sans-Serif" font-size="10.00">dji_virtual_rc.hpp</text>
</a>
</g>
</g>
<!-- Node9&#45;&gt;Node35 -->
<g id="edge65" class="edge"><title>Node9&#45;&gt;Node35</title>
<path fill="none" stroke="midnightblue" d="M1185.5,-336.083C1185.5,-329.006 1185.5,-318.861 1185.5,-309.986"/>
<polygon fill="midnightblue" stroke="midnightblue" points="1189,-309.751 1185.5,-299.751 1182,-309.751 1189,-309.751"/>
</g>
<!-- Node11&#45;&gt;Node4 -->
<g id="edge12" class="edge"><title>Node11&#45;&gt;Node4</title>
<path fill="none" stroke="midnightblue" d="M625.874,-224.444C659.763,-215.201 713.903,-200.436 751.224,-190.257"/>
<polygon fill="midnightblue" stroke="midnightblue" points="752.546,-193.524 761.273,-187.516 750.705,-186.771 752.546,-193.524"/>
</g>
<!-- Node11&#45;&gt;Node8 -->
<g id="edge13" class="edge"><title>Node11&#45;&gt;Node8</title>
<path fill="none" stroke="midnightblue" d="M577.383,-224.384C551.63,-211.533 501.266,-186.842 457.5,-168 429.897,-156.116 398.036,-143.859 374.697,-135.143"/>
<polygon fill="midnightblue" stroke="midnightblue" points="375.847,-131.837 365.254,-131.636 373.41,-138.399 375.847,-131.837"/>
</g>
<!-- Node12&#45;&gt;Node5 -->
<g id="edge19" class="edge"><title>Node12&#45;&gt;Node5</title>
<path fill="none" stroke="midnightblue" d="M1451.76,-169.592C1448.63,-169.049 1445.51,-168.513 1442.5,-168 1361.69,-154.235 1267.35,-138.902 1213.1,-130.158"/>
<polygon fill="midnightblue" stroke="midnightblue" points="1213.55,-126.686 1203.12,-128.551 1212.44,-133.597 1213.55,-126.686"/>
</g>
<!-- Node12&#45;&gt;Node13 -->
<g id="edge15" class="edge"><title>Node12&#45;&gt;Node13</title>
<path fill="none" stroke="midnightblue" d="M1477.59,-168.324C1461.86,-159.743 1437.56,-146.486 1419.29,-136.522"/>
<polygon fill="midnightblue" stroke="midnightblue" points="1420.82,-133.37 1410.37,-131.655 1417.47,-139.516 1420.82,-133.37"/>
</g>
<!-- Node13&#45;&gt;Node7 -->
<g id="edge18" class="edge"><title>Node13&#45;&gt;Node7</title>
<path fill="none" stroke="midnightblue" d="M1383.16,-112.179C1373.19,-103.859 1359,-90.5244 1350.5,-76 1342.06,-61.5704 1337.13,-43.1178 1334.42,-29.5626"/>
<polygon fill="midnightblue" stroke="midnightblue" points="1337.83,-28.7564 1332.64,-19.5238 1330.94,-29.9822 1337.83,-28.7564"/>
</g>
<!-- Node14 -->
<g id="node14" class="node"><title>Node14</title>
<g id="a_node14"><a xlink:href="dji__error_8hpp.html" target="_top" xlink:title="All DJI OSDK OpenProtocol ACK Error Codes. ">
<polygon fill="white" stroke="black" points="1359.5,-56.5 1359.5,-75.5 1429.5,-75.5 1429.5,-56.5 1359.5,-56.5"/>
<text text-anchor="middle" x="1394.5" y="-63.5" font-family="Helvetica,sans-Serif" font-size="10.00">dji_error.hpp</text>
</a>
</g>
</g>
<!-- Node13&#45;&gt;Node14 -->
<g id="edge16" class="edge"><title>Node13&#45;&gt;Node14</title>
<path fill="none" stroke="midnightblue" d="M1394.5,-112.083C1394.5,-105.006 1394.5,-94.8611 1394.5,-85.9865"/>
<polygon fill="midnightblue" stroke="midnightblue" points="1398,-85.751 1394.5,-75.7511 1391,-85.7511 1398,-85.751"/>
</g>
<!-- Node14&#45;&gt;Node7 -->
<g id="edge17" class="edge"><title>Node14&#45;&gt;Node7</title>
<path fill="none" stroke="midnightblue" d="M1384.38,-56.324C1374.97,-48.2631 1360.76,-36.0765 1349.43,-26.3695"/>
<polygon fill="midnightblue" stroke="midnightblue" points="1351.68,-23.6844 1341.81,-19.8339 1347.12,-28.9993 1351.68,-23.6844"/>
</g>
<!-- Node16&#45;&gt;Node3 -->
<g id="edge32" class="edge"><title>Node16&#45;&gt;Node3</title>
<path fill="none" stroke="midnightblue" d="M700.13,-280.297C671.999,-247.079 571.088,-127.918 533.629,-83.6839"/>
<polygon fill="midnightblue" stroke="midnightblue" points="536.157,-81.2531 527.023,-75.8837 530.815,-85.7769 536.157,-81.2531"/>
</g>
<!-- Node16&#45;&gt;Node5 -->
<g id="edge33" class="edge"><title>Node16&#45;&gt;Node5</title>
<path fill="none" stroke="midnightblue" d="M706.636,-280.304C704.934,-257.78 703.861,-197.261 737.5,-168 766.243,-142.998 1019.3,-129.39 1123.73,-124.797"/>
<polygon fill="midnightblue" stroke="midnightblue" points="1124.11,-128.284 1133.95,-124.355 1123.81,-121.29 1124.11,-128.284"/>
</g>
<!-- Node16&#45;&gt;Node8 -->
<g id="edge34" class="edge"><title>Node16&#45;&gt;Node8</title>
<path fill="none" stroke="midnightblue" d="M667.484,-281.768C632.536,-274.657 580.908,-262.206 538.5,-244 469.093,-214.203 395.276,-162.829 361.038,-137.702"/>
<polygon fill="midnightblue" stroke="midnightblue" points="362.957,-134.768 352.838,-131.629 358.791,-140.393 362.957,-134.768"/>
</g>
<!-- Node17 -->
<g id="node17" class="node"><title>Node17</title>
<g id="a_node17"><a xlink:href="dji__ack_8hpp.html" target="_top" xlink:title="All DJI OSDK ACK parsing. ">
<polygon fill="white" stroke="black" points="1156.5,-224.5 1156.5,-243.5 1222.5,-243.5 1222.5,-224.5 1156.5,-224.5"/>
<text text-anchor="middle" x="1189.5" y="-231.5" font-family="Helvetica,sans-Serif" font-size="10.00">dji_ack.hpp</text>
</a>
</g>
</g>
<!-- Node16&#45;&gt;Node17 -->
<g id="edge23" class="edge"><title>Node16&#45;&gt;Node17</title>
<path fill="none" stroke="midnightblue" d="M747.766,-284.489C837.525,-274.433 1053.39,-250.249 1146.05,-239.868"/>
<polygon fill="midnightblue" stroke="midnightblue" points="1146.65,-243.323 1156.2,-238.731 1145.87,-236.366 1146.65,-243.323"/>
</g>
<!-- Node17&#45;&gt;Node5 -->
<g id="edge27" class="edge"><title>Node17&#45;&gt;Node5</title>
<path fill="none" stroke="midnightblue" d="M1156.51,-224.438C1138.04,-217.769 1116.55,-206.453 1105.5,-188 1093.21,-167.472 1117.82,-148.37 1139.79,-136.26"/>
<polygon fill="midnightblue" stroke="midnightblue" points="1141.66,-139.229 1148.93,-131.513 1138.44,-133.017 1141.66,-139.229"/>
</g>
<!-- Node17&#45;&gt;Node13 -->
<g id="edge24" class="edge"><title>Node17&#45;&gt;Node13</title>
<path fill="none" stroke="midnightblue" d="M1205.59,-224.368C1241.21,-205.251 1326.98,-159.229 1369.6,-136.361"/>
<polygon fill="midnightblue" stroke="midnightblue" points="1371.33,-139.404 1378.49,-131.591 1368.02,-133.236 1371.33,-139.404"/>
</g>
<!-- Node18 -->
<g id="node18" class="node"><title>Node18</title>
<g id="a_node18"><a xlink:href="dji__mission__type_8hpp.html" target="_top" xlink:title="Mission related data struct for DJI OSDK library. ">
<polygon fill="white" stroke="black" points="1114.5,-168.5 1114.5,-187.5 1222.5,-187.5 1222.5,-168.5 1114.5,-168.5"/>
<text text-anchor="middle" x="1168.5" y="-175.5" font-family="Helvetica,sans-Serif" font-size="10.00">dji_mission_type.hpp</text>
</a>
</g>
</g>
<!-- Node17&#45;&gt;Node18 -->
<g id="edge25" class="edge"><title>Node17&#45;&gt;Node18</title>
<path fill="none" stroke="midnightblue" d="M1186.03,-224.083C1183.19,-216.77 1179.07,-206.181 1175.54,-197.103"/>
<polygon fill="midnightblue" stroke="midnightblue" points="1178.79,-195.803 1171.9,-187.751 1172.27,-198.34 1178.79,-195.803"/>
</g>
<!-- Node17&#45;&gt;Node19 -->
<g id="edge28" class="edge"><title>Node17&#45;&gt;Node19</title>
<path fill="none" stroke="midnightblue" d="M1222.8,-228.941C1299.52,-219.589 1489.2,-196.467 1581.04,-185.273"/>
<polygon fill="midnightblue" stroke="midnightblue" points="1581.71,-188.718 1591.21,-184.033 1580.86,-181.769 1581.71,-188.718"/>
</g>
<!-- Node20 -->
<g id="node20" class="node"><title>Node20</title>
<polygon fill="white" stroke="#bfbfbf" points="1023,-168.5 1023,-187.5 1058,-187.5 1058,-168.5 1023,-168.5"/>
<text text-anchor="middle" x="1040.5" y="-175.5" font-family="Helvetica,sans-Serif" font-size="10.00">map</text>
</g>
<!-- Node17&#45;&gt;Node20 -->
<g id="edge31" class="edge"><title>Node17&#45;&gt;Node20</title>
<path fill="none" stroke="midnightblue" d="M1165.89,-224.444C1139.29,-214.802 1096.1,-199.151 1068,-188.966"/>
<polygon fill="midnightblue" stroke="midnightblue" points="1068.98,-185.599 1058.39,-185.483 1066.6,-192.181 1068.98,-185.599"/>
</g>
<!-- Node18&#45;&gt;Node5 -->
<g id="edge26" class="edge"><title>Node18&#45;&gt;Node5</title>
<path fill="none" stroke="midnightblue" d="M1168.5,-168.083C1168.5,-161.006 1168.5,-150.861 1168.5,-141.986"/>
<polygon fill="midnightblue" stroke="midnightblue" points="1172,-141.751 1168.5,-131.751 1165,-141.751 1172,-141.751"/>
</g>
<!-- Node19&#45;&gt;Node10 -->
<g id="edge30" class="edge"><title>Node19&#45;&gt;Node10</title>
<path fill="none" stroke="midnightblue" d="M1669.89,-168.444C1715.5,-158.009 1791.87,-140.534 1835.42,-130.569"/>
<polygon fill="midnightblue" stroke="midnightblue" points="1836.26,-133.967 1845.23,-128.325 1834.7,-127.143 1836.26,-133.967"/>
</g>
<!-- Node19&#45;&gt;Node13 -->
<g id="edge29" class="edge"><title>Node19&#45;&gt;Node13</title>
<path fill="none" stroke="midnightblue" d="M1594.79,-168.444C1553.36,-159.043 1486.74,-143.929 1441.83,-133.739"/>
<polygon fill="midnightblue" stroke="midnightblue" points="1442.56,-130.316 1432.04,-131.516 1441.01,-137.142 1442.56,-130.316"/>
</g>
<!-- Node21&#45;&gt;Node5 -->
<g id="edge37" class="edge"><title>Node21&#45;&gt;Node5</title>
<path fill="none" stroke="midnightblue" d="M1358.69,-168.444C1319.17,-159 1255.51,-143.79 1212.86,-133.599"/>
<polygon fill="midnightblue" stroke="midnightblue" points="1213.57,-130.171 1203.03,-131.251 1211.94,-136.979 1213.57,-130.171"/>
</g>
<!-- Node21&#45;&gt;Node13 -->
<g id="edge36" class="edge"><title>Node21&#45;&gt;Node13</title>
<path fill="none" stroke="midnightblue" d="M1394.5,-168.083C1394.5,-161.006 1394.5,-150.861 1394.5,-141.986"/>
<polygon fill="midnightblue" stroke="midnightblue" points="1398,-141.751 1394.5,-131.751 1391,-141.751 1398,-141.751"/>
</g>
<!-- Node23&#45;&gt;Node5 -->
<g id="edge40" class="edge"><title>Node23&#45;&gt;Node5</title>
<path fill="none" stroke="midnightblue" d="M802.565,-224.383C818.15,-210.112 851.625,-181.782 885.5,-168 965.105,-135.613 1066.14,-126.445 1123.43,-123.907"/>
<polygon fill="midnightblue" stroke="midnightblue" points="1123.75,-127.397 1133.61,-123.506 1123.48,-120.402 1123.75,-127.397"/>
</g>
<!-- Node24&#45;&gt;Node8 -->
<g id="edge42" class="edge"><title>Node24&#45;&gt;Node8</title>
<path fill="none" stroke="midnightblue" d="M283.444,-224.368C293.794,-206.296 317.917,-164.176 331.588,-140.307"/>
<polygon fill="midnightblue" stroke="midnightblue" points="334.647,-142.008 336.579,-131.591 328.572,-138.53 334.647,-142.008"/>
</g>
<!-- Node26 -->
<g id="node26" class="node"><title>Node26</title>
<g id="a_node26"><a xlink:href="dji__hotpoint_8hpp.html" target="_top" xlink:title="Implementation of HotPoint (Point of Interest) Missions for DJI OSDK. ">
<polygon fill="white" stroke="black" points="908,-224.5 908,-243.5 993,-243.5 993,-224.5 908,-224.5"/>
<text text-anchor="middle" x="950.5" y="-231.5" font-family="Helvetica,sans-Serif" font-size="10.00">dji_hotpoint.hpp</text>
</a>
</g>
</g>
<!-- Node25&#45;&gt;Node26 -->
<g id="edge44" class="edge"><title>Node25&#45;&gt;Node26</title>
<path fill="none" stroke="midnightblue" d="M1038.63,-280.324C1021.79,-271.664 995.693,-258.242 976.262,-248.249"/>
<polygon fill="midnightblue" stroke="midnightblue" points="977.822,-245.116 967.328,-243.655 974.62,-251.341 977.822,-245.116"/>
</g>
<!-- Node28 -->
<g id="node28" class="node"><title>Node28</title>
<g id="a_node28"><a xlink:href="dji__waypoint_8hpp.html" target="_top" xlink:title="Implementation of GPS Waypoint Missions for DJI OSDK. ">
<polygon fill="white" stroke="black" points="1011,-224.5 1011,-243.5 1100,-243.5 1100,-224.5 1011,-224.5"/>
<text text-anchor="middle" x="1055.5" y="-231.5" font-family="Helvetica,sans-Serif" font-size="10.00">dji_waypoint.hpp</text>
</a>
</g>
</g>
<!-- Node25&#45;&gt;Node28 -->
<g id="edge50" class="edge"><title>Node25&#45;&gt;Node28</title>
<path fill="none" stroke="midnightblue" d="M1055.5,-280.083C1055.5,-273.006 1055.5,-262.861 1055.5,-253.986"/>
<polygon fill="midnightblue" stroke="midnightblue" points="1059,-253.751 1055.5,-243.751 1052,-253.751 1059,-253.751"/>
</g>
<!-- Node26&#45;&gt;Node4 -->
<g id="edge49" class="edge"><title>Node26&#45;&gt;Node4</title>
<path fill="none" stroke="midnightblue" d="M925.464,-224.444C898.884,-215.359 856.691,-200.939 826.977,-190.783"/>
<polygon fill="midnightblue" stroke="midnightblue" points="828.013,-187.439 817.418,-187.516 825.749,-194.062 828.013,-187.439"/>
</g>
<!-- Node27 -->
<g id="node27" class="node"><title>Node27</title>
<g id="a_node27"><a xlink:href="dji__mission__base_8hpp.html" target="_top" xlink:title="Mission&#45;Base abstract class for DJI OSDK library. ">
<polygon fill="white" stroke="black" points="894.5,-168.5 894.5,-187.5 1004.5,-187.5 1004.5,-168.5 894.5,-168.5"/>
<text text-anchor="middle" x="949.5" y="-175.5" font-family="Helvetica,sans-Serif" font-size="10.00">dji_mission_base.hpp</text>
</a>
</g>
</g>
<!-- Node26&#45;&gt;Node27 -->
<g id="edge45" class="edge"><title>Node26&#45;&gt;Node27</title>
<path fill="none" stroke="midnightblue" d="M950.335,-224.083C950.204,-217.006 950.016,-206.861 949.852,-197.986"/>
<polygon fill="midnightblue" stroke="midnightblue" points="953.347,-197.685 949.662,-187.751 946.348,-197.814 953.347,-197.685"/>
</g>
<!-- Node27&#45;&gt;Node5 -->
<g id="edge47" class="edge"><title>Node27&#45;&gt;Node5</title>
<path fill="none" stroke="midnightblue" d="M984.201,-168.444C1022.08,-159.102 1082.85,-144.119 1124.16,-133.933"/>
<polygon fill="midnightblue" stroke="midnightblue" points="1125.09,-137.309 1133.96,-131.516 1123.41,-130.512 1125.09,-137.309"/>
</g>
<!-- Node27&#45;&gt;Node8 -->
<g id="edge48" class="edge"><title>Node27&#45;&gt;Node8</title>
<path fill="none" stroke="midnightblue" d="M894.472,-172.113C784.013,-162.302 535.394,-140.221 412.718,-129.325"/>
<polygon fill="midnightblue" stroke="midnightblue" points="412.947,-125.832 402.677,-128.433 412.328,-132.804 412.947,-125.832"/>
</g>
<!-- Node27&#45;&gt;Node13 -->
<g id="edge46" class="edge"><title>Node27&#45;&gt;Node13</title>
<path fill="none" stroke="midnightblue" d="M1004.65,-169.166C1007.64,-168.765 1010.61,-168.374 1013.5,-168 1128.48,-153.127 1263.24,-137.676 1337.73,-129.308"/>
<polygon fill="midnightblue" stroke="midnightblue" points="1338.28,-132.768 1347.83,-128.175 1337.5,-125.811 1338.28,-132.768"/>
</g>
<!-- Node28&#45;&gt;Node27 -->
<g id="edge51" class="edge"><title>Node28&#45;&gt;Node27</title>
<path fill="none" stroke="midnightblue" d="M1038.47,-224.324C1021.47,-215.664 995.124,-202.242 975.507,-192.249"/>
<polygon fill="midnightblue" stroke="midnightblue" points="976.988,-189.075 966.488,-187.655 973.81,-195.312 976.988,-189.075"/>
</g>
<!-- Node29&#45;&gt;Node8 -->
<g id="edge54" class="edge"><title>Node29&#45;&gt;Node8</title>
<path fill="none" stroke="midnightblue" d="M396.891,-280.231C385.065,-272.309 369.019,-259.529 360.5,-244 342.576,-211.329 340.288,-166.686 340.628,-141.772"/>
<polygon fill="midnightblue" stroke="midnightblue" points="344.134,-141.646 340.936,-131.545 337.137,-141.435 344.134,-141.646"/>
</g>
<!-- Node30 -->
<g id="node30" class="node"><title>Node30</title>
<polygon fill="white" stroke="#bfbfbf" points="370,-224.5 370,-243.5 453,-243.5 453,-224.5 370,-224.5"/>
<text text-anchor="middle" x="411.5" y="-231.5" font-family="Helvetica,sans-Serif" font-size="10.00">dji_macros.hpp</text>
</g>
<!-- Node29&#45;&gt;Node30 -->
<g id="edge53" class="edge"><title>Node29&#45;&gt;Node30</title>
<path fill="none" stroke="midnightblue" d="M411.5,-280.083C411.5,-273.006 411.5,-262.861 411.5,-253.986"/>
<polygon fill="midnightblue" stroke="midnightblue" points="415,-253.751 411.5,-243.751 408,-253.751 415,-253.751"/>
</g>
<!-- Node31&#45;&gt;Node8 -->
<g id="edge56" class="edge"><title>Node31&#45;&gt;Node8</title>
<path fill="none" stroke="midnightblue" d="M101.659,-168.444C151.794,-158.944 232.72,-143.611 286.506,-133.42"/>
<polygon fill="midnightblue" stroke="midnightblue" points="287.379,-136.817 296.552,-131.516 286.075,-129.939 287.379,-136.817"/>
</g>
<!-- Node35&#45;&gt;Node3 -->
<g id="edge67" class="edge"><title>Node35&#45;&gt;Node3</title>
<path fill="none" stroke="midnightblue" d="M1140.3,-281.96C1059.82,-269.42 899.933,-244.475 898.5,-244 880.384,-237.996 878.191,-231.161 860.5,-224 807.701,-202.629 790.058,-209.957 737.5,-188 662.386,-156.621 579.985,-106.045 541.54,-81.4121"/>
<polygon fill="midnightblue" stroke="midnightblue" points="543.044,-78.2174 532.744,-75.7358 539.249,-84.099 543.044,-78.2174"/>
</g>
<!-- Node35&#45;&gt;Node4 -->
<g id="edge69" class="edge"><title>Node35&#45;&gt;Node4</title>
<path fill="none" stroke="midnightblue" d="M1178.04,-280.063C1165.39,-265.59 1138.19,-237.306 1108.5,-224 1085.29,-213.599 932.846,-194.972 848.469,-185.267"/>
<polygon fill="midnightblue" stroke="midnightblue" points="848.613,-181.761 838.28,-184.101 847.817,-188.716 848.613,-181.761"/>
</g>
<!-- Node35&#45;&gt;Node5 -->
<g id="edge68" class="edge"><title>Node35&#45;&gt;Node5</title>
<path fill="none" stroke="midnightblue" d="M1199.29,-280.189C1210.33,-272.241 1225,-259.447 1231.5,-244 1244.6,-212.865 1246.96,-198.034 1231.5,-168 1224.42,-154.247 1210.98,-143.766 1198.32,-136.394"/>
<polygon fill="midnightblue" stroke="midnightblue" points="1199.81,-133.222 1189.35,-131.573 1196.5,-139.389 1199.81,-133.222"/>
</g>
<!-- Node35&#45;&gt;Node17 -->
<g id="edge66" class="edge"><title>Node35&#45;&gt;Node17</title>
<path fill="none" stroke="midnightblue" d="M1186.16,-280.083C1186.68,-273.006 1187.44,-262.861 1188.09,-253.986"/>
<polygon fill="midnightblue" stroke="midnightblue" points="1191.6,-253.982 1188.85,-243.751 1184.62,-253.465 1191.6,-253.982"/>
</g>
</g>
</svg>
