<?xml version="1.0" encoding="UTF-8" standalone="no"?>
<!DOCTYPE svg PUBLIC "-//W3C//DTD SVG 1.1//EN"
 "http://www.w3.org/Graphics/SVG/1.1/DTD/svg11.dtd">
<!-- Generated by graphviz version 2.40.1 (20161225.0304)
 -->
<!-- Title: osdk&#45;core/api/inc/dji_broadcast.hpp Pages: 1 -->
<!--zoomable 375 -->
<svg id="main" version="1.1" xmlns="http://www.w3.org/2000/svg" xmlns:xlink="http://www.w3.org/1999/xlink" xml:space="preserve" onload="init(evt)">
<style type="text/css"><![CDATA[
.edge:hover path { stroke: red; }
.edge:hover polygon { stroke: red; fill: red; }
]]></style>
<script type="text/javascript"><![CDATA[
var edges = document.getElementsByTagName('g');
if (edges && edges.length) {
  for (var i=0;i<edges.length;i++) {
    if (edges[i].id.substr(0,4)=='edge') {
      edges[i].setAttribute('class','edge');
    }
  }
}
]]></script>
        <defs>
                <circle id="rim" cx="0" cy="0" r="7"/>
                <circle id="rim2" cx="0" cy="0" r="3.5"/>
                <g id="zoomPlus">
                        <use xlink:href="#rim" fill="#404040">
                                <set attributeName="fill" to="#808080" begin="zoomplus.mouseover" end="zoomplus.mouseout"/>
                        </use>
                        <path d="M-4,0h8M0,-4v8" fill="none" stroke="white" stroke-width="1.5" pointer-events="none"/>
                </g>
                <g id="zoomMin">
                        <use xlink:href="#rim" fill="#404040">
                                <set attributeName="fill" to="#808080" begin="zoomminus.mouseover" end="zoomminus.mouseout"/>
                        </use>
                        <path d="M-4,0h8" fill="none" stroke="white" stroke-width="1.5" pointer-events="none"/>
                </g>
                <g id="dirArrow">
                        <path fill="none" stroke="white" stroke-width="1.5" d="M0,-3.0v7 M-2.5,-0.5L0,-3.0L2.5,-0.5"/>
                </g>
               <g id="resetDef">
                       <use xlink:href="#rim2" fill="#404040">
                               <set attributeName="fill" to="#808080" begin="reset.mouseover" end="reset.mouseout"/>
                       </use>
               </g>
        </defs>

<script type="text/javascript">
var viewWidth = 516;
var viewHeight = 375;
var sectionId = 'dynsection-0';
</script>
<script xlink:href="svgpan.js"/>
<svg id="graph" class="graph">
<g id="viewport">
<title>osdk&#45;core/api/inc/dji_broadcast.hpp</title>
<polygon fill="#ffffff" stroke="transparent" points="-4,4 -4,-371 512,-371 512,4 -4,4"/>
<!-- Node0 -->
<g id="node1" class="node">
<title>Node0</title>
<g id="a_node1"><a xlink:title="Broadcast Telemetry API for DJI onboardSDK library.">
<polygon fill="#bfbfbf" stroke="#000000" points="55.5,-336.5 55.5,-366.5 159.5,-366.5 159.5,-336.5 55.5,-336.5"/>
<text text-anchor="start" x="63.5" y="-354.5" font-family="Helvetica,sans-Serif" font-size="10.00" fill="#000000">osdk&#45;core/api/inc/dji</text>
<text text-anchor="middle" x="107.5" y="-343.5" font-family="Helvetica,sans-Serif" font-size="10.00" fill="#000000">_broadcast.hpp</text>
</a>
</g>
</g>
<!-- Node1 -->
<g id="node2" class="node">
<title>Node1</title>
<g id="a_node2"><a xlink:href="dji__telemetry_8hpp.html" target="_top" xlink:title="Enumeration of all telemetry data types, structures and maps.">
<polygon fill="#ffffff" stroke="#000000" points="0,-280.5 0,-299.5 91,-299.5 91,-280.5 0,-280.5"/>
<text text-anchor="middle" x="45.5" y="-287.5" font-family="Helvetica,sans-Serif" font-size="10.00" fill="#000000">dji_telemetry.hpp</text>
</a>
</g>
</g>
<!-- Node0&#45;&gt;Node1 -->
<g id="edge1" class="edge">
<title>Node0&#45;&gt;Node1</title>
<path fill="none" stroke="#191970" d="M92.1742,-336.2977C83.2093,-327.4052 71.8712,-316.1586 62.6149,-306.9769"/>
<polygon fill="#191970" stroke="#191970" points="64.9915,-304.4045 55.427,-299.8469 60.0618,-309.3742 64.9915,-304.4045"/>
</g>
<!-- Node5 -->
<g id="node6" class="node">
<title>Node5</title>
<g id="a_node6"><a xlink:href="dji__vehicle__callback_8hpp.html" target="_top" xlink:title="Type definition for new Vehicle&#45;style callbacks.">
<polygon fill="#ffffff" stroke="#000000" points="125.5,-280.5 125.5,-299.5 247.5,-299.5 247.5,-280.5 125.5,-280.5"/>
<text text-anchor="middle" x="186.5" y="-287.5" font-family="Helvetica,sans-Serif" font-size="10.00" fill="#000000">dji_vehicle_callback.hpp</text>
</a>
</g>
</g>
<!-- Node0&#45;&gt;Node5 -->
<g id="edge5" class="edge">
<title>Node0&#45;&gt;Node5</title>
<path fill="none" stroke="#191970" d="M127.0281,-336.2977C138.7937,-327.1384 153.7675,-315.4816 165.7465,-306.1562"/>
<polygon fill="#191970" stroke="#191970" points="168.1103,-308.7516 173.8511,-299.8469 163.8102,-303.228 168.1103,-308.7516"/>
</g>
<!-- Node2 -->
<g id="node3" class="node">
<title>Node2</title>
<g id="a_node3"><a xlink:href="dji__type_8hpp.html" target="_top" xlink:title="Data type and Data Structure definitions for use throughout DJI OSDK.">
<polygon fill="#ffffff" stroke="#000000" points="78,-112.5 78,-131.5 147,-131.5 147,-112.5 78,-112.5"/>
<text text-anchor="middle" x="112.5" y="-119.5" font-family="Helvetica,sans-Serif" font-size="10.00" fill="#000000">dji_type.hpp</text>
</a>
</g>
</g>
<!-- Node1&#45;&gt;Node2 -->
<g id="edge2" class="edge">
<title>Node1&#45;&gt;Node2</title>
<path fill="none" stroke="#191970" d="M44.4859,-280.4623C42.6487,-258.9869 40.6233,-205.7691 60.5,-168 66.9027,-155.8338 77.923,-145.3771 88.1749,-137.5218"/>
<polygon fill="#191970" stroke="#191970" points="90.4049,-140.2295 96.4876,-131.5548 86.3229,-134.5429 90.4049,-140.2295"/>
</g>
<!-- Node3 -->
<g id="node4" class="node">
<title>Node3</title>
<g id="a_node4"><a xlink:title=" ">
<polygon fill="#ffffff" stroke="#bfbfbf" points="91,-56.5 91,-75.5 134,-75.5 134,-56.5 91,-56.5"/>
<text text-anchor="middle" x="112.5" y="-63.5" font-family="Helvetica,sans-Serif" font-size="10.00" fill="#000000">cstdio</text>
</a>
</g>
</g>
<!-- Node2&#45;&gt;Node3 -->
<g id="edge3" class="edge">
<title>Node2&#45;&gt;Node3</title>
<path fill="none" stroke="#191970" d="M112.5,-112.2455C112.5,-104.9382 112.5,-94.6944 112.5,-85.7046"/>
<polygon fill="#191970" stroke="#191970" points="116.0001,-85.6426 112.5,-75.6427 109.0001,-85.6427 116.0001,-85.6426"/>
</g>
<!-- Node4 -->
<g id="node5" class="node">
<title>Node4</title>
<g id="a_node5"><a xlink:title=" ">
<polygon fill="#ffffff" stroke="#bfbfbf" points="202,-56.5 202,-75.5 251,-75.5 251,-56.5 202,-56.5"/>
<text text-anchor="middle" x="226.5" y="-63.5" font-family="Helvetica,sans-Serif" font-size="10.00" fill="#000000">stdint.h</text>
</a>
</g>
</g>
<!-- Node2&#45;&gt;Node4 -->
<g id="edge4" class="edge">
<title>Node2&#45;&gt;Node4</title>
<path fill="none" stroke="#191970" d="M132.0973,-112.3733C150.2331,-103.4644 177.4135,-90.1127 197.9587,-80.0203"/>
<polygon fill="#191970" stroke="#191970" points="199.7261,-83.0517 207.1584,-75.5011 196.6397,-76.7688 199.7261,-83.0517"/>
</g>
<!-- Node5&#45;&gt;Node2 -->
<g id="edge22" class="edge">
<title>Node5&#45;&gt;Node2</title>
<path fill="none" stroke="#191970" d="M176.9624,-280.3566C160.9162,-263.3981 129.0454,-226.3789 116.5,-188 111.5958,-172.9971 110.8058,-155.0705 111.1253,-141.689"/>
<polygon fill="#191970" stroke="#191970" points="114.6223,-141.8327 111.5887,-131.6815 107.6298,-141.5089 114.6223,-141.8327"/>
</g>
<!-- Node6 -->
<g id="node7" class="node">
<title>Node6</title>
<g id="a_node7"><a xlink:href="dji__ack_8hpp.html" target="_top" xlink:title="All DJI OSDK ACK parsing.">
<polygon fill="#ffffff" stroke="#000000" points="161.5,-224.5 161.5,-243.5 227.5,-243.5 227.5,-224.5 161.5,-224.5"/>
<text text-anchor="middle" x="194.5" y="-231.5" font-family="Helvetica,sans-Serif" font-size="10.00" fill="#000000">dji_ack.hpp</text>
</a>
</g>
</g>
<!-- Node5&#45;&gt;Node6 -->
<g id="edge6" class="edge">
<title>Node5&#45;&gt;Node6</title>
<path fill="none" stroke="#191970" d="M187.8935,-280.2455C188.9374,-272.9382 190.4008,-262.6944 191.6851,-253.7046"/>
<polygon fill="#191970" stroke="#191970" points="195.173,-254.0372 193.1225,-243.6427 188.2434,-253.0472 195.173,-254.0372"/>
</g>
<!-- Node15 -->
<g id="node16" class="node">
<title>Node15</title>
<g id="a_node16"><a xlink:title=" ">
<polygon fill="#ffffff" stroke="#bfbfbf" points="246,-224.5 246,-243.5 309,-243.5 309,-224.5 246,-224.5"/>
<text text-anchor="middle" x="277.5" y="-231.5" font-family="Helvetica,sans-Serif" font-size="10.00" fill="#000000">dji_log.hpp</text>
</a>
</g>
</g>
<!-- Node5&#45;&gt;Node15 -->
<g id="edge21" class="edge">
<title>Node5&#45;&gt;Node15</title>
<path fill="none" stroke="#191970" d="M202.351,-280.2455C216.3132,-271.6534 236.8728,-259.0014 252.9596,-249.1018"/>
<polygon fill="#191970" stroke="#191970" points="255.1484,-251.8645 261.8307,-243.6427 251.4797,-245.9029 255.1484,-251.8645"/>
</g>
<!-- Node6&#45;&gt;Node2 -->
<g id="edge16" class="edge">
<title>Node6&#45;&gt;Node2</title>
<path fill="none" stroke="#191970" d="M175.2925,-224.4673C161.2118,-216.5391 142.6751,-203.9821 131.5,-188 121.9032,-174.2752 117.1177,-155.7437 114.7528,-141.8112"/>
<polygon fill="#191970" stroke="#191970" points="118.2027,-141.2108 113.3295,-131.8033 111.2725,-142.1965 118.2027,-141.2108"/>
</g>
<!-- Node7 -->
<g id="node8" class="node">
<title>Node7</title>
<g id="a_node8"><a xlink:href="dji__command_8hpp.html" target="_top" xlink:title="All DJI OSDK OpenProtocol Command IDs.">
<polygon fill="#ffffff" stroke="#000000" points="229,-112.5 229,-131.5 322,-131.5 322,-112.5 229,-112.5"/>
<text text-anchor="middle" x="275.5" y="-119.5" font-family="Helvetica,sans-Serif" font-size="10.00" fill="#000000">dji_command.hpp</text>
</a>
</g>
</g>
<!-- Node6&#45;&gt;Node7 -->
<g id="edge7" class="edge">
<title>Node6&#45;&gt;Node7</title>
<path fill="none" stroke="#191970" d="M214.0668,-224.3468C228.1439,-216.433 246.5142,-203.9487 257.5,-188 266.9628,-174.2623 271.4604,-155.7321 273.5926,-141.8034"/>
<polygon fill="#191970" stroke="#191970" points="277.0757,-142.1561 274.8452,-131.7988 270.1299,-141.2865 277.0757,-142.1561"/>
</g>
<!-- Node10 -->
<g id="node11" class="node">
<title>Node10</title>
<g id="a_node11"><a xlink:title=" ">
<polygon fill="#ffffff" stroke="#bfbfbf" points="473,-.5 473,-19.5 508,-19.5 508,-.5 473,-.5"/>
<text text-anchor="middle" x="490.5" y="-7.5" font-family="Helvetica,sans-Serif" font-size="10.00" fill="#000000">map</text>
</a>
</g>
</g>
<!-- Node6&#45;&gt;Node10 -->
<g id="edge20" class="edge">
<title>Node6&#45;&gt;Node10</title>
<path fill="none" stroke="#191970" d="M227.8311,-226.2331C231.0979,-225.4765 234.363,-224.7222 237.5,-224 307.6863,-207.843 337.9308,-231.2776 395.5,-188 449.5475,-147.3698 476.1014,-66.8088 485.8944,-29.6356"/>
<polygon fill="#191970" stroke="#191970" points="489.3773,-30.1346 488.4074,-19.5842 482.5863,-28.4367 489.3773,-30.1346"/>
</g>
<!-- Node12 -->
<g id="node13" class="node">
<title>Node12</title>
<g id="a_node13"><a xlink:href="dji__mission__type_8hpp.html" target="_top" xlink:title="Mission related data struct for DJI OSDK library.">
<polygon fill="#ffffff" stroke="#000000" points="140.5,-168.5 140.5,-187.5 248.5,-187.5 248.5,-168.5 140.5,-168.5"/>
<text text-anchor="middle" x="194.5" y="-175.5" font-family="Helvetica,sans-Serif" font-size="10.00" fill="#000000">dji_mission_type.hpp</text>
</a>
</g>
</g>
<!-- Node6&#45;&gt;Node12 -->
<g id="edge13" class="edge">
<title>Node6&#45;&gt;Node12</title>
<path fill="none" stroke="#191970" d="M194.5,-224.2455C194.5,-216.9382 194.5,-206.6944 194.5,-197.7046"/>
<polygon fill="#191970" stroke="#191970" points="198.0001,-197.6426 194.5,-187.6427 191.0001,-197.6427 198.0001,-197.6426"/>
</g>
<!-- Node14 -->
<g id="node15" class="node">
<title>Node14</title>
<g id="a_node15"><a xlink:href="dji__version_8hpp.html" target="_top" xlink:title="Drone/SDK Version definition for DJI onboardSDK library.">
<polygon fill="#ffffff" stroke="#000000" points="304.5,-168.5 304.5,-187.5 386.5,-187.5 386.5,-168.5 304.5,-168.5"/>
<text text-anchor="middle" x="345.5" y="-175.5" font-family="Helvetica,sans-Serif" font-size="10.00" fill="#000000">dji_version.hpp</text>
</a>
</g>
</g>
<!-- Node6&#45;&gt;Node14 -->
<g id="edge17" class="edge">
<title>Node6&#45;&gt;Node14</title>
<path fill="none" stroke="#191970" d="M220.4578,-224.3733C245.2407,-215.1822 282.7746,-201.2624 310.254,-191.0713"/>
<polygon fill="#191970" stroke="#191970" points="311.7219,-194.26 319.8809,-187.5011 309.2879,-187.6968 311.7219,-194.26"/>
</g>
<!-- Node7&#45;&gt;Node4 -->
<g id="edge12" class="edge">
<title>Node7&#45;&gt;Node4</title>
<path fill="none" stroke="#191970" d="M266.9649,-112.2455C260.0088,-104.2958 250.0117,-92.8706 241.6949,-83.3656"/>
<polygon fill="#191970" stroke="#191970" points="244.1564,-80.8637 234.9373,-75.6427 238.8884,-85.4732 244.1564,-80.8637"/>
</g>
<!-- Node8 -->
<g id="node9" class="node">
<title>Node8</title>
<g id="a_node9"><a xlink:href="dji__error_8hpp.html" target="_top" xlink:title="All DJI OSDK OpenProtocol ACK Error Codes.">
<polygon fill="#ffffff" stroke="#000000" points="378.5,-56.5 378.5,-75.5 448.5,-75.5 448.5,-56.5 378.5,-56.5"/>
<text text-anchor="middle" x="413.5" y="-63.5" font-family="Helvetica,sans-Serif" font-size="10.00" fill="#000000">dji_error.hpp</text>
</a>
</g>
</g>
<!-- Node7&#45;&gt;Node8 -->
<g id="edge8" class="edge">
<title>Node7&#45;&gt;Node8</title>
<path fill="none" stroke="#191970" d="M299.223,-112.3733C321.6737,-103.2629 355.5739,-89.5062 380.6255,-79.3404"/>
<polygon fill="#191970" stroke="#191970" points="382.1365,-82.5045 390.0865,-75.5011 379.5043,-76.0182 382.1365,-82.5045"/>
</g>
<!-- Node9 -->
<g id="node10" class="node">
<title>Node9</title>
<g id="a_node10"><a xlink:title=" ">
<polygon fill="#ffffff" stroke="#bfbfbf" points="307.5,-.5 307.5,-19.5 353.5,-19.5 353.5,-.5 307.5,-.5"/>
<text text-anchor="middle" x="330.5" y="-7.5" font-family="Helvetica,sans-Serif" font-size="10.00" fill="#000000">cstdint</text>
</a>
</g>
</g>
<!-- Node8&#45;&gt;Node9 -->
<g id="edge9" class="edge">
<title>Node8&#45;&gt;Node9</title>
<path fill="none" stroke="#191970" d="M399.0425,-56.2455C386.4268,-47.7337 367.9056,-35.2375 353.2955,-25.3801"/>
<polygon fill="#191970" stroke="#191970" points="355.0391,-22.3343 344.7918,-19.6427 351.1239,-28.1371 355.0391,-22.3343"/>
</g>
<!-- Node8&#45;&gt;Node10 -->
<g id="edge10" class="edge">
<title>Node8&#45;&gt;Node10</title>
<path fill="none" stroke="#191970" d="M426.9124,-56.2455C438.5057,-47.814 455.4748,-35.4729 468.9678,-25.6598"/>
<polygon fill="#191970" stroke="#191970" points="471.2126,-28.355 477.2413,-19.6427 467.0953,-22.6938 471.2126,-28.355"/>
</g>
<!-- Node11 -->
<g id="node12" class="node">
<title>Node11</title>
<g id="a_node12"><a xlink:title=" ">
<polygon fill="#ffffff" stroke="#bfbfbf" points="372,-.5 372,-19.5 455,-19.5 455,-.5 372,-.5"/>
<text text-anchor="middle" x="413.5" y="-7.5" font-family="Helvetica,sans-Serif" font-size="10.00" fill="#000000">osdk_typedef.h</text>
</a>
</g>
</g>
<!-- Node8&#45;&gt;Node11 -->
<g id="edge11" class="edge">
<title>Node8&#45;&gt;Node11</title>
<path fill="none" stroke="#191970" d="M413.5,-56.2455C413.5,-48.9382 413.5,-38.6944 413.5,-29.7046"/>
<polygon fill="#191970" stroke="#191970" points="417.0001,-29.6426 413.5,-19.6427 410.0001,-29.6427 417.0001,-29.6426"/>
</g>
<!-- Node12&#45;&gt;Node2 -->
<g id="edge15" class="edge">
<title>Node12&#45;&gt;Node2</title>
<path fill="none" stroke="#191970" d="M180.2167,-168.2455C167.753,-159.7337 149.4549,-147.2375 135.0208,-137.3801"/>
<polygon fill="#191970" stroke="#191970" points="136.8515,-134.392 126.6196,-131.6427 132.9038,-140.1726 136.8515,-134.392"/>
</g>
<!-- Node13 -->
<g id="node14" class="node">
<title>Node13</title>
<g id="a_node14"><a xlink:title=" ">
<polygon fill="#ffffff" stroke="#bfbfbf" points="166.5,-112.5 166.5,-131.5 210.5,-131.5 210.5,-112.5 166.5,-112.5"/>
<text text-anchor="middle" x="188.5" y="-119.5" font-family="Helvetica,sans-Serif" font-size="10.00" fill="#000000">vector</text>
</a>
</g>
</g>
<!-- Node12&#45;&gt;Node13 -->
<g id="edge14" class="edge">
<title>Node12&#45;&gt;Node13</title>
<path fill="none" stroke="#191970" d="M193.4549,-168.2455C192.672,-160.9382 191.5744,-150.6944 190.6112,-141.7046"/>
<polygon fill="#191970" stroke="#191970" points="194.0786,-141.2129 189.5331,-131.6427 187.1185,-141.9587 194.0786,-141.2129"/>
</g>
<!-- Node14&#45;&gt;Node7 -->
<g id="edge18" class="edge">
<title>Node14&#45;&gt;Node7</title>
<path fill="none" stroke="#191970" d="M333.3069,-168.2455C322.8679,-159.8943 307.6345,-147.7076 295.426,-137.9408"/>
<polygon fill="#191970" stroke="#191970" points="297.5485,-135.1566 287.5533,-131.6427 293.1756,-140.6227 297.5485,-135.1566"/>
</g>
<!-- Node14&#45;&gt;Node9 -->
<g id="edge19" class="edge">
<title>Node14&#45;&gt;Node9</title>
<path fill="none" stroke="#191970" d="M344.6506,-168.4862C342.2794,-141.9293 335.5505,-66.5651 332.3005,-30.1655"/>
<polygon fill="#191970" stroke="#191970" points="335.753,-29.477 331.3775,-19.8279 328.7808,-30.0996 335.753,-29.477"/>
</g>
</g>
</svg>
        <g id="navigator" transform="translate(0 0)" fill="#404254">
                <rect fill="#f2f5e9" fill-opacity="0.5" stroke="#606060" stroke-width=".5" x="0" y="0" width="60" height="60"/>
                <use id="zoomplus" xlink:href="#zoomPlus" x="17" y="9" onmousedown="handleZoom(evt,'in')"/>
                <use id="zoomminus" xlink:href="#zoomMin" x="42" y="9" onmousedown="handleZoom(evt,'out')"/>
                <use id="reset" xlink:href="#resetDef" x="30" y="36" onmousedown="handleReset()"/>
                <g id="arrowUp" xlink:href="#dirArrow" transform="translate(30 24)" onmousedown="handlePan(0,-1)">
                  <use xlink:href="#rim" fill="#404040">
                        <set attributeName="fill" to="#808080" begin="arrowUp.mouseover" end="arrowUp.mouseout"/>
                  </use>
                  <path fill="none" stroke="white" stroke-width="1.5" d="M0,-3.0v7 M-2.5,-0.5L0,-3.0L2.5,-0.5"/>
                </g>
                <g id="arrowRight" xlink:href="#dirArrow" transform="rotate(90) translate(36 -43)" onmousedown="handlePan(1,0)">
                  <use xlink:href="#rim" fill="#404040">
                        <set attributeName="fill" to="#808080" begin="arrowRight.mouseover" end="arrowRight.mouseout"/>
                  </use>
                  <path fill="none" stroke="white" stroke-width="1.5" d="M0,-3.0v7 M-2.5,-0.5L0,-3.0L2.5,-0.5"/>
                </g>
                <g id="arrowDown" xlink:href="#dirArrow" transform="rotate(180) translate(-30 -48)" onmousedown="handlePan(0,1)">
                  <use xlink:href="#rim" fill="#404040">
                        <set attributeName="fill" to="#808080" begin="arrowDown.mouseover" end="arrowDown.mouseout"/>
                  </use>
                  <path fill="none" stroke="white" stroke-width="1.5" d="M0,-3.0v7 M-2.5,-0.5L0,-3.0L2.5,-0.5"/>
                </g>
                <g id="arrowLeft" xlink:href="#dirArrow" transform="rotate(270) translate(-36 17)" onmousedown="handlePan(-1,0)">
                  <use xlink:href="#rim" fill="#404040">
                        <set attributeName="fill" to="#808080" begin="arrowLeft.mouseover" end="arrowLeft.mouseout"/>
                  </use>
                  <path fill="none" stroke="white" stroke-width="1.5" d="M0,-3.0v7 M-2.5,-0.5L0,-3.0L2.5,-0.5"/>
                </g>
        </g>
        <svg viewBox="0 0 15 15" width="100%" height="30px" preserveAspectRatio="xMaxYMin meet">
         <g id="arrow_out" transform="scale(0.3 0.3)">
          <a xlink:href="dji__broadcast_8hpp__incl_org.svg" target="_base">
           <rect id="button" ry="5" rx="5" y="6" x="6" height="38" width="38"
                fill="#f2f5e9" fill-opacity="0.5" stroke="#606060" stroke-width="1.0"/>
           <path id="arrow"
             d="M 11.500037,31.436501 C 11.940474,20.09759 22.043105,11.32322 32.158766,21.979434 L 37.068811,17.246167 C 37.068811,17.246167 37.088388,32 37.088388,32 L 22.160133,31.978069 C 22.160133,31.978069 26.997745,27.140456 26.997745,27.140456 C 18.528582,18.264221 13.291696,25.230495 11.500037,31.436501 z"
             style="fill:#404040;"/>
          </a>
         </g>
        </svg>
</svg>
