<?xml version="1.0" encoding="UTF-8" standalone="no"?>
<!DOCTYPE svg PUBLIC "-//W3C//DTD SVG 1.1//EN"
 "http://www.w3.org/Graphics/SVG/1.1/DTD/svg11.dtd">
<!-- Generated by graphviz version 2.40.1 (20161225.0304)
 -->
<!-- Title: osdk&#45;core/api/inc/dji_version.hpp Pages: 1 -->
<svg width="185pt" height="207pt"
 viewBox="0.00 0.00 185.00 207.00" xmlns="http://www.w3.org/2000/svg" xmlns:xlink="http://www.w3.org/1999/xlink">
<g id="graph0" class="graph" transform="scale(1 1) rotate(0) translate(4 203)">
<title>osdk&#45;core/api/inc/dji_version.hpp</title>
<polygon fill="#ffffff" stroke="transparent" points="-4,4 -4,-203 181,-203 181,4 -4,4"/>
<!-- Node0 -->
<g id="node1" class="node">
<title>Node0</title>
<g id="a_node1"><a xlink:title="Drone/SDK Version definition for DJI onboardSDK library.">
<polygon fill="#bfbfbf" stroke="#000000" points="58,-168.5 58,-198.5 162,-198.5 162,-168.5 58,-168.5"/>
<text text-anchor="start" x="66" y="-186.5" font-family="Helvetica,sans-Serif" font-size="10.00" fill="#000000">osdk&#45;core/api/inc/dji</text>
<text text-anchor="middle" x="110" y="-175.5" font-family="Helvetica,sans-Serif" font-size="10.00" fill="#000000">_version.hpp</text>
</a>
</g>
</g>
<!-- Node1 -->
<g id="node2" class="node">
<title>Node1</title>
<g id="a_node2"><a xlink:href="dji__command_8hpp.html" target="_top" xlink:title="All DJI OSDK OpenProtocol Command IDs.">
<polygon fill="#ffffff" stroke="#000000" points="19.5,-112.5 19.5,-131.5 112.5,-131.5 112.5,-112.5 19.5,-112.5"/>
<text text-anchor="middle" x="66" y="-119.5" font-family="Helvetica,sans-Serif" font-size="10.00" fill="#000000">dji_command.hpp</text>
</a>
</g>
</g>
<!-- Node0&#45;&gt;Node1 -->
<g id="edge1" class="edge">
<title>Node0&#45;&gt;Node1</title>
<path fill="none" stroke="#191970" d="M99.1236,-168.2977C93.0159,-159.7609 85.3561,-149.0545 78.9412,-140.0883"/>
<polygon fill="#191970" stroke="#191970" points="81.7101,-137.9433 73.045,-131.8469 76.0171,-142.0163 81.7101,-137.9433"/>
</g>
<!-- Node4 -->
<g id="node5" class="node">
<title>Node4</title>
<g id="a_node5"><a xlink:title=" ">
<polygon fill="#ffffff" stroke="#bfbfbf" points="131,-112.5 131,-131.5 177,-131.5 177,-112.5 131,-112.5"/>
<text text-anchor="middle" x="154" y="-119.5" font-family="Helvetica,sans-Serif" font-size="10.00" fill="#000000">cstdint</text>
</a>
</g>
</g>
<!-- Node0&#45;&gt;Node4 -->
<g id="edge5" class="edge">
<title>Node0&#45;&gt;Node4</title>
<path fill="none" stroke="#191970" d="M120.8764,-168.2977C126.9841,-159.7609 134.6439,-149.0545 141.0588,-140.0883"/>
<polygon fill="#191970" stroke="#191970" points="143.9829,-142.0163 146.955,-131.8469 138.2899,-137.9433 143.9829,-142.0163"/>
</g>
<!-- Node2 -->
<g id="node3" class="node">
<title>Node2</title>
<g id="a_node3"><a xlink:href="dji__error_8hpp.html" target="_top" xlink:title="All DJI OSDK OpenProtocol ACK Error Codes.">
<polygon fill="#ffffff" stroke="#000000" points="0,-56.5 0,-75.5 70,-75.5 70,-56.5 0,-56.5"/>
<text text-anchor="middle" x="35" y="-63.5" font-family="Helvetica,sans-Serif" font-size="10.00" fill="#000000">dji_error.hpp</text>
</a>
</g>
</g>
<!-- Node1&#45;&gt;Node2 -->
<g id="edge2" class="edge">
<title>Node1&#45;&gt;Node2</title>
<path fill="none" stroke="#191970" d="M60.6002,-112.2455C56.3773,-104.617 50.3827,-93.7881 45.2559,-84.5267"/>
<polygon fill="#191970" stroke="#191970" points="48.2432,-82.6965 40.3379,-75.6427 42.119,-86.0867 48.2432,-82.6965"/>
</g>
<!-- Node3 -->
<g id="node4" class="node">
<title>Node3</title>
<g id="a_node4"><a xlink:title=" ">
<polygon fill="#ffffff" stroke="#bfbfbf" points="41.5,-.5 41.5,-19.5 90.5,-19.5 90.5,-.5 41.5,-.5"/>
<text text-anchor="middle" x="66" y="-7.5" font-family="Helvetica,sans-Serif" font-size="10.00" fill="#000000">stdint.h</text>
</a>
</g>
</g>
<!-- Node1&#45;&gt;Node3 -->
<g id="edge4" class="edge">
<title>Node1&#45;&gt;Node3</title>
<path fill="none" stroke="#191970" d="M70.0056,-112.2187C74.7814,-99.385 81.7896,-76.1282 79,-56 77.7643,-47.0835 75.2419,-37.4647 72.745,-29.3395"/>
<polygon fill="#191970" stroke="#191970" points="76.0274,-28.1164 69.5876,-19.7033 69.3753,-30.296 76.0274,-28.1164"/>
</g>
<!-- Node2&#45;&gt;Node3 -->
<g id="edge3" class="edge">
<title>Node2&#45;&gt;Node3</title>
<path fill="none" stroke="#191970" d="M40.3998,-56.2455C44.6227,-48.617 50.6173,-37.7881 55.7441,-28.5267"/>
<polygon fill="#191970" stroke="#191970" points="58.881,-30.0867 60.6621,-19.6427 52.7568,-26.6965 58.881,-30.0867"/>
</g>
</g>
</svg>
