<?xml version="1.0" encoding="UTF-8" standalone="no"?>
<!DOCTYPE svg PUBLIC "-//W3C//DTD SVG 1.1//EN"
 "http://www.w3.org/Graphics/SVG/1.1/DTD/svg11.dtd">
<!-- Generated by graphviz version 2.40.1 (20161225.0304)
 -->
<!-- Title: osdk&#45;core/api/inc/dji_camera_manager.hpp Pages: 1 -->
<svg width="682pt" height="431pt"
 viewBox="0.00 0.00 682.00 431.00" xmlns="http://www.w3.org/2000/svg" xmlns:xlink="http://www.w3.org/1999/xlink">
<g id="graph0" class="graph" transform="scale(1 1) rotate(0) translate(4 427)">
<title>osdk&#45;core/api/inc/dji_camera_manager.hpp</title>
<polygon fill="#ffffff" stroke="transparent" points="-4,4 -4,-427 678,-427 678,4 -4,4"/>
<!-- Node0 -->
<g id="node1" class="node">
<title>Node0</title>
<g id="a_node1"><a xlink:title="Implementation of the manager for camera module.">
<polygon fill="#bfbfbf" stroke="#000000" points="502.5,-392.5 502.5,-422.5 618.5,-422.5 618.5,-392.5 502.5,-392.5"/>
<text text-anchor="start" x="510.5" y="-410.5" font-family="Helvetica,sans-Serif" font-size="10.00" fill="#000000">osdk&#45;core/api/inc/dji</text>
<text text-anchor="middle" x="560.5" y="-399.5" font-family="Helvetica,sans-Serif" font-size="10.00" fill="#000000">_camera_manager.hpp</text>
</a>
</g>
</g>
<!-- Node1 -->
<g id="node2" class="node">
<title>Node1</title>
<g id="a_node2"><a xlink:title=" ">
<polygon fill="#ffffff" stroke="#bfbfbf" points="412.5,-112.5 412.5,-131.5 456.5,-131.5 456.5,-112.5 412.5,-112.5"/>
<text text-anchor="middle" x="434.5" y="-119.5" font-family="Helvetica,sans-Serif" font-size="10.00" fill="#000000">vector</text>
</a>
</g>
</g>
<!-- Node0&#45;&gt;Node1 -->
<g id="edge1" class="edge">
<title>Node0&#45;&gt;Node1</title>
<path fill="none" stroke="#191970" d="M560.5,-392.2899C560.5,-369.892 560.5,-326.7188 560.5,-290 560.5,-290 560.5,-290 560.5,-234 560.5,-183.6246 503.5428,-150.3594 466.2176,-133.9684"/>
<polygon fill="#191970" stroke="#191970" points="467.3109,-130.6312 456.7362,-129.9783 464.5957,-137.0832 467.3109,-130.6312"/>
</g>
<!-- Node2 -->
<g id="node3" class="node">
<title>Node2</title>
<g id="a_node3"><a xlink:href="dji__camera__module_8hpp.html" target="_top" xlink:title="Implementation of camera module for payload node.">
<polygon fill="#ffffff" stroke="#000000" points="343,-336.5 343,-355.5 462,-355.5 462,-336.5 343,-336.5"/>
<text text-anchor="middle" x="402.5" y="-343.5" font-family="Helvetica,sans-Serif" font-size="10.00" fill="#000000">dji_camera_module.hpp</text>
</a>
</g>
</g>
<!-- Node0&#45;&gt;Node2 -->
<g id="edge2" class="edge">
<title>Node0&#45;&gt;Node2</title>
<path fill="none" stroke="#191970" d="M521.8489,-392.4554C495.7174,-382.284 461.5347,-368.9787 436.4519,-359.2155"/>
<polygon fill="#191970" stroke="#191970" points="437.5729,-355.8961 426.9844,-355.5303 435.0338,-362.4193 437.5729,-355.8961"/>
</g>
<!-- Node18 -->
<g id="node19" class="node">
<title>Node18</title>
<g id="a_node19"><a xlink:title=" ">
<polygon fill="#ffffff" stroke="#bfbfbf" points="589,-336.5 589,-355.5 674,-355.5 674,-336.5 589,-336.5"/>
<text text-anchor="middle" x="631.5" y="-343.5" font-family="Helvetica,sans-Serif" font-size="10.00" fill="#000000">dji_file_mgr.hpp</text>
</a>
</g>
</g>
<!-- Node0&#45;&gt;Node18 -->
<g id="edge30" class="edge">
<title>Node0&#45;&gt;Node18</title>
<path fill="none" stroke="#191970" d="M578.0506,-392.2977C588.5221,-383.2274 601.8211,-371.7077 612.5338,-362.4285"/>
<polygon fill="#191970" stroke="#191970" points="614.8649,-365.0398 620.132,-355.8469 610.2818,-359.7487 614.8649,-365.0398"/>
</g>
<!-- Node3 -->
<g id="node4" class="node">
<title>Node3</title>
<g id="a_node4"><a xlink:href="dji__command_8hpp.html" target="_top" xlink:title="All DJI OSDK OpenProtocol Command IDs.">
<polygon fill="#ffffff" stroke="#000000" points="142,-112.5 142,-131.5 235,-131.5 235,-112.5 142,-112.5"/>
<text text-anchor="middle" x="188.5" y="-119.5" font-family="Helvetica,sans-Serif" font-size="10.00" fill="#000000">dji_command.hpp</text>
</a>
</g>
</g>
<!-- Node2&#45;&gt;Node3 -->
<g id="edge3" class="edge">
<title>Node2&#45;&gt;Node3</title>
<path fill="none" stroke="#191970" d="M369.6491,-336.3939C313.7159,-318.0505 201.5756,-272.1694 155.5,-188 146.5343,-171.6217 158.4743,-152.4994 170.4215,-139.0666"/>
<polygon fill="#191970" stroke="#191970" points="173.2727,-141.1506 177.6743,-131.5134 168.2235,-136.3022 173.2727,-141.1506"/>
</g>
<!-- Node9 -->
<g id="node10" class="node">
<title>Node9</title>
<g id="a_node10"><a xlink:href="dji__payload__base_8hpp.html" target="_top" xlink:title="Abstract protocol implementation for payload module.">
<polygon fill="#ffffff" stroke="#000000" points="13.5,-112.5 13.5,-131.5 123.5,-131.5 123.5,-112.5 13.5,-112.5"/>
<text text-anchor="middle" x="68.5" y="-119.5" font-family="Helvetica,sans-Serif" font-size="10.00" fill="#000000">dji_payload_base.hpp</text>
</a>
</g>
</g>
<!-- Node2&#45;&gt;Node9 -->
<g id="edge9" class="edge">
<title>Node2&#45;&gt;Node9</title>
<path fill="none" stroke="#191970" d="M352.367,-336.4855C321.0114,-329.2586 280.4626,-317.5272 247.5,-300 171.5173,-259.5976 106.7848,-176.4515 80.7472,-139.9031"/>
<polygon fill="#191970" stroke="#191970" points="83.5828,-137.8506 74.9779,-131.6694 77.85,-141.8676 83.5828,-137.8506"/>
</g>
<!-- Node11 -->
<g id="node12" class="node">
<title>Node11</title>
<g id="a_node12"><a xlink:href="dji__type_8hpp.html" target="_top" xlink:title="Data type and Data Structure definitions for use throughout DJI OSDK.">
<polygon fill="#ffffff" stroke="#000000" points="325,-112.5 325,-131.5 394,-131.5 394,-112.5 325,-112.5"/>
<text text-anchor="middle" x="359.5" y="-119.5" font-family="Helvetica,sans-Serif" font-size="10.00" fill="#000000">dji_type.hpp</text>
</a>
</g>
</g>
<!-- Node2&#45;&gt;Node11 -->
<g id="edge14" class="edge">
<title>Node2&#45;&gt;Node11</title>
<path fill="none" stroke="#191970" d="M421.4485,-336.4455C456.2486,-317.4859 524.9063,-272.7105 503.5,-224 483.84,-179.2632 432.7771,-150.6769 397.0753,-135.4828"/>
<polygon fill="#191970" stroke="#191970" points="398.0327,-132.0931 387.4518,-131.5501 395.3847,-138.5729 398.0327,-132.0931"/>
</g>
<!-- Node13 -->
<g id="node14" class="node">
<title>Node13</title>
<g id="a_node14"><a xlink:href="dji__vehicle__callback_8hpp.html" target="_top" xlink:title="Type definition for new Vehicle&#45;style callbacks.">
<polygon fill="#ffffff" stroke="#000000" points="341.5,-280.5 341.5,-299.5 463.5,-299.5 463.5,-280.5 341.5,-280.5"/>
<text text-anchor="middle" x="402.5" y="-287.5" font-family="Helvetica,sans-Serif" font-size="10.00" fill="#000000">dji_vehicle_callback.hpp</text>
</a>
</g>
</g>
<!-- Node2&#45;&gt;Node13 -->
<g id="edge17" class="edge">
<title>Node2&#45;&gt;Node13</title>
<path fill="none" stroke="#191970" d="M402.5,-336.2455C402.5,-328.9382 402.5,-318.6944 402.5,-309.7046"/>
<polygon fill="#191970" stroke="#191970" points="406.0001,-309.6426 402.5,-299.6427 399.0001,-309.6427 406.0001,-309.6426"/>
</g>
<!-- Node4 -->
<g id="node5" class="node">
<title>Node4</title>
<g id="a_node5"><a xlink:href="dji__error_8hpp.html" target="_top" xlink:title="All DJI OSDK OpenProtocol ACK Error Codes.">
<polygon fill="#ffffff" stroke="#000000" points="97.5,-56.5 97.5,-75.5 167.5,-75.5 167.5,-56.5 97.5,-56.5"/>
<text text-anchor="middle" x="132.5" y="-63.5" font-family="Helvetica,sans-Serif" font-size="10.00" fill="#000000">dji_error.hpp</text>
</a>
</g>
</g>
<!-- Node3&#45;&gt;Node4 -->
<g id="edge4" class="edge">
<title>Node3&#45;&gt;Node4</title>
<path fill="none" stroke="#191970" d="M178.7455,-112.2455C170.6352,-104.1352 158.9075,-92.4075 149.2919,-82.7919"/>
<polygon fill="#191970" stroke="#191970" points="151.6887,-80.2389 142.1427,-75.6427 146.7389,-85.1887 151.6887,-80.2389"/>
</g>
<!-- Node8 -->
<g id="node9" class="node">
<title>Node8</title>
<g id="a_node9"><a xlink:title=" ">
<polygon fill="#ffffff" stroke="#bfbfbf" points="186,-56.5 186,-75.5 235,-75.5 235,-56.5 186,-56.5"/>
<text text-anchor="middle" x="210.5" y="-63.5" font-family="Helvetica,sans-Serif" font-size="10.00" fill="#000000">stdint.h</text>
</a>
</g>
</g>
<!-- Node3&#45;&gt;Node8 -->
<g id="edge8" class="edge">
<title>Node3&#45;&gt;Node8</title>
<path fill="none" stroke="#191970" d="M192.3321,-112.2455C195.2659,-104.7776 199.4047,-94.2427 202.991,-85.1137"/>
<polygon fill="#191970" stroke="#191970" points="206.3129,-86.23 206.7118,-75.6427 199.7976,-83.6704 206.3129,-86.23"/>
</g>
<!-- Node5 -->
<g id="node6" class="node">
<title>Node5</title>
<g id="a_node6"><a xlink:title=" ">
<polygon fill="#ffffff" stroke="#bfbfbf" points="200.5,-.5 200.5,-19.5 246.5,-19.5 246.5,-.5 200.5,-.5"/>
<text text-anchor="middle" x="223.5" y="-7.5" font-family="Helvetica,sans-Serif" font-size="10.00" fill="#000000">cstdint</text>
</a>
</g>
</g>
<!-- Node4&#45;&gt;Node5 -->
<g id="edge5" class="edge">
<title>Node4&#45;&gt;Node5</title>
<path fill="none" stroke="#191970" d="M148.351,-56.2455C162.3132,-47.6534 182.8728,-35.0014 198.9596,-25.1018"/>
<polygon fill="#191970" stroke="#191970" points="201.1484,-27.8645 207.8307,-19.6427 197.4797,-21.9029 201.1484,-27.8645"/>
</g>
<!-- Node6 -->
<g id="node7" class="node">
<title>Node6</title>
<g id="a_node7"><a xlink:title=" ">
<polygon fill="#ffffff" stroke="#bfbfbf" points="366,-.5 366,-19.5 401,-19.5 401,-.5 366,-.5"/>
<text text-anchor="middle" x="383.5" y="-7.5" font-family="Helvetica,sans-Serif" font-size="10.00" fill="#000000">map</text>
</a>
</g>
</g>
<!-- Node4&#45;&gt;Node6 -->
<g id="edge6" class="edge">
<title>Node4&#45;&gt;Node6</title>
<path fill="none" stroke="#191970" d="M167.561,-58.0156C170.584,-57.332 173.5956,-56.6527 176.5,-56 240.6582,-41.5807 316.062,-24.8883 355.7829,-16.115"/>
<polygon fill="#191970" stroke="#191970" points="356.762,-19.4832 365.7722,-13.9094 355.2528,-12.6478 356.762,-19.4832"/>
</g>
<!-- Node7 -->
<g id="node8" class="node">
<title>Node7</title>
<g id="a_node8"><a xlink:title=" ">
<polygon fill="#ffffff" stroke="#bfbfbf" points="59,-.5 59,-19.5 142,-19.5 142,-.5 59,-.5"/>
<text text-anchor="middle" x="100.5" y="-7.5" font-family="Helvetica,sans-Serif" font-size="10.00" fill="#000000">osdk_typedef.h</text>
</a>
</g>
</g>
<!-- Node4&#45;&gt;Node7 -->
<g id="edge7" class="edge">
<title>Node4&#45;&gt;Node7</title>
<path fill="none" stroke="#191970" d="M126.926,-56.2455C122.5669,-48.617 116.3789,-37.7881 111.0867,-28.5267"/>
<polygon fill="#191970" stroke="#191970" points="114.0104,-26.5886 106.0101,-19.6427 107.9327,-30.0616 114.0104,-26.5886"/>
</g>
<!-- Node9&#45;&gt;Node4 -->
<g id="edge13" class="edge">
<title>Node9&#45;&gt;Node4</title>
<path fill="none" stroke="#191970" d="M79.6479,-112.2455C89.0087,-104.0549 102.5858,-92.1749 113.6349,-82.5069"/>
<polygon fill="#191970" stroke="#191970" points="116.2588,-84.8618 121.4798,-75.6427 111.6492,-79.5937 116.2588,-84.8618"/>
</g>
<!-- Node9&#45;&gt;Node7 -->
<g id="edge12" class="edge">
<title>Node9&#45;&gt;Node7</title>
<path fill="none" stroke="#191970" d="M71.2283,-112.4509C76.4711,-94.1013 88.0455,-53.5908 94.9659,-29.3693"/>
<polygon fill="#191970" stroke="#191970" points="98.3967,-30.1017 97.7786,-19.5249 91.666,-28.1786 98.3967,-30.1017"/>
</g>
<!-- Node9&#45;&gt;Node8 -->
<g id="edge10" class="edge">
<title>Node9&#45;&gt;Node8</title>
<path fill="none" stroke="#191970" d="M92.9107,-112.3733C116.1142,-103.2226 151.2038,-89.3844 177.0142,-79.2057"/>
<polygon fill="#191970" stroke="#191970" points="178.3892,-82.4258 186.4079,-75.5011 175.8211,-75.9139 178.3892,-82.4258"/>
</g>
<!-- Node10 -->
<g id="node11" class="node">
<title>Node10</title>
<g id="a_node11"><a xlink:title=" ">
<polygon fill="#ffffff" stroke="#bfbfbf" points="0,-56.5 0,-75.5 41,-75.5 41,-56.5 0,-56.5"/>
<text text-anchor="middle" x="20.5" y="-63.5" font-family="Helvetica,sans-Serif" font-size="10.00" fill="#000000">string</text>
</a>
</g>
</g>
<!-- Node9&#45;&gt;Node10 -->
<g id="edge11" class="edge">
<title>Node9&#45;&gt;Node10</title>
<path fill="none" stroke="#191970" d="M60.139,-112.2455C53.325,-104.2958 43.5319,-92.8706 35.3848,-83.3656"/>
<polygon fill="#191970" stroke="#191970" points="37.9305,-80.9575 28.7651,-75.6427 32.6157,-85.513 37.9305,-80.9575"/>
</g>
<!-- Node11&#45;&gt;Node8 -->
<g id="edge16" class="edge">
<title>Node11&#45;&gt;Node8</title>
<path fill="none" stroke="#191970" d="M333.886,-112.3733C309.2831,-103.1265 271.9452,-89.0935 244.7872,-78.8865"/>
<polygon fill="#191970" stroke="#191970" points="245.8767,-75.557 235.2847,-75.315 243.414,-82.1095 245.8767,-75.557"/>
</g>
<!-- Node12 -->
<g id="node13" class="node">
<title>Node12</title>
<g id="a_node13"><a xlink:title=" ">
<polygon fill="#ffffff" stroke="#bfbfbf" points="338,-56.5 338,-75.5 381,-75.5 381,-56.5 338,-56.5"/>
<text text-anchor="middle" x="359.5" y="-63.5" font-family="Helvetica,sans-Serif" font-size="10.00" fill="#000000">cstdio</text>
</a>
</g>
</g>
<!-- Node11&#45;&gt;Node12 -->
<g id="edge15" class="edge">
<title>Node11&#45;&gt;Node12</title>
<path fill="none" stroke="#191970" d="M359.5,-112.2455C359.5,-104.9382 359.5,-94.6944 359.5,-85.7046"/>
<polygon fill="#191970" stroke="#191970" points="363.0001,-85.6426 359.5,-75.6427 356.0001,-85.6427 363.0001,-85.6426"/>
</g>
<!-- Node13&#45;&gt;Node11 -->
<g id="edge29" class="edge">
<title>Node13&#45;&gt;Node11</title>
<path fill="none" stroke="#191970" d="M405.7092,-280.2985C411.4634,-262.3354 423.3249,-222.5728 427.5,-188 428.5657,-179.1752 431.6678,-175.8512 427.5,-168 420.1154,-154.0889 406.4364,-143.6166 393.2728,-136.2062"/>
<polygon fill="#191970" stroke="#191970" points="394.8134,-133.0625 384.3255,-131.5605 391.5876,-139.275 394.8134,-133.0625"/>
</g>
<!-- Node14 -->
<g id="node15" class="node">
<title>Node14</title>
<g id="a_node15"><a xlink:href="dji__ack_8hpp.html" target="_top" xlink:title="All DJI OSDK ACK parsing.">
<polygon fill="#ffffff" stroke="#000000" points="278.5,-224.5 278.5,-243.5 344.5,-243.5 344.5,-224.5 278.5,-224.5"/>
<text text-anchor="middle" x="311.5" y="-231.5" font-family="Helvetica,sans-Serif" font-size="10.00" fill="#000000">dji_ack.hpp</text>
</a>
</g>
</g>
<!-- Node13&#45;&gt;Node14 -->
<g id="edge18" class="edge">
<title>Node13&#45;&gt;Node14</title>
<path fill="none" stroke="#191970" d="M386.649,-280.2455C372.6868,-271.6534 352.1272,-259.0014 336.0404,-249.1018"/>
<polygon fill="#191970" stroke="#191970" points="337.5203,-245.9029 327.1693,-243.6427 333.8516,-251.8645 337.5203,-245.9029"/>
</g>
<!-- Node17 -->
<g id="node18" class="node">
<title>Node17</title>
<g id="a_node18"><a xlink:title=" ">
<polygon fill="#ffffff" stroke="#bfbfbf" points="431,-224.5 431,-243.5 494,-243.5 494,-224.5 431,-224.5"/>
<text text-anchor="middle" x="462.5" y="-231.5" font-family="Helvetica,sans-Serif" font-size="10.00" fill="#000000">dji_log.hpp</text>
</a>
</g>
</g>
<!-- Node13&#45;&gt;Node17 -->
<g id="edge28" class="edge">
<title>Node13&#45;&gt;Node17</title>
<path fill="none" stroke="#191970" d="M412.9512,-280.2455C421.7269,-272.0549 434.4554,-260.1749 444.814,-250.5069"/>
<polygon fill="#191970" stroke="#191970" points="447.2461,-253.0246 452.1686,-243.6427 442.4699,-247.9072 447.2461,-253.0246"/>
</g>
<!-- Node14&#45;&gt;Node3 -->
<g id="edge19" class="edge">
<title>Node14&#45;&gt;Node3</title>
<path fill="none" stroke="#191970" d="M278.2421,-228.3458C238.9534,-220.9096 177.1811,-206.5789 163.5,-188 152.7904,-173.4563 162.7029,-153.7789 173.0396,-139.7017"/>
<polygon fill="#191970" stroke="#191970" points="175.8714,-141.7639 179.35,-131.7564 170.3899,-137.4104 175.8714,-141.7639"/>
</g>
<!-- Node14&#45;&gt;Node6 -->
<g id="edge27" class="edge">
<title>Node14&#45;&gt;Node6</title>
<path fill="none" stroke="#191970" d="M344.7081,-226.4992C369.5038,-219.6354 403.1651,-207.5208 427.5,-188 450.9622,-169.1793 456.6659,-160.7515 465.5,-132 478.6779,-89.1111 435.0802,-47.5903 406.4748,-25.7871"/>
<polygon fill="#191970" stroke="#191970" points="408.2885,-22.7764 398.1581,-19.6739 404.1427,-28.4166 408.2885,-22.7764"/>
</g>
<!-- Node14&#45;&gt;Node11 -->
<g id="edge23" class="edge">
<title>Node14&#45;&gt;Node11</title>
<path fill="none" stroke="#191970" d="M306.5807,-224.0728C300.68,-210.6735 292.6256,-186.3651 301.5,-168 307.7828,-154.9981 319.7235,-144.5481 331.1451,-136.9145"/>
<polygon fill="#191970" stroke="#191970" points="333.0177,-139.8718 339.6759,-131.6305 329.3316,-133.9209 333.0177,-139.8718"/>
</g>
<!-- Node15 -->
<g id="node16" class="node">
<title>Node15</title>
<g id="a_node16"><a xlink:href="dji__mission__type_8hpp.html" target="_top" xlink:title="Mission related data struct for DJI OSDK library.">
<polygon fill="#ffffff" stroke="#000000" points="310.5,-168.5 310.5,-187.5 418.5,-187.5 418.5,-168.5 310.5,-168.5"/>
<text text-anchor="middle" x="364.5" y="-175.5" font-family="Helvetica,sans-Serif" font-size="10.00" fill="#000000">dji_mission_type.hpp</text>
</a>
</g>
</g>
<!-- Node14&#45;&gt;Node15 -->
<g id="edge20" class="edge">
<title>Node14&#45;&gt;Node15</title>
<path fill="none" stroke="#191970" d="M320.7319,-224.2455C328.3317,-216.2155 339.2877,-204.6394 348.3368,-195.0781"/>
<polygon fill="#191970" stroke="#191970" points="351.0421,-197.3115 355.3739,-187.6427 345.958,-192.4998 351.0421,-197.3115"/>
</g>
<!-- Node16 -->
<g id="node17" class="node">
<title>Node16</title>
<g id="a_node17"><a xlink:href="dji__version_8hpp.html" target="_top" xlink:title="Drone/SDK Version definition for DJI onboardSDK library.">
<polygon fill="#ffffff" stroke="#000000" points="172.5,-168.5 172.5,-187.5 254.5,-187.5 254.5,-168.5 172.5,-168.5"/>
<text text-anchor="middle" x="213.5" y="-175.5" font-family="Helvetica,sans-Serif" font-size="10.00" fill="#000000">dji_version.hpp</text>
</a>
</g>
</g>
<!-- Node14&#45;&gt;Node16 -->
<g id="edge24" class="edge">
<title>Node14&#45;&gt;Node16</title>
<path fill="none" stroke="#191970" d="M294.4297,-224.2455C279.253,-215.5731 256.8379,-202.7645 239.4437,-192.825"/>
<polygon fill="#191970" stroke="#191970" points="240.7936,-189.5653 230.3747,-187.6427 237.3206,-195.643 240.7936,-189.5653"/>
</g>
<!-- Node15&#45;&gt;Node1 -->
<g id="edge21" class="edge">
<title>Node15&#45;&gt;Node1</title>
<path fill="none" stroke="#191970" d="M376.6931,-168.2455C387.1321,-159.8943 402.3655,-147.7076 414.574,-137.9408"/>
<polygon fill="#191970" stroke="#191970" points="416.8244,-140.6227 422.4467,-131.6427 412.4515,-135.1566 416.8244,-140.6227"/>
</g>
<!-- Node15&#45;&gt;Node11 -->
<g id="edge22" class="edge">
<title>Node15&#45;&gt;Node11</title>
<path fill="none" stroke="#191970" d="M363.6291,-168.2455C362.9766,-160.9382 362.062,-150.6944 361.2593,-141.7046"/>
<polygon fill="#191970" stroke="#191970" points="364.7365,-141.2918 360.361,-131.6427 357.7642,-141.9143 364.7365,-141.2918"/>
</g>
<!-- Node16&#45;&gt;Node3 -->
<g id="edge25" class="edge">
<title>Node16&#45;&gt;Node3</title>
<path fill="none" stroke="#191970" d="M209.1453,-168.2455C205.7756,-160.6973 201.007,-150.0158 196.9017,-140.8197"/>
<polygon fill="#191970" stroke="#191970" points="200.0773,-139.3473 192.8048,-131.6427 193.6853,-142.2009 200.0773,-139.3473"/>
</g>
<!-- Node16&#45;&gt;Node5 -->
<g id="edge26" class="edge">
<title>Node16&#45;&gt;Node5</title>
<path fill="none" stroke="#191970" d="M222.2861,-168.2709C229.5686,-159.5036 239.3705,-145.8915 243.5,-132 253.1249,-99.6225 250.3782,-89.0701 243.5,-56 241.5586,-46.6655 237.6196,-36.9017 233.7469,-28.783"/>
<polygon fill="#191970" stroke="#191970" points="236.8486,-27.161 229.1945,-19.8354 230.6097,-30.3353 236.8486,-27.161"/>
</g>
</g>
</svg>
