<?xml version="1.0" encoding="UTF-8" standalone="no"?>
<!DOCTYPE svg PUBLIC "-//W3C//DTD SVG 1.1//EN"
 "http://www.w3.org/Graphics/SVG/1.1/DTD/svg11.dtd">
<!-- Generated by graphviz version 2.40.1 (20161225.0304)
 -->
<!-- Title: osdk&#45;lib/x86/osdk&#45;core/inc/dji_version.hpp Pages: 1 -->
<svg width="235pt" height="263pt"
 viewBox="0.00 0.00 234.50 263.00" xmlns="http://www.w3.org/2000/svg" xmlns:xlink="http://www.w3.org/1999/xlink">
<g id="graph0" class="graph" transform="scale(1 1) rotate(0) translate(4 259)">
<title>osdk&#45;lib/x86/osdk&#45;core/inc/dji_version.hpp</title>
<polygon fill="#ffffff" stroke="transparent" points="-4,4 -4,-259 230.5,-259 230.5,4 -4,4"/>
<!-- Node0 -->
<g id="node1" class="node">
<title>Node0</title>
<g id="a_node1"><a xlink:title="Drone/SDK Version definition for DJI onboardSDK library.">
<polygon fill="#bfbfbf" stroke="#000000" points="100,-224.5 100,-254.5 215,-254.5 215,-224.5 100,-224.5"/>
<text text-anchor="start" x="108" y="-242.5" font-family="Helvetica,sans-Serif" font-size="10.00" fill="#000000">osdk&#45;lib/x86/osdk&#45;core</text>
<text text-anchor="middle" x="157.5" y="-231.5" font-family="Helvetica,sans-Serif" font-size="10.00" fill="#000000">/inc/dji_version.hpp</text>
</a>
</g>
</g>
<!-- Node1 -->
<g id="node2" class="node">
<title>Node1</title>
<g id="a_node2"><a xlink:href="dji__command_8hpp.html" target="_top" xlink:title="All DJI OSDK OpenProtocol Command IDs.">
<polygon fill="#ffffff" stroke="#000000" points="74,-168.5 74,-187.5 167,-187.5 167,-168.5 74,-168.5"/>
<text text-anchor="middle" x="120.5" y="-175.5" font-family="Helvetica,sans-Serif" font-size="10.00" fill="#000000">dji_command.hpp</text>
</a>
</g>
</g>
<!-- Node0&#45;&gt;Node1 -->
<g id="edge1" class="edge">
<title>Node0&#45;&gt;Node1</title>
<path fill="none" stroke="#191970" d="M148.3539,-224.2977C143.3249,-215.9388 137.0445,-205.4997 131.7209,-196.6509"/>
<polygon fill="#191970" stroke="#191970" points="134.5785,-194.6114 126.4242,-187.8469 128.5803,-198.2201 134.5785,-194.6114"/>
</g>
<!-- Node3 -->
<g id="node4" class="node">
<title>Node3</title>
<g id="a_node4"><a xlink:title=" ">
<polygon fill="#ffffff" stroke="#bfbfbf" points="180.5,-56.5 180.5,-75.5 226.5,-75.5 226.5,-56.5 180.5,-56.5"/>
<text text-anchor="middle" x="203.5" y="-63.5" font-family="Helvetica,sans-Serif" font-size="10.00" fill="#000000">cstdint</text>
</a>
</g>
</g>
<!-- Node0&#45;&gt;Node3 -->
<g id="edge9" class="edge">
<title>Node0&#45;&gt;Node3</title>
<path fill="none" stroke="#191970" d="M163.7034,-224.3583C167.7142,-214.1932 172.8482,-200.4358 176.5,-188 186.9474,-152.4223 195.4805,-109.9652 199.998,-85.6764"/>
<polygon fill="#191970" stroke="#191970" points="203.4841,-86.0686 201.8338,-75.603 196.5975,-84.8134 203.4841,-86.0686"/>
</g>
<!-- Node2 -->
<g id="node3" class="node">
<title>Node2</title>
<g id="a_node3"><a xlink:href="dji__error_8hpp.html" target="_top" xlink:title="All DJI OSDK OpenProtocol ACK Error Codes.">
<polygon fill="#ffffff" stroke="#000000" points="85.5,-112.5 85.5,-131.5 155.5,-131.5 155.5,-112.5 85.5,-112.5"/>
<text text-anchor="middle" x="120.5" y="-119.5" font-family="Helvetica,sans-Serif" font-size="10.00" fill="#000000">dji_error.hpp</text>
</a>
</g>
</g>
<!-- Node1&#45;&gt;Node2 -->
<g id="edge2" class="edge">
<title>Node1&#45;&gt;Node2</title>
<path fill="none" stroke="#191970" d="M120.5,-168.2455C120.5,-160.9382 120.5,-150.6944 120.5,-141.7046"/>
<polygon fill="#191970" stroke="#191970" points="124.0001,-141.6426 120.5,-131.6427 117.0001,-141.6427 124.0001,-141.6426"/>
</g>
<!-- Node7 -->
<g id="node8" class="node">
<title>Node7</title>
<g id="a_node8"><a xlink:title=" ">
<polygon fill="#ffffff" stroke="#bfbfbf" points="0,-.5 0,-19.5 49,-19.5 49,-.5 0,-.5"/>
<text text-anchor="middle" x="24.5" y="-7.5" font-family="Helvetica,sans-Serif" font-size="10.00" fill="#000000">stdint.h</text>
</a>
</g>
</g>
<!-- Node1&#45;&gt;Node7 -->
<g id="edge8" class="edge">
<title>Node1&#45;&gt;Node7</title>
<path fill="none" stroke="#191970" d="M104.324,-168.2575C79.8632,-152.4582 34.4183,-118.6715 16.5,-76 10.2941,-61.2209 13.1756,-43.0537 17.1114,-29.5237"/>
<polygon fill="#191970" stroke="#191970" points="20.5038,-30.4139 20.3403,-19.8203 13.8619,-28.2036 20.5038,-30.4139"/>
</g>
<!-- Node2&#45;&gt;Node3 -->
<g id="edge3" class="edge">
<title>Node2&#45;&gt;Node3</title>
<path fill="none" stroke="#191970" d="M134.9575,-112.2455C147.5732,-103.7337 166.0944,-91.2375 180.7045,-81.3801"/>
<polygon fill="#191970" stroke="#191970" points="182.8761,-84.1371 189.2082,-75.6427 178.9609,-78.3343 182.8761,-84.1371"/>
</g>
<!-- Node4 -->
<g id="node5" class="node">
<title>Node4</title>
<g id="a_node5"><a xlink:title=" ">
<polygon fill="#ffffff" stroke="#bfbfbf" points="26,-56.5 26,-75.5 61,-75.5 61,-56.5 26,-56.5"/>
<text text-anchor="middle" x="43.5" y="-63.5" font-family="Helvetica,sans-Serif" font-size="10.00" fill="#000000">map</text>
</a>
</g>
</g>
<!-- Node2&#45;&gt;Node4 -->
<g id="edge4" class="edge">
<title>Node2&#45;&gt;Node4</title>
<path fill="none" stroke="#191970" d="M107.0876,-112.2455C95.4943,-103.814 78.5252,-91.4729 65.0322,-81.6598"/>
<polygon fill="#191970" stroke="#191970" points="66.9047,-78.6938 56.7587,-75.6427 62.7874,-84.355 66.9047,-78.6938"/>
</g>
<!-- Node5 -->
<g id="node6" class="node">
<title>Node5</title>
<g id="a_node6"><a xlink:href="osdk__typedef_8h_source.html" target="_top" xlink:title=" ">
<polygon fill="#ffffff" stroke="#000000" points="79,-56.5 79,-75.5 162,-75.5 162,-56.5 79,-56.5"/>
<text text-anchor="middle" x="120.5" y="-63.5" font-family="Helvetica,sans-Serif" font-size="10.00" fill="#000000">osdk_typedef.h</text>
</a>
</g>
</g>
<!-- Node2&#45;&gt;Node5 -->
<g id="edge5" class="edge">
<title>Node2&#45;&gt;Node5</title>
<path fill="none" stroke="#191970" d="M120.5,-112.2455C120.5,-104.9382 120.5,-94.6944 120.5,-85.7046"/>
<polygon fill="#191970" stroke="#191970" points="124.0001,-85.6426 120.5,-75.6427 117.0001,-85.6427 124.0001,-85.6426"/>
</g>
<!-- Node6 -->
<g id="node7" class="node">
<title>Node6</title>
<g id="a_node7"><a xlink:title=" ">
<polygon fill="#ffffff" stroke="#bfbfbf" points="94.5,-.5 94.5,-19.5 146.5,-19.5 146.5,-.5 94.5,-.5"/>
<text text-anchor="middle" x="120.5" y="-7.5" font-family="Helvetica,sans-Serif" font-size="10.00" fill="#000000">stddef.h</text>
</a>
</g>
</g>
<!-- Node5&#45;&gt;Node6 -->
<g id="edge6" class="edge">
<title>Node5&#45;&gt;Node6</title>
<path fill="none" stroke="#191970" d="M120.5,-56.2455C120.5,-48.9382 120.5,-38.6944 120.5,-29.7046"/>
<polygon fill="#191970" stroke="#191970" points="124.0001,-29.6426 120.5,-19.6427 117.0001,-29.6427 124.0001,-29.6426"/>
</g>
<!-- Node5&#45;&gt;Node7 -->
<g id="edge7" class="edge">
<title>Node5&#45;&gt;Node7</title>
<path fill="none" stroke="#191970" d="M103.7781,-56.2455C88.9111,-47.5731 66.9534,-34.7645 49.9142,-24.825"/>
<polygon fill="#191970" stroke="#191970" points="51.4317,-21.6582 41.0303,-19.6427 47.9045,-27.7047 51.4317,-21.6582"/>
</g>
</g>
</svg>
