<?xml version="1.0" encoding="UTF-8" standalone="no"?>
<!DOCTYPE svg PUBLIC "-//W3C//DTD SVG 1.1//EN"
 "http://www.w3.org/Graphics/SVG/1.1/DTD/svg11.dtd">
<!-- Generated by graphviz version 2.40.1 (20161225.0304)
 -->
<!-- Title: osdk&#45;core/api/inc/dji_subscription.hpp Pages: 1 -->
<svg width="289pt" height="207pt"
 viewBox="0.00 0.00 289.00 207.00" xmlns="http://www.w3.org/2000/svg" xmlns:xlink="http://www.w3.org/1999/xlink">
<g id="graph0" class="graph" transform="scale(1 1) rotate(0) translate(4 203)">
<title>osdk&#45;core/api/inc/dji_subscription.hpp</title>
<polygon fill="#ffffff" stroke="transparent" points="-4,4 -4,-203 285,-203 285,4 -4,4"/>
<!-- Node0 -->
<g id="node1" class="node">
<title>Node0</title>
<g id="a_node1"><a xlink:title="Telemetry Subscription API for DJI OSDK library.">
<polygon fill="#bfbfbf" stroke="#000000" points="47.5,-168.5 47.5,-198.5 151.5,-198.5 151.5,-168.5 47.5,-168.5"/>
<text text-anchor="start" x="55.5" y="-186.5" font-family="Helvetica,sans-Serif" font-size="10.00" fill="#000000">osdk&#45;core/api/inc/dji</text>
<text text-anchor="middle" x="99.5" y="-175.5" font-family="Helvetica,sans-Serif" font-size="10.00" fill="#000000">_subscription.hpp</text>
</a>
</g>
</g>
<!-- Node1 -->
<g id="node2" class="node">
<title>Node1</title>
<g id="a_node2"><a xlink:title=" ">
<polygon fill="#ffffff" stroke="#bfbfbf" points="0,-56.5 0,-75.5 111,-75.5 111,-56.5 0,-56.5"/>
<text text-anchor="middle" x="55.5" y="-63.5" font-family="Helvetica,sans-Serif" font-size="10.00" fill="#000000">dji_open_protocol.hpp</text>
</a>
</g>
</g>
<!-- Node0&#45;&gt;Node1 -->
<g id="edge1" class="edge">
<title>Node0&#45;&gt;Node1</title>
<path fill="none" stroke="#191970" d="M67.0457,-168.3708C52.773,-159.8631 37.4669,-147.7522 29.5,-132 21.4753,-116.1336 30.7713,-97.1716 40.4039,-83.6521"/>
<polygon fill="#191970" stroke="#191970" points="43.2513,-85.6915 46.6038,-75.641 37.7155,-81.4072 43.2513,-85.6915"/>
</g>
<!-- Node2 -->
<g id="node3" class="node">
<title>Node2</title>
<g id="a_node3"><a xlink:href="dji__telemetry_8hpp.html" target="_top" xlink:title="Enumeration of all telemetry data types, structures and maps.">
<polygon fill="#ffffff" stroke="#000000" points="179,-112.5 179,-131.5 270,-131.5 270,-112.5 179,-112.5"/>
<text text-anchor="middle" x="224.5" y="-119.5" font-family="Helvetica,sans-Serif" font-size="10.00" fill="#000000">dji_telemetry.hpp</text>
</a>
</g>
</g>
<!-- Node0&#45;&gt;Node2 -->
<g id="edge2" class="edge">
<title>Node0&#45;&gt;Node2</title>
<path fill="none" stroke="#191970" d="M130.0784,-168.4554C150.2032,-158.554 176.3639,-145.683 196.0438,-136.0004"/>
<polygon fill="#191970" stroke="#191970" points="197.7018,-139.0855 205.1294,-131.5303 194.6115,-132.8045 197.7018,-139.0855"/>
</g>
<!-- Node6 -->
<g id="node7" class="node">
<title>Node6</title>
<g id="a_node7"><a xlink:href="dji__vehicle__callback_8hpp.html" target="_top" xlink:title="Type definition for new Vehicle&#45;style callbacks.">
<polygon fill="#ffffff" stroke="#000000" points="38.5,-112.5 38.5,-131.5 160.5,-131.5 160.5,-112.5 38.5,-112.5"/>
<text text-anchor="middle" x="99.5" y="-119.5" font-family="Helvetica,sans-Serif" font-size="10.00" fill="#000000">dji_vehicle_callback.hpp</text>
</a>
</g>
</g>
<!-- Node0&#45;&gt;Node6 -->
<g id="edge6" class="edge">
<title>Node0&#45;&gt;Node6</title>
<path fill="none" stroke="#191970" d="M99.5,-168.2977C99.5,-160.3834 99.5,-150.6043 99.5,-142.0759"/>
<polygon fill="#191970" stroke="#191970" points="103.0001,-141.8469 99.5,-131.8469 96.0001,-141.847 103.0001,-141.8469"/>
</g>
<!-- Node3 -->
<g id="node4" class="node">
<title>Node3</title>
<g id="a_node4"><a xlink:href="dji__type_8hpp.html" target="_top" xlink:title="Data type and Data Structure definitions for use throughout DJI OSDK.">
<polygon fill="#ffffff" stroke="#000000" points="190,-56.5 190,-75.5 259,-75.5 259,-56.5 190,-56.5"/>
<text text-anchor="middle" x="224.5" y="-63.5" font-family="Helvetica,sans-Serif" font-size="10.00" fill="#000000">dji_type.hpp</text>
</a>
</g>
</g>
<!-- Node2&#45;&gt;Node3 -->
<g id="edge3" class="edge">
<title>Node2&#45;&gt;Node3</title>
<path fill="none" stroke="#191970" d="M224.5,-112.2455C224.5,-104.9382 224.5,-94.6944 224.5,-85.7046"/>
<polygon fill="#191970" stroke="#191970" points="228.0001,-85.6426 224.5,-75.6427 221.0001,-85.6427 228.0001,-85.6426"/>
</g>
<!-- Node4 -->
<g id="node5" class="node">
<title>Node4</title>
<g id="a_node5"><a xlink:title=" ">
<polygon fill="#ffffff" stroke="#bfbfbf" points="171,-.5 171,-19.5 214,-19.5 214,-.5 171,-.5"/>
<text text-anchor="middle" x="192.5" y="-7.5" font-family="Helvetica,sans-Serif" font-size="10.00" fill="#000000">cstdio</text>
</a>
</g>
</g>
<!-- Node3&#45;&gt;Node4 -->
<g id="edge4" class="edge">
<title>Node3&#45;&gt;Node4</title>
<path fill="none" stroke="#191970" d="M218.926,-56.2455C214.5669,-48.617 208.3789,-37.7881 203.0867,-28.5267"/>
<polygon fill="#191970" stroke="#191970" points="206.0104,-26.5886 198.0101,-19.6427 199.9327,-30.0616 206.0104,-26.5886"/>
</g>
<!-- Node5 -->
<g id="node6" class="node">
<title>Node5</title>
<g id="a_node6"><a xlink:title=" ">
<polygon fill="#ffffff" stroke="#bfbfbf" points="232,-.5 232,-19.5 281,-19.5 281,-.5 232,-.5"/>
<text text-anchor="middle" x="256.5" y="-7.5" font-family="Helvetica,sans-Serif" font-size="10.00" fill="#000000">stdint.h</text>
</a>
</g>
</g>
<!-- Node3&#45;&gt;Node5 -->
<g id="edge5" class="edge">
<title>Node3&#45;&gt;Node5</title>
<path fill="none" stroke="#191970" d="M230.074,-56.2455C234.4331,-48.617 240.6211,-37.7881 245.9133,-28.5267"/>
<polygon fill="#191970" stroke="#191970" points="249.0673,-30.0616 250.9899,-19.6427 242.9896,-26.5886 249.0673,-30.0616"/>
</g>
<!-- Node6&#45;&gt;Node1 -->
<g id="edge7" class="edge">
<title>Node6&#45;&gt;Node1</title>
<path fill="none" stroke="#191970" d="M91.8358,-112.2455C85.6527,-104.3761 76.7937,-93.101 69.3711,-83.6542"/>
<polygon fill="#191970" stroke="#191970" points="72.0068,-81.3435 63.0764,-75.6427 66.5025,-85.6683 72.0068,-81.3435"/>
</g>
</g>
</svg>
