<?xml version="1.0" encoding="UTF-8" standalone="no"?>
<!DOCTYPE svg PUBLIC "-//W3C//DTD SVG 1.1//EN"
 "http://www.w3.org/Graphics/SVG/1.1/DTD/svg11.dtd">
<!-- Generated by graphviz version 2.40.1 (20161225.0304)
 -->
<!-- Title: osdk&#45;lib/x86/osdk&#45;core/inc/dji_hardware_sync.hpp Pages: 1 -->
<!--zoomable 431 -->
<svg id="main" version="1.1" xmlns="http://www.w3.org/2000/svg" xmlns:xlink="http://www.w3.org/1999/xlink" xml:space="preserve" onload="init(evt)">
<style type="text/css"><![CDATA[
.edge:hover path { stroke: red; }
.edge:hover polygon { stroke: red; fill: red; }
]]></style>
<script type="text/javascript"><![CDATA[
var edges = document.getElementsByTagName('g');
if (edges && edges.length) {
  for (var i=0;i<edges.length;i++) {
    if (edges[i].id.substr(0,4)=='edge') {
      edges[i].setAttribute('class','edge');
    }
  }
}
]]></script>
        <defs>
                <circle id="rim" cx="0" cy="0" r="7"/>
                <circle id="rim2" cx="0" cy="0" r="3.5"/>
                <g id="zoomPlus">
                        <use xlink:href="#rim" fill="#404040">
                                <set attributeName="fill" to="#808080" begin="zoomplus.mouseover" end="zoomplus.mouseout"/>
                        </use>
                        <path d="M-4,0h8M0,-4v8" fill="none" stroke="white" stroke-width="1.5" pointer-events="none"/>
                </g>
                <g id="zoomMin">
                        <use xlink:href="#rim" fill="#404040">
                                <set attributeName="fill" to="#808080" begin="zoomminus.mouseover" end="zoomminus.mouseout"/>
                        </use>
                        <path d="M-4,0h8" fill="none" stroke="white" stroke-width="1.5" pointer-events="none"/>
                </g>
                <g id="dirArrow">
                        <path fill="none" stroke="white" stroke-width="1.5" d="M0,-3.0v7 M-2.5,-0.5L0,-3.0L2.5,-0.5"/>
                </g>
               <g id="resetDef">
                       <use xlink:href="#rim2" fill="#404040">
                               <set attributeName="fill" to="#808080" begin="reset.mouseover" end="reset.mouseout"/>
                       </use>
               </g>
        </defs>

<script type="text/javascript">
var viewWidth = 688;
var viewHeight = 431;
var sectionId = 'dynsection-0';
</script>
<script xlink:href="svgpan.js"/>
<svg id="graph" class="graph">
<g id="viewport">
<title>osdk&#45;lib/x86/osdk&#45;core/inc/dji_hardware_sync.hpp</title>
<polygon fill="#ffffff" stroke="transparent" points="-4,4 -4,-427 684.3337,-427 684.3337,4 -4,4"/>
<!-- Node0 -->
<g id="node1" class="node">
<title>Node0</title>
<g id="a_node1"><a xlink:title="Hardware Sync API for DJI OSDK.">
<polygon fill="#bfbfbf" stroke="#000000" points="14.8337,-392.5 14.8337,-422.5 149.8337,-422.5 149.8337,-392.5 14.8337,-392.5"/>
<text text-anchor="start" x="22.8337" y="-410.5" font-family="Helvetica,sans-Serif" font-size="10.00" fill="#000000">osdk&#45;lib/x86/osdk&#45;core</text>
<text text-anchor="middle" x="82.3337" y="-399.5" font-family="Helvetica,sans-Serif" font-size="10.00" fill="#000000">/inc/dji_hardware_sync.hpp</text>
</a>
</g>
</g>
<!-- Node1 -->
<g id="node2" class="node">
<title>Node1</title>
<g id="a_node2"><a xlink:href="dji__type_8hpp.html" target="_top" xlink:title="Data type and Data Structure definitions for use throughout DJI OSDK.">
<polygon fill="#ffffff" stroke="#000000" points=".8337,-168.5 .8337,-187.5 69.8337,-187.5 69.8337,-168.5 .8337,-168.5"/>
<text text-anchor="middle" x="35.3337" y="-175.5" font-family="Helvetica,sans-Serif" font-size="10.00" fill="#000000">dji_type.hpp</text>
</a>
</g>
</g>
<!-- Node0&#45;&gt;Node1 -->
<g id="edge1" class="edge">
<title>Node0&#45;&gt;Node1</title>
<path fill="none" stroke="#191970" d="M49.8794,-392.3708C35.6067,-383.8631 20.3006,-371.7522 12.3337,-356 -14.4303,-303.0824 11.3099,-230.4708 26.2815,-196.6918"/>
<polygon fill="#191970" stroke="#191970" points="29.5017,-198.0667 30.5121,-187.5202 23.1453,-195.1347 29.5017,-198.0667"/>
</g>
<!-- Node4 -->
<g id="node5" class="node">
<title>Node4</title>
<g id="a_node5"><a xlink:href="dji__vehicle__callback_8hpp.html" target="_top" xlink:title="Type definition for new Vehicle&#45;style callbacks.">
<polygon fill="#ffffff" stroke="#000000" points="21.3337,-336.5 21.3337,-355.5 143.3337,-355.5 143.3337,-336.5 21.3337,-336.5"/>
<text text-anchor="middle" x="82.3337" y="-343.5" font-family="Helvetica,sans-Serif" font-size="10.00" fill="#000000">dji_vehicle_callback.hpp</text>
</a>
</g>
</g>
<!-- Node0&#45;&gt;Node4 -->
<g id="edge4" class="edge">
<title>Node0&#45;&gt;Node4</title>
<path fill="none" stroke="#191970" d="M82.3337,-392.2977C82.3337,-384.3834 82.3337,-374.6043 82.3337,-366.0759"/>
<polygon fill="#191970" stroke="#191970" points="85.8338,-365.8469 82.3337,-355.8469 78.8338,-365.847 85.8338,-365.8469"/>
</g>
<!-- Node20 -->
<g id="node21" class="node">
<title>Node20</title>
<g id="a_node21"><a xlink:title=" ">
<polygon fill="#ffffff" stroke="#bfbfbf" points="161.8337,-336.5 161.8337,-355.5 202.8337,-355.5 202.8337,-336.5 161.8337,-336.5"/>
<text text-anchor="middle" x="182.3337" y="-343.5" font-family="Helvetica,sans-Serif" font-size="10.00" fill="#000000">string</text>
</a>
</g>
</g>
<!-- Node0&#45;&gt;Node20 -->
<g id="edge31" class="edge">
<title>Node0&#45;&gt;Node20</title>
<path fill="none" stroke="#191970" d="M106.7964,-392.4554C122.4572,-382.8241 142.6869,-370.3828 158.2693,-360.7996"/>
<polygon fill="#191970" stroke="#191970" points="160.1527,-363.7503 166.8372,-355.5303 156.4857,-357.7876 160.1527,-363.7503"/>
</g>
<!-- Node2 -->
<g id="node3" class="node">
<title>Node2</title>
<g id="a_node3"><a xlink:title=" ">
<polygon fill="#ffffff" stroke="#bfbfbf" points="13.8337,-112.5 13.8337,-131.5 56.8337,-131.5 56.8337,-112.5 13.8337,-112.5"/>
<text text-anchor="middle" x="35.3337" y="-119.5" font-family="Helvetica,sans-Serif" font-size="10.00" fill="#000000">cstdio</text>
</a>
</g>
</g>
<!-- Node1&#45;&gt;Node2 -->
<g id="edge2" class="edge">
<title>Node1&#45;&gt;Node2</title>
<path fill="none" stroke="#191970" d="M35.3337,-168.2455C35.3337,-160.9382 35.3337,-150.6944 35.3337,-141.7046"/>
<polygon fill="#191970" stroke="#191970" points="38.8338,-141.6426 35.3337,-131.6427 31.8338,-141.6427 38.8338,-141.6426"/>
</g>
<!-- Node3 -->
<g id="node4" class="node">
<title>Node3</title>
<g id="a_node4"><a xlink:title=" ">
<polygon fill="#ffffff" stroke="#bfbfbf" points="212.8337,-.5 212.8337,-19.5 261.8337,-19.5 261.8337,-.5 212.8337,-.5"/>
<text text-anchor="middle" x="237.3337" y="-7.5" font-family="Helvetica,sans-Serif" font-size="10.00" fill="#000000">stdint.h</text>
</a>
</g>
</g>
<!-- Node1&#45;&gt;Node3 -->
<g id="edge3" class="edge">
<title>Node1&#45;&gt;Node3</title>
<path fill="none" stroke="#191970" d="M46.7729,-168.4862C79.8793,-140.9521 176.069,-60.9528 217.7228,-26.31"/>
<polygon fill="#191970" stroke="#191970" points="220.0664,-28.9132 225.5168,-19.8279 215.5903,-23.5313 220.0664,-28.9132"/>
</g>
<!-- Node4&#45;&gt;Node1 -->
<g id="edge30" class="edge">
<title>Node4&#45;&gt;Node1</title>
<path fill="none" stroke="#191970" d="M76.8912,-336.2463C67.3074,-318.5184 47.6489,-279.554 39.3337,-244 35.7751,-228.7843 34.87,-211.0889 34.8027,-197.8531"/>
<polygon fill="#191970" stroke="#191970" points="38.3057,-197.5812 34.9135,-187.5441 31.3061,-197.5059 38.3057,-197.5812"/>
</g>
<!-- Node5 -->
<g id="node6" class="node">
<title>Node5</title>
<g id="a_node6"><a xlink:href="dji__ack_8hpp.html" target="_top" xlink:title="All DJI OSDK ACK parsing.">
<polygon fill="#ffffff" stroke="#000000" points="125.3337,-280.5 125.3337,-299.5 191.3337,-299.5 191.3337,-280.5 125.3337,-280.5"/>
<text text-anchor="middle" x="158.3337" y="-287.5" font-family="Helvetica,sans-Serif" font-size="10.00" fill="#000000">dji_ack.hpp</text>
</a>
</g>
</g>
<!-- Node4&#45;&gt;Node5 -->
<g id="edge5" class="edge">
<title>Node4&#45;&gt;Node5</title>
<path fill="none" stroke="#191970" d="M95.5719,-336.2455C107.0147,-327.814 123.7633,-315.4729 137.0812,-305.6598"/>
<polygon fill="#191970" stroke="#191970" points="139.2728,-308.3924 145.2472,-299.6427 135.1204,-302.757 139.2728,-308.3924"/>
</g>
<!-- Node15 -->
<g id="node16" class="node">
<title>Node15</title>
<g id="a_node16"><a xlink:href="dji__log_8hpp.html" target="_top" xlink:title="Logging mechanism for printing status and error messages to the screen.">
<polygon fill="#ffffff" stroke="#000000" points="404.8337,-224.5 404.8337,-243.5 467.8337,-243.5 467.8337,-224.5 404.8337,-224.5"/>
<text text-anchor="middle" x="436.3337" y="-231.5" font-family="Helvetica,sans-Serif" font-size="10.00" fill="#000000">dji_log.hpp</text>
</a>
</g>
</g>
<!-- Node4&#45;&gt;Node15 -->
<g id="edge22" class="edge">
<title>Node4&#45;&gt;Node15</title>
<path fill="none" stroke="#191970" d="M112.5155,-336.4509C176.3917,-316.2415 325.2296,-269.1516 396.6772,-246.5467"/>
<polygon fill="#191970" stroke="#191970" points="397.7498,-249.8784 406.2282,-243.5249 395.6382,-243.2045 397.7498,-249.8784"/>
</g>
<!-- Node5&#45;&gt;Node1 -->
<g id="edge17" class="edge">
<title>Node5&#45;&gt;Node1</title>
<path fill="none" stroke="#191970" d="M125.3068,-283.1914C102.3242,-276.8014 72.6333,-264.9773 54.3337,-244 43.2008,-231.2381 38.5727,-212.3214 36.6585,-198.0076"/>
<polygon fill="#191970" stroke="#191970" points="40.1077,-197.3239 35.6326,-187.7206 33.1423,-198.0185 40.1077,-197.3239"/>
</g>
<!-- Node6 -->
<g id="node7" class="node">
<title>Node6</title>
<g id="a_node7"><a xlink:href="dji__command_8hpp.html" target="_top" xlink:title="All DJI OSDK OpenProtocol Command IDs.">
<polygon fill="#ffffff" stroke="#000000" points="234.8337,-168.5 234.8337,-187.5 327.8337,-187.5 327.8337,-168.5 234.8337,-168.5"/>
<text text-anchor="middle" x="281.3337" y="-175.5" font-family="Helvetica,sans-Serif" font-size="10.00" fill="#000000">dji_command.hpp</text>
</a>
</g>
</g>
<!-- Node5&#45;&gt;Node6 -->
<g id="edge6" class="edge">
<title>Node5&#45;&gt;Node6</title>
<path fill="none" stroke="#191970" d="M170.3509,-280.3776C181.6405,-271.2382 198.9086,-257.0005 213.3337,-244 231.3139,-227.7955 251.087,-208.4177 264.6536,-194.8661"/>
<polygon fill="#191970" stroke="#191970" points="267.2857,-197.1832 271.8637,-187.6285 262.3265,-192.2429 267.2857,-197.1832"/>
</g>
<!-- Node9 -->
<g id="node10" class="node">
<title>Node9</title>
<g id="a_node10"><a xlink:title=" ">
<polygon fill="#ffffff" stroke="#bfbfbf" points="273.8337,-56.5 273.8337,-75.5 308.8337,-75.5 308.8337,-56.5 273.8337,-56.5"/>
<text text-anchor="middle" x="291.3337" y="-63.5" font-family="Helvetica,sans-Serif" font-size="10.00" fill="#000000">map</text>
</a>
</g>
</g>
<!-- Node5&#45;&gt;Node9 -->
<g id="edge21" class="edge">
<title>Node5&#45;&gt;Node9</title>
<path fill="none" stroke="#191970" d="M162.9573,-280.448C176.2239,-253.3149 216.052,-173.7518 256.3337,-112 262.6815,-102.2688 270.4467,-91.9306 277.0487,-83.525"/>
<polygon fill="#191970" stroke="#191970" points="279.8948,-85.5699 283.3995,-75.5715 274.4246,-81.202 279.8948,-85.5699"/>
</g>
<!-- Node12 -->
<g id="node13" class="node">
<title>Node12</title>
<g id="a_node13"><a xlink:href="dji__mission__type_8hpp.html" target="_top" xlink:title="Mission related data struct for DJI OSDK library.">
<polygon fill="#ffffff" stroke="#000000" points="63.3337,-224.5 63.3337,-243.5 171.3337,-243.5 171.3337,-224.5 63.3337,-224.5"/>
<text text-anchor="middle" x="117.3337" y="-231.5" font-family="Helvetica,sans-Serif" font-size="10.00" fill="#000000">dji_mission_type.hpp</text>
</a>
</g>
</g>
<!-- Node5&#45;&gt;Node12 -->
<g id="edge14" class="edge">
<title>Node5&#45;&gt;Node12</title>
<path fill="none" stroke="#191970" d="M151.192,-280.2455C145.4893,-272.4564 137.3437,-261.3308 130.4712,-251.9439"/>
<polygon fill="#191970" stroke="#191970" points="133.125,-249.6437 124.3935,-243.6427 127.4769,-253.7789 133.125,-249.6437"/>
</g>
<!-- Node14 -->
<g id="node15" class="node">
<title>Node14</title>
<g id="a_node15"><a xlink:href="dji__version_8hpp.html" target="_top" xlink:title="Drone/SDK Version definition for DJI onboardSDK library.">
<polygon fill="#ffffff" stroke="#000000" points="265.3337,-224.5 265.3337,-243.5 347.3337,-243.5 347.3337,-224.5 265.3337,-224.5"/>
<text text-anchor="middle" x="306.3337" y="-231.5" font-family="Helvetica,sans-Serif" font-size="10.00" fill="#000000">dji_version.hpp</text>
</a>
</g>
</g>
<!-- Node5&#45;&gt;Node14 -->
<g id="edge18" class="edge">
<title>Node5&#45;&gt;Node14</title>
<path fill="none" stroke="#191970" d="M183.7758,-280.3733C208.0663,-271.1822 244.8545,-257.2624 271.788,-247.0713"/>
<polygon fill="#191970" stroke="#191970" points="273.1094,-250.3136 281.2236,-243.5011 270.6321,-243.7666 273.1094,-250.3136"/>
</g>
<!-- Node6&#45;&gt;Node3 -->
<g id="edge13" class="edge">
<title>Node6&#45;&gt;Node3</title>
<path fill="none" stroke="#191970" d="M274.7259,-168.2264C268.9545,-159.2126 260.8186,-145.2596 256.3337,-132 244.5939,-97.2914 240.0608,-54.5428 238.3444,-29.9643"/>
<polygon fill="#191970" stroke="#191970" points="241.8244,-29.527 237.7235,-19.7581 234.8373,-29.9522 241.8244,-29.527"/>
</g>
<!-- Node7 -->
<g id="node8" class="node">
<title>Node7</title>
<g id="a_node8"><a xlink:href="dji__error_8hpp.html" target="_top" xlink:title="All DJI OSDK OpenProtocol ACK Error Codes.">
<polygon fill="#ffffff" stroke="#000000" points="265.3337,-112.5 265.3337,-131.5 335.3337,-131.5 335.3337,-112.5 265.3337,-112.5"/>
<text text-anchor="middle" x="300.3337" y="-119.5" font-family="Helvetica,sans-Serif" font-size="10.00" fill="#000000">dji_error.hpp</text>
</a>
</g>
</g>
<!-- Node6&#45;&gt;Node7 -->
<g id="edge7" class="edge">
<title>Node6&#45;&gt;Node7</title>
<path fill="none" stroke="#191970" d="M284.6432,-168.2455C287.177,-160.7776 290.7514,-150.2427 293.8487,-141.1137"/>
<polygon fill="#191970" stroke="#191970" points="297.1635,-142.237 297.0621,-131.6427 290.5346,-139.9879 297.1635,-142.237"/>
</g>
<!-- Node8 -->
<g id="node9" class="node">
<title>Node8</title>
<g id="a_node9"><a xlink:title=" ">
<polygon fill="#ffffff" stroke="#bfbfbf" points="333.3337,-56.5 333.3337,-75.5 379.3337,-75.5 379.3337,-56.5 333.3337,-56.5"/>
<text text-anchor="middle" x="356.3337" y="-63.5" font-family="Helvetica,sans-Serif" font-size="10.00" fill="#000000">cstdint</text>
</a>
</g>
</g>
<!-- Node7&#45;&gt;Node8 -->
<g id="edge8" class="edge">
<title>Node7&#45;&gt;Node8</title>
<path fill="none" stroke="#191970" d="M310.0881,-112.2455C318.1985,-104.1352 329.9262,-92.4075 339.5418,-82.7919"/>
<polygon fill="#191970" stroke="#191970" points="342.0948,-85.1887 346.691,-75.6427 337.145,-80.2389 342.0948,-85.1887"/>
</g>
<!-- Node7&#45;&gt;Node9 -->
<g id="edge9" class="edge">
<title>Node7&#45;&gt;Node9</title>
<path fill="none" stroke="#191970" d="M298.766,-112.2455C297.5916,-104.9382 295.9453,-94.6944 294.5005,-85.7046"/>
<polygon fill="#191970" stroke="#191970" points="297.9259,-84.9606 292.8834,-75.6427 291.0146,-86.0714 297.9259,-84.9606"/>
</g>
<!-- Node10 -->
<g id="node11" class="node">
<title>Node10</title>
<g id="a_node11"><a xlink:href="osdk__typedef_8h_source.html" target="_top" xlink:title=" ">
<polygon fill="#ffffff" stroke="#000000" points="446.8337,-56.5 446.8337,-75.5 529.8337,-75.5 529.8337,-56.5 446.8337,-56.5"/>
<text text-anchor="middle" x="488.3337" y="-63.5" font-family="Helvetica,sans-Serif" font-size="10.00" fill="#000000">osdk_typedef.h</text>
</a>
</g>
</g>
<!-- Node7&#45;&gt;Node10 -->
<g id="edge10" class="edge">
<title>Node7&#45;&gt;Node10</title>
<path fill="none" stroke="#191970" d="M332.652,-112.3733C364.1842,-102.9807 412.2957,-88.6496 446.6838,-78.4064"/>
<polygon fill="#191970" stroke="#191970" points="447.8524,-81.7103 456.4371,-75.5011 445.854,-75.0016 447.8524,-81.7103"/>
</g>
<!-- Node10&#45;&gt;Node3 -->
<g id="edge12" class="edge">
<title>Node10&#45;&gt;Node3</title>
<path fill="none" stroke="#191970" d="M446.6044,-56.6899C397.719,-45.7832 317.625,-27.9136 272.0072,-17.7359"/>
<polygon fill="#191970" stroke="#191970" points="272.5279,-14.2661 262.0057,-15.5045 271.0035,-21.0981 272.5279,-14.2661"/>
</g>
<!-- Node11 -->
<g id="node12" class="node">
<title>Node11</title>
<g id="a_node12"><a xlink:title=" ">
<polygon fill="#ffffff" stroke="#bfbfbf" points="462.3337,-.5 462.3337,-19.5 514.3337,-19.5 514.3337,-.5 462.3337,-.5"/>
<text text-anchor="middle" x="488.3337" y="-7.5" font-family="Helvetica,sans-Serif" font-size="10.00" fill="#000000">stddef.h</text>
</a>
</g>
</g>
<!-- Node10&#45;&gt;Node11 -->
<g id="edge11" class="edge">
<title>Node10&#45;&gt;Node11</title>
<path fill="none" stroke="#191970" d="M488.3337,-56.2455C488.3337,-48.9382 488.3337,-38.6944 488.3337,-29.7046"/>
<polygon fill="#191970" stroke="#191970" points="491.8338,-29.6426 488.3337,-19.6427 484.8338,-29.6427 491.8338,-29.6426"/>
</g>
<!-- Node12&#45;&gt;Node1 -->
<g id="edge16" class="edge">
<title>Node12&#45;&gt;Node1</title>
<path fill="none" stroke="#191970" d="M103.0504,-224.2455C90.5866,-215.7337 72.2886,-203.2375 57.8545,-193.3801"/>
<polygon fill="#191970" stroke="#191970" points="59.6852,-190.392 49.4533,-187.6427 55.7375,-196.1726 59.6852,-190.392"/>
</g>
<!-- Node13 -->
<g id="node14" class="node">
<title>Node13</title>
<g id="a_node14"><a xlink:title=" ">
<polygon fill="#ffffff" stroke="#bfbfbf" points="95.3337,-168.5 95.3337,-187.5 139.3337,-187.5 139.3337,-168.5 95.3337,-168.5"/>
<text text-anchor="middle" x="117.3337" y="-175.5" font-family="Helvetica,sans-Serif" font-size="10.00" fill="#000000">vector</text>
</a>
</g>
</g>
<!-- Node12&#45;&gt;Node13 -->
<g id="edge15" class="edge">
<title>Node12&#45;&gt;Node13</title>
<path fill="none" stroke="#191970" d="M117.3337,-224.2455C117.3337,-216.9382 117.3337,-206.6944 117.3337,-197.7046"/>
<polygon fill="#191970" stroke="#191970" points="120.8338,-197.6426 117.3337,-187.6427 113.8338,-197.6427 120.8338,-197.6426"/>
</g>
<!-- Node14&#45;&gt;Node6 -->
<g id="edge19" class="edge">
<title>Node14&#45;&gt;Node6</title>
<path fill="none" stroke="#191970" d="M301.979,-224.2455C298.6093,-216.6973 293.8407,-206.0158 289.7354,-196.8197"/>
<polygon fill="#191970" stroke="#191970" points="292.911,-195.3473 285.6385,-187.6427 286.519,-198.2009 292.911,-195.3473"/>
</g>
<!-- Node14&#45;&gt;Node8 -->
<g id="edge20" class="edge">
<title>Node14&#45;&gt;Node8</title>
<path fill="none" stroke="#191970" d="M314.2962,-224.4306C321.2442,-215.5542 331.0214,-201.6883 336.3337,-188 349.674,-153.6255 354.1165,-110.4459 355.5956,-85.7586"/>
<polygon fill="#191970" stroke="#191970" points="359.1032,-85.6893 356.099,-75.5293 352.1116,-85.3452 359.1032,-85.6893"/>
</g>
<!-- Node16 -->
<g id="node17" class="node">
<title>Node16</title>
<g id="a_node17"><a xlink:href="dji__singleton_8hpp.html" target="_top" xlink:title="Singleton Template Class implementation for use with the DJI OSDK.">
<polygon fill="#ffffff" stroke="#000000" points="391.8337,-112.5 391.8337,-131.5 480.8337,-131.5 480.8337,-112.5 391.8337,-112.5"/>
<text text-anchor="middle" x="436.3337" y="-119.5" font-family="Helvetica,sans-Serif" font-size="10.00" fill="#000000">dji_singleton.hpp</text>
</a>
</g>
</g>
<!-- Node15&#45;&gt;Node16 -->
<g id="edge23" class="edge">
<title>Node15&#45;&gt;Node16</title>
<path fill="none" stroke="#191970" d="M436.3337,-224.4509C436.3337,-206.184 436.3337,-165.9553 436.3337,-141.6976"/>
<polygon fill="#191970" stroke="#191970" points="439.8338,-141.5249 436.3337,-131.5249 432.8338,-141.5249 439.8338,-141.5249"/>
</g>
<!-- Node17 -->
<g id="node18" class="node">
<title>Node17</title>
<g id="a_node18"><a xlink:href="dji__platform_8hpp.html" target="_top" xlink:title="Vehicle API for DJI onboardSDK library.">
<polygon fill="#ffffff" stroke="#000000" points="479.3337,-168.5 479.3337,-187.5 565.3337,-187.5 565.3337,-168.5 479.3337,-168.5"/>
<text text-anchor="middle" x="522.3337" y="-175.5" font-family="Helvetica,sans-Serif" font-size="10.00" fill="#000000">dji_platform.hpp</text>
</a>
</g>
</g>
<!-- Node15&#45;&gt;Node17 -->
<g id="edge24" class="edge">
<title>Node15&#45;&gt;Node17</title>
<path fill="none" stroke="#191970" d="M451.3137,-224.2455C464.5088,-215.6534 483.9388,-203.0014 499.1416,-193.1018"/>
<polygon fill="#191970" stroke="#191970" points="501.0552,-196.0325 507.5253,-187.6427 497.2354,-190.1665 501.0552,-196.0325"/>
</g>
<!-- Node17&#45;&gt;Node16 -->
<g id="edge27" class="edge">
<title>Node17&#45;&gt;Node16</title>
<path fill="none" stroke="#191970" d="M507.3536,-168.2455C494.1586,-159.6534 474.7286,-147.0014 459.5257,-137.1018"/>
<polygon fill="#191970" stroke="#191970" points="461.4319,-134.1665 451.1421,-131.6427 457.6122,-140.0325 461.4319,-134.1665"/>
</g>
<!-- Node18 -->
<g id="node19" class="node">
<title>Node18</title>
<g id="a_node19"><a xlink:href="osdk__platform_8h.html" target="_top" xlink:title="This is the header file for define OSDK platform interfaces.">
<polygon fill="#ffffff" stroke="#000000" points="594.3337,-112.5 594.3337,-131.5 680.3337,-131.5 680.3337,-112.5 594.3337,-112.5"/>
<text text-anchor="middle" x="637.3337" y="-119.5" font-family="Helvetica,sans-Serif" font-size="10.00" fill="#000000">osdk_platform.h</text>
</a>
</g>
</g>
<!-- Node17&#45;&gt;Node18 -->
<g id="edge25" class="edge">
<title>Node17&#45;&gt;Node18</title>
<path fill="none" stroke="#191970" d="M542.1029,-168.3733C560.4806,-159.4241 588.0649,-145.9917 608.8229,-135.8835"/>
<polygon fill="#191970" stroke="#191970" points="610.3641,-139.026 617.8225,-131.5011 607.2994,-132.7325 610.3641,-139.026"/>
</g>
<!-- Node19 -->
<g id="node20" class="node">
<title>Node19</title>
<g id="a_node20"><a xlink:href="osdk__logger_8h.html" target="_top" xlink:title="This is the header file for &quot;osdk_logger.c&quot;, defining the structure and (exported) function prototype...">
<polygon fill="#ffffff" stroke="#000000" points="498.8337,-112.5 498.8337,-131.5 575.8337,-131.5 575.8337,-112.5 498.8337,-112.5"/>
<text text-anchor="middle" x="537.3337" y="-119.5" font-family="Helvetica,sans-Serif" font-size="10.00" fill="#000000">osdk_logger.h</text>
</a>
</g>
</g>
<!-- Node17&#45;&gt;Node19 -->
<g id="edge28" class="edge">
<title>Node17&#45;&gt;Node19</title>
<path fill="none" stroke="#191970" d="M524.9465,-168.2455C526.9253,-160.8579 529.7081,-150.4689 532.1349,-141.4087"/>
<polygon fill="#191970" stroke="#191970" points="535.5442,-142.2078 534.7508,-131.6427 528.7826,-140.3966 535.5442,-142.2078"/>
</g>
<!-- Node18&#45;&gt;Node10 -->
<g id="edge26" class="edge">
<title>Node18&#45;&gt;Node10</title>
<path fill="none" stroke="#191970" d="M611.7197,-112.3733C587.265,-103.1822 550.2283,-89.2624 523.1128,-79.0713"/>
<polygon fill="#191970" stroke="#191970" points="524.2055,-75.7431 513.6135,-75.5011 521.7428,-82.2956 524.2055,-75.7431"/>
</g>
<!-- Node19&#45;&gt;Node10 -->
<g id="edge29" class="edge">
<title>Node19&#45;&gt;Node10</title>
<path fill="none" stroke="#191970" d="M528.7985,-112.2455C521.8425,-104.2958 511.8454,-92.8706 503.5286,-83.3656"/>
<polygon fill="#191970" stroke="#191970" points="505.9901,-80.8637 496.771,-75.6427 500.7221,-85.4732 505.9901,-80.8637"/>
</g>
</g>
</svg>
        <g id="navigator" transform="translate(0 0)" fill="#404254">
                <rect fill="#f2f5e9" fill-opacity="0.5" stroke="#606060" stroke-width=".5" x="0" y="0" width="60" height="60"/>
                <use id="zoomplus" xlink:href="#zoomPlus" x="17" y="9" onmousedown="handleZoom(evt,'in')"/>
                <use id="zoomminus" xlink:href="#zoomMin" x="42" y="9" onmousedown="handleZoom(evt,'out')"/>
                <use id="reset" xlink:href="#resetDef" x="30" y="36" onmousedown="handleReset()"/>
                <g id="arrowUp" xlink:href="#dirArrow" transform="translate(30 24)" onmousedown="handlePan(0,-1)">
                  <use xlink:href="#rim" fill="#404040">
                        <set attributeName="fill" to="#808080" begin="arrowUp.mouseover" end="arrowUp.mouseout"/>
                  </use>
                  <path fill="none" stroke="white" stroke-width="1.5" d="M0,-3.0v7 M-2.5,-0.5L0,-3.0L2.5,-0.5"/>
                </g>
                <g id="arrowRight" xlink:href="#dirArrow" transform="rotate(90) translate(36 -43)" onmousedown="handlePan(1,0)">
                  <use xlink:href="#rim" fill="#404040">
                        <set attributeName="fill" to="#808080" begin="arrowRight.mouseover" end="arrowRight.mouseout"/>
                  </use>
                  <path fill="none" stroke="white" stroke-width="1.5" d="M0,-3.0v7 M-2.5,-0.5L0,-3.0L2.5,-0.5"/>
                </g>
                <g id="arrowDown" xlink:href="#dirArrow" transform="rotate(180) translate(-30 -48)" onmousedown="handlePan(0,1)">
                  <use xlink:href="#rim" fill="#404040">
                        <set attributeName="fill" to="#808080" begin="arrowDown.mouseover" end="arrowDown.mouseout"/>
                  </use>
                  <path fill="none" stroke="white" stroke-width="1.5" d="M0,-3.0v7 M-2.5,-0.5L0,-3.0L2.5,-0.5"/>
                </g>
                <g id="arrowLeft" xlink:href="#dirArrow" transform="rotate(270) translate(-36 17)" onmousedown="handlePan(-1,0)">
                  <use xlink:href="#rim" fill="#404040">
                        <set attributeName="fill" to="#808080" begin="arrowLeft.mouseover" end="arrowLeft.mouseout"/>
                  </use>
                  <path fill="none" stroke="white" stroke-width="1.5" d="M0,-3.0v7 M-2.5,-0.5L0,-3.0L2.5,-0.5"/>
                </g>
        </g>
        <svg viewBox="0 0 15 15" width="100%" height="30px" preserveAspectRatio="xMaxYMin meet">
         <g id="arrow_out" transform="scale(0.3 0.3)">
          <a xlink:href="dji__hardware__sync_8hpp__incl_org.svg" target="_base">
           <rect id="button" ry="5" rx="5" y="6" x="6" height="38" width="38"
                fill="#f2f5e9" fill-opacity="0.5" stroke="#606060" stroke-width="1.0"/>
           <path id="arrow"
             d="M 11.500037,31.436501 C 11.940474,20.09759 22.043105,11.32322 32.158766,21.979434 L 37.068811,17.246167 C 37.068811,17.246167 37.088388,32 37.088388,32 L 22.160133,31.978069 C 22.160133,31.978069 26.997745,27.140456 26.997745,27.140456 C 18.528582,18.264221 13.291696,25.230495 11.500037,31.436501 z"
             style="fill:#404040;"/>
          </a>
         </g>
        </svg>
</svg>
