<?xml version="1.0" encoding="UTF-8" standalone="no"?>
<!DOCTYPE svg PUBLIC "-//W3C//DTD SVG 1.1//EN"
 "http://www.w3.org/Graphics/SVG/1.1/DTD/svg11.dtd">
<!-- Generated by graphviz version 2.40.1 (20161225.0304)
 -->
<!-- Title: osdk&#45;lib/x86/osdk&#45;core/inc/dji_command.hpp Pages: 1 -->
<svg width="261pt" height="207pt"
 viewBox="0.00 0.00 260.50 207.00" xmlns="http://www.w3.org/2000/svg" xmlns:xlink="http://www.w3.org/1999/xlink">
<g id="graph0" class="graph" transform="scale(1 1) rotate(0) translate(4 203)">
<title>osdk&#45;lib/x86/osdk&#45;core/inc/dji_command.hpp</title>
<polygon fill="#ffffff" stroke="transparent" points="-4,4 -4,-203 256.5,-203 256.5,4 -4,4"/>
<!-- Node0 -->
<g id="node1" class="node">
<title>Node0</title>
<g id="a_node1"><a xlink:title="All DJI OSDK OpenProtocol Command IDs.">
<polygon fill="#bfbfbf" stroke="#000000" points="98.5,-168.5 98.5,-198.5 213.5,-198.5 213.5,-168.5 98.5,-168.5"/>
<text text-anchor="start" x="106.5" y="-186.5" font-family="Helvetica,sans-Serif" font-size="10.00" fill="#000000">osdk&#45;lib/x86/osdk&#45;core</text>
<text text-anchor="middle" x="156" y="-175.5" font-family="Helvetica,sans-Serif" font-size="10.00" fill="#000000">/inc/dji_command.hpp</text>
</a>
</g>
</g>
<!-- Node1 -->
<g id="node2" class="node">
<title>Node1</title>
<g id="a_node2"><a xlink:href="dji__error_8hpp.html" target="_top" xlink:title="All DJI OSDK OpenProtocol ACK Error Codes.">
<polygon fill="#ffffff" stroke="#000000" points="86,-112.5 86,-131.5 156,-131.5 156,-112.5 86,-112.5"/>
<text text-anchor="middle" x="121" y="-119.5" font-family="Helvetica,sans-Serif" font-size="10.00" fill="#000000">dji_error.hpp</text>
</a>
</g>
</g>
<!-- Node0&#45;&gt;Node1 -->
<g id="edge1" class="edge">
<title>Node0&#45;&gt;Node1</title>
<path fill="none" stroke="#191970" d="M147.3483,-168.2977C142.5912,-159.9388 136.6502,-149.4997 131.6143,-140.6509"/>
<polygon fill="#191970" stroke="#191970" points="134.5921,-138.8069 126.6039,-131.8469 128.5083,-142.2692 134.5921,-138.8069"/>
</g>
<!-- Node6 -->
<g id="node7" class="node">
<title>Node6</title>
<g id="a_node7"><a xlink:title=" ">
<polygon fill="#ffffff" stroke="#bfbfbf" points="203.5,-.5 203.5,-19.5 252.5,-19.5 252.5,-.5 203.5,-.5"/>
<text text-anchor="middle" x="228" y="-7.5" font-family="Helvetica,sans-Serif" font-size="10.00" fill="#000000">stdint.h</text>
</a>
</g>
</g>
<!-- Node0&#45;&gt;Node6 -->
<g id="edge7" class="edge">
<title>Node0&#45;&gt;Node6</title>
<path fill="none" stroke="#191970" d="M164.6138,-168.2238C175.9179,-147.7257 195.86,-109.9609 209,-76 214.9161,-60.7095 219.9583,-42.8043 223.3586,-29.5042"/>
<polygon fill="#191970" stroke="#191970" points="226.8113,-30.1213 225.8118,-19.5737 220.0156,-28.4424 226.8113,-30.1213"/>
</g>
<!-- Node2 -->
<g id="node3" class="node">
<title>Node2</title>
<g id="a_node3"><a xlink:title=" ">
<polygon fill="#ffffff" stroke="#bfbfbf" points="0,-56.5 0,-75.5 46,-75.5 46,-56.5 0,-56.5"/>
<text text-anchor="middle" x="23" y="-63.5" font-family="Helvetica,sans-Serif" font-size="10.00" fill="#000000">cstdint</text>
</a>
</g>
</g>
<!-- Node1&#45;&gt;Node2 -->
<g id="edge2" class="edge">
<title>Node1&#45;&gt;Node2</title>
<path fill="none" stroke="#191970" d="M103.9297,-112.2455C88.753,-103.5731 66.3379,-90.7645 48.9437,-80.825"/>
<polygon fill="#191970" stroke="#191970" points="50.2936,-77.5653 39.8747,-75.6427 46.8206,-83.643 50.2936,-77.5653"/>
</g>
<!-- Node3 -->
<g id="node4" class="node">
<title>Node3</title>
<g id="a_node4"><a xlink:title=" ">
<polygon fill="#ffffff" stroke="#bfbfbf" points="64.5,-56.5 64.5,-75.5 99.5,-75.5 99.5,-56.5 64.5,-56.5"/>
<text text-anchor="middle" x="82" y="-63.5" font-family="Helvetica,sans-Serif" font-size="10.00" fill="#000000">map</text>
</a>
</g>
</g>
<!-- Node1&#45;&gt;Node3 -->
<g id="edge3" class="edge">
<title>Node1&#45;&gt;Node3</title>
<path fill="none" stroke="#191970" d="M114.2067,-112.2455C108.7822,-104.4564 101.0339,-93.3308 94.4967,-83.9439"/>
<polygon fill="#191970" stroke="#191970" points="97.3025,-81.8485 88.7154,-75.6427 91.5583,-85.849 97.3025,-81.8485"/>
</g>
<!-- Node4 -->
<g id="node5" class="node">
<title>Node4</title>
<g id="a_node5"><a xlink:href="osdk__typedef_8h_source.html" target="_top" xlink:title=" ">
<polygon fill="#ffffff" stroke="#000000" points="117.5,-56.5 117.5,-75.5 200.5,-75.5 200.5,-56.5 117.5,-56.5"/>
<text text-anchor="middle" x="159" y="-63.5" font-family="Helvetica,sans-Serif" font-size="10.00" fill="#000000">osdk_typedef.h</text>
</a>
</g>
</g>
<!-- Node1&#45;&gt;Node4 -->
<g id="edge4" class="edge">
<title>Node1&#45;&gt;Node4</title>
<path fill="none" stroke="#191970" d="M127.6191,-112.2455C132.9046,-104.4564 140.4541,-93.3308 146.8238,-83.9439"/>
<polygon fill="#191970" stroke="#191970" points="149.7379,-85.8827 152.4568,-75.6427 143.9455,-81.9522 149.7379,-85.8827"/>
</g>
<!-- Node5 -->
<g id="node6" class="node">
<title>Node5</title>
<g id="a_node6"><a xlink:title=" ">
<polygon fill="#ffffff" stroke="#bfbfbf" points="133,-.5 133,-19.5 185,-19.5 185,-.5 133,-.5"/>
<text text-anchor="middle" x="159" y="-7.5" font-family="Helvetica,sans-Serif" font-size="10.00" fill="#000000">stddef.h</text>
</a>
</g>
</g>
<!-- Node4&#45;&gt;Node5 -->
<g id="edge5" class="edge">
<title>Node4&#45;&gt;Node5</title>
<path fill="none" stroke="#191970" d="M159,-56.2455C159,-48.9382 159,-38.6944 159,-29.7046"/>
<polygon fill="#191970" stroke="#191970" points="162.5001,-29.6426 159,-19.6427 155.5001,-29.6427 162.5001,-29.6426"/>
</g>
<!-- Node4&#45;&gt;Node6 -->
<g id="edge6" class="edge">
<title>Node4&#45;&gt;Node6</title>
<path fill="none" stroke="#191970" d="M171.0189,-56.2455C181.2098,-47.9746 196.0362,-35.9416 208.0107,-26.2232"/>
<polygon fill="#191970" stroke="#191970" points="210.5598,-28.662 216.1188,-19.6427 206.1486,-23.2268 210.5598,-28.662"/>
</g>
</g>
</svg>
