<?xml version="1.0" encoding="UTF-8" standalone="no"?>
<!DOCTYPE svg PUBLIC "-//W3C//DTD SVG 1.1//EN"
 "http://www.w3.org/Graphics/SVG/1.1/DTD/svg11.dtd">
<!-- Generated by graphviz version 2.38.0 (20140413.2041)
 -->
<!-- Title: osdk&#45;core/api/src/dji_hardware_sync.cpp Pages: 1 -->
<!--zoomable 431 -->
<svg id="main" version="1.1" xmlns="http://www.w3.org/2000/svg" xmlns:xlink="http://www.w3.org/1999/xlink" xml:space="preserve" onload="init(evt)">
<style type="text/css"><![CDATA[
.edge:hover path { stroke: red; }
.edge:hover polygon { stroke: red; fill: red; }
]]></style>
<script type="text/javascript"><![CDATA[
var edges = document.getElementsByTagName('g');
if (edges && edges.length) {
  for (var i=0;i<edges.length;i++) {
    if (edges[i].id.substr(0,4)=='edge') {
      edges[i].setAttribute('class','edge');
    }
  }
}
]]></script>
        <defs>
                <circle id="rim" cx="0" cy="0" r="7"/>
                <circle id="rim2" cx="0" cy="0" r="3.5"/>
                <g id="zoomPlus">
                        <use xlink:href="#rim" fill="#404040">
                                <set attributeName="fill" to="#808080" begin="zoomplus.mouseover" end="zoomplus.mouseout"/>
                        </use>
                        <path d="M-4,0h8M0,-4v8" fill="none" stroke="white" stroke-width="1.5" pointer-events="none"/>
                </g>
                <g id="zoomMin">
                        <use xlink:href="#rim" fill="#404040">
                                <set attributeName="fill" to="#808080" begin="zoomminus.mouseover" end="zoomminus.mouseout"/>
                        </use>
                        <path d="M-4,0h8" fill="none" stroke="white" stroke-width="1.5" pointer-events="none"/>
                </g>
                <g id="dirArrow">
                        <path fill="none" stroke="white" stroke-width="1.5" d="M0,-3.0v7 M-2.5,-0.5L0,-3.0L2.5,-0.5"/>
                </g>
               <g id="resetDef">
                       <use xlink:href="#rim2" fill="#404040">
                               <set attributeName="fill" to="#808080" begin="reset.mouseover" end="reset.mouseout"/>
                       </use>
               </g>
        </defs>

<script type="text/javascript">
var viewWidth = 1827;
var viewHeight = 431;
var sectionId = 'dynsection-0';
</script>
<script xlink:href="svgpan.js"/>
<svg id="graph" class="graph">
<g id="viewport">
<title>osdk&#45;core/api/src/dji_hardware_sync.cpp</title>
<polygon fill="white" stroke="none" points="-4,4 -4,-427 1823.03,-427 1823.03,4 -4,4"/>
<!-- Node1 -->
<g id="node1" class="node"><title>Node1</title>
<polygon fill="#bfbfbf" stroke="black" points="608.531,-392.5 608.531,-422.5 715.531,-422.5 715.531,-392.5 608.531,-392.5"/>
<text text-anchor="start" x="616.531" y="-410.5" font-family="Helvetica,sans-Serif" font-size="10.00">osdk&#45;core/api/src/dji</text>
<text text-anchor="middle" x="662.031" y="-399.5" font-family="Helvetica,sans-Serif" font-size="10.00">_hardware_sync.cpp</text>
</g>
<!-- Node2 -->
<g id="node2" class="node"><title>Node2</title>
<g id="a_node2"><a xlink:href="dji__hardware__sync_8hpp.html" target="_top" xlink:title="Hardware Sync API for DJI OSDK. ">
<polygon fill="white" stroke="black" points="42.031,-280.5 42.031,-299.5 158.031,-299.5 158.031,-280.5 42.031,-280.5"/>
<text text-anchor="middle" x="100.031" y="-287.5" font-family="Helvetica,sans-Serif" font-size="10.00">dji_hardware_sync.hpp</text>
</a>
</g>
</g>
<!-- Node1&#45;&gt;Node2 -->
<g id="edge1" class="edge"><title>Node1&#45;&gt;Node2</title>
<path fill="none" stroke="midnightblue" d="M608.399,-395.478C500.355,-373.273 257.777,-323.419 151.531,-301.584"/>
<polygon fill="midnightblue" stroke="midnightblue" points="152.183,-298.145 141.683,-299.56 150.774,-305.002 152.183,-298.145"/>
</g>
<!-- Node10 -->
<g id="node10" class="node"><title>Node10</title>
<g id="a_node10"><a xlink:href="dji__vehicle_8hpp.html" target="_top" xlink:title="Vehicle API for DJI onboardSDK library. ">
<polygon fill="white" stroke="black" points="832.531,-336.5 832.531,-355.5 913.531,-355.5 913.531,-336.5 832.531,-336.5"/>
<text text-anchor="middle" x="873.031" y="-343.5" font-family="Helvetica,sans-Serif" font-size="10.00">dji_vehicle.hpp</text>
</a>
</g>
</g>
<!-- Node1&#45;&gt;Node10 -->
<g id="edge9" class="edge"><title>Node1&#45;&gt;Node10</title>
<path fill="none" stroke="midnightblue" d="M711.768,-392.475C748.805,-382.03 798.711,-367.958 833.147,-358.247"/>
<polygon fill="midnightblue" stroke="midnightblue" points="834.191,-361.589 842.866,-355.506 832.291,-354.852 834.191,-361.589"/>
</g>
<!-- Node3 -->
<g id="node3" class="node"><title>Node3</title>
<g id="a_node3"><a xlink:href="dji__type_8hpp.html" target="_top" xlink:title="Data type and Data Structure definitions for use throughout DJI OSDK. ">
<polygon fill="white" stroke="black" points="1244.53,-112.5 1244.53,-131.5 1313.53,-131.5 1313.53,-112.5 1244.53,-112.5"/>
<text text-anchor="middle" x="1279.03" y="-119.5" font-family="Helvetica,sans-Serif" font-size="10.00">dji_type.hpp</text>
</a>
</g>
</g>
<!-- Node2&#45;&gt;Node3 -->
<g id="edge2" class="edge"><title>Node2&#45;&gt;Node3</title>
<path fill="none" stroke="midnightblue" d="M119.343,-280.4C152.23,-266.155 221.526,-237.861 283.031,-224 643.629,-142.736 1092.5,-126.787 1234.09,-123.717"/>
<polygon fill="midnightblue" stroke="midnightblue" points="1234.22,-127.215 1244.14,-123.509 1234.07,-120.216 1234.22,-127.215"/>
</g>
<!-- Node6 -->
<g id="node6" class="node"><title>Node6</title>
<g id="a_node6"><a xlink:href="dji__vehicle__callback_8hpp.html" target="_top" xlink:title="Type definition for new Vehicle&#45;style callbacks. ">
<polygon fill="white" stroke="black" points="291.031,-112.5 291.031,-131.5 413.031,-131.5 413.031,-112.5 291.031,-112.5"/>
<text text-anchor="middle" x="352.031" y="-119.5" font-family="Helvetica,sans-Serif" font-size="10.00">dji_vehicle_callback.hpp</text>
</a>
</g>
</g>
<!-- Node2&#45;&gt;Node6 -->
<g id="edge5" class="edge"><title>Node2&#45;&gt;Node6</title>
<path fill="none" stroke="midnightblue" d="M62.3948,-280.457C29.4616,-270.903 -11.0856,-252.863 3.03097,-224 20.8421,-187.583 37.8682,-184.198 75.031,-168 141.074,-139.213 223.242,-128.668 280.871,-124.896"/>
<polygon fill="midnightblue" stroke="midnightblue" points="281.206,-128.382 290.977,-124.287 280.785,-121.395 281.206,-128.382"/>
</g>
<!-- Node8 -->
<g id="node8" class="node"><title>Node8</title>
<polygon fill="white" stroke="#bfbfbf" points="12.031,-224.5 12.031,-243.5 58.031,-243.5 58.031,-224.5 12.031,-224.5"/>
<text text-anchor="middle" x="35.031" y="-231.5" font-family="Helvetica,sans-Serif" font-size="10.00">chrono</text>
</g>
<!-- Node2&#45;&gt;Node8 -->
<g id="edge7" class="edge"><title>Node2&#45;&gt;Node8</title>
<path fill="none" stroke="midnightblue" d="M89.5876,-280.324C79.8847,-272.263 65.2157,-260.077 53.5312,-250.369"/>
<polygon fill="midnightblue" stroke="midnightblue" points="55.5929,-247.532 45.6644,-243.834 51.1197,-252.916 55.5929,-247.532"/>
</g>
<!-- Node9 -->
<g id="node9" class="node"><title>Node9</title>
<polygon fill="white" stroke="#bfbfbf" points="76.031,-224.5 76.031,-243.5 122.031,-243.5 122.031,-224.5 76.031,-224.5"/>
<text text-anchor="middle" x="99.031" y="-231.5" font-family="Helvetica,sans-Serif" font-size="10.00">atomic</text>
</g>
<!-- Node2&#45;&gt;Node9 -->
<g id="edge8" class="edge"><title>Node2&#45;&gt;Node9</title>
<path fill="none" stroke="midnightblue" d="M99.8658,-280.083C99.7348,-273.006 99.5469,-262.861 99.3826,-253.986"/>
<polygon fill="midnightblue" stroke="midnightblue" points="102.878,-253.685 99.193,-243.751 95.8789,-253.814 102.878,-253.685"/>
</g>
<!-- Node4 -->
<g id="node4" class="node"><title>Node4</title>
<polygon fill="white" stroke="#bfbfbf" points="1257.53,-56.5 1257.53,-75.5 1300.53,-75.5 1300.53,-56.5 1257.53,-56.5"/>
<text text-anchor="middle" x="1279.03" y="-63.5" font-family="Helvetica,sans-Serif" font-size="10.00">cstdio</text>
</g>
<!-- Node3&#45;&gt;Node4 -->
<g id="edge3" class="edge"><title>Node3&#45;&gt;Node4</title>
<path fill="none" stroke="midnightblue" d="M1279.03,-112.083C1279.03,-105.006 1279.03,-94.8611 1279.03,-85.9865"/>
<polygon fill="midnightblue" stroke="midnightblue" points="1282.53,-85.751 1279.03,-75.7511 1275.53,-85.7511 1282.53,-85.751"/>
</g>
<!-- Node5 -->
<g id="node5" class="node"><title>Node5</title>
<polygon fill="white" stroke="#bfbfbf" points="1516.53,-0.5 1516.53,-19.5 1565.53,-19.5 1565.53,-0.5 1516.53,-0.5"/>
<text text-anchor="middle" x="1541.03" y="-7.5" font-family="Helvetica,sans-Serif" font-size="10.00">stdint.h</text>
</g>
<!-- Node3&#45;&gt;Node5 -->
<g id="edge4" class="edge"><title>Node3&#45;&gt;Node5</title>
<path fill="none" stroke="midnightblue" d="M1299.59,-112.368C1345.7,-93.0105 1457.51,-46.0645 1511.24,-23.5074"/>
<polygon fill="midnightblue" stroke="midnightblue" points="1512.7,-26.6897 1520.57,-19.5914 1509.99,-20.2355 1512.7,-26.6897"/>
</g>
<!-- Node7 -->
<g id="node7" class="node"><title>Node7</title>
<polygon fill="white" stroke="#bfbfbf" points="490.531,-56.5 490.531,-75.5 601.531,-75.5 601.531,-56.5 490.531,-56.5"/>
<text text-anchor="middle" x="546.031" y="-63.5" font-family="Helvetica,sans-Serif" font-size="10.00">dji_open_protocol.hpp</text>
</g>
<!-- Node6&#45;&gt;Node7 -->
<g id="edge6" class="edge"><title>Node6&#45;&gt;Node7</title>
<path fill="none" stroke="midnightblue" d="M382.771,-112.444C415.975,-103.201 469.022,-88.4356 505.588,-78.2572"/>
<polygon fill="midnightblue" stroke="midnightblue" points="506.74,-81.5699 515.435,-75.5164 504.863,-74.8262 506.74,-81.5699"/>
</g>
<!-- Node10&#45;&gt;Node2 -->
<g id="edge40" class="edge"><title>Node10&#45;&gt;Node2</title>
<path fill="none" stroke="midnightblue" d="M832.33,-343.217C724.593,-338.317 423.104,-323.433 173.031,-300 171.521,-299.859 169.994,-299.711 168.455,-299.558"/>
<polygon fill="midnightblue" stroke="midnightblue" points="168.483,-296.042 158.173,-298.479 167.753,-303.003 168.483,-296.042"/>
</g>
<!-- Node10&#45;&gt;Node3 -->
<g id="edge66" class="edge"><title>Node10&#45;&gt;Node3</title>
<path fill="none" stroke="midnightblue" d="M913.782,-345.41C1052.34,-346.385 1499.1,-345.916 1542.03,-300 1580.79,-258.544 1386.4,-169.005 1309.37,-135.763"/>
<polygon fill="midnightblue" stroke="midnightblue" points="1310.31,-132.357 1299.74,-131.636 1307.55,-138.791 1310.31,-132.357"/>
</g>
<!-- Node10&#45;&gt;Node6 -->
<g id="edge67" class="edge"><title>Node10&#45;&gt;Node6</title>
<path fill="none" stroke="midnightblue" d="M832.42,-345.222C699.564,-345.53 284.082,-343.019 244.031,-300 219.278,-273.412 166.524,-305.436 271.031,-168 282.159,-153.366 299.493,-142.83 315.276,-135.649"/>
<polygon fill="midnightblue" stroke="midnightblue" points="316.987,-138.726 324.832,-131.605 314.259,-132.279 316.987,-138.726"/>
</g>
<!-- Node10&#45;&gt;Node7 -->
<g id="edge58" class="edge"><title>Node10&#45;&gt;Node7</title>
<path fill="none" stroke="midnightblue" d="M832.344,-342.731C755.332,-337.91 591.455,-324.986 541.031,-300 503.436,-281.371 477.301,-265.239 485.031,-224 494.963,-171.012 522.226,-112.92 536.707,-84.5553"/>
<polygon fill="midnightblue" stroke="midnightblue" points="539.899,-86.0017 541.408,-75.5148 533.689,-82.7723 539.899,-86.0017"/>
</g>
<!-- Node11 -->
<g id="node11" class="node"><title>Node11</title>
<polygon fill="white" stroke="#bfbfbf" points="1773.03,-112.5 1773.03,-131.5 1819.03,-131.5 1819.03,-112.5 1773.03,-112.5"/>
<text text-anchor="middle" x="1796.03" y="-119.5" font-family="Helvetica,sans-Serif" font-size="10.00">cstdint</text>
</g>
<!-- Node10&#45;&gt;Node11 -->
<g id="edge10" class="edge"><title>Node10&#45;&gt;Node11</title>
<path fill="none" stroke="midnightblue" d="M913.652,-344.877C1057.09,-344.112 1539.22,-338.658 1688.03,-300 1743.05,-285.706 1768.75,-289.354 1803.03,-244 1823.57,-216.82 1819.15,-201.515 1813.03,-168 1811.34,-158.757 1807.86,-148.948 1804.48,-140.855"/>
<polygon fill="midnightblue" stroke="midnightblue" points="1807.66,-139.405 1800.4,-131.693 1801.27,-142.252 1807.66,-139.405"/>
</g>
<!-- Node12 -->
<g id="node12" class="node"><title>Node12</title>
<g id="a_node12"><a xlink:href="dji__broadcast_8hpp.html" target="_top" xlink:title="Broadcast Telemetry API for DJI onboardSDK library. ">
<polygon fill="white" stroke="black" points="615.531,-224.5 615.531,-243.5 708.531,-243.5 708.531,-224.5 615.531,-224.5"/>
<text text-anchor="middle" x="662.031" y="-231.5" font-family="Helvetica,sans-Serif" font-size="10.00">dji_broadcast.hpp</text>
</a>
</g>
</g>
<!-- Node10&#45;&gt;Node12 -->
<g id="edge11" class="edge"><title>Node10&#45;&gt;Node12</title>
<path fill="none" stroke="midnightblue" d="M832.318,-345.354C756.503,-345.052 598.254,-339.568 564.031,-300 543.522,-276.288 582.88,-257.634 617.663,-246.503"/>
<polygon fill="midnightblue" stroke="midnightblue" points="618.754,-249.83 627.298,-243.565 616.712,-243.134 618.754,-249.83"/>
</g>
<!-- Node14 -->
<g id="node14" class="node"><title>Node14</title>
<g id="a_node14"><a xlink:href="dji__camera_8hpp.html" target="_top" xlink:title="Camera/Gimbal API for DJI onboardSDK library. ">
<polygon fill="white" stroke="black" points="1562.53,-168.5 1562.53,-187.5 1645.53,-187.5 1645.53,-168.5 1562.53,-168.5"/>
<text text-anchor="middle" x="1604.03" y="-175.5" font-family="Helvetica,sans-Serif" font-size="10.00">dji_camera.hpp</text>
</a>
</g>
</g>
<!-- Node10&#45;&gt;Node14 -->
<g id="edge15" class="edge"><title>Node10&#45;&gt;Node14</title>
<path fill="none" stroke="midnightblue" d="M913.743,-345.492C1058.94,-346.84 1545.33,-347.734 1594.03,-300 1621.17,-273.406 1615.05,-224.275 1609.05,-197.528"/>
<polygon fill="midnightblue" stroke="midnightblue" points="1612.38,-196.432 1606.58,-187.566 1605.59,-198.114 1612.38,-196.432"/>
</g>
<!-- Node15 -->
<g id="node15" class="node"><title>Node15</title>
<g id="a_node15"><a xlink:href="dji__command_8hpp.html" target="_top" xlink:title="All DJI OSDK OpenProtocol Command IDs. ">
<polygon fill="white" stroke="black" points="1557.53,-112.5 1557.53,-131.5 1650.53,-131.5 1650.53,-112.5 1557.53,-112.5"/>
<text text-anchor="middle" x="1604.03" y="-119.5" font-family="Helvetica,sans-Serif" font-size="10.00">dji_command.hpp</text>
</a>
</g>
</g>
<!-- Node10&#45;&gt;Node15 -->
<g id="edge22" class="edge"><title>Node10&#45;&gt;Node15</title>
<path fill="none" stroke="midnightblue" d="M913.755,-344.021C1063.32,-340.235 1577.21,-325.483 1646.03,-300 1728.38,-269.511 1847.46,-236.906 1793.03,-168 1776.75,-147.385 1710.31,-135.196 1660.77,-128.812"/>
<polygon fill="midnightblue" stroke="midnightblue" points="1661.15,-125.333 1650.8,-127.575 1660.29,-132.28 1661.15,-125.333"/>
</g>
<!-- Node17 -->
<g id="node17" class="node"><title>Node17</title>
<polygon fill="white" stroke="#bfbfbf" points="817.031,-280.5 817.031,-299.5 929.031,-299.5 929.031,-280.5 817.031,-280.5"/>
<text text-anchor="middle" x="873.031" y="-287.5" font-family="Helvetica,sans-Serif" font-size="10.00">dji_circular_buffer.hpp</text>
</g>
<!-- Node10&#45;&gt;Node17 -->
<g id="edge21" class="edge"><title>Node10&#45;&gt;Node17</title>
<path fill="none" stroke="midnightblue" d="M873.031,-336.083C873.031,-329.006 873.031,-318.861 873.031,-309.986"/>
<polygon fill="midnightblue" stroke="midnightblue" points="876.531,-309.751 873.031,-299.751 869.531,-309.751 876.531,-309.751"/>
</g>
<!-- Node18 -->
<g id="node18" class="node"><title>Node18</title>
<g id="a_node18"><a xlink:href="dji__control_8hpp.html" target="_top" xlink:title="Control API for DJI OSDK library. ">
<polygon fill="white" stroke="black" points="573.031,-280.5 573.031,-299.5 653.031,-299.5 653.031,-280.5 573.031,-280.5"/>
<text text-anchor="middle" x="613.031" y="-287.5" font-family="Helvetica,sans-Serif" font-size="10.00">dji_control.hpp</text>
</a>
</g>
</g>
<!-- Node10&#45;&gt;Node18 -->
<g id="edge23" class="edge"><title>Node10&#45;&gt;Node18</title>
<path fill="none" stroke="midnightblue" d="M832.406,-336.562C786.709,-327.072 712.455,-311.65 663.181,-301.416"/>
<polygon fill="midnightblue" stroke="midnightblue" points="663.874,-297.985 653.371,-299.378 662.45,-304.839 663.874,-297.985"/>
</g>
<!-- Node21 -->
<g id="node21" class="node"><title>Node21</title>
<g id="a_node21"><a xlink:href="dji__version_8hpp.html" target="_top" xlink:title="Drone/SDK Version definition for DJI onboardSDK library. ">
<polygon fill="white" stroke="black" points="1702.03,-168.5 1702.03,-187.5 1784.03,-187.5 1784.03,-168.5 1702.03,-168.5"/>
<text text-anchor="middle" x="1743.03" y="-175.5" font-family="Helvetica,sans-Serif" font-size="10.00">dji_version.hpp</text>
</a>
</g>
</g>
<!-- Node10&#45;&gt;Node21 -->
<g id="edge68" class="edge"><title>Node10&#45;&gt;Node21</title>
<path fill="none" stroke="midnightblue" d="M913.709,-344.152C1059.5,-340.89 1550.61,-327.919 1615.03,-300 1667.21,-277.386 1711.13,-223.77 1731.25,-196.131"/>
<polygon fill="midnightblue" stroke="midnightblue" points="1734.21,-198.016 1737.14,-187.836 1728.5,-193.963 1734.21,-198.016"/>
</g>
<!-- Node23 -->
<g id="node23" class="node"><title>Node23</title>
<g id="a_node23"><a xlink:href="dji__gimbal_8hpp.html" target="_top" xlink:title="Gimbal API for OSDK library. ">
<polygon fill="white" stroke="black" points="1465.53,-168.5 1465.53,-187.5 1544.53,-187.5 1544.53,-168.5 1465.53,-168.5"/>
<text text-anchor="middle" x="1505.03" y="-175.5" font-family="Helvetica,sans-Serif" font-size="10.00">dji_gimbal.hpp</text>
</a>
</g>
</g>
<!-- Node10&#45;&gt;Node23 -->
<g id="edge36" class="edge"><title>Node10&#45;&gt;Node23</title>
<path fill="none" stroke="midnightblue" d="M913.588,-343.917C1059.78,-339.82 1552.28,-324.259 1575.03,-300 1605.84,-267.155 1555.21,-218.354 1525.01,-193.983"/>
<polygon fill="midnightblue" stroke="midnightblue" points="1527.15,-191.211 1517.12,-187.791 1522.83,-196.718 1527.15,-191.211"/>
</g>
<!-- Node24 -->
<g id="node24" class="node"><title>Node24</title>
<polygon fill="white" stroke="#bfbfbf" points="947.031,-280.5 947.031,-299.5 1045.03,-299.5 1045.03,-280.5 947.031,-280.5"/>
<text text-anchor="middle" x="996.031" y="-287.5" font-family="Helvetica,sans-Serif" font-size="10.00">dji_hard_driver.hpp</text>
</g>
<!-- Node10&#45;&gt;Node24 -->
<g id="edge39" class="edge"><title>Node10&#45;&gt;Node24</title>
<path fill="none" stroke="midnightblue" d="M892.521,-336.444C912.673,-327.596 944.354,-313.687 967.362,-303.586"/>
<polygon fill="midnightblue" stroke="midnightblue" points="968.883,-306.741 976.632,-299.516 966.069,-300.332 968.883,-306.741"/>
</g>
<!-- Node25 -->
<g id="node25" class="node"><title>Node25</title>
<g id="a_node25"><a xlink:href="dji__mfio_8hpp.html" target="_top" xlink:title="MFIO API for DJI OSDK library. ">
<polygon fill="white" stroke="black" points="292.531,-168.5 292.531,-187.5 361.531,-187.5 361.531,-168.5 292.531,-168.5"/>
<text text-anchor="middle" x="327.031" y="-175.5" font-family="Helvetica,sans-Serif" font-size="10.00">dji_mfio.hpp</text>
</a>
</g>
</g>
<!-- Node10&#45;&gt;Node25 -->
<g id="edge41" class="edge"><title>Node10&#45;&gt;Node25</title>
<path fill="none" stroke="midnightblue" d="M832.526,-344.201C740.912,-341.828 520.651,-332.783 455.031,-300 413.68,-279.341 418.046,-255.3 384.031,-224 372.464,-213.357 358.645,-202.407 347.51,-193.974"/>
<polygon fill="midnightblue" stroke="midnightblue" points="349.357,-190.985 339.25,-187.805 345.167,-196.593 349.357,-190.985"/>
</g>
<!-- Node26 -->
<g id="node26" class="node"><title>Node26</title>
<g id="a_node26"><a xlink:href="dji__mission__manager_8hpp.html" target="_top" xlink:title="Mission&#45;Manager API for DJI OSDK library. ">
<polygon fill="white" stroke="black" points="671.531,-280.5 671.531,-299.5 798.531,-299.5 798.531,-280.5 671.531,-280.5"/>
<text text-anchor="middle" x="735.031" y="-287.5" font-family="Helvetica,sans-Serif" font-size="10.00">dji_mission_manager.hpp</text>
</a>
</g>
</g>
<!-- Node10&#45;&gt;Node26 -->
<g id="edge43" class="edge"><title>Node10&#45;&gt;Node26</title>
<path fill="none" stroke="midnightblue" d="M851.164,-336.444C828.251,-327.478 792.056,-313.314 766.165,-303.183"/>
<polygon fill="midnightblue" stroke="midnightblue" points="767.383,-299.901 756.795,-299.516 764.832,-306.42 767.383,-299.901"/>
</g>
<!-- Node31 -->
<g id="node31" class="node"><title>Node31</title>
<g id="a_node31"><a xlink:href="dji__mobile__communication_8hpp.html" target="_top" xlink:title="Implementation of DJI Mobile&#45;Onboard SDK Communication (MOC) ">
<polygon fill="white" stroke="black" points="253.031,-280.5 253.031,-299.5 403.031,-299.5 403.031,-280.5 253.031,-280.5"/>
<text text-anchor="middle" x="328.031" y="-287.5" font-family="Helvetica,sans-Serif" font-size="10.00">dji_mobile_communication.hpp</text>
</a>
</g>
</g>
<!-- Node10&#45;&gt;Node31 -->
<g id="edge53" class="edge"><title>Node10&#45;&gt;Node31</title>
<path fill="none" stroke="midnightblue" d="M832.461,-341.03C752.815,-333.228 570.398,-315.322 417.031,-300 415.911,-299.888 414.782,-299.775 413.647,-299.662"/>
<polygon fill="midnightblue" stroke="midnightblue" points="413.592,-296.139 403.293,-298.624 412.893,-303.104 413.592,-296.139"/>
</g>
<!-- Node33 -->
<g id="node33" class="node"><title>Node33</title>
<g id="a_node33"><a xlink:href="dji__mobile__device_8hpp.html" target="_top" xlink:title="Implementation of DJI Mobile Device Abstraction. ">
<polygon fill="white" stroke="black" points="84.531,-168.5 84.531,-187.5 197.531,-187.5 197.531,-168.5 84.531,-168.5"/>
<text text-anchor="middle" x="141.031" y="-175.5" font-family="Helvetica,sans-Serif" font-size="10.00">dji_mobile_device.hpp</text>
</a>
</g>
</g>
<!-- Node10&#45;&gt;Node33 -->
<g id="edge56" class="edge"><title>Node10&#45;&gt;Node33</title>
<path fill="none" stroke="midnightblue" d="M832.523,-344.441C696.806,-342.27 263.708,-332.814 211.031,-300 173.554,-276.655 153.991,-225.379 145.808,-197.662"/>
<polygon fill="midnightblue" stroke="midnightblue" points="149.088,-196.393 143.056,-187.683 142.34,-198.253 149.088,-196.393"/>
</g>
<!-- Node34 -->
<g id="node34" class="node"><title>Node34</title>
<polygon fill="white" stroke="#bfbfbf" points="1063.03,-280.5 1063.03,-299.5 1191.03,-299.5 1191.03,-280.5 1063.03,-280.5"/>
<text text-anchor="middle" x="1127.03" y="-287.5" font-family="Helvetica,sans-Serif" font-size="10.00">dji_platform_manager.hpp</text>
</g>
<!-- Node10&#45;&gt;Node34 -->
<g id="edge59" class="edge"><title>Node10&#45;&gt;Node34</title>
<path fill="none" stroke="midnightblue" d="M913.278,-336.444C957.681,-327.004 1029.18,-311.802 1077.12,-301.611"/>
<polygon fill="midnightblue" stroke="midnightblue" points="1077.92,-305.02 1086.97,-299.516 1076.46,-298.173 1077.92,-305.02"/>
</g>
<!-- Node35 -->
<g id="node35" class="node"><title>Node35</title>
<g id="a_node35"><a xlink:href="dji__status_8hpp.html" target="_top" xlink:title="Status information for DJI Vehicle. ">
<polygon fill="white" stroke="black" points="1209.53,-280.5 1209.53,-299.5 1286.53,-299.5 1286.53,-280.5 1209.53,-280.5"/>
<text text-anchor="middle" x="1248.03" y="-287.5" font-family="Helvetica,sans-Serif" font-size="10.00">dji_status.hpp</text>
</a>
</g>
</g>
<!-- Node10&#45;&gt;Node35 -->
<g id="edge60" class="edge"><title>Node10&#45;&gt;Node35</title>
<path fill="none" stroke="midnightblue" d="M913.654,-340.054C973.759,-332.595 1090.15,-317.613 1199.41,-300.031"/>
<polygon fill="midnightblue" stroke="midnightblue" points="1199.97,-303.486 1209.29,-298.432 1198.86,-296.576 1199.97,-303.486"/>
</g>
<!-- Node36 -->
<g id="node36" class="node"><title>Node36</title>
<g id="a_node36"><a xlink:href="dji__subscription_8hpp.html" target="_top" xlink:title="Telemetry Subscription API for DJI OSDK library. ">
<polygon fill="white" stroke="black" points="494.531,-224.5 494.531,-243.5 597.531,-243.5 597.531,-224.5 494.531,-224.5"/>
<text text-anchor="middle" x="546.031" y="-231.5" font-family="Helvetica,sans-Serif" font-size="10.00">dji_subscription.hpp</text>
</a>
</g>
</g>
<!-- Node10&#45;&gt;Node36 -->
<g id="edge61" class="edge"><title>Node10&#45;&gt;Node36</title>
<path fill="none" stroke="midnightblue" d="M832.234,-345.094C755.31,-344.363 593.12,-338.203 555.031,-300 543.109,-288.042 541.975,-268.142 543.134,-253.505"/>
<polygon fill="midnightblue" stroke="midnightblue" points="546.611,-253.902 544.326,-243.556 539.661,-253.069 546.611,-253.902"/>
</g>
<!-- Node37 -->
<g id="node37" class="node"><title>Node37</title>
<polygon fill="white" stroke="#bfbfbf" points="1305.03,-280.5 1305.03,-299.5 1425.03,-299.5 1425.03,-280.5 1305.03,-280.5"/>
<text text-anchor="middle" x="1365.03" y="-287.5" font-family="Helvetica,sans-Serif" font-size="10.00">dji_thread_manager.hpp</text>
</g>
<!-- Node10&#45;&gt;Node37 -->
<g id="edge65" class="edge"><title>Node10&#45;&gt;Node37</title>
<path fill="none" stroke="midnightblue" d="M913.801,-340.949C987.456,-333.565 1147.85,-317.192 1294.62,-300.024"/>
<polygon fill="midnightblue" stroke="midnightblue" points="1295.19,-303.481 1304.71,-298.839 1294.37,-296.529 1295.19,-303.481"/>
</g>
<!-- Node38 -->
<g id="node38" class="node"><title>Node38</title>
<g id="a_node38"><a xlink:href="dji__virtual__rc_8hpp.html" target="_top" xlink:title="Virtual Radio Control API for DJI onboardSDK library. ">
<polygon fill="white" stroke="black" points="1443.03,-280.5 1443.03,-299.5 1533.03,-299.5 1533.03,-280.5 1443.03,-280.5"/>
<text text-anchor="middle" x="1488.03" y="-287.5" font-family="Helvetica,sans-Serif" font-size="10.00">dji_virtual_rc.hpp</text>
</a>
</g>
</g>
<!-- Node10&#45;&gt;Node38 -->
<g id="edge69" class="edge"><title>Node10&#45;&gt;Node38</title>
<path fill="none" stroke="midnightblue" d="M913.631,-342.931C1004.65,-338.039 1232.12,-324.391 1432.85,-300.043"/>
<polygon fill="midnightblue" stroke="midnightblue" points="1433.49,-303.491 1442.99,-298.801 1432.64,-296.543 1433.49,-303.491"/>
</g>
<!-- Node12&#45;&gt;Node6 -->
<g id="edge14" class="edge"><title>Node12&#45;&gt;Node6</title>
<path fill="none" stroke="midnightblue" d="M637.964,-224.46C583.14,-205.006 448.85,-157.355 385.784,-134.977"/>
<polygon fill="midnightblue" stroke="midnightblue" points="386.891,-131.656 376.297,-131.61 384.55,-138.253 386.891,-131.656"/>
</g>
<!-- Node13 -->
<g id="node13" class="node"><title>Node13</title>
<g id="a_node13"><a xlink:href="dji__telemetry_8hpp.html" target="_top" xlink:title="Enumeration of all telemetry data types, structures and maps. ">
<polygon fill="white" stroke="black" points="867.531,-168.5 867.531,-187.5 958.531,-187.5 958.531,-168.5 867.531,-168.5"/>
<text text-anchor="middle" x="913.031" y="-175.5" font-family="Helvetica,sans-Serif" font-size="10.00">dji_telemetry.hpp</text>
</a>
</g>
</g>
<!-- Node12&#45;&gt;Node13 -->
<g id="edge12" class="edge"><title>Node12&#45;&gt;Node13</title>
<path fill="none" stroke="midnightblue" d="M701.803,-224.444C745.589,-215.023 816.044,-199.866 863.411,-189.675"/>
<polygon fill="midnightblue" stroke="midnightblue" points="864.405,-193.041 873.445,-187.516 862.933,-186.198 864.405,-193.041"/>
</g>
<!-- Node13&#45;&gt;Node3 -->
<g id="edge13" class="edge"><title>Node13&#45;&gt;Node3</title>
<path fill="none" stroke="midnightblue" d="M958.645,-170.27C1029.18,-159.863 1163.9,-139.987 1234.05,-129.636"/>
<polygon fill="midnightblue" stroke="midnightblue" points="1234.94,-133.043 1244.33,-128.12 1233.92,-126.117 1234.94,-133.043"/>
</g>
<!-- Node14&#45;&gt;Node3 -->
<g id="edge20" class="edge"><title>Node14&#45;&gt;Node3</title>
<path fill="none" stroke="midnightblue" d="M1562.29,-169.592C1559.16,-169.049 1556.04,-168.513 1553.03,-168 1472.22,-154.235 1377.88,-138.902 1323.63,-130.158"/>
<polygon fill="midnightblue" stroke="midnightblue" points="1324.09,-126.686 1313.66,-128.551 1322.97,-133.597 1324.09,-126.686"/>
</g>
<!-- Node14&#45;&gt;Node15 -->
<g id="edge16" class="edge"><title>Node14&#45;&gt;Node15</title>
<path fill="none" stroke="midnightblue" d="M1604.03,-168.083C1604.03,-161.006 1604.03,-150.861 1604.03,-141.986"/>
<polygon fill="midnightblue" stroke="midnightblue" points="1607.53,-141.751 1604.03,-131.751 1600.53,-141.751 1607.53,-141.751"/>
</g>
<!-- Node15&#45;&gt;Node5 -->
<g id="edge19" class="edge"><title>Node15&#45;&gt;Node5</title>
<path fill="none" stroke="midnightblue" d="M1592.69,-112.179C1582.72,-103.859 1568.53,-90.5244 1560.03,-76 1551.59,-61.5704 1546.66,-43.1178 1543.95,-29.5626"/>
<polygon fill="midnightblue" stroke="midnightblue" points="1547.36,-28.7564 1542.17,-19.5238 1540.47,-29.9822 1547.36,-28.7564"/>
</g>
<!-- Node16 -->
<g id="node16" class="node"><title>Node16</title>
<g id="a_node16"><a xlink:href="dji__error_8hpp.html" target="_top" xlink:title="All DJI OSDK OpenProtocol ACK Error Codes. ">
<polygon fill="white" stroke="black" points="1569.03,-56.5 1569.03,-75.5 1639.03,-75.5 1639.03,-56.5 1569.03,-56.5"/>
<text text-anchor="middle" x="1604.03" y="-63.5" font-family="Helvetica,sans-Serif" font-size="10.00">dji_error.hpp</text>
</a>
</g>
</g>
<!-- Node15&#45;&gt;Node16 -->
<g id="edge17" class="edge"><title>Node15&#45;&gt;Node16</title>
<path fill="none" stroke="midnightblue" d="M1604.03,-112.083C1604.03,-105.006 1604.03,-94.8611 1604.03,-85.9865"/>
<polygon fill="midnightblue" stroke="midnightblue" points="1607.53,-85.751 1604.03,-75.7511 1600.53,-85.7511 1607.53,-85.751"/>
</g>
<!-- Node16&#45;&gt;Node5 -->
<g id="edge18" class="edge"><title>Node16&#45;&gt;Node5</title>
<path fill="none" stroke="midnightblue" d="M1593.91,-56.324C1584.5,-48.2631 1570.29,-36.0765 1558.96,-26.3695"/>
<polygon fill="midnightblue" stroke="midnightblue" points="1561.21,-23.6844 1551.34,-19.8339 1556.65,-28.9993 1561.21,-23.6844"/>
</g>
<!-- Node18&#45;&gt;Node3 -->
<g id="edge34" class="edge"><title>Node18&#45;&gt;Node3</title>
<path fill="none" stroke="midnightblue" d="M653.078,-281.548C697.631,-272.775 766.335,-257.666 789.031,-244 828.115,-220.467 817.357,-188.664 858.031,-168 923.013,-134.986 1139.96,-126.117 1234.44,-123.796"/>
<polygon fill="midnightblue" stroke="midnightblue" points="1234.61,-127.293 1244.53,-123.562 1234.45,-120.295 1234.61,-127.293"/>
</g>
<!-- Node18&#45;&gt;Node6 -->
<g id="edge35" class="edge"><title>Node18&#45;&gt;Node6</title>
<path fill="none" stroke="midnightblue" d="M652.509,-280.468C690.053,-270.483 737.931,-251.707 717.031,-224 681.802,-177.296 519.182,-146.719 423.299,-132.416"/>
<polygon fill="midnightblue" stroke="midnightblue" points="423.781,-128.949 413.379,-130.958 422.764,-135.875 423.781,-128.949"/>
</g>
<!-- Node18&#45;&gt;Node7 -->
<g id="edge33" class="edge"><title>Node18&#45;&gt;Node7</title>
<path fill="none" stroke="midnightblue" d="M648.817,-280.497C680.755,-272.099 723.99,-258.447 734.031,-244 739.104,-236.701 737.797,-232.052 734.031,-224 700.783,-152.917 617.775,-102.732 574.025,-80.2535"/>
<polygon fill="midnightblue" stroke="midnightblue" points="575.319,-76.9868 564.811,-75.6317 572.181,-83.2438 575.319,-76.9868"/>
</g>
<!-- Node19 -->
<g id="node19" class="node"><title>Node19</title>
<g id="a_node19"><a xlink:href="dji__ack_8hpp.html" target="_top" xlink:title="All DJI OSDK ACK parsing. ">
<polygon fill="white" stroke="black" points="1246.03,-224.5 1246.03,-243.5 1312.03,-243.5 1312.03,-224.5 1246.03,-224.5"/>
<text text-anchor="middle" x="1279.03" y="-231.5" font-family="Helvetica,sans-Serif" font-size="10.00">dji_ack.hpp</text>
</a>
</g>
</g>
<!-- Node18&#45;&gt;Node19 -->
<g id="edge24" class="edge"><title>Node18&#45;&gt;Node19</title>
<path fill="none" stroke="midnightblue" d="M653.087,-281.276C656.108,-280.806 659.114,-280.373 662.031,-280 718.497,-272.777 1104.6,-246.655 1235.64,-237.89"/>
<polygon fill="midnightblue" stroke="midnightblue" points="1235.96,-241.376 1245.71,-237.217 1235.5,-234.391 1235.96,-241.376"/>
</g>
<!-- Node19&#45;&gt;Node3 -->
<g id="edge28" class="edge"><title>Node19&#45;&gt;Node3</title>
<path fill="none" stroke="midnightblue" d="M1245.83,-227.936C1203.59,-219.997 1138.75,-201.903 1162.03,-168 1178.24,-144.402 1208.68,-133.174 1234.45,-127.834"/>
<polygon fill="midnightblue" stroke="midnightblue" points="1235.22,-131.252 1244.42,-126.004 1233.95,-124.367 1235.22,-131.252"/>
</g>
<!-- Node19&#45;&gt;Node15 -->
<g id="edge25" class="edge"><title>Node19&#45;&gt;Node15</title>
<path fill="none" stroke="midnightblue" d="M1312.2,-231.491C1399.67,-227.172 1631.48,-213.414 1654.03,-188 1668.86,-171.284 1646.71,-150.631 1627.35,-137.152"/>
<polygon fill="midnightblue" stroke="midnightblue" points="1629.07,-134.093 1618.79,-131.504 1625.21,-139.935 1629.07,-134.093"/>
</g>
<!-- Node20 -->
<g id="node20" class="node"><title>Node20</title>
<g id="a_node20"><a xlink:href="dji__mission__type_8hpp.html" target="_top" xlink:title="Mission related data struct for DJI OSDK library. ">
<polygon fill="white" stroke="black" points="1225.03,-168.5 1225.03,-187.5 1333.03,-187.5 1333.03,-168.5 1225.03,-168.5"/>
<text text-anchor="middle" x="1279.03" y="-175.5" font-family="Helvetica,sans-Serif" font-size="10.00">dji_mission_type.hpp</text>
</a>
</g>
</g>
<!-- Node19&#45;&gt;Node20 -->
<g id="edge26" class="edge"><title>Node19&#45;&gt;Node20</title>
<path fill="none" stroke="midnightblue" d="M1279.03,-224.083C1279.03,-217.006 1279.03,-206.861 1279.03,-197.986"/>
<polygon fill="midnightblue" stroke="midnightblue" points="1282.53,-197.751 1279.03,-187.751 1275.53,-197.751 1282.53,-197.751"/>
</g>
<!-- Node19&#45;&gt;Node21 -->
<g id="edge29" class="edge"><title>Node19&#45;&gt;Node21</title>
<path fill="none" stroke="midnightblue" d="M1312.24,-229.944C1381.99,-223.394 1548.78,-207.041 1688.03,-188 1689.3,-187.827 1690.58,-187.647 1691.87,-187.463"/>
<polygon fill="midnightblue" stroke="midnightblue" points="1692.54,-190.902 1701.92,-185.969 1691.52,-183.978 1692.54,-190.902"/>
</g>
<!-- Node22 -->
<g id="node22" class="node"><title>Node22</title>
<polygon fill="white" stroke="#bfbfbf" points="1171.53,-168.5 1171.53,-187.5 1206.53,-187.5 1206.53,-168.5 1171.53,-168.5"/>
<text text-anchor="middle" x="1189.03" y="-175.5" font-family="Helvetica,sans-Serif" font-size="10.00">map</text>
</g>
<!-- Node19&#45;&gt;Node22 -->
<g id="edge32" class="edge"><title>Node19&#45;&gt;Node22</title>
<path fill="none" stroke="midnightblue" d="M1264.57,-224.324C1250.53,-215.9 1228.98,-202.971 1212.49,-193.074"/>
<polygon fill="midnightblue" stroke="midnightblue" points="1213.83,-189.798 1203.46,-187.655 1210.23,-195.801 1213.83,-189.798"/>
</g>
<!-- Node20&#45;&gt;Node3 -->
<g id="edge27" class="edge"><title>Node20&#45;&gt;Node3</title>
<path fill="none" stroke="midnightblue" d="M1279.03,-168.083C1279.03,-161.006 1279.03,-150.861 1279.03,-141.986"/>
<polygon fill="midnightblue" stroke="midnightblue" points="1282.53,-141.751 1279.03,-131.751 1275.53,-141.751 1282.53,-141.751"/>
</g>
<!-- Node21&#45;&gt;Node11 -->
<g id="edge31" class="edge"><title>Node21&#45;&gt;Node11</title>
<path fill="none" stroke="midnightblue" d="M1751.78,-168.083C1759.5,-160.22 1770.94,-148.569 1780.25,-139.081"/>
<polygon fill="midnightblue" stroke="midnightblue" points="1782.94,-141.34 1787.44,-131.751 1777.94,-136.436 1782.94,-141.34"/>
</g>
<!-- Node21&#45;&gt;Node15 -->
<g id="edge30" class="edge"><title>Node21&#45;&gt;Node15</title>
<path fill="none" stroke="midnightblue" d="M1721.01,-168.444C1697.93,-159.478 1661.47,-145.314 1635.39,-135.183"/>
<polygon fill="midnightblue" stroke="midnightblue" points="1636.54,-131.875 1625.95,-131.516 1634.01,-138.4 1636.54,-131.875"/>
</g>
<!-- Node23&#45;&gt;Node3 -->
<g id="edge38" class="edge"><title>Node23&#45;&gt;Node3</title>
<path fill="none" stroke="midnightblue" d="M1469.22,-168.444C1429.7,-159 1366.04,-143.79 1323.39,-133.599"/>
<polygon fill="midnightblue" stroke="midnightblue" points="1324.1,-130.171 1313.56,-131.251 1322.47,-136.979 1324.1,-130.171"/>
</g>
<!-- Node23&#45;&gt;Node15 -->
<g id="edge37" class="edge"><title>Node23&#45;&gt;Node15</title>
<path fill="none" stroke="midnightblue" d="M1520.94,-168.324C1536.67,-159.743 1560.97,-146.486 1579.24,-136.522"/>
<polygon fill="midnightblue" stroke="midnightblue" points="1581.06,-139.516 1588.16,-131.655 1577.71,-133.37 1581.06,-139.516"/>
</g>
<!-- Node25&#45;&gt;Node6 -->
<g id="edge42" class="edge"><title>Node25&#45;&gt;Node6</title>
<path fill="none" stroke="midnightblue" d="M331.159,-168.083C334.545,-160.77 339.447,-150.181 343.65,-141.103"/>
<polygon fill="midnightblue" stroke="midnightblue" points="346.954,-142.296 347.98,-131.751 340.602,-139.355 346.954,-142.296"/>
</g>
<!-- Node27 -->
<g id="node27" class="node"><title>Node27</title>
<g id="a_node27"><a xlink:href="dji__hotpoint_8hpp.html" target="_top" xlink:title="Implementation of HotPoint (Point of Interest) Missions for DJI OSDK. ">
<polygon fill="white" stroke="black" points="941.531,-224.5 941.531,-243.5 1026.53,-243.5 1026.53,-224.5 941.531,-224.5"/>
<text text-anchor="middle" x="984.031" y="-231.5" font-family="Helvetica,sans-Serif" font-size="10.00">dji_hotpoint.hpp</text>
</a>
</g>
</g>
<!-- Node26&#45;&gt;Node27 -->
<g id="edge44" class="edge"><title>Node26&#45;&gt;Node27</title>
<path fill="none" stroke="midnightblue" d="M774.486,-280.444C817.923,-271.023 887.817,-255.866 934.807,-245.675"/>
<polygon fill="midnightblue" stroke="midnightblue" points="935.73,-249.056 944.761,-243.516 934.246,-242.215 935.73,-249.056"/>
</g>
<!-- Node29 -->
<g id="node29" class="node"><title>Node29</title>
<g id="a_node29"><a xlink:href="dji__waypoint_8hpp.html" target="_top" xlink:title="Implementation of GPS Waypoint Missions for DJI OSDK. ">
<polygon fill="white" stroke="black" points="1044.53,-224.5 1044.53,-243.5 1133.53,-243.5 1133.53,-224.5 1044.53,-224.5"/>
<text text-anchor="middle" x="1089.03" y="-231.5" font-family="Helvetica,sans-Serif" font-size="10.00">dji_waypoint.hpp</text>
</a>
</g>
</g>
<!-- Node26&#45;&gt;Node29 -->
<g id="edge50" class="edge"><title>Node26&#45;&gt;Node29</title>
<path fill="none" stroke="midnightblue" d="M793.709,-280.486C852.03,-271.959 944.315,-258.291 1034.16,-244.117"/>
<polygon fill="midnightblue" stroke="midnightblue" points="1034.92,-247.54 1044.25,-242.521 1033.83,-240.626 1034.92,-247.54"/>
</g>
<!-- Node30 -->
<g id="node30" class="node"><title>Node30</title>
<polygon fill="white" stroke="#bfbfbf" points="841.031,-224.5 841.031,-243.5 885.031,-243.5 885.031,-224.5 841.031,-224.5"/>
<text text-anchor="middle" x="863.031" y="-231.5" font-family="Helvetica,sans-Serif" font-size="10.00">vector</text>
</g>
<!-- Node26&#45;&gt;Node30 -->
<g id="edge52" class="edge"><title>Node26&#45;&gt;Node30</title>
<path fill="none" stroke="midnightblue" d="M755.313,-280.444C776.378,-271.557 809.548,-257.563 833.517,-247.451"/>
<polygon fill="midnightblue" stroke="midnightblue" points="834.991,-250.628 842.844,-243.516 832.27,-244.179 834.991,-250.628"/>
</g>
<!-- Node27&#45;&gt;Node13 -->
<g id="edge49" class="edge"><title>Node27&#45;&gt;Node13</title>
<path fill="none" stroke="midnightblue" d="M972.624,-224.324C961.922,-216.185 945.69,-203.839 932.868,-194.087"/>
<polygon fill="midnightblue" stroke="midnightblue" points="934.724,-191.102 924.646,-187.834 930.487,-196.673 934.724,-191.102"/>
</g>
<!-- Node28 -->
<g id="node28" class="node"><title>Node28</title>
<g id="a_node28"><a xlink:href="dji__mission__base_8hpp.html" target="_top" xlink:title="Mission&#45;Base abstract class for DJI OSDK library. ">
<polygon fill="white" stroke="black" points="1005.03,-168.5 1005.03,-187.5 1115.03,-187.5 1115.03,-168.5 1005.03,-168.5"/>
<text text-anchor="middle" x="1060.03" y="-175.5" font-family="Helvetica,sans-Serif" font-size="10.00">dji_mission_base.hpp</text>
</a>
</g>
</g>
<!-- Node27&#45;&gt;Node28 -->
<g id="edge45" class="edge"><title>Node27&#45;&gt;Node28</title>
<path fill="none" stroke="midnightblue" d="M996.242,-224.324C1007.81,-216.107 1025.41,-203.602 1039.19,-193.807"/>
<polygon fill="midnightblue" stroke="midnightblue" points="1041.47,-196.479 1047.6,-187.834 1037.42,-190.773 1041.47,-196.479"/>
</g>
<!-- Node28&#45;&gt;Node3 -->
<g id="edge47" class="edge"><title>Node28&#45;&gt;Node3</title>
<path fill="none" stroke="midnightblue" d="M1094.73,-168.444C1132.62,-159.102 1193.38,-144.119 1234.69,-133.933"/>
<polygon fill="midnightblue" stroke="midnightblue" points="1235.62,-137.309 1244.49,-131.516 1233.94,-130.512 1235.62,-137.309"/>
</g>
<!-- Node28&#45;&gt;Node6 -->
<g id="edge48" class="edge"><title>Node28&#45;&gt;Node6</title>
<path fill="none" stroke="midnightblue" d="M1004.97,-171.457C992.502,-170.261 979.315,-169.044 967.031,-168 770.292,-151.285 537.823,-135.298 423.222,-127.665"/>
<polygon fill="midnightblue" stroke="midnightblue" points="423.382,-124.168 413.172,-126.997 422.917,-131.153 423.382,-124.168"/>
</g>
<!-- Node28&#45;&gt;Node15 -->
<g id="edge46" class="edge"><title>Node28&#45;&gt;Node15</title>
<path fill="none" stroke="midnightblue" d="M1115.19,-171.525C1218.97,-161.223 1442.26,-139.058 1547.27,-128.635"/>
<polygon fill="midnightblue" stroke="midnightblue" points="1547.75,-132.104 1557.35,-127.633 1547.06,-125.138 1547.75,-132.104"/>
</g>
<!-- Node29&#45;&gt;Node28 -->
<g id="edge51" class="edge"><title>Node29&#45;&gt;Node28</title>
<path fill="none" stroke="midnightblue" d="M1084.24,-224.083C1080.27,-216.691 1074.51,-205.953 1069.6,-196.811"/>
<polygon fill="midnightblue" stroke="midnightblue" points="1072.55,-194.905 1064.73,-187.751 1066.38,-198.217 1072.55,-194.905"/>
</g>
<!-- Node31&#45;&gt;Node6 -->
<g id="edge55" class="edge"><title>Node31&#45;&gt;Node6</title>
<path fill="none" stroke="midnightblue" d="M314.967,-280.436C304.117,-272.471 289.458,-259.515 283.031,-244 270.105,-212.793 266.942,-197.7 283.031,-168 290.78,-153.696 305.265,-143.219 318.971,-135.992"/>
<polygon fill="midnightblue" stroke="midnightblue" points="320.769,-139.01 328.243,-131.501 317.717,-132.71 320.769,-139.01"/>
</g>
<!-- Node32 -->
<g id="node32" class="node"><title>Node32</title>
<polygon fill="white" stroke="#bfbfbf" points="292.531,-224.5 292.531,-243.5 375.531,-243.5 375.531,-224.5 292.531,-224.5"/>
<text text-anchor="middle" x="334.031" y="-231.5" font-family="Helvetica,sans-Serif" font-size="10.00">dji_macros.hpp</text>
</g>
<!-- Node31&#45;&gt;Node32 -->
<g id="edge54" class="edge"><title>Node31&#45;&gt;Node32</title>
<path fill="none" stroke="midnightblue" d="M329.022,-280.083C329.817,-272.927 330.96,-262.635 331.954,-253.691"/>
<polygon fill="midnightblue" stroke="midnightblue" points="335.433,-254.076 333.059,-243.751 328.476,-253.303 335.433,-254.076"/>
</g>
<!-- Node33&#45;&gt;Node6 -->
<g id="edge57" class="edge"><title>Node33&#45;&gt;Node6</title>
<path fill="none" stroke="midnightblue" d="M174.465,-168.444C210.887,-159.122 269.261,-144.183 309.06,-133.997"/>
<polygon fill="midnightblue" stroke="midnightblue" points="309.934,-137.387 318.754,-131.516 308.198,-130.605 309.934,-137.387"/>
</g>
<!-- Node36&#45;&gt;Node6 -->
<g id="edge64" class="edge"><title>Node36&#45;&gt;Node6</title>
<path fill="none" stroke="midnightblue" d="M530.808,-224.368C497.234,-205.332 416.607,-159.615 376.105,-136.65"/>
<polygon fill="midnightblue" stroke="midnightblue" points="377.608,-133.479 367.183,-131.591 374.156,-139.568 377.608,-133.479"/>
</g>
<!-- Node36&#45;&gt;Node7 -->
<g id="edge62" class="edge"><title>Node36&#45;&gt;Node7</title>
<path fill="none" stroke="midnightblue" d="M546.031,-224.075C546.031,-197.945 546.031,-121.211 546.031,-85.577"/>
<polygon fill="midnightblue" stroke="midnightblue" points="549.531,-85.5681 546.031,-75.5681 542.531,-85.5681 549.531,-85.5681"/>
</g>
<!-- Node36&#45;&gt;Node13 -->
<g id="edge63" class="edge"><title>Node36&#45;&gt;Node13</title>
<path fill="none" stroke="midnightblue" d="M597.74,-225.232C600.544,-224.815 603.322,-224.402 606.031,-224 693.803,-210.984 795.726,-196.088 857.25,-187.119"/>
<polygon fill="midnightblue" stroke="midnightblue" points="858.121,-190.529 867.511,-185.624 857.111,-183.602 858.121,-190.529"/>
</g>
<!-- Node38&#45;&gt;Node3 -->
<g id="edge72" class="edge"><title>Node38&#45;&gt;Node3</title>
<path fill="none" stroke="midnightblue" d="M1454.82,-280.476C1432.99,-273.535 1404.88,-261.906 1385.03,-244 1356.21,-218.006 1367.99,-196.849 1342.03,-168 1330.96,-155.699 1315.97,-144.821 1303.39,-136.843"/>
<polygon fill="midnightblue" stroke="midnightblue" points="1305.1,-133.789 1294.74,-131.568 1301.45,-139.764 1305.1,-133.789"/>
</g>
<!-- Node38&#45;&gt;Node7 -->
<g id="edge71" class="edge"><title>Node38&#45;&gt;Node7</title>
<path fill="none" stroke="midnightblue" d="M1483.18,-280.211C1465.97,-250.062 1404.45,-150.57 1322.03,-112 1258.59,-82.3123 787.667,-71.1807 611.917,-68.0333"/>
<polygon fill="midnightblue" stroke="midnightblue" points="611.832,-64.5314 601.771,-67.8547 611.708,-71.5303 611.832,-64.5314"/>
</g>
<!-- Node38&#45;&gt;Node13 -->
<g id="edge73" class="edge"><title>Node38&#45;&gt;Node13</title>
<path fill="none" stroke="midnightblue" d="M1442.99,-281.17C1439.97,-280.744 1436.96,-280.348 1434.03,-280 1378.5,-273.396 975.549,-279.119 932.031,-244 918.47,-233.056 914.243,-212.996 913.087,-198.044"/>
<polygon fill="midnightblue" stroke="midnightblue" points="916.577,-197.701 912.699,-187.842 909.582,-197.968 916.577,-197.701"/>
</g>
<!-- Node38&#45;&gt;Node19 -->
<g id="edge70" class="edge"><title>Node38&#45;&gt;Node19</title>
<path fill="none" stroke="midnightblue" d="M1454.91,-280.444C1418.91,-271.142 1361.26,-256.246 1321.85,-246.062"/>
<polygon fill="midnightblue" stroke="midnightblue" points="1322.55,-242.629 1311.99,-243.516 1320.8,-249.407 1322.55,-242.629"/>
</g>
</g>
</svg>
        <g id="navigator" transform="translate(0 0)" fill="#404254">
                <rect fill="#f2f5e9" fill-opacity="0.5" stroke="#606060" stroke-width=".5" x="0" y="0" width="60" height="60"/>
                <use id="zoomplus" xlink:href="#zoomPlus" x="17" y="9" onmousedown="handleZoom(evt,'in')"/>
                <use id="zoomminus" xlink:href="#zoomMin" x="42" y="9" onmousedown="handleZoom(evt,'out')"/>
                <use id="reset" xlink:href="#resetDef" x="30" y="36" onmousedown="handleReset()"/>
                <g id="arrowUp" xlink:href="#dirArrow" transform="translate(30 24)" onmousedown="handlePan(0,-1)">
                  <use xlink:href="#rim" fill="#404040">
                        <set attributeName="fill" to="#808080" begin="arrowUp.mouseover" end="arrowUp.mouseout"/>
                  </use>
                  <path fill="none" stroke="white" stroke-width="1.5" d="M0,-3.0v7 M-2.5,-0.5L0,-3.0L2.5,-0.5"/>
                </g>
                <g id="arrowRight" xlink:href="#dirArrow" transform="rotate(90) translate(36 -43)" onmousedown="handlePan(1,0)">
                  <use xlink:href="#rim" fill="#404040">
                        <set attributeName="fill" to="#808080" begin="arrowRight.mouseover" end="arrowRight.mouseout"/>
                  </use>
                  <path fill="none" stroke="white" stroke-width="1.5" d="M0,-3.0v7 M-2.5,-0.5L0,-3.0L2.5,-0.5"/>
                </g>
                <g id="arrowDown" xlink:href="#dirArrow" transform="rotate(180) translate(-30 -48)" onmousedown="handlePan(0,1)">
                  <use xlink:href="#rim" fill="#404040">
                        <set attributeName="fill" to="#808080" begin="arrowDown.mouseover" end="arrowDown.mouseout"/>
                  </use>
                  <path fill="none" stroke="white" stroke-width="1.5" d="M0,-3.0v7 M-2.5,-0.5L0,-3.0L2.5,-0.5"/>
                </g>
                <g id="arrowLeft" xlink:href="#dirArrow" transform="rotate(270) translate(-36 17)" onmousedown="handlePan(-1,0)">
                  <use xlink:href="#rim" fill="#404040">
                        <set attributeName="fill" to="#808080" begin="arrowLeft.mouseover" end="arrowLeft.mouseout"/>
                  </use>
                  <path fill="none" stroke="white" stroke-width="1.5" d="M0,-3.0v7 M-2.5,-0.5L0,-3.0L2.5,-0.5"/>
                </g>
        </g>
        <svg viewBox="0 0 15 15" width="100%" height="30px" preserveAspectRatio="xMaxYMin meet">
         <g id="arrow_out" transform="scale(0.3 0.3)">
          <a xlink:href="dji__hardware__sync_8cpp__incl_org.svg" target="_base">
           <rect id="button" ry="5" rx="5" y="6" x="6" height="38" width="38"
                fill="#f2f5e9" fill-opacity="0.5" stroke="#606060" stroke-width="1.0"/>
           <path id="arrow"
             d="M 11.500037,31.436501 C 11.940474,20.09759 22.043105,11.32322 32.158766,21.979434 L 37.068811,17.246167 C 37.068811,17.246167 37.088388,32 37.088388,32 L 22.160133,31.978069 C 22.160133,31.978069 26.997745,27.140456 26.997745,27.140456 C 18.528582,18.264221 13.291696,25.230495 11.500037,31.436501 z"
             style="fill:#404040;"/>
          </a>
         </g>
        </svg>
</svg>
