<?xml version="1.0" encoding="UTF-8" standalone="no"?>
<!DOCTYPE svg PUBLIC "-//W3C//DTD SVG 1.1//EN"
 "http://www.w3.org/Graphics/SVG/1.1/DTD/svg11.dtd">
<!-- Generated by graphviz version 2.40.1 (20161225.0304)
 -->
<!-- Title: osdk&#45;core/api/inc/dji_version.hpp Pages: 1 -->
<svg width="254pt" height="207pt"
 viewBox="0.00 0.00 253.50 207.00" xmlns="http://www.w3.org/2000/svg" xmlns:xlink="http://www.w3.org/1999/xlink">
<g id="graph0" class="graph" transform="scale(1 1) rotate(0) translate(4 203)">
<title>osdk&#45;core/api/inc/dji_version.hpp</title>
<polygon fill="#ffffff" stroke="transparent" points="-4,4 -4,-203 249.5,-203 249.5,4 -4,4"/>
<!-- Node0 -->
<g id="node1" class="node">
<title>Node0</title>
<g id="a_node1"><a xlink:title="Drone/SDK Version definition for DJI onboardSDK library.">
<polygon fill="#bfbfbf" stroke="#000000" points="141.5,-168.5 141.5,-198.5 245.5,-198.5 245.5,-168.5 141.5,-168.5"/>
<text text-anchor="start" x="149.5" y="-186.5" font-family="Helvetica,sans-Serif" font-size="10.00" fill="#000000">osdk&#45;core/api/inc/dji</text>
<text text-anchor="middle" x="193.5" y="-175.5" font-family="Helvetica,sans-Serif" font-size="10.00" fill="#000000">_version.hpp</text>
</a>
</g>
</g>
<!-- Node1 -->
<g id="node2" class="node">
<title>Node1</title>
<g id="a_node2"><a xlink:href="dji__command_8hpp.html" target="_top" xlink:title="All DJI OSDK OpenProtocol Command IDs.">
<polygon fill="#ffffff" stroke="#000000" points="110,-112.5 110,-131.5 203,-131.5 203,-112.5 110,-112.5"/>
<text text-anchor="middle" x="156.5" y="-119.5" font-family="Helvetica,sans-Serif" font-size="10.00" fill="#000000">dji_command.hpp</text>
</a>
</g>
</g>
<!-- Node0&#45;&gt;Node1 -->
<g id="edge1" class="edge">
<title>Node0&#45;&gt;Node1</title>
<path fill="none" stroke="#191970" d="M184.3539,-168.2977C179.3249,-159.9388 173.0445,-149.4997 167.7209,-140.6509"/>
<polygon fill="#191970" stroke="#191970" points="170.5785,-138.6114 162.4242,-131.8469 164.5803,-142.2201 170.5785,-138.6114"/>
</g>
<!-- Node3 -->
<g id="node4" class="node">
<title>Node3</title>
<g id="a_node4"><a xlink:title=" ">
<polygon fill="#ffffff" stroke="#bfbfbf" points="190.5,-.5 190.5,-19.5 236.5,-19.5 236.5,-.5 190.5,-.5"/>
<text text-anchor="middle" x="213.5" y="-7.5" font-family="Helvetica,sans-Serif" font-size="10.00" fill="#000000">cstdint</text>
</a>
</g>
</g>
<!-- Node0&#45;&gt;Node3 -->
<g id="edge7" class="edge">
<title>Node0&#45;&gt;Node3</title>
<path fill="none" stroke="#191970" d="M200.3509,-168.0724C204.4464,-158.0195 209.2738,-144.4949 211.5,-132 217.8512,-96.3526 216.6127,-53.9189 215.0883,-29.6533"/>
<polygon fill="#191970" stroke="#191970" points="218.5732,-29.3166 214.3715,-19.5906 211.5909,-29.8141 218.5732,-29.3166"/>
</g>
<!-- Node2 -->
<g id="node3" class="node">
<title>Node2</title>
<g id="a_node3"><a xlink:href="dji__error_8hpp.html" target="_top" xlink:title="All DJI OSDK OpenProtocol ACK Error Codes.">
<polygon fill="#ffffff" stroke="#000000" points="65.5,-56.5 65.5,-75.5 135.5,-75.5 135.5,-56.5 65.5,-56.5"/>
<text text-anchor="middle" x="100.5" y="-63.5" font-family="Helvetica,sans-Serif" font-size="10.00" fill="#000000">dji_error.hpp</text>
</a>
</g>
</g>
<!-- Node1&#45;&gt;Node2 -->
<g id="edge2" class="edge">
<title>Node1&#45;&gt;Node2</title>
<path fill="none" stroke="#191970" d="M146.7455,-112.2455C138.6352,-104.1352 126.9075,-92.4075 117.2919,-82.7919"/>
<polygon fill="#191970" stroke="#191970" points="119.6887,-80.2389 110.1427,-75.6427 114.7389,-85.1887 119.6887,-80.2389"/>
</g>
<!-- Node6 -->
<g id="node7" class="node">
<title>Node6</title>
<g id="a_node7"><a xlink:title=" ">
<polygon fill="#ffffff" stroke="#bfbfbf" points="154,-56.5 154,-75.5 203,-75.5 203,-56.5 154,-56.5"/>
<text text-anchor="middle" x="178.5" y="-63.5" font-family="Helvetica,sans-Serif" font-size="10.00" fill="#000000">stdint.h</text>
</a>
</g>
</g>
<!-- Node1&#45;&gt;Node6 -->
<g id="edge6" class="edge">
<title>Node1&#45;&gt;Node6</title>
<path fill="none" stroke="#191970" d="M160.3321,-112.2455C163.2659,-104.7776 167.4047,-94.2427 170.991,-85.1137"/>
<polygon fill="#191970" stroke="#191970" points="174.3129,-86.23 174.7118,-75.6427 167.7976,-83.6704 174.3129,-86.23"/>
</g>
<!-- Node2&#45;&gt;Node3 -->
<g id="edge3" class="edge">
<title>Node2&#45;&gt;Node3</title>
<path fill="none" stroke="#191970" d="M119.9254,-56.3733C137.9021,-47.4644 164.8441,-34.1127 185.209,-24.0203"/>
<polygon fill="#191970" stroke="#191970" points="186.9222,-27.0776 194.3281,-19.5011 183.8139,-20.8055 186.9222,-27.0776"/>
</g>
<!-- Node4 -->
<g id="node5" class="node">
<title>Node4</title>
<g id="a_node5"><a xlink:title=" ">
<polygon fill="#ffffff" stroke="#bfbfbf" points="0,-.5 0,-19.5 83,-19.5 83,-.5 0,-.5"/>
<text text-anchor="middle" x="41.5" y="-7.5" font-family="Helvetica,sans-Serif" font-size="10.00" fill="#000000">dji_macros.hpp</text>
</a>
</g>
</g>
<!-- Node2&#45;&gt;Node4 -->
<g id="edge4" class="edge">
<title>Node2&#45;&gt;Node4</title>
<path fill="none" stroke="#191970" d="M90.223,-56.2455C81.6782,-48.1352 69.3222,-36.4075 59.1915,-26.7919"/>
<polygon fill="#191970" stroke="#191970" points="61.3218,-23.9884 51.6592,-19.6427 56.5028,-29.0655 61.3218,-23.9884"/>
</g>
<!-- Node5 -->
<g id="node6" class="node">
<title>Node5</title>
<g id="a_node6"><a xlink:title=" ">
<polygon fill="#ffffff" stroke="#bfbfbf" points="101,-.5 101,-19.5 136,-19.5 136,-.5 101,-.5"/>
<text text-anchor="middle" x="118.5" y="-7.5" font-family="Helvetica,sans-Serif" font-size="10.00" fill="#000000">map</text>
</a>
</g>
</g>
<!-- Node2&#45;&gt;Node5 -->
<g id="edge5" class="edge">
<title>Node2&#45;&gt;Node5</title>
<path fill="none" stroke="#191970" d="M103.6354,-56.2455C106.01,-48.8579 109.3493,-38.4689 112.2615,-29.4087"/>
<polygon fill="#191970" stroke="#191970" points="115.6725,-30.234 115.4006,-19.6427 109.0083,-28.0919 115.6725,-30.234"/>
</g>
</g>
</svg>
