<?xml version="1.0" encoding="UTF-8" standalone="no"?>
<!DOCTYPE svg PUBLIC "-//W3C//DTD SVG 1.1//EN"
 "http://www.w3.org/Graphics/SVG/1.1/DTD/svg11.dtd">
<!-- Generated by graphviz version 2.38.0 (20140413.2041)
 -->
<!-- Title: osdk&#45;core/api/src/dji_hardware_sync.cpp Pages: 1 -->
<svg width="1773pt" height="431pt"
 viewBox="0.00 0.00 1773.00 431.00" xmlns="http://www.w3.org/2000/svg" xmlns:xlink="http://www.w3.org/1999/xlink">
<g id="graph0" class="graph" transform="scale(1 1) rotate(0) translate(4 427)">
<title>osdk&#45;core/api/src/dji_hardware_sync.cpp</title>
<polygon fill="white" stroke="none" points="-4,4 -4,-427 1769,-427 1769,4 -4,4"/>
<!-- Node1 -->
<g id="node1" class="node"><title>Node1</title>
<polygon fill="#bfbfbf" stroke="black" points="988.5,-392.5 988.5,-422.5 1095.5,-422.5 1095.5,-392.5 988.5,-392.5"/>
<text text-anchor="start" x="996.5" y="-410.5" font-family="Helvetica,sans-Serif" font-size="10.00">osdk&#45;core/api/src/dji</text>
<text text-anchor="middle" x="1042" y="-399.5" font-family="Helvetica,sans-Serif" font-size="10.00">_hardware_sync.cpp</text>
</g>
<!-- Node2 -->
<g id="node2" class="node"><title>Node2</title>
<g id="a_node2"><a xlink:href="dji__hardware__sync_8hpp.html" target="_top" xlink:title="Hardware Sync API for DJI OSDK. ">
<polygon fill="white" stroke="black" points="1649,-280.5 1649,-299.5 1765,-299.5 1765,-280.5 1649,-280.5"/>
<text text-anchor="middle" x="1707" y="-287.5" font-family="Helvetica,sans-Serif" font-size="10.00">dji_hardware_sync.hpp</text>
</a>
</g>
</g>
<!-- Node1&#45;&gt;Node2 -->
<g id="edge1" class="edge"><title>Node1&#45;&gt;Node2</title>
<path fill="none" stroke="midnightblue" d="M1095.58,-397.195C1218.51,-375.843 1520.08,-323.466 1648.04,-301.24"/>
<polygon fill="midnightblue" stroke="midnightblue" points="1648.8,-304.661 1658.05,-299.502 1647.6,-297.764 1648.8,-304.661"/>
</g>
<!-- Node6 -->
<g id="node6" class="node"><title>Node6</title>
<g id="a_node6"><a xlink:href="dji__vehicle_8hpp.html" target="_top" xlink:title="Vehicle API for DJI onboardSDK library. ">
<polygon fill="white" stroke="black" points="739.5,-336.5 739.5,-355.5 820.5,-355.5 820.5,-336.5 739.5,-336.5"/>
<text text-anchor="middle" x="780" y="-343.5" font-family="Helvetica,sans-Serif" font-size="10.00">dji_vehicle.hpp</text>
</a>
</g>
</g>
<!-- Node1&#45;&gt;Node6 -->
<g id="edge5" class="edge"><title>Node1&#45;&gt;Node6</title>
<path fill="none" stroke="midnightblue" d="M988.348,-394.316C941.026,-383.569 872.723,-368.057 827.382,-357.76"/>
<polygon fill="midnightblue" stroke="midnightblue" points="828.035,-354.32 817.508,-355.518 826.484,-361.146 828.035,-354.32"/>
</g>
<!-- Node3 -->
<g id="node3" class="node"><title>Node3</title>
<g id="a_node3"><a xlink:href="dji__type_8hpp.html" target="_top" xlink:title="Data type and Data Structure definitions for use throughout DJI OSDK. ">
<polygon fill="white" stroke="black" points="1173.5,-112.5 1173.5,-131.5 1242.5,-131.5 1242.5,-112.5 1173.5,-112.5"/>
<text text-anchor="middle" x="1208" y="-119.5" font-family="Helvetica,sans-Serif" font-size="10.00">dji_type.hpp</text>
</a>
</g>
</g>
<!-- Node2&#45;&gt;Node3 -->
<g id="edge2" class="edge"><title>Node2&#45;&gt;Node3</title>
<path fill="none" stroke="midnightblue" d="M1704.78,-280.397C1698.39,-257.558 1677.61,-195.285 1635,-168 1572.54,-128.006 1349.17,-122.998 1252.79,-122.751"/>
<polygon fill="midnightblue" stroke="midnightblue" points="1252.78,-119.251 1242.78,-122.742 1252.77,-126.251 1252.78,-119.251"/>
</g>
<!-- Node4 -->
<g id="node4" class="node"><title>Node4</title>
<polygon fill="white" stroke="#bfbfbf" points="1186.5,-56.5 1186.5,-75.5 1229.5,-75.5 1229.5,-56.5 1186.5,-56.5"/>
<text text-anchor="middle" x="1208" y="-63.5" font-family="Helvetica,sans-Serif" font-size="10.00">cstdio</text>
</g>
<!-- Node3&#45;&gt;Node4 -->
<g id="edge3" class="edge"><title>Node3&#45;&gt;Node4</title>
<path fill="none" stroke="midnightblue" d="M1208,-112.083C1208,-105.006 1208,-94.8611 1208,-85.9865"/>
<polygon fill="midnightblue" stroke="midnightblue" points="1211.5,-85.751 1208,-75.7511 1204.5,-85.7511 1211.5,-85.751"/>
</g>
<!-- Node5 -->
<g id="node5" class="node"><title>Node5</title>
<polygon fill="white" stroke="#bfbfbf" points="1057.5,-0.5 1057.5,-19.5 1106.5,-19.5 1106.5,-0.5 1057.5,-0.5"/>
<text text-anchor="middle" x="1082" y="-7.5" font-family="Helvetica,sans-Serif" font-size="10.00">stdint.h</text>
</g>
<!-- Node3&#45;&gt;Node5 -->
<g id="edge4" class="edge"><title>Node3&#45;&gt;Node5</title>
<path fill="none" stroke="midnightblue" d="M1198.11,-112.368C1176.86,-93.8137 1126.57,-49.9129 1099.68,-26.4376"/>
<polygon fill="midnightblue" stroke="midnightblue" points="1101.68,-23.5314 1091.84,-19.5914 1097.07,-28.8046 1101.68,-23.5314"/>
</g>
<!-- Node6&#45;&gt;Node2 -->
<g id="edge37" class="edge"><title>Node6&#45;&gt;Node2</title>
<path fill="none" stroke="midnightblue" d="M820.571,-343.899C943.439,-340.342 1322.22,-327.744 1635,-300 1636.27,-299.887 1637.55,-299.769 1638.84,-299.647"/>
<polygon fill="midnightblue" stroke="midnightblue" points="1639.28,-303.121 1648.88,-298.628 1638.58,-296.156 1639.28,-303.121"/>
</g>
<!-- Node6&#45;&gt;Node3 -->
<g id="edge59" class="edge"><title>Node6&#45;&gt;Node3</title>
<path fill="none" stroke="midnightblue" d="M820.646,-344.309C982.649,-341.362 1574.87,-328.655 1602,-300 1710.06,-185.859 1377.03,-139.97 1252.78,-127.086"/>
<polygon fill="midnightblue" stroke="midnightblue" points="1253.11,-123.602 1242.81,-126.077 1252.4,-130.566 1253.11,-123.602"/>
</g>
<!-- Node7 -->
<g id="node7" class="node"><title>Node7</title>
<polygon fill="white" stroke="#bfbfbf" points="324,-112.5 324,-131.5 370,-131.5 370,-112.5 324,-112.5"/>
<text text-anchor="middle" x="347" y="-119.5" font-family="Helvetica,sans-Serif" font-size="10.00">cstdint</text>
</g>
<!-- Node6&#45;&gt;Node7 -->
<g id="edge6" class="edge"><title>Node6&#45;&gt;Node7</title>
<path fill="none" stroke="midnightblue" d="M739.204,-343.792C652.07,-340.691 441.585,-330.431 268,-300 172.433,-283.246 116.156,-320.904 57,-244 -12.3586,-153.832 223.684,-130.274 313.621,-124.638"/>
<polygon fill="midnightblue" stroke="midnightblue" points="314.057,-128.118 323.834,-124.036 313.645,-121.13 314.057,-128.118"/>
</g>
<!-- Node8 -->
<g id="node8" class="node"><title>Node8</title>
<g id="a_node8"><a xlink:href="dji__broadcast_8hpp.html" target="_top" xlink:title="Broadcast Telemetry API for DJI onboardSDK library. ">
<polygon fill="white" stroke="black" points="557.5,-224.5 557.5,-243.5 650.5,-243.5 650.5,-224.5 557.5,-224.5"/>
<text text-anchor="middle" x="604" y="-231.5" font-family="Helvetica,sans-Serif" font-size="10.00">dji_broadcast.hpp</text>
</a>
</g>
</g>
<!-- Node6&#45;&gt;Node8 -->
<g id="edge7" class="edge"><title>Node6&#45;&gt;Node8</title>
<path fill="none" stroke="midnightblue" d="M755.031,-336.435C733.696,-328.556 702.635,-315.725 678,-300 655.83,-285.849 633.587,-265.238 619.362,-251.038"/>
<polygon fill="midnightblue" stroke="midnightblue" points="621.478,-248.198 611.974,-243.515 616.484,-253.103 621.478,-248.198"/>
</g>
<!-- Node10 -->
<g id="node10" class="node"><title>Node10</title>
<g id="a_node10"><a xlink:href="dji__vehicle__callback_8hpp.html" target="_top" xlink:title="Type definition for new Vehicle&#45;style callbacks. ">
<polygon fill="white" stroke="black" points="392,-112.5 392,-131.5 514,-131.5 514,-112.5 392,-112.5"/>
<text text-anchor="middle" x="453" y="-119.5" font-family="Helvetica,sans-Serif" font-size="10.00">dji_vehicle_callback.hpp</text>
</a>
</g>
</g>
<!-- Node6&#45;&gt;Node10 -->
<g id="edge60" class="edge"><title>Node6&#45;&gt;Node10</title>
<path fill="none" stroke="midnightblue" d="M739.216,-345.539C661.034,-345.616 494.564,-340.849 458,-300 418.238,-255.577 435.851,-176.879 446.728,-141.332"/>
<polygon fill="midnightblue" stroke="midnightblue" points="450.073,-142.363 449.817,-131.771 443.412,-140.211 450.073,-142.363"/>
</g>
<!-- Node11 -->
<g id="node11" class="node"><title>Node11</title>
<polygon fill="white" stroke="#bfbfbf" points="397.5,-56.5 397.5,-75.5 508.5,-75.5 508.5,-56.5 397.5,-56.5"/>
<text text-anchor="middle" x="453" y="-63.5" font-family="Helvetica,sans-Serif" font-size="10.00">dji_open_protocol.hpp</text>
</g>
<!-- Node6&#45;&gt;Node11 -->
<g id="edge51" class="edge"><title>Node6&#45;&gt;Node11</title>
<path fill="none" stroke="midnightblue" d="M739.437,-345.186C610.801,-345.335 213.388,-342.275 93,-300 45.42,-283.292 0,-285.428 0,-235 0,-235 0,-235 0,-177 0,-98.2817 261.575,-75.6803 387.19,-69.365"/>
<polygon fill="midnightblue" stroke="midnightblue" points="387.634,-72.8478 397.453,-68.8701 387.296,-65.8559 387.634,-72.8478"/>
</g>
<!-- Node12 -->
<g id="node12" class="node"><title>Node12</title>
<g id="a_node12"><a xlink:href="dji__camera_8hpp.html" target="_top" xlink:title="Camera/Gimbal API for DJI onboardSDK library. ">
<polygon fill="white" stroke="black" points="1236.5,-168.5 1236.5,-187.5 1319.5,-187.5 1319.5,-168.5 1236.5,-168.5"/>
<text text-anchor="middle" x="1278" y="-175.5" font-family="Helvetica,sans-Serif" font-size="10.00">dji_camera.hpp</text>
</a>
</g>
</g>
<!-- Node6&#45;&gt;Node12 -->
<g id="edge12" class="edge"><title>Node6&#45;&gt;Node12</title>
<path fill="none" stroke="midnightblue" d="M820.638,-342.763C875.745,-338.762 976.629,-327.988 1058,-300 1106.9,-283.179 1114.68,-268.921 1160,-244 1192.24,-226.269 1229.42,-205.783 1253.29,-192.624"/>
<polygon fill="midnightblue" stroke="midnightblue" points="1255.28,-195.522 1262.35,-187.629 1251.91,-189.392 1255.28,-195.522"/>
</g>
<!-- Node13 -->
<g id="node13" class="node"><title>Node13</title>
<g id="a_node13"><a xlink:href="dji__command_8hpp.html" target="_top" xlink:title="All DJI OSDK OpenProtocol Command IDs. ">
<polygon fill="white" stroke="black" points="972.5,-112.5 972.5,-131.5 1065.5,-131.5 1065.5,-112.5 972.5,-112.5"/>
<text text-anchor="middle" x="1019" y="-119.5" font-family="Helvetica,sans-Serif" font-size="10.00">dji_command.hpp</text>
</a>
</g>
</g>
<!-- Node6&#45;&gt;Node13 -->
<g id="edge19" class="edge"><title>Node6&#45;&gt;Node13</title>
<path fill="none" stroke="midnightblue" d="M750.051,-336.494C722.904,-328.387 682.053,-315.187 648,-300 636.37,-294.813 554.44,-254.987 548,-244 543.505,-236.331 543.991,-231.934 548,-224 566.923,-186.552 584.947,-183.338 624,-168 684.219,-144.35 868.071,-131.206 962.186,-125.863"/>
<polygon fill="midnightblue" stroke="midnightblue" points="962.591,-129.346 972.381,-125.295 962.201,-122.357 962.591,-129.346"/>
</g>
<!-- Node15 -->
<g id="node15" class="node"><title>Node15</title>
<polygon fill="white" stroke="#bfbfbf" points="481,-280.5 481,-299.5 593,-299.5 593,-280.5 481,-280.5"/>
<text text-anchor="middle" x="537" y="-287.5" font-family="Helvetica,sans-Serif" font-size="10.00">dji_circular_buffer.hpp</text>
</g>
<!-- Node6&#45;&gt;Node15 -->
<g id="edge18" class="edge"><title>Node6&#45;&gt;Node15</title>
<path fill="none" stroke="midnightblue" d="M741.496,-336.444C699.194,-327.043 631.181,-311.929 585.327,-301.739"/>
<polygon fill="midnightblue" stroke="midnightblue" points="585.845,-298.269 575.324,-299.516 584.327,-305.102 585.845,-298.269"/>
</g>
<!-- Node16 -->
<g id="node16" class="node"><title>Node16</title>
<g id="a_node16"><a xlink:href="dji__control_8hpp.html" target="_top" xlink:title="Control API for DJI OSDK library. ">
<polygon fill="white" stroke="black" points="687,-280.5 687,-299.5 767,-299.5 767,-280.5 687,-280.5"/>
<text text-anchor="middle" x="727" y="-287.5" font-family="Helvetica,sans-Serif" font-size="10.00">dji_control.hpp</text>
</a>
</g>
</g>
<!-- Node6&#45;&gt;Node16 -->
<g id="edge20" class="edge"><title>Node6&#45;&gt;Node16</title>
<path fill="none" stroke="midnightblue" d="M771.248,-336.083C763.53,-328.22 752.095,-316.569 742.783,-307.081"/>
<polygon fill="midnightblue" stroke="midnightblue" points="745.092,-304.436 735.589,-299.751 740.096,-309.34 745.092,-304.436"/>
</g>
<!-- Node19 -->
<g id="node19" class="node"><title>Node19</title>
<g id="a_node19"><a xlink:href="dji__version_8hpp.html" target="_top" xlink:title="Drone/SDK Version definition for DJI onboardSDK library. ">
<polygon fill="white" stroke="black" points="633,-168.5 633,-187.5 715,-187.5 715,-168.5 633,-168.5"/>
<text text-anchor="middle" x="674" y="-175.5" font-family="Helvetica,sans-Serif" font-size="10.00">dji_version.hpp</text>
</a>
</g>
</g>
<!-- Node6&#45;&gt;Node19 -->
<g id="edge61" class="edge"><title>Node6&#45;&gt;Node19</title>
<path fill="none" stroke="midnightblue" d="M739.418,-345.333C663.845,-344.994 506.105,-339.45 472,-300 422.974,-243.291 547.829,-205.739 622.616,-188.997"/>
<polygon fill="midnightblue" stroke="midnightblue" points="623.788,-192.324 632.813,-186.773 622.297,-185.485 623.788,-192.324"/>
</g>
<!-- Node21 -->
<g id="node21" class="node"><title>Node21</title>
<g id="a_node21"><a xlink:href="dji__gimbal_8hpp.html" target="_top" xlink:title="Gimbal API for OSDK library. ">
<polygon fill="white" stroke="black" points="1047.5,-168.5 1047.5,-187.5 1126.5,-187.5 1126.5,-168.5 1047.5,-168.5"/>
<text text-anchor="middle" x="1087" y="-175.5" font-family="Helvetica,sans-Serif" font-size="10.00">dji_gimbal.hpp</text>
</a>
</g>
</g>
<!-- Node6&#45;&gt;Node21 -->
<g id="edge33" class="edge"><title>Node6&#45;&gt;Node21</title>
<path fill="none" stroke="midnightblue" d="M820.54,-342.605C884.335,-338.076 1004.27,-326.256 1037,-300 1053.66,-286.635 1072.8,-227.69 1081.81,-197.284"/>
<polygon fill="midnightblue" stroke="midnightblue" points="1085.22,-198.09 1084.64,-187.511 1078.49,-196.14 1085.22,-198.09"/>
</g>
<!-- Node22 -->
<g id="node22" class="node"><title>Node22</title>
<polygon fill="white" stroke="#bfbfbf" points="785,-280.5 785,-299.5 883,-299.5 883,-280.5 785,-280.5"/>
<text text-anchor="middle" x="834" y="-287.5" font-family="Helvetica,sans-Serif" font-size="10.00">dji_hard_driver.hpp</text>
</g>
<!-- Node6&#45;&gt;Node22 -->
<g id="edge36" class="edge"><title>Node6&#45;&gt;Node22</title>
<path fill="none" stroke="midnightblue" d="M788.917,-336.083C796.78,-328.22 808.431,-316.569 817.919,-307.081"/>
<polygon fill="midnightblue" stroke="midnightblue" points="820.653,-309.297 825.249,-299.751 815.703,-304.347 820.653,-309.297"/>
</g>
<!-- Node23 -->
<g id="node23" class="node"><title>Node23</title>
<g id="a_node23"><a xlink:href="dji__mfio_8hpp.html" target="_top" xlink:title="MFIO API for DJI OSDK library. ">
<polygon fill="white" stroke="black" points="355.5,-224.5 355.5,-243.5 424.5,-243.5 424.5,-224.5 355.5,-224.5"/>
<text text-anchor="middle" x="390" y="-231.5" font-family="Helvetica,sans-Serif" font-size="10.00">dji_mfio.hpp</text>
</a>
</g>
</g>
<!-- Node6&#45;&gt;Node23 -->
<g id="edge38" class="edge"><title>Node6&#45;&gt;Node23</title>
<path fill="none" stroke="midnightblue" d="M739.415,-342.898C646.65,-337.714 425.209,-323.04 401,-300 388.712,-288.305 386.965,-268.363 387.673,-253.644"/>
<polygon fill="midnightblue" stroke="midnightblue" points="391.164,-253.9 388.559,-243.63 384.191,-253.283 391.164,-253.9"/>
</g>
<!-- Node24 -->
<g id="node24" class="node"><title>Node24</title>
<g id="a_node24"><a xlink:href="dji__mission__manager_8hpp.html" target="_top" xlink:title="Mission&#45;Manager API for DJI OSDK library. ">
<polygon fill="white" stroke="black" points="901.5,-280.5 901.5,-299.5 1028.5,-299.5 1028.5,-280.5 901.5,-280.5"/>
<text text-anchor="middle" x="965" y="-287.5" font-family="Helvetica,sans-Serif" font-size="10.00">dji_mission_manager.hpp</text>
</a>
</g>
</g>
<!-- Node6&#45;&gt;Node24 -->
<g id="edge40" class="edge"><title>Node6&#45;&gt;Node24</title>
<path fill="none" stroke="midnightblue" d="M809.314,-336.444C840.842,-327.241 891.131,-312.562 925.986,-302.388"/>
<polygon fill="midnightblue" stroke="midnightblue" points="927.205,-305.678 935.823,-299.516 925.243,-298.959 927.205,-305.678"/>
</g>
<!-- Node28 -->
<g id="node28" class="node"><title>Node28</title>
<g id="a_node28"><a xlink:href="dji__mobile__communication_8hpp.html" target="_top" xlink:title="Implementation of DJI Mobile&#45;Onboard SDK Communication (MOC) ">
<polygon fill="white" stroke="black" points="66,-224.5 66,-243.5 216,-243.5 216,-224.5 66,-224.5"/>
<text text-anchor="middle" x="141" y="-231.5" font-family="Helvetica,sans-Serif" font-size="10.00">dji_mobile_communication.hpp</text>
</a>
</g>
</g>
<!-- Node6&#45;&gt;Node28 -->
<g id="edge49" class="edge"><title>Node6&#45;&gt;Node28</title>
<path fill="none" stroke="midnightblue" d="M739.393,-343.579C661.94,-340.259 488.07,-329.862 345,-300 282.272,-286.907 211.519,-261.972 171.994,-247.082"/>
<polygon fill="midnightblue" stroke="midnightblue" points="173.233,-243.808 162.642,-243.525 170.745,-250.351 173.233,-243.808"/>
</g>
<!-- Node29 -->
<g id="node29" class="node"><title>Node29</title>
<polygon fill="white" stroke="#bfbfbf" points="1123,-280.5 1123,-299.5 1251,-299.5 1251,-280.5 1123,-280.5"/>
<text text-anchor="middle" x="1187" y="-287.5" font-family="Helvetica,sans-Serif" font-size="10.00">dji_platform_manager.hpp</text>
</g>
<!-- Node6&#45;&gt;Node29 -->
<g id="edge52" class="edge"><title>Node6&#45;&gt;Node29</title>
<path fill="none" stroke="midnightblue" d="M820.513,-339.625C888.592,-330.592 1026.91,-312.241 1112.79,-300.846"/>
<polygon fill="midnightblue" stroke="midnightblue" points="1113.28,-304.312 1122.73,-299.527 1112.36,-297.372 1113.28,-304.312"/>
</g>
<!-- Node30 -->
<g id="node30" class="node"><title>Node30</title>
<g id="a_node30"><a xlink:href="dji__status_8hpp.html" target="_top" xlink:title="Status information for DJI Vehicle. ">
<polygon fill="white" stroke="black" points="1269.5,-280.5 1269.5,-299.5 1346.5,-299.5 1346.5,-280.5 1269.5,-280.5"/>
<text text-anchor="middle" x="1308" y="-287.5" font-family="Helvetica,sans-Serif" font-size="10.00">dji_status.hpp</text>
</a>
</g>
</g>
<!-- Node6&#45;&gt;Node30 -->
<g id="edge53" class="edge"><title>Node6&#45;&gt;Node30</title>
<path fill="none" stroke="midnightblue" d="M820.603,-342.458C901.857,-337.098 1090.4,-323.292 1259.21,-299.981"/>
<polygon fill="midnightblue" stroke="midnightblue" points="1259.86,-303.425 1269.28,-298.576 1258.89,-296.492 1259.86,-303.425"/>
</g>
<!-- Node31 -->
<g id="node31" class="node"><title>Node31</title>
<g id="a_node31"><a xlink:href="dji__subscription_8hpp.html" target="_top" xlink:title="Telemetry Subscription API for DJI OSDK library. ">
<polygon fill="white" stroke="black" points="234.5,-224.5 234.5,-243.5 337.5,-243.5 337.5,-224.5 234.5,-224.5"/>
<text text-anchor="middle" x="286" y="-231.5" font-family="Helvetica,sans-Serif" font-size="10.00">dji_subscription.hpp</text>
</a>
</g>
</g>
<!-- Node6&#45;&gt;Node31 -->
<g id="edge54" class="edge"><title>Node6&#45;&gt;Node31</title>
<path fill="none" stroke="midnightblue" d="M739.47,-342.698C652.626,-337.387 451.272,-322.947 387,-300 354.984,-288.569 322.784,-265.336 303.619,-249.969"/>
<polygon fill="midnightblue" stroke="midnightblue" points="305.728,-247.172 295.778,-243.532 301.287,-252.582 305.728,-247.172"/>
</g>
<!-- Node32 -->
<g id="node32" class="node"><title>Node32</title>
<polygon fill="white" stroke="#bfbfbf" points="1473,-280.5 1473,-299.5 1593,-299.5 1593,-280.5 1473,-280.5"/>
<text text-anchor="middle" x="1533" y="-287.5" font-family="Helvetica,sans-Serif" font-size="10.00">dji_thread_manager.hpp</text>
</g>
<!-- Node6&#45;&gt;Node32 -->
<g id="edge58" class="edge"><title>Node6&#45;&gt;Node32</title>
<path fill="none" stroke="midnightblue" d="M820.549,-343.24C925.106,-338.507 1212.6,-324.266 1462.81,-300.056"/>
<polygon fill="midnightblue" stroke="midnightblue" points="1463.2,-303.535 1472.82,-299.081 1462.52,-296.568 1463.2,-303.535"/>
</g>
<!-- Node33 -->
<g id="node33" class="node"><title>Node33</title>
<g id="a_node33"><a xlink:href="dji__virtual__rc_8hpp.html" target="_top" xlink:title="Virtual Radio Control API for DJI onboardSDK library. ">
<polygon fill="white" stroke="black" points="1365,-280.5 1365,-299.5 1455,-299.5 1455,-280.5 1365,-280.5"/>
<text text-anchor="middle" x="1410" y="-287.5" font-family="Helvetica,sans-Serif" font-size="10.00">dji_virtual_rc.hpp</text>
</a>
</g>
</g>
<!-- Node6&#45;&gt;Node33 -->
<g id="edge62" class="edge"><title>Node6&#45;&gt;Node33</title>
<path fill="none" stroke="midnightblue" d="M820.549,-343.002C913.156,-338.186 1147.47,-324.572 1354.57,-299.938"/>
<polygon fill="midnightblue" stroke="midnightblue" points="1355.21,-303.386 1364.72,-298.719 1354.38,-296.436 1355.21,-303.386"/>
</g>
<!-- Node9 -->
<g id="node9" class="node"><title>Node9</title>
<g id="a_node9"><a xlink:href="dji__telemetry_8hpp.html" target="_top" xlink:title="Enumeration of all telemetry data types, structures and maps. ">
<polygon fill="white" stroke="black" points="733.5,-168.5 733.5,-187.5 824.5,-187.5 824.5,-168.5 733.5,-168.5"/>
<text text-anchor="middle" x="779" y="-175.5" font-family="Helvetica,sans-Serif" font-size="10.00">dji_telemetry.hpp</text>
</a>
</g>
</g>
<!-- Node8&#45;&gt;Node9 -->
<g id="edge8" class="edge"><title>Node8&#45;&gt;Node9</title>
<path fill="none" stroke="midnightblue" d="M631.729,-224.444C661.426,-215.28 708.716,-200.688 741.669,-190.519"/>
<polygon fill="midnightblue" stroke="midnightblue" points="742.877,-193.809 751.4,-187.516 740.813,-187.121 742.877,-193.809"/>
</g>
<!-- Node8&#45;&gt;Node10 -->
<g id="edge10" class="edge"><title>Node8&#45;&gt;Node10</title>
<path fill="none" stroke="midnightblue" d="M592.151,-224.368C566.35,-205.573 504.846,-160.768 472.95,-137.533"/>
<polygon fill="midnightblue" stroke="midnightblue" points="474.937,-134.651 464.794,-131.591 470.816,-140.309 474.937,-134.651"/>
</g>
<!-- Node9&#45;&gt;Node3 -->
<g id="edge9" class="edge"><title>Node9&#45;&gt;Node3</title>
<path fill="none" stroke="midnightblue" d="M824.596,-169.386C827.776,-168.902 830.935,-168.435 834,-168 952.558,-151.175 1092.85,-135.397 1163.13,-127.776"/>
<polygon fill="midnightblue" stroke="midnightblue" points="1163.82,-131.222 1173.39,-126.668 1163.07,-124.262 1163.82,-131.222"/>
</g>
<!-- Node10&#45;&gt;Node11 -->
<g id="edge11" class="edge"><title>Node10&#45;&gt;Node11</title>
<path fill="none" stroke="midnightblue" d="M453,-112.083C453,-105.006 453,-94.8611 453,-85.9865"/>
<polygon fill="midnightblue" stroke="midnightblue" points="456.5,-85.751 453,-75.7511 449.5,-85.7511 456.5,-85.751"/>
</g>
<!-- Node12&#45;&gt;Node3 -->
<g id="edge17" class="edge"><title>Node12&#45;&gt;Node3</title>
<path fill="none" stroke="midnightblue" d="M1266.75,-168.324C1256.2,-160.185 1240.2,-147.839 1227.56,-138.087"/>
<polygon fill="midnightblue" stroke="midnightblue" points="1229.51,-135.171 1219.45,-131.834 1225.23,-140.713 1229.51,-135.171"/>
</g>
<!-- Node12&#45;&gt;Node13 -->
<g id="edge13" class="edge"><title>Node12&#45;&gt;Node13</title>
<path fill="none" stroke="midnightblue" d="M1236.96,-168.444C1191.68,-159.004 1118.77,-143.802 1069.89,-133.611"/>
<polygon fill="midnightblue" stroke="midnightblue" points="1070.35,-130.131 1059.85,-131.516 1068.92,-136.984 1070.35,-130.131"/>
</g>
<!-- Node13&#45;&gt;Node5 -->
<g id="edge16" class="edge"><title>Node13&#45;&gt;Node5</title>
<path fill="none" stroke="midnightblue" d="M1030.34,-112.179C1040.31,-103.859 1054.5,-90.5244 1063,-76 1071.44,-61.5704 1076.37,-43.1178 1079.08,-29.5626"/>
<polygon fill="midnightblue" stroke="midnightblue" points="1082.56,-29.9822 1080.86,-19.5238 1075.67,-28.7564 1082.56,-29.9822"/>
</g>
<!-- Node14 -->
<g id="node14" class="node"><title>Node14</title>
<g id="a_node14"><a xlink:href="dji__error_8hpp.html" target="_top" xlink:title="All DJI OSDK OpenProtocol ACK Error Codes. ">
<polygon fill="white" stroke="black" points="984,-56.5 984,-75.5 1054,-75.5 1054,-56.5 984,-56.5"/>
<text text-anchor="middle" x="1019" y="-63.5" font-family="Helvetica,sans-Serif" font-size="10.00">dji_error.hpp</text>
</a>
</g>
</g>
<!-- Node13&#45;&gt;Node14 -->
<g id="edge14" class="edge"><title>Node13&#45;&gt;Node14</title>
<path fill="none" stroke="midnightblue" d="M1019,-112.083C1019,-105.006 1019,-94.8611 1019,-85.9865"/>
<polygon fill="midnightblue" stroke="midnightblue" points="1022.5,-85.751 1019,-75.7511 1015.5,-85.7511 1022.5,-85.751"/>
</g>
<!-- Node14&#45;&gt;Node5 -->
<g id="edge15" class="edge"><title>Node14&#45;&gt;Node5</title>
<path fill="none" stroke="midnightblue" d="M1029.12,-56.324C1038.53,-48.2631 1052.74,-36.0765 1064.07,-26.3695"/>
<polygon fill="midnightblue" stroke="midnightblue" points="1066.38,-28.9993 1071.69,-19.8339 1061.82,-23.6844 1066.38,-28.9993"/>
</g>
<!-- Node16&#45;&gt;Node3 -->
<g id="edge31" class="edge"><title>Node16&#45;&gt;Node3</title>
<path fill="none" stroke="midnightblue" d="M767.111,-281.592C832.847,-269.41 956.704,-246.261 961,-244 1003.55,-221.607 996.243,-191.843 1038,-168 1077.09,-145.679 1127.55,-134.142 1163.31,-128.371"/>
<polygon fill="midnightblue" stroke="midnightblue" points="1164.09,-131.794 1173.44,-126.826 1163.03,-124.873 1164.09,-131.794"/>
</g>
<!-- Node16&#45;&gt;Node10 -->
<g id="edge32" class="edge"><title>Node16&#45;&gt;Node10</title>
<path fill="none" stroke="midnightblue" d="M719.349,-280.111C707.46,-266.688 683.374,-241.012 659,-224 643.126,-212.921 532.57,-160.426 480.285,-135.805"/>
<polygon fill="midnightblue" stroke="midnightblue" points="481.775,-132.638 471.236,-131.548 478.795,-138.972 481.775,-132.638"/>
</g>
<!-- Node16&#45;&gt;Node11 -->
<g id="edge30" class="edge"><title>Node16&#45;&gt;Node11</title>
<path fill="none" stroke="midnightblue" d="M723.085,-280.071C716.83,-266.596 703.482,-240.853 686,-224 663.06,-201.886 650.555,-205.61 624,-188 577.182,-156.952 569.104,-144.1 523,-112 507.49,-101.201 489.553,-89.6886 475.72,-81.0114"/>
<polygon fill="midnightblue" stroke="midnightblue" points="477.216,-77.82 466.878,-75.5007 473.514,-83.7606 477.216,-77.82"/>
</g>
<!-- Node17 -->
<g id="node17" class="node"><title>Node17</title>
<g id="a_node17"><a xlink:href="dji__ack_8hpp.html" target="_top" xlink:title="All DJI OSDK ACK parsing. ">
<polygon fill="white" stroke="black" points="1085,-224.5 1085,-243.5 1151,-243.5 1151,-224.5 1085,-224.5"/>
<text text-anchor="middle" x="1118" y="-231.5" font-family="Helvetica,sans-Serif" font-size="10.00">dji_ack.hpp</text>
</a>
</g>
</g>
<!-- Node16&#45;&gt;Node17 -->
<g id="edge21" class="edge"><title>Node16&#45;&gt;Node17</title>
<path fill="none" stroke="midnightblue" d="M767.083,-281.466C770.097,-280.952 773.095,-280.458 776,-280 883.032,-263.14 1009.6,-247.634 1074.63,-239.99"/>
<polygon fill="midnightblue" stroke="midnightblue" points="1075.38,-243.426 1084.9,-238.788 1074.57,-236.474 1075.38,-243.426"/>
</g>
<!-- Node17&#45;&gt;Node3 -->
<g id="edge25" class="edge"><title>Node17&#45;&gt;Node3</title>
<path fill="none" stroke="midnightblue" d="M1138.93,-224.369C1154.56,-216.91 1175.34,-204.69 1188,-188 1198.25,-174.491 1203.29,-155.684 1205.75,-141.773"/>
<polygon fill="midnightblue" stroke="midnightblue" points="1209.21,-142.266 1207.21,-131.862 1202.29,-141.244 1209.21,-142.266"/>
</g>
<!-- Node17&#45;&gt;Node13 -->
<g id="edge22" class="edge"><title>Node17&#45;&gt;Node13</title>
<path fill="none" stroke="midnightblue" d="M1092.16,-224.414C1074.5,-217.288 1051.88,-205.467 1038,-188 1027.38,-174.635 1022.7,-155.523 1020.63,-141.481"/>
<polygon fill="midnightblue" stroke="midnightblue" points="1024.1,-141.042 1019.47,-131.513 1017.15,-141.851 1024.1,-141.042"/>
</g>
<!-- Node18 -->
<g id="node18" class="node"><title>Node18</title>
<g id="a_node18"><a xlink:href="dji__mission__type_8hpp.html" target="_top" xlink:title="Mission related data struct for DJI OSDK library. ">
<polygon fill="white" stroke="black" points="1338,-168.5 1338,-187.5 1446,-187.5 1446,-168.5 1338,-168.5"/>
<text text-anchor="middle" x="1392" y="-175.5" font-family="Helvetica,sans-Serif" font-size="10.00">dji_mission_type.hpp</text>
</a>
</g>
</g>
<!-- Node17&#45;&gt;Node18 -->
<g id="edge23" class="edge"><title>Node17&#45;&gt;Node18</title>
<path fill="none" stroke="midnightblue" d="M1151.05,-226.486C1197.55,-217.323 1282.8,-200.522 1338.42,-189.56"/>
<polygon fill="midnightblue" stroke="midnightblue" points="1339.31,-192.951 1348.45,-187.584 1337.96,-186.083 1339.31,-192.951"/>
</g>
<!-- Node17&#45;&gt;Node19 -->
<g id="edge26" class="edge"><title>Node17&#45;&gt;Node19</title>
<path fill="none" stroke="midnightblue" d="M1084.96,-229.952C1018.72,-223.684 864.777,-208.336 725.19,-188.093"/>
<polygon fill="midnightblue" stroke="midnightblue" points="725.568,-184.611 715.166,-186.627 724.555,-191.537 725.568,-184.611"/>
</g>
<!-- Node20 -->
<g id="node20" class="node"><title>Node20</title>
<polygon fill="white" stroke="#bfbfbf" points="1144.5,-168.5 1144.5,-187.5 1179.5,-187.5 1179.5,-168.5 1144.5,-168.5"/>
<text text-anchor="middle" x="1162" y="-175.5" font-family="Helvetica,sans-Serif" font-size="10.00">map</text>
</g>
<!-- Node17&#45;&gt;Node20 -->
<g id="edge29" class="edge"><title>Node17&#45;&gt;Node20</title>
<path fill="none" stroke="midnightblue" d="M1125.27,-224.083C1131.54,-216.377 1140.79,-205.033 1148.43,-195.653"/>
<polygon fill="midnightblue" stroke="midnightblue" points="1151.27,-197.714 1154.87,-187.751 1145.84,-193.293 1151.27,-197.714"/>
</g>
<!-- Node18&#45;&gt;Node3 -->
<g id="edge24" class="edge"><title>Node18&#45;&gt;Node3</title>
<path fill="none" stroke="midnightblue" d="M1362.84,-168.444C1331.49,-159.241 1281.47,-144.562 1246.8,-134.388"/>
<polygon fill="midnightblue" stroke="midnightblue" points="1247.6,-130.974 1237.02,-131.516 1245.63,-137.691 1247.6,-130.974"/>
</g>
<!-- Node19&#45;&gt;Node7 -->
<g id="edge28" class="edge"><title>Node19&#45;&gt;Node7</title>
<path fill="none" stroke="midnightblue" d="M632.827,-171.842C576.258,-164.48 471.445,-149.855 383,-132 382.088,-131.816 381.165,-131.624 380.234,-131.426"/>
<polygon fill="midnightblue" stroke="midnightblue" points="380.696,-127.941 370.168,-129.123 379.136,-134.765 380.696,-127.941"/>
</g>
<!-- Node19&#45;&gt;Node13 -->
<g id="edge27" class="edge"><title>Node19&#45;&gt;Node13</title>
<path fill="none" stroke="midnightblue" d="M715.186,-169.497C718.167,-168.981 721.129,-168.477 724,-168 806.854,-154.226 903.078,-139.851 962.508,-131.159"/>
<polygon fill="midnightblue" stroke="midnightblue" points="963.054,-134.617 972.444,-129.709 962.043,-127.69 963.054,-134.617"/>
</g>
<!-- Node21&#45;&gt;Node3 -->
<g id="edge35" class="edge"><title>Node21&#45;&gt;Node3</title>
<path fill="none" stroke="midnightblue" d="M1106.17,-168.444C1125.91,-159.636 1156.89,-145.812 1179.49,-135.722"/>
<polygon fill="midnightblue" stroke="midnightblue" points="1181.21,-138.788 1188.92,-131.516 1178.36,-132.396 1181.21,-138.788"/>
</g>
<!-- Node21&#45;&gt;Node13 -->
<g id="edge34" class="edge"><title>Node21&#45;&gt;Node13</title>
<path fill="none" stroke="midnightblue" d="M1076.07,-168.324C1065.83,-160.185 1050.28,-147.839 1038,-138.087"/>
<polygon fill="midnightblue" stroke="midnightblue" points="1040.13,-135.312 1030.12,-131.834 1035.78,-140.794 1040.13,-135.312"/>
</g>
<!-- Node23&#45;&gt;Node10 -->
<g id="edge39" class="edge"><title>Node23&#45;&gt;Node10</title>
<path fill="none" stroke="midnightblue" d="M394.944,-224.368C405.294,-206.296 429.417,-164.176 443.088,-140.307"/>
<polygon fill="midnightblue" stroke="midnightblue" points="446.147,-142.008 448.079,-131.591 440.072,-138.53 446.147,-142.008"/>
</g>
<!-- Node25 -->
<g id="node25" class="node"><title>Node25</title>
<g id="a_node25"><a xlink:href="dji__hotpoint_8hpp.html" target="_top" xlink:title="Implementation of HotPoint (Point of Interest) Missions for DJI OSDK. ">
<polygon fill="white" stroke="black" points="760.5,-224.5 760.5,-243.5 845.5,-243.5 845.5,-224.5 760.5,-224.5"/>
<text text-anchor="middle" x="803" y="-231.5" font-family="Helvetica,sans-Serif" font-size="10.00">dji_hotpoint.hpp</text>
</a>
</g>
</g>
<!-- Node24&#45;&gt;Node25 -->
<g id="edge41" class="edge"><title>Node24&#45;&gt;Node25</title>
<path fill="none" stroke="midnightblue" d="M939.331,-280.444C912.077,-271.359 868.816,-256.939 838.349,-246.783"/>
<polygon fill="midnightblue" stroke="midnightblue" points="839.143,-243.358 828.549,-243.516 836.929,-249.999 839.143,-243.358"/>
</g>
<!-- Node27 -->
<g id="node27" class="node"><title>Node27</title>
<g id="a_node27"><a xlink:href="dji__waypoint_8hpp.html" target="_top" xlink:title="Implementation of GPS Waypoint Missions for DJI OSDK. ">
<polygon fill="white" stroke="black" points="863.5,-224.5 863.5,-243.5 952.5,-243.5 952.5,-224.5 863.5,-224.5"/>
<text text-anchor="middle" x="908" y="-231.5" font-family="Helvetica,sans-Serif" font-size="10.00">dji_waypoint.hpp</text>
</a>
</g>
</g>
<!-- Node24&#45;&gt;Node27 -->
<g id="edge47" class="edge"><title>Node24&#45;&gt;Node27</title>
<path fill="none" stroke="midnightblue" d="M955.842,-280.324C947.499,-272.42 934.968,-260.548 924.823,-250.938"/>
<polygon fill="midnightblue" stroke="midnightblue" points="926.991,-248.171 917.325,-243.834 922.177,-253.252 926.991,-248.171"/>
</g>
<!-- Node25&#45;&gt;Node9 -->
<g id="edge46" class="edge"><title>Node25&#45;&gt;Node9</title>
<path fill="none" stroke="midnightblue" d="M799.037,-224.083C795.787,-216.77 791.081,-206.181 787.046,-197.103"/>
<polygon fill="midnightblue" stroke="midnightblue" points="790.149,-195.468 782.889,-187.751 783.752,-198.311 790.149,-195.468"/>
</g>
<!-- Node26 -->
<g id="node26" class="node"><title>Node26</title>
<g id="a_node26"><a xlink:href="dji__mission__base_8hpp.html" target="_top" xlink:title="Mission&#45;Base abstract class for DJI OSDK library. ">
<polygon fill="white" stroke="black" points="843,-168.5 843,-187.5 953,-187.5 953,-168.5 843,-168.5"/>
<text text-anchor="middle" x="898" y="-175.5" font-family="Helvetica,sans-Serif" font-size="10.00">dji_mission_base.hpp</text>
</a>
</g>
</g>
<!-- Node25&#45;&gt;Node26 -->
<g id="edge42" class="edge"><title>Node25&#45;&gt;Node26</title>
<path fill="none" stroke="midnightblue" d="M818.263,-224.324C833.221,-215.822 856.255,-202.729 873.727,-192.797"/>
<polygon fill="midnightblue" stroke="midnightblue" points="875.81,-195.639 882.774,-187.655 872.351,-189.553 875.81,-195.639"/>
</g>
<!-- Node26&#45;&gt;Node3 -->
<g id="edge44" class="edge"><title>Node26&#45;&gt;Node3</title>
<path fill="none" stroke="midnightblue" d="M947.12,-168.444C1006.55,-158.091 1105.76,-140.81 1163.18,-130.807"/>
<polygon fill="midnightblue" stroke="midnightblue" points="1163.81,-134.251 1173.06,-129.086 1162.61,-127.355 1163.81,-134.251"/>
</g>
<!-- Node26&#45;&gt;Node10 -->
<g id="edge45" class="edge"><title>Node26&#45;&gt;Node10</title>
<path fill="none" stroke="midnightblue" d="M842.692,-169.266C839.413,-168.831 836.164,-168.406 833,-168 725.481,-154.192 600.642,-139.704 524.245,-131.012"/>
<polygon fill="midnightblue" stroke="midnightblue" points="524.585,-127.529 514.253,-129.877 523.794,-134.484 524.585,-127.529"/>
</g>
<!-- Node26&#45;&gt;Node13 -->
<g id="edge43" class="edge"><title>Node26&#45;&gt;Node13</title>
<path fill="none" stroke="midnightblue" d="M917.173,-168.444C936.909,-159.636 967.885,-145.812 990.493,-135.722"/>
<polygon fill="midnightblue" stroke="midnightblue" points="992.211,-138.788 999.917,-131.516 989.359,-132.396 992.211,-138.788"/>
</g>
<!-- Node27&#45;&gt;Node26 -->
<g id="edge48" class="edge"><title>Node27&#45;&gt;Node26</title>
<path fill="none" stroke="midnightblue" d="M906.349,-224.083C905.024,-216.927 903.118,-206.635 901.461,-197.691"/>
<polygon fill="midnightblue" stroke="midnightblue" points="904.883,-196.947 899.621,-187.751 898,-198.221 904.883,-196.947"/>
</g>
<!-- Node28&#45;&gt;Node10 -->
<g id="edge50" class="edge"><title>Node28&#45;&gt;Node10</title>
<path fill="none" stroke="midnightblue" d="M165.222,-224.46C220.4,-205.006 355.556,-157.355 419.029,-134.977"/>
<polygon fill="midnightblue" stroke="midnightblue" points="420.311,-138.236 428.578,-131.61 417.983,-131.635 420.311,-138.236"/>
</g>
<!-- Node31&#45;&gt;Node9 -->
<g id="edge56" class="edge"><title>Node31&#45;&gt;Node9</title>
<path fill="none" stroke="midnightblue" d="M337.686,-225.066C340.497,-224.691 343.282,-224.333 346,-224 510.318,-203.866 554.945,-209.414 723.46,-187.981"/>
<polygon fill="midnightblue" stroke="midnightblue" points="723.944,-191.447 733.416,-186.701 723.052,-184.504 723.944,-191.447"/>
</g>
<!-- Node31&#45;&gt;Node10 -->
<g id="edge57" class="edge"><title>Node31&#45;&gt;Node10</title>
<path fill="none" stroke="midnightblue" d="M299.104,-224.368C327.761,-205.492 396.243,-160.385 431.386,-137.237"/>
<polygon fill="midnightblue" stroke="midnightblue" points="433.531,-140.015 439.957,-131.591 429.68,-134.169 433.531,-140.015"/>
</g>
<!-- Node31&#45;&gt;Node11 -->
<g id="edge55" class="edge"><title>Node31&#45;&gt;Node11</title>
<path fill="none" stroke="midnightblue" d="M285.418,-224.381C284.436,-202.557 284.964,-144.54 315,-112 333.718,-91.7218 361.674,-80.558 387.54,-74.4215"/>
<polygon fill="midnightblue" stroke="midnightblue" points="388.292,-77.8399 397.327,-72.3073 386.814,-70.9978 388.292,-77.8399"/>
</g>
<!-- Node33&#45;&gt;Node3 -->
<g id="edge65" class="edge"><title>Node33&#45;&gt;Node3</title>
<path fill="none" stroke="midnightblue" d="M1418.44,-280.397C1438.32,-259.099 1484.29,-203.108 1455,-168 1429.74,-137.722 1316.81,-127.765 1252.75,-124.528"/>
<polygon fill="midnightblue" stroke="midnightblue" points="1252.68,-121.022 1242.53,-124.048 1252.35,-128.014 1252.68,-121.022"/>
</g>
<!-- Node33&#45;&gt;Node9 -->
<g id="edge66" class="edge"><title>Node33&#45;&gt;Node9</title>
<path fill="none" stroke="midnightblue" d="M1365,-281.508C1361.62,-280.985 1358.26,-280.476 1355,-280 1231.29,-261.902 1199.19,-265.385 1076,-244 985.731,-228.329 881.332,-204.026 823.464,-190.001"/>
<polygon fill="midnightblue" stroke="midnightblue" points="824.101,-186.554 813.557,-187.591 822.446,-193.356 824.101,-186.554"/>
</g>
<!-- Node33&#45;&gt;Node11 -->
<g id="edge64" class="edge"><title>Node33&#45;&gt;Node11</title>
<path fill="none" stroke="midnightblue" d="M1426.98,-280.409C1440.22,-272.755 1457.83,-260.254 1467,-244 1483.66,-214.453 1494.86,-194.748 1474,-168 1415.16,-92.5561 735.899,-72.6058 519.081,-68.1418"/>
<polygon fill="midnightblue" stroke="midnightblue" points="518.874,-64.637 508.805,-67.9347 518.733,-71.6356 518.874,-64.637"/>
</g>
<!-- Node33&#45;&gt;Node17 -->
<g id="edge63" class="edge"><title>Node33&#45;&gt;Node17</title>
<path fill="none" stroke="midnightblue" d="M1364.7,-280.622C1309.16,-270.352 1215.74,-253.075 1161.19,-242.987"/>
<polygon fill="midnightblue" stroke="midnightblue" points="1161.62,-239.507 1151.15,-241.13 1160.35,-246.391 1161.62,-239.507"/>
</g>
</g>
</svg>
