<?xml version="1.0" encoding="UTF-8" standalone="no"?>
<!DOCTYPE svg PUBLIC "-//W3C//DTD SVG 1.1//EN"
 "http://www.w3.org/Graphics/SVG/1.1/DTD/svg11.dtd">
<!-- Generated by graphviz version 2.40.1 (20161225.0304)
 -->
<!-- Title: osdk&#45;core/api/src/dji_subscription.cpp Pages: 1 -->
<svg width="2177pt" height="431pt"
 viewBox="0.00 0.00 2177.00 431.00" xmlns="http://www.w3.org/2000/svg" xmlns:xlink="http://www.w3.org/1999/xlink">
<g id="graph0" class="graph" transform="scale(1 1) rotate(0) translate(4 427)">
<title>osdk&#45;core/api/src/dji_subscription.cpp</title>
<polygon fill="#ffffff" stroke="transparent" points="-4,4 -4,-427 2173,-427 2173,4 -4,4"/>
<!-- Node0 -->
<g id="node1" class="node">
<title>Node0</title>
<g id="a_node1"><a xlink:title="Telemetry Subscription API for DJI OSDK library.">
<polygon fill="#bfbfbf" stroke="#000000" points="1001,-392.5 1001,-422.5 1105,-422.5 1105,-392.5 1001,-392.5"/>
<text text-anchor="start" x="1009" y="-410.5" font-family="Helvetica,sans-Serif" font-size="10.00" fill="#000000">osdk&#45;core/api/src/dji</text>
<text text-anchor="middle" x="1053" y="-399.5" font-family="Helvetica,sans-Serif" font-size="10.00" fill="#000000">_subscription.cpp</text>
</a>
</g>
</g>
<!-- Node1 -->
<g id="node2" class="node">
<title>Node1</title>
<g id="a_node2"><a xlink:href="dji__subscription_8hpp.html" target="_top" xlink:title="Telemetry Subscription API for DJI OSDK library.">
<polygon fill="#ffffff" stroke="#000000" points="982.5,-224.5 982.5,-243.5 1085.5,-243.5 1085.5,-224.5 982.5,-224.5"/>
<text text-anchor="middle" x="1034" y="-231.5" font-family="Helvetica,sans-Serif" font-size="10.00" fill="#000000">dji_subscription.hpp</text>
</a>
</g>
</g>
<!-- Node0&#45;&gt;Node1 -->
<g id="edge1" class="edge">
<title>Node0&#45;&gt;Node1</title>
<path fill="none" stroke="#191970" d="M1019.2717,-392.384C985.8186,-375.3176 936.5323,-344.0678 915,-300 900.6849,-270.7029 936.3977,-253.8118 972.354,-244.4654"/>
<polygon fill="#191970" stroke="#191970" points="973.5614,-247.7746 982.4607,-242.0253 971.9185,-240.9701 973.5614,-247.7746"/>
</g>
<!-- Node8 -->
<g id="node9" class="node">
<title>Node8</title>
<g id="a_node9"><a xlink:href="dji__vehicle_8hpp.html" target="_top" xlink:title="Vehicle API for DJI onboardSDK library.">
<polygon fill="#ffffff" stroke="#000000" points="1207.5,-336.5 1207.5,-355.5 1288.5,-355.5 1288.5,-336.5 1207.5,-336.5"/>
<text text-anchor="middle" x="1248" y="-343.5" font-family="Helvetica,sans-Serif" font-size="10.00" fill="#000000">dji_vehicle.hpp</text>
</a>
</g>
</g>
<!-- Node0&#45;&gt;Node8 -->
<g id="edge9" class="edge">
<title>Node0&#45;&gt;Node8</title>
<path fill="none" stroke="#191970" d="M1100.7024,-392.4554C1133.6667,-382.059 1177.0123,-368.3884 1208.1352,-358.5727"/>
<polygon fill="#191970" stroke="#191970" points="1209.2977,-361.8761 1217.7819,-355.5303 1207.1922,-355.2003 1209.2977,-361.8761"/>
</g>
<!-- Node2 -->
<g id="node3" class="node">
<title>Node2</title>
<g id="a_node3"><a xlink:title=" ">
<polygon fill="#ffffff" stroke="#bfbfbf" points="1096.5,-56.5 1096.5,-75.5 1207.5,-75.5 1207.5,-56.5 1096.5,-56.5"/>
<text text-anchor="middle" x="1152" y="-63.5" font-family="Helvetica,sans-Serif" font-size="10.00" fill="#000000">dji_open_protocol.hpp</text>
</a>
</g>
</g>
<!-- Node1&#45;&gt;Node2 -->
<g id="edge2" class="edge">
<title>Node1&#45;&gt;Node2</title>
<path fill="none" stroke="#191970" d="M1040.6823,-224.4862C1059.6583,-197.4695 1114.1132,-119.9405 1139.1393,-84.3102"/>
<polygon fill="#191970" stroke="#191970" points="1142.2135,-86.0228 1145.0971,-75.8279 1136.4852,-81.9993 1142.2135,-86.0228"/>
</g>
<!-- Node3 -->
<g id="node4" class="node">
<title>Node3</title>
<g id="a_node4"><a xlink:href="dji__telemetry_8hpp.html" target="_top" xlink:title="Enumeration of all telemetry data types, structures and maps.">
<polygon fill="#ffffff" stroke="#000000" points="851.5,-168.5 851.5,-187.5 942.5,-187.5 942.5,-168.5 851.5,-168.5"/>
<text text-anchor="middle" x="897" y="-175.5" font-family="Helvetica,sans-Serif" font-size="10.00" fill="#000000">dji_telemetry.hpp</text>
</a>
</g>
</g>
<!-- Node1&#45;&gt;Node3 -->
<g id="edge3" class="edge">
<title>Node1&#45;&gt;Node3</title>
<path fill="none" stroke="#191970" d="M1010.4489,-224.3733C988.1609,-215.2629 954.5063,-201.5062 929.6363,-191.3404"/>
<polygon fill="#191970" stroke="#191970" points="930.8247,-188.0451 920.2438,-187.5011 928.1761,-194.5247 930.8247,-188.0451"/>
</g>
<!-- Node7 -->
<g id="node8" class="node">
<title>Node7</title>
<g id="a_node8"><a xlink:href="dji__vehicle__callback_8hpp.html" target="_top" xlink:title="Type definition for new Vehicle&#45;style callbacks.">
<polygon fill="#ffffff" stroke="#000000" points="1298,-112.5 1298,-131.5 1420,-131.5 1420,-112.5 1298,-112.5"/>
<text text-anchor="middle" x="1359" y="-119.5" font-family="Helvetica,sans-Serif" font-size="10.00" fill="#000000">dji_vehicle_callback.hpp</text>
</a>
</g>
</g>
<!-- Node1&#45;&gt;Node7 -->
<g id="edge7" class="edge">
<title>Node1&#45;&gt;Node7</title>
<path fill="none" stroke="#191970" d="M1058.9182,-224.4668C1093.5456,-211.3099 1158.2524,-187.0527 1214,-168 1248.7621,-156.1195 1288.5571,-143.5688 1317.6527,-134.5837"/>
<polygon fill="#191970" stroke="#191970" points="1318.9443,-137.8483 1327.4721,-131.5613 1316.885,-131.1581 1318.9443,-137.8483"/>
</g>
<!-- Node4 -->
<g id="node5" class="node">
<title>Node4</title>
<g id="a_node5"><a xlink:href="dji__type_8hpp.html" target="_top" xlink:title="Data type and Data Structure definitions for use throughout DJI OSDK.">
<polygon fill="#ffffff" stroke="#000000" points="530.5,-112.5 530.5,-131.5 599.5,-131.5 599.5,-112.5 530.5,-112.5"/>
<text text-anchor="middle" x="565" y="-119.5" font-family="Helvetica,sans-Serif" font-size="10.00" fill="#000000">dji_type.hpp</text>
</a>
</g>
</g>
<!-- Node3&#45;&gt;Node4 -->
<g id="edge4" class="edge">
<title>Node3&#45;&gt;Node4</title>
<path fill="none" stroke="#191970" d="M851.3911,-169.652C848.2139,-169.0876 845.0597,-168.5322 842,-168 760.1074,-153.7563 664.4189,-138.0798 609.6425,-129.198"/>
<polygon fill="#191970" stroke="#191970" points="610.007,-125.7116 599.5761,-127.5677 608.8878,-132.6215 610.007,-125.7116"/>
</g>
<!-- Node5 -->
<g id="node6" class="node">
<title>Node5</title>
<g id="a_node6"><a xlink:title=" ">
<polygon fill="#ffffff" stroke="#bfbfbf" points="543.5,-56.5 543.5,-75.5 586.5,-75.5 586.5,-56.5 543.5,-56.5"/>
<text text-anchor="middle" x="565" y="-63.5" font-family="Helvetica,sans-Serif" font-size="10.00" fill="#000000">cstdio</text>
</a>
</g>
</g>
<!-- Node4&#45;&gt;Node5 -->
<g id="edge5" class="edge">
<title>Node4&#45;&gt;Node5</title>
<path fill="none" stroke="#191970" d="M565,-112.2455C565,-104.9382 565,-94.6944 565,-85.7046"/>
<polygon fill="#191970" stroke="#191970" points="568.5001,-85.6426 565,-75.6427 561.5001,-85.6427 568.5001,-85.6426"/>
</g>
<!-- Node6 -->
<g id="node7" class="node">
<title>Node6</title>
<g id="a_node7"><a xlink:title=" ">
<polygon fill="#ffffff" stroke="#bfbfbf" points="272.5,-.5 272.5,-19.5 321.5,-19.5 321.5,-.5 272.5,-.5"/>
<text text-anchor="middle" x="297" y="-7.5" font-family="Helvetica,sans-Serif" font-size="10.00" fill="#000000">stdint.h</text>
</a>
</g>
</g>
<!-- Node4&#45;&gt;Node6 -->
<g id="edge6" class="edge">
<title>Node4&#45;&gt;Node6</title>
<path fill="none" stroke="#191970" d="M542.1505,-112.4509C494.3856,-92.4895 383.8681,-46.3031 329.0397,-23.3897"/>
<polygon fill="#191970" stroke="#191970" points="330.368,-20.1515 319.7917,-19.5249 327.6688,-26.6102 330.368,-20.1515"/>
</g>
<!-- Node7&#45;&gt;Node2 -->
<g id="edge8" class="edge">
<title>Node7&#45;&gt;Node2</title>
<path fill="none" stroke="#191970" d="M1323.4154,-112.3733C1288.3984,-102.9001 1234.8119,-88.4032 1196.8875,-78.1435"/>
<polygon fill="#191970" stroke="#191970" points="1197.6873,-74.7341 1187.1202,-75.5011 1195.8592,-81.4912 1197.6873,-74.7341"/>
</g>
<!-- Node8&#45;&gt;Node1 -->
<g id="edge63" class="edge">
<title>Node8&#45;&gt;Node1</title>
<path fill="none" stroke="#191970" d="M1242.1283,-336.3893C1232.8425,-321.9965 1213.3989,-294.9414 1190,-280 1161.563,-261.8415 1125.685,-250.6125 1095.5081,-243.8003"/>
<polygon fill="#191970" stroke="#191970" points="1096.0234,-240.3313 1085.5117,-241.6558 1094.555,-247.1755 1096.0234,-240.3313"/>
</g>
<!-- Node8&#45;&gt;Node2 -->
<g id="edge60" class="edge">
<title>Node8&#45;&gt;Node2</title>
<path fill="none" stroke="#191970" d="M1288.6148,-344.9478C1457.0562,-340.4481 2093.6055,-322.044 2130,-300 2159.1428,-282.3483 2169,-268.0718 2169,-234 2169,-234 2169,-234 2169,-178 2169,-129.9732 1442.9668,-83.1479 1217.7865,-69.78"/>
<polygon fill="#191970" stroke="#191970" points="1217.9524,-66.2838 1207.7632,-69.1875 1217.5392,-73.2716 1217.9524,-66.2838"/>
</g>
<!-- Node8&#45;&gt;Node4 -->
<g id="edge65" class="edge">
<title>Node8&#45;&gt;Node4</title>
<path fill="none" stroke="#191970" d="M1207.4595,-345.5956C1081.5933,-343.9625 703.5191,-336.0715 663,-300 618.3394,-260.2415 670.682,-217.4048 637,-168 627.5412,-154.1257 612.3688,-143.527 598.3855,-136.0199"/>
<polygon fill="#191970" stroke="#191970" points="599.9477,-132.8879 589.4402,-131.5298 596.8073,-139.144 599.9477,-132.8879"/>
</g>
<!-- Node8&#45;&gt;Node7 -->
<g id="edge66" class="edge">
<title>Node8&#45;&gt;Node7</title>
<path fill="none" stroke="#191970" d="M1288.5913,-339.8867C1338.8598,-331.761 1421.0359,-316.4959 1447,-300 1495.9591,-268.8946 1502.7689,-244.907 1514,-188 1515.7211,-179.2793 1519.3166,-175.1236 1514,-168 1503.0275,-153.2981 1462.8511,-141.6172 1426.1538,-133.7051"/>
<polygon fill="#191970" stroke="#191970" points="1426.4263,-130.1868 1415.9227,-131.5741 1424.9988,-137.0397 1426.4263,-130.1868"/>
</g>
<!-- Node9 -->
<g id="node10" class="node">
<title>Node9</title>
<g id="a_node10"><a xlink:title=" ">
<polygon fill="#ffffff" stroke="#bfbfbf" points="0,-112.5 0,-131.5 46,-131.5 46,-112.5 0,-112.5"/>
<text text-anchor="middle" x="23" y="-119.5" font-family="Helvetica,sans-Serif" font-size="10.00" fill="#000000">cstdint</text>
</a>
</g>
</g>
<!-- Node8&#45;&gt;Node9 -->
<g id="edge10" class="edge">
<title>Node8&#45;&gt;Node9</title>
<path fill="none" stroke="#191970" d="M1207.3427,-345.3824C1007.6503,-342.2235 138.2908,-326.9634 88,-300 33.8592,-270.9724 25.9196,-246.4455 7,-188 1.9073,-172.268 7.197,-153.9642 13.0215,-140.6285"/>
<polygon fill="#191970" stroke="#191970" points="16.2213,-142.051 17.4168,-131.5238 9.9174,-139.0078 16.2213,-142.051"/>
</g>
<!-- Node10 -->
<g id="node11" class="node">
<title>Node10</title>
<g id="a_node11"><a xlink:href="dji__broadcast_8hpp.html" target="_top" xlink:title="Broadcast Telemetry API for DJI onboardSDK library.">
<polygon fill="#ffffff" stroke="#000000" points="1242.5,-224.5 1242.5,-243.5 1335.5,-243.5 1335.5,-224.5 1242.5,-224.5"/>
<text text-anchor="middle" x="1289" y="-231.5" font-family="Helvetica,sans-Serif" font-size="10.00" fill="#000000">dji_broadcast.hpp</text>
</a>
</g>
</g>
<!-- Node8&#45;&gt;Node10 -->
<g id="edge11" class="edge">
<title>Node8&#45;&gt;Node10</title>
<path fill="none" stroke="#191970" d="M1288.9188,-337.501C1309.5016,-330.9347 1332.6457,-319.5318 1345,-300 1356.9816,-281.0573 1335.9909,-261.7831 1316.3825,-248.9942"/>
<polygon fill="#191970" stroke="#191970" points="1317.9473,-245.848 1307.5939,-243.5991 1314.2851,-251.8136 1317.9473,-245.848"/>
</g>
<!-- Node11 -->
<g id="node12" class="node">
<title>Node11</title>
<g id="a_node12"><a xlink:href="dji__camera_8hpp.html" target="_top" xlink:title="Camera/Gimbal API for DJI onboardSDK library.">
<polygon fill="#ffffff" stroke="#000000" points="192.5,-168.5 192.5,-187.5 275.5,-187.5 275.5,-168.5 192.5,-168.5"/>
<text text-anchor="middle" x="234" y="-175.5" font-family="Helvetica,sans-Serif" font-size="10.00" fill="#000000">dji_camera.hpp</text>
</a>
</g>
</g>
<!-- Node8&#45;&gt;Node11 -->
<g id="edge14" class="edge">
<title>Node8&#45;&gt;Node11</title>
<path fill="none" stroke="#191970" d="M1207.478,-344.9561C1077.958,-341.3658 675.0794,-328.1643 548,-300 437.8065,-275.5781 315.3061,-218.6443 261.6777,-192.0966"/>
<polygon fill="#191970" stroke="#191970" points="262.9946,-188.8422 252.4841,-187.5079 259.8685,-195.1054 262.9946,-188.8422"/>
</g>
<!-- Node12 -->
<g id="node13" class="node">
<title>Node12</title>
<g id="a_node13"><a xlink:href="dji__command_8hpp.html" target="_top" xlink:title="All DJI OSDK OpenProtocol Command IDs.">
<polygon fill="#ffffff" stroke="#000000" points="187.5,-112.5 187.5,-131.5 280.5,-131.5 280.5,-112.5 187.5,-112.5"/>
<text text-anchor="middle" x="234" y="-119.5" font-family="Helvetica,sans-Serif" font-size="10.00" fill="#000000">dji_command.hpp</text>
</a>
</g>
</g>
<!-- Node8&#45;&gt;Node12 -->
<g id="edge21" class="edge">
<title>Node8&#45;&gt;Node12</title>
<path fill="none" stroke="#191970" d="M1207.2052,-345.1711C1068.6538,-342.1063 616.8888,-330.0013 475,-300 335.7564,-270.558 256.1515,-304.919 175,-188 161.811,-168.9979 184.5207,-149.5275 205.4784,-136.7068"/>
<polygon fill="#191970" stroke="#191970" points="207.3373,-139.675 214.2432,-131.6401 203.834,-133.6147 207.3373,-139.675"/>
</g>
<!-- Node14 -->
<g id="node15" class="node">
<title>Node14</title>
<g id="a_node15"><a xlink:title=" ">
<polygon fill="#ffffff" stroke="#bfbfbf" points="924,-280.5 924,-299.5 1036,-299.5 1036,-280.5 924,-280.5"/>
<text text-anchor="middle" x="980" y="-287.5" font-family="Helvetica,sans-Serif" font-size="10.00" fill="#000000">dji_circular_buffer.hpp</text>
</a>
</g>
</g>
<!-- Node8&#45;&gt;Node14 -->
<g id="edge20" class="edge">
<title>Node8&#45;&gt;Node14</title>
<path fill="none" stroke="#191970" d="M1207.2966,-337.4948C1161.4457,-327.914 1086.6634,-312.2879 1035.4863,-301.5941"/>
<polygon fill="#191970" stroke="#191970" points="1036.0856,-298.1439 1025.5811,-299.5244 1034.6538,-304.9959 1036.0856,-298.1439"/>
</g>
<!-- Node15 -->
<g id="node16" class="node">
<title>Node15</title>
<g id="a_node16"><a xlink:href="dji__control_8hpp.html" target="_top" xlink:title="Control API for DJI OSDK library.">
<polygon fill="#ffffff" stroke="#000000" points="672,-280.5 672,-299.5 752,-299.5 752,-280.5 672,-280.5"/>
<text text-anchor="middle" x="712" y="-287.5" font-family="Helvetica,sans-Serif" font-size="10.00" fill="#000000">dji_control.hpp</text>
</a>
</g>
</g>
<!-- Node8&#45;&gt;Node15 -->
<g id="edge22" class="edge">
<title>Node8&#45;&gt;Node15</title>
<path fill="none" stroke="#191970" d="M1207.4165,-343.6419C1125.2404,-338.5492 933.1392,-325.0315 761.992,-300.0077"/>
<polygon fill="#191970" stroke="#191970" points="762.4539,-296.538 752.0494,-298.5373 761.4297,-303.4627 762.4539,-296.538"/>
</g>
<!-- Node18 -->
<g id="node19" class="node">
<title>Node18</title>
<g id="a_node19"><a xlink:href="dji__version_8hpp.html" target="_top" xlink:title="Drone/SDK Version definition for DJI onboardSDK library.">
<polygon fill="#ffffff" stroke="#000000" points="16,-168.5 16,-187.5 98,-187.5 98,-168.5 16,-168.5"/>
<text text-anchor="middle" x="57" y="-175.5" font-family="Helvetica,sans-Serif" font-size="10.00" fill="#000000">dji_version.hpp</text>
</a>
</g>
</g>
<!-- Node8&#45;&gt;Node18 -->
<g id="edge67" class="edge">
<title>Node8&#45;&gt;Node18</title>
<path fill="none" stroke="#191970" d="M1207.4152,-345.5462C1010.0634,-343.1899 158.2649,-331.2366 112,-300 77.4755,-276.6901 64.3323,-226.1871 59.5557,-198.0161"/>
<polygon fill="#191970" stroke="#191970" points="62.9645,-197.1456 58.0238,-187.7733 56.0415,-198.1811 62.9645,-197.1456"/>
</g>
<!-- Node20 -->
<g id="node21" class="node">
<title>Node20</title>
<g id="a_node21"><a xlink:href="dji__gimbal_8hpp.html" target="_top" xlink:title="Gimbal API for OSDK library.">
<polygon fill="#ffffff" stroke="#000000" points="293.5,-168.5 293.5,-187.5 372.5,-187.5 372.5,-168.5 293.5,-168.5"/>
<text text-anchor="middle" x="333" y="-175.5" font-family="Helvetica,sans-Serif" font-size="10.00" fill="#000000">dji_gimbal.hpp</text>
</a>
</g>
</g>
<!-- Node8&#45;&gt;Node20 -->
<g id="edge35" class="edge">
<title>Node8&#45;&gt;Node20</title>
<path fill="none" stroke="#191970" d="M1207.1456,-344.6086C1085.7428,-340.2249 728.5644,-325.4609 615,-300 514.7197,-277.5174 405.6628,-219.779 357.8331,-192.5824"/>
<polygon fill="#191970" stroke="#191970" points="359.5191,-189.5146 349.1043,-187.5698 356.0331,-195.5849 359.5191,-189.5146"/>
</g>
<!-- Node21 -->
<g id="node22" class="node">
<title>Node21</title>
<g id="a_node22"><a xlink:title=" ">
<polygon fill="#ffffff" stroke="#bfbfbf" points="1238,-280.5 1238,-299.5 1336,-299.5 1336,-280.5 1238,-280.5"/>
<text text-anchor="middle" x="1287" y="-287.5" font-family="Helvetica,sans-Serif" font-size="10.00" fill="#000000">dji_hard_driver.hpp</text>
</a>
</g>
</g>
<!-- Node8&#45;&gt;Node21 -->
<g id="edge38" class="edge">
<title>Node8&#45;&gt;Node21</title>
<path fill="none" stroke="#191970" d="M1254.7933,-336.2455C1260.2178,-328.4564 1267.9661,-317.3308 1274.5033,-307.9439"/>
<polygon fill="#191970" stroke="#191970" points="1277.4417,-309.849 1280.2846,-299.6427 1271.6975,-305.8485 1277.4417,-309.849"/>
</g>
<!-- Node22 -->
<g id="node23" class="node">
<title>Node22</title>
<g id="a_node23"><a xlink:href="dji__hardware__sync_8hpp.html" target="_top" xlink:title="Hardware Sync API for DJI OSDK.">
<polygon fill="#ffffff" stroke="#000000" points="1561,-168.5 1561,-187.5 1677,-187.5 1677,-168.5 1561,-168.5"/>
<text text-anchor="middle" x="1619" y="-175.5" font-family="Helvetica,sans-Serif" font-size="10.00" fill="#000000">dji_hardware_sync.hpp</text>
</a>
</g>
</g>
<!-- Node8&#45;&gt;Node22 -->
<g id="edge39" class="edge">
<title>Node8&#45;&gt;Node22</title>
<path fill="none" stroke="#191970" d="M1288.6242,-342.7078C1354.7772,-336.7643 1482.2887,-322.7073 1521,-300 1563.5762,-275.0256 1595.0807,-224.0495 1609.7835,-196.559"/>
<polygon fill="#191970" stroke="#191970" points="1612.94,-198.0748 1614.4295,-187.5852 1606.7237,-194.8564 1612.94,-198.0748"/>
</g>
<!-- Node24 -->
<g id="node25" class="node">
<title>Node24</title>
<g id="a_node25"><a xlink:href="dji__mfio_8hpp.html" target="_top" xlink:title="MFIO API for DJI OSDK library.">
<polygon fill="#ffffff" stroke="#000000" points="2064.5,-224.5 2064.5,-243.5 2133.5,-243.5 2133.5,-224.5 2064.5,-224.5"/>
<text text-anchor="middle" x="2099" y="-231.5" font-family="Helvetica,sans-Serif" font-size="10.00" fill="#000000">dji_mfio.hpp</text>
</a>
</g>
</g>
<!-- Node8&#45;&gt;Node24 -->
<g id="edge43" class="edge">
<title>Node8&#45;&gt;Node24</title>
<path fill="none" stroke="#191970" d="M1288.719,-345.3726C1456.0566,-342.5995 2083.3515,-330.2143 2112,-300 2123.8648,-287.4867 2117.718,-267.4516 2110.3899,-252.7344"/>
<polygon fill="#191970" stroke="#191970" points="2113.4578,-251.0496 2105.5812,-243.9636 2107.3198,-254.4148 2113.4578,-251.0496"/>
</g>
<!-- Node25 -->
<g id="node26" class="node">
<title>Node25</title>
<g id="a_node26"><a xlink:href="dji__mission__manager_8hpp.html" target="_top" xlink:title="Mission&#45;Manager API for DJI OSDK library.">
<polygon fill="#ffffff" stroke="#000000" points="1054.5,-280.5 1054.5,-299.5 1181.5,-299.5 1181.5,-280.5 1054.5,-280.5"/>
<text text-anchor="middle" x="1118" y="-287.5" font-family="Helvetica,sans-Serif" font-size="10.00" fill="#000000">dji_mission_manager.hpp</text>
</a>
</g>
</g>
<!-- Node8&#45;&gt;Node25 -->
<g id="edge45" class="edge">
<title>Node8&#45;&gt;Node25</title>
<path fill="none" stroke="#191970" d="M1225.6522,-336.3733C1204.5967,-327.3032 1172.8505,-313.6279 1149.2825,-303.4755"/>
<polygon fill="#191970" stroke="#191970" points="1150.625,-300.243 1140.0562,-299.5011 1147.8556,-306.6719 1150.625,-300.243"/>
</g>
<!-- Node30 -->
<g id="node31" class="node">
<title>Node30</title>
<g id="a_node31"><a xlink:href="dji__mobile__communication_8hpp.html" target="_top" xlink:title="Implementation of DJI Mobile&#45;Onboard SDK Communication (MOC)">
<polygon fill="#ffffff" stroke="#000000" points="1953,-280.5 1953,-299.5 2103,-299.5 2103,-280.5 1953,-280.5"/>
<text text-anchor="middle" x="2028" y="-287.5" font-family="Helvetica,sans-Serif" font-size="10.00" fill="#000000">dji_mobile_communication.hpp</text>
</a>
</g>
</g>
<!-- Node8&#45;&gt;Node30 -->
<g id="edge55" class="edge">
<title>Node8&#45;&gt;Node30</title>
<path fill="none" stroke="#191970" d="M1288.8526,-344.0508C1394.8773,-338.8316 1687.7423,-323.3926 1942.7165,-300.0754"/>
<polygon fill="#191970" stroke="#191970" points="1943.2778,-303.5386 1952.9149,-299.1366 1942.6361,-296.5681 1943.2778,-303.5386"/>
</g>
<!-- Node32 -->
<g id="node33" class="node">
<title>Node32</title>
<g id="a_node33"><a xlink:href="dji__mobile__device_8hpp.html" target="_top" xlink:title="Implementation of DJI Mobile Device Abstraction.">
<polygon fill="#ffffff" stroke="#000000" points="1353.5,-224.5 1353.5,-243.5 1466.5,-243.5 1466.5,-224.5 1353.5,-224.5"/>
<text text-anchor="middle" x="1410" y="-231.5" font-family="Helvetica,sans-Serif" font-size="10.00" fill="#000000">dji_mobile_device.hpp</text>
</a>
</g>
</g>
<!-- Node8&#45;&gt;Node32 -->
<g id="edge58" class="edge">
<title>Node8&#45;&gt;Node32</title>
<path fill="none" stroke="#191970" d="M1285.2458,-336.4631C1308.658,-329.1764 1338.5669,-317.3881 1361,-300 1377.4962,-287.2137 1391.1364,-267.4962 1399.7999,-252.9401"/>
<polygon fill="#191970" stroke="#191970" points="1403.0762,-254.259 1404.9765,-243.836 1396.9911,-250.7989 1403.0762,-254.259"/>
</g>
<!-- Node33 -->
<g id="node34" class="node">
<title>Node33</title>
<g id="a_node34"><a xlink:title=" ">
<polygon fill="#ffffff" stroke="#bfbfbf" points="1573,-280.5 1573,-299.5 1701,-299.5 1701,-280.5 1573,-280.5"/>
<text text-anchor="middle" x="1637" y="-287.5" font-family="Helvetica,sans-Serif" font-size="10.00" fill="#000000">dji_platform_manager.hpp</text>
</a>
</g>
</g>
<!-- Node8&#45;&gt;Node33 -->
<g id="edge61" class="edge">
<title>Node8&#45;&gt;Node33</title>
<path fill="none" stroke="#191970" d="M1288.529,-340.1655C1353.2838,-330.8435 1481.0659,-312.4481 1562.5942,-300.7114"/>
<polygon fill="#191970" stroke="#191970" points="1563.3934,-304.1325 1572.7927,-299.2432 1562.396,-297.2039 1563.3934,-304.1325"/>
</g>
<!-- Node34 -->
<g id="node35" class="node">
<title>Node34</title>
<g id="a_node35"><a xlink:href="dji__status_8hpp.html" target="_top" xlink:title="Status information for DJI Vehicle.">
<polygon fill="#ffffff" stroke="#000000" points="1719.5,-280.5 1719.5,-299.5 1796.5,-299.5 1796.5,-280.5 1719.5,-280.5"/>
<text text-anchor="middle" x="1758" y="-287.5" font-family="Helvetica,sans-Serif" font-size="10.00" fill="#000000">dji_status.hpp</text>
</a>
</g>
</g>
<!-- Node8&#45;&gt;Node34 -->
<g id="edge62" class="edge">
<title>Node8&#45;&gt;Node34</title>
<path fill="none" stroke="#191970" d="M1288.6601,-343.4087C1367.6833,-338.0579 1547.6572,-324.3353 1709.1719,-299.9762"/>
<polygon fill="#191970" stroke="#191970" points="1709.9339,-303.4006 1719.2915,-298.4322 1708.878,-296.4807 1709.9339,-303.4006"/>
</g>
<!-- Node35 -->
<g id="node36" class="node">
<title>Node35</title>
<g id="a_node36"><a xlink:title=" ">
<polygon fill="#ffffff" stroke="#bfbfbf" points="1815,-280.5 1815,-299.5 1935,-299.5 1935,-280.5 1815,-280.5"/>
<text text-anchor="middle" x="1875" y="-287.5" font-family="Helvetica,sans-Serif" font-size="10.00" fill="#000000">dji_thread_manager.hpp</text>
</a>
</g>
</g>
<!-- Node8&#45;&gt;Node35 -->
<g id="edge64" class="edge">
<title>Node8&#45;&gt;Node35</title>
<path fill="none" stroke="#191970" d="M1288.6157,-343.4772C1379.1376,-337.6757 1604.5101,-322.2418 1804.5894,-299.9798"/>
<polygon fill="#191970" stroke="#191970" points="1805.1522,-303.4387 1814.7001,-298.8465 1804.3724,-296.4823 1805.1522,-303.4387"/>
</g>
<!-- Node36 -->
<g id="node37" class="node">
<title>Node36</title>
<g id="a_node37"><a xlink:href="dji__virtual__rc_8hpp.html" target="_top" xlink:title="Virtual Radio Control API for DJI onboardSDK library.">
<polygon fill="#ffffff" stroke="#000000" points="770,-280.5 770,-299.5 860,-299.5 860,-280.5 770,-280.5"/>
<text text-anchor="middle" x="815" y="-287.5" font-family="Helvetica,sans-Serif" font-size="10.00" fill="#000000">dji_virtual_rc.hpp</text>
</a>
</g>
</g>
<!-- Node8&#45;&gt;Node36 -->
<g id="edge68" class="edge">
<title>Node8&#45;&gt;Node36</title>
<path fill="none" stroke="#191970" d="M1207.2644,-340.7317C1129.1976,-330.6353 958.4514,-308.5526 870.2221,-297.1419"/>
<polygon fill="#191970" stroke="#191970" points="870.5073,-293.6497 860.141,-295.8381 869.6094,-300.5919 870.5073,-293.6497"/>
</g>
<!-- Node37 -->
<g id="node38" class="node">
<title>Node37</title>
<g id="a_node38"><a xlink:href="dji__payload__device_8hpp.html" target="_top" xlink:title="Implementation of DJI Payload Device Abstraction.">
<polygon fill="#ffffff" stroke="#000000" points="1387,-168.5 1387,-187.5 1505,-187.5 1505,-168.5 1387,-168.5"/>
<text text-anchor="middle" x="1446" y="-175.5" font-family="Helvetica,sans-Serif" font-size="10.00" fill="#000000">dji_payload_device.hpp</text>
</a>
</g>
</g>
<!-- Node8&#45;&gt;Node37 -->
<g id="edge73" class="edge">
<title>Node8&#45;&gt;Node37</title>
<path fill="none" stroke="#191970" d="M1288.8996,-341.953C1343.5627,-334.0193 1437.8611,-310.85 1475,-244 1483.8589,-228.054 1473.2303,-208.8718 1462.4324,-195.3071"/>
<polygon fill="#191970" stroke="#191970" points="1465.0347,-192.9652 1455.8601,-187.6663 1459.7278,-197.53 1465.0347,-192.9652"/>
</g>
<!-- Node10&#45;&gt;Node3 -->
<g id="edge12" class="edge">
<title>Node10&#45;&gt;Node3</title>
<path fill="none" stroke="#191970" d="M1242.273,-225.5094C1239.1372,-224.9848 1236.0242,-224.4768 1233,-224 1134.734,-208.5063 1019.8166,-193.4266 953.033,-184.9635"/>
<polygon fill="#191970" stroke="#191970" points="953.0976,-181.4439 942.7378,-183.663 952.2203,-188.3887 953.0976,-181.4439"/>
</g>
<!-- Node10&#45;&gt;Node7 -->
<g id="edge13" class="edge">
<title>Node10&#45;&gt;Node7</title>
<path fill="none" stroke="#191970" d="M1294.9682,-224.4509C1306.6433,-205.7707 1332.6726,-164.1238 1347.7024,-140.0761"/>
<polygon fill="#191970" stroke="#191970" points="1350.7149,-141.8599 1353.0469,-131.5249 1344.7789,-138.1499 1350.7149,-141.8599"/>
</g>
<!-- Node11&#45;&gt;Node4 -->
<g id="edge19" class="edge">
<title>Node11&#45;&gt;Node4</title>
<path fill="none" stroke="#191970" d="M275.7209,-169.5419C278.5207,-169.0094 281.3,-168.4908 284,-168 367.1596,-152.8822 464.5844,-137.4388 520.1234,-128.8485"/>
<polygon fill="#191970" stroke="#191970" points="520.9752,-132.2586 530.3247,-127.275 519.908,-125.3404 520.9752,-132.2586"/>
</g>
<!-- Node11&#45;&gt;Node12 -->
<g id="edge15" class="edge">
<title>Node11&#45;&gt;Node12</title>
<path fill="none" stroke="#191970" d="M234,-168.2455C234,-160.9382 234,-150.6944 234,-141.7046"/>
<polygon fill="#191970" stroke="#191970" points="237.5001,-141.6426 234,-131.6427 230.5001,-141.6427 237.5001,-141.6426"/>
</g>
<!-- Node12&#45;&gt;Node6 -->
<g id="edge18" class="edge">
<title>Node12&#45;&gt;Node6</title>
<path fill="none" stroke="#191970" d="M246.1346,-112.2631C256.052,-103.6942 269.7383,-90.3714 278,-76 286.264,-61.6247 291.1563,-43.3918 293.9014,-29.7342"/>
<polygon fill="#191970" stroke="#191970" points="297.4124,-29.9833 295.7293,-19.523 290.5219,-28.7498 297.4124,-29.9833"/>
</g>
<!-- Node13 -->
<g id="node14" class="node">
<title>Node13</title>
<g id="a_node14"><a xlink:href="dji__error_8hpp.html" target="_top" xlink:title="All DJI OSDK OpenProtocol ACK Error Codes.">
<polygon fill="#ffffff" stroke="#000000" points="199,-56.5 199,-75.5 269,-75.5 269,-56.5 199,-56.5"/>
<text text-anchor="middle" x="234" y="-63.5" font-family="Helvetica,sans-Serif" font-size="10.00" fill="#000000">dji_error.hpp</text>
</a>
</g>
</g>
<!-- Node12&#45;&gt;Node13 -->
<g id="edge16" class="edge">
<title>Node12&#45;&gt;Node13</title>
<path fill="none" stroke="#191970" d="M234,-112.2455C234,-104.9382 234,-94.6944 234,-85.7046"/>
<polygon fill="#191970" stroke="#191970" points="237.5001,-85.6426 234,-75.6427 230.5001,-85.6427 237.5001,-85.6426"/>
</g>
<!-- Node13&#45;&gt;Node6 -->
<g id="edge17" class="edge">
<title>Node13&#45;&gt;Node6</title>
<path fill="none" stroke="#191970" d="M244.9738,-56.2455C254.1882,-48.0549 267.5532,-36.1749 278.4297,-26.5069"/>
<polygon fill="#191970" stroke="#191970" points="281.0032,-28.9023 286.152,-19.6427 276.3526,-23.6704 281.0032,-28.9023"/>
</g>
<!-- Node15&#45;&gt;Node2 -->
<g id="edge32" class="edge">
<title>Node15&#45;&gt;Node2</title>
<path fill="none" stroke="#191970" d="M752.2549,-281.7836C815.6782,-268.8211 931.9345,-244.9838 934,-244 978.9641,-222.5828 1090.5594,-122.3979 1134.1507,-82.4777"/>
<polygon fill="#191970" stroke="#191970" points="1136.6986,-84.8898 1141.6956,-75.5474 1131.9632,-79.7346 1136.6986,-84.8898"/>
</g>
<!-- Node15&#45;&gt;Node4 -->
<g id="edge33" class="edge">
<title>Node15&#45;&gt;Node4</title>
<path fill="none" stroke="#191970" d="M671.8904,-282.4862C598.2101,-267.7135 446.4134,-232.4256 420,-188 395.7341,-147.1864 469.22,-131.4315 520.266,-125.4807"/>
<polygon fill="#191970" stroke="#191970" points="520.8887,-128.934 530.4574,-124.3853 520.1406,-121.9741 520.8887,-128.934"/>
</g>
<!-- Node15&#45;&gt;Node7 -->
<g id="edge34" class="edge">
<title>Node15&#45;&gt;Node7</title>
<path fill="none" stroke="#191970" d="M752.0562,-281.5072C755.0768,-280.9643 758.0832,-280.4543 761,-280 908.0891,-257.0916 950.5137,-283.6446 1094,-244 1186.9777,-218.3107 1288.2828,-163.3212 1334.0642,-136.8461"/>
<polygon fill="#191970" stroke="#191970" points="1336.0949,-139.7134 1342.9677,-131.6502 1332.5667,-133.6676 1336.0949,-139.7134"/>
</g>
<!-- Node16 -->
<g id="node17" class="node">
<title>Node16</title>
<g id="a_node17"><a xlink:href="dji__ack_8hpp.html" target="_top" xlink:title="All DJI OSDK ACK parsing.">
<polygon fill="#ffffff" stroke="#000000" points="532,-224.5 532,-243.5 598,-243.5 598,-224.5 532,-224.5"/>
<text text-anchor="middle" x="565" y="-231.5" font-family="Helvetica,sans-Serif" font-size="10.00" fill="#000000">dji_ack.hpp</text>
</a>
</g>
</g>
<!-- Node15&#45;&gt;Node16 -->
<g id="edge23" class="edge">
<title>Node15&#45;&gt;Node16</title>
<path fill="none" stroke="#191970" d="M686.7298,-280.3733C662.6034,-271.1822 626.0638,-257.2624 599.3123,-247.0713"/>
<polygon fill="#191970" stroke="#191970" points="600.5313,-243.7904 589.9404,-243.5011 598.0393,-250.3318 600.5313,-243.7904"/>
</g>
<!-- Node16&#45;&gt;Node4 -->
<g id="edge27" class="edge">
<title>Node16&#45;&gt;Node4</title>
<path fill="none" stroke="#191970" d="M565,-224.4509C565,-206.184 565,-165.9553 565,-141.6976"/>
<polygon fill="#191970" stroke="#191970" points="568.5001,-141.5249 565,-131.5249 561.5001,-141.5249 568.5001,-141.5249"/>
</g>
<!-- Node16&#45;&gt;Node12 -->
<g id="edge24" class="edge">
<title>Node16&#45;&gt;Node12</title>
<path fill="none" stroke="#191970" d="M531.8585,-232.48C443.2509,-228.0788 206.0189,-213.9571 183,-188 168.27,-171.3898 189.4743,-151.0034 208.8553,-137.3211"/>
<polygon fill="#191970" stroke="#191970" points="210.8559,-140.1937 217.2174,-131.7212 206.9609,-134.3774 210.8559,-140.1937"/>
</g>
<!-- Node17 -->
<g id="node18" class="node">
<title>Node17</title>
<g id="a_node18"><a xlink:href="dji__mission__type_8hpp.html" target="_top" xlink:title="Mission related data struct for DJI OSDK library.">
<polygon fill="#ffffff" stroke="#000000" points="429,-168.5 429,-187.5 537,-187.5 537,-168.5 429,-168.5"/>
<text text-anchor="middle" x="483" y="-175.5" font-family="Helvetica,sans-Serif" font-size="10.00" fill="#000000">dji_mission_type.hpp</text>
</a>
</g>
</g>
<!-- Node16&#45;&gt;Node17 -->
<g id="edge25" class="edge">
<title>Node16&#45;&gt;Node17</title>
<path fill="none" stroke="#191970" d="M550.7167,-224.2455C538.253,-215.7337 519.9549,-203.2375 505.5208,-193.3801"/>
<polygon fill="#191970" stroke="#191970" points="507.3515,-190.392 497.1196,-187.6427 503.4038,-196.1726 507.3515,-190.392"/>
</g>
<!-- Node16&#45;&gt;Node18 -->
<g id="edge28" class="edge">
<title>Node16&#45;&gt;Node18</title>
<path fill="none" stroke="#191970" d="M531.6687,-230.3257C445.0259,-220.7745 212.2506,-195.1142 108.3279,-183.6582"/>
<polygon fill="#191970" stroke="#191970" points="108.4111,-180.1462 98.0878,-182.5294 107.6441,-187.1041 108.4111,-180.1462"/>
</g>
<!-- Node19 -->
<g id="node20" class="node">
<title>Node19</title>
<g id="a_node20"><a xlink:title=" ">
<polygon fill="#ffffff" stroke="#bfbfbf" points="593.5,-168.5 593.5,-187.5 628.5,-187.5 628.5,-168.5 593.5,-168.5"/>
<text text-anchor="middle" x="611" y="-175.5" font-family="Helvetica,sans-Serif" font-size="10.00" fill="#000000">map</text>
</a>
</g>
</g>
<!-- Node16&#45;&gt;Node19 -->
<g id="edge31" class="edge">
<title>Node16&#45;&gt;Node19</title>
<path fill="none" stroke="#191970" d="M573.0126,-224.2455C579.4768,-216.3761 588.7385,-205.101 596.4983,-195.6542"/>
<polygon fill="#191970" stroke="#191970" points="599.4364,-197.5916 603.0792,-187.6427 594.0273,-193.1484 599.4364,-197.5916"/>
</g>
<!-- Node17&#45;&gt;Node4 -->
<g id="edge26" class="edge">
<title>Node17&#45;&gt;Node4</title>
<path fill="none" stroke="#191970" d="M497.2833,-168.2455C509.747,-159.7337 528.0451,-147.2375 542.4792,-137.3801"/>
<polygon fill="#191970" stroke="#191970" points="544.5962,-140.1726 550.8804,-131.6427 540.6485,-134.392 544.5962,-140.1726"/>
</g>
<!-- Node18&#45;&gt;Node9 -->
<g id="edge30" class="edge">
<title>Node18&#45;&gt;Node9</title>
<path fill="none" stroke="#191970" d="M51.0777,-168.2455C46.3973,-160.5367 39.7327,-149.5598 34.0711,-140.2348"/>
<polygon fill="#191970" stroke="#191970" points="37.0361,-138.3741 28.8545,-131.6427 31.0525,-142.007 37.0361,-138.3741"/>
</g>
<!-- Node18&#45;&gt;Node12 -->
<g id="edge29" class="edge">
<title>Node18&#45;&gt;Node12</title>
<path fill="none" stroke="#191970" d="M87.4274,-168.3733C116.9872,-159.021 162.0226,-144.7725 194.3695,-134.5385"/>
<polygon fill="#191970" stroke="#191970" points="195.4913,-137.8546 203.9697,-131.5011 193.3797,-131.1807 195.4913,-137.8546"/>
</g>
<!-- Node20&#45;&gt;Node4 -->
<g id="edge37" class="edge">
<title>Node20&#45;&gt;Node4</title>
<path fill="none" stroke="#191970" d="M372.6186,-168.4369C413.7144,-158.5172 477.8342,-143.04 520.6116,-132.7144"/>
<polygon fill="#191970" stroke="#191970" points="521.5659,-136.0847 530.4655,-130.3359 519.9234,-129.2801 521.5659,-136.0847"/>
</g>
<!-- Node20&#45;&gt;Node12 -->
<g id="edge36" class="edge">
<title>Node20&#45;&gt;Node12</title>
<path fill="none" stroke="#191970" d="M315.7555,-168.2455C300.4239,-159.5731 277.7801,-146.7645 260.2084,-136.825"/>
<polygon fill="#191970" stroke="#191970" points="261.4741,-133.5198 251.0469,-131.6427 258.0276,-139.6126 261.4741,-133.5198"/>
</g>
<!-- Node22&#45;&gt;Node4 -->
<g id="edge40" class="edge">
<title>Node22&#45;&gt;Node4</title>
<path fill="none" stroke="#191970" d="M1560.9989,-171.9895C1545.7238,-170.5399 1529.251,-169.0953 1514,-168 1166.0422,-143.0111 745.3142,-127.9157 609.5319,-123.4219"/>
<polygon fill="#191970" stroke="#191970" points="609.6158,-119.9229 599.5062,-123.0923 609.3857,-126.9191 609.6158,-119.9229"/>
</g>
<!-- Node22&#45;&gt;Node7 -->
<g id="edge41" class="edge">
<title>Node22&#45;&gt;Node7</title>
<path fill="none" stroke="#191970" d="M1574.5998,-168.4369C1529.9159,-158.8127 1460.943,-143.957 1413.0912,-133.6504"/>
<polygon fill="#191970" stroke="#191970" points="1413.7298,-130.2078 1403.217,-131.5237 1412.2559,-137.0508 1413.7298,-130.2078"/>
</g>
<!-- Node23 -->
<g id="node24" class="node">
<title>Node23</title>
<g id="a_node24"><a xlink:title=" ">
<polygon fill="#ffffff" stroke="#bfbfbf" points="1598.5,-112.5 1598.5,-131.5 1639.5,-131.5 1639.5,-112.5 1598.5,-112.5"/>
<text text-anchor="middle" x="1619" y="-119.5" font-family="Helvetica,sans-Serif" font-size="10.00" fill="#000000">string</text>
</a>
</g>
</g>
<!-- Node22&#45;&gt;Node23 -->
<g id="edge42" class="edge">
<title>Node22&#45;&gt;Node23</title>
<path fill="none" stroke="#191970" d="M1619,-168.2455C1619,-160.9382 1619,-150.6944 1619,-141.7046"/>
<polygon fill="#191970" stroke="#191970" points="1622.5001,-141.6426 1619,-131.6427 1615.5001,-141.6427 1622.5001,-141.6426"/>
</g>
<!-- Node24&#45;&gt;Node7 -->
<g id="edge44" class="edge">
<title>Node24&#45;&gt;Node7</title>
<path fill="none" stroke="#191970" d="M2093.925,-224.2262C2085.4675,-209.0922 2066.9267,-180.4383 2042,-168 2014.97,-154.5122 1599.9459,-133.4282 1430.3652,-125.3257"/>
<polygon fill="#191970" stroke="#191970" points="1430.4402,-121.8254 1420.285,-124.8456 1430.1071,-128.8175 1430.4402,-121.8254"/>
</g>
<!-- Node26 -->
<g id="node27" class="node">
<title>Node26</title>
<g id="a_node27"><a xlink:href="dji__hotpoint_8hpp.html" target="_top" xlink:title="Implementation of HotPoint (Point of Interest) Missions for DJI OSDK.">
<polygon fill="#ffffff" stroke="#000000" points="840.5,-224.5 840.5,-243.5 925.5,-243.5 925.5,-224.5 840.5,-224.5"/>
<text text-anchor="middle" x="883" y="-231.5" font-family="Helvetica,sans-Serif" font-size="10.00" fill="#000000">dji_hotpoint.hpp</text>
</a>
</g>
</g>
<!-- Node25&#45;&gt;Node26 -->
<g id="edge46" class="edge">
<title>Node25&#45;&gt;Node26</title>
<path fill="none" stroke="#191970" d="M1077.8691,-280.4369C1037.7351,-270.8731 975.9225,-256.1432 932.7067,-245.845"/>
<polygon fill="#191970" stroke="#191970" points="933.5044,-242.4372 922.9654,-243.5237 931.8817,-249.2465 933.5044,-242.4372"/>
</g>
<!-- Node28 -->
<g id="node29" class="node">
<title>Node28</title>
<g id="a_node29"><a xlink:href="dji__waypoint_8hpp.html" target="_top" xlink:title="Implementation of GPS Waypoint Missions for DJI OSDK.">
<polygon fill="#ffffff" stroke="#000000" points="733.5,-224.5 733.5,-243.5 822.5,-243.5 822.5,-224.5 733.5,-224.5"/>
<text text-anchor="middle" x="778" y="-231.5" font-family="Helvetica,sans-Serif" font-size="10.00" fill="#000000">dji_waypoint.hpp</text>
</a>
</g>
</g>
<!-- Node25&#45;&gt;Node28 -->
<g id="edge52" class="edge">
<title>Node25&#45;&gt;Node28</title>
<path fill="none" stroke="#191970" d="M1055.4933,-280.4895C999.5719,-271.8653 915.0927,-258.5532 832.569,-244.2415"/>
<polygon fill="#191970" stroke="#191970" points="832.969,-240.7586 822.5168,-242.4915 831.7683,-247.6549 832.969,-240.7586"/>
</g>
<!-- Node29 -->
<g id="node30" class="node">
<title>Node29</title>
<g id="a_node30"><a xlink:title=" ">
<polygon fill="#ffffff" stroke="#bfbfbf" points="1180,-224.5 1180,-243.5 1224,-243.5 1224,-224.5 1180,-224.5"/>
<text text-anchor="middle" x="1202" y="-231.5" font-family="Helvetica,sans-Serif" font-size="10.00" fill="#000000">vector</text>
</a>
</g>
</g>
<!-- Node25&#45;&gt;Node29 -->
<g id="edge54" class="edge">
<title>Node25&#45;&gt;Node29</title>
<path fill="none" stroke="#191970" d="M1132.6317,-280.2455C1145.3994,-271.7337 1164.1438,-259.2375 1178.9299,-249.3801"/>
<polygon fill="#191970" stroke="#191970" points="1181.1569,-252.1019 1187.536,-243.6427 1177.274,-246.2775 1181.1569,-252.1019"/>
</g>
<!-- Node26&#45;&gt;Node3 -->
<g id="edge51" class="edge">
<title>Node26&#45;&gt;Node3</title>
<path fill="none" stroke="#191970" d="M885.4386,-224.2455C887.2855,-216.8579 889.8828,-206.4689 892.1478,-197.4087"/>
<polygon fill="#191970" stroke="#191970" points="895.5594,-198.193 894.5893,-187.6427 888.7684,-196.4952 895.5594,-198.193"/>
</g>
<!-- Node27 -->
<g id="node28" class="node">
<title>Node27</title>
<g id="a_node28"><a xlink:href="dji__mission__base_8hpp.html" target="_top" xlink:title="Mission&#45;Base abstract class for DJI OSDK library.">
<polygon fill="#ffffff" stroke="#000000" points="723,-168.5 723,-187.5 833,-187.5 833,-168.5 723,-168.5"/>
<text text-anchor="middle" x="778" y="-175.5" font-family="Helvetica,sans-Serif" font-size="10.00" fill="#000000">dji_mission_base.hpp</text>
</a>
</g>
</g>
<!-- Node26&#45;&gt;Node27 -->
<g id="edge47" class="edge">
<title>Node26&#45;&gt;Node27</title>
<path fill="none" stroke="#191970" d="M864.7104,-224.2455C848.2238,-215.4527 823.7648,-202.4079 805.0235,-192.4125"/>
<polygon fill="#191970" stroke="#191970" points="806.5506,-189.2604 796.08,-187.6427 803.2565,-195.4368 806.5506,-189.2604"/>
</g>
<!-- Node27&#45;&gt;Node4 -->
<g id="edge49" class="edge">
<title>Node27&#45;&gt;Node4</title>
<path fill="none" stroke="#191970" d="M741.384,-168.3733C704.8377,-158.7648 648.6341,-143.9883 609.5274,-133.7067"/>
<polygon fill="#191970" stroke="#191970" points="610.2891,-130.2881 599.7278,-131.1303 608.5091,-137.058 610.2891,-130.2881"/>
</g>
<!-- Node27&#45;&gt;Node7 -->
<g id="edge50" class="edge">
<title>Node27&#45;&gt;Node7</title>
<path fill="none" stroke="#191970" d="M833.1256,-169.1493C836.1249,-168.7419 839.0977,-168.3555 842,-168 1000.7344,-148.5589 1187.8475,-133.9657 1287.7079,-126.842"/>
<polygon fill="#191970" stroke="#191970" points="1288.2496,-130.3124 1297.977,-126.1138 1287.7544,-123.33 1288.2496,-130.3124"/>
</g>
<!-- Node27&#45;&gt;Node12 -->
<g id="edge48" class="edge">
<title>Node27&#45;&gt;Node12</title>
<path fill="none" stroke="#191970" d="M722.8447,-172.3222C619.0636,-161.6389 395.7673,-138.6525 290.7644,-127.8434"/>
<polygon fill="#191970" stroke="#191970" points="290.9829,-124.3475 280.677,-126.805 290.266,-131.3107 290.9829,-124.3475"/>
</g>
<!-- Node28&#45;&gt;Node27 -->
<g id="edge53" class="edge">
<title>Node28&#45;&gt;Node27</title>
<path fill="none" stroke="#191970" d="M778,-224.2455C778,-216.9382 778,-206.6944 778,-197.7046"/>
<polygon fill="#191970" stroke="#191970" points="781.5001,-197.6426 778,-187.6427 774.5001,-197.6427 781.5001,-197.6426"/>
</g>
<!-- Node30&#45;&gt;Node7 -->
<g id="edge57" class="edge">
<title>Node30&#45;&gt;Node7</title>
<path fill="none" stroke="#191970" d="M2028.0435,-280.2636C2027.5432,-265.7066 2024.3193,-238.44 2008,-224 1923.2997,-149.0538 1580.3464,-129.0131 1430.0984,-123.7869"/>
<polygon fill="#191970" stroke="#191970" points="1430.1642,-120.2872 1420.0524,-123.4496 1429.9293,-127.2833 1430.1642,-120.2872"/>
</g>
<!-- Node31 -->
<g id="node32" class="node">
<title>Node31</title>
<g id="a_node32"><a xlink:title=" ">
<polygon fill="#ffffff" stroke="#bfbfbf" points="1916.5,-224.5 1916.5,-243.5 1999.5,-243.5 1999.5,-224.5 1916.5,-224.5"/>
<text text-anchor="middle" x="1958" y="-231.5" font-family="Helvetica,sans-Serif" font-size="10.00" fill="#000000">dji_macros.hpp</text>
</a>
</g>
</g>
<!-- Node30&#45;&gt;Node31 -->
<g id="edge56" class="edge">
<title>Node30&#45;&gt;Node31</title>
<path fill="none" stroke="#191970" d="M2015.8069,-280.2455C2005.3679,-271.8943 1990.1345,-259.7076 1977.926,-249.9408"/>
<polygon fill="#191970" stroke="#191970" points="1980.0485,-247.1566 1970.0533,-243.6427 1975.6756,-252.6227 1980.0485,-247.1566"/>
</g>
<!-- Node32&#45;&gt;Node7 -->
<g id="edge59" class="edge">
<title>Node32&#45;&gt;Node7</title>
<path fill="none" stroke="#191970" d="M1401.8732,-224.3546C1394.7089,-215.4271 1384.4362,-201.5288 1378,-188 1370.9567,-173.1949 1365.9982,-155.2537 1362.9168,-141.8162"/>
<polygon fill="#191970" stroke="#191970" points="1366.2793,-140.8027 1360.7655,-131.7557 1359.4341,-142.2666 1366.2793,-140.8027"/>
</g>
<!-- Node36&#45;&gt;Node2 -->
<g id="edge70" class="edge">
<title>Node36&#45;&gt;Node2</title>
<path fill="none" stroke="#191970" d="M860.19,-285.1359C934.6128,-276.7471 1076.5196,-259.0128 1094,-244 1141.595,-203.1235 1150.3904,-122.6877 1151.8377,-85.5909"/>
<polygon fill="#191970" stroke="#191970" points="1155.3374,-85.6447 1152.0858,-75.5612 1148.3395,-85.4716 1155.3374,-85.6447"/>
</g>
<!-- Node36&#45;&gt;Node3 -->
<g id="edge72" class="edge">
<title>Node36&#45;&gt;Node3</title>
<path fill="none" stroke="#191970" d="M780.9348,-280.4869C747.5862,-269.4456 704.4316,-249.4514 724,-224 731.3614,-214.4255 793.5669,-199.5184 841.2997,-189.2847"/>
<polygon fill="#191970" stroke="#191970" points="842.185,-192.6749 851.2407,-187.1755 840.732,-185.8273 842.185,-192.6749"/>
</g>
<!-- Node36&#45;&gt;Node4 -->
<g id="edge71" class="edge">
<title>Node36&#45;&gt;Node4</title>
<path fill="none" stroke="#191970" d="M782.2705,-280.3913C761.4637,-273.0217 734.9701,-261.1684 716,-244 686.895,-217.6592 700.4389,-193.9671 671,-168 653.3368,-152.4198 629.5798,-141.4551 609.0337,-134.1494"/>
<polygon fill="#191970" stroke="#191970" points="610.1447,-130.8305 599.5505,-130.9499 607.9068,-137.4632 610.1447,-130.8305"/>
</g>
<!-- Node36&#45;&gt;Node16 -->
<g id="edge69" class="edge">
<title>Node36&#45;&gt;Node16</title>
<path fill="none" stroke="#191970" d="M772.3075,-280.4369C726.5399,-270.1849 654.2719,-253.9969 608.2793,-243.6946"/>
<polygon fill="#191970" stroke="#191970" points="608.8409,-240.2337 598.3177,-241.4632 607.3108,-247.0644 608.8409,-240.2337"/>
</g>
<!-- Node37&#45;&gt;Node7 -->
<g id="edge74" class="edge">
<title>Node37&#45;&gt;Node7</title>
<path fill="none" stroke="#191970" d="M1430.8458,-168.2455C1417.4973,-159.6534 1397.8414,-147.0014 1382.4617,-137.1018"/>
<polygon fill="#191970" stroke="#191970" points="1384.2836,-134.1121 1373.9806,-131.6427 1380.4949,-139.9982 1384.2836,-134.1121"/>
</g>
</g>
</svg>
