<?xml version="1.0" encoding="UTF-8" standalone="no"?>
<!DOCTYPE svg PUBLIC "-//W3C//DTD SVG 1.1//EN"
 "http://www.w3.org/Graphics/SVG/1.1/DTD/svg11.dtd">
<!-- Generated by graphviz version 2.40.1 (20161225.0304)
 -->
<!-- Title: osdk&#45;core/api/inc/dji_mission_base.hpp Pages: 1 -->
<svg width="421pt" height="207pt"
 viewBox="0.00 0.00 421.00 207.00" xmlns="http://www.w3.org/2000/svg" xmlns:xlink="http://www.w3.org/1999/xlink">
<g id="graph0" class="graph" transform="scale(1 1) rotate(0) translate(4 203)">
<title>osdk&#45;core/api/inc/dji_mission_base.hpp</title>
<polygon fill="#ffffff" stroke="transparent" points="-4,4 -4,-203 417,-203 417,4 -4,4"/>
<!-- Node0 -->
<g id="node1" class="node">
<title>Node0</title>
<g id="a_node1"><a xlink:title="Mission&#45;Base abstract class for DJI OSDK library.">
<polygon fill="#bfbfbf" stroke="#000000" points="186,-168.5 186,-198.5 290,-198.5 290,-168.5 186,-168.5"/>
<text text-anchor="start" x="194" y="-186.5" font-family="Helvetica,sans-Serif" font-size="10.00" fill="#000000">osdk&#45;core/api/inc/dji</text>
<text text-anchor="middle" x="238" y="-175.5" font-family="Helvetica,sans-Serif" font-size="10.00" fill="#000000">_mission_base.hpp</text>
</a>
</g>
</g>
<!-- Node1 -->
<g id="node2" class="node">
<title>Node1</title>
<g id="a_node2"><a xlink:href="dji__command_8hpp.html" target="_top" xlink:title="All DJI OSDK OpenProtocol Command IDs.">
<polygon fill="#ffffff" stroke="#000000" points="92.5,-112.5 92.5,-131.5 185.5,-131.5 185.5,-112.5 92.5,-112.5"/>
<text text-anchor="middle" x="139" y="-119.5" font-family="Helvetica,sans-Serif" font-size="10.00" fill="#000000">dji_command.hpp</text>
</a>
</g>
</g>
<!-- Node0&#45;&gt;Node1 -->
<g id="edge1" class="edge">
<title>Node0&#45;&gt;Node1</title>
<path fill="none" stroke="#191970" d="M213.7819,-168.4554C198.4227,-158.9141 178.6243,-146.6151 163.2575,-137.0691"/>
<polygon fill="#191970" stroke="#191970" points="164.6828,-133.8341 154.3415,-131.5303 160.989,-139.7802 164.6828,-133.8341"/>
</g>
<!-- Node7 -->
<g id="node8" class="node">
<title>Node7</title>
<g id="a_node8"><a xlink:href="dji__type_8hpp.html" target="_top" xlink:title="Data type and Data Structure definitions for use throughout DJI OSDK.">
<polygon fill="#ffffff" stroke="#000000" points="203.5,-112.5 203.5,-131.5 272.5,-131.5 272.5,-112.5 203.5,-112.5"/>
<text text-anchor="middle" x="238" y="-119.5" font-family="Helvetica,sans-Serif" font-size="10.00" fill="#000000">dji_type.hpp</text>
</a>
</g>
</g>
<!-- Node0&#45;&gt;Node7 -->
<g id="edge7" class="edge">
<title>Node0&#45;&gt;Node7</title>
<path fill="none" stroke="#191970" d="M238,-168.2977C238,-160.3834 238,-150.6043 238,-142.0759"/>
<polygon fill="#191970" stroke="#191970" points="241.5001,-141.8469 238,-131.8469 234.5001,-141.847 241.5001,-141.8469"/>
</g>
<!-- Node9 -->
<g id="node10" class="node">
<title>Node9</title>
<g id="a_node10"><a xlink:href="dji__vehicle__callback_8hpp.html" target="_top" xlink:title="Type definition for new Vehicle&#45;style callbacks.">
<polygon fill="#ffffff" stroke="#000000" points="291,-112.5 291,-131.5 413,-131.5 413,-112.5 291,-112.5"/>
<text text-anchor="middle" x="352" y="-119.5" font-family="Helvetica,sans-Serif" font-size="10.00" fill="#000000">dji_vehicle_callback.hpp</text>
</a>
</g>
</g>
<!-- Node0&#45;&gt;Node9 -->
<g id="edge10" class="edge">
<title>Node0&#45;&gt;Node9</title>
<path fill="none" stroke="#191970" d="M265.8875,-168.4554C283.9076,-158.734 307.2341,-146.15 325.0632,-136.5317"/>
<polygon fill="#191970" stroke="#191970" points="327.1948,-139.3586 334.334,-131.5303 323.8713,-133.1979 327.1948,-139.3586"/>
</g>
<!-- Node2 -->
<g id="node3" class="node">
<title>Node2</title>
<g id="a_node3"><a xlink:href="dji__error_8hpp.html" target="_top" xlink:title="All DJI OSDK OpenProtocol ACK Error Codes.">
<polygon fill="#ffffff" stroke="#000000" points="71,-56.5 71,-75.5 141,-75.5 141,-56.5 71,-56.5"/>
<text text-anchor="middle" x="106" y="-63.5" font-family="Helvetica,sans-Serif" font-size="10.00" fill="#000000">dji_error.hpp</text>
</a>
</g>
</g>
<!-- Node1&#45;&gt;Node2 -->
<g id="edge2" class="edge">
<title>Node1&#45;&gt;Node2</title>
<path fill="none" stroke="#191970" d="M133.2518,-112.2455C128.7565,-104.617 122.3752,-93.7881 116.9175,-84.5267"/>
<polygon fill="#191970" stroke="#191970" points="119.7747,-82.4811 111.6823,-75.6427 113.7439,-86.035 119.7747,-82.4811"/>
</g>
<!-- Node6 -->
<g id="node7" class="node">
<title>Node6</title>
<g id="a_node7"><a xlink:title=" ">
<polygon fill="#ffffff" stroke="#bfbfbf" points="159.5,-56.5 159.5,-75.5 208.5,-75.5 208.5,-56.5 159.5,-56.5"/>
<text text-anchor="middle" x="184" y="-63.5" font-family="Helvetica,sans-Serif" font-size="10.00" fill="#000000">stdint.h</text>
</a>
</g>
</g>
<!-- Node1&#45;&gt;Node6 -->
<g id="edge6" class="edge">
<title>Node1&#45;&gt;Node6</title>
<path fill="none" stroke="#191970" d="M146.8384,-112.2455C153.162,-104.3761 162.2224,-93.101 169.8136,-83.6542"/>
<polygon fill="#191970" stroke="#191970" points="172.7158,-85.6302 176.2514,-75.6427 167.2592,-81.2454 172.7158,-85.6302"/>
</g>
<!-- Node3 -->
<g id="node4" class="node">
<title>Node3</title>
<g id="a_node4"><a xlink:title=" ">
<polygon fill="#ffffff" stroke="#bfbfbf" points="0,-.5 0,-19.5 46,-19.5 46,-.5 0,-.5"/>
<text text-anchor="middle" x="23" y="-7.5" font-family="Helvetica,sans-Serif" font-size="10.00" fill="#000000">cstdint</text>
</a>
</g>
</g>
<!-- Node2&#45;&gt;Node3 -->
<g id="edge3" class="edge">
<title>Node2&#45;&gt;Node3</title>
<path fill="none" stroke="#191970" d="M91.5425,-56.2455C78.9268,-47.7337 60.4056,-35.2375 45.7955,-25.3801"/>
<polygon fill="#191970" stroke="#191970" points="47.5391,-22.3343 37.2918,-19.6427 43.6239,-28.1371 47.5391,-22.3343"/>
</g>
<!-- Node4 -->
<g id="node5" class="node">
<title>Node4</title>
<g id="a_node5"><a xlink:title=" ">
<polygon fill="#ffffff" stroke="#bfbfbf" points="64.5,-.5 64.5,-19.5 147.5,-19.5 147.5,-.5 64.5,-.5"/>
<text text-anchor="middle" x="106" y="-7.5" font-family="Helvetica,sans-Serif" font-size="10.00" fill="#000000">dji_macros.hpp</text>
</a>
</g>
</g>
<!-- Node2&#45;&gt;Node4 -->
<g id="edge4" class="edge">
<title>Node2&#45;&gt;Node4</title>
<path fill="none" stroke="#191970" d="M106,-56.2455C106,-48.9382 106,-38.6944 106,-29.7046"/>
<polygon fill="#191970" stroke="#191970" points="109.5001,-29.6426 106,-19.6427 102.5001,-29.6427 109.5001,-29.6426"/>
</g>
<!-- Node5 -->
<g id="node6" class="node">
<title>Node5</title>
<g id="a_node6"><a xlink:title=" ">
<polygon fill="#ffffff" stroke="#bfbfbf" points="165.5,-.5 165.5,-19.5 200.5,-19.5 200.5,-.5 165.5,-.5"/>
<text text-anchor="middle" x="183" y="-7.5" font-family="Helvetica,sans-Serif" font-size="10.00" fill="#000000">map</text>
</a>
</g>
</g>
<!-- Node2&#45;&gt;Node5 -->
<g id="edge5" class="edge">
<title>Node2&#45;&gt;Node5</title>
<path fill="none" stroke="#191970" d="M119.4124,-56.2455C131.0057,-47.814 147.9748,-35.4729 161.4678,-25.6598"/>
<polygon fill="#191970" stroke="#191970" points="163.7126,-28.355 169.7413,-19.6427 159.5953,-22.6938 163.7126,-28.355"/>
</g>
<!-- Node7&#45;&gt;Node6 -->
<g id="edge9" class="edge">
<title>Node7&#45;&gt;Node6</title>
<path fill="none" stroke="#191970" d="M228.5939,-112.2455C220.8507,-104.2155 209.688,-92.6394 200.4682,-83.0781"/>
<polygon fill="#191970" stroke="#191970" points="202.7591,-80.4117 193.2983,-75.6427 197.7202,-85.2706 202.7591,-80.4117"/>
</g>
<!-- Node8 -->
<g id="node9" class="node">
<title>Node8</title>
<g id="a_node9"><a xlink:title=" ">
<polygon fill="#ffffff" stroke="#bfbfbf" points="226.5,-56.5 226.5,-75.5 269.5,-75.5 269.5,-56.5 226.5,-56.5"/>
<text text-anchor="middle" x="248" y="-63.5" font-family="Helvetica,sans-Serif" font-size="10.00" fill="#000000">cstdio</text>
</a>
</g>
</g>
<!-- Node7&#45;&gt;Node8 -->
<g id="edge8" class="edge">
<title>Node7&#45;&gt;Node8</title>
<path fill="none" stroke="#191970" d="M239.7419,-112.2455C241.0467,-104.9382 242.876,-94.6944 244.4813,-85.7046"/>
<polygon fill="#191970" stroke="#191970" points="247.9656,-86.1022 246.2781,-75.6427 241.0746,-84.8717 247.9656,-86.1022"/>
</g>
<!-- Node10 -->
<g id="node11" class="node">
<title>Node10</title>
<g id="a_node11"><a xlink:title=" ">
<polygon fill="#ffffff" stroke="#bfbfbf" points="296.5,-56.5 296.5,-75.5 407.5,-75.5 407.5,-56.5 296.5,-56.5"/>
<text text-anchor="middle" x="352" y="-63.5" font-family="Helvetica,sans-Serif" font-size="10.00" fill="#000000">dji_open_protocol.hpp</text>
</a>
</g>
</g>
<!-- Node9&#45;&gt;Node10 -->
<g id="edge11" class="edge">
<title>Node9&#45;&gt;Node10</title>
<path fill="none" stroke="#191970" d="M352,-112.2455C352,-104.9382 352,-94.6944 352,-85.7046"/>
<polygon fill="#191970" stroke="#191970" points="355.5001,-85.6426 352,-75.6427 348.5001,-85.6427 355.5001,-85.6426"/>
</g>
</g>
</svg>
