<?xml version="1.0" encoding="UTF-8" standalone="no"?>
<!DOCTYPE svg PUBLIC "-//W3C//DTD SVG 1.1//EN"
 "http://www.w3.org/Graphics/SVG/1.1/DTD/svg11.dtd">
<!-- Generated by graphviz version 2.38.0 (20140413.2041)
 -->
<!-- Title: osdk&#45;core/api/inc/dji_hardware_sync.hpp Pages: 1 -->
<svg width="320pt" height="151pt"
 viewBox="0.00 0.00 320.00 151.00" xmlns="http://www.w3.org/2000/svg" xmlns:xlink="http://www.w3.org/1999/xlink">
<g id="graph0" class="graph" transform="scale(1 1) rotate(0) translate(4 147)">
<title>osdk&#45;core/api/inc/dji_hardware_sync.hpp</title>
<polygon fill="white" stroke="none" points="-4,4 -4,-147 316,-147 316,4 -4,4"/>
<!-- Node0 -->
<g id="node1" class="node"><title>Node0</title>
<g id="a_node1"><a xlink:title="Hardware Sync API for DJI OSDK.">
<polygon fill="#bfbfbf" stroke="black" points="138,-112.5 138,-142.5 245,-142.5 245,-112.5 138,-112.5"/>
<text text-anchor="start" x="146" y="-130.5" font-family="Helvetica,sans-Serif" font-size="10.00">osdk&#45;core/api/inc/dji</text>
<text text-anchor="middle" x="191.5" y="-119.5" font-family="Helvetica,sans-Serif" font-size="10.00">_hardware_sync.hpp</text>
</a>
</g>
</g>
<!-- Node1 -->
<g id="node2" class="node"><title>Node1</title>
<g id="a_node2"><a xlink:href="dji__type_8hpp.html" target="_top" xlink:title="Data type and Data Structure definitions for use throughout DJI OSDK.">
<polygon fill="white" stroke="black" points="43,-56.5 43,-75.5 112,-75.5 112,-56.5 43,-56.5"/>
<text text-anchor="middle" x="77.5" y="-63.5" font-family="Helvetica,sans-Serif" font-size="10.00">dji_type.hpp</text>
</a>
</g>
</g>
<!-- Node0&#45;&gt;Node1 -->
<g id="edge1" class="edge"><title>Node0&#45;&gt;Node1</title>
<path fill="none" stroke="midnightblue" d="M164.484,-112.399C145.869,-102.684 121.29,-89.8551 103.009,-80.3137"/>
<polygon fill="midnightblue" stroke="midnightblue" points="104.573,-77.182 94.088,-75.6578 101.334,-83.3876 104.573,-77.182"/>
</g>
<!-- Node4 -->
<g id="node5" class="node"><title>Node4</title>
<g id="a_node5"><a xlink:href="dji__vehicle__callback_8hpp.html" target="_top" xlink:title="Type definition for new Vehicle&#45;style callbacks.">
<polygon fill="white" stroke="black" points="130.5,-56.5 130.5,-75.5 252.5,-75.5 252.5,-56.5 130.5,-56.5"/>
<text text-anchor="middle" x="191.5" y="-63.5" font-family="Helvetica,sans-Serif" font-size="10.00">dji_vehicle_callback.hpp</text>
</a>
</g>
</g>
<!-- Node0&#45;&gt;Node4 -->
<g id="edge4" class="edge"><title>Node0&#45;&gt;Node4</title>
<path fill="none" stroke="midnightblue" d="M191.5,-112.399C191.5,-104.466 191.5,-94.458 191.5,-85.8583"/>
<polygon fill="midnightblue" stroke="midnightblue" points="195,-85.6577 191.5,-75.6578 188,-85.6578 195,-85.6577"/>
</g>
<!-- Node6 -->
<g id="node7" class="node"><title>Node6</title>
<g id="a_node7"><a xlink:title=" ">
<polygon fill="white" stroke="#bfbfbf" points="271,-56.5 271,-75.5 312,-75.5 312,-56.5 271,-56.5"/>
<text text-anchor="middle" x="291.5" y="-63.5" font-family="Helvetica,sans-Serif" font-size="10.00">string</text>
</a>
</g>
</g>
<!-- Node0&#45;&gt;Node6 -->
<g id="edge6" class="edge"><title>Node0&#45;&gt;Node6</title>
<path fill="none" stroke="midnightblue" d="M215.199,-112.399C231.228,-102.862 252.299,-90.3248 268.236,-80.8422"/>
<polygon fill="midnightblue" stroke="midnightblue" points="270.145,-83.779 276.949,-75.6578 266.566,-77.7633 270.145,-83.779"/>
</g>
<!-- Node2 -->
<g id="node3" class="node"><title>Node2</title>
<g id="a_node3"><a xlink:title=" ">
<polygon fill="white" stroke="#bfbfbf" points="0,-0.5 0,-19.5 43,-19.5 43,-0.5 0,-0.5"/>
<text text-anchor="middle" x="21.5" y="-7.5" font-family="Helvetica,sans-Serif" font-size="10.00">cstdio</text>
</a>
</g>
</g>
<!-- Node1&#45;&gt;Node2 -->
<g id="edge2" class="edge"><title>Node1&#45;&gt;Node2</title>
<path fill="none" stroke="midnightblue" d="M68.5026,-56.324C60.3056,-48.4196 47.9945,-36.5482 38.028,-26.9377"/>
<polygon fill="midnightblue" stroke="midnightblue" points="40.289,-24.2558 30.6611,-19.8339 35.4301,-29.2947 40.289,-24.2558"/>
</g>
<!-- Node3 -->
<g id="node4" class="node"><title>Node3</title>
<g id="a_node4"><a xlink:title=" ">
<polygon fill="white" stroke="#bfbfbf" points="61,-0.5 61,-19.5 110,-19.5 110,-0.5 61,-0.5"/>
<text text-anchor="middle" x="85.5" y="-7.5" font-family="Helvetica,sans-Serif" font-size="10.00">stdint.h</text>
</a>
</g>
</g>
<!-- Node1&#45;&gt;Node3 -->
<g id="edge3" class="edge"><title>Node1&#45;&gt;Node3</title>
<path fill="none" stroke="midnightblue" d="M78.821,-56.083C79.8811,-48.9272 81.4059,-38.6353 82.7309,-29.6911"/>
<polygon fill="midnightblue" stroke="midnightblue" points="86.2002,-30.1561 84.2035,-19.7511 79.2758,-29.1302 86.2002,-30.1561"/>
</g>
<!-- Node5 -->
<g id="node6" class="node"><title>Node5</title>
<g id="a_node6"><a xlink:title=" ">
<polygon fill="white" stroke="#bfbfbf" points="136,-0.5 136,-19.5 247,-19.5 247,-0.5 136,-0.5"/>
<text text-anchor="middle" x="191.5" y="-7.5" font-family="Helvetica,sans-Serif" font-size="10.00">dji_open_protocol.hpp</text>
</a>
</g>
</g>
<!-- Node4&#45;&gt;Node5 -->
<g id="edge5" class="edge"><title>Node4&#45;&gt;Node5</title>
<path fill="none" stroke="midnightblue" d="M191.5,-56.083C191.5,-49.0059 191.5,-38.8611 191.5,-29.9865"/>
<polygon fill="midnightblue" stroke="midnightblue" points="195,-29.751 191.5,-19.7511 188,-29.7511 195,-29.751"/>
</g>
</g>
</svg>
