<?xml version="1.0" encoding="UTF-8" standalone="no"?>
<!DOCTYPE svg PUBLIC "-//W3C//DTD SVG 1.1//EN"
 "http://www.w3.org/Graphics/SVG/1.1/DTD/svg11.dtd">
<!-- Generated by graphviz version 2.38.0 (20140413.2041)
 -->
<!-- Title: osdk&#45;core/api/src/dji_waypoint.cpp Pages: 1 -->
<svg width="1821pt" height="431pt"
 viewBox="0.00 0.00 1821.34 431.00" xmlns="http://www.w3.org/2000/svg" xmlns:xlink="http://www.w3.org/1999/xlink">
<g id="graph0" class="graph" transform="scale(1 1) rotate(0) translate(4 427)">
<title>osdk&#45;core/api/src/dji_waypoint.cpp</title>
<polygon fill="white" stroke="none" points="-4,4 -4,-427 1817.34,-427 1817.34,4 -4,4"/>
<!-- Node1 -->
<g id="node1" class="node"><title>Node1</title>
<polygon fill="#bfbfbf" stroke="black" points="114.345,-392.5 114.345,-422.5 218.345,-422.5 218.345,-392.5 114.345,-392.5"/>
<text text-anchor="start" x="122.345" y="-410.5" font-family="Helvetica,sans-Serif" font-size="10.00">osdk&#45;core/api/src/dji</text>
<text text-anchor="middle" x="166.345" y="-399.5" font-family="Helvetica,sans-Serif" font-size="10.00">_waypoint.cpp</text>
</g>
<!-- Node2 -->
<g id="node2" class="node"><title>Node2</title>
<g id="a_node2"><a xlink:href="dji__waypoint_8hpp.html" target="_top" xlink:title="Implementation of GPS Waypoint Missions for DJI OSDK. ">
<polygon fill="white" stroke="black" points="79.8446,-224.5 79.8446,-243.5 168.845,-243.5 168.845,-224.5 79.8446,-224.5"/>
<text text-anchor="middle" x="124.345" y="-231.5" font-family="Helvetica,sans-Serif" font-size="10.00">dji_waypoint.hpp</text>
</a>
</g>
</g>
<!-- Node1&#45;&gt;Node2 -->
<g id="edge1" class="edge"><title>Node1&#45;&gt;Node2</title>
<path fill="none" stroke="midnightblue" d="M152.226,-392.187C134.464,-373.068 104.888,-337.257 93.3446,-300 87.9934,-282.728 98.5823,-264.226 108.809,-251.396"/>
<polygon fill="midnightblue" stroke="midnightblue" points="111.738,-253.359 115.63,-243.505 106.443,-248.782 111.738,-253.359"/>
</g>
<!-- Node11 -->
<g id="node11" class="node"><title>Node11</title>
<g id="a_node11"><a xlink:href="dji__mission__manager_8hpp.html" target="_top" xlink:title="Mission&#45;Manager API for DJI OSDK library. ">
<polygon fill="white" stroke="black" points="102.845,-280.5 102.845,-299.5 229.845,-299.5 229.845,-280.5 102.845,-280.5"/>
<text text-anchor="middle" x="166.345" y="-287.5" font-family="Helvetica,sans-Serif" font-size="10.00">dji_mission_manager.hpp</text>
</a>
</g>
</g>
<!-- Node1&#45;&gt;Node11 -->
<g id="edge12" class="edge"><title>Node1&#45;&gt;Node11</title>
<path fill="none" stroke="midnightblue" d="M166.345,-392.337C166.345,-371.622 166.345,-333.016 166.345,-309.899"/>
<polygon fill="midnightblue" stroke="midnightblue" points="169.845,-309.669 166.345,-299.669 162.845,-309.669 169.845,-309.669"/>
</g>
<!-- Node15 -->
<g id="node15" class="node"><title>Node15</title>
<g id="a_node15"><a xlink:href="dji__vehicle_8hpp.html" target="_top" xlink:title="Vehicle API for DJI onboardSDK library. ">
<polygon fill="white" stroke="black" points="874.845,-336.5 874.845,-355.5 955.845,-355.5 955.845,-336.5 874.845,-336.5"/>
<text text-anchor="middle" x="915.345" y="-343.5" font-family="Helvetica,sans-Serif" font-size="10.00">dji_vehicle.hpp</text>
</a>
</g>
</g>
<!-- Node1&#45;&gt;Node15 -->
<g id="edge19" class="edge"><title>Node1&#45;&gt;Node15</title>
<path fill="none" stroke="midnightblue" d="M218.418,-402.363C355.994,-391.434 727.911,-361.89 864.305,-351.055"/>
<polygon fill="midnightblue" stroke="midnightblue" points="864.786,-354.527 874.477,-350.246 864.231,-347.549 864.786,-354.527"/>
</g>
<!-- Node3 -->
<g id="node3" class="node"><title>Node3</title>
<g id="a_node3"><a xlink:href="dji__mission__base_8hpp.html" target="_top" xlink:title="Mission&#45;Base abstract class for DJI OSDK library. ">
<polygon fill="white" stroke="black" points="224.345,-168.5 224.345,-187.5 334.345,-187.5 334.345,-168.5 224.345,-168.5"/>
<text text-anchor="middle" x="279.345" y="-175.5" font-family="Helvetica,sans-Serif" font-size="10.00">dji_mission_base.hpp</text>
</a>
</g>
</g>
<!-- Node2&#45;&gt;Node3 -->
<g id="edge2" class="edge"><title>Node2&#45;&gt;Node3</title>
<path fill="none" stroke="midnightblue" d="M148.905,-224.444C174.867,-215.399 216.013,-201.064 245.142,-190.916"/>
<polygon fill="midnightblue" stroke="midnightblue" points="246.607,-194.112 254.899,-187.516 244.304,-187.501 246.607,-194.112"/>
</g>
<!-- Node4 -->
<g id="node4" class="node"><title>Node4</title>
<g id="a_node4"><a xlink:href="dji__command_8hpp.html" target="_top" xlink:title="All DJI OSDK OpenProtocol Command IDs. ">
<polygon fill="white" stroke="black" points="225.845,-112.5 225.845,-131.5 318.845,-131.5 318.845,-112.5 225.845,-112.5"/>
<text text-anchor="middle" x="272.345" y="-119.5" font-family="Helvetica,sans-Serif" font-size="10.00">dji_command.hpp</text>
</a>
</g>
</g>
<!-- Node3&#45;&gt;Node4 -->
<g id="edge3" class="edge"><title>Node3&#45;&gt;Node4</title>
<path fill="none" stroke="midnightblue" d="M278.189,-168.083C277.261,-160.927 275.927,-150.635 274.767,-141.691"/>
<polygon fill="midnightblue" stroke="midnightblue" points="278.236,-141.218 273.479,-131.751 271.294,-142.118 278.236,-141.218"/>
</g>
<!-- Node7 -->
<g id="node7" class="node"><title>Node7</title>
<g id="a_node7"><a xlink:href="dji__type_8hpp.html" target="_top" xlink:title="Data type and Data Structure definitions for use throughout DJI OSDK. ">
<polygon fill="white" stroke="black" points="407.845,-112.5 407.845,-131.5 476.845,-131.5 476.845,-112.5 407.845,-112.5"/>
<text text-anchor="middle" x="442.345" y="-119.5" font-family="Helvetica,sans-Serif" font-size="10.00">dji_type.hpp</text>
</a>
</g>
</g>
<!-- Node3&#45;&gt;Node7 -->
<g id="edge7" class="edge"><title>Node3&#45;&gt;Node7</title>
<path fill="none" stroke="midnightblue" d="M305.172,-168.444C332.594,-159.359 376.122,-144.939 406.777,-134.783"/>
<polygon fill="midnightblue" stroke="midnightblue" points="408.246,-137.984 416.638,-131.516 406.044,-131.339 408.246,-137.984"/>
</g>
<!-- Node9 -->
<g id="node9" class="node"><title>Node9</title>
<g id="a_node9"><a xlink:href="dji__vehicle__callback_8hpp.html" target="_top" xlink:title="Type definition for new Vehicle&#45;style callbacks. ">
<polygon fill="white" stroke="black" points="1259.34,-112.5 1259.34,-131.5 1381.34,-131.5 1381.34,-112.5 1259.34,-112.5"/>
<text text-anchor="middle" x="1320.34" y="-119.5" font-family="Helvetica,sans-Serif" font-size="10.00">dji_vehicle_callback.hpp</text>
</a>
</g>
</g>
<!-- Node3&#45;&gt;Node9 -->
<g id="edge10" class="edge"><title>Node3&#45;&gt;Node9</title>
<path fill="none" stroke="midnightblue" d="M334.578,-174.135C509.772,-165.047 1052.98,-136.869 1248.94,-126.704"/>
<polygon fill="midnightblue" stroke="midnightblue" points="1249.31,-130.189 1259.12,-126.176 1248.95,-123.199 1249.31,-130.189"/>
</g>
<!-- Node5 -->
<g id="node5" class="node"><title>Node5</title>
<g id="a_node5"><a xlink:href="dji__error_8hpp.html" target="_top" xlink:title="All DJI OSDK OpenProtocol ACK Error Codes. ">
<polygon fill="white" stroke="black" points="286.345,-56.5 286.345,-75.5 356.345,-75.5 356.345,-56.5 286.345,-56.5"/>
<text text-anchor="middle" x="321.345" y="-63.5" font-family="Helvetica,sans-Serif" font-size="10.00">dji_error.hpp</text>
</a>
</g>
</g>
<!-- Node4&#45;&gt;Node5 -->
<g id="edge4" class="edge"><title>Node4&#45;&gt;Node5</title>
<path fill="none" stroke="midnightblue" d="M280.436,-112.083C287.5,-104.298 297.932,-92.8015 306.493,-83.3665"/>
<polygon fill="midnightblue" stroke="midnightblue" points="309.276,-85.5087 313.404,-75.7511 304.092,-80.8047 309.276,-85.5087"/>
</g>
<!-- Node6 -->
<g id="node6" class="node"><title>Node6</title>
<polygon fill="white" stroke="#bfbfbf" points="296.845,-0.5 296.845,-19.5 345.845,-19.5 345.845,-0.5 296.845,-0.5"/>
<text text-anchor="middle" x="321.345" y="-7.5" font-family="Helvetica,sans-Serif" font-size="10.00">stdint.h</text>
</g>
<!-- Node4&#45;&gt;Node6 -->
<g id="edge6" class="edge"><title>Node4&#45;&gt;Node6</title>
<path fill="none" stroke="midnightblue" d="M271.182,-112.122C269.88,-99.1528 268.936,-74.5562 277.345,-56 282.593,-44.418 292.162,-34.0668 301.039,-26.2208"/>
<polygon fill="midnightblue" stroke="midnightblue" points="303.38,-28.8273 308.854,-19.7561 298.918,-23.4338 303.38,-28.8273"/>
</g>
<!-- Node5&#45;&gt;Node6 -->
<g id="edge5" class="edge"><title>Node5&#45;&gt;Node6</title>
<path fill="none" stroke="midnightblue" d="M321.345,-56.083C321.345,-49.0059 321.345,-38.8611 321.345,-29.9865"/>
<polygon fill="midnightblue" stroke="midnightblue" points="324.845,-29.751 321.345,-19.7511 317.845,-29.7511 324.845,-29.751"/>
</g>
<!-- Node7&#45;&gt;Node6 -->
<g id="edge9" class="edge"><title>Node7&#45;&gt;Node6</title>
<path fill="none" stroke="midnightblue" d="M442.543,-112.337C442.392,-98.7507 440.18,-72.305 426.345,-56 408.461,-34.9231 378.927,-23.4578 355.73,-17.3857"/>
<polygon fill="midnightblue" stroke="midnightblue" points="356.446,-13.9584 345.906,-15.0306 354.814,-20.7655 356.446,-13.9584"/>
</g>
<!-- Node8 -->
<g id="node8" class="node"><title>Node8</title>
<polygon fill="white" stroke="#bfbfbf" points="374.845,-56.5 374.845,-75.5 417.845,-75.5 417.845,-56.5 374.845,-56.5"/>
<text text-anchor="middle" x="396.345" y="-63.5" font-family="Helvetica,sans-Serif" font-size="10.00">cstdio</text>
</g>
<!-- Node7&#45;&gt;Node8 -->
<g id="edge8" class="edge"><title>Node7&#45;&gt;Node8</title>
<path fill="none" stroke="midnightblue" d="M434.749,-112.083C428.117,-104.298 418.324,-92.8015 410.286,-83.3665"/>
<polygon fill="midnightblue" stroke="midnightblue" points="412.948,-81.0939 403.799,-75.7511 407.62,-85.6332 412.948,-81.0939"/>
</g>
<!-- Node10 -->
<g id="node10" class="node"><title>Node10</title>
<polygon fill="white" stroke="#bfbfbf" points="1000.84,-56.5 1000.84,-75.5 1111.84,-75.5 1111.84,-56.5 1000.84,-56.5"/>
<text text-anchor="middle" x="1056.34" y="-63.5" font-family="Helvetica,sans-Serif" font-size="10.00">dji_open_protocol.hpp</text>
</g>
<!-- Node9&#45;&gt;Node10 -->
<g id="edge11" class="edge"><title>Node9&#45;&gt;Node10</title>
<path fill="none" stroke="midnightblue" d="M1278.51,-112.444C1232.27,-102.984 1157.73,-87.7384 1107.91,-77.5472"/>
<polygon fill="midnightblue" stroke="midnightblue" points="1108.48,-74.0915 1097.98,-75.5164 1107.08,-80.9495 1108.48,-74.0915"/>
</g>
<!-- Node11&#45;&gt;Node2 -->
<g id="edge17" class="edge"><title>Node11&#45;&gt;Node2</title>
<path fill="none" stroke="midnightblue" d="M159.409,-280.083C153.415,-272.377 144.593,-261.033 137.297,-251.653"/>
<polygon fill="midnightblue" stroke="midnightblue" points="140.053,-249.496 131.151,-243.751 134.528,-253.793 140.053,-249.496"/>
</g>
<!-- Node12 -->
<g id="node12" class="node"><title>Node12</title>
<g id="a_node12"><a xlink:href="dji__hotpoint_8hpp.html" target="_top" xlink:title="Implementation of HotPoint (Point of Interest) Missions for DJI OSDK. ">
<polygon fill="white" stroke="black" points="286.845,-224.5 286.845,-243.5 371.845,-243.5 371.845,-224.5 286.845,-224.5"/>
<text text-anchor="middle" x="329.345" y="-231.5" font-family="Helvetica,sans-Serif" font-size="10.00">dji_hotpoint.hpp</text>
</a>
</g>
</g>
<!-- Node11&#45;&gt;Node12 -->
<g id="edge13" class="edge"><title>Node11&#45;&gt;Node12</title>
<path fill="none" stroke="midnightblue" d="M192.172,-280.444C219.594,-271.359 263.122,-256.939 293.777,-246.783"/>
<polygon fill="midnightblue" stroke="midnightblue" points="295.246,-249.984 303.638,-243.516 293.044,-243.339 295.246,-249.984"/>
</g>
<!-- Node14 -->
<g id="node14" class="node"><title>Node14</title>
<polygon fill="white" stroke="#bfbfbf" points="186.345,-224.5 186.345,-243.5 230.345,-243.5 230.345,-224.5 186.345,-224.5"/>
<text text-anchor="middle" x="208.345" y="-231.5" font-family="Helvetica,sans-Serif" font-size="10.00">vector</text>
</g>
<!-- Node11&#45;&gt;Node14 -->
<g id="edge18" class="edge"><title>Node11&#45;&gt;Node14</title>
<path fill="none" stroke="midnightblue" d="M173.28,-280.083C179.274,-272.377 188.096,-261.033 195.392,-251.653"/>
<polygon fill="midnightblue" stroke="midnightblue" points="198.161,-253.793 201.538,-243.751 192.636,-249.496 198.161,-253.793"/>
</g>
<!-- Node12&#45;&gt;Node3 -->
<g id="edge14" class="edge"><title>Node12&#45;&gt;Node3</title>
<path fill="none" stroke="midnightblue" d="M321.088,-224.083C313.88,-216.298 303.235,-204.801 294.499,-195.367"/>
<polygon fill="midnightblue" stroke="midnightblue" points="296.81,-192.711 287.447,-187.751 291.673,-197.467 296.81,-192.711"/>
</g>
<!-- Node13 -->
<g id="node13" class="node"><title>Node13</title>
<g id="a_node13"><a xlink:href="dji__telemetry_8hpp.html" target="_top" xlink:title="Enumeration of all telemetry data types, structures and maps. ">
<polygon fill="white" stroke="black" points="784.845,-168.5 784.845,-187.5 875.845,-187.5 875.845,-168.5 784.845,-168.5"/>
<text text-anchor="middle" x="830.345" y="-175.5" font-family="Helvetica,sans-Serif" font-size="10.00">dji_telemetry.hpp</text>
</a>
</g>
</g>
<!-- Node12&#45;&gt;Node13 -->
<g id="edge15" class="edge"><title>Node12&#45;&gt;Node13</title>
<path fill="none" stroke="midnightblue" d="M371.877,-229.588C449.616,-223.16 620.067,-208.185 774.603,-188.018"/>
<polygon fill="midnightblue" stroke="midnightblue" points="775.3,-191.456 784.758,-186.682 774.387,-184.516 775.3,-191.456"/>
</g>
<!-- Node13&#45;&gt;Node7 -->
<g id="edge16" class="edge"><title>Node13&#45;&gt;Node7</title>
<path fill="none" stroke="midnightblue" d="M784.741,-169.437C781.563,-168.941 778.407,-168.457 775.345,-168 672.319,-152.613 551.008,-136.798 487.042,-128.638"/>
<polygon fill="midnightblue" stroke="midnightblue" points="487.267,-125.138 476.905,-127.348 486.383,-132.082 487.267,-125.138"/>
</g>
<!-- Node15&#45;&gt;Node4 -->
<g id="edge28" class="edge"><title>Node15&#45;&gt;Node4</title>
<path fill="none" stroke="midnightblue" d="M874.623,-345.184C715.469,-345.585 140.913,-343.952 73.3446,-300 19.7775,-265.156 -24.7442,-216.941 16.3446,-168 41.2869,-138.291 148.189,-128.19 215.716,-124.76"/>
<polygon fill="midnightblue" stroke="midnightblue" points="215.964,-128.252 225.787,-124.282 215.633,-121.26 215.964,-128.252"/>
</g>
<!-- Node15&#45;&gt;Node7 -->
<g id="edge67" class="edge"><title>Node15&#45;&gt;Node7</title>
<path fill="none" stroke="midnightblue" d="M874.705,-344.068C766.031,-341.169 474.947,-330.597 445.345,-300 403.706,-256.963 423.713,-176.904 435.648,-141.109"/>
<polygon fill="midnightblue" stroke="midnightblue" points="439.007,-142.106 439.015,-131.512 432.402,-139.789 439.007,-142.106"/>
</g>
<!-- Node15&#45;&gt;Node9 -->
<g id="edge68" class="edge"><title>Node15&#45;&gt;Node9</title>
<path fill="none" stroke="midnightblue" d="M955.855,-344.682C1058.63,-343.342 1327.06,-336.36 1407.34,-300 1446.3,-282.358 1486.2,-261.874 1466.34,-224 1442.87,-179.211 1389.51,-150.346 1354.22,-135.391"/>
<polygon fill="midnightblue" stroke="midnightblue" points="1355.37,-132.078 1344.78,-131.54 1352.72,-138.559 1355.37,-132.078"/>
</g>
<!-- Node15&#45;&gt;Node10 -->
<g id="edge59" class="edge"><title>Node15&#45;&gt;Node10</title>
<path fill="none" stroke="midnightblue" d="M956.075,-344.015C1109.41,-340.129 1646.9,-324.85 1719.34,-300 1767.39,-283.519 1813.34,-285.793 1813.34,-235 1813.34,-235 1813.34,-235 1813.34,-177 1813.34,-143.759 1804.55,-129.597 1776.34,-112 1721.67,-77.8855 1289.53,-69.5385 1122.2,-67.577"/>
<polygon fill="midnightblue" stroke="midnightblue" points="1122.08,-64.0755 1112.04,-67.462 1122,-71.0751 1122.08,-64.0755"/>
</g>
<!-- Node15&#45;&gt;Node11 -->
<g id="edge53" class="edge"><title>Node15&#45;&gt;Node11</title>
<path fill="none" stroke="midnightblue" d="M874.826,-342.961C770.295,-337.553 482.994,-321.758 244.345,-300 243.046,-299.882 241.736,-299.76 240.417,-299.634"/>
<polygon fill="midnightblue" stroke="midnightblue" points="240.467,-296.122 230.17,-298.617 239.775,-303.088 240.467,-296.122"/>
</g>
<!-- Node16 -->
<g id="node16" class="node"><title>Node16</title>
<polygon fill="white" stroke="#bfbfbf" points="791.345,-112.5 791.345,-131.5 837.345,-131.5 837.345,-112.5 791.345,-112.5"/>
<text text-anchor="middle" x="814.345" y="-119.5" font-family="Helvetica,sans-Serif" font-size="10.00">cstdint</text>
</g>
<!-- Node15&#45;&gt;Node16 -->
<g id="edge20" class="edge"><title>Node15&#45;&gt;Node16</title>
<path fill="none" stroke="midnightblue" d="M874.586,-344.811C803.26,-343.521 660.415,-336.342 629.345,-300 623.568,-293.244 624.236,-287.274 629.345,-280 698.59,-181.403 815.099,-286.597 884.345,-188 898.966,-167.181 870.929,-147.973 846.108,-135.921"/>
<polygon fill="midnightblue" stroke="midnightblue" points="847.396,-132.66 836.848,-131.663 844.472,-139.021 847.396,-132.66"/>
</g>
<!-- Node17 -->
<g id="node17" class="node"><title>Node17</title>
<g id="a_node17"><a xlink:href="dji__broadcast_8hpp.html" target="_top" xlink:title="Broadcast Telemetry API for DJI onboardSDK library. ">
<polygon fill="white" stroke="black" points="1112.84,-224.5 1112.84,-243.5 1205.84,-243.5 1205.84,-224.5 1112.84,-224.5"/>
<text text-anchor="middle" x="1159.34" y="-231.5" font-family="Helvetica,sans-Serif" font-size="10.00">dji_broadcast.hpp</text>
</a>
</g>
</g>
<!-- Node15&#45;&gt;Node17 -->
<g id="edge21" class="edge"><title>Node15&#45;&gt;Node17</title>
<path fill="none" stroke="midnightblue" d="M955.924,-343.865C1059.43,-340.555 1326.97,-329.225 1353.34,-300 1359.3,-293.401 1358.87,-286.959 1353.34,-280 1344.71,-269.128 1270.51,-254.181 1216.44,-244.554"/>
<polygon fill="midnightblue" stroke="midnightblue" points="1216.72,-241.048 1206.26,-242.761 1215.5,-247.942 1216.72,-241.048"/>
</g>
<!-- Node18 -->
<g id="node18" class="node"><title>Node18</title>
<g id="a_node18"><a xlink:href="dji__camera_8hpp.html" target="_top" xlink:title="Camera/Gimbal API for DJI onboardSDK library. ">
<polygon fill="white" stroke="black" points="25.8446,-168.5 25.8446,-187.5 108.845,-187.5 108.845,-168.5 25.8446,-168.5"/>
<text text-anchor="middle" x="67.3446" y="-175.5" font-family="Helvetica,sans-Serif" font-size="10.00">dji_camera.hpp</text>
</a>
</g>
</g>
<!-- Node15&#45;&gt;Node18 -->
<g id="edge24" class="edge"><title>Node15&#45;&gt;Node18</title>
<path fill="none" stroke="midnightblue" d="M874.684,-345.284C717.796,-346.041 157.381,-345.512 93.3446,-300 61.4813,-277.354 61.7755,-225.783 64.6128,-197.838"/>
<polygon fill="midnightblue" stroke="midnightblue" points="68.1041,-198.123 65.853,-187.77 61.1566,-197.267 68.1041,-198.123"/>
</g>
<!-- Node19 -->
<g id="node19" class="node"><title>Node19</title>
<polygon fill="white" stroke="#bfbfbf" points="736.345,-280.5 736.345,-299.5 848.345,-299.5 848.345,-280.5 736.345,-280.5"/>
<text text-anchor="middle" x="792.345" y="-287.5" font-family="Helvetica,sans-Serif" font-size="10.00">dji_circular_buffer.hpp</text>
</g>
<!-- Node15&#45;&gt;Node19 -->
<g id="edge27" class="edge"><title>Node15&#45;&gt;Node19</title>
<path fill="none" stroke="midnightblue" d="M895.855,-336.444C875.702,-327.596 844.022,-313.687 821.014,-303.586"/>
<polygon fill="midnightblue" stroke="midnightblue" points="822.307,-300.332 811.743,-299.516 819.493,-306.741 822.307,-300.332"/>
</g>
<!-- Node20 -->
<g id="node20" class="node"><title>Node20</title>
<g id="a_node20"><a xlink:href="dji__control_8hpp.html" target="_top" xlink:title="Control API for DJI OSDK library. ">
<polygon fill="white" stroke="black" points="638.345,-280.5 638.345,-299.5 718.345,-299.5 718.345,-280.5 638.345,-280.5"/>
<text text-anchor="middle" x="678.345" y="-287.5" font-family="Helvetica,sans-Serif" font-size="10.00">dji_control.hpp</text>
</a>
</g>
</g>
<!-- Node15&#45;&gt;Node20 -->
<g id="edge29" class="edge"><title>Node15&#45;&gt;Node20</title>
<path fill="none" stroke="midnightblue" d="M877.791,-336.444C836.534,-327.043 770.2,-311.929 725.478,-301.739"/>
<polygon fill="midnightblue" stroke="midnightblue" points="726.25,-298.326 715.722,-299.516 724.695,-305.151 726.25,-298.326"/>
</g>
<!-- Node23 -->
<g id="node23" class="node"><title>Node23</title>
<g id="a_node23"><a xlink:href="dji__version_8hpp.html" target="_top" xlink:title="Drone/SDK Version definition for DJI onboardSDK library. ">
<polygon fill="white" stroke="black" points="684.345,-168.5 684.345,-187.5 766.345,-187.5 766.345,-168.5 684.345,-168.5"/>
<text text-anchor="middle" x="725.345" y="-175.5" font-family="Helvetica,sans-Serif" font-size="10.00">dji_version.hpp</text>
</a>
</g>
</g>
<!-- Node15&#45;&gt;Node23 -->
<g id="edge69" class="edge"><title>Node15&#45;&gt;Node23</title>
<path fill="none" stroke="midnightblue" d="M874.836,-345.566C797.2,-345.692 631.973,-341.007 596.345,-300 558.867,-256.865 644.043,-212.502 693.356,-191.491"/>
<polygon fill="midnightblue" stroke="midnightblue" points="694.805,-194.679 702.694,-187.607 692.117,-188.216 694.805,-194.679"/>
</g>
<!-- Node25 -->
<g id="node25" class="node"><title>Node25</title>
<g id="a_node25"><a xlink:href="dji__gimbal_8hpp.html" target="_top" xlink:title="Gimbal API for OSDK library. ">
<polygon fill="white" stroke="black" points="126.845,-168.5 126.845,-187.5 205.845,-187.5 205.845,-168.5 126.845,-168.5"/>
<text text-anchor="middle" x="166.345" y="-175.5" font-family="Helvetica,sans-Serif" font-size="10.00">dji_gimbal.hpp</text>
</a>
</g>
</g>
<!-- Node15&#45;&gt;Node25 -->
<g id="edge42" class="edge"><title>Node15&#45;&gt;Node25</title>
<path fill="none" stroke="midnightblue" d="M874.699,-343.58C767.317,-339.505 478.034,-326.339 386.345,-300 344.809,-288.068 235.636,-222.031 188.518,-192.86"/>
<polygon fill="midnightblue" stroke="midnightblue" points="190.301,-189.847 179.96,-187.544 186.608,-195.793 190.301,-189.847"/>
</g>
<!-- Node26 -->
<g id="node26" class="node"><title>Node26</title>
<polygon fill="white" stroke="#bfbfbf" points="866.345,-280.5 866.345,-299.5 964.345,-299.5 964.345,-280.5 866.345,-280.5"/>
<text text-anchor="middle" x="915.345" y="-287.5" font-family="Helvetica,sans-Serif" font-size="10.00">dji_hard_driver.hpp</text>
</g>
<!-- Node15&#45;&gt;Node26 -->
<g id="edge45" class="edge"><title>Node15&#45;&gt;Node26</title>
<path fill="none" stroke="midnightblue" d="M915.345,-336.083C915.345,-329.006 915.345,-318.861 915.345,-309.986"/>
<polygon fill="midnightblue" stroke="midnightblue" points="918.845,-309.751 915.345,-299.751 911.845,-309.751 918.845,-309.751"/>
</g>
<!-- Node27 -->
<g id="node27" class="node"><title>Node27</title>
<g id="a_node27"><a xlink:href="dji__hardware__sync_8hpp.html" target="_top" xlink:title="Hardware Sync API for DJI OSDK. ">
<polygon fill="white" stroke="black" points="1669.34,-168.5 1669.34,-187.5 1785.34,-187.5 1785.34,-168.5 1669.34,-168.5"/>
<text text-anchor="middle" x="1727.34" y="-175.5" font-family="Helvetica,sans-Serif" font-size="10.00">dji_hardware_sync.hpp</text>
</a>
</g>
</g>
<!-- Node15&#45;&gt;Node27 -->
<g id="edge46" class="edge"><title>Node15&#45;&gt;Node27</title>
<path fill="none" stroke="midnightblue" d="M955.853,-344.689C1106.43,-343.259 1628.56,-335.742 1693.34,-300 1720.13,-285.225 1724.01,-273.127 1733.34,-244 1738.21,-228.824 1735.92,-210.707 1732.87,-197.46"/>
<polygon fill="midnightblue" stroke="midnightblue" points="1736.21,-196.417 1730.26,-187.649 1729.44,-198.212 1736.21,-196.417"/>
</g>
<!-- Node30 -->
<g id="node30" class="node"><title>Node30</title>
<g id="a_node30"><a xlink:href="dji__mfio_8hpp.html" target="_top" xlink:title="MFIO API for DJI OSDK library. ">
<polygon fill="white" stroke="black" points="1654.84,-224.5 1654.84,-243.5 1723.84,-243.5 1723.84,-224.5 1654.84,-224.5"/>
<text text-anchor="middle" x="1689.34" y="-231.5" font-family="Helvetica,sans-Serif" font-size="10.00">dji_mfio.hpp</text>
</a>
</g>
</g>
<!-- Node15&#45;&gt;Node30 -->
<g id="edge51" class="edge"><title>Node15&#45;&gt;Node30</title>
<path fill="none" stroke="midnightblue" d="M956.068,-345.354C1105.52,-346.282 1618.04,-346.054 1673.34,-300 1686.58,-288.977 1689.85,-268.929 1690.26,-254.002"/>
<polygon fill="midnightblue" stroke="midnightblue" points="1693.76,-253.775 1690.14,-243.819 1686.76,-253.862 1693.76,-253.775"/>
</g>
<!-- Node31 -->
<g id="node31" class="node"><title>Node31</title>
<g id="a_node31"><a xlink:href="dji__mobile__communication_8hpp.html" target="_top" xlink:title="Implementation of DJI Mobile&#45;Onboard SDK Communication (MOC) ">
<polygon fill="white" stroke="black" points="1514.34,-280.5 1514.34,-299.5 1664.34,-299.5 1664.34,-280.5 1514.34,-280.5"/>
<text text-anchor="middle" x="1589.34" y="-287.5" font-family="Helvetica,sans-Serif" font-size="10.00">dji_mobile_communication.hpp</text>
</a>
</g>
</g>
<!-- Node15&#45;&gt;Node31 -->
<g id="edge54" class="edge"><title>Node15&#45;&gt;Node31</title>
<path fill="none" stroke="midnightblue" d="M956.153,-342.2C1051.47,-335.584 1296.15,-318.175 1500.34,-300 1501.47,-299.9 1502.6,-299.799 1503.73,-299.696"/>
<polygon fill="midnightblue" stroke="midnightblue" points="1504.46,-303.144 1514.09,-298.738 1503.81,-296.174 1504.46,-303.144"/>
</g>
<!-- Node33 -->
<g id="node33" class="node"><title>Node33</title>
<g id="a_node33"><a xlink:href="dji__mobile__device_8hpp.html" target="_top" xlink:title="Implementation of DJI Mobile Device Abstraction. ">
<polygon fill="white" stroke="black" points="1344.84,-224.5 1344.84,-243.5 1457.84,-243.5 1457.84,-224.5 1344.84,-224.5"/>
<text text-anchor="middle" x="1401.34" y="-231.5" font-family="Helvetica,sans-Serif" font-size="10.00">dji_mobile_device.hpp</text>
</a>
</g>
</g>
<!-- Node15&#45;&gt;Node33 -->
<g id="edge57" class="edge"><title>Node15&#45;&gt;Node33</title>
<path fill="none" stroke="midnightblue" d="M955.921,-343.835C1064.46,-340.345 1355.4,-328.41 1387.34,-300 1400.13,-288.63 1402.8,-268.637 1402.79,-253.817"/>
<polygon fill="midnightblue" stroke="midnightblue" points="1406.28,-253.57 1402.38,-243.722 1399.29,-253.856 1406.28,-253.57"/>
</g>
<!-- Node34 -->
<g id="node34" class="node"><title>Node34</title>
<polygon fill="white" stroke="#bfbfbf" points="982.345,-280.5 982.345,-299.5 1110.34,-299.5 1110.34,-280.5 982.345,-280.5"/>
<text text-anchor="middle" x="1046.34" y="-287.5" font-family="Helvetica,sans-Serif" font-size="10.00">dji_platform_manager.hpp</text>
</g>
<!-- Node15&#45;&gt;Node34 -->
<g id="edge60" class="edge"><title>Node15&#45;&gt;Node34</title>
<path fill="none" stroke="midnightblue" d="M936.102,-336.444C957.661,-327.557 991.608,-313.563 1016.14,-303.451"/>
<polygon fill="midnightblue" stroke="midnightblue" points="1017.77,-306.563 1025.68,-299.516 1015.11,-300.092 1017.77,-306.563"/>
</g>
<!-- Node35 -->
<g id="node35" class="node"><title>Node35</title>
<g id="a_node35"><a xlink:href="dji__status_8hpp.html" target="_top" xlink:title="Status information for DJI Vehicle. ">
<polygon fill="white" stroke="black" points="1128.84,-280.5 1128.84,-299.5 1205.84,-299.5 1205.84,-280.5 1128.84,-280.5"/>
<text text-anchor="middle" x="1167.34" y="-287.5" font-family="Helvetica,sans-Serif" font-size="10.00">dji_status.hpp</text>
</a>
</g>
</g>
<!-- Node15&#45;&gt;Node35 -->
<g id="edge61" class="edge"><title>Node15&#45;&gt;Node35</title>
<path fill="none" stroke="midnightblue" d="M955.275,-336.444C999.623,-326.94 1071.22,-311.598 1118.78,-301.407"/>
<polygon fill="midnightblue" stroke="midnightblue" points="1119.8,-304.768 1128.84,-299.251 1118.33,-297.924 1119.8,-304.768"/>
</g>
<!-- Node36 -->
<g id="node36" class="node"><title>Node36</title>
<g id="a_node36"><a xlink:href="dji__subscription_8hpp.html" target="_top" xlink:title="Telemetry Subscription API for DJI OSDK library. ">
<polygon fill="white" stroke="black" points="1223.84,-224.5 1223.84,-243.5 1326.84,-243.5 1326.84,-224.5 1223.84,-224.5"/>
<text text-anchor="middle" x="1275.34" y="-231.5" font-family="Helvetica,sans-Serif" font-size="10.00">dji_subscription.hpp</text>
</a>
</g>
</g>
<!-- Node15&#45;&gt;Node36 -->
<g id="edge62" class="edge"><title>Node15&#45;&gt;Node36</title>
<path fill="none" stroke="midnightblue" d="M955.941,-344.031C1062.3,-341.076 1342.76,-330.443 1370.34,-300 1391.11,-277.085 1352.07,-258.125 1317.93,-246.71"/>
<polygon fill="midnightblue" stroke="midnightblue" points="1318.62,-243.256 1308.03,-243.554 1316.49,-249.925 1318.62,-243.256"/>
</g>
<!-- Node37 -->
<g id="node37" class="node"><title>Node37</title>
<polygon fill="white" stroke="#bfbfbf" points="1224.34,-280.5 1224.34,-299.5 1344.34,-299.5 1344.34,-280.5 1224.34,-280.5"/>
<text text-anchor="middle" x="1284.34" y="-287.5" font-family="Helvetica,sans-Serif" font-size="10.00">dji_thread_manager.hpp</text>
</g>
<!-- Node15&#45;&gt;Node37 -->
<g id="edge66" class="edge"><title>Node15&#45;&gt;Node37</title>
<path fill="none" stroke="midnightblue" d="M955.89,-339.067C1018.6,-329.889 1139.84,-312.147 1216.18,-300.975"/>
<polygon fill="midnightblue" stroke="midnightblue" points="1216.8,-304.422 1226.19,-299.511 1215.78,-297.496 1216.8,-304.422"/>
</g>
<!-- Node38 -->
<g id="node38" class="node"><title>Node38</title>
<g id="a_node38"><a xlink:href="dji__virtual__rc_8hpp.html" target="_top" xlink:title="Virtual Radio Control API for DJI onboardSDK library. ">
<polygon fill="white" stroke="black" points="454.345,-280.5 454.345,-299.5 544.345,-299.5 544.345,-280.5 454.345,-280.5"/>
<text text-anchor="middle" x="499.345" y="-287.5" font-family="Helvetica,sans-Serif" font-size="10.00">dji_virtual_rc.hpp</text>
</a>
</g>
</g>
<!-- Node15&#45;&gt;Node38 -->
<g id="edge70" class="edge"><title>Node15&#45;&gt;Node38</title>
<path fill="none" stroke="midnightblue" d="M874.609,-340.215C808.273,-332.343 672.809,-315.942 558.345,-300 557.075,-299.823 555.79,-299.642 554.494,-299.458"/>
<polygon fill="midnightblue" stroke="midnightblue" points="554.823,-295.97 544.425,-298 553.82,-302.897 554.823,-295.97"/>
</g>
<!-- Node17&#45;&gt;Node9 -->
<g id="edge23" class="edge"><title>Node17&#45;&gt;Node9</title>
<path fill="none" stroke="midnightblue" d="M1171.98,-224.368C1199.61,-205.492 1265.63,-160.385 1299.51,-137.237"/>
<polygon fill="midnightblue" stroke="midnightblue" points="1301.49,-140.123 1307.77,-131.591 1297.54,-134.343 1301.49,-140.123"/>
</g>
<!-- Node17&#45;&gt;Node13 -->
<g id="edge22" class="edge"><title>Node17&#45;&gt;Node13</title>
<path fill="none" stroke="midnightblue" d="M1112.56,-225.32C1052.9,-215.529 949.866,-198.618 886.171,-188.163"/>
<polygon fill="midnightblue" stroke="midnightblue" points="886.348,-184.645 875.913,-186.479 885.214,-191.553 886.348,-184.645"/>
</g>
<!-- Node18&#45;&gt;Node4 -->
<g id="edge25" class="edge"><title>Node18&#45;&gt;Node4</title>
<path fill="none" stroke="midnightblue" d="M99.8274,-168.444C135.064,-159.162 191.448,-144.309 230.103,-134.127"/>
<polygon fill="midnightblue" stroke="midnightblue" points="231.235,-137.448 240.014,-131.516 229.452,-130.679 231.235,-137.448"/>
</g>
<!-- Node18&#45;&gt;Node7 -->
<g id="edge26" class="edge"><title>Node18&#45;&gt;Node7</title>
<path fill="none" stroke="midnightblue" d="M109.065,-169.36C111.865,-168.887 114.644,-168.43 117.345,-168 217.258,-152.097 334.973,-136.6 397.694,-128.601"/>
<polygon fill="midnightblue" stroke="midnightblue" points="398.166,-132.069 407.645,-127.336 397.283,-125.125 398.166,-132.069"/>
</g>
<!-- Node20&#45;&gt;Node7 -->
<g id="edge40" class="edge"><title>Node20&#45;&gt;Node7</title>
<path fill="none" stroke="midnightblue" d="M718.518,-281.594C792.546,-266.31 938.214,-227.633 884.345,-168 858.043,-138.885 594.322,-127.624 487.209,-124.229"/>
<polygon fill="midnightblue" stroke="midnightblue" points="487.147,-120.725 477.044,-123.915 486.932,-127.722 487.147,-120.725"/>
</g>
<!-- Node20&#45;&gt;Node9 -->
<g id="edge41" class="edge"><title>Node20&#45;&gt;Node9</title>
<path fill="none" stroke="midnightblue" d="M718.421,-281.423C721.437,-280.919 724.437,-280.438 727.345,-280 862.317,-259.66 900.352,-278.776 1032.34,-244 1084.86,-230.163 1231.49,-163.914 1292.82,-135.733"/>
<polygon fill="midnightblue" stroke="midnightblue" points="1294.29,-138.912 1301.91,-131.551 1291.36,-132.553 1294.29,-138.912"/>
</g>
<!-- Node20&#45;&gt;Node10 -->
<g id="edge39" class="edge"><title>Node20&#45;&gt;Node10</title>
<path fill="none" stroke="midnightblue" d="M718.429,-281.477C721.443,-280.96 724.44,-280.462 727.345,-280 786.471,-270.59 947.94,-281.829 994.345,-244 1043.3,-204.087 1053.66,-123.017 1055.81,-86.0917"/>
<polygon fill="midnightblue" stroke="midnightblue" points="1059.32,-85.9042 1056.26,-75.7622 1052.33,-85.6016 1059.32,-85.9042"/>
</g>
<!-- Node21 -->
<g id="node21" class="node"><title>Node21</title>
<g id="a_node21"><a xlink:href="dji__ack_8hpp.html" target="_top" xlink:title="All DJI OSDK ACK parsing. ">
<polygon fill="white" stroke="black" points="466.345,-224.5 466.345,-243.5 532.345,-243.5 532.345,-224.5 466.345,-224.5"/>
<text text-anchor="middle" x="499.345" y="-231.5" font-family="Helvetica,sans-Serif" font-size="10.00">dji_ack.hpp</text>
</a>
</g>
</g>
<!-- Node20&#45;&gt;Node21 -->
<g id="edge30" class="edge"><title>Node20&#45;&gt;Node21</title>
<path fill="none" stroke="midnightblue" d="M649.981,-280.444C619.606,-271.28 571.235,-256.688 537.529,-246.519"/>
<polygon fill="midnightblue" stroke="midnightblue" points="538.16,-243.054 527.575,-243.516 536.138,-249.756 538.16,-243.054"/>
</g>
<!-- Node21&#45;&gt;Node4 -->
<g id="edge31" class="edge"><title>Node21&#45;&gt;Node4</title>
<path fill="none" stroke="midnightblue" d="M481.532,-224.368C441.916,-205.171 346.309,-158.842 299.324,-136.074"/>
<polygon fill="midnightblue" stroke="midnightblue" points="300.6,-132.803 290.074,-131.591 297.547,-139.102 300.6,-132.803"/>
</g>
<!-- Node21&#45;&gt;Node7 -->
<g id="edge34" class="edge"><title>Node21&#45;&gt;Node7</title>
<path fill="none" stroke="midnightblue" d="M494.872,-224.368C485.548,-206.376 463.875,-164.55 451.478,-140.627"/>
<polygon fill="midnightblue" stroke="midnightblue" points="454.505,-138.86 446.796,-131.591 448.29,-142.081 454.505,-138.86"/>
</g>
<!-- Node22 -->
<g id="node22" class="node"><title>Node22</title>
<g id="a_node22"><a xlink:href="dji__mission__type_8hpp.html" target="_top" xlink:title="Mission related data struct for DJI OSDK library. ">
<polygon fill="white" stroke="black" points="558.345,-168.5 558.345,-187.5 666.345,-187.5 666.345,-168.5 558.345,-168.5"/>
<text text-anchor="middle" x="612.345" y="-175.5" font-family="Helvetica,sans-Serif" font-size="10.00">dji_mission_type.hpp</text>
</a>
</g>
</g>
<!-- Node21&#45;&gt;Node22 -->
<g id="edge32" class="edge"><title>Node21&#45;&gt;Node22</title>
<path fill="none" stroke="midnightblue" d="M517.25,-224.444C535.599,-215.675 564.35,-201.935 585.438,-191.858"/>
<polygon fill="midnightblue" stroke="midnightblue" points="587.01,-194.986 594.523,-187.516 583.991,-188.67 587.01,-194.986"/>
</g>
<!-- Node21&#45;&gt;Node23 -->
<g id="edge35" class="edge"><title>Node21&#45;&gt;Node23</title>
<path fill="none" stroke="midnightblue" d="M532.692,-225.032C571.649,-215.724 636.307,-200.275 679.851,-189.87"/>
<polygon fill="midnightblue" stroke="midnightblue" points="680.707,-193.264 689.62,-187.536 679.08,-186.456 680.707,-193.264"/>
</g>
<!-- Node24 -->
<g id="node24" class="node"><title>Node24</title>
<polygon fill="white" stroke="#bfbfbf" points="504.845,-168.5 504.845,-187.5 539.845,-187.5 539.845,-168.5 504.845,-168.5"/>
<text text-anchor="middle" x="522.345" y="-175.5" font-family="Helvetica,sans-Serif" font-size="10.00">map</text>
</g>
<!-- Node21&#45;&gt;Node24 -->
<g id="edge38" class="edge"><title>Node21&#45;&gt;Node24</title>
<path fill="none" stroke="midnightblue" d="M503.143,-224.083C506.257,-216.77 510.767,-206.181 514.634,-197.103"/>
<polygon fill="midnightblue" stroke="midnightblue" points="517.919,-198.323 518.617,-187.751 511.478,-195.58 517.919,-198.323"/>
</g>
<!-- Node22&#45;&gt;Node7 -->
<g id="edge33" class="edge"><title>Node22&#45;&gt;Node7</title>
<path fill="none" stroke="midnightblue" d="M585.408,-168.444C556.684,-159.32 511.016,-144.813 479.023,-134.651"/>
<polygon fill="midnightblue" stroke="midnightblue" points="479.746,-131.208 469.156,-131.516 477.627,-137.88 479.746,-131.208"/>
</g>
<!-- Node23&#45;&gt;Node4 -->
<g id="edge36" class="edge"><title>Node23&#45;&gt;Node4</title>
<path fill="none" stroke="midnightblue" d="M684.179,-169.365C681.193,-168.88 678.225,-168.42 675.345,-168 552.336,-150.082 407.293,-135.473 329.131,-128.133"/>
<polygon fill="midnightblue" stroke="midnightblue" points="329.297,-124.633 319.015,-127.189 328.647,-131.603 329.297,-124.633"/>
</g>
<!-- Node23&#45;&gt;Node16 -->
<g id="edge37" class="edge"><title>Node23&#45;&gt;Node16</title>
<path fill="none" stroke="midnightblue" d="M739.644,-168.324C753.528,-159.9 774.837,-146.971 791.148,-137.074"/>
<polygon fill="midnightblue" stroke="midnightblue" points="793.347,-139.834 800.081,-131.655 789.716,-133.85 793.347,-139.834"/>
</g>
<!-- Node25&#45;&gt;Node4 -->
<g id="edge43" class="edge"><title>Node25&#45;&gt;Node4</title>
<path fill="none" stroke="midnightblue" d="M183.375,-168.324C200.374,-159.664 226.721,-146.242 246.337,-136.249"/>
<polygon fill="midnightblue" stroke="midnightblue" points="248.034,-139.312 255.356,-131.655 244.857,-133.075 248.034,-139.312"/>
</g>
<!-- Node25&#45;&gt;Node7 -->
<g id="edge44" class="edge"><title>Node25&#45;&gt;Node7</title>
<path fill="none" stroke="midnightblue" d="M205.889,-169.263C256.72,-159.318 344.738,-142.097 397.855,-131.705"/>
<polygon fill="midnightblue" stroke="midnightblue" points="398.529,-135.139 407.671,-129.784 397.185,-128.269 398.529,-135.139"/>
</g>
<!-- Node27&#45;&gt;Node7 -->
<g id="edge47" class="edge"><title>Node27&#45;&gt;Node7</title>
<path fill="none" stroke="midnightblue" d="M1669.21,-174.557C1450.68,-165.374 680.959,-133.027 486.984,-124.876"/>
<polygon fill="midnightblue" stroke="midnightblue" points="487.007,-121.374 476.869,-124.451 486.713,-128.368 487.007,-121.374"/>
</g>
<!-- Node27&#45;&gt;Node9 -->
<g id="edge48" class="edge"><title>Node27&#45;&gt;Node9</title>
<path fill="none" stroke="midnightblue" d="M1669.03,-169.263C1595.93,-159.564 1470.68,-142.946 1391.87,-132.49"/>
<polygon fill="midnightblue" stroke="midnightblue" points="1391.92,-128.965 1381.54,-131.12 1391,-135.905 1391.92,-128.965"/>
</g>
<!-- Node28 -->
<g id="node28" class="node"><title>Node28</title>
<polygon fill="white" stroke="#bfbfbf" points="1657.34,-112.5 1657.34,-131.5 1703.34,-131.5 1703.34,-112.5 1657.34,-112.5"/>
<text text-anchor="middle" x="1680.34" y="-119.5" font-family="Helvetica,sans-Serif" font-size="10.00">chrono</text>
</g>
<!-- Node27&#45;&gt;Node28 -->
<g id="edge49" class="edge"><title>Node27&#45;&gt;Node28</title>
<path fill="none" stroke="midnightblue" d="M1719.58,-168.083C1712.81,-160.298 1702.8,-148.801 1694.59,-139.367"/>
<polygon fill="midnightblue" stroke="midnightblue" points="1697.17,-136.996 1687.96,-131.751 1691.89,-141.592 1697.17,-136.996"/>
</g>
<!-- Node29 -->
<g id="node29" class="node"><title>Node29</title>
<polygon fill="white" stroke="#bfbfbf" points="1721.34,-112.5 1721.34,-131.5 1767.34,-131.5 1767.34,-112.5 1721.34,-112.5"/>
<text text-anchor="middle" x="1744.34" y="-119.5" font-family="Helvetica,sans-Serif" font-size="10.00">atomic</text>
</g>
<!-- Node27&#45;&gt;Node29 -->
<g id="edge50" class="edge"><title>Node27&#45;&gt;Node29</title>
<path fill="none" stroke="midnightblue" d="M1730.15,-168.083C1732.43,-160.849 1735.72,-150.409 1738.55,-141.397"/>
<polygon fill="midnightblue" stroke="midnightblue" points="1741.93,-142.341 1741.59,-131.751 1735.25,-140.239 1741.93,-142.341"/>
</g>
<!-- Node30&#45;&gt;Node9 -->
<g id="edge52" class="edge"><title>Node30&#45;&gt;Node9</title>
<path fill="none" stroke="midnightblue" d="M1682.49,-224.086C1670.83,-209.646 1645.65,-181.408 1617.34,-168 1578.52,-149.61 1466.66,-136.253 1391.85,-129.067"/>
<polygon fill="midnightblue" stroke="midnightblue" points="1391.83,-125.55 1381.55,-128.094 1391.18,-132.519 1391.83,-125.55"/>
</g>
<!-- Node31&#45;&gt;Node9 -->
<g id="edge56" class="edge"><title>Node31&#45;&gt;Node9</title>
<path fill="none" stroke="midnightblue" d="M1595.75,-280.416C1604.63,-267.393 1618.38,-242.231 1607.34,-224 1563.35,-151.32 1461.35,-130.098 1391.59,-124.364"/>
<polygon fill="midnightblue" stroke="midnightblue" points="1391.78,-120.868 1381.55,-123.626 1391.26,-127.849 1391.78,-120.868"/>
</g>
<!-- Node32 -->
<g id="node32" class="node"><title>Node32</title>
<polygon fill="white" stroke="#bfbfbf" points="1514.84,-224.5 1514.84,-243.5 1597.84,-243.5 1597.84,-224.5 1514.84,-224.5"/>
<text text-anchor="middle" x="1556.34" y="-231.5" font-family="Helvetica,sans-Serif" font-size="10.00">dji_macros.hpp</text>
</g>
<!-- Node31&#45;&gt;Node32 -->
<g id="edge55" class="edge"><title>Node31&#45;&gt;Node32</title>
<path fill="none" stroke="midnightblue" d="M1583.9,-280.083C1579.33,-272.613 1572.68,-261.724 1567.05,-252.52"/>
<polygon fill="midnightblue" stroke="midnightblue" points="1569.89,-250.459 1561.69,-243.751 1563.92,-254.109 1569.89,-250.459"/>
</g>
<!-- Node33&#45;&gt;Node9 -->
<g id="edge58" class="edge"><title>Node33&#45;&gt;Node9</title>
<path fill="none" stroke="midnightblue" d="M1394.99,-224.368C1381.56,-206.135 1350.11,-163.426 1332.62,-139.675"/>
<polygon fill="midnightblue" stroke="midnightblue" points="1335.42,-137.568 1326.67,-131.591 1329.78,-141.719 1335.42,-137.568"/>
</g>
<!-- Node36&#45;&gt;Node9 -->
<g id="edge65" class="edge"><title>Node36&#45;&gt;Node9</title>
<path fill="none" stroke="midnightblue" d="M1278.88,-224.368C1286.2,-206.456 1303.19,-164.923 1313,-140.948"/>
<polygon fill="midnightblue" stroke="midnightblue" points="1316.28,-142.172 1316.83,-131.591 1309.8,-139.522 1316.28,-142.172"/>
</g>
<!-- Node36&#45;&gt;Node10 -->
<g id="edge63" class="edge"><title>Node36&#45;&gt;Node10</title>
<path fill="none" stroke="midnightblue" d="M1263.88,-224.309C1228.4,-197.416 1120.13,-115.352 1075.69,-81.6665"/>
<polygon fill="midnightblue" stroke="midnightblue" points="1077.78,-78.8566 1067.7,-75.6051 1073.55,-84.4351 1077.78,-78.8566"/>
</g>
<!-- Node36&#45;&gt;Node13 -->
<g id="edge64" class="edge"><title>Node36&#45;&gt;Node13</title>
<path fill="none" stroke="midnightblue" d="M1223.78,-225.281C1220.59,-224.838 1217.42,-224.407 1214.34,-224 1097.72,-208.567 960.809,-193.175 886.044,-185"/>
<polygon fill="midnightblue" stroke="midnightblue" points="886.236,-181.5 875.915,-183.895 885.477,-188.459 886.236,-181.5"/>
</g>
<!-- Node38&#45;&gt;Node7 -->
<g id="edge73" class="edge"><title>Node38&#45;&gt;Node7</title>
<path fill="none" stroke="midnightblue" d="M487.973,-280.362C478.095,-272.166 464.312,-258.91 457.345,-244 441.718,-210.558 440.42,-166.531 441.181,-141.857"/>
<polygon fill="midnightblue" stroke="midnightblue" points="444.685,-141.86 441.649,-131.709 437.692,-141.538 444.685,-141.86"/>
</g>
<!-- Node38&#45;&gt;Node10 -->
<g id="edge72" class="edge"><title>Node38&#45;&gt;Node10</title>
<path fill="none" stroke="midnightblue" d="M544.47,-282.658C618.316,-271.094 768.362,-242.583 884.345,-188 945.981,-158.993 1009.14,-107.993 1038.86,-82.4675"/>
<polygon fill="midnightblue" stroke="midnightblue" points="1041.4,-84.8997 1046.65,-75.6988 1036.8,-79.6157 1041.4,-84.8997"/>
</g>
<!-- Node38&#45;&gt;Node13 -->
<g id="edge74" class="edge"><title>Node38&#45;&gt;Node13</title>
<path fill="none" stroke="midnightblue" d="M525.042,-280.46C583.7,-260.966 727.557,-213.159 794.72,-190.839"/>
<polygon fill="midnightblue" stroke="midnightblue" points="796.049,-194.086 804.435,-187.61 793.842,-187.443 796.049,-194.086"/>
</g>
<!-- Node38&#45;&gt;Node21 -->
<g id="edge71" class="edge"><title>Node38&#45;&gt;Node21</title>
<path fill="none" stroke="midnightblue" d="M499.345,-280.083C499.345,-273.006 499.345,-262.861 499.345,-253.986"/>
<polygon fill="midnightblue" stroke="midnightblue" points="502.845,-253.751 499.345,-243.751 495.845,-253.751 502.845,-253.751"/>
</g>
</g>
</svg>
