<?xml version="1.0" encoding="UTF-8" standalone="no"?>
<!DOCTYPE svg PUBLIC "-//W3C//DTD SVG 1.1//EN"
 "http://www.w3.org/Graphics/SVG/1.1/DTD/svg11.dtd">
<!-- Generated by graphviz version 2.40.1 (20161225.0304)
 -->
<!-- Title: osdk&#45;core/api/src/dji_error.cpp Pages: 1 -->
<svg width="112pt" height="151pt"
 viewBox="0.00 0.00 112.00 151.00" xmlns="http://www.w3.org/2000/svg" xmlns:xlink="http://www.w3.org/1999/xlink">
<g id="graph0" class="graph" transform="scale(1 1) rotate(0) translate(4 147)">
<title>osdk&#45;core/api/src/dji_error.cpp</title>
<polygon fill="#ffffff" stroke="transparent" points="-4,4 -4,-147 108,-147 108,4 -4,4"/>
<!-- Node0 -->
<g id="node1" class="node">
<title>Node0</title>
<g id="a_node1"><a xlink:title="All DJI OSDK OpenProtocol ACK Error Codes.">
<polygon fill="#bfbfbf" stroke="#000000" points="0,-112.5 0,-142.5 104,-142.5 104,-112.5 0,-112.5"/>
<text text-anchor="start" x="8" y="-130.5" font-family="Helvetica,sans-Serif" font-size="10.00" fill="#000000">osdk&#45;core/api/src/dji</text>
<text text-anchor="middle" x="52" y="-119.5" font-family="Helvetica,sans-Serif" font-size="10.00" fill="#000000">_error.cpp</text>
</a>
</g>
</g>
<!-- Node1 -->
<g id="node2" class="node">
<title>Node1</title>
<g id="a_node2"><a xlink:href="dji__error_8hpp.html" target="_top" xlink:title="All DJI OSDK OpenProtocol ACK Error Codes.">
<polygon fill="#ffffff" stroke="#000000" points="17,-56.5 17,-75.5 87,-75.5 87,-56.5 17,-56.5"/>
<text text-anchor="middle" x="52" y="-63.5" font-family="Helvetica,sans-Serif" font-size="10.00" fill="#000000">dji_error.hpp</text>
</a>
</g>
</g>
<!-- Node0&#45;&gt;Node1 -->
<g id="edge1" class="edge">
<title>Node0&#45;&gt;Node1</title>
<path fill="none" stroke="#191970" d="M52,-112.2977C52,-104.3834 52,-94.6043 52,-86.0759"/>
<polygon fill="#191970" stroke="#191970" points="55.5001,-85.8469 52,-75.8469 48.5001,-85.847 55.5001,-85.8469"/>
</g>
<!-- Node2 -->
<g id="node3" class="node">
<title>Node2</title>
<g id="a_node3"><a xlink:title=" ">
<polygon fill="#ffffff" stroke="#bfbfbf" points="27.5,-.5 27.5,-19.5 76.5,-19.5 76.5,-.5 27.5,-.5"/>
<text text-anchor="middle" x="52" y="-7.5" font-family="Helvetica,sans-Serif" font-size="10.00" fill="#000000">stdint.h</text>
</a>
</g>
</g>
<!-- Node1&#45;&gt;Node2 -->
<g id="edge2" class="edge">
<title>Node1&#45;&gt;Node2</title>
<path fill="none" stroke="#191970" d="M52,-56.2455C52,-48.9382 52,-38.6944 52,-29.7046"/>
<polygon fill="#191970" stroke="#191970" points="55.5001,-29.6426 52,-19.6427 48.5001,-29.6427 55.5001,-29.6426"/>
</g>
</g>
</svg>
