<?xml version="1.0" encoding="UTF-8" standalone="no"?>
<!DOCTYPE svg PUBLIC "-//W3C//DTD SVG 1.1//EN"
 "http://www.w3.org/Graphics/SVG/1.1/DTD/svg11.dtd">
<!-- Generated by graphviz version 2.40.1 (20161225.0304)
 -->
<!-- Title: osdk&#45;lib/x86/osdk&#45;core/inc/dji_broadcast.hpp Pages: 1 -->
<!--zoomable 431 -->
<svg id="main" version="1.1" xmlns="http://www.w3.org/2000/svg" xmlns:xlink="http://www.w3.org/1999/xlink" xml:space="preserve" onload="init(evt)">
<style type="text/css"><![CDATA[
.edge:hover path { stroke: red; }
.edge:hover polygon { stroke: red; fill: red; }
]]></style>
<script type="text/javascript"><![CDATA[
var edges = document.getElementsByTagName('g');
if (edges && edges.length) {
  for (var i=0;i<edges.length;i++) {
    if (edges[i].id.substr(0,4)=='edge') {
      edges[i].setAttribute('class','edge');
    }
  }
}
]]></script>
        <defs>
                <circle id="rim" cx="0" cy="0" r="7"/>
                <circle id="rim2" cx="0" cy="0" r="3.5"/>
                <g id="zoomPlus">
                        <use xlink:href="#rim" fill="#404040">
                                <set attributeName="fill" to="#808080" begin="zoomplus.mouseover" end="zoomplus.mouseout"/>
                        </use>
                        <path d="M-4,0h8M0,-4v8" fill="none" stroke="white" stroke-width="1.5" pointer-events="none"/>
                </g>
                <g id="zoomMin">
                        <use xlink:href="#rim" fill="#404040">
                                <set attributeName="fill" to="#808080" begin="zoomminus.mouseover" end="zoomminus.mouseout"/>
                        </use>
                        <path d="M-4,0h8" fill="none" stroke="white" stroke-width="1.5" pointer-events="none"/>
                </g>
                <g id="dirArrow">
                        <path fill="none" stroke="white" stroke-width="1.5" d="M0,-3.0v7 M-2.5,-0.5L0,-3.0L2.5,-0.5"/>
                </g>
               <g id="resetDef">
                       <use xlink:href="#rim2" fill="#404040">
                               <set attributeName="fill" to="#808080" begin="reset.mouseover" end="reset.mouseout"/>
                       </use>
               </g>
        </defs>

<script type="text/javascript">
var viewWidth = 811;
var viewHeight = 431;
var sectionId = 'dynsection-0';
</script>
<script xlink:href="svgpan.js"/>
<svg id="graph" class="graph">
<g id="viewport">
<title>osdk&#45;lib/x86/osdk&#45;core/inc/dji_broadcast.hpp</title>
<polygon fill="#ffffff" stroke="transparent" points="-4,4 -4,-427 806.5,-427 806.5,4 -4,4"/>
<!-- Node0 -->
<g id="node1" class="node">
<title>Node0</title>
<g id="a_node1"><a xlink:title="Broadcast Telemetry API for DJI onboardSDK library.">
<polygon fill="#bfbfbf" stroke="#000000" points="84,-392.5 84,-422.5 199,-422.5 199,-392.5 84,-392.5"/>
<text text-anchor="start" x="92" y="-410.5" font-family="Helvetica,sans-Serif" font-size="10.00" fill="#000000">osdk&#45;lib/x86/osdk&#45;core</text>
<text text-anchor="middle" x="141.5" y="-399.5" font-family="Helvetica,sans-Serif" font-size="10.00" fill="#000000">/inc/dji_broadcast.hpp</text>
</a>
</g>
</g>
<!-- Node1 -->
<g id="node2" class="node">
<title>Node1</title>
<g id="a_node2"><a xlink:href="dji__telemetry_8hpp.html" target="_top" xlink:title="Enumeration of all telemetry data types, structures and maps.">
<polygon fill="#ffffff" stroke="#000000" points="0,-280.5 0,-299.5 91,-299.5 91,-280.5 0,-280.5"/>
<text text-anchor="middle" x="45.5" y="-287.5" font-family="Helvetica,sans-Serif" font-size="10.00" fill="#000000">dji_telemetry.hpp</text>
</a>
</g>
</g>
<!-- Node0&#45;&gt;Node1 -->
<g id="edge1" class="edge">
<title>Node0&#45;&gt;Node1</title>
<path fill="none" stroke="#191970" d="M128.9497,-392.1389C111.1033,-370.2957 78.4851,-330.3724 59.7508,-307.4424"/>
<polygon fill="#191970" stroke="#191970" points="62.3477,-305.089 53.3103,-299.5595 56.9269,-309.5179 62.3477,-305.089"/>
</g>
<!-- Node5 -->
<g id="node6" class="node">
<title>Node5</title>
<g id="a_node6"><a xlink:href="dji__vehicle__callback_8hpp.html" target="_top" xlink:title="Type definition for new Vehicle&#45;style callbacks.">
<polygon fill="#ffffff" stroke="#000000" points="151.5,-336.5 151.5,-355.5 273.5,-355.5 273.5,-336.5 151.5,-336.5"/>
<text text-anchor="middle" x="212.5" y="-343.5" font-family="Helvetica,sans-Serif" font-size="10.00" fill="#000000">dji_vehicle_callback.hpp</text>
</a>
</g>
</g>
<!-- Node0&#45;&gt;Node5 -->
<g id="edge5" class="edge">
<title>Node0&#45;&gt;Node5</title>
<path fill="none" stroke="#191970" d="M159.0506,-392.2977C169.5221,-383.2274 182.8211,-371.7077 193.5338,-362.4285"/>
<polygon fill="#191970" stroke="#191970" points="195.8649,-365.0398 201.132,-355.8469 191.2818,-359.7487 195.8649,-365.0398"/>
</g>
<!-- Node2 -->
<g id="node3" class="node">
<title>Node2</title>
<g id="a_node3"><a xlink:href="dji__type_8hpp.html" target="_top" xlink:title="Data type and Data Structure definitions for use throughout DJI OSDK.">
<polygon fill="#ffffff" stroke="#000000" points="123,-168.5 123,-187.5 192,-187.5 192,-168.5 123,-168.5"/>
<text text-anchor="middle" x="157.5" y="-175.5" font-family="Helvetica,sans-Serif" font-size="10.00" fill="#000000">dji_type.hpp</text>
</a>
</g>
</g>
<!-- Node1&#45;&gt;Node2 -->
<g id="edge2" class="edge">
<title>Node1&#45;&gt;Node2</title>
<path fill="none" stroke="#191970" d="M53.7318,-280.3C65.0143,-267.1582 86.0979,-243.1407 105.5,-224 115.9575,-213.6834 128.2435,-202.764 138.2469,-194.154"/>
<polygon fill="#191970" stroke="#191970" points="140.6809,-196.6783 146.0226,-187.5286 136.1409,-191.3502 140.6809,-196.6783"/>
</g>
<!-- Node3 -->
<g id="node4" class="node">
<title>Node3</title>
<g id="a_node4"><a xlink:title=" ">
<polygon fill="#ffffff" stroke="#bfbfbf" points="136,-112.5 136,-131.5 179,-131.5 179,-112.5 136,-112.5"/>
<text text-anchor="middle" x="157.5" y="-119.5" font-family="Helvetica,sans-Serif" font-size="10.00" fill="#000000">cstdio</text>
</a>
</g>
</g>
<!-- Node2&#45;&gt;Node3 -->
<g id="edge3" class="edge">
<title>Node2&#45;&gt;Node3</title>
<path fill="none" stroke="#191970" d="M157.5,-168.2455C157.5,-160.9382 157.5,-150.6944 157.5,-141.7046"/>
<polygon fill="#191970" stroke="#191970" points="161.0001,-141.6426 157.5,-131.6427 154.0001,-141.6427 161.0001,-141.6426"/>
</g>
<!-- Node4 -->
<g id="node5" class="node">
<title>Node4</title>
<g id="a_node5"><a xlink:title=" ">
<polygon fill="#ffffff" stroke="#bfbfbf" points="335,-.5 335,-19.5 384,-19.5 384,-.5 335,-.5"/>
<text text-anchor="middle" x="359.5" y="-7.5" font-family="Helvetica,sans-Serif" font-size="10.00" fill="#000000">stdint.h</text>
</a>
</g>
</g>
<!-- Node2&#45;&gt;Node4 -->
<g id="edge4" class="edge">
<title>Node2&#45;&gt;Node4</title>
<path fill="none" stroke="#191970" d="M168.9392,-168.4862C202.0456,-140.9521 298.2353,-60.9528 339.8891,-26.31"/>
<polygon fill="#191970" stroke="#191970" points="342.2327,-28.9132 347.6831,-19.8279 337.7566,-23.5313 342.2327,-28.9132"/>
</g>
<!-- Node5&#45;&gt;Node2 -->
<g id="edge31" class="edge">
<title>Node5&#45;&gt;Node2</title>
<path fill="none" stroke="#191970" d="M206.0219,-336.4016C194.6185,-318.9199 171.2466,-280.3326 161.5,-244 157.4512,-228.9074 156.5773,-211.2042 156.6465,-197.9341"/>
<polygon fill="#191970" stroke="#191970" points="160.1537,-197.6716 156.8941,-187.5907 153.1557,-197.5041 160.1537,-197.6716"/>
</g>
<!-- Node6 -->
<g id="node7" class="node">
<title>Node6</title>
<g id="a_node7"><a xlink:href="dji__ack_8hpp.html" target="_top" xlink:title="All DJI OSDK ACK parsing.">
<polygon fill="#ffffff" stroke="#000000" points="247.5,-280.5 247.5,-299.5 313.5,-299.5 313.5,-280.5 247.5,-280.5"/>
<text text-anchor="middle" x="280.5" y="-287.5" font-family="Helvetica,sans-Serif" font-size="10.00" fill="#000000">dji_ack.hpp</text>
</a>
</g>
</g>
<!-- Node5&#45;&gt;Node6 -->
<g id="edge6" class="edge">
<title>Node5&#45;&gt;Node6</title>
<path fill="none" stroke="#191970" d="M224.3447,-336.2455C234.388,-327.9746 248.9995,-315.9416 260.8004,-306.2232"/>
<polygon fill="#191970" stroke="#191970" points="263.2967,-308.7015 268.791,-299.6427 258.8467,-303.298 263.2967,-308.7015"/>
</g>
<!-- Node16 -->
<g id="node17" class="node">
<title>Node16</title>
<g id="a_node17"><a xlink:href="dji__log_8hpp.html" target="_top" xlink:title="Logging mechanism for printing status and error messages to the screen.">
<polygon fill="#ffffff" stroke="#000000" points="527,-224.5 527,-243.5 590,-243.5 590,-224.5 527,-224.5"/>
<text text-anchor="middle" x="558.5" y="-231.5" font-family="Helvetica,sans-Serif" font-size="10.00" fill="#000000">dji_log.hpp</text>
</a>
</g>
</g>
<!-- Node5&#45;&gt;Node16 -->
<g id="edge23" class="edge">
<title>Node5&#45;&gt;Node16</title>
<path fill="none" stroke="#191970" d="M241.9998,-336.4509C304.3047,-316.2829 449.3121,-269.3441 519.3103,-246.6857"/>
<polygon fill="#191970" stroke="#191970" points="520.6388,-249.9345 529.0749,-243.5249 518.483,-243.2747 520.6388,-249.9345"/>
</g>
<!-- Node6&#45;&gt;Node2 -->
<g id="edge18" class="edge">
<title>Node6&#45;&gt;Node2</title>
<path fill="none" stroke="#191970" d="M247.4731,-283.1914C224.4905,-276.8014 194.7996,-264.9773 176.5,-244 165.3671,-231.2381 160.7391,-212.3214 158.8248,-198.0076"/>
<polygon fill="#191970" stroke="#191970" points="162.274,-197.3239 157.7989,-187.7206 155.3086,-198.0185 162.274,-197.3239"/>
</g>
<!-- Node7 -->
<g id="node8" class="node">
<title>Node7</title>
<g id="a_node8"><a xlink:href="dji__command_8hpp.html" target="_top" xlink:title="All DJI OSDK OpenProtocol Command IDs.">
<polygon fill="#ffffff" stroke="#000000" points="357,-168.5 357,-187.5 450,-187.5 450,-168.5 357,-168.5"/>
<text text-anchor="middle" x="403.5" y="-175.5" font-family="Helvetica,sans-Serif" font-size="10.00" fill="#000000">dji_command.hpp</text>
</a>
</g>
</g>
<!-- Node6&#45;&gt;Node7 -->
<g id="edge7" class="edge">
<title>Node6&#45;&gt;Node7</title>
<path fill="none" stroke="#191970" d="M292.5172,-280.3776C303.8068,-271.2382 321.0749,-257.0005 335.5,-244 353.4802,-227.7955 373.2533,-208.4177 386.8199,-194.8661"/>
<polygon fill="#191970" stroke="#191970" points="389.452,-197.1832 394.03,-187.6285 384.4928,-192.2429 389.452,-197.1832"/>
</g>
<!-- Node10 -->
<g id="node11" class="node">
<title>Node10</title>
<g id="a_node11"><a xlink:title=" ">
<polygon fill="#ffffff" stroke="#bfbfbf" points="396,-56.5 396,-75.5 431,-75.5 431,-56.5 396,-56.5"/>
<text text-anchor="middle" x="413.5" y="-63.5" font-family="Helvetica,sans-Serif" font-size="10.00" fill="#000000">map</text>
</a>
</g>
</g>
<!-- Node6&#45;&gt;Node10 -->
<g id="edge22" class="edge">
<title>Node6&#45;&gt;Node10</title>
<path fill="none" stroke="#191970" d="M285.1236,-280.448C298.3902,-253.3149 338.2183,-173.7518 378.5,-112 384.8478,-102.2688 392.613,-91.9306 399.215,-83.525"/>
<polygon fill="#191970" stroke="#191970" points="402.0611,-85.5699 405.5658,-75.5715 396.5909,-81.202 402.0611,-85.5699"/>
</g>
<!-- Node13 -->
<g id="node14" class="node">
<title>Node13</title>
<g id="a_node14"><a xlink:href="dji__mission__type_8hpp.html" target="_top" xlink:title="Mission related data struct for DJI OSDK library.">
<polygon fill="#ffffff" stroke="#000000" points="185.5,-224.5 185.5,-243.5 293.5,-243.5 293.5,-224.5 185.5,-224.5"/>
<text text-anchor="middle" x="239.5" y="-231.5" font-family="Helvetica,sans-Serif" font-size="10.00" fill="#000000">dji_mission_type.hpp</text>
</a>
</g>
</g>
<!-- Node6&#45;&gt;Node13 -->
<g id="edge15" class="edge">
<title>Node6&#45;&gt;Node13</title>
<path fill="none" stroke="#191970" d="M273.3583,-280.2455C267.6556,-272.4564 259.51,-261.3308 252.6375,-251.9439"/>
<polygon fill="#191970" stroke="#191970" points="255.2913,-249.6437 246.5598,-243.6427 249.6432,-253.7789 255.2913,-249.6437"/>
</g>
<!-- Node15 -->
<g id="node16" class="node">
<title>Node15</title>
<g id="a_node16"><a xlink:href="dji__version_8hpp.html" target="_top" xlink:title="Drone/SDK Version definition for DJI onboardSDK library.">
<polygon fill="#ffffff" stroke="#000000" points="387.5,-224.5 387.5,-243.5 469.5,-243.5 469.5,-224.5 387.5,-224.5"/>
<text text-anchor="middle" x="428.5" y="-231.5" font-family="Helvetica,sans-Serif" font-size="10.00" fill="#000000">dji_version.hpp</text>
</a>
</g>
</g>
<!-- Node6&#45;&gt;Node15 -->
<g id="edge19" class="edge">
<title>Node6&#45;&gt;Node15</title>
<path fill="none" stroke="#191970" d="M305.9421,-280.3733C330.2326,-271.1822 367.0208,-257.2624 393.9543,-247.0713"/>
<polygon fill="#191970" stroke="#191970" points="395.2757,-250.3136 403.3899,-243.5011 392.7984,-243.7666 395.2757,-250.3136"/>
</g>
<!-- Node7&#45;&gt;Node4 -->
<g id="edge14" class="edge">
<title>Node7&#45;&gt;Node4</title>
<path fill="none" stroke="#191970" d="M396.8922,-168.2264C391.1209,-159.2126 382.9849,-145.2596 378.5,-132 366.7602,-97.2914 362.2271,-54.5428 360.5107,-29.9643"/>
<polygon fill="#191970" stroke="#191970" points="363.9907,-29.527 359.8898,-19.7581 357.0036,-29.9522 363.9907,-29.527"/>
</g>
<!-- Node8 -->
<g id="node9" class="node">
<title>Node8</title>
<g id="a_node9"><a xlink:href="dji__error_8hpp.html" target="_top" xlink:title="All DJI OSDK OpenProtocol ACK Error Codes.">
<polygon fill="#ffffff" stroke="#000000" points="387.5,-112.5 387.5,-131.5 457.5,-131.5 457.5,-112.5 387.5,-112.5"/>
<text text-anchor="middle" x="422.5" y="-119.5" font-family="Helvetica,sans-Serif" font-size="10.00" fill="#000000">dji_error.hpp</text>
</a>
</g>
</g>
<!-- Node7&#45;&gt;Node8 -->
<g id="edge8" class="edge">
<title>Node7&#45;&gt;Node8</title>
<path fill="none" stroke="#191970" d="M406.8095,-168.2455C409.3433,-160.7776 412.9177,-150.2427 416.015,-141.1137"/>
<polygon fill="#191970" stroke="#191970" points="419.3298,-142.237 419.2284,-131.6427 412.7009,-139.9879 419.3298,-142.237"/>
</g>
<!-- Node9 -->
<g id="node10" class="node">
<title>Node9</title>
<g id="a_node10"><a xlink:title=" ">
<polygon fill="#ffffff" stroke="#bfbfbf" points="455.5,-56.5 455.5,-75.5 501.5,-75.5 501.5,-56.5 455.5,-56.5"/>
<text text-anchor="middle" x="478.5" y="-63.5" font-family="Helvetica,sans-Serif" font-size="10.00" fill="#000000">cstdint</text>
</a>
</g>
</g>
<!-- Node8&#45;&gt;Node9 -->
<g id="edge9" class="edge">
<title>Node8&#45;&gt;Node9</title>
<path fill="none" stroke="#191970" d="M432.2545,-112.2455C440.3648,-104.1352 452.0925,-92.4075 461.7081,-82.7919"/>
<polygon fill="#191970" stroke="#191970" points="464.2611,-85.1887 468.8573,-75.6427 459.3113,-80.2389 464.2611,-85.1887"/>
</g>
<!-- Node8&#45;&gt;Node10 -->
<g id="edge10" class="edge">
<title>Node8&#45;&gt;Node10</title>
<path fill="none" stroke="#191970" d="M420.9323,-112.2455C419.7579,-104.9382 418.1116,-94.6944 416.6668,-85.7046"/>
<polygon fill="#191970" stroke="#191970" points="420.0922,-84.9606 415.0497,-75.6427 413.1809,-86.0714 420.0922,-84.9606"/>
</g>
<!-- Node11 -->
<g id="node12" class="node">
<title>Node11</title>
<g id="a_node12"><a xlink:href="osdk__typedef_8h_source.html" target="_top" xlink:title=" ">
<polygon fill="#ffffff" stroke="#000000" points="569,-56.5 569,-75.5 652,-75.5 652,-56.5 569,-56.5"/>
<text text-anchor="middle" x="610.5" y="-63.5" font-family="Helvetica,sans-Serif" font-size="10.00" fill="#000000">osdk_typedef.h</text>
</a>
</g>
</g>
<!-- Node8&#45;&gt;Node11 -->
<g id="edge11" class="edge">
<title>Node8&#45;&gt;Node11</title>
<path fill="none" stroke="#191970" d="M454.8184,-112.3733C486.3506,-102.9807 534.4621,-88.6496 568.8501,-78.4064"/>
<polygon fill="#191970" stroke="#191970" points="570.0187,-81.7103 578.6034,-75.5011 568.0203,-75.0016 570.0187,-81.7103"/>
</g>
<!-- Node11&#45;&gt;Node4 -->
<g id="edge13" class="edge">
<title>Node11&#45;&gt;Node4</title>
<path fill="none" stroke="#191970" d="M568.7707,-56.6899C519.8853,-45.7832 439.7913,-27.9136 394.1735,-17.7359"/>
<polygon fill="#191970" stroke="#191970" points="394.6942,-14.2661 384.172,-15.5045 393.1699,-21.0981 394.6942,-14.2661"/>
</g>
<!-- Node12 -->
<g id="node13" class="node">
<title>Node12</title>
<g id="a_node13"><a xlink:title=" ">
<polygon fill="#ffffff" stroke="#bfbfbf" points="584.5,-.5 584.5,-19.5 636.5,-19.5 636.5,-.5 584.5,-.5"/>
<text text-anchor="middle" x="610.5" y="-7.5" font-family="Helvetica,sans-Serif" font-size="10.00" fill="#000000">stddef.h</text>
</a>
</g>
</g>
<!-- Node11&#45;&gt;Node12 -->
<g id="edge12" class="edge">
<title>Node11&#45;&gt;Node12</title>
<path fill="none" stroke="#191970" d="M610.5,-56.2455C610.5,-48.9382 610.5,-38.6944 610.5,-29.7046"/>
<polygon fill="#191970" stroke="#191970" points="614.0001,-29.6426 610.5,-19.6427 607.0001,-29.6427 614.0001,-29.6426"/>
</g>
<!-- Node13&#45;&gt;Node2 -->
<g id="edge17" class="edge">
<title>Node13&#45;&gt;Node2</title>
<path fill="none" stroke="#191970" d="M225.2167,-224.2455C212.753,-215.7337 194.4549,-203.2375 180.0208,-193.3801"/>
<polygon fill="#191970" stroke="#191970" points="181.8515,-190.392 171.6196,-187.6427 177.9038,-196.1726 181.8515,-190.392"/>
</g>
<!-- Node14 -->
<g id="node15" class="node">
<title>Node14</title>
<g id="a_node15"><a xlink:title=" ">
<polygon fill="#ffffff" stroke="#bfbfbf" points="217.5,-168.5 217.5,-187.5 261.5,-187.5 261.5,-168.5 217.5,-168.5"/>
<text text-anchor="middle" x="239.5" y="-175.5" font-family="Helvetica,sans-Serif" font-size="10.00" fill="#000000">vector</text>
</a>
</g>
</g>
<!-- Node13&#45;&gt;Node14 -->
<g id="edge16" class="edge">
<title>Node13&#45;&gt;Node14</title>
<path fill="none" stroke="#191970" d="M239.5,-224.2455C239.5,-216.9382 239.5,-206.6944 239.5,-197.7046"/>
<polygon fill="#191970" stroke="#191970" points="243.0001,-197.6426 239.5,-187.6427 236.0001,-197.6427 243.0001,-197.6426"/>
</g>
<!-- Node15&#45;&gt;Node7 -->
<g id="edge20" class="edge">
<title>Node15&#45;&gt;Node7</title>
<path fill="none" stroke="#191970" d="M424.1453,-224.2455C420.7756,-216.6973 416.007,-206.0158 411.9017,-196.8197"/>
<polygon fill="#191970" stroke="#191970" points="415.0773,-195.3473 407.8048,-187.6427 408.6853,-198.2009 415.0773,-195.3473"/>
</g>
<!-- Node15&#45;&gt;Node9 -->
<g id="edge21" class="edge">
<title>Node15&#45;&gt;Node9</title>
<path fill="none" stroke="#191970" d="M436.4625,-224.4306C443.4105,-215.5542 453.1877,-201.6883 458.5,-188 471.8404,-153.6255 476.2828,-110.4459 477.7619,-85.7586"/>
<polygon fill="#191970" stroke="#191970" points="481.2695,-85.6893 478.2653,-75.5293 474.2779,-85.3452 481.2695,-85.6893"/>
</g>
<!-- Node17 -->
<g id="node18" class="node">
<title>Node17</title>
<g id="a_node18"><a xlink:href="dji__singleton_8hpp.html" target="_top" xlink:title="Singleton Template Class implementation for use with the DJI OSDK.">
<polygon fill="#ffffff" stroke="#000000" points="514,-112.5 514,-131.5 603,-131.5 603,-112.5 514,-112.5"/>
<text text-anchor="middle" x="558.5" y="-119.5" font-family="Helvetica,sans-Serif" font-size="10.00" fill="#000000">dji_singleton.hpp</text>
</a>
</g>
</g>
<!-- Node16&#45;&gt;Node17 -->
<g id="edge24" class="edge">
<title>Node16&#45;&gt;Node17</title>
<path fill="none" stroke="#191970" d="M558.5,-224.4509C558.5,-206.184 558.5,-165.9553 558.5,-141.6976"/>
<polygon fill="#191970" stroke="#191970" points="562.0001,-141.5249 558.5,-131.5249 555.0001,-141.5249 562.0001,-141.5249"/>
</g>
<!-- Node18 -->
<g id="node19" class="node">
<title>Node18</title>
<g id="a_node19"><a xlink:href="dji__platform_8hpp.html" target="_top" xlink:title="Vehicle API for DJI onboardSDK library.">
<polygon fill="#ffffff" stroke="#000000" points="601.5,-168.5 601.5,-187.5 687.5,-187.5 687.5,-168.5 601.5,-168.5"/>
<text text-anchor="middle" x="644.5" y="-175.5" font-family="Helvetica,sans-Serif" font-size="10.00" fill="#000000">dji_platform.hpp</text>
</a>
</g>
</g>
<!-- Node16&#45;&gt;Node18 -->
<g id="edge25" class="edge">
<title>Node16&#45;&gt;Node18</title>
<path fill="none" stroke="#191970" d="M573.4801,-224.2455C586.6751,-215.6534 606.1051,-203.0014 621.3079,-193.1018"/>
<polygon fill="#191970" stroke="#191970" points="623.2215,-196.0325 629.6916,-187.6427 619.4017,-190.1665 623.2215,-196.0325"/>
</g>
<!-- Node18&#45;&gt;Node17 -->
<g id="edge28" class="edge">
<title>Node18&#45;&gt;Node17</title>
<path fill="none" stroke="#191970" d="M629.5199,-168.2455C616.3249,-159.6534 596.8949,-147.0014 581.6921,-137.1018"/>
<polygon fill="#191970" stroke="#191970" points="583.5983,-134.1665 573.3084,-131.6427 579.7785,-140.0325 583.5983,-134.1665"/>
</g>
<!-- Node19 -->
<g id="node20" class="node">
<title>Node19</title>
<g id="a_node20"><a xlink:href="osdk__platform_8h.html" target="_top" xlink:title="This is the header file for define OSDK platform interfaces.">
<polygon fill="#ffffff" stroke="#000000" points="716.5,-112.5 716.5,-131.5 802.5,-131.5 802.5,-112.5 716.5,-112.5"/>
<text text-anchor="middle" x="759.5" y="-119.5" font-family="Helvetica,sans-Serif" font-size="10.00" fill="#000000">osdk_platform.h</text>
</a>
</g>
</g>
<!-- Node18&#45;&gt;Node19 -->
<g id="edge26" class="edge">
<title>Node18&#45;&gt;Node19</title>
<path fill="none" stroke="#191970" d="M664.2692,-168.3733C682.6469,-159.4241 710.2312,-145.9917 730.9893,-135.8835"/>
<polygon fill="#191970" stroke="#191970" points="732.5304,-139.026 739.9888,-131.5011 729.4657,-132.7325 732.5304,-139.026"/>
</g>
<!-- Node20 -->
<g id="node21" class="node">
<title>Node20</title>
<g id="a_node21"><a xlink:href="osdk__logger_8h.html" target="_top" xlink:title="This is the header file for &quot;osdk_logger.c&quot;, defining the structure and (exported) function prototype...">
<polygon fill="#ffffff" stroke="#000000" points="621,-112.5 621,-131.5 698,-131.5 698,-112.5 621,-112.5"/>
<text text-anchor="middle" x="659.5" y="-119.5" font-family="Helvetica,sans-Serif" font-size="10.00" fill="#000000">osdk_logger.h</text>
</a>
</g>
</g>
<!-- Node18&#45;&gt;Node20 -->
<g id="edge29" class="edge">
<title>Node18&#45;&gt;Node20</title>
<path fill="none" stroke="#191970" d="M647.1128,-168.2455C649.0916,-160.8579 651.8744,-150.4689 654.3012,-141.4087"/>
<polygon fill="#191970" stroke="#191970" points="657.7105,-142.2078 656.9171,-131.6427 650.9489,-140.3966 657.7105,-142.2078"/>
</g>
<!-- Node19&#45;&gt;Node11 -->
<g id="edge27" class="edge">
<title>Node19&#45;&gt;Node11</title>
<path fill="none" stroke="#191970" d="M733.886,-112.3733C709.4313,-103.1822 672.3946,-89.2624 645.2791,-79.0713"/>
<polygon fill="#191970" stroke="#191970" points="646.3719,-75.7431 635.7798,-75.5011 643.9091,-82.2956 646.3719,-75.7431"/>
</g>
<!-- Node20&#45;&gt;Node11 -->
<g id="edge30" class="edge">
<title>Node20&#45;&gt;Node11</title>
<path fill="none" stroke="#191970" d="M650.9649,-112.2455C644.0088,-104.2958 634.0117,-92.8706 625.6949,-83.3656"/>
<polygon fill="#191970" stroke="#191970" points="628.1564,-80.8637 618.9373,-75.6427 622.8884,-85.4732 628.1564,-80.8637"/>
</g>
</g>
</svg>
        <g id="navigator" transform="translate(0 0)" fill="#404254">
                <rect fill="#f2f5e9" fill-opacity="0.5" stroke="#606060" stroke-width=".5" x="0" y="0" width="60" height="60"/>
                <use id="zoomplus" xlink:href="#zoomPlus" x="17" y="9" onmousedown="handleZoom(evt,'in')"/>
                <use id="zoomminus" xlink:href="#zoomMin" x="42" y="9" onmousedown="handleZoom(evt,'out')"/>
                <use id="reset" xlink:href="#resetDef" x="30" y="36" onmousedown="handleReset()"/>
                <g id="arrowUp" xlink:href="#dirArrow" transform="translate(30 24)" onmousedown="handlePan(0,-1)">
                  <use xlink:href="#rim" fill="#404040">
                        <set attributeName="fill" to="#808080" begin="arrowUp.mouseover" end="arrowUp.mouseout"/>
                  </use>
                  <path fill="none" stroke="white" stroke-width="1.5" d="M0,-3.0v7 M-2.5,-0.5L0,-3.0L2.5,-0.5"/>
                </g>
                <g id="arrowRight" xlink:href="#dirArrow" transform="rotate(90) translate(36 -43)" onmousedown="handlePan(1,0)">
                  <use xlink:href="#rim" fill="#404040">
                        <set attributeName="fill" to="#808080" begin="arrowRight.mouseover" end="arrowRight.mouseout"/>
                  </use>
                  <path fill="none" stroke="white" stroke-width="1.5" d="M0,-3.0v7 M-2.5,-0.5L0,-3.0L2.5,-0.5"/>
                </g>
                <g id="arrowDown" xlink:href="#dirArrow" transform="rotate(180) translate(-30 -48)" onmousedown="handlePan(0,1)">
                  <use xlink:href="#rim" fill="#404040">
                        <set attributeName="fill" to="#808080" begin="arrowDown.mouseover" end="arrowDown.mouseout"/>
                  </use>
                  <path fill="none" stroke="white" stroke-width="1.5" d="M0,-3.0v7 M-2.5,-0.5L0,-3.0L2.5,-0.5"/>
                </g>
                <g id="arrowLeft" xlink:href="#dirArrow" transform="rotate(270) translate(-36 17)" onmousedown="handlePan(-1,0)">
                  <use xlink:href="#rim" fill="#404040">
                        <set attributeName="fill" to="#808080" begin="arrowLeft.mouseover" end="arrowLeft.mouseout"/>
                  </use>
                  <path fill="none" stroke="white" stroke-width="1.5" d="M0,-3.0v7 M-2.5,-0.5L0,-3.0L2.5,-0.5"/>
                </g>
        </g>
        <svg viewBox="0 0 15 15" width="100%" height="30px" preserveAspectRatio="xMaxYMin meet">
         <g id="arrow_out" transform="scale(0.3 0.3)">
          <a xlink:href="dji__broadcast_8hpp__incl_org.svg" target="_base">
           <rect id="button" ry="5" rx="5" y="6" x="6" height="38" width="38"
                fill="#f2f5e9" fill-opacity="0.5" stroke="#606060" stroke-width="1.0"/>
           <path id="arrow"
             d="M 11.500037,31.436501 C 11.940474,20.09759 22.043105,11.32322 32.158766,21.979434 L 37.068811,17.246167 C 37.068811,17.246167 37.088388,32 37.088388,32 L 22.160133,31.978069 C 22.160133,31.978069 26.997745,27.140456 26.997745,27.140456 C 18.528582,18.264221 13.291696,25.230495 11.500037,31.436501 z"
             style="fill:#404040;"/>
          </a>
         </g>
        </svg>
</svg>
