<?xml version="1.0" encoding="UTF-8" standalone="no"?>
<!DOCTYPE svg PUBLIC "-//W3C//DTD SVG 1.1//EN"
 "http://www.w3.org/Graphics/SVG/1.1/DTD/svg11.dtd">
<!-- Generated by graphviz version 2.38.0 (20140413.2041)
 -->
<!-- Title: osdk&#45;core/api/inc/dji_camera.hpp Pages: 1 -->
<svg width="216pt" height="207pt"
 viewBox="0.00 0.00 215.50 207.00" xmlns="http://www.w3.org/2000/svg" xmlns:xlink="http://www.w3.org/1999/xlink">
<g id="graph0" class="graph" transform="scale(1 1) rotate(0) translate(4 203)">
<title>osdk&#45;core/api/inc/dji_camera.hpp</title>
<polygon fill="white" stroke="none" points="-4,4 -4,-203 211.5,-203 211.5,4 -4,4"/>
<!-- Node1 -->
<g id="node1" class="node"><title>Node1</title>
<polygon fill="#bfbfbf" stroke="black" points="59,-168.5 59,-198.5 163,-198.5 163,-168.5 59,-168.5"/>
<text text-anchor="start" x="67" y="-186.5" font-family="Helvetica,sans-Serif" font-size="10.00">osdk&#45;core/api/inc/dji</text>
<text text-anchor="middle" x="111" y="-175.5" font-family="Helvetica,sans-Serif" font-size="10.00">_camera.hpp</text>
</g>
<!-- Node2 -->
<g id="node2" class="node"><title>Node2</title>
<g id="a_node2"><a xlink:href="dji__command_8hpp.html" target="_top" xlink:title="All DJI OSDK OpenProtocol Command IDs. ">
<polygon fill="white" stroke="black" points="15.5,-112.5 15.5,-131.5 108.5,-131.5 108.5,-112.5 15.5,-112.5"/>
<text text-anchor="middle" x="62" y="-119.5" font-family="Helvetica,sans-Serif" font-size="10.00">dji_command.hpp</text>
</a>
</g>
</g>
<!-- Node1&#45;&gt;Node2 -->
<g id="edge1" class="edge"><title>Node1&#45;&gt;Node2</title>
<path fill="none" stroke="midnightblue" d="M99.3877,-168.399C92.2674,-159.753 83.1169,-148.642 75.6508,-139.576"/>
<polygon fill="midnightblue" stroke="midnightblue" points="78.1888,-137.152 69.1299,-131.658 72.7853,-141.602 78.1888,-137.152"/>
</g>
<!-- Node5 -->
<g id="node5" class="node"><title>Node5</title>
<g id="a_node5"><a xlink:href="dji__type_8hpp.html" target="_top" xlink:title="Data type and Data Structure definitions for use throughout DJI OSDK. ">
<polygon fill="white" stroke="black" points="126.5,-112.5 126.5,-131.5 195.5,-131.5 195.5,-112.5 126.5,-112.5"/>
<text text-anchor="middle" x="161" y="-119.5" font-family="Helvetica,sans-Serif" font-size="10.00">dji_type.hpp</text>
</a>
</g>
</g>
<!-- Node1&#45;&gt;Node5 -->
<g id="edge5" class="edge"><title>Node1&#45;&gt;Node5</title>
<path fill="none" stroke="midnightblue" d="M122.849,-168.399C130.115,-159.753 139.452,-148.642 147.071,-139.576"/>
<polygon fill="midnightblue" stroke="midnightblue" points="149.971,-141.565 153.725,-131.658 144.612,-137.062 149.971,-141.565"/>
</g>
<!-- Node3 -->
<g id="node3" class="node"><title>Node3</title>
<g id="a_node3"><a xlink:href="dji__error_8hpp.html" target="_top" xlink:title="All DJI OSDK OpenProtocol ACK Error Codes. ">
<polygon fill="white" stroke="black" points="0,-56.5 0,-75.5 70,-75.5 70,-56.5 0,-56.5"/>
<text text-anchor="middle" x="35" y="-63.5" font-family="Helvetica,sans-Serif" font-size="10.00">dji_error.hpp</text>
</a>
</g>
</g>
<!-- Node2&#45;&gt;Node3 -->
<g id="edge2" class="edge"><title>Node2&#45;&gt;Node3</title>
<path fill="none" stroke="midnightblue" d="M57.5415,-112.083C53.8457,-104.691 48.4766,-93.9533 43.9055,-84.8111"/>
<polygon fill="midnightblue" stroke="midnightblue" points="46.9782,-83.1301 39.3755,-75.7511 40.7172,-86.2606 46.9782,-83.1301"/>
</g>
<!-- Node4 -->
<g id="node4" class="node"><title>Node4</title>
<polygon fill="white" stroke="#bfbfbf" points="73.5,-0.5 73.5,-19.5 122.5,-19.5 122.5,-0.5 73.5,-0.5"/>
<text text-anchor="middle" x="98" y="-7.5" font-family="Helvetica,sans-Serif" font-size="10.00">stdint.h</text>
</g>
<!-- Node2&#45;&gt;Node4 -->
<g id="edge4" class="edge"><title>Node2&#45;&gt;Node4</title>
<path fill="none" stroke="midnightblue" d="M65.457,-112.444C69.0406,-103.443 74.7083,-88.8305 79,-76 84.1864,-60.4949 89.3446,-42.6547 92.975,-29.5916"/>
<polygon fill="midnightblue" stroke="midnightblue" points="96.3638,-30.4678 95.6321,-19.8983 89.6129,-28.6172 96.3638,-30.4678"/>
</g>
<!-- Node3&#45;&gt;Node4 -->
<g id="edge3" class="edge"><title>Node3&#45;&gt;Node4</title>
<path fill="none" stroke="midnightblue" d="M45.122,-56.324C54.5264,-48.2631 68.7441,-36.0765 80.069,-26.3695"/>
<polygon fill="midnightblue" stroke="midnightblue" points="82.379,-28.9993 87.6938,-19.8339 77.8234,-23.6844 82.379,-28.9993"/>
</g>
<!-- Node5&#45;&gt;Node4 -->
<g id="edge7" class="edge"><title>Node5&#45;&gt;Node4</title>
<path fill="none" stroke="midnightblue" d="M156.056,-112.368C145.706,-94.2957 121.583,-52.1764 107.912,-28.3074"/>
<polygon fill="midnightblue" stroke="midnightblue" points="110.928,-26.5295 102.921,-19.5914 104.853,-30.0085 110.928,-26.5295"/>
</g>
<!-- Node6 -->
<g id="node6" class="node"><title>Node6</title>
<polygon fill="white" stroke="#bfbfbf" points="164.5,-56.5 164.5,-75.5 207.5,-75.5 207.5,-56.5 164.5,-56.5"/>
<text text-anchor="middle" x="186" y="-63.5" font-family="Helvetica,sans-Serif" font-size="10.00">cstdio</text>
</g>
<!-- Node5&#45;&gt;Node6 -->
<g id="edge6" class="edge"><title>Node5&#45;&gt;Node6</title>
<path fill="none" stroke="midnightblue" d="M165.128,-112.083C168.514,-104.77 173.416,-94.1814 177.619,-85.1034"/>
<polygon fill="midnightblue" stroke="midnightblue" points="180.923,-86.2962 181.949,-75.7511 174.571,-83.3553 180.923,-86.2962"/>
</g>
</g>
</svg>
