<?xml version="1.0" encoding="UTF-8" standalone="no"?>
<!DOCTYPE svg PUBLIC "-//W3C//DTD SVG 1.1//EN"
 "http://www.w3.org/Graphics/SVG/1.1/DTD/svg11.dtd">
<!-- Generated by graphviz version 2.38.0 (20140413.2041)
 -->
<!-- Title: osdk&#45;core/api/inc/dji_hotpoint.hpp Pages: 1 -->
<svg width="343pt" height="263pt"
 viewBox="0.00 0.00 343.00 263.00" xmlns="http://www.w3.org/2000/svg" xmlns:xlink="http://www.w3.org/1999/xlink">
<g id="graph0" class="graph" transform="scale(1 1) rotate(0) translate(4 259)">
<title>osdk&#45;core/api/inc/dji_hotpoint.hpp</title>
<polygon fill="white" stroke="none" points="-4,4 -4,-259 339,-259 339,4 -4,4"/>
<!-- Node1 -->
<g id="node1" class="node"><title>Node1</title>
<polygon fill="#bfbfbf" stroke="black" points="177.5,-224.5 177.5,-254.5 281.5,-254.5 281.5,-224.5 177.5,-224.5"/>
<text text-anchor="start" x="185.5" y="-242.5" font-family="Helvetica,sans-Serif" font-size="10.00">osdk&#45;core/api/inc/dji</text>
<text text-anchor="middle" x="229.5" y="-231.5" font-family="Helvetica,sans-Serif" font-size="10.00">_hotpoint.hpp</text>
</g>
<!-- Node2 -->
<g id="node2" class="node"><title>Node2</title>
<g id="a_node2"><a xlink:href="dji__mission__base_8hpp.html" target="_top" xlink:title="Mission&#45;Base abstract class for DJI OSDK library. ">
<polygon fill="white" stroke="black" points="115.5,-168.5 115.5,-187.5 225.5,-187.5 225.5,-168.5 115.5,-168.5"/>
<text text-anchor="middle" x="170.5" y="-175.5" font-family="Helvetica,sans-Serif" font-size="10.00">dji_mission_base.hpp</text>
</a>
</g>
</g>
<!-- Node1&#45;&gt;Node2 -->
<g id="edge1" class="edge"><title>Node1&#45;&gt;Node2</title>
<path fill="none" stroke="midnightblue" d="M215.518,-224.399C206.768,-215.575 195.471,-204.183 186.383,-195.018"/>
<polygon fill="midnightblue" stroke="midnightblue" points="188.612,-192.294 179.085,-187.658 183.641,-197.223 188.612,-192.294"/>
</g>
<!-- Node10 -->
<g id="node10" class="node"><title>Node10</title>
<g id="a_node10"><a xlink:href="dji__telemetry_8hpp.html" target="_top" xlink:title="Enumeration of all telemetry data types, structures and maps. ">
<polygon fill="white" stroke="black" points="244,-168.5 244,-187.5 335,-187.5 335,-168.5 244,-168.5"/>
<text text-anchor="middle" x="289.5" y="-175.5" font-family="Helvetica,sans-Serif" font-size="10.00">dji_telemetry.hpp</text>
</a>
</g>
</g>
<!-- Node1&#45;&gt;Node10 -->
<g id="edge11" class="edge"><title>Node1&#45;&gt;Node10</title>
<path fill="none" stroke="midnightblue" d="M243.719,-224.399C252.708,-215.486 264.338,-203.952 273.627,-194.741"/>
<polygon fill="midnightblue" stroke="midnightblue" points="276.133,-197.184 280.769,-187.658 271.204,-192.214 276.133,-197.184"/>
</g>
<!-- Node3 -->
<g id="node3" class="node"><title>Node3</title>
<g id="a_node3"><a xlink:href="dji__command_8hpp.html" target="_top" xlink:title="All DJI OSDK OpenProtocol Command IDs. ">
<polygon fill="white" stroke="black" points="0,-112.5 0,-131.5 93,-131.5 93,-112.5 0,-112.5"/>
<text text-anchor="middle" x="46.5" y="-119.5" font-family="Helvetica,sans-Serif" font-size="10.00">dji_command.hpp</text>
</a>
</g>
</g>
<!-- Node2&#45;&gt;Node3 -->
<g id="edge2" class="edge"><title>Node2&#45;&gt;Node3</title>
<path fill="none" stroke="midnightblue" d="M150.852,-168.444C130.535,-159.596 98.5972,-145.687 75.4023,-135.586"/>
<polygon fill="midnightblue" stroke="midnightblue" points="76.6221,-132.3 66.0562,-131.516 73.8271,-138.718 76.6221,-132.3"/>
</g>
<!-- Node6 -->
<g id="node6" class="node"><title>Node6</title>
<g id="a_node6"><a xlink:href="dji__type_8hpp.html" target="_top" xlink:title="Data type and Data Structure definitions for use throughout DJI OSDK. ">
<polygon fill="white" stroke="black" points="254,-112.5 254,-131.5 323,-131.5 323,-112.5 254,-112.5"/>
<text text-anchor="middle" x="288.5" y="-119.5" font-family="Helvetica,sans-Serif" font-size="10.00">dji_type.hpp</text>
</a>
</g>
</g>
<!-- Node2&#45;&gt;Node6 -->
<g id="edge6" class="edge"><title>Node2&#45;&gt;Node6</title>
<path fill="none" stroke="midnightblue" d="M189.197,-168.444C208.444,-159.636 238.652,-145.812 260.7,-135.722"/>
<polygon fill="midnightblue" stroke="midnightblue" points="262.253,-138.86 269.89,-131.516 259.34,-132.495 262.253,-138.86"/>
</g>
<!-- Node8 -->
<g id="node8" class="node"><title>Node8</title>
<g id="a_node8"><a xlink:href="dji__vehicle__callback_8hpp.html" target="_top" xlink:title="Type definition for new Vehicle&#45;style callbacks. ">
<polygon fill="white" stroke="black" points="111.5,-112.5 111.5,-131.5 233.5,-131.5 233.5,-112.5 111.5,-112.5"/>
<text text-anchor="middle" x="172.5" y="-119.5" font-family="Helvetica,sans-Serif" font-size="10.00">dji_vehicle_callback.hpp</text>
</a>
</g>
</g>
<!-- Node2&#45;&gt;Node8 -->
<g id="edge9" class="edge"><title>Node2&#45;&gt;Node8</title>
<path fill="none" stroke="midnightblue" d="M170.83,-168.083C171.092,-161.006 171.468,-150.861 171.797,-141.986"/>
<polygon fill="midnightblue" stroke="midnightblue" points="175.303,-141.874 172.176,-131.751 168.308,-141.615 175.303,-141.874"/>
</g>
<!-- Node4 -->
<g id="node4" class="node"><title>Node4</title>
<g id="a_node4"><a xlink:href="dji__error_8hpp.html" target="_top" xlink:title="All DJI OSDK OpenProtocol ACK Error Codes. ">
<polygon fill="white" stroke="black" points="28.5,-56.5 28.5,-75.5 98.5,-75.5 98.5,-56.5 28.5,-56.5"/>
<text text-anchor="middle" x="63.5" y="-63.5" font-family="Helvetica,sans-Serif" font-size="10.00">dji_error.hpp</text>
</a>
</g>
</g>
<!-- Node3&#45;&gt;Node4 -->
<g id="edge3" class="edge"><title>Node3&#45;&gt;Node4</title>
<path fill="none" stroke="midnightblue" d="M49.3072,-112.083C51.5847,-104.849 54.8713,-94.4087 57.7084,-85.3968"/>
<polygon fill="midnightblue" stroke="midnightblue" points="61.0806,-86.3406 60.745,-75.7511 54.4036,-84.2385 61.0806,-86.3406"/>
</g>
<!-- Node5 -->
<g id="node5" class="node"><title>Node5</title>
<polygon fill="white" stroke="#bfbfbf" points="39,-0.5 39,-19.5 88,-19.5 88,-0.5 39,-0.5"/>
<text text-anchor="middle" x="63.5" y="-7.5" font-family="Helvetica,sans-Serif" font-size="10.00">stdint.h</text>
</g>
<!-- Node3&#45;&gt;Node5 -->
<g id="edge5" class="edge"><title>Node3&#45;&gt;Node5</title>
<path fill="none" stroke="midnightblue" d="M38.2211,-112.184C27.55,-99.6986 11.2893,-76.1416 19.5,-56 24.3,-44.2251 33.8286,-33.8564 42.7948,-26.0486"/>
<polygon fill="midnightblue" stroke="midnightblue" points="45.1504,-28.6448 50.7191,-19.6314 40.745,-23.2048 45.1504,-28.6448"/>
</g>
<!-- Node4&#45;&gt;Node5 -->
<g id="edge4" class="edge"><title>Node4&#45;&gt;Node5</title>
<path fill="none" stroke="midnightblue" d="M63.5,-56.083C63.5,-49.0059 63.5,-38.8611 63.5,-29.9865"/>
<polygon fill="midnightblue" stroke="midnightblue" points="67.0001,-29.751 63.5,-19.7511 60.0001,-29.7511 67.0001,-29.751"/>
</g>
<!-- Node6&#45;&gt;Node5 -->
<g id="edge8" class="edge"><title>Node6&#45;&gt;Node5</title>
<path fill="none" stroke="midnightblue" d="M293.605,-112.31C300.863,-98.687 311.885,-72.1918 298.5,-56 273.521,-25.7843 157.624,-15.6621 98.4579,-12.4292"/>
<polygon fill="midnightblue" stroke="midnightblue" points="98.2702,-8.91516 88.1052,-11.9024 97.9144,-15.9061 98.2702,-8.91516"/>
</g>
<!-- Node7 -->
<g id="node7" class="node"><title>Node7</title>
<polygon fill="white" stroke="#bfbfbf" points="246,-56.5 246,-75.5 289,-75.5 289,-56.5 246,-56.5"/>
<text text-anchor="middle" x="267.5" y="-63.5" font-family="Helvetica,sans-Serif" font-size="10.00">cstdio</text>
</g>
<!-- Node6&#45;&gt;Node7 -->
<g id="edge7" class="edge"><title>Node6&#45;&gt;Node7</title>
<path fill="none" stroke="midnightblue" d="M285.032,-112.083C282.188,-104.77 278.071,-94.1814 274.54,-85.1034"/>
<polygon fill="midnightblue" stroke="midnightblue" points="277.79,-83.8025 270.903,-75.7511 271.266,-86.3397 277.79,-83.8025"/>
</g>
<!-- Node9 -->
<g id="node9" class="node"><title>Node9</title>
<polygon fill="white" stroke="#bfbfbf" points="117,-56.5 117,-75.5 228,-75.5 228,-56.5 117,-56.5"/>
<text text-anchor="middle" x="172.5" y="-63.5" font-family="Helvetica,sans-Serif" font-size="10.00">dji_open_protocol.hpp</text>
</g>
<!-- Node8&#45;&gt;Node9 -->
<g id="edge10" class="edge"><title>Node8&#45;&gt;Node9</title>
<path fill="none" stroke="midnightblue" d="M172.5,-112.083C172.5,-105.006 172.5,-94.8611 172.5,-85.9865"/>
<polygon fill="midnightblue" stroke="midnightblue" points="176,-85.751 172.5,-75.7511 169,-85.7511 176,-85.751"/>
</g>
<!-- Node10&#45;&gt;Node6 -->
<g id="edge12" class="edge"><title>Node10&#45;&gt;Node6</title>
<path fill="none" stroke="midnightblue" d="M289.335,-168.083C289.204,-161.006 289.016,-150.861 288.852,-141.986"/>
<polygon fill="midnightblue" stroke="midnightblue" points="292.347,-141.685 288.662,-131.751 285.348,-141.814 292.347,-141.685"/>
</g>
</g>
</svg>
