<?xml version="1.0" encoding="UTF-8" standalone="no"?>
<!DOCTYPE svg PUBLIC "-//W3C//DTD SVG 1.1//EN"
 "http://www.w3.org/Graphics/SVG/1.1/DTD/svg11.dtd">
<!-- Generated by graphviz version 2.38.0 (20140413.2041)
 -->
<!-- Title: osdk&#45;core/api/src/dji_mfio.cpp Pages: 1 -->
<svg width="1463pt" height="431pt"
 viewBox="0.00 0.00 1462.90 431.00" xmlns="http://www.w3.org/2000/svg" xmlns:xlink="http://www.w3.org/1999/xlink">
<g id="graph0" class="graph" transform="scale(1 1) rotate(0) translate(4 427)">
<title>osdk&#45;core/api/src/dji_mfio.cpp</title>
<polygon fill="white" stroke="none" points="-4,4 -4,-427 1458.9,-427 1458.9,4 -4,4"/>
<!-- Node1 -->
<g id="node1" class="node"><title>Node1</title>
<polygon fill="#bfbfbf" stroke="black" points="951,-392.5 951,-422.5 1055,-422.5 1055,-392.5 951,-392.5"/>
<text text-anchor="start" x="959" y="-410.5" font-family="Helvetica,sans-Serif" font-size="10.00">osdk&#45;core/api/src/dji</text>
<text text-anchor="middle" x="1003" y="-399.5" font-family="Helvetica,sans-Serif" font-size="10.00">_mfio.cpp</text>
</g>
<!-- Node2 -->
<g id="node2" class="node"><title>Node2</title>
<g id="a_node2"><a xlink:href="dji__mfio_8hpp.html" target="_top" xlink:title="MFIO API for DJI OSDK library. ">
<polygon fill="white" stroke="black" points="1356.5,-280.5 1356.5,-299.5 1425.5,-299.5 1425.5,-280.5 1356.5,-280.5"/>
<text text-anchor="middle" x="1391" y="-287.5" font-family="Helvetica,sans-Serif" font-size="10.00">dji_mfio.hpp</text>
</a>
</g>
</g>
<!-- Node1&#45;&gt;Node2 -->
<g id="edge1" class="edge"><title>Node1&#45;&gt;Node2</title>
<path fill="none" stroke="midnightblue" d="M1050.19,-392.453C1127.76,-369.361 1280.76,-323.817 1352.35,-302.505"/>
<polygon fill="midnightblue" stroke="midnightblue" points="1353.72,-305.75 1362.3,-299.542 1351.72,-299.041 1353.72,-305.75"/>
</g>
<!-- Node5 -->
<g id="node5" class="node"><title>Node5</title>
<g id="a_node5"><a xlink:href="dji__vehicle_8hpp.html" target="_top" xlink:title="Vehicle API for DJI onboardSDK library. ">
<polygon fill="white" stroke="black" points="804.5,-336.5 804.5,-355.5 885.5,-355.5 885.5,-336.5 804.5,-336.5"/>
<text text-anchor="middle" x="845" y="-343.5" font-family="Helvetica,sans-Serif" font-size="10.00">dji_vehicle.hpp</text>
</a>
</g>
</g>
<!-- Node1&#45;&gt;Node5 -->
<g id="edge4" class="edge"><title>Node1&#45;&gt;Node5</title>
<path fill="none" stroke="midnightblue" d="M965.556,-392.399C938.81,-382.327 903.179,-368.909 877.601,-359.277"/>
<polygon fill="midnightblue" stroke="midnightblue" points="878.582,-355.907 867.99,-355.658 876.115,-362.458 878.582,-355.907"/>
</g>
<!-- Node3 -->
<g id="node3" class="node"><title>Node3</title>
<g id="a_node3"><a xlink:href="dji__vehicle__callback_8hpp.html" target="_top" xlink:title="Type definition for new Vehicle&#45;style callbacks. ">
<polygon fill="white" stroke="black" points="1038,-112.5 1038,-131.5 1160,-131.5 1160,-112.5 1038,-112.5"/>
<text text-anchor="middle" x="1099" y="-119.5" font-family="Helvetica,sans-Serif" font-size="10.00">dji_vehicle_callback.hpp</text>
</a>
</g>
</g>
<!-- Node2&#45;&gt;Node3 -->
<g id="edge2" class="edge"><title>Node2&#45;&gt;Node3</title>
<path fill="none" stroke="midnightblue" d="M1381.71,-280.207C1367.35,-266.91 1338.53,-241.396 1311,-224 1250.53,-185.798 1173.38,-152.523 1130.81,-135.363"/>
<polygon fill="midnightblue" stroke="midnightblue" points="1131.85,-132.009 1121.26,-131.552 1129.25,-138.51 1131.85,-132.009"/>
</g>
<!-- Node4 -->
<g id="node4" class="node"><title>Node4</title>
<polygon fill="white" stroke="#bfbfbf" points="998.5,-56.5 998.5,-75.5 1109.5,-75.5 1109.5,-56.5 998.5,-56.5"/>
<text text-anchor="middle" x="1054" y="-63.5" font-family="Helvetica,sans-Serif" font-size="10.00">dji_open_protocol.hpp</text>
</g>
<!-- Node3&#45;&gt;Node4 -->
<g id="edge3" class="edge"><title>Node3&#45;&gt;Node4</title>
<path fill="none" stroke="midnightblue" d="M1091.57,-112.083C1085.15,-104.377 1075.69,-93.0333 1067.88,-83.6531"/>
<polygon fill="midnightblue" stroke="midnightblue" points="1070.38,-81.1927 1061.29,-75.7511 1065.01,-85.674 1070.38,-81.1927"/>
</g>
<!-- Node5&#45;&gt;Node2 -->
<g id="edge39" class="edge"><title>Node5&#45;&gt;Node2</title>
<path fill="none" stroke="midnightblue" d="M885.524,-342.916C969.523,-338.263 1168.87,-325.493 1346.43,-299.908"/>
<polygon fill="midnightblue" stroke="midnightblue" points="1347.09,-303.349 1356.48,-298.443 1346.08,-296.423 1347.09,-303.349"/>
</g>
<!-- Node5&#45;&gt;Node3 -->
<g id="edge59" class="edge"><title>Node5&#45;&gt;Node3</title>
<path fill="none" stroke="midnightblue" d="M885.961,-340.747C941.67,-332.588 1039.88,-309.277 1088,-244 1108.86,-215.694 1114.21,-202.912 1110,-168 1108.93,-159.107 1106.71,-149.434 1104.54,-141.344"/>
<polygon fill="midnightblue" stroke="midnightblue" points="1107.84,-140.167 1101.73,-131.514 1101.11,-142.091 1107.84,-140.167"/>
</g>
<!-- Node5&#45;&gt;Node4 -->
<g id="edge51" class="edge"><title>Node5&#45;&gt;Node4</title>
<path fill="none" stroke="midnightblue" d="M885.66,-344.504C1011.92,-342.606 1391.34,-334.095 1434,-300 1457.61,-281.129 1454,-265.225 1454,-235 1454,-235 1454,-235 1454,-177 1454,-108.486 1233.06,-81.0532 1119.59,-71.4819"/>
<polygon fill="midnightblue" stroke="midnightblue" points="1119.87,-67.9933 1109.62,-70.6635 1119.3,-74.9698 1119.87,-67.9933"/>
</g>
<!-- Node6 -->
<g id="node6" class="node"><title>Node6</title>
<polygon fill="white" stroke="#bfbfbf" points="0,-112.5 0,-131.5 46,-131.5 46,-112.5 0,-112.5"/>
<text text-anchor="middle" x="23" y="-119.5" font-family="Helvetica,sans-Serif" font-size="10.00">cstdint</text>
</g>
<!-- Node5&#45;&gt;Node6 -->
<g id="edge5" class="edge"><title>Node5&#45;&gt;Node6</title>
<path fill="none" stroke="midnightblue" d="M804.453,-344.561C654.344,-342.674 135.476,-333.751 70,-300 41.6196,-285.371 35.8699,-274.022 25,-244 12.5271,-209.551 16.1188,-165.889 19.6768,-141.55"/>
<polygon fill="midnightblue" stroke="midnightblue" points="23.1519,-141.985 21.3008,-131.554 16.2425,-140.863 23.1519,-141.985"/>
</g>
<!-- Node7 -->
<g id="node7" class="node"><title>Node7</title>
<g id="a_node7"><a xlink:href="dji__broadcast_8hpp.html" target="_top" xlink:title="Broadcast Telemetry API for DJI onboardSDK library. ">
<polygon fill="white" stroke="black" points="779.5,-224.5 779.5,-243.5 872.5,-243.5 872.5,-224.5 779.5,-224.5"/>
<text text-anchor="middle" x="826" y="-231.5" font-family="Helvetica,sans-Serif" font-size="10.00">dji_broadcast.hpp</text>
</a>
</g>
</g>
<!-- Node5&#45;&gt;Node7 -->
<g id="edge6" class="edge"><title>Node5&#45;&gt;Node7</title>
<path fill="none" stroke="midnightblue" d="M843.509,-336.368C840.443,-318.617 833.37,-277.666 829.212,-253.597"/>
<polygon fill="midnightblue" stroke="midnightblue" points="832.635,-252.85 827.484,-243.591 825.737,-254.041 832.635,-252.85"/>
</g>
<!-- Node9 -->
<g id="node9" class="node"><title>Node9</title>
<g id="a_node9"><a xlink:href="dji__type_8hpp.html" target="_top" xlink:title="Data type and Data Structure definitions for use throughout DJI OSDK. ">
<polygon fill="white" stroke="black" points="329.5,-112.5 329.5,-131.5 398.5,-131.5 398.5,-112.5 329.5,-112.5"/>
<text text-anchor="middle" x="364" y="-119.5" font-family="Helvetica,sans-Serif" font-size="10.00">dji_type.hpp</text>
</a>
</g>
</g>
<!-- Node5&#45;&gt;Node9 -->
<g id="edge58" class="edge"><title>Node5&#45;&gt;Node9</title>
<path fill="none" stroke="midnightblue" d="M804.207,-344.441C674.803,-342.343 274.715,-333.261 150,-300 95.4568,-285.453 65.8463,-291.914 36,-244 27.546,-230.428 17.2978,-190.917 38,-168 74.6075,-127.476 238.329,-122.381 318.908,-122.399"/>
<polygon fill="midnightblue" stroke="midnightblue" points="319.229,-125.9 329.239,-122.43 319.25,-118.9 319.229,-125.9"/>
</g>
<!-- Node12 -->
<g id="node12" class="node"><title>Node12</title>
<g id="a_node12"><a xlink:href="dji__camera_8hpp.html" target="_top" xlink:title="Camera/Gimbal API for DJI onboardSDK library. ">
<polygon fill="white" stroke="black" points="252.5,-168.5 252.5,-187.5 335.5,-187.5 335.5,-168.5 252.5,-168.5"/>
<text text-anchor="middle" x="294" y="-175.5" font-family="Helvetica,sans-Serif" font-size="10.00">dji_camera.hpp</text>
</a>
</g>
</g>
<!-- Node5&#45;&gt;Node12 -->
<g id="edge12" class="edge"><title>Node5&#45;&gt;Node12</title>
<path fill="none" stroke="midnightblue" d="M804.283,-343.637C713.84,-340.115 498.999,-328.884 433,-300 378.253,-276.04 329.398,-222.628 306.982,-195.498"/>
<polygon fill="midnightblue" stroke="midnightblue" points="309.67,-193.256 300.659,-187.684 304.229,-197.659 309.67,-193.256"/>
</g>
<!-- Node13 -->
<g id="node13" class="node"><title>Node13</title>
<g id="a_node13"><a xlink:href="dji__command_8hpp.html" target="_top" xlink:title="All DJI OSDK OpenProtocol Command IDs. ">
<polygon fill="white" stroke="black" points="442.5,-112.5 442.5,-131.5 535.5,-131.5 535.5,-112.5 442.5,-112.5"/>
<text text-anchor="middle" x="489" y="-119.5" font-family="Helvetica,sans-Serif" font-size="10.00">dji_command.hpp</text>
</a>
</g>
</g>
<!-- Node5&#45;&gt;Node13 -->
<g id="edge19" class="edge"><title>Node5&#45;&gt;Node13</title>
<path fill="none" stroke="midnightblue" d="M850.99,-336.133C869.619,-307.382 922.573,-215.834 876,-168 853.39,-144.778 647.702,-131.104 545.752,-125.698"/>
<polygon fill="midnightblue" stroke="midnightblue" points="545.795,-122.195 535.626,-125.17 545.431,-129.186 545.795,-122.195"/>
</g>
<!-- Node15 -->
<g id="node15" class="node"><title>Node15</title>
<polygon fill="white" stroke="#bfbfbf" points="588,-280.5 588,-299.5 700,-299.5 700,-280.5 588,-280.5"/>
<text text-anchor="middle" x="644" y="-287.5" font-family="Helvetica,sans-Serif" font-size="10.00">dji_circular_buffer.hpp</text>
</g>
<!-- Node5&#45;&gt;Node15 -->
<g id="edge18" class="edge"><title>Node5&#45;&gt;Node15</title>
<path fill="none" stroke="midnightblue" d="M813.151,-336.444C778.602,-327.162 723.318,-312.309 685.417,-302.127"/>
<polygon fill="midnightblue" stroke="midnightblue" points="686.266,-298.731 675.7,-299.516 684.449,-305.491 686.266,-298.731"/>
</g>
<!-- Node16 -->
<g id="node16" class="node"><title>Node16</title>
<g id="a_node16"><a xlink:href="dji__control_8hpp.html" target="_top" xlink:title="Control API for DJI OSDK library. ">
<polygon fill="white" stroke="black" points="718,-280.5 718,-299.5 798,-299.5 798,-280.5 718,-280.5"/>
<text text-anchor="middle" x="758" y="-287.5" font-family="Helvetica,sans-Serif" font-size="10.00">dji_control.hpp</text>
</a>
</g>
</g>
<!-- Node5&#45;&gt;Node16 -->
<g id="edge20" class="edge"><title>Node5&#45;&gt;Node16</title>
<path fill="none" stroke="midnightblue" d="M831.022,-336.324C817.45,-327.9 796.62,-314.971 780.675,-305.074"/>
<polygon fill="midnightblue" stroke="midnightblue" points="782.286,-301.954 771.943,-299.655 778.594,-307.902 782.286,-301.954"/>
</g>
<!-- Node19 -->
<g id="node19" class="node"><title>Node19</title>
<g id="a_node19"><a xlink:href="dji__version_8hpp.html" target="_top" xlink:title="Drone/SDK Version definition for DJI onboardSDK library. ">
<polygon fill="white" stroke="black" points="55,-168.5 55,-187.5 137,-187.5 137,-168.5 55,-168.5"/>
<text text-anchor="middle" x="96" y="-175.5" font-family="Helvetica,sans-Serif" font-size="10.00">dji_version.hpp</text>
</a>
</g>
</g>
<!-- Node5&#45;&gt;Node19 -->
<g id="edge60" class="edge"><title>Node5&#45;&gt;Node19</title>
<path fill="none" stroke="midnightblue" d="M804.379,-343.237C701.233,-338.457 431.284,-323.977 345,-300 255.667,-275.175 159.575,-219.055 117.638,-192.901"/>
<polygon fill="midnightblue" stroke="midnightblue" points="119.405,-189.878 109.079,-187.508 115.673,-195.8 119.405,-189.878"/>
</g>
<!-- Node21 -->
<g id="node21" class="node"><title>Node21</title>
<g id="a_node21"><a xlink:href="dji__gimbal_8hpp.html" target="_top" xlink:title="Gimbal API for OSDK library. ">
<polygon fill="white" stroke="black" points="155.5,-168.5 155.5,-187.5 234.5,-187.5 234.5,-168.5 155.5,-168.5"/>
<text text-anchor="middle" x="195" y="-175.5" font-family="Helvetica,sans-Serif" font-size="10.00">dji_gimbal.hpp</text>
</a>
</g>
</g>
<!-- Node5&#45;&gt;Node21 -->
<g id="edge33" class="edge"><title>Node5&#45;&gt;Node21</title>
<path fill="none" stroke="midnightblue" d="M804.49,-343.237C708.675,-338.701 470.507,-325.18 395,-300 321.846,-275.605 247.1,-220.759 213.43,-194.109"/>
<polygon fill="midnightblue" stroke="midnightblue" points="215.408,-191.209 205.418,-187.681 211.028,-196.669 215.408,-191.209"/>
</g>
<!-- Node22 -->
<g id="node22" class="node"><title>Node22</title>
<polygon fill="white" stroke="#bfbfbf" points="892,-280.5 892,-299.5 990,-299.5 990,-280.5 892,-280.5"/>
<text text-anchor="middle" x="941" y="-287.5" font-family="Helvetica,sans-Serif" font-size="10.00">dji_hard_driver.hpp</text>
</g>
<!-- Node5&#45;&gt;Node22 -->
<g id="edge36" class="edge"><title>Node5&#45;&gt;Node22</title>
<path fill="none" stroke="midnightblue" d="M860.424,-336.324C875.54,-327.822 898.815,-314.729 916.471,-304.797"/>
<polygon fill="midnightblue" stroke="midnightblue" points="918.614,-307.608 925.614,-299.655 915.183,-301.507 918.614,-307.608"/>
</g>
<!-- Node23 -->
<g id="node23" class="node"><title>Node23</title>
<g id="a_node23"><a xlink:href="dji__hardware__sync_8hpp.html" target="_top" xlink:title="Hardware Sync API for DJI OSDK. ">
<polygon fill="white" stroke="black" points="45,-224.5 45,-243.5 161,-243.5 161,-224.5 45,-224.5"/>
<text text-anchor="middle" x="103" y="-231.5" font-family="Helvetica,sans-Serif" font-size="10.00">dji_hardware_sync.hpp</text>
</a>
</g>
</g>
<!-- Node5&#45;&gt;Node23 -->
<g id="edge37" class="edge"><title>Node5&#45;&gt;Node23</title>
<path fill="none" stroke="midnightblue" d="M804.455,-345.224C679.612,-345.444 302.608,-342.484 189,-300 160.936,-289.505 134.339,-266.716 118.35,-251.114"/>
<polygon fill="midnightblue" stroke="midnightblue" points="120.533,-248.345 111.004,-243.714 115.565,-253.276 120.533,-248.345"/>
</g>
<!-- Node24 -->
<g id="node24" class="node"><title>Node24</title>
<g id="a_node24"><a xlink:href="dji__mission__manager_8hpp.html" target="_top" xlink:title="Mission&#45;Manager API for DJI OSDK library. ">
<polygon fill="white" stroke="black" points="442.5,-280.5 442.5,-299.5 569.5,-299.5 569.5,-280.5 442.5,-280.5"/>
<text text-anchor="middle" x="506" y="-287.5" font-family="Helvetica,sans-Serif" font-size="10.00">dji_mission_manager.hpp</text>
</a>
</g>
</g>
<!-- Node5&#45;&gt;Node24 -->
<g id="edge40" class="edge"><title>Node5&#45;&gt;Node24</title>
<path fill="none" stroke="midnightblue" d="M804.445,-338.54C746.272,-329.273 638.578,-312.119 569.708,-301.148"/>
<polygon fill="midnightblue" stroke="midnightblue" points="569.847,-297.626 559.42,-299.509 568.745,-304.539 569.847,-297.626"/>
</g>
<!-- Node28 -->
<g id="node28" class="node"><title>Node28</title>
<g id="a_node28"><a xlink:href="dji__mobile__communication_8hpp.html" target="_top" xlink:title="Implementation of DJI Mobile&#45;Onboard SDK Communication (MOC) ">
<polygon fill="white" stroke="black" points="1152,-224.5 1152,-243.5 1302,-243.5 1302,-224.5 1152,-224.5"/>
<text text-anchor="middle" x="1227" y="-231.5" font-family="Helvetica,sans-Serif" font-size="10.00">dji_mobile_communication.hpp</text>
</a>
</g>
</g>
<!-- Node5&#45;&gt;Node28 -->
<g id="edge49" class="edge"><title>Node5&#45;&gt;Node28</title>
<path fill="none" stroke="midnightblue" d="M885.572,-339.854C931.205,-333.387 1007.15,-320.574 1070,-300 1090.03,-293.442 1093.63,-288.318 1113,-280 1140.25,-268.297 1171.62,-255.999 1194.54,-247.222"/>
<polygon fill="midnightblue" stroke="midnightblue" points="1196.03,-250.402 1204.13,-243.571 1193.54,-243.861 1196.03,-250.402"/>
</g>
<!-- Node29 -->
<g id="node29" class="node"><title>Node29</title>
<g id="a_node29"><a xlink:href="dji__status_8hpp.html" target="_top" xlink:title="Status information for DJI Vehicle. ">
<polygon fill="white" stroke="black" points="1122.5,-280.5 1122.5,-299.5 1199.5,-299.5 1199.5,-280.5 1122.5,-280.5"/>
<text text-anchor="middle" x="1161" y="-287.5" font-family="Helvetica,sans-Serif" font-size="10.00">dji_status.hpp</text>
</a>
</g>
</g>
<!-- Node5&#45;&gt;Node29 -->
<g id="edge52" class="edge"><title>Node5&#45;&gt;Node29</title>
<path fill="none" stroke="midnightblue" d="M885.665,-338.051C943.773,-328.121 1050.39,-309.902 1112.52,-299.284"/>
<polygon fill="midnightblue" stroke="midnightblue" points="1113.2,-302.719 1122.47,-297.584 1112.02,-295.819 1113.2,-302.719"/>
</g>
<!-- Node30 -->
<g id="node30" class="node"><title>Node30</title>
<g id="a_node30"><a xlink:href="dji__subscription_8hpp.html" target="_top" xlink:title="Telemetry Subscription API for DJI OSDK library. ">
<polygon fill="white" stroke="black" points="954.5,-224.5 954.5,-243.5 1057.5,-243.5 1057.5,-224.5 954.5,-224.5"/>
<text text-anchor="middle" x="1006" y="-231.5" font-family="Helvetica,sans-Serif" font-size="10.00">dji_subscription.hpp</text>
</a>
</g>
</g>
<!-- Node5&#45;&gt;Node30 -->
<g id="edge53" class="edge"><title>Node5&#45;&gt;Node30</title>
<path fill="none" stroke="midnightblue" d="M885.749,-344.927C921.331,-342.497 971.468,-332.894 999,-300 1009.58,-287.363 1010.41,-268.153 1009.15,-253.89"/>
<polygon fill="midnightblue" stroke="midnightblue" points="1012.59,-253.2 1007.83,-243.732 1005.64,-254.099 1012.59,-253.2"/>
</g>
<!-- Node31 -->
<g id="node31" class="node"><title>Node31</title>
<polygon fill="white" stroke="#bfbfbf" points="1218,-280.5 1218,-299.5 1338,-299.5 1338,-280.5 1218,-280.5"/>
<text text-anchor="middle" x="1278" y="-287.5" font-family="Helvetica,sans-Serif" font-size="10.00">dji_thread_manager.hpp</text>
</g>
<!-- Node5&#45;&gt;Node31 -->
<g id="edge57" class="edge"><title>Node5&#45;&gt;Node31</title>
<path fill="none" stroke="midnightblue" d="M885.565,-340.032C950.892,-332.018 1083.73,-315.669 1207.63,-300.042"/>
<polygon fill="midnightblue" stroke="midnightblue" points="1208.19,-303.499 1217.67,-298.774 1207.31,-296.554 1208.19,-303.499"/>
</g>
<!-- Node7&#45;&gt;Node3 -->
<g id="edge11" class="edge"><title>Node7&#45;&gt;Node3</title>
<path fill="none" stroke="midnightblue" d="M850.45,-224.413C875.185,-215.625 914.455,-201.396 948,-188 991.103,-170.788 1040.38,-149.215 1070.59,-135.766"/>
<polygon fill="midnightblue" stroke="midnightblue" points="1072.36,-138.807 1080.07,-131.535 1069.51,-132.415 1072.36,-138.807"/>
</g>
<!-- Node8 -->
<g id="node8" class="node"><title>Node8</title>
<g id="a_node8"><a xlink:href="dji__telemetry_8hpp.html" target="_top" xlink:title="Enumeration of all telemetry data types, structures and maps. ">
<polygon fill="white" stroke="black" points="776.5,-168.5 776.5,-187.5 867.5,-187.5 867.5,-168.5 776.5,-168.5"/>
<text text-anchor="middle" x="822" y="-175.5" font-family="Helvetica,sans-Serif" font-size="10.00">dji_telemetry.hpp</text>
</a>
</g>
</g>
<!-- Node7&#45;&gt;Node8 -->
<g id="edge7" class="edge"><title>Node7&#45;&gt;Node8</title>
<path fill="none" stroke="midnightblue" d="M825.339,-224.083C824.815,-217.006 824.064,-206.861 823.406,-197.986"/>
<polygon fill="midnightblue" stroke="midnightblue" points="826.877,-197.465 822.648,-187.751 819.897,-197.982 826.877,-197.465"/>
</g>
<!-- Node8&#45;&gt;Node9 -->
<g id="edge8" class="edge"><title>Node8&#45;&gt;Node9</title>
<path fill="none" stroke="midnightblue" d="M776.41,-169.342C773.229,-168.869 770.068,-168.416 767,-168 619.05,-147.937 581.257,-149.657 433,-132 425.156,-131.066 416.817,-130.022 408.748,-128.985"/>
<polygon fill="midnightblue" stroke="midnightblue" points="409.097,-125.501 398.729,-127.684 408.195,-132.442 409.097,-125.501"/>
</g>
<!-- Node10 -->
<g id="node10" class="node"><title>Node10</title>
<polygon fill="white" stroke="#bfbfbf" points="317.5,-56.5 317.5,-75.5 360.5,-75.5 360.5,-56.5 317.5,-56.5"/>
<text text-anchor="middle" x="339" y="-63.5" font-family="Helvetica,sans-Serif" font-size="10.00">cstdio</text>
</g>
<!-- Node9&#45;&gt;Node10 -->
<g id="edge9" class="edge"><title>Node9&#45;&gt;Node10</title>
<path fill="none" stroke="midnightblue" d="M359.872,-112.083C356.486,-104.77 351.584,-94.1814 347.381,-85.1034"/>
<polygon fill="midnightblue" stroke="midnightblue" points="350.429,-83.3553 343.051,-75.7511 344.077,-86.2962 350.429,-83.3553"/>
</g>
<!-- Node11 -->
<g id="node11" class="node"><title>Node11</title>
<polygon fill="white" stroke="#bfbfbf" points="427.5,-0.5 427.5,-19.5 476.5,-19.5 476.5,-0.5 427.5,-0.5"/>
<text text-anchor="middle" x="452" y="-7.5" font-family="Helvetica,sans-Serif" font-size="10.00">stdint.h</text>
</g>
<!-- Node9&#45;&gt;Node11 -->
<g id="edge10" class="edge"><title>Node9&#45;&gt;Node11</title>
<path fill="none" stroke="midnightblue" d="M369.23,-112.239C377.037,-99.4171 392.489,-75.0015 408,-56 416.464,-45.6312 426.903,-34.8817 435.488,-26.49"/>
<polygon fill="midnightblue" stroke="midnightblue" points="437.953,-28.9756 442.742,-19.5249 433.105,-23.9265 437.953,-28.9756"/>
</g>
<!-- Node12&#45;&gt;Node9 -->
<g id="edge17" class="edge"><title>Node12&#45;&gt;Node9</title>
<path fill="none" stroke="midnightblue" d="M305.247,-168.324C315.797,-160.185 331.801,-147.839 344.442,-138.087"/>
<polygon fill="midnightblue" stroke="midnightblue" points="346.769,-140.713 352.549,-131.834 342.493,-135.171 346.769,-140.713"/>
</g>
<!-- Node12&#45;&gt;Node13 -->
<g id="edge13" class="edge"><title>Node12&#45;&gt;Node13</title>
<path fill="none" stroke="midnightblue" d="M324.898,-168.444C358.274,-159.201 411.594,-144.436 448.349,-134.257"/>
<polygon fill="midnightblue" stroke="midnightblue" points="449.543,-137.558 458.246,-131.516 447.675,-130.812 449.543,-137.558"/>
</g>
<!-- Node13&#45;&gt;Node11 -->
<g id="edge16" class="edge"><title>Node13&#45;&gt;Node11</title>
<path fill="none" stroke="midnightblue" d="M492.524,-112.217C497.118,-99.3678 503.712,-74.9184 496,-56 491.2,-44.2251 481.671,-33.8564 472.705,-26.0486"/>
<polygon fill="midnightblue" stroke="midnightblue" points="474.755,-23.2048 464.781,-19.6314 470.35,-28.6448 474.755,-23.2048"/>
</g>
<!-- Node14 -->
<g id="node14" class="node"><title>Node14</title>
<g id="a_node14"><a xlink:href="dji__error_8hpp.html" target="_top" xlink:title="All DJI OSDK OpenProtocol ACK Error Codes. ">
<polygon fill="white" stroke="black" points="417,-56.5 417,-75.5 487,-75.5 487,-56.5 417,-56.5"/>
<text text-anchor="middle" x="452" y="-63.5" font-family="Helvetica,sans-Serif" font-size="10.00">dji_error.hpp</text>
</a>
</g>
</g>
<!-- Node13&#45;&gt;Node14 -->
<g id="edge14" class="edge"><title>Node13&#45;&gt;Node14</title>
<path fill="none" stroke="midnightblue" d="M482.89,-112.083C477.718,-104.534 470.154,-93.4948 463.806,-84.2298"/>
<polygon fill="midnightblue" stroke="midnightblue" points="466.536,-82.0221 457.996,-75.7511 460.761,-85.9787 466.536,-82.0221"/>
</g>
<!-- Node14&#45;&gt;Node11 -->
<g id="edge15" class="edge"><title>Node14&#45;&gt;Node11</title>
<path fill="none" stroke="midnightblue" d="M452,-56.083C452,-49.0059 452,-38.8611 452,-29.9865"/>
<polygon fill="midnightblue" stroke="midnightblue" points="455.5,-29.751 452,-19.7511 448.5,-29.7511 455.5,-29.751"/>
</g>
<!-- Node16&#45;&gt;Node3 -->
<g id="edge32" class="edge"><title>Node16&#45;&gt;Node3</title>
<path fill="none" stroke="midnightblue" d="M798.163,-285.582C877.03,-278.52 1046.23,-261.511 1066,-244 1095.38,-217.979 1099.75,-168.614 1099.76,-141.678"/>
<polygon fill="midnightblue" stroke="midnightblue" points="1103.26,-141.569 1099.56,-131.641 1096.26,-141.709 1103.26,-141.569"/>
</g>
<!-- Node16&#45;&gt;Node4 -->
<g id="edge30" class="edge"><title>Node16&#45;&gt;Node4</title>
<path fill="none" stroke="midnightblue" d="M757.036,-280.257C756.032,-266.563 756.189,-239.972 770,-224 802.544,-186.365 831.467,-210.187 876,-188 938.366,-156.929 1004.32,-106.924 1035.54,-82.0534"/>
<polygon fill="midnightblue" stroke="midnightblue" points="1037.79,-84.7339 1043.4,-75.7416 1033.41,-79.2775 1037.79,-84.7339"/>
</g>
<!-- Node16&#45;&gt;Node9 -->
<g id="edge31" class="edge"><title>Node16&#45;&gt;Node9</title>
<path fill="none" stroke="midnightblue" d="M717.917,-281.469C714.902,-280.954 711.905,-280.459 709,-280 588.549,-260.979 540.762,-308.059 437,-244 398.851,-220.448 377.968,-168.863 369.14,-141.269"/>
<polygon fill="midnightblue" stroke="midnightblue" points="372.485,-140.236 366.25,-131.67 365.782,-142.254 372.485,-140.236"/>
</g>
<!-- Node17 -->
<g id="node17" class="node"><title>Node17</title>
<g id="a_node17"><a xlink:href="dji__ack_8hpp.html" target="_top" xlink:title="All DJI OSDK ACK parsing. ">
<polygon fill="white" stroke="black" points="446,-224.5 446,-243.5 512,-243.5 512,-224.5 446,-224.5"/>
<text text-anchor="middle" x="479" y="-231.5" font-family="Helvetica,sans-Serif" font-size="10.00">dji_ack.hpp</text>
</a>
</g>
</g>
<!-- Node16&#45;&gt;Node17 -->
<g id="edge21" class="edge"><title>Node16&#45;&gt;Node17</title>
<path fill="none" stroke="midnightblue" d="M717.984,-281.52C664.48,-271.499 571.479,-254.011 522.263,-244.212"/>
<polygon fill="midnightblue" stroke="midnightblue" points="522.949,-240.78 512.456,-242.243 521.571,-247.643 522.949,-240.78"/>
</g>
<!-- Node17&#45;&gt;Node9 -->
<g id="edge25" class="edge"><title>Node17&#45;&gt;Node9</title>
<path fill="none" stroke="midnightblue" d="M466.454,-224.334C454.317,-215.711 435.66,-201.805 421,-188 404.866,-172.807 388.381,-153.516 377.317,-139.909"/>
<polygon fill="midnightblue" stroke="midnightblue" points="379.873,-137.501 370.888,-131.888 374.411,-141.88 379.873,-137.501"/>
</g>
<!-- Node17&#45;&gt;Node13 -->
<g id="edge22" class="edge"><title>Node17&#45;&gt;Node13</title>
<path fill="none" stroke="midnightblue" d="M502.454,-224.408C518.161,-217.28 537.619,-205.458 547,-188 557.802,-167.898 535.721,-148.911 515.767,-136.708"/>
<polygon fill="midnightblue" stroke="midnightblue" points="517.289,-133.546 506.874,-131.6 513.802,-139.616 517.289,-133.546"/>
</g>
<!-- Node18 -->
<g id="node18" class="node"><title>Node18</title>
<g id="a_node18"><a xlink:href="dji__mission__type_8hpp.html" target="_top" xlink:title="Mission related data struct for DJI OSDK library. ">
<polygon fill="white" stroke="black" points="430,-168.5 430,-187.5 538,-187.5 538,-168.5 430,-168.5"/>
<text text-anchor="middle" x="484" y="-175.5" font-family="Helvetica,sans-Serif" font-size="10.00">dji_mission_type.hpp</text>
</a>
</g>
</g>
<!-- Node17&#45;&gt;Node18 -->
<g id="edge23" class="edge"><title>Node17&#45;&gt;Node18</title>
<path fill="none" stroke="midnightblue" d="M479.826,-224.083C480.481,-217.006 481.42,-206.861 482.242,-197.986"/>
<polygon fill="midnightblue" stroke="midnightblue" points="485.753,-198.031 483.19,-187.751 478.783,-197.386 485.753,-198.031"/>
</g>
<!-- Node17&#45;&gt;Node19 -->
<g id="edge26" class="edge"><title>Node17&#45;&gt;Node19</title>
<path fill="none" stroke="midnightblue" d="M445.845,-229.008C387.586,-221.887 262.822,-206.168 147.256,-188.141"/>
<polygon fill="midnightblue" stroke="midnightblue" points="147.598,-184.652 137.177,-186.559 146.513,-191.567 147.598,-184.652"/>
</g>
<!-- Node20 -->
<g id="node20" class="node"><title>Node20</title>
<polygon fill="white" stroke="#bfbfbf" points="594.5,-168.5 594.5,-187.5 629.5,-187.5 629.5,-168.5 594.5,-168.5"/>
<text text-anchor="middle" x="612" y="-175.5" font-family="Helvetica,sans-Serif" font-size="10.00">map</text>
</g>
<!-- Node17&#45;&gt;Node20 -->
<g id="edge29" class="edge"><title>Node17&#45;&gt;Node20</title>
<path fill="none" stroke="midnightblue" d="M500.074,-224.444C523.094,-215.097 560.026,-200.102 585.117,-189.915"/>
<polygon fill="midnightblue" stroke="midnightblue" points="586.474,-193.142 594.422,-186.137 583.84,-186.656 586.474,-193.142"/>
</g>
<!-- Node18&#45;&gt;Node9 -->
<g id="edge24" class="edge"><title>Node18&#45;&gt;Node9</title>
<path fill="none" stroke="midnightblue" d="M464.986,-168.444C445.412,-159.636 414.692,-145.812 392.271,-135.722"/>
<polygon fill="midnightblue" stroke="midnightblue" points="393.481,-132.428 382.925,-131.516 390.608,-138.812 393.481,-132.428"/>
</g>
<!-- Node19&#45;&gt;Node6 -->
<g id="edge28" class="edge"><title>Node19&#45;&gt;Node6</title>
<path fill="none" stroke="midnightblue" d="M84.2713,-168.324C73.1626,-160.107 56.2578,-147.602 43.0167,-137.807"/>
<polygon fill="midnightblue" stroke="midnightblue" points="45.0631,-134.967 34.9421,-131.834 40.9001,-140.595 45.0631,-134.967"/>
</g>
<!-- Node19&#45;&gt;Node13 -->
<g id="edge27" class="edge"><title>Node19&#45;&gt;Node13</title>
<path fill="none" stroke="midnightblue" d="M137.175,-169.428C140.159,-168.929 143.124,-168.447 146,-168 246.477,-152.375 364.079,-137.735 432.205,-129.611"/>
<polygon fill="midnightblue" stroke="midnightblue" points="432.78,-133.067 442.297,-128.412 431.954,-126.116 432.78,-133.067"/>
</g>
<!-- Node21&#45;&gt;Node9 -->
<g id="edge35" class="edge"><title>Node21&#45;&gt;Node9</title>
<path fill="none" stroke="midnightblue" d="M221.779,-168.444C250.333,-159.32 295.733,-144.813 327.537,-134.651"/>
<polygon fill="midnightblue" stroke="midnightblue" points="328.886,-137.894 337.347,-131.516 326.756,-131.226 328.886,-137.894"/>
</g>
<!-- Node21&#45;&gt;Node13 -->
<g id="edge34" class="edge"><title>Node21&#45;&gt;Node13</title>
<path fill="none" stroke="midnightblue" d="M234.55,-169.57C237.409,-169.037 240.249,-168.51 243,-168 307.902,-155.979 382.474,-142.366 432.343,-133.291"/>
<polygon fill="midnightblue" stroke="midnightblue" points="433.074,-136.715 442.287,-131.482 431.821,-129.828 433.074,-136.715"/>
</g>
<!-- Node23&#45;&gt;Node9 -->
<g id="edge38" class="edge"><title>Node23&#45;&gt;Node9</title>
<path fill="none" stroke="midnightblue" d="M85.8507,-224.401C63.2704,-211.981 28.3838,-188.285 46,-168 80.8586,-127.861 240.226,-122.551 319.274,-122.455"/>
<polygon fill="midnightblue" stroke="midnightblue" points="319.411,-125.955 329.417,-122.471 319.422,-118.955 319.411,-125.955"/>
</g>
<!-- Node25 -->
<g id="node25" class="node"><title>Node25</title>
<g id="a_node25"><a xlink:href="dji__hotpoint_8hpp.html" target="_top" xlink:title="Implementation of HotPoint (Point of Interest) Missions for DJI OSDK. ">
<polygon fill="white" stroke="black" points="637.5,-224.5 637.5,-243.5 722.5,-243.5 722.5,-224.5 637.5,-224.5"/>
<text text-anchor="middle" x="680" y="-231.5" font-family="Helvetica,sans-Serif" font-size="10.00">dji_hotpoint.hpp</text>
</a>
</g>
</g>
<!-- Node24&#45;&gt;Node25 -->
<g id="edge41" class="edge"><title>Node24&#45;&gt;Node25</title>
<path fill="none" stroke="midnightblue" d="M533.571,-280.444C563.097,-271.28 610.118,-256.688 642.883,-246.519"/>
<polygon fill="midnightblue" stroke="midnightblue" points="644.045,-249.823 652.558,-243.516 641.97,-243.138 644.045,-249.823"/>
</g>
<!-- Node27 -->
<g id="node27" class="node"><title>Node27</title>
<g id="a_node27"><a xlink:href="dji__waypoint_8hpp.html" target="_top" xlink:title="Implementation of GPS Waypoint Missions for DJI OSDK. ">
<polygon fill="white" stroke="black" points="530.5,-224.5 530.5,-243.5 619.5,-243.5 619.5,-224.5 530.5,-224.5"/>
<text text-anchor="middle" x="575" y="-231.5" font-family="Helvetica,sans-Serif" font-size="10.00">dji_waypoint.hpp</text>
</a>
</g>
</g>
<!-- Node24&#45;&gt;Node27 -->
<g id="edge47" class="edge"><title>Node24&#45;&gt;Node27</title>
<path fill="none" stroke="midnightblue" d="M517.086,-280.324C527.486,-272.185 543.261,-259.839 555.722,-250.087"/>
<polygon fill="midnightblue" stroke="midnightblue" points="557.994,-252.753 563.712,-243.834 553.68,-247.241 557.994,-252.753"/>
</g>
<!-- Node25&#45;&gt;Node8 -->
<g id="edge46" class="edge"><title>Node25&#45;&gt;Node8</title>
<path fill="none" stroke="midnightblue" d="M702.5,-224.444C726.077,-215.478 763.322,-201.314 789.964,-191.183"/>
<polygon fill="midnightblue" stroke="midnightblue" points="791.502,-194.342 799.605,-187.516 789.014,-187.8 791.502,-194.342"/>
</g>
<!-- Node26 -->
<g id="node26" class="node"><title>Node26</title>
<g id="a_node26"><a xlink:href="dji__mission__base_8hpp.html" target="_top" xlink:title="Mission&#45;Base abstract class for DJI OSDK library. ">
<polygon fill="white" stroke="black" points="648,-168.5 648,-187.5 758,-187.5 758,-168.5 648,-168.5"/>
<text text-anchor="middle" x="703" y="-175.5" font-family="Helvetica,sans-Serif" font-size="10.00">dji_mission_base.hpp</text>
</a>
</g>
</g>
<!-- Node25&#45;&gt;Node26 -->
<g id="edge42" class="edge"><title>Node25&#45;&gt;Node26</title>
<path fill="none" stroke="midnightblue" d="M683.798,-224.083C686.913,-216.77 691.423,-206.181 695.289,-197.103"/>
<polygon fill="midnightblue" stroke="midnightblue" points="698.574,-198.323 699.273,-187.751 692.134,-195.58 698.574,-198.323"/>
</g>
<!-- Node26&#45;&gt;Node3 -->
<g id="edge45" class="edge"><title>Node26&#45;&gt;Node3</title>
<path fill="none" stroke="midnightblue" d="M758.156,-169.226C761.147,-168.81 764.11,-168.399 767,-168 856.881,-155.589 960.497,-141.595 1027.74,-132.555"/>
<polygon fill="midnightblue" stroke="midnightblue" points="1028.35,-136.003 1037.8,-131.203 1027.42,-129.066 1028.35,-136.003"/>
</g>
<!-- Node26&#45;&gt;Node9 -->
<g id="edge44" class="edge"><title>Node26&#45;&gt;Node9</title>
<path fill="none" stroke="midnightblue" d="M649.284,-168.444C582.788,-157.851 470.751,-140.005 408.714,-130.123"/>
<polygon fill="midnightblue" stroke="midnightblue" points="409.26,-126.666 398.834,-128.549 408.159,-133.578 409.26,-126.666"/>
</g>
<!-- Node26&#45;&gt;Node13 -->
<g id="edge43" class="edge"><title>Node26&#45;&gt;Node13</title>
<path fill="none" stroke="midnightblue" d="M669.091,-168.444C632.151,-159.122 572.946,-144.183 532.582,-133.997"/>
<polygon fill="midnightblue" stroke="midnightblue" points="533.303,-130.57 522.75,-131.516 531.59,-137.357 533.303,-130.57"/>
</g>
<!-- Node27&#45;&gt;Node26 -->
<g id="edge48" class="edge"><title>Node27&#45;&gt;Node26</title>
<path fill="none" stroke="midnightblue" d="M595.282,-224.444C616.347,-215.557 649.517,-201.563 673.486,-191.451"/>
<polygon fill="midnightblue" stroke="midnightblue" points="674.96,-194.628 682.813,-187.516 672.239,-188.179 674.96,-194.628"/>
</g>
<!-- Node28&#45;&gt;Node3 -->
<g id="edge50" class="edge"><title>Node28&#45;&gt;Node3</title>
<path fill="none" stroke="midnightblue" d="M1216.96,-224.368C1195.27,-205.733 1143.84,-161.532 1116.61,-138.134"/>
<polygon fill="midnightblue" stroke="midnightblue" points="1118.86,-135.455 1109,-131.591 1114.3,-140.764 1118.86,-135.455"/>
</g>
<!-- Node30&#45;&gt;Node3 -->
<g id="edge56" class="edge"><title>Node30&#45;&gt;Node3</title>
<path fill="none" stroke="midnightblue" d="M1013.3,-224.368C1028.78,-206.055 1065.14,-163.049 1085.17,-139.362"/>
<polygon fill="midnightblue" stroke="midnightblue" points="1087.95,-141.488 1091.74,-131.591 1082.61,-136.968 1087.95,-141.488"/>
</g>
<!-- Node30&#45;&gt;Node4 -->
<g id="edge54" class="edge"><title>Node30&#45;&gt;Node4</title>
<path fill="none" stroke="midnightblue" d="M1006.7,-224.24C1008.53,-203.957 1014.36,-152.411 1029,-112 1032.5,-102.336 1037.9,-92.2741 1042.79,-84.1214"/>
<polygon fill="midnightblue" stroke="midnightblue" points="1045.8,-85.8993 1048.14,-75.5662 1039.87,-82.1844 1045.8,-85.8993"/>
</g>
<!-- Node30&#45;&gt;Node8 -->
<g id="edge55" class="edge"><title>Node30&#45;&gt;Node8</title>
<path fill="none" stroke="midnightblue" d="M976.845,-224.444C945.487,-215.241 895.469,-200.562 860.803,-190.388"/>
<polygon fill="midnightblue" stroke="midnightblue" points="861.6,-186.974 851.019,-187.516 859.629,-193.691 861.6,-186.974"/>
</g>
</g>
</svg>
