<?xml version="1.0" encoding="UTF-8" standalone="no"?>
<!DOCTYPE svg PUBLIC "-//W3C//DTD SVG 1.1//EN"
 "http://www.w3.org/Graphics/SVG/1.1/DTD/svg11.dtd">
<!-- Generated by graphviz version 2.38.0 (20140413.2041)
 -->
<!-- Title: osdk&#45;core/api/inc/dji_subscription.hpp Pages: 1 -->
<svg width="290pt" height="207pt"
 viewBox="0.00 0.00 290.00 207.00" xmlns="http://www.w3.org/2000/svg" xmlns:xlink="http://www.w3.org/1999/xlink">
<g id="graph0" class="graph" transform="scale(1 1) rotate(0) translate(4 203)">
<title>osdk&#45;core/api/inc/dji_subscription.hpp</title>
<polygon fill="white" stroke="none" points="-4,4 -4,-203 286,-203 286,4 -4,4"/>
<!-- Node1 -->
<g id="node1" class="node"><title>Node1</title>
<polygon fill="#bfbfbf" stroke="black" points="48.5,-168.5 48.5,-198.5 152.5,-198.5 152.5,-168.5 48.5,-168.5"/>
<text text-anchor="start" x="56.5" y="-186.5" font-family="Helvetica,sans-Serif" font-size="10.00">osdk&#45;core/api/inc/dji</text>
<text text-anchor="middle" x="100.5" y="-175.5" font-family="Helvetica,sans-Serif" font-size="10.00">_subscription.hpp</text>
</g>
<!-- Node2 -->
<g id="node2" class="node"><title>Node2</title>
<polygon fill="white" stroke="#bfbfbf" points="0,-56.5 0,-75.5 111,-75.5 111,-56.5 0,-56.5"/>
<text text-anchor="middle" x="55.5" y="-63.5" font-family="Helvetica,sans-Serif" font-size="10.00">dji_open_protocol.hpp</text>
</g>
<!-- Node1&#45;&gt;Node2 -->
<g id="edge1" class="edge"><title>Node1&#45;&gt;Node2</title>
<path fill="none" stroke="midnightblue" d="M69.1579,-168.44C54.5834,-160.105 38.6906,-148.009 30.5,-132 22.4459,-116.258 31.7535,-97.2885 41.2144,-83.9167"/>
<polygon fill="midnightblue" stroke="midnightblue" points="44.2442,-85.7191 47.5772,-75.6621 38.7001,-81.4455 44.2442,-85.7191"/>
</g>
<!-- Node3 -->
<g id="node3" class="node"><title>Node3</title>
<g id="a_node3"><a xlink:href="dji__telemetry_8hpp.html" target="_top" xlink:title="Enumeration of all telemetry data types, structures and maps. ">
<polygon fill="white" stroke="black" points="180,-112.5 180,-131.5 271,-131.5 271,-112.5 180,-112.5"/>
<text text-anchor="middle" x="225.5" y="-119.5" font-family="Helvetica,sans-Serif" font-size="10.00">dji_telemetry.hpp</text>
</a>
</g>
</g>
<!-- Node1&#45;&gt;Node3 -->
<g id="edge2" class="edge"><title>Node1&#45;&gt;Node3</title>
<path fill="none" stroke="midnightblue" d="M130.123,-168.399C150.722,-158.595 177.98,-145.619 198.08,-136.052"/>
<polygon fill="midnightblue" stroke="midnightblue" points="199.786,-139.116 207.311,-131.658 196.778,-132.796 199.786,-139.116"/>
</g>
<!-- Node7 -->
<g id="node7" class="node"><title>Node7</title>
<g id="a_node7"><a xlink:href="dji__vehicle__callback_8hpp.html" target="_top" xlink:title="Type definition for new Vehicle&#45;style callbacks. ">
<polygon fill="white" stroke="black" points="39.5,-112.5 39.5,-131.5 161.5,-131.5 161.5,-112.5 39.5,-112.5"/>
<text text-anchor="middle" x="100.5" y="-119.5" font-family="Helvetica,sans-Serif" font-size="10.00">dji_vehicle_callback.hpp</text>
</a>
</g>
</g>
<!-- Node1&#45;&gt;Node7 -->
<g id="edge6" class="edge"><title>Node1&#45;&gt;Node7</title>
<path fill="none" stroke="midnightblue" d="M100.5,-168.399C100.5,-160.466 100.5,-150.458 100.5,-141.858"/>
<polygon fill="midnightblue" stroke="midnightblue" points="104,-141.658 100.5,-131.658 97.0001,-141.658 104,-141.658"/>
</g>
<!-- Node4 -->
<g id="node4" class="node"><title>Node4</title>
<g id="a_node4"><a xlink:href="dji__type_8hpp.html" target="_top" xlink:title="Data type and Data Structure definitions for use throughout DJI OSDK. ">
<polygon fill="white" stroke="black" points="191,-56.5 191,-75.5 260,-75.5 260,-56.5 191,-56.5"/>
<text text-anchor="middle" x="225.5" y="-63.5" font-family="Helvetica,sans-Serif" font-size="10.00">dji_type.hpp</text>
</a>
</g>
</g>
<!-- Node3&#45;&gt;Node4 -->
<g id="edge3" class="edge"><title>Node3&#45;&gt;Node4</title>
<path fill="none" stroke="midnightblue" d="M225.5,-112.083C225.5,-105.006 225.5,-94.8611 225.5,-85.9865"/>
<polygon fill="midnightblue" stroke="midnightblue" points="229,-85.751 225.5,-75.7511 222,-85.7511 229,-85.751"/>
</g>
<!-- Node5 -->
<g id="node5" class="node"><title>Node5</title>
<polygon fill="white" stroke="#bfbfbf" points="172,-0.5 172,-19.5 215,-19.5 215,-0.5 172,-0.5"/>
<text text-anchor="middle" x="193.5" y="-7.5" font-family="Helvetica,sans-Serif" font-size="10.00">cstdio</text>
</g>
<!-- Node4&#45;&gt;Node5 -->
<g id="edge4" class="edge"><title>Node4&#45;&gt;Node5</title>
<path fill="none" stroke="midnightblue" d="M220.216,-56.083C215.789,-48.6127 209.337,-37.7244 203.882,-28.5199"/>
<polygon fill="midnightblue" stroke="midnightblue" points="206.795,-26.5697 198.686,-19.7511 200.773,-30.1383 206.795,-26.5697"/>
</g>
<!-- Node6 -->
<g id="node6" class="node"><title>Node6</title>
<polygon fill="white" stroke="#bfbfbf" points="233,-0.5 233,-19.5 282,-19.5 282,-0.5 233,-0.5"/>
<text text-anchor="middle" x="257.5" y="-7.5" font-family="Helvetica,sans-Serif" font-size="10.00">stdint.h</text>
</g>
<!-- Node4&#45;&gt;Node6 -->
<g id="edge5" class="edge"><title>Node4&#45;&gt;Node6</title>
<path fill="none" stroke="midnightblue" d="M230.784,-56.083C235.211,-48.6127 241.663,-37.7244 247.118,-28.5199"/>
<polygon fill="midnightblue" stroke="midnightblue" points="250.227,-30.1383 252.314,-19.7511 244.205,-26.5697 250.227,-30.1383"/>
</g>
<!-- Node7&#45;&gt;Node2 -->
<g id="edge7" class="edge"><title>Node7&#45;&gt;Node2</title>
<path fill="none" stroke="midnightblue" d="M93.0692,-112.083C86.6473,-104.377 77.1944,-93.0333 69.3775,-83.6531"/>
<polygon fill="midnightblue" stroke="midnightblue" points="71.8832,-81.1927 62.7926,-75.7511 66.5057,-85.674 71.8832,-81.1927"/>
</g>
</g>
</svg>
