<?xml version="1.0" encoding="UTF-8" standalone="no"?>
<!DOCTYPE svg PUBLIC "-//W3C//DTD SVG 1.1//EN"
 "http://www.w3.org/Graphics/SVG/1.1/DTD/svg11.dtd">
<!-- Generated by graphviz version 2.38.0 (20140413.2041)
 -->
<!-- Title: osdk&#45;core/api/src/dji_hotpoint.cpp Pages: 1 -->
<svg width="1347pt" height="431pt"
 viewBox="0.00 0.00 1347.35 431.00" xmlns="http://www.w3.org/2000/svg" xmlns:xlink="http://www.w3.org/1999/xlink">
<g id="graph0" class="graph" transform="scale(1 1) rotate(0) translate(4 427)">
<title>osdk&#45;core/api/src/dji_hotpoint.cpp</title>
<polygon fill="white" stroke="none" points="-4,4 -4,-427 1343.35,-427 1343.35,4 -4,4"/>
<!-- Node1 -->
<g id="node1" class="node"><title>Node1</title>
<polygon fill="#bfbfbf" stroke="black" points="1043,-392.5 1043,-422.5 1147,-422.5 1147,-392.5 1043,-392.5"/>
<text text-anchor="start" x="1051" y="-410.5" font-family="Helvetica,sans-Serif" font-size="10.00">osdk&#45;core/api/src/dji</text>
<text text-anchor="middle" x="1095" y="-399.5" font-family="Helvetica,sans-Serif" font-size="10.00">_hotpoint.cpp</text>
</g>
<!-- Node2 -->
<g id="node2" class="node"><title>Node2</title>
<g id="a_node2"><a xlink:href="dji__hotpoint_8hpp.html" target="_top" xlink:title="Implementation of HotPoint (Point of Interest) Missions for DJI OSDK. ">
<polygon fill="white" stroke="black" points="1052.5,-224.5 1052.5,-243.5 1137.5,-243.5 1137.5,-224.5 1052.5,-224.5"/>
<text text-anchor="middle" x="1095" y="-231.5" font-family="Helvetica,sans-Serif" font-size="10.00">dji_hotpoint.hpp</text>
</a>
</g>
</g>
<!-- Node1&#45;&gt;Node2 -->
<g id="edge1" class="edge"><title>Node1&#45;&gt;Node2</title>
<path fill="none" stroke="midnightblue" d="M1095,-392.465C1095,-361.704 1095,-288.329 1095,-253.7"/>
<polygon fill="midnightblue" stroke="midnightblue" points="1098.5,-253.56 1095,-243.56 1091.5,-253.56 1098.5,-253.56"/>
</g>
<!-- Node12 -->
<g id="node12" class="node"><title>Node12</title>
<g id="a_node12"><a xlink:href="dji__mission__manager_8hpp.html" target="_top" xlink:title="Mission&#45;Manager API for DJI OSDK library. ">
<polygon fill="white" stroke="black" points="1123.5,-280.5 1123.5,-299.5 1250.5,-299.5 1250.5,-280.5 1123.5,-280.5"/>
<text text-anchor="middle" x="1187" y="-287.5" font-family="Helvetica,sans-Serif" font-size="10.00">dji_mission_manager.hpp</text>
</a>
</g>
</g>
<!-- Node1&#45;&gt;Node12 -->
<g id="edge14" class="edge"><title>Node1&#45;&gt;Node12</title>
<path fill="none" stroke="midnightblue" d="M1106.28,-392.337C1123.31,-370.96 1155.51,-330.53 1173.67,-307.731"/>
<polygon fill="midnightblue" stroke="midnightblue" points="1176.6,-309.672 1180.09,-299.669 1171.13,-305.311 1176.6,-309.672"/>
</g>
<!-- Node14 -->
<g id="node14" class="node"><title>Node14</title>
<g id="a_node14"><a xlink:href="dji__vehicle_8hpp.html" target="_top" xlink:title="Vehicle API for DJI onboardSDK library. ">
<polygon fill="white" stroke="black" points="614.5,-336.5 614.5,-355.5 695.5,-355.5 695.5,-336.5 614.5,-336.5"/>
<text text-anchor="middle" x="655" y="-343.5" font-family="Helvetica,sans-Serif" font-size="10.00">dji_vehicle.hpp</text>
</a>
</g>
</g>
<!-- Node1&#45;&gt;Node14 -->
<g id="edge18" class="edge"><title>Node1&#45;&gt;Node14</title>
<path fill="none" stroke="midnightblue" d="M1042.8,-399.441C957.683,-387.931 790.066,-365.265 705.84,-353.875"/>
<polygon fill="midnightblue" stroke="midnightblue" points="706.127,-350.382 695.748,-352.51 705.189,-357.319 706.127,-350.382"/>
</g>
<!-- Node3 -->
<g id="node3" class="node"><title>Node3</title>
<g id="a_node3"><a xlink:href="dji__mission__base_8hpp.html" target="_top" xlink:title="Mission&#45;Base abstract class for DJI OSDK library. ">
<polygon fill="white" stroke="black" points="1000,-168.5 1000,-187.5 1110,-187.5 1110,-168.5 1000,-168.5"/>
<text text-anchor="middle" x="1055" y="-175.5" font-family="Helvetica,sans-Serif" font-size="10.00">dji_mission_base.hpp</text>
</a>
</g>
</g>
<!-- Node2&#45;&gt;Node3 -->
<g id="edge2" class="edge"><title>Node2&#45;&gt;Node3</title>
<path fill="none" stroke="midnightblue" d="M1088.39,-224.083C1082.74,-216.455 1074.46,-205.264 1067.55,-195.941"/>
<polygon fill="midnightblue" stroke="midnightblue" points="1070.25,-193.703 1061.48,-187.751 1064.62,-197.87 1070.25,-193.703"/>
</g>
<!-- Node11 -->
<g id="node11" class="node"><title>Node11</title>
<g id="a_node11"><a xlink:href="dji__telemetry_8hpp.html" target="_top" xlink:title="Enumeration of all telemetry data types, structures and maps. ">
<polygon fill="white" stroke="black" points="306.5,-168.5 306.5,-187.5 397.5,-187.5 397.5,-168.5 306.5,-168.5"/>
<text text-anchor="middle" x="352" y="-175.5" font-family="Helvetica,sans-Serif" font-size="10.00">dji_telemetry.hpp</text>
</a>
</g>
</g>
<!-- Node2&#45;&gt;Node11 -->
<g id="edge12" class="edge"><title>Node2&#45;&gt;Node11</title>
<path fill="none" stroke="midnightblue" d="M1052.49,-225.263C1049.28,-224.796 1046.09,-224.367 1043,-224 980.712,-216.603 560.721,-191.358 407.662,-182.283"/>
<polygon fill="midnightblue" stroke="midnightblue" points="407.732,-178.781 397.542,-181.683 407.318,-185.769 407.732,-178.781"/>
</g>
<!-- Node4 -->
<g id="node4" class="node"><title>Node4</title>
<g id="a_node4"><a xlink:href="dji__command_8hpp.html" target="_top" xlink:title="All DJI OSDK OpenProtocol Command IDs. ">
<polygon fill="white" stroke="black" points="1012.5,-112.5 1012.5,-131.5 1105.5,-131.5 1105.5,-112.5 1012.5,-112.5"/>
<text text-anchor="middle" x="1059" y="-119.5" font-family="Helvetica,sans-Serif" font-size="10.00">dji_command.hpp</text>
</a>
</g>
</g>
<!-- Node3&#45;&gt;Node4 -->
<g id="edge3" class="edge"><title>Node3&#45;&gt;Node4</title>
<path fill="none" stroke="midnightblue" d="M1055.66,-168.083C1056.18,-161.006 1056.94,-150.861 1057.59,-141.986"/>
<polygon fill="midnightblue" stroke="midnightblue" points="1061.1,-141.982 1058.35,-131.751 1054.12,-141.465 1061.1,-141.982"/>
</g>
<!-- Node7 -->
<g id="node7" class="node"><title>Node7</title>
<g id="a_node7"><a xlink:href="dji__type_8hpp.html" target="_top" xlink:title="Data type and Data Structure definitions for use throughout DJI OSDK. ">
<polygon fill="white" stroke="black" points="861.5,-112.5 861.5,-131.5 930.5,-131.5 930.5,-112.5 861.5,-112.5"/>
<text text-anchor="middle" x="896" y="-119.5" font-family="Helvetica,sans-Serif" font-size="10.00">dji_type.hpp</text>
</a>
</g>
</g>
<!-- Node3&#45;&gt;Node7 -->
<g id="edge7" class="edge"><title>Node3&#45;&gt;Node7</title>
<path fill="none" stroke="midnightblue" d="M1029.81,-168.444C1003.06,-159.359 960.597,-144.939 930.695,-134.783"/>
<polygon fill="midnightblue" stroke="midnightblue" points="931.671,-131.418 921.076,-131.516 929.419,-138.046 931.671,-131.418"/>
</g>
<!-- Node9 -->
<g id="node9" class="node"><title>Node9</title>
<g id="a_node9"><a xlink:href="dji__vehicle__callback_8hpp.html" target="_top" xlink:title="Type definition for new Vehicle&#45;style callbacks. ">
<polygon fill="white" stroke="black" points="128,-112.5 128,-131.5 250,-131.5 250,-112.5 128,-112.5"/>
<text text-anchor="middle" x="189" y="-119.5" font-family="Helvetica,sans-Serif" font-size="10.00">dji_vehicle_callback.hpp</text>
</a>
</g>
</g>
<!-- Node3&#45;&gt;Node9 -->
<g id="edge10" class="edge"><title>Node3&#45;&gt;Node9</title>
<path fill="none" stroke="midnightblue" d="M999.841,-173.561C848.78,-164.141 428.46,-137.932 260.085,-127.433"/>
<polygon fill="midnightblue" stroke="midnightblue" points="260.285,-123.938 250.086,-126.809 259.849,-130.925 260.285,-123.938"/>
</g>
<!-- Node5 -->
<g id="node5" class="node"><title>Node5</title>
<g id="a_node5"><a xlink:href="dji__error_8hpp.html" target="_top" xlink:title="All DJI OSDK OpenProtocol ACK Error Codes. ">
<polygon fill="white" stroke="black" points="969,-56.5 969,-75.5 1039,-75.5 1039,-56.5 969,-56.5"/>
<text text-anchor="middle" x="1004" y="-63.5" font-family="Helvetica,sans-Serif" font-size="10.00">dji_error.hpp</text>
</a>
</g>
</g>
<!-- Node4&#45;&gt;Node5 -->
<g id="edge4" class="edge"><title>Node4&#45;&gt;Node5</title>
<path fill="none" stroke="midnightblue" d="M1049.92,-112.083C1041.83,-104.141 1029.8,-92.3354 1020.09,-82.7973"/>
<polygon fill="midnightblue" stroke="midnightblue" points="1022.5,-80.2595 1012.91,-75.7511 1017.6,-85.2545 1022.5,-80.2595"/>
</g>
<!-- Node6 -->
<g id="node6" class="node"><title>Node6</title>
<polygon fill="white" stroke="#bfbfbf" points="979.5,-0.5 979.5,-19.5 1028.5,-19.5 1028.5,-0.5 979.5,-0.5"/>
<text text-anchor="middle" x="1004" y="-7.5" font-family="Helvetica,sans-Serif" font-size="10.00">stdint.h</text>
</g>
<!-- Node4&#45;&gt;Node6 -->
<g id="edge6" class="edge"><title>Node4&#45;&gt;Node6</title>
<path fill="none" stroke="midnightblue" d="M1059.14,-112.5C1059.02,-99.5848 1057.45,-74.563 1048,-56 1042.16,-44.5192 1032.36,-34.0682 1023.49,-26.1338"/>
<polygon fill="midnightblue" stroke="midnightblue" points="1025.65,-23.3745 1015.75,-19.5972 1021.14,-28.7229 1025.65,-23.3745"/>
</g>
<!-- Node5&#45;&gt;Node6 -->
<g id="edge5" class="edge"><title>Node5&#45;&gt;Node6</title>
<path fill="none" stroke="midnightblue" d="M1004,-56.083C1004,-49.0059 1004,-38.8611 1004,-29.9865"/>
<polygon fill="midnightblue" stroke="midnightblue" points="1007.5,-29.751 1004,-19.7511 1000.5,-29.7511 1007.5,-29.751"/>
</g>
<!-- Node7&#45;&gt;Node6 -->
<g id="edge9" class="edge"><title>Node7&#45;&gt;Node6</title>
<path fill="none" stroke="midnightblue" d="M904.475,-112.368C922.613,-93.8941 965.422,-50.2926 988.543,-26.7436"/>
<polygon fill="midnightblue" stroke="midnightblue" points="991.056,-29.1792 995.565,-19.5914 986.061,-24.275 991.056,-29.1792"/>
</g>
<!-- Node8 -->
<g id="node8" class="node"><title>Node8</title>
<polygon fill="white" stroke="#bfbfbf" points="869.5,-56.5 869.5,-75.5 912.5,-75.5 912.5,-56.5 869.5,-56.5"/>
<text text-anchor="middle" x="891" y="-63.5" font-family="Helvetica,sans-Serif" font-size="10.00">cstdio</text>
</g>
<!-- Node7&#45;&gt;Node8 -->
<g id="edge8" class="edge"><title>Node7&#45;&gt;Node8</title>
<path fill="none" stroke="midnightblue" d="M895.174,-112.083C894.519,-105.006 893.58,-94.8611 892.758,-85.9865"/>
<polygon fill="midnightblue" stroke="midnightblue" points="896.217,-85.3858 891.81,-75.7511 889.247,-86.0312 896.217,-85.3858"/>
</g>
<!-- Node10 -->
<g id="node10" class="node"><title>Node10</title>
<polygon fill="white" stroke="#bfbfbf" points="177.5,-56.5 177.5,-75.5 288.5,-75.5 288.5,-56.5 177.5,-56.5"/>
<text text-anchor="middle" x="233" y="-63.5" font-family="Helvetica,sans-Serif" font-size="10.00">dji_open_protocol.hpp</text>
</g>
<!-- Node9&#45;&gt;Node10 -->
<g id="edge11" class="edge"><title>Node9&#45;&gt;Node10</title>
<path fill="none" stroke="midnightblue" d="M196.266,-112.083C202.545,-104.377 211.788,-93.0333 219.431,-83.6531"/>
<polygon fill="midnightblue" stroke="midnightblue" points="222.266,-85.7143 225.869,-75.7511 216.839,-81.2926 222.266,-85.7143"/>
</g>
<!-- Node11&#45;&gt;Node7 -->
<g id="edge13" class="edge"><title>Node11&#45;&gt;Node7</title>
<path fill="none" stroke="midnightblue" d="M397.912,-172.443C500.934,-162.216 749.447,-137.548 851.309,-127.436"/>
<polygon fill="midnightblue" stroke="midnightblue" points="851.667,-130.918 861.273,-126.447 850.976,-123.952 851.667,-130.918"/>
</g>
<!-- Node12&#45;&gt;Node2 -->
<g id="edge15" class="edge"><title>Node12&#45;&gt;Node2</title>
<path fill="none" stroke="midnightblue" d="M1172.22,-280.324C1157.73,-271.822 1135.43,-258.729 1118.51,-248.797"/>
<polygon fill="midnightblue" stroke="midnightblue" points="1120.14,-245.698 1109.74,-243.655 1116.6,-251.735 1120.14,-245.698"/>
</g>
<!-- Node13 -->
<g id="node13" class="node"><title>Node13</title>
<g id="a_node13"><a xlink:href="dji__waypoint_8hpp.html" target="_top" xlink:title="Implementation of GPS Waypoint Missions for DJI OSDK. ">
<polygon fill="white" stroke="black" points="1155.5,-224.5 1155.5,-243.5 1244.5,-243.5 1244.5,-224.5 1155.5,-224.5"/>
<text text-anchor="middle" x="1200" y="-231.5" font-family="Helvetica,sans-Serif" font-size="10.00">dji_waypoint.hpp</text>
</a>
</g>
</g>
<!-- Node12&#45;&gt;Node13 -->
<g id="edge16" class="edge"><title>Node12&#45;&gt;Node13</title>
<path fill="none" stroke="midnightblue" d="M1189.15,-280.083C1190.87,-272.927 1193.35,-262.635 1195.5,-253.691"/>
<polygon fill="midnightblue" stroke="midnightblue" points="1198.96,-254.293 1197.89,-243.751 1192.15,-252.654 1198.96,-254.293"/>
</g>
<!-- Node13&#45;&gt;Node3 -->
<g id="edge17" class="edge"><title>Node13&#45;&gt;Node3</title>
<path fill="none" stroke="midnightblue" d="M1177.02,-224.444C1152.84,-215.438 1114.58,-201.189 1087.35,-191.049"/>
<polygon fill="midnightblue" stroke="midnightblue" points="1088.46,-187.727 1077.87,-187.516 1086.02,-194.286 1088.46,-187.727"/>
</g>
<!-- Node14&#45;&gt;Node4 -->
<g id="edge27" class="edge"><title>Node14&#45;&gt;Node4</title>
<path fill="none" stroke="midnightblue" d="M695.69,-344.996C829.865,-344.598 1252.33,-340.14 1297,-300 1341.14,-260.341 1355.18,-213.419 1317,-168 1291.81,-138.041 1183.82,-128.025 1115.78,-124.678"/>
<polygon fill="midnightblue" stroke="midnightblue" points="1115.79,-121.175 1105.64,-124.214 1115.47,-128.168 1115.79,-121.175"/>
</g>
<!-- Node14&#45;&gt;Node7 -->
<g id="edge59" class="edge"><title>Node14&#45;&gt;Node7</title>
<path fill="none" stroke="midnightblue" d="M687.119,-336.363C710.422,-329.095 741.943,-317.122 766,-300 819.888,-261.646 827.302,-243.029 864,-188 873.912,-173.137 882.675,-154.758 888.514,-141.34"/>
<polygon fill="midnightblue" stroke="midnightblue" points="891.874,-142.379 892.535,-131.804 885.424,-139.659 891.874,-142.379"/>
</g>
<!-- Node14&#45;&gt;Node9 -->
<g id="edge60" class="edge"><title>Node14&#45;&gt;Node9</title>
<path fill="none" stroke="midnightblue" d="M614.152,-343.907C491.827,-340.336 134.165,-327.621 90,-300 58.7784,-280.474 40.6903,-257.016 57,-224 78.1372,-181.212 127.058,-151.555 159.041,-135.921"/>
<polygon fill="midnightblue" stroke="midnightblue" points="160.821,-138.951 168.373,-131.52 157.835,-132.62 160.821,-138.951"/>
</g>
<!-- Node14&#45;&gt;Node10 -->
<g id="edge52" class="edge"><title>Node14&#45;&gt;Node10</title>
<path fill="none" stroke="midnightblue" d="M614.351,-345.654C497.048,-346.961 160.09,-346.464 62,-300 25.9198,-282.909 0,-274.923 0,-235 0,-235 0,-235 0,-177 0,-102.646 98.2264,-78.4734 167.125,-70.6632"/>
<polygon fill="midnightblue" stroke="midnightblue" points="167.903,-74.1013 177.487,-69.5852 167.178,-67.1389 167.903,-74.1013"/>
</g>
<!-- Node14&#45;&gt;Node12 -->
<g id="edge49" class="edge"><title>Node14&#45;&gt;Node12</title>
<path fill="none" stroke="midnightblue" d="M695.862,-340.852C785.374,-331.767 999.829,-309.999 1113.46,-298.465"/>
<polygon fill="midnightblue" stroke="midnightblue" points="1113.87,-301.941 1123.46,-297.449 1113.16,-294.977 1113.87,-301.941"/>
</g>
<!-- Node15 -->
<g id="node15" class="node"><title>Node15</title>
<polygon fill="white" stroke="#bfbfbf" points="539,-112.5 539,-131.5 585,-131.5 585,-112.5 539,-112.5"/>
<text text-anchor="middle" x="562" y="-119.5" font-family="Helvetica,sans-Serif" font-size="10.00">cstdint</text>
</g>
<!-- Node14&#45;&gt;Node15 -->
<g id="edge19" class="edge"><title>Node14&#45;&gt;Node15</title>
<path fill="none" stroke="midnightblue" d="M614.476,-344.416C546.258,-342.48 413.065,-334.289 384,-300 378.252,-293.219 380.343,-288.102 384,-280 392.602,-260.943 499.456,-173.413 543.357,-137.967"/>
<polygon fill="midnightblue" stroke="midnightblue" points="545.659,-140.607 551.25,-131.608 541.267,-135.156 545.659,-140.607"/>
</g>
<!-- Node16 -->
<g id="node16" class="node"><title>Node16</title>
<g id="a_node16"><a xlink:href="dji__broadcast_8hpp.html" target="_top" xlink:title="Broadcast Telemetry API for DJI onboardSDK library. ">
<polygon fill="white" stroke="black" points="313.5,-224.5 313.5,-243.5 406.5,-243.5 406.5,-224.5 313.5,-224.5"/>
<text text-anchor="middle" x="360" y="-231.5" font-family="Helvetica,sans-Serif" font-size="10.00">dji_broadcast.hpp</text>
</a>
</g>
</g>
<!-- Node14&#45;&gt;Node16 -->
<g id="edge20" class="edge"><title>Node14&#45;&gt;Node16</title>
<path fill="none" stroke="midnightblue" d="M614.359,-345.244C539.535,-344.732 384.548,-338.879 351,-300 339.98,-287.229 344.718,-267.488 350.672,-253.111"/>
<polygon fill="midnightblue" stroke="midnightblue" points="353.974,-254.31 355.015,-243.767 347.626,-251.36 353.974,-254.31"/>
</g>
<!-- Node17 -->
<g id="node17" class="node"><title>Node17</title>
<g id="a_node17"><a xlink:href="dji__camera_8hpp.html" target="_top" xlink:title="Camera/Gimbal API for DJI onboardSDK library. ">
<polygon fill="white" stroke="black" points="1128.5,-168.5 1128.5,-187.5 1211.5,-187.5 1211.5,-168.5 1128.5,-168.5"/>
<text text-anchor="middle" x="1170" y="-175.5" font-family="Helvetica,sans-Serif" font-size="10.00">dji_camera.hpp</text>
</a>
</g>
</g>
<!-- Node14&#45;&gt;Node17 -->
<g id="edge23" class="edge"><title>Node14&#45;&gt;Node17</title>
<path fill="none" stroke="midnightblue" d="M695.801,-345.093C825.297,-344.966 1220.77,-341.182 1259,-300 1269.42,-288.77 1273.41,-254.455 1253,-224 1242.95,-209.002 1226.18,-198.58 1210.34,-191.572"/>
<polygon fill="midnightblue" stroke="midnightblue" points="1211.25,-188.162 1200.67,-187.64 1208.61,-194.647 1211.25,-188.162"/>
</g>
<!-- Node18 -->
<g id="node18" class="node"><title>Node18</title>
<polygon fill="white" stroke="#bfbfbf" points="393,-280.5 393,-299.5 505,-299.5 505,-280.5 393,-280.5"/>
<text text-anchor="middle" x="449" y="-287.5" font-family="Helvetica,sans-Serif" font-size="10.00">dji_circular_buffer.hpp</text>
</g>
<!-- Node14&#45;&gt;Node18 -->
<g id="edge26" class="edge"><title>Node14&#45;&gt;Node18</title>
<path fill="none" stroke="midnightblue" d="M622.359,-336.444C586.95,-327.162 530.291,-312.309 491.447,-302.127"/>
<polygon fill="midnightblue" stroke="midnightblue" points="492.049,-298.667 481.489,-299.516 490.274,-305.438 492.049,-298.667"/>
</g>
<!-- Node19 -->
<g id="node19" class="node"><title>Node19</title>
<g id="a_node19"><a xlink:href="dji__control_8hpp.html" target="_top" xlink:title="Control API for DJI OSDK library. ">
<polygon fill="white" stroke="black" points="561,-280.5 561,-299.5 641,-299.5 641,-280.5 561,-280.5"/>
<text text-anchor="middle" x="601" y="-287.5" font-family="Helvetica,sans-Serif" font-size="10.00">dji_control.hpp</text>
</a>
</g>
</g>
<!-- Node14&#45;&gt;Node19 -->
<g id="edge28" class="edge"><title>Node14&#45;&gt;Node19</title>
<path fill="none" stroke="midnightblue" d="M646.083,-336.083C638.22,-328.22 626.569,-316.569 617.081,-307.081"/>
<polygon fill="midnightblue" stroke="midnightblue" points="619.297,-304.347 609.751,-299.751 614.347,-309.297 619.297,-304.347"/>
</g>
<!-- Node22 -->
<g id="node22" class="node"><title>Node22</title>
<g id="a_node22"><a xlink:href="dji__version_8hpp.html" target="_top" xlink:title="Drone/SDK Version definition for DJI onboardSDK library. ">
<polygon fill="white" stroke="black" points="530,-168.5 530,-187.5 612,-187.5 612,-168.5 530,-168.5"/>
<text text-anchor="middle" x="571" y="-175.5" font-family="Helvetica,sans-Serif" font-size="10.00">dji_version.hpp</text>
</a>
</g>
</g>
<!-- Node14&#45;&gt;Node22 -->
<g id="edge61" class="edge"><title>Node14&#45;&gt;Node22</title>
<path fill="none" stroke="midnightblue" d="M614.28,-338.316C591.83,-332.326 565.784,-321.064 552,-300 531.226,-268.254 548.637,-221.985 561.099,-196.856"/>
<polygon fill="midnightblue" stroke="midnightblue" points="564.32,-198.25 565.855,-187.767 558.117,-195.005 564.32,-198.25"/>
</g>
<!-- Node24 -->
<g id="node24" class="node"><title>Node24</title>
<g id="a_node24"><a xlink:href="dji__gimbal_8hpp.html" target="_top" xlink:title="Gimbal API for OSDK library. ">
<polygon fill="white" stroke="black" points="1229.5,-168.5 1229.5,-187.5 1308.5,-187.5 1308.5,-168.5 1229.5,-168.5"/>
<text text-anchor="middle" x="1269" y="-175.5" font-family="Helvetica,sans-Serif" font-size="10.00">dji_gimbal.hpp</text>
</a>
</g>
</g>
<!-- Node14&#45;&gt;Node24 -->
<g id="edge41" class="edge"><title>Node14&#45;&gt;Node24</title>
<path fill="none" stroke="midnightblue" d="M695.62,-345.187C827.497,-345.375 1237.46,-342.509 1277,-300 1302.95,-272.104 1288.21,-223.178 1277.34,-196.897"/>
<polygon fill="midnightblue" stroke="midnightblue" points="1280.55,-195.484 1273.33,-187.731 1274.14,-198.295 1280.55,-195.484"/>
</g>
<!-- Node25 -->
<g id="node25" class="node"><title>Node25</title>
<polygon fill="white" stroke="#bfbfbf" points="659,-280.5 659,-299.5 757,-299.5 757,-280.5 659,-280.5"/>
<text text-anchor="middle" x="708" y="-287.5" font-family="Helvetica,sans-Serif" font-size="10.00">dji_hard_driver.hpp</text>
</g>
<!-- Node14&#45;&gt;Node25 -->
<g id="edge44" class="edge"><title>Node14&#45;&gt;Node25</title>
<path fill="none" stroke="midnightblue" d="M663.752,-336.083C671.47,-328.22 682.905,-316.569 692.217,-307.081"/>
<polygon fill="midnightblue" stroke="midnightblue" points="694.904,-309.34 699.411,-299.751 689.908,-304.436 694.904,-309.34"/>
</g>
<!-- Node26 -->
<g id="node26" class="node"><title>Node26</title>
<g id="a_node26"><a xlink:href="dji__hardware__sync_8hpp.html" target="_top" xlink:title="Hardware Sync API for DJI OSDK. ">
<polygon fill="white" stroke="black" points="918,-224.5 918,-243.5 1034,-243.5 1034,-224.5 918,-224.5"/>
<text text-anchor="middle" x="976" y="-231.5" font-family="Helvetica,sans-Serif" font-size="10.00">dji_hardware_sync.hpp</text>
</a>
</g>
</g>
<!-- Node14&#45;&gt;Node26 -->
<g id="edge45" class="edge"><title>Node14&#45;&gt;Node26</title>
<path fill="none" stroke="midnightblue" d="M695.587,-343.227C789.499,-338.709 1015.5,-325.295 1038,-300 1054.29,-281.688 1027.22,-261.366 1003.88,-248.401"/>
<polygon fill="midnightblue" stroke="midnightblue" points="1005.37,-245.23 994.898,-243.649 1002.1,-251.418 1005.37,-245.23"/>
</g>
<!-- Node27 -->
<g id="node27" class="node"><title>Node27</title>
<g id="a_node27"><a xlink:href="dji__mfio_8hpp.html" target="_top" xlink:title="MFIO API for DJI OSDK library. ">
<polygon fill="white" stroke="black" points="66.5,-224.5 66.5,-243.5 135.5,-243.5 135.5,-224.5 66.5,-224.5"/>
<text text-anchor="middle" x="101" y="-231.5" font-family="Helvetica,sans-Serif" font-size="10.00">dji_mfio.hpp</text>
</a>
</g>
</g>
<!-- Node14&#45;&gt;Node27 -->
<g id="edge47" class="edge"><title>Node14&#45;&gt;Node27</title>
<path fill="none" stroke="midnightblue" d="M614.269,-344.768C492.397,-343.656 136.851,-337.223 102,-300 90.69,-287.92 92.0076,-268.355 95.1981,-253.841"/>
<polygon fill="midnightblue" stroke="midnightblue" points="98.6447,-254.498 97.8248,-243.935 91.8786,-252.704 98.6447,-254.498"/>
</g>
<!-- Node28 -->
<g id="node28" class="node"><title>Node28</title>
<g id="a_node28"><a xlink:href="dji__mobile__communication_8hpp.html" target="_top" xlink:title="Implementation of DJI Mobile&#45;Onboard SDK Communication (MOC) ">
<polygon fill="white" stroke="black" points="111,-280.5 111,-299.5 261,-299.5 261,-280.5 111,-280.5"/>
<text text-anchor="middle" x="186" y="-287.5" font-family="Helvetica,sans-Serif" font-size="10.00">dji_mobile_communication.hpp</text>
</a>
</g>
</g>
<!-- Node14&#45;&gt;Node28 -->
<g id="edge50" class="edge"><title>Node14&#45;&gt;Node28</title>
<path fill="none" stroke="midnightblue" d="M614.2,-340.302C537.819,-331.508 371.825,-312.396 270.416,-300.719"/>
<polygon fill="midnightblue" stroke="midnightblue" points="270.537,-297.21 260.202,-299.544 269.736,-304.164 270.537,-297.21"/>
</g>
<!-- Node29 -->
<g id="node29" class="node"><title>Node29</title>
<g id="a_node29"><a xlink:href="dji__status_8hpp.html" target="_top" xlink:title="Status information for DJI Vehicle. ">
<polygon fill="white" stroke="black" points="813.5,-280.5 813.5,-299.5 890.5,-299.5 890.5,-280.5 813.5,-280.5"/>
<text text-anchor="middle" x="852" y="-287.5" font-family="Helvetica,sans-Serif" font-size="10.00">dji_status.hpp</text>
</a>
</g>
</g>
<!-- Node14&#45;&gt;Node29 -->
<g id="edge53" class="edge"><title>Node14&#45;&gt;Node29</title>
<path fill="none" stroke="midnightblue" d="M686.215,-336.444C719.933,-327.201 773.8,-312.436 810.932,-302.257"/>
<polygon fill="midnightblue" stroke="midnightblue" points="812.212,-305.536 820.931,-299.516 810.361,-298.785 812.212,-305.536"/>
</g>
<!-- Node30 -->
<g id="node30" class="node"><title>Node30</title>
<g id="a_node30"><a xlink:href="dji__subscription_8hpp.html" target="_top" xlink:title="Telemetry Subscription API for DJI OSDK library. ">
<polygon fill="white" stroke="black" points="192.5,-224.5 192.5,-243.5 295.5,-243.5 295.5,-224.5 192.5,-224.5"/>
<text text-anchor="middle" x="244" y="-231.5" font-family="Helvetica,sans-Serif" font-size="10.00">dji_subscription.hpp</text>
</a>
</g>
</g>
<!-- Node14&#45;&gt;Node30 -->
<g id="edge54" class="edge"><title>Node14&#45;&gt;Node30</title>
<path fill="none" stroke="midnightblue" d="M614.41,-344.882C553.15,-343.459 434.32,-335.805 341,-300 310.446,-288.277 279.854,-265.492 261.422,-250.257"/>
<polygon fill="midnightblue" stroke="midnightblue" points="263.523,-247.45 253.628,-243.661 259.001,-252.793 263.523,-247.45"/>
</g>
<!-- Node31 -->
<g id="node31" class="node"><title>Node31</title>
<polygon fill="white" stroke="#bfbfbf" points="909,-280.5 909,-299.5 1029,-299.5 1029,-280.5 909,-280.5"/>
<text text-anchor="middle" x="969" y="-287.5" font-family="Helvetica,sans-Serif" font-size="10.00">dji_thread_manager.hpp</text>
</g>
<!-- Node14&#45;&gt;Node31 -->
<g id="edge58" class="edge"><title>Node14&#45;&gt;Node31</title>
<path fill="none" stroke="midnightblue" d="M695.728,-337.996C750.115,-328.643 846.854,-312.006 909.435,-301.244"/>
<polygon fill="midnightblue" stroke="midnightblue" points="910.294,-304.647 919.556,-299.503 909.107,-297.749 910.294,-304.647"/>
</g>
<!-- Node16&#45;&gt;Node9 -->
<g id="edge22" class="edge"><title>Node16&#45;&gt;Node9</title>
<path fill="none" stroke="midnightblue" d="M346.582,-224.368C317.238,-205.492 247.117,-160.385 211.132,-137.237"/>
<polygon fill="midnightblue" stroke="midnightblue" points="212.659,-134.058 202.356,-131.591 208.872,-139.945 212.659,-134.058"/>
</g>
<!-- Node16&#45;&gt;Node11 -->
<g id="edge21" class="edge"><title>Node16&#45;&gt;Node11</title>
<path fill="none" stroke="midnightblue" d="M358.679,-224.083C357.619,-216.927 356.094,-206.635 354.769,-197.691"/>
<polygon fill="midnightblue" stroke="midnightblue" points="358.224,-197.13 353.296,-187.751 351.3,-198.156 358.224,-197.13"/>
</g>
<!-- Node17&#45;&gt;Node4 -->
<g id="edge24" class="edge"><title>Node17&#45;&gt;Node4</title>
<path fill="none" stroke="midnightblue" d="M1152.17,-168.324C1134.28,-159.625 1106.52,-146.12 1085.95,-136.113"/>
<polygon fill="midnightblue" stroke="midnightblue" points="1087.31,-132.882 1076.79,-131.655 1084.25,-139.177 1087.31,-132.882"/>
</g>
<!-- Node17&#45;&gt;Node7 -->
<g id="edge25" class="edge"><title>Node17&#45;&gt;Node7</title>
<path fill="none" stroke="midnightblue" d="M1128.39,-168.799C1077.72,-158.813 992.497,-142.018 940.541,-131.778"/>
<polygon fill="midnightblue" stroke="midnightblue" points="941.101,-128.321 930.613,-129.822 939.748,-135.189 941.101,-128.321"/>
</g>
<!-- Node19&#45;&gt;Node7 -->
<g id="edge39" class="edge"><title>Node19&#45;&gt;Node7</title>
<path fill="none" stroke="midnightblue" d="M632.965,-280.447C680.944,-266.555 772.985,-235.74 839,-188 857.357,-174.725 873.882,-154.508 884.354,-140.15"/>
<polygon fill="midnightblue" stroke="midnightblue" points="887.416,-141.881 890.32,-131.692 881.696,-137.846 887.416,-141.881"/>
</g>
<!-- Node19&#45;&gt;Node9 -->
<g id="edge40" class="edge"><title>Node19&#45;&gt;Node9</title>
<path fill="none" stroke="midnightblue" d="M590.313,-280.439C562.041,-258.24 482.222,-198.437 406,-168 359.192,-149.309 303.468,-137.963 260.208,-131.34"/>
<polygon fill="midnightblue" stroke="midnightblue" points="260.46,-127.839 250.055,-129.837 259.435,-134.764 260.46,-127.839"/>
</g>
<!-- Node19&#45;&gt;Node10 -->
<g id="edge38" class="edge"><title>Node19&#45;&gt;Node10</title>
<path fill="none" stroke="midnightblue" d="M594.207,-280.208C583.635,-266.913 562.148,-241.401 540,-224 451.004,-154.076 326.016,-101.802 266.738,-79.2465"/>
<polygon fill="midnightblue" stroke="midnightblue" points="267.721,-75.8772 257.129,-75.6326 265.257,-82.4291 267.721,-75.8772"/>
</g>
<!-- Node20 -->
<g id="node20" class="node"><title>Node20</title>
<g id="a_node20"><a xlink:href="dji__ack_8hpp.html" target="_top" xlink:title="All DJI OSDK ACK parsing. ">
<polygon fill="white" stroke="black" points="630,-224.5 630,-243.5 696,-243.5 696,-224.5 630,-224.5"/>
<text text-anchor="middle" x="663" y="-231.5" font-family="Helvetica,sans-Serif" font-size="10.00">dji_ack.hpp</text>
</a>
</g>
</g>
<!-- Node19&#45;&gt;Node20 -->
<g id="edge29" class="edge"><title>Node19&#45;&gt;Node20</title>
<path fill="none" stroke="midnightblue" d="M610.961,-280.324C620.127,-272.341 633.937,-260.313 645.028,-250.653"/>
<polygon fill="midnightblue" stroke="midnightblue" points="647.615,-253.041 652.857,-243.834 643.018,-247.762 647.615,-253.041"/>
</g>
<!-- Node20&#45;&gt;Node4 -->
<g id="edge30" class="edge"><title>Node20&#45;&gt;Node4</title>
<path fill="none" stroke="midnightblue" d="M696.183,-224.904C731.638,-216.163 789.438,-201.653 839,-188 903.475,-170.239 978.023,-147.812 1021.69,-134.482"/>
<polygon fill="midnightblue" stroke="midnightblue" points="1022.77,-137.81 1031.31,-131.539 1020.72,-131.116 1022.77,-137.81"/>
</g>
<!-- Node20&#45;&gt;Node7 -->
<g id="edge33" class="edge"><title>Node20&#45;&gt;Node7</title>
<path fill="none" stroke="midnightblue" d="M659.08,-224.27C653.604,-210.592 645.733,-184.023 659,-168 682.923,-139.107 789.414,-128.615 851.204,-124.92"/>
<polygon fill="midnightblue" stroke="midnightblue" points="851.667,-128.4 861.455,-124.345 851.274,-121.411 851.667,-128.4"/>
</g>
<!-- Node21 -->
<g id="node21" class="node"><title>Node21</title>
<g id="a_node21"><a xlink:href="dji__mission__type_8hpp.html" target="_top" xlink:title="Mission related data struct for DJI OSDK library. ">
<polygon fill="white" stroke="black" points="722,-168.5 722,-187.5 830,-187.5 830,-168.5 722,-168.5"/>
<text text-anchor="middle" x="776" y="-175.5" font-family="Helvetica,sans-Serif" font-size="10.00">dji_mission_type.hpp</text>
</a>
</g>
</g>
<!-- Node20&#45;&gt;Node21 -->
<g id="edge31" class="edge"><title>Node20&#45;&gt;Node21</title>
<path fill="none" stroke="midnightblue" d="M680.905,-224.444C699.254,-215.675 728.005,-201.935 749.094,-191.858"/>
<polygon fill="midnightblue" stroke="midnightblue" points="750.665,-194.986 758.179,-187.516 747.647,-188.67 750.665,-194.986"/>
</g>
<!-- Node20&#45;&gt;Node22 -->
<g id="edge34" class="edge"><title>Node20&#45;&gt;Node22</title>
<path fill="none" stroke="midnightblue" d="M648.219,-224.324C633.733,-215.822 611.427,-202.729 594.507,-192.797"/>
<polygon fill="midnightblue" stroke="midnightblue" points="596.141,-189.698 585.745,-187.655 592.597,-195.735 596.141,-189.698"/>
</g>
<!-- Node23 -->
<g id="node23" class="node"><title>Node23</title>
<polygon fill="white" stroke="#bfbfbf" points="668.5,-168.5 668.5,-187.5 703.5,-187.5 703.5,-168.5 668.5,-168.5"/>
<text text-anchor="middle" x="686" y="-175.5" font-family="Helvetica,sans-Serif" font-size="10.00">map</text>
</g>
<!-- Node20&#45;&gt;Node23 -->
<g id="edge37" class="edge"><title>Node20&#45;&gt;Node23</title>
<path fill="none" stroke="midnightblue" d="M666.798,-224.083C669.913,-216.77 674.423,-206.181 678.289,-197.103"/>
<polygon fill="midnightblue" stroke="midnightblue" points="681.574,-198.323 682.273,-187.751 675.134,-195.58 681.574,-198.323"/>
</g>
<!-- Node21&#45;&gt;Node7 -->
<g id="edge32" class="edge"><title>Node21&#45;&gt;Node7</title>
<path fill="none" stroke="midnightblue" d="M795.014,-168.444C814.588,-159.636 845.308,-145.812 867.729,-135.722"/>
<polygon fill="midnightblue" stroke="midnightblue" points="869.392,-138.812 877.075,-131.516 866.519,-132.428 869.392,-138.812"/>
</g>
<!-- Node22&#45;&gt;Node4 -->
<g id="edge35" class="edge"><title>Node22&#45;&gt;Node4</title>
<path fill="none" stroke="midnightblue" d="M612.186,-172.443C699.405,-162.791 902.87,-140.277 1002.29,-129.275"/>
<polygon fill="midnightblue" stroke="midnightblue" points="1002.89,-132.73 1012.44,-128.152 1002.12,-125.773 1002.89,-132.73"/>
</g>
<!-- Node22&#45;&gt;Node15 -->
<g id="edge36" class="edge"><title>Node22&#45;&gt;Node15</title>
<path fill="none" stroke="midnightblue" d="M569.514,-168.083C568.321,-160.927 566.606,-150.635 565.115,-141.691"/>
<polygon fill="midnightblue" stroke="midnightblue" points="568.555,-141.04 563.459,-131.751 561.65,-142.19 568.555,-141.04"/>
</g>
<!-- Node24&#45;&gt;Node4 -->
<g id="edge42" class="edge"><title>Node24&#45;&gt;Node4</title>
<path fill="none" stroke="midnightblue" d="M1235.72,-168.444C1199.55,-159.142 1141.62,-144.246 1102.02,-134.062"/>
<polygon fill="midnightblue" stroke="midnightblue" points="1102.68,-130.617 1092.12,-131.516 1100.93,-137.397 1102.68,-130.617"/>
</g>
<!-- Node24&#45;&gt;Node7 -->
<g id="edge43" class="edge"><title>Node24&#45;&gt;Node7</title>
<path fill="none" stroke="midnightblue" d="M1229.45,-169.582C1226.25,-169.03 1223.07,-168.496 1220,-168 1120.42,-151.947 1003.06,-136.508 940.521,-128.558"/>
<polygon fill="midnightblue" stroke="midnightblue" points="940.959,-125.086 930.599,-127.302 940.08,-132.031 940.959,-125.086"/>
</g>
<!-- Node26&#45;&gt;Node7 -->
<g id="edge46" class="edge"><title>Node26&#45;&gt;Node7</title>
<path fill="none" stroke="midnightblue" d="M969.723,-224.368C956.52,-206.215 925.674,-163.802 908.356,-139.99"/>
<polygon fill="midnightblue" stroke="midnightblue" points="910.961,-137.62 902.248,-131.591 905.299,-141.737 910.961,-137.62"/>
</g>
<!-- Node27&#45;&gt;Node9 -->
<g id="edge48" class="edge"><title>Node27&#45;&gt;Node9</title>
<path fill="none" stroke="midnightblue" d="M107.162,-224.445C116.278,-211.879 134.005,-187.779 150,-168 157.801,-158.354 166.858,-147.863 174.279,-139.439"/>
<polygon fill="midnightblue" stroke="midnightblue" points="177.028,-141.615 181.048,-131.812 171.793,-136.968 177.028,-141.615"/>
</g>
<!-- Node28&#45;&gt;Node9 -->
<g id="edge51" class="edge"><title>Node28&#45;&gt;Node9</title>
<path fill="none" stroke="midnightblue" d="M185.254,-280.382C184.511,-271.33 183.422,-256.677 183,-244 181.791,-207.689 184.945,-165.291 187.125,-141.551"/>
<polygon fill="midnightblue" stroke="midnightblue" points="190.618,-141.794 188.093,-131.505 183.65,-141.123 190.618,-141.794"/>
</g>
<!-- Node30&#45;&gt;Node9 -->
<g id="edge57" class="edge"><title>Node30&#45;&gt;Node9</title>
<path fill="none" stroke="midnightblue" d="M239.684,-224.368C230.688,-206.376 209.775,-164.55 197.813,-140.627"/>
<polygon fill="midnightblue" stroke="midnightblue" points="200.898,-138.97 193.296,-131.591 194.637,-142.101 200.898,-138.97"/>
</g>
<!-- Node30&#45;&gt;Node10 -->
<g id="edge55" class="edge"><title>Node30&#45;&gt;Node10</title>
<path fill="none" stroke="midnightblue" d="M247.305,-224.335C254.488,-204.251 270.019,-153.096 259,-112 256.346,-102.103 250.931,-92.1315 245.726,-84.099"/>
<polygon fill="midnightblue" stroke="midnightblue" points="248.464,-81.9055 239.89,-75.6811 242.711,-85.8935 248.464,-81.9055"/>
</g>
<!-- Node30&#45;&gt;Node11 -->
<g id="edge56" class="edge"><title>Node30&#45;&gt;Node11</title>
<path fill="none" stroke="midnightblue" d="M261.352,-224.324C278.672,-215.664 305.515,-202.242 325.502,-192.249"/>
<polygon fill="midnightblue" stroke="midnightblue" points="327.312,-195.257 334.691,-187.655 324.181,-188.996 327.312,-195.257"/>
</g>
</g>
</svg>
