<?xml version="1.0" encoding="UTF-8" standalone="no"?>
<!DOCTYPE svg PUBLIC "-//W3C//DTD SVG 1.1//EN"
 "http://www.w3.org/Graphics/SVG/1.1/DTD/svg11.dtd">
<!-- Generated by graphviz version 2.40.1 (20161225.0304)
 -->
<!-- Title: osdk&#45;lib/x86/osdk&#45;core/inc/dji_mop_define.hpp Pages: 1 -->
<svg width="374pt" height="319pt"
 viewBox="0.00 0.00 374.00 319.00" xmlns="http://www.w3.org/2000/svg" xmlns:xlink="http://www.w3.org/1999/xlink">
<g id="graph0" class="graph" transform="scale(1 1) rotate(0) translate(4 315)">
<title>osdk&#45;lib/x86/osdk&#45;core/inc/dji_mop_define.hpp</title>
<polygon fill="#ffffff" stroke="transparent" points="-4,4 -4,-315 370,-315 370,4 -4,4"/>
<!-- Node0 -->
<g id="node1" class="node">
<title>Node0</title>
<g id="a_node1"><a xlink:title="Enumeration of all mop data types, structures.">
<polygon fill="#bfbfbf" stroke="#000000" points="28,-280.5 28,-310.5 147,-310.5 147,-280.5 28,-280.5"/>
<text text-anchor="start" x="36" y="-298.5" font-family="Helvetica,sans-Serif" font-size="10.00" fill="#000000">osdk&#45;lib/x86/osdk&#45;core</text>
<text text-anchor="middle" x="87.5" y="-287.5" font-family="Helvetica,sans-Serif" font-size="10.00" fill="#000000">/inc/dji_mop_define.hpp</text>
</a>
</g>
</g>
<!-- Node1 -->
<g id="node2" class="node">
<title>Node1</title>
<g id="a_node2"><a xlink:href="mop__entry__osdk_8h_source.html" target="_top" xlink:title=" ">
<polygon fill="#ffffff" stroke="#000000" points="0,-168.5 0,-187.5 97,-187.5 97,-168.5 0,-168.5"/>
<text text-anchor="middle" x="48.5" y="-175.5" font-family="Helvetica,sans-Serif" font-size="10.00" fill="#000000">mop_entry_osdk.h</text>
</a>
</g>
</g>
<!-- Node0&#45;&gt;Node1 -->
<g id="edge1" class="edge">
<title>Node0&#45;&gt;Node1</title>
<path fill="none" stroke="#191970" d="M82.4014,-280.1389C75.343,-258.873 62.5965,-220.4702 54.9045,-197.2956"/>
<polygon fill="#191970" stroke="#191970" points="58.145,-195.9478 51.6729,-187.5595 51.5014,-198.1529 58.145,-195.9478"/>
</g>
<!-- Node3 -->
<g id="node4" class="node">
<title>Node3</title>
<g id="a_node4"><a xlink:href="dji__log_8hpp.html" target="_top" xlink:title="Logging mechanism for printing status and error messages to the screen.">
<polygon fill="#ffffff" stroke="#000000" points="94,-224.5 94,-243.5 157,-243.5 157,-224.5 94,-224.5"/>
<text text-anchor="middle" x="125.5" y="-231.5" font-family="Helvetica,sans-Serif" font-size="10.00" fill="#000000">dji_log.hpp</text>
</a>
</g>
</g>
<!-- Node0&#45;&gt;Node3 -->
<g id="edge3" class="edge">
<title>Node0&#45;&gt;Node3</title>
<path fill="none" stroke="#191970" d="M96.8933,-280.2977C102.1131,-271.8498 108.6457,-261.2773 114.15,-252.369"/>
<polygon fill="#191970" stroke="#191970" points="117.1368,-254.1938 119.4157,-243.8469 111.1818,-250.5143 117.1368,-254.1938"/>
</g>
<!-- Node2 -->
<g id="node3" class="node">
<title>Node2</title>
<g id="a_node3"><a xlink:title=" ">
<polygon fill="#ffffff" stroke="#bfbfbf" points="79,-.5 79,-19.5 128,-19.5 128,-.5 79,-.5"/>
<text text-anchor="middle" x="103.5" y="-7.5" font-family="Helvetica,sans-Serif" font-size="10.00" fill="#000000">stdint.h</text>
</a>
</g>
</g>
<!-- Node1&#45;&gt;Node2 -->
<g id="edge2" class="edge">
<title>Node1&#45;&gt;Node2</title>
<path fill="none" stroke="#191970" d="M51.1525,-168.1052C54.6705,-155.1488 61.1749,-131.7596 67.5,-112 76.8117,-82.9104 88.823,-49.611 96.3447,-29.1935"/>
<polygon fill="#191970" stroke="#191970" points="99.6397,-30.3744 99.8308,-19.7813 93.0754,-27.9431 99.6397,-30.3744"/>
</g>
<!-- Node4 -->
<g id="node5" class="node">
<title>Node4</title>
<g id="a_node5"><a xlink:href="dji__singleton_8hpp.html" target="_top" xlink:title="Singleton Template Class implementation for use with the DJI OSDK.">
<polygon fill="#ffffff" stroke="#000000" points="77,-112.5 77,-131.5 166,-131.5 166,-112.5 77,-112.5"/>
<text text-anchor="middle" x="121.5" y="-119.5" font-family="Helvetica,sans-Serif" font-size="10.00" fill="#000000">dji_singleton.hpp</text>
</a>
</g>
</g>
<!-- Node3&#45;&gt;Node4 -->
<g id="edge4" class="edge">
<title>Node3&#45;&gt;Node4</title>
<path fill="none" stroke="#191970" d="M125.159,-224.4509C124.5066,-206.184 123.0698,-165.9553 122.2035,-141.6976"/>
<polygon fill="#191970" stroke="#191970" points="125.695,-141.3936 121.8402,-131.5249 118.6994,-141.6435 125.695,-141.3936"/>
</g>
<!-- Node5 -->
<g id="node6" class="node">
<title>Node5</title>
<g id="a_node6"><a xlink:href="dji__platform_8hpp.html" target="_top" xlink:title="Vehicle API for DJI onboardSDK library.">
<polygon fill="#ffffff" stroke="#000000" points="168.5,-168.5 168.5,-187.5 254.5,-187.5 254.5,-168.5 168.5,-168.5"/>
<text text-anchor="middle" x="211.5" y="-175.5" font-family="Helvetica,sans-Serif" font-size="10.00" fill="#000000">dji_platform.hpp</text>
</a>
</g>
</g>
<!-- Node3&#45;&gt;Node5 -->
<g id="edge5" class="edge">
<title>Node3&#45;&gt;Node5</title>
<path fill="none" stroke="#191970" d="M140.4801,-224.2455C153.6751,-215.6534 173.1051,-203.0014 188.3079,-193.1018"/>
<polygon fill="#191970" stroke="#191970" points="190.2215,-196.0325 196.6916,-187.6427 186.4017,-190.1665 190.2215,-196.0325"/>
</g>
<!-- Node5&#45;&gt;Node4 -->
<g id="edge10" class="edge">
<title>Node5&#45;&gt;Node4</title>
<path fill="none" stroke="#191970" d="M195.8232,-168.2455C182.0144,-159.6534 161.6807,-147.0014 145.7708,-137.1018"/>
<polygon fill="#191970" stroke="#191970" points="147.3368,-133.954 136.9972,-131.6427 143.6387,-139.8974 147.3368,-133.954"/>
</g>
<!-- Node6 -->
<g id="node7" class="node">
<title>Node6</title>
<g id="a_node7"><a xlink:href="osdk__platform_8h.html" target="_top" xlink:title="This is the header file for define OSDK platform interfaces.">
<polygon fill="#ffffff" stroke="#000000" points="184.5,-112.5 184.5,-131.5 270.5,-131.5 270.5,-112.5 184.5,-112.5"/>
<text text-anchor="middle" x="227.5" y="-119.5" font-family="Helvetica,sans-Serif" font-size="10.00" fill="#000000">osdk_platform.h</text>
</a>
</g>
</g>
<!-- Node5&#45;&gt;Node6 -->
<g id="edge6" class="edge">
<title>Node5&#45;&gt;Node6</title>
<path fill="none" stroke="#191970" d="M214.287,-168.2455C216.3977,-160.8579 219.366,-150.4689 221.9547,-141.4087"/>
<polygon fill="#191970" stroke="#191970" points="225.363,-142.2195 224.745,-131.6427 218.6323,-140.2964 225.363,-142.2195"/>
</g>
<!-- Node9 -->
<g id="node10" class="node">
<title>Node9</title>
<g id="a_node10"><a xlink:href="osdk__logger_8h.html" target="_top" xlink:title="This is the header file for &quot;osdk_logger.c&quot;, defining the structure and (exported) function prototype...">
<polygon fill="#ffffff" stroke="#000000" points="289,-112.5 289,-131.5 366,-131.5 366,-112.5 289,-112.5"/>
<text text-anchor="middle" x="327.5" y="-119.5" font-family="Helvetica,sans-Serif" font-size="10.00" fill="#000000">osdk_logger.h</text>
</a>
</g>
</g>
<!-- Node5&#45;&gt;Node9 -->
<g id="edge11" class="edge">
<title>Node5&#45;&gt;Node9</title>
<path fill="none" stroke="#191970" d="M231.4411,-168.3733C249.9786,-159.4241 277.8028,-145.9917 298.7413,-135.8835"/>
<polygon fill="#191970" stroke="#191970" points="300.3352,-139.0006 307.8191,-131.5011 297.2919,-132.6967 300.3352,-139.0006"/>
</g>
<!-- Node7 -->
<g id="node8" class="node">
<title>Node7</title>
<g id="a_node8"><a xlink:href="osdk__typedef_8h_source.html" target="_top" xlink:title=" ">
<polygon fill="#ffffff" stroke="#000000" points="186,-56.5 186,-75.5 269,-75.5 269,-56.5 186,-56.5"/>
<text text-anchor="middle" x="227.5" y="-63.5" font-family="Helvetica,sans-Serif" font-size="10.00" fill="#000000">osdk_typedef.h</text>
</a>
</g>
</g>
<!-- Node6&#45;&gt;Node7 -->
<g id="edge7" class="edge">
<title>Node6&#45;&gt;Node7</title>
<path fill="none" stroke="#191970" d="M227.5,-112.2455C227.5,-104.9382 227.5,-94.6944 227.5,-85.7046"/>
<polygon fill="#191970" stroke="#191970" points="231.0001,-85.6426 227.5,-75.6427 224.0001,-85.6427 231.0001,-85.6426"/>
</g>
<!-- Node7&#45;&gt;Node2 -->
<g id="edge9" class="edge">
<title>Node7&#45;&gt;Node2</title>
<path fill="none" stroke="#191970" d="M206.1836,-56.3733C186.2784,-47.3838 156.3564,-33.8706 133.94,-23.7471"/>
<polygon fill="#191970" stroke="#191970" points="135.0925,-20.4272 124.5382,-19.5011 132.2113,-26.8068 135.0925,-20.4272"/>
</g>
<!-- Node8 -->
<g id="node9" class="node">
<title>Node8</title>
<g id="a_node9"><a xlink:title=" ">
<polygon fill="#ffffff" stroke="#bfbfbf" points="201.5,-.5 201.5,-19.5 253.5,-19.5 253.5,-.5 201.5,-.5"/>
<text text-anchor="middle" x="227.5" y="-7.5" font-family="Helvetica,sans-Serif" font-size="10.00" fill="#000000">stddef.h</text>
</a>
</g>
</g>
<!-- Node7&#45;&gt;Node8 -->
<g id="edge8" class="edge">
<title>Node7&#45;&gt;Node8</title>
<path fill="none" stroke="#191970" d="M227.5,-56.2455C227.5,-48.9382 227.5,-38.6944 227.5,-29.7046"/>
<polygon fill="#191970" stroke="#191970" points="231.0001,-29.6426 227.5,-19.6427 224.0001,-29.6427 231.0001,-29.6426"/>
</g>
<!-- Node9&#45;&gt;Node7 -->
<g id="edge12" class="edge">
<title>Node9&#45;&gt;Node7</title>
<path fill="none" stroke="#191970" d="M310.0813,-112.2455C294.4515,-103.4928 271.2981,-90.527 253.4815,-80.5496"/>
<polygon fill="#191970" stroke="#191970" points="255.1543,-77.475 244.7191,-75.6427 251.734,-83.5825 255.1543,-77.475"/>
</g>
</g>
</svg>
