<?xml version="1.0" encoding="UTF-8" standalone="no"?>
<!DOCTYPE svg PUBLIC "-//W3C//DTD SVG 1.1//EN"
 "http://www.w3.org/Graphics/SVG/1.1/DTD/svg11.dtd">
<!-- Generated by graphviz version 2.40.1 (20161225.0304)
 -->
<!-- Title: osdk&#45;core/api/inc/dji_command.hpp Pages: 1 -->
<svg width="217pt" height="151pt"
 viewBox="0.00 0.00 216.50 151.00" xmlns="http://www.w3.org/2000/svg" xmlns:xlink="http://www.w3.org/1999/xlink">
<g id="graph0" class="graph" transform="scale(1 1) rotate(0) translate(4 147)">
<title>osdk&#45;core/api/inc/dji_command.hpp</title>
<polygon fill="#ffffff" stroke="transparent" points="-4,4 -4,-147 212.5,-147 212.5,4 -4,4"/>
<!-- Node0 -->
<g id="node1" class="node">
<title>Node0</title>
<g id="a_node1"><a xlink:title="All DJI OSDK OpenProtocol Command IDs.">
<polygon fill="#bfbfbf" stroke="#000000" points="93,-112.5 93,-142.5 197,-142.5 197,-112.5 93,-112.5"/>
<text text-anchor="start" x="101" y="-130.5" font-family="Helvetica,sans-Serif" font-size="10.00" fill="#000000">osdk&#45;core/api/inc/dji</text>
<text text-anchor="middle" x="145" y="-119.5" font-family="Helvetica,sans-Serif" font-size="10.00" fill="#000000">_command.hpp</text>
</a>
</g>
</g>
<!-- Node1 -->
<g id="node2" class="node">
<title>Node1</title>
<g id="a_node2"><a xlink:href="dji__error_8hpp.html" target="_top" xlink:title="All DJI OSDK OpenProtocol ACK Error Codes.">
<polygon fill="#ffffff" stroke="#000000" points="71,-56.5 71,-75.5 141,-75.5 141,-56.5 71,-56.5"/>
<text text-anchor="middle" x="106" y="-63.5" font-family="Helvetica,sans-Serif" font-size="10.00" fill="#000000">dji_error.hpp</text>
</a>
</g>
</g>
<!-- Node0&#45;&gt;Node1 -->
<g id="edge1" class="edge">
<title>Node0&#45;&gt;Node1</title>
<path fill="none" stroke="#191970" d="M135.3595,-112.2977C130.0023,-103.8498 123.2978,-93.2773 117.6487,-84.369"/>
<polygon fill="#191970" stroke="#191970" points="120.5556,-82.4176 112.2444,-75.8469 114.6441,-86.1664 120.5556,-82.4176"/>
</g>
<!-- Node5 -->
<g id="node6" class="node">
<title>Node5</title>
<g id="a_node6"><a xlink:title=" ">
<polygon fill="#ffffff" stroke="#bfbfbf" points="159.5,-56.5 159.5,-75.5 208.5,-75.5 208.5,-56.5 159.5,-56.5"/>
<text text-anchor="middle" x="184" y="-63.5" font-family="Helvetica,sans-Serif" font-size="10.00" fill="#000000">stdint.h</text>
</a>
</g>
</g>
<!-- Node0&#45;&gt;Node5 -->
<g id="edge5" class="edge">
<title>Node0&#45;&gt;Node5</title>
<path fill="none" stroke="#191970" d="M154.6405,-112.2977C159.9977,-103.8498 166.7022,-93.2773 172.3513,-84.369"/>
<polygon fill="#191970" stroke="#191970" points="175.3559,-86.1664 177.7556,-75.8469 169.4444,-82.4176 175.3559,-86.1664"/>
</g>
<!-- Node2 -->
<g id="node3" class="node">
<title>Node2</title>
<g id="a_node3"><a xlink:title=" ">
<polygon fill="#ffffff" stroke="#bfbfbf" points="0,-.5 0,-19.5 46,-19.5 46,-.5 0,-.5"/>
<text text-anchor="middle" x="23" y="-7.5" font-family="Helvetica,sans-Serif" font-size="10.00" fill="#000000">cstdint</text>
</a>
</g>
</g>
<!-- Node1&#45;&gt;Node2 -->
<g id="edge2" class="edge">
<title>Node1&#45;&gt;Node2</title>
<path fill="none" stroke="#191970" d="M91.5425,-56.2455C78.9268,-47.7337 60.4056,-35.2375 45.7955,-25.3801"/>
<polygon fill="#191970" stroke="#191970" points="47.5391,-22.3343 37.2918,-19.6427 43.6239,-28.1371 47.5391,-22.3343"/>
</g>
<!-- Node3 -->
<g id="node4" class="node">
<title>Node3</title>
<g id="a_node4"><a xlink:title=" ">
<polygon fill="#ffffff" stroke="#bfbfbf" points="64.5,-.5 64.5,-19.5 147.5,-19.5 147.5,-.5 64.5,-.5"/>
<text text-anchor="middle" x="106" y="-7.5" font-family="Helvetica,sans-Serif" font-size="10.00" fill="#000000">dji_macros.hpp</text>
</a>
</g>
</g>
<!-- Node1&#45;&gt;Node3 -->
<g id="edge3" class="edge">
<title>Node1&#45;&gt;Node3</title>
<path fill="none" stroke="#191970" d="M106,-56.2455C106,-48.9382 106,-38.6944 106,-29.7046"/>
<polygon fill="#191970" stroke="#191970" points="109.5001,-29.6426 106,-19.6427 102.5001,-29.6427 109.5001,-29.6426"/>
</g>
<!-- Node4 -->
<g id="node5" class="node">
<title>Node4</title>
<g id="a_node5"><a xlink:title=" ">
<polygon fill="#ffffff" stroke="#bfbfbf" points="165.5,-.5 165.5,-19.5 200.5,-19.5 200.5,-.5 165.5,-.5"/>
<text text-anchor="middle" x="183" y="-7.5" font-family="Helvetica,sans-Serif" font-size="10.00" fill="#000000">map</text>
</a>
</g>
</g>
<!-- Node1&#45;&gt;Node4 -->
<g id="edge4" class="edge">
<title>Node1&#45;&gt;Node4</title>
<path fill="none" stroke="#191970" d="M119.4124,-56.2455C131.0057,-47.814 147.9748,-35.4729 161.4678,-25.6598"/>
<polygon fill="#191970" stroke="#191970" points="163.7126,-28.355 169.7413,-19.6427 159.5953,-22.6938 163.7126,-28.355"/>
</g>
</g>
</svg>
