<?xml version="1.0" encoding="UTF-8" standalone="no"?>
<!DOCTYPE svg PUBLIC "-//W3C//DTD SVG 1.1//EN"
 "http://www.w3.org/Graphics/SVG/1.1/DTD/svg11.dtd">
<!-- Generated by graphviz version 2.40.1 (20161225.0304)
 -->
<!-- Title: osdk&#45;core/api/src/dji_flight_controller.cpp Pages: 1 -->
<svg width="469pt" height="498pt"
 viewBox="0.00 0.00 469.00 498.00" xmlns="http://www.w3.org/2000/svg" xmlns:xlink="http://www.w3.org/1999/xlink">
<g id="graph0" class="graph" transform="scale(1 1) rotate(0) translate(4 494)">
<title>osdk&#45;core/api/src/dji_flight_controller.cpp</title>
<polygon fill="#ffffff" stroke="transparent" points="-4,4 -4,-494 465,-494 465,4 -4,4"/>
<!-- Node0 -->
<g id="node1" class="node">
<title>Node0</title>
<g id="a_node1"><a xlink:title="Flight Controller API for DJI OSDK library.">
<polygon fill="#bfbfbf" stroke="#000000" points="49,-459.5 49,-489.5 156,-489.5 156,-459.5 49,-459.5"/>
<text text-anchor="start" x="57" y="-477.5" font-family="Helvetica,sans-Serif" font-size="10.00" fill="#000000">osdk&#45;core/api/src/dji</text>
<text text-anchor="middle" x="102.5" y="-466.5" font-family="Helvetica,sans-Serif" font-size="10.00" fill="#000000">_flight_controller.cpp</text>
</a>
</g>
</g>
<!-- Node1 -->
<g id="node2" class="node">
<title>Node1</title>
<g id="a_node2"><a xlink:href="dji__flight__controller_8hpp.html" target="_top" xlink:title="Implementation of flight controller.">
<polygon fill="#ffffff" stroke="#000000" points="100.5,-403.5 100.5,-422.5 216.5,-422.5 216.5,-403.5 100.5,-403.5"/>
<text text-anchor="middle" x="158.5" y="-410.5" font-family="Helvetica,sans-Serif" font-size="10.00" fill="#000000">dji_flight_controller.hpp</text>
</a>
</g>
</g>
<!-- Node0&#45;&gt;Node1 -->
<g id="edge1" class="edge">
<title>Node0&#45;&gt;Node1</title>
<path fill="none" stroke="#191970" d="M116.3427,-459.2977C124.359,-450.4941 134.4762,-439.3833 142.79,-430.2529"/>
<polygon fill="#191970" stroke="#191970" points="145.3888,-432.5974 149.5337,-422.8469 140.2131,-427.8845 145.3888,-432.5974"/>
</g>
<!-- Node19 -->
<g id="node20" class="node">
<title>Node19</title>
<g id="a_node20"><a xlink:href="dji__telemetry_8hpp.html" target="_top" xlink:title="Enumeration of all telemetry data types, structures and maps.">
<polygon fill="#ffffff" stroke="#000000" points="0,-342 0,-361 91,-361 91,-342 0,-342"/>
<text text-anchor="middle" x="45.5" y="-349" font-family="Helvetica,sans-Serif" font-size="10.00" fill="#000000">dji_telemetry.hpp</text>
</a>
</g>
</g>
<!-- Node0&#45;&gt;Node19 -->
<g id="edge29" class="edge">
<title>Node0&#45;&gt;Node19</title>
<path fill="none" stroke="#191970" d="M95.5107,-459.4178C85.1059,-436.9655 65.5564,-394.7796 54.2269,-370.3317"/>
<polygon fill="#191970" stroke="#191970" points="57.3055,-368.6507 49.9253,-361.0493 50.9543,-371.594 57.3055,-368.6507"/>
</g>
<!-- Node2 -->
<g id="node3" class="node">
<title>Node2</title>
<g id="a_node3"><a xlink:href="dji__flight__actions__module_8hpp.html" target="_top" xlink:title="Implementation of flight actions module.">
<polygon fill="#ffffff" stroke="#000000" points="336,-336.5 336,-366.5 425,-366.5 425,-336.5 336,-336.5"/>
<text text-anchor="start" x="344" y="-354.5" font-family="Helvetica,sans-Serif" font-size="10.00" fill="#000000">dji_flight_actions</text>
<text text-anchor="middle" x="380.5" y="-343.5" font-family="Helvetica,sans-Serif" font-size="10.00" fill="#000000">_module.hpp</text>
</a>
</g>
</g>
<!-- Node1&#45;&gt;Node2 -->
<g id="edge2" class="edge">
<title>Node1&#45;&gt;Node2</title>
<path fill="none" stroke="#191970" d="M193.9318,-403.4338C225.9624,-394.7558 274.6596,-381.4881 326.0911,-367.0976"/>
<polygon fill="#191970" stroke="#191970" points="327.0384,-370.4671 335.7229,-364.3984 325.1494,-363.7268 327.0384,-370.4671"/>
</g>
<!-- Node17 -->
<g id="node18" class="node">
<title>Node17</title>
<g id="a_node18"><a xlink:href="dji__flight__assistant__module_8hpp.html" target="_top" xlink:title="Implementation of flight assistant module.">
<polygon fill="#ffffff" stroke="#000000" points="109.5,-336.5 109.5,-366.5 207.5,-366.5 207.5,-336.5 109.5,-336.5"/>
<text text-anchor="start" x="117.5" y="-354.5" font-family="Helvetica,sans-Serif" font-size="10.00" fill="#000000">dji_flight_assistant</text>
<text text-anchor="middle" x="158.5" y="-343.5" font-family="Helvetica,sans-Serif" font-size="10.00" fill="#000000">_module.hpp</text>
</a>
</g>
</g>
<!-- Node1&#45;&gt;Node17 -->
<g id="edge23" class="edge">
<title>Node1&#45;&gt;Node17</title>
<path fill="none" stroke="#191970" d="M158.5,-403.3906C158.5,-396.2234 158.5,-386.0862 158.5,-376.671"/>
<polygon fill="#191970" stroke="#191970" points="162.0001,-376.5446 158.5,-366.5446 155.0001,-376.5446 162.0001,-376.5446"/>
</g>
<!-- Node18 -->
<g id="node19" class="node">
<title>Node18</title>
<g id="a_node19"><a xlink:href="dji__flight__joystick__module_8hpp.html" target="_top" xlink:title="Implementation of flight actions module.">
<polygon fill="#ffffff" stroke="#000000" points="225.5,-336.5 225.5,-366.5 317.5,-366.5 317.5,-336.5 225.5,-336.5"/>
<text text-anchor="start" x="233.5" y="-354.5" font-family="Helvetica,sans-Serif" font-size="10.00" fill="#000000">dji_flight_joystick</text>
<text text-anchor="middle" x="271.5" y="-343.5" font-family="Helvetica,sans-Serif" font-size="10.00" fill="#000000">_module.hpp</text>
</a>
</g>
</g>
<!-- Node1&#45;&gt;Node18 -->
<g id="edge25" class="edge">
<title>Node1&#45;&gt;Node18</title>
<path fill="none" stroke="#191970" d="M176.1563,-403.3906C191.8034,-394.8747 215.1544,-382.166 234.8304,-371.4573"/>
<polygon fill="#191970" stroke="#191970" points="236.7468,-374.3992 243.8571,-366.5446 233.4005,-368.2508 236.7468,-374.3992"/>
</g>
<!-- Node1&#45;&gt;Node19 -->
<g id="edge27" class="edge">
<title>Node1&#45;&gt;Node19</title>
<path fill="none" stroke="#191970" d="M140.8438,-403.3906C122.3514,-393.3262 93.099,-377.4057 71.8692,-365.8514"/>
<polygon fill="#191970" stroke="#191970" points="73.4888,-362.7481 63.0323,-361.0419 70.1425,-368.8965 73.4888,-362.7481"/>
</g>
<!-- Node3 -->
<g id="node4" class="node">
<title>Node3</title>
<g id="a_node4"><a xlink:href="dji__vehicle__callback_8hpp.html" target="_top" xlink:title="Type definition for new Vehicle&#45;style callbacks.">
<polygon fill="#ffffff" stroke="#000000" points="210.5,-280.5 210.5,-299.5 332.5,-299.5 332.5,-280.5 210.5,-280.5"/>
<text text-anchor="middle" x="271.5" y="-287.5" font-family="Helvetica,sans-Serif" font-size="10.00" fill="#000000">dji_vehicle_callback.hpp</text>
</a>
</g>
</g>
<!-- Node2&#45;&gt;Node3 -->
<g id="edge3" class="edge">
<title>Node2&#45;&gt;Node3</title>
<path fill="none" stroke="#191970" d="M353.8356,-336.4554C336.6059,-326.734 314.3025,-314.15 297.2554,-304.5317"/>
<polygon fill="#191970" stroke="#191970" points="298.8204,-301.3961 288.3911,-299.5303 295.3806,-307.4926 298.8204,-301.3961"/>
</g>
<!-- Node4 -->
<g id="node5" class="node">
<title>Node4</title>
<g id="a_node5"><a xlink:href="dji__ack_8hpp.html" target="_top" xlink:title="All DJI OSDK ACK parsing.">
<polygon fill="#ffffff" stroke="#000000" points="238.5,-224.5 238.5,-243.5 304.5,-243.5 304.5,-224.5 238.5,-224.5"/>
<text text-anchor="middle" x="271.5" y="-231.5" font-family="Helvetica,sans-Serif" font-size="10.00" fill="#000000">dji_ack.hpp</text>
</a>
</g>
</g>
<!-- Node3&#45;&gt;Node4 -->
<g id="edge4" class="edge">
<title>Node3&#45;&gt;Node4</title>
<path fill="none" stroke="#191970" d="M271.5,-280.2455C271.5,-272.9382 271.5,-262.6944 271.5,-253.7046"/>
<polygon fill="#191970" stroke="#191970" points="275.0001,-253.6426 271.5,-243.6427 268.0001,-253.6427 275.0001,-253.6426"/>
</g>
<!-- Node13 -->
<g id="node14" class="node">
<title>Node13</title>
<g id="a_node14"><a xlink:href="dji__type_8hpp.html" target="_top" xlink:title="Data type and Data Structure definitions for use throughout DJI OSDK.">
<polygon fill="#ffffff" stroke="#000000" points="87,-112.5 87,-131.5 156,-131.5 156,-112.5 87,-112.5"/>
<text text-anchor="middle" x="121.5" y="-119.5" font-family="Helvetica,sans-Serif" font-size="10.00" fill="#000000">dji_type.hpp</text>
</a>
</g>
</g>
<!-- Node3&#45;&gt;Node13 -->
<g id="edge22" class="edge">
<title>Node3&#45;&gt;Node13</title>
<path fill="none" stroke="#191970" d="M246.0136,-280.4946C211.8063,-266.2274 152.2538,-235.7441 125.5,-188 117.6964,-174.0739 117.1905,-155.8022 118.3566,-142.0153"/>
<polygon fill="#191970" stroke="#191970" points="121.8801,-142.031 119.6059,-131.6831 114.9307,-141.1906 121.8801,-142.031"/>
</g>
<!-- Node16 -->
<g id="node17" class="node">
<title>Node16</title>
<g id="a_node17"><a xlink:title=" ">
<polygon fill="#ffffff" stroke="#bfbfbf" points="323,-224.5 323,-243.5 386,-243.5 386,-224.5 323,-224.5"/>
<text text-anchor="middle" x="354.5" y="-231.5" font-family="Helvetica,sans-Serif" font-size="10.00" fill="#000000">dji_log.hpp</text>
</a>
</g>
</g>
<!-- Node3&#45;&gt;Node16 -->
<g id="edge21" class="edge">
<title>Node3&#45;&gt;Node16</title>
<path fill="none" stroke="#191970" d="M285.9575,-280.2455C298.5732,-271.7337 317.0944,-259.2375 331.7045,-249.3801"/>
<polygon fill="#191970" stroke="#191970" points="333.8761,-252.1371 340.2082,-243.6427 329.9609,-246.3343 333.8761,-252.1371"/>
</g>
<!-- Node5 -->
<g id="node6" class="node">
<title>Node5</title>
<g id="a_node6"><a xlink:href="dji__command_8hpp.html" target="_top" xlink:title="All DJI OSDK OpenProtocol Command IDs.">
<polygon fill="#ffffff" stroke="#000000" points="300,-112.5 300,-131.5 393,-131.5 393,-112.5 300,-112.5"/>
<text text-anchor="middle" x="346.5" y="-119.5" font-family="Helvetica,sans-Serif" font-size="10.00" fill="#000000">dji_command.hpp</text>
</a>
</g>
</g>
<!-- Node4&#45;&gt;Node5 -->
<g id="edge5" class="edge">
<title>Node4&#45;&gt;Node5</title>
<path fill="none" stroke="#191970" d="M299.2262,-224.3304C324.4257,-214.9134 358.8111,-200.2659 366.5,-188 375.6969,-173.3285 368.1192,-154.1696 359.785,-140.2761"/>
<polygon fill="#191970" stroke="#191970" points="362.5103,-138.0503 354.0911,-131.6185 356.6618,-141.8968 362.5103,-138.0503"/>
</g>
<!-- Node8 -->
<g id="node9" class="node">
<title>Node8</title>
<g id="a_node9"><a xlink:title=" ">
<polygon fill="#ffffff" stroke="#bfbfbf" points="426,-.5 426,-19.5 461,-19.5 461,-.5 426,-.5"/>
<text text-anchor="middle" x="443.5" y="-7.5" font-family="Helvetica,sans-Serif" font-size="10.00" fill="#000000">map</text>
</a>
</g>
</g>
<!-- Node4&#45;&gt;Node8 -->
<g id="edge20" class="edge">
<title>Node4&#45;&gt;Node8</title>
<path fill="none" stroke="#191970" d="M301.998,-224.4181C330.6952,-214.875 370.9389,-199.9622 382.5,-188 425.928,-143.0652 438.5142,-65.8928 442.1022,-29.7531"/>
<polygon fill="#191970" stroke="#191970" points="445.6096,-29.8171 442.9787,-19.5541 438.6353,-29.2177 445.6096,-29.8171"/>
</g>
<!-- Node11 -->
<g id="node12" class="node">
<title>Node11</title>
<g id="a_node12"><a xlink:href="dji__mission__type_8hpp.html" target="_top" xlink:title="Mission related data struct for DJI OSDK library.">
<polygon fill="#ffffff" stroke="#000000" points="149.5,-168.5 149.5,-187.5 257.5,-187.5 257.5,-168.5 149.5,-168.5"/>
<text text-anchor="middle" x="203.5" y="-175.5" font-family="Helvetica,sans-Serif" font-size="10.00" fill="#000000">dji_mission_type.hpp</text>
</a>
</g>
</g>
<!-- Node4&#45;&gt;Node11 -->
<g id="edge11" class="edge">
<title>Node4&#45;&gt;Node11</title>
<path fill="none" stroke="#191970" d="M259.6553,-224.2455C249.612,-215.9746 235.0005,-203.9416 223.1996,-194.2232"/>
<polygon fill="#191970" stroke="#191970" points="225.1533,-191.298 215.209,-187.6427 220.7033,-196.7015 225.1533,-191.298"/>
</g>
<!-- Node4&#45;&gt;Node13 -->
<g id="edge16" class="edge">
<title>Node4&#45;&gt;Node13</title>
<path fill="none" stroke="#191970" d="M238.3948,-230.855C208.763,-226.2989 166.1499,-215.166 140.5,-188 128.7583,-175.5643 124.2096,-156.3441 122.4795,-141.8463"/>
<polygon fill="#191970" stroke="#191970" points="125.9661,-141.5391 121.6335,-131.8707 118.9912,-142.1307 125.9661,-141.5391"/>
</g>
<!-- Node15 -->
<g id="node16" class="node">
<title>Node15</title>
<g id="a_node16"><a xlink:href="dji__version_8hpp.html" target="_top" xlink:title="Drone/SDK Version definition for DJI onboardSDK library.">
<polygon fill="#ffffff" stroke="#000000" points="275.5,-168.5 275.5,-187.5 357.5,-187.5 357.5,-168.5 275.5,-168.5"/>
<text text-anchor="middle" x="316.5" y="-175.5" font-family="Helvetica,sans-Serif" font-size="10.00" fill="#000000">dji_version.hpp</text>
</a>
</g>
</g>
<!-- Node4&#45;&gt;Node15 -->
<g id="edge17" class="edge">
<title>Node4&#45;&gt;Node15</title>
<path fill="none" stroke="#191970" d="M279.3384,-224.2455C285.662,-216.3761 294.7224,-205.101 302.3136,-195.6542"/>
<polygon fill="#191970" stroke="#191970" points="305.2158,-197.6302 308.7514,-187.6427 299.7592,-193.2454 305.2158,-197.6302"/>
</g>
<!-- Node6 -->
<g id="node7" class="node">
<title>Node6</title>
<g id="a_node7"><a xlink:href="dji__error_8hpp.html" target="_top" xlink:title="All DJI OSDK OpenProtocol ACK Error Codes.">
<polygon fill="#ffffff" stroke="#000000" points="345.5,-56.5 345.5,-75.5 415.5,-75.5 415.5,-56.5 345.5,-56.5"/>
<text text-anchor="middle" x="380.5" y="-63.5" font-family="Helvetica,sans-Serif" font-size="10.00" fill="#000000">dji_error.hpp</text>
</a>
</g>
</g>
<!-- Node5&#45;&gt;Node6 -->
<g id="edge6" class="edge">
<title>Node5&#45;&gt;Node6</title>
<path fill="none" stroke="#191970" d="M352.4223,-112.2455C357.1027,-104.5367 363.7673,-93.5598 369.4289,-84.2348"/>
<polygon fill="#191970" stroke="#191970" points="372.4475,-86.007 374.6455,-75.6427 366.4639,-82.3741 372.4475,-86.007"/>
</g>
<!-- Node10 -->
<g id="node11" class="node">
<title>Node10</title>
<g id="a_node11"><a xlink:title=" ">
<polygon fill="#ffffff" stroke="#bfbfbf" points="278,-56.5 278,-75.5 327,-75.5 327,-56.5 278,-56.5"/>
<text text-anchor="middle" x="302.5" y="-63.5" font-family="Helvetica,sans-Serif" font-size="10.00" fill="#000000">stdint.h</text>
</a>
</g>
</g>
<!-- Node5&#45;&gt;Node10 -->
<g id="edge10" class="edge">
<title>Node5&#45;&gt;Node10</title>
<path fill="none" stroke="#191970" d="M338.8358,-112.2455C332.6527,-104.3761 323.7937,-93.101 316.3711,-83.6542"/>
<polygon fill="#191970" stroke="#191970" points="319.0068,-81.3435 310.0764,-75.6427 313.5025,-85.6683 319.0068,-81.3435"/>
</g>
<!-- Node7 -->
<g id="node8" class="node">
<title>Node7</title>
<g id="a_node8"><a xlink:title=" ">
<polygon fill="#ffffff" stroke="#bfbfbf" points="243.5,-.5 243.5,-19.5 289.5,-19.5 289.5,-.5 243.5,-.5"/>
<text text-anchor="middle" x="266.5" y="-7.5" font-family="Helvetica,sans-Serif" font-size="10.00" fill="#000000">cstdint</text>
</a>
</g>
</g>
<!-- Node6&#45;&gt;Node7 -->
<g id="edge7" class="edge">
<title>Node6&#45;&gt;Node7</title>
<path fill="none" stroke="#191970" d="M360.9027,-56.3733C342.7669,-47.4644 315.5865,-34.1127 295.0413,-24.0203"/>
<polygon fill="#191970" stroke="#191970" points="296.3603,-20.7688 285.8416,-19.5011 293.2739,-27.0517 296.3603,-20.7688"/>
</g>
<!-- Node6&#45;&gt;Node8 -->
<g id="edge8" class="edge">
<title>Node6&#45;&gt;Node8</title>
<path fill="none" stroke="#191970" d="M391.4738,-56.2455C400.6882,-48.0549 414.0532,-36.1749 424.9297,-26.5069"/>
<polygon fill="#191970" stroke="#191970" points="427.5032,-28.9023 432.652,-19.6427 422.8526,-23.6704 427.5032,-28.9023"/>
</g>
<!-- Node9 -->
<g id="node10" class="node">
<title>Node9</title>
<g id="a_node10"><a xlink:title=" ">
<polygon fill="#ffffff" stroke="#bfbfbf" points="325,-.5 325,-19.5 408,-19.5 408,-.5 325,-.5"/>
<text text-anchor="middle" x="366.5" y="-7.5" font-family="Helvetica,sans-Serif" font-size="10.00" fill="#000000">osdk_typedef.h</text>
</a>
</g>
</g>
<!-- Node6&#45;&gt;Node9 -->
<g id="edge9" class="edge">
<title>Node6&#45;&gt;Node9</title>
<path fill="none" stroke="#191970" d="M378.0614,-56.2455C376.2145,-48.8579 373.6172,-38.4689 371.3522,-29.4087"/>
<polygon fill="#191970" stroke="#191970" points="374.7316,-28.4952 368.9107,-19.6427 367.9406,-30.193 374.7316,-28.4952"/>
</g>
<!-- Node12 -->
<g id="node13" class="node">
<title>Node12</title>
<g id="a_node13"><a xlink:title=" ">
<polygon fill="#ffffff" stroke="#bfbfbf" points="177.5,-112.5 177.5,-131.5 221.5,-131.5 221.5,-112.5 177.5,-112.5"/>
<text text-anchor="middle" x="199.5" y="-119.5" font-family="Helvetica,sans-Serif" font-size="10.00" fill="#000000">vector</text>
</a>
</g>
</g>
<!-- Node11&#45;&gt;Node12 -->
<g id="edge12" class="edge">
<title>Node11&#45;&gt;Node12</title>
<path fill="none" stroke="#191970" d="M202.8033,-168.2455C202.2813,-160.9382 201.5496,-150.6944 200.9075,-141.7046"/>
<polygon fill="#191970" stroke="#191970" points="204.3924,-141.3679 200.1888,-131.6427 197.4102,-141.8667 204.3924,-141.3679"/>
</g>
<!-- Node11&#45;&gt;Node13 -->
<g id="edge13" class="edge">
<title>Node11&#45;&gt;Node13</title>
<path fill="none" stroke="#191970" d="M189.2167,-168.2455C176.753,-159.7337 158.4549,-147.2375 144.0208,-137.3801"/>
<polygon fill="#191970" stroke="#191970" points="145.8515,-134.392 135.6196,-131.6427 141.9038,-140.1726 145.8515,-134.392"/>
</g>
<!-- Node13&#45;&gt;Node10 -->
<g id="edge15" class="edge">
<title>Node13&#45;&gt;Node10</title>
<path fill="none" stroke="#191970" d="M152.615,-112.3733C184.7664,-102.4259 234.8213,-86.9393 268.1237,-76.6358"/>
<polygon fill="#191970" stroke="#191970" points="269.364,-79.9158 277.8827,-73.6164 267.295,-73.2285 269.364,-79.9158"/>
</g>
<!-- Node14 -->
<g id="node15" class="node">
<title>Node14</title>
<g id="a_node15"><a xlink:title=" ">
<polygon fill="#ffffff" stroke="#bfbfbf" points="100,-56.5 100,-75.5 143,-75.5 143,-56.5 100,-56.5"/>
<text text-anchor="middle" x="121.5" y="-63.5" font-family="Helvetica,sans-Serif" font-size="10.00" fill="#000000">cstdio</text>
</a>
</g>
</g>
<!-- Node13&#45;&gt;Node14 -->
<g id="edge14" class="edge">
<title>Node13&#45;&gt;Node14</title>
<path fill="none" stroke="#191970" d="M121.5,-112.2455C121.5,-104.9382 121.5,-94.6944 121.5,-85.7046"/>
<polygon fill="#191970" stroke="#191970" points="125.0001,-85.6426 121.5,-75.6427 118.0001,-85.6427 125.0001,-85.6426"/>
</g>
<!-- Node15&#45;&gt;Node5 -->
<g id="edge18" class="edge">
<title>Node15&#45;&gt;Node5</title>
<path fill="none" stroke="#191970" d="M321.7256,-168.2455C325.8123,-160.617 331.6135,-149.7881 336.575,-140.5267"/>
<polygon fill="#191970" stroke="#191970" points="339.6972,-142.1103 341.3343,-131.6427 333.5268,-138.8047 339.6972,-142.1103"/>
</g>
<!-- Node15&#45;&gt;Node7 -->
<g id="edge19" class="edge">
<title>Node15&#45;&gt;Node7</title>
<path fill="none" stroke="#191970" d="M310.2779,-168.3817C299.3693,-150.8685 277.2182,-112.233 269.5,-76 266.247,-60.7289 265.6053,-43.037 265.7175,-29.8167"/>
<polygon fill="#191970" stroke="#191970" points="269.2235,-29.6039 265.9636,-19.5231 262.2255,-29.4366 269.2235,-29.6039"/>
</g>
<!-- Node17&#45;&gt;Node3 -->
<g id="edge24" class="edge">
<title>Node17&#45;&gt;Node3</title>
<path fill="none" stroke="#191970" d="M186.1429,-336.4554C204.0049,-326.734 227.1268,-314.15 244.7995,-304.5317"/>
<polygon fill="#191970" stroke="#191970" points="246.8787,-307.3849 253.989,-299.5303 243.5325,-301.2365 246.8787,-307.3849"/>
</g>
<!-- Node18&#45;&gt;Node3 -->
<g id="edge26" class="edge">
<title>Node18&#45;&gt;Node3</title>
<path fill="none" stroke="#191970" d="M271.5,-336.2977C271.5,-328.3834 271.5,-318.6043 271.5,-310.0759"/>
<polygon fill="#191970" stroke="#191970" points="275.0001,-309.8469 271.5,-299.8469 268.0001,-309.847 275.0001,-309.8469"/>
</g>
<!-- Node19&#45;&gt;Node13 -->
<g id="edge28" class="edge">
<title>Node19&#45;&gt;Node13</title>
<path fill="none" stroke="#191970" d="M48.6689,-341.9309C60.1365,-307.3017 99.613,-188.0929 115.1477,-141.1821"/>
<polygon fill="#191970" stroke="#191970" points="118.4964,-142.2033 118.3176,-131.61 111.8513,-140.0027 118.4964,-142.2033"/>
</g>
</g>
</svg>
