<?xml version="1.0" encoding="UTF-8" standalone="no"?>
<!DOCTYPE svg PUBLIC "-//W3C//DTD SVG 1.1//EN"
 "http://www.w3.org/Graphics/SVG/1.1/DTD/svg11.dtd">
<!-- Generated by graphviz version 2.38.0 (20140413.2041)
 -->
<!-- Title: osdk&#45;core/api/src/dji_mfio.cpp Pages: 1 -->
<!--zoomable 431 -->
<svg id="main" version="1.1" xmlns="http://www.w3.org/2000/svg" xmlns:xlink="http://www.w3.org/1999/xlink" xml:space="preserve" onload="init(evt)">
<style type="text/css"><![CDATA[
.edge:hover path { stroke: red; }
.edge:hover polygon { stroke: red; fill: red; }
]]></style>
<script type="text/javascript"><![CDATA[
var edges = document.getElementsByTagName('g');
if (edges && edges.length) {
  for (var i=0;i<edges.length;i++) {
    if (edges[i].id.substr(0,4)=='edge') {
      edges[i].setAttribute('class','edge');
    }
  }
}
]]></script>
        <defs>
                <circle id="rim" cx="0" cy="0" r="7"/>
                <circle id="rim2" cx="0" cy="0" r="3.5"/>
                <g id="zoomPlus">
                        <use xlink:href="#rim" fill="#404040">
                                <set attributeName="fill" to="#808080" begin="zoomplus.mouseover" end="zoomplus.mouseout"/>
                        </use>
                        <path d="M-4,0h8M0,-4v8" fill="none" stroke="white" stroke-width="1.5" pointer-events="none"/>
                </g>
                <g id="zoomMin">
                        <use xlink:href="#rim" fill="#404040">
                                <set attributeName="fill" to="#808080" begin="zoomminus.mouseover" end="zoomminus.mouseout"/>
                        </use>
                        <path d="M-4,0h8" fill="none" stroke="white" stroke-width="1.5" pointer-events="none"/>
                </g>
                <g id="dirArrow">
                        <path fill="none" stroke="white" stroke-width="1.5" d="M0,-3.0v7 M-2.5,-0.5L0,-3.0L2.5,-0.5"/>
                </g>
               <g id="resetDef">
                       <use xlink:href="#rim2" fill="#404040">
                               <set attributeName="fill" to="#808080" begin="reset.mouseover" end="reset.mouseout"/>
                       </use>
               </g>
        </defs>

<script type="text/javascript">
var viewWidth = 1870;
var viewHeight = 431;
var sectionId = 'dynsection-0';
</script>
<script xlink:href="svgpan.js"/>
<svg id="graph" class="graph">
<g id="viewport">
<title>osdk&#45;core/api/src/dji_mfio.cpp</title>
<polygon fill="white" stroke="none" points="-4,4 -4,-427 1865.5,-427 1865.5,4 -4,4"/>
<!-- Node1 -->
<g id="node1" class="node"><title>Node1</title>
<polygon fill="#bfbfbf" stroke="black" points="1162,-392.5 1162,-422.5 1266,-422.5 1266,-392.5 1162,-392.5"/>
<text text-anchor="start" x="1170" y="-410.5" font-family="Helvetica,sans-Serif" font-size="10.00">osdk&#45;core/api/src/dji</text>
<text text-anchor="middle" x="1214" y="-399.5" font-family="Helvetica,sans-Serif" font-size="10.00">_mfio.cpp</text>
</g>
<!-- Node2 -->
<g id="node2" class="node"><title>Node2</title>
<g id="a_node2"><a xlink:href="dji__mfio_8hpp.html" target="_top" xlink:title="MFIO API for DJI OSDK library. ">
<polygon fill="white" stroke="black" points="1792.5,-280.5 1792.5,-299.5 1861.5,-299.5 1861.5,-280.5 1792.5,-280.5"/>
<text text-anchor="middle" x="1827" y="-287.5" font-family="Helvetica,sans-Serif" font-size="10.00">dji_mfio.hpp</text>
</a>
</g>
</g>
<!-- Node1&#45;&gt;Node2 -->
<g id="edge1" class="edge"><title>Node1&#45;&gt;Node2</title>
<path fill="none" stroke="midnightblue" d="M1266.26,-396.653C1384.75,-374.328 1672.04,-320.196 1782.61,-299.364"/>
<polygon fill="midnightblue" stroke="midnightblue" points="1783.26,-302.803 1792.44,-297.512 1781.96,-295.924 1783.26,-302.803"/>
</g>
<!-- Node5 -->
<g id="node5" class="node"><title>Node5</title>
<g id="a_node5"><a xlink:href="dji__vehicle_8hpp.html" target="_top" xlink:title="Vehicle API for DJI onboardSDK library. ">
<polygon fill="white" stroke="black" points="946.5,-336.5 946.5,-355.5 1027.5,-355.5 1027.5,-336.5 946.5,-336.5"/>
<text text-anchor="middle" x="987" y="-343.5" font-family="Helvetica,sans-Serif" font-size="10.00">dji_vehicle.hpp</text>
</a>
</g>
</g>
<!-- Node1&#45;&gt;Node5 -->
<g id="edge4" class="edge"><title>Node1&#45;&gt;Node5</title>
<path fill="none" stroke="midnightblue" d="M1161.92,-392.849C1121.84,-382.344 1067.13,-368.004 1029.63,-358.175"/>
<polygon fill="midnightblue" stroke="midnightblue" points="1030.1,-354.679 1019.54,-355.529 1028.33,-361.45 1030.1,-354.679"/>
</g>
<!-- Node3 -->
<g id="node3" class="node"><title>Node3</title>
<g id="a_node3"><a xlink:href="dji__vehicle__callback_8hpp.html" target="_top" xlink:title="Type definition for new Vehicle&#45;style callbacks. ">
<polygon fill="white" stroke="black" points="1239,-112.5 1239,-131.5 1361,-131.5 1361,-112.5 1239,-112.5"/>
<text text-anchor="middle" x="1300" y="-119.5" font-family="Helvetica,sans-Serif" font-size="10.00">dji_vehicle_callback.hpp</text>
</a>
</g>
</g>
<!-- Node2&#45;&gt;Node3 -->
<g id="edge2" class="edge"><title>Node2&#45;&gt;Node3</title>
<path fill="none" stroke="midnightblue" d="M1819.79,-280.283C1808.08,-266.624 1783.66,-240.079 1758,-224 1636.84,-148.078 1466.4,-128.79 1371.3,-124.163"/>
<polygon fill="midnightblue" stroke="midnightblue" points="1371.35,-120.662 1361.21,-123.714 1371.04,-127.655 1371.35,-120.662"/>
</g>
<!-- Node4 -->
<g id="node4" class="node"><title>Node4</title>
<polygon fill="white" stroke="#bfbfbf" points="1004.5,-56.5 1004.5,-75.5 1115.5,-75.5 1115.5,-56.5 1004.5,-56.5"/>
<text text-anchor="middle" x="1060" y="-63.5" font-family="Helvetica,sans-Serif" font-size="10.00">dji_open_protocol.hpp</text>
</g>
<!-- Node3&#45;&gt;Node4 -->
<g id="edge3" class="edge"><title>Node3&#45;&gt;Node4</title>
<path fill="none" stroke="midnightblue" d="M1261.97,-112.444C1220.19,-103.043 1153.02,-87.9291 1107.73,-77.7393"/>
<polygon fill="midnightblue" stroke="midnightblue" points="1108.38,-74.297 1097.85,-75.5164 1106.84,-81.1263 1108.38,-74.297"/>
</g>
<!-- Node5&#45;&gt;Node2 -->
<g id="edge42" class="edge"><title>Node5&#45;&gt;Node2</title>
<path fill="none" stroke="midnightblue" d="M1027.91,-344.471C1145.15,-342.57 1492.22,-334.238 1778,-300 1779.3,-299.844 1780.63,-299.674 1781.96,-299.494"/>
<polygon fill="midnightblue" stroke="midnightblue" points="1782.92,-302.888 1792.28,-297.93 1781.87,-295.967 1782.92,-302.888"/>
</g>
<!-- Node5&#45;&gt;Node3 -->
<g id="edge67" class="edge"><title>Node5&#45;&gt;Node3</title>
<path fill="none" stroke="midnightblue" d="M1027.79,-343.588C1127.16,-339.73 1375.41,-327.416 1400,-300 1446.86,-247.753 1360.58,-169.876 1319.73,-137.711"/>
<polygon fill="midnightblue" stroke="midnightblue" points="1321.82,-134.904 1311.76,-131.567 1317.54,-140.446 1321.82,-134.904"/>
</g>
<!-- Node5&#45;&gt;Node4 -->
<g id="edge58" class="edge"><title>Node5&#45;&gt;Node4</title>
<path fill="none" stroke="midnightblue" d="M1004.82,-336.475C1018.4,-328.932 1036.22,-316.551 1045,-300 1082.84,-228.641 1070.86,-127.202 1063.69,-85.7447"/>
<polygon fill="midnightblue" stroke="midnightblue" points="1067.1,-84.9165 1061.84,-75.7171 1060.21,-86.186 1067.1,-84.9165"/>
</g>
<!-- Node6 -->
<g id="node6" class="node"><title>Node6</title>
<polygon fill="white" stroke="#bfbfbf" points="0,-112.5 0,-131.5 46,-131.5 46,-112.5 0,-112.5"/>
<text text-anchor="middle" x="23" y="-119.5" font-family="Helvetica,sans-Serif" font-size="10.00">cstdint</text>
</g>
<!-- Node5&#45;&gt;Node6 -->
<g id="edge5" class="edge"><title>Node5&#45;&gt;Node6</title>
<path fill="none" stroke="midnightblue" d="M946.328,-345.015C781.05,-344.8 164.924,-341.218 89,-300 35.0114,-270.69 26.9196,-246.445 8,-188 2.93403,-172.35 8.10656,-154.058 13.7161,-140.873"/>
<polygon fill="midnightblue" stroke="midnightblue" points="17.0174,-142.078 18.1213,-131.541 10.6873,-139.09 17.0174,-142.078"/>
</g>
<!-- Node7 -->
<g id="node7" class="node"><title>Node7</title>
<g id="a_node7"><a xlink:href="dji__broadcast_8hpp.html" target="_top" xlink:title="Broadcast Telemetry API for DJI onboardSDK library. ">
<polygon fill="white" stroke="black" points="862.5,-224.5 862.5,-243.5 955.5,-243.5 955.5,-224.5 862.5,-224.5"/>
<text text-anchor="middle" x="909" y="-231.5" font-family="Helvetica,sans-Serif" font-size="10.00">dji_broadcast.hpp</text>
</a>
</g>
</g>
<!-- Node5&#45;&gt;Node7 -->
<g id="edge6" class="edge"><title>Node5&#45;&gt;Node7</title>
<path fill="none" stroke="midnightblue" d="M946.422,-338.898C905.01,-331.744 844.896,-318.471 831,-300 814.695,-278.327 846.164,-259.226 873.871,-247.435"/>
<polygon fill="midnightblue" stroke="midnightblue" points="875.467,-250.565 883.43,-243.577 872.847,-244.074 875.467,-250.565"/>
</g>
<!-- Node9 -->
<g id="node9" class="node"><title>Node9</title>
<g id="a_node9"><a xlink:href="dji__type_8hpp.html" target="_top" xlink:title="Data type and Data Structure definitions for use throughout DJI OSDK. ">
<polygon fill="white" stroke="black" points="487.5,-112.5 487.5,-131.5 556.5,-131.5 556.5,-112.5 487.5,-112.5"/>
<text text-anchor="middle" x="522" y="-119.5" font-family="Helvetica,sans-Serif" font-size="10.00">dji_type.hpp</text>
</a>
</g>
</g>
<!-- Node5&#45;&gt;Node9 -->
<g id="edge66" class="edge"><title>Node5&#45;&gt;Node9</title>
<path fill="none" stroke="midnightblue" d="M946.195,-344.946C820.481,-344.357 445.355,-339.296 409,-300 368.272,-255.978 397.046,-212.725 437,-168 450.019,-153.427 468.898,-142.774 485.559,-135.502"/>
<polygon fill="midnightblue" stroke="midnightblue" points="487.129,-138.641 495.052,-131.607 484.472,-132.165 487.129,-138.641"/>
</g>
<!-- Node12 -->
<g id="node12" class="node"><title>Node12</title>
<g id="a_node12"><a xlink:href="dji__camera_8hpp.html" target="_top" xlink:title="Camera/Gimbal API for DJI onboardSDK library. ">
<polygon fill="white" stroke="black" points="155.5,-168.5 155.5,-187.5 238.5,-187.5 238.5,-168.5 155.5,-168.5"/>
<text text-anchor="middle" x="197" y="-175.5" font-family="Helvetica,sans-Serif" font-size="10.00">dji_camera.hpp</text>
</a>
</g>
</g>
<!-- Node5&#45;&gt;Node12 -->
<g id="edge12" class="edge"><title>Node5&#45;&gt;Node12</title>
<path fill="none" stroke="midnightblue" d="M946.465,-343.81C811.66,-339.636 383.71,-324.568 327,-300 274.383,-277.205 229.607,-223.671 209.048,-196.09"/>
<polygon fill="midnightblue" stroke="midnightblue" points="211.741,-193.842 203.028,-187.813 206.08,-197.959 211.741,-193.842"/>
</g>
<!-- Node13 -->
<g id="node13" class="node"><title>Node13</title>
<g id="a_node13"><a xlink:href="dji__command_8hpp.html" target="_top" xlink:title="All DJI OSDK OpenProtocol Command IDs. ">
<polygon fill="white" stroke="black" points="249.5,-112.5 249.5,-131.5 342.5,-131.5 342.5,-112.5 249.5,-112.5"/>
<text text-anchor="middle" x="296" y="-119.5" font-family="Helvetica,sans-Serif" font-size="10.00">dji_command.hpp</text>
</a>
</g>
</g>
<!-- Node5&#45;&gt;Node13 -->
<g id="edge19" class="edge"><title>Node5&#45;&gt;Node13</title>
<path fill="none" stroke="midnightblue" d="M946.277,-345.464C816.183,-346.465 412.063,-345.725 291,-300 209.473,-269.208 93.9784,-237.919 146,-168 167.4,-139.238 206.55,-128.166 239.488,-124.192"/>
<polygon fill="midnightblue" stroke="midnightblue" points="239.89,-127.669 249.484,-123.175 239.181,-120.705 239.89,-127.669"/>
</g>
<!-- Node15 -->
<g id="node15" class="node"><title>Node15</title>
<polygon fill="white" stroke="#bfbfbf" points="526,-280.5 526,-299.5 638,-299.5 638,-280.5 526,-280.5"/>
<text text-anchor="middle" x="582" y="-287.5" font-family="Helvetica,sans-Serif" font-size="10.00">dji_circular_buffer.hpp</text>
</g>
<!-- Node5&#45;&gt;Node15 -->
<g id="edge18" class="edge"><title>Node5&#45;&gt;Node15</title>
<path fill="none" stroke="midnightblue" d="M946.429,-339.71C884.475,-331.615 762.298,-315.582 647.99,-300.128"/>
<polygon fill="midnightblue" stroke="midnightblue" points="648.396,-296.651 638.017,-298.778 647.457,-303.587 648.396,-296.651"/>
</g>
<!-- Node16 -->
<g id="node16" class="node"><title>Node16</title>
<g id="a_node16"><a xlink:href="dji__control_8hpp.html" target="_top" xlink:title="Control API for DJI OSDK library. ">
<polygon fill="white" stroke="black" points="840,-280.5 840,-299.5 920,-299.5 920,-280.5 840,-280.5"/>
<text text-anchor="middle" x="880" y="-287.5" font-family="Helvetica,sans-Serif" font-size="10.00">dji_control.hpp</text>
</a>
</g>
</g>
<!-- Node5&#45;&gt;Node16 -->
<g id="edge20" class="edge"><title>Node5&#45;&gt;Node16</title>
<path fill="none" stroke="midnightblue" d="M969.809,-336.324C952.649,-327.664 926.054,-314.242 906.253,-304.249"/>
<polygon fill="midnightblue" stroke="midnightblue" points="907.653,-301.035 897.149,-299.655 904.499,-307.285 907.653,-301.035"/>
</g>
<!-- Node19 -->
<g id="node19" class="node"><title>Node19</title>
<g id="a_node19"><a xlink:href="dji__version_8hpp.html" target="_top" xlink:title="Drone/SDK Version definition for DJI onboardSDK library. ">
<polygon fill="white" stroke="black" points="17,-168.5 17,-187.5 99,-187.5 99,-168.5 17,-168.5"/>
<text text-anchor="middle" x="58" y="-175.5" font-family="Helvetica,sans-Serif" font-size="10.00">dji_version.hpp</text>
</a>
</g>
</g>
<!-- Node5&#45;&gt;Node19 -->
<g id="edge68" class="edge"><title>Node5&#45;&gt;Node19</title>
<path fill="none" stroke="midnightblue" d="M946.348,-345.356C783.325,-346.456 182.387,-347.247 113,-300 78.2991,-276.371 65.1421,-225.215 60.4335,-197.591"/>
<polygon fill="midnightblue" stroke="midnightblue" points="63.8861,-197.014 58.9342,-187.647 56.9643,-198.057 63.8861,-197.014"/>
</g>
<!-- Node21 -->
<g id="node21" class="node"><title>Node21</title>
<g id="a_node21"><a xlink:href="dji__gimbal_8hpp.html" target="_top" xlink:title="Gimbal API for OSDK library. ">
<polygon fill="white" stroke="black" points="256.5,-168.5 256.5,-187.5 335.5,-187.5 335.5,-168.5 256.5,-168.5"/>
<text text-anchor="middle" x="296" y="-175.5" font-family="Helvetica,sans-Serif" font-size="10.00">dji_gimbal.hpp</text>
</a>
</g>
</g>
<!-- Node5&#45;&gt;Node21 -->
<g id="edge33" class="edge"><title>Node5&#45;&gt;Node21</title>
<path fill="none" stroke="midnightblue" d="M946.047,-344.524C813.003,-342.647 398.703,-334.096 350,-300 315.715,-275.998 302.888,-224.998 298.335,-197.497"/>
<polygon fill="midnightblue" stroke="midnightblue" points="301.798,-196.99 296.89,-187.6 294.872,-198.001 301.798,-196.99"/>
</g>
<!-- Node22 -->
<g id="node22" class="node"><title>Node22</title>
<polygon fill="white" stroke="#bfbfbf" points="938,-280.5 938,-299.5 1036,-299.5 1036,-280.5 938,-280.5"/>
<text text-anchor="middle" x="987" y="-287.5" font-family="Helvetica,sans-Serif" font-size="10.00">dji_hard_driver.hpp</text>
</g>
<!-- Node5&#45;&gt;Node22 -->
<g id="edge36" class="edge"><title>Node5&#45;&gt;Node22</title>
<path fill="none" stroke="midnightblue" d="M987,-336.083C987,-329.006 987,-318.861 987,-309.986"/>
<polygon fill="midnightblue" stroke="midnightblue" points="990.5,-309.751 987,-299.751 983.5,-309.751 990.5,-309.751"/>
</g>
<!-- Node23 -->
<g id="node23" class="node"><title>Node23</title>
<g id="a_node23"><a xlink:href="dji__hardware__sync_8hpp.html" target="_top" xlink:title="Hardware Sync API for DJI OSDK. ">
<polygon fill="white" stroke="black" points="1088,-168.5 1088,-187.5 1204,-187.5 1204,-168.5 1088,-168.5"/>
<text text-anchor="middle" x="1146" y="-175.5" font-family="Helvetica,sans-Serif" font-size="10.00">dji_hardware_sync.hpp</text>
</a>
</g>
</g>
<!-- Node5&#45;&gt;Node23 -->
<g id="edge37" class="edge"><title>Node5&#45;&gt;Node23</title>
<path fill="none" stroke="midnightblue" d="M1013.68,-336.394C1033.21,-329.08 1059.43,-317.035 1078,-300 1109.86,-270.785 1130.45,-223.105 1139.93,-197.18"/>
<polygon fill="midnightblue" stroke="midnightblue" points="1143.31,-198.113 1143.31,-187.518 1136.71,-195.801 1143.31,-198.113"/>
</g>
<!-- Node26 -->
<g id="node26" class="node"><title>Node26</title>
<g id="a_node26"><a xlink:href="dji__mission__manager_8hpp.html" target="_top" xlink:title="Mission&#45;Manager API for DJI OSDK library. ">
<polygon fill="white" stroke="black" points="656.5,-280.5 656.5,-299.5 783.5,-299.5 783.5,-280.5 656.5,-280.5"/>
<text text-anchor="middle" x="720" y="-287.5" font-family="Helvetica,sans-Serif" font-size="10.00">dji_mission_manager.hpp</text>
</a>
</g>
</g>
<!-- Node5&#45;&gt;Node26 -->
<g id="edge43" class="edge"><title>Node5&#45;&gt;Node26</title>
<path fill="none" stroke="midnightblue" d="M946.448,-336.799C899.811,-327.366 823.13,-311.858 772.105,-301.538"/>
<polygon fill="midnightblue" stroke="midnightblue" points="772.754,-298.099 762.259,-299.547 771.366,-304.96 772.754,-298.099"/>
</g>
<!-- Node31 -->
<g id="node31" class="node"><title>Node31</title>
<g id="a_node31"><a xlink:href="dji__mobile__communication_8hpp.html" target="_top" xlink:title="Implementation of DJI Mobile&#45;Onboard SDK Communication (MOC) ">
<polygon fill="white" stroke="black" points="1586,-280.5 1586,-299.5 1736,-299.5 1736,-280.5 1586,-280.5"/>
<text text-anchor="middle" x="1661" y="-287.5" font-family="Helvetica,sans-Serif" font-size="10.00">dji_mobile_communication.hpp</text>
</a>
</g>
</g>
<!-- Node5&#45;&gt;Node31 -->
<g id="edge53" class="edge"><title>Node5&#45;&gt;Node31</title>
<path fill="none" stroke="midnightblue" d="M1027.81,-342.32C1122.21,-336.026 1363.18,-319.429 1575.8,-300.084"/>
<polygon fill="midnightblue" stroke="midnightblue" points="1576.27,-303.557 1585.91,-299.161 1575.63,-296.586 1576.27,-303.557"/>
</g>
<!-- Node33 -->
<g id="node33" class="node"><title>Node33</title>
<g id="a_node33"><a xlink:href="dji__mobile__device_8hpp.html" target="_top" xlink:title="Implementation of DJI Mobile Device Abstraction. ">
<polygon fill="white" stroke="black" points="1636.5,-224.5 1636.5,-243.5 1749.5,-243.5 1749.5,-224.5 1636.5,-224.5"/>
<text text-anchor="middle" x="1693" y="-231.5" font-family="Helvetica,sans-Serif" font-size="10.00">dji_mobile_device.hpp</text>
</a>
</g>
</g>
<!-- Node5&#45;&gt;Node33 -->
<g id="edge56" class="edge"><title>Node5&#45;&gt;Node33</title>
<path fill="none" stroke="midnightblue" d="M1027.58,-344.116C1181.28,-340.573 1720.21,-326.308 1745,-300 1760.63,-283.418 1737.28,-262.605 1717.04,-249.063"/>
<polygon fill="midnightblue" stroke="midnightblue" points="1718.71,-245.978 1708.39,-243.566 1714.95,-251.885 1718.71,-245.978"/>
</g>
<!-- Node34 -->
<g id="node34" class="node"><title>Node34</title>
<polygon fill="white" stroke="#bfbfbf" points="1168,-280.5 1168,-299.5 1296,-299.5 1296,-280.5 1168,-280.5"/>
<text text-anchor="middle" x="1232" y="-287.5" font-family="Helvetica,sans-Serif" font-size="10.00">dji_platform_manager.hpp</text>
</g>
<!-- Node5&#45;&gt;Node34 -->
<g id="edge59" class="edge"><title>Node5&#45;&gt;Node34</title>
<path fill="none" stroke="midnightblue" d="M1025.82,-336.444C1068.56,-327.023 1137.33,-311.866 1183.57,-301.675"/>
<polygon fill="midnightblue" stroke="midnightblue" points="1184.35,-305.087 1193.36,-299.516 1182.84,-298.251 1184.35,-305.087"/>
</g>
<!-- Node35 -->
<g id="node35" class="node"><title>Node35</title>
<g id="a_node35"><a xlink:href="dji__status_8hpp.html" target="_top" xlink:title="Status information for DJI Vehicle. ">
<polygon fill="white" stroke="black" points="1314.5,-280.5 1314.5,-299.5 1391.5,-299.5 1391.5,-280.5 1314.5,-280.5"/>
<text text-anchor="middle" x="1353" y="-287.5" font-family="Helvetica,sans-Serif" font-size="10.00">dji_status.hpp</text>
</a>
</g>
</g>
<!-- Node5&#45;&gt;Node35 -->
<g id="edge60" class="edge"><title>Node5&#45;&gt;Node35</title>
<path fill="none" stroke="midnightblue" d="M1027.75,-339.827C1086.5,-332.239 1198.64,-317.27 1304.37,-300.039"/>
<polygon fill="midnightblue" stroke="midnightblue" points="1304.95,-303.491 1314.25,-298.419 1303.82,-296.583 1304.95,-303.491"/>
</g>
<!-- Node36 -->
<g id="node36" class="node"><title>Node36</title>
<g id="a_node36"><a xlink:href="dji__subscription_8hpp.html" target="_top" xlink:title="Telemetry Subscription API for DJI OSDK library. ">
<polygon fill="white" stroke="black" points="1210.5,-224.5 1210.5,-243.5 1313.5,-243.5 1313.5,-224.5 1210.5,-224.5"/>
<text text-anchor="middle" x="1262" y="-231.5" font-family="Helvetica,sans-Serif" font-size="10.00">dji_subscription.hpp</text>
</a>
</g>
</g>
<!-- Node5&#45;&gt;Node36 -->
<g id="edge61" class="edge"><title>Node5&#45;&gt;Node36</title>
<path fill="none" stroke="midnightblue" d="M1013.97,-336.461C1040.27,-327.931 1081.27,-314.092 1116,-300 1135.53,-292.075 1139.79,-288.664 1159,-280 1183.72,-268.851 1211.96,-256.544 1232.61,-247.622"/>
<polygon fill="midnightblue" stroke="midnightblue" points="1234.01,-250.83 1241.81,-243.656 1231.24,-244.403 1234.01,-250.83"/>
</g>
<!-- Node37 -->
<g id="node37" class="node"><title>Node37</title>
<polygon fill="white" stroke="#bfbfbf" points="1448,-280.5 1448,-299.5 1568,-299.5 1568,-280.5 1448,-280.5"/>
<text text-anchor="middle" x="1508" y="-287.5" font-family="Helvetica,sans-Serif" font-size="10.00">dji_thread_manager.hpp</text>
</g>
<!-- Node5&#45;&gt;Node37 -->
<g id="edge65" class="edge"><title>Node5&#45;&gt;Node37</title>
<path fill="none" stroke="midnightblue" d="M1027.71,-341.186C1106.3,-333.76 1284.39,-316.627 1434,-300 1435.27,-299.859 1436.54,-299.716 1437.83,-299.571"/>
<polygon fill="midnightblue" stroke="midnightblue" points="1438.3,-303.04 1447.84,-298.423 1437.5,-296.086 1438.3,-303.04"/>
</g>
<!-- Node38 -->
<g id="node38" class="node"><title>Node38</title>
<g id="a_node38"><a xlink:href="dji__virtual__rc_8hpp.html" target="_top" xlink:title="Virtual Radio Control API for DJI onboardSDK library. ">
<polygon fill="white" stroke="black" points="418,-280.5 418,-299.5 508,-299.5 508,-280.5 418,-280.5"/>
<text text-anchor="middle" x="463" y="-287.5" font-family="Helvetica,sans-Serif" font-size="10.00">dji_virtual_rc.hpp</text>
</a>
</g>
</g>
<!-- Node5&#45;&gt;Node38 -->
<g id="edge69" class="edge"><title>Node5&#45;&gt;Node38</title>
<path fill="none" stroke="midnightblue" d="M946.342,-342.067C866.417,-336.093 683.009,-321.363 518.362,-300.093"/>
<polygon fill="midnightblue" stroke="midnightblue" points="518.415,-296.571 508.046,-298.749 517.51,-303.512 518.415,-296.571"/>
</g>
<!-- Node7&#45;&gt;Node3 -->
<g id="edge11" class="edge"><title>Node7&#45;&gt;Node3</title>
<path fill="none" stroke="midnightblue" d="M955.666,-228.911C1028.97,-222.017 1167.44,-206.959 1213,-188 1240.57,-176.527 1267.33,-154.369 1283.73,-139.139"/>
<polygon fill="midnightblue" stroke="midnightblue" points="1286.49,-141.338 1291.31,-131.9 1281.66,-136.276 1286.49,-141.338"/>
</g>
<!-- Node8 -->
<g id="node8" class="node"><title>Node8</title>
<g id="a_node8"><a xlink:href="dji__telemetry_8hpp.html" target="_top" xlink:title="Enumeration of all telemetry data types, structures and maps. ">
<polygon fill="white" stroke="black" points="814.5,-168.5 814.5,-187.5 905.5,-187.5 905.5,-168.5 814.5,-168.5"/>
<text text-anchor="middle" x="860" y="-175.5" font-family="Helvetica,sans-Serif" font-size="10.00">dji_telemetry.hpp</text>
</a>
</g>
</g>
<!-- Node7&#45;&gt;Node8 -->
<g id="edge7" class="edge"><title>Node7&#45;&gt;Node8</title>
<path fill="none" stroke="midnightblue" d="M900.909,-224.083C893.845,-216.298 883.412,-204.801 874.851,-195.367"/>
<polygon fill="midnightblue" stroke="midnightblue" points="877.253,-192.805 867.941,-187.751 872.069,-197.509 877.253,-192.805"/>
</g>
<!-- Node8&#45;&gt;Node9 -->
<g id="edge8" class="edge"><title>Node8&#45;&gt;Node9</title>
<path fill="none" stroke="midnightblue" d="M814.384,-169.519C811.209,-169.004 808.057,-168.493 805,-168 720.85,-154.425 622.574,-138.864 566.774,-130.056"/>
<polygon fill="midnightblue" stroke="midnightblue" points="567.286,-126.593 556.862,-128.492 566.195,-133.508 567.286,-126.593"/>
</g>
<!-- Node10 -->
<g id="node10" class="node"><title>Node10</title>
<polygon fill="white" stroke="#bfbfbf" points="500.5,-56.5 500.5,-75.5 543.5,-75.5 543.5,-56.5 500.5,-56.5"/>
<text text-anchor="middle" x="522" y="-63.5" font-family="Helvetica,sans-Serif" font-size="10.00">cstdio</text>
</g>
<!-- Node9&#45;&gt;Node10 -->
<g id="edge9" class="edge"><title>Node9&#45;&gt;Node10</title>
<path fill="none" stroke="midnightblue" d="M522,-112.083C522,-105.006 522,-94.8611 522,-85.9865"/>
<polygon fill="midnightblue" stroke="midnightblue" points="525.5,-85.751 522,-75.7511 518.5,-85.7511 525.5,-85.751"/>
</g>
<!-- Node11 -->
<g id="node11" class="node"><title>Node11</title>
<polygon fill="white" stroke="#bfbfbf" points="334.5,-0.5 334.5,-19.5 383.5,-19.5 383.5,-0.5 334.5,-0.5"/>
<text text-anchor="middle" x="359" y="-7.5" font-family="Helvetica,sans-Serif" font-size="10.00">stdint.h</text>
</g>
<!-- Node9&#45;&gt;Node11 -->
<g id="edge10" class="edge"><title>Node9&#45;&gt;Node11</title>
<path fill="none" stroke="midnightblue" d="M509.21,-112.368C481.239,-93.4924 414.398,-48.385 380.096,-25.2367"/>
<polygon fill="midnightblue" stroke="midnightblue" points="381.978,-22.2841 371.731,-19.5914 378.062,-28.0865 381.978,-22.2841"/>
</g>
<!-- Node12&#45;&gt;Node9 -->
<g id="edge17" class="edge"><title>Node12&#45;&gt;Node9</title>
<path fill="none" stroke="midnightblue" d="M238.733,-169.437C241.53,-168.946 244.305,-168.463 247,-168 328.075,-154.071 422.774,-138.792 477.229,-130.102"/>
<polygon fill="midnightblue" stroke="midnightblue" points="477.917,-133.537 487.241,-128.506 476.815,-126.624 477.917,-133.537"/>
</g>
<!-- Node12&#45;&gt;Node13 -->
<g id="edge13" class="edge"><title>Node12&#45;&gt;Node13</title>
<path fill="none" stroke="midnightblue" d="M212.906,-168.324C228.638,-159.743 252.942,-146.486 271.209,-136.522"/>
<polygon fill="midnightblue" stroke="midnightblue" points="273.03,-139.516 280.133,-131.655 269.678,-133.37 273.03,-139.516"/>
</g>
<!-- Node13&#45;&gt;Node11 -->
<g id="edge16" class="edge"><title>Node13&#45;&gt;Node11</title>
<path fill="none" stroke="midnightblue" d="M307.343,-112.179C317.307,-103.859 331.504,-90.5244 340,-76 348.44,-61.5704 353.366,-43.1178 356.078,-29.5626"/>
<polygon fill="midnightblue" stroke="midnightblue" points="359.558,-29.9822 357.863,-19.5238 352.666,-28.7564 359.558,-29.9822"/>
</g>
<!-- Node14 -->
<g id="node14" class="node"><title>Node14</title>
<g id="a_node14"><a xlink:href="dji__error_8hpp.html" target="_top" xlink:title="All DJI OSDK OpenProtocol ACK Error Codes. ">
<polygon fill="white" stroke="black" points="261,-56.5 261,-75.5 331,-75.5 331,-56.5 261,-56.5"/>
<text text-anchor="middle" x="296" y="-63.5" font-family="Helvetica,sans-Serif" font-size="10.00">dji_error.hpp</text>
</a>
</g>
</g>
<!-- Node13&#45;&gt;Node14 -->
<g id="edge14" class="edge"><title>Node13&#45;&gt;Node14</title>
<path fill="none" stroke="midnightblue" d="M296,-112.083C296,-105.006 296,-94.8611 296,-85.9865"/>
<polygon fill="midnightblue" stroke="midnightblue" points="299.5,-85.751 296,-75.7511 292.5,-85.7511 299.5,-85.751"/>
</g>
<!-- Node14&#45;&gt;Node11 -->
<g id="edge15" class="edge"><title>Node14&#45;&gt;Node11</title>
<path fill="none" stroke="midnightblue" d="M306.122,-56.324C315.526,-48.2631 329.744,-36.0765 341.069,-26.3695"/>
<polygon fill="midnightblue" stroke="midnightblue" points="343.379,-28.9993 348.694,-19.8339 338.823,-23.6844 343.379,-28.9993"/>
</g>
<!-- Node16&#45;&gt;Node3 -->
<g id="edge32" class="edge"><title>Node16&#45;&gt;Node3</title>
<path fill="none" stroke="midnightblue" d="M920.083,-280.956C1002.83,-263.861 1189.38,-222.639 1244,-188 1263.19,-175.829 1279.4,-155.076 1289.36,-140.295"/>
<polygon fill="midnightblue" stroke="midnightblue" points="1292.5,-141.894 1294.98,-131.594 1286.61,-138.099 1292.5,-141.894"/>
</g>
<!-- Node16&#45;&gt;Node4 -->
<g id="edge30" class="edge"><title>Node16&#45;&gt;Node4</title>
<path fill="none" stroke="midnightblue" d="M914.555,-280.47C935.985,-273.66 962.805,-262.183 981,-244 1004.77,-220.25 1039.52,-125.853 1053.66,-85.4757"/>
<polygon fill="midnightblue" stroke="midnightblue" points="1057.04,-86.423 1057.01,-75.8282 1050.43,-84.1298 1057.04,-86.423"/>
</g>
<!-- Node16&#45;&gt;Node9 -->
<g id="edge31" class="edge"><title>Node16&#45;&gt;Node9</title>
<path fill="none" stroke="midnightblue" d="M912.986,-280.438C931.463,-273.769 952.952,-262.453 964,-244 986.115,-207.065 924.424,-173.402 914,-168 854.399,-137.113 656.297,-127.144 566.697,-124.167"/>
<polygon fill="midnightblue" stroke="midnightblue" points="566.686,-120.665 556.58,-123.846 566.464,-127.662 566.686,-120.665"/>
</g>
<!-- Node17 -->
<g id="node17" class="node"><title>Node17</title>
<g id="a_node17"><a xlink:href="dji__ack_8hpp.html" target="_top" xlink:title="All DJI OSDK ACK parsing. ">
<polygon fill="white" stroke="black" points="430,-224.5 430,-243.5 496,-243.5 496,-224.5 430,-224.5"/>
<text text-anchor="middle" x="463" y="-231.5" font-family="Helvetica,sans-Serif" font-size="10.00">dji_ack.hpp</text>
</a>
</g>
</g>
<!-- Node16&#45;&gt;Node17 -->
<g id="edge21" class="edge"><title>Node16&#45;&gt;Node17</title>
<path fill="none" stroke="midnightblue" d="M839.894,-284.659C760.475,-275.988 584.761,-256.418 506.37,-244.068"/>
<polygon fill="midnightblue" stroke="midnightblue" points="506.85,-240.6 496.418,-242.45 505.726,-247.509 506.85,-240.6"/>
</g>
<!-- Node17&#45;&gt;Node9 -->
<g id="edge25" class="edge"><title>Node17&#45;&gt;Node9</title>
<path fill="none" stroke="midnightblue" d="M496.038,-225.322C528.466,-217.037 574.544,-203.002 585,-188 598.822,-168.17 573.293,-148.705 550.709,-136.324"/>
<polygon fill="midnightblue" stroke="midnightblue" points="552.142,-133.124 541.653,-131.628 548.919,-139.338 552.142,-133.124"/>
</g>
<!-- Node17&#45;&gt;Node13 -->
<g id="edge22" class="edge"><title>Node17&#45;&gt;Node13</title>
<path fill="none" stroke="midnightblue" d="M449.896,-224.368C421.239,-205.492 352.757,-160.385 317.614,-137.237"/>
<polygon fill="midnightblue" stroke="midnightblue" points="319.32,-134.169 309.043,-131.591 315.469,-140.015 319.32,-134.169"/>
</g>
<!-- Node18 -->
<g id="node18" class="node"><title>Node18</title>
<g id="a_node18"><a xlink:href="dji__mission__type_8hpp.html" target="_top" xlink:title="Mission related data struct for DJI OSDK library. ">
<polygon fill="white" stroke="black" points="468,-168.5 468,-187.5 576,-187.5 576,-168.5 468,-168.5"/>
<text text-anchor="middle" x="522" y="-175.5" font-family="Helvetica,sans-Serif" font-size="10.00">dji_mission_type.hpp</text>
</a>
</g>
</g>
<!-- Node17&#45;&gt;Node18 -->
<g id="edge23" class="edge"><title>Node17&#45;&gt;Node18</title>
<path fill="none" stroke="midnightblue" d="M472.479,-224.324C481.201,-216.341 494.343,-204.313 504.898,-194.653"/>
<polygon fill="midnightblue" stroke="midnightblue" points="507.334,-197.167 512.348,-187.834 502.608,-192.004 507.334,-197.167"/>
</g>
<!-- Node17&#45;&gt;Node19 -->
<g id="edge26" class="edge"><title>Node17&#45;&gt;Node19</title>
<path fill="none" stroke="midnightblue" d="M429.857,-228.581C359.22,-219.163 193.437,-197.058 109.146,-185.82"/>
<polygon fill="midnightblue" stroke="midnightblue" points="109.412,-182.324 99.0374,-184.472 108.487,-189.263 109.412,-182.324"/>
</g>
<!-- Node20 -->
<g id="node20" class="node"><title>Node20</title>
<polygon fill="white" stroke="#bfbfbf" points="632.5,-168.5 632.5,-187.5 667.5,-187.5 667.5,-168.5 632.5,-168.5"/>
<text text-anchor="middle" x="650" y="-175.5" font-family="Helvetica,sans-Serif" font-size="10.00">map</text>
</g>
<!-- Node17&#45;&gt;Node20 -->
<g id="edge29" class="edge"><title>Node17&#45;&gt;Node20</title>
<path fill="none" stroke="midnightblue" d="M492.631,-224.444C528.283,-214.148 587.668,-196.999 622.393,-186.972"/>
<polygon fill="midnightblue" stroke="midnightblue" points="623.688,-190.241 632.325,-184.104 621.746,-183.516 623.688,-190.241"/>
</g>
<!-- Node18&#45;&gt;Node9 -->
<g id="edge24" class="edge"><title>Node18&#45;&gt;Node9</title>
<path fill="none" stroke="midnightblue" d="M522,-168.083C522,-161.006 522,-150.861 522,-141.986"/>
<polygon fill="midnightblue" stroke="midnightblue" points="525.5,-141.751 522,-131.751 518.5,-141.751 525.5,-141.751"/>
</g>
<!-- Node19&#45;&gt;Node6 -->
<g id="edge28" class="edge"><title>Node19&#45;&gt;Node6</title>
<path fill="none" stroke="midnightblue" d="M52.2205,-168.083C47.3276,-160.534 40.1726,-149.495 34.1674,-140.23"/>
<polygon fill="midnightblue" stroke="midnightblue" points="37.048,-138.239 28.672,-131.751 31.174,-142.046 37.048,-138.239"/>
</g>
<!-- Node19&#45;&gt;Node13 -->
<g id="edge27" class="edge"><title>Node19&#45;&gt;Node13</title>
<path fill="none" stroke="midnightblue" d="M95.7118,-168.444C137.143,-159.043 203.757,-143.929 248.667,-133.739"/>
<polygon fill="midnightblue" stroke="midnightblue" points="249.487,-137.142 258.465,-131.516 247.938,-130.316 249.487,-137.142"/>
</g>
<!-- Node21&#45;&gt;Node9 -->
<g id="edge35" class="edge"><title>Node21&#45;&gt;Node9</title>
<path fill="none" stroke="midnightblue" d="M331.81,-168.444C371.333,-159 434.988,-143.79 477.639,-133.599"/>
<polygon fill="midnightblue" stroke="midnightblue" points="478.556,-136.979 487.469,-131.251 476.929,-130.171 478.556,-136.979"/>
</g>
<!-- Node21&#45;&gt;Node13 -->
<g id="edge34" class="edge"><title>Node21&#45;&gt;Node13</title>
<path fill="none" stroke="midnightblue" d="M296,-168.083C296,-161.006 296,-150.861 296,-141.986"/>
<polygon fill="midnightblue" stroke="midnightblue" points="299.5,-141.751 296,-131.751 292.5,-141.751 299.5,-141.751"/>
</g>
<!-- Node23&#45;&gt;Node3 -->
<g id="edge39" class="edge"><title>Node23&#45;&gt;Node3</title>
<path fill="none" stroke="midnightblue" d="M1170.4,-168.444C1196.2,-159.399 1237.08,-145.064 1266.02,-134.916"/>
<polygon fill="midnightblue" stroke="midnightblue" points="1267.43,-138.128 1275.71,-131.516 1265.12,-131.523 1267.43,-138.128"/>
</g>
<!-- Node23&#45;&gt;Node9 -->
<g id="edge38" class="edge"><title>Node23&#45;&gt;Node9</title>
<path fill="none" stroke="midnightblue" d="M1087.86,-171.968C964.314,-161.277 677.923,-136.493 567.009,-126.895"/>
<polygon fill="midnightblue" stroke="midnightblue" points="567.099,-123.39 556.835,-126.015 566.496,-130.364 567.099,-123.39"/>
</g>
<!-- Node24 -->
<g id="node24" class="node"><title>Node24</title>
<polygon fill="white" stroke="#bfbfbf" points="1160,-112.5 1160,-131.5 1206,-131.5 1206,-112.5 1160,-112.5"/>
<text text-anchor="middle" x="1183" y="-119.5" font-family="Helvetica,sans-Serif" font-size="10.00">chrono</text>
</g>
<!-- Node23&#45;&gt;Node24 -->
<g id="edge40" class="edge"><title>Node23&#45;&gt;Node24</title>
<path fill="none" stroke="midnightblue" d="M1152.11,-168.083C1157.28,-160.534 1164.85,-149.495 1171.19,-140.23"/>
<polygon fill="midnightblue" stroke="midnightblue" points="1174.24,-141.979 1177,-131.751 1168.46,-138.022 1174.24,-141.979"/>
</g>
<!-- Node25 -->
<g id="node25" class="node"><title>Node25</title>
<polygon fill="white" stroke="#bfbfbf" points="1096,-112.5 1096,-131.5 1142,-131.5 1142,-112.5 1096,-112.5"/>
<text text-anchor="middle" x="1119" y="-119.5" font-family="Helvetica,sans-Serif" font-size="10.00">atomic</text>
</g>
<!-- Node23&#45;&gt;Node25 -->
<g id="edge41" class="edge"><title>Node23&#45;&gt;Node25</title>
<path fill="none" stroke="midnightblue" d="M1141.54,-168.083C1137.85,-160.691 1132.48,-149.953 1127.91,-140.811"/>
<polygon fill="midnightblue" stroke="midnightblue" points="1130.98,-139.13 1123.38,-131.751 1124.72,-142.261 1130.98,-139.13"/>
</g>
<!-- Node27 -->
<g id="node27" class="node"><title>Node27</title>
<g id="a_node27"><a xlink:href="dji__hotpoint_8hpp.html" target="_top" xlink:title="Implementation of HotPoint (Point of Interest) Missions for DJI OSDK. ">
<polygon fill="white" stroke="black" points="621.5,-224.5 621.5,-243.5 706.5,-243.5 706.5,-224.5 621.5,-224.5"/>
<text text-anchor="middle" x="664" y="-231.5" font-family="Helvetica,sans-Serif" font-size="10.00">dji_hotpoint.hpp</text>
</a>
</g>
</g>
<!-- Node26&#45;&gt;Node27 -->
<g id="edge44" class="edge"><title>Node26&#45;&gt;Node27</title>
<path fill="none" stroke="midnightblue" d="M711.003,-280.324C702.806,-272.42 690.494,-260.548 680.528,-250.938"/>
<polygon fill="midnightblue" stroke="midnightblue" points="682.789,-248.256 673.161,-243.834 677.93,-253.295 682.789,-248.256"/>
</g>
<!-- Node29 -->
<g id="node29" class="node"><title>Node29</title>
<g id="a_node29"><a xlink:href="dji__waypoint_8hpp.html" target="_top" xlink:title="Implementation of GPS Waypoint Missions for DJI OSDK. ">
<polygon fill="white" stroke="black" points="514.5,-224.5 514.5,-243.5 603.5,-243.5 603.5,-224.5 514.5,-224.5"/>
<text text-anchor="middle" x="559" y="-231.5" font-family="Helvetica,sans-Serif" font-size="10.00">dji_waypoint.hpp</text>
</a>
</g>
</g>
<!-- Node26&#45;&gt;Node29 -->
<g id="edge50" class="edge"><title>Node26&#45;&gt;Node29</title>
<path fill="none" stroke="midnightblue" d="M694.489,-280.444C667.404,-271.359 624.41,-256.939 594.131,-246.783"/>
<polygon fill="midnightblue" stroke="midnightblue" points="594.986,-243.378 584.392,-243.516 592.76,-250.015 594.986,-243.378"/>
</g>
<!-- Node30 -->
<g id="node30" class="node"><title>Node30</title>
<polygon fill="white" stroke="#bfbfbf" points="801,-224.5 801,-243.5 845,-243.5 845,-224.5 801,-224.5"/>
<text text-anchor="middle" x="823" y="-231.5" font-family="Helvetica,sans-Serif" font-size="10.00">vector</text>
</g>
<!-- Node26&#45;&gt;Node30 -->
<g id="edge52" class="edge"><title>Node26&#45;&gt;Node30</title>
<path fill="none" stroke="midnightblue" d="M736.549,-280.324C752.992,-271.703 778.435,-258.364 797.468,-248.386"/>
<polygon fill="midnightblue" stroke="midnightblue" points="799.261,-251.398 806.492,-243.655 796.011,-245.198 799.261,-251.398"/>
</g>
<!-- Node27&#45;&gt;Node8 -->
<g id="edge49" class="edge"><title>Node27&#45;&gt;Node8</title>
<path fill="none" stroke="midnightblue" d="M695.057,-224.444C728.603,-215.201 782.197,-200.436 819.141,-190.257"/>
<polygon fill="midnightblue" stroke="midnightblue" points="820.377,-193.547 829.089,-187.516 818.518,-186.798 820.377,-193.547"/>
</g>
<!-- Node28 -->
<g id="node28" class="node"><title>Node28</title>
<g id="a_node28"><a xlink:href="dji__mission__base_8hpp.html" target="_top" xlink:title="Mission&#45;Base abstract class for DJI OSDK library. ">
<polygon fill="white" stroke="black" points="686,-168.5 686,-187.5 796,-187.5 796,-168.5 686,-168.5"/>
<text text-anchor="middle" x="741" y="-175.5" font-family="Helvetica,sans-Serif" font-size="10.00">dji_mission_base.hpp</text>
</a>
</g>
</g>
<!-- Node27&#45;&gt;Node28 -->
<g id="edge45" class="edge"><title>Node27&#45;&gt;Node28</title>
<path fill="none" stroke="midnightblue" d="M676.371,-224.324C688.158,-216.058 706.132,-203.453 720.136,-193.632"/>
<polygon fill="midnightblue" stroke="midnightblue" points="722.482,-196.262 728.659,-187.655 718.462,-190.531 722.482,-196.262"/>
</g>
<!-- Node28&#45;&gt;Node3 -->
<g id="edge48" class="edge"><title>Node28&#45;&gt;Node3</title>
<path fill="none" stroke="midnightblue" d="M796.135,-169.061C799.132,-168.687 802.102,-168.331 805,-168 986.743,-147.256 1032.93,-149.631 1215,-132 1219.44,-131.57 1224.01,-131.117 1228.62,-130.652"/>
<polygon fill="midnightblue" stroke="midnightblue" points="1229.14,-134.117 1238.73,-129.62 1228.42,-127.154 1229.14,-134.117"/>
</g>
<!-- Node28&#45;&gt;Node9 -->
<g id="edge47" class="edge"><title>Node28&#45;&gt;Node9</title>
<path fill="none" stroke="midnightblue" d="M706.299,-168.444C668.415,-159.102 607.651,-144.119 566.338,-133.933"/>
<polygon fill="midnightblue" stroke="midnightblue" points="567.086,-130.512 556.539,-131.516 565.41,-137.309 567.086,-130.512"/>
</g>
<!-- Node28&#45;&gt;Node13 -->
<g id="edge46" class="edge"><title>Node28&#45;&gt;Node13</title>
<path fill="none" stroke="midnightblue" d="M685.692,-169.266C682.413,-168.831 679.164,-168.406 676,-168 561.306,-153.27 426.903,-137.767 352.617,-129.352"/>
<polygon fill="midnightblue" stroke="midnightblue" points="352.872,-125.858 342.542,-128.212 352.085,-132.814 352.872,-125.858"/>
</g>
<!-- Node29&#45;&gt;Node28 -->
<g id="edge51" class="edge"><title>Node29&#45;&gt;Node28</title>
<path fill="none" stroke="midnightblue" d="M587.838,-224.444C618.856,-215.241 668.329,-200.562 702.618,-190.388"/>
<polygon fill="midnightblue" stroke="midnightblue" points="703.705,-193.716 712.296,-187.516 701.714,-187.006 703.705,-193.716"/>
</g>
<!-- Node31&#45;&gt;Node3 -->
<g id="edge55" class="edge"><title>Node31&#45;&gt;Node3</title>
<path fill="none" stroke="midnightblue" d="M1647.07,-280.494C1612.16,-259.42 1517.73,-203.898 1434,-168 1403.1,-154.753 1366.9,-142.797 1339.92,-134.544"/>
<polygon fill="midnightblue" stroke="midnightblue" points="1340.64,-131.107 1330.06,-131.567 1338.62,-137.808 1340.64,-131.107"/>
</g>
<!-- Node32 -->
<g id="node32" class="node"><title>Node32</title>
<polygon fill="white" stroke="#bfbfbf" points="1448.5,-224.5 1448.5,-243.5 1531.5,-243.5 1531.5,-224.5 1448.5,-224.5"/>
<text text-anchor="middle" x="1490" y="-231.5" font-family="Helvetica,sans-Serif" font-size="10.00">dji_macros.hpp</text>
</g>
<!-- Node31&#45;&gt;Node32 -->
<g id="edge54" class="edge"><title>Node31&#45;&gt;Node32</title>
<path fill="none" stroke="midnightblue" d="M1633.9,-280.444C1605.01,-271.32 1559.08,-256.813 1526.89,-246.651"/>
<polygon fill="midnightblue" stroke="midnightblue" points="1527.56,-243.19 1516.97,-243.516 1525.45,-249.865 1527.56,-243.19"/>
</g>
<!-- Node33&#45;&gt;Node3 -->
<g id="edge57" class="edge"><title>Node33&#45;&gt;Node3</title>
<path fill="none" stroke="midnightblue" d="M1680.46,-224.273C1659.46,-210.103 1615.4,-182.245 1574,-168 1507.38,-145.079 1427.52,-133.662 1371.25,-128.085"/>
<polygon fill="midnightblue" stroke="midnightblue" points="1371.32,-124.575 1361.03,-127.11 1370.65,-131.544 1371.32,-124.575"/>
</g>
<!-- Node36&#45;&gt;Node3 -->
<g id="edge64" class="edge"><title>Node36&#45;&gt;Node3</title>
<path fill="none" stroke="midnightblue" d="M1266.96,-224.28C1271.85,-215.388 1279.25,-201.08 1284,-188 1289.52,-172.791 1293.77,-154.9 1296.49,-141.743"/>
<polygon fill="midnightblue" stroke="midnightblue" points="1300,-142.073 1298.49,-131.585 1293.13,-140.721 1300,-142.073"/>
</g>
<!-- Node36&#45;&gt;Node4 -->
<g id="edge62" class="edge"><title>Node36&#45;&gt;Node4</title>
<path fill="none" stroke="midnightblue" d="M1280.24,-224.424C1319.77,-204.733 1406.94,-154.692 1370,-112 1339.07,-76.2596 1207.23,-68.3075 1125.77,-66.8852"/>
<polygon fill="midnightblue" stroke="midnightblue" points="1125.66,-63.3832 1115.61,-66.7369 1125.56,-70.3825 1125.66,-63.3832"/>
</g>
<!-- Node36&#45;&gt;Node8 -->
<g id="edge63" class="edge"><title>Node36&#45;&gt;Node8</title>
<path fill="none" stroke="midnightblue" d="M1210.27,-226.051C1134.47,-215.869 993.783,-196.971 915.758,-186.49"/>
<polygon fill="midnightblue" stroke="midnightblue" points="916.015,-182.993 905.638,-185.131 915.083,-189.931 916.015,-182.993"/>
</g>
<!-- Node38&#45;&gt;Node4 -->
<g id="edge71" class="edge"><title>Node38&#45;&gt;Node4</title>
<path fill="none" stroke="midnightblue" d="M508.074,-281.444C511.094,-280.951 514.091,-280.466 517,-280 620.898,-263.35 650.578,-275.422 751,-244 770.35,-237.946 773.1,-231.339 792,-224 844.7,-203.536 864.105,-214.581 914,-188 967.746,-159.368 1020.05,-108.937 1044.93,-83.1595"/>
<polygon fill="midnightblue" stroke="midnightblue" points="1047.66,-85.3727 1052.02,-75.7154 1042.59,-80.5475 1047.66,-85.3727"/>
</g>
<!-- Node38&#45;&gt;Node8 -->
<g id="edge73" class="edge"><title>Node38&#45;&gt;Node8</title>
<path fill="none" stroke="midnightblue" d="M508.135,-281.24C577.954,-269.194 705.187,-247.054 715,-244 735.511,-237.618 739.411,-232.816 759,-224 783.371,-213.032 811.105,-200.685 831.337,-191.702"/>
<polygon fill="midnightblue" stroke="midnightblue" points="832.897,-194.839 840.618,-187.584 830.058,-188.441 832.897,-194.839"/>
</g>
<!-- Node38&#45;&gt;Node9 -->
<g id="edge72" class="edge"><title>Node38&#45;&gt;Node9</title>
<path fill="none" stroke="midnightblue" d="M450.786,-280.236C440.646,-272.143 426.957,-259.112 421,-244 417.74,-235.73 418.389,-232.497 421,-224 433.118,-184.56 472.148,-153.723 497.989,-136.966"/>
<polygon fill="midnightblue" stroke="midnightblue" points="499.891,-139.905 506.514,-131.635 496.179,-133.97 499.891,-139.905"/>
</g>
<!-- Node38&#45;&gt;Node17 -->
<g id="edge70" class="edge"><title>Node38&#45;&gt;Node17</title>
<path fill="none" stroke="midnightblue" d="M463,-280.083C463,-273.006 463,-262.861 463,-253.986"/>
<polygon fill="midnightblue" stroke="midnightblue" points="466.5,-253.751 463,-243.751 459.5,-253.751 466.5,-253.751"/>
</g>
</g>
</svg>
        <g id="navigator" transform="translate(0 0)" fill="#404254">
                <rect fill="#f2f5e9" fill-opacity="0.5" stroke="#606060" stroke-width=".5" x="0" y="0" width="60" height="60"/>
                <use id="zoomplus" xlink:href="#zoomPlus" x="17" y="9" onmousedown="handleZoom(evt,'in')"/>
                <use id="zoomminus" xlink:href="#zoomMin" x="42" y="9" onmousedown="handleZoom(evt,'out')"/>
                <use id="reset" xlink:href="#resetDef" x="30" y="36" onmousedown="handleReset()"/>
                <g id="arrowUp" xlink:href="#dirArrow" transform="translate(30 24)" onmousedown="handlePan(0,-1)">
                  <use xlink:href="#rim" fill="#404040">
                        <set attributeName="fill" to="#808080" begin="arrowUp.mouseover" end="arrowUp.mouseout"/>
                  </use>
                  <path fill="none" stroke="white" stroke-width="1.5" d="M0,-3.0v7 M-2.5,-0.5L0,-3.0L2.5,-0.5"/>
                </g>
                <g id="arrowRight" xlink:href="#dirArrow" transform="rotate(90) translate(36 -43)" onmousedown="handlePan(1,0)">
                  <use xlink:href="#rim" fill="#404040">
                        <set attributeName="fill" to="#808080" begin="arrowRight.mouseover" end="arrowRight.mouseout"/>
                  </use>
                  <path fill="none" stroke="white" stroke-width="1.5" d="M0,-3.0v7 M-2.5,-0.5L0,-3.0L2.5,-0.5"/>
                </g>
                <g id="arrowDown" xlink:href="#dirArrow" transform="rotate(180) translate(-30 -48)" onmousedown="handlePan(0,1)">
                  <use xlink:href="#rim" fill="#404040">
                        <set attributeName="fill" to="#808080" begin="arrowDown.mouseover" end="arrowDown.mouseout"/>
                  </use>
                  <path fill="none" stroke="white" stroke-width="1.5" d="M0,-3.0v7 M-2.5,-0.5L0,-3.0L2.5,-0.5"/>
                </g>
                <g id="arrowLeft" xlink:href="#dirArrow" transform="rotate(270) translate(-36 17)" onmousedown="handlePan(-1,0)">
                  <use xlink:href="#rim" fill="#404040">
                        <set attributeName="fill" to="#808080" begin="arrowLeft.mouseover" end="arrowLeft.mouseout"/>
                  </use>
                  <path fill="none" stroke="white" stroke-width="1.5" d="M0,-3.0v7 M-2.5,-0.5L0,-3.0L2.5,-0.5"/>
                </g>
        </g>
        <svg viewBox="0 0 15 15" width="100%" height="30px" preserveAspectRatio="xMaxYMin meet">
         <g id="arrow_out" transform="scale(0.3 0.3)">
          <a xlink:href="dji__mfio_8cpp__incl_org.svg" target="_base">
           <rect id="button" ry="5" rx="5" y="6" x="6" height="38" width="38"
                fill="#f2f5e9" fill-opacity="0.5" stroke="#606060" stroke-width="1.0"/>
           <path id="arrow"
             d="M 11.500037,31.436501 C 11.940474,20.09759 22.043105,11.32322 32.158766,21.979434 L 37.068811,17.246167 C 37.068811,17.246167 37.088388,32 37.088388,32 L 22.160133,31.978069 C 22.160133,31.978069 26.997745,27.140456 26.997745,27.140456 C 18.528582,18.264221 13.291696,25.230495 11.500037,31.436501 z"
             style="fill:#404040;"/>
          </a>
         </g>
        </svg>
</svg>
