<?xml version="1.0" encoding="UTF-8" standalone="no"?>
<!DOCTYPE svg PUBLIC "-//W3C//DTD SVG 1.1//EN"
 "http://www.w3.org/Graphics/SVG/1.1/DTD/svg11.dtd">
<!-- Generated by graphviz version 2.40.1 (20161225.0304)
 -->
<!-- Title: osdk&#45;core/advanced&#45;sensing/api/inc/dji_advanced_sensing.hpp Pages: 1 -->
<!--zoomable 285 -->
<svg id="main" version="1.1" xmlns="http://www.w3.org/2000/svg" xmlns:xlink="http://www.w3.org/1999/xlink" xml:space="preserve" onload="init(evt)">
<style type="text/css"><![CDATA[
.edge:hover path { stroke: red; }
.edge:hover polygon { stroke: red; fill: red; }
]]></style>
<script type="text/javascript"><![CDATA[
var edges = document.getElementsByTagName('g');
if (edges && edges.length) {
  for (var i=0;i<edges.length;i++) {
    if (edges[i].id.substr(0,4)=='edge') {
      edges[i].setAttribute('class','edge');
    }
  }
}
]]></script>
        <defs>
                <circle id="rim" cx="0" cy="0" r="7"/>
                <circle id="rim2" cx="0" cy="0" r="3.5"/>
                <g id="zoomPlus">
                        <use xlink:href="#rim" fill="#404040">
                                <set attributeName="fill" to="#808080" begin="zoomplus.mouseover" end="zoomplus.mouseout"/>
                        </use>
                        <path d="M-4,0h8M0,-4v8" fill="none" stroke="white" stroke-width="1.5" pointer-events="none"/>
                </g>
                <g id="zoomMin">
                        <use xlink:href="#rim" fill="#404040">
                                <set attributeName="fill" to="#808080" begin="zoomminus.mouseover" end="zoomminus.mouseout"/>
                        </use>
                        <path d="M-4,0h8" fill="none" stroke="white" stroke-width="1.5" pointer-events="none"/>
                </g>
                <g id="dirArrow">
                        <path fill="none" stroke="white" stroke-width="1.5" d="M0,-3.0v7 M-2.5,-0.5L0,-3.0L2.5,-0.5"/>
                </g>
               <g id="resetDef">
                       <use xlink:href="#rim2" fill="#404040">
                               <set attributeName="fill" to="#808080" begin="reset.mouseover" end="reset.mouseout"/>
                       </use>
               </g>
        </defs>

<script type="text/javascript">
var viewWidth = 755;
var viewHeight = 285;
var sectionId = 'dynsection-0';
</script>
<script xlink:href="svgpan.js"/>
<svg id="graph" class="graph">
<g id="viewport">
<title>osdk&#45;core/advanced&#45;sensing/api/inc/dji_advanced_sensing.hpp</title>
<polygon fill="#ffffff" stroke="transparent" points="-4,4 -4,-281 751,-281 751,4 -4,4"/>
<!-- Node0 -->
<g id="node1" class="node">
<title>Node0</title>
<g id="a_node1"><a xlink:title=" ">
<polygon fill="#bfbfbf" stroke="#000000" points="360,-235.5 360,-276.5 482,-276.5 482,-235.5 360,-235.5"/>
<text text-anchor="start" x="368" y="-264.5" font-family="Helvetica,sans-Serif" font-size="10.00" fill="#000000">osdk&#45;core/advanced</text>
<text text-anchor="start" x="368" y="-253.5" font-family="Helvetica,sans-Serif" font-size="10.00" fill="#000000">&#45;sensing/api/inc/dji</text>
<text text-anchor="middle" x="421" y="-242.5" font-family="Helvetica,sans-Serif" font-size="10.00" fill="#000000">_advanced_sensing.hpp</text>
</a>
</g>
</g>
<!-- Node1 -->
<g id="node2" class="node">
<title>Node1</title>
<g id="a_node2"><a xlink:href="dji__type_8hpp.html" target="_top" xlink:title="Data type and Data Structure definitions for use throughout DJI OSDK.">
<polygon fill="#ffffff" stroke="#000000" points="155.5,-174 155.5,-193 224.5,-193 224.5,-174 155.5,-174"/>
<text text-anchor="middle" x="190" y="-181" font-family="Helvetica,sans-Serif" font-size="10.00" fill="#000000">dji_type.hpp</text>
</a>
</g>
</g>
<!-- Node0&#45;&gt;Node1 -->
<g id="edge1" class="edge">
<title>Node0&#45;&gt;Node1</title>
<path fill="none" stroke="#191970" d="M359.7878,-238.3093C322.9073,-227.4353 275.0847,-212.9546 233,-199 230.5615,-198.1914 228.052,-197.3395 225.5285,-196.468"/>
<polygon fill="#191970" stroke="#191970" points="226.4416,-193.079 215.8467,-193.0609 224.1179,-199.6821 226.4416,-193.079"/>
</g>
<!-- Node4 -->
<g id="node5" class="node">
<title>Node4</title>
<g id="a_node5"><a xlink:title=" ">
<polygon fill="#ffffff" stroke="#bfbfbf" points="460,-112.5 460,-131.5 506,-131.5 506,-112.5 460,-112.5"/>
<text text-anchor="middle" x="483" y="-119.5" font-family="Helvetica,sans-Serif" font-size="10.00" fill="#000000">cstring</text>
</a>
</g>
</g>
<!-- Node0&#45;&gt;Node4 -->
<g id="edge4" class="edge">
<title>Node0&#45;&gt;Node4</title>
<path fill="none" stroke="#191970" d="M448.9781,-235.4758C460.0261,-225.7472 471.5932,-213.1515 478,-199 486.1805,-180.9308 486.5708,-158.0056 485.4457,-141.8858"/>
<polygon fill="#191970" stroke="#191970" points="488.8899,-141.1366 484.4484,-131.5177 481.9221,-141.8069 488.8899,-141.1366"/>
</g>
<!-- Node5 -->
<g id="node6" class="node">
<title>Node5</title>
<g id="a_node6"><a xlink:title=" ">
<polygon fill="#ffffff" stroke="#bfbfbf" points="242.5,-168.5 242.5,-198.5 355.5,-198.5 355.5,-168.5 242.5,-168.5"/>
<text text-anchor="start" x="250.5" y="-186.5" font-family="Helvetica,sans-Serif" font-size="10.00" fill="#000000">dji_advanced_sensing</text>
<text text-anchor="middle" x="299" y="-175.5" font-family="Helvetica,sans-Serif" font-size="10.00" fill="#000000">_protocol.hpp</text>
</a>
</g>
</g>
<!-- Node0&#45;&gt;Node5 -->
<g id="edge5" class="edge">
<title>Node0&#45;&gt;Node5</title>
<path fill="none" stroke="#191970" d="M386.366,-235.4183C369.7231,-225.5281 349.8377,-213.7109 333.2456,-203.8509"/>
<polygon fill="#191970" stroke="#191970" points="334.7928,-200.699 324.4082,-198.5991 331.2167,-206.7166 334.7928,-200.699"/>
</g>
<!-- Node6 -->
<g id="node7" class="node">
<title>Node6</title>
<g id="a_node7"><a xlink:href="dji__version_8hpp.html" target="_top" xlink:title="Drone/SDK Version definition for DJI onboardSDK library.">
<polygon fill="#ffffff" stroke="#000000" points="55,-174 55,-193 137,-193 137,-174 55,-174"/>
<text text-anchor="middle" x="96" y="-181" font-family="Helvetica,sans-Serif" font-size="10.00" fill="#000000">dji_version.hpp</text>
</a>
</g>
</g>
<!-- Node0&#45;&gt;Node6 -->
<g id="edge6" class="edge">
<title>Node0&#45;&gt;Node6</title>
<path fill="none" stroke="#191970" d="M359.9897,-245.0992C304.0045,-234.684 218.9423,-217.819 146,-199 142.4003,-198.0713 138.6743,-197.0436 134.9544,-195.9723"/>
<polygon fill="#191970" stroke="#191970" points="135.7953,-192.5709 125.2123,-193.0726 133.7983,-199.28 135.7953,-192.5709"/>
</g>
<!-- Node12 -->
<g id="node13" class="node">
<title>Node12</title>
<g id="a_node13"><a xlink:href="dji__liveview_8hpp.html" target="_top" xlink:title="Camera liveview API of OSDK.">
<polygon fill="#ffffff" stroke="#000000" points="525,-174 525,-193 611,-193 611,-174 525,-174"/>
<text text-anchor="middle" x="568" y="-181" font-family="Helvetica,sans-Serif" font-size="10.00" fill="#000000">dji_liveview.hpp</text>
</a>
</g>
</g>
<!-- Node0&#45;&gt;Node12 -->
<g id="edge14" class="edge">
<title>Node0&#45;&gt;Node12</title>
<path fill="none" stroke="#191970" d="M462.7311,-235.4183C487.2793,-223.3112 517.682,-208.3167 539.4931,-197.5595"/>
<polygon fill="#191970" stroke="#191970" points="541.1445,-200.6477 548.5649,-193.0853 538.0482,-194.3697 541.1445,-200.6477"/>
</g>
<!-- Node14 -->
<g id="node15" class="node">
<title>Node14</title>
<g id="a_node15"><a xlink:href="dji__perception_8hpp.html" target="_top" xlink:title="Camera dji perception API of OSDK.">
<polygon fill="#ffffff" stroke="#000000" points="373.5,-174 373.5,-193 468.5,-193 468.5,-174 373.5,-174"/>
<text text-anchor="middle" x="421" y="-181" font-family="Helvetica,sans-Serif" font-size="10.00" fill="#000000">dji_perception.hpp</text>
</a>
</g>
</g>
<!-- Node0&#45;&gt;Node14 -->
<g id="edge17" class="edge">
<title>Node0&#45;&gt;Node14</title>
<path fill="none" stroke="#191970" d="M421,-235.4183C421,-225.32 421,-213.213 421,-203.2314"/>
<polygon fill="#191970" stroke="#191970" points="424.5001,-203.0853 421,-193.0853 417.5001,-203.0854 424.5001,-203.0853"/>
</g>
<!-- Node15 -->
<g id="node16" class="node">
<title>Node15</title>
<g id="a_node16"><a xlink:title=" ">
<polygon fill="#ffffff" stroke="#bfbfbf" points="629,-174 629,-193 747,-193 747,-174 629,-174"/>
<text text-anchor="middle" x="688" y="-181" font-family="Helvetica,sans-Serif" font-size="10.00" fill="#000000">dji_camera_stream.hpp</text>
</a>
</g>
</g>
<!-- Node0&#45;&gt;Node15 -->
<g id="edge20" class="edge">
<title>Node0&#45;&gt;Node15</title>
<path fill="none" stroke="#191970" d="M482.2552,-239.367C531.2473,-226.0639 598.8151,-207.7169 642.9444,-195.7342"/>
<polygon fill="#191970" stroke="#191970" points="644.0768,-199.0535 652.8102,-193.0553 642.2424,-192.2981 644.0768,-199.0535"/>
</g>
<!-- Node2 -->
<g id="node3" class="node">
<title>Node2</title>
<g id="a_node3"><a xlink:title=" ">
<polygon fill="#ffffff" stroke="#bfbfbf" points="168.5,-112.5 168.5,-131.5 211.5,-131.5 211.5,-112.5 168.5,-112.5"/>
<text text-anchor="middle" x="190" y="-119.5" font-family="Helvetica,sans-Serif" font-size="10.00" fill="#000000">cstdio</text>
</a>
</g>
</g>
<!-- Node1&#45;&gt;Node2 -->
<g id="edge2" class="edge">
<title>Node1&#45;&gt;Node2</title>
<path fill="none" stroke="#191970" d="M190,-173.8906C190,-165.3657 190,-152.6392 190,-141.9235"/>
<polygon fill="#191970" stroke="#191970" points="193.5001,-141.7448 190,-131.7449 186.5001,-141.7449 193.5001,-141.7448"/>
</g>
<!-- Node3 -->
<g id="node4" class="node">
<title>Node3</title>
<g id="a_node4"><a xlink:title=" ">
<polygon fill="#ffffff" stroke="#bfbfbf" points="215.5,-56.5 215.5,-75.5 264.5,-75.5 264.5,-56.5 215.5,-56.5"/>
<text text-anchor="middle" x="240" y="-63.5" font-family="Helvetica,sans-Serif" font-size="10.00" fill="#000000">stdint.h</text>
</a>
</g>
</g>
<!-- Node1&#45;&gt;Node3 -->
<g id="edge3" class="edge">
<title>Node1&#45;&gt;Node3</title>
<path fill="none" stroke="#191970" d="M196.4561,-173.9844C203.0699,-163.9089 213.3051,-147.3677 220,-132 226.5751,-116.9073 231.8568,-98.9874 235.3377,-85.6313"/>
<polygon fill="#191970" stroke="#191970" points="238.8036,-86.1976 237.827,-75.6479 232.0115,-84.504 238.8036,-86.1976"/>
</g>
<!-- Node7 -->
<g id="node8" class="node">
<title>Node7</title>
<g id="a_node8"><a xlink:href="dji__command_8hpp.html" target="_top" xlink:title="All DJI OSDK OpenProtocol Command IDs.">
<polygon fill="#ffffff" stroke="#000000" points="57.5,-112.5 57.5,-131.5 150.5,-131.5 150.5,-112.5 57.5,-112.5"/>
<text text-anchor="middle" x="104" y="-119.5" font-family="Helvetica,sans-Serif" font-size="10.00" fill="#000000">dji_command.hpp</text>
</a>
</g>
</g>
<!-- Node6&#45;&gt;Node7 -->
<g id="edge7" class="edge">
<title>Node6&#45;&gt;Node7</title>
<path fill="none" stroke="#191970" d="M97.25,-173.8906C98.3589,-165.3657 100.0144,-152.6392 101.4083,-141.9235"/>
<polygon fill="#191970" stroke="#191970" points="104.9131,-142.1128 102.7324,-131.7449 97.9716,-141.2098 104.9131,-142.1128"/>
</g>
<!-- Node9 -->
<g id="node10" class="node">
<title>Node9</title>
<g id="a_node10"><a xlink:title=" ">
<polygon fill="#ffffff" stroke="#bfbfbf" points="0,-.5 0,-19.5 46,-19.5 46,-.5 0,-.5"/>
<text text-anchor="middle" x="23" y="-7.5" font-family="Helvetica,sans-Serif" font-size="10.00" fill="#000000">cstdint</text>
</a>
</g>
</g>
<!-- Node6&#45;&gt;Node9 -->
<g id="edge13" class="edge">
<title>Node6&#45;&gt;Node9</title>
<path fill="none" stroke="#191970" d="M83.7502,-173.8216C72.6523,-164.3627 56.74,-148.9457 48,-132 30.8972,-98.8398 25.4921,-54.9478 23.7856,-29.8611"/>
<polygon fill="#191970" stroke="#191970" points="27.2743,-29.558 23.233,-19.7642 20.2848,-29.9406 27.2743,-29.558"/>
</g>
<!-- Node7&#45;&gt;Node3 -->
<g id="edge12" class="edge">
<title>Node7&#45;&gt;Node3</title>
<path fill="none" stroke="#191970" d="M127.3792,-112.3733C149.5045,-103.2629 182.9134,-89.5062 207.6019,-79.3404"/>
<polygon fill="#191970" stroke="#191970" points="209.0117,-82.5451 216.9258,-75.5011 206.3464,-76.0723 209.0117,-82.5451"/>
</g>
<!-- Node8 -->
<g id="node9" class="node">
<title>Node8</title>
<g id="a_node9"><a xlink:href="dji__error_8hpp.html" target="_top" xlink:title="All DJI OSDK OpenProtocol ACK Error Codes.">
<polygon fill="#ffffff" stroke="#000000" points="70,-56.5 70,-75.5 140,-75.5 140,-56.5 70,-56.5"/>
<text text-anchor="middle" x="105" y="-63.5" font-family="Helvetica,sans-Serif" font-size="10.00" fill="#000000">dji_error.hpp</text>
</a>
</g>
</g>
<!-- Node7&#45;&gt;Node8 -->
<g id="edge8" class="edge">
<title>Node7&#45;&gt;Node8</title>
<path fill="none" stroke="#191970" d="M104.1742,-112.2455C104.3047,-104.9382 104.4876,-94.6944 104.6481,-85.7046"/>
<polygon fill="#191970" stroke="#191970" points="108.1486,-85.7036 104.8278,-75.6427 101.1497,-85.5786 108.1486,-85.7036"/>
</g>
<!-- Node8&#45;&gt;Node9 -->
<g id="edge9" class="edge">
<title>Node8&#45;&gt;Node9</title>
<path fill="none" stroke="#191970" d="M90.7167,-56.2455C78.253,-47.7337 59.9549,-35.2375 45.5208,-25.3801"/>
<polygon fill="#191970" stroke="#191970" points="47.3515,-22.392 37.1196,-19.6427 43.4038,-28.1726 47.3515,-22.392"/>
</g>
<!-- Node10 -->
<g id="node11" class="node">
<title>Node10</title>
<g id="a_node11"><a xlink:title=" ">
<polygon fill="#ffffff" stroke="#bfbfbf" points="165.5,-.5 165.5,-19.5 200.5,-19.5 200.5,-.5 165.5,-.5"/>
<text text-anchor="middle" x="183" y="-7.5" font-family="Helvetica,sans-Serif" font-size="10.00" fill="#000000">map</text>
</a>
</g>
</g>
<!-- Node8&#45;&gt;Node10 -->
<g id="edge10" class="edge">
<title>Node8&#45;&gt;Node10</title>
<path fill="none" stroke="#191970" d="M118.5866,-56.2455C130.3305,-47.814 147.5199,-35.4729 161.1882,-25.6598"/>
<polygon fill="#191970" stroke="#191970" points="163.4871,-28.3179 169.5691,-19.6427 159.4046,-22.6316 163.4871,-28.3179"/>
</g>
<!-- Node11 -->
<g id="node12" class="node">
<title>Node11</title>
<g id="a_node12"><a xlink:title=" ">
<polygon fill="#ffffff" stroke="#bfbfbf" points="64.5,-.5 64.5,-19.5 147.5,-19.5 147.5,-.5 64.5,-.5"/>
<text text-anchor="middle" x="106" y="-7.5" font-family="Helvetica,sans-Serif" font-size="10.00" fill="#000000">osdk_typedef.h</text>
</a>
</g>
</g>
<!-- Node8&#45;&gt;Node11 -->
<g id="edge11" class="edge">
<title>Node8&#45;&gt;Node11</title>
<path fill="none" stroke="#191970" d="M105.1742,-56.2455C105.3047,-48.9382 105.4876,-38.6944 105.6481,-29.7046"/>
<polygon fill="#191970" stroke="#191970" points="109.1486,-29.7036 105.8278,-19.6427 102.1497,-29.5786 109.1486,-29.7036"/>
</g>
<!-- Node12&#45;&gt;Node4 -->
<g id="edge15" class="edge">
<title>Node12&#45;&gt;Node4</title>
<path fill="none" stroke="#191970" d="M554.7188,-173.8906C541.2452,-164.1421 520.178,-148.8994 504.3565,-137.4521"/>
<polygon fill="#191970" stroke="#191970" points="506.3414,-134.5682 496.188,-131.5419 502.2381,-140.2394 506.3414,-134.5682"/>
</g>
<!-- Node13 -->
<g id="node14" class="node">
<title>Node13</title>
<g id="a_node14"><a xlink:title=" ">
<polygon fill="#ffffff" stroke="#bfbfbf" points="524,-112.5 524,-131.5 638,-131.5 638,-112.5 524,-112.5"/>
<text text-anchor="middle" x="581" y="-119.5" font-family="Helvetica,sans-Serif" font-size="10.00" fill="#000000">dji_camera_image.hpp</text>
</a>
</g>
</g>
<!-- Node12&#45;&gt;Node13 -->
<g id="edge16" class="edge">
<title>Node12&#45;&gt;Node13</title>
<path fill="none" stroke="#191970" d="M570.0313,-173.8906C571.8522,-165.276 574.5802,-152.3708 576.8599,-141.5858"/>
<polygon fill="#191970" stroke="#191970" points="580.2962,-142.2525 578.9401,-131.7449 573.4476,-140.8048 580.2962,-142.2525"/>
</g>
<!-- Node14&#45;&gt;Node3 -->
<g id="edge19" class="edge">
<title>Node14&#45;&gt;Node3</title>
<path fill="none" stroke="#191970" d="M406.188,-173.8845C374.821,-153.5219 301.4736,-105.9069 263.5845,-81.3104"/>
<polygon fill="#191970" stroke="#191970" points="265.0562,-78.093 254.7628,-75.5836 261.2447,-83.9643 265.0562,-78.093"/>
</g>
<!-- Node14&#45;&gt;Node4 -->
<g id="edge18" class="edge">
<title>Node14&#45;&gt;Node4</title>
<path fill="none" stroke="#191970" d="M430.6875,-173.8906C440.0959,-164.5581 454.5807,-150.1902 465.9249,-138.9374"/>
<polygon fill="#191970" stroke="#191970" points="468.5411,-141.2722 473.1759,-131.7449 463.6114,-136.3024 468.5411,-141.2722"/>
</g>
</g>
</svg>
        <g id="navigator" transform="translate(0 0)" fill="#404254">
                <rect fill="#f2f5e9" fill-opacity="0.5" stroke="#606060" stroke-width=".5" x="0" y="0" width="60" height="60"/>
                <use id="zoomplus" xlink:href="#zoomPlus" x="17" y="9" onmousedown="handleZoom(evt,'in')"/>
                <use id="zoomminus" xlink:href="#zoomMin" x="42" y="9" onmousedown="handleZoom(evt,'out')"/>
                <use id="reset" xlink:href="#resetDef" x="30" y="36" onmousedown="handleReset()"/>
                <g id="arrowUp" xlink:href="#dirArrow" transform="translate(30 24)" onmousedown="handlePan(0,-1)">
                  <use xlink:href="#rim" fill="#404040">
                        <set attributeName="fill" to="#808080" begin="arrowUp.mouseover" end="arrowUp.mouseout"/>
                  </use>
                  <path fill="none" stroke="white" stroke-width="1.5" d="M0,-3.0v7 M-2.5,-0.5L0,-3.0L2.5,-0.5"/>
                </g>
                <g id="arrowRight" xlink:href="#dirArrow" transform="rotate(90) translate(36 -43)" onmousedown="handlePan(1,0)">
                  <use xlink:href="#rim" fill="#404040">
                        <set attributeName="fill" to="#808080" begin="arrowRight.mouseover" end="arrowRight.mouseout"/>
                  </use>
                  <path fill="none" stroke="white" stroke-width="1.5" d="M0,-3.0v7 M-2.5,-0.5L0,-3.0L2.5,-0.5"/>
                </g>
                <g id="arrowDown" xlink:href="#dirArrow" transform="rotate(180) translate(-30 -48)" onmousedown="handlePan(0,1)">
                  <use xlink:href="#rim" fill="#404040">
                        <set attributeName="fill" to="#808080" begin="arrowDown.mouseover" end="arrowDown.mouseout"/>
                  </use>
                  <path fill="none" stroke="white" stroke-width="1.5" d="M0,-3.0v7 M-2.5,-0.5L0,-3.0L2.5,-0.5"/>
                </g>
                <g id="arrowLeft" xlink:href="#dirArrow" transform="rotate(270) translate(-36 17)" onmousedown="handlePan(-1,0)">
                  <use xlink:href="#rim" fill="#404040">
                        <set attributeName="fill" to="#808080" begin="arrowLeft.mouseover" end="arrowLeft.mouseout"/>
                  </use>
                  <path fill="none" stroke="white" stroke-width="1.5" d="M0,-3.0v7 M-2.5,-0.5L0,-3.0L2.5,-0.5"/>
                </g>
        </g>
        <svg viewBox="0 0 15 15" width="100%" height="30px" preserveAspectRatio="xMaxYMin meet">
         <g id="arrow_out" transform="scale(0.3 0.3)">
          <a xlink:href="dji__advanced__sensing_8hpp__incl_org.svg" target="_base">
           <rect id="button" ry="5" rx="5" y="6" x="6" height="38" width="38"
                fill="#f2f5e9" fill-opacity="0.5" stroke="#606060" stroke-width="1.0"/>
           <path id="arrow"
             d="M 11.500037,31.436501 C 11.940474,20.09759 22.043105,11.32322 32.158766,21.979434 L 37.068811,17.246167 C 37.068811,17.246167 37.088388,32 37.088388,32 L 22.160133,31.978069 C 22.160133,31.978069 26.997745,27.140456 26.997745,27.140456 C 18.528582,18.264221 13.291696,25.230495 11.500037,31.436501 z"
             style="fill:#404040;"/>
          </a>
         </g>
        </svg>
</svg>
