<?xml version="1.0" encoding="UTF-8" standalone="no"?>
<!DOCTYPE svg PUBLIC "-//W3C//DTD SVG 1.1//EN"
 "http://www.w3.org/Graphics/SVG/1.1/DTD/svg11.dtd">
<!-- Generated by graphviz version 2.40.1 (20161225.0304)
 -->
<!-- Title: osdk&#45;core/api/inc/dji_mission_manager.hpp Pages: 1 -->
<svg width="400pt" height="319pt"
 viewBox="0.00 0.00 400.00 319.00" xmlns="http://www.w3.org/2000/svg" xmlns:xlink="http://www.w3.org/1999/xlink">
<g id="graph0" class="graph" transform="scale(1 1) rotate(0) translate(4 315)">
<title>osdk&#45;core/api/inc/dji_mission_manager.hpp</title>
<polygon fill="#ffffff" stroke="transparent" points="-4,4 -4,-315 396,-315 396,4 -4,4"/>
<!-- Node0 -->
<g id="node1" class="node">
<title>Node0</title>
<g id="a_node1"><a xlink:title="Mission&#45;Manager API for DJI OSDK library.">
<polygon fill="#bfbfbf" stroke="#000000" points="228.5,-280.5 228.5,-310.5 345.5,-310.5 345.5,-280.5 228.5,-280.5"/>
<text text-anchor="start" x="236.5" y="-298.5" font-family="Helvetica,sans-Serif" font-size="10.00" fill="#000000">osdk&#45;core/api/inc/dji</text>
<text text-anchor="middle" x="287" y="-287.5" font-family="Helvetica,sans-Serif" font-size="10.00" fill="#000000">_mission_manager.hpp</text>
</a>
</g>
</g>
<!-- Node1 -->
<g id="node2" class="node">
<title>Node1</title>
<g id="a_node2"><a xlink:href="dji__hotpoint_8hpp.html" target="_top" xlink:title="Implementation of HotPoint (Point of Interest) Missions for DJI OSDK.">
<polygon fill="#ffffff" stroke="#000000" points="244.5,-224.5 244.5,-243.5 329.5,-243.5 329.5,-224.5 244.5,-224.5"/>
<text text-anchor="middle" x="287" y="-231.5" font-family="Helvetica,sans-Serif" font-size="10.00" fill="#000000">dji_hotpoint.hpp</text>
</a>
</g>
</g>
<!-- Node0&#45;&gt;Node1 -->
<g id="edge1" class="edge">
<title>Node0&#45;&gt;Node1</title>
<path fill="none" stroke="#191970" d="M287,-280.2977C287,-272.3834 287,-262.6043 287,-254.0759"/>
<polygon fill="#191970" stroke="#191970" points="290.5001,-253.8469 287,-243.8469 283.5001,-253.847 290.5001,-253.8469"/>
</g>
<!-- Node14 -->
<g id="node15" class="node">
<title>Node14</title>
<g id="a_node15"><a xlink:href="dji__waypoint_8hpp.html" target="_top" xlink:title="Implementation of GPS Waypoint Missions for DJI OSDK.">
<polygon fill="#ffffff" stroke="#000000" points="137.5,-224.5 137.5,-243.5 226.5,-243.5 226.5,-224.5 137.5,-224.5"/>
<text text-anchor="middle" x="182" y="-231.5" font-family="Helvetica,sans-Serif" font-size="10.00" fill="#000000">dji_waypoint.hpp</text>
</a>
</g>
</g>
<!-- Node0&#45;&gt;Node14 -->
<g id="edge16" class="edge">
<title>Node0&#45;&gt;Node14</title>
<path fill="none" stroke="#191970" d="M261.3141,-280.4554C244.8703,-270.8241 223.6292,-258.3828 207.2677,-248.7996"/>
<polygon fill="#191970" stroke="#191970" points="208.669,-245.5643 198.2713,-243.5303 205.1312,-251.6045 208.669,-245.5643"/>
</g>
<!-- Node15 -->
<g id="node16" class="node">
<title>Node15</title>
<g id="a_node16"><a xlink:title=" ">
<polygon fill="#ffffff" stroke="#bfbfbf" points="348,-224.5 348,-243.5 392,-243.5 392,-224.5 348,-224.5"/>
<text text-anchor="middle" x="370" y="-231.5" font-family="Helvetica,sans-Serif" font-size="10.00" fill="#000000">vector</text>
</a>
</g>
</g>
<!-- Node0&#45;&gt;Node15 -->
<g id="edge18" class="edge">
<title>Node0&#45;&gt;Node15</title>
<path fill="none" stroke="#191970" d="M307.5169,-280.2977C319.9982,-271.0495 335.9159,-259.2551 348.5614,-249.8853"/>
<polygon fill="#191970" stroke="#191970" points="350.7596,-252.6126 356.7106,-243.8469 346.5922,-246.9882 350.7596,-252.6126"/>
</g>
<!-- Node2 -->
<g id="node3" class="node">
<title>Node2</title>
<g id="a_node3"><a xlink:href="dji__mission__base_8hpp.html" target="_top" xlink:title="Mission&#45;Base abstract class for DJI OSDK library.">
<polygon fill="#ffffff" stroke="#000000" points="127,-168.5 127,-187.5 237,-187.5 237,-168.5 127,-168.5"/>
<text text-anchor="middle" x="182" y="-175.5" font-family="Helvetica,sans-Serif" font-size="10.00" fill="#000000">dji_mission_base.hpp</text>
</a>
</g>
</g>
<!-- Node1&#45;&gt;Node2 -->
<g id="edge2" class="edge">
<title>Node1&#45;&gt;Node2</title>
<path fill="none" stroke="#191970" d="M268.7104,-224.2455C252.2238,-215.4527 227.7648,-202.4079 209.0235,-192.4125"/>
<polygon fill="#191970" stroke="#191970" points="210.5506,-189.2604 200.08,-187.6427 207.2565,-195.4368 210.5506,-189.2604"/>
</g>
<!-- Node13 -->
<g id="node14" class="node">
<title>Node13</title>
<g id="a_node14"><a xlink:href="dji__telemetry_8hpp.html" target="_top" xlink:title="Enumeration of all telemetry data types, structures and maps.">
<polygon fill="#ffffff" stroke="#000000" points="255.5,-168.5 255.5,-187.5 346.5,-187.5 346.5,-168.5 255.5,-168.5"/>
<text text-anchor="middle" x="301" y="-175.5" font-family="Helvetica,sans-Serif" font-size="10.00" fill="#000000">dji_telemetry.hpp</text>
</a>
</g>
</g>
<!-- Node1&#45;&gt;Node13 -->
<g id="edge14" class="edge">
<title>Node1&#45;&gt;Node13</title>
<path fill="none" stroke="#191970" d="M289.4386,-224.2455C291.2855,-216.8579 293.8828,-206.4689 296.1478,-197.4087"/>
<polygon fill="#191970" stroke="#191970" points="299.5594,-198.193 298.5893,-187.6427 292.7684,-196.4952 299.5594,-198.193"/>
</g>
<!-- Node3 -->
<g id="node4" class="node">
<title>Node3</title>
<g id="a_node4"><a xlink:href="dji__command_8hpp.html" target="_top" xlink:title="All DJI OSDK OpenProtocol Command IDs.">
<polygon fill="#ffffff" stroke="#000000" points="140.5,-112.5 140.5,-131.5 233.5,-131.5 233.5,-112.5 140.5,-112.5"/>
<text text-anchor="middle" x="187" y="-119.5" font-family="Helvetica,sans-Serif" font-size="10.00" fill="#000000">dji_command.hpp</text>
</a>
</g>
</g>
<!-- Node2&#45;&gt;Node3 -->
<g id="edge3" class="edge">
<title>Node2&#45;&gt;Node3</title>
<path fill="none" stroke="#191970" d="M182.8709,-168.2455C183.5234,-160.9382 184.438,-150.6944 185.2407,-141.7046"/>
<polygon fill="#191970" stroke="#191970" points="188.7358,-141.9143 186.139,-131.6427 181.7635,-141.2918 188.7358,-141.9143"/>
</g>
<!-- Node9 -->
<g id="node10" class="node">
<title>Node9</title>
<g id="a_node10"><a xlink:href="dji__type_8hpp.html" target="_top" xlink:title="Data type and Data Structure definitions for use throughout DJI OSDK.">
<polygon fill="#ffffff" stroke="#000000" points="261.5,-112.5 261.5,-131.5 330.5,-131.5 330.5,-112.5 261.5,-112.5"/>
<text text-anchor="middle" x="296" y="-119.5" font-family="Helvetica,sans-Serif" font-size="10.00" fill="#000000">dji_type.hpp</text>
</a>
</g>
</g>
<!-- Node2&#45;&gt;Node9 -->
<g id="edge9" class="edge">
<title>Node2&#45;&gt;Node9</title>
<path fill="none" stroke="#191970" d="M201.5973,-168.3733C219.7331,-159.4644 246.9135,-146.1127 267.4587,-136.0203"/>
<polygon fill="#191970" stroke="#191970" points="269.2261,-139.0517 276.6584,-131.5011 266.1397,-132.7688 269.2261,-139.0517"/>
</g>
<!-- Node11 -->
<g id="node12" class="node">
<title>Node11</title>
<g id="a_node12"><a xlink:href="dji__vehicle__callback_8hpp.html" target="_top" xlink:title="Type definition for new Vehicle&#45;style callbacks.">
<polygon fill="#ffffff" stroke="#000000" points="0,-112.5 0,-131.5 122,-131.5 122,-112.5 0,-112.5"/>
<text text-anchor="middle" x="61" y="-119.5" font-family="Helvetica,sans-Serif" font-size="10.00" fill="#000000">dji_vehicle_callback.hpp</text>
</a>
</g>
</g>
<!-- Node2&#45;&gt;Node11 -->
<g id="edge12" class="edge">
<title>Node2&#45;&gt;Node11</title>
<path fill="none" stroke="#191970" d="M161.1994,-168.3733C141.7757,-159.3838 112.5776,-145.8706 90.7036,-135.7471"/>
<polygon fill="#191970" stroke="#191970" points="92.0745,-132.5249 81.5292,-131.5011 89.1344,-138.8776 92.0745,-132.5249"/>
</g>
<!-- Node4 -->
<g id="node5" class="node">
<title>Node4</title>
<g id="a_node5"><a xlink:href="dji__error_8hpp.html" target="_top" xlink:title="All DJI OSDK OpenProtocol ACK Error Codes.">
<polygon fill="#ffffff" stroke="#000000" points="143,-56.5 143,-75.5 213,-75.5 213,-56.5 143,-56.5"/>
<text text-anchor="middle" x="178" y="-63.5" font-family="Helvetica,sans-Serif" font-size="10.00" fill="#000000">dji_error.hpp</text>
</a>
</g>
</g>
<!-- Node3&#45;&gt;Node4 -->
<g id="edge4" class="edge">
<title>Node3&#45;&gt;Node4</title>
<path fill="none" stroke="#191970" d="M185.4323,-112.2455C184.2579,-104.9382 182.6116,-94.6944 181.1668,-85.7046"/>
<polygon fill="#191970" stroke="#191970" points="184.5922,-84.9606 179.5497,-75.6427 177.6809,-86.0714 184.5922,-84.9606"/>
</g>
<!-- Node8 -->
<g id="node9" class="node">
<title>Node8</title>
<g id="a_node9"><a xlink:title=" ">
<polygon fill="#ffffff" stroke="#bfbfbf" points="231.5,-56.5 231.5,-75.5 280.5,-75.5 280.5,-56.5 231.5,-56.5"/>
<text text-anchor="middle" x="256" y="-63.5" font-family="Helvetica,sans-Serif" font-size="10.00" fill="#000000">stdint.h</text>
</a>
</g>
</g>
<!-- Node3&#45;&gt;Node8 -->
<g id="edge8" class="edge">
<title>Node3&#45;&gt;Node8</title>
<path fill="none" stroke="#191970" d="M199.0189,-112.2455C209.2098,-103.9746 224.0362,-91.9416 236.0107,-82.2232"/>
<polygon fill="#191970" stroke="#191970" points="238.5598,-84.662 244.1188,-75.6427 234.1486,-79.2268 238.5598,-84.662"/>
</g>
<!-- Node5 -->
<g id="node6" class="node">
<title>Node5</title>
<g id="a_node6"><a xlink:title=" ">
<polygon fill="#ffffff" stroke="#bfbfbf" points="72,-.5 72,-19.5 118,-19.5 118,-.5 72,-.5"/>
<text text-anchor="middle" x="95" y="-7.5" font-family="Helvetica,sans-Serif" font-size="10.00" fill="#000000">cstdint</text>
</a>
</g>
</g>
<!-- Node4&#45;&gt;Node5 -->
<g id="edge5" class="edge">
<title>Node4&#45;&gt;Node5</title>
<path fill="none" stroke="#191970" d="M163.5425,-56.2455C150.9268,-47.7337 132.4056,-35.2375 117.7955,-25.3801"/>
<polygon fill="#191970" stroke="#191970" points="119.5391,-22.3343 109.2918,-19.6427 115.6239,-28.1371 119.5391,-22.3343"/>
</g>
<!-- Node6 -->
<g id="node7" class="node">
<title>Node6</title>
<g id="a_node7"><a xlink:title=" ">
<polygon fill="#ffffff" stroke="#bfbfbf" points="136.5,-.5 136.5,-19.5 219.5,-19.5 219.5,-.5 136.5,-.5"/>
<text text-anchor="middle" x="178" y="-7.5" font-family="Helvetica,sans-Serif" font-size="10.00" fill="#000000">dji_macros.hpp</text>
</a>
</g>
</g>
<!-- Node4&#45;&gt;Node6 -->
<g id="edge6" class="edge">
<title>Node4&#45;&gt;Node6</title>
<path fill="none" stroke="#191970" d="M178,-56.2455C178,-48.9382 178,-38.6944 178,-29.7046"/>
<polygon fill="#191970" stroke="#191970" points="181.5001,-29.6426 178,-19.6427 174.5001,-29.6427 181.5001,-29.6426"/>
</g>
<!-- Node7 -->
<g id="node8" class="node">
<title>Node7</title>
<g id="a_node8"><a xlink:title=" ">
<polygon fill="#ffffff" stroke="#bfbfbf" points="237.5,-.5 237.5,-19.5 272.5,-19.5 272.5,-.5 237.5,-.5"/>
<text text-anchor="middle" x="255" y="-7.5" font-family="Helvetica,sans-Serif" font-size="10.00" fill="#000000">map</text>
</a>
</g>
</g>
<!-- Node4&#45;&gt;Node7 -->
<g id="edge7" class="edge">
<title>Node4&#45;&gt;Node7</title>
<path fill="none" stroke="#191970" d="M191.4124,-56.2455C203.0057,-47.814 219.9748,-35.4729 233.4678,-25.6598"/>
<polygon fill="#191970" stroke="#191970" points="235.7126,-28.355 241.7413,-19.6427 231.5953,-22.6938 235.7126,-28.355"/>
</g>
<!-- Node9&#45;&gt;Node8 -->
<g id="edge11" class="edge">
<title>Node9&#45;&gt;Node8</title>
<path fill="none" stroke="#191970" d="M289.0325,-112.2455C283.4689,-104.4564 275.522,-93.3308 268.8171,-83.9439"/>
<polygon fill="#191970" stroke="#191970" points="271.5481,-81.7457 262.8876,-75.6427 265.852,-85.8144 271.5481,-81.7457"/>
</g>
<!-- Node10 -->
<g id="node11" class="node">
<title>Node10</title>
<g id="a_node11"><a xlink:title=" ">
<polygon fill="#ffffff" stroke="#bfbfbf" points="298.5,-56.5 298.5,-75.5 341.5,-75.5 341.5,-56.5 298.5,-56.5"/>
<text text-anchor="middle" x="320" y="-63.5" font-family="Helvetica,sans-Serif" font-size="10.00" fill="#000000">cstdio</text>
</a>
</g>
</g>
<!-- Node9&#45;&gt;Node10 -->
<g id="edge10" class="edge">
<title>Node9&#45;&gt;Node10</title>
<path fill="none" stroke="#191970" d="M300.1805,-112.2455C303.381,-104.7776 307.896,-94.2427 311.8084,-85.1137"/>
<polygon fill="#191970" stroke="#191970" points="315.1452,-86.2129 315.8674,-75.6427 308.7112,-83.4554 315.1452,-86.2129"/>
</g>
<!-- Node12 -->
<g id="node13" class="node">
<title>Node12</title>
<g id="a_node13"><a xlink:title=" ">
<polygon fill="#ffffff" stroke="#bfbfbf" points="5.5,-56.5 5.5,-75.5 116.5,-75.5 116.5,-56.5 5.5,-56.5"/>
<text text-anchor="middle" x="61" y="-63.5" font-family="Helvetica,sans-Serif" font-size="10.00" fill="#000000">dji_open_protocol.hpp</text>
</a>
</g>
</g>
<!-- Node11&#45;&gt;Node12 -->
<g id="edge13" class="edge">
<title>Node11&#45;&gt;Node12</title>
<path fill="none" stroke="#191970" d="M61,-112.2455C61,-104.9382 61,-94.6944 61,-85.7046"/>
<polygon fill="#191970" stroke="#191970" points="64.5001,-85.6426 61,-75.6427 57.5001,-85.6427 64.5001,-85.6426"/>
</g>
<!-- Node13&#45;&gt;Node9 -->
<g id="edge15" class="edge">
<title>Node13&#45;&gt;Node9</title>
<path fill="none" stroke="#191970" d="M300.1291,-168.2455C299.4766,-160.9382 298.562,-150.6944 297.7593,-141.7046"/>
<polygon fill="#191970" stroke="#191970" points="301.2365,-141.2918 296.861,-131.6427 294.2642,-141.9143 301.2365,-141.2918"/>
</g>
<!-- Node14&#45;&gt;Node2 -->
<g id="edge17" class="edge">
<title>Node14&#45;&gt;Node2</title>
<path fill="none" stroke="#191970" d="M182,-224.2455C182,-216.9382 182,-206.6944 182,-197.7046"/>
<polygon fill="#191970" stroke="#191970" points="185.5001,-197.6426 182,-187.6427 178.5001,-197.6427 185.5001,-197.6426"/>
</g>
</g>
</svg>
