<?xml version="1.0" encoding="UTF-8" standalone="no"?>
<!DOCTYPE svg PUBLIC "-//W3C//DTD SVG 1.1//EN"
 "http://www.w3.org/Graphics/SVG/1.1/DTD/svg11.dtd">
<!-- Generated by graphviz version 2.38.0 (20140413.2041)
 -->
<!-- Title: osdk&#45;core/api/src/dji_vehicle.cpp Pages: 1 -->
<svg width="2353pt" height="431pt"
 viewBox="0.00 0.00 2352.61 431.00" xmlns="http://www.w3.org/2000/svg" xmlns:xlink="http://www.w3.org/1999/xlink">
<g id="graph0" class="graph" transform="scale(1 1) rotate(0) translate(4 427)">
<title>osdk&#45;core/api/src/dji_vehicle.cpp</title>
<polygon fill="white" stroke="none" points="-4,4 -4,-427 2348.61,-427 2348.61,4 -4,4"/>
<!-- Node1 -->
<g id="node1" class="node"><title>Node1</title>
<polygon fill="#bfbfbf" stroke="black" points="1229.61,-392.5 1229.61,-422.5 1333.61,-422.5 1333.61,-392.5 1229.61,-392.5"/>
<text text-anchor="start" x="1237.61" y="-410.5" font-family="Helvetica,sans-Serif" font-size="10.00">osdk&#45;core/api/src/dji</text>
<text text-anchor="middle" x="1281.61" y="-399.5" font-family="Helvetica,sans-Serif" font-size="10.00">_vehicle.cpp</text>
</g>
<!-- Node2 -->
<g id="node2" class="node"><title>Node2</title>
<g id="a_node2"><a xlink:href="dji__vehicle_8hpp.html" target="_top" xlink:title="Vehicle API for DJI onboardSDK library. ">
<polygon fill="white" stroke="black" points="1203.11,-336.5 1203.11,-355.5 1284.11,-355.5 1284.11,-336.5 1203.11,-336.5"/>
<text text-anchor="middle" x="1243.61" y="-343.5" font-family="Helvetica,sans-Serif" font-size="10.00">dji_vehicle.hpp</text>
</a>
</g>
</g>
<!-- Node1&#45;&gt;Node2 -->
<g id="edge1" class="edge"><title>Node1&#45;&gt;Node2</title>
<path fill="none" stroke="midnightblue" d="M1272.61,-392.399C1267.2,-383.932 1260.28,-373.099 1254.56,-364.139"/>
<polygon fill="midnightblue" stroke="midnightblue" points="1257.48,-362.202 1249.14,-355.658 1251.58,-365.97 1257.48,-362.202"/>
</g>
<!-- Node39 -->
<g id="node39" class="node"><title>Node39</title>
<polygon fill="white" stroke="#bfbfbf" points="1302.11,-336.5 1302.11,-355.5 1337.11,-355.5 1337.11,-336.5 1302.11,-336.5"/>
<text text-anchor="middle" x="1319.61" y="-343.5" font-family="Helvetica,sans-Serif" font-size="10.00">new</text>
</g>
<!-- Node1&#45;&gt;Node39 -->
<g id="edge73" class="edge"><title>Node1&#45;&gt;Node39</title>
<path fill="none" stroke="midnightblue" d="M1290.62,-392.399C1296.03,-383.932 1302.95,-373.099 1308.67,-364.139"/>
<polygon fill="midnightblue" stroke="midnightblue" points="1311.65,-365.97 1314.08,-355.658 1305.75,-362.202 1311.65,-365.97"/>
</g>
<!-- Node3 -->
<g id="node3" class="node"><title>Node3</title>
<polygon fill="white" stroke="#bfbfbf" points="27.6135,-112.5 27.6135,-131.5 73.6135,-131.5 73.6135,-112.5 27.6135,-112.5"/>
<text text-anchor="middle" x="50.6135" y="-119.5" font-family="Helvetica,sans-Serif" font-size="10.00">cstdint</text>
</g>
<!-- Node2&#45;&gt;Node3 -->
<g id="edge2" class="edge"><title>Node2&#45;&gt;Node3</title>
<path fill="none" stroke="midnightblue" d="M1203.01,-344.527C1018.14,-342.21 260.713,-330.895 159.613,-300 90.1546,-278.774 57.3003,-258.687 40.6135,-188 36.9656,-172.547 40.2317,-154.703 43.9766,-141.624"/>
<polygon fill="midnightblue" stroke="midnightblue" points="47.3688,-142.508 47.0937,-131.917 40.7039,-140.368 47.3688,-142.508"/>
</g>
<!-- Node4 -->
<g id="node4" class="node"><title>Node4</title>
<g id="a_node4"><a xlink:href="dji__broadcast_8hpp.html" target="_top" xlink:title="Broadcast Telemetry API for DJI onboardSDK library. ">
<polygon fill="white" stroke="black" points="1031.11,-224.5 1031.11,-243.5 1124.11,-243.5 1124.11,-224.5 1031.11,-224.5"/>
<text text-anchor="middle" x="1077.61" y="-231.5" font-family="Helvetica,sans-Serif" font-size="10.00">dji_broadcast.hpp</text>
</a>
</g>
</g>
<!-- Node2&#45;&gt;Node4 -->
<g id="edge3" class="edge"><title>Node2&#45;&gt;Node4</title>
<path fill="none" stroke="midnightblue" d="M1230.59,-336.368C1202.1,-317.492 1134.03,-272.385 1099.1,-249.237"/>
<polygon fill="midnightblue" stroke="midnightblue" points="1100.85,-246.198 1090.58,-243.591 1096.98,-252.033 1100.85,-246.198"/>
</g>
<!-- Node6 -->
<g id="node6" class="node"><title>Node6</title>
<g id="a_node6"><a xlink:href="dji__type_8hpp.html" target="_top" xlink:title="Data type and Data Structure definitions for use throughout DJI OSDK. ">
<polygon fill="white" stroke="black" points="451.113,-112.5 451.113,-131.5 520.113,-131.5 520.113,-112.5 451.113,-112.5"/>
<text text-anchor="middle" x="485.613" y="-119.5" font-family="Helvetica,sans-Serif" font-size="10.00">dji_type.hpp</text>
</a>
</g>
</g>
<!-- Node2&#45;&gt;Node6 -->
<g id="edge65" class="edge"><title>Node2&#45;&gt;Node6</title>
<path fill="none" stroke="midnightblue" d="M1202.95,-344.408C1025.38,-341.662 322.739,-329.035 228.613,-300 138.217,-272.115 93.6578,-270.638 47.6135,-188 43.287,-180.235 41.6579,-174.599 47.6135,-168 73.6354,-139.168 334.386,-127.753 440.774,-124.273"/>
<polygon fill="midnightblue" stroke="midnightblue" points="440.991,-127.768 450.874,-123.951 440.768,-120.771 440.991,-127.768"/>
</g>
<!-- Node9 -->
<g id="node9" class="node"><title>Node9</title>
<g id="a_node9"><a xlink:href="dji__vehicle__callback_8hpp.html" target="_top" xlink:title="Type definition for new Vehicle&#45;style callbacks. ">
<polygon fill="white" stroke="black" points="1216.61,-112.5 1216.61,-131.5 1338.61,-131.5 1338.61,-112.5 1216.61,-112.5"/>
<text text-anchor="middle" x="1277.61" y="-119.5" font-family="Helvetica,sans-Serif" font-size="10.00">dji_vehicle_callback.hpp</text>
</a>
</g>
</g>
<!-- Node2&#45;&gt;Node9 -->
<g id="edge66" class="edge"><title>Node2&#45;&gt;Node9</title>
<path fill="none" stroke="midnightblue" d="M1284.22,-337.315C1287.06,-336.848 1289.88,-336.404 1292.61,-336 1363.84,-325.49 1553.2,-337.581 1614.61,-300 1640.06,-284.43 1643.03,-272.569 1651.61,-244 1654.17,-235.487 1656.92,-231.134 1651.61,-224 1615.67,-175.645 1446.86,-145.504 1348.76,-131.767"/>
<polygon fill="midnightblue" stroke="midnightblue" points="1349,-128.267 1338.62,-130.37 1348.05,-135.202 1349,-128.267"/>
</g>
<!-- Node10 -->
<g id="node10" class="node"><title>Node10</title>
<polygon fill="white" stroke="#bfbfbf" points="1005.11,-56.5 1005.11,-75.5 1116.11,-75.5 1116.11,-56.5 1005.11,-56.5"/>
<text text-anchor="middle" x="1060.61" y="-63.5" font-family="Helvetica,sans-Serif" font-size="10.00">dji_open_protocol.hpp</text>
</g>
<!-- Node2&#45;&gt;Node10 -->
<g id="edge57" class="edge"><title>Node2&#45;&gt;Node10</title>
<path fill="none" stroke="midnightblue" d="M1284.22,-337.29C1287.05,-336.829 1289.87,-336.393 1292.61,-336 1446.09,-313.978 1498.64,-364.561 1639.61,-300 1677.92,-282.457 1708.61,-277.131 1708.61,-235 1708.61,-235 1708.61,-235 1708.61,-177 1708.61,-118.356 1290.77,-82.9646 1126.14,-71.2969"/>
<polygon fill="midnightblue" stroke="midnightblue" points="1126.36,-67.8037 1116.14,-70.5952 1125.87,-74.7866 1126.36,-67.8037"/>
</g>
<!-- Node11 -->
<g id="node11" class="node"><title>Node11</title>
<g id="a_node11"><a xlink:href="dji__camera_8hpp.html" target="_top" xlink:title="Camera/Gimbal API for DJI onboardSDK library. ">
<polygon fill="white" stroke="black" points="489.113,-168.5 489.113,-187.5 572.113,-187.5 572.113,-168.5 489.113,-168.5"/>
<text text-anchor="middle" x="530.613" y="-175.5" font-family="Helvetica,sans-Serif" font-size="10.00">dji_camera.hpp</text>
</a>
</g>
</g>
<!-- Node2&#45;&gt;Node11 -->
<g id="edge10" class="edge"><title>Node2&#45;&gt;Node11</title>
<path fill="none" stroke="midnightblue" d="M1202.93,-343.158C1102.92,-338.311 847.312,-323.907 765.613,-300 681.034,-275.25 591.107,-219.541 551.452,-193.25"/>
<polygon fill="midnightblue" stroke="midnightblue" points="553.382,-190.33 543.126,-187.67 549.484,-196.145 553.382,-190.33"/>
</g>
<!-- Node12 -->
<g id="node12" class="node"><title>Node12</title>
<g id="a_node12"><a xlink:href="dji__command_8hpp.html" target="_top" xlink:title="All DJI OSDK OpenProtocol Command IDs. ">
<polygon fill="white" stroke="black" points="552.113,-112.5 552.113,-131.5 645.113,-131.5 645.113,-112.5 552.113,-112.5"/>
<text text-anchor="middle" x="598.613" y="-119.5" font-family="Helvetica,sans-Serif" font-size="10.00">dji_command.hpp</text>
</a>
</g>
</g>
<!-- Node2&#45;&gt;Node12 -->
<g id="edge17" class="edge"><title>Node2&#45;&gt;Node12</title>
<path fill="none" stroke="midnightblue" d="M1202.88,-336.403C1153.67,-324.027 1071.32,-296.65 1021.61,-244 996.684,-217.595 1020.43,-190.104 991.613,-168 940.225,-128.575 751.202,-122.817 655.268,-122.518"/>
<polygon fill="midnightblue" stroke="midnightblue" points="655.168,-119.018 645.163,-122.505 655.159,-126.018 655.168,-119.018"/>
</g>
<!-- Node14 -->
<g id="node14" class="node"><title>Node14</title>
<polygon fill="white" stroke="#bfbfbf" points="1736.61,-280.5 1736.61,-299.5 1848.61,-299.5 1848.61,-280.5 1736.61,-280.5"/>
<text text-anchor="middle" x="1792.61" y="-287.5" font-family="Helvetica,sans-Serif" font-size="10.00">dji_circular_buffer.hpp</text>
</g>
<!-- Node2&#45;&gt;Node14 -->
<g id="edge16" class="edge"><title>Node2&#45;&gt;Node14</title>
<path fill="none" stroke="midnightblue" d="M1284.21,-337.227C1287.05,-336.781 1289.87,-336.366 1292.61,-336 1482.71,-310.647 1531.9,-320.233 1722.61,-300 1723.88,-299.865 1725.16,-299.727 1726.45,-299.585"/>
<polygon fill="midnightblue" stroke="midnightblue" points="1726.94,-303.053 1736.48,-298.44 1726.14,-296.098 1726.94,-303.053"/>
</g>
<!-- Node15 -->
<g id="node15" class="node"><title>Node15</title>
<g id="a_node15"><a xlink:href="dji__control_8hpp.html" target="_top" xlink:title="Control API for DJI OSDK library. ">
<polygon fill="white" stroke="black" points="431.613,-280.5 431.613,-299.5 511.613,-299.5 511.613,-280.5 431.613,-280.5"/>
<text text-anchor="middle" x="471.613" y="-287.5" font-family="Helvetica,sans-Serif" font-size="10.00">dji_control.hpp</text>
</a>
</g>
</g>
<!-- Node2&#45;&gt;Node15 -->
<g id="edge18" class="edge"><title>Node2&#45;&gt;Node15</title>
<path fill="none" stroke="midnightblue" d="M1203,-343.914C1093.39,-340.668 782.477,-329.376 525.613,-300 524.339,-299.854 523.048,-299.699 521.747,-299.535"/>
<polygon fill="midnightblue" stroke="midnightblue" points="522.038,-296.042 511.654,-298.143 521.081,-302.977 522.038,-296.042"/>
</g>
<!-- Node18 -->
<g id="node18" class="node"><title>Node18</title>
<g id="a_node18"><a xlink:href="dji__version_8hpp.html" target="_top" xlink:title="Drone/SDK Version definition for DJI onboardSDK library. ">
<polygon fill="white" stroke="black" points="56.6135,-168.5 56.6135,-187.5 138.613,-187.5 138.613,-168.5 56.6135,-168.5"/>
<text text-anchor="middle" x="97.6135" y="-175.5" font-family="Helvetica,sans-Serif" font-size="10.00">dji_version.hpp</text>
</a>
</g>
</g>
<!-- Node2&#45;&gt;Node18 -->
<g id="edge67" class="edge"><title>Node2&#45;&gt;Node18</title>
<path fill="none" stroke="midnightblue" d="M1202.99,-344.429C1030.37,-341.828 362.549,-329.9 273.613,-300 207.076,-277.63 142.7,-222.175 113.675,-194.801"/>
<polygon fill="midnightblue" stroke="midnightblue" points="115.784,-191.974 106.145,-187.574 110.937,-197.024 115.784,-191.974"/>
</g>
<!-- Node20 -->
<g id="node20" class="node"><title>Node20</title>
<g id="a_node20"><a xlink:href="dji__gimbal_8hpp.html" target="_top" xlink:title="Gimbal API for OSDK library. ">
<polygon fill="white" stroke="black" points="590.113,-168.5 590.113,-187.5 669.113,-187.5 669.113,-168.5 590.113,-168.5"/>
<text text-anchor="middle" x="629.613" y="-175.5" font-family="Helvetica,sans-Serif" font-size="10.00">dji_gimbal.hpp</text>
</a>
</g>
</g>
<!-- Node2&#45;&gt;Node20 -->
<g id="edge31" class="edge"><title>Node2&#45;&gt;Node20</title>
<path fill="none" stroke="midnightblue" d="M1202.98,-345.719C1126.02,-345.993 954.467,-341.391 817.613,-300 746.977,-278.636 677.566,-222.265 646.521,-194.669"/>
<polygon fill="midnightblue" stroke="midnightblue" points="648.578,-191.811 638.813,-187.701 643.884,-197.004 648.578,-191.811"/>
</g>
<!-- Node21 -->
<g id="node21" class="node"><title>Node21</title>
<polygon fill="white" stroke="#bfbfbf" points="1866.61,-280.5 1866.61,-299.5 1964.61,-299.5 1964.61,-280.5 1866.61,-280.5"/>
<text text-anchor="middle" x="1915.61" y="-287.5" font-family="Helvetica,sans-Serif" font-size="10.00">dji_hard_driver.hpp</text>
</g>
<!-- Node2&#45;&gt;Node21 -->
<g id="edge34" class="edge"><title>Node2&#45;&gt;Node21</title>
<path fill="none" stroke="midnightblue" d="M1284.2,-337.164C1287.04,-336.733 1289.87,-336.339 1292.61,-336 1539.05,-305.624 1605.73,-326.746 1856.46,-300.02"/>
<polygon fill="midnightblue" stroke="midnightblue" points="1857.04,-303.477 1866.61,-298.923 1856.29,-296.518 1857.04,-303.477"/>
</g>
<!-- Node22 -->
<g id="node22" class="node"><title>Node22</title>
<g id="a_node22"><a xlink:href="dji__hardware__sync_8hpp.html" target="_top" xlink:title="Hardware Sync API for DJI OSDK. ">
<polygon fill="white" stroke="black" points="1095.61,-168.5 1095.61,-187.5 1211.61,-187.5 1211.61,-168.5 1095.61,-168.5"/>
<text text-anchor="middle" x="1153.61" y="-175.5" font-family="Helvetica,sans-Serif" font-size="10.00">dji_hardware_sync.hpp</text>
</a>
</g>
</g>
<!-- Node2&#45;&gt;Node22 -->
<g id="edge35" class="edge"><title>Node2&#45;&gt;Node22</title>
<path fill="none" stroke="midnightblue" d="M1247.71,-336.209C1256.95,-314.963 1276.85,-259.933 1253.61,-224 1243.23,-207.948 1225.61,-197.565 1208.03,-190.874"/>
<polygon fill="midnightblue" stroke="midnightblue" points="1208.9,-187.473 1198.31,-187.524 1206.62,-194.091 1208.9,-187.473"/>
</g>
<!-- Node25 -->
<g id="node25" class="node"><title>Node25</title>
<g id="a_node25"><a xlink:href="dji__mfio_8hpp.html" target="_top" xlink:title="MFIO API for DJI OSDK library. ">
<polygon fill="white" stroke="black" points="1302.11,-224.5 1302.11,-243.5 1371.11,-243.5 1371.11,-224.5 1302.11,-224.5"/>
<text text-anchor="middle" x="1336.61" y="-231.5" font-family="Helvetica,sans-Serif" font-size="10.00">dji_mfio.hpp</text>
</a>
</g>
</g>
<!-- Node2&#45;&gt;Node25 -->
<g id="edge40" class="edge"><title>Node2&#45;&gt;Node25</title>
<path fill="none" stroke="midnightblue" d="M1252.73,-336.355C1261.88,-327.521 1276.22,-313.257 1287.61,-300 1301.09,-284.327 1315.16,-265.347 1324.75,-251.955"/>
<polygon fill="midnightblue" stroke="midnightblue" points="1327.68,-253.867 1330.61,-243.684 1321.97,-249.82 1327.68,-253.867"/>
</g>
<!-- Node26 -->
<g id="node26" class="node"><title>Node26</title>
<g id="a_node26"><a xlink:href="dji__mission__manager_8hpp.html" target="_top" xlink:title="Mission&#45;Manager API for DJI OSDK library. ">
<polygon fill="white" stroke="black" points="827.113,-280.5 827.113,-299.5 954.113,-299.5 954.113,-280.5 827.113,-280.5"/>
<text text-anchor="middle" x="890.613" y="-287.5" font-family="Helvetica,sans-Serif" font-size="10.00">dji_mission_manager.hpp</text>
</a>
</g>
</g>
<!-- Node2&#45;&gt;Node26 -->
<g id="edge42" class="edge"><title>Node2&#45;&gt;Node26</title>
<path fill="none" stroke="midnightblue" d="M1202.78,-338.753C1142.37,-329.512 1028.58,-312.105 956.339,-301.054"/>
<polygon fill="midnightblue" stroke="midnightblue" points="956.846,-297.591 946.432,-299.539 955.788,-304.511 956.846,-297.591"/>
</g>
<!-- Node31 -->
<g id="node31" class="node"><title>Node31</title>
<g id="a_node31"><a xlink:href="dji__mobile__communication_8hpp.html" target="_top" xlink:title="Implementation of DJI Mobile&#45;Onboard SDK Communication (MOC) ">
<polygon fill="white" stroke="black" points="1455.61,-280.5 1455.61,-299.5 1605.61,-299.5 1605.61,-280.5 1455.61,-280.5"/>
<text text-anchor="middle" x="1530.61" y="-287.5" font-family="Helvetica,sans-Serif" font-size="10.00">dji_mobile_communication.hpp</text>
</a>
</g>
</g>
<!-- Node2&#45;&gt;Node31 -->
<g id="edge52" class="edge"><title>Node2&#45;&gt;Node31</title>
<path fill="none" stroke="midnightblue" d="M1284.12,-337.378C1334.02,-327.99 1419.02,-311.997 1475,-301.464"/>
<polygon fill="midnightblue" stroke="midnightblue" points="1475.92,-304.852 1485.1,-299.564 1474.62,-297.973 1475.92,-304.852"/>
</g>
<!-- Node33 -->
<g id="node33" class="node"><title>Node33</title>
<g id="a_node33"><a xlink:href="dji__mobile__device_8hpp.html" target="_top" xlink:title="Implementation of DJI Mobile Device Abstraction. ">
<polygon fill="white" stroke="black" points="1389.11,-224.5 1389.11,-243.5 1502.11,-243.5 1502.11,-224.5 1389.11,-224.5"/>
<text text-anchor="middle" x="1445.61" y="-231.5" font-family="Helvetica,sans-Serif" font-size="10.00">dji_mobile_device.hpp</text>
</a>
</g>
</g>
<!-- Node2&#45;&gt;Node33 -->
<g id="edge55" class="edge"><title>Node2&#45;&gt;Node33</title>
<path fill="none" stroke="midnightblue" d="M1259.46,-336.368C1294.5,-317.292 1378.73,-271.422 1420.81,-248.505"/>
<polygon fill="midnightblue" stroke="midnightblue" points="1422.73,-251.448 1429.84,-243.591 1419.38,-245.3 1422.73,-251.448"/>
</g>
<!-- Node34 -->
<g id="node34" class="node"><title>Node34</title>
<polygon fill="white" stroke="#bfbfbf" points="1982.61,-280.5 1982.61,-299.5 2110.61,-299.5 2110.61,-280.5 1982.61,-280.5"/>
<text text-anchor="middle" x="2046.61" y="-287.5" font-family="Helvetica,sans-Serif" font-size="10.00">dji_platform_manager.hpp</text>
</g>
<!-- Node2&#45;&gt;Node34 -->
<g id="edge58" class="edge"><title>Node2&#45;&gt;Node34</title>
<path fill="none" stroke="midnightblue" d="M1284.19,-337.13C1287.04,-336.707 1289.86,-336.324 1292.61,-336 1590.24,-300.948 1669.91,-325.983 1972.16,-300.059"/>
<polygon fill="midnightblue" stroke="midnightblue" points="1972.89,-303.509 1982.55,-299.156 1972.28,-296.535 1972.89,-303.509"/>
</g>
<!-- Node35 -->
<g id="node35" class="node"><title>Node35</title>
<g id="a_node35"><a xlink:href="dji__status_8hpp.html" target="_top" xlink:title="Status information for DJI Vehicle. ">
<polygon fill="white" stroke="black" points="2129.11,-280.5 2129.11,-299.5 2206.11,-299.5 2206.11,-280.5 2129.11,-280.5"/>
<text text-anchor="middle" x="2167.61" y="-287.5" font-family="Helvetica,sans-Serif" font-size="10.00">dji_status.hpp</text>
</a>
</g>
</g>
<!-- Node2&#45;&gt;Node35 -->
<g id="edge59" class="edge"><title>Node2&#45;&gt;Node35</title>
<path fill="none" stroke="midnightblue" d="M1284.19,-337.101C1287.03,-336.685 1289.86,-336.311 1292.61,-336 1654.89,-295.044 1752.36,-341.158 2118.82,-299.894"/>
<polygon fill="midnightblue" stroke="midnightblue" points="2119.37,-303.354 2128.91,-298.744 2118.58,-296.399 2119.37,-303.354"/>
</g>
<!-- Node36 -->
<g id="node36" class="node"><title>Node36</title>
<g id="a_node36"><a xlink:href="dji__subscription_8hpp.html" target="_top" xlink:title="Telemetry Subscription API for DJI OSDK library. ">
<polygon fill="white" stroke="black" points="1142.11,-224.5 1142.11,-243.5 1245.11,-243.5 1245.11,-224.5 1142.11,-224.5"/>
<text text-anchor="middle" x="1193.61" y="-231.5" font-family="Helvetica,sans-Serif" font-size="10.00">dji_subscription.hpp</text>
</a>
</g>
</g>
<!-- Node2&#45;&gt;Node36 -->
<g id="edge60" class="edge"><title>Node2&#45;&gt;Node36</title>
<path fill="none" stroke="midnightblue" d="M1239.69,-336.368C1231.55,-318.456 1212.67,-276.923 1201.77,-252.948"/>
<polygon fill="midnightblue" stroke="midnightblue" points="1204.84,-251.247 1197.52,-243.591 1198.47,-254.143 1204.84,-251.247"/>
</g>
<!-- Node37 -->
<g id="node37" class="node"><title>Node37</title>
<polygon fill="white" stroke="#bfbfbf" points="2224.61,-280.5 2224.61,-299.5 2344.61,-299.5 2344.61,-280.5 2224.61,-280.5"/>
<text text-anchor="middle" x="2284.61" y="-287.5" font-family="Helvetica,sans-Serif" font-size="10.00">dji_thread_manager.hpp</text>
</g>
<!-- Node2&#45;&gt;Node37 -->
<g id="edge64" class="edge"><title>Node2&#45;&gt;Node37</title>
<path fill="none" stroke="midnightblue" d="M1284.19,-337.087C1287.03,-336.674 1289.86,-336.305 1292.61,-336 1697.36,-291.167 1804.81,-333.885 2214.4,-300.016"/>
<polygon fill="midnightblue" stroke="midnightblue" points="2214.76,-303.498 2224.44,-299.176 2214.18,-296.522 2214.76,-303.498"/>
</g>
<!-- Node38 -->
<g id="node38" class="node"><title>Node38</title>
<g id="a_node38"><a xlink:href="dji__virtual__rc_8hpp.html" target="_top" xlink:title="Virtual Radio Control API for DJI onboardSDK library. ">
<polygon fill="white" stroke="black" points="282.613,-280.5 282.613,-299.5 372.613,-299.5 372.613,-280.5 282.613,-280.5"/>
<text text-anchor="middle" x="327.613" y="-287.5" font-family="Helvetica,sans-Serif" font-size="10.00">dji_virtual_rc.hpp</text>
</a>
</g>
</g>
<!-- Node2&#45;&gt;Node38 -->
<g id="edge68" class="edge"><title>Node2&#45;&gt;Node38</title>
<path fill="none" stroke="midnightblue" d="M1203,-343.345C1083.37,-338.349 721.908,-322.371 422.613,-300 409.838,-299.045 396.113,-297.846 383.177,-296.637"/>
<polygon fill="midnightblue" stroke="midnightblue" points="383.292,-293.132 373.005,-295.67 382.629,-300.101 383.292,-293.132"/>
</g>
<!-- Node5 -->
<g id="node5" class="node"><title>Node5</title>
<g id="a_node5"><a xlink:href="dji__telemetry_8hpp.html" target="_top" xlink:title="Enumeration of all telemetry data types, structures and maps. ">
<polygon fill="white" stroke="black" points="892.113,-168.5 892.113,-187.5 983.113,-187.5 983.113,-168.5 892.113,-168.5"/>
<text text-anchor="middle" x="937.613" y="-175.5" font-family="Helvetica,sans-Serif" font-size="10.00">dji_telemetry.hpp</text>
</a>
</g>
</g>
<!-- Node4&#45;&gt;Node5 -->
<g id="edge4" class="edge"><title>Node4&#45;&gt;Node5</title>
<path fill="none" stroke="midnightblue" d="M1055.43,-224.444C1032.19,-215.478 995.465,-201.314 969.198,-191.183"/>
<polygon fill="midnightblue" stroke="midnightblue" points="970.283,-187.85 959.693,-187.516 967.764,-194.381 970.283,-187.85"/>
</g>
<!-- Node4&#45;&gt;Node9 -->
<g id="edge8" class="edge"><title>Node4&#45;&gt;Node9</title>
<path fill="none" stroke="midnightblue" d="M1124.19,-225.061C1153.59,-218.487 1191.4,-207.051 1220.61,-188 1239.8,-175.491 1256.36,-154.803 1266.61,-140.129"/>
<polygon fill="midnightblue" stroke="midnightblue" points="1269.74,-141.755 1272.4,-131.501 1263.92,-137.854 1269.74,-141.755"/>
</g>
<!-- Node5&#45;&gt;Node6 -->
<g id="edge5" class="edge"><title>Node5&#45;&gt;Node6</title>
<path fill="none" stroke="midnightblue" d="M892.025,-169.336C888.843,-168.864 885.682,-168.413 882.613,-168 732.017,-147.722 693.266,-151.856 542.613,-132 538.648,-131.477 534.534,-130.899 530.412,-130.295"/>
<polygon fill="midnightblue" stroke="midnightblue" points="530.647,-126.791 520.237,-128.757 529.601,-133.712 530.647,-126.791"/>
</g>
<!-- Node7 -->
<g id="node7" class="node"><title>Node7</title>
<polygon fill="white" stroke="#bfbfbf" points="439.113,-56.5 439.113,-75.5 482.113,-75.5 482.113,-56.5 439.113,-56.5"/>
<text text-anchor="middle" x="460.613" y="-63.5" font-family="Helvetica,sans-Serif" font-size="10.00">cstdio</text>
</g>
<!-- Node6&#45;&gt;Node7 -->
<g id="edge6" class="edge"><title>Node6&#45;&gt;Node7</title>
<path fill="none" stroke="midnightblue" d="M481.485,-112.083C478.1,-104.77 473.197,-94.1814 468.995,-85.1034"/>
<polygon fill="midnightblue" stroke="midnightblue" points="472.042,-83.3553 464.665,-75.7511 465.69,-86.2962 472.042,-83.3553"/>
</g>
<!-- Node8 -->
<g id="node8" class="node"><title>Node8</title>
<polygon fill="white" stroke="#bfbfbf" points="524.113,-0.5 524.113,-19.5 573.113,-19.5 573.113,-0.5 524.113,-0.5"/>
<text text-anchor="middle" x="548.613" y="-7.5" font-family="Helvetica,sans-Serif" font-size="10.00">stdint.h</text>
</g>
<!-- Node6&#45;&gt;Node8 -->
<g id="edge7" class="edge"><title>Node6&#45;&gt;Node8</title>
<path fill="none" stroke="midnightblue" d="M490.557,-112.368C500.908,-94.2957 525.031,-52.1764 538.701,-28.3074"/>
<polygon fill="midnightblue" stroke="midnightblue" points="541.76,-30.0085 543.693,-19.5914 535.686,-26.5295 541.76,-30.0085"/>
</g>
<!-- Node9&#45;&gt;Node10 -->
<g id="edge9" class="edge"><title>Node9&#45;&gt;Node10</title>
<path fill="none" stroke="midnightblue" d="M1243.23,-112.444C1205.69,-103.102 1145.48,-88.1194 1104.55,-77.9326"/>
<polygon fill="midnightblue" stroke="midnightblue" points="1105.39,-74.5349 1094.84,-75.5164 1103.7,-81.3278 1105.39,-74.5349"/>
</g>
<!-- Node11&#45;&gt;Node6 -->
<g id="edge15" class="edge"><title>Node11&#45;&gt;Node6</title>
<path fill="none" stroke="midnightblue" d="M523.183,-168.083C516.761,-160.377 507.308,-149.033 499.491,-139.653"/>
<polygon fill="midnightblue" stroke="midnightblue" points="501.997,-137.193 492.906,-131.751 496.619,-141.674 501.997,-137.193"/>
</g>
<!-- Node11&#45;&gt;Node12 -->
<g id="edge11" class="edge"><title>Node11&#45;&gt;Node12</title>
<path fill="none" stroke="midnightblue" d="M541.539,-168.324C551.788,-160.185 567.334,-147.839 579.614,-138.087"/>
<polygon fill="midnightblue" stroke="midnightblue" points="581.835,-140.794 587.489,-131.834 577.482,-135.312 581.835,-140.794"/>
</g>
<!-- Node12&#45;&gt;Node8 -->
<g id="edge14" class="edge"><title>Node12&#45;&gt;Node8</title>
<path fill="none" stroke="midnightblue" d="M591.292,-112.217C584.35,-103.506 574.05,-89.5371 567.613,-76 560.514,-61.0685 555.481,-42.9276 552.387,-29.6088"/>
<polygon fill="midnightblue" stroke="midnightblue" points="555.784,-28.7601 550.24,-19.7314 548.944,-30.2466 555.784,-28.7601"/>
</g>
<!-- Node13 -->
<g id="node13" class="node"><title>Node13</title>
<g id="a_node13"><a xlink:href="dji__error_8hpp.html" target="_top" xlink:title="All DJI OSDK OpenProtocol ACK Error Codes. ">
<polygon fill="white" stroke="black" points="576.613,-56.5 576.613,-75.5 646.613,-75.5 646.613,-56.5 576.613,-56.5"/>
<text text-anchor="middle" x="611.613" y="-63.5" font-family="Helvetica,sans-Serif" font-size="10.00">dji_error.hpp</text>
</a>
</g>
</g>
<!-- Node12&#45;&gt;Node13 -->
<g id="edge12" class="edge"><title>Node12&#45;&gt;Node13</title>
<path fill="none" stroke="midnightblue" d="M600.76,-112.083C602.483,-104.927 604.961,-94.6353 607.114,-85.6911"/>
<polygon fill="midnightblue" stroke="midnightblue" points="610.569,-86.2925 609.507,-75.7511 603.763,-84.6541 610.569,-86.2925"/>
</g>
<!-- Node13&#45;&gt;Node8 -->
<g id="edge13" class="edge"><title>Node13&#45;&gt;Node8</title>
<path fill="none" stroke="midnightblue" d="M601.491,-56.324C592.087,-48.2631 577.869,-36.0765 566.545,-26.3695"/>
<polygon fill="midnightblue" stroke="midnightblue" points="568.79,-23.6844 558.92,-19.8339 564.234,-28.9993 568.79,-23.6844"/>
</g>
<!-- Node15&#45;&gt;Node6 -->
<g id="edge29" class="edge"><title>Node15&#45;&gt;Node6</title>
<path fill="none" stroke="midnightblue" d="M471.982,-280.475C472.879,-260.686 475.419,-210.108 479.613,-168 480.474,-159.364 481.704,-149.832 482.827,-141.773"/>
<polygon fill="midnightblue" stroke="midnightblue" points="486.329,-142.004 484.293,-131.607 479.401,-141.005 486.329,-142.004"/>
</g>
<!-- Node15&#45;&gt;Node9 -->
<g id="edge30" class="edge"><title>Node15&#45;&gt;Node9</title>
<path fill="none" stroke="midnightblue" d="M496.194,-280.413C520.604,-271.738 558.995,-257.696 591.613,-244 592.189,-243.758 754.01,-168.159 754.613,-168 946.76,-117.338 1004.86,-151.734 1206.53,-132.04"/>
<polygon fill="midnightblue" stroke="midnightblue" points="1206.95,-135.515 1216.55,-131.028 1206.25,-128.55 1206.95,-135.515"/>
</g>
<!-- Node15&#45;&gt;Node10 -->
<g id="edge28" class="edge"><title>Node15&#45;&gt;Node10</title>
<path fill="none" stroke="midnightblue" d="M486.517,-280.3C508.961,-267.342 552.932,-242.516 591.613,-224 628.988,-206.11 640.56,-206.547 677.613,-188 693.291,-180.153 695.512,-174.935 711.613,-168 813.348,-124.18 939.738,-92.9513 1009.08,-77.6599"/>
<polygon fill="midnightblue" stroke="midnightblue" points="1009.87,-81.0714 1018.89,-75.5198 1008.37,-74.2323 1009.87,-81.0714"/>
</g>
<!-- Node16 -->
<g id="node16" class="node"><title>Node16</title>
<g id="a_node16"><a xlink:href="dji__ack_8hpp.html" target="_top" xlink:title="All DJI OSDK ACK parsing. ">
<polygon fill="white" stroke="black" points="294.613,-224.5 294.613,-243.5 360.613,-243.5 360.613,-224.5 294.613,-224.5"/>
<text text-anchor="middle" x="327.613" y="-231.5" font-family="Helvetica,sans-Serif" font-size="10.00">dji_ack.hpp</text>
</a>
</g>
</g>
<!-- Node15&#45;&gt;Node16 -->
<g id="edge19" class="edge"><title>Node15&#45;&gt;Node16</title>
<path fill="none" stroke="midnightblue" d="M448.796,-280.444C424.782,-271.438 386.785,-257.189 359.744,-247.049"/>
<polygon fill="midnightblue" stroke="midnightblue" points="360.916,-243.751 350.324,-243.516 358.458,-250.305 360.916,-243.751"/>
</g>
<!-- Node16&#45;&gt;Node6 -->
<g id="edge23" class="edge"><title>Node16&#45;&gt;Node6</title>
<path fill="none" stroke="midnightblue" d="M294.419,-225.814C255.715,-215.947 199.874,-196.165 223.613,-168 250.859,-135.676 373.284,-126.57 440.71,-124.005"/>
<polygon fill="midnightblue" stroke="midnightblue" points="441.164,-127.492 451.036,-123.647 440.921,-120.496 441.164,-127.492"/>
</g>
<!-- Node16&#45;&gt;Node12 -->
<g id="edge20" class="edge"><title>Node16&#45;&gt;Node12</title>
<path fill="none" stroke="midnightblue" d="M347.178,-224.317C376.014,-211.593 431.692,-187.297 479.613,-168 508.477,-156.377 541.61,-143.919 565.572,-135.065"/>
<polygon fill="midnightblue" stroke="midnightblue" points="567.067,-138.244 575.241,-131.504 564.648,-131.676 567.067,-138.244"/>
</g>
<!-- Node17 -->
<g id="node17" class="node"><title>Node17</title>
<g id="a_node17"><a xlink:href="dji__mission__type_8hpp.html" target="_top" xlink:title="Mission related data struct for DJI OSDK library. ">
<polygon fill="white" stroke="black" points="232.613,-168.5 232.613,-187.5 340.613,-187.5 340.613,-168.5 232.613,-168.5"/>
<text text-anchor="middle" x="286.613" y="-175.5" font-family="Helvetica,sans-Serif" font-size="10.00">dji_mission_type.hpp</text>
</a>
</g>
</g>
<!-- Node16&#45;&gt;Node17 -->
<g id="edge21" class="edge"><title>Node16&#45;&gt;Node17</title>
<path fill="none" stroke="midnightblue" d="M320.843,-224.083C315.052,-216.455 306.555,-205.264 299.476,-195.941"/>
<polygon fill="midnightblue" stroke="midnightblue" points="302.093,-193.599 293.258,-187.751 296.517,-197.832 302.093,-193.599"/>
</g>
<!-- Node16&#45;&gt;Node18 -->
<g id="edge24" class="edge"><title>Node16&#45;&gt;Node18</title>
<path fill="none" stroke="midnightblue" d="M294.169,-225.148C254.639,-215.867 188.62,-200.367 144.123,-189.92"/>
<polygon fill="midnightblue" stroke="midnightblue" points="144.674,-186.454 134.139,-187.576 143.074,-193.269 144.674,-186.454"/>
</g>
<!-- Node19 -->
<g id="node19" class="node"><title>Node19</title>
<polygon fill="white" stroke="#bfbfbf" points="359.113,-168.5 359.113,-187.5 394.113,-187.5 394.113,-168.5 359.113,-168.5"/>
<text text-anchor="middle" x="376.613" y="-175.5" font-family="Helvetica,sans-Serif" font-size="10.00">map</text>
</g>
<!-- Node16&#45;&gt;Node19 -->
<g id="edge27" class="edge"><title>Node16&#45;&gt;Node19</title>
<path fill="none" stroke="midnightblue" d="M335.705,-224.083C342.769,-216.298 353.201,-204.801 361.762,-195.367"/>
<polygon fill="midnightblue" stroke="midnightblue" points="364.545,-197.509 368.673,-187.751 359.361,-192.805 364.545,-197.509"/>
</g>
<!-- Node17&#45;&gt;Node6 -->
<g id="edge22" class="edge"><title>Node17&#45;&gt;Node6</title>
<path fill="none" stroke="midnightblue" d="M318.146,-168.444C352.206,-159.201 406.619,-144.436 444.129,-134.257"/>
<polygon fill="midnightblue" stroke="midnightblue" points="445.494,-137.513 454.229,-131.516 443.661,-130.758 445.494,-137.513"/>
</g>
<!-- Node18&#45;&gt;Node3 -->
<g id="edge26" class="edge"><title>Node18&#45;&gt;Node3</title>
<path fill="none" stroke="midnightblue" d="M89.8524,-168.083C83.0767,-160.298 73.0703,-148.801 64.8584,-139.367"/>
<polygon fill="midnightblue" stroke="midnightblue" points="67.4355,-136.996 58.2301,-131.751 62.1554,-141.592 67.4355,-136.996"/>
</g>
<!-- Node18&#45;&gt;Node12 -->
<g id="edge25" class="edge"><title>Node18&#45;&gt;Node12</title>
<path fill="none" stroke="midnightblue" d="M138.654,-173.044C215.326,-165.58 385.509,-148.668 528.613,-132 532.858,-131.506 537.245,-130.979 541.657,-130.438"/>
<polygon fill="midnightblue" stroke="midnightblue" points="542.451,-133.866 551.942,-129.158 541.587,-126.92 542.451,-133.866"/>
</g>
<!-- Node20&#45;&gt;Node6 -->
<g id="edge33" class="edge"><title>Node20&#45;&gt;Node6</title>
<path fill="none" stroke="midnightblue" d="M606.796,-168.444C582.782,-159.438 544.785,-145.189 517.744,-135.049"/>
<polygon fill="midnightblue" stroke="midnightblue" points="518.916,-131.751 508.324,-131.516 516.458,-138.305 518.916,-131.751"/>
</g>
<!-- Node20&#45;&gt;Node12 -->
<g id="edge32" class="edge"><title>Node20&#45;&gt;Node12</title>
<path fill="none" stroke="midnightblue" d="M624.494,-168.083C620.206,-160.613 613.955,-149.724 608.671,-140.52"/>
<polygon fill="midnightblue" stroke="midnightblue" points="611.651,-138.681 603.637,-131.751 605.581,-142.166 611.651,-138.681"/>
</g>
<!-- Node22&#45;&gt;Node6 -->
<g id="edge36" class="edge"><title>Node22&#45;&gt;Node6</title>
<path fill="none" stroke="midnightblue" d="M1095.34,-173.329C964.119,-164.963 648.67,-144.257 542.613,-132 538.64,-131.541 534.52,-131.006 530.396,-130.43"/>
<polygon fill="midnightblue" stroke="midnightblue" points="530.617,-126.925 520.215,-128.935 529.6,-133.851 530.617,-126.925"/>
</g>
<!-- Node22&#45;&gt;Node9 -->
<g id="edge37" class="edge"><title>Node22&#45;&gt;Node9</title>
<path fill="none" stroke="midnightblue" d="M1173.26,-168.444C1193.58,-159.596 1225.52,-145.687 1248.71,-135.586"/>
<polygon fill="midnightblue" stroke="midnightblue" points="1250.29,-138.718 1258.06,-131.516 1247.49,-132.3 1250.29,-138.718"/>
</g>
<!-- Node23 -->
<g id="node23" class="node"><title>Node23</title>
<polygon fill="white" stroke="#bfbfbf" points="1152.61,-112.5 1152.61,-131.5 1198.61,-131.5 1198.61,-112.5 1152.61,-112.5"/>
<text text-anchor="middle" x="1175.61" y="-119.5" font-family="Helvetica,sans-Serif" font-size="10.00">chrono</text>
</g>
<!-- Node22&#45;&gt;Node23 -->
<g id="edge38" class="edge"><title>Node22&#45;&gt;Node23</title>
<path fill="none" stroke="midnightblue" d="M1157.25,-168.083C1160.23,-160.77 1164.54,-150.181 1168.24,-141.103"/>
<polygon fill="midnightblue" stroke="midnightblue" points="1171.52,-142.333 1172.05,-131.751 1165.03,-139.691 1171.52,-142.333"/>
</g>
<!-- Node24 -->
<g id="node24" class="node"><title>Node24</title>
<polygon fill="white" stroke="#bfbfbf" points="1088.61,-112.5 1088.61,-131.5 1134.61,-131.5 1134.61,-112.5 1088.61,-112.5"/>
<text text-anchor="middle" x="1111.61" y="-119.5" font-family="Helvetica,sans-Serif" font-size="10.00">atomic</text>
</g>
<!-- Node22&#45;&gt;Node24 -->
<g id="edge39" class="edge"><title>Node22&#45;&gt;Node24</title>
<path fill="none" stroke="midnightblue" d="M1146.68,-168.083C1140.68,-160.377 1131.86,-149.033 1124.57,-139.653"/>
<polygon fill="midnightblue" stroke="midnightblue" points="1127.32,-137.496 1118.42,-131.751 1121.8,-141.793 1127.32,-137.496"/>
</g>
<!-- Node25&#45;&gt;Node9 -->
<g id="edge41" class="edge"><title>Node25&#45;&gt;Node9</title>
<path fill="none" stroke="midnightblue" d="M1331.98,-224.368C1322.33,-206.376 1299.9,-164.55 1287.07,-140.627"/>
<polygon fill="midnightblue" stroke="midnightblue" points="1290.03,-138.749 1282.22,-131.591 1283.86,-142.058 1290.03,-138.749"/>
</g>
<!-- Node27 -->
<g id="node27" class="node"><title>Node27</title>
<g id="a_node27"><a xlink:href="dji__hotpoint_8hpp.html" target="_top" xlink:title="Implementation of HotPoint (Point of Interest) Missions for DJI OSDK. ">
<polygon fill="white" stroke="black" points="827.113,-224.5 827.113,-243.5 912.113,-243.5 912.113,-224.5 827.113,-224.5"/>
<text text-anchor="middle" x="869.613" y="-231.5" font-family="Helvetica,sans-Serif" font-size="10.00">dji_hotpoint.hpp</text>
</a>
</g>
</g>
<!-- Node26&#45;&gt;Node27 -->
<g id="edge43" class="edge"><title>Node26&#45;&gt;Node27</title>
<path fill="none" stroke="midnightblue" d="M887.146,-280.083C884.302,-272.77 880.184,-262.181 876.654,-253.103"/>
<polygon fill="midnightblue" stroke="midnightblue" points="879.903,-251.803 873.017,-243.751 873.379,-254.34 879.903,-251.803"/>
</g>
<!-- Node29 -->
<g id="node29" class="node"><title>Node29</title>
<g id="a_node29"><a xlink:href="dji__waypoint_8hpp.html" target="_top" xlink:title="Implementation of GPS Waypoint Missions for DJI OSDK. ">
<polygon fill="white" stroke="black" points="720.113,-224.5 720.113,-243.5 809.113,-243.5 809.113,-224.5 720.113,-224.5"/>
<text text-anchor="middle" x="764.613" y="-231.5" font-family="Helvetica,sans-Serif" font-size="10.00">dji_waypoint.hpp</text>
</a>
</g>
</g>
<!-- Node26&#45;&gt;Node29 -->
<g id="edge49" class="edge"><title>Node26&#45;&gt;Node29</title>
<path fill="none" stroke="midnightblue" d="M870.648,-280.444C850.004,-271.596 817.551,-257.687 793.982,-247.586"/>
<polygon fill="midnightblue" stroke="midnightblue" points="795.055,-244.239 784.485,-243.516 792.298,-250.673 795.055,-244.239"/>
</g>
<!-- Node30 -->
<g id="node30" class="node"><title>Node30</title>
<polygon fill="white" stroke="#bfbfbf" points="930.613,-224.5 930.613,-243.5 974.613,-243.5 974.613,-224.5 930.613,-224.5"/>
<text text-anchor="middle" x="952.613" y="-231.5" font-family="Helvetica,sans-Serif" font-size="10.00">vector</text>
</g>
<!-- Node26&#45;&gt;Node30 -->
<g id="edge51" class="edge"><title>Node26&#45;&gt;Node30</title>
<path fill="none" stroke="midnightblue" d="M900.575,-280.324C909.74,-272.341 923.551,-260.313 934.642,-250.653"/>
<polygon fill="midnightblue" stroke="midnightblue" points="937.229,-253.041 942.471,-243.834 932.631,-247.762 937.229,-253.041"/>
</g>
<!-- Node27&#45;&gt;Node5 -->
<g id="edge48" class="edge"><title>Node27&#45;&gt;Node5</title>
<path fill="none" stroke="midnightblue" d="M880.539,-224.324C890.788,-216.185 906.334,-203.839 918.614,-194.087"/>
<polygon fill="midnightblue" stroke="midnightblue" points="920.835,-196.794 926.489,-187.834 916.482,-191.312 920.835,-196.794"/>
</g>
<!-- Node28 -->
<g id="node28" class="node"><title>Node28</title>
<g id="a_node28"><a xlink:href="dji__mission__base_8hpp.html" target="_top" xlink:title="Mission&#45;Base abstract class for DJI OSDK library. ">
<polygon fill="white" stroke="black" points="763.613,-168.5 763.613,-187.5 873.613,-187.5 873.613,-168.5 763.613,-168.5"/>
<text text-anchor="middle" x="818.613" y="-175.5" font-family="Helvetica,sans-Serif" font-size="10.00">dji_mission_base.hpp</text>
</a>
</g>
</g>
<!-- Node27&#45;&gt;Node28 -->
<g id="edge44" class="edge"><title>Node27&#45;&gt;Node28</title>
<path fill="none" stroke="midnightblue" d="M861.192,-224.083C853.765,-216.22 842.762,-204.569 833.801,-195.081"/>
<polygon fill="midnightblue" stroke="midnightblue" points="836.289,-192.618 826.878,-187.751 831.2,-197.424 836.289,-192.618"/>
</g>
<!-- Node28&#45;&gt;Node6 -->
<g id="edge46" class="edge"><title>Node28&#45;&gt;Node6</title>
<path fill="none" stroke="midnightblue" d="M765.849,-168.444C700.837,-157.901 591.512,-140.173 530.401,-130.263"/>
<polygon fill="midnightblue" stroke="midnightblue" points="530.728,-126.77 520.297,-128.624 529.608,-133.68 530.728,-126.77"/>
</g>
<!-- Node28&#45;&gt;Node9 -->
<g id="edge47" class="edge"><title>Node28&#45;&gt;Node9</title>
<path fill="none" stroke="midnightblue" d="M873.758,-169.141C876.752,-168.746 879.719,-168.364 882.613,-168 1023.57,-150.286 1061.62,-149.303 1206.39,-132.127"/>
<polygon fill="midnightblue" stroke="midnightblue" points="1207.02,-135.576 1216.54,-130.917 1206.19,-128.625 1207.02,-135.576"/>
</g>
<!-- Node28&#45;&gt;Node12 -->
<g id="edge45" class="edge"><title>Node28&#45;&gt;Node12</title>
<path fill="none" stroke="midnightblue" d="M783.754,-168.444C745.697,-159.102 684.656,-144.119 643.154,-133.933"/>
<polygon fill="midnightblue" stroke="midnightblue" points="643.856,-130.501 633.31,-131.516 642.187,-137.299 643.856,-130.501"/>
</g>
<!-- Node29&#45;&gt;Node28 -->
<g id="edge50" class="edge"><title>Node29&#45;&gt;Node28</title>
<path fill="none" stroke="midnightblue" d="M773.53,-224.083C781.394,-216.22 793.045,-204.569 802.532,-195.081"/>
<polygon fill="midnightblue" stroke="midnightblue" points="805.266,-197.297 809.862,-187.751 800.316,-192.347 805.266,-197.297"/>
</g>
<!-- Node31&#45;&gt;Node9 -->
<g id="edge54" class="edge"><title>Node31&#45;&gt;Node9</title>
<path fill="none" stroke="midnightblue" d="M1530.35,-280.314C1529.49,-266.696 1525.94,-240.209 1511.61,-224 1466.33,-172.766 1390.44,-146.582 1337.41,-133.876"/>
<polygon fill="midnightblue" stroke="midnightblue" points="1337.98,-130.417 1327.45,-131.584 1336.41,-137.238 1337.98,-130.417"/>
</g>
<!-- Node32 -->
<g id="node32" class="node"><title>Node32</title>
<polygon fill="white" stroke="#bfbfbf" points="1559.11,-224.5 1559.11,-243.5 1642.11,-243.5 1642.11,-224.5 1559.11,-224.5"/>
<text text-anchor="middle" x="1600.61" y="-231.5" font-family="Helvetica,sans-Serif" font-size="10.00">dji_macros.hpp</text>
</g>
<!-- Node31&#45;&gt;Node32 -->
<g id="edge53" class="edge"><title>Node31&#45;&gt;Node32</title>
<path fill="none" stroke="midnightblue" d="M1541.86,-280.324C1552.41,-272.185 1568.41,-259.839 1581.06,-250.087"/>
<polygon fill="midnightblue" stroke="midnightblue" points="1583.38,-252.713 1589.16,-243.834 1579.11,-247.171 1583.38,-252.713"/>
</g>
<!-- Node33&#45;&gt;Node9 -->
<g id="edge56" class="edge"><title>Node33&#45;&gt;Node9</title>
<path fill="none" stroke="midnightblue" d="M1432.43,-224.368C1403.6,-205.492 1334.71,-160.385 1299.36,-137.237"/>
<polygon fill="midnightblue" stroke="midnightblue" points="1301.02,-134.141 1290.73,-131.591 1297.18,-139.997 1301.02,-134.141"/>
</g>
<!-- Node36&#45;&gt;Node5 -->
<g id="edge62" class="edge"><title>Node36&#45;&gt;Node5</title>
<path fill="none" stroke="midnightblue" d="M1153.05,-224.444C1108.3,-215.004 1036.23,-199.802 987.918,-189.611"/>
<polygon fill="midnightblue" stroke="midnightblue" points="988.495,-186.156 977.988,-187.516 987.05,-193.005 988.495,-186.156"/>
</g>
<!-- Node36&#45;&gt;Node9 -->
<g id="edge63" class="edge"><title>Node36&#45;&gt;Node9</title>
<path fill="none" stroke="midnightblue" d="M1209.68,-224.455C1223.1,-216.588 1241.86,-203.765 1253.61,-188 1263.94,-174.149 1270.23,-155.383 1273.77,-141.575"/>
<polygon fill="midnightblue" stroke="midnightblue" points="1277.2,-142.285 1276.04,-131.753 1270.38,-140.709 1277.2,-142.285"/>
</g>
<!-- Node36&#45;&gt;Node10 -->
<g id="edge61" class="edge"><title>Node36&#45;&gt;Node10</title>
<path fill="none" stroke="midnightblue" d="M1149.25,-224.477C1127.34,-218.035 1102.3,-206.928 1086.61,-188 1062.25,-158.605 1059.18,-111.716 1059.58,-85.7834"/>
<polygon fill="midnightblue" stroke="midnightblue" points="1063.08,-85.8883 1059.93,-75.7722 1056.09,-85.6439 1063.08,-85.8883"/>
</g>
<!-- Node38&#45;&gt;Node5 -->
<g id="edge72" class="edge"><title>Node38&#45;&gt;Node5</title>
<path fill="none" stroke="midnightblue" d="M372.964,-280.822C482.696,-261.034 762.277,-210.618 881.919,-189.043"/>
<polygon fill="midnightblue" stroke="midnightblue" points="882.744,-192.451 891.964,-187.232 881.502,-185.562 882.744,-192.451"/>
</g>
<!-- Node38&#45;&gt;Node6 -->
<g id="edge71" class="edge"><title>Node38&#45;&gt;Node6</title>
<path fill="none" stroke="midnightblue" d="M308.421,-280.458C267.321,-261.038 177.443,-211.852 214.613,-168 243.066,-134.433 371.303,-125.876 440.691,-123.715"/>
<polygon fill="midnightblue" stroke="midnightblue" points="440.992,-127.208 450.89,-123.43 440.796,-120.211 440.992,-127.208"/>
</g>
<!-- Node38&#45;&gt;Node10 -->
<g id="edge70" class="edge"><title>Node38&#45;&gt;Node10</title>
<path fill="none" stroke="midnightblue" d="M282.59,-281.111C177.573,-260.97 -68.3011,-202.749 18.6135,-112 35.5546,-94.3114 768.579,-74.3689 994.818,-68.6257"/>
<polygon fill="midnightblue" stroke="midnightblue" points="994.978,-72.1228 1004.89,-68.371 994.8,-65.1251 994.978,-72.1228"/>
</g>
<!-- Node38&#45;&gt;Node16 -->
<g id="edge69" class="edge"><title>Node38&#45;&gt;Node16</title>
<path fill="none" stroke="midnightblue" d="M327.613,-280.083C327.613,-273.006 327.613,-262.861 327.613,-253.986"/>
<polygon fill="midnightblue" stroke="midnightblue" points="331.114,-253.751 327.613,-243.751 324.114,-253.751 331.114,-253.751"/>
</g>
</g>
</svg>
