<?xml version="1.0" encoding="UTF-8" standalone="no"?>
<!DOCTYPE svg PUBLIC "-//W3C//DTD SVG 1.1//EN"
 "http://www.w3.org/Graphics/SVG/1.1/DTD/svg11.dtd">
<!-- Generated by graphviz version 2.40.1 (20161225.0304)
 -->
<!-- Title: osdk&#45;core/modules/inc/payload/dji_psdk_module.hpp Pages: 1 -->
<!--zoomable 442 -->
<svg id="main" version="1.1" xmlns="http://www.w3.org/2000/svg" xmlns:xlink="http://www.w3.org/1999/xlink" xml:space="preserve" onload="init(evt)">
<style type="text/css"><![CDATA[
.edge:hover path { stroke: red; }
.edge:hover polygon { stroke: red; fill: red; }
]]></style>
<script type="text/javascript"><![CDATA[
var edges = document.getElementsByTagName('g');
if (edges && edges.length) {
  for (var i=0;i<edges.length;i++) {
    if (edges[i].id.substr(0,4)=='edge') {
      edges[i].setAttribute('class','edge');
    }
  }
}
]]></script>
        <defs>
                <circle id="rim" cx="0" cy="0" r="7"/>
                <circle id="rim2" cx="0" cy="0" r="3.5"/>
                <g id="zoomPlus">
                        <use xlink:href="#rim" fill="#404040">
                                <set attributeName="fill" to="#808080" begin="zoomplus.mouseover" end="zoomplus.mouseout"/>
                        </use>
                        <path d="M-4,0h8M0,-4v8" fill="none" stroke="white" stroke-width="1.5" pointer-events="none"/>
                </g>
                <g id="zoomMin">
                        <use xlink:href="#rim" fill="#404040">
                                <set attributeName="fill" to="#808080" begin="zoomminus.mouseover" end="zoomminus.mouseout"/>
                        </use>
                        <path d="M-4,0h8" fill="none" stroke="white" stroke-width="1.5" pointer-events="none"/>
                </g>
                <g id="dirArrow">
                        <path fill="none" stroke="white" stroke-width="1.5" d="M0,-3.0v7 M-2.5,-0.5L0,-3.0L2.5,-0.5"/>
                </g>
               <g id="resetDef">
                       <use xlink:href="#rim2" fill="#404040">
                               <set attributeName="fill" to="#808080" begin="reset.mouseover" end="reset.mouseout"/>
                       </use>
               </g>
        </defs>

<script type="text/javascript">
var viewWidth = 781;
var viewHeight = 442;
var sectionId = 'dynsection-0';
</script>
<script xlink:href="svgpan.js"/>
<svg id="graph" class="graph">
<g id="viewport">
<title>osdk&#45;core/modules/inc/payload/dji_psdk_module.hpp</title>
<polygon fill="#ffffff" stroke="transparent" points="-4,4 -4,-438 777,-438 777,4 -4,4"/>
<!-- Node0 -->
<g id="node1" class="node">
<title>Node0</title>
<g id="a_node1"><a xlink:title="Implementation of psdk module for payload node.">
<polygon fill="#bfbfbf" stroke="#000000" points="130,-403.5 130,-433.5 278,-433.5 278,-403.5 130,-403.5"/>
<text text-anchor="start" x="138" y="-421.5" font-family="Helvetica,sans-Serif" font-size="10.00" fill="#000000">osdk&#45;core/modules/inc</text>
<text text-anchor="middle" x="204" y="-410.5" font-family="Helvetica,sans-Serif" font-size="10.00" fill="#000000">/payload/dji_psdk_module.hpp</text>
</a>
</g>
</g>
<!-- Node1 -->
<g id="node2" class="node">
<title>Node1</title>
<g id="a_node2"><a xlink:title=" ">
<polygon fill="#ffffff" stroke="#bfbfbf" points="128,-112.5 128,-131.5 172,-131.5 172,-112.5 128,-112.5"/>
<text text-anchor="middle" x="150" y="-119.5" font-family="Helvetica,sans-Serif" font-size="10.00" fill="#000000">vector</text>
</a>
</g>
</g>
<!-- Node0&#45;&gt;Node1 -->
<g id="edge1" class="edge">
<title>Node0&#45;&gt;Node1</title>
<path fill="none" stroke="#191970" d="M172.4714,-403.3539C136.9175,-383.8157 84,-346.2167 84,-295.5 84,-295.5 84,-295.5 84,-234 84,-195.944 112.6331,-159.4306 132.1802,-138.9377"/>
<polygon fill="#191970" stroke="#191970" points="134.8422,-141.2238 139.396,-131.6575 129.8705,-136.2961 134.8422,-141.2238"/>
</g>
<!-- Node2 -->
<g id="node3" class="node">
<title>Node2</title>
<g id="a_node3"><a xlink:href="dji__payload__base_8hpp.html" target="_top" xlink:title="Abstract protocol implementation for payload module.">
<polygon fill="#ffffff" stroke="#000000" points="0,-112.5 0,-131.5 110,-131.5 110,-112.5 0,-112.5"/>
<text text-anchor="middle" x="55" y="-119.5" font-family="Helvetica,sans-Serif" font-size="10.00" fill="#000000">dji_payload_base.hpp</text>
</a>
</g>
</g>
<!-- Node0&#45;&gt;Node2 -->
<g id="edge2" class="edge">
<title>Node0&#45;&gt;Node2</title>
<path fill="none" stroke="#191970" d="M154.8739,-403.3783C108.4926,-385.6879 46,-351.4677 46,-295.5 46,-295.5 46,-295.5 46,-234 46,-201.6075 49.7867,-164.1141 52.4477,-141.7662"/>
<polygon fill="#191970" stroke="#191970" points="55.955,-141.9219 53.7105,-131.5676 49.0081,-141.0616 55.955,-141.9219"/>
</g>
<!-- Node9 -->
<g id="node10" class="node">
<title>Node9</title>
<g id="a_node10"><a xlink:href="dji__payload__link_8hpp.html" target="_top" xlink:title="Implementation of payload node.">
<polygon fill="#ffffff" stroke="#000000" points="178,-347.5 178,-366.5 282,-366.5 282,-347.5 178,-347.5"/>
<text text-anchor="middle" x="230" y="-354.5" font-family="Helvetica,sans-Serif" font-size="10.00" fill="#000000">dji_payload_link.hpp</text>
</a>
</g>
</g>
<!-- Node0&#45;&gt;Node9 -->
<g id="edge10" class="edge">
<title>Node0&#45;&gt;Node9</title>
<path fill="none" stroke="#191970" d="M210.427,-403.2977C213.8857,-395.1166 218.1867,-384.943 221.8754,-376.2179"/>
<polygon fill="#191970" stroke="#191970" points="225.1668,-377.4205 225.8371,-366.8469 218.7193,-374.6947 225.1668,-377.4205"/>
</g>
<!-- Node18 -->
<g id="node19" class="node">
<title>Node18</title>
<g id="a_node19"><a xlink:href="dji__mop__client_8hpp.html" target="_top" xlink:title="Implementation of the mop client.">
<polygon fill="#ffffff" stroke="#000000" points="492,-347.5 492,-366.5 590,-366.5 590,-347.5 492,-347.5"/>
<text text-anchor="middle" x="541" y="-354.5" font-family="Helvetica,sans-Serif" font-size="10.00" fill="#000000">dji_mop_client.hpp</text>
</a>
</g>
</g>
<!-- Node0&#45;&gt;Node18 -->
<g id="edge28" class="edge">
<title>Node0&#45;&gt;Node18</title>
<path fill="none" stroke="#191970" d="M278.3733,-404.9274C339.6297,-393.7486 425.3226,-378.1103 481.9482,-367.7765"/>
<polygon fill="#191970" stroke="#191970" points="482.6128,-371.2131 491.8219,-365.9746 481.356,-364.3269 482.6128,-371.2131"/>
</g>
<!-- Node3 -->
<g id="node4" class="node">
<title>Node3</title>
<g id="a_node4"><a xlink:title=" ">
<polygon fill="#ffffff" stroke="#bfbfbf" points="290.5,-56.5 290.5,-75.5 339.5,-75.5 339.5,-56.5 290.5,-56.5"/>
<text text-anchor="middle" x="315" y="-63.5" font-family="Helvetica,sans-Serif" font-size="10.00" fill="#000000">stdint.h</text>
</a>
</g>
</g>
<!-- Node2&#45;&gt;Node3 -->
<g id="edge3" class="edge">
<title>Node2&#45;&gt;Node3</title>
<path fill="none" stroke="#191970" d="M107.5368,-112.4398C153.2989,-103.8315 221.3272,-90.3571 280,-76 280.1036,-75.9747 280.2073,-75.9492 280.3112,-75.9237"/>
<polygon fill="#191970" stroke="#191970" points="281.4163,-79.2525 290.2064,-73.3378 279.6464,-72.4799 281.4163,-79.2525"/>
</g>
<!-- Node4 -->
<g id="node5" class="node">
<title>Node4</title>
<g id="a_node5"><a xlink:title=" ">
<polygon fill="#ffffff" stroke="#bfbfbf" points="34.5,-56.5 34.5,-75.5 75.5,-75.5 75.5,-56.5 34.5,-56.5"/>
<text text-anchor="middle" x="55" y="-63.5" font-family="Helvetica,sans-Serif" font-size="10.00" fill="#000000">string</text>
</a>
</g>
</g>
<!-- Node2&#45;&gt;Node4 -->
<g id="edge4" class="edge">
<title>Node2&#45;&gt;Node4</title>
<path fill="none" stroke="#191970" d="M55,-112.2455C55,-104.9382 55,-94.6944 55,-85.7046"/>
<polygon fill="#191970" stroke="#191970" points="58.5001,-85.6426 55,-75.6427 51.5001,-85.6427 58.5001,-85.6426"/>
</g>
<!-- Node5 -->
<g id="node6" class="node">
<title>Node5</title>
<g id="a_node6"><a xlink:title=" ">
<polygon fill="#ffffff" stroke="#bfbfbf" points="99.5,-.5 99.5,-19.5 182.5,-19.5 182.5,-.5 99.5,-.5"/>
<text text-anchor="middle" x="141" y="-7.5" font-family="Helvetica,sans-Serif" font-size="10.00" fill="#000000">osdk_typedef.h</text>
</a>
</g>
</g>
<!-- Node2&#45;&gt;Node5 -->
<g id="edge5" class="edge">
<title>Node2&#45;&gt;Node5</title>
<path fill="none" stroke="#191970" d="M62.3323,-112.4509C76.7396,-93.688 108.9383,-51.7548 127.3644,-27.758"/>
<polygon fill="#191970" stroke="#191970" points="130.372,-29.588 133.6862,-19.5249 124.8199,-25.3248 130.372,-29.588"/>
</g>
<!-- Node6 -->
<g id="node7" class="node">
<title>Node6</title>
<g id="a_node7"><a xlink:href="dji__error_8hpp.html" target="_top" xlink:title="All DJI OSDK OpenProtocol ACK Error Codes.">
<polygon fill="#ffffff" stroke="#000000" points="139,-56.5 139,-75.5 209,-75.5 209,-56.5 139,-56.5"/>
<text text-anchor="middle" x="174" y="-63.5" font-family="Helvetica,sans-Serif" font-size="10.00" fill="#000000">dji_error.hpp</text>
</a>
</g>
</g>
<!-- Node2&#45;&gt;Node6 -->
<g id="edge6" class="edge">
<title>Node2&#45;&gt;Node6</title>
<path fill="none" stroke="#191970" d="M75.4568,-112.3733C94.4738,-103.4241 123.0175,-89.9917 144.4976,-79.8835"/>
<polygon fill="#191970" stroke="#191970" points="146.2522,-82.926 153.8101,-75.5011 143.2716,-76.5923 146.2522,-82.926"/>
</g>
<!-- Node6&#45;&gt;Node5 -->
<g id="edge9" class="edge">
<title>Node6&#45;&gt;Node5</title>
<path fill="none" stroke="#191970" d="M168.2518,-56.2455C163.7565,-48.617 157.3752,-37.7881 151.9175,-28.5267"/>
<polygon fill="#191970" stroke="#191970" points="154.7747,-26.4811 146.6823,-19.6427 148.7439,-30.035 154.7747,-26.4811"/>
</g>
<!-- Node7 -->
<g id="node8" class="node">
<title>Node7</title>
<g id="a_node8"><a xlink:title=" ">
<polygon fill="#ffffff" stroke="#bfbfbf" points="305,-.5 305,-19.5 351,-19.5 351,-.5 305,-.5"/>
<text text-anchor="middle" x="328" y="-7.5" font-family="Helvetica,sans-Serif" font-size="10.00" fill="#000000">cstdint</text>
</a>
</g>
</g>
<!-- Node6&#45;&gt;Node7 -->
<g id="edge7" class="edge">
<title>Node6&#45;&gt;Node7</title>
<path fill="none" stroke="#191970" d="M200.4735,-56.3733C226.7828,-46.8062 267.1821,-32.1156 295.4402,-21.8399"/>
<polygon fill="#191970" stroke="#191970" points="296.6843,-25.1118 304.8861,-18.4051 294.292,-18.5333 296.6843,-25.1118"/>
</g>
<!-- Node8 -->
<g id="node9" class="node">
<title>Node8</title>
<g id="a_node9"><a xlink:title=" ">
<polygon fill="#ffffff" stroke="#bfbfbf" points="444.5,-.5 444.5,-19.5 479.5,-19.5 479.5,-.5 444.5,-.5"/>
<text text-anchor="middle" x="462" y="-7.5" font-family="Helvetica,sans-Serif" font-size="10.00" fill="#000000">map</text>
</a>
</g>
</g>
<!-- Node6&#45;&gt;Node8 -->
<g id="edge8" class="edge">
<title>Node6&#45;&gt;Node8</title>
<path fill="none" stroke="#191970" d="M209.3506,-58.0337C212.6101,-57.3326 215.8644,-56.645 219,-56 296.8696,-39.9816 389.2151,-23.0711 434.3619,-14.9384"/>
<polygon fill="#191970" stroke="#191970" points="435.0547,-18.37 444.2781,-13.1566 433.8168,-11.4803 435.0547,-18.37"/>
</g>
<!-- Node10 -->
<g id="node11" class="node">
<title>Node10</title>
<g id="a_node11"><a xlink:href="dji__vehicle__callback_8hpp.html" target="_top" xlink:title="Type definition for new Vehicle&#45;style callbacks.">
<polygon fill="#ffffff" stroke="#000000" points="194,-286 194,-305 316,-305 316,-286 194,-286"/>
<text text-anchor="middle" x="255" y="-293" font-family="Helvetica,sans-Serif" font-size="10.00" fill="#000000">dji_vehicle_callback.hpp</text>
</a>
</g>
</g>
<!-- Node9&#45;&gt;Node10 -->
<g id="edge11" class="edge">
<title>Node9&#45;&gt;Node10</title>
<path fill="none" stroke="#191970" d="M233.9063,-347.3906C237.4446,-338.6862 242.7636,-325.6015 247.175,-314.7494"/>
<polygon fill="#191970" stroke="#191970" points="250.5152,-315.8268 251.0387,-305.2449 244.0305,-313.1907 250.5152,-315.8268"/>
</g>
<!-- Node11 -->
<g id="node12" class="node">
<title>Node11</title>
<g id="a_node12"><a xlink:href="dji__ack_8hpp.html" target="_top" xlink:title="All DJI OSDK ACK parsing.">
<polygon fill="#ffffff" stroke="#000000" points="272,-224.5 272,-243.5 338,-243.5 338,-224.5 272,-224.5"/>
<text text-anchor="middle" x="305" y="-231.5" font-family="Helvetica,sans-Serif" font-size="10.00" fill="#000000">dji_ack.hpp</text>
</a>
</g>
</g>
<!-- Node10&#45;&gt;Node11 -->
<g id="edge12" class="edge">
<title>Node10&#45;&gt;Node11</title>
<path fill="none" stroke="#191970" d="M262.8125,-285.8906C270.254,-276.7376 281.6334,-262.7409 290.6992,-251.59"/>
<polygon fill="#191970" stroke="#191970" points="293.4847,-253.712 297.0774,-243.7449 288.0533,-249.2962 293.4847,-253.712"/>
</g>
<!-- Node14 -->
<g id="node15" class="node">
<title>Node14</title>
<g id="a_node15"><a xlink:href="dji__type_8hpp.html" target="_top" xlink:title="Data type and Data Structure definitions for use throughout DJI OSDK.">
<polygon fill="#ffffff" stroke="#000000" points="190.5,-112.5 190.5,-131.5 259.5,-131.5 259.5,-112.5 190.5,-112.5"/>
<text text-anchor="middle" x="225" y="-119.5" font-family="Helvetica,sans-Serif" font-size="10.00" fill="#000000">dji_type.hpp</text>
</a>
</g>
</g>
<!-- Node10&#45;&gt;Node14 -->
<g id="edge27" class="edge">
<title>Node10&#45;&gt;Node14</title>
<path fill="none" stroke="#191970" d="M238.1586,-285.943C211.5943,-269.7709 160.939,-234.2079 141,-188 130.5946,-163.8858 157.4039,-146.2545 183.4404,-135.3126"/>
<polygon fill="#191970" stroke="#191970" points="184.9004,-138.4995 192.9274,-131.5844 182.3401,-131.9845 184.9004,-138.4995"/>
</g>
<!-- Node17 -->
<g id="node18" class="node">
<title>Node17</title>
<g id="a_node18"><a xlink:title=" ">
<polygon fill="#ffffff" stroke="#bfbfbf" points="566.5,-112.5 566.5,-131.5 629.5,-131.5 629.5,-112.5 566.5,-112.5"/>
<text text-anchor="middle" x="598" y="-119.5" font-family="Helvetica,sans-Serif" font-size="10.00" fill="#000000">dji_log.hpp</text>
</a>
</g>
</g>
<!-- Node10&#45;&gt;Node17 -->
<g id="edge26" class="edge">
<title>Node10&#45;&gt;Node17</title>
<path fill="none" stroke="#191970" d="M275.5603,-285.8628C314.7916,-267.3937 402.934,-225.5122 476,-188 509.2858,-170.911 547.108,-150.2534 571.6986,-136.6542"/>
<polygon fill="#191970" stroke="#191970" points="573.7011,-139.5459 580.7503,-131.6365 570.3073,-133.4237 573.7011,-139.5459"/>
</g>
<!-- Node11&#45;&gt;Node8 -->
<g id="edge25" class="edge">
<title>Node11&#45;&gt;Node8</title>
<path fill="none" stroke="#191970" d="M338.3198,-227.2159C374.7527,-219.0849 429.7387,-204.4767 443,-188 480.1003,-141.9042 472.525,-65.9164 466.2058,-29.9967"/>
<polygon fill="#191970" stroke="#191970" points="469.5772,-28.993 464.2564,-19.8311 462.7024,-30.3113 469.5772,-28.993"/>
</g>
<!-- Node12 -->
<g id="node13" class="node">
<title>Node12</title>
<g id="a_node13"><a xlink:href="dji__command_8hpp.html" target="_top" xlink:title="All DJI OSDK OpenProtocol Command IDs.">
<polygon fill="#ffffff" stroke="#000000" points="277.5,-112.5 277.5,-131.5 370.5,-131.5 370.5,-112.5 277.5,-112.5"/>
<text text-anchor="middle" x="324" y="-119.5" font-family="Helvetica,sans-Serif" font-size="10.00" fill="#000000">dji_command.hpp</text>
</a>
</g>
</g>
<!-- Node11&#45;&gt;Node12 -->
<g id="edge13" class="edge">
<title>Node11&#45;&gt;Node12</title>
<path fill="none" stroke="#191970" d="M306.6199,-224.4509C309.7188,-206.184 316.5433,-165.9553 320.6584,-141.6976"/>
<polygon fill="#191970" stroke="#191970" points="324.1623,-141.9694 322.3842,-131.5249 317.2609,-140.7986 324.1623,-141.9694"/>
</g>
<!-- Node13 -->
<g id="node14" class="node">
<title>Node13</title>
<g id="a_node14"><a xlink:href="dji__mission__type_8hpp.html" target="_top" xlink:title="Mission related data struct for DJI OSDK library.">
<polygon fill="#ffffff" stroke="#000000" points="150,-168.5 150,-187.5 258,-187.5 258,-168.5 150,-168.5"/>
<text text-anchor="middle" x="204" y="-175.5" font-family="Helvetica,sans-Serif" font-size="10.00" fill="#000000">dji_mission_type.hpp</text>
</a>
</g>
</g>
<!-- Node11&#45;&gt;Node13 -->
<g id="edge16" class="edge">
<title>Node11&#45;&gt;Node13</title>
<path fill="none" stroke="#191970" d="M287.4071,-224.2455C271.621,-215.4928 248.2361,-202.527 230.2413,-192.5496"/>
<polygon fill="#191970" stroke="#191970" points="231.8341,-189.4308 221.3913,-187.6427 228.4397,-195.5528 231.8341,-189.4308"/>
</g>
<!-- Node11&#45;&gt;Node14 -->
<g id="edge21" class="edge">
<title>Node11&#45;&gt;Node14</title>
<path fill="none" stroke="#191970" d="M300.2096,-224.1963C293.5434,-210.9371 280.732,-186.7868 267,-168 259.5526,-157.8112 250.1669,-147.3522 242.1579,-138.9869"/>
<polygon fill="#191970" stroke="#191970" points="244.5059,-136.3822 235.0091,-131.6853 239.5041,-141.2793 244.5059,-136.3822"/>
</g>
<!-- Node16 -->
<g id="node17" class="node">
<title>Node16</title>
<g id="a_node17"><a xlink:href="dji__version_8hpp.html" target="_top" xlink:title="Drone/SDK Version definition for DJI onboardSDK library.">
<polygon fill="#ffffff" stroke="#000000" points="352,-168.5 352,-187.5 434,-187.5 434,-168.5 352,-168.5"/>
<text text-anchor="middle" x="393" y="-175.5" font-family="Helvetica,sans-Serif" font-size="10.00" fill="#000000">dji_version.hpp</text>
</a>
</g>
</g>
<!-- Node11&#45;&gt;Node16 -->
<g id="edge22" class="edge">
<title>Node11&#45;&gt;Node16</title>
<path fill="none" stroke="#191970" d="M320.3284,-224.2455C333.8303,-215.6534 353.7122,-203.0014 369.2686,-193.1018"/>
<polygon fill="#191970" stroke="#191970" points="371.2897,-195.9643 377.8472,-187.6427 367.5315,-190.0587 371.2897,-195.9643"/>
</g>
<!-- Node12&#45;&gt;Node3 -->
<g id="edge15" class="edge">
<title>Node12&#45;&gt;Node3</title>
<path fill="none" stroke="#191970" d="M322.4323,-112.2455C321.2579,-104.9382 319.6116,-94.6944 318.1668,-85.7046"/>
<polygon fill="#191970" stroke="#191970" points="321.5922,-84.9606 316.5497,-75.6427 314.6809,-86.0714 321.5922,-84.9606"/>
</g>
<!-- Node12&#45;&gt;Node6 -->
<g id="edge14" class="edge">
<title>Node12&#45;&gt;Node6</title>
<path fill="none" stroke="#191970" d="M298.2141,-112.3733C273.5953,-103.1822 236.31,-89.2624 209.0125,-79.0713"/>
<polygon fill="#191970" stroke="#191970" points="210.042,-75.7198 199.4494,-75.5011 207.5937,-82.2777 210.042,-75.7198"/>
</g>
<!-- Node13&#45;&gt;Node1 -->
<g id="edge17" class="edge">
<title>Node13&#45;&gt;Node1</title>
<path fill="none" stroke="#191970" d="M194.5939,-168.2455C186.8507,-160.2155 175.688,-148.6394 166.4682,-139.0781"/>
<polygon fill="#191970" stroke="#191970" points="168.7591,-136.4117 159.2983,-131.6427 163.7202,-141.2706 168.7591,-136.4117"/>
</g>
<!-- Node13&#45;&gt;Node14 -->
<g id="edge18" class="edge">
<title>Node13&#45;&gt;Node14</title>
<path fill="none" stroke="#191970" d="M207.6579,-168.2455C210.4584,-160.7776 214.409,-150.2427 217.8324,-141.1137"/>
<polygon fill="#191970" stroke="#191970" points="221.1499,-142.2349 221.384,-131.6427 214.5955,-139.777 221.1499,-142.2349"/>
</g>
<!-- Node14&#45;&gt;Node3 -->
<g id="edge20" class="edge">
<title>Node14&#45;&gt;Node3</title>
<path fill="none" stroke="#191970" d="M240.6768,-112.2455C254.4856,-103.6534 274.8193,-91.0014 290.7292,-81.1018"/>
<polygon fill="#191970" stroke="#191970" points="292.8613,-83.8974 299.5028,-75.6427 289.1632,-77.954 292.8613,-83.8974"/>
</g>
<!-- Node15 -->
<g id="node16" class="node">
<title>Node15</title>
<g id="a_node16"><a xlink:title=" ">
<polygon fill="#ffffff" stroke="#bfbfbf" points="227.5,-56.5 227.5,-75.5 270.5,-75.5 270.5,-56.5 227.5,-56.5"/>
<text text-anchor="middle" x="249" y="-63.5" font-family="Helvetica,sans-Serif" font-size="10.00" fill="#000000">cstdio</text>
</a>
</g>
</g>
<!-- Node14&#45;&gt;Node15 -->
<g id="edge19" class="edge">
<title>Node14&#45;&gt;Node15</title>
<path fill="none" stroke="#191970" d="M229.1805,-112.2455C232.381,-104.7776 236.896,-94.2427 240.8084,-85.1137"/>
<polygon fill="#191970" stroke="#191970" points="244.1452,-86.2129 244.8674,-75.6427 237.7112,-83.4554 244.1452,-86.2129"/>
</g>
<!-- Node16&#45;&gt;Node7 -->
<g id="edge24" class="edge">
<title>Node16&#45;&gt;Node7</title>
<path fill="none" stroke="#191970" d="M391.9531,-168.3834C390.3434,-155.3361 386.7182,-131.4252 380,-112 369.392,-81.3275 351.1618,-48.2872 339.3479,-28.3774"/>
<polygon fill="#191970" stroke="#191970" points="342.2899,-26.4784 334.1254,-19.7263 336.2972,-30.0961 342.2899,-26.4784"/>
</g>
<!-- Node16&#45;&gt;Node12 -->
<g id="edge23" class="edge">
<title>Node16&#45;&gt;Node12</title>
<path fill="none" stroke="#191970" d="M380.9811,-168.2455C370.7902,-159.9746 355.9638,-147.9416 343.9893,-138.2232"/>
<polygon fill="#191970" stroke="#191970" points="345.8514,-135.2268 335.8812,-131.6427 341.4402,-140.662 345.8514,-135.2268"/>
</g>
<!-- Node19 -->
<g id="node20" class="node">
<title>Node19</title>
<g id="a_node20"><a xlink:href="dji__mop__pipeline_8hpp.html" target="_top" xlink:title="Implementation of mop pipeline.">
<polygon fill="#ffffff" stroke="#000000" points="493.5,-224.5 493.5,-243.5 600.5,-243.5 600.5,-224.5 493.5,-224.5"/>
<text text-anchor="middle" x="547" y="-231.5" font-family="Helvetica,sans-Serif" font-size="10.00" fill="#000000">dji_mop_pipeline.hpp</text>
</a>
</g>
</g>
<!-- Node18&#45;&gt;Node19 -->
<g id="edge29" class="edge">
<title>Node18&#45;&gt;Node19</title>
<path fill="none" stroke="#191970" d="M541.4708,-347.3484C542.4522,-327.2295 544.7336,-280.4608 546.0385,-253.7098"/>
<polygon fill="#191970" stroke="#191970" points="549.5399,-253.7655 546.5314,-243.6068 542.5482,-253.4243 549.5399,-253.7655"/>
</g>
<!-- Node22 -->
<g id="node23" class="node">
<title>Node22</title>
<g id="a_node23"><a xlink:href="dji__mop__pipeline__manager__base_8hpp.html" target="_top" xlink:title="Implementation of mop pipeline manager base.">
<polygon fill="#ffffff" stroke="#000000" points="569.5,-280.5 569.5,-310.5 700.5,-310.5 700.5,-280.5 569.5,-280.5"/>
<text text-anchor="start" x="577.5" y="-298.5" font-family="Helvetica,sans-Serif" font-size="10.00" fill="#000000">dji_mop_pipeline_manager</text>
<text text-anchor="middle" x="635" y="-287.5" font-family="Helvetica,sans-Serif" font-size="10.00" fill="#000000">_base.hpp</text>
</a>
</g>
</g>
<!-- Node18&#45;&gt;Node22 -->
<g id="edge34" class="edge">
<title>Node18&#45;&gt;Node22</title>
<path fill="none" stroke="#191970" d="M555.6875,-347.3906C568.4093,-339.0673 587.2527,-326.7389 603.3806,-316.1872"/>
<polygon fill="#191970" stroke="#191970" points="605.5531,-318.9484 612.005,-310.5446 601.7206,-313.0907 605.5531,-318.9484"/>
</g>
<!-- Node19&#45;&gt;Node3 -->
<g id="edge30" class="edge">
<title>Node19&#45;&gt;Node3</title>
<path fill="none" stroke="#191970" d="M534.0561,-224.4419C506.0549,-203.7876 437.7204,-153.5041 380,-112 365.8197,-101.8036 349.8051,-90.4681 337.2202,-81.6011"/>
<polygon fill="#191970" stroke="#191970" points="338.9302,-78.5247 328.7378,-75.6323 334.9019,-84.2495 338.9302,-78.5247"/>
</g>
<!-- Node20 -->
<g id="node21" class="node">
<title>Node20</title>
<g id="a_node21"><a xlink:href="dji__mop__define_8hpp.html" target="_top" xlink:title="Enumeration of all mop data types, structures.">
<polygon fill="#ffffff" stroke="#000000" points="643.5,-168.5 643.5,-187.5 744.5,-187.5 744.5,-168.5 643.5,-168.5"/>
<text text-anchor="middle" x="694" y="-175.5" font-family="Helvetica,sans-Serif" font-size="10.00" fill="#000000">dji_mop_define.hpp</text>
</a>
</g>
</g>
<!-- Node19&#45;&gt;Node20 -->
<g id="edge31" class="edge">
<title>Node19&#45;&gt;Node20</title>
<path fill="none" stroke="#191970" d="M572.2702,-224.3733C596.3966,-215.1822 632.9362,-201.2624 659.6877,-191.0713"/>
<polygon fill="#191970" stroke="#191970" points="660.9607,-194.3318 669.0596,-187.5011 658.4687,-187.7904 660.9607,-194.3318"/>
</g>
<!-- Node20&#45;&gt;Node17 -->
<g id="edge33" class="edge">
<title>Node20&#45;&gt;Node17</title>
<path fill="none" stroke="#191970" d="M677.2781,-168.2455C662.4111,-159.5731 640.4534,-146.7645 623.4142,-136.825"/>
<polygon fill="#191970" stroke="#191970" points="624.9317,-133.6582 614.5303,-131.6427 621.4045,-139.7047 624.9317,-133.6582"/>
</g>
<!-- Node21 -->
<g id="node22" class="node">
<title>Node21</title>
<g id="a_node22"><a xlink:title=" ">
<polygon fill="#ffffff" stroke="#bfbfbf" points="647.5,-112.5 647.5,-131.5 744.5,-131.5 744.5,-112.5 647.5,-112.5"/>
<text text-anchor="middle" x="696" y="-119.5" font-family="Helvetica,sans-Serif" font-size="10.00" fill="#000000">mop_entry_osdk.h</text>
</a>
</g>
</g>
<!-- Node20&#45;&gt;Node21 -->
<g id="edge32" class="edge">
<title>Node20&#45;&gt;Node21</title>
<path fill="none" stroke="#191970" d="M694.3484,-168.2455C694.6093,-160.9382 694.9752,-150.6944 695.2963,-141.7046"/>
<polygon fill="#191970" stroke="#191970" points="698.7964,-141.7613 695.6556,-131.6427 691.8008,-141.5113 698.7964,-141.7613"/>
</g>
<!-- Node22&#45;&gt;Node8 -->
<g id="edge38" class="edge">
<title>Node22&#45;&gt;Node8</title>
<path fill="none" stroke="#191970" d="M676.779,-280.39C717.396,-262.6949 773,-229.1329 773,-178 773,-178 773,-178 773,-122 773,-62.1062 566.2391,-25.4229 489.89,-13.9189"/>
<polygon fill="#191970" stroke="#191970" points="490.0152,-10.3996 479.6118,-12.4045 488.9948,-17.3248 490.0152,-10.3996"/>
</g>
<!-- Node22&#45;&gt;Node17 -->
<g id="edge37" class="edge">
<title>Node22&#45;&gt;Node17</title>
<path fill="none" stroke="#191970" d="M631.7812,-280.4065C625.0863,-249.0126 609.6643,-176.6961 602.1996,-141.6925"/>
<polygon fill="#191970" stroke="#191970" points="605.5855,-140.7881 600.0767,-131.738 598.7394,-142.2481 605.5855,-140.7881"/>
</g>
<!-- Node22&#45;&gt;Node19 -->
<g id="edge36" class="edge">
<title>Node22&#45;&gt;Node19</title>
<path fill="none" stroke="#191970" d="M613.2472,-280.2977C599.8032,-270.9022 582.5989,-258.8787 569.0922,-249.4395"/>
<polygon fill="#191970" stroke="#191970" points="571.0288,-246.5228 560.8271,-243.6633 567.0189,-252.2605 571.0288,-246.5228"/>
</g>
<!-- Node22&#45;&gt;Node20 -->
<g id="edge35" class="edge">
<title>Node22&#45;&gt;Node20</title>
<path fill="none" stroke="#191970" d="M642.7132,-280.1389C653.4881,-258.6806 673.0242,-219.7738 684.6252,-196.6702"/>
<polygon fill="#191970" stroke="#191970" points="687.8404,-198.0667 689.1999,-187.5595 681.5847,-194.9256 687.8404,-198.0667"/>
</g>
</g>
</svg>
        <g id="navigator" transform="translate(0 0)" fill="#404254">
                <rect fill="#f2f5e9" fill-opacity="0.5" stroke="#606060" stroke-width=".5" x="0" y="0" width="60" height="60"/>
                <use id="zoomplus" xlink:href="#zoomPlus" x="17" y="9" onmousedown="handleZoom(evt,'in')"/>
                <use id="zoomminus" xlink:href="#zoomMin" x="42" y="9" onmousedown="handleZoom(evt,'out')"/>
                <use id="reset" xlink:href="#resetDef" x="30" y="36" onmousedown="handleReset()"/>
                <g id="arrowUp" xlink:href="#dirArrow" transform="translate(30 24)" onmousedown="handlePan(0,-1)">
                  <use xlink:href="#rim" fill="#404040">
                        <set attributeName="fill" to="#808080" begin="arrowUp.mouseover" end="arrowUp.mouseout"/>
                  </use>
                  <path fill="none" stroke="white" stroke-width="1.5" d="M0,-3.0v7 M-2.5,-0.5L0,-3.0L2.5,-0.5"/>
                </g>
                <g id="arrowRight" xlink:href="#dirArrow" transform="rotate(90) translate(36 -43)" onmousedown="handlePan(1,0)">
                  <use xlink:href="#rim" fill="#404040">
                        <set attributeName="fill" to="#808080" begin="arrowRight.mouseover" end="arrowRight.mouseout"/>
                  </use>
                  <path fill="none" stroke="white" stroke-width="1.5" d="M0,-3.0v7 M-2.5,-0.5L0,-3.0L2.5,-0.5"/>
                </g>
                <g id="arrowDown" xlink:href="#dirArrow" transform="rotate(180) translate(-30 -48)" onmousedown="handlePan(0,1)">
                  <use xlink:href="#rim" fill="#404040">
                        <set attributeName="fill" to="#808080" begin="arrowDown.mouseover" end="arrowDown.mouseout"/>
                  </use>
                  <path fill="none" stroke="white" stroke-width="1.5" d="M0,-3.0v7 M-2.5,-0.5L0,-3.0L2.5,-0.5"/>
                </g>
                <g id="arrowLeft" xlink:href="#dirArrow" transform="rotate(270) translate(-36 17)" onmousedown="handlePan(-1,0)">
                  <use xlink:href="#rim" fill="#404040">
                        <set attributeName="fill" to="#808080" begin="arrowLeft.mouseover" end="arrowLeft.mouseout"/>
                  </use>
                  <path fill="none" stroke="white" stroke-width="1.5" d="M0,-3.0v7 M-2.5,-0.5L0,-3.0L2.5,-0.5"/>
                </g>
        </g>
        <svg viewBox="0 0 15 15" width="100%" height="30px" preserveAspectRatio="xMaxYMin meet">
         <g id="arrow_out" transform="scale(0.3 0.3)">
          <a xlink:href="dji__psdk__module_8hpp__incl_org.svg" target="_base">
           <rect id="button" ry="5" rx="5" y="6" x="6" height="38" width="38"
                fill="#f2f5e9" fill-opacity="0.5" stroke="#606060" stroke-width="1.0"/>
           <path id="arrow"
             d="M 11.500037,31.436501 C 11.940474,20.09759 22.043105,11.32322 32.158766,21.979434 L 37.068811,17.246167 C 37.068811,17.246167 37.088388,32 37.088388,32 L 22.160133,31.978069 C 22.160133,31.978069 26.997745,27.140456 26.997745,27.140456 C 18.528582,18.264221 13.291696,25.230495 11.500037,31.436501 z"
             style="fill:#404040;"/>
          </a>
         </g>
        </svg>
</svg>
