<?xml version="1.0" encoding="UTF-8" standalone="no"?>
<!DOCTYPE svg PUBLIC "-//W3C//DTD SVG 1.1//EN"
 "http://www.w3.org/Graphics/SVG/1.1/DTD/svg11.dtd">
<!-- Generated by graphviz version 2.38.0 (20140413.2041)
 -->
<!-- Title: osdk&#45;core/api/src/dji_gimbal.cpp Pages: 1 -->
<!--zoomable 431 -->
<svg id="main" version="1.1" xmlns="http://www.w3.org/2000/svg" xmlns:xlink="http://www.w3.org/1999/xlink" xml:space="preserve" onload="init(evt)">
<style type="text/css"><![CDATA[
.edge:hover path { stroke: red; }
.edge:hover polygon { stroke: red; fill: red; }
]]></style>
<script type="text/javascript"><![CDATA[
var edges = document.getElementsByTagName('g');
if (edges && edges.length) {
  for (var i=0;i<edges.length;i++) {
    if (edges[i].id.substr(0,4)=='edge') {
      edges[i].setAttribute('class','edge');
    }
  }
}
]]></script>
        <defs>
                <circle id="rim" cx="0" cy="0" r="7"/>
                <circle id="rim2" cx="0" cy="0" r="3.5"/>
                <g id="zoomPlus">
                        <use xlink:href="#rim" fill="#404040">
                                <set attributeName="fill" to="#808080" begin="zoomplus.mouseover" end="zoomplus.mouseout"/>
                        </use>
                        <path d="M-4,0h8M0,-4v8" fill="none" stroke="white" stroke-width="1.5" pointer-events="none"/>
                </g>
                <g id="zoomMin">
                        <use xlink:href="#rim" fill="#404040">
                                <set attributeName="fill" to="#808080" begin="zoomminus.mouseover" end="zoomminus.mouseout"/>
                        </use>
                        <path d="M-4,0h8" fill="none" stroke="white" stroke-width="1.5" pointer-events="none"/>
                </g>
                <g id="dirArrow">
                        <path fill="none" stroke="white" stroke-width="1.5" d="M0,-3.0v7 M-2.5,-0.5L0,-3.0L2.5,-0.5"/>
                </g>
               <g id="resetDef">
                       <use xlink:href="#rim2" fill="#404040">
                               <set attributeName="fill" to="#808080" begin="reset.mouseover" end="reset.mouseout"/>
                       </use>
               </g>
        </defs>

<script type="text/javascript">
var viewWidth = 1937;
var viewHeight = 431;
var sectionId = 'dynsection-0';
</script>
<script xlink:href="svgpan.js"/>
<svg id="graph" class="graph">
<g id="viewport">
<title>osdk&#45;core/api/src/dji_gimbal.cpp</title>
<polygon fill="white" stroke="none" points="-4,4 -4,-427 1932.5,-427 1932.5,4 -4,4"/>
<!-- Node0 -->
<g id="node1" class="node"><title>Node0</title>
<g id="a_node1"><a xlink:title="Gimbal API for OSDK library.">
<polygon fill="#bfbfbf" stroke="black" points="452.5,-392.5 452.5,-422.5 556.5,-422.5 556.5,-392.5 452.5,-392.5"/>
<text text-anchor="start" x="460.5" y="-410.5" font-family="Helvetica,sans-Serif" font-size="10.00">osdk&#45;core/api/src/dji</text>
<text text-anchor="middle" x="504.5" y="-399.5" font-family="Helvetica,sans-Serif" font-size="10.00">_gimbal.cpp</text>
</a>
</g>
</g>
<!-- Node1 -->
<g id="node2" class="node"><title>Node1</title>
<g id="a_node2"><a xlink:href="dji__gimbal_8hpp.html" target="_top" xlink:title="Gimbal API for OSDK library.">
<polygon fill="white" stroke="black" points="0,-224.5 0,-243.5 79,-243.5 79,-224.5 0,-224.5"/>
<text text-anchor="middle" x="39.5" y="-231.5" font-family="Helvetica,sans-Serif" font-size="10.00">dji_gimbal.hpp</text>
</a>
</g>
</g>
<!-- Node0&#45;&gt;Node1 -->
<g id="edge1" class="edge"><title>Node0&#45;&gt;Node1</title>
<path fill="none" stroke="midnightblue" d="M452.239,-399.88C348.903,-385.843 123.429,-350.211 65.5,-300 51.8872,-288.201 45.3219,-268.276 42.2065,-253.589"/>
<polygon fill="midnightblue" stroke="midnightblue" points="45.6278,-252.837 40.4371,-243.601 38.7352,-254.058 45.6278,-252.837"/>
</g>
<!-- Node7 -->
<g id="node8" class="node"><title>Node7</title>
<g id="a_node8"><a xlink:href="dji__vehicle_8hpp.html" target="_top" xlink:title="Vehicle API for DJI onboardSDK library.">
<polygon fill="white" stroke="black" points="938,-336.5 938,-355.5 1019,-355.5 1019,-336.5 938,-336.5"/>
<text text-anchor="middle" x="978.5" y="-343.5" font-family="Helvetica,sans-Serif" font-size="10.00">dji_vehicle.hpp</text>
</a>
</g>
</g>
<!-- Node0&#45;&gt;Node7 -->
<g id="edge9" class="edge"><title>Node0&#45;&gt;Node7</title>
<path fill="none" stroke="midnightblue" d="M556.582,-399.962C648.167,-388.466 836.93,-364.771 927.641,-353.384"/>
<polygon fill="midnightblue" stroke="midnightblue" points="928.195,-356.842 937.681,-352.124 927.323,-349.897 928.195,-356.842"/>
</g>
<!-- Node2 -->
<g id="node3" class="node"><title>Node2</title>
<g id="a_node3"><a xlink:href="dji__command_8hpp.html" target="_top" xlink:title="All DJI OSDK OpenProtocol Command IDs.">
<polygon fill="white" stroke="black" points="247,-112.5 247,-131.5 340,-131.5 340,-112.5 247,-112.5"/>
<text text-anchor="middle" x="293.5" y="-119.5" font-family="Helvetica,sans-Serif" font-size="10.00">dji_command.hpp</text>
</a>
</g>
</g>
<!-- Node1&#45;&gt;Node2 -->
<g id="edge2" class="edge"><title>Node1&#45;&gt;Node2</title>
<path fill="none" stroke="midnightblue" d="M40.0801,-224.331C41.5126,-210.244 46.4614,-182.502 63.5,-168 89.0919,-146.218 177.426,-133.809 236.873,-127.747"/>
<polygon fill="midnightblue" stroke="midnightblue" points="237.275,-131.225 246.883,-126.758 236.587,-124.258 237.275,-131.225"/>
</g>
<!-- Node5 -->
<g id="node6" class="node"><title>Node5</title>
<g id="a_node6"><a xlink:href="dji__type_8hpp.html" target="_top" xlink:title="Data type and Data Structure definitions for use throughout DJI OSDK.">
<polygon fill="white" stroke="black" points="425,-112.5 425,-131.5 494,-131.5 494,-112.5 425,-112.5"/>
<text text-anchor="middle" x="459.5" y="-119.5" font-family="Helvetica,sans-Serif" font-size="10.00">dji_type.hpp</text>
</a>
</g>
</g>
<!-- Node1&#45;&gt;Node5 -->
<g id="edge6" class="edge"><title>Node1&#45;&gt;Node5</title>
<path fill="none" stroke="midnightblue" d="M48.8872,-224.316C65.0192,-209.946 99.6427,-181.473 134.5,-168 184.674,-148.608 337.71,-133.336 414.523,-126.66"/>
<polygon fill="midnightblue" stroke="midnightblue" points="415.173,-130.117 424.837,-125.775 414.575,-123.143 415.173,-130.117"/>
</g>
<!-- Node3 -->
<g id="node4" class="node"><title>Node3</title>
<g id="a_node4"><a xlink:href="dji__error_8hpp.html" target="_top" xlink:title="All DJI OSDK OpenProtocol ACK Error Codes.">
<polygon fill="white" stroke="black" points="258.5,-56.5 258.5,-75.5 328.5,-75.5 328.5,-56.5 258.5,-56.5"/>
<text text-anchor="middle" x="293.5" y="-63.5" font-family="Helvetica,sans-Serif" font-size="10.00">dji_error.hpp</text>
</a>
</g>
</g>
<!-- Node2&#45;&gt;Node3 -->
<g id="edge3" class="edge"><title>Node2&#45;&gt;Node3</title>
<path fill="none" stroke="midnightblue" d="M293.5,-112.083C293.5,-105.006 293.5,-94.8611 293.5,-85.9865"/>
<polygon fill="midnightblue" stroke="midnightblue" points="297,-85.751 293.5,-75.7511 290,-85.7511 297,-85.751"/>
</g>
<!-- Node4 -->
<g id="node5" class="node"><title>Node4</title>
<g id="a_node5"><a xlink:title=" ">
<polygon fill="white" stroke="#bfbfbf" points="332,-0.5 332,-19.5 381,-19.5 381,-0.5 332,-0.5"/>
<text text-anchor="middle" x="356.5" y="-7.5" font-family="Helvetica,sans-Serif" font-size="10.00">stdint.h</text>
</a>
</g>
</g>
<!-- Node2&#45;&gt;Node4 -->
<g id="edge5" class="edge"><title>Node2&#45;&gt;Node4</title>
<path fill="none" stroke="midnightblue" d="M304.843,-112.179C314.807,-103.859 329.004,-90.5244 337.5,-76 345.94,-61.5704 350.866,-43.1178 353.578,-29.5626"/>
<polygon fill="midnightblue" stroke="midnightblue" points="357.058,-29.9822 355.363,-19.5238 350.166,-28.7564 357.058,-29.9822"/>
</g>
<!-- Node3&#45;&gt;Node4 -->
<g id="edge4" class="edge"><title>Node3&#45;&gt;Node4</title>
<path fill="none" stroke="midnightblue" d="M303.622,-56.324C313.026,-48.2631 327.244,-36.0765 338.569,-26.3695"/>
<polygon fill="midnightblue" stroke="midnightblue" points="340.879,-28.9993 346.194,-19.8339 336.323,-23.6844 340.879,-28.9993"/>
</g>
<!-- Node5&#45;&gt;Node4 -->
<g id="edge8" class="edge"><title>Node5&#45;&gt;Node4</title>
<path fill="none" stroke="midnightblue" d="M451.418,-112.368C434.194,-93.9744 393.647,-50.6712 371.53,-27.0519"/>
<polygon fill="midnightblue" stroke="midnightblue" points="373.935,-24.4987 364.545,-19.5914 368.825,-29.2832 373.935,-24.4987"/>
</g>
<!-- Node6 -->
<g id="node7" class="node"><title>Node6</title>
<g id="a_node7"><a xlink:title=" ">
<polygon fill="white" stroke="#bfbfbf" points="438,-56.5 438,-75.5 481,-75.5 481,-56.5 438,-56.5"/>
<text text-anchor="middle" x="459.5" y="-63.5" font-family="Helvetica,sans-Serif" font-size="10.00">cstdio</text>
</a>
</g>
</g>
<!-- Node5&#45;&gt;Node6 -->
<g id="edge7" class="edge"><title>Node5&#45;&gt;Node6</title>
<path fill="none" stroke="midnightblue" d="M459.5,-112.083C459.5,-105.006 459.5,-94.8611 459.5,-85.9865"/>
<polygon fill="midnightblue" stroke="midnightblue" points="463,-85.751 459.5,-75.7511 456,-85.7511 463,-85.751"/>
</g>
<!-- Node7&#45;&gt;Node1 -->
<g id="edge34" class="edge"><title>Node7&#45;&gt;Node1</title>
<path fill="none" stroke="midnightblue" d="M937.936,-344.842C774.517,-343.948 169.548,-338.075 93.5,-300 73.2688,-289.871 57.8159,-268.357 48.7263,-252.851"/>
<polygon fill="midnightblue" stroke="midnightblue" points="51.5791,-250.776 43.6857,-243.708 45.4491,-254.155 51.5791,-250.776"/>
</g>
<!-- Node7&#45;&gt;Node2 -->
<g id="edge20" class="edge"><title>Node7&#45;&gt;Node2</title>
<path fill="none" stroke="midnightblue" d="M937.88,-344.595C789.342,-342.843 281.009,-334.37 217.5,-300 156.552,-267.016 92.6986,-223.274 134.5,-168 147.023,-151.441 196.209,-139.222 236.598,-131.729"/>
<polygon fill="midnightblue" stroke="midnightblue" points="237.425,-135.136 246.65,-129.926 236.189,-128.246 237.425,-135.136"/>
</g>
<!-- Node7&#45;&gt;Node5 -->
<g id="edge65" class="edge"><title>Node7&#45;&gt;Node5</title>
<path fill="none" stroke="midnightblue" d="M937.971,-344.645C818.434,-343.19 468.973,-335.897 361.5,-300 317.884,-285.432 296.523,-284.367 274.5,-244 240.827,-182.28 350.09,-146.931 414.956,-131.817"/>
<polygon fill="midnightblue" stroke="midnightblue" points="415.971,-135.176 424.957,-129.564 414.433,-128.347 415.971,-135.176"/>
</g>
<!-- Node8 -->
<g id="node9" class="node"><title>Node8</title>
<g id="a_node9"><a xlink:title=" ">
<polygon fill="white" stroke="#bfbfbf" points="959.5,-112.5 959.5,-131.5 1005.5,-131.5 1005.5,-112.5 959.5,-112.5"/>
<text text-anchor="middle" x="982.5" y="-119.5" font-family="Helvetica,sans-Serif" font-size="10.00">cstdint</text>
</a>
</g>
</g>
<!-- Node7&#45;&gt;Node8 -->
<g id="edge10" class="edge"><title>Node7&#45;&gt;Node8</title>
<path fill="none" stroke="midnightblue" d="M978.657,-336.297C979.245,-303.633 981.331,-187.866 982.158,-141.957"/>
<polygon fill="midnightblue" stroke="midnightblue" points="985.659,-141.945 982.34,-131.884 978.66,-141.819 985.659,-141.945"/>
</g>
<!-- Node9 -->
<g id="node10" class="node"><title>Node9</title>
<g id="a_node10"><a xlink:href="dji__broadcast_8hpp.html" target="_top" xlink:title="Broadcast Telemetry API for DJI onboardSDK library.">
<polygon fill="white" stroke="black" points="809,-224.5 809,-243.5 902,-243.5 902,-224.5 809,-224.5"/>
<text text-anchor="middle" x="855.5" y="-231.5" font-family="Helvetica,sans-Serif" font-size="10.00">dji_broadcast.hpp</text>
</a>
</g>
</g>
<!-- Node7&#45;&gt;Node9 -->
<g id="edge11" class="edge"><title>Node7&#45;&gt;Node9</title>
<path fill="none" stroke="midnightblue" d="M937.686,-338.69C896.826,-331.441 838.116,-318.164 824.5,-300 813.091,-284.78 826.192,-264.693 838.699,-250.9"/>
<polygon fill="midnightblue" stroke="midnightblue" points="841.345,-253.2 845.806,-243.59 836.325,-248.32 841.345,-253.2"/>
</g>
<!-- Node11 -->
<g id="node12" class="node"><title>Node11</title>
<g id="a_node12"><a xlink:href="dji__vehicle__callback_8hpp.html" target="_top" xlink:title="Type definition for new Vehicle&#45;style callbacks.">
<polygon fill="white" stroke="black" points="1264.5,-112.5 1264.5,-131.5 1386.5,-131.5 1386.5,-112.5 1264.5,-112.5"/>
<text text-anchor="middle" x="1325.5" y="-119.5" font-family="Helvetica,sans-Serif" font-size="10.00">dji_vehicle_callback.hpp</text>
</a>
</g>
</g>
<!-- Node7&#45;&gt;Node11 -->
<g id="edge66" class="edge"><title>Node7&#45;&gt;Node11</title>
<path fill="none" stroke="midnightblue" d="M1019.06,-343.295C1123.99,-338.559 1398.5,-323.995 1431.5,-300 1482.11,-263.198 1518.08,-218.039 1480.5,-168 1469.15,-152.882 1426.7,-141.199 1389.09,-133.53"/>
<polygon fill="midnightblue" stroke="midnightblue" points="1389.63,-130.07 1379.14,-131.57 1388.28,-136.938 1389.63,-130.07"/>
</g>
<!-- Node12 -->
<g id="node13" class="node"><title>Node12</title>
<g id="a_node13"><a xlink:title=" ">
<polygon fill="white" stroke="#bfbfbf" points="1022,-56.5 1022,-75.5 1133,-75.5 1133,-56.5 1022,-56.5"/>
<text text-anchor="middle" x="1077.5" y="-63.5" font-family="Helvetica,sans-Serif" font-size="10.00">dji_open_protocol.hpp</text>
</a>
</g>
</g>
<!-- Node7&#45;&gt;Node12 -->
<g id="edge57" class="edge"><title>Node7&#45;&gt;Node12</title>
<path fill="none" stroke="midnightblue" d="M1019.23,-344.122C1178.47,-340.517 1754.03,-325.806 1831.5,-300 1880.74,-283.599 1928.5,-286.895 1928.5,-235 1928.5,-235 1928.5,-235 1928.5,-177 1928.5,-97.884 1342.51,-74.3262 1143.06,-68.5991"/>
<polygon fill="midnightblue" stroke="midnightblue" points="1143.1,-65.0992 1133.01,-68.3164 1142.91,-72.0964 1143.1,-65.0992"/>
</g>
<!-- Node13 -->
<g id="node14" class="node"><title>Node13</title>
<g id="a_node14"><a xlink:href="dji__camera_8hpp.html" target="_top" xlink:title="Camera/Gimbal API for DJI onboardSDK library.">
<polygon fill="white" stroke="black" points="144,-168.5 144,-187.5 227,-187.5 227,-168.5 144,-168.5"/>
<text text-anchor="middle" x="185.5" y="-175.5" font-family="Helvetica,sans-Serif" font-size="10.00">dji_camera.hpp</text>
</a>
</g>
</g>
<!-- Node7&#45;&gt;Node13 -->
<g id="edge16" class="edge"><title>Node7&#45;&gt;Node13</title>
<path fill="none" stroke="midnightblue" d="M937.917,-344.922C791.938,-344.318 299.128,-339.354 241.5,-300 206.722,-276.25 193.093,-225.145 188.117,-197.561"/>
<polygon fill="midnightblue" stroke="midnightblue" points="191.564,-196.95 186.521,-187.632 184.652,-198.061 191.564,-196.95"/>
</g>
<!-- Node14 -->
<g id="node15" class="node"><title>Node14</title>
<g id="a_node15"><a xlink:title=" ">
<polygon fill="white" stroke="#bfbfbf" points="627.5,-280.5 627.5,-299.5 739.5,-299.5 739.5,-280.5 627.5,-280.5"/>
<text text-anchor="middle" x="683.5" y="-287.5" font-family="Helvetica,sans-Serif" font-size="10.00">dji_circular_buffer.hpp</text>
</a>
</g>
</g>
<!-- Node7&#45;&gt;Node14 -->
<g id="edge19" class="edge"><title>Node7&#45;&gt;Node14</title>
<path fill="none" stroke="midnightblue" d="M937.791,-337.548C886.499,-328.159 798.071,-311.972 740.187,-301.377"/>
<polygon fill="midnightblue" stroke="midnightblue" points="740.573,-297.889 730.106,-299.531 739.313,-304.775 740.573,-297.889"/>
</g>
<!-- Node15 -->
<g id="node16" class="node"><title>Node15</title>
<g id="a_node16"><a xlink:href="dji__control_8hpp.html" target="_top" xlink:title="Control API for DJI OSDK library.">
<polygon fill="white" stroke="black" points="1025.5,-280.5 1025.5,-299.5 1105.5,-299.5 1105.5,-280.5 1025.5,-280.5"/>
<text text-anchor="middle" x="1065.5" y="-287.5" font-family="Helvetica,sans-Serif" font-size="10.00">dji_control.hpp</text>
</a>
</g>
</g>
<!-- Node7&#45;&gt;Node15 -->
<g id="edge21" class="edge"><title>Node7&#45;&gt;Node15</title>
<path fill="none" stroke="midnightblue" d="M992.478,-336.324C1006.05,-327.9 1026.88,-314.971 1042.82,-305.074"/>
<polygon fill="midnightblue" stroke="midnightblue" points="1044.91,-307.902 1051.56,-299.655 1041.21,-301.954 1044.91,-307.902"/>
</g>
<!-- Node18 -->
<g id="node19" class="node"><title>Node18</title>
<g id="a_node19"><a xlink:href="dji__version_8hpp.html" target="_top" xlink:title="Drone/SDK Version definition for DJI onboardSDK library.">
<polygon fill="white" stroke="black" points="705.5,-168.5 705.5,-187.5 787.5,-187.5 787.5,-168.5 705.5,-168.5"/>
<text text-anchor="middle" x="746.5" y="-175.5" font-family="Helvetica,sans-Serif" font-size="10.00">dji_version.hpp</text>
</a>
</g>
</g>
<!-- Node7&#45;&gt;Node18 -->
<g id="edge67" class="edge"><title>Node7&#45;&gt;Node18</title>
<path fill="none" stroke="midnightblue" d="M937.734,-342.241C902.453,-337.999 851.703,-327.245 816.5,-300 781.751,-273.107 761.14,-223.73 752.051,-197.125"/>
<polygon fill="midnightblue" stroke="midnightblue" points="755.358,-195.975 748.943,-187.543 748.699,-198.135 755.358,-195.975"/>
</g>
<!-- Node20 -->
<g id="node21" class="node"><title>Node20</title>
<g id="a_node21"><a xlink:title=" ">
<polygon fill="white" stroke="#bfbfbf" points="833.5,-280.5 833.5,-299.5 931.5,-299.5 931.5,-280.5 833.5,-280.5"/>
<text text-anchor="middle" x="882.5" y="-287.5" font-family="Helvetica,sans-Serif" font-size="10.00">dji_hard_driver.hpp</text>
</a>
</g>
</g>
<!-- Node7&#45;&gt;Node20 -->
<g id="edge35" class="edge"><title>Node7&#45;&gt;Node20</title>
<path fill="none" stroke="midnightblue" d="M963.076,-336.324C947.96,-327.822 924.685,-314.729 907.029,-304.797"/>
<polygon fill="midnightblue" stroke="midnightblue" points="908.317,-301.507 897.886,-299.655 904.886,-307.608 908.317,-301.507"/>
</g>
<!-- Node21 -->
<g id="node22" class="node"><title>Node21</title>
<g id="a_node22"><a xlink:href="dji__hardware__sync_8hpp.html" target="_top" xlink:title="Hardware Sync API for DJI OSDK.">
<polygon fill="white" stroke="black" points="1105.5,-168.5 1105.5,-187.5 1221.5,-187.5 1221.5,-168.5 1105.5,-168.5"/>
<text text-anchor="middle" x="1163.5" y="-175.5" font-family="Helvetica,sans-Serif" font-size="10.00">dji_hardware_sync.hpp</text>
</a>
</g>
</g>
<!-- Node7&#45;&gt;Node21 -->
<g id="edge36" class="edge"><title>Node7&#45;&gt;Node21</title>
<path fill="none" stroke="midnightblue" d="M1019.19,-339.982C1048.6,-334.507 1087.7,-323.191 1114.5,-300 1145.39,-273.268 1157.07,-224.193 1161.28,-197.491"/>
<polygon fill="midnightblue" stroke="midnightblue" points="1164.75,-197.934 1162.66,-187.548 1157.82,-196.972 1164.75,-197.934"/>
</g>
<!-- Node23 -->
<g id="node24" class="node"><title>Node23</title>
<g id="a_node24"><a xlink:href="dji__mfio_8hpp.html" target="_top" xlink:title="MFIO API for DJI OSDK library.">
<polygon fill="white" stroke="black" points="1654,-168.5 1654,-187.5 1723,-187.5 1723,-168.5 1654,-168.5"/>
<text text-anchor="middle" x="1688.5" y="-175.5" font-family="Helvetica,sans-Serif" font-size="10.00">dji_mfio.hpp</text>
</a>
</g>
</g>
<!-- Node7&#45;&gt;Node23 -->
<g id="edge40" class="edge"><title>Node7&#45;&gt;Node23</title>
<path fill="none" stroke="midnightblue" d="M1019.03,-344.242C1177.84,-341.079 1750.24,-327.779 1776.5,-300 1809.73,-264.847 1748.05,-216.811 1711.96,-193.234"/>
<polygon fill="midnightblue" stroke="midnightblue" points="1713.72,-190.208 1703.41,-187.79 1709.96,-196.113 1713.72,-190.208"/>
</g>
<!-- Node24 -->
<g id="node25" class="node"><title>Node24</title>
<g id="a_node25"><a xlink:href="dji__mission__manager_8hpp.html" target="_top" xlink:title="Mission&#45;Manager API for DJI OSDK library.">
<polygon fill="white" stroke="black" points="371,-280.5 371,-299.5 498,-299.5 498,-280.5 371,-280.5"/>
<text text-anchor="middle" x="434.5" y="-287.5" font-family="Helvetica,sans-Serif" font-size="10.00">dji_mission_manager.hpp</text>
</a>
</g>
</g>
<!-- Node7&#45;&gt;Node24 -->
<g id="edge42" class="edge"><title>Node7&#45;&gt;Node24</title>
<path fill="none" stroke="midnightblue" d="M937.779,-341.388C856.494,-334.112 668.354,-316.934 510.5,-300 509.881,-299.934 509.259,-299.867 508.634,-299.799"/>
<polygon fill="midnightblue" stroke="midnightblue" points="508.671,-296.282 498.347,-298.664 507.903,-303.24 508.671,-296.282"/>
</g>
<!-- Node29 -->
<g id="node30" class="node"><title>Node29</title>
<g id="a_node30"><a xlink:href="dji__mobile__communication_8hpp.html" target="_top" xlink:title="Implementation of DJI Mobile&#45;Onboard SDK Communication (MOC)">
<polygon fill="white" stroke="black" points="1617.5,-280.5 1617.5,-299.5 1767.5,-299.5 1767.5,-280.5 1617.5,-280.5"/>
<text text-anchor="middle" x="1692.5" y="-287.5" font-family="Helvetica,sans-Serif" font-size="10.00">dji_mobile_communication.hpp</text>
</a>
</g>
</g>
<!-- Node7&#45;&gt;Node29 -->
<g id="edge52" class="edge"><title>Node7&#45;&gt;Node29</title>
<path fill="none" stroke="midnightblue" d="M1019.08,-342.602C1117.77,-336.661 1378.45,-320.326 1607.23,-300.084"/>
<polygon fill="midnightblue" stroke="midnightblue" points="1607.76,-303.551 1617.41,-299.179 1607.14,-296.578 1607.76,-303.551"/>
</g>
<!-- Node31 -->
<g id="node32" class="node"><title>Node31</title>
<g id="a_node32"><a xlink:href="dji__mobile__device_8hpp.html" target="_top" xlink:title="Implementation of DJI Mobile Device Abstraction.">
<polygon fill="white" stroke="black" points="1787,-224.5 1787,-243.5 1900,-243.5 1900,-224.5 1787,-224.5"/>
<text text-anchor="middle" x="1843.5" y="-231.5" font-family="Helvetica,sans-Serif" font-size="10.00">dji_mobile_device.hpp</text>
</a>
</g>
</g>
<!-- Node7&#45;&gt;Node31 -->
<g id="edge55" class="edge"><title>Node7&#45;&gt;Node31</title>
<path fill="none" stroke="midnightblue" d="M1019.21,-345.13C1176.99,-345.322 1742.66,-342.981 1809.5,-300 1825.7,-289.579 1834.63,-268.776 1839.22,-253.5"/>
<polygon fill="midnightblue" stroke="midnightblue" points="1842.67,-254.143 1841.84,-243.581 1835.9,-252.356 1842.67,-254.143"/>
</g>
<!-- Node32 -->
<g id="node33" class="node"><title>Node32</title>
<g id="a_node33"><a xlink:title=" ">
<polygon fill="white" stroke="#bfbfbf" points="1199.5,-280.5 1199.5,-299.5 1327.5,-299.5 1327.5,-280.5 1199.5,-280.5"/>
<text text-anchor="middle" x="1263.5" y="-287.5" font-family="Helvetica,sans-Serif" font-size="10.00">dji_platform_manager.hpp</text>
</a>
</g>
</g>
<!-- Node7&#45;&gt;Node32 -->
<g id="edge58" class="edge"><title>Node7&#45;&gt;Node32</title>
<path fill="none" stroke="midnightblue" d="M1019.03,-337.32C1068.65,-327.918 1152.92,-311.952 1208.4,-301.44"/>
<polygon fill="midnightblue" stroke="midnightblue" points="1209.23,-304.845 1218.41,-299.544 1207.93,-297.967 1209.23,-304.845"/>
</g>
<!-- Node33 -->
<g id="node34" class="node"><title>Node33</title>
<g id="a_node34"><a xlink:href="dji__status_8hpp.html" target="_top" xlink:title="Status information for DJI Vehicle.">
<polygon fill="white" stroke="black" points="1346,-280.5 1346,-299.5 1423,-299.5 1423,-280.5 1346,-280.5"/>
<text text-anchor="middle" x="1384.5" y="-287.5" font-family="Helvetica,sans-Serif" font-size="10.00">dji_status.hpp</text>
</a>
</g>
</g>
<!-- Node7&#45;&gt;Node33 -->
<g id="edge59" class="edge"><title>Node7&#45;&gt;Node33</title>
<path fill="none" stroke="midnightblue" d="M1019.15,-340.699C1083.85,-333.676 1214.46,-318.781 1335.57,-300.059"/>
<polygon fill="midnightblue" stroke="midnightblue" points="1336.42,-303.469 1345.76,-298.471 1335.34,-296.552 1336.42,-303.469"/>
</g>
<!-- Node34 -->
<g id="node35" class="node"><title>Node34</title>
<g id="a_node35"><a xlink:href="dji__subscription_8hpp.html" target="_top" xlink:title="Telemetry Subscription API for DJI OSDK library.">
<polygon fill="white" stroke="black" points="997,-224.5 997,-243.5 1100,-243.5 1100,-224.5 997,-224.5"/>
<text text-anchor="middle" x="1048.5" y="-231.5" font-family="Helvetica,sans-Serif" font-size="10.00">dji_subscription.hpp</text>
</a>
</g>
</g>
<!-- Node7&#45;&gt;Node34 -->
<g id="edge60" class="edge"><title>Node7&#45;&gt;Node34</title>
<path fill="none" stroke="midnightblue" d="M983.183,-336.441C990.132,-323.87 1003.73,-299.763 1016.5,-280 1022.61,-270.539 1029.86,-260.283 1035.9,-251.954"/>
<polygon fill="midnightblue" stroke="midnightblue" points="1038.79,-253.935 1041.89,-243.803 1033.15,-249.793 1038.79,-253.935"/>
</g>
<!-- Node35 -->
<g id="node36" class="node"><title>Node35</title>
<g id="a_node36"><a xlink:title=" ">
<polygon fill="white" stroke="#bfbfbf" points="1479.5,-280.5 1479.5,-299.5 1599.5,-299.5 1599.5,-280.5 1479.5,-280.5"/>
<text text-anchor="middle" x="1539.5" y="-287.5" font-family="Helvetica,sans-Serif" font-size="10.00">dji_thread_manager.hpp</text>
</a>
</g>
</g>
<!-- Node7&#45;&gt;Node35 -->
<g id="edge64" class="edge"><title>Node7&#45;&gt;Node35</title>
<path fill="none" stroke="midnightblue" d="M1019.27,-341.634C1102.97,-334.634 1300.23,-317.682 1465.5,-300 1466.77,-299.864 1468.05,-299.726 1469.33,-299.585"/>
<polygon fill="midnightblue" stroke="midnightblue" points="1469.79,-303.056 1479.34,-298.464 1469.01,-296.099 1469.79,-303.056"/>
</g>
<!-- Node36 -->
<g id="node37" class="node"><title>Node36</title>
<g id="a_node37"><a xlink:href="dji__virtual__rc_8hpp.html" target="_top" xlink:title="Virtual Radio Control API for DJI onboardSDK library.">
<polygon fill="white" stroke="black" points="519.5,-280.5 519.5,-299.5 609.5,-299.5 609.5,-280.5 519.5,-280.5"/>
<text text-anchor="middle" x="564.5" y="-287.5" font-family="Helvetica,sans-Serif" font-size="10.00">dji_virtual_rc.hpp</text>
</a>
</g>
</g>
<!-- Node7&#45;&gt;Node36 -->
<g id="edge68" class="edge"><title>Node7&#45;&gt;Node36</title>
<path fill="none" stroke="midnightblue" d="M937.936,-340.476C873.026,-333.117 741.562,-317.726 619.804,-300.139"/>
<polygon fill="midnightblue" stroke="midnightblue" points="619.959,-296.625 609.56,-298.651 618.953,-303.553 619.959,-296.625"/>
</g>
<!-- Node37 -->
<g id="node38" class="node"><title>Node37</title>
<g id="a_node38"><a xlink:href="dji__payload__device_8hpp.html" target="_top" xlink:title="Implementation of DJI Payload Device Abstraction.">
<polygon fill="white" stroke="black" points="1353.5,-168.5 1353.5,-187.5 1471.5,-187.5 1471.5,-168.5 1353.5,-168.5"/>
<text text-anchor="middle" x="1412.5" y="-175.5" font-family="Helvetica,sans-Serif" font-size="10.00">dji_payload_device.hpp</text>
</a>
</g>
</g>
<!-- Node7&#45;&gt;Node37 -->
<g id="edge73" class="edge"><title>Node7&#45;&gt;Node37</title>
<path fill="none" stroke="midnightblue" d="M1013.99,-336.46C1046.51,-328.282 1095.79,-314.997 1137.5,-300 1230.95,-266.401 1337.5,-215.855 1385.98,-192.151"/>
<polygon fill="midnightblue" stroke="midnightblue" points="1387.72,-195.197 1395.15,-187.648 1384.63,-188.914 1387.72,-195.197"/>
</g>
<!-- Node10 -->
<g id="node11" class="node"><title>Node10</title>
<g id="a_node11"><a xlink:href="dji__telemetry_8hpp.html" target="_top" xlink:title="Enumeration of all telemetry data types, structures and maps.">
<polygon fill="white" stroke="black" points="806,-168.5 806,-187.5 897,-187.5 897,-168.5 806,-168.5"/>
<text text-anchor="middle" x="851.5" y="-175.5" font-family="Helvetica,sans-Serif" font-size="10.00">dji_telemetry.hpp</text>
</a>
</g>
</g>
<!-- Node9&#45;&gt;Node10 -->
<g id="edge12" class="edge"><title>Node9&#45;&gt;Node10</title>
<path fill="none" stroke="midnightblue" d="M854.839,-224.083C854.315,-217.006 853.564,-206.861 852.906,-197.986"/>
<polygon fill="midnightblue" stroke="midnightblue" points="856.377,-197.465 852.148,-187.751 849.397,-197.982 856.377,-197.465"/>
</g>
<!-- Node9&#45;&gt;Node11 -->
<g id="edge14" class="edge"><title>Node9&#45;&gt;Node11</title>
<path fill="none" stroke="midnightblue" d="M902.031,-230.19C988.683,-224.503 1171.35,-210.246 1230.5,-188 1238.66,-184.932 1279.8,-155.867 1305.2,-137.657"/>
<polygon fill="midnightblue" stroke="midnightblue" points="1307.37,-140.408 1313.44,-131.729 1303.28,-134.725 1307.37,-140.408"/>
</g>
<!-- Node10&#45;&gt;Node5 -->
<g id="edge13" class="edge"><title>Node10&#45;&gt;Node5</title>
<path fill="none" stroke="midnightblue" d="M805.898,-169.432C802.719,-168.937 799.563,-168.455 796.5,-168 692.247,-152.513 569.475,-136.738 504.737,-128.611"/>
<polygon fill="midnightblue" stroke="midnightblue" points="504.835,-125.096 494.478,-127.326 503.966,-132.042 504.835,-125.096"/>
</g>
<!-- Node11&#45;&gt;Node12 -->
<g id="edge15" class="edge"><title>Node11&#45;&gt;Node12</title>
<path fill="none" stroke="midnightblue" d="M1286.2,-112.444C1242.94,-103.023 1173.33,-87.8656 1126.53,-77.6752"/>
<polygon fill="midnightblue" stroke="midnightblue" points="1127.13,-74.2242 1116.61,-75.5164 1125.64,-81.0639 1127.13,-74.2242"/>
</g>
<!-- Node13&#45;&gt;Node2 -->
<g id="edge17" class="edge"><title>Node13&#45;&gt;Node2</title>
<path fill="none" stroke="midnightblue" d="M202.852,-168.324C220.172,-159.664 247.015,-146.242 267.002,-136.249"/>
<polygon fill="midnightblue" stroke="midnightblue" points="268.812,-139.257 276.191,-131.655 265.681,-132.996 268.812,-139.257"/>
</g>
<!-- Node13&#45;&gt;Node5 -->
<g id="edge18" class="edge"><title>Node13&#45;&gt;Node5</title>
<path fill="none" stroke="midnightblue" d="M227.115,-168.799C277.782,-158.813 363.003,-142.018 414.959,-131.778"/>
<polygon fill="midnightblue" stroke="midnightblue" points="415.752,-135.189 424.887,-129.822 414.399,-128.321 415.752,-135.189"/>
</g>
<!-- Node15&#45;&gt;Node5 -->
<g id="edge32" class="edge"><title>Node15&#45;&gt;Node5</title>
<path fill="none" stroke="midnightblue" d="M1048.08,-280.391C1031.8,-272.018 1007.13,-258.474 987.5,-244 947.506,-214.51 950.79,-188.443 905.5,-168 834.666,-136.027 602.894,-126.553 504.415,-123.933"/>
<polygon fill="midnightblue" stroke="midnightblue" points="504.281,-120.428 494.195,-123.673 504.103,-127.426 504.281,-120.428"/>
</g>
<!-- Node15&#45;&gt;Node11 -->
<g id="edge33" class="edge"><title>Node15&#45;&gt;Node11</title>
<path fill="none" stroke="midnightblue" d="M1086.82,-280.351C1139.82,-258.722 1274.43,-202.948 1290.5,-188 1304.26,-175.199 1313.74,-155.738 1319.33,-141.446"/>
<polygon fill="midnightblue" stroke="midnightblue" points="1322.73,-142.315 1322.85,-131.72 1316.15,-139.931 1322.73,-142.315"/>
</g>
<!-- Node15&#45;&gt;Node12 -->
<g id="edge31" class="edge"><title>Node15&#45;&gt;Node12</title>
<path fill="none" stroke="midnightblue" d="M1078,-280.302C1088.37,-272.251 1102.39,-259.245 1108.5,-244 1111.81,-235.75 1109.92,-232.774 1108.5,-224 1105.8,-207.352 1100.49,-204.387 1096.5,-188 1087.81,-152.311 1082.2,-109.695 1079.47,-85.7485"/>
<polygon fill="midnightblue" stroke="midnightblue" points="1082.92,-85.1642 1078.35,-75.6048 1075.96,-85.9265 1082.92,-85.1642"/>
</g>
<!-- Node16 -->
<g id="node17" class="node"><title>Node16</title>
<g id="a_node17"><a xlink:href="dji__ack_8hpp.html" target="_top" xlink:title="All DJI OSDK ACK parsing.">
<polygon fill="white" stroke="black" points="594.5,-224.5 594.5,-243.5 660.5,-243.5 660.5,-224.5 594.5,-224.5"/>
<text text-anchor="middle" x="627.5" y="-231.5" font-family="Helvetica,sans-Serif" font-size="10.00">dji_ack.hpp</text>
</a>
</g>
</g>
<!-- Node15&#45;&gt;Node16 -->
<g id="edge22" class="edge"><title>Node15&#45;&gt;Node16</title>
<path fill="none" stroke="midnightblue" d="M1025.47,-284.065C943.162,-273.917 755.558,-250.788 670.657,-240.321"/>
<polygon fill="midnightblue" stroke="midnightblue" points="670.938,-236.829 660.585,-239.079 670.082,-243.776 670.938,-236.829"/>
</g>
<!-- Node16&#45;&gt;Node2 -->
<g id="edge23" class="edge"><title>Node16&#45;&gt;Node2</title>
<path fill="none" stroke="midnightblue" d="M594.239,-229.226C515.431,-220.154 323.106,-197.193 312.5,-188 299.332,-176.586 295.043,-156.6 293.765,-141.794"/>
<polygon fill="midnightblue" stroke="midnightblue" points="297.257,-141.529 293.278,-131.709 290.265,-141.867 297.257,-141.529"/>
</g>
<!-- Node16&#45;&gt;Node5 -->
<g id="edge26" class="edge"><title>Node16&#45;&gt;Node5</title>
<path fill="none" stroke="midnightblue" d="M595.386,-224.355C572.086,-217.083 540.566,-205.109 516.5,-188 498.036,-174.874 481.53,-154.63 471.092,-140.225"/>
<polygon fill="midnightblue" stroke="midnightblue" points="473.751,-137.92 465.149,-131.735 468.016,-141.935 473.751,-137.92"/>
</g>
<!-- Node17 -->
<g id="node18" class="node"><title>Node17</title>
<g id="a_node18"><a xlink:href="dji__mission__type_8hpp.html" target="_top" xlink:title="Mission related data struct for DJI OSDK library.">
<polygon fill="white" stroke="black" points="525.5,-168.5 525.5,-187.5 633.5,-187.5 633.5,-168.5 525.5,-168.5"/>
<text text-anchor="middle" x="579.5" y="-175.5" font-family="Helvetica,sans-Serif" font-size="10.00">dji_mission_type.hpp</text>
</a>
</g>
</g>
<!-- Node16&#45;&gt;Node17 -->
<g id="edge24" class="edge"><title>Node16&#45;&gt;Node17</title>
<path fill="none" stroke="midnightblue" d="M619.574,-224.083C612.654,-216.298 602.435,-204.801 594.048,-195.367"/>
<polygon fill="midnightblue" stroke="midnightblue" points="596.538,-192.9 587.279,-187.751 591.306,-197.55 596.538,-192.9"/>
</g>
<!-- Node16&#45;&gt;Node18 -->
<g id="edge27" class="edge"><title>Node16&#45;&gt;Node18</title>
<path fill="none" stroke="midnightblue" d="M646.356,-224.444C665.766,-215.636 696.23,-201.812 718.465,-191.722"/>
<polygon fill="midnightblue" stroke="midnightblue" points="720.072,-194.836 727.732,-187.516 717.18,-188.462 720.072,-194.836"/>
</g>
<!-- Node19 -->
<g id="node20" class="node"><title>Node19</title>
<g id="a_node20"><a xlink:title=" ">
<polygon fill="white" stroke="#bfbfbf" points="652,-168.5 652,-187.5 687,-187.5 687,-168.5 652,-168.5"/>
<text text-anchor="middle" x="669.5" y="-175.5" font-family="Helvetica,sans-Serif" font-size="10.00">map</text>
</a>
</g>
</g>
<!-- Node16&#45;&gt;Node19 -->
<g id="edge30" class="edge"><title>Node16&#45;&gt;Node19</title>
<path fill="none" stroke="midnightblue" d="M634.435,-224.083C640.429,-216.377 649.252,-205.033 656.548,-195.653"/>
<polygon fill="midnightblue" stroke="midnightblue" points="659.317,-197.793 662.694,-187.751 653.791,-193.496 659.317,-197.793"/>
</g>
<!-- Node17&#45;&gt;Node5 -->
<g id="edge25" class="edge"><title>Node17&#45;&gt;Node5</title>
<path fill="none" stroke="midnightblue" d="M560.486,-168.444C540.912,-159.636 510.192,-145.812 487.771,-135.722"/>
<polygon fill="midnightblue" stroke="midnightblue" points="488.981,-132.428 478.425,-131.516 486.108,-138.812 488.981,-132.428"/>
</g>
<!-- Node18&#45;&gt;Node2 -->
<g id="edge28" class="edge"><title>Node18&#45;&gt;Node2</title>
<path fill="none" stroke="midnightblue" d="M705.34,-169.506C702.015,-168.971 698.704,-168.462 695.5,-168 572.765,-150.319 428.094,-135.62 350.136,-128.201"/>
<polygon fill="midnightblue" stroke="midnightblue" points="350.333,-124.704 340.047,-127.247 349.673,-131.673 350.333,-124.704"/>
</g>
<!-- Node18&#45;&gt;Node8 -->
<g id="edge29" class="edge"><title>Node18&#45;&gt;Node8</title>
<path fill="none" stroke="midnightblue" d="M783.895,-168.444C829.498,-158.009 905.869,-140.534 949.421,-130.569"/>
<polygon fill="midnightblue" stroke="midnightblue" points="950.262,-133.967 959.23,-128.325 948.701,-127.143 950.262,-133.967"/>
</g>
<!-- Node21&#45;&gt;Node5 -->
<g id="edge37" class="edge"><title>Node21&#45;&gt;Node5</title>
<path fill="none" stroke="midnightblue" d="M1105.29,-172.535C968.126,-162.014 626.979,-135.846 504.32,-126.438"/>
<polygon fill="midnightblue" stroke="midnightblue" points="504.401,-122.934 494.162,-125.659 503.865,-129.913 504.401,-122.934"/>
</g>
<!-- Node21&#45;&gt;Node11 -->
<g id="edge38" class="edge"><title>Node21&#45;&gt;Node11</title>
<path fill="none" stroke="midnightblue" d="M1189.17,-168.444C1216.42,-159.359 1259.68,-144.939 1290.15,-134.783"/>
<polygon fill="midnightblue" stroke="midnightblue" points="1291.57,-137.999 1299.95,-131.516 1289.36,-131.358 1291.57,-137.999"/>
</g>
<!-- Node22 -->
<g id="node23" class="node"><title>Node22</title>
<g id="a_node23"><a xlink:title=" ">
<polygon fill="white" stroke="#bfbfbf" points="1143,-112.5 1143,-131.5 1184,-131.5 1184,-112.5 1143,-112.5"/>
<text text-anchor="middle" x="1163.5" y="-119.5" font-family="Helvetica,sans-Serif" font-size="10.00">string</text>
</a>
</g>
</g>
<!-- Node21&#45;&gt;Node22 -->
<g id="edge39" class="edge"><title>Node21&#45;&gt;Node22</title>
<path fill="none" stroke="midnightblue" d="M1163.5,-168.083C1163.5,-161.006 1163.5,-150.861 1163.5,-141.986"/>
<polygon fill="midnightblue" stroke="midnightblue" points="1167,-141.751 1163.5,-131.751 1160,-141.751 1167,-141.751"/>
</g>
<!-- Node23&#45;&gt;Node11 -->
<g id="edge41" class="edge"><title>Node23&#45;&gt;Node11</title>
<path fill="none" stroke="midnightblue" d="M1653.69,-171.822C1593.74,-162.904 1470.02,-144.499 1392.78,-133.009"/>
<polygon fill="midnightblue" stroke="midnightblue" points="1393.08,-129.514 1382.67,-131.505 1392.05,-136.438 1393.08,-129.514"/>
</g>
<!-- Node25 -->
<g id="node26" class="node"><title>Node25</title>
<g id="a_node26"><a xlink:href="dji__hotpoint_8hpp.html" target="_top" xlink:title="Implementation of HotPoint (Point of Interest) Missions for DJI OSDK.">
<polygon fill="white" stroke="black" points="391,-224.5 391,-243.5 476,-243.5 476,-224.5 391,-224.5"/>
<text text-anchor="middle" x="433.5" y="-231.5" font-family="Helvetica,sans-Serif" font-size="10.00">dji_hotpoint.hpp</text>
</a>
</g>
</g>
<!-- Node24&#45;&gt;Node25 -->
<g id="edge43" class="edge"><title>Node24&#45;&gt;Node25</title>
<path fill="none" stroke="midnightblue" d="M434.335,-280.083C434.204,-273.006 434.016,-262.861 433.852,-253.986"/>
<polygon fill="midnightblue" stroke="midnightblue" points="437.347,-253.685 433.662,-243.751 430.348,-253.814 437.347,-253.685"/>
</g>
<!-- Node27 -->
<g id="node28" class="node"><title>Node27</title>
<g id="a_node28"><a xlink:href="dji__waypoint_8hpp.html" target="_top" xlink:title="Implementation of GPS Waypoint Missions for DJI OSDK.">
<polygon fill="white" stroke="black" points="284,-224.5 284,-243.5 373,-243.5 373,-224.5 284,-224.5"/>
<text text-anchor="middle" x="328.5" y="-231.5" font-family="Helvetica,sans-Serif" font-size="10.00">dji_waypoint.hpp</text>
</a>
</g>
</g>
<!-- Node24&#45;&gt;Node27 -->
<g id="edge49" class="edge"><title>Node24&#45;&gt;Node27</title>
<path fill="none" stroke="midnightblue" d="M417.469,-280.324C400.47,-271.664 374.124,-258.242 354.507,-248.249"/>
<polygon fill="midnightblue" stroke="midnightblue" points="355.988,-245.075 345.488,-243.655 352.81,-251.312 355.988,-245.075"/>
</g>
<!-- Node28 -->
<g id="node29" class="node"><title>Node28</title>
<g id="a_node29"><a xlink:title=" ">
<polygon fill="white" stroke="#bfbfbf" points="494.5,-224.5 494.5,-243.5 538.5,-243.5 538.5,-224.5 494.5,-224.5"/>
<text text-anchor="middle" x="516.5" y="-231.5" font-family="Helvetica,sans-Serif" font-size="10.00">vector</text>
</a>
</g>
</g>
<!-- Node24&#45;&gt;Node28 -->
<g id="edge51" class="edge"><title>Node24&#45;&gt;Node28</title>
<path fill="none" stroke="midnightblue" d="M447.675,-280.324C460.347,-271.979 479.733,-259.212 494.706,-249.352"/>
<polygon fill="midnightblue" stroke="midnightblue" points="496.931,-252.078 503.358,-243.655 493.081,-246.231 496.931,-252.078"/>
</g>
<!-- Node25&#45;&gt;Node10 -->
<g id="edge48" class="edge"><title>Node25&#45;&gt;Node10</title>
<path fill="none" stroke="midnightblue" d="M476.036,-225.438C479.235,-224.93 482.417,-224.445 485.5,-224 619.991,-204.593 656.973,-207.107 795.737,-188.041"/>
<polygon fill="midnightblue" stroke="midnightblue" points="796.482,-191.471 805.907,-186.63 795.52,-184.537 796.482,-191.471"/>
</g>
<!-- Node26 -->
<g id="node27" class="node"><title>Node26</title>
<g id="a_node27"><a xlink:href="dji__mission__base_8hpp.html" target="_top" xlink:title="Mission&#45;Base abstract class for DJI OSDK library.">
<polygon fill="white" stroke="black" points="321.5,-168.5 321.5,-187.5 431.5,-187.5 431.5,-168.5 321.5,-168.5"/>
<text text-anchor="middle" x="376.5" y="-175.5" font-family="Helvetica,sans-Serif" font-size="10.00">dji_mission_base.hpp</text>
</a>
</g>
</g>
<!-- Node25&#45;&gt;Node26 -->
<g id="edge44" class="edge"><title>Node25&#45;&gt;Node26</title>
<path fill="none" stroke="midnightblue" d="M424.342,-224.324C415.999,-216.42 403.468,-204.548 393.323,-194.938"/>
<polygon fill="midnightblue" stroke="midnightblue" points="395.491,-192.171 385.825,-187.834 390.677,-197.252 395.491,-192.171"/>
</g>
<!-- Node26&#45;&gt;Node2 -->
<g id="edge45" class="edge"><title>Node26&#45;&gt;Node2</title>
<path fill="none" stroke="midnightblue" d="M363.165,-168.324C350.338,-159.979 330.715,-147.212 315.56,-137.352"/>
<polygon fill="midnightblue" stroke="midnightblue" points="317.093,-134.174 306.802,-131.655 313.276,-140.042 317.093,-134.174"/>
</g>
<!-- Node26&#45;&gt;Node5 -->
<g id="edge46" class="edge"><title>Node26&#45;&gt;Node5</title>
<path fill="none" stroke="midnightblue" d="M389.835,-168.324C402.662,-159.979 422.285,-147.212 437.44,-137.352"/>
<polygon fill="midnightblue" stroke="midnightblue" points="439.724,-140.042 446.198,-131.655 435.907,-134.174 439.724,-140.042"/>
</g>
<!-- Node26&#45;&gt;Node11 -->
<g id="edge47" class="edge"><title>Node26&#45;&gt;Node11</title>
<path fill="none" stroke="midnightblue" d="M431.681,-173.312C457.448,-171.626 488.539,-169.643 516.5,-168 816.852,-150.349 892.178,-150.157 1192.5,-132 1212.47,-130.793 1234.11,-129.375 1254.03,-128.026"/>
<polygon fill="midnightblue" stroke="midnightblue" points="1254.53,-131.5 1264.26,-127.328 1254.05,-124.516 1254.53,-131.5"/>
</g>
<!-- Node27&#45;&gt;Node26 -->
<g id="edge50" class="edge"><title>Node27&#45;&gt;Node26</title>
<path fill="none" stroke="midnightblue" d="M336.426,-224.083C343.346,-216.298 353.565,-204.801 361.952,-195.367"/>
<polygon fill="midnightblue" stroke="midnightblue" points="364.694,-197.55 368.721,-187.751 359.462,-192.9 364.694,-197.55"/>
</g>
<!-- Node29&#45;&gt;Node11 -->
<g id="edge54" class="edge"><title>Node29&#45;&gt;Node11</title>
<path fill="none" stroke="midnightblue" d="M1682.4,-280.195C1656.33,-257.935 1583.88,-198.981 1513.5,-168 1475.88,-151.438 1431.22,-140.423 1394.87,-133.438"/>
<polygon fill="midnightblue" stroke="midnightblue" points="1395.32,-129.963 1384.85,-131.574 1394.04,-136.845 1395.32,-129.963"/>
</g>
<!-- Node30 -->
<g id="node31" class="node"><title>Node30</title>
<g id="a_node31"><a xlink:title=" ">
<polygon fill="white" stroke="#bfbfbf" points="1647,-224.5 1647,-243.5 1730,-243.5 1730,-224.5 1647,-224.5"/>
<text text-anchor="middle" x="1688.5" y="-231.5" font-family="Helvetica,sans-Serif" font-size="10.00">dji_macros.hpp</text>
</a>
</g>
</g>
<!-- Node29&#45;&gt;Node30 -->
<g id="edge53" class="edge"><title>Node29&#45;&gt;Node30</title>
<path fill="none" stroke="midnightblue" d="M1691.84,-280.083C1691.32,-273.006 1690.56,-262.861 1689.91,-253.986"/>
<polygon fill="midnightblue" stroke="midnightblue" points="1693.38,-253.465 1689.15,-243.751 1686.4,-253.982 1693.38,-253.465"/>
</g>
<!-- Node31&#45;&gt;Node11 -->
<g id="edge56" class="edge"><title>Node31&#45;&gt;Node11</title>
<path fill="none" stroke="midnightblue" d="M1832.6,-224.473C1813.54,-210.07 1772.35,-181.204 1732.5,-168 1671.99,-147.951 1496.52,-133.908 1396.85,-127.295"/>
<polygon fill="midnightblue" stroke="midnightblue" points="1397.07,-123.802 1386.86,-126.641 1396.61,-130.787 1397.07,-123.802"/>
</g>
<!-- Node34&#45;&gt;Node10 -->
<g id="edge62" class="edge"><title>Node34&#45;&gt;Node10</title>
<path fill="none" stroke="midnightblue" d="M1017.28,-224.444C983.567,-215.201 929.7,-200.436 892.568,-190.257"/>
<polygon fill="midnightblue" stroke="midnightblue" points="893.139,-186.785 882.569,-187.516 891.288,-193.536 893.139,-186.785"/>
</g>
<!-- Node34&#45;&gt;Node11 -->
<g id="edge63" class="edge"><title>Node34&#45;&gt;Node11</title>
<path fill="none" stroke="midnightblue" d="M1100.26,-225.782C1154.64,-217.568 1236.01,-203.295 1263.5,-188 1284.49,-176.322 1302.67,-155.166 1313.82,-140.164"/>
<polygon fill="midnightblue" stroke="midnightblue" points="1316.86,-141.932 1319.81,-131.759 1311.16,-137.867 1316.86,-141.932"/>
</g>
<!-- Node34&#45;&gt;Node12 -->
<g id="edge61" class="edge"><title>Node34&#45;&gt;Node12</title>
<path fill="none" stroke="midnightblue" d="M1049.04,-224.404C1050.4,-204.464 1054.53,-153.59 1063.5,-112 1065.44,-102.991 1068.39,-93.1981 1071.07,-85.055"/>
<polygon fill="midnightblue" stroke="midnightblue" points="1074.42,-86.1 1074.35,-75.5053 1067.8,-83.8264 1074.42,-86.1"/>
</g>
<!-- Node36&#45;&gt;Node5 -->
<g id="edge71" class="edge"><title>Node36&#45;&gt;Node5</title>
<path fill="none" stroke="midnightblue" d="M564.185,-280.154C563.299,-266.787 559.966,-241.183 547.5,-224 530.125,-200.051 511.198,-210.079 491.5,-188 479.356,-174.388 470.701,-155.337 465.48,-141.379"/>
<polygon fill="midnightblue" stroke="midnightblue" points="468.76,-140.156 462.155,-131.872 462.152,-142.467 468.76,-140.156"/>
</g>
<!-- Node36&#45;&gt;Node10 -->
<g id="edge72" class="edge"><title>Node36&#45;&gt;Node10</title>
<path fill="none" stroke="midnightblue" d="M587.02,-280.368C637.737,-260.93 761.031,-213.674 819.596,-191.228"/>
<polygon fill="midnightblue" stroke="midnightblue" points="820.999,-194.439 829.084,-187.591 818.494,-187.902 820.999,-194.439"/>
</g>
<!-- Node36&#45;&gt;Node12 -->
<g id="edge70" class="edge"><title>Node36&#45;&gt;Node12</title>
<path fill="none" stroke="midnightblue" d="M595.136,-280.465C627.005,-271.543 678.325,-257.048 722.5,-244 742.893,-237.976 888.788,-201.148 905.5,-188 936.352,-163.729 920.184,-136.938 950.5,-112 970.417,-95.6166 996.734,-84.9985 1020.24,-78.2185"/>
<polygon fill="midnightblue" stroke="midnightblue" points="1021.38,-81.5357 1030.12,-75.5421 1019.55,-74.7793 1021.38,-81.5357"/>
</g>
<!-- Node36&#45;&gt;Node16 -->
<g id="edge69" class="edge"><title>Node36&#45;&gt;Node16</title>
<path fill="none" stroke="midnightblue" d="M574.622,-280.324C584.026,-272.263 598.244,-260.077 609.569,-250.369"/>
<polygon fill="midnightblue" stroke="midnightblue" points="611.879,-252.999 617.194,-243.834 607.323,-247.684 611.879,-252.999"/>
</g>
<!-- Node37&#45;&gt;Node11 -->
<g id="edge74" class="edge"><title>Node37&#45;&gt;Node11</title>
<path fill="none" stroke="midnightblue" d="M1398.52,-168.324C1384.95,-159.9 1364.12,-146.971 1348.18,-137.074"/>
<polygon fill="midnightblue" stroke="midnightblue" points="1349.79,-133.954 1339.44,-131.655 1346.09,-139.902 1349.79,-133.954"/>
</g>
</g>
</svg>
        <g id="navigator" transform="translate(0 0)" fill="#404254">
                <rect fill="#f2f5e9" fill-opacity="0.5" stroke="#606060" stroke-width=".5" x="0" y="0" width="60" height="60"/>
                <use id="zoomplus" xlink:href="#zoomPlus" x="17" y="9" onmousedown="handleZoom(evt,'in')"/>
                <use id="zoomminus" xlink:href="#zoomMin" x="42" y="9" onmousedown="handleZoom(evt,'out')"/>
                <use id="reset" xlink:href="#resetDef" x="30" y="36" onmousedown="handleReset()"/>
                <g id="arrowUp" xlink:href="#dirArrow" transform="translate(30 24)" onmousedown="handlePan(0,-1)">
                  <use xlink:href="#rim" fill="#404040">
                        <set attributeName="fill" to="#808080" begin="arrowUp.mouseover" end="arrowUp.mouseout"/>
                  </use>
                  <path fill="none" stroke="white" stroke-width="1.5" d="M0,-3.0v7 M-2.5,-0.5L0,-3.0L2.5,-0.5"/>
                </g>
                <g id="arrowRight" xlink:href="#dirArrow" transform="rotate(90) translate(36 -43)" onmousedown="handlePan(1,0)">
                  <use xlink:href="#rim" fill="#404040">
                        <set attributeName="fill" to="#808080" begin="arrowRight.mouseover" end="arrowRight.mouseout"/>
                  </use>
                  <path fill="none" stroke="white" stroke-width="1.5" d="M0,-3.0v7 M-2.5,-0.5L0,-3.0L2.5,-0.5"/>
                </g>
                <g id="arrowDown" xlink:href="#dirArrow" transform="rotate(180) translate(-30 -48)" onmousedown="handlePan(0,1)">
                  <use xlink:href="#rim" fill="#404040">
                        <set attributeName="fill" to="#808080" begin="arrowDown.mouseover" end="arrowDown.mouseout"/>
                  </use>
                  <path fill="none" stroke="white" stroke-width="1.5" d="M0,-3.0v7 M-2.5,-0.5L0,-3.0L2.5,-0.5"/>
                </g>
                <g id="arrowLeft" xlink:href="#dirArrow" transform="rotate(270) translate(-36 17)" onmousedown="handlePan(-1,0)">
                  <use xlink:href="#rim" fill="#404040">
                        <set attributeName="fill" to="#808080" begin="arrowLeft.mouseover" end="arrowLeft.mouseout"/>
                  </use>
                  <path fill="none" stroke="white" stroke-width="1.5" d="M0,-3.0v7 M-2.5,-0.5L0,-3.0L2.5,-0.5"/>
                </g>
        </g>
        <svg viewBox="0 0 15 15" width="100%" height="30px" preserveAspectRatio="xMaxYMin meet">
         <g id="arrow_out" transform="scale(0.3 0.3)">
          <a xlink:href="dji__gimbal_8cpp__incl_org.svg" target="_base">
           <rect id="button" ry="5" rx="5" y="6" x="6" height="38" width="38"
                fill="#f2f5e9" fill-opacity="0.5" stroke="#606060" stroke-width="1.0"/>
           <path id="arrow"
             d="M 11.500037,31.436501 C 11.940474,20.09759 22.043105,11.32322 32.158766,21.979434 L 37.068811,17.246167 C 37.068811,17.246167 37.088388,32 37.088388,32 L 22.160133,31.978069 C 22.160133,31.978069 26.997745,27.140456 26.997745,27.140456 C 18.528582,18.264221 13.291696,25.230495 11.500037,31.436501 z"
             style="fill:#404040;"/>
          </a>
         </g>
        </svg>
</svg>
