<?xml version="1.0" encoding="UTF-8" standalone="no"?>
<!DOCTYPE svg PUBLIC "-//W3C//DTD SVG 1.1//EN"
 "http://www.w3.org/Graphics/SVG/1.1/DTD/svg11.dtd">
<!-- Generated by graphviz version 2.40.1 (20161225.0304)
 -->
<!-- Title: osdk&#45;lib/x86/advanced&#45;sensing&#45;2.0.3/inc/dji_camera_stream.hpp Pages: 1 -->
<svg width="182pt" height="162pt"
 viewBox="0.00 0.00 181.50 162.00" xmlns="http://www.w3.org/2000/svg" xmlns:xlink="http://www.w3.org/1999/xlink">
<g id="graph0" class="graph" transform="scale(1 1) rotate(0) translate(4 158)">
<title>osdk&#45;lib/x86/advanced&#45;sensing&#45;2.0.3/inc/dji_camera_stream.hpp</title>
<polygon fill="#ffffff" stroke="transparent" points="-4,4 -4,-158 177.5,-158 177.5,4 -4,4"/>
<!-- Node0 -->
<g id="node1" class="node">
<title>Node0</title>
<g id="a_node1"><a xlink:title="The high level APIs to interact with the camera.">
<polygon fill="#bfbfbf" stroke="#000000" points="11.5,-112.5 11.5,-153.5 125.5,-153.5 125.5,-112.5 11.5,-112.5"/>
<text text-anchor="start" x="19.5" y="-141.5" font-family="Helvetica,sans-Serif" font-size="10.00" fill="#000000">osdk&#45;lib/x86/advanced</text>
<text text-anchor="start" x="19.5" y="-130.5" font-family="Helvetica,sans-Serif" font-size="10.00" fill="#000000">&#45;sensing&#45;2.0.3/inc/dji</text>
<text text-anchor="middle" x="68.5" y="-119.5" font-family="Helvetica,sans-Serif" font-size="10.00" fill="#000000">_camera_stream.hpp</text>
</a>
</g>
</g>
<!-- Node1 -->
<g id="node2" class="node">
<title>Node1</title>
<g id="a_node2"><a xlink:title=" ">
<polygon fill="#ffffff" stroke="#bfbfbf" points="0,-56.5 0,-75.5 41,-75.5 41,-56.5 0,-56.5"/>
<text text-anchor="middle" x="20.5" y="-63.5" font-family="Helvetica,sans-Serif" font-size="10.00" fill="#000000">string</text>
</a>
</g>
</g>
<!-- Node0&#45;&gt;Node1 -->
<g id="edge1" class="edge">
<title>Node0&#45;&gt;Node1</title>
<path fill="none" stroke="#191970" d="M53.5756,-112.168C47.1212,-103.1587 39.6398,-92.7159 33.4265,-84.0432"/>
<polygon fill="#191970" stroke="#191970" points="36.176,-81.8713 27.5069,-75.7805 30.4856,-85.948 36.176,-81.8713"/>
</g>
<!-- Node2 -->
<g id="node3" class="node">
<title>Node2</title>
<g id="a_node3"><a xlink:href="dji__camera__image_8hpp_source.html" target="_top" xlink:title=" ">
<polygon fill="#ffffff" stroke="#000000" points="59.5,-56.5 59.5,-75.5 173.5,-75.5 173.5,-56.5 59.5,-56.5"/>
<text text-anchor="middle" x="116.5" y="-63.5" font-family="Helvetica,sans-Serif" font-size="10.00" fill="#000000">dji_camera_image.hpp</text>
</a>
</g>
</g>
<!-- Node0&#45;&gt;Node2 -->
<g id="edge2" class="edge">
<title>Node0&#45;&gt;Node2</title>
<path fill="none" stroke="#191970" d="M83.4244,-112.168C89.8788,-103.1587 97.3602,-92.7159 103.5735,-84.0432"/>
<polygon fill="#191970" stroke="#191970" points="106.5144,-85.948 109.4931,-75.7805 100.824,-81.8713 106.5144,-85.948"/>
</g>
<!-- Node3 -->
<g id="node4" class="node">
<title>Node3</title>
<g id="a_node4"><a xlink:title=" ">
<polygon fill="#ffffff" stroke="#bfbfbf" points="61.5,-.5 61.5,-19.5 107.5,-19.5 107.5,-.5 61.5,-.5"/>
<text text-anchor="middle" x="84.5" y="-7.5" font-family="Helvetica,sans-Serif" font-size="10.00" fill="#000000">cstdint</text>
</a>
</g>
</g>
<!-- Node2&#45;&gt;Node3 -->
<g id="edge3" class="edge">
<title>Node2&#45;&gt;Node3</title>
<path fill="none" stroke="#191970" d="M110.926,-56.2455C106.5669,-48.617 100.3789,-37.7881 95.0867,-28.5267"/>
<polygon fill="#191970" stroke="#191970" points="98.0104,-26.5886 90.0101,-19.6427 91.9327,-30.0616 98.0104,-26.5886"/>
</g>
<!-- Node4 -->
<g id="node5" class="node">
<title>Node4</title>
<g id="a_node5"><a xlink:title=" ">
<polygon fill="#ffffff" stroke="#bfbfbf" points="125.5,-.5 125.5,-19.5 169.5,-19.5 169.5,-.5 125.5,-.5"/>
<text text-anchor="middle" x="147.5" y="-7.5" font-family="Helvetica,sans-Serif" font-size="10.00" fill="#000000">vector</text>
</a>
</g>
</g>
<!-- Node2&#45;&gt;Node4 -->
<g id="edge4" class="edge">
<title>Node2&#45;&gt;Node4</title>
<path fill="none" stroke="#191970" d="M121.8998,-56.2455C126.1227,-48.617 132.1173,-37.7881 137.2441,-28.5267"/>
<polygon fill="#191970" stroke="#191970" points="140.381,-30.0867 142.1621,-19.6427 134.2568,-26.6965 140.381,-30.0867"/>
</g>
</g>
</svg>
