<?xml version="1.0" encoding="UTF-8" standalone="no"?>
<!DOCTYPE svg PUBLIC "-//W3C//DTD SVG 1.1//EN"
 "http://www.w3.org/Graphics/SVG/1.1/DTD/svg11.dtd">
<!-- Generated by graphviz version 2.38.0 (20140413.2041)
 -->
<!-- Title: osdk&#45;core/api/src/dji_camera.cpp Pages: 1 -->
<!--zoomable 431 -->
<svg id="main" version="1.1" xmlns="http://www.w3.org/2000/svg" xmlns:xlink="http://www.w3.org/1999/xlink" xml:space="preserve" onload="init(evt)">
<style type="text/css"><![CDATA[
.edge:hover path { stroke: red; }
.edge:hover polygon { stroke: red; fill: red; }
]]></style>
<script type="text/javascript"><![CDATA[
var edges = document.getElementsByTagName('g');
if (edges && edges.length) {
  for (var i=0;i<edges.length;i++) {
    if (edges[i].id.substr(0,4)=='edge') {
      edges[i].setAttribute('class','edge');
    }
  }
}
]]></script>
        <defs>
                <circle id="rim" cx="0" cy="0" r="7"/>
                <circle id="rim2" cx="0" cy="0" r="3.5"/>
                <g id="zoomPlus">
                        <use xlink:href="#rim" fill="#404040">
                                <set attributeName="fill" to="#808080" begin="zoomplus.mouseover" end="zoomplus.mouseout"/>
                        </use>
                        <path d="M-4,0h8M0,-4v8" fill="none" stroke="white" stroke-width="1.5" pointer-events="none"/>
                </g>
                <g id="zoomMin">
                        <use xlink:href="#rim" fill="#404040">
                                <set attributeName="fill" to="#808080" begin="zoomminus.mouseover" end="zoomminus.mouseout"/>
                        </use>
                        <path d="M-4,0h8" fill="none" stroke="white" stroke-width="1.5" pointer-events="none"/>
                </g>
                <g id="dirArrow">
                        <path fill="none" stroke="white" stroke-width="1.5" d="M0,-3.0v7 M-2.5,-0.5L0,-3.0L2.5,-0.5"/>
                </g>
               <g id="resetDef">
                       <use xlink:href="#rim2" fill="#404040">
                               <set attributeName="fill" to="#808080" begin="reset.mouseover" end="reset.mouseout"/>
                       </use>
               </g>
        </defs>

<script type="text/javascript">
var viewWidth = 2092;
var viewHeight = 431;
var sectionId = 'dynsection-0';
</script>
<script xlink:href="svgpan.js"/>
<svg id="graph" class="graph">
<g id="viewport">
<title>osdk&#45;core/api/src/dji_camera.cpp</title>
<polygon fill="white" stroke="none" points="-4,4 -4,-427 2087.69,-427 2087.69,4 -4,4"/>
<!-- Node1 -->
<g id="node1" class="node"><title>Node1</title>
<polygon fill="#bfbfbf" stroke="black" points="525.526,-392.5 525.526,-422.5 629.526,-422.5 629.526,-392.5 525.526,-392.5"/>
<text text-anchor="start" x="533.526" y="-410.5" font-family="Helvetica,sans-Serif" font-size="10.00">osdk&#45;core/api/src/dji</text>
<text text-anchor="middle" x="577.526" y="-399.5" font-family="Helvetica,sans-Serif" font-size="10.00">_camera.cpp</text>
</g>
<!-- Node2 -->
<g id="node2" class="node"><title>Node2</title>
<g id="a_node2"><a xlink:href="dji__camera_8hpp.html" target="_top" xlink:title="Camera/Gimbal API for DJI onboardSDK library. ">
<polygon fill="white" stroke="black" points="13.0259,-224.5 13.0259,-243.5 96.0259,-243.5 96.0259,-224.5 13.0259,-224.5"/>
<text text-anchor="middle" x="54.5259" y="-231.5" font-family="Helvetica,sans-Serif" font-size="10.00">dji_camera.hpp</text>
</a>
</g>
</g>
<!-- Node1&#45;&gt;Node2 -->
<g id="edge1" class="edge"><title>Node1&#45;&gt;Node2</title>
<path fill="none" stroke="midnightblue" d="M525.13,-400.635C413.802,-387.301 158.257,-351.802 89.5259,-300 74.2067,-288.454 64.8366,-268.19 59.6957,-253.35"/>
<polygon fill="midnightblue" stroke="midnightblue" points="63.0037,-252.201 56.6752,-243.704 56.3235,-254.293 63.0037,-252.201"/>
</g>
<!-- Node8 -->
<g id="node8" class="node"><title>Node8</title>
<g id="a_node8"><a xlink:href="dji__vehicle_8hpp.html" target="_top" xlink:title="Vehicle API for DJI onboardSDK library. ">
<polygon fill="white" stroke="black" points="1058.03,-336.5 1058.03,-355.5 1139.03,-355.5 1139.03,-336.5 1058.03,-336.5"/>
<text text-anchor="middle" x="1098.53" y="-343.5" font-family="Helvetica,sans-Serif" font-size="10.00">dji_vehicle.hpp</text>
</a>
</g>
</g>
<!-- Node1&#45;&gt;Node8 -->
<g id="edge9" class="edge"><title>Node1&#45;&gt;Node8</title>
<path fill="none" stroke="midnightblue" d="M629.867,-400.522C730.304,-389.052 948.88,-364.09 1047.93,-352.778"/>
<polygon fill="midnightblue" stroke="midnightblue" points="1048.45,-356.242 1057.99,-351.63 1047.65,-349.287 1048.45,-356.242"/>
</g>
<!-- Node3 -->
<g id="node3" class="node"><title>Node3</title>
<g id="a_node3"><a xlink:href="dji__command_8hpp.html" target="_top" xlink:title="All DJI OSDK OpenProtocol Command IDs. ">
<polygon fill="white" stroke="black" points="242.026,-112.5 242.026,-131.5 335.026,-131.5 335.026,-112.5 242.026,-112.5"/>
<text text-anchor="middle" x="288.526" y="-119.5" font-family="Helvetica,sans-Serif" font-size="10.00">dji_command.hpp</text>
</a>
</g>
</g>
<!-- Node2&#45;&gt;Node3 -->
<g id="edge2" class="edge"><title>Node2&#45;&gt;Node3</title>
<path fill="none" stroke="midnightblue" d="M47.5656,-224.402C37.5265,-210.906 21.6329,-184.582 35.5259,-168 60.0365,-138.745 164.796,-128.494 231.587,-124.912"/>
<polygon fill="midnightblue" stroke="midnightblue" points="232.15,-128.389 241.963,-124.393 231.8,-121.397 232.15,-128.389"/>
</g>
<!-- Node6 -->
<g id="node6" class="node"><title>Node6</title>
<g id="a_node6"><a xlink:href="dji__type_8hpp.html" target="_top" xlink:title="Data type and Data Structure definitions for use throughout DJI OSDK. ">
<polygon fill="white" stroke="black" points="402.026,-112.5 402.026,-131.5 471.026,-131.5 471.026,-112.5 402.026,-112.5"/>
<text text-anchor="middle" x="436.526" y="-119.5" font-family="Helvetica,sans-Serif" font-size="10.00">dji_type.hpp</text>
</a>
</g>
</g>
<!-- Node2&#45;&gt;Node6 -->
<g id="edge6" class="edge"><title>Node2&#45;&gt;Node6</title>
<path fill="none" stroke="midnightblue" d="M53.5377,-224.326C52.4656,-210.232 52.6727,-182.48 68.5259,-168 74.4581,-162.581 295.121,-138.228 391.852,-127.782"/>
<polygon fill="midnightblue" stroke="midnightblue" points="392.349,-131.249 401.916,-126.698 391.599,-124.29 392.349,-131.249"/>
</g>
<!-- Node4 -->
<g id="node4" class="node"><title>Node4</title>
<g id="a_node4"><a xlink:href="dji__error_8hpp.html" target="_top" xlink:title="All DJI OSDK OpenProtocol ACK Error Codes. ">
<polygon fill="white" stroke="black" points="313.526,-56.5 313.526,-75.5 383.526,-75.5 383.526,-56.5 313.526,-56.5"/>
<text text-anchor="middle" x="348.526" y="-63.5" font-family="Helvetica,sans-Serif" font-size="10.00">dji_error.hpp</text>
</a>
</g>
</g>
<!-- Node3&#45;&gt;Node4 -->
<g id="edge3" class="edge"><title>Node3&#45;&gt;Node4</title>
<path fill="none" stroke="midnightblue" d="M298.166,-112.324C307.035,-104.341 320.401,-92.3128 331.134,-82.6529"/>
<polygon fill="midnightblue" stroke="midnightblue" points="333.619,-85.1251 338.71,-75.8339 328.936,-79.922 333.619,-85.1251"/>
</g>
<!-- Node5 -->
<g id="node5" class="node"><title>Node5</title>
<polygon fill="white" stroke="#bfbfbf" points="324.026,-0.5 324.026,-19.5 373.026,-19.5 373.026,-0.5 324.026,-0.5"/>
<text text-anchor="middle" x="348.526" y="-7.5" font-family="Helvetica,sans-Serif" font-size="10.00">stdint.h</text>
</g>
<!-- Node3&#45;&gt;Node5 -->
<g id="edge5" class="edge"><title>Node3&#45;&gt;Node5</title>
<path fill="none" stroke="midnightblue" d="M289.186,-112.479C290.493,-99.5384 294.242,-74.4827 304.526,-56 310.79,-44.7424 320.617,-34.309 329.397,-26.3286"/>
<polygon fill="midnightblue" stroke="midnightblue" points="331.751,-28.9202 337.033,-19.736 327.177,-23.6216 331.751,-28.9202"/>
</g>
<!-- Node4&#45;&gt;Node5 -->
<g id="edge4" class="edge"><title>Node4&#45;&gt;Node5</title>
<path fill="none" stroke="midnightblue" d="M348.526,-56.083C348.526,-49.0059 348.526,-38.8611 348.526,-29.9865"/>
<polygon fill="midnightblue" stroke="midnightblue" points="352.026,-29.751 348.526,-19.7511 345.026,-29.7511 352.026,-29.751"/>
</g>
<!-- Node6&#45;&gt;Node5 -->
<g id="edge8" class="edge"><title>Node6&#45;&gt;Node5</title>
<path fill="none" stroke="midnightblue" d="M431.296,-112.239C423.489,-99.4171 408.037,-75.0015 392.526,-56 384.062,-45.6312 373.623,-34.8817 365.037,-26.49"/>
<polygon fill="midnightblue" stroke="midnightblue" points="367.421,-23.9265 357.784,-19.5249 362.573,-28.9756 367.421,-23.9265"/>
</g>
<!-- Node7 -->
<g id="node7" class="node"><title>Node7</title>
<polygon fill="white" stroke="#bfbfbf" points="440.026,-56.5 440.026,-75.5 483.026,-75.5 483.026,-56.5 440.026,-56.5"/>
<text text-anchor="middle" x="461.526" y="-63.5" font-family="Helvetica,sans-Serif" font-size="10.00">cstdio</text>
</g>
<!-- Node6&#45;&gt;Node7 -->
<g id="edge7" class="edge"><title>Node6&#45;&gt;Node7</title>
<path fill="none" stroke="midnightblue" d="M440.654,-112.083C444.04,-104.77 448.942,-94.1814 453.145,-85.1034"/>
<polygon fill="midnightblue" stroke="midnightblue" points="456.449,-86.2962 457.474,-75.7511 450.097,-83.3553 456.449,-86.2962"/>
</g>
<!-- Node8&#45;&gt;Node2 -->
<g id="edge16" class="edge"><title>Node8&#45;&gt;Node2</title>
<path fill="none" stroke="midnightblue" d="M1057.8,-344.801C884.017,-343.726 209.364,-337.172 122.526,-300 98.9308,-289.9 78.6787,-267.704 66.5572,-252.07"/>
<polygon fill="midnightblue" stroke="midnightblue" points="69.1648,-249.711 60.396,-243.765 63.5427,-253.881 69.1648,-249.711"/>
</g>
<!-- Node8&#45;&gt;Node3 -->
<g id="edge18" class="edge"><title>Node8&#45;&gt;Node3</title>
<path fill="none" stroke="midnightblue" d="M1057.79,-344.449C880.717,-341.882 182.701,-329.937 89.5259,-300 46.1009,-286.048 25.265,-284.097 3.52586,-244 -9.77882,-219.46 20.2968,-172.992 26.5259,-168 57.3988,-143.259 164.433,-131.473 231.768,-126.387"/>
<polygon fill="midnightblue" stroke="midnightblue" points="232.089,-129.873 241.808,-125.656 231.58,-122.892 232.089,-129.873"/>
</g>
<!-- Node8&#45;&gt;Node6 -->
<g id="edge62" class="edge"><title>Node8&#45;&gt;Node6</title>
<path fill="none" stroke="midnightblue" d="M1057.79,-344.956C896.323,-343.791 305.113,-329.776 204.526,-188 199.382,-180.75 198.87,-174.858 204.526,-168 216.333,-153.683 327.333,-137.126 391.42,-128.646"/>
<polygon fill="midnightblue" stroke="midnightblue" points="392.2,-132.074 401.662,-127.307 391.292,-125.133 392.2,-132.074"/>
</g>
<!-- Node9 -->
<g id="node9" class="node"><title>Node9</title>
<polygon fill="white" stroke="#bfbfbf" points="1032.53,-112.5 1032.53,-131.5 1078.53,-131.5 1078.53,-112.5 1032.53,-112.5"/>
<text text-anchor="middle" x="1055.53" y="-119.5" font-family="Helvetica,sans-Serif" font-size="10.00">cstdint</text>
</g>
<!-- Node8&#45;&gt;Node9 -->
<g id="edge10" class="edge"><title>Node8&#45;&gt;Node9</title>
<path fill="none" stroke="midnightblue" d="M1096.84,-336.297C1090.51,-303.633 1068.09,-187.866 1059.2,-141.957"/>
<polygon fill="midnightblue" stroke="midnightblue" points="1062.58,-141.036 1057.25,-131.884 1055.71,-142.367 1062.58,-141.036"/>
</g>
<!-- Node10 -->
<g id="node10" class="node"><title>Node10</title>
<g id="a_node10"><a xlink:href="dji__broadcast_8hpp.html" target="_top" xlink:title="Broadcast Telemetry API for DJI onboardSDK library. ">
<polygon fill="white" stroke="black" points="905.026,-224.5 905.026,-243.5 998.026,-243.5 998.026,-224.5 905.026,-224.5"/>
<text text-anchor="middle" x="951.526" y="-231.5" font-family="Helvetica,sans-Serif" font-size="10.00">dji_broadcast.hpp</text>
</a>
</g>
</g>
<!-- Node8&#45;&gt;Node10 -->
<g id="edge11" class="edge"><title>Node8&#45;&gt;Node10</title>
<path fill="none" stroke="midnightblue" d="M1057.8,-337.45C1033.17,-331.076 1002.57,-319.714 981.526,-300 968.227,-287.541 960.32,-268.031 955.992,-253.634"/>
<polygon fill="midnightblue" stroke="midnightblue" points="959.33,-252.568 953.35,-243.822 952.571,-254.389 959.33,-252.568"/>
</g>
<!-- Node12 -->
<g id="node12" class="node"><title>Node12</title>
<g id="a_node12"><a xlink:href="dji__vehicle__callback_8hpp.html" target="_top" xlink:title="Type definition for new Vehicle&#45;style callbacks. ">
<polygon fill="white" stroke="black" points="1210.53,-112.5 1210.53,-131.5 1332.53,-131.5 1332.53,-112.5 1210.53,-112.5"/>
<text text-anchor="middle" x="1271.53" y="-119.5" font-family="Helvetica,sans-Serif" font-size="10.00">dji_vehicle_callback.hpp</text>
</a>
</g>
</g>
<!-- Node8&#45;&gt;Node12 -->
<g id="edge63" class="edge"><title>Node8&#45;&gt;Node12</title>
<path fill="none" stroke="midnightblue" d="M1109.17,-336.321C1125.58,-323.174 1158.33,-297.852 1188.53,-280 1220.7,-260.979 1239.22,-271.51 1264.53,-244 1288.25,-218.207 1290.79,-202.646 1285.53,-168 1284.16,-159.001 1281.34,-149.325 1278.58,-141.26"/>
<polygon fill="midnightblue" stroke="midnightblue" points="1281.84,-139.976 1275.13,-131.778 1275.26,-142.372 1281.84,-139.976"/>
</g>
<!-- Node13 -->
<g id="node13" class="node"><title>Node13</title>
<polygon fill="white" stroke="#bfbfbf" points="1127.03,-56.5 1127.03,-75.5 1238.03,-75.5 1238.03,-56.5 1127.03,-56.5"/>
<text text-anchor="middle" x="1182.53" y="-63.5" font-family="Helvetica,sans-Serif" font-size="10.00">dji_open_protocol.hpp</text>
</g>
<!-- Node8&#45;&gt;Node13 -->
<g id="edge54" class="edge"><title>Node8&#45;&gt;Node13</title>
<path fill="none" stroke="midnightblue" d="M1139.16,-344.414C1317.85,-341.669 2026.68,-328.985 2063.53,-300 2087.18,-281.392 2082.53,-265.098 2082.53,-235 2082.53,-235 2082.53,-235 2082.53,-177 2082.53,-92.9246 1455.71,-72.5674 1248.29,-68.1326"/>
<polygon fill="midnightblue" stroke="midnightblue" points="1248.22,-64.6305 1238.15,-67.9214 1248.07,-71.629 1248.22,-64.6305"/>
</g>
<!-- Node14 -->
<g id="node14" class="node"><title>Node14</title>
<polygon fill="white" stroke="#bfbfbf" points="1240.53,-280.5 1240.53,-299.5 1352.53,-299.5 1352.53,-280.5 1240.53,-280.5"/>
<text text-anchor="middle" x="1296.53" y="-287.5" font-family="Helvetica,sans-Serif" font-size="10.00">dji_circular_buffer.hpp</text>
</g>
<!-- Node8&#45;&gt;Node14 -->
<g id="edge17" class="edge"><title>Node8&#45;&gt;Node14</title>
<path fill="none" stroke="midnightblue" d="M1129.9,-336.444C1163.79,-327.201 1217.93,-312.436 1255.25,-302.257"/>
<polygon fill="midnightblue" stroke="midnightblue" points="1256.57,-305.524 1265.3,-299.516 1254.73,-298.771 1256.57,-305.524"/>
</g>
<!-- Node15 -->
<g id="node15" class="node"><title>Node15</title>
<g id="a_node15"><a xlink:href="dji__control_8hpp.html" target="_top" xlink:title="Control API for DJI OSDK library. ">
<polygon fill="white" stroke="black" points="990.526,-280.5 990.526,-299.5 1070.53,-299.5 1070.53,-280.5 990.526,-280.5"/>
<text text-anchor="middle" x="1030.53" y="-287.5" font-family="Helvetica,sans-Serif" font-size="10.00">dji_control.hpp</text>
</a>
</g>
</g>
<!-- Node8&#45;&gt;Node15 -->
<g id="edge19" class="edge"><title>Node8&#45;&gt;Node15</title>
<path fill="none" stroke="midnightblue" d="M1087.6,-336.324C1077.35,-328.185 1061.81,-315.839 1049.52,-306.087"/>
<polygon fill="midnightblue" stroke="midnightblue" points="1051.66,-303.312 1041.65,-299.834 1047.3,-308.794 1051.66,-303.312"/>
</g>
<!-- Node18 -->
<g id="node18" class="node"><title>Node18</title>
<g id="a_node18"><a xlink:href="dji__version_8hpp.html" target="_top" xlink:title="Drone/SDK Version definition for DJI onboardSDK library. ">
<polygon fill="white" stroke="black" points="641.526,-168.5 641.526,-187.5 723.526,-187.5 723.526,-168.5 641.526,-168.5"/>
<text text-anchor="middle" x="682.526" y="-175.5" font-family="Helvetica,sans-Serif" font-size="10.00">dji_version.hpp</text>
</a>
</g>
</g>
<!-- Node8&#45;&gt;Node18 -->
<g id="edge64" class="edge"><title>Node8&#45;&gt;Node18</title>
<path fill="none" stroke="midnightblue" d="M1068.25,-336.435C1040.55,-328.24 998.649,-314.943 963.526,-300 896.574,-271.514 885.509,-252.412 818.526,-224 787.021,-210.637 750.092,-198.638 722.672,-190.398"/>
<polygon fill="midnightblue" stroke="midnightblue" points="723.611,-187.026 713.028,-187.537 721.62,-193.737 723.611,-187.026"/>
</g>
<!-- Node20 -->
<g id="node20" class="node"><title>Node20</title>
<g id="a_node20"><a xlink:href="dji__gimbal_8hpp.html" target="_top" xlink:title="Gimbal API for OSDK library. ">
<polygon fill="white" stroke="black" points="78.0259,-168.5 78.0259,-187.5 157.026,-187.5 157.026,-168.5 78.0259,-168.5"/>
<text text-anchor="middle" x="117.526" y="-175.5" font-family="Helvetica,sans-Serif" font-size="10.00">dji_gimbal.hpp</text>
</a>
</g>
</g>
<!-- Node8&#45;&gt;Node20 -->
<g id="edge32" class="edge"><title>Node8&#45;&gt;Node20</title>
<path fill="none" stroke="midnightblue" d="M1057.84,-344.207C883.738,-340.665 208.58,-325.338 171.526,-300 136.979,-276.376 124.262,-225.218 119.795,-197.592"/>
<polygon fill="midnightblue" stroke="midnightblue" points="123.254,-197.057 118.383,-187.648 116.324,-198.041 123.254,-197.057"/>
</g>
<!-- Node21 -->
<g id="node21" class="node"><title>Node21</title>
<polygon fill="white" stroke="#bfbfbf" points="1370.53,-280.5 1370.53,-299.5 1468.53,-299.5 1468.53,-280.5 1370.53,-280.5"/>
<text text-anchor="middle" x="1419.53" y="-287.5" font-family="Helvetica,sans-Serif" font-size="10.00">dji_hard_driver.hpp</text>
</g>
<!-- Node8&#45;&gt;Node21 -->
<g id="edge35" class="edge"><title>Node8&#45;&gt;Node21</title>
<path fill="none" stroke="midnightblue" d="M1139.18,-338.161C1195.07,-328.759 1296,-311.78 1360.29,-300.965"/>
<polygon fill="midnightblue" stroke="midnightblue" points="1361,-304.395 1370.28,-299.285 1359.84,-297.492 1361,-304.395"/>
</g>
<!-- Node22 -->
<g id="node22" class="node"><title>Node22</title>
<g id="a_node22"><a xlink:href="dji__hardware__sync_8hpp.html" target="_top" xlink:title="Hardware Sync API for DJI OSDK. ">
<polygon fill="white" stroke="black" points="213.526,-168.5 213.526,-187.5 329.526,-187.5 329.526,-168.5 213.526,-168.5"/>
<text text-anchor="middle" x="271.526" y="-175.5" font-family="Helvetica,sans-Serif" font-size="10.00">dji_hardware_sync.hpp</text>
</a>
</g>
</g>
<!-- Node8&#45;&gt;Node22 -->
<g id="edge36" class="edge"><title>Node8&#45;&gt;Node22</title>
<path fill="none" stroke="midnightblue" d="M1057.79,-344.98C971.34,-344.151 763.591,-337.987 594.526,-300 524.283,-284.217 509.953,-269.235 442.526,-244 393.931,-225.813 337.717,-204.366 303.4,-191.228"/>
<polygon fill="midnightblue" stroke="midnightblue" points="304.496,-187.9 293.906,-187.591 301.992,-194.437 304.496,-187.9"/>
</g>
<!-- Node23 -->
<g id="node23" class="node"><title>Node23</title>
<g id="a_node23"><a xlink:href="dji__mfio_8hpp.html" target="_top" xlink:title="MFIO API for DJI OSDK library. ">
<polygon fill="white" stroke="black" points="1329.03,-168.5 1329.03,-187.5 1398.03,-187.5 1398.03,-168.5 1329.03,-168.5"/>
<text text-anchor="middle" x="1363.53" y="-175.5" font-family="Helvetica,sans-Serif" font-size="10.00">dji_mfio.hpp</text>
</a>
</g>
</g>
<!-- Node8&#45;&gt;Node23 -->
<g id="edge38" class="edge"><title>Node8&#45;&gt;Node23</title>
<path fill="none" stroke="midnightblue" d="M1115.62,-336.335C1140.83,-323.633 1189.51,-299.365 1231.53,-280 1268.04,-263.168 1282.94,-268.876 1314.53,-244 1331.12,-230.929 1345.05,-210.957 1353.76,-196.602"/>
<polygon fill="midnightblue" stroke="midnightblue" points="1356.93,-198.119 1358.93,-187.715 1350.87,-194.601 1356.93,-198.119"/>
</g>
<!-- Node24 -->
<g id="node24" class="node"><title>Node24</title>
<g id="a_node24"><a xlink:href="dji__mission__manager_8hpp.html" target="_top" xlink:title="Mission&#45;Manager API for DJI OSDK library. ">
<polygon fill="white" stroke="black" points="712.026,-280.5 712.026,-299.5 839.026,-299.5 839.026,-280.5 712.026,-280.5"/>
<text text-anchor="middle" x="775.526" y="-287.5" font-family="Helvetica,sans-Serif" font-size="10.00">dji_mission_manager.hpp</text>
</a>
</g>
</g>
<!-- Node8&#45;&gt;Node24 -->
<g id="edge40" class="edge"><title>Node8&#45;&gt;Node24</title>
<path fill="none" stroke="midnightblue" d="M1057.94,-338.216C1002.22,-328.899 901.542,-312.068 836.665,-301.221"/>
<polygon fill="midnightblue" stroke="midnightblue" points="837.012,-297.731 826.572,-299.534 835.858,-304.635 837.012,-297.731"/>
</g>
<!-- Node28 -->
<g id="node28" class="node"><title>Node28</title>
<g id="a_node28"><a xlink:href="dji__mobile__communication_8hpp.html" target="_top" xlink:title="Implementation of DJI Mobile&#45;Onboard SDK Communication (MOC) ">
<polygon fill="white" stroke="black" points="1904.53,-280.5 1904.53,-299.5 2054.53,-299.5 2054.53,-280.5 1904.53,-280.5"/>
<text text-anchor="middle" x="1979.53" y="-287.5" font-family="Helvetica,sans-Serif" font-size="10.00">dji_mobile_communication.hpp</text>
</a>
</g>
</g>
<!-- Node8&#45;&gt;Node28 -->
<g id="edge49" class="edge"><title>Node8&#45;&gt;Node28</title>
<path fill="none" stroke="midnightblue" d="M1139.37,-343.315C1256.45,-338.347 1603.24,-322.676 1890.53,-300 1891.65,-299.911 1892.78,-299.821 1893.92,-299.728"/>
<polygon fill="midnightblue" stroke="midnightblue" points="1894.62,-303.181 1904.28,-298.844 1894.02,-296.206 1894.62,-303.181"/>
</g>
<!-- Node30 -->
<g id="node30" class="node"><title>Node30</title>
<g id="a_node30"><a xlink:href="dji__mobile__device_8hpp.html" target="_top" xlink:title="Implementation of DJI Mobile Device Abstraction. ">
<polygon fill="white" stroke="black" points="1642.03,-224.5 1642.03,-243.5 1755.03,-243.5 1755.03,-224.5 1642.03,-224.5"/>
<text text-anchor="middle" x="1698.53" y="-231.5" font-family="Helvetica,sans-Serif" font-size="10.00">dji_mobile_device.hpp</text>
</a>
</g>
</g>
<!-- Node8&#45;&gt;Node30 -->
<g id="edge52" class="edge"><title>Node8&#45;&gt;Node30</title>
<path fill="none" stroke="midnightblue" d="M1139.16,-344.118C1293.06,-340.582 1832.7,-326.342 1857.53,-300 1889.75,-265.81 1822.1,-249.085 1765.29,-241.277"/>
<polygon fill="midnightblue" stroke="midnightblue" points="1765.57,-237.783 1755.2,-239.965 1764.67,-244.725 1765.57,-237.783"/>
</g>
<!-- Node31 -->
<g id="node31" class="node"><title>Node31</title>
<polygon fill="white" stroke="#bfbfbf" points="1486.53,-280.5 1486.53,-299.5 1614.53,-299.5 1614.53,-280.5 1486.53,-280.5"/>
<text text-anchor="middle" x="1550.53" y="-287.5" font-family="Helvetica,sans-Serif" font-size="10.00">dji_platform_manager.hpp</text>
</g>
<!-- Node8&#45;&gt;Node31 -->
<g id="edge55" class="edge"><title>Node8&#45;&gt;Node31</title>
<path fill="none" stroke="midnightblue" d="M1139.2,-340.232C1206.84,-332.288 1347,-315.772 1476.35,-300.138"/>
<polygon fill="midnightblue" stroke="midnightblue" points="1476.93,-303.594 1486.43,-298.918 1476.09,-296.644 1476.93,-303.594"/>
</g>
<!-- Node32 -->
<g id="node32" class="node"><title>Node32</title>
<g id="a_node32"><a xlink:href="dji__status_8hpp.html" target="_top" xlink:title="Status information for DJI Vehicle. ">
<polygon fill="white" stroke="black" points="1633.03,-280.5 1633.03,-299.5 1710.03,-299.5 1710.03,-280.5 1633.03,-280.5"/>
<text text-anchor="middle" x="1671.53" y="-287.5" font-family="Helvetica,sans-Serif" font-size="10.00">dji_status.hpp</text>
</a>
</g>
</g>
<!-- Node8&#45;&gt;Node32 -->
<g id="edge56" class="edge"><title>Node8&#45;&gt;Node32</title>
<path fill="none" stroke="midnightblue" d="M1139.19,-342.901C1226.05,-338.12 1436.26,-324.959 1622.82,-299.957"/>
<polygon fill="midnightblue" stroke="midnightblue" points="1623.37,-303.414 1632.81,-298.603 1622.43,-296.477 1623.37,-303.414"/>
</g>
<!-- Node33 -->
<g id="node33" class="node"><title>Node33</title>
<g id="a_node33"><a xlink:href="dji__subscription_8hpp.html" target="_top" xlink:title="Telemetry Subscription API for DJI OSDK library. ">
<polygon fill="white" stroke="black" points="1131.03,-224.5 1131.03,-243.5 1234.03,-243.5 1234.03,-224.5 1131.03,-224.5"/>
<text text-anchor="middle" x="1182.53" y="-231.5" font-family="Helvetica,sans-Serif" font-size="10.00">dji_subscription.hpp</text>
</a>
</g>
</g>
<!-- Node8&#45;&gt;Node33 -->
<g id="edge57" class="edge"><title>Node8&#45;&gt;Node33</title>
<path fill="none" stroke="midnightblue" d="M1105.12,-336.368C1119.04,-318.135 1151.66,-275.426 1169.79,-251.675"/>
<polygon fill="midnightblue" stroke="midnightblue" points="1172.68,-253.663 1175.97,-243.591 1167.11,-249.415 1172.68,-253.663"/>
</g>
<!-- Node34 -->
<g id="node34" class="node"><title>Node34</title>
<polygon fill="white" stroke="#bfbfbf" points="1728.53,-280.5 1728.53,-299.5 1848.53,-299.5 1848.53,-280.5 1728.53,-280.5"/>
<text text-anchor="middle" x="1788.53" y="-287.5" font-family="Helvetica,sans-Serif" font-size="10.00">dji_thread_manager.hpp</text>
</g>
<!-- Node8&#45;&gt;Node34 -->
<g id="edge61" class="edge"><title>Node8&#45;&gt;Node34</title>
<path fill="none" stroke="midnightblue" d="M1139.28,-342.858C1237.19,-337.538 1493.55,-322.576 1718.34,-300.066"/>
<polygon fill="midnightblue" stroke="midnightblue" points="1718.74,-303.543 1728.34,-299.057 1718.04,-296.578 1718.74,-303.543"/>
</g>
<!-- Node35 -->
<g id="node35" class="node"><title>Node35</title>
<g id="a_node35"><a xlink:href="dji__virtual__rc_8hpp.html" target="_top" xlink:title="Virtual Radio Control API for DJI onboardSDK library. ">
<polygon fill="white" stroke="black" points="603.526,-280.5 603.526,-299.5 693.526,-299.5 693.526,-280.5 603.526,-280.5"/>
<text text-anchor="middle" x="648.526" y="-287.5" font-family="Helvetica,sans-Serif" font-size="10.00">dji_virtual_rc.hpp</text>
</a>
</g>
</g>
<!-- Node8&#45;&gt;Node35 -->
<g id="edge65" class="edge"><title>Node8&#45;&gt;Node35</title>
<path fill="none" stroke="midnightblue" d="M1057.96,-341.094C987.913,-334.195 839.512,-318.909 703.748,-300.107"/>
<polygon fill="midnightblue" stroke="midnightblue" points="703.968,-296.604 693.58,-298.689 703.001,-303.537 703.968,-296.604"/>
</g>
<!-- Node11 -->
<g id="node11" class="node"><title>Node11</title>
<g id="a_node11"><a xlink:href="dji__telemetry_8hpp.html" target="_top" xlink:title="Enumeration of all telemetry data types, structures and maps. ">
<polygon fill="white" stroke="black" points="870.026,-168.5 870.026,-187.5 961.026,-187.5 961.026,-168.5 870.026,-168.5"/>
<text text-anchor="middle" x="915.526" y="-175.5" font-family="Helvetica,sans-Serif" font-size="10.00">dji_telemetry.hpp</text>
</a>
</g>
</g>
<!-- Node10&#45;&gt;Node11 -->
<g id="edge12" class="edge"><title>Node10&#45;&gt;Node11</title>
<path fill="none" stroke="midnightblue" d="M945.581,-224.083C940.549,-216.534 933.189,-205.495 927.012,-196.23"/>
<polygon fill="midnightblue" stroke="midnightblue" points="929.819,-194.13 921.36,-187.751 923.995,-198.013 929.819,-194.13"/>
</g>
<!-- Node10&#45;&gt;Node12 -->
<g id="edge14" class="edge"><title>Node10&#45;&gt;Node12</title>
<path fill="none" stroke="midnightblue" d="M976.369,-224.46C1032.96,-205.006 1171.58,-157.355 1236.68,-134.977"/>
<polygon fill="midnightblue" stroke="midnightblue" points="1238.16,-138.171 1246.48,-131.61 1235.88,-131.551 1238.16,-138.171"/>
</g>
<!-- Node11&#45;&gt;Node6 -->
<g id="edge13" class="edge"><title>Node11&#45;&gt;Node6</title>
<path fill="none" stroke="midnightblue" d="M869.937,-169.337C866.755,-168.864 863.594,-168.414 860.526,-168 722.847,-149.444 559.161,-133.91 481.593,-126.94"/>
<polygon fill="midnightblue" stroke="midnightblue" points="481.502,-123.418 471.231,-126.014 480.879,-130.391 481.502,-123.418"/>
</g>
<!-- Node12&#45;&gt;Node13 -->
<g id="edge15" class="edge"><title>Node12&#45;&gt;Node13</title>
<path fill="none" stroke="midnightblue" d="M1257.23,-112.324C1243.34,-103.9 1222.03,-90.9709 1205.72,-81.0741"/>
<polygon fill="midnightblue" stroke="midnightblue" points="1207.15,-77.8495 1196.79,-75.6545 1203.52,-83.8341 1207.15,-77.8495"/>
</g>
<!-- Node15&#45;&gt;Node6 -->
<g id="edge30" class="edge"><title>Node15&#45;&gt;Node6</title>
<path fill="none" stroke="midnightblue" d="M1029.33,-280.467C1025.58,-257.244 1011.61,-192.972 969.526,-168 928.01,-143.363 602.279,-129.06 481.439,-124.558"/>
<polygon fill="midnightblue" stroke="midnightblue" points="481.53,-121.059 471.408,-124.189 481.273,-128.054 481.53,-121.059"/>
</g>
<!-- Node15&#45;&gt;Node12 -->
<g id="edge31" class="edge"><title>Node15&#45;&gt;Node12</title>
<path fill="none" stroke="midnightblue" d="M1070.9,-285.521C1125.42,-279.996 1218.54,-267.368 1242.53,-244 1270.16,-217.081 1273.35,-168.84 1272.75,-142.122"/>
<polygon fill="midnightblue" stroke="midnightblue" points="1276.24,-141.653 1272.31,-131.814 1269.24,-141.956 1276.24,-141.653"/>
</g>
<!-- Node15&#45;&gt;Node13 -->
<g id="edge29" class="edge"><title>Node15&#45;&gt;Node13</title>
<path fill="none" stroke="midnightblue" d="M1036.48,-280.297C1059.13,-247.217 1140.14,-128.909 1170.72,-84.2407"/>
<polygon fill="midnightblue" stroke="midnightblue" points="1173.68,-86.1124 1176.44,-75.8837 1167.91,-82.1577 1173.68,-86.1124"/>
</g>
<!-- Node16 -->
<g id="node16" class="node"><title>Node16</title>
<g id="a_node16"><a xlink:href="dji__ack_8hpp.html" target="_top" xlink:title="All DJI OSDK ACK parsing. ">
<polygon fill="white" stroke="black" points="494.526,-224.5 494.526,-243.5 560.526,-243.5 560.526,-224.5 494.526,-224.5"/>
<text text-anchor="middle" x="527.526" y="-231.5" font-family="Helvetica,sans-Serif" font-size="10.00">dji_ack.hpp</text>
</a>
</g>
</g>
<!-- Node15&#45;&gt;Node16 -->
<g id="edge20" class="edge"><title>Node15&#45;&gt;Node16</title>
<path fill="none" stroke="midnightblue" d="M990.251,-286.616C911.54,-281.623 731.654,-268.572 570.997,-244.071"/>
<polygon fill="midnightblue" stroke="midnightblue" points="571.35,-240.584 560.933,-242.517 570.282,-247.502 571.35,-240.584"/>
</g>
<!-- Node16&#45;&gt;Node3 -->
<g id="edge21" class="edge"><title>Node16&#45;&gt;Node3</title>
<path fill="none" stroke="midnightblue" d="M503.873,-224.348C480.814,-215.735 444.886,-201.836 414.526,-188 378.578,-171.617 338.18,-150.228 313.041,-136.549"/>
<polygon fill="midnightblue" stroke="midnightblue" points="314.647,-133.438 304.194,-131.711 311.288,-139.58 314.647,-133.438"/>
</g>
<!-- Node16&#45;&gt;Node6 -->
<g id="edge24" class="edge"><title>Node16&#45;&gt;Node6</title>
<path fill="none" stroke="midnightblue" d="M548.254,-224.346C573.403,-212.597 610.465,-190.476 593.526,-168 579.928,-149.957 522.421,-136.94 480.941,-129.683"/>
<polygon fill="midnightblue" stroke="midnightblue" points="481.485,-126.225 471.041,-128.006 480.316,-133.127 481.485,-126.225"/>
</g>
<!-- Node17 -->
<g id="node17" class="node"><title>Node17</title>
<g id="a_node17"><a xlink:href="dji__mission__type_8hpp.html" target="_top" xlink:title="Mission related data struct for DJI OSDK library. ">
<polygon fill="white" stroke="black" points="423.526,-168.5 423.526,-187.5 531.526,-187.5 531.526,-168.5 423.526,-168.5"/>
<text text-anchor="middle" x="477.526" y="-175.5" font-family="Helvetica,sans-Serif" font-size="10.00">dji_mission_type.hpp</text>
</a>
</g>
</g>
<!-- Node16&#45;&gt;Node17 -->
<g id="edge22" class="edge"><title>Node16&#45;&gt;Node17</title>
<path fill="none" stroke="midnightblue" d="M519.269,-224.083C512.061,-216.298 501.416,-204.801 492.68,-195.367"/>
<polygon fill="midnightblue" stroke="midnightblue" points="494.991,-192.711 485.629,-187.751 489.855,-197.467 494.991,-192.711"/>
</g>
<!-- Node16&#45;&gt;Node18 -->
<g id="edge25" class="edge"><title>Node16&#45;&gt;Node18</title>
<path fill="none" stroke="midnightblue" d="M552.086,-224.444C578.048,-215.399 619.194,-201.064 648.323,-190.916"/>
<polygon fill="midnightblue" stroke="midnightblue" points="649.789,-194.112 658.081,-187.516 647.486,-187.501 649.789,-194.112"/>
</g>
<!-- Node19 -->
<g id="node19" class="node"><title>Node19</title>
<polygon fill="white" stroke="#bfbfbf" points="550.026,-168.5 550.026,-187.5 585.026,-187.5 585.026,-168.5 550.026,-168.5"/>
<text text-anchor="middle" x="567.526" y="-175.5" font-family="Helvetica,sans-Serif" font-size="10.00">map</text>
</g>
<!-- Node16&#45;&gt;Node19 -->
<g id="edge28" class="edge"><title>Node16&#45;&gt;Node19</title>
<path fill="none" stroke="midnightblue" d="M534.131,-224.083C539.781,-216.455 548.071,-205.264 554.977,-195.941"/>
<polygon fill="midnightblue" stroke="midnightblue" points="557.904,-197.87 561.044,-187.751 552.279,-193.703 557.904,-197.87"/>
</g>
<!-- Node17&#45;&gt;Node6 -->
<g id="edge23" class="edge"><title>Node17&#45;&gt;Node6</title>
<path fill="none" stroke="midnightblue" d="M470.756,-168.083C464.964,-160.455 456.467,-149.264 449.388,-139.941"/>
<polygon fill="midnightblue" stroke="midnightblue" points="452.005,-137.599 443.17,-131.751 446.43,-141.832 452.005,-137.599"/>
</g>
<!-- Node18&#45;&gt;Node3 -->
<g id="edge26" class="edge"><title>Node18&#45;&gt;Node3</title>
<path fill="none" stroke="midnightblue" d="M641.476,-171.374C570.691,-161.672 425.549,-141.78 345.193,-130.767"/>
<polygon fill="midnightblue" stroke="midnightblue" points="345.632,-127.294 335.249,-129.404 344.681,-134.229 345.632,-127.294"/>
</g>
<!-- Node18&#45;&gt;Node9 -->
<g id="edge27" class="edge"><title>Node18&#45;&gt;Node9</title>
<path fill="none" stroke="midnightblue" d="M723.705,-169.454C726.688,-168.949 729.652,-168.459 732.526,-168 838.058,-151.158 963.562,-134.688 1022.22,-127.198"/>
<polygon fill="midnightblue" stroke="midnightblue" points="1022.89,-130.64 1032.37,-125.905 1022.01,-123.696 1022.89,-130.64"/>
</g>
<!-- Node20&#45;&gt;Node3 -->
<g id="edge33" class="edge"><title>Node20&#45;&gt;Node3</title>
<path fill="none" stroke="midnightblue" d="M144.621,-168.444C173.514,-159.32 219.451,-144.813 251.631,-134.651"/>
<polygon fill="midnightblue" stroke="midnightblue" points="253.075,-137.865 261.557,-131.516 250.967,-131.19 253.075,-137.865"/>
</g>
<!-- Node20&#45;&gt;Node6 -->
<g id="edge34" class="edge"><title>Node20&#45;&gt;Node6</title>
<path fill="none" stroke="midnightblue" d="M157.282,-170.27C216.928,-160.173 329.221,-141.164 391.701,-130.588"/>
<polygon fill="midnightblue" stroke="midnightblue" points="392.379,-134.023 401.655,-128.903 391.211,-127.121 392.379,-134.023"/>
</g>
<!-- Node22&#45;&gt;Node6 -->
<g id="edge37" class="edge"><title>Node22&#45;&gt;Node6</title>
<path fill="none" stroke="midnightblue" d="M297.671,-168.444C325.549,-159.32 369.874,-144.813 400.926,-134.651"/>
<polygon fill="midnightblue" stroke="midnightblue" points="402.088,-137.953 410.503,-131.516 399.911,-131.3 402.088,-137.953"/>
</g>
<!-- Node23&#45;&gt;Node12 -->
<g id="edge39" class="edge"><title>Node23&#45;&gt;Node12</title>
<path fill="none" stroke="midnightblue" d="M1348.74,-168.324C1334.26,-159.822 1311.95,-146.729 1295.03,-136.797"/>
<polygon fill="midnightblue" stroke="midnightblue" points="1296.67,-133.698 1286.27,-131.655 1293.12,-139.735 1296.67,-133.698"/>
</g>
<!-- Node25 -->
<g id="node25" class="node"><title>Node25</title>
<g id="a_node25"><a xlink:href="dji__hotpoint_8hpp.html" target="_top" xlink:title="Implementation of HotPoint (Point of Interest) Missions for DJI OSDK. ">
<polygon fill="white" stroke="black" points="725.026,-224.5 725.026,-243.5 810.026,-243.5 810.026,-224.5 725.026,-224.5"/>
<text text-anchor="middle" x="767.526" y="-231.5" font-family="Helvetica,sans-Serif" font-size="10.00">dji_hotpoint.hpp</text>
</a>
</g>
</g>
<!-- Node24&#45;&gt;Node25 -->
<g id="edge41" class="edge"><title>Node24&#45;&gt;Node25</title>
<path fill="none" stroke="midnightblue" d="M774.205,-280.083C773.145,-272.927 771.62,-262.635 770.295,-253.691"/>
<polygon fill="midnightblue" stroke="midnightblue" points="773.75,-253.13 768.822,-243.751 766.826,-254.156 773.75,-253.13"/>
</g>
<!-- Node27 -->
<g id="node27" class="node"><title>Node27</title>
<g id="a_node27"><a xlink:href="dji__waypoint_8hpp.html" target="_top" xlink:title="Implementation of GPS Waypoint Missions for DJI OSDK. ">
<polygon fill="white" stroke="black" points="579.026,-224.5 579.026,-243.5 668.026,-243.5 668.026,-224.5 579.026,-224.5"/>
<text text-anchor="middle" x="623.526" y="-231.5" font-family="Helvetica,sans-Serif" font-size="10.00">dji_waypoint.hpp</text>
</a>
</g>
</g>
<!-- Node24&#45;&gt;Node27 -->
<g id="edge47" class="edge"><title>Node24&#45;&gt;Node27</title>
<path fill="none" stroke="midnightblue" d="M751.441,-280.444C725.981,-271.399 685.632,-257.064 657.067,-246.916"/>
<polygon fill="midnightblue" stroke="midnightblue" points="658.093,-243.566 647.498,-243.516 655.749,-250.162 658.093,-243.566"/>
</g>
<!-- Node25&#45;&gt;Node11 -->
<g id="edge46" class="edge"><title>Node25&#45;&gt;Node11</title>
<path fill="none" stroke="midnightblue" d="M790.977,-224.444C815.658,-215.438 854.711,-201.189 882.503,-191.049"/>
<polygon fill="midnightblue" stroke="midnightblue" points="883.99,-194.232 892.185,-187.516 881.591,-187.656 883.99,-194.232"/>
</g>
<!-- Node26 -->
<g id="node26" class="node"><title>Node26</title>
<g id="a_node26"><a xlink:href="dji__mission__base_8hpp.html" target="_top" xlink:title="Mission&#45;Base abstract class for DJI OSDK library. ">
<polygon fill="white" stroke="black" points="741.526,-168.5 741.526,-187.5 851.526,-187.5 851.526,-168.5 741.526,-168.5"/>
<text text-anchor="middle" x="796.526" y="-175.5" font-family="Helvetica,sans-Serif" font-size="10.00">dji_mission_base.hpp</text>
</a>
</g>
</g>
<!-- Node25&#45;&gt;Node26 -->
<g id="edge42" class="edge"><title>Node25&#45;&gt;Node26</title>
<path fill="none" stroke="midnightblue" d="M772.315,-224.083C776.284,-216.691 782.051,-205.953 786.961,-196.811"/>
<polygon fill="midnightblue" stroke="midnightblue" points="790.178,-198.217 791.826,-187.751 784.011,-194.905 790.178,-198.217"/>
</g>
<!-- Node26&#45;&gt;Node3 -->
<g id="edge43" class="edge"><title>Node26&#45;&gt;Node3</title>
<path fill="none" stroke="midnightblue" d="M741.386,-169.108C738.39,-168.722 735.422,-168.35 732.526,-168 593.71,-151.211 429.956,-135.729 345.414,-128.056"/>
<polygon fill="midnightblue" stroke="midnightblue" points="345.531,-124.552 335.256,-127.137 344.9,-131.523 345.531,-124.552"/>
</g>
<!-- Node26&#45;&gt;Node6 -->
<g id="edge44" class="edge"><title>Node26&#45;&gt;Node6</title>
<path fill="none" stroke="midnightblue" d="M741.458,-168.74C670.224,-158.055 547.482,-139.643 481.538,-129.752"/>
<polygon fill="midnightblue" stroke="midnightblue" points="481.868,-126.262 471.459,-128.24 480.829,-133.185 481.868,-126.262"/>
</g>
<!-- Node26&#45;&gt;Node12 -->
<g id="edge45" class="edge"><title>Node26&#45;&gt;Node12</title>
<path fill="none" stroke="midnightblue" d="M851.67,-169.136C854.664,-168.743 857.631,-168.362 860.526,-168 979.497,-153.125 1118.19,-138.504 1200.22,-130.138"/>
<polygon fill="midnightblue" stroke="midnightblue" points="1200.59,-133.618 1210.18,-129.124 1199.88,-126.654 1200.59,-133.618"/>
</g>
<!-- Node27&#45;&gt;Node26 -->
<g id="edge48" class="edge"><title>Node27&#45;&gt;Node26</title>
<path fill="none" stroke="midnightblue" d="M650.938,-224.444C680.295,-215.28 727.045,-200.688 759.622,-190.519"/>
<polygon fill="midnightblue" stroke="midnightblue" points="760.739,-193.837 769.242,-187.516 758.653,-187.155 760.739,-193.837"/>
</g>
<!-- Node28&#45;&gt;Node12 -->
<g id="edge51" class="edge"><title>Node28&#45;&gt;Node12</title>
<path fill="none" stroke="midnightblue" d="M1979.74,-280.297C1979.58,-266.162 1977.02,-238.353 1960.53,-224 1869.27,-144.606 1499.7,-127.62 1342.67,-123.988"/>
<polygon fill="midnightblue" stroke="midnightblue" points="1342.71,-120.488 1332.64,-123.767 1342.56,-127.486 1342.71,-120.488"/>
</g>
<!-- Node29 -->
<g id="node29" class="node"><title>Node29</title>
<polygon fill="white" stroke="#bfbfbf" points="1868.03,-224.5 1868.03,-243.5 1951.03,-243.5 1951.03,-224.5 1868.03,-224.5"/>
<text text-anchor="middle" x="1909.53" y="-231.5" font-family="Helvetica,sans-Serif" font-size="10.00">dji_macros.hpp</text>
</g>
<!-- Node28&#45;&gt;Node29 -->
<g id="edge50" class="edge"><title>Node28&#45;&gt;Node29</title>
<path fill="none" stroke="midnightblue" d="M1968.28,-280.324C1957.73,-272.185 1941.73,-259.839 1929.08,-250.087"/>
<polygon fill="midnightblue" stroke="midnightblue" points="1931.03,-247.171 1920.98,-243.834 1926.76,-252.713 1931.03,-247.171"/>
</g>
<!-- Node30&#45;&gt;Node12 -->
<g id="edge53" class="edge"><title>Node30&#45;&gt;Node12</title>
<path fill="none" stroke="midnightblue" d="M1665.38,-224.46C1588.83,-204.742 1399.84,-156.055 1314.53,-134.078"/>
<polygon fill="midnightblue" stroke="midnightblue" points="1315.21,-130.64 1304.66,-131.535 1313.47,-137.419 1315.21,-130.64"/>
</g>
<!-- Node33&#45;&gt;Node11 -->
<g id="edge59" class="edge"><title>Node33&#45;&gt;Node11</title>
<path fill="none" stroke="midnightblue" d="M1140.22,-224.444C1093.45,-214.984 1018.07,-199.738 967.676,-189.547"/>
<polygon fill="midnightblue" stroke="midnightblue" points="968.13,-186.068 957.635,-187.516 966.743,-192.929 968.13,-186.068"/>
</g>
<!-- Node33&#45;&gt;Node12 -->
<g id="edge60" class="edge"><title>Node33&#45;&gt;Node12</title>
<path fill="none" stroke="midnightblue" d="M1189.51,-224.368C1204.26,-206.135 1238.82,-163.426 1258.03,-139.675"/>
<polygon fill="midnightblue" stroke="midnightblue" points="1261.01,-141.567 1264.57,-131.591 1255.56,-137.164 1261.01,-141.567"/>
</g>
<!-- Node33&#45;&gt;Node13 -->
<g id="edge58" class="edge"><title>Node33&#45;&gt;Node13</title>
<path fill="none" stroke="midnightblue" d="M1182.53,-224.075C1182.53,-197.945 1182.53,-121.211 1182.53,-85.577"/>
<polygon fill="midnightblue" stroke="midnightblue" points="1186.03,-85.5681 1182.53,-75.5681 1179.03,-85.5681 1186.03,-85.5681"/>
</g>
<!-- Node35&#45;&gt;Node6 -->
<g id="edge68" class="edge"><title>Node35&#45;&gt;Node6</title>
<path fill="none" stroke="midnightblue" d="M603.18,-281.519C569.452,-274.779 522.981,-262.96 485.526,-244 449.669,-225.849 432.061,-224.163 414.526,-188 406.924,-172.322 415.188,-153.343 423.671,-139.952"/>
<polygon fill="midnightblue" stroke="midnightblue" points="426.58,-141.899 429.386,-131.683 420.821,-137.919 426.58,-141.899"/>
</g>
<!-- Node35&#45;&gt;Node11 -->
<g id="edge69" class="edge"><title>Node35&#45;&gt;Node11</title>
<path fill="none" stroke="midnightblue" d="M654.867,-280.295C665.657,-266.155 689.011,-238.34 715.526,-224 728.383,-217.047 807.095,-200.487 861.85,-189.513"/>
<polygon fill="midnightblue" stroke="midnightblue" points="862.652,-192.922 871.773,-187.533 861.282,-186.058 862.652,-192.922"/>
</g>
<!-- Node35&#45;&gt;Node13 -->
<g id="edge67" class="edge"><title>Node35&#45;&gt;Node13</title>
<path fill="none" stroke="midnightblue" d="M684.965,-280.433C719.588,-272.04 772.979,-258.437 818.526,-244 852.642,-233.186 941.124,-209.775 969.526,-188 1002.41,-162.789 989.668,-135.887 1023.53,-112 1050.8,-92.7578 1086.12,-81.7112 1116.55,-75.3852"/>
<polygon fill="midnightblue" stroke="midnightblue" points="1117.51,-78.7631 1126.66,-73.4158 1116.18,-71.8922 1117.51,-78.7631"/>
</g>
<!-- Node35&#45;&gt;Node16 -->
<g id="edge66" class="edge"><title>Node35&#45;&gt;Node16</title>
<path fill="none" stroke="midnightblue" d="M629.353,-280.444C609.617,-271.636 578.641,-257.812 556.033,-247.722"/>
<polygon fill="midnightblue" stroke="midnightblue" points="557.167,-244.396 546.609,-243.516 554.314,-250.788 557.167,-244.396"/>
</g>
</g>
</svg>
        <g id="navigator" transform="translate(0 0)" fill="#404254">
                <rect fill="#f2f5e9" fill-opacity="0.5" stroke="#606060" stroke-width=".5" x="0" y="0" width="60" height="60"/>
                <use id="zoomplus" xlink:href="#zoomPlus" x="17" y="9" onmousedown="handleZoom(evt,'in')"/>
                <use id="zoomminus" xlink:href="#zoomMin" x="42" y="9" onmousedown="handleZoom(evt,'out')"/>
                <use id="reset" xlink:href="#resetDef" x="30" y="36" onmousedown="handleReset()"/>
                <g id="arrowUp" xlink:href="#dirArrow" transform="translate(30 24)" onmousedown="handlePan(0,-1)">
                  <use xlink:href="#rim" fill="#404040">
                        <set attributeName="fill" to="#808080" begin="arrowUp.mouseover" end="arrowUp.mouseout"/>
                  </use>
                  <path fill="none" stroke="white" stroke-width="1.5" d="M0,-3.0v7 M-2.5,-0.5L0,-3.0L2.5,-0.5"/>
                </g>
                <g id="arrowRight" xlink:href="#dirArrow" transform="rotate(90) translate(36 -43)" onmousedown="handlePan(1,0)">
                  <use xlink:href="#rim" fill="#404040">
                        <set attributeName="fill" to="#808080" begin="arrowRight.mouseover" end="arrowRight.mouseout"/>
                  </use>
                  <path fill="none" stroke="white" stroke-width="1.5" d="M0,-3.0v7 M-2.5,-0.5L0,-3.0L2.5,-0.5"/>
                </g>
                <g id="arrowDown" xlink:href="#dirArrow" transform="rotate(180) translate(-30 -48)" onmousedown="handlePan(0,1)">
                  <use xlink:href="#rim" fill="#404040">
                        <set attributeName="fill" to="#808080" begin="arrowDown.mouseover" end="arrowDown.mouseout"/>
                  </use>
                  <path fill="none" stroke="white" stroke-width="1.5" d="M0,-3.0v7 M-2.5,-0.5L0,-3.0L2.5,-0.5"/>
                </g>
                <g id="arrowLeft" xlink:href="#dirArrow" transform="rotate(270) translate(-36 17)" onmousedown="handlePan(-1,0)">
                  <use xlink:href="#rim" fill="#404040">
                        <set attributeName="fill" to="#808080" begin="arrowLeft.mouseover" end="arrowLeft.mouseout"/>
                  </use>
                  <path fill="none" stroke="white" stroke-width="1.5" d="M0,-3.0v7 M-2.5,-0.5L0,-3.0L2.5,-0.5"/>
                </g>
        </g>
        <svg viewBox="0 0 15 15" width="100%" height="30px" preserveAspectRatio="xMaxYMin meet">
         <g id="arrow_out" transform="scale(0.3 0.3)">
          <a xlink:href="dji__camera_8cpp__incl_org.svg" target="_base">
           <rect id="button" ry="5" rx="5" y="6" x="6" height="38" width="38"
                fill="#f2f5e9" fill-opacity="0.5" stroke="#606060" stroke-width="1.0"/>
           <path id="arrow"
             d="M 11.500037,31.436501 C 11.940474,20.09759 22.043105,11.32322 32.158766,21.979434 L 37.068811,17.246167 C 37.068811,17.246167 37.088388,32 37.088388,32 L 22.160133,31.978069 C 22.160133,31.978069 26.997745,27.140456 26.997745,27.140456 C 18.528582,18.264221 13.291696,25.230495 11.500037,31.436501 z"
             style="fill:#404040;"/>
          </a>
         </g>
        </svg>
</svg>
