<?xml version="1.0" encoding="UTF-8" standalone="no"?>
<!DOCTYPE svg PUBLIC "-//W3C//DTD SVG 1.1//EN"
 "http://www.w3.org/Graphics/SVG/1.1/DTD/svg11.dtd">
<!-- Generated by graphviz version 2.40.1 (20161225.0304)
 -->
<!-- Title: osdk&#45;core/api/src/dji_hardware_sync.cpp Pages: 1 -->
<svg width="1918pt" height="431pt"
 viewBox="0.00 0.00 1918.00 431.00" xmlns="http://www.w3.org/2000/svg" xmlns:xlink="http://www.w3.org/1999/xlink">
<g id="graph0" class="graph" transform="scale(1 1) rotate(0) translate(4 427)">
<title>osdk&#45;core/api/src/dji_hardware_sync.cpp</title>
<polygon fill="#ffffff" stroke="transparent" points="-4,4 -4,-427 1914,-427 1914,4 -4,4"/>
<!-- Node0 -->
<g id="node1" class="node">
<title>Node0</title>
<g id="a_node1"><a xlink:title="Hardware Sync API for DJI OSDK.">
<polygon fill="#bfbfbf" stroke="#000000" points="680.5,-392.5 680.5,-422.5 787.5,-422.5 787.5,-392.5 680.5,-392.5"/>
<text text-anchor="start" x="688.5" y="-410.5" font-family="Helvetica,sans-Serif" font-size="10.00" fill="#000000">osdk&#45;core/api/src/dji</text>
<text text-anchor="middle" x="734" y="-399.5" font-family="Helvetica,sans-Serif" font-size="10.00" fill="#000000">_hardware_sync.cpp</text>
</a>
</g>
</g>
<!-- Node1 -->
<g id="node2" class="node">
<title>Node1</title>
<g id="a_node2"><a xlink:href="dji__hardware__sync_8hpp.html" target="_top" xlink:title="Hardware Sync API for DJI OSDK.">
<polygon fill="#ffffff" stroke="#000000" points="354,-280.5 354,-299.5 470,-299.5 470,-280.5 354,-280.5"/>
<text text-anchor="middle" x="412" y="-287.5" font-family="Helvetica,sans-Serif" font-size="10.00" fill="#000000">dji_hardware_sync.hpp</text>
</a>
</g>
</g>
<!-- Node0&#45;&gt;Node1 -->
<g id="edge1" class="edge">
<title>Node0&#45;&gt;Node1</title>
<path fill="none" stroke="#191970" d="M692.8914,-392.4992C629.2921,-369.2914 508.1088,-325.0708 447.8582,-303.0849"/>
<polygon fill="#191970" stroke="#191970" points="448.9766,-299.7673 438.3827,-299.6272 446.5769,-306.3432 448.9766,-299.7673"/>
</g>
<!-- Node8 -->
<g id="node9" class="node">
<title>Node8</title>
<g id="a_node9"><a xlink:href="dji__vehicle_8hpp.html" target="_top" xlink:title="Vehicle API for DJI onboardSDK library.">
<polygon fill="#ffffff" stroke="#000000" points="960.5,-336.5 960.5,-355.5 1041.5,-355.5 1041.5,-336.5 960.5,-336.5"/>
<text text-anchor="middle" x="1001" y="-343.5" font-family="Helvetica,sans-Serif" font-size="10.00" fill="#000000">dji_vehicle.hpp</text>
</a>
</g>
</g>
<!-- Node0&#45;&gt;Node8 -->
<g id="edge8" class="edge">
<title>Node0&#45;&gt;Node8</title>
<path fill="none" stroke="#191970" d="M787.7103,-395.1285C835.2374,-384.1813 904.0755,-368.3253 950.5836,-357.6128"/>
<polygon fill="#191970" stroke="#191970" points="951.4841,-360.9971 960.4433,-355.3417 949.9129,-354.1757 951.4841,-360.9971"/>
</g>
<!-- Node2 -->
<g id="node3" class="node">
<title>Node2</title>
<g id="a_node3"><a xlink:href="dji__type_8hpp.html" target="_top" xlink:title="Data type and Data Structure definitions for use throughout DJI OSDK.">
<polygon fill="#ffffff" stroke="#000000" points="442.5,-112.5 442.5,-131.5 511.5,-131.5 511.5,-112.5 442.5,-112.5"/>
<text text-anchor="middle" x="477" y="-119.5" font-family="Helvetica,sans-Serif" font-size="10.00" fill="#000000">dji_type.hpp</text>
</a>
</g>
</g>
<!-- Node1&#45;&gt;Node2 -->
<g id="edge2" class="edge">
<title>Node1&#45;&gt;Node2</title>
<path fill="none" stroke="#191970" d="M411.2721,-280.1843C410.1016,-258.5942 409.6296,-205.8926 429,-168 435.0138,-156.2358 445.2465,-145.795 454.7229,-137.8463"/>
<polygon fill="#191970" stroke="#191970" points="457.0454,-140.4721 462.7308,-131.5319 452.7111,-134.9754 457.0454,-140.4721"/>
</g>
<!-- Node5 -->
<g id="node6" class="node">
<title>Node5</title>
<g id="a_node6"><a xlink:href="dji__vehicle__callback_8hpp.html" target="_top" xlink:title="Type definition for new Vehicle&#45;style callbacks.">
<polygon fill="#ffffff" stroke="#000000" points="1187,-112.5 1187,-131.5 1309,-131.5 1309,-112.5 1187,-112.5"/>
<text text-anchor="middle" x="1248" y="-119.5" font-family="Helvetica,sans-Serif" font-size="10.00" fill="#000000">dji_vehicle_callback.hpp</text>
</a>
</g>
</g>
<!-- Node1&#45;&gt;Node5 -->
<g id="edge5" class="edge">
<title>Node1&#45;&gt;Node5</title>
<path fill="none" stroke="#191970" d="M434.214,-280.3972C468.3572,-266.0148 536.0764,-238.973 596,-224 703.202,-197.2136 732.9452,-205.7994 842,-188 891.4731,-179.9252 903.5653,-176.3066 953,-168 1029.3489,-155.1709 1117.0255,-141.6535 1176.8229,-132.6179"/>
<polygon fill="#191970" stroke="#191970" points="1177.5475,-136.0483 1186.9135,-131.0957 1176.5033,-129.1266 1177.5475,-136.0483"/>
</g>
<!-- Node7 -->
<g id="node8" class="node">
<title>Node7</title>
<g id="a_node8"><a xlink:title=" ">
<polygon fill="#ffffff" stroke="#bfbfbf" points="293.5,-224.5 293.5,-243.5 334.5,-243.5 334.5,-224.5 293.5,-224.5"/>
<text text-anchor="middle" x="314" y="-231.5" font-family="Helvetica,sans-Serif" font-size="10.00" fill="#000000">string</text>
</a>
</g>
</g>
<!-- Node1&#45;&gt;Node7 -->
<g id="edge7" class="edge">
<title>Node1&#45;&gt;Node7</title>
<path fill="none" stroke="#191970" d="M394.9297,-280.2455C379.753,-271.5731 357.3379,-258.7645 339.9437,-248.825"/>
<polygon fill="#191970" stroke="#191970" points="341.2936,-245.5653 330.8747,-243.6427 337.8206,-251.643 341.2936,-245.5653"/>
</g>
<!-- Node3 -->
<g id="node4" class="node">
<title>Node3</title>
<g id="a_node4"><a xlink:title=" ">
<polygon fill="#ffffff" stroke="#bfbfbf" points="455.5,-56.5 455.5,-75.5 498.5,-75.5 498.5,-56.5 455.5,-56.5"/>
<text text-anchor="middle" x="477" y="-63.5" font-family="Helvetica,sans-Serif" font-size="10.00" fill="#000000">cstdio</text>
</a>
</g>
</g>
<!-- Node2&#45;&gt;Node3 -->
<g id="edge3" class="edge">
<title>Node2&#45;&gt;Node3</title>
<path fill="none" stroke="#191970" d="M477,-112.2455C477,-104.9382 477,-94.6944 477,-85.7046"/>
<polygon fill="#191970" stroke="#191970" points="480.5001,-85.6426 477,-75.6427 473.5001,-85.6427 480.5001,-85.6426"/>
</g>
<!-- Node4 -->
<g id="node5" class="node">
<title>Node4</title>
<g id="a_node5"><a xlink:title=" ">
<polygon fill="#ffffff" stroke="#bfbfbf" points="331.5,-.5 331.5,-19.5 380.5,-19.5 380.5,-.5 331.5,-.5"/>
<text text-anchor="middle" x="356" y="-7.5" font-family="Helvetica,sans-Serif" font-size="10.00" fill="#000000">stdint.h</text>
</a>
</g>
</g>
<!-- Node2&#45;&gt;Node4 -->
<g id="edge4" class="edge">
<title>Node2&#45;&gt;Node4</title>
<path fill="none" stroke="#191970" d="M466.6836,-112.4509C446.0558,-93.3574 399.5057,-50.2697 373.8328,-26.5063"/>
<polygon fill="#191970" stroke="#191970" points="376.0065,-23.7492 366.2903,-19.5249 371.2515,-28.8864 376.0065,-23.7492"/>
</g>
<!-- Node6 -->
<g id="node7" class="node">
<title>Node6</title>
<g id="a_node7"><a xlink:title=" ">
<polygon fill="#ffffff" stroke="#bfbfbf" points="1367.5,-56.5 1367.5,-75.5 1478.5,-75.5 1478.5,-56.5 1367.5,-56.5"/>
<text text-anchor="middle" x="1423" y="-63.5" font-family="Helvetica,sans-Serif" font-size="10.00" fill="#000000">dji_open_protocol.hpp</text>
</a>
</g>
</g>
<!-- Node5&#45;&gt;Node6 -->
<g id="edge6" class="edge">
<title>Node5&#45;&gt;Node6</title>
<path fill="none" stroke="#191970" d="M1278.0836,-112.3733C1307.1834,-103.0613 1351.4523,-88.8953 1383.403,-78.671"/>
<polygon fill="#191970" stroke="#191970" points="1384.8515,-81.8824 1393.309,-75.5011 1382.718,-75.2155 1384.8515,-81.8824"/>
</g>
<!-- Node8&#45;&gt;Node1 -->
<g id="edge39" class="edge">
<title>Node8&#45;&gt;Node1</title>
<path fill="none" stroke="#191970" d="M960.3036,-343.2527C873.9077,-337.2395 665.5866,-321.7833 480.2799,-300.0905"/>
<polygon fill="#191970" stroke="#191970" points="480.4171,-296.5825 470.0759,-298.8868 479.597,-303.5343 480.4171,-296.5825"/>
</g>
<!-- Node8&#45;&gt;Node2 -->
<g id="edge65" class="edge">
<title>Node8&#45;&gt;Node2</title>
<path fill="none" stroke="#191970" d="M960.393,-338.0559C937.1155,-331.5253 909.0312,-319.9752 891,-300 849.0686,-253.5478 892.5375,-204.9054 842,-168 816.5462,-149.4121 613.338,-132.1403 521.6291,-125.2062"/>
<polygon fill="#191970" stroke="#191970" points="521.7726,-121.7073 511.5392,-124.4511 521.2501,-128.6877 521.7726,-121.7073"/>
</g>
<!-- Node8&#45;&gt;Node5 -->
<g id="edge66" class="edge">
<title>Node8&#45;&gt;Node5</title>
<path fill="none" stroke="#191970" d="M1041.753,-340.8708C1067.3094,-335.336 1098.4488,-323.8438 1115,-300 1134.2679,-272.2425 1104.3882,-255.3476 1117,-224 1134.3807,-180.799 1181.9946,-151.5025 1214.7617,-135.7657"/>
<polygon fill="#191970" stroke="#191970" points="1216.3789,-138.874 1223.9879,-131.5015 1213.4421,-132.5199 1216.3789,-138.874"/>
</g>
<!-- Node8&#45;&gt;Node6 -->
<g id="edge57" class="edge">
<title>Node8&#45;&gt;Node6</title>
<path fill="none" stroke="#191970" d="M1041.5832,-345.541C1200.2391,-343.51 1773.4308,-333.8727 1847,-300 1883.835,-283.0404 1910,-274.5518 1910,-234 1910,-234 1910,-234 1910,-178 1910,-92.6015 1621.9864,-72.3134 1488.9401,-67.4973"/>
<polygon fill="#191970" stroke="#191970" points="1488.9793,-63.9967 1478.8651,-67.1515 1488.7391,-70.9926 1488.9793,-63.9967"/>
</g>
<!-- Node9 -->
<g id="node10" class="node">
<title>Node9</title>
<g id="a_node10"><a xlink:title=" ">
<polygon fill="#ffffff" stroke="#bfbfbf" points="0,-112.5 0,-131.5 46,-131.5 46,-112.5 0,-112.5"/>
<text text-anchor="middle" x="23" y="-119.5" font-family="Helvetica,sans-Serif" font-size="10.00" fill="#000000">cstdint</text>
</a>
</g>
</g>
<!-- Node8&#45;&gt;Node9 -->
<g id="edge9" class="edge">
<title>Node8&#45;&gt;Node9</title>
<path fill="none" stroke="#191970" d="M960.4714,-344.933C788.5801,-340.2834 126.8116,-321.0771 88,-300 34.0153,-270.683 25.9196,-246.4455 7,-188 1.9073,-172.268 7.197,-153.9642 13.0215,-140.6285"/>
<polygon fill="#191970" stroke="#191970" points="16.2213,-142.051 17.4168,-131.5238 9.9174,-139.0078 16.2213,-142.051"/>
</g>
<!-- Node10 -->
<g id="node11" class="node">
<title>Node10</title>
<g id="a_node11"><a xlink:href="dji__broadcast_8hpp.html" target="_top" xlink:title="Broadcast Telemetry API for DJI onboardSDK library.">
<polygon fill="#ffffff" stroke="#000000" points="1125.5,-224.5 1125.5,-243.5 1218.5,-243.5 1218.5,-224.5 1125.5,-224.5"/>
<text text-anchor="middle" x="1172" y="-231.5" font-family="Helvetica,sans-Serif" font-size="10.00" fill="#000000">dji_broadcast.hpp</text>
</a>
</g>
</g>
<!-- Node8&#45;&gt;Node10 -->
<g id="edge10" class="edge">
<title>Node8&#45;&gt;Node10</title>
<path fill="none" stroke="#191970" d="M1041.7006,-337.5178C1079.6456,-328.8746 1132.6294,-314.6867 1148,-300 1160.7848,-287.784 1166.7866,-268.2265 1169.5876,-253.5665"/>
<polygon fill="#191970" stroke="#191970" points="1173.0725,-253.935 1171.1649,-243.5133 1166.1571,-252.8499 1173.0725,-253.935"/>
</g>
<!-- Node12 -->
<g id="node13" class="node">
<title>Node12</title>
<g id="a_node13"><a xlink:href="dji__camera_8hpp.html" target="_top" xlink:title="Camera/Gimbal API for DJI onboardSDK library.">
<polygon fill="#ffffff" stroke="#000000" points="251.5,-168.5 251.5,-187.5 334.5,-187.5 334.5,-168.5 251.5,-168.5"/>
<text text-anchor="middle" x="293" y="-175.5" font-family="Helvetica,sans-Serif" font-size="10.00" fill="#000000">dji_camera.hpp</text>
</a>
</g>
</g>
<!-- Node8&#45;&gt;Node12 -->
<g id="edge14" class="edge">
<title>Node8&#45;&gt;Node12</title>
<path fill="none" stroke="#191970" d="M960.248,-344.7047C825.757,-340.2148 401.3686,-324.2552 345,-300 311.1938,-285.4533 298.8068,-277.6932 284,-244 277.5387,-229.2971 280.7362,-211.1234 285.0146,-197.5715"/>
<polygon fill="#191970" stroke="#191970" points="288.4206,-198.443 288.5136,-187.8486 281.8341,-196.0727 288.4206,-198.443"/>
</g>
<!-- Node13 -->
<g id="node14" class="node">
<title>Node13</title>
<g id="a_node14"><a xlink:href="dji__command_8hpp.html" target="_top" xlink:title="All DJI OSDK OpenProtocol Command IDs.">
<polygon fill="#ffffff" stroke="#000000" points="246.5,-112.5 246.5,-131.5 339.5,-131.5 339.5,-112.5 246.5,-112.5"/>
<text text-anchor="middle" x="293" y="-119.5" font-family="Helvetica,sans-Serif" font-size="10.00" fill="#000000">dji_command.hpp</text>
</a>
</g>
</g>
<!-- Node8&#45;&gt;Node13 -->
<g id="edge21" class="edge">
<title>Node8&#45;&gt;Node13</title>
<path fill="none" stroke="#191970" d="M960.2622,-344.9805C816.0032,-341.1587 334.6648,-326.5267 271,-300 196.1351,-268.8067 96.9091,-233.3073 145,-168 156.1564,-152.8496 199.2923,-140.5242 236.1377,-132.4587"/>
<polygon fill="#191970" stroke="#191970" points="237.2746,-135.7956 246.3314,-130.298 235.823,-128.9478 237.2746,-135.7956"/>
</g>
<!-- Node15 -->
<g id="node16" class="node">
<title>Node15</title>
<g id="a_node16"><a xlink:title=" ">
<polygon fill="#ffffff" stroke="#bfbfbf" points="732,-280.5 732,-299.5 844,-299.5 844,-280.5 732,-280.5"/>
<text text-anchor="middle" x="788" y="-287.5" font-family="Helvetica,sans-Serif" font-size="10.00" fill="#000000">dji_circular_buffer.hpp</text>
</a>
</g>
</g>
<!-- Node8&#45;&gt;Node15 -->
<g id="edge20" class="edge">
<title>Node8&#45;&gt;Node15</title>
<path fill="none" stroke="#191970" d="M964.384,-336.3733C928.352,-326.9001 873.2122,-312.4032 834.1886,-302.1435"/>
<polygon fill="#191970" stroke="#191970" points="834.6995,-298.6589 824.1382,-299.5011 832.9196,-305.4289 834.6995,-298.6589"/>
</g>
<!-- Node16 -->
<g id="node17" class="node">
<title>Node16</title>
<g id="a_node17"><a xlink:href="dji__control_8hpp.html" target="_top" xlink:title="Control API for DJI OSDK library.">
<polygon fill="#ffffff" stroke="#000000" points="488,-280.5 488,-299.5 568,-299.5 568,-280.5 488,-280.5"/>
<text text-anchor="middle" x="528" y="-287.5" font-family="Helvetica,sans-Serif" font-size="10.00" fill="#000000">dji_control.hpp</text>
</a>
</g>
</g>
<!-- Node8&#45;&gt;Node16 -->
<g id="edge22" class="edge">
<title>Node8&#45;&gt;Node16</title>
<path fill="none" stroke="#191970" d="M960.3045,-342.7888C884.7154,-336.555 717.6299,-321.5114 578,-300 577.8988,-299.9844 577.7976,-299.9688 577.6962,-299.9531"/>
<polygon fill="#191970" stroke="#191970" points="578.5022,-296.5394 568.0613,-298.3388 577.3454,-303.4432 578.5022,-296.5394"/>
</g>
<!-- Node19 -->
<g id="node20" class="node">
<title>Node19</title>
<g id="a_node20"><a xlink:href="dji__version_8hpp.html" target="_top" xlink:title="Drone/SDK Version definition for DJI onboardSDK library.">
<polygon fill="#ffffff" stroke="#000000" points="16,-168.5 16,-187.5 98,-187.5 98,-168.5 16,-168.5"/>
<text text-anchor="middle" x="57" y="-175.5" font-family="Helvetica,sans-Serif" font-size="10.00" fill="#000000">dji_version.hpp</text>
</a>
</g>
</g>
<!-- Node8&#45;&gt;Node19 -->
<g id="edge67" class="edge">
<title>Node8&#45;&gt;Node19</title>
<path fill="none" stroke="#191970" d="M960.2822,-345.0686C790.6698,-341.039 147.4285,-324.2109 112,-300 77.6069,-276.4967 64.411,-226.0712 59.5911,-197.964"/>
<polygon fill="#191970" stroke="#191970" points="63.0015,-197.1086 58.0423,-187.7461 56.0805,-198.1577 63.0015,-197.1086"/>
</g>
<!-- Node21 -->
<g id="node22" class="node">
<title>Node21</title>
<g id="a_node22"><a xlink:href="dji__gimbal_8hpp.html" target="_top" xlink:title="Gimbal API for OSDK library.">
<polygon fill="#ffffff" stroke="#000000" points="154.5,-168.5 154.5,-187.5 233.5,-187.5 233.5,-168.5 154.5,-168.5"/>
<text text-anchor="middle" x="194" y="-175.5" font-family="Helvetica,sans-Serif" font-size="10.00" fill="#000000">dji_gimbal.hpp</text>
</a>
</g>
</g>
<!-- Node8&#45;&gt;Node21 -->
<g id="edge35" class="edge">
<title>Node8&#45;&gt;Node21</title>
<path fill="none" stroke="#191970" d="M960.0718,-345.0862C819.6733,-341.7071 362.9923,-328.6049 304,-300 256.9429,-277.1823 220.8589,-224.4537 204.1733,-196.3742"/>
<polygon fill="#191970" stroke="#191970" points="207.1194,-194.4767 199.0942,-187.5595 201.0542,-197.9715 207.1194,-194.4767"/>
</g>
<!-- Node22 -->
<g id="node23" class="node">
<title>Node22</title>
<g id="a_node23"><a xlink:title=" ">
<polygon fill="#ffffff" stroke="#bfbfbf" points="1008,-280.5 1008,-299.5 1106,-299.5 1106,-280.5 1008,-280.5"/>
<text text-anchor="middle" x="1057" y="-287.5" font-family="Helvetica,sans-Serif" font-size="10.00" fill="#000000">dji_hard_driver.hpp</text>
</a>
</g>
</g>
<!-- Node8&#45;&gt;Node22 -->
<g id="edge38" class="edge">
<title>Node8&#45;&gt;Node22</title>
<path fill="none" stroke="#191970" d="M1010.7545,-336.2455C1018.8648,-328.1352 1030.5925,-316.4075 1040.2081,-306.7919"/>
<polygon fill="#191970" stroke="#191970" points="1042.7611,-309.1887 1047.3573,-299.6427 1037.8113,-304.2389 1042.7611,-309.1887"/>
</g>
<!-- Node23 -->
<g id="node24" class="node">
<title>Node23</title>
<g id="a_node24"><a xlink:href="dji__mfio_8hpp.html" target="_top" xlink:title="MFIO API for DJI OSDK library.">
<polygon fill="#ffffff" stroke="#000000" points="1325.5,-168.5 1325.5,-187.5 1394.5,-187.5 1394.5,-168.5 1325.5,-168.5"/>
<text text-anchor="middle" x="1360" y="-175.5" font-family="Helvetica,sans-Serif" font-size="10.00" fill="#000000">dji_mfio.hpp</text>
</a>
</g>
</g>
<!-- Node8&#45;&gt;Node23 -->
<g id="edge40" class="edge">
<title>Node8&#45;&gt;Node23</title>
<path fill="none" stroke="#191970" d="M1041.6351,-341.4201C1082.4277,-335.7017 1146.3203,-323.6439 1197,-300 1256.1841,-272.3884 1314.8435,-221.0845 1342.9074,-194.6695"/>
<polygon fill="#191970" stroke="#191970" points="1345.4756,-197.0567 1350.2948,-187.6213 1340.6435,-191.992 1345.4756,-197.0567"/>
</g>
<!-- Node24 -->
<g id="node25" class="node">
<title>Node24</title>
<g id="a_node25"><a xlink:href="dji__mission__manager_8hpp.html" target="_top" xlink:title="Mission&#45;Manager API for DJI OSDK library.">
<polygon fill="#ffffff" stroke="#000000" points="586.5,-280.5 586.5,-299.5 713.5,-299.5 713.5,-280.5 586.5,-280.5"/>
<text text-anchor="middle" x="650" y="-287.5" font-family="Helvetica,sans-Serif" font-size="10.00" fill="#000000">dji_mission_manager.hpp</text>
</a>
</g>
</g>
<!-- Node8&#45;&gt;Node24 -->
<g id="edge42" class="edge">
<title>Node8&#45;&gt;Node24</title>
<path fill="none" stroke="#191970" d="M960.3929,-339.5214C901.5352,-330.131 791.7061,-312.6084 719.7311,-301.1252"/>
<polygon fill="#191970" stroke="#191970" points="720.2622,-297.6657 709.8356,-299.5464 719.1593,-304.5783 720.2622,-297.6657"/>
</g>
<!-- Node29 -->
<g id="node30" class="node">
<title>Node29</title>
<g id="a_node30"><a xlink:href="dji__mobile__communication_8hpp.html" target="_top" xlink:title="Implementation of DJI Mobile&#45;Onboard SDK Communication (MOC)">
<polygon fill="#ffffff" stroke="#000000" points="1518,-280.5 1518,-299.5 1668,-299.5 1668,-280.5 1518,-280.5"/>
<text text-anchor="middle" x="1593" y="-287.5" font-family="Helvetica,sans-Serif" font-size="10.00" fill="#000000">dji_mobile_communication.hpp</text>
</a>
</g>
</g>
<!-- Node8&#45;&gt;Node29 -->
<g id="edge52" class="edge">
<title>Node8&#45;&gt;Node29</title>
<path fill="none" stroke="#191970" d="M1041.5356,-342.72C1126.0744,-335.795 1327.6135,-318.8469 1507.7151,-300.1106"/>
<polygon fill="#191970" stroke="#191970" points="1508.3237,-303.5661 1517.9059,-299.046 1507.5964,-296.604 1508.3237,-303.5661"/>
</g>
<!-- Node31 -->
<g id="node32" class="node">
<title>Node31</title>
<g id="a_node32"><a xlink:href="dji__mobile__device_8hpp.html" target="_top" xlink:title="Implementation of DJI Mobile Device Abstraction.">
<polygon fill="#ffffff" stroke="#000000" points="1591.5,-224.5 1591.5,-243.5 1704.5,-243.5 1704.5,-224.5 1591.5,-224.5"/>
<text text-anchor="middle" x="1648" y="-231.5" font-family="Helvetica,sans-Serif" font-size="10.00" fill="#000000">dji_mobile_device.hpp</text>
</a>
</g>
</g>
<!-- Node8&#45;&gt;Node31 -->
<g id="edge55" class="edge">
<title>Node8&#45;&gt;Node31</title>
<path fill="none" stroke="#191970" d="M1041.5241,-345.2383C1202.3465,-342.0215 1788.1726,-328.3863 1815,-300 1821.1055,-293.5397 1820.3866,-287.0709 1815,-280 1807.9966,-270.8067 1749.1893,-256.068 1703.3169,-245.7584"/>
<polygon fill="#191970" stroke="#191970" points="1703.9751,-242.3193 1693.4537,-243.5644 1702.4552,-249.1523 1703.9751,-242.3193"/>
</g>
<!-- Node32 -->
<g id="node33" class="node">
<title>Node32</title>
<g id="a_node33"><a xlink:title=" ">
<polygon fill="#ffffff" stroke="#bfbfbf" points="1276,-280.5 1276,-299.5 1404,-299.5 1404,-280.5 1276,-280.5"/>
<text text-anchor="middle" x="1340" y="-287.5" font-family="Helvetica,sans-Serif" font-size="10.00" fill="#000000">dji_platform_manager.hpp</text>
</a>
</g>
</g>
<!-- Node8&#45;&gt;Node32 -->
<g id="edge58" class="edge">
<title>Node8&#45;&gt;Node32</title>
<path fill="none" stroke="#191970" d="M1041.5546,-339.3007C1098.6745,-329.865 1203.5388,-312.5423 1272.5142,-301.1481"/>
<polygon fill="#191970" stroke="#191970" points="1273.1247,-304.5948 1282.4205,-299.5117 1271.9838,-297.6884 1273.1247,-304.5948"/>
</g>
<!-- Node33 -->
<g id="node34" class="node">
<title>Node33</title>
<g id="a_node34"><a xlink:href="dji__status_8hpp.html" target="_top" xlink:title="Status information for DJI Vehicle.">
<polygon fill="#ffffff" stroke="#000000" points="1422.5,-280.5 1422.5,-299.5 1499.5,-299.5 1499.5,-280.5 1422.5,-280.5"/>
<text text-anchor="middle" x="1461" y="-287.5" font-family="Helvetica,sans-Serif" font-size="10.00" fill="#000000">dji_status.hpp</text>
</a>
</g>
</g>
<!-- Node8&#45;&gt;Node33 -->
<g id="edge59" class="edge">
<title>Node8&#45;&gt;Node33</title>
<path fill="none" stroke="#191970" d="M1041.5218,-342.7515C1113.8382,-336.6776 1270.0601,-322.3071 1412.0853,-300.0111"/>
<polygon fill="#191970" stroke="#191970" points="1412.9576,-303.4166 1422.2852,-298.3921 1411.8602,-296.5031 1412.9576,-303.4166"/>
</g>
<!-- Node34 -->
<g id="node35" class="node">
<title>Node34</title>
<g id="a_node35"><a xlink:href="dji__subscription_8hpp.html" target="_top" xlink:title="Telemetry Subscription API for DJI OSDK library.">
<polygon fill="#ffffff" stroke="#000000" points="1722.5,-224.5 1722.5,-243.5 1825.5,-243.5 1825.5,-224.5 1722.5,-224.5"/>
<text text-anchor="middle" x="1774" y="-231.5" font-family="Helvetica,sans-Serif" font-size="10.00" fill="#000000">dji_subscription.hpp</text>
</a>
</g>
</g>
<!-- Node8&#45;&gt;Node34 -->
<g id="edge60" class="edge">
<title>Node8&#45;&gt;Node34</title>
<path fill="none" stroke="#191970" d="M1041.7644,-345.2796C1204.9466,-342.2006 1803.6002,-328.9604 1831,-300 1847.0956,-282.9877 1822.9281,-262.4371 1801.2786,-248.8356"/>
<polygon fill="#191970" stroke="#191970" points="1802.9642,-245.7656 1792.5854,-243.6369 1799.3714,-251.7732 1802.9642,-245.7656"/>
</g>
<!-- Node35 -->
<g id="node36" class="node">
<title>Node35</title>
<g id="a_node36"><a xlink:title=" ">
<polygon fill="#ffffff" stroke="#bfbfbf" points="1686,-280.5 1686,-299.5 1806,-299.5 1806,-280.5 1686,-280.5"/>
<text text-anchor="middle" x="1746" y="-287.5" font-family="Helvetica,sans-Serif" font-size="10.00" fill="#000000">dji_thread_manager.hpp</text>
</a>
</g>
</g>
<!-- Node8&#45;&gt;Node35 -->
<g id="edge64" class="edge">
<title>Node8&#45;&gt;Node35</title>
<path fill="none" stroke="#191970" d="M1041.8608,-344.3032C1145.8247,-339.7544 1429.0271,-325.9144 1675.5916,-300.0773"/>
<polygon fill="#191970" stroke="#191970" points="1676.2464,-303.5277 1685.8231,-298.996 1675.5106,-296.5665 1676.2464,-303.5277"/>
</g>
<!-- Node36 -->
<g id="node37" class="node">
<title>Node36</title>
<g id="a_node37"><a xlink:href="dji__virtual__rc_8hpp.html" target="_top" xlink:title="Virtual Radio Control API for DJI onboardSDK library.">
<polygon fill="#ffffff" stroke="#000000" points="900,-280.5 900,-299.5 990,-299.5 990,-280.5 900,-280.5"/>
<text text-anchor="middle" x="945" y="-287.5" font-family="Helvetica,sans-Serif" font-size="10.00" fill="#000000">dji_virtual_rc.hpp</text>
</a>
</g>
</g>
<!-- Node8&#45;&gt;Node36 -->
<g id="edge68" class="edge">
<title>Node8&#45;&gt;Node36</title>
<path fill="none" stroke="#191970" d="M991.2455,-336.2455C983.1352,-328.1352 971.4075,-316.4075 961.7919,-306.7919"/>
<polygon fill="#191970" stroke="#191970" points="964.1887,-304.2389 954.6427,-299.6427 959.2389,-309.1887 964.1887,-304.2389"/>
</g>
<!-- Node37 -->
<g id="node38" class="node">
<title>Node37</title>
<g id="a_node38"><a xlink:href="dji__payload__device_8hpp.html" target="_top" xlink:title="Implementation of DJI Payload Device Abstraction.">
<polygon fill="#ffffff" stroke="#000000" points="1189,-168.5 1189,-187.5 1307,-187.5 1307,-168.5 1189,-168.5"/>
<text text-anchor="middle" x="1248" y="-175.5" font-family="Helvetica,sans-Serif" font-size="10.00" fill="#000000">dji_payload_device.hpp</text>
</a>
</g>
</g>
<!-- Node8&#45;&gt;Node37 -->
<g id="edge73" class="edge">
<title>Node8&#45;&gt;Node37</title>
<path fill="none" stroke="#191970" d="M1041.5372,-340.4386C1076.7097,-334.343 1128.103,-322.3092 1168,-300 1199.8376,-282.1974 1208.7152,-274.9623 1228,-244 1236.8905,-229.726 1242.0458,-211.248 1244.8883,-197.4756"/>
<polygon fill="#191970" stroke="#191970" points="1248.3363,-198.0771 1246.6993,-187.6095 1241.4513,-196.8132 1248.3363,-198.0771"/>
</g>
<!-- Node10&#45;&gt;Node5 -->
<g id="edge13" class="edge">
<title>Node10&#45;&gt;Node5</title>
<path fill="none" stroke="#191970" d="M1170.7929,-224.2355C1169.6063,-210.5926 1169.2906,-185.5331 1180,-168 1188.3304,-154.3617 1202.4083,-143.8459 1215.6009,-136.3336"/>
<polygon fill="#191970" stroke="#191970" points="1217.3145,-139.3866 1224.5113,-131.6112 1214.0365,-133.2016 1217.3145,-139.3866"/>
</g>
<!-- Node11 -->
<g id="node12" class="node">
<title>Node11</title>
<g id="a_node12"><a xlink:href="dji__telemetry_8hpp.html" target="_top" xlink:title="Enumeration of all telemetry data types, structures and maps.">
<polygon fill="#ffffff" stroke="#000000" points="1003.5,-168.5 1003.5,-187.5 1094.5,-187.5 1094.5,-168.5 1003.5,-168.5"/>
<text text-anchor="middle" x="1049" y="-175.5" font-family="Helvetica,sans-Serif" font-size="10.00" fill="#000000">dji_telemetry.hpp</text>
</a>
</g>
</g>
<!-- Node10&#45;&gt;Node11 -->
<g id="edge11" class="edge">
<title>Node10&#45;&gt;Node11</title>
<path fill="none" stroke="#191970" d="M1150.8555,-224.3733C1131.1108,-215.3838 1101.4302,-201.8706 1079.1945,-191.7471"/>
<polygon fill="#191970" stroke="#191970" points="1080.42,-188.4594 1069.8685,-187.5011 1077.5194,-194.8302 1080.42,-188.4594"/>
</g>
<!-- Node11&#45;&gt;Node2 -->
<g id="edge12" class="edge">
<title>Node11&#45;&gt;Node2</title>
<path fill="none" stroke="#191970" d="M1003.1577,-173.5119C895.6587,-162.9876 628.4067,-136.823 521.8741,-126.3933"/>
<polygon fill="#191970" stroke="#191970" points="522.0715,-122.8959 511.778,-125.4048 521.3894,-129.8626 522.0715,-122.8959"/>
</g>
<!-- Node12&#45;&gt;Node2 -->
<g id="edge19" class="edge">
<title>Node12&#45;&gt;Node2</title>
<path fill="none" stroke="#191970" d="M324.6307,-168.3733C355.3596,-159.021 402.176,-144.7725 435.8022,-134.5385"/>
<polygon fill="#191970" stroke="#191970" points="437.2344,-137.7612 445.782,-131.5011 435.1962,-131.0644 437.2344,-137.7612"/>
</g>
<!-- Node12&#45;&gt;Node13 -->
<g id="edge15" class="edge">
<title>Node12&#45;&gt;Node13</title>
<path fill="none" stroke="#191970" d="M293,-168.2455C293,-160.9382 293,-150.6944 293,-141.7046"/>
<polygon fill="#191970" stroke="#191970" points="296.5001,-141.6426 293,-131.6427 289.5001,-141.6427 296.5001,-141.6426"/>
</g>
<!-- Node13&#45;&gt;Node4 -->
<g id="edge18" class="edge">
<title>Node13&#45;&gt;Node4</title>
<path fill="none" stroke="#191970" d="M305.1346,-112.2631C315.052,-103.6942 328.7383,-90.3714 337,-76 345.264,-61.6247 350.1563,-43.3918 352.9014,-29.7342"/>
<polygon fill="#191970" stroke="#191970" points="356.4124,-29.9833 354.7293,-19.523 349.5219,-28.7498 356.4124,-29.9833"/>
</g>
<!-- Node14 -->
<g id="node15" class="node">
<title>Node14</title>
<g id="a_node15"><a xlink:href="dji__error_8hpp.html" target="_top" xlink:title="All DJI OSDK OpenProtocol ACK Error Codes.">
<polygon fill="#ffffff" stroke="#000000" points="258,-56.5 258,-75.5 328,-75.5 328,-56.5 258,-56.5"/>
<text text-anchor="middle" x="293" y="-63.5" font-family="Helvetica,sans-Serif" font-size="10.00" fill="#000000">dji_error.hpp</text>
</a>
</g>
</g>
<!-- Node13&#45;&gt;Node14 -->
<g id="edge16" class="edge">
<title>Node13&#45;&gt;Node14</title>
<path fill="none" stroke="#191970" d="M293,-112.2455C293,-104.9382 293,-94.6944 293,-85.7046"/>
<polygon fill="#191970" stroke="#191970" points="296.5001,-85.6426 293,-75.6427 289.5001,-85.6427 296.5001,-85.6426"/>
</g>
<!-- Node14&#45;&gt;Node4 -->
<g id="edge17" class="edge">
<title>Node14&#45;&gt;Node4</title>
<path fill="none" stroke="#191970" d="M303.9738,-56.2455C313.1882,-48.0549 326.5532,-36.1749 337.4297,-26.5069"/>
<polygon fill="#191970" stroke="#191970" points="340.0032,-28.9023 345.152,-19.6427 335.3526,-23.6704 340.0032,-28.9023"/>
</g>
<!-- Node16&#45;&gt;Node2 -->
<g id="edge33" class="edge">
<title>Node16&#45;&gt;Node2</title>
<path fill="none" stroke="#191970" d="M487.7624,-280.729C468.2585,-273.991 446.5936,-262.6688 435,-244 413.9631,-210.1251 442.4905,-164.3707 461.8242,-139.6372"/>
<polygon fill="#191970" stroke="#191970" points="464.5883,-141.7856 468.183,-131.8192 459.1578,-137.3686 464.5883,-141.7856"/>
</g>
<!-- Node16&#45;&gt;Node5 -->
<g id="edge34" class="edge">
<title>Node16&#45;&gt;Node5</title>
<path fill="none" stroke="#191970" d="M568.0698,-281.7152C571.4235,-281.1042 574.7667,-280.5233 578,-280 706.21,-259.2502 745.1881,-286.2561 868,-244 930.2004,-222.5986 933.4271,-191.1451 995,-168 1054.0594,-145.7997 1125.0175,-134.0918 1176.7369,-128.0573"/>
<polygon fill="#191970" stroke="#191970" points="1177.2685,-131.5197 1186.815,-126.9247 1176.4867,-124.5635 1177.2685,-131.5197"/>
</g>
<!-- Node16&#45;&gt;Node6 -->
<g id="edge32" class="edge">
<title>Node16&#45;&gt;Node6</title>
<path fill="none" stroke="#191970" d="M535.944,-280.4026C547.837,-266.509 571.5034,-240.6394 596,-224 628.2529,-202.0922 640.9542,-205.0878 676,-188 693.1547,-179.6356 695.846,-173.889 714,-168 942.3841,-93.9142 1229.5583,-73.5601 1356.94,-68.0301"/>
<polygon fill="#191970" stroke="#191970" points="1357.4539,-71.5118 1367.2993,-67.5979 1357.1621,-64.5178 1357.4539,-71.5118"/>
</g>
<!-- Node17 -->
<g id="node18" class="node">
<title>Node17</title>
<g id="a_node18"><a xlink:href="dji__ack_8hpp.html" target="_top" xlink:title="All DJI OSDK ACK parsing.">
<polygon fill="#ffffff" stroke="#000000" points="444,-224.5 444,-243.5 510,-243.5 510,-224.5 444,-224.5"/>
<text text-anchor="middle" x="477" y="-231.5" font-family="Helvetica,sans-Serif" font-size="10.00" fill="#000000">dji_ack.hpp</text>
</a>
</g>
</g>
<!-- Node16&#45;&gt;Node17 -->
<g id="edge23" class="edge">
<title>Node16&#45;&gt;Node17</title>
<path fill="none" stroke="#191970" d="M519.1165,-280.2455C511.8034,-272.2155 501.2609,-260.6394 492.5533,-251.0781"/>
<polygon fill="#191970" stroke="#191970" points="495.1028,-248.6795 485.7817,-243.6427 489.9273,-253.3928 495.1028,-248.6795"/>
</g>
<!-- Node17&#45;&gt;Node2 -->
<g id="edge27" class="edge">
<title>Node17&#45;&gt;Node2</title>
<path fill="none" stroke="#191970" d="M477,-224.4509C477,-206.184 477,-165.9553 477,-141.6976"/>
<polygon fill="#191970" stroke="#191970" points="480.5001,-141.5249 477,-131.5249 473.5001,-141.5249 480.5001,-141.5249"/>
</g>
<!-- Node17&#45;&gt;Node13 -->
<g id="edge24" class="edge">
<title>Node17&#45;&gt;Node13</title>
<path fill="none" stroke="#191970" d="M461.3123,-224.4509C429.2653,-204.9441 356.0746,-160.3932 317.6279,-136.9909"/>
<polygon fill="#191970" stroke="#191970" points="319.0099,-133.7347 308.648,-131.5249 315.3702,-139.7141 319.0099,-133.7347"/>
</g>
<!-- Node18 -->
<g id="node19" class="node">
<title>Node18</title>
<g id="a_node19"><a xlink:href="dji__mission__type_8hpp.html" target="_top" xlink:title="Mission related data struct for DJI OSDK library.">
<polygon fill="#ffffff" stroke="#000000" points="505,-168.5 505,-187.5 613,-187.5 613,-168.5 505,-168.5"/>
<text text-anchor="middle" x="559" y="-175.5" font-family="Helvetica,sans-Serif" font-size="10.00" fill="#000000">dji_mission_type.hpp</text>
</a>
</g>
</g>
<!-- Node17&#45;&gt;Node18 -->
<g id="edge25" class="edge">
<title>Node17&#45;&gt;Node18</title>
<path fill="none" stroke="#191970" d="M491.2833,-224.2455C503.747,-215.7337 522.0451,-203.2375 536.4792,-193.3801"/>
<polygon fill="#191970" stroke="#191970" points="538.5962,-196.1726 544.8804,-187.6427 534.6485,-190.392 538.5962,-196.1726"/>
</g>
<!-- Node17&#45;&gt;Node19 -->
<g id="edge28" class="edge">
<title>Node17&#45;&gt;Node19</title>
<path fill="none" stroke="#191970" d="M443.6922,-229.559C370.5325,-219.8043 195.3974,-196.453 108.17,-184.8227"/>
<polygon fill="#191970" stroke="#191970" points="108.6091,-181.3503 98.2342,-183.4979 107.6839,-188.2889 108.6091,-181.3503"/>
</g>
<!-- Node20 -->
<g id="node21" class="node">
<title>Node20</title>
<g id="a_node21"><a xlink:title=" ">
<polygon fill="#ffffff" stroke="#bfbfbf" points="631.5,-168.5 631.5,-187.5 666.5,-187.5 666.5,-168.5 631.5,-168.5"/>
<text text-anchor="middle" x="649" y="-175.5" font-family="Helvetica,sans-Serif" font-size="10.00" fill="#000000">map</text>
</a>
</g>
</g>
<!-- Node17&#45;&gt;Node20 -->
<g id="edge31" class="edge">
<title>Node17&#45;&gt;Node20</title>
<path fill="none" stroke="#191970" d="M508.5379,-224.468C536.0491,-216.0487 577.233,-203.1956 621.7728,-187.968"/>
<polygon fill="#191970" stroke="#191970" points="623.0061,-191.2451 631.3244,-184.6833 620.7297,-184.6256 623.0061,-191.2451"/>
</g>
<!-- Node18&#45;&gt;Node2 -->
<g id="edge26" class="edge">
<title>Node18&#45;&gt;Node2</title>
<path fill="none" stroke="#191970" d="M544.7167,-168.2455C532.253,-159.7337 513.9549,-147.2375 499.5208,-137.3801"/>
<polygon fill="#191970" stroke="#191970" points="501.3515,-134.392 491.1196,-131.6427 497.4038,-140.1726 501.3515,-134.392"/>
</g>
<!-- Node19&#45;&gt;Node9 -->
<g id="edge30" class="edge">
<title>Node19&#45;&gt;Node9</title>
<path fill="none" stroke="#191970" d="M51.0777,-168.2455C46.3973,-160.5367 39.7327,-149.5598 34.0711,-140.2348"/>
<polygon fill="#191970" stroke="#191970" points="37.0361,-138.3741 28.8545,-131.6427 31.0525,-142.007 37.0361,-138.3741"/>
</g>
<!-- Node19&#45;&gt;Node13 -->
<g id="edge29" class="edge">
<title>Node19&#45;&gt;Node13</title>
<path fill="none" stroke="#191970" d="M97.3017,-168.4369C137.6064,-158.8731 199.6821,-144.1432 243.0818,-133.845"/>
<polygon fill="#191970" stroke="#191970" points="243.9428,-137.238 252.8645,-131.5237 242.3266,-130.4271 243.9428,-137.238"/>
</g>
<!-- Node21&#45;&gt;Node2 -->
<g id="edge37" class="edge">
<title>Node21&#45;&gt;Node2</title>
<path fill="none" stroke="#191970" d="M233.5449,-169.722C236.4054,-169.1353 239.2466,-168.5563 242,-168 308.2471,-154.616 385.1256,-139.6799 432.4164,-130.5606"/>
<polygon fill="#191970" stroke="#191970" points="433.1754,-133.9788 442.3326,-128.65 431.851,-127.1052 433.1754,-133.9788"/>
</g>
<!-- Node21&#45;&gt;Node13 -->
<g id="edge36" class="edge">
<title>Node21&#45;&gt;Node13</title>
<path fill="none" stroke="#191970" d="M211.2445,-168.2455C226.5761,-159.5731 249.2199,-146.7645 266.7916,-136.825"/>
<polygon fill="#191970" stroke="#191970" points="268.9724,-139.6126 275.9531,-131.6427 265.5259,-133.5198 268.9724,-139.6126"/>
</g>
<!-- Node23&#45;&gt;Node5 -->
<g id="edge41" class="edge">
<title>Node23&#45;&gt;Node5</title>
<path fill="none" stroke="#191970" d="M1340.7465,-168.3733C1322.9288,-159.4644 1296.2253,-146.1127 1276.0406,-136.0203"/>
<polygon fill="#191970" stroke="#191970" points="1277.5118,-132.8428 1267.0022,-131.5011 1274.3813,-139.1038 1277.5118,-132.8428"/>
</g>
<!-- Node25 -->
<g id="node26" class="node">
<title>Node25</title>
<g id="a_node26"><a xlink:href="dji__hotpoint_8hpp.html" target="_top" xlink:title="Implementation of HotPoint (Point of Interest) Missions for DJI OSDK.">
<polygon fill="#ffffff" stroke="#000000" points="711.5,-224.5 711.5,-243.5 796.5,-243.5 796.5,-224.5 711.5,-224.5"/>
<text text-anchor="middle" x="754" y="-231.5" font-family="Helvetica,sans-Serif" font-size="10.00" fill="#000000">dji_hotpoint.hpp</text>
</a>
</g>
</g>
<!-- Node24&#45;&gt;Node25 -->
<g id="edge43" class="edge">
<title>Node24&#45;&gt;Node25</title>
<path fill="none" stroke="#191970" d="M668.1154,-280.2455C684.445,-271.4527 708.671,-258.4079 727.2339,-248.4125"/>
<polygon fill="#191970" stroke="#191970" points="728.9468,-251.4654 736.0922,-243.6427 725.6281,-245.3021 728.9468,-251.4654"/>
</g>
<!-- Node27 -->
<g id="node28" class="node">
<title>Node27</title>
<g id="a_node28"><a xlink:href="dji__waypoint_8hpp.html" target="_top" xlink:title="Implementation of GPS Waypoint Missions for DJI OSDK.">
<polygon fill="#ffffff" stroke="#000000" points="604.5,-224.5 604.5,-243.5 693.5,-243.5 693.5,-224.5 604.5,-224.5"/>
<text text-anchor="middle" x="649" y="-231.5" font-family="Helvetica,sans-Serif" font-size="10.00" fill="#000000">dji_waypoint.hpp</text>
</a>
</g>
</g>
<!-- Node24&#45;&gt;Node27 -->
<g id="edge49" class="edge">
<title>Node24&#45;&gt;Node27</title>
<path fill="none" stroke="#191970" d="M649.8258,-280.2455C649.6953,-272.9382 649.5124,-262.6944 649.3519,-253.7046"/>
<polygon fill="#191970" stroke="#191970" points="652.8503,-253.5786 649.1722,-243.6427 645.8514,-253.7036 652.8503,-253.5786"/>
</g>
<!-- Node28 -->
<g id="node29" class="node">
<title>Node28</title>
<g id="a_node29"><a xlink:title=" ">
<polygon fill="#ffffff" stroke="#bfbfbf" points="815,-224.5 815,-243.5 859,-243.5 859,-224.5 815,-224.5"/>
<text text-anchor="middle" x="837" y="-231.5" font-family="Helvetica,sans-Serif" font-size="10.00" fill="#000000">vector</text>
</a>
</g>
</g>
<!-- Node24&#45;&gt;Node28 -->
<g id="edge51" class="edge">
<title>Node24&#45;&gt;Node28</title>
<path fill="none" stroke="#191970" d="M683.2439,-280.4614C712.838,-271.9116 757.5444,-258.8539 804.8584,-244.3048"/>
<polygon fill="#191970" stroke="#191970" points="806.1466,-247.5702 814.6703,-241.2776 804.0829,-240.8814 806.1466,-247.5702"/>
</g>
<!-- Node25&#45;&gt;Node11 -->
<g id="edge48" class="edge">
<title>Node25&#45;&gt;Node11</title>
<path fill="none" stroke="#191970" d="M796.5652,-225.804C799.7577,-225.1924 802.9297,-224.5858 806,-224 870.1815,-211.7539 943.9245,-197.8126 993.1829,-188.5186"/>
<polygon fill="#191970" stroke="#191970" points="994.1323,-191.9013 1003.3102,-186.6082 992.8346,-185.0226 994.1323,-191.9013"/>
</g>
<!-- Node26 -->
<g id="node27" class="node">
<title>Node26</title>
<g id="a_node27"><a xlink:href="dji__mission__base_8hpp.html" target="_top" xlink:title="Mission&#45;Base abstract class for DJI OSDK library.">
<polygon fill="#ffffff" stroke="#000000" points="723,-168.5 723,-187.5 833,-187.5 833,-168.5 723,-168.5"/>
<text text-anchor="middle" x="778" y="-175.5" font-family="Helvetica,sans-Serif" font-size="10.00" fill="#000000">dji_mission_base.hpp</text>
</a>
</g>
</g>
<!-- Node25&#45;&gt;Node26 -->
<g id="edge44" class="edge">
<title>Node25&#45;&gt;Node26</title>
<path fill="none" stroke="#191970" d="M758.1805,-224.2455C761.381,-216.7776 765.896,-206.2427 769.8084,-197.1137"/>
<polygon fill="#191970" stroke="#191970" points="773.1452,-198.2129 773.8674,-187.6427 766.7112,-195.4554 773.1452,-198.2129"/>
</g>
<!-- Node26&#45;&gt;Node2 -->
<g id="edge46" class="edge">
<title>Node26&#45;&gt;Node2</title>
<path fill="none" stroke="#191970" d="M726.5983,-168.4369C669.0224,-157.7251 576.6133,-140.5327 521.8533,-130.3448"/>
<polygon fill="#191970" stroke="#191970" points="522.2257,-126.8541 511.7541,-128.4659 520.9452,-133.736 522.2257,-126.8541"/>
</g>
<!-- Node26&#45;&gt;Node5 -->
<g id="edge47" class="edge">
<title>Node26&#45;&gt;Node5</title>
<path fill="none" stroke="#191970" d="M833.2971,-171.4114C918.7533,-161.2294 1082.8502,-141.6774 1176.9752,-130.4625"/>
<polygon fill="#191970" stroke="#191970" points="1177.4627,-133.9293 1186.9783,-129.2707 1176.6344,-126.9785 1177.4627,-133.9293"/>
</g>
<!-- Node26&#45;&gt;Node13 -->
<g id="edge45" class="edge">
<title>Node26&#45;&gt;Node13</title>
<path fill="none" stroke="#191970" d="M722.8365,-171.6306C630.1052,-160.9235 443.9274,-139.4267 349.9869,-128.5799"/>
<polygon fill="#191970" stroke="#191970" points="350.1563,-125.0763 339.8208,-127.4061 349.3533,-132.0301 350.1563,-125.0763"/>
</g>
<!-- Node27&#45;&gt;Node26 -->
<g id="edge50" class="edge">
<title>Node27&#45;&gt;Node26</title>
<path fill="none" stroke="#191970" d="M671.1759,-224.3733C691.9766,-215.3435 723.2917,-201.7494 746.6458,-191.6111"/>
<polygon fill="#191970" stroke="#191970" points="748.3343,-194.6938 756.1135,-187.5011 745.5468,-188.2727 748.3343,-194.6938"/>
</g>
<!-- Node29&#45;&gt;Node5 -->
<g id="edge54" class="edge">
<title>Node29&#45;&gt;Node5</title>
<path fill="none" stroke="#191970" d="M1587.9892,-280.1477C1580.3081,-265.9365 1564.3508,-239.6751 1544,-224 1477.3742,-172.6816 1383.1603,-146.1367 1319.0432,-133.1654"/>
<polygon fill="#191970" stroke="#191970" points="1319.5069,-129.6897 1309.0201,-131.1984 1318.1589,-136.5587 1319.5069,-129.6897"/>
</g>
<!-- Node30 -->
<g id="node31" class="node">
<title>Node30</title>
<g id="a_node31"><a xlink:title=" ">
<polygon fill="#ffffff" stroke="#bfbfbf" points="1451.5,-224.5 1451.5,-243.5 1534.5,-243.5 1534.5,-224.5 1451.5,-224.5"/>
<text text-anchor="middle" x="1493" y="-231.5" font-family="Helvetica,sans-Serif" font-size="10.00" fill="#000000">dji_macros.hpp</text>
</a>
</g>
</g>
<!-- Node29&#45;&gt;Node30 -->
<g id="edge53" class="edge">
<title>Node29&#45;&gt;Node30</title>
<path fill="none" stroke="#191970" d="M1575.5813,-280.2455C1559.9515,-271.4928 1536.7981,-258.527 1518.9815,-248.5496"/>
<polygon fill="#191970" stroke="#191970" points="1520.6543,-245.475 1510.2191,-243.6427 1517.234,-251.5825 1520.6543,-245.475"/>
</g>
<!-- Node31&#45;&gt;Node5 -->
<g id="edge56" class="edge">
<title>Node31&#45;&gt;Node5</title>
<path fill="none" stroke="#191970" d="M1640.9467,-224.4306C1629.409,-209.5766 1604.965,-181.2994 1577,-168 1532.689,-146.9268 1401.938,-133.5451 1319.229,-126.9399"/>
<polygon fill="#191970" stroke="#191970" points="1319.3834,-123.4414 1309.1403,-126.1488 1318.8361,-130.42 1319.3834,-123.4414"/>
</g>
<!-- Node34&#45;&gt;Node5 -->
<g id="edge63" class="edge">
<title>Node34&#45;&gt;Node5</title>
<path fill="none" stroke="#191970" d="M1754.2344,-224.4425C1723.2093,-209.8666 1660.8467,-182.2738 1605,-168 1507.9076,-143.1843 1392.3692,-131.4082 1319.5937,-126.0729"/>
<polygon fill="#191970" stroke="#191970" points="1319.3971,-122.5502 1309.1739,-125.3317 1318.9004,-129.5325 1319.3971,-122.5502"/>
</g>
<!-- Node34&#45;&gt;Node6 -->
<g id="edge61" class="edge">
<title>Node34&#45;&gt;Node6</title>
<path fill="none" stroke="#191970" d="M1756.7832,-224.4757C1732.838,-211.3293 1688.0201,-187.0841 1649,-168 1580.5135,-134.5043 1498.621,-98.536 1454.65,-79.5478"/>
<polygon fill="#191970" stroke="#191970" points="1455.9151,-76.2818 1445.3463,-75.5393 1453.1453,-82.7105 1455.9151,-76.2818"/>
</g>
<!-- Node34&#45;&gt;Node11 -->
<g id="edge62" class="edge">
<title>Node34&#45;&gt;Node11</title>
<path fill="none" stroke="#191970" d="M1722.335,-225.0596C1719.5193,-224.6753 1716.7272,-224.3184 1714,-224 1477.7329,-196.414 1417.26,-205.0529 1180,-188 1155.3268,-186.2266 1128.0482,-184.1611 1104.7997,-182.3692"/>
<polygon fill="#191970" stroke="#191970" points="1105.0049,-178.8747 1094.7649,-181.5935 1104.4654,-185.8539 1105.0049,-178.8747"/>
</g>
<!-- Node36&#45;&gt;Node2 -->
<g id="edge71" class="edge">
<title>Node36&#45;&gt;Node2</title>
<path fill="none" stroke="#191970" d="M942.6581,-280.3358C936.3511,-256.6038 916.6011,-195.4032 875,-168 845.9615,-148.872 619.4553,-131.5601 521.6862,-124.8977"/>
<polygon fill="#191970" stroke="#191970" points="521.7404,-121.3935 511.5275,-124.2123 521.2691,-128.3776 521.7404,-121.3935"/>
</g>
<!-- Node36&#45;&gt;Node6 -->
<g id="edge70" class="edge">
<title>Node36&#45;&gt;Node6</title>
<path fill="none" stroke="#191970" d="M990.0649,-281.56C993.0871,-281.0232 996.0867,-280.4986 999,-280 1180.9399,-248.8587 1283.8741,-328.1487 1404,-188 1428.6569,-159.2332 1428.3233,-112.0327 1425.7537,-85.5659"/>
<polygon fill="#191970" stroke="#191970" points="1429.2266,-85.129 1424.5819,-75.6065 1422.2745,-85.947 1429.2266,-85.129"/>
</g>
<!-- Node36&#45;&gt;Node11 -->
<g id="edge72" class="edge">
<title>Node36&#45;&gt;Node11</title>
<path fill="none" stroke="#191970" d="M953.867,-280.4509C971.4432,-261.5227 1010.9155,-219.014 1033.0955,-195.1279"/>
<polygon fill="#191970" stroke="#191970" points="1035.9157,-197.2344 1040.1555,-187.5249 1030.7861,-192.4713 1035.9157,-197.2344"/>
</g>
<!-- Node36&#45;&gt;Node17 -->
<g id="edge69" class="edge">
<title>Node36&#45;&gt;Node17</title>
<path fill="none" stroke="#191970" d="M899.701,-284.5796C809.4519,-273.7806 608.3168,-249.7131 519.9932,-239.1445"/>
<polygon fill="#191970" stroke="#191970" points="520.3915,-235.6673 510.0465,-237.9543 519.5598,-242.6177 520.3915,-235.6673"/>
</g>
<!-- Node37&#45;&gt;Node5 -->
<g id="edge74" class="edge">
<title>Node37&#45;&gt;Node5</title>
<path fill="none" stroke="#191970" d="M1248,-168.2455C1248,-160.9382 1248,-150.6944 1248,-141.7046"/>
<polygon fill="#191970" stroke="#191970" points="1251.5001,-141.6426 1248,-131.6427 1244.5001,-141.6427 1251.5001,-141.6426"/>
</g>
</g>
</svg>
