<?xml version="1.0" encoding="UTF-8" standalone="no"?>
<!DOCTYPE svg PUBLIC "-//W3C//DTD SVG 1.1//EN"
 "http://www.w3.org/Graphics/SVG/1.1/DTD/svg11.dtd">
<!-- Generated by graphviz version 2.40.1 (20161225.0304)
 -->
<!-- Title: osdk&#45;core/api/src/dji_psdk_manager.cpp Pages: 1 -->
<svg width="178pt" height="151pt"
 viewBox="0.00 0.00 178.00 151.00" xmlns="http://www.w3.org/2000/svg" xmlns:xlink="http://www.w3.org/1999/xlink">
<g id="graph0" class="graph" transform="scale(1 1) rotate(0) translate(4 147)">
<title>osdk&#45;core/api/src/dji_psdk_manager.cpp</title>
<polygon fill="#ffffff" stroke="transparent" points="-4,4 -4,-147 174,-147 174,4 -4,4"/>
<!-- Node0 -->
<g id="node1" class="node">
<title>Node0</title>
<g id="a_node1"><a xlink:title="Implementation of psdk module.">
<polygon fill="#bfbfbf" stroke="#000000" points="17,-112.5 17,-142.5 121,-142.5 121,-112.5 17,-112.5"/>
<text text-anchor="start" x="25" y="-130.5" font-family="Helvetica,sans-Serif" font-size="10.00" fill="#000000">osdk&#45;core/api/src/dji</text>
<text text-anchor="middle" x="69" y="-119.5" font-family="Helvetica,sans-Serif" font-size="10.00" fill="#000000">_psdk_manager.cpp</text>
</a>
</g>
</g>
<!-- Node1 -->
<g id="node2" class="node">
<title>Node1</title>
<g id="a_node2"><a xlink:href="dji__psdk__manager_8hpp.html" target="_top" xlink:title="Implementation of the manager for psdk module.">
<polygon fill="#ffffff" stroke="#000000" points="12,-56.5 12,-75.5 126,-75.5 126,-56.5 12,-56.5"/>
<text text-anchor="middle" x="69" y="-63.5" font-family="Helvetica,sans-Serif" font-size="10.00" fill="#000000">dji_psdk_manager.hpp</text>
</a>
</g>
</g>
<!-- Node0&#45;&gt;Node1 -->
<g id="edge1" class="edge">
<title>Node0&#45;&gt;Node1</title>
<path fill="none" stroke="#191970" d="M69,-112.2977C69,-104.3834 69,-94.6043 69,-86.0759"/>
<polygon fill="#191970" stroke="#191970" points="72.5001,-85.8469 69,-75.8469 65.5001,-85.847 72.5001,-85.8469"/>
</g>
<!-- Node2 -->
<g id="node3" class="node">
<title>Node2</title>
<g id="a_node3"><a xlink:title=" ">
<polygon fill="#ffffff" stroke="#bfbfbf" points="0,-.5 0,-19.5 44,-19.5 44,-.5 0,-.5"/>
<text text-anchor="middle" x="22" y="-7.5" font-family="Helvetica,sans-Serif" font-size="10.00" fill="#000000">vector</text>
</a>
</g>
</g>
<!-- Node1&#45;&gt;Node2 -->
<g id="edge2" class="edge">
<title>Node1&#45;&gt;Node2</title>
<path fill="none" stroke="#191970" d="M60.8132,-56.2455C54.1411,-48.2958 44.5521,-36.8706 36.5747,-27.3656"/>
<polygon fill="#191970" stroke="#191970" points="39.2026,-25.0524 30.093,-19.6427 33.8408,-29.5525 39.2026,-25.0524"/>
</g>
<!-- Node3 -->
<g id="node4" class="node">
<title>Node3</title>
<g id="a_node4"><a xlink:title=" ">
<polygon fill="#ffffff" stroke="#bfbfbf" points="62,-.5 62,-19.5 170,-19.5 170,-.5 62,-.5"/>
<text text-anchor="middle" x="116" y="-7.5" font-family="Helvetica,sans-Serif" font-size="10.00" fill="#000000">dji_psdk_module.hpp</text>
</a>
</g>
</g>
<!-- Node1&#45;&gt;Node3 -->
<g id="edge3" class="edge">
<title>Node1&#45;&gt;Node3</title>
<path fill="none" stroke="#191970" d="M77.1868,-56.2455C83.8589,-48.2958 93.4479,-36.8706 101.4253,-27.3656"/>
<polygon fill="#191970" stroke="#191970" points="104.1592,-29.5525 107.907,-19.6427 98.7974,-25.0524 104.1592,-29.5525"/>
</g>
</g>
</svg>
