<?xml version="1.0" encoding="UTF-8" standalone="no"?>
<!DOCTYPE svg PUBLIC "-//W3C//DTD SVG 1.1//EN"
 "http://www.w3.org/Graphics/SVG/1.1/DTD/svg11.dtd">
<!-- Generated by graphviz version 2.38.0 (20140413.2041)
 -->
<!-- Title: osdk&#45;core/api/src/dji_broadcast.cpp Pages: 1 -->
<svg width="1626pt" height="431pt"
 viewBox="0.00 0.00 1626.00 431.00" xmlns="http://www.w3.org/2000/svg" xmlns:xlink="http://www.w3.org/1999/xlink">
<g id="graph0" class="graph" transform="scale(1 1) rotate(0) translate(4 427)">
<title>osdk&#45;core/api/src/dji_broadcast.cpp</title>
<polygon fill="white" stroke="none" points="-4,4 -4,-427 1622,-427 1622,4 -4,4"/>
<!-- Node1 -->
<g id="node1" class="node"><title>Node1</title>
<polygon fill="#bfbfbf" stroke="black" points="1258,-392.5 1258,-422.5 1362,-422.5 1362,-392.5 1258,-392.5"/>
<text text-anchor="start" x="1266" y="-410.5" font-family="Helvetica,sans-Serif" font-size="10.00">osdk&#45;core/api/src/dji</text>
<text text-anchor="middle" x="1310" y="-399.5" font-family="Helvetica,sans-Serif" font-size="10.00">_broadcast.cpp</text>
</g>
<!-- Node2 -->
<g id="node2" class="node"><title>Node2</title>
<g id="a_node2"><a xlink:href="dji__broadcast_8hpp.html" target="_top" xlink:title="Broadcast Telemetry API for DJI onboardSDK library. ">
<polygon fill="white" stroke="black" points="1167.5,-224.5 1167.5,-243.5 1260.5,-243.5 1260.5,-224.5 1167.5,-224.5"/>
<text text-anchor="middle" x="1214" y="-231.5" font-family="Helvetica,sans-Serif" font-size="10.00">dji_broadcast.hpp</text>
</a>
</g>
</g>
<!-- Node1&#45;&gt;Node2 -->
<g id="edge1" class="edge"><title>Node1&#45;&gt;Node2</title>
<path fill="none" stroke="midnightblue" d="M1362.1,-396.57C1440.7,-379.388 1575.17,-340.08 1523,-280 1487.45,-239.055 1340.71,-251.215 1270.91,-244.002"/>
<polygon fill="midnightblue" stroke="midnightblue" points="1271.16,-240.505 1260.8,-242.728 1270.28,-247.45 1271.16,-240.505"/>
</g>
<!-- Node9 -->
<g id="node9" class="node"><title>Node9</title>
<g id="a_node9"><a xlink:href="dji__vehicle_8hpp.html" target="_top" xlink:title="Vehicle API for DJI onboardSDK library. ">
<polygon fill="white" stroke="black" points="965.5,-336.5 965.5,-355.5 1046.5,-355.5 1046.5,-336.5 965.5,-336.5"/>
<text text-anchor="middle" x="1006" y="-343.5" font-family="Helvetica,sans-Serif" font-size="10.00">dji_vehicle.hpp</text>
</a>
</g>
</g>
<!-- Node1&#45;&gt;Node9 -->
<g id="edge8" class="edge"><title>Node1&#45;&gt;Node9</title>
<path fill="none" stroke="midnightblue" d="M1257.74,-396.272C1201.49,-385.261 1112.6,-367.864 1056.88,-356.959"/>
<polygon fill="midnightblue" stroke="midnightblue" points="1057.37,-353.487 1046.88,-355.001 1056.02,-360.357 1057.37,-353.487"/>
</g>
<!-- Node3 -->
<g id="node3" class="node"><title>Node3</title>
<g id="a_node3"><a xlink:href="dji__telemetry_8hpp.html" target="_top" xlink:title="Enumeration of all telemetry data types, structures and maps. ">
<polygon fill="white" stroke="black" points="834.5,-168.5 834.5,-187.5 925.5,-187.5 925.5,-168.5 834.5,-168.5"/>
<text text-anchor="middle" x="880" y="-175.5" font-family="Helvetica,sans-Serif" font-size="10.00">dji_telemetry.hpp</text>
</a>
</g>
</g>
<!-- Node2&#45;&gt;Node3 -->
<g id="edge2" class="edge"><title>Node2&#45;&gt;Node3</title>
<path fill="none" stroke="midnightblue" d="M1167.49,-225.382C1164.62,-224.913 1161.77,-224.45 1159,-224 1081.72,-211.445 992.385,-197.058 936.045,-188.001"/>
<polygon fill="midnightblue" stroke="midnightblue" points="936.348,-184.505 925.919,-186.373 935.237,-191.416 936.348,-184.505"/>
</g>
<!-- Node7 -->
<g id="node7" class="node"><title>Node7</title>
<g id="a_node7"><a xlink:href="dji__vehicle__callback_8hpp.html" target="_top" xlink:title="Type definition for new Vehicle&#45;style callbacks. ">
<polygon fill="white" stroke="black" points="1164,-112.5 1164,-131.5 1286,-131.5 1286,-112.5 1164,-112.5"/>
<text text-anchor="middle" x="1225" y="-119.5" font-family="Helvetica,sans-Serif" font-size="10.00">dji_vehicle_callback.hpp</text>
</a>
</g>
</g>
<!-- Node2&#45;&gt;Node7 -->
<g id="edge6" class="edge"><title>Node2&#45;&gt;Node7</title>
<path fill="none" stroke="midnightblue" d="M1214.86,-224.368C1216.64,-206.617 1220.73,-165.666 1223.14,-141.597"/>
<polygon fill="midnightblue" stroke="midnightblue" points="1226.63,-141.89 1224.14,-131.591 1219.66,-141.193 1226.63,-141.89"/>
</g>
<!-- Node4 -->
<g id="node4" class="node"><title>Node4</title>
<g id="a_node4"><a xlink:href="dji__type_8hpp.html" target="_top" xlink:title="Data type and Data Structure definitions for use throughout DJI OSDK. ">
<polygon fill="white" stroke="black" points="548.5,-112.5 548.5,-131.5 617.5,-131.5 617.5,-112.5 548.5,-112.5"/>
<text text-anchor="middle" x="583" y="-119.5" font-family="Helvetica,sans-Serif" font-size="10.00">dji_type.hpp</text>
</a>
</g>
</g>
<!-- Node3&#45;&gt;Node4 -->
<g id="edge3" class="edge"><title>Node3&#45;&gt;Node4</title>
<path fill="none" stroke="midnightblue" d="M834.245,-168.681C778.027,-158.459 683.276,-141.232 627.594,-131.108"/>
<polygon fill="midnightblue" stroke="midnightblue" points="628.135,-127.649 617.67,-129.304 626.883,-134.536 628.135,-127.649"/>
</g>
<!-- Node5 -->
<g id="node5" class="node"><title>Node5</title>
<polygon fill="white" stroke="#bfbfbf" points="561.5,-56.5 561.5,-75.5 604.5,-75.5 604.5,-56.5 561.5,-56.5"/>
<text text-anchor="middle" x="583" y="-63.5" font-family="Helvetica,sans-Serif" font-size="10.00">cstdio</text>
</g>
<!-- Node4&#45;&gt;Node5 -->
<g id="edge4" class="edge"><title>Node4&#45;&gt;Node5</title>
<path fill="none" stroke="midnightblue" d="M583,-112.083C583,-105.006 583,-94.8611 583,-85.9865"/>
<polygon fill="midnightblue" stroke="midnightblue" points="586.5,-85.751 583,-75.7511 579.5,-85.7511 586.5,-85.751"/>
</g>
<!-- Node6 -->
<g id="node6" class="node"><title>Node6</title>
<polygon fill="white" stroke="#bfbfbf" points="282.5,-0.5 282.5,-19.5 331.5,-19.5 331.5,-0.5 282.5,-0.5"/>
<text text-anchor="middle" x="307" y="-7.5" font-family="Helvetica,sans-Serif" font-size="10.00">stdint.h</text>
</g>
<!-- Node4&#45;&gt;Node6 -->
<g id="edge5" class="edge"><title>Node4&#45;&gt;Node6</title>
<path fill="none" stroke="midnightblue" d="M561.343,-112.368C512.671,-92.9703 394.491,-45.8696 338.031,-23.3673"/>
<polygon fill="midnightblue" stroke="midnightblue" points="339.142,-20.0425 328.557,-19.5914 336.55,-26.5451 339.142,-20.0425"/>
</g>
<!-- Node8 -->
<g id="node8" class="node"><title>Node8</title>
<polygon fill="white" stroke="#bfbfbf" points="1220.5,-56.5 1220.5,-75.5 1331.5,-75.5 1331.5,-56.5 1220.5,-56.5"/>
<text text-anchor="middle" x="1276" y="-63.5" font-family="Helvetica,sans-Serif" font-size="10.00">dji_open_protocol.hpp</text>
</g>
<!-- Node7&#45;&gt;Node8 -->
<g id="edge7" class="edge"><title>Node7&#45;&gt;Node8</title>
<path fill="none" stroke="midnightblue" d="M1233.42,-112.083C1240.85,-104.22 1251.85,-92.5688 1260.81,-83.0813"/>
<polygon fill="midnightblue" stroke="midnightblue" points="1263.41,-85.4244 1267.74,-75.7511 1258.32,-80.618 1263.41,-85.4244"/>
</g>
<!-- Node9&#45;&gt;Node2 -->
<g id="edge10" class="edge"><title>Node9&#45;&gt;Node2</title>
<path fill="none" stroke="midnightblue" d="M1046.6,-342.731C1083.38,-338.831 1137.4,-328.305 1175,-300 1190.74,-288.153 1201.4,-267.941 1207.55,-253.194"/>
<polygon fill="midnightblue" stroke="midnightblue" points="1210.91,-254.21 1211.23,-243.62 1204.38,-251.696 1210.91,-254.21"/>
</g>
<!-- Node9&#45;&gt;Node4 -->
<g id="edge58" class="edge"><title>Node9&#45;&gt;Node4</title>
<path fill="none" stroke="midnightblue" d="M965.311,-344.36C852.711,-342.171 543.276,-333.166 513,-300 498.188,-283.775 516.394,-249.499 532,-224 543.649,-204.966 556.178,-207.515 567,-188 575.014,-173.549 579.062,-155.099 581.077,-141.55"/>
<polygon fill="midnightblue" stroke="midnightblue" points="584.563,-141.875 582.334,-131.517 577.617,-141.004 584.563,-141.875"/>
</g>
<!-- Node9&#45;&gt;Node7 -->
<g id="edge59" class="edge"><title>Node9&#45;&gt;Node7</title>
<path fill="none" stroke="midnightblue" d="M1046.73,-343.423C1125.57,-339.757 1295.7,-328.682 1346,-300 1373.5,-284.322 1379.65,-273.914 1390,-244 1410.21,-185.569 1326.67,-150.659 1271.11,-134.297"/>
<polygon fill="midnightblue" stroke="midnightblue" points="1272.01,-130.914 1261.44,-131.549 1270.1,-137.648 1272.01,-130.914"/>
</g>
<!-- Node9&#45;&gt;Node8 -->
<g id="edge51" class="edge"><title>Node9&#45;&gt;Node8</title>
<path fill="none" stroke="midnightblue" d="M1046.71,-344.749C1155.66,-343.58 1451.65,-336.99 1541,-300 1582.38,-282.869 1618,-279.785 1618,-235 1618,-235 1618,-235 1618,-177 1618,-119.565 1440.99,-87.8368 1341.66,-74.5545"/>
<polygon fill="midnightblue" stroke="midnightblue" points="1342.08,-71.0798 1331.71,-73.251 1341.17,-78.0205 1342.08,-71.0798"/>
</g>
<!-- Node10 -->
<g id="node10" class="node"><title>Node10</title>
<polygon fill="white" stroke="#bfbfbf" points="0,-112.5 0,-131.5 46,-131.5 46,-112.5 0,-112.5"/>
<text text-anchor="middle" x="23" y="-119.5" font-family="Helvetica,sans-Serif" font-size="10.00">cstdint</text>
</g>
<!-- Node9&#45;&gt;Node10 -->
<g id="edge9" class="edge"><title>Node9&#45;&gt;Node10</title>
<path fill="none" stroke="midnightblue" d="M965.083,-344.008C827.177,-340.445 380.159,-327.044 239,-300 161.286,-285.111 136.145,-287.427 70,-244 42.1082,-225.688 31.8921,-219.175 20,-188 14.338,-173.157 15.8017,-155.008 18.2711,-141.663"/>
<polygon fill="midnightblue" stroke="midnightblue" points="21.719,-142.28 20.4475,-131.761 14.8822,-140.777 21.719,-142.28"/>
</g>
<!-- Node11 -->
<g id="node11" class="node"><title>Node11</title>
<g id="a_node11"><a xlink:href="dji__camera_8hpp.html" target="_top" xlink:title="Camera/Gimbal API for DJI onboardSDK library. ">
<polygon fill="white" stroke="black" points="272.5,-168.5 272.5,-187.5 355.5,-187.5 355.5,-168.5 272.5,-168.5"/>
<text text-anchor="middle" x="314" y="-175.5" font-family="Helvetica,sans-Serif" font-size="10.00">dji_camera.hpp</text>
</a>
</g>
</g>
<!-- Node9&#45;&gt;Node11 -->
<g id="edge11" class="edge"><title>Node9&#45;&gt;Node11</title>
<path fill="none" stroke="midnightblue" d="M965.433,-344.05C858.282,-341.142 569.784,-330.616 480,-300 416.098,-278.21 355.928,-222.477 328.916,-194.919"/>
<polygon fill="midnightblue" stroke="midnightblue" points="331.37,-192.421 321.914,-187.641 326.325,-197.274 331.37,-192.421"/>
</g>
<!-- Node12 -->
<g id="node12" class="node"><title>Node12</title>
<g id="a_node12"><a xlink:href="dji__command_8hpp.html" target="_top" xlink:title="All DJI OSDK OpenProtocol Command IDs. ">
<polygon fill="white" stroke="black" points="197.5,-112.5 197.5,-131.5 290.5,-131.5 290.5,-112.5 197.5,-112.5"/>
<text text-anchor="middle" x="244" y="-119.5" font-family="Helvetica,sans-Serif" font-size="10.00">dji_command.hpp</text>
</a>
</g>
</g>
<!-- Node9&#45;&gt;Node12 -->
<g id="edge18" class="edge"><title>Node9&#45;&gt;Node12</title>
<path fill="none" stroke="midnightblue" d="M965.291,-344.094C835.174,-340.933 430.457,-328.964 303,-300 238.053,-285.241 225.715,-269.045 164,-244 103.048,-219.265 63.6725,-242.608 27,-188 22.0444,-180.621 21.3889,-174.894 27,-168 46.8759,-143.58 130.039,-131.991 187.439,-126.808"/>
<polygon fill="midnightblue" stroke="midnightblue" points="187.818,-130.289 197.48,-125.943 187.217,-123.315 187.818,-130.289"/>
</g>
<!-- Node14 -->
<g id="node14" class="node"><title>Node14</title>
<polygon fill="white" stroke="#bfbfbf" points="668,-280.5 668,-299.5 780,-299.5 780,-280.5 668,-280.5"/>
<text text-anchor="middle" x="724" y="-287.5" font-family="Helvetica,sans-Serif" font-size="10.00">dji_circular_buffer.hpp</text>
</g>
<!-- Node9&#45;&gt;Node14 -->
<g id="edge17" class="edge"><title>Node9&#45;&gt;Node14</title>
<path fill="none" stroke="midnightblue" d="M965.296,-337.206C916.044,-327.774 832.942,-311.861 778.275,-301.393"/>
<polygon fill="midnightblue" stroke="midnightblue" points="778.893,-297.948 768.413,-299.505 777.577,-304.823 778.893,-297.948"/>
</g>
<!-- Node15 -->
<g id="node15" class="node"><title>Node15</title>
<g id="a_node15"><a xlink:href="dji__control_8hpp.html" target="_top" xlink:title="Control API for DJI OSDK library. ">
<polygon fill="white" stroke="black" points="932,-280.5 932,-299.5 1012,-299.5 1012,-280.5 932,-280.5"/>
<text text-anchor="middle" x="972" y="-287.5" font-family="Helvetica,sans-Serif" font-size="10.00">dji_control.hpp</text>
</a>
</g>
</g>
<!-- Node9&#45;&gt;Node15 -->
<g id="edge19" class="edge"><title>Node9&#45;&gt;Node15</title>
<path fill="none" stroke="midnightblue" d="M1000.39,-336.083C995.633,-328.534 988.682,-317.495 982.848,-308.23"/>
<polygon fill="midnightblue" stroke="midnightblue" points="985.8,-306.349 977.51,-299.751 979.876,-310.078 985.8,-306.349"/>
</g>
<!-- Node18 -->
<g id="node18" class="node"><title>Node18</title>
<g id="a_node18"><a xlink:href="dji__version_8hpp.html" target="_top" xlink:title="Drone/SDK Version definition for DJI onboardSDK library. ">
<polygon fill="white" stroke="black" points="36,-168.5 36,-187.5 118,-187.5 118,-168.5 36,-168.5"/>
<text text-anchor="middle" x="77" y="-175.5" font-family="Helvetica,sans-Serif" font-size="10.00">dji_version.hpp</text>
</a>
</g>
</g>
<!-- Node9&#45;&gt;Node18 -->
<g id="edge60" class="edge"><title>Node9&#45;&gt;Node18</title>
<path fill="none" stroke="midnightblue" d="M965.488,-343.806C844.243,-339.966 485.617,-326.609 372,-300 267.152,-275.445 151.308,-218.339 101.721,-192.331"/>
<polygon fill="midnightblue" stroke="midnightblue" points="103.186,-189.147 92.7105,-187.563 99.9124,-195.334 103.186,-189.147"/>
</g>
<!-- Node20 -->
<g id="node20" class="node"><title>Node20</title>
<g id="a_node20"><a xlink:href="dji__gimbal_8hpp.html" target="_top" xlink:title="Gimbal API for OSDK library. ">
<polygon fill="white" stroke="black" points="136.5,-168.5 136.5,-187.5 215.5,-187.5 215.5,-168.5 136.5,-168.5"/>
<text text-anchor="middle" x="176" y="-175.5" font-family="Helvetica,sans-Serif" font-size="10.00">dji_gimbal.hpp</text>
</a>
</g>
</g>
<!-- Node9&#45;&gt;Node20 -->
<g id="edge32" class="edge"><title>Node9&#45;&gt;Node20</title>
<path fill="none" stroke="midnightblue" d="M965.342,-343.709C851.925,-339.807 533.792,-326.727 433,-300 340.849,-275.565 241.322,-219.035 198.106,-192.816"/>
<polygon fill="midnightblue" stroke="midnightblue" points="199.882,-189.8 189.527,-187.559 196.225,-195.769 199.882,-189.8"/>
</g>
<!-- Node21 -->
<g id="node21" class="node"><title>Node21</title>
<polygon fill="white" stroke="#bfbfbf" points="1068,-280.5 1068,-299.5 1166,-299.5 1166,-280.5 1068,-280.5"/>
<text text-anchor="middle" x="1117" y="-287.5" font-family="Helvetica,sans-Serif" font-size="10.00">dji_hard_driver.hpp</text>
</g>
<!-- Node9&#45;&gt;Node21 -->
<g id="edge35" class="edge"><title>Node9&#45;&gt;Node21</title>
<path fill="none" stroke="midnightblue" d="M1023.83,-336.324C1041.72,-327.625 1069.48,-314.12 1090.05,-304.113"/>
<polygon fill="midnightblue" stroke="midnightblue" points="1091.75,-307.177 1099.21,-299.655 1088.69,-300.882 1091.75,-307.177"/>
</g>
<!-- Node22 -->
<g id="node22" class="node"><title>Node22</title>
<g id="a_node22"><a xlink:href="dji__hardware__sync_8hpp.html" target="_top" xlink:title="Hardware Sync API for DJI OSDK. ">
<polygon fill="white" stroke="black" points="798,-280.5 798,-299.5 914,-299.5 914,-280.5 798,-280.5"/>
<text text-anchor="middle" x="856" y="-287.5" font-family="Helvetica,sans-Serif" font-size="10.00">dji_hardware_sync.hpp</text>
</a>
</g>
</g>
<!-- Node9&#45;&gt;Node22 -->
<g id="edge36" class="edge"><title>Node9&#45;&gt;Node22</title>
<path fill="none" stroke="midnightblue" d="M982.232,-336.444C957.107,-327.399 917.289,-313.064 889.1,-302.916"/>
<polygon fill="midnightblue" stroke="midnightblue" points="890.251,-299.611 879.657,-299.516 887.88,-306.197 890.251,-299.611"/>
</g>
<!-- Node23 -->
<g id="node23" class="node"><title>Node23</title>
<g id="a_node23"><a xlink:href="dji__mfio_8hpp.html" target="_top" xlink:title="MFIO API for DJI OSDK library. ">
<polygon fill="white" stroke="black" points="1473.5,-224.5 1473.5,-243.5 1542.5,-243.5 1542.5,-224.5 1473.5,-224.5"/>
<text text-anchor="middle" x="1508" y="-231.5" font-family="Helvetica,sans-Serif" font-size="10.00">dji_mfio.hpp</text>
</a>
</g>
</g>
<!-- Node9&#45;&gt;Node23 -->
<g id="edge38" class="edge"><title>Node9&#45;&gt;Node23</title>
<path fill="none" stroke="midnightblue" d="M1046.57,-344.547C1162.84,-342.83 1491,-334.908 1523,-300 1534.7,-287.237 1527.62,-267.214 1519.7,-252.762"/>
<polygon fill="midnightblue" stroke="midnightblue" points="1522.47,-250.566 1514.31,-243.805 1516.47,-254.177 1522.47,-250.566"/>
</g>
<!-- Node24 -->
<g id="node24" class="node"><title>Node24</title>
<g id="a_node24"><a xlink:href="dji__mission__manager_8hpp.html" target="_top" xlink:title="Mission&#45;Manager API for DJI OSDK library. ">
<polygon fill="white" stroke="black" points="522.5,-280.5 522.5,-299.5 649.5,-299.5 649.5,-280.5 522.5,-280.5"/>
<text text-anchor="middle" x="586" y="-287.5" font-family="Helvetica,sans-Serif" font-size="10.00">dji_mission_manager.hpp</text>
</a>
</g>
</g>
<!-- Node9&#45;&gt;Node24 -->
<g id="edge40" class="edge"><title>Node9&#45;&gt;Node24</title>
<path fill="none" stroke="midnightblue" d="M965.347,-339.773C894.778,-330.7 748.663,-311.914 659.791,-300.487"/>
<polygon fill="midnightblue" stroke="midnightblue" points="660.143,-297.004 649.778,-299.2 659.25,-303.947 660.143,-297.004"/>
</g>
<!-- Node28 -->
<g id="node28" class="node"><title>Node28</title>
<g id="a_node28"><a xlink:href="dji__mobile__communication_8hpp.html" target="_top" xlink:title="Implementation of DJI Mobile&#45;Onboard SDK Communication (MOC) ">
<polygon fill="white" stroke="black" points="1000,-224.5 1000,-243.5 1150,-243.5 1150,-224.5 1000,-224.5"/>
<text text-anchor="middle" x="1075" y="-231.5" font-family="Helvetica,sans-Serif" font-size="10.00">dji_mobile_communication.hpp</text>
</a>
</g>
</g>
<!-- Node9&#45;&gt;Node28 -->
<g id="edge49" class="edge"><title>Node9&#45;&gt;Node28</title>
<path fill="none" stroke="midnightblue" d="M1011.41,-336.368C1022.75,-318.296 1049.17,-276.176 1064.14,-252.307"/>
<polygon fill="midnightblue" stroke="midnightblue" points="1067.26,-253.923 1069.61,-243.591 1061.33,-250.203 1067.26,-253.923"/>
</g>
<!-- Node29 -->
<g id="node29" class="node"><title>Node29</title>
<g id="a_node29"><a xlink:href="dji__status_8hpp.html" target="_top" xlink:title="Status information for DJI Vehicle. ">
<polygon fill="white" stroke="black" points="1260.5,-280.5 1260.5,-299.5 1337.5,-299.5 1337.5,-280.5 1260.5,-280.5"/>
<text text-anchor="middle" x="1299" y="-287.5" font-family="Helvetica,sans-Serif" font-size="10.00">dji_status.hpp</text>
</a>
</g>
</g>
<!-- Node9&#45;&gt;Node29 -->
<g id="edge52" class="edge"><title>Node9&#45;&gt;Node29</title>
<path fill="none" stroke="midnightblue" d="M1046.74,-337.492C1100.14,-327.65 1193.69,-310.409 1250.63,-299.915"/>
<polygon fill="midnightblue" stroke="midnightblue" points="1251.27,-303.356 1260.47,-298.101 1250,-296.472 1251.27,-303.356"/>
</g>
<!-- Node30 -->
<g id="node30" class="node"><title>Node30</title>
<g id="a_node30"><a xlink:href="dji__subscription_8hpp.html" target="_top" xlink:title="Telemetry Subscription API for DJI OSDK library. ">
<polygon fill="white" stroke="black" points="1278.5,-224.5 1278.5,-243.5 1381.5,-243.5 1381.5,-224.5 1278.5,-224.5"/>
<text text-anchor="middle" x="1330" y="-231.5" font-family="Helvetica,sans-Serif" font-size="10.00">dji_subscription.hpp</text>
</a>
</g>
</g>
<!-- Node9&#45;&gt;Node30 -->
<g id="edge53" class="edge"><title>Node9&#45;&gt;Node30</title>
<path fill="none" stroke="midnightblue" d="M1046.7,-338.344C1086.31,-331.21 1147.84,-318.376 1199,-300 1238.2,-285.921 1280.95,-263.196 1306.61,-248.686"/>
<polygon fill="midnightblue" stroke="midnightblue" points="1308.62,-251.567 1315.56,-243.562 1305.14,-245.491 1308.62,-251.567"/>
</g>
<!-- Node31 -->
<g id="node31" class="node"><title>Node31</title>
<polygon fill="white" stroke="#bfbfbf" points="1394,-280.5 1394,-299.5 1514,-299.5 1514,-280.5 1394,-280.5"/>
<text text-anchor="middle" x="1454" y="-287.5" font-family="Helvetica,sans-Serif" font-size="10.00">dji_thread_manager.hpp</text>
</g>
<!-- Node9&#45;&gt;Node31 -->
<g id="edge57" class="edge"><title>Node9&#45;&gt;Node31</title>
<path fill="none" stroke="midnightblue" d="M1046.68,-340.123C1115.38,-331.883 1258.75,-314.668 1380,-300 1381.26,-299.847 1382.54,-299.692 1383.83,-299.537"/>
<polygon fill="midnightblue" stroke="midnightblue" points="1384.32,-303.003 1393.83,-298.325 1383.48,-296.054 1384.32,-303.003"/>
</g>
<!-- Node11&#45;&gt;Node4 -->
<g id="edge16" class="edge"><title>Node11&#45;&gt;Node4</title>
<path fill="none" stroke="midnightblue" d="M355.736,-168.622C405.3,-158.672 487.632,-142.145 538.414,-131.95"/>
<polygon fill="midnightblue" stroke="midnightblue" points="539.323,-135.338 548.439,-129.938 537.946,-128.475 539.323,-135.338"/>
</g>
<!-- Node11&#45;&gt;Node12 -->
<g id="edge12" class="edge"><title>Node11&#45;&gt;Node12</title>
<path fill="none" stroke="midnightblue" d="M302.753,-168.324C292.203,-160.185 276.199,-147.839 263.558,-138.087"/>
<polygon fill="midnightblue" stroke="midnightblue" points="265.507,-135.171 255.451,-131.834 261.231,-140.713 265.507,-135.171"/>
</g>
<!-- Node12&#45;&gt;Node6 -->
<g id="edge15" class="edge"><title>Node12&#45;&gt;Node6</title>
<path fill="none" stroke="midnightblue" d="M245.137,-112.476C247.151,-99.531 252.196,-74.4699 263,-56 269.505,-44.8797 279.351,-34.4572 288.081,-26.4485"/>
<polygon fill="midnightblue" stroke="midnightblue" points="290.435,-29.0399 295.657,-19.8215 285.826,-23.7712 290.435,-29.0399"/>
</g>
<!-- Node13 -->
<g id="node13" class="node"><title>Node13</title>
<g id="a_node13"><a xlink:href="dji__error_8hpp.html" target="_top" xlink:title="All DJI OSDK OpenProtocol ACK Error Codes. ">
<polygon fill="white" stroke="black" points="272,-56.5 272,-75.5 342,-75.5 342,-56.5 272,-56.5"/>
<text text-anchor="middle" x="307" y="-63.5" font-family="Helvetica,sans-Serif" font-size="10.00">dji_error.hpp</text>
</a>
</g>
</g>
<!-- Node12&#45;&gt;Node13 -->
<g id="edge13" class="edge"><title>Node12&#45;&gt;Node13</title>
<path fill="none" stroke="midnightblue" d="M254.122,-112.324C263.526,-104.263 277.744,-92.0765 289.069,-82.3695"/>
<polygon fill="midnightblue" stroke="midnightblue" points="291.379,-84.9993 296.694,-75.8339 286.823,-79.6844 291.379,-84.9993"/>
</g>
<!-- Node13&#45;&gt;Node6 -->
<g id="edge14" class="edge"><title>Node13&#45;&gt;Node6</title>
<path fill="none" stroke="midnightblue" d="M307,-56.083C307,-49.0059 307,-38.8611 307,-29.9865"/>
<polygon fill="midnightblue" stroke="midnightblue" points="310.5,-29.751 307,-19.7511 303.5,-29.7511 310.5,-29.751"/>
</g>
<!-- Node15&#45;&gt;Node4 -->
<g id="edge30" class="edge"><title>Node15&#45;&gt;Node4</title>
<path fill="none" stroke="midnightblue" d="M960.515,-280.263C930.922,-258.16 848.981,-199.546 772,-168 724.583,-148.569 666.883,-136.353 627.804,-129.631"/>
<polygon fill="midnightblue" stroke="midnightblue" points="628.234,-126.154 617.794,-127.959 627.081,-133.059 628.234,-126.154"/>
</g>
<!-- Node15&#45;&gt;Node7 -->
<g id="edge31" class="edge"><title>Node15&#45;&gt;Node7</title>
<path fill="none" stroke="midnightblue" d="M972.264,-280.314C973.126,-266.696 976.673,-240.209 991,-224 1036.29,-172.766 1112.17,-146.582 1165.21,-133.876"/>
<polygon fill="midnightblue" stroke="midnightblue" points="1166.2,-137.238 1175.16,-131.584 1164.63,-130.417 1166.2,-137.238"/>
</g>
<!-- Node15&#45;&gt;Node8 -->
<g id="edge29" class="edge"><title>Node15&#45;&gt;Node8</title>
<path fill="none" stroke="midnightblue" d="M970.637,-280.121C969.058,-267.151 967.638,-242.554 976,-224 990.463,-191.91 1003.08,-188.058 1032,-168 1096.28,-123.423 1183.27,-93.4006 1234.14,-78.3336"/>
<polygon fill="midnightblue" stroke="midnightblue" points="1235.19,-81.6733 1243.81,-75.5198 1233.23,-74.9518 1235.19,-81.6733"/>
</g>
<!-- Node16 -->
<g id="node16" class="node"><title>Node16</title>
<g id="a_node16"><a xlink:href="dji__ack_8hpp.html" target="_top" xlink:title="All DJI OSDK ACK parsing. ">
<polygon fill="white" stroke="black" points="402,-224.5 402,-243.5 468,-243.5 468,-224.5 402,-224.5"/>
<text text-anchor="middle" x="435" y="-231.5" font-family="Helvetica,sans-Serif" font-size="10.00">dji_ack.hpp</text>
</a>
</g>
</g>
<!-- Node15&#45;&gt;Node16 -->
<g id="edge20" class="edge"><title>Node15&#45;&gt;Node16</title>
<path fill="none" stroke="midnightblue" d="M931.936,-281.338C928.917,-280.854 925.913,-280.401 923,-280 750.116,-256.213 705.772,-260.061 532,-244 514.428,-242.376 495.065,-240.58 478.291,-239.023"/>
<polygon fill="midnightblue" stroke="midnightblue" points="478.502,-235.528 468.221,-238.088 477.854,-242.498 478.502,-235.528"/>
</g>
<!-- Node16&#45;&gt;Node4 -->
<g id="edge24" class="edge"><title>Node16&#45;&gt;Node4</title>
<path fill="none" stroke="midnightblue" d="M468.481,-225.176C491.719,-218.408 522.282,-206.704 544,-188 558.765,-175.285 569.496,-155.535 575.921,-141.14"/>
<polygon fill="midnightblue" stroke="midnightblue" points="579.205,-142.359 579.835,-131.783 572.747,-139.658 579.205,-142.359"/>
</g>
<!-- Node16&#45;&gt;Node12 -->
<g id="edge21" class="edge"><title>Node16&#45;&gt;Node12</title>
<path fill="none" stroke="midnightblue" d="M401.868,-233.538C363.384,-232.322 300.407,-224.356 263,-188 250.626,-175.974 246.195,-156.373 244.667,-141.835"/>
<polygon fill="midnightblue" stroke="midnightblue" points="248.135,-141.244 243.967,-131.503 241.151,-141.717 248.135,-141.244"/>
</g>
<!-- Node17 -->
<g id="node17" class="node"><title>Node17</title>
<g id="a_node17"><a xlink:href="dji__mission__type_8hpp.html" target="_top" xlink:title="Mission related data struct for DJI OSDK library. ">
<polygon fill="white" stroke="black" points="374,-168.5 374,-187.5 482,-187.5 482,-168.5 374,-168.5"/>
<text text-anchor="middle" x="428" y="-175.5" font-family="Helvetica,sans-Serif" font-size="10.00">dji_mission_type.hpp</text>
</a>
</g>
</g>
<!-- Node16&#45;&gt;Node17 -->
<g id="edge22" class="edge"><title>Node16&#45;&gt;Node17</title>
<path fill="none" stroke="midnightblue" d="M433.844,-224.083C432.916,-216.927 431.582,-206.635 430.423,-197.691"/>
<polygon fill="midnightblue" stroke="midnightblue" points="433.891,-197.218 429.134,-187.751 426.949,-198.118 433.891,-197.218"/>
</g>
<!-- Node16&#45;&gt;Node18 -->
<g id="edge25" class="edge"><title>Node16&#45;&gt;Node18</title>
<path fill="none" stroke="midnightblue" d="M401.673,-228.498C346.822,-221.009 233.849,-205.25 128.066,-188.131"/>
<polygon fill="midnightblue" stroke="midnightblue" points="128.614,-184.674 118.182,-186.524 127.491,-191.583 128.614,-184.674"/>
</g>
<!-- Node19 -->
<g id="node19" class="node"><title>Node19</title>
<polygon fill="white" stroke="#bfbfbf" points="500.5,-168.5 500.5,-187.5 535.5,-187.5 535.5,-168.5 500.5,-168.5"/>
<text text-anchor="middle" x="518" y="-175.5" font-family="Helvetica,sans-Serif" font-size="10.00">map</text>
</g>
<!-- Node16&#45;&gt;Node19 -->
<g id="edge28" class="edge"><title>Node16&#45;&gt;Node19</title>
<path fill="none" stroke="midnightblue" d="M448.335,-224.324C461.162,-215.979 480.785,-203.212 495.94,-193.352"/>
<polygon fill="midnightblue" stroke="midnightblue" points="498.224,-196.042 504.698,-187.655 494.407,-190.174 498.224,-196.042"/>
</g>
<!-- Node17&#45;&gt;Node4 -->
<g id="edge23" class="edge"><title>Node17&#45;&gt;Node4</title>
<path fill="none" stroke="midnightblue" d="M452.56,-168.444C478.523,-159.399 519.668,-145.064 548.797,-134.916"/>
<polygon fill="midnightblue" stroke="midnightblue" points="550.263,-138.112 558.555,-131.516 547.96,-131.501 550.263,-138.112"/>
</g>
<!-- Node18&#45;&gt;Node10 -->
<g id="edge27" class="edge"><title>Node18&#45;&gt;Node10</title>
<path fill="none" stroke="midnightblue" d="M68.083,-168.083C60.2195,-160.22 48.5688,-148.569 39.0813,-139.081"/>
<polygon fill="midnightblue" stroke="midnightblue" points="41.2971,-136.347 31.7511,-131.751 36.3473,-141.297 41.2971,-136.347"/>
</g>
<!-- Node18&#45;&gt;Node12 -->
<g id="edge26" class="edge"><title>Node18&#45;&gt;Node12</title>
<path fill="none" stroke="midnightblue" d="M103.462,-168.444C131.678,-159.32 176.54,-144.813 207.968,-134.651"/>
<polygon fill="midnightblue" stroke="midnightblue" points="209.224,-137.923 217.662,-131.516 207.07,-131.263 209.224,-137.923"/>
</g>
<!-- Node20&#45;&gt;Node4 -->
<g id="edge34" class="edge"><title>Node20&#45;&gt;Node4</title>
<path fill="none" stroke="midnightblue" d="M215.766,-171.724C291.954,-161.615 458.029,-139.581 538.083,-128.96"/>
<polygon fill="midnightblue" stroke="midnightblue" points="538.877,-132.385 548.33,-127.6 537.956,-125.446 538.877,-132.385"/>
</g>
<!-- Node20&#45;&gt;Node12 -->
<g id="edge33" class="edge"><title>Node20&#45;&gt;Node12</title>
<path fill="none" stroke="midnightblue" d="M186.925,-168.324C197.175,-160.185 212.721,-147.839 225.001,-138.087"/>
<polygon fill="midnightblue" stroke="midnightblue" points="227.221,-140.794 232.876,-131.834 222.868,-135.312 227.221,-140.794"/>
</g>
<!-- Node22&#45;&gt;Node4 -->
<g id="edge37" class="edge"><title>Node22&#45;&gt;Node4</title>
<path fill="none" stroke="midnightblue" d="M840.034,-280.485C826.092,-272.463 805.958,-259.397 792,-244 765.934,-215.247 779.652,-191.804 749,-168 714.013,-140.829 663.828,-130.037 627.81,-125.766"/>
<polygon fill="midnightblue" stroke="midnightblue" points="627.899,-122.256 617.586,-124.682 627.161,-129.217 627.899,-122.256"/>
</g>
<!-- Node23&#45;&gt;Node7 -->
<g id="edge39" class="edge"><title>Node23&#45;&gt;Node7</title>
<path fill="none" stroke="midnightblue" d="M1499.55,-224.358C1485.31,-210.31 1455.02,-182.624 1424,-168 1383.85,-149.076 1335.33,-137.897 1296.25,-131.414"/>
<polygon fill="midnightblue" stroke="midnightblue" points="1296.44,-127.9 1286.01,-129.786 1295.34,-134.813 1296.44,-127.9"/>
</g>
<!-- Node25 -->
<g id="node25" class="node"><title>Node25</title>
<g id="a_node25"><a xlink:href="dji__hotpoint_8hpp.html" target="_top" xlink:title="Implementation of HotPoint (Point of Interest) Missions for DJI OSDK. ">
<polygon fill="white" stroke="black" points="648.5,-224.5 648.5,-243.5 733.5,-243.5 733.5,-224.5 648.5,-224.5"/>
<text text-anchor="middle" x="691" y="-231.5" font-family="Helvetica,sans-Serif" font-size="10.00">dji_hotpoint.hpp</text>
</a>
</g>
</g>
<!-- Node24&#45;&gt;Node25 -->
<g id="edge41" class="edge"><title>Node24&#45;&gt;Node25</title>
<path fill="none" stroke="midnightblue" d="M602.87,-280.324C619.709,-271.664 645.807,-258.242 665.238,-248.249"/>
<polygon fill="midnightblue" stroke="midnightblue" points="666.88,-251.341 674.172,-243.655 663.678,-245.116 666.88,-251.341"/>
</g>
<!-- Node27 -->
<g id="node27" class="node"><title>Node27</title>
<g id="a_node27"><a xlink:href="dji__waypoint_8hpp.html" target="_top" xlink:title="Implementation of GPS Waypoint Missions for DJI OSDK. ">
<polygon fill="white" stroke="black" points="541.5,-224.5 541.5,-243.5 630.5,-243.5 630.5,-224.5 541.5,-224.5"/>
<text text-anchor="middle" x="586" y="-231.5" font-family="Helvetica,sans-Serif" font-size="10.00">dji_waypoint.hpp</text>
</a>
</g>
</g>
<!-- Node24&#45;&gt;Node27 -->
<g id="edge47" class="edge"><title>Node24&#45;&gt;Node27</title>
<path fill="none" stroke="midnightblue" d="M586,-280.083C586,-273.006 586,-262.861 586,-253.986"/>
<polygon fill="midnightblue" stroke="midnightblue" points="589.5,-253.751 586,-243.751 582.5,-253.751 589.5,-253.751"/>
</g>
<!-- Node25&#45;&gt;Node3 -->
<g id="edge46" class="edge"><title>Node25&#45;&gt;Node3</title>
<path fill="none" stroke="midnightblue" d="M720.948,-224.444C753.158,-215.241 804.534,-200.562 840.142,-190.388"/>
<polygon fill="midnightblue" stroke="midnightblue" points="841.539,-193.629 850.192,-187.516 839.616,-186.898 841.539,-193.629"/>
</g>
<!-- Node26 -->
<g id="node26" class="node"><title>Node26</title>
<g id="a_node26"><a xlink:href="dji__mission__base_8hpp.html" target="_top" xlink:title="Mission&#45;Base abstract class for DJI OSDK library. ">
<polygon fill="white" stroke="black" points="630,-168.5 630,-187.5 740,-187.5 740,-168.5 630,-168.5"/>
<text text-anchor="middle" x="685" y="-175.5" font-family="Helvetica,sans-Serif" font-size="10.00">dji_mission_base.hpp</text>
</a>
</g>
</g>
<!-- Node25&#45;&gt;Node26 -->
<g id="edge42" class="edge"><title>Node25&#45;&gt;Node26</title>
<path fill="none" stroke="midnightblue" d="M690.009,-224.083C689.214,-216.927 688.071,-206.635 687.077,-197.691"/>
<polygon fill="midnightblue" stroke="midnightblue" points="690.555,-197.303 685.972,-187.751 683.598,-198.076 690.555,-197.303"/>
</g>
<!-- Node26&#45;&gt;Node4 -->
<g id="edge44" class="edge"><title>Node26&#45;&gt;Node4</title>
<path fill="none" stroke="midnightblue" d="M668.612,-168.324C652.329,-159.703 627.133,-146.364 608.284,-136.386"/>
<polygon fill="midnightblue" stroke="midnightblue" points="609.823,-133.24 599.347,-131.655 606.548,-139.427 609.823,-133.24"/>
</g>
<!-- Node26&#45;&gt;Node7 -->
<g id="edge45" class="edge"><title>Node26&#45;&gt;Node7</title>
<path fill="none" stroke="midnightblue" d="M740.001,-171.5C838.311,-161.669 1044.09,-141.091 1153.32,-130.168"/>
<polygon fill="midnightblue" stroke="midnightblue" points="1153.98,-133.62 1163.58,-129.142 1153.28,-126.655 1153.98,-133.62"/>
</g>
<!-- Node26&#45;&gt;Node12 -->
<g id="edge43" class="edge"><title>Node26&#45;&gt;Node12</title>
<path fill="none" stroke="midnightblue" d="M629.594,-170.216C545.342,-159.899 385.85,-140.369 300.786,-129.953"/>
<polygon fill="midnightblue" stroke="midnightblue" points="301.142,-126.471 290.791,-128.73 300.291,-133.419 301.142,-126.471"/>
</g>
<!-- Node27&#45;&gt;Node26 -->
<g id="edge48" class="edge"><title>Node27&#45;&gt;Node26</title>
<path fill="none" stroke="midnightblue" d="M601.906,-224.324C617.638,-215.743 641.942,-202.486 660.209,-192.522"/>
<polygon fill="midnightblue" stroke="midnightblue" points="662.03,-195.516 669.133,-187.655 658.678,-189.37 662.03,-195.516"/>
</g>
<!-- Node28&#45;&gt;Node7 -->
<g id="edge50" class="edge"><title>Node28&#45;&gt;Node7</title>
<path fill="none" stroke="midnightblue" d="M1086.77,-224.368C1112.4,-205.573 1173.5,-160.768 1205.18,-137.533"/>
<polygon fill="midnightblue" stroke="midnightblue" points="1207.29,-140.328 1213.28,-131.591 1203.15,-134.683 1207.29,-140.328"/>
</g>
<!-- Node30&#45;&gt;Node3 -->
<g id="edge55" class="edge"><title>Node30&#45;&gt;Node3</title>
<path fill="none" stroke="midnightblue" d="M1278.43,-225.276C1275.24,-224.834 1272.08,-224.405 1269,-224 1150.55,-208.414 1011.41,-193.021 935.809,-184.901"/>
<polygon fill="midnightblue" stroke="midnightblue" points="935.888,-181.389 925.572,-183.804 935.142,-188.349 935.888,-181.389"/>
</g>
<!-- Node30&#45;&gt;Node7 -->
<g id="edge56" class="edge"><title>Node30&#45;&gt;Node7</title>
<path fill="none" stroke="midnightblue" d="M1321.76,-224.368C1304.2,-205.974 1262.87,-162.671 1240.32,-139.052"/>
<polygon fill="midnightblue" stroke="midnightblue" points="1242.64,-136.408 1233.2,-131.591 1237.57,-141.242 1242.64,-136.408"/>
</g>
<!-- Node30&#45;&gt;Node8 -->
<g id="edge54" class="edge"><title>Node30&#45;&gt;Node8</title>
<path fill="none" stroke="midnightblue" d="M1327.88,-224.382C1322.88,-204.395 1309.68,-153.431 1295,-112 1291.77,-102.895 1287.66,-92.9836 1284.08,-84.7859"/>
<polygon fill="midnightblue" stroke="midnightblue" points="1287.21,-83.2187 1279.95,-75.5083 1280.82,-86.0672 1287.21,-83.2187"/>
</g>
</g>
</svg>
