<?xml version="1.0" encoding="UTF-8" standalone="no"?>
<!DOCTYPE svg PUBLIC "-//W3C//DTD SVG 1.1//EN"
 "http://www.w3.org/Graphics/SVG/1.1/DTD/svg11.dtd">
<!-- Generated by graphviz version 2.38.0 (20140413.2041)
 -->
<!-- Title: osdk&#45;core/api/src/dji_hotpoint.cpp Pages: 1 -->
<!--zoomable 431 -->
<svg id="main" version="1.1" xmlns="http://www.w3.org/2000/svg" xmlns:xlink="http://www.w3.org/1999/xlink" xml:space="preserve" onload="init(evt)">
<style type="text/css"><![CDATA[
.edge:hover path { stroke: red; }
.edge:hover polygon { stroke: red; fill: red; }
]]></style>
<script type="text/javascript"><![CDATA[
var edges = document.getElementsByTagName('g');
if (edges && edges.length) {
  for (var i=0;i<edges.length;i++) {
    if (edges[i].id.substr(0,4)=='edge') {
      edges[i].setAttribute('class','edge');
    }
  }
}
]]></script>
        <defs>
                <circle id="rim" cx="0" cy="0" r="7"/>
                <circle id="rim2" cx="0" cy="0" r="3.5"/>
                <g id="zoomPlus">
                        <use xlink:href="#rim" fill="#404040">
                                <set attributeName="fill" to="#808080" begin="zoomplus.mouseover" end="zoomplus.mouseout"/>
                        </use>
                        <path d="M-4,0h8M0,-4v8" fill="none" stroke="white" stroke-width="1.5" pointer-events="none"/>
                </g>
                <g id="zoomMin">
                        <use xlink:href="#rim" fill="#404040">
                                <set attributeName="fill" to="#808080" begin="zoomminus.mouseover" end="zoomminus.mouseout"/>
                        </use>
                        <path d="M-4,0h8" fill="none" stroke="white" stroke-width="1.5" pointer-events="none"/>
                </g>
                <g id="dirArrow">
                        <path fill="none" stroke="white" stroke-width="1.5" d="M0,-3.0v7 M-2.5,-0.5L0,-3.0L2.5,-0.5"/>
                </g>
               <g id="resetDef">
                       <use xlink:href="#rim2" fill="#404040">
                               <set attributeName="fill" to="#808080" begin="reset.mouseover" end="reset.mouseout"/>
                       </use>
               </g>
        </defs>

<script type="text/javascript">
var viewWidth = 1653;
var viewHeight = 431;
var sectionId = 'dynsection-0';
</script>
<script xlink:href="svgpan.js"/>
<svg id="graph" class="graph">
<g id="viewport">
<title>osdk&#45;core/api/src/dji_hotpoint.cpp</title>
<polygon fill="white" stroke="none" points="-4,4 -4,-427 1648.86,-427 1648.86,4 -4,4"/>
<!-- Node1 -->
<g id="node1" class="node"><title>Node1</title>
<polygon fill="#bfbfbf" stroke="black" points="526,-392.5 526,-422.5 630,-422.5 630,-392.5 526,-392.5"/>
<text text-anchor="start" x="534" y="-410.5" font-family="Helvetica,sans-Serif" font-size="10.00">osdk&#45;core/api/src/dji</text>
<text text-anchor="middle" x="578" y="-399.5" font-family="Helvetica,sans-Serif" font-size="10.00">_hotpoint.cpp</text>
</g>
<!-- Node2 -->
<g id="node2" class="node"><title>Node2</title>
<g id="a_node2"><a xlink:href="dji__hotpoint_8hpp.html" target="_top" xlink:title="Implementation of HotPoint (Point of Interest) Missions for DJI OSDK. ">
<polygon fill="white" stroke="black" points="593.5,-224.5 593.5,-243.5 678.5,-243.5 678.5,-224.5 593.5,-224.5"/>
<text text-anchor="middle" x="636" y="-231.5" font-family="Helvetica,sans-Serif" font-size="10.00">dji_hotpoint.hpp</text>
</a>
</g>
</g>
<!-- Node1&#45;&gt;Node2 -->
<g id="edge1" class="edge"><title>Node1&#45;&gt;Node2</title>
<path fill="none" stroke="midnightblue" d="M558.945,-392.295C529.101,-368.302 477.451,-318.592 505,-280 514.75,-266.342 552.803,-254.202 585.402,-245.983"/>
<polygon fill="midnightblue" stroke="midnightblue" points="586.424,-249.337 595.306,-243.561 584.761,-242.537 586.424,-249.337"/>
</g>
<!-- Node12 -->
<g id="node12" class="node"><title>Node12</title>
<g id="a_node12"><a xlink:href="dji__mission__manager_8hpp.html" target="_top" xlink:title="Mission&#45;Manager API for DJI OSDK library. ">
<polygon fill="white" stroke="black" points="514.5,-280.5 514.5,-299.5 641.5,-299.5 641.5,-280.5 514.5,-280.5"/>
<text text-anchor="middle" x="578" y="-287.5" font-family="Helvetica,sans-Serif" font-size="10.00">dji_mission_manager.hpp</text>
</a>
</g>
</g>
<!-- Node1&#45;&gt;Node12 -->
<g id="edge14" class="edge"><title>Node1&#45;&gt;Node12</title>
<path fill="none" stroke="midnightblue" d="M578,-392.337C578,-371.622 578,-333.016 578,-309.899"/>
<polygon fill="midnightblue" stroke="midnightblue" points="581.5,-309.669 578,-299.669 574.5,-309.669 581.5,-309.669"/>
</g>
<!-- Node14 -->
<g id="node14" class="node"><title>Node14</title>
<g id="a_node14"><a xlink:href="dji__vehicle_8hpp.html" target="_top" xlink:title="Vehicle API for DJI onboardSDK library. ">
<polygon fill="white" stroke="black" points="774.5,-336.5 774.5,-355.5 855.5,-355.5 855.5,-336.5 774.5,-336.5"/>
<text text-anchor="middle" x="815" y="-343.5" font-family="Helvetica,sans-Serif" font-size="10.00">dji_vehicle.hpp</text>
</a>
</g>
</g>
<!-- Node1&#45;&gt;Node14 -->
<g id="edge18" class="edge"><title>Node1&#45;&gt;Node14</title>
<path fill="none" stroke="midnightblue" d="M630.011,-393.442C672.343,-382.815 731.412,-367.985 771.321,-357.966"/>
<polygon fill="midnightblue" stroke="midnightblue" points="772.186,-361.357 781.033,-355.528 770.482,-354.568 772.186,-361.357"/>
</g>
<!-- Node3 -->
<g id="node3" class="node"><title>Node3</title>
<g id="a_node3"><a xlink:href="dji__mission__base_8hpp.html" target="_top" xlink:title="Mission&#45;Base abstract class for DJI OSDK library. ">
<polygon fill="white" stroke="black" points="714,-168.5 714,-187.5 824,-187.5 824,-168.5 714,-168.5"/>
<text text-anchor="middle" x="769" y="-175.5" font-family="Helvetica,sans-Serif" font-size="10.00">dji_mission_base.hpp</text>
</a>
</g>
</g>
<!-- Node2&#45;&gt;Node3 -->
<g id="edge2" class="edge"><title>Node2&#45;&gt;Node3</title>
<path fill="none" stroke="midnightblue" d="M657.074,-224.444C679.06,-215.517 713.734,-201.439 738.664,-191.317"/>
<polygon fill="midnightblue" stroke="midnightblue" points="740.076,-194.521 748.024,-187.516 737.442,-188.035 740.076,-194.521"/>
</g>
<!-- Node11 -->
<g id="node11" class="node"><title>Node11</title>
<g id="a_node11"><a xlink:href="dji__telemetry_8hpp.html" target="_top" xlink:title="Enumeration of all telemetry data types, structures and maps. ">
<polygon fill="white" stroke="black" points="566.5,-168.5 566.5,-187.5 657.5,-187.5 657.5,-168.5 566.5,-168.5"/>
<text text-anchor="middle" x="612" y="-175.5" font-family="Helvetica,sans-Serif" font-size="10.00">dji_telemetry.hpp</text>
</a>
</g>
</g>
<!-- Node2&#45;&gt;Node11 -->
<g id="edge12" class="edge"><title>Node2&#45;&gt;Node11</title>
<path fill="none" stroke="midnightblue" d="M632.037,-224.083C628.787,-216.77 624.081,-206.181 620.046,-197.103"/>
<polygon fill="midnightblue" stroke="midnightblue" points="623.149,-195.468 615.889,-187.751 616.752,-198.311 623.149,-195.468"/>
</g>
<!-- Node4 -->
<g id="node4" class="node"><title>Node4</title>
<g id="a_node4"><a xlink:href="dji__command_8hpp.html" target="_top" xlink:title="All DJI OSDK OpenProtocol Command IDs. ">
<polygon fill="white" stroke="black" points="1381.5,-112.5 1381.5,-131.5 1474.5,-131.5 1474.5,-112.5 1381.5,-112.5"/>
<text text-anchor="middle" x="1428" y="-119.5" font-family="Helvetica,sans-Serif" font-size="10.00">dji_command.hpp</text>
</a>
</g>
</g>
<!-- Node3&#45;&gt;Node4 -->
<g id="edge3" class="edge"><title>Node3&#45;&gt;Node4</title>
<path fill="none" stroke="midnightblue" d="M824.052,-172.489C947.566,-162.368 1245.73,-137.936 1371.03,-127.669"/>
<polygon fill="midnightblue" stroke="midnightblue" points="1371.5,-131.142 1381.18,-126.837 1370.92,-124.165 1371.5,-131.142"/>
</g>
<!-- Node7 -->
<g id="node7" class="node"><title>Node7</title>
<g id="a_node7"><a xlink:href="dji__type_8hpp.html" target="_top" xlink:title="Data type and Data Structure definitions for use throughout DJI OSDK. ">
<polygon fill="white" stroke="black" points="1205.5,-112.5 1205.5,-131.5 1274.5,-131.5 1274.5,-112.5 1205.5,-112.5"/>
<text text-anchor="middle" x="1240" y="-119.5" font-family="Helvetica,sans-Serif" font-size="10.00">dji_type.hpp</text>
</a>
</g>
</g>
<!-- Node3&#45;&gt;Node7 -->
<g id="edge7" class="edge"><title>Node3&#45;&gt;Node7</title>
<path fill="none" stroke="midnightblue" d="M824.415,-170.647C918.819,-159.823 1108.99,-138.02 1195.43,-128.11"/>
<polygon fill="midnightblue" stroke="midnightblue" points="1195.9,-131.579 1205.44,-126.962 1195.11,-124.624 1195.9,-131.579"/>
</g>
<!-- Node9 -->
<g id="node9" class="node"><title>Node9</title>
<g id="a_node9"><a xlink:href="dji__vehicle__callback_8hpp.html" target="_top" xlink:title="Type definition for new Vehicle&#45;style callbacks. ">
<polygon fill="white" stroke="black" points="330,-112.5 330,-131.5 452,-131.5 452,-112.5 330,-112.5"/>
<text text-anchor="middle" x="391" y="-119.5" font-family="Helvetica,sans-Serif" font-size="10.00">dji_vehicle_callback.hpp</text>
</a>
</g>
</g>
<!-- Node3&#45;&gt;Node9 -->
<g id="edge10" class="edge"><title>Node3&#45;&gt;Node9</title>
<path fill="none" stroke="midnightblue" d="M713.631,-169.09C646.551,-159.507 533.492,-143.356 460.586,-132.941"/>
<polygon fill="midnightblue" stroke="midnightblue" points="460.968,-129.46 450.574,-131.511 459.978,-136.39 460.968,-129.46"/>
</g>
<!-- Node5 -->
<g id="node5" class="node"><title>Node5</title>
<g id="a_node5"><a xlink:href="dji__error_8hpp.html" target="_top" xlink:title="All DJI OSDK OpenProtocol ACK Error Codes. ">
<polygon fill="white" stroke="black" points="1393,-56.5 1393,-75.5 1463,-75.5 1463,-56.5 1393,-56.5"/>
<text text-anchor="middle" x="1428" y="-63.5" font-family="Helvetica,sans-Serif" font-size="10.00">dji_error.hpp</text>
</a>
</g>
</g>
<!-- Node4&#45;&gt;Node5 -->
<g id="edge4" class="edge"><title>Node4&#45;&gt;Node5</title>
<path fill="none" stroke="midnightblue" d="M1428,-112.083C1428,-105.006 1428,-94.8611 1428,-85.9865"/>
<polygon fill="midnightblue" stroke="midnightblue" points="1431.5,-85.751 1428,-75.7511 1424.5,-85.7511 1431.5,-85.751"/>
</g>
<!-- Node6 -->
<g id="node6" class="node"><title>Node6</title>
<polygon fill="white" stroke="#bfbfbf" points="1340.5,-0.5 1340.5,-19.5 1389.5,-19.5 1389.5,-0.5 1340.5,-0.5"/>
<text text-anchor="middle" x="1365" y="-7.5" font-family="Helvetica,sans-Serif" font-size="10.00">stdint.h</text>
</g>
<!-- Node4&#45;&gt;Node6 -->
<g id="edge6" class="edge"><title>Node4&#45;&gt;Node6</title>
<path fill="none" stroke="midnightblue" d="M1416.66,-112.179C1406.69,-103.859 1392.5,-90.5244 1384,-76 1375.56,-61.5704 1370.63,-43.1178 1367.92,-29.5626"/>
<polygon fill="midnightblue" stroke="midnightblue" points="1371.33,-28.7564 1366.14,-19.5238 1364.44,-29.9822 1371.33,-28.7564"/>
</g>
<!-- Node5&#45;&gt;Node6 -->
<g id="edge5" class="edge"><title>Node5&#45;&gt;Node6</title>
<path fill="none" stroke="midnightblue" d="M1417.88,-56.324C1408.47,-48.2631 1394.26,-36.0765 1382.93,-26.3695"/>
<polygon fill="midnightblue" stroke="midnightblue" points="1385.18,-23.6844 1375.31,-19.8339 1380.62,-28.9993 1385.18,-23.6844"/>
</g>
<!-- Node7&#45;&gt;Node6 -->
<g id="edge9" class="edge"><title>Node7&#45;&gt;Node6</title>
<path fill="none" stroke="midnightblue" d="M1240.25,-112.303C1241.1,-98.6722 1244.62,-72.1655 1259,-56 1277.52,-35.1778 1307.29,-23.6898 1330.58,-17.5443"/>
<polygon fill="midnightblue" stroke="midnightblue" points="1331.54,-20.9129 1340.43,-15.154 1329.89,-14.1102 1331.54,-20.9129"/>
</g>
<!-- Node8 -->
<g id="node8" class="node"><title>Node8</title>
<polygon fill="white" stroke="#bfbfbf" points="1268.5,-56.5 1268.5,-75.5 1311.5,-75.5 1311.5,-56.5 1268.5,-56.5"/>
<text text-anchor="middle" x="1290" y="-63.5" font-family="Helvetica,sans-Serif" font-size="10.00">cstdio</text>
</g>
<!-- Node7&#45;&gt;Node8 -->
<g id="edge8" class="edge"><title>Node7&#45;&gt;Node8</title>
<path fill="none" stroke="midnightblue" d="M1248.26,-112.083C1255.46,-104.298 1266.11,-92.8015 1274.85,-83.3665"/>
<polygon fill="midnightblue" stroke="midnightblue" points="1277.67,-85.4666 1281.9,-75.7511 1272.53,-80.7108 1277.67,-85.4666"/>
</g>
<!-- Node10 -->
<g id="node10" class="node"><title>Node10</title>
<polygon fill="white" stroke="#bfbfbf" points="335.5,-56.5 335.5,-75.5 446.5,-75.5 446.5,-56.5 335.5,-56.5"/>
<text text-anchor="middle" x="391" y="-63.5" font-family="Helvetica,sans-Serif" font-size="10.00">dji_open_protocol.hpp</text>
</g>
<!-- Node9&#45;&gt;Node10 -->
<g id="edge11" class="edge"><title>Node9&#45;&gt;Node10</title>
<path fill="none" stroke="midnightblue" d="M391,-112.083C391,-105.006 391,-94.8611 391,-85.9865"/>
<polygon fill="midnightblue" stroke="midnightblue" points="394.5,-85.751 391,-75.7511 387.5,-85.7511 394.5,-85.751"/>
</g>
<!-- Node11&#45;&gt;Node7 -->
<g id="edge13" class="edge"><title>Node11&#45;&gt;Node7</title>
<path fill="none" stroke="midnightblue" d="M657.873,-172.445C672.889,-170.985 689.652,-169.388 705,-168 886.677,-151.569 1103.25,-133.961 1195.18,-126.578"/>
<polygon fill="midnightblue" stroke="midnightblue" points="1195.56,-130.059 1205.25,-125.771 1195,-123.082 1195.56,-130.059"/>
</g>
<!-- Node12&#45;&gt;Node2 -->
<g id="edge15" class="edge"><title>Node12&#45;&gt;Node2</title>
<path fill="none" stroke="midnightblue" d="M587.319,-280.324C595.893,-272.341 608.812,-260.313 619.188,-250.653"/>
<polygon fill="midnightblue" stroke="midnightblue" points="621.578,-253.21 626.512,-243.834 616.808,-248.086 621.578,-253.21"/>
</g>
<!-- Node13 -->
<g id="node13" class="node"><title>Node13</title>
<g id="a_node13"><a xlink:href="dji__waypoint_8hpp.html" target="_top" xlink:title="Implementation of GPS Waypoint Missions for DJI OSDK. ">
<polygon fill="white" stroke="black" points="696.5,-224.5 696.5,-243.5 785.5,-243.5 785.5,-224.5 696.5,-224.5"/>
<text text-anchor="middle" x="741" y="-231.5" font-family="Helvetica,sans-Serif" font-size="10.00">dji_waypoint.hpp</text>
</a>
</g>
</g>
<!-- Node12&#45;&gt;Node13 -->
<g id="edge16" class="edge"><title>Node12&#45;&gt;Node13</title>
<path fill="none" stroke="midnightblue" d="M603.828,-280.444C631.249,-271.359 674.777,-256.939 705.432,-246.783"/>
<polygon fill="midnightblue" stroke="midnightblue" points="706.901,-249.984 715.293,-243.516 704.7,-243.339 706.901,-249.984"/>
</g>
<!-- Node13&#45;&gt;Node3 -->
<g id="edge17" class="edge"><title>Node13&#45;&gt;Node3</title>
<path fill="none" stroke="midnightblue" d="M745.624,-224.083C749.456,-216.691 755.024,-205.953 759.765,-196.811"/>
<polygon fill="midnightblue" stroke="midnightblue" points="762.966,-198.24 764.462,-187.751 756.752,-195.018 762.966,-198.24"/>
</g>
<!-- Node14&#45;&gt;Node4 -->
<g id="edge27" class="edge"><title>Node14&#45;&gt;Node4</title>
<path fill="none" stroke="midnightblue" d="M855.687,-344.248C1015.09,-341.107 1589.64,-327.881 1616,-300 1656.3,-257.369 1652.34,-214.06 1616,-168 1599.81,-147.478 1533.72,-135.27 1484.45,-128.855"/>
<polygon fill="midnightblue" stroke="midnightblue" points="1484.88,-125.383 1474.52,-127.611 1484.01,-132.328 1484.88,-125.383"/>
</g>
<!-- Node14&#45;&gt;Node7 -->
<g id="edge60" class="edge"><title>Node14&#45;&gt;Node7</title>
<path fill="none" stroke="midnightblue" d="M855.708,-341.894C913.631,-336.675 1015.84,-324.25 1043,-300 1088.93,-258.999 1040.92,-210.974 1085,-168 1114.37,-139.373 1160.82,-128.77 1195.22,-124.939"/>
<polygon fill="midnightblue" stroke="midnightblue" points="1195.86,-128.394 1205.48,-123.955 1195.19,-121.426 1195.86,-128.394"/>
</g>
<!-- Node14&#45;&gt;Node9 -->
<g id="edge61" class="edge"><title>Node14&#45;&gt;Node9</title>
<path fill="none" stroke="midnightblue" d="M774.399,-343.552C685.313,-339.882 475.505,-328.411 411,-300 376.41,-284.765 362.618,-278.418 347,-244 330.538,-207.721 358.325,-163.308 376.728,-139.671"/>
<polygon fill="midnightblue" stroke="midnightblue" points="379.622,-141.659 383.209,-131.69 374.188,-137.246 379.622,-141.659"/>
</g>
<!-- Node14&#45;&gt;Node10 -->
<g id="edge52" class="edge"><title>Node14&#45;&gt;Node10</title>
<path fill="none" stroke="midnightblue" d="M774.305,-343.844C609.445,-338.631 0,-314.018 0,-235 0,-235 0,-235 0,-177 0,-110.242 213.884,-82.0612 325.272,-71.9117"/>
<polygon fill="midnightblue" stroke="midnightblue" points="325.743,-75.3837 335.394,-71.0132 325.124,-68.4111 325.743,-75.3837"/>
</g>
<!-- Node14&#45;&gt;Node12 -->
<g id="edge49" class="edge"><title>Node14&#45;&gt;Node12</title>
<path fill="none" stroke="midnightblue" d="M777.447,-336.444C736.189,-327.043 669.856,-311.929 625.134,-301.739"/>
<polygon fill="midnightblue" stroke="midnightblue" points="625.905,-298.326 615.378,-299.516 624.35,-305.151 625.905,-298.326"/>
</g>
<!-- Node15 -->
<g id="node15" class="node"><title>Node15</title>
<polygon fill="white" stroke="#bfbfbf" points="624,-112.5 624,-131.5 670,-131.5 670,-112.5 624,-112.5"/>
<text text-anchor="middle" x="647" y="-119.5" font-family="Helvetica,sans-Serif" font-size="10.00">cstdint</text>
</g>
<!-- Node14&#45;&gt;Node15 -->
<g id="edge19" class="edge"><title>Node14&#45;&gt;Node15</title>
<path fill="none" stroke="midnightblue" d="M774.294,-344.183C698.287,-341.877 538.618,-333.118 496,-300 468.134,-278.346 456.348,-255.115 473,-224 501.777,-170.23 572.242,-142.823 614.142,-130.831"/>
<polygon fill="midnightblue" stroke="midnightblue" points="615.158,-134.182 623.884,-128.173 613.316,-127.429 615.158,-134.182"/>
</g>
<!-- Node16 -->
<g id="node16" class="node"><title>Node16</title>
<g id="a_node16"><a xlink:href="dji__broadcast_8hpp.html" target="_top" xlink:title="Broadcast Telemetry API for DJI onboardSDK library. ">
<polygon fill="white" stroke="black" points="482.5,-224.5 482.5,-243.5 575.5,-243.5 575.5,-224.5 482.5,-224.5"/>
<text text-anchor="middle" x="529" y="-231.5" font-family="Helvetica,sans-Serif" font-size="10.00">dji_broadcast.hpp</text>
</a>
</g>
</g>
<!-- Node14&#45;&gt;Node16 -->
<g id="edge20" class="edge"><title>Node14&#45;&gt;Node16</title>
<path fill="none" stroke="midnightblue" d="M774.452,-345.377C698.509,-345.123 539.385,-339.736 505,-300 493.006,-286.139 503.793,-265.75 514.491,-251.515"/>
<polygon fill="midnightblue" stroke="midnightblue" points="517.36,-253.534 520.936,-243.561 511.921,-249.127 517.36,-253.534"/>
</g>
<!-- Node17 -->
<g id="node17" class="node"><title>Node17</title>
<g id="a_node17"><a xlink:href="dji__camera_8hpp.html" target="_top" xlink:title="Camera/Gimbal API for DJI onboardSDK library. ">
<polygon fill="white" stroke="black" points="1524.5,-168.5 1524.5,-187.5 1607.5,-187.5 1607.5,-168.5 1524.5,-168.5"/>
<text text-anchor="middle" x="1566" y="-175.5" font-family="Helvetica,sans-Serif" font-size="10.00">dji_camera.hpp</text>
</a>
</g>
</g>
<!-- Node14&#45;&gt;Node17 -->
<g id="edge23" class="edge"><title>Node14&#45;&gt;Node17</title>
<path fill="none" stroke="midnightblue" d="M855.736,-344.186C1012.64,-340.856 1570.38,-327.143 1596,-300 1623.13,-271.266 1596.3,-221.972 1578.68,-196.059"/>
<polygon fill="midnightblue" stroke="midnightblue" points="1581.36,-193.788 1572.72,-187.652 1575.65,-197.835 1581.36,-193.788"/>
</g>
<!-- Node18 -->
<g id="node18" class="node"><title>Node18</title>
<polygon fill="white" stroke="#bfbfbf" points="698,-280.5 698,-299.5 810,-299.5 810,-280.5 698,-280.5"/>
<text text-anchor="middle" x="754" y="-287.5" font-family="Helvetica,sans-Serif" font-size="10.00">dji_circular_buffer.hpp</text>
</g>
<!-- Node14&#45;&gt;Node18 -->
<g id="edge26" class="edge"><title>Node14&#45;&gt;Node18</title>
<path fill="none" stroke="midnightblue" d="M805.199,-336.324C796.182,-328.341 782.594,-316.313 771.682,-306.653"/>
<polygon fill="midnightblue" stroke="midnightblue" points="773.787,-303.842 763.979,-299.834 769.147,-309.083 773.787,-303.842"/>
</g>
<!-- Node19 -->
<g id="node19" class="node"><title>Node19</title>
<g id="a_node19"><a xlink:href="dji__control_8hpp.html" target="_top" xlink:title="Control API for DJI OSDK library. ">
<polygon fill="white" stroke="black" points="1332,-280.5 1332,-299.5 1412,-299.5 1412,-280.5 1332,-280.5"/>
<text text-anchor="middle" x="1372" y="-287.5" font-family="Helvetica,sans-Serif" font-size="10.00">dji_control.hpp</text>
</a>
</g>
</g>
<!-- Node14&#45;&gt;Node19 -->
<g id="edge28" class="edge"><title>Node14&#45;&gt;Node19</title>
<path fill="none" stroke="midnightblue" d="M855.555,-342.638C941.71,-337.349 1149.24,-323.168 1322,-300 1322.1,-299.986 1322.2,-299.973 1322.3,-299.959"/>
<polygon fill="midnightblue" stroke="midnightblue" points="1322.55,-303.461 1331.93,-298.538 1321.53,-296.536 1322.55,-303.461"/>
</g>
<!-- Node22 -->
<g id="node22" class="node"><title>Node22</title>
<g id="a_node22"><a xlink:href="dji__version_8hpp.html" target="_top" xlink:title="Drone/SDK Version definition for DJI onboardSDK library. ">
<polygon fill="white" stroke="black" points="918,-168.5 918,-187.5 1000,-187.5 1000,-168.5 918,-168.5"/>
<text text-anchor="middle" x="959" y="-175.5" font-family="Helvetica,sans-Serif" font-size="10.00">dji_version.hpp</text>
</a>
</g>
</g>
<!-- Node14&#45;&gt;Node22 -->
<g id="edge62" class="edge"><title>Node14&#45;&gt;Node22</title>
<path fill="none" stroke="midnightblue" d="M774.461,-339.589C728.973,-331.746 664.535,-314.25 689,-280 717.674,-239.856 747.705,-261.045 794,-244 841.392,-226.551 895.794,-204.776 928.765,-191.383"/>
<polygon fill="midnightblue" stroke="midnightblue" points="930.336,-194.523 938.277,-187.51 927.696,-188.04 930.336,-194.523"/>
</g>
<!-- Node24 -->
<g id="node24" class="node"><title>Node24</title>
<g id="a_node24"><a xlink:href="dji__gimbal_8hpp.html" target="_top" xlink:title="Gimbal API for OSDK library. ">
<polygon fill="white" stroke="black" points="1388.5,-168.5 1388.5,-187.5 1467.5,-187.5 1467.5,-168.5 1388.5,-168.5"/>
<text text-anchor="middle" x="1428" y="-175.5" font-family="Helvetica,sans-Serif" font-size="10.00">dji_gimbal.hpp</text>
</a>
</g>
</g>
<!-- Node14&#45;&gt;Node24 -->
<g id="edge41" class="edge"><title>Node14&#45;&gt;Node24</title>
<path fill="none" stroke="midnightblue" d="M855.743,-344.122C1010.05,-340.602 1551.11,-326.409 1576,-300 1618.41,-255.004 1520.7,-211.412 1464.36,-191.014"/>
<polygon fill="midnightblue" stroke="midnightblue" points="1465.29,-187.632 1454.7,-187.596 1462.96,-194.231 1465.29,-187.632"/>
</g>
<!-- Node25 -->
<g id="node25" class="node"><title>Node25</title>
<polygon fill="white" stroke="#bfbfbf" points="828,-280.5 828,-299.5 926,-299.5 926,-280.5 828,-280.5"/>
<text text-anchor="middle" x="877" y="-287.5" font-family="Helvetica,sans-Serif" font-size="10.00">dji_hard_driver.hpp</text>
</g>
<!-- Node14&#45;&gt;Node25 -->
<g id="edge44" class="edge"><title>Node14&#45;&gt;Node25</title>
<path fill="none" stroke="midnightblue" d="M824.961,-336.324C834.127,-328.341 847.937,-316.313 859.028,-306.653"/>
<polygon fill="midnightblue" stroke="midnightblue" points="861.615,-309.041 866.857,-299.834 857.018,-303.762 861.615,-309.041"/>
</g>
<!-- Node26 -->
<g id="node26" class="node"><title>Node26</title>
<g id="a_node26"><a xlink:href="dji__hardware__sync_8hpp.html" target="_top" xlink:title="Hardware Sync API for DJI OSDK. ">
<polygon fill="white" stroke="black" points="1411,-224.5 1411,-243.5 1527,-243.5 1527,-224.5 1411,-224.5"/>
<text text-anchor="middle" x="1469" y="-231.5" font-family="Helvetica,sans-Serif" font-size="10.00">dji_hardware_sync.hpp</text>
</a>
</g>
</g>
<!-- Node14&#45;&gt;Node26 -->
<g id="edge45" class="edge"><title>Node14&#45;&gt;Node26</title>
<path fill="none" stroke="midnightblue" d="M855.611,-344.068C1007.5,-340.388 1534.72,-325.794 1559,-300 1579.74,-277.966 1541.19,-258.511 1508.27,-246.758"/>
<polygon fill="midnightblue" stroke="midnightblue" points="1509.35,-243.426 1498.75,-243.508 1507.09,-250.051 1509.35,-243.426"/>
</g>
<!-- Node27 -->
<g id="node27" class="node"><title>Node27</title>
<g id="a_node27"><a xlink:href="dji__mfio_8hpp.html" target="_top" xlink:title="MFIO API for DJI OSDK library. ">
<polygon fill="white" stroke="black" points="356.5,-224.5 356.5,-243.5 425.5,-243.5 425.5,-224.5 356.5,-224.5"/>
<text text-anchor="middle" x="391" y="-231.5" font-family="Helvetica,sans-Serif" font-size="10.00">dji_mfio.hpp</text>
</a>
</g>
</g>
<!-- Node14&#45;&gt;Node27 -->
<g id="edge47" class="edge"><title>Node14&#45;&gt;Node27</title>
<path fill="none" stroke="midnightblue" d="M774.49,-344.455C688.355,-342.627 490.289,-334.663 434,-300 416.589,-289.278 404.749,-268.563 397.971,-253.39"/>
<polygon fill="midnightblue" stroke="midnightblue" points="401.13,-251.871 394.08,-243.962 394.659,-254.541 401.13,-251.871"/>
</g>
<!-- Node28 -->
<g id="node28" class="node"><title>Node28</title>
<g id="a_node28"><a xlink:href="dji__mobile__communication_8hpp.html" target="_top" xlink:title="Implementation of DJI Mobile&#45;Onboard SDK Communication (MOC) ">
<polygon fill="white" stroke="black" points="28,-224.5 28,-243.5 178,-243.5 178,-224.5 28,-224.5"/>
<text text-anchor="middle" x="103" y="-231.5" font-family="Helvetica,sans-Serif" font-size="10.00">dji_mobile_communication.hpp</text>
</a>
</g>
</g>
<!-- Node14&#45;&gt;Node28 -->
<g id="edge50" class="edge"><title>Node14&#45;&gt;Node28</title>
<path fill="none" stroke="midnightblue" d="M774.34,-345.199C684.449,-344.851 462.494,-339.657 282,-300 226.893,-287.892 165.713,-263.042 131.045,-247.819"/>
<polygon fill="midnightblue" stroke="midnightblue" points="132.144,-244.478 121.584,-243.614 129.301,-250.874 132.144,-244.478"/>
</g>
<!-- Node29 -->
<g id="node29" class="node"><title>Node29</title>
<polygon fill="white" stroke="#bfbfbf" points="1090,-280.5 1090,-299.5 1218,-299.5 1218,-280.5 1090,-280.5"/>
<text text-anchor="middle" x="1154" y="-287.5" font-family="Helvetica,sans-Serif" font-size="10.00">dji_platform_manager.hpp</text>
</g>
<!-- Node14&#45;&gt;Node29 -->
<g id="edge53" class="edge"><title>Node14&#45;&gt;Node29</title>
<path fill="none" stroke="midnightblue" d="M855.555,-338.54C913.728,-329.273 1021.42,-312.119 1090.29,-301.148"/>
<polygon fill="midnightblue" stroke="midnightblue" points="1091.25,-304.539 1100.58,-299.509 1090.15,-297.626 1091.25,-304.539"/>
</g>
<!-- Node30 -->
<g id="node30" class="node"><title>Node30</title>
<g id="a_node30"><a xlink:href="dji__status_8hpp.html" target="_top" xlink:title="Status information for DJI Vehicle. ">
<polygon fill="white" stroke="black" points="1236.5,-280.5 1236.5,-299.5 1313.5,-299.5 1313.5,-280.5 1236.5,-280.5"/>
<text text-anchor="middle" x="1275" y="-287.5" font-family="Helvetica,sans-Serif" font-size="10.00">dji_status.hpp</text>
</a>
</g>
</g>
<!-- Node14&#45;&gt;Node30 -->
<g id="edge54" class="edge"><title>Node14&#45;&gt;Node30</title>
<path fill="none" stroke="midnightblue" d="M855.775,-341.589C928.16,-335.308 1084.06,-320.763 1226.07,-300.029"/>
<polygon fill="midnightblue" stroke="midnightblue" points="1226.89,-303.446 1236.27,-298.525 1225.87,-296.521 1226.89,-303.446"/>
</g>
<!-- Node31 -->
<g id="node31" class="node"><title>Node31</title>
<g id="a_node31"><a xlink:href="dji__subscription_8hpp.html" target="_top" xlink:title="Telemetry Subscription API for DJI OSDK library. ">
<polygon fill="white" stroke="black" points="196.5,-224.5 196.5,-243.5 299.5,-243.5 299.5,-224.5 196.5,-224.5"/>
<text text-anchor="middle" x="248" y="-231.5" font-family="Helvetica,sans-Serif" font-size="10.00">dji_subscription.hpp</text>
</a>
</g>
</g>
<!-- Node14&#45;&gt;Node31 -->
<g id="edge55" class="edge"><title>Node14&#45;&gt;Node31</title>
<path fill="none" stroke="midnightblue" d="M774.472,-344.846C670.292,-343.903 395.622,-337.797 314,-300 291.065,-289.38 271.417,-267.303 259.663,-251.838"/>
<polygon fill="midnightblue" stroke="midnightblue" points="262.404,-249.657 253.689,-243.633 256.745,-253.777 262.404,-249.657"/>
</g>
<!-- Node32 -->
<g id="node32" class="node"><title>Node32</title>
<polygon fill="white" stroke="#bfbfbf" points="1430,-280.5 1430,-299.5 1550,-299.5 1550,-280.5 1430,-280.5"/>
<text text-anchor="middle" x="1490" y="-287.5" font-family="Helvetica,sans-Serif" font-size="10.00">dji_thread_manager.hpp</text>
</g>
<!-- Node14&#45;&gt;Node32 -->
<g id="edge59" class="edge"><title>Node14&#45;&gt;Node32</title>
<path fill="none" stroke="midnightblue" d="M855.854,-342.753C952.144,-337.287 1201.05,-322.174 1419.75,-300.075"/>
<polygon fill="midnightblue" stroke="midnightblue" points="1420.22,-303.545 1429.81,-299.051 1419.51,-296.581 1420.22,-303.545"/>
</g>
<!-- Node33 -->
<g id="node33" class="node"><title>Node33</title>
<g id="a_node33"><a xlink:href="dji__virtual__rc_8hpp.html" target="_top" xlink:title="Virtual Radio Control API for DJI onboardSDK library. ">
<polygon fill="white" stroke="black" points="944,-280.5 944,-299.5 1034,-299.5 1034,-280.5 944,-280.5"/>
<text text-anchor="middle" x="989" y="-287.5" font-family="Helvetica,sans-Serif" font-size="10.00">dji_virtual_rc.hpp</text>
</a>
</g>
</g>
<!-- Node14&#45;&gt;Node33 -->
<g id="edge63" class="edge"><title>Node14&#45;&gt;Node33</title>
<path fill="none" stroke="midnightblue" d="M842.571,-336.444C872.097,-327.28 919.118,-312.688 951.883,-302.519"/>
<polygon fill="midnightblue" stroke="midnightblue" points="953.045,-305.823 961.558,-299.516 950.97,-299.138 953.045,-305.823"/>
</g>
<!-- Node16&#45;&gt;Node9 -->
<g id="edge22" class="edge"><title>Node16&#45;&gt;Node9</title>
<path fill="none" stroke="midnightblue" d="M518.171,-224.368C494.692,-205.653 438.862,-161.151 409.608,-137.832"/>
<polygon fill="midnightblue" stroke="midnightblue" points="411.78,-135.088 401.778,-131.591 407.416,-140.561 411.78,-135.088"/>
</g>
<!-- Node16&#45;&gt;Node11 -->
<g id="edge21" class="edge"><title>Node16&#45;&gt;Node11</title>
<path fill="none" stroke="midnightblue" d="M542.335,-224.324C555.162,-215.979 574.785,-203.212 589.94,-193.352"/>
<polygon fill="midnightblue" stroke="midnightblue" points="592.224,-196.042 598.698,-187.655 588.407,-190.174 592.224,-196.042"/>
</g>
<!-- Node17&#45;&gt;Node4 -->
<g id="edge24" class="edge"><title>Node17&#45;&gt;Node4</title>
<path fill="none" stroke="midnightblue" d="M1544.13,-168.444C1521.22,-159.478 1485.02,-145.314 1459.13,-135.183"/>
<polygon fill="midnightblue" stroke="midnightblue" points="1460.35,-131.901 1449.76,-131.516 1457.8,-138.42 1460.35,-131.901"/>
</g>
<!-- Node17&#45;&gt;Node7 -->
<g id="edge25" class="edge"><title>Node17&#45;&gt;Node7</title>
<path fill="none" stroke="midnightblue" d="M1524.38,-170.106C1462.92,-159.925 1348.34,-140.945 1284.99,-130.453"/>
<polygon fill="midnightblue" stroke="midnightblue" points="1285.35,-126.964 1274.91,-128.782 1284.2,-133.87 1285.35,-126.964"/>
</g>
<!-- Node19&#45;&gt;Node7 -->
<g id="edge39" class="edge"><title>Node19&#45;&gt;Node7</title>
<path fill="none" stroke="midnightblue" d="M1368.58,-280.274C1360.01,-259.172 1335.9,-204.436 1303,-168 1291.91,-155.717 1276.92,-144.841 1264.34,-136.859"/>
<polygon fill="midnightblue" stroke="midnightblue" points="1266.05,-133.806 1255.7,-131.579 1262.4,-139.779 1266.05,-133.806"/>
</g>
<!-- Node19&#45;&gt;Node9 -->
<g id="edge40" class="edge"><title>Node19&#45;&gt;Node9</title>
<path fill="none" stroke="midnightblue" d="M1331.9,-281.673C1328.55,-281.094 1325.22,-280.53 1322,-280 1048.42,-234.992 968.959,-272.825 705,-188 686.454,-182.04 684.503,-174.091 666,-168 598.839,-145.891 518.731,-134.359 462.349,-128.534"/>
<polygon fill="midnightblue" stroke="midnightblue" points="462.404,-125.022 452.106,-127.511 461.709,-131.987 462.404,-125.022"/>
</g>
<!-- Node19&#45;&gt;Node10 -->
<g id="edge38" class="edge"><title>Node19&#45;&gt;Node10</title>
<path fill="none" stroke="midnightblue" d="M1331.88,-281.77C1328.54,-281.17 1325.21,-280.574 1322,-280 1231.8,-263.884 1208.46,-263.823 1119,-244 1024.69,-223.103 1000.12,-220.061 909,-188 889.291,-181.065 757.122,-117.627 737,-112 641.642,-85.3317 526.993,-74.373 456.567,-69.935"/>
<polygon fill="midnightblue" stroke="midnightblue" points="456.698,-66.4366 446.505,-69.3265 456.275,-73.4239 456.698,-66.4366"/>
</g>
<!-- Node20 -->
<g id="node20" class="node"><title>Node20</title>
<g id="a_node20"><a xlink:href="dji__ack_8hpp.html" target="_top" xlink:title="All DJI OSDK ACK parsing. ">
<polygon fill="white" stroke="black" points="1128,-224.5 1128,-243.5 1194,-243.5 1194,-224.5 1128,-224.5"/>
<text text-anchor="middle" x="1161" y="-231.5" font-family="Helvetica,sans-Serif" font-size="10.00">dji_ack.hpp</text>
</a>
</g>
</g>
<!-- Node19&#45;&gt;Node20 -->
<g id="edge29" class="edge"><title>Node19&#45;&gt;Node20</title>
<path fill="none" stroke="midnightblue" d="M1338.57,-280.444C1302.14,-271.122 1243.77,-256.183 1203.97,-245.997"/>
<polygon fill="midnightblue" stroke="midnightblue" points="1204.83,-242.605 1194.28,-243.516 1203.1,-249.387 1204.83,-242.605"/>
</g>
<!-- Node20&#45;&gt;Node4 -->
<g id="edge30" class="edge"><title>Node20&#45;&gt;Node4</title>
<path fill="none" stroke="midnightblue" d="M1194.15,-233.472C1267.47,-233.734 1439.76,-229.785 1476,-188 1490.36,-171.441 1469.31,-150.88 1450.72,-137.372"/>
<polygon fill="midnightblue" stroke="midnightblue" points="1452.45,-134.313 1442.23,-131.529 1448.48,-140.08 1452.45,-134.313"/>
</g>
<!-- Node20&#45;&gt;Node7 -->
<g id="edge33" class="edge"><title>Node20&#45;&gt;Node7</title>
<path fill="none" stroke="midnightblue" d="M1161.26,-224.234C1162.05,-210.973 1165.13,-185.505 1177,-168 1185.92,-154.841 1200.05,-144.235 1212.67,-136.632"/>
<polygon fill="midnightblue" stroke="midnightblue" points="1214.52,-139.608 1221.49,-131.633 1211.07,-133.517 1214.52,-139.608"/>
</g>
<!-- Node21 -->
<g id="node21" class="node"><title>Node21</title>
<g id="a_node21"><a xlink:href="dji__mission__type_8hpp.html" target="_top" xlink:title="Mission related data struct for DJI OSDK library. ">
<polygon fill="white" stroke="black" points="1186,-168.5 1186,-187.5 1294,-187.5 1294,-168.5 1186,-168.5"/>
<text text-anchor="middle" x="1240" y="-175.5" font-family="Helvetica,sans-Serif" font-size="10.00">dji_mission_type.hpp</text>
</a>
</g>
</g>
<!-- Node20&#45;&gt;Node21 -->
<g id="edge31" class="edge"><title>Node20&#45;&gt;Node21</title>
<path fill="none" stroke="midnightblue" d="M1173.69,-224.324C1185.9,-215.979 1204.58,-203.212 1219,-193.352"/>
<polygon fill="midnightblue" stroke="midnightblue" points="1221.06,-196.187 1227.34,-187.655 1217.11,-190.408 1221.06,-196.187"/>
</g>
<!-- Node20&#45;&gt;Node22 -->
<g id="edge34" class="edge"><title>Node20&#45;&gt;Node22</title>
<path fill="none" stroke="midnightblue" d="M1128.99,-224.444C1094.27,-215.162 1038.71,-200.309 1000.62,-190.127"/>
<polygon fill="midnightblue" stroke="midnightblue" points="1001.42,-186.718 990.858,-187.516 999.615,-193.48 1001.42,-186.718"/>
</g>
<!-- Node23 -->
<g id="node23" class="node"><title>Node23</title>
<polygon fill="white" stroke="#bfbfbf" points="1094.5,-168.5 1094.5,-187.5 1129.5,-187.5 1129.5,-168.5 1094.5,-168.5"/>
<text text-anchor="middle" x="1112" y="-175.5" font-family="Helvetica,sans-Serif" font-size="10.00">map</text>
</g>
<!-- Node20&#45;&gt;Node23 -->
<g id="edge37" class="edge"><title>Node20&#45;&gt;Node23</title>
<path fill="none" stroke="midnightblue" d="M1152.91,-224.083C1145.84,-216.298 1135.41,-204.801 1126.85,-195.367"/>
<polygon fill="midnightblue" stroke="midnightblue" points="1129.25,-192.805 1119.94,-187.751 1124.07,-197.509 1129.25,-192.805"/>
</g>
<!-- Node21&#45;&gt;Node7 -->
<g id="edge32" class="edge"><title>Node21&#45;&gt;Node7</title>
<path fill="none" stroke="midnightblue" d="M1240,-168.083C1240,-161.006 1240,-150.861 1240,-141.986"/>
<polygon fill="midnightblue" stroke="midnightblue" points="1243.5,-141.751 1240,-131.751 1236.5,-141.751 1243.5,-141.751"/>
</g>
<!-- Node22&#45;&gt;Node4 -->
<g id="edge35" class="edge"><title>Node22&#45;&gt;Node4</title>
<path fill="none" stroke="midnightblue" d="M1000.21,-172.255C1084.21,-162.583 1275.37,-140.573 1371.13,-129.548"/>
<polygon fill="midnightblue" stroke="midnightblue" points="1371.67,-133.009 1381.2,-128.388 1370.87,-126.055 1371.67,-133.009"/>
</g>
<!-- Node22&#45;&gt;Node15 -->
<g id="edge36" class="edge"><title>Node22&#45;&gt;Node15</title>
<path fill="none" stroke="midnightblue" d="M917.891,-169.885C855.424,-159.073 737.808,-138.717 680.326,-128.768"/>
<polygon fill="midnightblue" stroke="midnightblue" points="680.77,-125.293 670.32,-127.036 679.576,-132.19 680.77,-125.293"/>
</g>
<!-- Node24&#45;&gt;Node4 -->
<g id="edge42" class="edge"><title>Node24&#45;&gt;Node4</title>
<path fill="none" stroke="midnightblue" d="M1428,-168.083C1428,-161.006 1428,-150.861 1428,-141.986"/>
<polygon fill="midnightblue" stroke="midnightblue" points="1431.5,-141.751 1428,-131.751 1424.5,-141.751 1431.5,-141.751"/>
</g>
<!-- Node24&#45;&gt;Node7 -->
<g id="edge43" class="edge"><title>Node24&#45;&gt;Node7</title>
<path fill="none" stroke="midnightblue" d="M1398.21,-168.444C1366.17,-159.241 1315.07,-144.562 1279.65,-134.388"/>
<polygon fill="midnightblue" stroke="midnightblue" points="1280.23,-130.913 1269.65,-131.516 1278.29,-137.641 1280.23,-130.913"/>
</g>
<!-- Node26&#45;&gt;Node7 -->
<g id="edge46" class="edge"><title>Node26&#45;&gt;Node7</title>
<path fill="none" stroke="midnightblue" d="M1451.83,-224.496C1426.53,-211.995 1377.73,-187.974 1336,-168 1312.99,-156.986 1286.76,-144.709 1267.54,-135.764"/>
<polygon fill="midnightblue" stroke="midnightblue" points="1268.99,-132.579 1258.45,-131.538 1266.04,-138.927 1268.99,-132.579"/>
</g>
<!-- Node27&#45;&gt;Node9 -->
<g id="edge48" class="edge"><title>Node27&#45;&gt;Node9</title>
<path fill="none" stroke="midnightblue" d="M391,-224.368C391,-206.617 391,-165.666 391,-141.597"/>
<polygon fill="midnightblue" stroke="midnightblue" points="394.5,-141.591 391,-131.591 387.5,-141.591 394.5,-141.591"/>
</g>
<!-- Node28&#45;&gt;Node9 -->
<g id="edge51" class="edge"><title>Node28&#45;&gt;Node9</title>
<path fill="none" stroke="midnightblue" d="M125.599,-224.368C176.492,-204.93 300.216,-157.674 358.985,-135.228"/>
<polygon fill="midnightblue" stroke="midnightblue" points="360.413,-138.429 368.506,-131.591 357.915,-131.89 360.413,-138.429"/>
</g>
<!-- Node31&#45;&gt;Node9 -->
<g id="edge58" class="edge"><title>Node31&#45;&gt;Node9</title>
<path fill="none" stroke="midnightblue" d="M255.53,-224.306C267.205,-211.138 290.758,-185.791 314,-168 329.884,-155.842 349.345,-144.495 364.728,-136.237"/>
<polygon fill="midnightblue" stroke="midnightblue" points="366.489,-139.266 373.711,-131.514 363.231,-133.07 366.489,-139.266"/>
</g>
<!-- Node31&#45;&gt;Node10 -->
<g id="edge56" class="edge"><title>Node31&#45;&gt;Node10</title>
<path fill="none" stroke="midnightblue" d="M251.488,-224.487C260.453,-203.397 286.067,-147.842 321,-112 333.372,-99.3066 349.963,-88.4442 363.887,-80.5733"/>
<polygon fill="midnightblue" stroke="midnightblue" points="365.899,-83.4638 373.017,-75.6163 362.558,-77.3121 365.899,-83.4638"/>
</g>
<!-- Node31&#45;&gt;Node11 -->
<g id="edge57" class="edge"><title>Node31&#45;&gt;Node11</title>
<path fill="none" stroke="midnightblue" d="M299.766,-225.32C367.768,-215.232 486.71,-197.587 556.514,-187.231"/>
<polygon fill="midnightblue" stroke="midnightblue" points="557.066,-190.688 566.444,-185.758 556.039,-183.764 557.066,-190.688"/>
</g>
<!-- Node33&#45;&gt;Node7 -->
<g id="edge66" class="edge"><title>Node33&#45;&gt;Node7</title>
<path fill="none" stroke="midnightblue" d="M990.87,-280.392C996.184,-258.078 1013.54,-198.023 1052,-168 1093.34,-135.729 1154.25,-126.088 1195.45,-123.474"/>
<polygon fill="midnightblue" stroke="midnightblue" points="1195.67,-126.967 1205.47,-122.951 1195.3,-119.977 1195.67,-126.967"/>
</g>
<!-- Node33&#45;&gt;Node10 -->
<g id="edge65" class="edge"><title>Node33&#45;&gt;Node10</title>
<path fill="none" stroke="midnightblue" d="M979.883,-280.232C956.932,-258.56 894.219,-201.782 833,-168 711.23,-100.804 546.994,-78.2517 456.92,-70.7271"/>
<polygon fill="midnightblue" stroke="midnightblue" points="457.09,-67.2296 446.843,-69.9224 456.532,-74.2074 457.09,-67.2296"/>
</g>
<!-- Node33&#45;&gt;Node11 -->
<g id="edge67" class="edge"><title>Node33&#45;&gt;Node11</title>
<path fill="none" stroke="midnightblue" d="M955.577,-280.454C924.689,-272.224 877.71,-258.862 838,-244 817.882,-236.47 814.29,-231.052 794,-224 751.846,-209.349 702.64,-197.483 666.027,-189.622"/>
<polygon fill="midnightblue" stroke="midnightblue" points="666.558,-186.157 656.05,-187.512 665.109,-193.006 666.558,-186.157"/>
</g>
<!-- Node33&#45;&gt;Node20 -->
<g id="edge64" class="edge"><title>Node33&#45;&gt;Node20</title>
<path fill="none" stroke="midnightblue" d="M1016.25,-280.444C1045.44,-271.28 1091.92,-256.688 1124.31,-246.519"/>
<polygon fill="midnightblue" stroke="midnightblue" points="1125.38,-249.851 1133.87,-243.516 1123.28,-243.173 1125.38,-249.851"/>
</g>
</g>
</svg>
        <g id="navigator" transform="translate(0 0)" fill="#404254">
                <rect fill="#f2f5e9" fill-opacity="0.5" stroke="#606060" stroke-width=".5" x="0" y="0" width="60" height="60"/>
                <use id="zoomplus" xlink:href="#zoomPlus" x="17" y="9" onmousedown="handleZoom(evt,'in')"/>
                <use id="zoomminus" xlink:href="#zoomMin" x="42" y="9" onmousedown="handleZoom(evt,'out')"/>
                <use id="reset" xlink:href="#resetDef" x="30" y="36" onmousedown="handleReset()"/>
                <g id="arrowUp" xlink:href="#dirArrow" transform="translate(30 24)" onmousedown="handlePan(0,-1)">
                  <use xlink:href="#rim" fill="#404040">
                        <set attributeName="fill" to="#808080" begin="arrowUp.mouseover" end="arrowUp.mouseout"/>
                  </use>
                  <path fill="none" stroke="white" stroke-width="1.5" d="M0,-3.0v7 M-2.5,-0.5L0,-3.0L2.5,-0.5"/>
                </g>
                <g id="arrowRight" xlink:href="#dirArrow" transform="rotate(90) translate(36 -43)" onmousedown="handlePan(1,0)">
                  <use xlink:href="#rim" fill="#404040">
                        <set attributeName="fill" to="#808080" begin="arrowRight.mouseover" end="arrowRight.mouseout"/>
                  </use>
                  <path fill="none" stroke="white" stroke-width="1.5" d="M0,-3.0v7 M-2.5,-0.5L0,-3.0L2.5,-0.5"/>
                </g>
                <g id="arrowDown" xlink:href="#dirArrow" transform="rotate(180) translate(-30 -48)" onmousedown="handlePan(0,1)">
                  <use xlink:href="#rim" fill="#404040">
                        <set attributeName="fill" to="#808080" begin="arrowDown.mouseover" end="arrowDown.mouseout"/>
                  </use>
                  <path fill="none" stroke="white" stroke-width="1.5" d="M0,-3.0v7 M-2.5,-0.5L0,-3.0L2.5,-0.5"/>
                </g>
                <g id="arrowLeft" xlink:href="#dirArrow" transform="rotate(270) translate(-36 17)" onmousedown="handlePan(-1,0)">
                  <use xlink:href="#rim" fill="#404040">
                        <set attributeName="fill" to="#808080" begin="arrowLeft.mouseover" end="arrowLeft.mouseout"/>
                  </use>
                  <path fill="none" stroke="white" stroke-width="1.5" d="M0,-3.0v7 M-2.5,-0.5L0,-3.0L2.5,-0.5"/>
                </g>
        </g>
        <svg viewBox="0 0 15 15" width="100%" height="30px" preserveAspectRatio="xMaxYMin meet">
         <g id="arrow_out" transform="scale(0.3 0.3)">
          <a xlink:href="dji__hotpoint_8cpp__incl_org.svg" target="_base">
           <rect id="button" ry="5" rx="5" y="6" x="6" height="38" width="38"
                fill="#f2f5e9" fill-opacity="0.5" stroke="#606060" stroke-width="1.0"/>
           <path id="arrow"
             d="M 11.500037,31.436501 C 11.940474,20.09759 22.043105,11.32322 32.158766,21.979434 L 37.068811,17.246167 C 37.068811,17.246167 37.088388,32 37.088388,32 L 22.160133,31.978069 C 22.160133,31.978069 26.997745,27.140456 26.997745,27.140456 C 18.528582,18.264221 13.291696,25.230495 11.500037,31.436501 z"
             style="fill:#404040;"/>
          </a>
         </g>
        </svg>
</svg>
