<?xml version="1.0" encoding="UTF-8" standalone="no"?>
<!DOCTYPE svg PUBLIC "-//W3C//DTD SVG 1.1//EN"
 "http://www.w3.org/Graphics/SVG/1.1/DTD/svg11.dtd">
<!-- Generated by graphviz version 2.38.0 (20140413.2041)
 -->
<!-- Title: osdk&#45;core/api/src/dji_subscription.cpp Pages: 1 -->
<!--zoomable 431 -->
<svg id="main" version="1.1" xmlns="http://www.w3.org/2000/svg" xmlns:xlink="http://www.w3.org/1999/xlink" xml:space="preserve" onload="init(evt)">
<style type="text/css"><![CDATA[
.edge:hover path { stroke: red; }
.edge:hover polygon { stroke: red; fill: red; }
]]></style>
<script type="text/javascript"><![CDATA[
var edges = document.getElementsByTagName('g');
if (edges && edges.length) {
  for (var i=0;i<edges.length;i++) {
    if (edges[i].id.substr(0,4)=='edge') {
      edges[i].setAttribute('class','edge');
    }
  }
}
]]></script>
        <defs>
                <circle id="rim" cx="0" cy="0" r="7"/>
                <circle id="rim2" cx="0" cy="0" r="3.5"/>
                <g id="zoomPlus">
                        <use xlink:href="#rim" fill="#404040">
                                <set attributeName="fill" to="#808080" begin="zoomplus.mouseover" end="zoomplus.mouseout"/>
                        </use>
                        <path d="M-4,0h8M0,-4v8" fill="none" stroke="white" stroke-width="1.5" pointer-events="none"/>
                </g>
                <g id="zoomMin">
                        <use xlink:href="#rim" fill="#404040">
                                <set attributeName="fill" to="#808080" begin="zoomminus.mouseover" end="zoomminus.mouseout"/>
                        </use>
                        <path d="M-4,0h8" fill="none" stroke="white" stroke-width="1.5" pointer-events="none"/>
                </g>
                <g id="dirArrow">
                        <path fill="none" stroke="white" stroke-width="1.5" d="M0,-3.0v7 M-2.5,-0.5L0,-3.0L2.5,-0.5"/>
                </g>
               <g id="resetDef">
                       <use xlink:href="#rim2" fill="#404040">
                               <set attributeName="fill" to="#808080" begin="reset.mouseover" end="reset.mouseout"/>
                       </use>
               </g>
        </defs>

<script type="text/javascript">
var viewWidth = 2177;
var viewHeight = 431;
var sectionId = 'dynsection-0';
</script>
<script xlink:href="svgpan.js"/>
<svg id="graph" class="graph">
<g id="viewport">
<title>osdk&#45;core/api/src/dji_subscription.cpp</title>
<polygon fill="white" stroke="none" points="-4,4 -4,-427 2173,-427 2173,4 -4,4"/>
<!-- Node0 -->
<g id="node1" class="node"><title>Node0</title>
<g id="a_node1"><a xlink:title="Telemetry Subscription API for DJI OSDK library.">
<polygon fill="#bfbfbf" stroke="black" points="1020,-392.5 1020,-422.5 1124,-422.5 1124,-392.5 1020,-392.5"/>
<text text-anchor="start" x="1028" y="-410.5" font-family="Helvetica,sans-Serif" font-size="10.00">osdk&#45;core/api/src/dji</text>
<text text-anchor="middle" x="1072" y="-399.5" font-family="Helvetica,sans-Serif" font-size="10.00">_subscription.cpp</text>
</a>
</g>
</g>
<!-- Node1 -->
<g id="node2" class="node"><title>Node1</title>
<g id="a_node2"><a xlink:href="dji__subscription_8hpp.html" target="_top" xlink:title="Telemetry Subscription API for DJI OSDK library.">
<polygon fill="white" stroke="black" points="983.5,-224.5 983.5,-243.5 1086.5,-243.5 1086.5,-224.5 983.5,-224.5"/>
<text text-anchor="middle" x="1035" y="-231.5" font-family="Helvetica,sans-Serif" font-size="10.00">dji_subscription.hpp</text>
</a>
</g>
</g>
<!-- Node0&#45;&gt;Node1 -->
<g id="edge1" class="edge"><title>Node0&#45;&gt;Node1</title>
<path fill="none" stroke="midnightblue" d="M1032.74,-392.446C994.837,-376.523 939.679,-346.562 915,-300 899.518,-270.79 936.561,-254.111 973.472,-244.982"/>
<polygon fill="midnightblue" stroke="midnightblue" points="974.368,-248.367 983.327,-242.712 972.796,-241.546 974.368,-248.367"/>
</g>
<!-- Node8 -->
<g id="node9" class="node"><title>Node8</title>
<g id="a_node9"><a xlink:href="dji__vehicle_8hpp.html" target="_top" xlink:title="Vehicle API for DJI onboardSDK library.">
<polygon fill="white" stroke="black" points="1207.5,-336.5 1207.5,-355.5 1288.5,-355.5 1288.5,-336.5 1207.5,-336.5"/>
<text text-anchor="middle" x="1248" y="-343.5" font-family="Helvetica,sans-Serif" font-size="10.00">dji_vehicle.hpp</text>
</a>
</g>
</g>
<!-- Node0&#45;&gt;Node8 -->
<g id="edge9" class="edge"><title>Node0&#45;&gt;Node8</title>
<path fill="none" stroke="midnightblue" d="M1113.71,-392.399C1143.99,-382.163 1184.49,-368.47 1213.07,-358.808"/>
<polygon fill="midnightblue" stroke="midnightblue" points="1214.3,-362.089 1222.65,-355.571 1212.05,-355.458 1214.3,-362.089"/>
</g>
<!-- Node2 -->
<g id="node3" class="node"><title>Node2</title>
<g id="a_node3"><a xlink:title=" ">
<polygon fill="white" stroke="#bfbfbf" points="1097.5,-56.5 1097.5,-75.5 1208.5,-75.5 1208.5,-56.5 1097.5,-56.5"/>
<text text-anchor="middle" x="1153" y="-63.5" font-family="Helvetica,sans-Serif" font-size="10.00">dji_open_protocol.hpp</text>
</a>
</g>
</g>
<!-- Node1&#45;&gt;Node2 -->
<g id="edge2" class="edge"><title>Node1&#45;&gt;Node2</title>
<path fill="none" stroke="midnightblue" d="M1041.34,-224.075C1060.24,-197.493 1116.36,-118.538 1141.08,-83.7633"/>
<polygon fill="midnightblue" stroke="midnightblue" points="1143.97,-85.7466 1146.91,-75.5681 1138.26,-81.6909 1143.97,-85.7466"/>
</g>
<!-- Node3 -->
<g id="node4" class="node"><title>Node3</title>
<g id="a_node4"><a xlink:href="dji__telemetry_8hpp.html" target="_top" xlink:title="Enumeration of all telemetry data types, structures and maps.">
<polygon fill="white" stroke="black" points="852.5,-168.5 852.5,-187.5 943.5,-187.5 943.5,-168.5 852.5,-168.5"/>
<text text-anchor="middle" x="898" y="-175.5" font-family="Helvetica,sans-Serif" font-size="10.00">dji_telemetry.hpp</text>
</a>
</g>
</g>
<!-- Node1&#45;&gt;Node3 -->
<g id="edge3" class="edge"><title>Node1&#45;&gt;Node3</title>
<path fill="none" stroke="midnightblue" d="M1013.29,-224.444C990.645,-215.517 954.928,-201.439 929.248,-191.317"/>
<polygon fill="midnightblue" stroke="midnightblue" points="930.193,-187.927 919.606,-187.516 927.626,-194.44 930.193,-187.927"/>
</g>
<!-- Node7 -->
<g id="node8" class="node"><title>Node7</title>
<g id="a_node8"><a xlink:href="dji__vehicle__callback_8hpp.html" target="_top" xlink:title="Type definition for new Vehicle&#45;style callbacks.">
<polygon fill="white" stroke="black" points="1298,-112.5 1298,-131.5 1420,-131.5 1420,-112.5 1298,-112.5"/>
<text text-anchor="middle" x="1359" y="-119.5" font-family="Helvetica,sans-Serif" font-size="10.00">dji_vehicle_callback.hpp</text>
</a>
</g>
</g>
<!-- Node1&#45;&gt;Node7 -->
<g id="edge7" class="edge"><title>Node1&#45;&gt;Node7</title>
<path fill="none" stroke="midnightblue" d="M1057.62,-224.472C1091.62,-211.735 1158.01,-187.186 1215,-168 1250.64,-156.003 1291.6,-143.308 1320.7,-134.473"/>
<polygon fill="midnightblue" stroke="midnightblue" points="1321.91,-137.762 1330.47,-131.515 1319.88,-131.062 1321.91,-137.762"/>
</g>
<!-- Node4 -->
<g id="node5" class="node"><title>Node4</title>
<g id="a_node5"><a xlink:href="dji__type_8hpp.html" target="_top" xlink:title="Data type and Data Structure definitions for use throughout DJI OSDK.">
<polygon fill="white" stroke="black" points="531.5,-112.5 531.5,-131.5 600.5,-131.5 600.5,-112.5 531.5,-112.5"/>
<text text-anchor="middle" x="566" y="-119.5" font-family="Helvetica,sans-Serif" font-size="10.00">dji_type.hpp</text>
</a>
</g>
</g>
<!-- Node3&#45;&gt;Node4 -->
<g id="edge4" class="edge"><title>Node3&#45;&gt;Node4</title>
<path fill="none" stroke="midnightblue" d="M852.382,-169.531C849.207,-169.013 846.056,-168.498 843,-168 761.009,-154.632 665.353,-139.108 610.609,-130.231"/>
<polygon fill="midnightblue" stroke="midnightblue" points="610.981,-126.745 600.549,-128.6 609.86,-133.655 610.981,-126.745"/>
</g>
<!-- Node5 -->
<g id="node6" class="node"><title>Node5</title>
<g id="a_node6"><a xlink:title=" ">
<polygon fill="white" stroke="#bfbfbf" points="544.5,-56.5 544.5,-75.5 587.5,-75.5 587.5,-56.5 544.5,-56.5"/>
<text text-anchor="middle" x="566" y="-63.5" font-family="Helvetica,sans-Serif" font-size="10.00">cstdio</text>
</a>
</g>
</g>
<!-- Node4&#45;&gt;Node5 -->
<g id="edge5" class="edge"><title>Node4&#45;&gt;Node5</title>
<path fill="none" stroke="midnightblue" d="M566,-112.083C566,-105.006 566,-94.8611 566,-85.9865"/>
<polygon fill="midnightblue" stroke="midnightblue" points="569.5,-85.751 566,-75.7511 562.5,-85.7511 569.5,-85.751"/>
</g>
<!-- Node6 -->
<g id="node7" class="node"><title>Node6</title>
<g id="a_node7"><a xlink:title=" ">
<polygon fill="white" stroke="#bfbfbf" points="273.5,-0.5 273.5,-19.5 322.5,-19.5 322.5,-0.5 273.5,-0.5"/>
<text text-anchor="middle" x="298" y="-7.5" font-family="Helvetica,sans-Serif" font-size="10.00">stdint.h</text>
</a>
</g>
</g>
<!-- Node4&#45;&gt;Node6 -->
<g id="edge6" class="edge"><title>Node4&#45;&gt;Node6</title>
<path fill="none" stroke="midnightblue" d="M544.97,-112.368C497.807,-93.0105 383.43,-46.0645 328.472,-23.5074"/>
<polygon fill="midnightblue" stroke="midnightblue" points="329.512,-20.1507 318.932,-19.5914 326.854,-26.6264 329.512,-20.1507"/>
</g>
<!-- Node7&#45;&gt;Node2 -->
<g id="edge8" class="edge"><title>Node7&#45;&gt;Node2</title>
<path fill="none" stroke="midnightblue" d="M1326.36,-112.444C1290.95,-103.162 1234.29,-88.3093 1195.45,-78.127"/>
<polygon fill="midnightblue" stroke="midnightblue" points="1196.05,-74.6666 1185.49,-75.5164 1194.27,-81.4378 1196.05,-74.6666"/>
</g>
<!-- Node8&#45;&gt;Node1 -->
<g id="edge63" class="edge"><title>Node8&#45;&gt;Node1</title>
<path fill="none" stroke="midnightblue" d="M1242.7,-336.443C1233.63,-322.516 1213.8,-295 1190,-280 1161.89,-262.281 1126.56,-251.321 1096.73,-244.661"/>
<polygon fill="midnightblue" stroke="midnightblue" points="1097.35,-241.215 1086.84,-242.564 1095.9,-248.063 1097.35,-241.215"/>
</g>
<!-- Node8&#45;&gt;Node2 -->
<g id="edge60" class="edge"><title>Node8&#45;&gt;Node2</title>
<path fill="none" stroke="midnightblue" d="M1288.6,-345.151C1452.14,-345.461 2057.33,-343.627 2130,-300 2158.88,-282.659 2169,-268.69 2169,-235 2169,-235 2169,-235 2169,-177 2169,-81.06 1443.68,-68.7154 1218.72,-67.1939"/>
<polygon fill="midnightblue" stroke="midnightblue" points="1218.73,-63.694 1208.71,-67.1312 1218.69,-70.6939 1218.73,-63.694"/>
</g>
<!-- Node8&#45;&gt;Node4 -->
<g id="edge65" class="edge"><title>Node8&#45;&gt;Node4</title>
<path fill="none" stroke="midnightblue" d="M1207.09,-344.657C1081,-343.22 704.426,-335.932 664,-300 619.308,-260.277 671.927,-217.237 638,-168 628.258,-153.861 612.474,-143.272 598.164,-135.93"/>
<polygon fill="midnightblue" stroke="midnightblue" points="599.583,-132.729 589.052,-131.569 596.561,-139.043 599.583,-132.729"/>
</g>
<!-- Node8&#45;&gt;Node7 -->
<g id="edge66" class="edge"><title>Node8&#45;&gt;Node7</title>
<path fill="none" stroke="midnightblue" d="M1288.63,-343.345C1330.61,-339.973 1396.66,-329.892 1445,-300 1494.73,-269.249 1502.68,-245.36 1514,-188 1515.72,-179.279 1519.34,-175.108 1514,-168 1502.65,-152.882 1460.2,-141.199 1422.59,-133.53"/>
<polygon fill="midnightblue" stroke="midnightblue" points="1423.13,-130.07 1412.64,-131.57 1421.78,-136.938 1423.13,-130.07"/>
</g>
<!-- Node9 -->
<g id="node10" class="node"><title>Node9</title>
<g id="a_node10"><a xlink:title=" ">
<polygon fill="white" stroke="#bfbfbf" points="0,-112.5 0,-131.5 46,-131.5 46,-112.5 0,-112.5"/>
<text text-anchor="middle" x="23" y="-119.5" font-family="Helvetica,sans-Serif" font-size="10.00">cstdint</text>
</a>
</g>
</g>
<!-- Node8&#45;&gt;Node9 -->
<g id="edge10" class="edge"><title>Node8&#45;&gt;Node9</title>
<path fill="none" stroke="midnightblue" d="M1207.38,-344.417C1007.86,-341.43 139.257,-326.918 89,-300 34.8472,-270.995 26.9196,-246.445 8,-188 2.93403,-172.35 8.10656,-154.058 13.7161,-140.873"/>
<polygon fill="midnightblue" stroke="midnightblue" points="17.0174,-142.078 18.1213,-131.541 10.6873,-139.09 17.0174,-142.078"/>
</g>
<!-- Node10 -->
<g id="node11" class="node"><title>Node10</title>
<g id="a_node11"><a xlink:href="dji__broadcast_8hpp.html" target="_top" xlink:title="Broadcast Telemetry API for DJI onboardSDK library.">
<polygon fill="white" stroke="black" points="1242.5,-224.5 1242.5,-243.5 1335.5,-243.5 1335.5,-224.5 1242.5,-224.5"/>
<text text-anchor="middle" x="1289" y="-231.5" font-family="Helvetica,sans-Serif" font-size="10.00">dji_broadcast.hpp</text>
</a>
</g>
</g>
<!-- Node8&#45;&gt;Node10 -->
<g id="edge11" class="edge"><title>Node8&#45;&gt;Node10</title>
<path fill="none" stroke="midnightblue" d="M1288.89,-336.921C1309.47,-330.567 1332.61,-319.402 1345,-300 1357.29,-280.752 1334.77,-261.246 1314.73,-248.694"/>
<polygon fill="midnightblue" stroke="midnightblue" points="1316.51,-245.679 1306.12,-243.602 1312.95,-251.704 1316.51,-245.679"/>
</g>
<!-- Node11 -->
<g id="node12" class="node"><title>Node11</title>
<g id="a_node12"><a xlink:href="dji__camera_8hpp.html" target="_top" xlink:title="Camera/Gimbal API for DJI onboardSDK library.">
<polygon fill="white" stroke="black" points="193.5,-168.5 193.5,-187.5 276.5,-187.5 276.5,-168.5 193.5,-168.5"/>
<text text-anchor="middle" x="235" y="-175.5" font-family="Helvetica,sans-Serif" font-size="10.00">dji_camera.hpp</text>
</a>
</g>
</g>
<!-- Node8&#45;&gt;Node11 -->
<g id="edge14" class="edge"><title>Node8&#45;&gt;Node11</title>
<path fill="none" stroke="midnightblue" d="M1207.11,-344.145C1075.46,-341.121 663.586,-329.487 534,-300 427.779,-275.83 310.339,-218.524 260.065,-192.398"/>
<polygon fill="midnightblue" stroke="midnightblue" points="261.411,-189.151 250.929,-187.607 258.16,-195.351 261.411,-189.151"/>
</g>
<!-- Node12 -->
<g id="node13" class="node"><title>Node12</title>
<g id="a_node13"><a xlink:href="dji__command_8hpp.html" target="_top" xlink:title="All DJI OSDK OpenProtocol Command IDs.">
<polygon fill="white" stroke="black" points="188.5,-112.5 188.5,-131.5 281.5,-131.5 281.5,-112.5 188.5,-112.5"/>
<text text-anchor="middle" x="235" y="-119.5" font-family="Helvetica,sans-Serif" font-size="10.00">dji_command.hpp</text>
</a>
</g>
</g>
<!-- Node8&#45;&gt;Node12 -->
<g id="edge21" class="edge"><title>Node8&#45;&gt;Node12</title>
<path fill="none" stroke="midnightblue" d="M1207.1,-344.339C1067.1,-341.813 607.88,-331.286 464,-300 329.798,-270.818 253.542,-301.354 176,-188 162.749,-168.629 186.791,-149.042 208.054,-136.508"/>
<polygon fill="midnightblue" stroke="midnightblue" points="209.848,-139.515 216.879,-131.59 206.44,-133.401 209.848,-139.515"/>
</g>
<!-- Node14 -->
<g id="node15" class="node"><title>Node14</title>
<g id="a_node15"><a xlink:title=" ">
<polygon fill="white" stroke="#bfbfbf" points="924,-280.5 924,-299.5 1036,-299.5 1036,-280.5 924,-280.5"/>
<text text-anchor="middle" x="980" y="-287.5" font-family="Helvetica,sans-Serif" font-size="10.00">dji_circular_buffer.hpp</text>
</a>
</g>
</g>
<!-- Node8&#45;&gt;Node14 -->
<g id="edge20" class="edge"><title>Node8&#45;&gt;Node14</title>
<path fill="none" stroke="midnightblue" d="M1207.3,-336.799C1160.48,-327.366 1083.52,-311.858 1032.3,-301.538"/>
<polygon fill="midnightblue" stroke="midnightblue" points="1032.91,-298.091 1022.42,-299.547 1031.53,-304.953 1032.91,-298.091"/>
</g>
<!-- Node15 -->
<g id="node16" class="node"><title>Node15</title>
<g id="a_node16"><a xlink:href="dji__control_8hpp.html" target="_top" xlink:title="Control API for DJI OSDK library.">
<polygon fill="white" stroke="black" points="673,-280.5 673,-299.5 753,-299.5 753,-280.5 673,-280.5"/>
<text text-anchor="middle" x="713" y="-287.5" font-family="Helvetica,sans-Serif" font-size="10.00">dji_control.hpp</text>
</a>
</g>
</g>
<!-- Node8&#45;&gt;Node15 -->
<g id="edge22" class="edge"><title>Node8&#45;&gt;Node15</title>
<path fill="none" stroke="midnightblue" d="M1207.22,-342.46C1125.1,-337.078 933.785,-323.194 762.987,-300.02"/>
<polygon fill="midnightblue" stroke="midnightblue" points="763.447,-296.55 753.064,-298.66 762.496,-303.486 763.447,-296.55"/>
</g>
<!-- Node18 -->
<g id="node19" class="node"><title>Node18</title>
<g id="a_node19"><a xlink:href="dji__version_8hpp.html" target="_top" xlink:title="Drone/SDK Version definition for DJI onboardSDK library.">
<polygon fill="white" stroke="black" points="17,-168.5 17,-187.5 99,-187.5 99,-168.5 17,-168.5"/>
<text text-anchor="middle" x="58" y="-175.5" font-family="Helvetica,sans-Serif" font-size="10.00">dji_version.hpp</text>
</a>
</g>
</g>
<!-- Node8&#45;&gt;Node18 -->
<g id="edge67" class="edge"><title>Node8&#45;&gt;Node18</title>
<path fill="none" stroke="midnightblue" d="M1207.45,-344.579C1010.29,-342.381 159.284,-331.117 113,-300 78.1601,-276.577 65.0616,-225.334 60.3986,-197.643"/>
<polygon fill="midnightblue" stroke="midnightblue" points="63.849,-197.05 58.9168,-187.673 56.9251,-198.079 63.849,-197.05"/>
</g>
<!-- Node20 -->
<g id="node21" class="node"><title>Node20</title>
<g id="a_node21"><a xlink:href="dji__gimbal_8hpp.html" target="_top" xlink:title="Gimbal API for OSDK library.">
<polygon fill="white" stroke="black" points="294.5,-168.5 294.5,-187.5 373.5,-187.5 373.5,-168.5 294.5,-168.5"/>
<text text-anchor="middle" x="334" y="-175.5" font-family="Helvetica,sans-Serif" font-size="10.00">dji_gimbal.hpp</text>
</a>
</g>
</g>
<!-- Node8&#45;&gt;Node20 -->
<g id="edge35" class="edge"><title>Node8&#45;&gt;Node20</title>
<path fill="none" stroke="midnightblue" d="M1207.22,-345.682C1106.02,-346.604 835.696,-344.338 616,-300 540.089,-284.68 521.801,-275.376 451,-244 416.831,-228.858 379.413,-207.085 356.317,-192.99"/>
<polygon fill="midnightblue" stroke="midnightblue" points="357.982,-189.905 347.632,-187.639 354.31,-195.865 357.982,-189.905"/>
</g>
<!-- Node21 -->
<g id="node22" class="node"><title>Node21</title>
<g id="a_node22"><a xlink:title=" ">
<polygon fill="white" stroke="#bfbfbf" points="1238,-280.5 1238,-299.5 1336,-299.5 1336,-280.5 1238,-280.5"/>
<text text-anchor="middle" x="1287" y="-287.5" font-family="Helvetica,sans-Serif" font-size="10.00">dji_hard_driver.hpp</text>
</a>
</g>
</g>
<!-- Node8&#45;&gt;Node21 -->
<g id="edge38" class="edge"><title>Node8&#45;&gt;Node21</title>
<path fill="none" stroke="midnightblue" d="M1254.44,-336.083C1259.95,-328.455 1268.03,-317.264 1274.76,-307.941"/>
<polygon fill="midnightblue" stroke="midnightblue" points="1277.66,-309.907 1280.68,-299.751 1271.99,-305.809 1277.66,-309.907"/>
</g>
<!-- Node22 -->
<g id="node23" class="node"><title>Node22</title>
<g id="a_node23"><a xlink:href="dji__hardware__sync_8hpp.html" target="_top" xlink:title="Hardware Sync API for DJI OSDK.">
<polygon fill="white" stroke="black" points="1561,-168.5 1561,-187.5 1677,-187.5 1677,-168.5 1561,-168.5"/>
<text text-anchor="middle" x="1619" y="-175.5" font-family="Helvetica,sans-Serif" font-size="10.00">dji_hardware_sync.hpp</text>
</a>
</g>
</g>
<!-- Node8&#45;&gt;Node22 -->
<g id="edge39" class="edge"><title>Node8&#45;&gt;Node22</title>
<path fill="none" stroke="midnightblue" d="M1288.61,-341.853C1354.74,-336.145 1482.23,-322.547 1521,-300 1563.89,-275.057 1595.66,-223.678 1610.2,-196.595"/>
<polygon fill="midnightblue" stroke="midnightblue" points="1613.42,-197.998 1614.92,-187.51 1607.2,-194.772 1613.42,-197.998"/>
</g>
<!-- Node24 -->
<g id="node25" class="node"><title>Node24</title>
<g id="a_node25"><a xlink:href="dji__mfio_8hpp.html" target="_top" xlink:title="MFIO API for DJI OSDK library.">
<polygon fill="white" stroke="black" points="2064.5,-224.5 2064.5,-243.5 2133.5,-243.5 2133.5,-224.5 2064.5,-224.5"/>
<text text-anchor="middle" x="2099" y="-231.5" font-family="Helvetica,sans-Serif" font-size="10.00">dji_mfio.hpp</text>
</a>
</g>
</g>
<!-- Node8&#45;&gt;Node24 -->
<g id="edge43" class="edge"><title>Node8&#45;&gt;Node24</title>
<path fill="none" stroke="midnightblue" d="M1288.72,-344.421C1456.05,-341.844 2083.34,-330.196 2112,-300 2123.84,-287.522 2117.42,-267.45 2110.03,-252.91"/>
<polygon fill="midnightblue" stroke="midnightblue" points="2112.91,-250.897 2104.97,-243.888 2106.81,-254.322 2112.91,-250.897"/>
</g>
<!-- Node25 -->
<g id="node26" class="node"><title>Node25</title>
<g id="a_node26"><a xlink:href="dji__mission__manager_8hpp.html" target="_top" xlink:title="Mission&#45;Manager API for DJI OSDK library.">
<polygon fill="white" stroke="black" points="1054.5,-280.5 1054.5,-299.5 1181.5,-299.5 1181.5,-280.5 1054.5,-280.5"/>
<text text-anchor="middle" x="1118" y="-287.5" font-family="Helvetica,sans-Serif" font-size="10.00">dji_mission_manager.hpp</text>
</a>
</g>
</g>
<!-- Node8&#45;&gt;Node25 -->
<g id="edge45" class="edge"><title>Node8&#45;&gt;Node25</title>
<path fill="none" stroke="midnightblue" d="M1227.4,-336.444C1206.01,-327.557 1172.32,-313.563 1147.98,-303.451"/>
<polygon fill="midnightblue" stroke="midnightblue" points="1149.08,-300.12 1138.5,-299.516 1146.39,-306.585 1149.08,-300.12"/>
</g>
<!-- Node30 -->
<g id="node31" class="node"><title>Node30</title>
<g id="a_node31"><a xlink:href="dji__mobile__communication_8hpp.html" target="_top" xlink:title="Implementation of DJI Mobile&#45;Onboard SDK Communication (MOC)">
<polygon fill="white" stroke="black" points="1953,-280.5 1953,-299.5 2103,-299.5 2103,-280.5 1953,-280.5"/>
<text text-anchor="middle" x="2028" y="-287.5" font-family="Helvetica,sans-Serif" font-size="10.00">dji_mobile_communication.hpp</text>
</a>
</g>
</g>
<!-- Node8&#45;&gt;Node30 -->
<g id="edge55" class="edge"><title>Node8&#45;&gt;Node30</title>
<path fill="none" stroke="midnightblue" d="M1288.84,-342.963C1394.83,-337.546 1687.62,-321.762 1942.71,-300.076"/>
<polygon fill="midnightblue" stroke="midnightblue" points="1943.24,-303.543 1952.91,-299.204 1942.65,-296.569 1943.24,-303.543"/>
</g>
<!-- Node32 -->
<g id="node33" class="node"><title>Node32</title>
<g id="a_node33"><a xlink:href="dji__mobile__device_8hpp.html" target="_top" xlink:title="Implementation of DJI Mobile Device Abstraction.">
<polygon fill="white" stroke="black" points="1353.5,-224.5 1353.5,-243.5 1466.5,-243.5 1466.5,-224.5 1353.5,-224.5"/>
<text text-anchor="middle" x="1410" y="-231.5" font-family="Helvetica,sans-Serif" font-size="10.00">dji_mobile_device.hpp</text>
</a>
</g>
</g>
<!-- Node8&#45;&gt;Node32 -->
<g id="edge58" class="edge"><title>Node8&#45;&gt;Node32</title>
<path fill="none" stroke="midnightblue" d="M1282.87,-336.476C1306.58,-329.46 1337.75,-317.744 1361,-300 1377.79,-287.182 1391.68,-267.168 1400.33,-252.733"/>
<polygon fill="midnightblue" stroke="midnightblue" points="1403.52,-254.206 1405.46,-243.789 1397.45,-250.727 1403.52,-254.206"/>
</g>
<!-- Node33 -->
<g id="node34" class="node"><title>Node33</title>
<g id="a_node34"><a xlink:title=" ">
<polygon fill="white" stroke="#bfbfbf" points="1573,-280.5 1573,-299.5 1701,-299.5 1701,-280.5 1573,-280.5"/>
<text text-anchor="middle" x="1637" y="-287.5" font-family="Helvetica,sans-Serif" font-size="10.00">dji_platform_manager.hpp</text>
</a>
</g>
</g>
<!-- Node8&#45;&gt;Node33 -->
<g id="edge61" class="edge"><title>Node8&#45;&gt;Node33</title>
<path fill="none" stroke="midnightblue" d="M1288.53,-339.374C1354.03,-330.281 1484.02,-312.236 1565.4,-300.94"/>
<polygon fill="midnightblue" stroke="midnightblue" points="1566.14,-304.371 1575.56,-299.529 1565.17,-297.437 1566.14,-304.371"/>
</g>
<!-- Node34 -->
<g id="node35" class="node"><title>Node34</title>
<g id="a_node35"><a xlink:href="dji__status_8hpp.html" target="_top" xlink:title="Status information for DJI Vehicle.">
<polygon fill="white" stroke="black" points="1719.5,-280.5 1719.5,-299.5 1796.5,-299.5 1796.5,-280.5 1719.5,-280.5"/>
<text text-anchor="middle" x="1758" y="-287.5" font-family="Helvetica,sans-Serif" font-size="10.00">dji_status.hpp</text>
</a>
</g>
</g>
<!-- Node8&#45;&gt;Node34 -->
<g id="edge62" class="edge"><title>Node8&#45;&gt;Node34</title>
<path fill="none" stroke="midnightblue" d="M1288.62,-342.254C1367.58,-336.656 1547.44,-322.625 1709.14,-299.997"/>
<polygon fill="midnightblue" stroke="midnightblue" points="1709.86,-303.43 1719.28,-298.564 1708.88,-296.499 1709.86,-303.43"/>
</g>
<!-- Node35 -->
<g id="node36" class="node"><title>Node35</title>
<g id="a_node36"><a xlink:title=" ">
<polygon fill="white" stroke="#bfbfbf" points="1815,-280.5 1815,-299.5 1935,-299.5 1935,-280.5 1815,-280.5"/>
<text text-anchor="middle" x="1875" y="-287.5" font-family="Helvetica,sans-Serif" font-size="10.00">dji_thread_manager.hpp</text>
</a>
</g>
</g>
<!-- Node8&#45;&gt;Node35 -->
<g id="edge64" class="edge"><title>Node8&#45;&gt;Node35</title>
<path fill="none" stroke="midnightblue" d="M1288.6,-342.38C1379.08,-336.4 1604.38,-320.722 1804.58,-299.992"/>
<polygon fill="midnightblue" stroke="midnightblue" points="1805.11,-303.455 1814.69,-298.938 1804.38,-296.493 1805.11,-303.455"/>
</g>
<!-- Node36 -->
<g id="node37" class="node"><title>Node36</title>
<g id="a_node37"><a xlink:href="dji__virtual__rc_8hpp.html" target="_top" xlink:title="Virtual Radio Control API for DJI onboardSDK library.">
<polygon fill="white" stroke="black" points="771,-280.5 771,-299.5 861,-299.5 861,-280.5 771,-280.5"/>
<text text-anchor="middle" x="816" y="-287.5" font-family="Helvetica,sans-Serif" font-size="10.00">dji_virtual_rc.hpp</text>
</a>
</g>
</g>
<!-- Node8&#45;&gt;Node36 -->
<g id="edge68" class="edge"><title>Node8&#45;&gt;Node36</title>
<path fill="none" stroke="midnightblue" d="M1207.36,-339.92C1129.47,-330.184 959.12,-308.89 871.095,-297.887"/>
<polygon fill="midnightblue" stroke="midnightblue" points="871.394,-294.397 861.037,-296.63 870.525,-301.343 871.394,-294.397"/>
</g>
<!-- Node37 -->
<g id="node38" class="node"><title>Node37</title>
<g id="a_node38"><a xlink:href="dji__payload__device_8hpp.html" target="_top" xlink:title="Implementation of DJI Payload Device Abstraction.">
<polygon fill="white" stroke="black" points="1387,-168.5 1387,-187.5 1505,-187.5 1505,-168.5 1387,-168.5"/>
<text text-anchor="middle" x="1446" y="-175.5" font-family="Helvetica,sans-Serif" font-size="10.00">dji_payload_device.hpp</text>
</a>
</g>
</g>
<!-- Node8&#45;&gt;Node37 -->
<g id="edge73" class="edge"><title>Node8&#45;&gt;Node37</title>
<path fill="none" stroke="midnightblue" d="M1288.92,-341.149C1343.6,-333.474 1437.92,-310.74 1475,-244 1483.86,-228.05 1472.85,-208.876 1461.95,-195.502"/>
<polygon fill="midnightblue" stroke="midnightblue" points="1464.25,-192.822 1455.01,-187.644 1459,-197.456 1464.25,-192.822"/>
</g>
<!-- Node10&#45;&gt;Node3 -->
<g id="edge12" class="edge"><title>Node10&#45;&gt;Node3</title>
<path fill="none" stroke="midnightblue" d="M1242.21,-225.248C1239.43,-224.818 1236.68,-224.399 1234,-224 1135.64,-209.369 1020.75,-194.449 954.001,-185.995"/>
<polygon fill="midnightblue" stroke="midnightblue" points="954.071,-182.476 943.711,-184.694 953.193,-189.42 954.071,-182.476"/>
</g>
<!-- Node10&#45;&gt;Node7 -->
<g id="edge13" class="edge"><title>Node10&#45;&gt;Node7</title>
<path fill="none" stroke="midnightblue" d="M1294.49,-224.368C1305.99,-206.296 1332.8,-164.176 1347.99,-140.307"/>
<polygon fill="midnightblue" stroke="midnightblue" points="1351.12,-141.907 1353.53,-131.591 1345.21,-138.149 1351.12,-141.907"/>
</g>
<!-- Node11&#45;&gt;Node4 -->
<g id="edge19" class="edge"><title>Node11&#45;&gt;Node4</title>
<path fill="none" stroke="midnightblue" d="M276.731,-169.426C279.529,-168.938 282.304,-168.458 285,-168 368.28,-153.838 465.664,-138.52 521.163,-129.907"/>
<polygon fill="midnightblue" stroke="midnightblue" points="522.011,-133.318 531.357,-128.328 520.939,-126.4 522.011,-133.318"/>
</g>
<!-- Node11&#45;&gt;Node12 -->
<g id="edge15" class="edge"><title>Node11&#45;&gt;Node12</title>
<path fill="none" stroke="midnightblue" d="M235,-168.083C235,-161.006 235,-150.861 235,-141.986"/>
<polygon fill="midnightblue" stroke="midnightblue" points="238.5,-141.751 235,-131.751 231.5,-141.751 238.5,-141.751"/>
</g>
<!-- Node12&#45;&gt;Node6 -->
<g id="edge18" class="edge"><title>Node12&#45;&gt;Node6</title>
<path fill="none" stroke="midnightblue" d="M246.343,-112.179C256.307,-103.859 270.504,-90.5244 279,-76 287.44,-61.5704 292.366,-43.1178 295.078,-29.5626"/>
<polygon fill="midnightblue" stroke="midnightblue" points="298.558,-29.9822 296.863,-19.5238 291.666,-28.7564 298.558,-29.9822"/>
</g>
<!-- Node13 -->
<g id="node14" class="node"><title>Node13</title>
<g id="a_node14"><a xlink:href="dji__error_8hpp.html" target="_top" xlink:title="All DJI OSDK OpenProtocol ACK Error Codes.">
<polygon fill="white" stroke="black" points="200,-56.5 200,-75.5 270,-75.5 270,-56.5 200,-56.5"/>
<text text-anchor="middle" x="235" y="-63.5" font-family="Helvetica,sans-Serif" font-size="10.00">dji_error.hpp</text>
</a>
</g>
</g>
<!-- Node12&#45;&gt;Node13 -->
<g id="edge16" class="edge"><title>Node12&#45;&gt;Node13</title>
<path fill="none" stroke="midnightblue" d="M235,-112.083C235,-105.006 235,-94.8611 235,-85.9865"/>
<polygon fill="midnightblue" stroke="midnightblue" points="238.5,-85.751 235,-75.7511 231.5,-85.7511 238.5,-85.751"/>
</g>
<!-- Node13&#45;&gt;Node6 -->
<g id="edge17" class="edge"><title>Node13&#45;&gt;Node6</title>
<path fill="none" stroke="midnightblue" d="M245.122,-56.324C254.526,-48.2631 268.744,-36.0765 280.069,-26.3695"/>
<polygon fill="midnightblue" stroke="midnightblue" points="282.379,-28.9993 287.694,-19.8339 277.823,-23.6844 282.379,-28.9993"/>
</g>
<!-- Node15&#45;&gt;Node2 -->
<g id="edge32" class="edge"><title>Node15&#45;&gt;Node2</title>
<path fill="none" stroke="midnightblue" d="M753.109,-281.384C814.806,-269.595 926.787,-247.876 935,-244 980.259,-222.639 1093.14,-121.693 1136.07,-82.5568"/>
<polygon fill="midnightblue" stroke="midnightblue" points="1138.66,-84.927 1143.68,-75.5955 1133.94,-79.7615 1138.66,-84.927"/>
</g>
<!-- Node15&#45;&gt;Node4 -->
<g id="edge33" class="edge"><title>Node15&#45;&gt;Node4</title>
<path fill="none" stroke="midnightblue" d="M672.778,-289.75C605.502,-288.483 472.469,-274.567 421,-188 396.797,-147.292 470.261,-131.951 521.286,-126.261"/>
<polygon fill="midnightblue" stroke="midnightblue" points="521.882,-129.718 531.474,-125.217 521.169,-122.755 521.882,-129.718"/>
</g>
<!-- Node15&#45;&gt;Node7 -->
<g id="edge34" class="edge"><title>Node15&#45;&gt;Node7</title>
<path fill="none" stroke="midnightblue" d="M753.071,-281.391C756.089,-280.894 759.09,-280.424 762,-280 909.307,-258.539 951.48,-283.523 1095,-244 1188.74,-218.185 1291.07,-162.598 1335.84,-136.744"/>
<polygon fill="midnightblue" stroke="midnightblue" points="1337.87,-139.616 1344.75,-131.556 1334.34,-133.568 1337.87,-139.616"/>
</g>
<!-- Node16 -->
<g id="node17" class="node"><title>Node16</title>
<g id="a_node17"><a xlink:href="dji__ack_8hpp.html" target="_top" xlink:title="All DJI OSDK ACK parsing.">
<polygon fill="white" stroke="black" points="533,-224.5 533,-243.5 599,-243.5 599,-224.5 533,-224.5"/>
<text text-anchor="middle" x="566" y="-231.5" font-family="Helvetica,sans-Serif" font-size="10.00">dji_ack.hpp</text>
</a>
</g>
</g>
<!-- Node15&#45;&gt;Node16 -->
<g id="edge23" class="edge"><title>Node15&#45;&gt;Node16</title>
<path fill="none" stroke="midnightblue" d="M689.707,-280.444C665.193,-271.438 626.404,-257.189 598.8,-247.049"/>
<polygon fill="midnightblue" stroke="midnightblue" points="599.777,-243.679 589.184,-243.516 597.363,-250.25 599.777,-243.679"/>
</g>
<!-- Node16&#45;&gt;Node4 -->
<g id="edge27" class="edge"><title>Node16&#45;&gt;Node4</title>
<path fill="none" stroke="midnightblue" d="M566,-224.368C566,-206.617 566,-165.666 566,-141.597"/>
<polygon fill="midnightblue" stroke="midnightblue" points="569.5,-141.591 566,-131.591 562.5,-141.591 569.5,-141.591"/>
</g>
<!-- Node16&#45;&gt;Node12 -->
<g id="edge24" class="edge"><title>Node16&#45;&gt;Node12</title>
<path fill="none" stroke="midnightblue" d="M532.861,-231.569C444.261,-227.406 207.045,-213.919 184,-188 169.056,-171.192 191.55,-150.589 211.228,-137.146"/>
<polygon fill="midnightblue" stroke="midnightblue" points="213.164,-140.062 219.648,-131.683 209.354,-134.189 213.164,-140.062"/>
</g>
<!-- Node17 -->
<g id="node18" class="node"><title>Node17</title>
<g id="a_node18"><a xlink:href="dji__mission__type_8hpp.html" target="_top" xlink:title="Mission related data struct for DJI OSDK library.">
<polygon fill="white" stroke="black" points="430,-168.5 430,-187.5 538,-187.5 538,-168.5 430,-168.5"/>
<text text-anchor="middle" x="484" y="-175.5" font-family="Helvetica,sans-Serif" font-size="10.00">dji_mission_type.hpp</text>
</a>
</g>
</g>
<!-- Node16&#45;&gt;Node17 -->
<g id="edge25" class="edge"><title>Node16&#45;&gt;Node17</title>
<path fill="none" stroke="midnightblue" d="M552.825,-224.324C540.153,-215.979 520.767,-203.212 505.794,-193.352"/>
<polygon fill="midnightblue" stroke="midnightblue" points="507.419,-190.231 497.142,-187.655 503.569,-196.078 507.419,-190.231"/>
</g>
<!-- Node16&#45;&gt;Node18 -->
<g id="edge28" class="edge"><title>Node16&#45;&gt;Node18</title>
<path fill="none" stroke="midnightblue" d="M532.669,-229.457C446.026,-220.247 213.251,-195.503 109.328,-184.456"/>
<polygon fill="midnightblue" stroke="midnightblue" points="109.402,-180.944 99.0878,-183.368 108.662,-187.905 109.402,-180.944"/>
</g>
<!-- Node19 -->
<g id="node20" class="node"><title>Node19</title>
<g id="a_node20"><a xlink:title=" ">
<polygon fill="white" stroke="#bfbfbf" points="594.5,-168.5 594.5,-187.5 629.5,-187.5 629.5,-168.5 594.5,-168.5"/>
<text text-anchor="middle" x="612" y="-175.5" font-family="Helvetica,sans-Serif" font-size="10.00">map</text>
</a>
</g>
</g>
<!-- Node16&#45;&gt;Node19 -->
<g id="edge31" class="edge"><title>Node16&#45;&gt;Node19</title>
<path fill="none" stroke="midnightblue" d="M573.596,-224.083C580.227,-216.298 590.021,-204.801 598.058,-195.367"/>
<polygon fill="midnightblue" stroke="midnightblue" points="600.725,-197.633 604.545,-187.751 595.396,-193.094 600.725,-197.633"/>
</g>
<!-- Node17&#45;&gt;Node4 -->
<g id="edge26" class="edge"><title>Node17&#45;&gt;Node4</title>
<path fill="none" stroke="midnightblue" d="M497.175,-168.324C509.847,-159.979 529.233,-147.212 544.206,-137.352"/>
<polygon fill="midnightblue" stroke="midnightblue" points="546.431,-140.078 552.858,-131.655 542.581,-134.231 546.431,-140.078"/>
</g>
<!-- Node18&#45;&gt;Node9 -->
<g id="edge30" class="edge"><title>Node18&#45;&gt;Node9</title>
<path fill="none" stroke="midnightblue" d="M52.2205,-168.083C47.3276,-160.534 40.1726,-149.495 34.1674,-140.23"/>
<polygon fill="midnightblue" stroke="midnightblue" points="37.048,-138.239 28.672,-131.751 31.174,-142.046 37.048,-138.239"/>
</g>
<!-- Node18&#45;&gt;Node12 -->
<g id="edge29" class="edge"><title>Node18&#45;&gt;Node12</title>
<path fill="none" stroke="midnightblue" d="M86.0462,-168.444C116.082,-159.28 163.913,-144.688 197.243,-134.519"/>
<polygon fill="midnightblue" stroke="midnightblue" points="198.542,-137.782 207.085,-131.516 196.499,-131.087 198.542,-137.782"/>
</g>
<!-- Node20&#45;&gt;Node4 -->
<g id="edge37" class="edge"><title>Node20&#45;&gt;Node4</title>
<path fill="none" stroke="midnightblue" d="M370.761,-168.444C411.656,-158.925 477.719,-143.548 521.502,-133.357"/>
<polygon fill="midnightblue" stroke="midnightblue" points="522.359,-136.751 531.305,-131.075 520.772,-129.934 522.359,-136.751"/>
</g>
<!-- Node20&#45;&gt;Node12 -->
<g id="edge36" class="edge"><title>Node20&#45;&gt;Node12</title>
<path fill="none" stroke="midnightblue" d="M318.094,-168.324C302.362,-159.743 278.058,-146.486 259.791,-136.522"/>
<polygon fill="midnightblue" stroke="midnightblue" points="261.322,-133.37 250.867,-131.655 257.97,-139.516 261.322,-133.37"/>
</g>
<!-- Node22&#45;&gt;Node4 -->
<g id="edge40" class="edge"><title>Node22&#45;&gt;Node4</title>
<path fill="none" stroke="midnightblue" d="M1560.99,-171.63C1545.71,-170.325 1529.24,-169.015 1514,-168 1166.7,-144.881 747.054,-129.275 610.945,-124.525"/>
<polygon fill="midnightblue" stroke="midnightblue" points="611.006,-121.025 600.891,-124.176 610.763,-128.021 611.006,-121.025"/>
</g>
<!-- Node22&#45;&gt;Node7 -->
<g id="edge41" class="edge"><title>Node22&#45;&gt;Node7</title>
<path fill="none" stroke="midnightblue" d="M1577.8,-168.444C1532.35,-159.004 1459.16,-143.802 1410.09,-133.611"/>
<polygon fill="midnightblue" stroke="midnightblue" points="1410.51,-130.123 1400.01,-131.516 1409.08,-136.977 1410.51,-130.123"/>
</g>
<!-- Node23 -->
<g id="node24" class="node"><title>Node23</title>
<g id="a_node24"><a xlink:title=" ">
<polygon fill="white" stroke="#bfbfbf" points="1598.5,-112.5 1598.5,-131.5 1639.5,-131.5 1639.5,-112.5 1598.5,-112.5"/>
<text text-anchor="middle" x="1619" y="-119.5" font-family="Helvetica,sans-Serif" font-size="10.00">string</text>
</a>
</g>
</g>
<!-- Node22&#45;&gt;Node23 -->
<g id="edge42" class="edge"><title>Node22&#45;&gt;Node23</title>
<path fill="none" stroke="midnightblue" d="M1619,-168.083C1619,-161.006 1619,-150.861 1619,-141.986"/>
<polygon fill="midnightblue" stroke="midnightblue" points="1622.5,-141.751 1619,-131.751 1615.5,-141.751 1622.5,-141.751"/>
</g>
<!-- Node24&#45;&gt;Node7 -->
<g id="edge44" class="edge"><title>Node24&#45;&gt;Node7</title>
<path fill="none" stroke="midnightblue" d="M2094.43,-224.321C2086.18,-209.687 2067.3,-180.485 2042,-168 2014.91,-154.635 1599.92,-134.11 1430.36,-126.232"/>
<polygon fill="midnightblue" stroke="midnightblue" points="1430.43,-122.732 1420.28,-125.765 1430.11,-129.724 1430.43,-122.732"/>
</g>
<!-- Node26 -->
<g id="node27" class="node"><title>Node26</title>
<g id="a_node27"><a xlink:href="dji__hotpoint_8hpp.html" target="_top" xlink:title="Implementation of HotPoint (Point of Interest) Missions for DJI OSDK.">
<polygon fill="white" stroke="black" points="841.5,-224.5 841.5,-243.5 926.5,-243.5 926.5,-224.5 841.5,-224.5"/>
<text text-anchor="middle" x="884" y="-231.5" font-family="Helvetica,sans-Serif" font-size="10.00">dji_hotpoint.hpp</text>
</a>
</g>
</g>
<!-- Node25&#45;&gt;Node26 -->
<g id="edge46" class="edge"><title>Node25&#45;&gt;Node26</title>
<path fill="none" stroke="midnightblue" d="M1080.92,-280.444C1040.27,-271.063 974.968,-255.993 930.816,-245.804"/>
<polygon fill="midnightblue" stroke="midnightblue" points="931.435,-242.355 920.905,-243.516 929.861,-249.175 931.435,-242.355"/>
</g>
<!-- Node28 -->
<g id="node29" class="node"><title>Node28</title>
<g id="a_node29"><a xlink:href="dji__waypoint_8hpp.html" target="_top" xlink:title="Implementation of GPS Waypoint Missions for DJI OSDK.">
<polygon fill="white" stroke="black" points="734.5,-224.5 734.5,-243.5 823.5,-243.5 823.5,-224.5 734.5,-224.5"/>
<text text-anchor="middle" x="779" y="-231.5" font-family="Helvetica,sans-Serif" font-size="10.00">dji_waypoint.hpp</text>
</a>
</g>
</g>
<!-- Node25&#45;&gt;Node28 -->
<g id="edge52" class="edge"><title>Node25&#45;&gt;Node28</title>
<path fill="none" stroke="midnightblue" d="M1062.61,-280.488C1007.11,-271.914 918.954,-258.171 833.404,-244.216"/>
<polygon fill="midnightblue" stroke="midnightblue" points="833.96,-240.76 823.526,-242.601 832.831,-247.668 833.96,-240.76"/>
</g>
<!-- Node29 -->
<g id="node30" class="node"><title>Node29</title>
<g id="a_node30"><a xlink:title=" ">
<polygon fill="white" stroke="#bfbfbf" points="1181,-224.5 1181,-243.5 1225,-243.5 1225,-224.5 1181,-224.5"/>
<text text-anchor="middle" x="1203" y="-231.5" font-family="Helvetica,sans-Serif" font-size="10.00">vector</text>
</a>
</g>
</g>
<!-- Node25&#45;&gt;Node29 -->
<g id="edge54" class="edge"><title>Node25&#45;&gt;Node29</title>
<path fill="none" stroke="midnightblue" d="M1131.66,-280.324C1144.92,-271.9 1165.27,-258.971 1180.85,-249.074"/>
<polygon fill="midnightblue" stroke="midnightblue" points="1182.81,-251.971 1189.38,-243.655 1179.06,-246.063 1182.81,-251.971"/>
</g>
<!-- Node26&#45;&gt;Node3 -->
<g id="edge51" class="edge"><title>Node26&#45;&gt;Node3</title>
<path fill="none" stroke="midnightblue" d="M886.312,-224.083C888.167,-216.927 890.835,-206.635 893.154,-197.691"/>
<polygon fill="midnightblue" stroke="midnightblue" points="896.609,-198.309 895.731,-187.751 889.834,-196.553 896.609,-198.309"/>
</g>
<!-- Node27 -->
<g id="node28" class="node"><title>Node27</title>
<g id="a_node28"><a xlink:href="dji__mission__base_8hpp.html" target="_top" xlink:title="Mission&#45;Base abstract class for DJI OSDK library.">
<polygon fill="white" stroke="black" points="724,-168.5 724,-187.5 834,-187.5 834,-168.5 724,-168.5"/>
<text text-anchor="middle" x="779" y="-175.5" font-family="Helvetica,sans-Serif" font-size="10.00">dji_mission_base.hpp</text>
</a>
</g>
</g>
<!-- Node26&#45;&gt;Node27 -->
<g id="edge47" class="edge"><title>Node26&#45;&gt;Node27</title>
<path fill="none" stroke="midnightblue" d="M867.13,-224.324C850.291,-215.664 824.193,-202.242 804.762,-192.249"/>
<polygon fill="midnightblue" stroke="midnightblue" points="806.322,-189.116 795.828,-187.655 803.12,-195.341 806.322,-189.116"/>
</g>
<!-- Node27&#45;&gt;Node4 -->
<g id="edge49" class="edge"><title>Node27&#45;&gt;Node4</title>
<path fill="none" stroke="midnightblue" d="M745.25,-168.444C708.482,-159.122 649.554,-144.183 609.378,-133.997"/>
<polygon fill="midnightblue" stroke="midnightblue" points="610.146,-130.581 599.593,-131.516 608.426,-137.367 610.146,-130.581"/>
</g>
<!-- Node27&#45;&gt;Node7 -->
<g id="edge50" class="edge"><title>Node27&#45;&gt;Node7</title>
<path fill="none" stroke="midnightblue" d="M834.134,-169.059C837.131,-168.686 840.101,-168.33 843,-168 1001.35,-149.974 1187.75,-135.339 1287.48,-128.04"/>
<polygon fill="midnightblue" stroke="midnightblue" points="1288.01,-131.51 1297.73,-127.293 1287.51,-124.529 1288.01,-131.51"/>
</g>
<!-- Node27&#45;&gt;Node12 -->
<g id="edge48" class="edge"><title>Node27&#45;&gt;Node12</title>
<path fill="none" stroke="midnightblue" d="M723.845,-171.525C620.064,-161.223 396.767,-139.058 291.764,-128.635"/>
<polygon fill="midnightblue" stroke="midnightblue" points="291.974,-125.138 281.677,-127.633 291.282,-132.104 291.974,-125.138"/>
</g>
<!-- Node28&#45;&gt;Node27 -->
<g id="edge53" class="edge"><title>Node28&#45;&gt;Node27</title>
<path fill="none" stroke="midnightblue" d="M779,-224.083C779,-217.006 779,-206.861 779,-197.986"/>
<polygon fill="midnightblue" stroke="midnightblue" points="782.5,-197.751 779,-187.751 775.5,-197.751 782.5,-197.751"/>
</g>
<!-- Node30&#45;&gt;Node7 -->
<g id="edge57" class="edge"><title>Node30&#45;&gt;Node7</title>
<path fill="none" stroke="midnightblue" d="M2028.03,-280.334C2027.57,-266.252 2024.48,-238.518 2008,-224 1923.16,-149.252 1580.28,-129.703 1430.08,-124.688"/>
<polygon fill="midnightblue" stroke="midnightblue" points="1430.14,-121.188 1420.03,-124.364 1429.92,-128.184 1430.14,-121.188"/>
</g>
<!-- Node31 -->
<g id="node32" class="node"><title>Node31</title>
<g id="a_node32"><a xlink:title=" ">
<polygon fill="white" stroke="#bfbfbf" points="1916.5,-224.5 1916.5,-243.5 1999.5,-243.5 1999.5,-224.5 1916.5,-224.5"/>
<text text-anchor="middle" x="1958" y="-231.5" font-family="Helvetica,sans-Serif" font-size="10.00">dji_macros.hpp</text>
</a>
</g>
</g>
<!-- Node30&#45;&gt;Node31 -->
<g id="edge56" class="edge"><title>Node30&#45;&gt;Node31</title>
<path fill="none" stroke="midnightblue" d="M2016.75,-280.324C2006.2,-272.185 1990.2,-259.839 1977.56,-250.087"/>
<polygon fill="midnightblue" stroke="midnightblue" points="1979.51,-247.171 1969.45,-243.834 1975.23,-252.713 1979.51,-247.171"/>
</g>
<!-- Node32&#45;&gt;Node7 -->
<g id="edge59" class="edge"><title>Node32&#45;&gt;Node7</title>
<path fill="none" stroke="midnightblue" d="M1402.43,-224.258C1395.25,-215.577 1384.61,-201.63 1378,-188 1370.79,-173.122 1365.77,-154.976 1362.71,-141.641"/>
<polygon fill="midnightblue" stroke="midnightblue" points="1366.1,-140.796 1360.59,-131.749 1359.26,-142.26 1366.1,-140.796"/>
</g>
<!-- Node36&#45;&gt;Node2 -->
<g id="edge70" class="edge"><title>Node36&#45;&gt;Node2</title>
<path fill="none" stroke="midnightblue" d="M861.184,-284.3C935.597,-276.181 1077.49,-258.959 1095,-244 1142.7,-203.249 1151.41,-122.611 1152.83,-85.9442"/>
<polygon fill="midnightblue" stroke="midnightblue" points="1156.34,-85.7719 1153.08,-75.6908 1149.34,-85.6039 1156.34,-85.7719"/>
</g>
<!-- Node36&#45;&gt;Node3 -->
<g id="edge72" class="edge"><title>Node36&#45;&gt;Node3</title>
<path fill="none" stroke="midnightblue" d="M784.361,-280.481C750.745,-269.852 704.99,-249.881 725,-224 732.465,-214.344 796.081,-199.563 844.02,-189.602"/>
<polygon fill="midnightblue" stroke="midnightblue" points="844.896,-192.995 853.986,-187.553 843.486,-186.138 844.896,-192.995"/>
</g>
<!-- Node36&#45;&gt;Node4 -->
<g id="edge71" class="edge"><title>Node36&#45;&gt;Node4</title>
<path fill="none" stroke="midnightblue" d="M785.104,-280.377C764.039,-273.289 736.531,-261.528 717,-244 687.785,-217.781 701.542,-193.85 672,-168 654.415,-152.613 630.793,-141.896 610.312,-134.793"/>
<polygon fill="midnightblue" stroke="midnightblue" points="611.142,-131.382 600.549,-131.591 608.961,-138.033 611.142,-131.382"/>
</g>
<!-- Node36&#45;&gt;Node16 -->
<g id="edge69" class="edge"><title>Node36&#45;&gt;Node16</title>
<path fill="none" stroke="midnightblue" d="M776.387,-280.444C730.723,-270.58 655.937,-254.426 608.92,-244.271"/>
<polygon fill="midnightblue" stroke="midnightblue" points="609.554,-240.827 599.041,-242.137 608.076,-247.669 609.554,-240.827"/>
</g>
<!-- Node37&#45;&gt;Node7 -->
<g id="edge74" class="edge"><title>Node37&#45;&gt;Node7</title>
<path fill="none" stroke="midnightblue" d="M1432.02,-168.324C1418.45,-159.9 1397.62,-146.971 1381.68,-137.074"/>
<polygon fill="midnightblue" stroke="midnightblue" points="1383.29,-133.954 1372.94,-131.655 1379.59,-139.902 1383.29,-133.954"/>
</g>
</g>
</svg>
        <g id="navigator" transform="translate(0 0)" fill="#404254">
                <rect fill="#f2f5e9" fill-opacity="0.5" stroke="#606060" stroke-width=".5" x="0" y="0" width="60" height="60"/>
                <use id="zoomplus" xlink:href="#zoomPlus" x="17" y="9" onmousedown="handleZoom(evt,'in')"/>
                <use id="zoomminus" xlink:href="#zoomMin" x="42" y="9" onmousedown="handleZoom(evt,'out')"/>
                <use id="reset" xlink:href="#resetDef" x="30" y="36" onmousedown="handleReset()"/>
                <g id="arrowUp" xlink:href="#dirArrow" transform="translate(30 24)" onmousedown="handlePan(0,-1)">
                  <use xlink:href="#rim" fill="#404040">
                        <set attributeName="fill" to="#808080" begin="arrowUp.mouseover" end="arrowUp.mouseout"/>
                  </use>
                  <path fill="none" stroke="white" stroke-width="1.5" d="M0,-3.0v7 M-2.5,-0.5L0,-3.0L2.5,-0.5"/>
                </g>
                <g id="arrowRight" xlink:href="#dirArrow" transform="rotate(90) translate(36 -43)" onmousedown="handlePan(1,0)">
                  <use xlink:href="#rim" fill="#404040">
                        <set attributeName="fill" to="#808080" begin="arrowRight.mouseover" end="arrowRight.mouseout"/>
                  </use>
                  <path fill="none" stroke="white" stroke-width="1.5" d="M0,-3.0v7 M-2.5,-0.5L0,-3.0L2.5,-0.5"/>
                </g>
                <g id="arrowDown" xlink:href="#dirArrow" transform="rotate(180) translate(-30 -48)" onmousedown="handlePan(0,1)">
                  <use xlink:href="#rim" fill="#404040">
                        <set attributeName="fill" to="#808080" begin="arrowDown.mouseover" end="arrowDown.mouseout"/>
                  </use>
                  <path fill="none" stroke="white" stroke-width="1.5" d="M0,-3.0v7 M-2.5,-0.5L0,-3.0L2.5,-0.5"/>
                </g>
                <g id="arrowLeft" xlink:href="#dirArrow" transform="rotate(270) translate(-36 17)" onmousedown="handlePan(-1,0)">
                  <use xlink:href="#rim" fill="#404040">
                        <set attributeName="fill" to="#808080" begin="arrowLeft.mouseover" end="arrowLeft.mouseout"/>
                  </use>
                  <path fill="none" stroke="white" stroke-width="1.5" d="M0,-3.0v7 M-2.5,-0.5L0,-3.0L2.5,-0.5"/>
                </g>
        </g>
        <svg viewBox="0 0 15 15" width="100%" height="30px" preserveAspectRatio="xMaxYMin meet">
         <g id="arrow_out" transform="scale(0.3 0.3)">
          <a xlink:href="dji__subscription_8cpp__incl_org.svg" target="_base">
           <rect id="button" ry="5" rx="5" y="6" x="6" height="38" width="38"
                fill="#f2f5e9" fill-opacity="0.5" stroke="#606060" stroke-width="1.0"/>
           <path id="arrow"
             d="M 11.500037,31.436501 C 11.940474,20.09759 22.043105,11.32322 32.158766,21.979434 L 37.068811,17.246167 C 37.068811,17.246167 37.088388,32 37.088388,32 L 22.160133,31.978069 C 22.160133,31.978069 26.997745,27.140456 26.997745,27.140456 C 18.528582,18.264221 13.291696,25.230495 11.500037,31.436501 z"
             style="fill:#404040;"/>
          </a>
         </g>
        </svg>
</svg>
