<?xml version="1.0" encoding="UTF-8" standalone="no"?>
<!DOCTYPE svg PUBLIC "-//W3C//DTD SVG 1.1//EN"
 "http://www.w3.org/Graphics/SVG/1.1/DTD/svg11.dtd">
<!-- Generated by graphviz version 2.40.1 (20161225.0304)
 -->
<!-- Title: osdk&#45;core/api/inc/dji_mission_type.hpp Pages: 1 -->
<svg width="162pt" height="151pt"
 viewBox="0.00 0.00 161.50 151.00" xmlns="http://www.w3.org/2000/svg" xmlns:xlink="http://www.w3.org/1999/xlink">
<g id="graph0" class="graph" transform="scale(1 1) rotate(0) translate(4 147)">
<title>osdk&#45;core/api/inc/dji_mission_type.hpp</title>
<polygon fill="#ffffff" stroke="transparent" points="-4,4 -4,-147 157.5,-147 157.5,4 -4,4"/>
<!-- Node0 -->
<g id="node1" class="node">
<title>Node0</title>
<g id="a_node1"><a xlink:title="Mission related data struct for DJI OSDK library.">
<polygon fill="#bfbfbf" stroke="#000000" points="7,-112.5 7,-142.5 111,-142.5 111,-112.5 7,-112.5"/>
<text text-anchor="start" x="15" y="-130.5" font-family="Helvetica,sans-Serif" font-size="10.00" fill="#000000">osdk&#45;core/api/inc/dji</text>
<text text-anchor="middle" x="59" y="-119.5" font-family="Helvetica,sans-Serif" font-size="10.00" fill="#000000">_mission_type.hpp</text>
</a>
</g>
</g>
<!-- Node1 -->
<g id="node2" class="node">
<title>Node1</title>
<g id="a_node2"><a xlink:title=" ">
<polygon fill="#ffffff" stroke="#bfbfbf" points="0,-56.5 0,-75.5 44,-75.5 44,-56.5 0,-56.5"/>
<text text-anchor="middle" x="22" y="-63.5" font-family="Helvetica,sans-Serif" font-size="10.00" fill="#000000">vector</text>
</a>
</g>
</g>
<!-- Node0&#45;&gt;Node1 -->
<g id="edge1" class="edge">
<title>Node0&#45;&gt;Node1</title>
<path fill="none" stroke="#191970" d="M49.8539,-112.2977C44.8249,-103.9388 38.5445,-93.4997 33.2209,-84.6509"/>
<polygon fill="#191970" stroke="#191970" points="36.0785,-82.6114 27.9242,-75.8469 30.0803,-86.2201 36.0785,-82.6114"/>
</g>
<!-- Node2 -->
<g id="node3" class="node">
<title>Node2</title>
<g id="a_node3"><a xlink:href="dji__type_8hpp.html" target="_top" xlink:title="Data type and Data Structure definitions for use throughout DJI OSDK.">
<polygon fill="#ffffff" stroke="#000000" points="62.5,-56.5 62.5,-75.5 131.5,-75.5 131.5,-56.5 62.5,-56.5"/>
<text text-anchor="middle" x="97" y="-63.5" font-family="Helvetica,sans-Serif" font-size="10.00" fill="#000000">dji_type.hpp</text>
</a>
</g>
</g>
<!-- Node0&#45;&gt;Node2 -->
<g id="edge2" class="edge">
<title>Node0&#45;&gt;Node2</title>
<path fill="none" stroke="#191970" d="M68.3933,-112.2977C73.6131,-103.8498 80.1457,-93.2773 85.65,-84.369"/>
<polygon fill="#191970" stroke="#191970" points="88.6368,-86.1938 90.9157,-75.8469 82.6818,-82.5143 88.6368,-86.1938"/>
</g>
<!-- Node3 -->
<g id="node4" class="node">
<title>Node3</title>
<g id="a_node4"><a xlink:title=" ">
<polygon fill="#ffffff" stroke="#bfbfbf" points="43.5,-.5 43.5,-19.5 86.5,-19.5 86.5,-.5 43.5,-.5"/>
<text text-anchor="middle" x="65" y="-7.5" font-family="Helvetica,sans-Serif" font-size="10.00" fill="#000000">cstdio</text>
</a>
</g>
</g>
<!-- Node2&#45;&gt;Node3 -->
<g id="edge3" class="edge">
<title>Node2&#45;&gt;Node3</title>
<path fill="none" stroke="#191970" d="M91.426,-56.2455C87.0669,-48.617 80.8789,-37.7881 75.5867,-28.5267"/>
<polygon fill="#191970" stroke="#191970" points="78.5104,-26.5886 70.5101,-19.6427 72.4327,-30.0616 78.5104,-26.5886"/>
</g>
<!-- Node4 -->
<g id="node5" class="node">
<title>Node4</title>
<g id="a_node5"><a xlink:title=" ">
<polygon fill="#ffffff" stroke="#bfbfbf" points="104.5,-.5 104.5,-19.5 153.5,-19.5 153.5,-.5 104.5,-.5"/>
<text text-anchor="middle" x="129" y="-7.5" font-family="Helvetica,sans-Serif" font-size="10.00" fill="#000000">stdint.h</text>
</a>
</g>
</g>
<!-- Node2&#45;&gt;Node4 -->
<g id="edge4" class="edge">
<title>Node2&#45;&gt;Node4</title>
<path fill="none" stroke="#191970" d="M102.574,-56.2455C106.9331,-48.617 113.1211,-37.7881 118.4133,-28.5267"/>
<polygon fill="#191970" stroke="#191970" points="121.5673,-30.0616 123.4899,-19.6427 115.4896,-26.5886 121.5673,-30.0616"/>
</g>
</g>
</svg>
