<?xml version="1.0" encoding="UTF-8" standalone="no"?>
<!DOCTYPE svg PUBLIC "-//W3C//DTD SVG 1.1//EN"
 "http://www.w3.org/Graphics/SVG/1.1/DTD/svg11.dtd">
<!-- Generated by graphviz version 2.40.1 (20161225.0304)
 -->
<!-- Title: osdk&#45;lib/x86/osdk&#45;core/inc/dji_mop_pipeline_manager_base.hpp Pages: 1 -->
<svg width="483pt" height="442pt"
 viewBox="0.00 0.00 483.00 442.00" xmlns="http://www.w3.org/2000/svg" xmlns:xlink="http://www.w3.org/1999/xlink">
<g id="graph0" class="graph" transform="scale(1 1) rotate(0) translate(4 438)">
<title>osdk&#45;lib/x86/osdk&#45;core/inc/dji_mop_pipeline_manager_base.hpp</title>
<polygon fill="#ffffff" stroke="transparent" points="-4,4 -4,-438 479,-438 479,4 -4,4"/>
<!-- Node0 -->
<g id="node1" class="node">
<title>Node0</title>
<g id="a_node1"><a xlink:title="Implementation of mop pipeline manager base.">
<polygon fill="#bfbfbf" stroke="#000000" points="270,-392.5 270,-433.5 385,-433.5 385,-392.5 270,-392.5"/>
<text text-anchor="start" x="278" y="-421.5" font-family="Helvetica,sans-Serif" font-size="10.00" fill="#000000">osdk&#45;lib/x86/osdk&#45;core</text>
<text text-anchor="start" x="278" y="-410.5" font-family="Helvetica,sans-Serif" font-size="10.00" fill="#000000">/inc/dji_mop_pipeline</text>
<text text-anchor="middle" x="327.5" y="-399.5" font-family="Helvetica,sans-Serif" font-size="10.00" fill="#000000">_manager_base.hpp</text>
</a>
</g>
</g>
<!-- Node1 -->
<g id="node2" class="node">
<title>Node1</title>
<g id="a_node2"><a xlink:href="dji__mop__define_8hpp.html" target="_top" xlink:title="Enumeration of all mop data types, structures.">
<polygon fill="#ffffff" stroke="#000000" points="258,-280.5 258,-299.5 359,-299.5 359,-280.5 258,-280.5"/>
<text text-anchor="middle" x="308.5" y="-287.5" font-family="Helvetica,sans-Serif" font-size="10.00" fill="#000000">dji_mop_define.hpp</text>
</a>
</g>
</g>
<!-- Node0&#45;&gt;Node1 -->
<g id="edge1" class="edge">
<title>Node0&#45;&gt;Node1</title>
<path fill="none" stroke="#191970" d="M317.8982,-392.3801C313.4752,-381.7618 308.722,-368.4587 306.5,-356 303.7912,-340.8122 304.4832,-323.3532 305.7489,-310.2082"/>
<polygon fill="#191970" stroke="#191970" points="309.2652,-310.2686 306.9379,-299.9326 302.3116,-309.464 309.2652,-310.2686"/>
</g>
<!-- Node4 -->
<g id="node5" class="node">
<title>Node4</title>
<g id="a_node5"><a xlink:href="dji__log_8hpp.html" target="_top" xlink:title="Logging mechanism for printing status and error messages to the screen.">
<polygon fill="#ffffff" stroke="#000000" points="200,-224.5 200,-243.5 263,-243.5 263,-224.5 200,-224.5"/>
<text text-anchor="middle" x="231.5" y="-231.5" font-family="Helvetica,sans-Serif" font-size="10.00" fill="#000000">dji_log.hpp</text>
</a>
</g>
</g>
<!-- Node0&#45;&gt;Node4 -->
<g id="edge17" class="edge">
<title>Node0&#45;&gt;Node4</title>
<path fill="none" stroke="#191970" d="M309.5903,-392.3302C291.6989,-370.6797 264.6046,-335.0122 248.5,-300 241.7013,-285.2192 237.3016,-267.2761 234.6852,-253.8318"/>
<polygon fill="#191970" stroke="#191970" points="238.0917,-252.9967 232.8933,-243.7648 231.2,-254.2234 238.0917,-252.9967"/>
</g>
<!-- Node11 -->
<g id="node12" class="node">
<title>Node11</title>
<g id="a_node12"><a xlink:href="dji__mop__pipeline_8hpp.html" target="_top" xlink:title="Implementation of mop pipeline.">
<polygon fill="#ffffff" stroke="#000000" points="315,-336.5 315,-355.5 422,-355.5 422,-336.5 315,-336.5"/>
<text text-anchor="middle" x="368.5" y="-343.5" font-family="Helvetica,sans-Serif" font-size="10.00" fill="#000000">dji_mop_pipeline.hpp</text>
</a>
</g>
</g>
<!-- Node0&#45;&gt;Node11 -->
<g id="edge14" class="edge">
<title>Node0&#45;&gt;Node11</title>
<path fill="none" stroke="#191970" d="M340.2479,-392.168C345.703,-383.2536 352.017,-372.9356 357.2907,-364.3177"/>
<polygon fill="#191970" stroke="#191970" points="360.2806,-366.137 362.5149,-355.7805 354.3099,-362.4833 360.2806,-366.137"/>
</g>
<!-- Node12 -->
<g id="node13" class="node">
<title>Node12</title>
<g id="a_node13"><a xlink:title=" ">
<polygon fill="#ffffff" stroke="#bfbfbf" points="440,-336.5 440,-355.5 475,-355.5 475,-336.5 440,-336.5"/>
<text text-anchor="middle" x="457.5" y="-343.5" font-family="Helvetica,sans-Serif" font-size="10.00" fill="#000000">map</text>
</a>
</g>
</g>
<!-- Node0&#45;&gt;Node12 -->
<g id="edge18" class="edge">
<title>Node0&#45;&gt;Node12</title>
<path fill="none" stroke="#191970" d="M367.565,-392.3511C388.1487,-381.7426 412.6644,-369.1076 430.8971,-359.7107"/>
<polygon fill="#191970" stroke="#191970" points="432.5193,-362.8122 439.8048,-355.1198 429.3124,-356.59 432.5193,-362.8122"/>
</g>
<!-- Node2 -->
<g id="node3" class="node">
<title>Node2</title>
<g id="a_node3"><a xlink:href="mop__entry__osdk_8h_source.html" target="_top" xlink:title=" ">
<polygon fill="#ffffff" stroke="#000000" points="262,-168.5 262,-187.5 359,-187.5 359,-168.5 262,-168.5"/>
<text text-anchor="middle" x="310.5" y="-175.5" font-family="Helvetica,sans-Serif" font-size="10.00" fill="#000000">mop_entry_osdk.h</text>
</a>
</g>
</g>
<!-- Node1&#45;&gt;Node2 -->
<g id="edge2" class="edge">
<title>Node1&#45;&gt;Node2</title>
<path fill="none" stroke="#191970" d="M308.6705,-280.4509C308.9967,-262.184 309.7151,-221.9553 310.1483,-197.6976"/>
<polygon fill="#191970" stroke="#191970" points="313.6507,-197.5858 310.3299,-187.5249 306.6518,-197.4608 313.6507,-197.5858"/>
</g>
<!-- Node1&#45;&gt;Node4 -->
<g id="edge4" class="edge">
<title>Node1&#45;&gt;Node4</title>
<path fill="none" stroke="#191970" d="M295.0876,-280.2455C283.4943,-271.814 266.5252,-259.4729 253.0322,-249.6598"/>
<polygon fill="#191970" stroke="#191970" points="254.9047,-246.6938 244.7587,-243.6427 250.7874,-252.355 254.9047,-246.6938"/>
</g>
<!-- Node3 -->
<g id="node4" class="node">
<title>Node3</title>
<g id="a_node4"><a xlink:title=" ">
<polygon fill="#ffffff" stroke="#bfbfbf" points="293,-.5 293,-19.5 342,-19.5 342,-.5 293,-.5"/>
<text text-anchor="middle" x="317.5" y="-7.5" font-family="Helvetica,sans-Serif" font-size="10.00" fill="#000000">stdint.h</text>
</a>
</g>
</g>
<!-- Node2&#45;&gt;Node3 -->
<g id="edge3" class="edge">
<title>Node2&#45;&gt;Node3</title>
<path fill="none" stroke="#191970" d="M310.8964,-168.4862C312.0029,-141.9293 315.1431,-66.5651 316.6598,-30.1655"/>
<polygon fill="#191970" stroke="#191970" points="320.1711,-29.965 317.0905,-19.8279 313.1771,-29.6735 320.1711,-29.965"/>
</g>
<!-- Node5 -->
<g id="node6" class="node">
<title>Node5</title>
<g id="a_node6"><a xlink:href="dji__singleton_8hpp.html" target="_top" xlink:title="Singleton Template Class implementation for use with the DJI OSDK.">
<polygon fill="#ffffff" stroke="#000000" points="200,-112.5 200,-131.5 289,-131.5 289,-112.5 200,-112.5"/>
<text text-anchor="middle" x="244.5" y="-119.5" font-family="Helvetica,sans-Serif" font-size="10.00" fill="#000000">dji_singleton.hpp</text>
</a>
</g>
</g>
<!-- Node4&#45;&gt;Node5 -->
<g id="edge5" class="edge">
<title>Node4&#45;&gt;Node5</title>
<path fill="none" stroke="#191970" d="M232.6084,-224.4509C234.7286,-206.184 239.398,-165.9553 242.2137,-141.6976"/>
<polygon fill="#191970" stroke="#191970" points="245.718,-141.8618 243.3944,-131.5249 238.7647,-141.0546 245.718,-141.8618"/>
</g>
<!-- Node6 -->
<g id="node7" class="node">
<title>Node6</title>
<g id="a_node7"><a xlink:href="dji__platform_8hpp.html" target="_top" xlink:title="Vehicle API for DJI onboardSDK library.">
<polygon fill="#ffffff" stroke="#000000" points="110.5,-168.5 110.5,-187.5 196.5,-187.5 196.5,-168.5 110.5,-168.5"/>
<text text-anchor="middle" x="153.5" y="-175.5" font-family="Helvetica,sans-Serif" font-size="10.00" fill="#000000">dji_platform.hpp</text>
</a>
</g>
</g>
<!-- Node4&#45;&gt;Node6 -->
<g id="edge6" class="edge">
<title>Node4&#45;&gt;Node6</title>
<path fill="none" stroke="#191970" d="M217.9134,-224.2455C206.1695,-215.814 188.9801,-203.4729 175.3118,-193.6598"/>
<polygon fill="#191970" stroke="#191970" points="177.0954,-190.6316 166.9309,-187.6427 173.0129,-196.3179 177.0954,-190.6316"/>
</g>
<!-- Node6&#45;&gt;Node5 -->
<g id="edge11" class="edge">
<title>Node6&#45;&gt;Node5</title>
<path fill="none" stroke="#191970" d="M169.351,-168.2455C183.3132,-159.6534 203.8728,-147.0014 219.9596,-137.1018"/>
<polygon fill="#191970" stroke="#191970" points="222.1484,-139.8645 228.8307,-131.6427 218.4797,-133.9029 222.1484,-139.8645"/>
</g>
<!-- Node7 -->
<g id="node8" class="node">
<title>Node7</title>
<g id="a_node8"><a xlink:href="osdk__platform_8h.html" target="_top" xlink:title="This is the header file for define OSDK platform interfaces.">
<polygon fill="#ffffff" stroke="#000000" points="95.5,-112.5 95.5,-131.5 181.5,-131.5 181.5,-112.5 95.5,-112.5"/>
<text text-anchor="middle" x="138.5" y="-119.5" font-family="Helvetica,sans-Serif" font-size="10.00" fill="#000000">osdk_platform.h</text>
</a>
</g>
</g>
<!-- Node6&#45;&gt;Node7 -->
<g id="edge7" class="edge">
<title>Node6&#45;&gt;Node7</title>
<path fill="none" stroke="#191970" d="M150.8872,-168.2455C148.9084,-160.8579 146.1256,-150.4689 143.6988,-141.4087"/>
<polygon fill="#191970" stroke="#191970" points="147.0511,-140.3966 141.0829,-131.6427 140.2895,-142.2078 147.0511,-140.3966"/>
</g>
<!-- Node10 -->
<g id="node11" class="node">
<title>Node10</title>
<g id="a_node11"><a xlink:href="osdk__logger_8h.html" target="_top" xlink:title="This is the header file for &quot;osdk_logger.c&quot;, defining the structure and (exported) function prototype...">
<polygon fill="#ffffff" stroke="#000000" points="0,-112.5 0,-131.5 77,-131.5 77,-112.5 0,-112.5"/>
<text text-anchor="middle" x="38.5" y="-119.5" font-family="Helvetica,sans-Serif" font-size="10.00" fill="#000000">osdk_logger.h</text>
</a>
</g>
</g>
<!-- Node6&#45;&gt;Node10 -->
<g id="edge12" class="edge">
<title>Node6&#45;&gt;Node10</title>
<path fill="none" stroke="#191970" d="M133.7308,-168.3733C115.3531,-159.4241 87.7688,-145.9917 67.0107,-135.8835"/>
<polygon fill="#191970" stroke="#191970" points="68.5343,-132.7325 58.0112,-131.5011 65.4696,-139.026 68.5343,-132.7325"/>
</g>
<!-- Node8 -->
<g id="node9" class="node">
<title>Node8</title>
<g id="a_node9"><a xlink:href="osdk__typedef_8h_source.html" target="_top" xlink:title=" ">
<polygon fill="#ffffff" stroke="#000000" points="97,-56.5 97,-75.5 180,-75.5 180,-56.5 97,-56.5"/>
<text text-anchor="middle" x="138.5" y="-63.5" font-family="Helvetica,sans-Serif" font-size="10.00" fill="#000000">osdk_typedef.h</text>
</a>
</g>
</g>
<!-- Node7&#45;&gt;Node8 -->
<g id="edge8" class="edge">
<title>Node7&#45;&gt;Node8</title>
<path fill="none" stroke="#191970" d="M138.5,-112.2455C138.5,-104.9382 138.5,-94.6944 138.5,-85.7046"/>
<polygon fill="#191970" stroke="#191970" points="142.0001,-85.6426 138.5,-75.6427 135.0001,-85.6427 142.0001,-85.6426"/>
</g>
<!-- Node8&#45;&gt;Node3 -->
<g id="edge10" class="edge">
<title>Node8&#45;&gt;Node3</title>
<path fill="none" stroke="#191970" d="M169.2712,-56.3733C200.9768,-46.4542 250.2873,-31.0275 283.2217,-20.7239"/>
<polygon fill="#191970" stroke="#191970" points="284.3805,-24.0288 292.8793,-17.7026 282.2904,-17.3481 284.3805,-24.0288"/>
</g>
<!-- Node9 -->
<g id="node10" class="node">
<title>Node9</title>
<g id="a_node10"><a xlink:title=" ">
<polygon fill="#ffffff" stroke="#bfbfbf" points="112.5,-.5 112.5,-19.5 164.5,-19.5 164.5,-.5 112.5,-.5"/>
<text text-anchor="middle" x="138.5" y="-7.5" font-family="Helvetica,sans-Serif" font-size="10.00" fill="#000000">stddef.h</text>
</a>
</g>
</g>
<!-- Node8&#45;&gt;Node9 -->
<g id="edge9" class="edge">
<title>Node8&#45;&gt;Node9</title>
<path fill="none" stroke="#191970" d="M138.5,-56.2455C138.5,-48.9382 138.5,-38.6944 138.5,-29.7046"/>
<polygon fill="#191970" stroke="#191970" points="142.0001,-29.6426 138.5,-19.6427 135.0001,-29.6427 142.0001,-29.6426"/>
</g>
<!-- Node10&#45;&gt;Node8 -->
<g id="edge13" class="edge">
<title>Node10&#45;&gt;Node8</title>
<path fill="none" stroke="#191970" d="M55.9187,-112.2455C71.5485,-103.4928 94.7019,-90.527 112.5185,-80.5496"/>
<polygon fill="#191970" stroke="#191970" points="114.266,-83.5825 121.2809,-75.6427 110.8457,-77.475 114.266,-83.5825"/>
</g>
<!-- Node11&#45;&gt;Node1 -->
<g id="edge16" class="edge">
<title>Node11&#45;&gt;Node1</title>
<path fill="none" stroke="#191970" d="M358.0488,-336.2455C349.2731,-328.0549 336.5446,-316.1749 326.186,-306.5069"/>
<polygon fill="#191970" stroke="#191970" points="328.5301,-303.9072 318.8314,-299.6427 323.7539,-309.0246 328.5301,-303.9072"/>
</g>
<!-- Node11&#45;&gt;Node3 -->
<g id="edge15" class="edge">
<title>Node11&#45;&gt;Node3</title>
<path fill="none" stroke="#191970" d="M371.3035,-336.2066C376.5887,-316.8521 387.5,-272.2612 387.5,-234 387.5,-234 387.5,-234 387.5,-122 387.5,-83.1653 356.8623,-46.6944 336.1251,-26.4569"/>
<polygon fill="#191970" stroke="#191970" points="338.4312,-23.821 328.7467,-19.5244 333.638,-28.9226 338.4312,-23.821"/>
</g>
</g>
</svg>
