<?xml version="1.0" encoding="UTF-8" standalone="no"?>
<!DOCTYPE svg PUBLIC "-//W3C//DTD SVG 1.1//EN"
 "http://www.w3.org/Graphics/SVG/1.1/DTD/svg11.dtd">
<!-- Generated by graphviz version 2.40.1 (20161225.0304)
 -->
<!-- Title: osdk&#45;lib/x86/advanced&#45;sensing&#45;2.0.3/inc/dji_perception.hpp Pages: 1 -->
<svg width="123pt" height="106pt"
 viewBox="0.00 0.00 122.50 106.00" xmlns="http://www.w3.org/2000/svg" xmlns:xlink="http://www.w3.org/1999/xlink">
<g id="graph0" class="graph" transform="scale(1 1) rotate(0) translate(4 102)">
<title>osdk&#45;lib/x86/advanced&#45;sensing&#45;2.0.3/inc/dji_perception.hpp</title>
<polygon fill="#ffffff" stroke="transparent" points="-4,4 -4,-102 118.5,-102 118.5,4 -4,4"/>
<!-- Node0 -->
<g id="node1" class="node">
<title>Node0</title>
<g id="a_node1"><a xlink:title="Camera dji perception API of OSDK.">
<polygon fill="#bfbfbf" stroke="#000000" points="0,-56.5 0,-97.5 114,-97.5 114,-56.5 0,-56.5"/>
<text text-anchor="start" x="8" y="-85.5" font-family="Helvetica,sans-Serif" font-size="10.00" fill="#000000">osdk&#45;lib/x86/advanced</text>
<text text-anchor="start" x="8" y="-74.5" font-family="Helvetica,sans-Serif" font-size="10.00" fill="#000000">&#45;sensing&#45;2.0.3/inc/dji</text>
<text text-anchor="middle" x="57" y="-63.5" font-family="Helvetica,sans-Serif" font-size="10.00" fill="#000000">_perception.hpp</text>
</a>
</g>
</g>
<!-- Node1 -->
<g id="node2" class="node">
<title>Node1</title>
<g id="a_node2"><a xlink:title=" ">
<polygon fill="#ffffff" stroke="#bfbfbf" points="1,-.5 1,-19.5 47,-19.5 47,-.5 1,-.5"/>
<text text-anchor="middle" x="24" y="-7.5" font-family="Helvetica,sans-Serif" font-size="10.00" fill="#000000">cstring</text>
</a>
</g>
</g>
<!-- Node0&#45;&gt;Node1 -->
<g id="edge1" class="edge">
<title>Node0&#45;&gt;Node1</title>
<path fill="none" stroke="#191970" d="M46.7395,-56.168C42.4422,-47.4433 37.4827,-37.374 33.2942,-28.87"/>
<polygon fill="#191970" stroke="#191970" points="36.3756,-27.2049 28.8172,-19.7805 30.096,-30.2979 36.3756,-27.2049"/>
</g>
<!-- Node2 -->
<g id="node3" class="node">
<title>Node2</title>
<g id="a_node3"><a xlink:title=" ">
<polygon fill="#ffffff" stroke="#bfbfbf" points="65.5,-.5 65.5,-19.5 114.5,-19.5 114.5,-.5 65.5,-.5"/>
<text text-anchor="middle" x="90" y="-7.5" font-family="Helvetica,sans-Serif" font-size="10.00" fill="#000000">stdint.h</text>
</a>
</g>
</g>
<!-- Node0&#45;&gt;Node2 -->
<g id="edge2" class="edge">
<title>Node0&#45;&gt;Node2</title>
<path fill="none" stroke="#191970" d="M67.2605,-56.168C71.5578,-47.4433 76.5173,-37.374 80.7058,-28.87"/>
<polygon fill="#191970" stroke="#191970" points="83.904,-30.2979 85.1828,-19.7805 77.6244,-27.2049 83.904,-30.2979"/>
</g>
</g>
</svg>
