<?xml version="1.0" encoding="UTF-8" standalone="no"?>
<!DOCTYPE svg PUBLIC "-//W3C//DTD SVG 1.1//EN"
 "http://www.w3.org/Graphics/SVG/1.1/DTD/svg11.dtd">
<!-- Generated by graphviz version 2.40.1 (20161225.0304)
 -->
<!-- Title: osdk&#45;core/api/src/dji_flight_controller.cpp Pages: 1 -->
<svg width="333pt" height="274pt"
 viewBox="0.00 0.00 333.00 274.00" xmlns="http://www.w3.org/2000/svg" xmlns:xlink="http://www.w3.org/1999/xlink">
<g id="graph0" class="graph" transform="scale(1 1) rotate(0) translate(4 270)">
<title>osdk&#45;core/api/src/dji_flight_controller.cpp</title>
<polygon fill="#ffffff" stroke="transparent" points="-4,4 -4,-270 329,-270 329,4 -4,4"/>
<!-- Node0 -->
<g id="node1" class="node">
<title>Node0</title>
<g id="a_node1"><a xlink:title="Flight Controller API for DJI OSDK library.">
<polygon fill="#bfbfbf" stroke="#000000" points="158,-235.5 158,-265.5 265,-265.5 265,-235.5 158,-235.5"/>
<text text-anchor="start" x="166" y="-253.5" font-family="Helvetica,sans-Serif" font-size="10.00" fill="#000000">osdk&#45;core/api/src/dji</text>
<text text-anchor="middle" x="211.5" y="-242.5" font-family="Helvetica,sans-Serif" font-size="10.00" fill="#000000">_flight_controller.cpp</text>
</a>
</g>
</g>
<!-- Node1 -->
<g id="node2" class="node">
<title>Node1</title>
<g id="a_node2"><a xlink:href="dji__flight__controller_8hpp.html" target="_top" xlink:title="Implementation of flight controller.">
<polygon fill="#ffffff" stroke="#000000" points="110.5,-179.5 110.5,-198.5 226.5,-198.5 226.5,-179.5 110.5,-179.5"/>
<text text-anchor="middle" x="168.5" y="-186.5" font-family="Helvetica,sans-Serif" font-size="10.00" fill="#000000">dji_flight_controller.hpp</text>
</a>
</g>
</g>
<!-- Node0&#45;&gt;Node1 -->
<g id="edge1" class="edge">
<title>Node0&#45;&gt;Node1</title>
<path fill="none" stroke="#191970" d="M200.8708,-235.2977C194.9019,-226.7609 187.4162,-216.0545 181.1471,-207.0883"/>
<polygon fill="#191970" stroke="#191970" points="183.9835,-205.0368 175.3848,-198.8469 178.2466,-209.048 183.9835,-205.0368"/>
</g>
<!-- Node4 -->
<g id="node5" class="node">
<title>Node4</title>
<g id="a_node5"><a xlink:href="dji__telemetry_8hpp.html" target="_top" xlink:title="Enumeration of all telemetry data types, structures and maps.">
<polygon fill="#ffffff" stroke="#000000" points="223,-118 223,-137 314,-137 314,-118 223,-118"/>
<text text-anchor="middle" x="268.5" y="-125" font-family="Helvetica,sans-Serif" font-size="10.00" fill="#000000">dji_telemetry.hpp</text>
</a>
</g>
</g>
<!-- Node0&#45;&gt;Node4 -->
<g id="edge8" class="edge">
<title>Node0&#45;&gt;Node4</title>
<path fill="none" stroke="#191970" d="M218.6559,-235.1832C223.4351,-224.9442 229.8558,-211.1702 235.5,-199 243.7389,-181.2352 253.089,-160.9664 259.7276,-146.5569"/>
<polygon fill="#191970" stroke="#191970" points="263.0237,-147.7669 264.0277,-137.2197 256.6655,-144.8387 263.0237,-147.7669"/>
</g>
<!-- Node2 -->
<g id="node3" class="node">
<title>Node2</title>
<g id="a_node3"><a xlink:title=" ">
<polygon fill="#ffffff" stroke="#bfbfbf" points="0,-112.5 0,-142.5 89,-142.5 89,-112.5 0,-112.5"/>
<text text-anchor="start" x="8" y="-130.5" font-family="Helvetica,sans-Serif" font-size="10.00" fill="#000000">dji_flight_actions</text>
<text text-anchor="middle" x="44.5" y="-119.5" font-family="Helvetica,sans-Serif" font-size="10.00" fill="#000000">_module.hpp</text>
</a>
</g>
</g>
<!-- Node1&#45;&gt;Node2 -->
<g id="edge2" class="edge">
<title>Node1&#45;&gt;Node2</title>
<path fill="none" stroke="#191970" d="M149.125,-179.3906C131.7216,-170.7591 105.6334,-157.8202 83.8621,-147.0224"/>
<polygon fill="#191970" stroke="#191970" points="85.3476,-143.8523 74.8338,-142.5446 82.2374,-150.1234 85.3476,-143.8523"/>
</g>
<!-- Node3 -->
<g id="node4" class="node">
<title>Node3</title>
<g id="a_node4"><a xlink:title=" ">
<polygon fill="#ffffff" stroke="#bfbfbf" points="106.5,-112.5 106.5,-142.5 204.5,-142.5 204.5,-112.5 106.5,-112.5"/>
<text text-anchor="start" x="114.5" y="-130.5" font-family="Helvetica,sans-Serif" font-size="10.00" fill="#000000">dji_flight_assistant</text>
<text text-anchor="middle" x="155.5" y="-119.5" font-family="Helvetica,sans-Serif" font-size="10.00" fill="#000000">_module.hpp</text>
</a>
</g>
</g>
<!-- Node1&#45;&gt;Node3 -->
<g id="edge3" class="edge">
<title>Node1&#45;&gt;Node3</title>
<path fill="none" stroke="#191970" d="M166.4688,-179.3906C164.9374,-172.1463 162.7648,-161.8679 160.7566,-152.3676"/>
<polygon fill="#191970" stroke="#191970" points="164.1727,-151.6045 158.6802,-142.5446 157.324,-153.0523 164.1727,-151.6045"/>
</g>
<!-- Node1&#45;&gt;Node4 -->
<g id="edge4" class="edge">
<title>Node1&#45;&gt;Node4</title>
<path fill="none" stroke="#191970" d="M184.125,-179.3906C200.2698,-169.4616 225.6822,-153.833 244.4023,-142.3201"/>
<polygon fill="#191970" stroke="#191970" points="246.3002,-145.2619 252.9847,-137.0419 242.6331,-139.2992 246.3002,-145.2619"/>
</g>
<!-- Node5 -->
<g id="node6" class="node">
<title>Node5</title>
<g id="a_node6"><a xlink:href="dji__type_8hpp.html" target="_top" xlink:title="Data type and Data Structure definitions for use throughout DJI OSDK.">
<polygon fill="#ffffff" stroke="#000000" points="234,-56.5 234,-75.5 303,-75.5 303,-56.5 234,-56.5"/>
<text text-anchor="middle" x="268.5" y="-63.5" font-family="Helvetica,sans-Serif" font-size="10.00" fill="#000000">dji_type.hpp</text>
</a>
</g>
</g>
<!-- Node4&#45;&gt;Node5 -->
<g id="edge5" class="edge">
<title>Node4&#45;&gt;Node5</title>
<path fill="none" stroke="#191970" d="M268.5,-117.8906C268.5,-109.3657 268.5,-96.6392 268.5,-85.9235"/>
<polygon fill="#191970" stroke="#191970" points="272.0001,-85.7448 268.5,-75.7449 265.0001,-85.7449 272.0001,-85.7448"/>
</g>
<!-- Node6 -->
<g id="node7" class="node">
<title>Node6</title>
<g id="a_node7"><a xlink:title=" ">
<polygon fill="#ffffff" stroke="#bfbfbf" points="215,-.5 215,-19.5 258,-19.5 258,-.5 215,-.5"/>
<text text-anchor="middle" x="236.5" y="-7.5" font-family="Helvetica,sans-Serif" font-size="10.00" fill="#000000">cstdio</text>
</a>
</g>
</g>
<!-- Node5&#45;&gt;Node6 -->
<g id="edge6" class="edge">
<title>Node5&#45;&gt;Node6</title>
<path fill="none" stroke="#191970" d="M262.926,-56.2455C258.5669,-48.617 252.3789,-37.7881 247.0867,-28.5267"/>
<polygon fill="#191970" stroke="#191970" points="250.0104,-26.5886 242.0101,-19.6427 243.9327,-30.0616 250.0104,-26.5886"/>
</g>
<!-- Node7 -->
<g id="node8" class="node">
<title>Node7</title>
<g id="a_node8"><a xlink:title=" ">
<polygon fill="#ffffff" stroke="#bfbfbf" points="276,-.5 276,-19.5 325,-19.5 325,-.5 276,-.5"/>
<text text-anchor="middle" x="300.5" y="-7.5" font-family="Helvetica,sans-Serif" font-size="10.00" fill="#000000">stdint.h</text>
</a>
</g>
</g>
<!-- Node5&#45;&gt;Node7 -->
<g id="edge7" class="edge">
<title>Node5&#45;&gt;Node7</title>
<path fill="none" stroke="#191970" d="M274.074,-56.2455C278.4331,-48.617 284.6211,-37.7881 289.9133,-28.5267"/>
<polygon fill="#191970" stroke="#191970" points="293.0673,-30.0616 294.9899,-19.6427 286.9896,-26.5886 293.0673,-30.0616"/>
</g>
</g>
</svg>
