<?xml version="1.0" encoding="UTF-8" standalone="no"?>
<!DOCTYPE svg PUBLIC "-//W3C//DTD SVG 1.1//EN"
 "http://www.w3.org/Graphics/SVG/1.1/DTD/svg11.dtd">
<!-- Generated by graphviz version 2.40.1 (20161225.0304)
 -->
<!-- Title: osdk&#45;core/api/inc/dji_broadcast.hpp Pages: 1 -->
<svg width="248pt" height="207pt"
 viewBox="0.00 0.00 247.50 207.00" xmlns="http://www.w3.org/2000/svg" xmlns:xlink="http://www.w3.org/1999/xlink">
<g id="graph0" class="graph" transform="scale(1 1) rotate(0) translate(4 203)">
<title>osdk&#45;core/api/inc/dji_broadcast.hpp</title>
<polygon fill="#ffffff" stroke="transparent" points="-4,4 -4,-203 243.5,-203 243.5,4 -4,4"/>
<!-- Node0 -->
<g id="node1" class="node">
<title>Node0</title>
<g id="a_node1"><a xlink:title="Broadcast Telemetry API for DJI onboardSDK library.">
<polygon fill="#bfbfbf" stroke="#000000" points="63.5,-168.5 63.5,-198.5 167.5,-198.5 167.5,-168.5 63.5,-168.5"/>
<text text-anchor="start" x="71.5" y="-186.5" font-family="Helvetica,sans-Serif" font-size="10.00" fill="#000000">osdk&#45;core/api/inc/dji</text>
<text text-anchor="middle" x="115.5" y="-175.5" font-family="Helvetica,sans-Serif" font-size="10.00" fill="#000000">_broadcast.hpp</text>
</a>
</g>
</g>
<!-- Node1 -->
<g id="node2" class="node">
<title>Node1</title>
<g id="a_node2"><a xlink:href="dji__telemetry_8hpp.html" target="_top" xlink:title="Enumeration of all telemetry data types, structures and maps.">
<polygon fill="#ffffff" stroke="#000000" points="8,-112.5 8,-131.5 99,-131.5 99,-112.5 8,-112.5"/>
<text text-anchor="middle" x="53.5" y="-119.5" font-family="Helvetica,sans-Serif" font-size="10.00" fill="#000000">dji_telemetry.hpp</text>
</a>
</g>
</g>
<!-- Node0&#45;&gt;Node1 -->
<g id="edge1" class="edge">
<title>Node0&#45;&gt;Node1</title>
<path fill="none" stroke="#191970" d="M100.1742,-168.2977C91.2093,-159.4052 79.8712,-148.1586 70.6149,-138.9769"/>
<polygon fill="#191970" stroke="#191970" points="72.9915,-136.4045 63.427,-131.8469 68.0618,-141.3742 72.9915,-136.4045"/>
</g>
<!-- Node5 -->
<g id="node6" class="node">
<title>Node5</title>
<g id="a_node6"><a xlink:href="dji__vehicle__callback_8hpp.html" target="_top" xlink:title="Type definition for new Vehicle&#45;style callbacks.">
<polygon fill="#ffffff" stroke="#000000" points="117.5,-112.5 117.5,-131.5 239.5,-131.5 239.5,-112.5 117.5,-112.5"/>
<text text-anchor="middle" x="178.5" y="-119.5" font-family="Helvetica,sans-Serif" font-size="10.00" fill="#000000">dji_vehicle_callback.hpp</text>
</a>
</g>
</g>
<!-- Node0&#45;&gt;Node5 -->
<g id="edge5" class="edge">
<title>Node0&#45;&gt;Node5</title>
<path fill="none" stroke="#191970" d="M131.073,-168.2977C140.1825,-159.4052 151.7034,-148.1586 161.1091,-138.9769"/>
<polygon fill="#191970" stroke="#191970" points="163.702,-141.3368 168.4129,-131.8469 158.8122,-136.3278 163.702,-141.3368"/>
</g>
<!-- Node2 -->
<g id="node3" class="node">
<title>Node2</title>
<g id="a_node3"><a xlink:href="dji__type_8hpp.html" target="_top" xlink:title="Data type and Data Structure definitions for use throughout DJI OSDK.">
<polygon fill="#ffffff" stroke="#000000" points="19,-56.5 19,-75.5 88,-75.5 88,-56.5 19,-56.5"/>
<text text-anchor="middle" x="53.5" y="-63.5" font-family="Helvetica,sans-Serif" font-size="10.00" fill="#000000">dji_type.hpp</text>
</a>
</g>
</g>
<!-- Node1&#45;&gt;Node2 -->
<g id="edge2" class="edge">
<title>Node1&#45;&gt;Node2</title>
<path fill="none" stroke="#191970" d="M53.5,-112.2455C53.5,-104.9382 53.5,-94.6944 53.5,-85.7046"/>
<polygon fill="#191970" stroke="#191970" points="57.0001,-85.6426 53.5,-75.6427 50.0001,-85.6427 57.0001,-85.6426"/>
</g>
<!-- Node3 -->
<g id="node4" class="node">
<title>Node3</title>
<g id="a_node4"><a xlink:title=" ">
<polygon fill="#ffffff" stroke="#bfbfbf" points="0,-.5 0,-19.5 43,-19.5 43,-.5 0,-.5"/>
<text text-anchor="middle" x="21.5" y="-7.5" font-family="Helvetica,sans-Serif" font-size="10.00" fill="#000000">cstdio</text>
</a>
</g>
</g>
<!-- Node2&#45;&gt;Node3 -->
<g id="edge3" class="edge">
<title>Node2&#45;&gt;Node3</title>
<path fill="none" stroke="#191970" d="M47.926,-56.2455C43.5669,-48.617 37.3789,-37.7881 32.0867,-28.5267"/>
<polygon fill="#191970" stroke="#191970" points="35.0104,-26.5886 27.0101,-19.6427 28.9327,-30.0616 35.0104,-26.5886"/>
</g>
<!-- Node4 -->
<g id="node5" class="node">
<title>Node4</title>
<g id="a_node5"><a xlink:title=" ">
<polygon fill="#ffffff" stroke="#bfbfbf" points="61,-.5 61,-19.5 110,-19.5 110,-.5 61,-.5"/>
<text text-anchor="middle" x="85.5" y="-7.5" font-family="Helvetica,sans-Serif" font-size="10.00" fill="#000000">stdint.h</text>
</a>
</g>
</g>
<!-- Node2&#45;&gt;Node4 -->
<g id="edge4" class="edge">
<title>Node2&#45;&gt;Node4</title>
<path fill="none" stroke="#191970" d="M59.074,-56.2455C63.4331,-48.617 69.6211,-37.7881 74.9133,-28.5267"/>
<polygon fill="#191970" stroke="#191970" points="78.0673,-30.0616 79.9899,-19.6427 71.9896,-26.5886 78.0673,-30.0616"/>
</g>
<!-- Node6 -->
<g id="node7" class="node">
<title>Node6</title>
<g id="a_node7"><a xlink:title=" ">
<polygon fill="#ffffff" stroke="#bfbfbf" points="123,-56.5 123,-75.5 234,-75.5 234,-56.5 123,-56.5"/>
<text text-anchor="middle" x="178.5" y="-63.5" font-family="Helvetica,sans-Serif" font-size="10.00" fill="#000000">dji_open_protocol.hpp</text>
</a>
</g>
</g>
<!-- Node5&#45;&gt;Node6 -->
<g id="edge6" class="edge">
<title>Node5&#45;&gt;Node6</title>
<path fill="none" stroke="#191970" d="M178.5,-112.2455C178.5,-104.9382 178.5,-94.6944 178.5,-85.7046"/>
<polygon fill="#191970" stroke="#191970" points="182.0001,-85.6426 178.5,-75.6427 175.0001,-85.6427 182.0001,-85.6426"/>
</g>
</g>
</svg>
