<?xml version="1.0" encoding="UTF-8" standalone="no"?>
<!DOCTYPE svg PUBLIC "-//W3C//DTD SVG 1.1//EN"
 "http://www.w3.org/Graphics/SVG/1.1/DTD/svg11.dtd">
<!-- Generated by graphviz version 2.38.0 (20140413.2041)
 -->
<!-- Title: osdk&#45;core/api/src/dji_waypoint.cpp Pages: 1 -->
<!--zoomable 431 -->
<svg id="main" version="1.1" xmlns="http://www.w3.org/2000/svg" xmlns:xlink="http://www.w3.org/1999/xlink" xml:space="preserve" onload="init(evt)">
<style type="text/css"><![CDATA[
.edge:hover path { stroke: red; }
.edge:hover polygon { stroke: red; fill: red; }
]]></style>
<script type="text/javascript"><![CDATA[
var edges = document.getElementsByTagName('g');
if (edges && edges.length) {
  for (var i=0;i<edges.length;i++) {
    if (edges[i].id.substr(0,4)=='edge') {
      edges[i].setAttribute('class','edge');
    }
  }
}
]]></script>
        <defs>
                <circle id="rim" cx="0" cy="0" r="7"/>
                <circle id="rim2" cx="0" cy="0" r="3.5"/>
                <g id="zoomPlus">
                        <use xlink:href="#rim" fill="#404040">
                                <set attributeName="fill" to="#808080" begin="zoomplus.mouseover" end="zoomplus.mouseout"/>
                        </use>
                        <path d="M-4,0h8M0,-4v8" fill="none" stroke="white" stroke-width="1.5" pointer-events="none"/>
                </g>
                <g id="zoomMin">
                        <use xlink:href="#rim" fill="#404040">
                                <set attributeName="fill" to="#808080" begin="zoomminus.mouseover" end="zoomminus.mouseout"/>
                        </use>
                        <path d="M-4,0h8" fill="none" stroke="white" stroke-width="1.5" pointer-events="none"/>
                </g>
                <g id="dirArrow">
                        <path fill="none" stroke="white" stroke-width="1.5" d="M0,-3.0v7 M-2.5,-0.5L0,-3.0L2.5,-0.5"/>
                </g>
               <g id="resetDef">
                       <use xlink:href="#rim2" fill="#404040">
                               <set attributeName="fill" to="#808080" begin="reset.mouseover" end="reset.mouseout"/>
                       </use>
               </g>
        </defs>

<script type="text/javascript">
var viewWidth = 1581;
var viewHeight = 431;
var sectionId = 'dynsection-0';
</script>
<script xlink:href="svgpan.js"/>
<svg id="graph" class="graph">
<g id="viewport">
<title>osdk&#45;core/api/src/dji_waypoint.cpp</title>
<polygon fill="white" stroke="none" points="-4,4 -4,-427 1576.77,-427 1576.77,4 -4,4"/>
<!-- Node1 -->
<g id="node1" class="node"><title>Node1</title>
<polygon fill="#bfbfbf" stroke="black" points="1245,-392.5 1245,-422.5 1349,-422.5 1349,-392.5 1245,-392.5"/>
<text text-anchor="start" x="1253" y="-410.5" font-family="Helvetica,sans-Serif" font-size="10.00">osdk&#45;core/api/src/dji</text>
<text text-anchor="middle" x="1297" y="-399.5" font-family="Helvetica,sans-Serif" font-size="10.00">_waypoint.cpp</text>
</g>
<!-- Node2 -->
<g id="node2" class="node"><title>Node2</title>
<g id="a_node2"><a xlink:href="dji__waypoint_8hpp.html" target="_top" xlink:title="Implementation of GPS Waypoint Missions for DJI OSDK. ">
<polygon fill="white" stroke="black" points="1357.5,-224.5 1357.5,-243.5 1446.5,-243.5 1446.5,-224.5 1357.5,-224.5"/>
<text text-anchor="middle" x="1402" y="-231.5" font-family="Helvetica,sans-Serif" font-size="10.00">dji_waypoint.hpp</text>
</a>
</g>
</g>
<!-- Node1&#45;&gt;Node2 -->
<g id="edge1" class="edge"><title>Node1&#45;&gt;Node2</title>
<path fill="none" stroke="midnightblue" d="M1307.37,-392.398C1321.91,-372.35 1348.84,-334.234 1369,-300 1378.12,-284.51 1387.28,-266.2 1393.62,-252.968"/>
<polygon fill="midnightblue" stroke="midnightblue" points="1396.95,-254.131 1398.06,-243.594 1390.62,-251.138 1396.95,-254.131"/>
</g>
<!-- Node11 -->
<g id="node11" class="node"><title>Node11</title>
<g id="a_node11"><a xlink:href="dji__mission__manager_8hpp.html" target="_top" xlink:title="Mission&#45;Manager API for DJI OSDK library. ">
<polygon fill="white" stroke="black" points="1233.5,-280.5 1233.5,-299.5 1360.5,-299.5 1360.5,-280.5 1233.5,-280.5"/>
<text text-anchor="middle" x="1297" y="-287.5" font-family="Helvetica,sans-Serif" font-size="10.00">dji_mission_manager.hpp</text>
</a>
</g>
</g>
<!-- Node1&#45;&gt;Node11 -->
<g id="edge12" class="edge"><title>Node1&#45;&gt;Node11</title>
<path fill="none" stroke="midnightblue" d="M1297,-392.337C1297,-371.622 1297,-333.016 1297,-309.899"/>
<polygon fill="midnightblue" stroke="midnightblue" points="1300.5,-309.669 1297,-299.669 1293.5,-309.669 1300.5,-309.669"/>
</g>
<!-- Node14 -->
<g id="node14" class="node"><title>Node14</title>
<g id="a_node14"><a xlink:href="dji__vehicle_8hpp.html" target="_top" xlink:title="Vehicle API for DJI onboardSDK library. ">
<polygon fill="white" stroke="black" points="670.5,-336.5 670.5,-355.5 751.5,-355.5 751.5,-336.5 670.5,-336.5"/>
<text text-anchor="middle" x="711" y="-343.5" font-family="Helvetica,sans-Serif" font-size="10.00">dji_vehicle.hpp</text>
</a>
</g>
</g>
<!-- Node1&#45;&gt;Node14 -->
<g id="edge18" class="edge"><title>Node1&#45;&gt;Node14</title>
<path fill="none" stroke="midnightblue" d="M1245,-401.22C1133.47,-389.896 872.472,-363.395 761.92,-352.17"/>
<polygon fill="midnightblue" stroke="midnightblue" points="762.004,-348.661 751.701,-351.133 761.297,-355.625 762.004,-348.661"/>
</g>
<!-- Node3 -->
<g id="node3" class="node"><title>Node3</title>
<g id="a_node3"><a xlink:href="dji__mission__base_8hpp.html" target="_top" xlink:title="Mission&#45;Base abstract class for DJI OSDK library. ">
<polygon fill="white" stroke="black" points="1252,-168.5 1252,-187.5 1362,-187.5 1362,-168.5 1252,-168.5"/>
<text text-anchor="middle" x="1307" y="-175.5" font-family="Helvetica,sans-Serif" font-size="10.00">dji_mission_base.hpp</text>
</a>
</g>
</g>
<!-- Node2&#45;&gt;Node3 -->
<g id="edge2" class="edge"><title>Node2&#45;&gt;Node3</title>
<path fill="none" stroke="midnightblue" d="M1386.74,-224.324C1371.78,-215.822 1348.75,-202.729 1331.27,-192.797"/>
<polygon fill="midnightblue" stroke="midnightblue" points="1332.65,-189.553 1322.23,-187.655 1329.19,-195.639 1332.65,-189.553"/>
</g>
<!-- Node4 -->
<g id="node4" class="node"><title>Node4</title>
<g id="a_node4"><a xlink:href="dji__command_8hpp.html" target="_top" xlink:title="All DJI OSDK OpenProtocol Command IDs. ">
<polygon fill="white" stroke="black" points="1275.5,-112.5 1275.5,-131.5 1368.5,-131.5 1368.5,-112.5 1275.5,-112.5"/>
<text text-anchor="middle" x="1322" y="-119.5" font-family="Helvetica,sans-Serif" font-size="10.00">dji_command.hpp</text>
</a>
</g>
</g>
<!-- Node3&#45;&gt;Node4 -->
<g id="edge3" class="edge"><title>Node3&#45;&gt;Node4</title>
<path fill="none" stroke="midnightblue" d="M1309.48,-168.083C1311.49,-160.849 1314.39,-150.409 1316.89,-141.397"/>
<polygon fill="midnightblue" stroke="midnightblue" points="1320.26,-142.323 1319.57,-131.751 1313.52,-140.449 1320.26,-142.323"/>
</g>
<!-- Node7 -->
<g id="node7" class="node"><title>Node7</title>
<g id="a_node7"><a xlink:href="dji__type_8hpp.html" target="_top" xlink:title="Data type and Data Structure definitions for use throughout DJI OSDK. ">
<polygon fill="white" stroke="black" points="1147.5,-112.5 1147.5,-131.5 1216.5,-131.5 1216.5,-112.5 1147.5,-112.5"/>
<text text-anchor="middle" x="1182" y="-119.5" font-family="Helvetica,sans-Serif" font-size="10.00">dji_type.hpp</text>
</a>
</g>
</g>
<!-- Node3&#45;&gt;Node7 -->
<g id="edge7" class="edge"><title>Node3&#45;&gt;Node7</title>
<path fill="none" stroke="midnightblue" d="M1287.19,-168.444C1266.71,-159.596 1234.52,-145.687 1211.14,-135.586"/>
<polygon fill="midnightblue" stroke="midnightblue" points="1212.28,-132.269 1201.71,-131.516 1209.51,-138.695 1212.28,-132.269"/>
</g>
<!-- Node9 -->
<g id="node9" class="node"><title>Node9</title>
<g id="a_node9"><a xlink:href="dji__vehicle__callback_8hpp.html" target="_top" xlink:title="Type definition for new Vehicle&#45;style callbacks. ">
<polygon fill="white" stroke="black" points="327,-112.5 327,-131.5 449,-131.5 449,-112.5 327,-112.5"/>
<text text-anchor="middle" x="388" y="-119.5" font-family="Helvetica,sans-Serif" font-size="10.00">dji_vehicle_callback.hpp</text>
</a>
</g>
</g>
<!-- Node3&#45;&gt;Node9 -->
<g id="edge10" class="edge"><title>Node3&#45;&gt;Node9</title>
<path fill="none" stroke="midnightblue" d="M1251.92,-173.764C1093.42,-164.45 636.228,-137.586 459.198,-127.184"/>
<polygon fill="midnightblue" stroke="midnightblue" points="459.397,-123.689 449.209,-126.597 458.986,-130.677 459.397,-123.689"/>
</g>
<!-- Node5 -->
<g id="node5" class="node"><title>Node5</title>
<g id="a_node5"><a xlink:href="dji__error_8hpp.html" target="_top" xlink:title="All DJI OSDK OpenProtocol ACK Error Codes. ">
<polygon fill="white" stroke="black" points="1294,-56.5 1294,-75.5 1364,-75.5 1364,-56.5 1294,-56.5"/>
<text text-anchor="middle" x="1329" y="-63.5" font-family="Helvetica,sans-Serif" font-size="10.00">dji_error.hpp</text>
</a>
</g>
</g>
<!-- Node4&#45;&gt;Node5 -->
<g id="edge4" class="edge"><title>Node4&#45;&gt;Node5</title>
<path fill="none" stroke="midnightblue" d="M1323.16,-112.083C1324.08,-104.927 1325.42,-94.6353 1326.58,-85.6911"/>
<polygon fill="midnightblue" stroke="midnightblue" points="1330.05,-86.1181 1327.87,-75.7511 1323.11,-85.2181 1330.05,-86.1181"/>
</g>
<!-- Node6 -->
<g id="node6" class="node"><title>Node6</title>
<polygon fill="white" stroke="#bfbfbf" points="1241.5,-0.5 1241.5,-19.5 1290.5,-19.5 1290.5,-0.5 1241.5,-0.5"/>
<text text-anchor="middle" x="1266" y="-7.5" font-family="Helvetica,sans-Serif" font-size="10.00">stdint.h</text>
</g>
<!-- Node4&#45;&gt;Node6 -->
<g id="edge6" class="edge"><title>Node4&#45;&gt;Node6</title>
<path fill="none" stroke="midnightblue" d="M1313.17,-112.477C1304.81,-103.958 1292.47,-90.1281 1285,-76 1277.27,-61.3832 1272.3,-43.2113 1269.39,-29.8006"/>
<polygon fill="midnightblue" stroke="midnightblue" points="1272.79,-28.9657 1267.41,-19.838 1265.93,-30.3279 1272.79,-28.9657"/>
</g>
<!-- Node5&#45;&gt;Node6 -->
<g id="edge5" class="edge"><title>Node5&#45;&gt;Node6</title>
<path fill="none" stroke="midnightblue" d="M1318.88,-56.324C1309.47,-48.2631 1295.26,-36.0765 1283.93,-26.3695"/>
<polygon fill="midnightblue" stroke="midnightblue" points="1286.18,-23.6844 1276.31,-19.8339 1281.62,-28.9993 1286.18,-23.6844"/>
</g>
<!-- Node7&#45;&gt;Node6 -->
<g id="edge9" class="edge"><title>Node7&#45;&gt;Node6</title>
<path fill="none" stroke="midnightblue" d="M1188.59,-112.368C1202.52,-94.135 1235.13,-51.4257 1253.27,-27.6752"/>
<polygon fill="midnightblue" stroke="midnightblue" points="1256.15,-29.6633 1259.44,-19.5914 1250.59,-25.4149 1256.15,-29.6633"/>
</g>
<!-- Node8 -->
<g id="node8" class="node"><title>Node8</title>
<polygon fill="white" stroke="#bfbfbf" points="1156.5,-56.5 1156.5,-75.5 1199.5,-75.5 1199.5,-56.5 1156.5,-56.5"/>
<text text-anchor="middle" x="1178" y="-63.5" font-family="Helvetica,sans-Serif" font-size="10.00">cstdio</text>
</g>
<!-- Node7&#45;&gt;Node8 -->
<g id="edge8" class="edge"><title>Node7&#45;&gt;Node8</title>
<path fill="none" stroke="midnightblue" d="M1181.34,-112.083C1180.82,-105.006 1180.06,-94.8611 1179.41,-85.9865"/>
<polygon fill="midnightblue" stroke="midnightblue" points="1182.88,-85.4652 1178.65,-75.7511 1175.9,-85.9823 1182.88,-85.4652"/>
</g>
<!-- Node10 -->
<g id="node10" class="node"><title>Node10</title>
<polygon fill="white" stroke="#bfbfbf" points="332.5,-56.5 332.5,-75.5 443.5,-75.5 443.5,-56.5 332.5,-56.5"/>
<text text-anchor="middle" x="388" y="-63.5" font-family="Helvetica,sans-Serif" font-size="10.00">dji_open_protocol.hpp</text>
</g>
<!-- Node9&#45;&gt;Node10 -->
<g id="edge11" class="edge"><title>Node9&#45;&gt;Node10</title>
<path fill="none" stroke="midnightblue" d="M388,-112.083C388,-105.006 388,-94.8611 388,-85.9865"/>
<polygon fill="midnightblue" stroke="midnightblue" points="391.5,-85.751 388,-75.7511 384.5,-85.7511 391.5,-85.751"/>
</g>
<!-- Node11&#45;&gt;Node2 -->
<g id="edge17" class="edge"><title>Node11&#45;&gt;Node2</title>
<path fill="none" stroke="midnightblue" d="M1313.87,-280.324C1330.71,-271.664 1356.81,-258.242 1376.24,-248.249"/>
<polygon fill="midnightblue" stroke="midnightblue" points="1377.88,-251.341 1385.17,-243.655 1374.68,-245.116 1377.88,-251.341"/>
</g>
<!-- Node12 -->
<g id="node12" class="node"><title>Node12</title>
<g id="a_node12"><a xlink:href="dji__hotpoint_8hpp.html" target="_top" xlink:title="Implementation of HotPoint (Point of Interest) Missions for DJI OSDK. ">
<polygon fill="white" stroke="black" points="1254.5,-224.5 1254.5,-243.5 1339.5,-243.5 1339.5,-224.5 1254.5,-224.5"/>
<text text-anchor="middle" x="1297" y="-231.5" font-family="Helvetica,sans-Serif" font-size="10.00">dji_hotpoint.hpp</text>
</a>
</g>
</g>
<!-- Node11&#45;&gt;Node12 -->
<g id="edge13" class="edge"><title>Node11&#45;&gt;Node12</title>
<path fill="none" stroke="midnightblue" d="M1297,-280.083C1297,-273.006 1297,-262.861 1297,-253.986"/>
<polygon fill="midnightblue" stroke="midnightblue" points="1300.5,-253.751 1297,-243.751 1293.5,-253.751 1300.5,-253.751"/>
</g>
<!-- Node12&#45;&gt;Node3 -->
<g id="edge14" class="edge"><title>Node12&#45;&gt;Node3</title>
<path fill="none" stroke="midnightblue" d="M1298.65,-224.083C1299.98,-216.927 1301.88,-206.635 1303.54,-197.691"/>
<polygon fill="midnightblue" stroke="midnightblue" points="1307,-198.221 1305.38,-187.751 1300.12,-196.947 1307,-198.221"/>
</g>
<!-- Node13 -->
<g id="node13" class="node"><title>Node13</title>
<g id="a_node13"><a xlink:href="dji__telemetry_8hpp.html" target="_top" xlink:title="Enumeration of all telemetry data types, structures and maps. ">
<polygon fill="white" stroke="black" points="558.5,-168.5 558.5,-187.5 649.5,-187.5 649.5,-168.5 558.5,-168.5"/>
<text text-anchor="middle" x="604" y="-175.5" font-family="Helvetica,sans-Serif" font-size="10.00">dji_telemetry.hpp</text>
</a>
</g>
</g>
<!-- Node12&#45;&gt;Node13 -->
<g id="edge15" class="edge"><title>Node12&#45;&gt;Node13</title>
<path fill="none" stroke="midnightblue" d="M1254.48,-225.281C1251.28,-224.809 1248.09,-224.375 1245,-224 1230.55,-222.246 813.142,-193.41 659.803,-182.842"/>
<polygon fill="midnightblue" stroke="midnightblue" points="659.876,-179.339 649.659,-182.143 659.395,-186.323 659.876,-179.339"/>
</g>
<!-- Node13&#45;&gt;Node7 -->
<g id="edge16" class="edge"><title>Node13&#45;&gt;Node7</title>
<path fill="none" stroke="midnightblue" d="M649.823,-169.827C654.605,-169.168 659.397,-168.545 664,-168 838.615,-147.34 1047.4,-132.067 1137.27,-125.944"/>
<polygon fill="midnightblue" stroke="midnightblue" points="1137.63,-129.428 1147.37,-125.26 1137.16,-122.444 1137.63,-129.428"/>
</g>
<!-- Node14&#45;&gt;Node4 -->
<g id="edge27" class="edge"><title>Node14&#45;&gt;Node4</title>
<path fill="none" stroke="midnightblue" d="M751.73,-344.022C895.962,-340.349 1377.22,-326.232 1441,-300 1510.91,-271.247 1537.76,-256.837 1569,-188 1572.67,-179.905 1574.69,-174.825 1569,-168 1545.25,-139.526 1443.96,-129.023 1378.69,-125.181"/>
<polygon fill="midnightblue" stroke="midnightblue" points="1378.72,-121.678 1368.54,-124.62 1378.33,-128.667 1378.72,-121.678"/>
</g>
<!-- Node14&#45;&gt;Node7 -->
<g id="edge59" class="edge"><title>Node14&#45;&gt;Node7</title>
<path fill="none" stroke="midnightblue" d="M751.706,-342.473C825.332,-337.362 977.322,-324.174 1024,-300 1061.24,-280.716 1139.18,-180.148 1169.53,-139.787"/>
<polygon fill="midnightblue" stroke="midnightblue" points="1172.38,-141.828 1175.56,-131.724 1166.77,-137.635 1172.38,-141.828"/>
</g>
<!-- Node14&#45;&gt;Node9 -->
<g id="edge60" class="edge"><title>Node14&#45;&gt;Node9</title>
<path fill="none" stroke="midnightblue" d="M670.227,-344.602C552.536,-343.032 218.555,-335.465 186,-300 165.241,-277.386 196.202,-245.57 217,-224 257.533,-181.963 319.28,-151.341 356.43,-135.429"/>
<polygon fill="midnightblue" stroke="midnightblue" points="357.896,-138.61 365.767,-131.518 355.191,-132.153 357.896,-138.61"/>
</g>
<!-- Node14&#45;&gt;Node10 -->
<g id="edge52" class="edge"><title>Node14&#45;&gt;Node10</title>
<path fill="none" stroke="midnightblue" d="M670.447,-345.163C549.144,-345.17 190.855,-341.579 83,-300 39.2815,-283.146 0,-281.855 0,-235 0,-235 0,-235 0,-177 0,-145.366 3.58753,-130.839 29,-112 74.1263,-78.547 231.434,-69.8729 322.142,-67.6829"/>
<polygon fill="midnightblue" stroke="midnightblue" points="322.403,-71.1781 332.323,-67.4575 322.248,-64.1798 322.403,-71.1781"/>
</g>
<!-- Node14&#45;&gt;Node11 -->
<g id="edge49" class="edge"><title>Node14&#45;&gt;Node11</title>
<path fill="none" stroke="midnightblue" d="M751.741,-341.246C849.442,-332.243 1098.2,-309.319 1223.1,-297.81"/>
<polygon fill="midnightblue" stroke="midnightblue" points="1223.69,-301.27 1233.33,-296.867 1223.05,-294.3 1223.69,-301.27"/>
</g>
<!-- Node15 -->
<g id="node15" class="node"><title>Node15</title>
<polygon fill="white" stroke="#bfbfbf" points="38,-112.5 38,-131.5 84,-131.5 84,-112.5 38,-112.5"/>
<text text-anchor="middle" x="61" y="-119.5" font-family="Helvetica,sans-Serif" font-size="10.00">cstdint</text>
</g>
<!-- Node14&#45;&gt;Node15 -->
<g id="edge19" class="edge"><title>Node14&#45;&gt;Node15</title>
<path fill="none" stroke="midnightblue" d="M670.416,-344.763C555.678,-343.634 230.863,-337.152 132,-300 93.0588,-285.366 75.6439,-281.188 57,-244 40.4175,-210.923 48.5324,-166.12 55.2196,-141.359"/>
<polygon fill="midnightblue" stroke="midnightblue" points="58.6532,-142.087 58.0978,-131.507 51.934,-140.124 58.6532,-142.087"/>
</g>
<!-- Node16 -->
<g id="node16" class="node"><title>Node16</title>
<g id="a_node16"><a xlink:href="dji__broadcast_8hpp.html" target="_top" xlink:title="Broadcast Telemetry API for DJI onboardSDK library. ">
<polygon fill="white" stroke="black" points="480.5,-224.5 480.5,-243.5 573.5,-243.5 573.5,-224.5 480.5,-224.5"/>
<text text-anchor="middle" x="527" y="-231.5" font-family="Helvetica,sans-Serif" font-size="10.00">dji_broadcast.hpp</text>
</a>
</g>
</g>
<!-- Node14&#45;&gt;Node16 -->
<g id="edge20" class="edge"><title>Node14&#45;&gt;Node16</title>
<path fill="none" stroke="midnightblue" d="M670.267,-344.622C633.09,-342.065 579.049,-332.455 546,-300 533.821,-288.04 529.345,-268.739 527.752,-254.27"/>
<polygon fill="midnightblue" stroke="midnightblue" points="531.217,-253.656 527.001,-243.936 524.235,-254.163 531.217,-253.656"/>
</g>
<!-- Node17 -->
<g id="node17" class="node"><title>Node17</title>
<g id="a_node17"><a xlink:href="dji__camera_8hpp.html" target="_top" xlink:title="Camera/Gimbal API for DJI onboardSDK library. ">
<polygon fill="white" stroke="black" points="1477.5,-168.5 1477.5,-187.5 1560.5,-187.5 1560.5,-168.5 1477.5,-168.5"/>
<text text-anchor="middle" x="1519" y="-175.5" font-family="Helvetica,sans-Serif" font-size="10.00">dji_camera.hpp</text>
</a>
</g>
</g>
<!-- Node14&#45;&gt;Node17 -->
<g id="edge23" class="edge"><title>Node14&#45;&gt;Node17</title>
<path fill="none" stroke="midnightblue" d="M751.951,-343.949C892.443,-340.126 1349.54,-325.813 1410,-300 1458.38,-279.345 1494.01,-224.796 1509.87,-196.533"/>
<polygon fill="midnightblue" stroke="midnightblue" points="1512.96,-198.19 1514.65,-187.731 1506.8,-194.854 1512.96,-198.19"/>
</g>
<!-- Node18 -->
<g id="node18" class="node"><title>Node18</title>
<polygon fill="white" stroke="#bfbfbf" points="195,-280.5 195,-299.5 307,-299.5 307,-280.5 195,-280.5"/>
<text text-anchor="middle" x="251" y="-287.5" font-family="Helvetica,sans-Serif" font-size="10.00">dji_circular_buffer.hpp</text>
</g>
<!-- Node14&#45;&gt;Node18 -->
<g id="edge26" class="edge"><title>Node14&#45;&gt;Node18</title>
<path fill="none" stroke="midnightblue" d="M670.273,-340.477C599.302,-332.556 448.363,-315.535 321,-300 319.734,-299.846 318.456,-299.689 317.168,-299.53"/>
<polygon fill="midnightblue" stroke="midnightblue" points="317.511,-296.046 307.156,-298.285 316.647,-302.993 317.511,-296.046"/>
</g>
<!-- Node19 -->
<g id="node19" class="node"><title>Node19</title>
<g id="a_node19"><a xlink:href="dji__control_8hpp.html" target="_top" xlink:title="Control API for DJI OSDK library. ">
<polygon fill="white" stroke="black" points="935,-280.5 935,-299.5 1015,-299.5 1015,-280.5 935,-280.5"/>
<text text-anchor="middle" x="975" y="-287.5" font-family="Helvetica,sans-Serif" font-size="10.00">dji_control.hpp</text>
</a>
</g>
</g>
<!-- Node14&#45;&gt;Node19 -->
<g id="edge28" class="edge"><title>Node14&#45;&gt;Node19</title>
<path fill="none" stroke="midnightblue" d="M751.671,-336.681C798.22,-327.16 874.488,-311.559 924.722,-301.284"/>
<polygon fill="midnightblue" stroke="midnightblue" points="925.62,-304.673 934.716,-299.24 924.217,-297.815 925.62,-304.673"/>
</g>
<!-- Node22 -->
<g id="node22" class="node"><title>Node22</title>
<g id="a_node22"><a xlink:href="dji__version_8hpp.html" target="_top" xlink:title="Drone/SDK Version definition for DJI onboardSDK library. ">
<polygon fill="white" stroke="black" points="744,-168.5 744,-187.5 826,-187.5 826,-168.5 744,-168.5"/>
<text text-anchor="middle" x="785" y="-175.5" font-family="Helvetica,sans-Serif" font-size="10.00">dji_version.hpp</text>
</a>
</g>
</g>
<!-- Node14&#45;&gt;Node22 -->
<g id="edge61" class="edge"><title>Node14&#45;&gt;Node22</title>
<path fill="none" stroke="midnightblue" d="M751.904,-340.38C798.832,-334.139 871.457,-321.276 888,-300 893.456,-292.983 891.442,-288.195 888,-280 883.455,-269.177 830.318,-220.031 802.204,-194.503"/>
<polygon fill="midnightblue" stroke="midnightblue" points="804.444,-191.809 794.681,-187.693 799.746,-196.998 804.444,-191.809"/>
</g>
<!-- Node24 -->
<g id="node24" class="node"><title>Node24</title>
<g id="a_node24"><a xlink:href="dji__gimbal_8hpp.html" target="_top" xlink:title="Gimbal API for OSDK library. ">
<polygon fill="white" stroke="black" points="1380.5,-168.5 1380.5,-187.5 1459.5,-187.5 1459.5,-168.5 1380.5,-168.5"/>
<text text-anchor="middle" x="1420" y="-175.5" font-family="Helvetica,sans-Serif" font-size="10.00">dji_gimbal.hpp</text>
</a>
</g>
</g>
<!-- Node14&#45;&gt;Node24 -->
<g id="edge41" class="edge"><title>Node14&#45;&gt;Node24</title>
<path fill="none" stroke="midnightblue" d="M751.545,-344.886C876.408,-344.12 1253.62,-338.586 1369,-300 1412.26,-285.534 1433.26,-284.097 1455,-244 1464.09,-227.235 1450.79,-207.999 1438.05,-194.829"/>
<polygon fill="midnightblue" stroke="midnightblue" points="1440.43,-192.255 1430.8,-187.84 1435.57,-197.297 1440.43,-192.255"/>
</g>
<!-- Node25 -->
<g id="node25" class="node"><title>Node25</title>
<polygon fill="white" stroke="#bfbfbf" points="401,-280.5 401,-299.5 499,-299.5 499,-280.5 401,-280.5"/>
<text text-anchor="middle" x="450" y="-287.5" font-family="Helvetica,sans-Serif" font-size="10.00">dji_hard_driver.hpp</text>
</g>
<!-- Node14&#45;&gt;Node25 -->
<g id="edge44" class="edge"><title>Node14&#45;&gt;Node25</title>
<path fill="none" stroke="midnightblue" d="M670.219,-336.562C624.614,-327.127 550.677,-311.83 501.214,-301.596"/>
<polygon fill="midnightblue" stroke="midnightblue" points="501.858,-298.155 491.356,-299.556 500.44,-305.01 501.858,-298.155"/>
</g>
<!-- Node26 -->
<g id="node26" class="node"><title>Node26</title>
<g id="a_node26"><a xlink:href="dji__hardware__sync_8hpp.html" target="_top" xlink:title="Hardware Sync API for DJI OSDK. ">
<polygon fill="white" stroke="black" points="1120,-224.5 1120,-243.5 1236,-243.5 1236,-224.5 1120,-224.5"/>
<text text-anchor="middle" x="1178" y="-231.5" font-family="Helvetica,sans-Serif" font-size="10.00">dji_hardware_sync.hpp</text>
</a>
</g>
</g>
<!-- Node14&#45;&gt;Node26 -->
<g id="edge45" class="edge"><title>Node14&#45;&gt;Node26</title>
<path fill="none" stroke="midnightblue" d="M751.717,-343.502C839.441,-339.77 1043.4,-328.247 1106,-300 1130.12,-289.114 1151.76,-267.098 1164.88,-251.719"/>
<polygon fill="midnightblue" stroke="midnightblue" points="1167.93,-253.517 1171.57,-243.566 1162.52,-249.076 1167.93,-253.517"/>
</g>
<!-- Node27 -->
<g id="node27" class="node"><title>Node27</title>
<g id="a_node27"><a xlink:href="dji__mfio_8hpp.html" target="_top" xlink:title="MFIO API for DJI OSDK library. ">
<polygon fill="white" stroke="black" points="226.5,-224.5 226.5,-243.5 295.5,-243.5 295.5,-224.5 226.5,-224.5"/>
<text text-anchor="middle" x="261" y="-231.5" font-family="Helvetica,sans-Serif" font-size="10.00">dji_mfio.hpp</text>
</a>
</g>
</g>
<!-- Node14&#45;&gt;Node27 -->
<g id="edge47" class="edge"><title>Node14&#45;&gt;Node27</title>
<path fill="none" stroke="midnightblue" d="M670.324,-344.265C606.639,-342.063 480.208,-333.439 379,-300 342.5,-287.941 304.23,-264.574 281.507,-249.39"/>
<polygon fill="midnightblue" stroke="midnightblue" points="283.281,-246.364 273.045,-243.63 279.343,-252.15 283.281,-246.364"/>
</g>
<!-- Node28 -->
<g id="node28" class="node"><title>Node28</title>
<g id="a_node28"><a xlink:href="dji__mobile__communication_8hpp.html" target="_top" xlink:title="Implementation of DJI Mobile&#45;Onboard SDK Communication (MOC) ">
<polygon fill="white" stroke="black" points="313,-224.5 313,-243.5 463,-243.5 463,-224.5 313,-224.5"/>
<text text-anchor="middle" x="388" y="-231.5" font-family="Helvetica,sans-Serif" font-size="10.00">dji_mobile_communication.hpp</text>
</a>
</g>
</g>
<!-- Node14&#45;&gt;Node28 -->
<g id="edge50" class="edge"><title>Node14&#45;&gt;Node28</title>
<path fill="none" stroke="midnightblue" d="M670.41,-345.371C593.032,-345.141 428.824,-339.841 392,-300 380.748,-287.826 381.073,-268.274 383.405,-253.79"/>
<polygon fill="midnightblue" stroke="midnightblue" points="386.851,-254.405 385.42,-243.907 379.992,-253.006 386.851,-254.405"/>
</g>
<!-- Node29 -->
<g id="node29" class="node"><title>Node29</title>
<g id="a_node29"><a xlink:href="dji__status_8hpp.html" target="_top" xlink:title="Status information for DJI Vehicle. ">
<polygon fill="white" stroke="black" points="555.5,-280.5 555.5,-299.5 632.5,-299.5 632.5,-280.5 555.5,-280.5"/>
<text text-anchor="middle" x="594" y="-287.5" font-family="Helvetica,sans-Serif" font-size="10.00">dji_status.hpp</text>
</a>
</g>
</g>
<!-- Node14&#45;&gt;Node29 -->
<g id="edge53" class="edge"><title>Node14&#45;&gt;Node29</title>
<path fill="none" stroke="midnightblue" d="M692.461,-336.444C673.377,-327.636 643.425,-313.812 621.564,-303.722"/>
<polygon fill="midnightblue" stroke="midnightblue" points="622.999,-300.529 612.452,-299.516 620.065,-306.885 622.999,-300.529"/>
</g>
<!-- Node30 -->
<g id="node30" class="node"><title>Node30</title>
<g id="a_node30"><a xlink:href="dji__subscription_8hpp.html" target="_top" xlink:title="Telemetry Subscription API for DJI OSDK library. ">
<polygon fill="white" stroke="black" points="66.5,-224.5 66.5,-243.5 169.5,-243.5 169.5,-224.5 66.5,-224.5"/>
<text text-anchor="middle" x="118" y="-231.5" font-family="Helvetica,sans-Serif" font-size="10.00">dji_subscription.hpp</text>
</a>
</g>
</g>
<!-- Node14&#45;&gt;Node30 -->
<g id="edge54" class="edge"><title>Node14&#45;&gt;Node30</title>
<path fill="none" stroke="midnightblue" d="M670.18,-343.941C548.826,-340.486 196.023,-328.105 153,-300 136.767,-289.396 127.497,-268.626 122.63,-253.408"/>
<polygon fill="midnightblue" stroke="midnightblue" points="125.924,-252.197 119.827,-243.533 119.19,-254.108 125.924,-252.197"/>
</g>
<!-- Node31 -->
<g id="node31" class="node"><title>Node31</title>
<polygon fill="white" stroke="#bfbfbf" points="651,-280.5 651,-299.5 771,-299.5 771,-280.5 651,-280.5"/>
<text text-anchor="middle" x="711" y="-287.5" font-family="Helvetica,sans-Serif" font-size="10.00">dji_thread_manager.hpp</text>
</g>
<!-- Node14&#45;&gt;Node31 -->
<g id="edge58" class="edge"><title>Node14&#45;&gt;Node31</title>
<path fill="none" stroke="midnightblue" d="M711,-336.083C711,-329.006 711,-318.861 711,-309.986"/>
<polygon fill="midnightblue" stroke="midnightblue" points="714.5,-309.751 711,-299.751 707.5,-309.751 714.5,-309.751"/>
</g>
<!-- Node32 -->
<g id="node32" class="node"><title>Node32</title>
<g id="a_node32"><a xlink:href="dji__virtual__rc_8hpp.html" target="_top" xlink:title="Virtual Radio Control API for DJI onboardSDK library. ">
<polygon fill="white" stroke="black" points="789,-280.5 789,-299.5 879,-299.5 879,-280.5 789,-280.5"/>
<text text-anchor="middle" x="834" y="-287.5" font-family="Helvetica,sans-Serif" font-size="10.00">dji_virtual_rc.hpp</text>
</a>
</g>
</g>
<!-- Node14&#45;&gt;Node32 -->
<g id="edge62" class="edge"><title>Node14&#45;&gt;Node32</title>
<path fill="none" stroke="midnightblue" d="M730.49,-336.444C750.642,-327.596 782.323,-313.687 805.331,-303.586"/>
<polygon fill="midnightblue" stroke="midnightblue" points="806.852,-306.741 814.601,-299.516 804.038,-300.332 806.852,-306.741"/>
</g>
<!-- Node16&#45;&gt;Node9 -->
<g id="edge22" class="edge"><title>Node16&#45;&gt;Node9</title>
<path fill="none" stroke="midnightblue" d="M516.093,-224.368C492.443,-205.653 436.209,-161.151 406.743,-137.832"/>
<polygon fill="midnightblue" stroke="midnightblue" points="408.87,-135.052 398.856,-131.591 404.526,-140.542 408.87,-135.052"/>
</g>
<!-- Node16&#45;&gt;Node13 -->
<g id="edge21" class="edge"><title>Node16&#45;&gt;Node13</title>
<path fill="none" stroke="midnightblue" d="M539.371,-224.324C551.158,-216.058 569.132,-203.453 583.136,-193.632"/>
<polygon fill="midnightblue" stroke="midnightblue" points="585.482,-196.262 591.659,-187.655 581.462,-190.531 585.482,-196.262"/>
</g>
<!-- Node17&#45;&gt;Node4 -->
<g id="edge24" class="edge"><title>Node17&#45;&gt;Node4</title>
<path fill="none" stroke="midnightblue" d="M1487.78,-168.444C1454.07,-159.201 1400.2,-144.436 1363.07,-134.257"/>
<polygon fill="midnightblue" stroke="midnightblue" points="1363.64,-130.785 1353.07,-131.516 1361.79,-137.536 1363.64,-130.785"/>
</g>
<!-- Node17&#45;&gt;Node7 -->
<g id="edge25" class="edge"><title>Node17&#45;&gt;Node7</title>
<path fill="none" stroke="midnightblue" d="M1477.26,-169.569C1474.13,-169.032 1471.02,-168.503 1468,-168 1382.82,-153.784 1283.16,-138.382 1226.82,-129.788"/>
<polygon fill="midnightblue" stroke="midnightblue" points="1227.23,-126.31 1216.81,-128.264 1226.17,-133.23 1227.23,-126.31"/>
</g>
<!-- Node19&#45;&gt;Node7 -->
<g id="edge39" class="edge"><title>Node19&#45;&gt;Node7</title>
<path fill="none" stroke="midnightblue" d="M985.838,-280.309C1019.3,-253.472 1121.28,-171.694 1163.45,-137.878"/>
<polygon fill="midnightblue" stroke="midnightblue" points="1165.66,-140.592 1171.27,-131.605 1161.28,-135.131 1165.66,-140.592"/>
</g>
<!-- Node19&#45;&gt;Node9 -->
<g id="edge40" class="edge"><title>Node19&#45;&gt;Node9</title>
<path fill="none" stroke="midnightblue" d="M952.174,-280.407C928.209,-271.376 889.437,-256.739 856,-244 767.916,-210.441 748.949,-192.762 658,-168 591.633,-149.93 514.001,-137.909 459.059,-130.872"/>
<polygon fill="midnightblue" stroke="midnightblue" points="459.431,-127.391 449.072,-129.616 458.557,-134.336 459.431,-127.391"/>
</g>
<!-- Node19&#45;&gt;Node10 -->
<g id="edge38" class="edge"><title>Node19&#45;&gt;Node10</title>
<path fill="none" stroke="midnightblue" d="M958.938,-280.473C943.977,-272.158 921.423,-258.654 904,-244 869.085,-214.635 874.411,-190.982 835,-168 713.067,-96.8963 545.455,-75.8372 454.038,-69.6084"/>
<polygon fill="midnightblue" stroke="midnightblue" points="454.019,-66.1 443.815,-68.9523 453.57,-73.0856 454.019,-66.1"/>
</g>
<!-- Node20 -->
<g id="node20" class="node"><title>Node20</title>
<g id="a_node20"><a xlink:href="dji__ack_8hpp.html" target="_top" xlink:title="All DJI OSDK ACK parsing. ">
<polygon fill="white" stroke="black" points="913,-224.5 913,-243.5 979,-243.5 979,-224.5 913,-224.5"/>
<text text-anchor="middle" x="946" y="-231.5" font-family="Helvetica,sans-Serif" font-size="10.00">dji_ack.hpp</text>
</a>
</g>
</g>
<!-- Node19&#45;&gt;Node20 -->
<g id="edge29" class="edge"><title>Node19&#45;&gt;Node20</title>
<path fill="none" stroke="midnightblue" d="M970.211,-280.083C966.242,-272.691 960.475,-261.953 955.565,-252.811"/>
<polygon fill="midnightblue" stroke="midnightblue" points="958.514,-250.905 950.7,-243.751 952.347,-254.217 958.514,-250.905"/>
</g>
<!-- Node20&#45;&gt;Node4 -->
<g id="edge30" class="edge"><title>Node20&#45;&gt;Node4</title>
<path fill="none" stroke="midnightblue" d="M975.191,-224.46C1042.32,-204.822 1207.66,-156.45 1283.21,-134.348"/>
<polygon fill="midnightblue" stroke="midnightblue" points="1284.21,-137.702 1292.83,-131.535 1282.25,-130.983 1284.21,-137.702"/>
</g>
<!-- Node20&#45;&gt;Node7 -->
<g id="edge33" class="edge"><title>Node20&#45;&gt;Node7</title>
<path fill="none" stroke="midnightblue" d="M945.881,-224.405C946.183,-210.425 948.932,-182.833 965,-168 989.618,-145.274 1081.17,-132.643 1137.2,-126.889"/>
<polygon fill="midnightblue" stroke="midnightblue" points="1137.61,-130.365 1147.22,-125.894 1136.92,-123.399 1137.61,-130.365"/>
</g>
<!-- Node21 -->
<g id="node21" class="node"><title>Node21</title>
<g id="a_node21"><a xlink:href="dji__mission__type_8hpp.html" target="_top" xlink:title="Mission related data struct for DJI OSDK library. ">
<polygon fill="white" stroke="black" points="974,-168.5 974,-187.5 1082,-187.5 1082,-168.5 974,-168.5"/>
<text text-anchor="middle" x="1028" y="-175.5" font-family="Helvetica,sans-Serif" font-size="10.00">dji_mission_type.hpp</text>
</a>
</g>
</g>
<!-- Node20&#45;&gt;Node21 -->
<g id="edge31" class="edge"><title>Node20&#45;&gt;Node21</title>
<path fill="none" stroke="midnightblue" d="M959.175,-224.324C971.847,-215.979 991.233,-203.212 1006.21,-193.352"/>
<polygon fill="midnightblue" stroke="midnightblue" points="1008.43,-196.078 1014.86,-187.655 1004.58,-190.231 1008.43,-196.078"/>
</g>
<!-- Node20&#45;&gt;Node22 -->
<g id="edge34" class="edge"><title>Node20&#45;&gt;Node22</title>
<path fill="none" stroke="midnightblue" d="M920.489,-224.444C893.404,-215.359 850.41,-200.939 820.131,-190.783"/>
<polygon fill="midnightblue" stroke="midnightblue" points="820.986,-187.378 810.392,-187.516 818.76,-194.015 820.986,-187.378"/>
</g>
<!-- Node23 -->
<g id="node23" class="node"><title>Node23</title>
<polygon fill="white" stroke="#bfbfbf" points="882.5,-168.5 882.5,-187.5 917.5,-187.5 917.5,-168.5 882.5,-168.5"/>
<text text-anchor="middle" x="900" y="-175.5" font-family="Helvetica,sans-Serif" font-size="10.00">map</text>
</g>
<!-- Node20&#45;&gt;Node23 -->
<g id="edge37" class="edge"><title>Node20&#45;&gt;Node23</title>
<path fill="none" stroke="midnightblue" d="M938.404,-224.083C931.773,-216.298 921.979,-204.801 913.942,-195.367"/>
<polygon fill="midnightblue" stroke="midnightblue" points="916.604,-193.094 907.455,-187.751 911.275,-197.633 916.604,-193.094"/>
</g>
<!-- Node21&#45;&gt;Node7 -->
<g id="edge32" class="edge"><title>Node21&#45;&gt;Node7</title>
<path fill="none" stroke="midnightblue" d="M1052.4,-168.444C1078.2,-159.399 1119.08,-145.064 1148.02,-134.916"/>
<polygon fill="midnightblue" stroke="midnightblue" points="1149.43,-138.128 1157.71,-131.516 1147.12,-131.523 1149.43,-138.128"/>
</g>
<!-- Node22&#45;&gt;Node4 -->
<g id="edge35" class="edge"><title>Node22&#45;&gt;Node4</title>
<path fill="none" stroke="midnightblue" d="M826.186,-172.77C840.951,-171.259 857.721,-169.547 873,-168 1014.18,-153.705 1180.37,-137.11 1265.49,-128.627"/>
<polygon fill="midnightblue" stroke="midnightblue" points="1265.85,-132.108 1275.46,-127.633 1265.16,-125.142 1265.85,-132.108"/>
</g>
<!-- Node22&#45;&gt;Node15 -->
<g id="edge36" class="edge"><title>Node22&#45;&gt;Node15</title>
<path fill="none" stroke="midnightblue" d="M743.738,-173.922C613.491,-164.208 212.725,-134.316 94.2903,-125.483"/>
<polygon fill="midnightblue" stroke="midnightblue" points="94.2732,-121.972 84.0405,-124.718 93.7524,-128.953 94.2732,-121.972"/>
</g>
<!-- Node24&#45;&gt;Node4 -->
<g id="edge42" class="edge"><title>Node24&#45;&gt;Node4</title>
<path fill="none" stroke="midnightblue" d="M1404.25,-168.324C1388.68,-159.743 1364.62,-146.486 1346.54,-136.522"/>
<polygon fill="midnightblue" stroke="midnightblue" points="1348.15,-133.415 1337.71,-131.655 1344.78,-139.546 1348.15,-133.415"/>
</g>
<!-- Node24&#45;&gt;Node7 -->
<g id="edge43" class="edge"><title>Node24&#45;&gt;Node7</title>
<path fill="none" stroke="midnightblue" d="M1382.29,-168.444C1340,-158.85 1271.49,-143.304 1226.59,-133.116"/>
<polygon fill="midnightblue" stroke="midnightblue" points="1227.35,-129.701 1216.83,-130.902 1225.8,-136.528 1227.35,-129.701"/>
</g>
<!-- Node26&#45;&gt;Node7 -->
<g id="edge46" class="edge"><title>Node26&#45;&gt;Node7</title>
<path fill="none" stroke="midnightblue" d="M1183.64,-224.481C1189.05,-215.745 1196.86,-201.556 1200,-188 1203.71,-171.977 1197.93,-153.97 1191.96,-140.979"/>
<polygon fill="midnightblue" stroke="midnightblue" points="1194.94,-139.117 1187.3,-131.77 1188.69,-142.274 1194.94,-139.117"/>
</g>
<!-- Node27&#45;&gt;Node9 -->
<g id="edge48" class="edge"><title>Node27&#45;&gt;Node9</title>
<path fill="none" stroke="midnightblue" d="M270.965,-224.368C292.388,-205.814 343.073,-161.913 370.177,-138.438"/>
<polygon fill="midnightblue" stroke="midnightblue" points="372.813,-140.784 378.081,-131.591 368.23,-135.493 372.813,-140.784"/>
</g>
<!-- Node28&#45;&gt;Node9 -->
<g id="edge51" class="edge"><title>Node28&#45;&gt;Node9</title>
<path fill="none" stroke="midnightblue" d="M388,-224.368C388,-206.617 388,-165.666 388,-141.597"/>
<polygon fill="midnightblue" stroke="midnightblue" points="391.5,-141.591 388,-131.591 384.5,-141.591 391.5,-141.591"/>
</g>
<!-- Node30&#45;&gt;Node9 -->
<g id="edge57" class="edge"><title>Node30&#45;&gt;Node9</title>
<path fill="none" stroke="midnightblue" d="M124.209,-224.28C134.783,-210.119 157.712,-182.274 184,-168 224.842,-145.824 275.909,-134.573 316.732,-128.867"/>
<polygon fill="midnightblue" stroke="midnightblue" points="317.42,-132.307 326.878,-127.533 316.507,-125.367 317.42,-132.307"/>
</g>
<!-- Node30&#45;&gt;Node10 -->
<g id="edge55" class="edge"><title>Node30&#45;&gt;Node10</title>
<path fill="none" stroke="midnightblue" d="M120.767,-224.25C125.509,-210.545 136.412,-183.939 154,-168 207.485,-119.532 287.819,-91.8226 339.07,-78.0968"/>
<polygon fill="midnightblue" stroke="midnightblue" points="340.118,-81.4406 348.915,-75.5361 338.356,-74.666 340.118,-81.4406"/>
</g>
<!-- Node30&#45;&gt;Node13 -->
<g id="edge56" class="edge"><title>Node30&#45;&gt;Node13</title>
<path fill="none" stroke="midnightblue" d="M169.55,-227.272C261.593,-217.045 453.435,-195.729 548.352,-185.183"/>
<polygon fill="midnightblue" stroke="midnightblue" points="548.779,-188.657 558.332,-184.074 548.006,-181.7 548.779,-188.657"/>
</g>
<!-- Node32&#45;&gt;Node7 -->
<g id="edge65" class="edge"><title>Node32&#45;&gt;Node7</title>
<path fill="none" stroke="midnightblue" d="M817.462,-280.398C780.715,-260.236 698.315,-208.563 735,-168 761.644,-138.539 1028.94,-127.47 1137.02,-124.178"/>
<polygon fill="midnightblue" stroke="midnightblue" points="1137.37,-127.669 1147.27,-123.874 1137.17,-120.672 1137.37,-127.669"/>
</g>
<!-- Node32&#45;&gt;Node10 -->
<g id="edge64" class="edge"><title>Node32&#45;&gt;Node10</title>
<path fill="none" stroke="midnightblue" d="M788.686,-280.599C739.129,-271.076 663.138,-255.4 636,-244 545.196,-205.855 537.375,-170.309 458,-112 442.958,-100.95 425.272,-89.593 411.44,-81.0526"/>
<polygon fill="midnightblue" stroke="midnightblue" points="412.918,-77.8544 402.56,-75.6285 409.269,-83.8281 412.918,-77.8544"/>
</g>
<!-- Node32&#45;&gt;Node13 -->
<g id="edge66" class="edge"><title>Node32&#45;&gt;Node13</title>
<path fill="none" stroke="midnightblue" d="M791.037,-280.498C748.02,-271.48 685.25,-256.798 664,-244 643.736,-231.796 626.136,-210.746 615.33,-195.914"/>
<polygon fill="midnightblue" stroke="midnightblue" points="618.121,-193.798 609.516,-187.616 612.388,-197.815 618.121,-193.798"/>
</g>
<!-- Node32&#45;&gt;Node20 -->
<g id="edge63" class="edge"><title>Node32&#45;&gt;Node20</title>
<path fill="none" stroke="midnightblue" d="M851.995,-280.324C870.038,-271.625 898.047,-258.12 918.803,-248.113"/>
<polygon fill="midnightblue" stroke="midnightblue" points="920.562,-251.15 928.05,-243.655 917.522,-244.845 920.562,-251.15"/>
</g>
</g>
</svg>
        <g id="navigator" transform="translate(0 0)" fill="#404254">
                <rect fill="#f2f5e9" fill-opacity="0.5" stroke="#606060" stroke-width=".5" x="0" y="0" width="60" height="60"/>
                <use id="zoomplus" xlink:href="#zoomPlus" x="17" y="9" onmousedown="handleZoom(evt,'in')"/>
                <use id="zoomminus" xlink:href="#zoomMin" x="42" y="9" onmousedown="handleZoom(evt,'out')"/>
                <use id="reset" xlink:href="#resetDef" x="30" y="36" onmousedown="handleReset()"/>
                <g id="arrowUp" xlink:href="#dirArrow" transform="translate(30 24)" onmousedown="handlePan(0,-1)">
                  <use xlink:href="#rim" fill="#404040">
                        <set attributeName="fill" to="#808080" begin="arrowUp.mouseover" end="arrowUp.mouseout"/>
                  </use>
                  <path fill="none" stroke="white" stroke-width="1.5" d="M0,-3.0v7 M-2.5,-0.5L0,-3.0L2.5,-0.5"/>
                </g>
                <g id="arrowRight" xlink:href="#dirArrow" transform="rotate(90) translate(36 -43)" onmousedown="handlePan(1,0)">
                  <use xlink:href="#rim" fill="#404040">
                        <set attributeName="fill" to="#808080" begin="arrowRight.mouseover" end="arrowRight.mouseout"/>
                  </use>
                  <path fill="none" stroke="white" stroke-width="1.5" d="M0,-3.0v7 M-2.5,-0.5L0,-3.0L2.5,-0.5"/>
                </g>
                <g id="arrowDown" xlink:href="#dirArrow" transform="rotate(180) translate(-30 -48)" onmousedown="handlePan(0,1)">
                  <use xlink:href="#rim" fill="#404040">
                        <set attributeName="fill" to="#808080" begin="arrowDown.mouseover" end="arrowDown.mouseout"/>
                  </use>
                  <path fill="none" stroke="white" stroke-width="1.5" d="M0,-3.0v7 M-2.5,-0.5L0,-3.0L2.5,-0.5"/>
                </g>
                <g id="arrowLeft" xlink:href="#dirArrow" transform="rotate(270) translate(-36 17)" onmousedown="handlePan(-1,0)">
                  <use xlink:href="#rim" fill="#404040">
                        <set attributeName="fill" to="#808080" begin="arrowLeft.mouseover" end="arrowLeft.mouseout"/>
                  </use>
                  <path fill="none" stroke="white" stroke-width="1.5" d="M0,-3.0v7 M-2.5,-0.5L0,-3.0L2.5,-0.5"/>
                </g>
        </g>
        <svg viewBox="0 0 15 15" width="100%" height="30px" preserveAspectRatio="xMaxYMin meet">
         <g id="arrow_out" transform="scale(0.3 0.3)">
          <a xlink:href="dji__waypoint_8cpp__incl_org.svg" target="_base">
           <rect id="button" ry="5" rx="5" y="6" x="6" height="38" width="38"
                fill="#f2f5e9" fill-opacity="0.5" stroke="#606060" stroke-width="1.0"/>
           <path id="arrow"
             d="M 11.500037,31.436501 C 11.940474,20.09759 22.043105,11.32322 32.158766,21.979434 L 37.068811,17.246167 C 37.068811,17.246167 37.088388,32 37.088388,32 L 22.160133,31.978069 C 22.160133,31.978069 26.997745,27.140456 26.997745,27.140456 C 18.528582,18.264221 13.291696,25.230495 11.500037,31.436501 z"
             style="fill:#404040;"/>
          </a>
         </g>
        </svg>
</svg>
