<?xml version="1.0" encoding="UTF-8" standalone="no"?>
<!DOCTYPE svg PUBLIC "-//W3C//DTD SVG 1.1//EN"
 "http://www.w3.org/Graphics/SVG/1.1/DTD/svg11.dtd">
<!-- Generated by graphviz version 2.40.1 (20161225.0304)
 -->
<!-- Title: osdk&#45;core/api/src/dji_vehicle.cpp Pages: 1 -->
<svg width="2272pt" height="431pt"
 viewBox="0.00 0.00 2272.00 431.00" xmlns="http://www.w3.org/2000/svg" xmlns:xlink="http://www.w3.org/1999/xlink">
<g id="graph0" class="graph" transform="scale(1 1) rotate(0) translate(4 427)">
<title>osdk&#45;core/api/src/dji_vehicle.cpp</title>
<polygon fill="#ffffff" stroke="transparent" points="-4,4 -4,-427 2268,-427 2268,4 -4,4"/>
<!-- Node0 -->
<g id="node1" class="node">
<title>Node0</title>
<g id="a_node1"><a xlink:title="Vehicle API for DJI onboardSDK library.">
<polygon fill="#bfbfbf" stroke="#000000" points="1166,-392.5 1166,-422.5 1270,-422.5 1270,-392.5 1166,-392.5"/>
<text text-anchor="start" x="1174" y="-410.5" font-family="Helvetica,sans-Serif" font-size="10.00" fill="#000000">osdk&#45;core/api/src/dji</text>
<text text-anchor="middle" x="1218" y="-399.5" font-family="Helvetica,sans-Serif" font-size="10.00" fill="#000000">_vehicle.cpp</text>
</a>
</g>
</g>
<!-- Node1 -->
<g id="node2" class="node">
<title>Node1</title>
<g id="a_node2"><a xlink:href="dji__vehicle_8hpp.html" target="_top" xlink:title="Vehicle API for DJI onboardSDK library.">
<polygon fill="#ffffff" stroke="#000000" points="1139.5,-336.5 1139.5,-355.5 1220.5,-355.5 1220.5,-336.5 1139.5,-336.5"/>
<text text-anchor="middle" x="1180" y="-343.5" font-family="Helvetica,sans-Serif" font-size="10.00" fill="#000000">dji_vehicle.hpp</text>
</a>
</g>
</g>
<!-- Node0&#45;&gt;Node1 -->
<g id="edge1" class="edge">
<title>Node0&#45;&gt;Node1</title>
<path fill="none" stroke="#191970" d="M1208.6067,-392.2977C1203.3869,-383.8498 1196.8543,-373.2773 1191.35,-364.369"/>
<polygon fill="#191970" stroke="#191970" points="1194.3182,-362.5143 1186.0843,-355.8469 1188.3632,-366.1938 1194.3182,-362.5143"/>
</g>
<!-- Node38 -->
<g id="node39" class="node">
<title>Node38</title>
<g id="a_node39"><a xlink:title=" ">
<polygon fill="#ffffff" stroke="#bfbfbf" points="1238.5,-336.5 1238.5,-355.5 1273.5,-355.5 1273.5,-336.5 1238.5,-336.5"/>
<text text-anchor="middle" x="1256" y="-343.5" font-family="Helvetica,sans-Serif" font-size="10.00" fill="#000000">new</text>
</a>
</g>
</g>
<!-- Node0&#45;&gt;Node38 -->
<g id="edge74" class="edge">
<title>Node0&#45;&gt;Node38</title>
<path fill="none" stroke="#191970" d="M1227.3933,-392.2977C1232.6131,-383.8498 1239.1457,-373.2773 1244.65,-364.369"/>
<polygon fill="#191970" stroke="#191970" points="1247.6368,-366.1938 1249.9157,-355.8469 1241.6818,-362.5143 1247.6368,-366.1938"/>
</g>
<!-- Node2 -->
<g id="node3" class="node">
<title>Node2</title>
<g id="a_node3"><a xlink:title=" ">
<polygon fill="#ffffff" stroke="#bfbfbf" points="0,-112.5 0,-131.5 46,-131.5 46,-112.5 0,-112.5"/>
<text text-anchor="middle" x="23" y="-119.5" font-family="Helvetica,sans-Serif" font-size="10.00" fill="#000000">cstdint</text>
</a>
</g>
</g>
<!-- Node1&#45;&gt;Node2 -->
<g id="edge2" class="edge">
<title>Node1&#45;&gt;Node2</title>
<path fill="none" stroke="#191970" d="M1139.312,-345.1595C961.6487,-341.3542 258.5226,-324.8416 163,-300 109.1383,-285.9927 91.1692,-282.5191 51,-244 30.467,-224.3104 27.115,-215.5438 20,-188 17.7768,-179.3936 19.7106,-176.8842 20,-168 20.283,-159.3113 20.866,-149.714 21.4434,-141.5436"/>
<polygon fill="#191970" stroke="#191970" points="24.9384,-141.7404 22.1987,-131.5059 17.9582,-141.2151 24.9384,-141.7404"/>
</g>
<!-- Node3 -->
<g id="node4" class="node">
<title>Node3</title>
<g id="a_node4"><a xlink:href="dji__broadcast_8hpp.html" target="_top" xlink:title="Broadcast Telemetry API for DJI onboardSDK library.">
<polygon fill="#ffffff" stroke="#000000" points="1133.5,-224.5 1133.5,-243.5 1226.5,-243.5 1226.5,-224.5 1133.5,-224.5"/>
<text text-anchor="middle" x="1180" y="-231.5" font-family="Helvetica,sans-Serif" font-size="10.00" fill="#000000">dji_broadcast.hpp</text>
</a>
</g>
</g>
<!-- Node1&#45;&gt;Node3 -->
<g id="edge3" class="edge">
<title>Node1&#45;&gt;Node3</title>
<path fill="none" stroke="#191970" d="M1180,-336.4509C1180,-318.184 1180,-277.9553 1180,-253.6976"/>
<polygon fill="#191970" stroke="#191970" points="1183.5001,-253.5249 1180,-243.5249 1176.5001,-253.5249 1183.5001,-253.5249"/>
</g>
<!-- Node5 -->
<g id="node6" class="node">
<title>Node5</title>
<g id="a_node6"><a xlink:href="dji__type_8hpp.html" target="_top" xlink:title="Data type and Data Structure definitions for use throughout DJI OSDK.">
<polygon fill="#ffffff" stroke="#000000" points="560.5,-112.5 560.5,-131.5 629.5,-131.5 629.5,-112.5 560.5,-112.5"/>
<text text-anchor="middle" x="595" y="-119.5" font-family="Helvetica,sans-Serif" font-size="10.00" fill="#000000">dji_type.hpp</text>
</a>
</g>
</g>
<!-- Node1&#45;&gt;Node5 -->
<g id="edge64" class="edge">
<title>Node1&#45;&gt;Node5</title>
<path fill="none" stroke="#191970" d="M1139.4681,-340.7555C1111.6749,-335.1356 1075.8333,-323.5898 1053,-300 1010.0875,-255.6657 1057.8551,-206.9474 1010,-168 981.6955,-144.964 741.1335,-129.7058 639.7579,-124.243"/>
<polygon fill="#191970" stroke="#191970" points="639.7052,-120.7353 629.5336,-123.6999 639.3338,-127.7255 639.7052,-120.7353"/>
</g>
<!-- Node8 -->
<g id="node9" class="node">
<title>Node8</title>
<g id="a_node9"><a xlink:href="dji__vehicle__callback_8hpp.html" target="_top" xlink:title="Type definition for new Vehicle&#45;style callbacks.">
<polygon fill="#ffffff" stroke="#000000" points="1216,-112.5 1216,-131.5 1338,-131.5 1338,-112.5 1216,-112.5"/>
<text text-anchor="middle" x="1277" y="-119.5" font-family="Helvetica,sans-Serif" font-size="10.00" fill="#000000">dji_vehicle_callback.hpp</text>
</a>
</g>
</g>
<!-- Node1&#45;&gt;Node8 -->
<g id="edge65" class="edge">
<title>Node1&#45;&gt;Node8</title>
<path fill="none" stroke="#191970" d="M1220.6053,-337.5645C1223.7783,-337.0015 1226.9378,-336.4718 1230,-336 1376.253,-313.4672 1419.5933,-343.61 1561,-300 1567.3175,-298.0517 1662.5986,-249.669 1666,-244 1700.5782,-186.3697 1469.7761,-147.1045 1348.3041,-130.6719"/>
<polygon fill="#191970" stroke="#191970" points="1348.7021,-127.1941 1338.327,-129.3403 1347.776,-134.1326 1348.7021,-127.1941"/>
</g>
<!-- Node9 -->
<g id="node10" class="node">
<title>Node9</title>
<g id="a_node10"><a xlink:title=" ">
<polygon fill="#ffffff" stroke="#bfbfbf" points="1011.5,-56.5 1011.5,-75.5 1122.5,-75.5 1122.5,-56.5 1011.5,-56.5"/>
<text text-anchor="middle" x="1067" y="-63.5" font-family="Helvetica,sans-Serif" font-size="10.00" fill="#000000">dji_open_protocol.hpp</text>
</a>
</g>
</g>
<!-- Node1&#45;&gt;Node9 -->
<g id="edge56" class="edge">
<title>Node1&#45;&gt;Node9</title>
<path fill="none" stroke="#191970" d="M1158.2125,-336.466C1125.376,-320.4478 1067,-284.8238 1067,-234 1067,-234 1067,-234 1067,-178 1067,-145.7116 1067,-108.1872 1067,-85.8048"/>
<polygon fill="#191970" stroke="#191970" points="1070.5001,-85.5883 1067,-75.5884 1063.5001,-85.5884 1070.5001,-85.5883"/>
</g>
<!-- Node10 -->
<g id="node11" class="node">
<title>Node10</title>
<g id="a_node11"><a xlink:href="dji__camera_8hpp.html" target="_top" xlink:title="Camera/Gimbal API for DJI onboardSDK library.">
<polygon fill="#ffffff" stroke="#000000" points="136.5,-168.5 136.5,-187.5 219.5,-187.5 219.5,-168.5 136.5,-168.5"/>
<text text-anchor="middle" x="178" y="-175.5" font-family="Helvetica,sans-Serif" font-size="10.00" fill="#000000">dji_camera.hpp</text>
</a>
</g>
</g>
<!-- Node1&#45;&gt;Node10 -->
<g id="edge10" class="edge">
<title>Node1&#45;&gt;Node10</title>
<path fill="none" stroke="#191970" d="M1139.4128,-344.8285C986.6057,-340.2598 450.9313,-322.7616 378,-300 304.9368,-277.1972 231.2179,-221.9948 197.2877,-194.3478"/>
<polygon fill="#191970" stroke="#191970" points="199.1108,-191.3138 189.1736,-187.639 194.6503,-196.7086 199.1108,-191.3138"/>
</g>
<!-- Node11 -->
<g id="node12" class="node">
<title>Node11</title>
<g id="a_node12"><a xlink:href="dji__command_8hpp.html" target="_top" xlink:title="All DJI OSDK OpenProtocol Command IDs.">
<polygon fill="#ffffff" stroke="#000000" points="223.5,-112.5 223.5,-131.5 316.5,-131.5 316.5,-112.5 223.5,-112.5"/>
<text text-anchor="middle" x="270" y="-119.5" font-family="Helvetica,sans-Serif" font-size="10.00" fill="#000000">dji_command.hpp</text>
</a>
</g>
</g>
<!-- Node1&#45;&gt;Node11 -->
<g id="edge17" class="edge">
<title>Node1&#45;&gt;Node11</title>
<path fill="none" stroke="#191970" d="M1139.326,-344.8781C973.2579,-340.1718 351.3691,-321.2769 266,-300 152.1748,-271.6309 89.9353,-286.9957 27,-188 22.2311,-180.4987 21.3292,-174.845 27,-168 50.2061,-139.9889 149.1414,-128.906 213.3965,-124.6135"/>
<polygon fill="#191970" stroke="#191970" points="213.6352,-128.1055 223.3943,-123.9814 213.1934,-121.1195 213.6352,-128.1055"/>
</g>
<!-- Node13 -->
<g id="node14" class="node">
<title>Node13</title>
<g id="a_node14"><a xlink:title=" ">
<polygon fill="#ffffff" stroke="#bfbfbf" points="1656,-280.5 1656,-299.5 1768,-299.5 1768,-280.5 1656,-280.5"/>
<text text-anchor="middle" x="1712" y="-287.5" font-family="Helvetica,sans-Serif" font-size="10.00" fill="#000000">dji_circular_buffer.hpp</text>
</a>
</g>
</g>
<!-- Node1&#45;&gt;Node13 -->
<g id="edge16" class="edge">
<title>Node1&#45;&gt;Node13</title>
<path fill="none" stroke="#191970" d="M1220.5945,-337.4919C1223.7699,-336.9455 1226.9329,-336.4393 1230,-336 1411.9516,-309.9365 1459.3953,-321.0051 1642,-300 1643.2691,-299.854 1644.5507,-299.7034 1645.8417,-299.5487"/>
<polygon fill="#191970" stroke="#191970" points="1646.3828,-303.0084 1655.871,-298.2941 1645.5139,-296.0625 1646.3828,-303.0084"/>
</g>
<!-- Node14 -->
<g id="node15" class="node">
<title>Node14</title>
<g id="a_node15"><a xlink:href="dji__control_8hpp.html" target="_top" xlink:title="Control API for DJI OSDK library.">
<polygon fill="#ffffff" stroke="#000000" points="639,-280.5 639,-299.5 719,-299.5 719,-280.5 639,-280.5"/>
<text text-anchor="middle" x="679" y="-287.5" font-family="Helvetica,sans-Serif" font-size="10.00" fill="#000000">dji_control.hpp</text>
</a>
</g>
</g>
<!-- Node1&#45;&gt;Node14 -->
<g id="edge18" class="edge">
<title>Node1&#45;&gt;Node14</title>
<path fill="none" stroke="#191970" d="M1139.4254,-341.4647C1048.53,-331.3048 828.7678,-306.7405 729.3464,-295.6275"/>
<polygon fill="#191970" stroke="#191970" points="729.5811,-292.1321 719.2542,-294.4995 728.8035,-299.0887 729.5811,-292.1321"/>
</g>
<!-- Node17 -->
<g id="node18" class="node">
<title>Node17</title>
<g id="a_node18"><a xlink:href="dji__version_8hpp.html" target="_top" xlink:title="Drone/SDK Version definition for DJI onboardSDK library.">
<polygon fill="#ffffff" stroke="#000000" points="36,-168.5 36,-187.5 118,-187.5 118,-168.5 36,-168.5"/>
<text text-anchor="middle" x="77" y="-175.5" font-family="Helvetica,sans-Serif" font-size="10.00" fill="#000000">dji_version.hpp</text>
</a>
</g>
</g>
<!-- Node1&#45;&gt;Node17 -->
<g id="edge66" class="edge">
<title>Node1&#45;&gt;Node17</title>
<path fill="none" stroke="#191970" d="M1139.3656,-344.7595C980.4709,-339.7791 406.0419,-320.5146 327,-300 237.7209,-276.8284 142.5094,-220.3284 99.9077,-193.1254"/>
<polygon fill="#191970" stroke="#191970" points="101.7026,-190.1182 91.4028,-187.6353 97.9062,-195.9993 101.7026,-190.1182"/>
</g>
<!-- Node19 -->
<g id="node20" class="node">
<title>Node19</title>
<g id="a_node20"><a xlink:href="dji__gimbal_8hpp.html" target="_top" xlink:title="Gimbal API for OSDK library.">
<polygon fill="#ffffff" stroke="#000000" points="237.5,-168.5 237.5,-187.5 316.5,-187.5 316.5,-168.5 237.5,-168.5"/>
<text text-anchor="middle" x="277" y="-175.5" font-family="Helvetica,sans-Serif" font-size="10.00" fill="#000000">dji_gimbal.hpp</text>
</a>
</g>
</g>
<!-- Node1&#45;&gt;Node19 -->
<g id="edge31" class="edge">
<title>Node1&#45;&gt;Node19</title>
<path fill="none" stroke="#191970" d="M1139.1624,-345.754C1003.648,-344.5827 569.8596,-337.8917 436,-300 385.1107,-285.5948 371.874,-277.5642 331,-244 314.1058,-230.1271 298.7355,-210.3007 288.7516,-196.0038"/>
<polygon fill="#191970" stroke="#191970" points="291.5136,-193.8406 283.0066,-187.5254 285.7186,-197.7672 291.5136,-193.8406"/>
</g>
<!-- Node20 -->
<g id="node21" class="node">
<title>Node20</title>
<g id="a_node21"><a xlink:title=" ">
<polygon fill="#ffffff" stroke="#bfbfbf" points="1786,-280.5 1786,-299.5 1884,-299.5 1884,-280.5 1786,-280.5"/>
<text text-anchor="middle" x="1835" y="-287.5" font-family="Helvetica,sans-Serif" font-size="10.00" fill="#000000">dji_hard_driver.hpp</text>
</a>
</g>
</g>
<!-- Node1&#45;&gt;Node20 -->
<g id="edge34" class="edge">
<title>Node1&#45;&gt;Node20</title>
<path fill="none" stroke="#191970" d="M1220.5844,-337.4183C1223.7621,-336.8887 1226.9284,-336.4064 1230,-336 1468.2295,-304.4771 1533.2932,-328.0727 1775.5149,-300.0592"/>
<polygon fill="#191970" stroke="#191970" points="1776.167,-303.5067 1785.6905,-298.8642 1775.3505,-296.5545 1776.167,-303.5067"/>
</g>
<!-- Node21 -->
<g id="node22" class="node">
<title>Node21</title>
<g id="a_node22"><a xlink:href="dji__hardware__sync_8hpp.html" target="_top" xlink:title="Hardware Sync API for DJI OSDK.">
<polygon fill="#ffffff" stroke="#000000" points="1095,-168.5 1095,-187.5 1211,-187.5 1211,-168.5 1095,-168.5"/>
<text text-anchor="middle" x="1153" y="-175.5" font-family="Helvetica,sans-Serif" font-size="10.00" fill="#000000">dji_hardware_sync.hpp</text>
</a>
</g>
</g>
<!-- Node1&#45;&gt;Node21 -->
<g id="edge35" class="edge">
<title>Node1&#45;&gt;Node21</title>
<path fill="none" stroke="#191970" d="M1172.5824,-336.2731C1159.8496,-318.894 1134.3065,-280.8678 1125,-244 1122.8244,-235.3815 1122.6,-232.5588 1125,-224 1127.7878,-214.0584 1133.3812,-204.1336 1138.8407,-196.0613"/>
<polygon fill="#191970" stroke="#191970" points="1141.7676,-197.9866 1144.7911,-187.8323 1136.0952,-193.8849 1141.7676,-197.9866"/>
</g>
<!-- Node23 -->
<g id="node24" class="node">
<title>Node23</title>
<g id="a_node24"><a xlink:href="dji__mfio_8hpp.html" target="_top" xlink:title="MFIO API for DJI OSDK library.">
<polygon fill="#ffffff" stroke="#000000" points="1713.5,-224.5 1713.5,-243.5 1782.5,-243.5 1782.5,-224.5 1713.5,-224.5"/>
<text text-anchor="middle" x="1748" y="-231.5" font-family="Helvetica,sans-Serif" font-size="10.00" fill="#000000">dji_mfio.hpp</text>
</a>
</g>
</g>
<!-- Node1&#45;&gt;Node23 -->
<g id="edge39" class="edge">
<title>Node1&#45;&gt;Node23</title>
<path fill="none" stroke="#191970" d="M1220.5989,-337.5221C1223.7733,-336.9688 1226.9349,-336.4528 1230,-336 1395.1974,-311.5939 1442.8675,-343.8423 1604,-300 1624.3378,-294.4663 1627.8536,-288.8126 1647,-280 1670.615,-269.1307 1697.3927,-256.9411 1717.4398,-247.842"/>
<polygon fill="#191970" stroke="#191970" points="1719.0361,-250.9612 1726.6972,-243.6428 1716.1444,-244.5864 1719.0361,-250.9612"/>
</g>
<!-- Node24 -->
<g id="node25" class="node">
<title>Node24</title>
<g id="a_node25"><a xlink:href="dji__mission__manager_8hpp.html" target="_top" xlink:title="Mission&#45;Manager API for DJI OSDK library.">
<polygon fill="#ffffff" stroke="#000000" points="852.5,-280.5 852.5,-299.5 979.5,-299.5 979.5,-280.5 852.5,-280.5"/>
<text text-anchor="middle" x="916" y="-287.5" font-family="Helvetica,sans-Serif" font-size="10.00" fill="#000000">dji_mission_manager.hpp</text>
</a>
</g>
</g>
<!-- Node1&#45;&gt;Node24 -->
<g id="edge41" class="edge">
<title>Node1&#45;&gt;Node24</title>
<path fill="none" stroke="#191970" d="M1139.3286,-337.3727C1094.2688,-327.8146 1021.3597,-312.349 971.175,-301.7038"/>
<polygon fill="#191970" stroke="#191970" points="971.6516,-298.2271 961.143,-299.5758 970.199,-305.0747 971.6516,-298.2271"/>
</g>
<!-- Node29 -->
<g id="node30" class="node">
<title>Node29</title>
<g id="a_node30"><a xlink:href="dji__mobile__communication_8hpp.html" target="_top" xlink:title="Implementation of DJI Mobile&#45;Onboard SDK Communication (MOC)">
<polygon fill="#ffffff" stroke="#000000" points="1374,-280.5 1374,-299.5 1524,-299.5 1524,-280.5 1374,-280.5"/>
<text text-anchor="middle" x="1449" y="-287.5" font-family="Helvetica,sans-Serif" font-size="10.00" fill="#000000">dji_mobile_communication.hpp</text>
</a>
</g>
</g>
<!-- Node1&#45;&gt;Node29 -->
<g id="edge51" class="edge">
<title>Node1&#45;&gt;Node29</title>
<path fill="none" stroke="#191970" d="M1220.5633,-337.5556C1266.5215,-327.9881 1341.7062,-312.3363 1393.1799,-301.6205"/>
<polygon fill="#191970" stroke="#191970" points="1394.066,-305.0112 1403.1428,-299.5465 1392.6393,-298.1581 1394.066,-305.0112"/>
</g>
<!-- Node31 -->
<g id="node32" class="node">
<title>Node31</title>
<g id="a_node32"><a xlink:href="dji__mobile__device_8hpp.html" target="_top" xlink:title="Implementation of DJI Mobile Device Abstraction.">
<polygon fill="#ffffff" stroke="#000000" points="1244.5,-224.5 1244.5,-243.5 1357.5,-243.5 1357.5,-224.5 1244.5,-224.5"/>
<text text-anchor="middle" x="1301" y="-231.5" font-family="Helvetica,sans-Serif" font-size="10.00" fill="#000000">dji_mobile_device.hpp</text>
</a>
</g>
</g>
<!-- Node1&#45;&gt;Node31 -->
<g id="edge54" class="edge">
<title>Node1&#45;&gt;Node31</title>
<path fill="none" stroke="#191970" d="M1190.3164,-336.4509C1210.9442,-317.3574 1257.4943,-274.2697 1283.1672,-250.5063"/>
<polygon fill="#191970" stroke="#191970" points="1285.7485,-252.8864 1290.7097,-243.5249 1280.9935,-247.7492 1285.7485,-252.8864"/>
</g>
<!-- Node32 -->
<g id="node33" class="node">
<title>Node32</title>
<g id="a_node33"><a xlink:title=" ">
<polygon fill="#ffffff" stroke="#bfbfbf" points="1902,-280.5 1902,-299.5 2030,-299.5 2030,-280.5 1902,-280.5"/>
<text text-anchor="middle" x="1966" y="-287.5" font-family="Helvetica,sans-Serif" font-size="10.00" fill="#000000">dji_platform_manager.hpp</text>
</a>
</g>
</g>
<!-- Node1&#45;&gt;Node32 -->
<g id="edge57" class="edge">
<title>Node1&#45;&gt;Node32</title>
<path fill="none" stroke="#191970" d="M1220.5793,-337.3789C1223.7582,-336.8582 1226.9261,-336.3888 1230,-336 1519.4801,-299.3841 1597.4905,-327.404 1891.8269,-300.0317"/>
<polygon fill="#191970" stroke="#191970" points="1892.3135,-303.5014 1901.9405,-299.0774 1891.6559,-296.5324 1892.3135,-303.5014"/>
</g>
<!-- Node33 -->
<g id="node34" class="node">
<title>Node33</title>
<g id="a_node34"><a xlink:href="dji__status_8hpp.html" target="_top" xlink:title="Status information for DJI Vehicle.">
<polygon fill="#ffffff" stroke="#000000" points="2048.5,-280.5 2048.5,-299.5 2125.5,-299.5 2125.5,-280.5 2048.5,-280.5"/>
<text text-anchor="middle" x="2087" y="-287.5" font-family="Helvetica,sans-Serif" font-size="10.00" fill="#000000">dji_status.hpp</text>
</a>
</g>
</g>
<!-- Node1&#45;&gt;Node33 -->
<g id="edge58" class="edge">
<title>Node1&#45;&gt;Node33</title>
<path fill="none" stroke="#191970" d="M1220.5751,-337.3453C1223.755,-336.8323 1226.9243,-336.3738 1230,-336 1583.9681,-292.9837 1680.1157,-343.8863 2038.1887,-299.8778"/>
<polygon fill="#191970" stroke="#191970" points="2038.8265,-303.3255 2048.3172,-298.6163 2037.9613,-296.3791 2038.8265,-303.3255"/>
</g>
<!-- Node34 -->
<g id="node35" class="node">
<title>Node34</title>
<g id="a_node35"><a xlink:href="dji__subscription_8hpp.html" target="_top" xlink:title="Telemetry Subscription API for DJI OSDK library.">
<polygon fill="#ffffff" stroke="#000000" points="1553.5,-224.5 1553.5,-243.5 1656.5,-243.5 1656.5,-224.5 1553.5,-224.5"/>
<text text-anchor="middle" x="1605" y="-231.5" font-family="Helvetica,sans-Serif" font-size="10.00" fill="#000000">dji_subscription.hpp</text>
</a>
</g>
</g>
<!-- Node1&#45;&gt;Node34 -->
<g id="edge59" class="edge">
<title>Node1&#45;&gt;Node34</title>
<path fill="none" stroke="#191970" d="M1220.6106,-337.5984C1223.7824,-337.0277 1226.9401,-336.487 1230,-336 1363.9283,-314.6853 1409.7375,-356.5461 1533,-300 1556.9282,-289.023 1578.314,-267.0867 1591.4408,-251.5206"/>
<polygon fill="#191970" stroke="#191970" points="1594.2562,-253.6058 1597.8475,-243.6382 1588.8242,-249.1907 1594.2562,-253.6058"/>
</g>
<!-- Node35 -->
<g id="node36" class="node">
<title>Node35</title>
<g id="a_node36"><a xlink:title=" ">
<polygon fill="#ffffff" stroke="#bfbfbf" points="2144,-280.5 2144,-299.5 2264,-299.5 2264,-280.5 2144,-280.5"/>
<text text-anchor="middle" x="2204" y="-287.5" font-family="Helvetica,sans-Serif" font-size="10.00" fill="#000000">dji_thread_manager.hpp</text>
</a>
</g>
</g>
<!-- Node1&#45;&gt;Node35 -->
<g id="edge63" class="edge">
<title>Node1&#45;&gt;Node35</title>
<path fill="none" stroke="#191970" d="M1220.5732,-337.3291C1223.7534,-336.8198 1226.9234,-336.3665 1230,-336 1626.3958,-288.7751 1732.4019,-336.1189 2133.6939,-300.0205"/>
<polygon fill="#191970" stroke="#191970" points="2134.1921,-303.4897 2143.8331,-299.0964 2133.5567,-296.5186 2134.1921,-303.4897"/>
</g>
<!-- Node36 -->
<g id="node37" class="node">
<title>Node36</title>
<g id="a_node37"><a xlink:href="dji__virtual__rc_8hpp.html" target="_top" xlink:title="Virtual Radio Control API for DJI onboardSDK library.">
<polygon fill="#ffffff" stroke="#000000" points="445,-280.5 445,-299.5 535,-299.5 535,-280.5 445,-280.5"/>
<text text-anchor="middle" x="490" y="-287.5" font-family="Helvetica,sans-Serif" font-size="10.00" fill="#000000">dji_virtual_rc.hpp</text>
</a>
</g>
</g>
<!-- Node1&#45;&gt;Node36 -->
<g id="edge67" class="edge">
<title>Node1&#45;&gt;Node36</title>
<path fill="none" stroke="#191970" d="M1139.4134,-342.706C1021.7283,-333.1548 680.1768,-305.4346 545.5164,-294.5057"/>
<polygon fill="#191970" stroke="#191970" points="545.6711,-291.0068 535.4208,-293.6863 545.1048,-297.9839 545.6711,-291.0068"/>
</g>
<!-- Node37 -->
<g id="node38" class="node">
<title>Node37</title>
<g id="a_node38"><a xlink:href="dji__payload__device_8hpp.html" target="_top" xlink:title="Implementation of DJI Payload Device Abstraction.">
<polygon fill="#ffffff" stroke="#000000" points="1305,-168.5 1305,-187.5 1423,-187.5 1423,-168.5 1305,-168.5"/>
<text text-anchor="middle" x="1364" y="-175.5" font-family="Helvetica,sans-Serif" font-size="10.00" fill="#000000">dji_payload_device.hpp</text>
</a>
</g>
</g>
<!-- Node1&#45;&gt;Node37 -->
<g id="edge72" class="edge">
<title>Node1&#45;&gt;Node37</title>
<path fill="none" stroke="#191970" d="M1220.659,-336.8431C1265.5018,-324.3313 1335.4748,-297.1056 1367,-244 1375.2237,-230.1469 1373.5206,-211.6279 1370.3078,-197.7328"/>
<polygon fill="#191970" stroke="#191970" points="1373.5918,-196.474 1367.5684,-187.758 1366.8417,-198.3279 1373.5918,-196.474"/>
</g>
<!-- Node4 -->
<g id="node5" class="node">
<title>Node4</title>
<g id="a_node5"><a xlink:href="dji__telemetry_8hpp.html" target="_top" xlink:title="Enumeration of all telemetry data types, structures and maps.">
<polygon fill="#ffffff" stroke="#000000" points="909.5,-168.5 909.5,-187.5 1000.5,-187.5 1000.5,-168.5 909.5,-168.5"/>
<text text-anchor="middle" x="955" y="-175.5" font-family="Helvetica,sans-Serif" font-size="10.00" fill="#000000">dji_telemetry.hpp</text>
</a>
</g>
</g>
<!-- Node3&#45;&gt;Node4 -->
<g id="edge4" class="edge">
<title>Node3&#45;&gt;Node4</title>
<path fill="none" stroke="#191970" d="M1141.5768,-224.4369C1103.3125,-214.9133 1044.4663,-200.2672 1003.1151,-189.9753"/>
<polygon fill="#191970" stroke="#191970" points="1003.8141,-186.5426 993.2647,-187.5237 1002.1234,-193.3353 1003.8141,-186.5426"/>
</g>
<!-- Node3&#45;&gt;Node8 -->
<g id="edge8" class="edge">
<title>Node3&#45;&gt;Node8</title>
<path fill="none" stroke="#191970" d="M1188.2831,-224.4934C1196.3789,-215.1972 1209.0492,-200.6366 1220,-188 1234.1524,-171.669 1250.2428,-153.0315 1261.7106,-139.7364"/>
<polygon fill="#191970" stroke="#191970" points="1264.6322,-141.7078 1268.5122,-131.849 1259.331,-137.1364 1264.6322,-141.7078"/>
</g>
<!-- Node4&#45;&gt;Node5 -->
<g id="edge5" class="edge">
<title>Node4&#45;&gt;Node5</title>
<path fill="none" stroke="#191970" d="M909.4058,-170.9076C840.0301,-160.1158 708.7668,-139.6971 639.8418,-128.9754"/>
<polygon fill="#191970" stroke="#191970" points="640.1558,-125.4822 629.7367,-127.4035 639.0798,-132.399 640.1558,-125.4822"/>
</g>
<!-- Node6 -->
<g id="node7" class="node">
<title>Node6</title>
<g id="a_node7"><a xlink:title=" ">
<polygon fill="#ffffff" stroke="#bfbfbf" points="573.5,-56.5 573.5,-75.5 616.5,-75.5 616.5,-56.5 573.5,-56.5"/>
<text text-anchor="middle" x="595" y="-63.5" font-family="Helvetica,sans-Serif" font-size="10.00" fill="#000000">cstdio</text>
</a>
</g>
</g>
<!-- Node5&#45;&gt;Node6 -->
<g id="edge6" class="edge">
<title>Node5&#45;&gt;Node6</title>
<path fill="none" stroke="#191970" d="M595,-112.2455C595,-104.9382 595,-94.6944 595,-85.7046"/>
<polygon fill="#191970" stroke="#191970" points="598.5001,-85.6426 595,-75.6427 591.5001,-85.6427 598.5001,-85.6426"/>
</g>
<!-- Node7 -->
<g id="node8" class="node">
<title>Node7</title>
<g id="a_node8"><a xlink:title=" ">
<polygon fill="#ffffff" stroke="#bfbfbf" points="308.5,-.5 308.5,-19.5 357.5,-19.5 357.5,-.5 308.5,-.5"/>
<text text-anchor="middle" x="333" y="-7.5" font-family="Helvetica,sans-Serif" font-size="10.00" fill="#000000">stdint.h</text>
</a>
</g>
</g>
<!-- Node5&#45;&gt;Node7 -->
<g id="edge7" class="edge">
<title>Node5&#45;&gt;Node7</title>
<path fill="none" stroke="#191970" d="M572.662,-112.4509C526.0632,-92.5308 418.3705,-46.4942 364.656,-23.5323"/>
<polygon fill="#191970" stroke="#191970" points="365.8523,-20.2374 355.2814,-19.5249 363.1007,-26.6739 365.8523,-20.2374"/>
</g>
<!-- Node8&#45;&gt;Node9 -->
<g id="edge9" class="edge">
<title>Node8&#45;&gt;Node9</title>
<path fill="none" stroke="#191970" d="M1240.8997,-112.3733C1205.3752,-102.9001 1151.012,-88.4032 1112.5381,-78.1435"/>
<polygon fill="#191970" stroke="#191970" points="1113.1934,-74.696 1102.6292,-75.5011 1111.3897,-81.4596 1113.1934,-74.696"/>
</g>
<!-- Node10&#45;&gt;Node5 -->
<g id="edge15" class="edge">
<title>Node10&#45;&gt;Node5</title>
<path fill="none" stroke="#191970" d="M219.7069,-169.5803C222.8472,-169.0205 225.9711,-168.4867 229,-168 344.3243,-149.4689 481.0991,-133.9939 550.2227,-126.6264"/>
<polygon fill="#191970" stroke="#191970" points="550.7456,-130.0907 560.3212,-125.5566 550.008,-123.1296 550.7456,-130.0907"/>
</g>
<!-- Node10&#45;&gt;Node11 -->
<g id="edge11" class="edge">
<title>Node10&#45;&gt;Node11</title>
<path fill="none" stroke="#191970" d="M194.0252,-168.2455C208.1408,-159.6534 228.9263,-147.0014 245.1899,-137.1018"/>
<polygon fill="#191970" stroke="#191970" points="247.4363,-139.8319 254.1585,-131.6427 243.7966,-133.8525 247.4363,-139.8319"/>
</g>
<!-- Node11&#45;&gt;Node7 -->
<g id="edge14" class="edge">
<title>Node11&#45;&gt;Node7</title>
<path fill="none" stroke="#191970" d="M282.1346,-112.2631C292.052,-103.6942 305.7383,-90.3714 314,-76 322.264,-61.6247 327.1563,-43.3918 329.9014,-29.7342"/>
<polygon fill="#191970" stroke="#191970" points="333.4124,-29.9833 331.7293,-19.523 326.5219,-28.7498 333.4124,-29.9833"/>
</g>
<!-- Node12 -->
<g id="node13" class="node">
<title>Node12</title>
<g id="a_node13"><a xlink:href="dji__error_8hpp.html" target="_top" xlink:title="All DJI OSDK OpenProtocol ACK Error Codes.">
<polygon fill="#ffffff" stroke="#000000" points="235,-56.5 235,-75.5 305,-75.5 305,-56.5 235,-56.5"/>
<text text-anchor="middle" x="270" y="-63.5" font-family="Helvetica,sans-Serif" font-size="10.00" fill="#000000">dji_error.hpp</text>
</a>
</g>
</g>
<!-- Node11&#45;&gt;Node12 -->
<g id="edge12" class="edge">
<title>Node11&#45;&gt;Node12</title>
<path fill="none" stroke="#191970" d="M270,-112.2455C270,-104.9382 270,-94.6944 270,-85.7046"/>
<polygon fill="#191970" stroke="#191970" points="273.5001,-85.6426 270,-75.6427 266.5001,-85.6427 273.5001,-85.6426"/>
</g>
<!-- Node12&#45;&gt;Node7 -->
<g id="edge13" class="edge">
<title>Node12&#45;&gt;Node7</title>
<path fill="none" stroke="#191970" d="M280.9738,-56.2455C290.1882,-48.0549 303.5532,-36.1749 314.4297,-26.5069"/>
<polygon fill="#191970" stroke="#191970" points="317.0032,-28.9023 322.152,-19.6427 312.3526,-23.6704 317.0032,-28.9023"/>
</g>
<!-- Node14&#45;&gt;Node5 -->
<g id="edge29" class="edge">
<title>Node14&#45;&gt;Node5</title>
<path fill="none" stroke="#191970" d="M675.4074,-280.2763C672.1565,-271.0653 667.506,-256.7792 665,-244 658.4724,-210.7132 674.7361,-197.5046 658,-168 650.4725,-154.7295 637.3698,-144.2306 625.0566,-136.6338"/>
<polygon fill="#191970" stroke="#191970" points="626.7359,-133.5621 616.3212,-131.6169 623.2497,-139.6323 626.7359,-133.5621"/>
</g>
<!-- Node14&#45;&gt;Node8 -->
<g id="edge30" class="edge">
<title>Node14&#45;&gt;Node8</title>
<path fill="none" stroke="#191970" d="M714.8452,-280.4487C741.0578,-272.6603 776.9563,-260.2887 806,-244 853.1603,-217.5509 851.1605,-188.9684 901,-168 914.8412,-162.1768 1100.3683,-141.2431 1205.5232,-129.7278"/>
<polygon fill="#191970" stroke="#191970" points="1206.191,-133.1758 1215.7514,-128.6097 1205.4303,-126.2172 1206.191,-133.1758"/>
</g>
<!-- Node14&#45;&gt;Node9 -->
<g id="edge28" class="edge">
<title>Node14&#45;&gt;Node9</title>
<path fill="none" stroke="#191970" d="M680.2855,-280.1707C683.9254,-256.6052 696.5886,-196.7196 734,-168 813.3121,-107.1145 929.1098,-82.3271 1001.1616,-72.4074"/>
<polygon fill="#191970" stroke="#191970" points="1002.0084,-75.8262 1011.4652,-71.0492 1001.0936,-68.8862 1002.0084,-75.8262"/>
</g>
<!-- Node15 -->
<g id="node16" class="node">
<title>Node15</title>
<g id="a_node16"><a xlink:href="dji__ack_8hpp.html" target="_top" xlink:title="All DJI OSDK ACK parsing.">
<polygon fill="#ffffff" stroke="#000000" points="457,-224.5 457,-243.5 523,-243.5 523,-224.5 457,-224.5"/>
<text text-anchor="middle" x="490" y="-231.5" font-family="Helvetica,sans-Serif" font-size="10.00" fill="#000000">dji_ack.hpp</text>
</a>
</g>
</g>
<!-- Node14&#45;&gt;Node15 -->
<g id="edge19" class="edge">
<title>Node14&#45;&gt;Node15</title>
<path fill="none" stroke="#191970" d="M646.5097,-280.3733C614.8098,-270.9807 566.4424,-256.6496 531.8714,-246.4064"/>
<polygon fill="#191970" stroke="#191970" points="532.6486,-242.9863 522.0663,-243.5011 530.6599,-249.6979 532.6486,-242.9863"/>
</g>
<!-- Node15&#45;&gt;Node5 -->
<g id="edge23" class="edge">
<title>Node15&#45;&gt;Node5</title>
<path fill="none" stroke="#191970" d="M494.7149,-224.2631C501.6161,-210.653 515.4607,-185.6324 532,-168 543.1833,-156.0776 557.8263,-145.1717 570.1804,-136.9743"/>
<polygon fill="#191970" stroke="#191970" points="572.1675,-139.8578 578.6893,-131.5081 568.3841,-133.9683 572.1675,-139.8578"/>
</g>
<!-- Node15&#45;&gt;Node11 -->
<g id="edge20" class="edge">
<title>Node15&#45;&gt;Node11</title>
<path fill="none" stroke="#191970" d="M471.2429,-224.4509C432.4389,-204.6961 343.1825,-159.2565 297.7136,-136.1088"/>
<polygon fill="#191970" stroke="#191970" points="299.2092,-132.9427 288.7096,-131.5249 296.0333,-139.1808 299.2092,-132.9427"/>
</g>
<!-- Node16 -->
<g id="node17" class="node">
<title>Node16</title>
<g id="a_node17"><a xlink:href="dji__mission__type_8hpp.html" target="_top" xlink:title="Mission related data struct for DJI OSDK library.">
<polygon fill="#ffffff" stroke="#000000" points="541,-168.5 541,-187.5 649,-187.5 649,-168.5 541,-168.5"/>
<text text-anchor="middle" x="595" y="-175.5" font-family="Helvetica,sans-Serif" font-size="10.00" fill="#000000">dji_mission_type.hpp</text>
</a>
</g>
</g>
<!-- Node15&#45;&gt;Node16 -->
<g id="edge21" class="edge">
<title>Node15&#45;&gt;Node16</title>
<path fill="none" stroke="#191970" d="M508.2896,-224.2455C524.7762,-215.4527 549.2352,-202.4079 567.9765,-192.4125"/>
<polygon fill="#191970" stroke="#191970" points="569.7435,-195.4368 576.92,-187.6427 566.4494,-189.2604 569.7435,-195.4368"/>
</g>
<!-- Node15&#45;&gt;Node17 -->
<g id="edge24" class="edge">
<title>Node15&#45;&gt;Node17</title>
<path fill="none" stroke="#191970" d="M456.9511,-230.553C394.7825,-223.9066 255.9922,-208.3002 128.1233,-187.9184"/>
<polygon fill="#191970" stroke="#191970" points="128.5821,-184.4473 118.1533,-186.3157 127.4711,-191.3585 128.5821,-184.4473"/>
</g>
<!-- Node18 -->
<g id="node19" class="node">
<title>Node18</title>
<g id="a_node19"><a xlink:title=" ">
<polygon fill="#ffffff" stroke="#bfbfbf" points="449.5,-168.5 449.5,-187.5 484.5,-187.5 484.5,-168.5 449.5,-168.5"/>
<text text-anchor="middle" x="467" y="-175.5" font-family="Helvetica,sans-Serif" font-size="10.00" fill="#000000">map</text>
</a>
</g>
</g>
<!-- Node15&#45;&gt;Node18 -->
<g id="edge27" class="edge">
<title>Node15&#45;&gt;Node18</title>
<path fill="none" stroke="#191970" d="M485.9937,-224.2455C482.9265,-216.7776 478.5997,-206.2427 474.8503,-197.1137"/>
<polygon fill="#191970" stroke="#191970" points="477.9972,-195.5631 470.9604,-187.6427 471.5221,-198.2226 477.9972,-195.5631"/>
</g>
<!-- Node16&#45;&gt;Node5 -->
<g id="edge22" class="edge">
<title>Node16&#45;&gt;Node5</title>
<path fill="none" stroke="#191970" d="M595,-168.2455C595,-160.9382 595,-150.6944 595,-141.7046"/>
<polygon fill="#191970" stroke="#191970" points="598.5001,-141.6426 595,-131.6427 591.5001,-141.6427 598.5001,-141.6426"/>
</g>
<!-- Node17&#45;&gt;Node2 -->
<g id="edge26" class="edge">
<title>Node17&#45;&gt;Node2</title>
<path fill="none" stroke="#191970" d="M67.5939,-168.2455C59.8507,-160.2155 48.688,-148.6394 39.4682,-139.0781"/>
<polygon fill="#191970" stroke="#191970" points="41.7591,-136.4117 32.2983,-131.6427 36.7202,-141.2706 41.7591,-136.4117"/>
</g>
<!-- Node17&#45;&gt;Node11 -->
<g id="edge25" class="edge">
<title>Node17&#45;&gt;Node11</title>
<path fill="none" stroke="#191970" d="M110.1779,-168.3733C142.5487,-158.9807 191.9398,-144.6496 227.2424,-134.4064"/>
<polygon fill="#191970" stroke="#191970" points="228.6265,-137.6492 237.2551,-131.5011 226.6758,-130.9264 228.6265,-137.6492"/>
</g>
<!-- Node19&#45;&gt;Node5 -->
<g id="edge33" class="edge">
<title>Node19&#45;&gt;Node5</title>
<path fill="none" stroke="#191970" d="M316.6319,-171.0208C376.0905,-160.5501 488.0317,-140.8372 550.3157,-129.8689"/>
<polygon fill="#191970" stroke="#191970" points="550.997,-133.3029 560.2384,-128.1215 549.7829,-126.409 550.997,-133.3029"/>
</g>
<!-- Node19&#45;&gt;Node11 -->
<g id="edge32" class="edge">
<title>Node19&#45;&gt;Node11</title>
<path fill="none" stroke="#191970" d="M275.7807,-168.2455C274.8673,-160.9382 273.5868,-150.6944 272.4631,-141.7046"/>
<polygon fill="#191970" stroke="#191970" points="275.9187,-141.1313 271.2053,-131.6427 268.9728,-141.9996 275.9187,-141.1313"/>
</g>
<!-- Node21&#45;&gt;Node5 -->
<g id="edge36" class="edge">
<title>Node21&#45;&gt;Node5</title>
<path fill="none" stroke="#191970" d="M1094.8633,-172.1655C982.9813,-160.9372 739.9338,-136.5453 639.6507,-126.4811"/>
<polygon fill="#191970" stroke="#191970" points="639.852,-122.9838 629.5524,-125.4676 639.1529,-129.9488 639.852,-122.9838"/>
</g>
<!-- Node21&#45;&gt;Node8 -->
<g id="edge37" class="edge">
<title>Node21&#45;&gt;Node8</title>
<path fill="none" stroke="#191970" d="M1174.3164,-168.3733C1194.2216,-159.3838 1224.1436,-145.8706 1246.56,-135.7471"/>
<polygon fill="#191970" stroke="#191970" points="1248.2887,-138.8068 1255.9618,-131.5011 1245.4075,-132.4272 1248.2887,-138.8068"/>
</g>
<!-- Node22 -->
<g id="node23" class="node">
<title>Node22</title>
<g id="a_node23"><a xlink:title=" ">
<polygon fill="#ffffff" stroke="#bfbfbf" points="1132.5,-112.5 1132.5,-131.5 1173.5,-131.5 1173.5,-112.5 1132.5,-112.5"/>
<text text-anchor="middle" x="1153" y="-119.5" font-family="Helvetica,sans-Serif" font-size="10.00" fill="#000000">string</text>
</a>
</g>
</g>
<!-- Node21&#45;&gt;Node22 -->
<g id="edge38" class="edge">
<title>Node21&#45;&gt;Node22</title>
<path fill="none" stroke="#191970" d="M1153,-168.2455C1153,-160.9382 1153,-150.6944 1153,-141.7046"/>
<polygon fill="#191970" stroke="#191970" points="1156.5001,-141.6426 1153,-131.6427 1149.5001,-141.6427 1156.5001,-141.6426"/>
</g>
<!-- Node23&#45;&gt;Node8 -->
<g id="edge40" class="edge">
<title>Node23&#45;&gt;Node8</title>
<path fill="none" stroke="#191970" d="M1742.1835,-224.3485C1732.578,-209.3823 1711.8643,-180.9539 1686,-168 1628.4784,-139.1909 1449.5247,-128.1511 1348.4239,-124.1366"/>
<polygon fill="#191970" stroke="#191970" points="1348.418,-120.6338 1338.291,-123.7474 1348.1493,-127.6287 1348.418,-120.6338"/>
</g>
<!-- Node25 -->
<g id="node26" class="node">
<title>Node25</title>
<g id="a_node26"><a xlink:href="dji__hotpoint_8hpp.html" target="_top" xlink:title="Implementation of HotPoint (Point of Interest) Missions for DJI OSDK.">
<polygon fill="#ffffff" stroke="#000000" points="853.5,-224.5 853.5,-243.5 938.5,-243.5 938.5,-224.5 853.5,-224.5"/>
<text text-anchor="middle" x="896" y="-231.5" font-family="Helvetica,sans-Serif" font-size="10.00" fill="#000000">dji_hotpoint.hpp</text>
</a>
</g>
</g>
<!-- Node24&#45;&gt;Node25 -->
<g id="edge42" class="edge">
<title>Node24&#45;&gt;Node25</title>
<path fill="none" stroke="#191970" d="M912.5163,-280.2455C909.8492,-272.7776 906.0867,-262.2427 902.8263,-253.1137"/>
<polygon fill="#191970" stroke="#191970" points="906.1033,-251.8829 899.4438,-243.6427 899.5111,-254.2373 906.1033,-251.8829"/>
</g>
<!-- Node27 -->
<g id="node28" class="node">
<title>Node27</title>
<g id="a_node28"><a xlink:href="dji__waypoint_8hpp.html" target="_top" xlink:title="Implementation of GPS Waypoint Missions for DJI OSDK.">
<polygon fill="#ffffff" stroke="#000000" points="707.5,-224.5 707.5,-243.5 796.5,-243.5 796.5,-224.5 707.5,-224.5"/>
<text text-anchor="middle" x="752" y="-231.5" font-family="Helvetica,sans-Serif" font-size="10.00" fill="#000000">dji_waypoint.hpp</text>
</a>
</g>
</g>
<!-- Node24&#45;&gt;Node27 -->
<g id="edge48" class="edge">
<title>Node24&#45;&gt;Node27</title>
<path fill="none" stroke="#191970" d="M887.8074,-280.3733C860.6547,-271.1016 819.4093,-257.0178 789.4975,-246.804"/>
<polygon fill="#191970" stroke="#191970" points="790.4192,-243.4204 779.8247,-243.5011 788.1572,-250.0449 790.4192,-243.4204"/>
</g>
<!-- Node28 -->
<g id="node29" class="node">
<title>Node28</title>
<g id="a_node29"><a xlink:title=" ">
<polygon fill="#ffffff" stroke="#bfbfbf" points="957,-224.5 957,-243.5 1001,-243.5 1001,-224.5 957,-224.5"/>
<text text-anchor="middle" x="979" y="-231.5" font-family="Helvetica,sans-Serif" font-size="10.00" fill="#000000">vector</text>
</a>
</g>
</g>
<!-- Node24&#45;&gt;Node28 -->
<g id="edge50" class="edge">
<title>Node24&#45;&gt;Node28</title>
<path fill="none" stroke="#191970" d="M926.9738,-280.2455C936.1882,-272.0549 949.5532,-260.1749 960.4297,-250.5069"/>
<polygon fill="#191970" stroke="#191970" points="963.0032,-252.9023 968.152,-243.6427 958.3526,-247.6704 963.0032,-252.9023"/>
</g>
<!-- Node25&#45;&gt;Node4 -->
<g id="edge47" class="edge">
<title>Node25&#45;&gt;Node4</title>
<path fill="none" stroke="#191970" d="M906.277,-224.2455C914.8218,-216.1352 927.1778,-204.4075 937.3085,-194.7919"/>
<polygon fill="#191970" stroke="#191970" points="939.9972,-197.0655 944.8408,-187.6427 935.1782,-191.9884 939.9972,-197.0655"/>
</g>
<!-- Node26 -->
<g id="node27" class="node">
<title>Node26</title>
<g id="a_node27"><a xlink:href="dji__mission__base_8hpp.html" target="_top" xlink:title="Mission&#45;Base abstract class for DJI OSDK library.">
<polygon fill="#ffffff" stroke="#000000" points="743,-168.5 743,-187.5 853,-187.5 853,-168.5 743,-168.5"/>
<text text-anchor="middle" x="798" y="-175.5" font-family="Helvetica,sans-Serif" font-size="10.00" fill="#000000">dji_mission_base.hpp</text>
</a>
</g>
</g>
<!-- Node25&#45;&gt;Node26 -->
<g id="edge43" class="edge">
<title>Node25&#45;&gt;Node26</title>
<path fill="none" stroke="#191970" d="M878.9297,-224.2455C863.753,-215.5731 841.3379,-202.7645 823.9437,-192.825"/>
<polygon fill="#191970" stroke="#191970" points="825.2936,-189.5653 814.8747,-187.6427 821.8206,-195.643 825.2936,-189.5653"/>
</g>
<!-- Node26&#45;&gt;Node5 -->
<g id="edge45" class="edge">
<title>Node26&#45;&gt;Node5</title>
<path fill="none" stroke="#191970" d="M763.1031,-168.3733C728.9089,-158.9404 676.6585,-144.5265 639.4958,-134.2747"/>
<polygon fill="#191970" stroke="#191970" points="640.0123,-130.7865 629.4416,-131.5011 638.1507,-137.5345 640.0123,-130.7865"/>
</g>
<!-- Node26&#45;&gt;Node8 -->
<g id="edge46" class="edge">
<title>Node26&#45;&gt;Node8</title>
<path fill="none" stroke="#191970" d="M853.3401,-169.8198C857.9586,-169.1857 862.5579,-168.5709 867,-168 930.7043,-159.8122 1106.3684,-140.5209 1205.8612,-129.7015"/>
<polygon fill="#191970" stroke="#191970" points="1206.2715,-133.1776 1215.8348,-128.6176 1205.5152,-126.2186 1206.2715,-133.1776"/>
</g>
<!-- Node26&#45;&gt;Node11 -->
<g id="edge44" class="edge">
<title>Node26&#45;&gt;Node11</title>
<path fill="none" stroke="#191970" d="M742.989,-172.1655C642.2499,-161.481 429.1293,-138.8774 326.9601,-128.0412"/>
<polygon fill="#191970" stroke="#191970" points="327.1486,-124.5417 316.8352,-126.9674 326.4102,-131.5026 327.1486,-124.5417"/>
</g>
<!-- Node27&#45;&gt;Node26 -->
<g id="edge49" class="edge">
<title>Node27&#45;&gt;Node26</title>
<path fill="none" stroke="#191970" d="M760.0126,-224.2455C766.4768,-216.3761 775.7385,-205.101 783.4983,-195.6542"/>
<polygon fill="#191970" stroke="#191970" points="786.4364,-197.5916 790.0792,-187.6427 781.0273,-193.1484 786.4364,-197.5916"/>
</g>
<!-- Node29&#45;&gt;Node8 -->
<g id="edge53" class="edge">
<title>Node29&#45;&gt;Node8</title>
<path fill="none" stroke="#191970" d="M1447.9498,-280.4126C1444.8418,-252.3824 1435.6782,-172.276 1432,-168 1419.7336,-153.7398 1377.828,-141.8031 1340.6792,-133.6655"/>
<polygon fill="#191970" stroke="#191970" points="1341.3681,-130.2338 1330.8587,-131.576 1339.9113,-137.0805 1341.3681,-130.2338"/>
</g>
<!-- Node30 -->
<g id="node31" class="node">
<title>Node30</title>
<g id="a_node31"><a xlink:title=" ">
<polygon fill="#ffffff" stroke="#bfbfbf" points="1452.5,-224.5 1452.5,-243.5 1535.5,-243.5 1535.5,-224.5 1452.5,-224.5"/>
<text text-anchor="middle" x="1494" y="-231.5" font-family="Helvetica,sans-Serif" font-size="10.00" fill="#000000">dji_macros.hpp</text>
</a>
</g>
</g>
<!-- Node29&#45;&gt;Node30 -->
<g id="edge52" class="edge">
<title>Node29&#45;&gt;Node30</title>
<path fill="none" stroke="#191970" d="M1456.8384,-280.2455C1463.162,-272.3761 1472.2224,-261.101 1479.8136,-251.6542"/>
<polygon fill="#191970" stroke="#191970" points="1482.7158,-253.6302 1486.2514,-243.6427 1477.2592,-249.2454 1482.7158,-253.6302"/>
</g>
<!-- Node31&#45;&gt;Node8 -->
<g id="edge55" class="edge">
<title>Node31&#45;&gt;Node8</title>
<path fill="none" stroke="#191970" d="M1298.9538,-224.4509C1295.0217,-206.1013 1286.3409,-165.5908 1281.1506,-141.3693"/>
<polygon fill="#191970" stroke="#191970" points="1284.5587,-140.5695 1279.041,-131.5249 1277.7141,-142.0363 1284.5587,-140.5695"/>
</g>
<!-- Node34&#45;&gt;Node4 -->
<g id="edge61" class="edge">
<title>Node34&#45;&gt;Node4</title>
<path fill="none" stroke="#191970" d="M1553.3309,-225.0942C1550.5162,-224.701 1547.7255,-224.3327 1545,-224 1531.8194,-222.3909 1154.9693,-193.3673 1010.5668,-182.2679"/>
<polygon fill="#191970" stroke="#191970" points="1010.8185,-178.777 1000.5797,-181.5003 1010.2821,-185.7564 1010.8185,-178.777"/>
</g>
<!-- Node34&#45;&gt;Node8 -->
<g id="edge62" class="edge">
<title>Node34&#45;&gt;Node8</title>
<path fill="none" stroke="#191970" d="M1587.3651,-224.2709C1561.2859,-210.2133 1510.5951,-184.1414 1465,-168 1423.452,-153.2913 1375.1251,-141.5791 1337.8734,-133.6541"/>
<polygon fill="#191970" stroke="#191970" points="1338.1799,-130.1425 1327.675,-131.52 1336.7461,-136.9941 1338.1799,-130.1425"/>
</g>
<!-- Node34&#45;&gt;Node9 -->
<g id="edge60" class="edge">
<title>Node34&#45;&gt;Node9</title>
<path fill="none" stroke="#191970" d="M1592.2212,-224.4749C1573.2777,-210.6712 1536.284,-184.9126 1502,-168 1379.8788,-107.7565 1220.6904,-82.1713 1132.6979,-72.0402"/>
<polygon fill="#191970" stroke="#191970" points="1132.9149,-68.5427 1122.5875,-70.9083 1132.136,-75.4992 1132.9149,-68.5427"/>
</g>
<!-- Node36&#45;&gt;Node4 -->
<g id="edge71" class="edge">
<title>Node36&#45;&gt;Node4</title>
<path fill="none" stroke="#191970" d="M516.4131,-280.4562C555.766,-266.5128 632.3167,-240.4482 699,-224 767.2294,-207.1704 847.1102,-193.803 899.2618,-185.9079"/>
<polygon fill="#191970" stroke="#191970" points="899.9397,-189.3455 909.3107,-184.4025 898.9025,-182.4228 899.9397,-189.3455"/>
</g>
<!-- Node36&#45;&gt;Node5 -->
<g id="edge70" class="edge">
<title>Node36&#45;&gt;Node5</title>
<path fill="none" stroke="#191970" d="M477.8552,-280.4475C468.0459,-271.991 454.7941,-258.7299 448,-244 433.7927,-213.1979 420.7355,-195.2023 441,-168 454.1775,-150.311 509.8158,-136.926 550.4426,-129.2756"/>
<polygon fill="#191970" stroke="#191970" points="551.2044,-132.6945 560.413,-127.4551 549.9469,-125.8084 551.2044,-132.6945"/>
</g>
<!-- Node36&#45;&gt;Node9 -->
<g id="edge69" class="edge">
<title>Node36&#45;&gt;Node9</title>
<path fill="none" stroke="#191970" d="M472.2445,-280.4013C459.371,-272.4384 442.7455,-259.8672 434,-244 417.6263,-214.2928 408.5583,-196.4697 427,-168 460.0964,-116.9069 493.0947,-127.3637 552,-112 635.134,-90.3169 881.8857,-75.3412 1001.0877,-69.1654"/>
<polygon fill="#191970" stroke="#191970" points="1001.3705,-72.6556 1011.1781,-68.6479 1001.0119,-65.6648 1001.3705,-72.6556"/>
</g>
<!-- Node36&#45;&gt;Node15 -->
<g id="edge68" class="edge">
<title>Node36&#45;&gt;Node15</title>
<path fill="none" stroke="#191970" d="M490,-280.2455C490,-272.9382 490,-262.6944 490,-253.7046"/>
<polygon fill="#191970" stroke="#191970" points="493.5001,-253.6426 490,-243.6427 486.5001,-253.6427 493.5001,-253.6426"/>
</g>
<!-- Node37&#45;&gt;Node8 -->
<g id="edge73" class="edge">
<title>Node37&#45;&gt;Node8</title>
<path fill="none" stroke="#191970" d="M1348.8458,-168.2455C1335.4973,-159.6534 1315.8414,-147.0014 1300.4617,-137.1018"/>
<polygon fill="#191970" stroke="#191970" points="1302.2836,-134.1121 1291.9806,-131.6427 1298.4949,-139.9982 1302.2836,-134.1121"/>
</g>
</g>
</svg>
