<?xml version="1.0" encoding="UTF-8" standalone="no"?>
<!DOCTYPE svg PUBLIC "-//W3C//DTD SVG 1.1//EN"
 "http://www.w3.org/Graphics/SVG/1.1/DTD/svg11.dtd">
<!-- Generated by graphviz version 2.40.1 (20161225.0304)
 -->
<!-- Title: osdk&#45;lib/x86/osdk&#45;core/inc/dji_control.hpp Pages: 1 -->
<!--zoomable 431 -->
<svg id="main" version="1.1" xmlns="http://www.w3.org/2000/svg" xmlns:xlink="http://www.w3.org/1999/xlink" xml:space="preserve" onload="init(evt)">
<style type="text/css"><![CDATA[
.edge:hover path { stroke: red; }
.edge:hover polygon { stroke: red; fill: red; }
]]></style>
<script type="text/javascript"><![CDATA[
var edges = document.getElementsByTagName('g');
if (edges && edges.length) {
  for (var i=0;i<edges.length;i++) {
    if (edges[i].id.substr(0,4)=='edge') {
      edges[i].setAttribute('class','edge');
    }
  }
}
]]></script>
        <defs>
                <circle id="rim" cx="0" cy="0" r="7"/>
                <circle id="rim2" cx="0" cy="0" r="3.5"/>
                <g id="zoomPlus">
                        <use xlink:href="#rim" fill="#404040">
                                <set attributeName="fill" to="#808080" begin="zoomplus.mouseover" end="zoomplus.mouseout"/>
                        </use>
                        <path d="M-4,0h8M0,-4v8" fill="none" stroke="white" stroke-width="1.5" pointer-events="none"/>
                </g>
                <g id="zoomMin">
                        <use xlink:href="#rim" fill="#404040">
                                <set attributeName="fill" to="#808080" begin="zoomminus.mouseover" end="zoomminus.mouseout"/>
                        </use>
                        <path d="M-4,0h8" fill="none" stroke="white" stroke-width="1.5" pointer-events="none"/>
                </g>
                <g id="dirArrow">
                        <path fill="none" stroke="white" stroke-width="1.5" d="M0,-3.0v7 M-2.5,-0.5L0,-3.0L2.5,-0.5"/>
                </g>
               <g id="resetDef">
                       <use xlink:href="#rim2" fill="#404040">
                               <set attributeName="fill" to="#808080" begin="reset.mouseover" end="reset.mouseout"/>
                       </use>
               </g>
        </defs>

<script type="text/javascript">
var viewWidth = 625;
var viewHeight = 431;
var sectionId = 'dynsection-0';
</script>
<script xlink:href="svgpan.js"/>
<svg id="graph" class="graph">
<g id="viewport">
<title>osdk&#45;lib/x86/osdk&#45;core/inc/dji_control.hpp</title>
<polygon fill="#ffffff" stroke="transparent" points="-4,4 -4,-427 621.2733,-427 621.2733,4 -4,4"/>
<!-- Node0 -->
<g id="node1" class="node">
<title>Node0</title>
<g id="a_node1"><a xlink:title="Control API for DJI OSDK library.">
<polygon fill="#bfbfbf" stroke="#000000" points="272.2733,-392.5 272.2733,-422.5 387.2733,-422.5 387.2733,-392.5 272.2733,-392.5"/>
<text text-anchor="start" x="280.2733" y="-410.5" font-family="Helvetica,sans-Serif" font-size="10.00" fill="#000000">osdk&#45;lib/x86/osdk&#45;core</text>
<text text-anchor="middle" x="329.7733" y="-399.5" font-family="Helvetica,sans-Serif" font-size="10.00" fill="#000000">/inc/dji_control.hpp</text>
</a>
</g>
</g>
<!-- Node1 -->
<g id="node2" class="node">
<title>Node1</title>
<g id="a_node2"><a xlink:href="dji__ack_8hpp.html" target="_top" xlink:title="All DJI OSDK ACK parsing.">
<polygon fill="#ffffff" stroke="#000000" points="189.7733,-280.5 189.7733,-299.5 255.7733,-299.5 255.7733,-280.5 189.7733,-280.5"/>
<text text-anchor="middle" x="222.7733" y="-287.5" font-family="Helvetica,sans-Serif" font-size="10.00" fill="#000000">dji_ack.hpp</text>
</a>
</g>
</g>
<!-- Node0&#45;&gt;Node1 -->
<g id="edge1" class="edge">
<title>Node0&#45;&gt;Node1</title>
<path fill="none" stroke="#191970" d="M304.0285,-392.3858C289.7881,-383.145 272.4614,-370.3582 259.7733,-356 247.3141,-341.9008 237.2141,-322.9175 230.7337,-308.9293"/>
<polygon fill="#191970" stroke="#191970" points="233.9249,-307.4915 226.6727,-299.7678 227.5254,-310.3283 233.9249,-307.4915"/>
</g>
<!-- Node11 -->
<g id="node12" class="node">
<title>Node11</title>
<g id="a_node12"><a xlink:href="dji__type_8hpp.html" target="_top" xlink:title="Data type and Data Structure definitions for use throughout DJI OSDK.">
<polygon fill="#ffffff" stroke="#000000" points="269.2733,-168.5 269.2733,-187.5 338.2733,-187.5 338.2733,-168.5 269.2733,-168.5"/>
<text text-anchor="middle" x="303.7733" y="-175.5" font-family="Helvetica,sans-Serif" font-size="10.00" fill="#000000">dji_type.hpp</text>
</a>
</g>
</g>
<!-- Node0&#45;&gt;Node11 -->
<g id="edge20" class="edge">
<title>Node0&#45;&gt;Node11</title>
<path fill="none" stroke="#191970" d="M362.2276,-392.3708C376.5003,-383.8631 391.8064,-371.7522 399.7733,-356 403.7851,-348.0679 402.1699,-344.5597 399.7733,-336 383.9997,-279.6623 342.0205,-223.4517 319.1492,-195.7477"/>
<polygon fill="#191970" stroke="#191970" points="321.5694,-193.1878 312.4523,-187.7906 316.2137,-197.6953 321.5694,-193.1878"/>
</g>
<!-- Node14 -->
<g id="node15" class="node">
<title>Node14</title>
<g id="a_node15"><a xlink:href="dji__vehicle__callback_8hpp.html" target="_top" xlink:title="Type definition for new Vehicle&#45;style callbacks.">
<polygon fill="#ffffff" stroke="#000000" points="268.7733,-336.5 268.7733,-355.5 390.7733,-355.5 390.7733,-336.5 268.7733,-336.5"/>
<text text-anchor="middle" x="329.7733" y="-343.5" font-family="Helvetica,sans-Serif" font-size="10.00" fill="#000000">dji_vehicle_callback.hpp</text>
</a>
</g>
</g>
<!-- Node0&#45;&gt;Node14 -->
<g id="edge21" class="edge">
<title>Node0&#45;&gt;Node14</title>
<path fill="none" stroke="#191970" d="M329.7733,-392.2977C329.7733,-384.3834 329.7733,-374.6043 329.7733,-366.0759"/>
<polygon fill="#191970" stroke="#191970" points="333.2734,-365.8469 329.7733,-355.8469 326.2734,-365.847 333.2734,-365.8469"/>
</g>
<!-- Node2 -->
<g id="node3" class="node">
<title>Node2</title>
<g id="a_node3"><a xlink:href="dji__command_8hpp.html" target="_top" xlink:title="All DJI OSDK OpenProtocol Command IDs.">
<polygon fill="#ffffff" stroke="#000000" points="94.2733,-168.5 94.2733,-187.5 187.2733,-187.5 187.2733,-168.5 94.2733,-168.5"/>
<text text-anchor="middle" x="140.7733" y="-175.5" font-family="Helvetica,sans-Serif" font-size="10.00" fill="#000000">dji_command.hpp</text>
</a>
</g>
</g>
<!-- Node1&#45;&gt;Node2 -->
<g id="edge2" class="edge">
<title>Node1&#45;&gt;Node2</title>
<path fill="none" stroke="#191970" d="M203.5658,-280.4673C189.4852,-272.5391 170.9485,-259.9821 159.7733,-244 150.1765,-230.2752 145.391,-211.7437 143.0261,-197.8112"/>
<polygon fill="#191970" stroke="#191970" points="146.476,-197.2108 141.6028,-187.8033 139.5458,-198.1965 146.476,-197.2108"/>
</g>
<!-- Node5 -->
<g id="node6" class="node">
<title>Node5</title>
<g id="a_node6"><a xlink:title=" ">
<polygon fill="#ffffff" stroke="#bfbfbf" points="5.2733,-56.5 5.2733,-75.5 40.2733,-75.5 40.2733,-56.5 5.2733,-56.5"/>
<text text-anchor="middle" x="22.7733" y="-63.5" font-family="Helvetica,sans-Serif" font-size="10.00" fill="#000000">map</text>
</a>
</g>
</g>
<!-- Node1&#45;&gt;Node5 -->
<g id="edge19" class="edge">
<title>Node1&#45;&gt;Node5</title>
<path fill="none" stroke="#191970" d="M189.7292,-287.3232C138.1897,-282.3863 42.4115,-269.8949 21.7733,-244 -15.057,-197.7886 3.6913,-121.3004 15.5383,-85.5486"/>
<polygon fill="#191970" stroke="#191970" points="18.936,-86.4345 18.9242,-75.8397 12.3264,-84.1294 18.936,-86.4345"/>
</g>
<!-- Node9 -->
<g id="node10" class="node">
<title>Node9</title>
<g id="a_node10"><a xlink:href="dji__mission__type_8hpp.html" target="_top" xlink:title="Mission related data struct for DJI OSDK library.">
<polygon fill="#ffffff" stroke="#000000" points="168.7733,-224.5 168.7733,-243.5 276.7733,-243.5 276.7733,-224.5 168.7733,-224.5"/>
<text text-anchor="middle" x="222.7733" y="-231.5" font-family="Helvetica,sans-Serif" font-size="10.00" fill="#000000">dji_mission_type.hpp</text>
</a>
</g>
</g>
<!-- Node1&#45;&gt;Node9 -->
<g id="edge10" class="edge">
<title>Node1&#45;&gt;Node9</title>
<path fill="none" stroke="#191970" d="M222.7733,-280.2455C222.7733,-272.9382 222.7733,-262.6944 222.7733,-253.7046"/>
<polygon fill="#191970" stroke="#191970" points="226.2734,-253.6426 222.7733,-243.6427 219.2734,-253.6427 226.2734,-253.6426"/>
</g>
<!-- Node1&#45;&gt;Node11 -->
<g id="edge15" class="edge">
<title>Node1&#45;&gt;Node11</title>
<path fill="none" stroke="#191970" d="M242.3401,-280.3468C256.4172,-272.433 274.7875,-259.9487 285.7733,-244 295.2361,-230.2623 299.7337,-211.7321 301.8659,-197.8034"/>
<polygon fill="#191970" stroke="#191970" points="305.349,-198.1561 303.1185,-187.7988 298.4032,-197.2865 305.349,-198.1561"/>
</g>
<!-- Node13 -->
<g id="node14" class="node">
<title>Node13</title>
<g id="a_node14"><a xlink:href="dji__version_8hpp.html" target="_top" xlink:title="Drone/SDK Version definition for DJI onboardSDK library.">
<polygon fill="#ffffff" stroke="#000000" points="30.7733,-224.5 30.7733,-243.5 112.7733,-243.5 112.7733,-224.5 30.7733,-224.5"/>
<text text-anchor="middle" x="71.7733" y="-231.5" font-family="Helvetica,sans-Serif" font-size="10.00" fill="#000000">dji_version.hpp</text>
</a>
</g>
</g>
<!-- Node1&#45;&gt;Node13 -->
<g id="edge16" class="edge">
<title>Node1&#45;&gt;Node13</title>
<path fill="none" stroke="#191970" d="M196.8155,-280.3733C172.0326,-271.1822 134.4987,-257.2624 107.0193,-247.0713"/>
<polygon fill="#191970" stroke="#191970" points="107.9854,-243.6968 97.3924,-243.5011 105.5514,-250.26 107.9854,-243.6968"/>
</g>
<!-- Node3 -->
<g id="node4" class="node">
<title>Node3</title>
<g id="a_node4"><a xlink:href="dji__error_8hpp.html" target="_top" xlink:title="All DJI OSDK OpenProtocol ACK Error Codes.">
<polygon fill="#ffffff" stroke="#000000" points="95.7733,-112.5 95.7733,-131.5 165.7733,-131.5 165.7733,-112.5 95.7733,-112.5"/>
<text text-anchor="middle" x="130.7733" y="-119.5" font-family="Helvetica,sans-Serif" font-size="10.00" fill="#000000">dji_error.hpp</text>
</a>
</g>
</g>
<!-- Node2&#45;&gt;Node3 -->
<g id="edge3" class="edge">
<title>Node2&#45;&gt;Node3</title>
<path fill="none" stroke="#191970" d="M139.0314,-168.2455C137.7266,-160.9382 135.8973,-150.6944 134.292,-141.7046"/>
<polygon fill="#191970" stroke="#191970" points="137.6987,-140.8717 132.4952,-131.6427 130.8077,-142.1022 137.6987,-140.8717"/>
</g>
<!-- Node8 -->
<g id="node9" class="node">
<title>Node8</title>
<g id="a_node9"><a xlink:title=" ">
<polygon fill="#ffffff" stroke="#bfbfbf" points="273.2733,-.5 273.2733,-19.5 322.2733,-19.5 322.2733,-.5 273.2733,-.5"/>
<text text-anchor="middle" x="297.7733" y="-7.5" font-family="Helvetica,sans-Serif" font-size="10.00" fill="#000000">stdint.h</text>
</a>
</g>
</g>
<!-- Node2&#45;&gt;Node8 -->
<g id="edge9" class="edge">
<title>Node2&#45;&gt;Node8</title>
<path fill="none" stroke="#191970" d="M149.6641,-168.4862C175.1268,-141.2396 248.6013,-62.6172 281.5036,-27.4096"/>
<polygon fill="#191970" stroke="#191970" points="284.3182,-29.5239 288.5889,-19.8279 279.2039,-24.7444 284.3182,-29.5239"/>
</g>
<!-- Node4 -->
<g id="node5" class="node">
<title>Node4</title>
<g id="a_node5"><a xlink:title=" ">
<polygon fill="#ffffff" stroke="#bfbfbf" points="76.7733,-56.5 76.7733,-75.5 122.7733,-75.5 122.7733,-56.5 76.7733,-56.5"/>
<text text-anchor="middle" x="99.7733" y="-63.5" font-family="Helvetica,sans-Serif" font-size="10.00" fill="#000000">cstdint</text>
</a>
</g>
</g>
<!-- Node3&#45;&gt;Node4 -->
<g id="edge4" class="edge">
<title>Node3&#45;&gt;Node4</title>
<path fill="none" stroke="#191970" d="M125.3735,-112.2455C121.1506,-104.617 115.156,-93.7881 110.0292,-84.5267"/>
<polygon fill="#191970" stroke="#191970" points="113.0166,-82.6965 105.1112,-75.6427 106.8923,-86.0867 113.0166,-82.6965"/>
</g>
<!-- Node3&#45;&gt;Node5 -->
<g id="edge5" class="edge">
<title>Node3&#45;&gt;Node5</title>
<path fill="none" stroke="#191970" d="M111.9611,-112.2455C94.6144,-103.2509 68.687,-89.8071 49.2515,-79.7295"/>
<polygon fill="#191970" stroke="#191970" points="50.7867,-76.583 40.298,-75.0869 47.5644,-82.7973 50.7867,-76.583"/>
</g>
<!-- Node6 -->
<g id="node7" class="node">
<title>Node6</title>
<g id="a_node7"><a xlink:href="osdk__typedef_8h_source.html" target="_top" xlink:title=" ">
<polygon fill="#ffffff" stroke="#000000" points="326.2733,-56.5 326.2733,-75.5 409.2733,-75.5 409.2733,-56.5 326.2733,-56.5"/>
<text text-anchor="middle" x="367.7733" y="-63.5" font-family="Helvetica,sans-Serif" font-size="10.00" fill="#000000">osdk_typedef.h</text>
</a>
</g>
</g>
<!-- Node3&#45;&gt;Node6 -->
<g id="edge6" class="edge">
<title>Node3&#45;&gt;Node6</title>
<path fill="none" stroke="#191970" d="M165.9987,-113.6767C206.0387,-104.2158 271.7275,-88.6944 317.227,-77.9434"/>
<polygon fill="#191970" stroke="#191970" points="318.257,-81.2965 327.1842,-75.5907 316.6473,-74.4841 318.257,-81.2965"/>
</g>
<!-- Node7 -->
<g id="node8" class="node">
<title>Node7</title>
<g id="a_node8"><a xlink:title=" ">
<polygon fill="#ffffff" stroke="#bfbfbf" points="341.7733,-.5 341.7733,-19.5 393.7733,-19.5 393.7733,-.5 341.7733,-.5"/>
<text text-anchor="middle" x="367.7733" y="-7.5" font-family="Helvetica,sans-Serif" font-size="10.00" fill="#000000">stddef.h</text>
</a>
</g>
</g>
<!-- Node6&#45;&gt;Node7 -->
<g id="edge7" class="edge">
<title>Node6&#45;&gt;Node7</title>
<path fill="none" stroke="#191970" d="M367.7733,-56.2455C367.7733,-48.9382 367.7733,-38.6944 367.7733,-29.7046"/>
<polygon fill="#191970" stroke="#191970" points="371.2734,-29.6426 367.7733,-19.6427 364.2734,-29.6427 371.2734,-29.6426"/>
</g>
<!-- Node6&#45;&gt;Node8 -->
<g id="edge8" class="edge">
<title>Node6&#45;&gt;Node8</title>
<path fill="none" stroke="#191970" d="M355.5802,-56.2455C345.1412,-47.8943 329.9078,-35.7076 317.6993,-25.9408"/>
<polygon fill="#191970" stroke="#191970" points="319.8218,-23.1566 309.8266,-19.6427 315.4489,-28.6227 319.8218,-23.1566"/>
</g>
<!-- Node10 -->
<g id="node11" class="node">
<title>Node10</title>
<g id="a_node11"><a xlink:title=" ">
<polygon fill="#ffffff" stroke="#bfbfbf" points="205.7733,-168.5 205.7733,-187.5 249.7733,-187.5 249.7733,-168.5 205.7733,-168.5"/>
<text text-anchor="middle" x="227.7733" y="-175.5" font-family="Helvetica,sans-Serif" font-size="10.00" fill="#000000">vector</text>
</a>
</g>
</g>
<!-- Node9&#45;&gt;Node10 -->
<g id="edge11" class="edge">
<title>Node9&#45;&gt;Node10</title>
<path fill="none" stroke="#191970" d="M223.6442,-224.2455C224.2967,-216.9382 225.2113,-206.6944 226.014,-197.7046"/>
<polygon fill="#191970" stroke="#191970" points="229.5091,-197.9143 226.9124,-187.6427 222.5368,-197.2918 229.5091,-197.9143"/>
</g>
<!-- Node9&#45;&gt;Node11 -->
<g id="edge12" class="edge">
<title>Node9&#45;&gt;Node11</title>
<path fill="none" stroke="#191970" d="M236.8824,-224.2455C249.1942,-215.7337 267.2691,-203.2375 281.5271,-193.3801"/>
<polygon fill="#191970" stroke="#191970" points="283.5907,-196.2085 289.8259,-187.6427 279.6099,-190.4506 283.5907,-196.2085"/>
</g>
<!-- Node11&#45;&gt;Node8 -->
<g id="edge14" class="edge">
<title>Node11&#45;&gt;Node8</title>
<path fill="none" stroke="#191970" d="M303.4335,-168.4862C302.4851,-141.9293 299.7935,-66.5651 298.4935,-30.1655"/>
<polygon fill="#191970" stroke="#191970" points="301.9791,-29.6966 298.1243,-19.8279 294.9835,-29.9465 301.9791,-29.6966"/>
</g>
<!-- Node12 -->
<g id="node13" class="node">
<title>Node12</title>
<g id="a_node13"><a xlink:title=" ">
<polygon fill="#ffffff" stroke="#bfbfbf" points="226.2733,-112.5 226.2733,-131.5 269.2733,-131.5 269.2733,-112.5 226.2733,-112.5"/>
<text text-anchor="middle" x="247.7733" y="-119.5" font-family="Helvetica,sans-Serif" font-size="10.00" fill="#000000">cstdio</text>
</a>
</g>
</g>
<!-- Node11&#45;&gt;Node12 -->
<g id="edge13" class="edge">
<title>Node11&#45;&gt;Node12</title>
<path fill="none" stroke="#191970" d="M294.0188,-168.2455C285.9085,-160.1352 274.1808,-148.4075 264.5652,-138.7919"/>
<polygon fill="#191970" stroke="#191970" points="266.962,-136.2389 257.416,-131.6427 262.0122,-141.1887 266.962,-136.2389"/>
</g>
<!-- Node13&#45;&gt;Node2 -->
<g id="edge17" class="edge">
<title>Node13&#45;&gt;Node2</title>
<path fill="none" stroke="#191970" d="M83.7922,-224.2455C93.9831,-215.9746 108.8095,-203.9416 120.784,-194.2232"/>
<polygon fill="#191970" stroke="#191970" points="123.3332,-196.662 128.8922,-187.6427 118.9219,-191.2268 123.3332,-196.662"/>
</g>
<!-- Node13&#45;&gt;Node4 -->
<g id="edge18" class="edge">
<title>Node13&#45;&gt;Node4</title>
<path fill="none" stroke="#191970" d="M72.4488,-224.429C74.0175,-203.7497 78.4252,-153.4204 86.7733,-112 88.5518,-103.1757 91.157,-93.571 93.5691,-85.4314"/>
<polygon fill="#191970" stroke="#191970" points="96.948,-86.3511 96.543,-75.764 90.2574,-84.2929 96.948,-86.3511"/>
</g>
<!-- Node14&#45;&gt;Node1 -->
<g id="edge22" class="edge">
<title>Node14&#45;&gt;Node1</title>
<path fill="none" stroke="#191970" d="M311.1353,-336.2455C294.3347,-327.4527 269.4099,-314.4079 250.3115,-304.4125"/>
<polygon fill="#191970" stroke="#191970" points="251.6806,-301.1787 241.1977,-299.6427 248.4347,-307.3807 251.6806,-301.1787"/>
</g>
<!-- Node14&#45;&gt;Node11 -->
<g id="edge31" class="edge">
<title>Node14&#45;&gt;Node11</title>
<path fill="none" stroke="#191970" d="M328.3009,-336.4862C324.1909,-309.9293 312.5274,-234.5651 306.8942,-198.1655"/>
<polygon fill="#191970" stroke="#191970" points="310.2826,-197.1749 305.2943,-187.8279 303.365,-198.2456 310.2826,-197.1749"/>
</g>
<!-- Node15 -->
<g id="node16" class="node">
<title>Node15</title>
<g id="a_node16"><a xlink:href="dji__log_8hpp.html" target="_top" xlink:title="Logging mechanism for printing status and error messages to the screen.">
<polygon fill="#ffffff" stroke="#000000" points="447.2733,-224.5 447.2733,-243.5 510.2733,-243.5 510.2733,-224.5 447.2733,-224.5"/>
<text text-anchor="middle" x="478.7733" y="-231.5" font-family="Helvetica,sans-Serif" font-size="10.00" fill="#000000">dji_log.hpp</text>
</a>
</g>
</g>
<!-- Node14&#45;&gt;Node15 -->
<g id="edge23" class="edge">
<title>Node14&#45;&gt;Node15</title>
<path fill="none" stroke="#191970" d="M342.477,-336.4509C368.2081,-317.1094 426.6944,-273.1465 458.0325,-249.5904"/>
<polygon fill="#191970" stroke="#191970" points="460.2112,-252.3313 466.1018,-243.5249 456.0052,-246.7358 460.2112,-252.3313"/>
</g>
<!-- Node16 -->
<g id="node17" class="node">
<title>Node16</title>
<g id="a_node17"><a xlink:href="dji__singleton_8hpp.html" target="_top" xlink:title="Singleton Template Class implementation for use with the DJI OSDK.">
<polygon fill="#ffffff" stroke="#000000" points="528.2733,-112.5 528.2733,-131.5 617.2733,-131.5 617.2733,-112.5 528.2733,-112.5"/>
<text text-anchor="middle" x="572.7733" y="-119.5" font-family="Helvetica,sans-Serif" font-size="10.00" fill="#000000">dji_singleton.hpp</text>
</a>
</g>
</g>
<!-- Node15&#45;&gt;Node16 -->
<g id="edge24" class="edge">
<title>Node15&#45;&gt;Node16</title>
<path fill="none" stroke="#191970" d="M489.4807,-224.209C499.1231,-215.1834 513.4744,-201.2229 524.7733,-188 537.9351,-172.5969 551.37,-153.8082 560.6661,-140.2224"/>
<polygon fill="#191970" stroke="#191970" points="563.6894,-141.9995 566.3863,-131.7536 557.8886,-138.0813 563.6894,-141.9995"/>
</g>
<!-- Node17 -->
<g id="node18" class="node">
<title>Node17</title>
<g id="a_node18"><a xlink:href="dji__platform_8hpp.html" target="_top" xlink:title="Vehicle API for DJI onboardSDK library.">
<polygon fill="#ffffff" stroke="#000000" points="429.7733,-168.5 429.7733,-187.5 515.7733,-187.5 515.7733,-168.5 429.7733,-168.5"/>
<text text-anchor="middle" x="472.7733" y="-175.5" font-family="Helvetica,sans-Serif" font-size="10.00" fill="#000000">dji_platform.hpp</text>
</a>
</g>
</g>
<!-- Node15&#45;&gt;Node17 -->
<g id="edge25" class="edge">
<title>Node15&#45;&gt;Node17</title>
<path fill="none" stroke="#191970" d="M477.7282,-224.2455C476.9453,-216.9382 475.8477,-206.6944 474.8845,-197.7046"/>
<polygon fill="#191970" stroke="#191970" points="478.352,-197.2129 473.8064,-187.6427 471.3918,-197.9587 478.352,-197.2129"/>
</g>
<!-- Node17&#45;&gt;Node16 -->
<g id="edge28" class="edge">
<title>Node17&#45;&gt;Node16</title>
<path fill="none" stroke="#191970" d="M490.192,-168.2455C505.8218,-159.4928 528.9752,-146.527 546.7918,-136.5496"/>
<polygon fill="#191970" stroke="#191970" points="548.5393,-139.5825 555.5542,-131.6427 545.119,-133.475 548.5393,-139.5825"/>
</g>
<!-- Node18 -->
<g id="node19" class="node">
<title>Node18</title>
<g id="a_node19"><a xlink:href="osdk__platform_8h.html" target="_top" xlink:title="This is the header file for define OSDK platform interfaces.">
<polygon fill="#ffffff" stroke="#000000" points="423.7733,-112.5 423.7733,-131.5 509.7733,-131.5 509.7733,-112.5 423.7733,-112.5"/>
<text text-anchor="middle" x="466.7733" y="-119.5" font-family="Helvetica,sans-Serif" font-size="10.00" fill="#000000">osdk_platform.h</text>
</a>
</g>
</g>
<!-- Node17&#45;&gt;Node18 -->
<g id="edge26" class="edge">
<title>Node17&#45;&gt;Node18</title>
<path fill="none" stroke="#191970" d="M471.7282,-168.2455C470.9453,-160.9382 469.8477,-150.6944 468.8845,-141.7046"/>
<polygon fill="#191970" stroke="#191970" points="472.352,-141.2129 467.8064,-131.6427 465.3918,-141.9587 472.352,-141.2129"/>
</g>
<!-- Node19 -->
<g id="node20" class="node">
<title>Node19</title>
<g id="a_node20"><a xlink:href="osdk__logger_8h.html" target="_top" xlink:title="This is the header file for &quot;osdk_logger.c&quot;, defining the structure and (exported) function prototype...">
<polygon fill="#ffffff" stroke="#000000" points="328.2733,-112.5 328.2733,-131.5 405.2733,-131.5 405.2733,-112.5 328.2733,-112.5"/>
<text text-anchor="middle" x="366.7733" y="-119.5" font-family="Helvetica,sans-Serif" font-size="10.00" fill="#000000">osdk_logger.h</text>
</a>
</g>
</g>
<!-- Node17&#45;&gt;Node19 -->
<g id="edge29" class="edge">
<title>Node17&#45;&gt;Node19</title>
<path fill="none" stroke="#191970" d="M454.3095,-168.2455C437.6659,-159.4527 412.974,-146.4079 394.0541,-136.4125"/>
<polygon fill="#191970" stroke="#191970" points="395.5024,-133.2193 385.0255,-131.6427 392.2325,-139.4086 395.5024,-133.2193"/>
</g>
<!-- Node18&#45;&gt;Node6 -->
<g id="edge27" class="edge">
<title>Node18&#45;&gt;Node6</title>
<path fill="none" stroke="#191970" d="M449.5288,-112.2455C434.1972,-103.5731 411.5534,-90.7645 393.9817,-80.825"/>
<polygon fill="#191970" stroke="#191970" points="395.2474,-77.5198 384.8202,-75.6427 391.8009,-83.6126 395.2474,-77.5198"/>
</g>
<!-- Node19&#45;&gt;Node6 -->
<g id="edge30" class="edge">
<title>Node19&#45;&gt;Node6</title>
<path fill="none" stroke="#191970" d="M366.9475,-112.2455C367.078,-104.9382 367.2609,-94.6944 367.4214,-85.7046"/>
<polygon fill="#191970" stroke="#191970" points="370.9219,-85.7036 367.6011,-75.6427 363.923,-85.5786 370.9219,-85.7036"/>
</g>
</g>
</svg>
        <g id="navigator" transform="translate(0 0)" fill="#404254">
                <rect fill="#f2f5e9" fill-opacity="0.5" stroke="#606060" stroke-width=".5" x="0" y="0" width="60" height="60"/>
                <use id="zoomplus" xlink:href="#zoomPlus" x="17" y="9" onmousedown="handleZoom(evt,'in')"/>
                <use id="zoomminus" xlink:href="#zoomMin" x="42" y="9" onmousedown="handleZoom(evt,'out')"/>
                <use id="reset" xlink:href="#resetDef" x="30" y="36" onmousedown="handleReset()"/>
                <g id="arrowUp" xlink:href="#dirArrow" transform="translate(30 24)" onmousedown="handlePan(0,-1)">
                  <use xlink:href="#rim" fill="#404040">
                        <set attributeName="fill" to="#808080" begin="arrowUp.mouseover" end="arrowUp.mouseout"/>
                  </use>
                  <path fill="none" stroke="white" stroke-width="1.5" d="M0,-3.0v7 M-2.5,-0.5L0,-3.0L2.5,-0.5"/>
                </g>
                <g id="arrowRight" xlink:href="#dirArrow" transform="rotate(90) translate(36 -43)" onmousedown="handlePan(1,0)">
                  <use xlink:href="#rim" fill="#404040">
                        <set attributeName="fill" to="#808080" begin="arrowRight.mouseover" end="arrowRight.mouseout"/>
                  </use>
                  <path fill="none" stroke="white" stroke-width="1.5" d="M0,-3.0v7 M-2.5,-0.5L0,-3.0L2.5,-0.5"/>
                </g>
                <g id="arrowDown" xlink:href="#dirArrow" transform="rotate(180) translate(-30 -48)" onmousedown="handlePan(0,1)">
                  <use xlink:href="#rim" fill="#404040">
                        <set attributeName="fill" to="#808080" begin="arrowDown.mouseover" end="arrowDown.mouseout"/>
                  </use>
                  <path fill="none" stroke="white" stroke-width="1.5" d="M0,-3.0v7 M-2.5,-0.5L0,-3.0L2.5,-0.5"/>
                </g>
                <g id="arrowLeft" xlink:href="#dirArrow" transform="rotate(270) translate(-36 17)" onmousedown="handlePan(-1,0)">
                  <use xlink:href="#rim" fill="#404040">
                        <set attributeName="fill" to="#808080" begin="arrowLeft.mouseover" end="arrowLeft.mouseout"/>
                  </use>
                  <path fill="none" stroke="white" stroke-width="1.5" d="M0,-3.0v7 M-2.5,-0.5L0,-3.0L2.5,-0.5"/>
                </g>
        </g>
        <svg viewBox="0 0 15 15" width="100%" height="30px" preserveAspectRatio="xMaxYMin meet">
         <g id="arrow_out" transform="scale(0.3 0.3)">
          <a xlink:href="dji__control_8hpp__incl_org.svg" target="_base">
           <rect id="button" ry="5" rx="5" y="6" x="6" height="38" width="38"
                fill="#f2f5e9" fill-opacity="0.5" stroke="#606060" stroke-width="1.0"/>
           <path id="arrow"
             d="M 11.500037,31.436501 C 11.940474,20.09759 22.043105,11.32322 32.158766,21.979434 L 37.068811,17.246167 C 37.068811,17.246167 37.088388,32 37.088388,32 L 22.160133,31.978069 C 22.160133,31.978069 26.997745,27.140456 26.997745,27.140456 C 18.528582,18.264221 13.291696,25.230495 11.500037,31.436501 z"
             style="fill:#404040;"/>
          </a>
         </g>
        </svg>
</svg>
