<?xml version="1.0" encoding="UTF-8" standalone="no"?>
<!DOCTYPE svg PUBLIC "-//W3C//DTD SVG 1.1//EN"
 "http://www.w3.org/Graphics/SVG/1.1/DTD/svg11.dtd">
<!-- Generated by graphviz version 2.40.1 (20161225.0304)
 -->
<!-- Title: osdk&#45;lib/x86/osdk&#45;core/inc/dji_error.hpp Pages: 1 -->
<svg width="226pt" height="151pt"
 viewBox="0.00 0.00 225.50 151.00" xmlns="http://www.w3.org/2000/svg" xmlns:xlink="http://www.w3.org/1999/xlink">
<g id="graph0" class="graph" transform="scale(1 1) rotate(0) translate(4 147)">
<title>osdk&#45;lib/x86/osdk&#45;core/inc/dji_error.hpp</title>
<polygon fill="#ffffff" stroke="transparent" points="-4,4 -4,-147 221.5,-147 221.5,4 -4,4"/>
<!-- Node0 -->
<g id="node1" class="node">
<title>Node0</title>
<g id="a_node1"><a xlink:title="All DJI OSDK OpenProtocol ACK Error Codes.">
<polygon fill="#bfbfbf" stroke="#000000" points="24.5,-112.5 24.5,-142.5 139.5,-142.5 139.5,-112.5 24.5,-112.5"/>
<text text-anchor="start" x="32.5" y="-130.5" font-family="Helvetica,sans-Serif" font-size="10.00" fill="#000000">osdk&#45;lib/x86/osdk&#45;core</text>
<text text-anchor="middle" x="82" y="-119.5" font-family="Helvetica,sans-Serif" font-size="10.00" fill="#000000">/inc/dji_error.hpp</text>
</a>
</g>
</g>
<!-- Node1 -->
<g id="node2" class="node">
<title>Node1</title>
<g id="a_node2"><a xlink:title=" ">
<polygon fill="#ffffff" stroke="#bfbfbf" points="0,-56.5 0,-75.5 46,-75.5 46,-56.5 0,-56.5"/>
<text text-anchor="middle" x="23" y="-63.5" font-family="Helvetica,sans-Serif" font-size="10.00" fill="#000000">cstdint</text>
</a>
</g>
</g>
<!-- Node0&#45;&gt;Node1 -->
<g id="edge1" class="edge">
<title>Node0&#45;&gt;Node1</title>
<path fill="none" stroke="#191970" d="M67.4157,-112.2977C58.97,-103.4941 48.3108,-92.3833 39.5516,-83.2529"/>
<polygon fill="#191970" stroke="#191970" points="41.8952,-80.6402 32.4466,-75.8469 36.8439,-85.4862 41.8952,-80.6402"/>
</g>
<!-- Node2 -->
<g id="node3" class="node">
<title>Node2</title>
<g id="a_node3"><a xlink:title=" ">
<polygon fill="#ffffff" stroke="#bfbfbf" points="64.5,-56.5 64.5,-75.5 99.5,-75.5 99.5,-56.5 64.5,-56.5"/>
<text text-anchor="middle" x="82" y="-63.5" font-family="Helvetica,sans-Serif" font-size="10.00" fill="#000000">map</text>
</a>
</g>
</g>
<!-- Node0&#45;&gt;Node2 -->
<g id="edge2" class="edge">
<title>Node0&#45;&gt;Node2</title>
<path fill="none" stroke="#191970" d="M82,-112.2977C82,-104.3834 82,-94.6043 82,-86.0759"/>
<polygon fill="#191970" stroke="#191970" points="85.5001,-85.8469 82,-75.8469 78.5001,-85.847 85.5001,-85.8469"/>
</g>
<!-- Node3 -->
<g id="node4" class="node">
<title>Node3</title>
<g id="a_node4"><a xlink:href="osdk__typedef_8h_source.html" target="_top" xlink:title=" ">
<polygon fill="#ffffff" stroke="#000000" points="117.5,-56.5 117.5,-75.5 200.5,-75.5 200.5,-56.5 117.5,-56.5"/>
<text text-anchor="middle" x="159" y="-63.5" font-family="Helvetica,sans-Serif" font-size="10.00" fill="#000000">osdk_typedef.h</text>
</a>
</g>
</g>
<!-- Node0&#45;&gt;Node3 -->
<g id="edge3" class="edge">
<title>Node0&#45;&gt;Node3</title>
<path fill="none" stroke="#191970" d="M101.0337,-112.2977C112.5015,-103.1384 127.0962,-91.4816 138.7719,-82.1562"/>
<polygon fill="#191970" stroke="#191970" points="141.0419,-84.8225 146.6713,-75.8469 136.6734,-79.3529 141.0419,-84.8225"/>
</g>
<!-- Node4 -->
<g id="node5" class="node">
<title>Node4</title>
<g id="a_node5"><a xlink:title=" ">
<polygon fill="#ffffff" stroke="#bfbfbf" points="98,-.5 98,-19.5 150,-19.5 150,-.5 98,-.5"/>
<text text-anchor="middle" x="124" y="-7.5" font-family="Helvetica,sans-Serif" font-size="10.00" fill="#000000">stddef.h</text>
</a>
</g>
</g>
<!-- Node3&#45;&gt;Node4 -->
<g id="edge4" class="edge">
<title>Node3&#45;&gt;Node4</title>
<path fill="none" stroke="#191970" d="M152.9035,-56.2455C148.0855,-48.5367 141.2249,-37.5598 135.3968,-28.2348"/>
<polygon fill="#191970" stroke="#191970" points="138.2947,-26.2677 130.0267,-19.6427 132.3587,-29.9777 138.2947,-26.2677"/>
</g>
<!-- Node5 -->
<g id="node6" class="node">
<title>Node5</title>
<g id="a_node6"><a xlink:title=" ">
<polygon fill="#ffffff" stroke="#bfbfbf" points="168.5,-.5 168.5,-19.5 217.5,-19.5 217.5,-.5 168.5,-.5"/>
<text text-anchor="middle" x="193" y="-7.5" font-family="Helvetica,sans-Serif" font-size="10.00" fill="#000000">stdint.h</text>
</a>
</g>
</g>
<!-- Node3&#45;&gt;Node5 -->
<g id="edge5" class="edge">
<title>Node3&#45;&gt;Node5</title>
<path fill="none" stroke="#191970" d="M164.9223,-56.2455C169.6027,-48.5367 176.2673,-37.5598 181.9289,-28.2348"/>
<polygon fill="#191970" stroke="#191970" points="184.9475,-30.007 187.1455,-19.6427 178.9639,-26.3741 184.9475,-30.007"/>
</g>
</g>
</svg>
