<?xml version="1.0" encoding="UTF-8" standalone="no"?>
<!DOCTYPE svg PUBLIC "-//W3C//DTD SVG 1.1//EN"
 "http://www.w3.org/Graphics/SVG/1.1/DTD/svg11.dtd">
<!-- Generated by graphviz version 2.40.1 (20161225.0304)
 -->
<!-- Title: osdk&#45;core/api/inc/dji_camera_manager.hpp Pages: 1 -->
<svg width="190pt" height="95pt"
 viewBox="0.00 0.00 189.50 95.00" xmlns="http://www.w3.org/2000/svg" xmlns:xlink="http://www.w3.org/1999/xlink">
<g id="graph0" class="graph" transform="scale(1 1) rotate(0) translate(4 91)">
<title>osdk&#45;core/api/inc/dji_camera_manager.hpp</title>
<polygon fill="#ffffff" stroke="transparent" points="-4,4 -4,-91 185.5,-91 185.5,4 -4,4"/>
<!-- Node0 -->
<g id="node1" class="node">
<title>Node0</title>
<g id="a_node1"><a xlink:title="Implementation of the manager for camera module.">
<polygon fill="#bfbfbf" stroke="#000000" points="14,-56.5 14,-86.5 130,-86.5 130,-56.5 14,-56.5"/>
<text text-anchor="start" x="22" y="-74.5" font-family="Helvetica,sans-Serif" font-size="10.00" fill="#000000">osdk&#45;core/api/inc/dji</text>
<text text-anchor="middle" x="72" y="-63.5" font-family="Helvetica,sans-Serif" font-size="10.00" fill="#000000">_camera_manager.hpp</text>
</a>
</g>
</g>
<!-- Node1 -->
<g id="node2" class="node">
<title>Node1</title>
<g id="a_node2"><a xlink:title=" ">
<polygon fill="#ffffff" stroke="#bfbfbf" points="0,-.5 0,-19.5 44,-19.5 44,-.5 0,-.5"/>
<text text-anchor="middle" x="22" y="-7.5" font-family="Helvetica,sans-Serif" font-size="10.00" fill="#000000">vector</text>
</a>
</g>
</g>
<!-- Node0&#45;&gt;Node1 -->
<g id="edge1" class="edge">
<title>Node0&#45;&gt;Node1</title>
<path fill="none" stroke="#191970" d="M59.6404,-56.2977C52.6276,-47.672 43.814,-36.8312 36.4786,-27.8087"/>
<polygon fill="#191970" stroke="#191970" points="39.0297,-25.3982 30.0056,-19.8469 33.5982,-29.8141 39.0297,-25.3982"/>
</g>
<!-- Node2 -->
<g id="node3" class="node">
<title>Node2</title>
<g id="a_node3"><a xlink:title=" ">
<polygon fill="#ffffff" stroke="#bfbfbf" points="62.5,-.5 62.5,-19.5 181.5,-19.5 181.5,-.5 62.5,-.5"/>
<text text-anchor="middle" x="122" y="-7.5" font-family="Helvetica,sans-Serif" font-size="10.00" fill="#000000">dji_camera_module.hpp</text>
</a>
</g>
</g>
<!-- Node0&#45;&gt;Node2 -->
<g id="edge2" class="edge">
<title>Node0&#45;&gt;Node2</title>
<path fill="none" stroke="#191970" d="M84.3596,-56.2977C91.3724,-47.672 100.186,-36.8312 107.5214,-27.8087"/>
<polygon fill="#191970" stroke="#191970" points="110.4018,-29.8141 113.9944,-19.8469 104.9703,-25.3982 110.4018,-29.8141"/>
</g>
</g>
</svg>
