<?xml version="1.0" encoding="UTF-8" standalone="no"?>
<!DOCTYPE svg PUBLIC "-//W3C//DTD SVG 1.1//EN"
 "http://www.w3.org/Graphics/SVG/1.1/DTD/svg11.dtd">
<!-- Generated by graphviz version 2.40.1 (20161225.0304)
 -->
<!-- Title: osdk&#45;lib/x86/osdk&#45;core/inc/dji_file_mgr.hpp Pages: 1 -->
<svg width="295pt" height="207pt"
 viewBox="0.00 0.00 295.00 207.00" xmlns="http://www.w3.org/2000/svg" xmlns:xlink="http://www.w3.org/1999/xlink">
<g id="graph0" class="graph" transform="scale(1 1) rotate(0) translate(4 203)">
<title>osdk&#45;lib/x86/osdk&#45;core/inc/dji_file_mgr.hpp</title>
<polygon fill="#ffffff" stroke="transparent" points="-4,4 -4,-203 291,-203 291,4 -4,4"/>
<!-- Node0 -->
<g id="node1" class="node">
<title>Node0</title>
<g id="a_node1"><a xlink:title="Implementation for file manager.">
<polygon fill="#bfbfbf" stroke="#000000" points="103.5,-168.5 103.5,-198.5 218.5,-198.5 218.5,-168.5 103.5,-168.5"/>
<text text-anchor="start" x="111.5" y="-186.5" font-family="Helvetica,sans-Serif" font-size="10.00" fill="#000000">osdk&#45;lib/x86/osdk&#45;core</text>
<text text-anchor="middle" x="161" y="-175.5" font-family="Helvetica,sans-Serif" font-size="10.00" fill="#000000">/inc/dji_file_mgr.hpp</text>
</a>
</g>
</g>
<!-- Node1 -->
<g id="node2" class="node">
<title>Node1</title>
<g id="a_node2"><a xlink:href="dji__error_8hpp.html" target="_top" xlink:title="All DJI OSDK OpenProtocol ACK Error Codes.">
<polygon fill="#ffffff" stroke="#000000" points="71,-112.5 71,-131.5 141,-131.5 141,-112.5 71,-112.5"/>
<text text-anchor="middle" x="106" y="-119.5" font-family="Helvetica,sans-Serif" font-size="10.00" fill="#000000">dji_error.hpp</text>
</a>
</g>
</g>
<!-- Node0&#45;&gt;Node1 -->
<g id="edge1" class="edge">
<title>Node0&#45;&gt;Node1</title>
<path fill="none" stroke="#191970" d="M147.4045,-168.2977C139.6109,-159.5831 129.7953,-148.6075 121.6774,-139.5302"/>
<polygon fill="#191970" stroke="#191970" points="124.0813,-136.9678 114.8062,-131.8469 118.8635,-141.6341 124.0813,-136.9678"/>
</g>
<!-- Node7 -->
<g id="node8" class="node">
<title>Node7</title>
<g id="a_node8"><a xlink:href="dji__file__mgr__define_8hpp_source.html" target="_top" xlink:title=" ">
<polygon fill="#ffffff" stroke="#000000" points="171,-112.5 171,-131.5 287,-131.5 287,-112.5 171,-112.5"/>
<text text-anchor="middle" x="229" y="-119.5" font-family="Helvetica,sans-Serif" font-size="10.00" fill="#000000">dji_file_mgr_define.hpp</text>
</a>
</g>
</g>
<!-- Node0&#45;&gt;Node7 -->
<g id="edge7" class="edge">
<title>Node0&#45;&gt;Node7</title>
<path fill="none" stroke="#191970" d="M177.809,-168.2977C187.7397,-159.3163 200.3257,-147.9334 210.5327,-138.702"/>
<polygon fill="#191970" stroke="#191970" points="213.0434,-141.1505 218.1123,-131.8469 208.348,-135.9588 213.0434,-141.1505"/>
</g>
<!-- Node2 -->
<g id="node3" class="node">
<title>Node2</title>
<g id="a_node3"><a xlink:title=" ">
<polygon fill="#ffffff" stroke="#bfbfbf" points="0,-56.5 0,-75.5 46,-75.5 46,-56.5 0,-56.5"/>
<text text-anchor="middle" x="23" y="-63.5" font-family="Helvetica,sans-Serif" font-size="10.00" fill="#000000">cstdint</text>
</a>
</g>
</g>
<!-- Node1&#45;&gt;Node2 -->
<g id="edge2" class="edge">
<title>Node1&#45;&gt;Node2</title>
<path fill="none" stroke="#191970" d="M91.5425,-112.2455C78.9268,-103.7337 60.4056,-91.2375 45.7955,-81.3801"/>
<polygon fill="#191970" stroke="#191970" points="47.5391,-78.3343 37.2918,-75.6427 43.6239,-84.1371 47.5391,-78.3343"/>
</g>
<!-- Node3 -->
<g id="node4" class="node">
<title>Node3</title>
<g id="a_node4"><a xlink:title=" ">
<polygon fill="#ffffff" stroke="#bfbfbf" points="64.5,-56.5 64.5,-75.5 99.5,-75.5 99.5,-56.5 64.5,-56.5"/>
<text text-anchor="middle" x="82" y="-63.5" font-family="Helvetica,sans-Serif" font-size="10.00" fill="#000000">map</text>
</a>
</g>
</g>
<!-- Node1&#45;&gt;Node3 -->
<g id="edge3" class="edge">
<title>Node1&#45;&gt;Node3</title>
<path fill="none" stroke="#191970" d="M101.8195,-112.2455C98.619,-104.7776 94.104,-94.2427 90.1916,-85.1137"/>
<polygon fill="#191970" stroke="#191970" points="93.2888,-83.4554 86.1326,-75.6427 86.8548,-86.2129 93.2888,-83.4554"/>
</g>
<!-- Node4 -->
<g id="node5" class="node">
<title>Node4</title>
<g id="a_node5"><a xlink:href="osdk__typedef_8h_source.html" target="_top" xlink:title=" ">
<polygon fill="#ffffff" stroke="#000000" points="117.5,-56.5 117.5,-75.5 200.5,-75.5 200.5,-56.5 117.5,-56.5"/>
<text text-anchor="middle" x="159" y="-63.5" font-family="Helvetica,sans-Serif" font-size="10.00" fill="#000000">osdk_typedef.h</text>
</a>
</g>
</g>
<!-- Node1&#45;&gt;Node4 -->
<g id="edge4" class="edge">
<title>Node1&#45;&gt;Node4</title>
<path fill="none" stroke="#191970" d="M115.2319,-112.2455C122.8317,-104.2155 133.7877,-92.6394 142.8368,-83.0781"/>
<polygon fill="#191970" stroke="#191970" points="145.5421,-85.3115 149.8739,-75.6427 140.458,-80.4998 145.5421,-85.3115"/>
</g>
<!-- Node5 -->
<g id="node6" class="node">
<title>Node5</title>
<g id="a_node6"><a xlink:title=" ">
<polygon fill="#ffffff" stroke="#bfbfbf" points="99,-.5 99,-19.5 151,-19.5 151,-.5 99,-.5"/>
<text text-anchor="middle" x="125" y="-7.5" font-family="Helvetica,sans-Serif" font-size="10.00" fill="#000000">stddef.h</text>
</a>
</g>
</g>
<!-- Node4&#45;&gt;Node5 -->
<g id="edge5" class="edge">
<title>Node4&#45;&gt;Node5</title>
<path fill="none" stroke="#191970" d="M153.0777,-56.2455C148.3973,-48.5367 141.7327,-37.5598 136.0711,-28.2348"/>
<polygon fill="#191970" stroke="#191970" points="139.0361,-26.3741 130.8545,-19.6427 133.0525,-30.007 139.0361,-26.3741"/>
</g>
<!-- Node6 -->
<g id="node7" class="node">
<title>Node6</title>
<g id="a_node7"><a xlink:title=" ">
<polygon fill="#ffffff" stroke="#bfbfbf" points="169.5,-.5 169.5,-19.5 218.5,-19.5 218.5,-.5 169.5,-.5"/>
<text text-anchor="middle" x="194" y="-7.5" font-family="Helvetica,sans-Serif" font-size="10.00" fill="#000000">stdint.h</text>
</a>
</g>
</g>
<!-- Node4&#45;&gt;Node6 -->
<g id="edge6" class="edge">
<title>Node4&#45;&gt;Node6</title>
<path fill="none" stroke="#191970" d="M165.0965,-56.2455C169.9145,-48.5367 176.7751,-37.5598 182.6032,-28.2348"/>
<polygon fill="#191970" stroke="#191970" points="185.6413,-29.9777 187.9733,-19.6427 179.7053,-26.2677 185.6413,-29.9777"/>
</g>
<!-- Node8 -->
<g id="node9" class="node">
<title>Node8</title>
<g id="a_node9"><a xlink:title=" ">
<polygon fill="#ffffff" stroke="#bfbfbf" points="219,-56.5 219,-75.5 263,-75.5 263,-56.5 219,-56.5"/>
<text text-anchor="middle" x="241" y="-63.5" font-family="Helvetica,sans-Serif" font-size="10.00" fill="#000000">vector</text>
</a>
</g>
</g>
<!-- Node7&#45;&gt;Node8 -->
<g id="edge8" class="edge">
<title>Node7&#45;&gt;Node8</title>
<path fill="none" stroke="#191970" d="M231.0902,-112.2455C232.6561,-104.9382 234.8512,-94.6944 236.7776,-85.7046"/>
<polygon fill="#191970" stroke="#191970" points="240.2607,-86.1541 238.9337,-75.6427 233.416,-84.6873 240.2607,-86.1541"/>
</g>
</g>
</svg>
