<?xml version="1.0" encoding="UTF-8" standalone="no"?>
<!DOCTYPE svg PUBLIC "-//W3C//DTD SVG 1.1//EN"
 "http://www.w3.org/Graphics/SVG/1.1/DTD/svg11.dtd">
<!-- Generated by graphviz version 2.40.1 (20161225.0304)
 -->
<!-- Title: osdk&#45;core/api/inc/dji_command.hpp Pages: 1 -->
<svg width="126pt" height="151pt"
 viewBox="0.00 0.00 126.00 151.00" xmlns="http://www.w3.org/2000/svg" xmlns:xlink="http://www.w3.org/1999/xlink">
<g id="graph0" class="graph" transform="scale(1 1) rotate(0) translate(4 147)">
<title>osdk&#45;core/api/inc/dji_command.hpp</title>
<polygon fill="#ffffff" stroke="transparent" points="-4,4 -4,-147 122,-147 122,4 -4,4"/>
<!-- Node0 -->
<g id="node1" class="node">
<title>Node0</title>
<g id="a_node1"><a xlink:title="All DJI OSDK OpenProtocol Command IDs.">
<polygon fill="#bfbfbf" stroke="#000000" points="14,-112.5 14,-142.5 118,-142.5 118,-112.5 14,-112.5"/>
<text text-anchor="start" x="22" y="-130.5" font-family="Helvetica,sans-Serif" font-size="10.00" fill="#000000">osdk&#45;core/api/inc/dji</text>
<text text-anchor="middle" x="66" y="-119.5" font-family="Helvetica,sans-Serif" font-size="10.00" fill="#000000">_command.hpp</text>
</a>
</g>
</g>
<!-- Node1 -->
<g id="node2" class="node">
<title>Node1</title>
<g id="a_node2"><a xlink:href="dji__error_8hpp.html" target="_top" xlink:title="All DJI OSDK OpenProtocol ACK Error Codes.">
<polygon fill="#ffffff" stroke="#000000" points="0,-56.5 0,-75.5 70,-75.5 70,-56.5 0,-56.5"/>
<text text-anchor="middle" x="35" y="-63.5" font-family="Helvetica,sans-Serif" font-size="10.00" fill="#000000">dji_error.hpp</text>
</a>
</g>
</g>
<!-- Node0&#45;&gt;Node1 -->
<g id="edge1" class="edge">
<title>Node0&#45;&gt;Node1</title>
<path fill="none" stroke="#191970" d="M58.3371,-112.2977C54.1684,-104.0277 48.9735,-93.7215 44.5439,-84.9339"/>
<polygon fill="#191970" stroke="#191970" points="47.5901,-83.2012 39.9635,-75.8469 41.3393,-86.3521 47.5901,-83.2012"/>
</g>
<!-- Node2 -->
<g id="node3" class="node">
<title>Node2</title>
<g id="a_node3"><a xlink:title=" ">
<polygon fill="#ffffff" stroke="#bfbfbf" points="41.5,-.5 41.5,-19.5 90.5,-19.5 90.5,-.5 41.5,-.5"/>
<text text-anchor="middle" x="66" y="-7.5" font-family="Helvetica,sans-Serif" font-size="10.00" fill="#000000">stdint.h</text>
</a>
</g>
</g>
<!-- Node0&#45;&gt;Node2 -->
<g id="edge3" class="edge">
<title>Node0&#45;&gt;Node2</title>
<path fill="none" stroke="#191970" d="M71.5488,-112.4944C76.2137,-98.0675 81.7192,-75.6207 79,-56 77.7643,-47.0835 75.2419,-37.4647 72.745,-29.3395"/>
<polygon fill="#191970" stroke="#191970" points="76.0274,-28.1164 69.5876,-19.7033 69.3753,-30.296 76.0274,-28.1164"/>
</g>
<!-- Node1&#45;&gt;Node2 -->
<g id="edge2" class="edge">
<title>Node1&#45;&gt;Node2</title>
<path fill="none" stroke="#191970" d="M40.3998,-56.2455C44.6227,-48.617 50.6173,-37.7881 55.7441,-28.5267"/>
<polygon fill="#191970" stroke="#191970" points="58.881,-30.0867 60.6621,-19.6427 52.7568,-26.6965 58.881,-30.0867"/>
</g>
</g>
</svg>
