<?xml version="1.0" encoding="UTF-8" standalone="no"?>
<!DOCTYPE svg PUBLIC "-//W3C//DTD SVG 1.1//EN"
 "http://www.w3.org/Graphics/SVG/1.1/DTD/svg11.dtd">
<!-- Generated by graphviz version 2.40.1 (20161225.0304)
 -->
<!-- Title: osdk&#45;core/api/src/dji_error.cpp Pages: 1 -->
<svg width="346pt" height="151pt"
 viewBox="0.00 0.00 346.00 151.00" xmlns="http://www.w3.org/2000/svg" xmlns:xlink="http://www.w3.org/1999/xlink">
<g id="graph0" class="graph" transform="scale(1 1) rotate(0) translate(4 147)">
<title>osdk&#45;core/api/src/dji_error.cpp</title>
<polygon fill="#ffffff" stroke="transparent" points="-4,4 -4,-147 342,-147 342,4 -4,4"/>
<!-- Node0 -->
<g id="node1" class="node">
<title>Node0</title>
<g id="a_node1"><a xlink:title="All DJI OSDK OpenProtocol ACK Error Codes.">
<polygon fill="#bfbfbf" stroke="#000000" points="137.5,-112.5 137.5,-142.5 241.5,-142.5 241.5,-112.5 137.5,-112.5"/>
<text text-anchor="start" x="145.5" y="-130.5" font-family="Helvetica,sans-Serif" font-size="10.00" fill="#000000">osdk&#45;core/api/src/dji</text>
<text text-anchor="middle" x="189.5" y="-119.5" font-family="Helvetica,sans-Serif" font-size="10.00" fill="#000000">_error.cpp</text>
</a>
</g>
</g>
<!-- Node1 -->
<g id="node2" class="node">
<title>Node1</title>
<g id="a_node2"><a xlink:title=" ">
<polygon fill="#ffffff" stroke="#bfbfbf" points="219,-.5 219,-19.5 262,-19.5 262,-.5 219,-.5"/>
<text text-anchor="middle" x="240.5" y="-7.5" font-family="Helvetica,sans-Serif" font-size="10.00" fill="#000000">cstdio</text>
</a>
</g>
</g>
<!-- Node0&#45;&gt;Node1 -->
<g id="edge1" class="edge">
<title>Node0&#45;&gt;Node1</title>
<path fill="none" stroke="#191970" d="M182.2087,-112.4496C176.022,-97.3922 169.4668,-73.95 178.5,-56 185.1737,-42.7387 197.6793,-32.3415 209.7207,-24.8125"/>
<polygon fill="#191970" stroke="#191970" points="211.8201,-27.6422 218.7342,-19.6143 208.323,-21.5783 211.8201,-27.6422"/>
</g>
<!-- Node2 -->
<g id="node3" class="node">
<title>Node2</title>
<g id="a_node3"><a xlink:href="dji__error_8hpp.html" target="_top" xlink:title="All DJI OSDK OpenProtocol ACK Error Codes.">
<polygon fill="#ffffff" stroke="#000000" points="60.5,-56.5 60.5,-75.5 130.5,-75.5 130.5,-56.5 60.5,-56.5"/>
<text text-anchor="middle" x="95.5" y="-63.5" font-family="Helvetica,sans-Serif" font-size="10.00" fill="#000000">dji_error.hpp</text>
</a>
</g>
</g>
<!-- Node0&#45;&gt;Node2 -->
<g id="edge2" class="edge">
<title>Node0&#45;&gt;Node2</title>
<path fill="none" stroke="#191970" d="M166.264,-112.2977C151.7666,-102.8127 133.1756,-90.6495 118.6874,-81.1705"/>
<polygon fill="#191970" stroke="#191970" points="120.5543,-78.2094 110.2699,-75.6633 116.7218,-84.0671 120.5543,-78.2094"/>
</g>
<!-- Node6 -->
<g id="node7" class="node">
<title>Node6</title>
<g id="a_node7"><a xlink:title=" ">
<polygon fill="#ffffff" stroke="#bfbfbf" points="188,-56.5 188,-75.5 251,-75.5 251,-56.5 188,-56.5"/>
<text text-anchor="middle" x="219.5" y="-63.5" font-family="Helvetica,sans-Serif" font-size="10.00" fill="#000000">dji_log.hpp</text>
</a>
</g>
</g>
<!-- Node0&#45;&gt;Node6 -->
<g id="edge6" class="edge">
<title>Node0&#45;&gt;Node6</title>
<path fill="none" stroke="#191970" d="M196.9157,-112.2977C200.9499,-104.0277 205.9773,-93.7215 210.264,-84.9339"/>
<polygon fill="#191970" stroke="#191970" points="213.458,-86.3691 214.6966,-75.8469 207.1666,-83.3001 213.458,-86.3691"/>
</g>
<!-- Node7 -->
<g id="node8" class="node">
<title>Node7</title>
<g id="a_node8"><a xlink:href="dji__type_8hpp.html" target="_top" xlink:title="Data type and Data Structure definitions for use throughout DJI OSDK.">
<polygon fill="#ffffff" stroke="#000000" points="269,-56.5 269,-75.5 338,-75.5 338,-56.5 269,-56.5"/>
<text text-anchor="middle" x="303.5" y="-63.5" font-family="Helvetica,sans-Serif" font-size="10.00" fill="#000000">dji_type.hpp</text>
</a>
</g>
</g>
<!-- Node0&#45;&gt;Node7 -->
<g id="edge7" class="edge">
<title>Node0&#45;&gt;Node7</title>
<path fill="none" stroke="#191970" d="M217.3875,-112.4554C235.4076,-102.734 258.7341,-90.15 276.5632,-80.5317"/>
<polygon fill="#191970" stroke="#191970" points="278.6948,-83.3586 285.834,-75.5303 275.3713,-77.1979 278.6948,-83.3586"/>
</g>
<!-- Node3 -->
<g id="node4" class="node">
<title>Node3</title>
<g id="a_node4"><a xlink:title=" ">
<polygon fill="#ffffff" stroke="#bfbfbf" points="154.5,-.5 154.5,-19.5 200.5,-19.5 200.5,-.5 154.5,-.5"/>
<text text-anchor="middle" x="177.5" y="-7.5" font-family="Helvetica,sans-Serif" font-size="10.00" fill="#000000">cstdint</text>
</a>
</g>
</g>
<!-- Node2&#45;&gt;Node3 -->
<g id="edge3" class="edge">
<title>Node2&#45;&gt;Node3</title>
<path fill="none" stroke="#191970" d="M109.7833,-56.2455C122.247,-47.7337 140.5451,-35.2375 154.9792,-25.3801"/>
<polygon fill="#191970" stroke="#191970" points="157.0962,-28.1726 163.3804,-19.6427 153.1485,-22.392 157.0962,-28.1726"/>
</g>
<!-- Node4 -->
<g id="node5" class="node">
<title>Node4</title>
<g id="a_node5"><a xlink:title=" ">
<polygon fill="#ffffff" stroke="#bfbfbf" points="0,-.5 0,-19.5 35,-19.5 35,-.5 0,-.5"/>
<text text-anchor="middle" x="17.5" y="-7.5" font-family="Helvetica,sans-Serif" font-size="10.00" fill="#000000">map</text>
</a>
</g>
</g>
<!-- Node2&#45;&gt;Node4 -->
<g id="edge4" class="edge">
<title>Node2&#45;&gt;Node4</title>
<path fill="none" stroke="#191970" d="M81.9134,-56.2455C70.1695,-47.814 52.9801,-35.4729 39.3118,-25.6598"/>
<polygon fill="#191970" stroke="#191970" points="41.0954,-22.6316 30.9309,-19.6427 37.0129,-28.3179 41.0954,-22.6316"/>
</g>
<!-- Node5 -->
<g id="node6" class="node">
<title>Node5</title>
<g id="a_node6"><a xlink:title=" ">
<polygon fill="#ffffff" stroke="#bfbfbf" points="53,-.5 53,-19.5 136,-19.5 136,-.5 53,-.5"/>
<text text-anchor="middle" x="94.5" y="-7.5" font-family="Helvetica,sans-Serif" font-size="10.00" fill="#000000">osdk_typedef.h</text>
</a>
</g>
</g>
<!-- Node2&#45;&gt;Node5 -->
<g id="edge5" class="edge">
<title>Node2&#45;&gt;Node5</title>
<path fill="none" stroke="#191970" d="M95.3258,-56.2455C95.1953,-48.9382 95.0124,-38.6944 94.8519,-29.7046"/>
<polygon fill="#191970" stroke="#191970" points="98.3503,-29.5786 94.6722,-19.6427 91.3514,-29.7036 98.3503,-29.5786"/>
</g>
<!-- Node7&#45;&gt;Node1 -->
<g id="edge8" class="edge">
<title>Node7&#45;&gt;Node1</title>
<path fill="none" stroke="#191970" d="M292.5262,-56.2455C283.3118,-48.0549 269.9468,-36.1749 259.0703,-26.5069"/>
<polygon fill="#191970" stroke="#191970" points="261.1474,-23.6704 251.348,-19.6427 256.4968,-28.9023 261.1474,-23.6704"/>
</g>
<!-- Node8 -->
<g id="node9" class="node">
<title>Node8</title>
<g id="a_node9"><a xlink:title=" ">
<polygon fill="#ffffff" stroke="#bfbfbf" points="280,-.5 280,-19.5 329,-19.5 329,-.5 280,-.5"/>
<text text-anchor="middle" x="304.5" y="-7.5" font-family="Helvetica,sans-Serif" font-size="10.00" fill="#000000">stdint.h</text>
</a>
</g>
</g>
<!-- Node7&#45;&gt;Node8 -->
<g id="edge9" class="edge">
<title>Node7&#45;&gt;Node8</title>
<path fill="none" stroke="#191970" d="M303.6742,-56.2455C303.8047,-48.9382 303.9876,-38.6944 304.1481,-29.7046"/>
<polygon fill="#191970" stroke="#191970" points="307.6486,-29.7036 304.3278,-19.6427 300.6497,-29.5786 307.6486,-29.7036"/>
</g>
</g>
</svg>
