<?xml version="1.0" encoding="UTF-8" standalone="no"?>
<!DOCTYPE svg PUBLIC "-//W3C//DTD SVG 1.1//EN"
 "http://www.w3.org/Graphics/SVG/1.1/DTD/svg11.dtd">
<!-- Generated by graphviz version 2.40.1 (20161225.0304)
 -->
<!-- Title: osdk&#45;core/api/inc/dji_subscription.hpp Pages: 1 -->
<svg width="568pt" height="375pt"
 viewBox="0.00 0.00 567.50 375.00" xmlns="http://www.w3.org/2000/svg" xmlns:xlink="http://www.w3.org/1999/xlink">
<g id="graph0" class="graph" transform="scale(1 1) rotate(0) translate(4 371)">
<title>osdk&#45;core/api/inc/dji_subscription.hpp</title>
<polygon fill="#ffffff" stroke="transparent" points="-4,4 -4,-371 563.5,-371 563.5,4 -4,4"/>
<!-- Node0 -->
<g id="node1" class="node">
<title>Node0</title>
<g id="a_node1"><a xlink:title="Telemetry Subscription API for DJI OSDK library.">
<polygon fill="#bfbfbf" stroke="#000000" points="103.5,-336.5 103.5,-366.5 207.5,-366.5 207.5,-336.5 103.5,-336.5"/>
<text text-anchor="start" x="111.5" y="-354.5" font-family="Helvetica,sans-Serif" font-size="10.00" fill="#000000">osdk&#45;core/api/inc/dji</text>
<text text-anchor="middle" x="155.5" y="-343.5" font-family="Helvetica,sans-Serif" font-size="10.00" fill="#000000">_subscription.hpp</text>
</a>
</g>
</g>
<!-- Node1 -->
<g id="node2" class="node">
<title>Node1</title>
<g id="a_node2"><a xlink:title=" ">
<polygon fill="#ffffff" stroke="#bfbfbf" points="109,-224.5 109,-243.5 172,-243.5 172,-224.5 109,-224.5"/>
<text text-anchor="middle" x="140.5" y="-231.5" font-family="Helvetica,sans-Serif" font-size="10.00" fill="#000000">dji_log.hpp</text>
</a>
</g>
</g>
<!-- Node0&#45;&gt;Node1 -->
<g id="edge1" class="edge">
<title>Node0&#45;&gt;Node1</title>
<path fill="none" stroke="#191970" d="M145.9113,-336.4025C140.1936,-326.4813 133.4838,-312.9794 130.5,-300 126.9704,-284.6465 130.0089,-266.9888 133.6354,-253.8031"/>
<polygon fill="#191970" stroke="#191970" points="137.0786,-254.5154 136.6887,-243.9277 130.3909,-252.4477 137.0786,-254.5154"/>
</g>
<!-- Node2 -->
<g id="node3" class="node">
<title>Node2</title>
<g id="a_node3"><a xlink:href="dji__telemetry_8hpp.html" target="_top" xlink:title="Enumeration of all telemetry data types, structures and maps.">
<polygon fill="#ffffff" stroke="#000000" points="0,-224.5 0,-243.5 91,-243.5 91,-224.5 0,-224.5"/>
<text text-anchor="middle" x="45.5" y="-231.5" font-family="Helvetica,sans-Serif" font-size="10.00" fill="#000000">dji_telemetry.hpp</text>
</a>
</g>
</g>
<!-- Node0&#45;&gt;Node2 -->
<g id="edge2" class="edge">
<title>Node0&#45;&gt;Node2</title>
<path fill="none" stroke="#191970" d="M141.1194,-336.1389C120.5803,-314.1994 82.9658,-274.0203 61.5463,-251.1404"/>
<polygon fill="#191970" stroke="#191970" points="63.8387,-248.4677 54.4493,-243.5595 58.7285,-253.2517 63.8387,-248.4677"/>
</g>
<!-- Node6 -->
<g id="node7" class="node">
<title>Node6</title>
<g id="a_node7"><a xlink:href="dji__vehicle__callback_8hpp.html" target="_top" xlink:title="Type definition for new Vehicle&#45;style callbacks.">
<polygon fill="#ffffff" stroke="#000000" points="139.5,-280.5 139.5,-299.5 261.5,-299.5 261.5,-280.5 139.5,-280.5"/>
<text text-anchor="middle" x="200.5" y="-287.5" font-family="Helvetica,sans-Serif" font-size="10.00" fill="#000000">dji_vehicle_callback.hpp</text>
</a>
</g>
</g>
<!-- Node0&#45;&gt;Node6 -->
<g id="edge6" class="edge">
<title>Node0&#45;&gt;Node6</title>
<path fill="none" stroke="#191970" d="M166.6236,-336.2977C172.8701,-327.7609 180.704,-317.0545 187.2647,-308.0883"/>
<polygon fill="#191970" stroke="#191970" points="190.2144,-309.984 193.2949,-299.8469 184.5652,-305.8505 190.2144,-309.984"/>
</g>
<!-- Node16 -->
<g id="node17" class="node">
<title>Node16</title>
<g id="a_node17"><a xlink:title=" ">
<polygon fill="#ffffff" stroke="#bfbfbf" points="279.5,-280.5 279.5,-299.5 325.5,-299.5 325.5,-280.5 279.5,-280.5"/>
<text text-anchor="middle" x="302.5" y="-287.5" font-family="Helvetica,sans-Serif" font-size="10.00" fill="#000000">cstring</text>
</a>
</g>
</g>
<!-- Node0&#45;&gt;Node16 -->
<g id="edge24" class="edge">
<title>Node0&#45;&gt;Node16</title>
<path fill="none" stroke="#191970" d="M191.4602,-336.4554C215.5573,-326.374 247.013,-313.2139 270.2903,-303.4755"/>
<polygon fill="#191970" stroke="#191970" points="271.8459,-306.6187 279.7202,-299.5303 269.1442,-300.1611 271.8459,-306.6187"/>
</g>
<!-- Node3 -->
<g id="node4" class="node">
<title>Node3</title>
<g id="a_node4"><a xlink:href="dji__type_8hpp.html" target="_top" xlink:title="Data type and Data Structure definitions for use throughout DJI OSDK.">
<polygon fill="#ffffff" stroke="#000000" points="263,-112.5 263,-131.5 332,-131.5 332,-112.5 263,-112.5"/>
<text text-anchor="middle" x="297.5" y="-119.5" font-family="Helvetica,sans-Serif" font-size="10.00" fill="#000000">dji_type.hpp</text>
</a>
</g>
</g>
<!-- Node2&#45;&gt;Node3 -->
<g id="edge3" class="edge">
<title>Node2&#45;&gt;Node3</title>
<path fill="none" stroke="#191970" d="M65.4511,-224.3156C92.6521,-211.1916 142.9746,-187.194 186.5,-168 212.4369,-156.5622 242.1148,-144.3058 264.2538,-135.3226"/>
<polygon fill="#191970" stroke="#191970" points="265.5921,-138.5568 273.5504,-131.5629 262.9676,-132.0674 265.5921,-138.5568"/>
</g>
<!-- Node4 -->
<g id="node5" class="node">
<title>Node4</title>
<g id="a_node5"><a xlink:title=" ">
<polygon fill="#ffffff" stroke="#bfbfbf" points="276,-56.5 276,-75.5 319,-75.5 319,-56.5 276,-56.5"/>
<text text-anchor="middle" x="297.5" y="-63.5" font-family="Helvetica,sans-Serif" font-size="10.00" fill="#000000">cstdio</text>
</a>
</g>
</g>
<!-- Node3&#45;&gt;Node4 -->
<g id="edge4" class="edge">
<title>Node3&#45;&gt;Node4</title>
<path fill="none" stroke="#191970" d="M297.5,-112.2455C297.5,-104.9382 297.5,-94.6944 297.5,-85.7046"/>
<polygon fill="#191970" stroke="#191970" points="301.0001,-85.6426 297.5,-75.6427 294.0001,-85.6427 301.0001,-85.6426"/>
</g>
<!-- Node5 -->
<g id="node6" class="node">
<title>Node5</title>
<g id="a_node6"><a xlink:title=" ">
<polygon fill="#ffffff" stroke="#bfbfbf" points="345,-56.5 345,-75.5 394,-75.5 394,-56.5 345,-56.5"/>
<text text-anchor="middle" x="369.5" y="-63.5" font-family="Helvetica,sans-Serif" font-size="10.00" fill="#000000">stdint.h</text>
</a>
</g>
</g>
<!-- Node3&#45;&gt;Node5 -->
<g id="edge5" class="edge">
<title>Node3&#45;&gt;Node5</title>
<path fill="none" stroke="#191970" d="M310.0414,-112.2455C320.7787,-103.8943 336.4473,-91.7076 349.0047,-81.9408"/>
<polygon fill="#191970" stroke="#191970" points="351.3575,-84.5449 357.1023,-75.6427 347.0599,-79.0194 351.3575,-84.5449"/>
</g>
<!-- Node6&#45;&gt;Node1 -->
<g id="edge22" class="edge">
<title>Node6&#45;&gt;Node1</title>
<path fill="none" stroke="#191970" d="M190.0488,-280.2455C181.2731,-272.0549 168.5446,-260.1749 158.186,-250.5069"/>
<polygon fill="#191970" stroke="#191970" points="160.5301,-247.9072 150.8314,-243.6427 155.7539,-253.0246 160.5301,-247.9072"/>
</g>
<!-- Node6&#45;&gt;Node3 -->
<g id="edge23" class="edge">
<title>Node6&#45;&gt;Node3</title>
<path fill="none" stroke="#191970" d="M205.9931,-280.4862C221.5256,-253.5845 265.9753,-176.5994 286.6641,-140.7673"/>
<polygon fill="#191970" stroke="#191970" points="289.8564,-142.2381 291.8256,-131.8279 283.7943,-138.7379 289.8564,-142.2381"/>
</g>
<!-- Node7 -->
<g id="node8" class="node">
<title>Node7</title>
<g id="a_node8"><a xlink:href="dji__ack_8hpp.html" target="_top" xlink:title="All DJI OSDK ACK parsing.">
<polygon fill="#ffffff" stroke="#000000" points="293.5,-224.5 293.5,-243.5 359.5,-243.5 359.5,-224.5 293.5,-224.5"/>
<text text-anchor="middle" x="326.5" y="-231.5" font-family="Helvetica,sans-Serif" font-size="10.00" fill="#000000">dji_ack.hpp</text>
</a>
</g>
</g>
<!-- Node6&#45;&gt;Node7 -->
<g id="edge7" class="edge">
<title>Node6&#45;&gt;Node7</title>
<path fill="none" stroke="#191970" d="M222.1602,-280.3733C242.4772,-271.3435 273.064,-257.7494 295.875,-247.6111"/>
<polygon fill="#191970" stroke="#191970" points="297.4059,-250.7609 305.1225,-243.5011 294.5628,-244.3642 297.4059,-250.7609"/>
</g>
<!-- Node7&#45;&gt;Node3 -->
<g id="edge17" class="edge">
<title>Node7&#45;&gt;Node3</title>
<path fill="none" stroke="#191970" d="M320.5741,-224.1586C315.4205,-215.0992 308.2136,-201.1173 304.5,-188 300.2274,-172.908 298.5194,-155.2048 297.8566,-141.9345"/>
<polygon fill="#191970" stroke="#191970" points="301.3428,-141.4663 297.5051,-131.591 294.3469,-141.7041 301.3428,-141.4663"/>
</g>
<!-- Node8 -->
<g id="node9" class="node">
<title>Node8</title>
<g id="a_node9"><a xlink:href="dji__command_8hpp.html" target="_top" xlink:title="All DJI OSDK OpenProtocol Command IDs.">
<polygon fill="#ffffff" stroke="#000000" points="413,-112.5 413,-131.5 506,-131.5 506,-112.5 413,-112.5"/>
<text text-anchor="middle" x="459.5" y="-119.5" font-family="Helvetica,sans-Serif" font-size="10.00" fill="#000000">dji_command.hpp</text>
</a>
</g>
</g>
<!-- Node7&#45;&gt;Node8 -->
<g id="edge8" class="edge">
<title>Node7&#45;&gt;Node8</title>
<path fill="none" stroke="#191970" d="M359.6685,-226.1321C382.1236,-219.3204 411.1188,-207.4285 430.5,-188 443.1786,-175.2904 450.7537,-156.1033 454.964,-141.6874"/>
<polygon fill="#191970" stroke="#191970" points="458.411,-142.3402 457.5566,-131.7799 451.639,-140.5681 458.411,-142.3402"/>
</g>
<!-- Node11 -->
<g id="node12" class="node">
<title>Node11</title>
<g id="a_node12"><a xlink:title=" ">
<polygon fill="#ffffff" stroke="#bfbfbf" points="287,-.5 287,-19.5 322,-19.5 322,-.5 287,-.5"/>
<text text-anchor="middle" x="304.5" y="-7.5" font-family="Helvetica,sans-Serif" font-size="10.00" fill="#000000">map</text>
</a>
</g>
</g>
<!-- Node7&#45;&gt;Node11 -->
<g id="edge21" class="edge">
<title>Node7&#45;&gt;Node11</title>
<path fill="none" stroke="#191970" d="M316.5679,-224.4544C299.8791,-207.6435 266.8276,-170.8409 254.5,-132 247.3813,-109.571 266.3811,-58.3002 267.5,-56 272.6109,-45.4934 280.5071,-35.2222 287.6945,-27.0604"/>
<polygon fill="#191970" stroke="#191970" points="290.3046,-29.3929 294.5161,-19.671 285.1612,-24.6446 290.3046,-29.3929"/>
</g>
<!-- Node13 -->
<g id="node14" class="node">
<title>Node13</title>
<g id="a_node14"><a xlink:href="dji__mission__type_8hpp.html" target="_top" xlink:title="Mission related data struct for DJI OSDK library.">
<polygon fill="#ffffff" stroke="#000000" points="313.5,-168.5 313.5,-187.5 421.5,-187.5 421.5,-168.5 313.5,-168.5"/>
<text text-anchor="middle" x="367.5" y="-175.5" font-family="Helvetica,sans-Serif" font-size="10.00" fill="#000000">dji_mission_type.hpp</text>
</a>
</g>
</g>
<!-- Node7&#45;&gt;Node13 -->
<g id="edge14" class="edge">
<title>Node7&#45;&gt;Node13</title>
<path fill="none" stroke="#191970" d="M333.6417,-224.2455C339.3444,-216.4564 347.49,-205.3308 354.3625,-195.9439"/>
<polygon fill="#191970" stroke="#191970" points="357.3568,-197.7789 360.4402,-187.6427 351.7087,-193.6437 357.3568,-197.7789"/>
</g>
<!-- Node15 -->
<g id="node16" class="node">
<title>Node15</title>
<g id="a_node16"><a xlink:href="dji__version_8hpp.html" target="_top" xlink:title="Drone/SDK Version definition for DJI onboardSDK library.">
<polygon fill="#ffffff" stroke="#000000" points="477.5,-168.5 477.5,-187.5 559.5,-187.5 559.5,-168.5 477.5,-168.5"/>
<text text-anchor="middle" x="518.5" y="-175.5" font-family="Helvetica,sans-Serif" font-size="10.00" fill="#000000">dji_version.hpp</text>
</a>
</g>
</g>
<!-- Node7&#45;&gt;Node15 -->
<g id="edge18" class="edge">
<title>Node7&#45;&gt;Node15</title>
<path fill="none" stroke="#191970" d="M359.506,-224.3733C391.7091,-214.9807 440.8442,-200.6496 475.9639,-190.4064"/>
<polygon fill="#191970" stroke="#191970" points="477.3047,-193.6612 485.9247,-187.5011 475.3447,-186.9412 477.3047,-193.6612"/>
</g>
<!-- Node8&#45;&gt;Node5 -->
<g id="edge13" class="edge">
<title>Node8&#45;&gt;Node5</title>
<path fill="none" stroke="#191970" d="M443.8232,-112.2455C430.0144,-103.6534 409.6807,-91.0014 393.7708,-81.1018"/>
<polygon fill="#191970" stroke="#191970" points="395.3368,-77.954 384.9972,-75.6427 391.6387,-83.8974 395.3368,-77.954"/>
</g>
<!-- Node9 -->
<g id="node10" class="node">
<title>Node9</title>
<g id="a_node10"><a xlink:href="dji__error_8hpp.html" target="_top" xlink:title="All DJI OSDK OpenProtocol ACK Error Codes.">
<polygon fill="#ffffff" stroke="#000000" points="420.5,-56.5 420.5,-75.5 490.5,-75.5 490.5,-56.5 420.5,-56.5"/>
<text text-anchor="middle" x="455.5" y="-63.5" font-family="Helvetica,sans-Serif" font-size="10.00" fill="#000000">dji_error.hpp</text>
</a>
</g>
</g>
<!-- Node8&#45;&gt;Node9 -->
<g id="edge9" class="edge">
<title>Node8&#45;&gt;Node9</title>
<path fill="none" stroke="#191970" d="M458.8033,-112.2455C458.2813,-104.9382 457.5496,-94.6944 456.9075,-85.7046"/>
<polygon fill="#191970" stroke="#191970" points="460.3924,-85.3679 456.1888,-75.6427 453.4102,-85.8667 460.3924,-85.3679"/>
</g>
<!-- Node10 -->
<g id="node11" class="node">
<title>Node10</title>
<g id="a_node11"><a xlink:title=" ">
<polygon fill="#ffffff" stroke="#bfbfbf" points="511.5,-.5 511.5,-19.5 557.5,-19.5 557.5,-.5 511.5,-.5"/>
<text text-anchor="middle" x="534.5" y="-7.5" font-family="Helvetica,sans-Serif" font-size="10.00" fill="#000000">cstdint</text>
</a>
</g>
</g>
<!-- Node9&#45;&gt;Node10 -->
<g id="edge10" class="edge">
<title>Node9&#45;&gt;Node10</title>
<path fill="none" stroke="#191970" d="M469.2607,-56.2455C481.1552,-47.814 498.565,-35.4729 512.4085,-25.6598"/>
<polygon fill="#191970" stroke="#191970" points="514.7628,-28.2811 520.8969,-19.6427 510.7146,-22.5704 514.7628,-28.2811"/>
</g>
<!-- Node9&#45;&gt;Node11 -->
<g id="edge11" class="edge">
<title>Node9&#45;&gt;Node11</title>
<path fill="none" stroke="#191970" d="M429.5422,-56.3733C402.2059,-46.2353 359.3558,-30.3439 331.5974,-20.0494"/>
<polygon fill="#191970" stroke="#191970" points="332.7032,-16.7266 322.1102,-16.5309 330.2692,-23.2898 332.7032,-16.7266"/>
</g>
<!-- Node12 -->
<g id="node13" class="node">
<title>Node12</title>
<g id="a_node13"><a xlink:title=" ">
<polygon fill="#ffffff" stroke="#bfbfbf" points="410,-.5 410,-19.5 493,-19.5 493,-.5 410,-.5"/>
<text text-anchor="middle" x="451.5" y="-7.5" font-family="Helvetica,sans-Serif" font-size="10.00" fill="#000000">osdk_typedef.h</text>
</a>
</g>
</g>
<!-- Node9&#45;&gt;Node12 -->
<g id="edge12" class="edge">
<title>Node9&#45;&gt;Node12</title>
<path fill="none" stroke="#191970" d="M454.8033,-56.2455C454.2813,-48.9382 453.5496,-38.6944 452.9075,-29.7046"/>
<polygon fill="#191970" stroke="#191970" points="456.3924,-29.3679 452.1888,-19.6427 449.4102,-29.8667 456.3924,-29.3679"/>
</g>
<!-- Node13&#45;&gt;Node3 -->
<g id="edge16" class="edge">
<title>Node13&#45;&gt;Node3</title>
<path fill="none" stroke="#191970" d="M355.3069,-168.2455C344.8679,-159.8943 329.6345,-147.7076 317.426,-137.9408"/>
<polygon fill="#191970" stroke="#191970" points="319.5485,-135.1566 309.5533,-131.6427 315.1756,-140.6227 319.5485,-135.1566"/>
</g>
<!-- Node14 -->
<g id="node15" class="node">
<title>Node14</title>
<g id="a_node15"><a xlink:title=" ">
<polygon fill="#ffffff" stroke="#bfbfbf" points="350.5,-112.5 350.5,-131.5 394.5,-131.5 394.5,-112.5 350.5,-112.5"/>
<text text-anchor="middle" x="372.5" y="-119.5" font-family="Helvetica,sans-Serif" font-size="10.00" fill="#000000">vector</text>
</a>
</g>
</g>
<!-- Node13&#45;&gt;Node14 -->
<g id="edge15" class="edge">
<title>Node13&#45;&gt;Node14</title>
<path fill="none" stroke="#191970" d="M368.3709,-168.2455C369.0234,-160.9382 369.938,-150.6944 370.7407,-141.7046"/>
<polygon fill="#191970" stroke="#191970" points="374.2358,-141.9143 371.639,-131.6427 367.2635,-141.2918 374.2358,-141.9143"/>
</g>
<!-- Node15&#45;&gt;Node8 -->
<g id="edge19" class="edge">
<title>Node15&#45;&gt;Node8</title>
<path fill="none" stroke="#191970" d="M508.223,-168.2455C499.6782,-160.1352 487.3222,-148.4075 477.1915,-138.7919"/>
<polygon fill="#191970" stroke="#191970" points="479.3218,-135.9884 469.6592,-131.6427 474.5028,-141.0655 479.3218,-135.9884"/>
</g>
<!-- Node15&#45;&gt;Node10 -->
<g id="edge20" class="edge">
<title>Node15&#45;&gt;Node10</title>
<path fill="none" stroke="#191970" d="M519.4061,-168.4862C521.9353,-141.9293 529.1128,-66.5651 532.5795,-30.1655"/>
<polygon fill="#191970" stroke="#191970" points="536.1001,-30.1147 533.564,-19.8279 529.1316,-29.451 536.1001,-30.1147"/>
</g>
</g>
</svg>
