<?xml version="1.0" encoding="UTF-8" standalone="no"?>
<!DOCTYPE svg PUBLIC "-//W3C//DTD SVG 1.1//EN"
 "http://www.w3.org/Graphics/SVG/1.1/DTD/svg11.dtd">
<!-- Generated by graphviz version 2.38.0 (20140413.2041)
 -->
<!-- Title: osdk&#45;core/api/src/dji_hardware_sync.cpp Pages: 1 -->
<!--zoomable 431 -->
<svg id="main" version="1.1" xmlns="http://www.w3.org/2000/svg" xmlns:xlink="http://www.w3.org/1999/xlink" xml:space="preserve" onload="init(evt)">
<style type="text/css"><![CDATA[
.edge:hover path { stroke: red; }
.edge:hover polygon { stroke: red; fill: red; }
]]></style>
<script type="text/javascript"><![CDATA[
var edges = document.getElementsByTagName('g');
if (edges && edges.length) {
  for (var i=0;i<edges.length;i++) {
    if (edges[i].id.substr(0,4)=='edge') {
      edges[i].setAttribute('class','edge');
    }
  }
}
]]></script>
        <defs>
                <circle id="rim" cx="0" cy="0" r="7"/>
                <circle id="rim2" cx="0" cy="0" r="3.5"/>
                <g id="zoomPlus">
                        <use xlink:href="#rim" fill="#404040">
                                <set attributeName="fill" to="#808080" begin="zoomplus.mouseover" end="zoomplus.mouseout"/>
                        </use>
                        <path d="M-4,0h8M0,-4v8" fill="none" stroke="white" stroke-width="1.5" pointer-events="none"/>
                </g>
                <g id="zoomMin">
                        <use xlink:href="#rim" fill="#404040">
                                <set attributeName="fill" to="#808080" begin="zoomminus.mouseover" end="zoomminus.mouseout"/>
                        </use>
                        <path d="M-4,0h8" fill="none" stroke="white" stroke-width="1.5" pointer-events="none"/>
                </g>
                <g id="dirArrow">
                        <path fill="none" stroke="white" stroke-width="1.5" d="M0,-3.0v7 M-2.5,-0.5L0,-3.0L2.5,-0.5"/>
                </g>
               <g id="resetDef">
                       <use xlink:href="#rim2" fill="#404040">
                               <set attributeName="fill" to="#808080" begin="reset.mouseover" end="reset.mouseout"/>
                       </use>
               </g>
        </defs>

<script type="text/javascript">
var viewWidth = 1632;
var viewHeight = 431;
var sectionId = 'dynsection-0';
</script>
<script xlink:href="svgpan.js"/>
<svg id="graph" class="graph">
<g id="viewport">
<title>osdk&#45;core/api/src/dji_hardware_sync.cpp</title>
<polygon fill="white" stroke="none" points="-4,4 -4,-427 1628,-427 1628,4 -4,4"/>
<!-- Node1 -->
<g id="node1" class="node"><title>Node1</title>
<polygon fill="#bfbfbf" stroke="black" points="622.5,-392.5 622.5,-422.5 729.5,-422.5 729.5,-392.5 622.5,-392.5"/>
<text text-anchor="start" x="630.5" y="-410.5" font-family="Helvetica,sans-Serif" font-size="10.00">osdk&#45;core/api/src/dji</text>
<text text-anchor="middle" x="676" y="-399.5" font-family="Helvetica,sans-Serif" font-size="10.00">_hardware_sync.cpp</text>
</g>
<!-- Node2 -->
<g id="node2" class="node"><title>Node2</title>
<g id="a_node2"><a xlink:href="dji__hardware__sync_8hpp.html" target="_top" xlink:title="Hardware Sync API for DJI OSDK. ">
<polygon fill="white" stroke="black" points="0,-280.5 0,-299.5 116,-299.5 116,-280.5 0,-280.5"/>
<text text-anchor="middle" x="58" y="-287.5" font-family="Helvetica,sans-Serif" font-size="10.00">dji_hardware_sync.hpp</text>
</a>
</g>
</g>
<!-- Node1&#45;&gt;Node2 -->
<g id="edge1" class="edge"><title>Node1&#45;&gt;Node2</title>
<path fill="none" stroke="midnightblue" d="M622.238,-396.452C505.816,-374.694 231.397,-323.407 113.458,-301.365"/>
<polygon fill="midnightblue" stroke="midnightblue" points="114.026,-297.91 103.553,-299.513 112.74,-304.791 114.026,-297.91"/>
</g>
<!-- Node6 -->
<g id="node6" class="node"><title>Node6</title>
<g id="a_node6"><a xlink:href="dji__vehicle_8hpp.html" target="_top" xlink:title="Vehicle API for DJI onboardSDK library. ">
<polygon fill="white" stroke="black" points="858.5,-336.5 858.5,-355.5 939.5,-355.5 939.5,-336.5 858.5,-336.5"/>
<text text-anchor="middle" x="899" y="-343.5" font-family="Helvetica,sans-Serif" font-size="10.00">dji_vehicle.hpp</text>
</a>
</g>
</g>
<!-- Node1&#45;&gt;Node6 -->
<g id="edge5" class="edge"><title>Node1&#45;&gt;Node6</title>
<path fill="none" stroke="midnightblue" d="M728.566,-392.475C767.878,-381.986 820.906,-367.837 857.316,-358.122"/>
<polygon fill="midnightblue" stroke="midnightblue" points="858.359,-361.466 867.119,-355.506 856.555,-354.703 858.359,-361.466"/>
</g>
<!-- Node3 -->
<g id="node3" class="node"><title>Node3</title>
<g id="a_node3"><a xlink:href="dji__type_8hpp.html" target="_top" xlink:title="Data type and Data Structure definitions for use throughout DJI OSDK. ">
<polygon fill="white" stroke="black" points="456.5,-112.5 456.5,-131.5 525.5,-131.5 525.5,-112.5 456.5,-112.5"/>
<text text-anchor="middle" x="491" y="-119.5" font-family="Helvetica,sans-Serif" font-size="10.00">dji_type.hpp</text>
</a>
</g>
</g>
<!-- Node2&#45;&gt;Node3 -->
<g id="edge2" class="edge"><title>Node2&#45;&gt;Node3</title>
<path fill="none" stroke="midnightblue" d="M80.3682,-280.425C152.008,-252.96 375.952,-167.106 459.316,-135.147"/>
<polygon fill="midnightblue" stroke="midnightblue" points="460.681,-138.372 468.766,-131.524 458.175,-131.836 460.681,-138.372"/>
</g>
<!-- Node4 -->
<g id="node4" class="node"><title>Node4</title>
<polygon fill="white" stroke="#bfbfbf" points="444.5,-56.5 444.5,-75.5 487.5,-75.5 487.5,-56.5 444.5,-56.5"/>
<text text-anchor="middle" x="466" y="-63.5" font-family="Helvetica,sans-Serif" font-size="10.00">cstdio</text>
</g>
<!-- Node3&#45;&gt;Node4 -->
<g id="edge3" class="edge"><title>Node3&#45;&gt;Node4</title>
<path fill="none" stroke="midnightblue" d="M486.872,-112.083C483.486,-104.77 478.584,-94.1814 474.381,-85.1034"/>
<polygon fill="midnightblue" stroke="midnightblue" points="477.429,-83.3553 470.051,-75.7511 471.077,-86.2962 477.429,-83.3553"/>
</g>
<!-- Node5 -->
<g id="node5" class="node"><title>Node5</title>
<polygon fill="white" stroke="#bfbfbf" points="366.5,-0.5 366.5,-19.5 415.5,-19.5 415.5,-0.5 366.5,-0.5"/>
<text text-anchor="middle" x="391" y="-7.5" font-family="Helvetica,sans-Serif" font-size="10.00">stdint.h</text>
</g>
<!-- Node3&#45;&gt;Node5 -->
<g id="edge4" class="edge"><title>Node3&#45;&gt;Node5</title>
<path fill="none" stroke="midnightblue" d="M494.854,-112.157C500.028,-98.795 507.339,-73.1968 496,-56 480.524,-32.5302 449.994,-21.2545 425.826,-15.8647"/>
<polygon fill="midnightblue" stroke="midnightblue" points="426.41,-12.4125 415.92,-13.8968 425.046,-19.2784 426.41,-12.4125"/>
</g>
<!-- Node6&#45;&gt;Node2 -->
<g id="edge37" class="edge"><title>Node6&#45;&gt;Node2</title>
<path fill="none" stroke="midnightblue" d="M858.492,-343.571C743.951,-339.328 408.007,-325.482 130,-300 128.73,-299.884 127.448,-299.762 126.156,-299.637"/>
<polygon fill="midnightblue" stroke="midnightblue" points="126.43,-296.146 116.123,-298.599 125.71,-303.109 126.43,-296.146"/>
</g>
<!-- Node6&#45;&gt;Node3 -->
<g id="edge58" class="edge"><title>Node6&#45;&gt;Node3</title>
<path fill="none" stroke="midnightblue" d="M858.366,-345.587C780.488,-345.749 614.746,-341.125 579,-300 573.169,-293.291 574.479,-287.653 579,-280 589.776,-261.76 735.224,-206.24 746,-188 750.521,-180.347 751.713,-174.81 746,-168 719.67,-136.617 601.59,-127.111 535.741,-124.239"/>
<polygon fill="midnightblue" stroke="midnightblue" points="535.776,-120.737 525.643,-123.832 535.494,-127.732 535.776,-120.737"/>
</g>
<!-- Node7 -->
<g id="node7" class="node"><title>Node7</title>
<polygon fill="white" stroke="#bfbfbf" points="980,-112.5 980,-131.5 1026,-131.5 1026,-112.5 980,-112.5"/>
<text text-anchor="middle" x="1003" y="-119.5" font-family="Helvetica,sans-Serif" font-size="10.00">cstdint</text>
</g>
<!-- Node6&#45;&gt;Node7 -->
<g id="edge6" class="edge"><title>Node6&#45;&gt;Node7</title>
<path fill="none" stroke="midnightblue" d="M901.483,-336.178C906.001,-321.871 916.997,-293.82 937,-280 1015.99,-225.425 1088.03,-317.328 1150,-244 1168.8,-221.757 1141.58,-184.966 1123,-168 1098.63,-145.745 1062.22,-134.173 1035.9,-128.375"/>
<polygon fill="midnightblue" stroke="midnightblue" points="1036.5,-124.926 1026.01,-126.36 1035.11,-131.785 1036.5,-124.926"/>
</g>
<!-- Node8 -->
<g id="node8" class="node"><title>Node8</title>
<g id="a_node8"><a xlink:href="dji__broadcast_8hpp.html" target="_top" xlink:title="Broadcast Telemetry API for DJI onboardSDK library. ">
<polygon fill="white" stroke="black" points="1048.5,-224.5 1048.5,-243.5 1141.5,-243.5 1141.5,-224.5 1048.5,-224.5"/>
<text text-anchor="middle" x="1095" y="-231.5" font-family="Helvetica,sans-Serif" font-size="10.00">dji_broadcast.hpp</text>
</a>
</g>
</g>
<!-- Node6&#45;&gt;Node8 -->
<g id="edge7" class="edge"><title>Node6&#45;&gt;Node8</title>
<path fill="none" stroke="midnightblue" d="M896.75,-336.221C893.798,-322.477 890.456,-295.819 904,-280 912.873,-269.637 985.417,-254.625 1038.48,-244.839"/>
<polygon fill="midnightblue" stroke="midnightblue" points="1039.27,-248.253 1048.48,-243.015 1038.01,-241.367 1039.27,-248.253"/>
</g>
<!-- Node10 -->
<g id="node10" class="node"><title>Node10</title>
<g id="a_node10"><a xlink:href="dji__vehicle__callback_8hpp.html" target="_top" xlink:title="Type definition for new Vehicle&#45;style callbacks. ">
<polygon fill="white" stroke="black" points="1184,-112.5 1184,-131.5 1306,-131.5 1306,-112.5 1184,-112.5"/>
<text text-anchor="middle" x="1245" y="-119.5" font-family="Helvetica,sans-Serif" font-size="10.00">dji_vehicle_callback.hpp</text>
</a>
</g>
</g>
<!-- Node6&#45;&gt;Node10 -->
<g id="edge59" class="edge"><title>Node6&#45;&gt;Node10</title>
<path fill="none" stroke="midnightblue" d="M939.664,-343.899C1059.69,-340.341 1406.69,-327.742 1449,-300 1479.37,-280.09 1498.95,-254.342 1479,-224 1443.13,-169.443 1370.86,-144.224 1316.07,-132.647"/>
<polygon fill="midnightblue" stroke="midnightblue" points="1316.55,-129.173 1306.06,-130.64 1315.18,-136.037 1316.55,-129.173"/>
</g>
<!-- Node11 -->
<g id="node11" class="node"><title>Node11</title>
<polygon fill="white" stroke="#bfbfbf" points="1233.5,-56.5 1233.5,-75.5 1344.5,-75.5 1344.5,-56.5 1233.5,-56.5"/>
<text text-anchor="middle" x="1289" y="-63.5" font-family="Helvetica,sans-Serif" font-size="10.00">dji_open_protocol.hpp</text>
</g>
<!-- Node6&#45;&gt;Node11 -->
<g id="edge51" class="edge"><title>Node6&#45;&gt;Node11</title>
<path fill="none" stroke="midnightblue" d="M939.666,-345.483C1063.95,-346.448 1437.07,-345.391 1548,-300 1589.14,-283.168 1624,-279.447 1624,-235 1624,-235 1624,-235 1624,-177 1624,-120.907 1452.32,-88.7529 1354.76,-75.0093"/>
<polygon fill="midnightblue" stroke="midnightblue" points="1355.08,-71.5199 1344.69,-73.6191 1354.12,-78.4541 1355.08,-71.5199"/>
</g>
<!-- Node12 -->
<g id="node12" class="node"><title>Node12</title>
<g id="a_node12"><a xlink:href="dji__camera_8hpp.html" target="_top" xlink:title="Camera/Gimbal API for DJI onboardSDK library. ">
<polygon fill="white" stroke="black" points="221.5,-168.5 221.5,-187.5 304.5,-187.5 304.5,-168.5 221.5,-168.5"/>
<text text-anchor="middle" x="263" y="-175.5" font-family="Helvetica,sans-Serif" font-size="10.00">dji_camera.hpp</text>
</a>
</g>
</g>
<!-- Node6&#45;&gt;Node12 -->
<g id="edge12" class="edge"><title>Node6&#45;&gt;Node12</title>
<path fill="none" stroke="midnightblue" d="M858.324,-343.468C791.891,-340.158 656.441,-330.021 546,-300 446.385,-272.922 335.951,-217.803 287.758,-192.387"/>
<polygon fill="midnightblue" stroke="midnightblue" points="289.18,-189.179 278.708,-187.576 285.894,-195.36 289.18,-189.179"/>
</g>
<!-- Node13 -->
<g id="node13" class="node"><title>Node13</title>
<g id="a_node13"><a xlink:href="dji__command_8hpp.html" target="_top" xlink:title="All DJI OSDK OpenProtocol Command IDs. ">
<polygon fill="white" stroke="black" points="312.5,-112.5 312.5,-131.5 405.5,-131.5 405.5,-112.5 312.5,-112.5"/>
<text text-anchor="middle" x="359" y="-119.5" font-family="Helvetica,sans-Serif" font-size="10.00">dji_command.hpp</text>
</a>
</g>
</g>
<!-- Node6&#45;&gt;Node13 -->
<g id="edge19" class="edge"><title>Node6&#45;&gt;Node13</title>
<path fill="none" stroke="midnightblue" d="M858.473,-343.915C710.096,-338.955 200.672,-312.926 115,-188 109.973,-180.669 109.313,-174.832 115,-168 138.38,-139.914 237.953,-129.29 302.45,-125.319"/>
<polygon fill="midnightblue" stroke="midnightblue" points="302.703,-128.81 312.483,-124.737 302.297,-121.822 302.703,-128.81"/>
</g>
<!-- Node15 -->
<g id="node15" class="node"><title>Node15</title>
<polygon fill="white" stroke="#bfbfbf" points="946,-280.5 946,-299.5 1058,-299.5 1058,-280.5 946,-280.5"/>
<text text-anchor="middle" x="1002" y="-287.5" font-family="Helvetica,sans-Serif" font-size="10.00">dji_circular_buffer.hpp</text>
</g>
<!-- Node6&#45;&gt;Node15 -->
<g id="edge18" class="edge"><title>Node6&#45;&gt;Node15</title>
<path fill="none" stroke="midnightblue" d="M915.549,-336.324C931.992,-327.703 957.435,-314.364 976.468,-304.386"/>
<polygon fill="midnightblue" stroke="midnightblue" points="978.261,-307.398 985.492,-299.655 975.011,-301.198 978.261,-307.398"/>
</g>
<!-- Node16 -->
<g id="node16" class="node"><title>Node16</title>
<g id="a_node16"><a xlink:href="dji__control_8hpp.html" target="_top" xlink:title="Control API for DJI OSDK library. ">
<polygon fill="white" stroke="black" points="588,-280.5 588,-299.5 668,-299.5 668,-280.5 588,-280.5"/>
<text text-anchor="middle" x="628" y="-287.5" font-family="Helvetica,sans-Serif" font-size="10.00">dji_control.hpp</text>
</a>
</g>
</g>
<!-- Node6&#45;&gt;Node16 -->
<g id="edge20" class="edge"><title>Node6&#45;&gt;Node16</title>
<path fill="none" stroke="midnightblue" d="M858.429,-336.916C810.394,-327.344 730.375,-311.399 678.407,-301.044"/>
<polygon fill="midnightblue" stroke="midnightblue" points="678.897,-297.573 668.406,-299.051 677.529,-304.438 678.897,-297.573"/>
</g>
<!-- Node19 -->
<g id="node19" class="node"><title>Node19</title>
<g id="a_node19"><a xlink:href="dji__version_8hpp.html" target="_top" xlink:title="Drone/SDK Version definition for DJI onboardSDK library. ">
<polygon fill="white" stroke="black" points="655,-168.5 655,-187.5 737,-187.5 737,-168.5 655,-168.5"/>
<text text-anchor="middle" x="696" y="-175.5" font-family="Helvetica,sans-Serif" font-size="10.00">dji_version.hpp</text>
</a>
</g>
</g>
<!-- Node6&#45;&gt;Node19 -->
<g id="edge60" class="edge"><title>Node6&#45;&gt;Node19</title>
<path fill="none" stroke="midnightblue" d="M858.331,-340.314C810.177,-333.901 734.084,-320.761 715,-300 689.302,-272.044 690.21,-224.213 693.111,-197.838"/>
<polygon fill="midnightblue" stroke="midnightblue" points="696.614,-198.044 694.449,-187.672 689.674,-197.13 696.614,-198.044"/>
</g>
<!-- Node21 -->
<g id="node21" class="node"><title>Node21</title>
<g id="a_node21"><a xlink:href="dji__gimbal_8hpp.html" target="_top" xlink:title="Gimbal API for OSDK library. ">
<polygon fill="white" stroke="black" points="124.5,-168.5 124.5,-187.5 203.5,-187.5 203.5,-168.5 124.5,-168.5"/>
<text text-anchor="middle" x="164" y="-175.5" font-family="Helvetica,sans-Serif" font-size="10.00">dji_gimbal.hpp</text>
</a>
</g>
</g>
<!-- Node6&#45;&gt;Node21 -->
<g id="edge33" class="edge"><title>Node6&#45;&gt;Node21</title>
<path fill="none" stroke="midnightblue" d="M858.461,-343.972C783.662,-341.335 619.314,-332.069 485,-300 372.386,-273.112 245.7,-217.285 191.252,-191.976"/>
<polygon fill="midnightblue" stroke="midnightblue" points="192.487,-188.689 181.946,-187.619 189.519,-195.029 192.487,-188.689"/>
</g>
<!-- Node22 -->
<g id="node22" class="node"><title>Node22</title>
<polygon fill="white" stroke="#bfbfbf" points="1076,-280.5 1076,-299.5 1174,-299.5 1174,-280.5 1076,-280.5"/>
<text text-anchor="middle" x="1125" y="-287.5" font-family="Helvetica,sans-Serif" font-size="10.00">dji_hard_driver.hpp</text>
</g>
<!-- Node6&#45;&gt;Node22 -->
<g id="edge36" class="edge"><title>Node6&#45;&gt;Node22</title>
<path fill="none" stroke="midnightblue" d="M934.81,-336.444C973.988,-327.083 1036.88,-312.056 1079.52,-301.868"/>
<polygon fill="midnightblue" stroke="midnightblue" points="1080.44,-305.245 1089.36,-299.516 1078.82,-298.436 1080.44,-305.245"/>
</g>
<!-- Node23 -->
<g id="node23" class="node"><title>Node23</title>
<g id="a_node23"><a xlink:href="dji__mfio_8hpp.html" target="_top" xlink:title="MFIO API for DJI OSDK library. ">
<polygon fill="white" stroke="black" points="1526.5,-224.5 1526.5,-243.5 1595.5,-243.5 1595.5,-224.5 1526.5,-224.5"/>
<text text-anchor="middle" x="1561" y="-231.5" font-family="Helvetica,sans-Serif" font-size="10.00">dji_mfio.hpp</text>
</a>
</g>
</g>
<!-- Node6&#45;&gt;Node23 -->
<g id="edge38" class="edge"><title>Node6&#45;&gt;Node23</title>
<path fill="none" stroke="midnightblue" d="M939.674,-344.333C1070.83,-341.876 1476.92,-331.753 1526,-300 1542.28,-289.468 1551.54,-268.684 1556.39,-253.444"/>
<polygon fill="midnightblue" stroke="midnightblue" points="1559.84,-254.126 1559.19,-243.552 1553.1,-252.225 1559.84,-254.126"/>
</g>
<!-- Node24 -->
<g id="node24" class="node"><title>Node24</title>
<g id="a_node24"><a xlink:href="dji__mission__manager_8hpp.html" target="_top" xlink:title="Mission&#45;Manager API for DJI OSDK library. ">
<polygon fill="white" stroke="black" points="724.5,-280.5 724.5,-299.5 851.5,-299.5 851.5,-280.5 724.5,-280.5"/>
<text text-anchor="middle" x="788" y="-287.5" font-family="Helvetica,sans-Serif" font-size="10.00">dji_mission_manager.hpp</text>
</a>
</g>
</g>
<!-- Node6&#45;&gt;Node24 -->
<g id="edge40" class="edge"><title>Node6&#45;&gt;Node24</title>
<path fill="none" stroke="midnightblue" d="M881.166,-336.324C863.284,-327.625 835.525,-314.12 814.954,-304.113"/>
<polygon fill="midnightblue" stroke="midnightblue" points="816.313,-300.882 805.79,-299.655 813.251,-307.177 816.313,-300.882"/>
</g>
<!-- Node28 -->
<g id="node28" class="node"><title>Node28</title>
<g id="a_node28"><a xlink:href="dji__mobile__communication_8hpp.html" target="_top" xlink:title="Implementation of DJI Mobile&#45;Onboard SDK Communication (MOC) ">
<polygon fill="white" stroke="black" points="1320,-224.5 1320,-243.5 1470,-243.5 1470,-224.5 1320,-224.5"/>
<text text-anchor="middle" x="1395" y="-231.5" font-family="Helvetica,sans-Serif" font-size="10.00">dji_mobile_communication.hpp</text>
</a>
</g>
</g>
<!-- Node6&#45;&gt;Node28 -->
<g id="edge49" class="edge"><title>Node6&#45;&gt;Node28</title>
<path fill="none" stroke="midnightblue" d="M939.621,-344.667C1058.56,-343.272 1399.79,-336.13 1433,-300 1446.79,-285.003 1429.71,-264.178 1414.23,-250.178"/>
<polygon fill="midnightblue" stroke="midnightblue" points="1416.34,-247.373 1406.46,-243.546 1411.79,-252.699 1416.34,-247.373"/>
</g>
<!-- Node29 -->
<g id="node29" class="node"><title>Node29</title>
<g id="a_node29"><a xlink:href="dji__status_8hpp.html" target="_top" xlink:title="Status information for DJI Vehicle. ">
<polygon fill="white" stroke="black" points="1192.5,-280.5 1192.5,-299.5 1269.5,-299.5 1269.5,-280.5 1192.5,-280.5"/>
<text text-anchor="middle" x="1231" y="-287.5" font-family="Helvetica,sans-Serif" font-size="10.00">dji_status.hpp</text>
</a>
</g>
</g>
<!-- Node6&#45;&gt;Node29 -->
<g id="edge52" class="edge"><title>Node6&#45;&gt;Node29</title>
<path fill="none" stroke="midnightblue" d="M939.505,-338.949C992.717,-330.92 1089.33,-316.064 1182.12,-300.112"/>
<polygon fill="midnightblue" stroke="midnightblue" points="1182.99,-303.514 1192.24,-298.364 1181.79,-296.616 1182.99,-303.514"/>
</g>
<!-- Node30 -->
<g id="node30" class="node"><title>Node30</title>
<g id="a_node30"><a xlink:href="dji__subscription_8hpp.html" target="_top" xlink:title="Telemetry Subscription API for DJI OSDK library. ">
<polygon fill="white" stroke="black" points="1198.5,-224.5 1198.5,-243.5 1301.5,-243.5 1301.5,-224.5 1198.5,-224.5"/>
<text text-anchor="middle" x="1250" y="-231.5" font-family="Helvetica,sans-Serif" font-size="10.00">dji_subscription.hpp</text>
</a>
</g>
</g>
<!-- Node6&#45;&gt;Node30 -->
<g id="edge53" class="edge"><title>Node6&#45;&gt;Node30</title>
<path fill="none" stroke="midnightblue" d="M939.646,-344.553C1056.14,-342.853 1384.93,-334.972 1417,-300 1423.01,-293.448 1422.41,-287.056 1417,-280 1409.81,-270.618 1348.3,-255.755 1302,-245.701"/>
<polygon fill="midnightblue" stroke="midnightblue" points="1302.59,-242.249 1292.08,-243.57 1301.12,-249.093 1302.59,-242.249"/>
</g>
<!-- Node31 -->
<g id="node31" class="node"><title>Node31</title>
<polygon fill="white" stroke="#bfbfbf" points="1288,-280.5 1288,-299.5 1408,-299.5 1408,-280.5 1288,-280.5"/>
<text text-anchor="middle" x="1348" y="-287.5" font-family="Helvetica,sans-Serif" font-size="10.00">dji_thread_manager.hpp</text>
</g>
<!-- Node6&#45;&gt;Node31 -->
<g id="edge57" class="edge"><title>Node6&#45;&gt;Node31</title>
<path fill="none" stroke="midnightblue" d="M939.679,-340.301C1007.33,-332.458 1147.51,-316.085 1277.54,-300.046"/>
<polygon fill="midnightblue" stroke="midnightblue" points="1278.18,-303.493 1287.68,-298.794 1277.32,-296.546 1278.18,-303.493"/>
</g>
<!-- Node9 -->
<g id="node9" class="node"><title>Node9</title>
<g id="a_node9"><a xlink:href="dji__telemetry_8hpp.html" target="_top" xlink:title="Enumeration of all telemetry data types, structures and maps. ">
<polygon fill="white" stroke="black" points="1023.5,-168.5 1023.5,-187.5 1114.5,-187.5 1114.5,-168.5 1023.5,-168.5"/>
<text text-anchor="middle" x="1069" y="-175.5" font-family="Helvetica,sans-Serif" font-size="10.00">dji_telemetry.hpp</text>
</a>
</g>
</g>
<!-- Node8&#45;&gt;Node9 -->
<g id="edge8" class="edge"><title>Node8&#45;&gt;Node9</title>
<path fill="none" stroke="midnightblue" d="M1090.71,-224.083C1087.15,-216.691 1081.98,-205.953 1077.58,-196.811"/>
<polygon fill="midnightblue" stroke="midnightblue" points="1080.71,-195.243 1073.21,-187.751 1074.4,-198.279 1080.71,-195.243"/>
</g>
<!-- Node8&#45;&gt;Node10 -->
<g id="edge10" class="edge"><title>Node8&#45;&gt;Node10</title>
<path fill="none" stroke="midnightblue" d="M1106.77,-224.368C1132.4,-205.573 1193.5,-160.768 1225.18,-137.533"/>
<polygon fill="midnightblue" stroke="midnightblue" points="1227.29,-140.328 1233.28,-131.591 1223.15,-134.683 1227.29,-140.328"/>
</g>
<!-- Node9&#45;&gt;Node3 -->
<g id="edge9" class="edge"><title>Node9&#45;&gt;Node3</title>
<path fill="none" stroke="midnightblue" d="M1023.16,-172.718C914.632,-162.578 643.031,-137.204 535.675,-127.174"/>
<polygon fill="midnightblue" stroke="midnightblue" points="535.791,-123.67 525.509,-126.224 535.14,-130.639 535.791,-123.67"/>
</g>
<!-- Node10&#45;&gt;Node11 -->
<g id="edge11" class="edge"><title>Node10&#45;&gt;Node11</title>
<path fill="none" stroke="midnightblue" d="M1252.27,-112.083C1258.54,-104.377 1267.79,-93.0333 1275.43,-83.6531"/>
<polygon fill="midnightblue" stroke="midnightblue" points="1278.27,-85.7143 1281.87,-75.7511 1272.84,-81.2926 1278.27,-85.7143"/>
</g>
<!-- Node12&#45;&gt;Node3 -->
<g id="edge17" class="edge"><title>Node12&#45;&gt;Node3</title>
<path fill="none" stroke="midnightblue" d="M299.127,-168.444C339,-159 403.218,-143.79 446.247,-133.599"/>
<polygon fill="midnightblue" stroke="midnightblue" points="447.239,-136.961 456.163,-131.251 445.626,-130.15 447.239,-136.961"/>
</g>
<!-- Node12&#45;&gt;Node13 -->
<g id="edge13" class="edge"><title>Node12&#45;&gt;Node13</title>
<path fill="none" stroke="midnightblue" d="M278.424,-168.324C293.54,-159.822 316.815,-146.729 334.471,-136.797"/>
<polygon fill="midnightblue" stroke="midnightblue" points="336.614,-139.608 343.614,-131.655 333.183,-133.507 336.614,-139.608"/>
</g>
<!-- Node13&#45;&gt;Node5 -->
<g id="edge16" class="edge"><title>Node13&#45;&gt;Node5</title>
<path fill="none" stroke="midnightblue" d="M354.393,-112.273C348.303,-99.492 339.203,-75.1275 347,-56 351.8,-44.2251 361.329,-33.8564 370.295,-26.0486"/>
<polygon fill="midnightblue" stroke="midnightblue" points="372.65,-28.6448 378.219,-19.6314 368.245,-23.2048 372.65,-28.6448"/>
</g>
<!-- Node14 -->
<g id="node14" class="node"><title>Node14</title>
<g id="a_node14"><a xlink:href="dji__error_8hpp.html" target="_top" xlink:title="All DJI OSDK OpenProtocol ACK Error Codes. ">
<polygon fill="white" stroke="black" points="356,-56.5 356,-75.5 426,-75.5 426,-56.5 356,-56.5"/>
<text text-anchor="middle" x="391" y="-63.5" font-family="Helvetica,sans-Serif" font-size="10.00">dji_error.hpp</text>
</a>
</g>
</g>
<!-- Node13&#45;&gt;Node14 -->
<g id="edge14" class="edge"><title>Node13&#45;&gt;Node14</title>
<path fill="none" stroke="midnightblue" d="M364.284,-112.083C368.711,-104.613 375.163,-93.7244 380.618,-84.5199"/>
<polygon fill="midnightblue" stroke="midnightblue" points="383.727,-86.1383 385.814,-75.7511 377.705,-82.5697 383.727,-86.1383"/>
</g>
<!-- Node14&#45;&gt;Node5 -->
<g id="edge15" class="edge"><title>Node14&#45;&gt;Node5</title>
<path fill="none" stroke="midnightblue" d="M391,-56.083C391,-49.0059 391,-38.8611 391,-29.9865"/>
<polygon fill="midnightblue" stroke="midnightblue" points="394.5,-29.751 391,-19.7511 387.5,-29.7511 394.5,-29.751"/>
</g>
<!-- Node16&#45;&gt;Node3 -->
<g id="edge31" class="edge"><title>Node16&#45;&gt;Node3</title>
<path fill="none" stroke="midnightblue" d="M587.605,-281.63C539.931,-270.532 462.755,-244.486 428,-188 415.406,-167.531 440.341,-148.321 462.462,-136.171"/>
<polygon fill="midnightblue" stroke="midnightblue" points="464.074,-139.278 471.339,-131.566 460.85,-133.064 464.074,-139.278"/>
</g>
<!-- Node16&#45;&gt;Node10 -->
<g id="edge32" class="edge"><title>Node16&#45;&gt;Node10</title>
<path fill="none" stroke="midnightblue" d="M663.972,-280.481C696.339,-272.411 744.971,-259.275 786,-244 805.753,-236.646 809.291,-231.47 829,-224 881.466,-204.116 896.333,-204.368 950,-188 978.505,-179.306 985.108,-175.305 1014,-168 1070.46,-153.725 1135.66,-141.395 1182.37,-133.27"/>
<polygon fill="midnightblue" stroke="midnightblue" points="1183.08,-136.699 1192.34,-131.551 1181.89,-129.801 1183.08,-136.699"/>
</g>
<!-- Node16&#45;&gt;Node11 -->
<g id="edge30" class="edge"><title>Node16&#45;&gt;Node11</title>
<path fill="none" stroke="midnightblue" d="M639.774,-280.488C669.31,-259.399 749.389,-203.847 822,-168 885.435,-136.682 902.455,-129.505 971,-112 1056.77,-90.0962 1158.45,-78.0534 1223.33,-72.0648"/>
<polygon fill="midnightblue" stroke="midnightblue" points="1223.78,-75.5392 1233.42,-71.1551 1223.15,-68.5675 1223.78,-75.5392"/>
</g>
<!-- Node17 -->
<g id="node17" class="node"><title>Node17</title>
<g id="a_node17"><a xlink:href="dji__ack_8hpp.html" target="_top" xlink:title="All DJI OSDK ACK parsing. ">
<polygon fill="white" stroke="black" points="563,-224.5 563,-243.5 629,-243.5 629,-224.5 563,-224.5"/>
<text text-anchor="middle" x="596" y="-231.5" font-family="Helvetica,sans-Serif" font-size="10.00">dji_ack.hpp</text>
</a>
</g>
</g>
<!-- Node16&#45;&gt;Node17 -->
<g id="edge21" class="edge"><title>Node16&#45;&gt;Node17</title>
<path fill="none" stroke="midnightblue" d="M622.716,-280.083C618.289,-272.613 611.837,-261.724 606.382,-252.52"/>
<polygon fill="midnightblue" stroke="midnightblue" points="609.295,-250.57 601.186,-243.751 603.273,-254.138 609.295,-250.57"/>
</g>
<!-- Node17&#45;&gt;Node3 -->
<g id="edge25" class="edge"><title>Node17&#45;&gt;Node3</title>
<path fill="none" stroke="midnightblue" d="M591.733,-224.28C584.989,-211.079 570.883,-185.689 554,-168 542.5,-155.951 527.371,-145.023 514.821,-136.953"/>
<polygon fill="midnightblue" stroke="midnightblue" points="516.568,-133.918 506.228,-131.608 512.87,-139.862 516.568,-133.918"/>
</g>
<!-- Node17&#45;&gt;Node13 -->
<g id="edge22" class="edge"><title>Node17&#45;&gt;Node13</title>
<path fill="none" stroke="midnightblue" d="M562.938,-229.037C527.688,-223.73 471.119,-212.042 428,-188 405.651,-175.539 384.996,-154.237 372.222,-139.43"/>
<polygon fill="midnightblue" stroke="midnightblue" points="374.758,-137.006 365.659,-131.578 369.387,-141.495 374.758,-137.006"/>
</g>
<!-- Node18 -->
<g id="node18" class="node"><title>Node18</title>
<g id="a_node18"><a xlink:href="dji__mission__type_8hpp.html" target="_top" xlink:title="Mission related data struct for DJI OSDK library. ">
<polygon fill="white" stroke="black" points="437,-168.5 437,-187.5 545,-187.5 545,-168.5 437,-168.5"/>
<text text-anchor="middle" x="491" y="-175.5" font-family="Helvetica,sans-Serif" font-size="10.00">dji_mission_type.hpp</text>
</a>
</g>
</g>
<!-- Node17&#45;&gt;Node18 -->
<g id="edge23" class="edge"><title>Node17&#45;&gt;Node18</title>
<path fill="none" stroke="midnightblue" d="M579.13,-224.324C562.291,-215.664 536.193,-202.242 516.762,-192.249"/>
<polygon fill="midnightblue" stroke="midnightblue" points="518.322,-189.116 507.828,-187.655 515.12,-195.341 518.322,-189.116"/>
</g>
<!-- Node17&#45;&gt;Node19 -->
<g id="edge26" class="edge"><title>Node17&#45;&gt;Node19</title>
<path fill="none" stroke="midnightblue" d="M612.067,-224.324C627.958,-215.743 652.507,-202.486 670.958,-192.522"/>
<polygon fill="midnightblue" stroke="midnightblue" points="672.837,-195.486 679.973,-187.655 669.511,-189.326 672.837,-195.486"/>
</g>
<!-- Node20 -->
<g id="node20" class="node"><title>Node20</title>
<polygon fill="white" stroke="#bfbfbf" points="601.5,-168.5 601.5,-187.5 636.5,-187.5 636.5,-168.5 601.5,-168.5"/>
<text text-anchor="middle" x="619" y="-175.5" font-family="Helvetica,sans-Serif" font-size="10.00">map</text>
</g>
<!-- Node17&#45;&gt;Node20 -->
<g id="edge29" class="edge"><title>Node17&#45;&gt;Node20</title>
<path fill="none" stroke="midnightblue" d="M599.798,-224.083C602.913,-216.77 607.423,-206.181 611.289,-197.103"/>
<polygon fill="midnightblue" stroke="midnightblue" points="614.574,-198.323 615.273,-187.751 608.134,-195.58 614.574,-198.323"/>
</g>
<!-- Node18&#45;&gt;Node3 -->
<g id="edge24" class="edge"><title>Node18&#45;&gt;Node3</title>
<path fill="none" stroke="midnightblue" d="M491,-168.083C491,-161.006 491,-150.861 491,-141.986"/>
<polygon fill="midnightblue" stroke="midnightblue" points="494.5,-141.751 491,-131.751 487.5,-141.751 494.5,-141.751"/>
</g>
<!-- Node19&#45;&gt;Node7 -->
<g id="edge28" class="edge"><title>Node19&#45;&gt;Node7</title>
<path fill="none" stroke="midnightblue" d="M737.085,-169.773C798.483,-158.974 912.998,-138.831 969.586,-128.877"/>
<polygon fill="midnightblue" stroke="midnightblue" points="970.533,-132.265 979.776,-127.085 969.32,-125.37 970.533,-132.265"/>
</g>
<!-- Node19&#45;&gt;Node13 -->
<g id="edge27" class="edge"><title>Node19&#45;&gt;Node13</title>
<path fill="none" stroke="midnightblue" d="M654.815,-169.664C651.496,-169.094 648.193,-168.533 645,-168 565.491,-154.731 473.361,-140.427 415.626,-131.592"/>
<polygon fill="midnightblue" stroke="midnightblue" points="416.022,-128.112 405.608,-130.061 414.965,-135.032 416.022,-128.112"/>
</g>
<!-- Node21&#45;&gt;Node3 -->
<g id="edge35" class="edge"><title>Node21&#45;&gt;Node3</title>
<path fill="none" stroke="midnightblue" d="M203.538,-169.504C206.4,-168.987 209.244,-168.481 212,-168 294.415,-153.63 390.817,-138.439 446.012,-129.896"/>
<polygon fill="midnightblue" stroke="midnightblue" points="446.807,-133.314 456.156,-128.329 445.739,-126.396 446.807,-133.314"/>
</g>
<!-- Node21&#45;&gt;Node13 -->
<g id="edge34" class="edge"><title>Node21&#45;&gt;Node13</title>
<path fill="none" stroke="midnightblue" d="M194.898,-168.444C228.274,-159.201 281.594,-144.436 318.349,-134.257"/>
<polygon fill="midnightblue" stroke="midnightblue" points="319.543,-137.558 328.246,-131.516 317.675,-130.812 319.543,-137.558"/>
</g>
<!-- Node23&#45;&gt;Node10 -->
<g id="edge39" class="edge"><title>Node23&#45;&gt;Node10</title>
<path fill="none" stroke="midnightblue" d="M1557.05,-224.139C1550.15,-209.776 1534.47,-181.647 1512,-168 1479.95,-148.529 1384.13,-135.848 1316.48,-129.057"/>
<polygon fill="midnightblue" stroke="midnightblue" points="1316.59,-125.552 1306.3,-128.058 1315.91,-132.518 1316.59,-125.552"/>
</g>
<!-- Node25 -->
<g id="node25" class="node"><title>Node25</title>
<g id="a_node25"><a xlink:href="dji__hotpoint_8hpp.html" target="_top" xlink:title="Implementation of HotPoint (Point of Interest) Missions for DJI OSDK. ">
<polygon fill="white" stroke="black" points="945.5,-224.5 945.5,-243.5 1030.5,-243.5 1030.5,-224.5 945.5,-224.5"/>
<text text-anchor="middle" x="988" y="-231.5" font-family="Helvetica,sans-Serif" font-size="10.00">dji_hotpoint.hpp</text>
</a>
</g>
</g>
<!-- Node24&#45;&gt;Node25 -->
<g id="edge41" class="edge"><title>Node24&#45;&gt;Node25</title>
<path fill="none" stroke="midnightblue" d="M819.691,-280.444C854.068,-271.162 909.077,-256.309 946.789,-246.127"/>
<polygon fill="midnightblue" stroke="midnightblue" points="947.716,-249.502 956.458,-243.516 945.891,-242.744 947.716,-249.502"/>
</g>
<!-- Node27 -->
<g id="node27" class="node"><title>Node27</title>
<g id="a_node27"><a xlink:href="dji__waypoint_8hpp.html" target="_top" xlink:title="Implementation of GPS Waypoint Missions for DJI OSDK. ">
<polygon fill="white" stroke="black" points="838.5,-224.5 838.5,-243.5 927.5,-243.5 927.5,-224.5 838.5,-224.5"/>
<text text-anchor="middle" x="883" y="-231.5" font-family="Helvetica,sans-Serif" font-size="10.00">dji_waypoint.hpp</text>
</a>
</g>
</g>
<!-- Node24&#45;&gt;Node27 -->
<g id="edge47" class="edge"><title>Node24&#45;&gt;Node27</title>
<path fill="none" stroke="midnightblue" d="M803.263,-280.324C818.221,-271.822 841.255,-258.729 858.727,-248.797"/>
<polygon fill="midnightblue" stroke="midnightblue" points="860.81,-251.639 867.774,-243.655 857.351,-245.553 860.81,-251.639"/>
</g>
<!-- Node25&#45;&gt;Node9 -->
<g id="edge46" class="edge"><title>Node25&#45;&gt;Node9</title>
<path fill="none" stroke="midnightblue" d="M1001.01,-224.324C1013.53,-215.979 1032.68,-203.212 1047.47,-193.352"/>
<polygon fill="midnightblue" stroke="midnightblue" points="1049.64,-196.114 1056.02,-187.655 1045.76,-190.289 1049.64,-196.114"/>
</g>
<!-- Node26 -->
<g id="node26" class="node"><title>Node26</title>
<g id="a_node26"><a xlink:href="dji__mission__base_8hpp.html" target="_top" xlink:title="Mission&#45;Base abstract class for DJI OSDK library. ">
<polygon fill="white" stroke="black" points="831,-168.5 831,-187.5 941,-187.5 941,-168.5 831,-168.5"/>
<text text-anchor="middle" x="886" y="-175.5" font-family="Helvetica,sans-Serif" font-size="10.00">dji_mission_base.hpp</text>
</a>
</g>
</g>
<!-- Node25&#45;&gt;Node26 -->
<g id="edge42" class="edge"><title>Node25&#45;&gt;Node26</title>
<path fill="none" stroke="midnightblue" d="M971.612,-224.324C955.329,-215.703 930.133,-202.364 911.284,-192.386"/>
<polygon fill="midnightblue" stroke="midnightblue" points="912.823,-189.24 902.347,-187.655 909.548,-195.427 912.823,-189.24"/>
</g>
<!-- Node26&#45;&gt;Node3 -->
<g id="edge44" class="edge"><title>Node26&#45;&gt;Node3</title>
<path fill="none" stroke="midnightblue" d="M830.661,-169.435C751.736,-158.645 608.379,-139.047 535.747,-129.117"/>
<polygon fill="midnightblue" stroke="midnightblue" points="535.942,-125.612 525.56,-127.725 534.994,-132.547 535.942,-125.612"/>
</g>
<!-- Node26&#45;&gt;Node10 -->
<g id="edge45" class="edge"><title>Node26&#45;&gt;Node10</title>
<path fill="none" stroke="midnightblue" d="M941.307,-168.681C1005.1,-159.085 1109.95,-143.315 1178.23,-133.044"/>
<polygon fill="midnightblue" stroke="midnightblue" points="1179.08,-136.455 1188.44,-131.507 1178.04,-129.533 1179.08,-136.455"/>
</g>
<!-- Node26&#45;&gt;Node13 -->
<g id="edge43" class="edge"><title>Node26&#45;&gt;Node13</title>
<path fill="none" stroke="midnightblue" d="M830.598,-171.323C729.806,-160.995 517.483,-139.239 415.724,-128.812"/>
<polygon fill="midnightblue" stroke="midnightblue" points="415.945,-125.317 405.64,-127.779 415.231,-132.28 415.945,-125.317"/>
</g>
<!-- Node27&#45;&gt;Node26 -->
<g id="edge48" class="edge"><title>Node27&#45;&gt;Node26</title>
<path fill="none" stroke="midnightblue" d="M883.495,-224.083C883.889,-217.006 884.452,-206.861 884.945,-197.986"/>
<polygon fill="midnightblue" stroke="midnightblue" points="888.454,-197.93 885.514,-187.751 881.464,-197.542 888.454,-197.93"/>
</g>
<!-- Node28&#45;&gt;Node10 -->
<g id="edge50" class="edge"><title>Node28&#45;&gt;Node10</title>
<path fill="none" stroke="midnightblue" d="M1383.23,-224.368C1357.6,-205.573 1296.5,-160.768 1264.82,-137.533"/>
<polygon fill="midnightblue" stroke="midnightblue" points="1266.85,-134.683 1256.72,-131.591 1262.71,-140.328 1266.85,-134.683"/>
</g>
<!-- Node30&#45;&gt;Node9 -->
<g id="edge55" class="edge"><title>Node30&#45;&gt;Node9</title>
<path fill="none" stroke="midnightblue" d="M1221.32,-224.444C1190.47,-215.241 1141.27,-200.562 1107.17,-190.388"/>
<polygon fill="midnightblue" stroke="midnightblue" points="1108.13,-187.021 1097.55,-187.516 1106.13,-193.729 1108.13,-187.021"/>
</g>
<!-- Node30&#45;&gt;Node10 -->
<g id="edge56" class="edge"><title>Node30&#45;&gt;Node10</title>
<path fill="none" stroke="midnightblue" d="M1249.61,-224.368C1248.8,-206.617 1246.94,-165.666 1245.85,-141.597"/>
<polygon fill="midnightblue" stroke="midnightblue" points="1249.34,-141.422 1245.39,-131.591 1242.35,-141.74 1249.34,-141.422"/>
</g>
<!-- Node30&#45;&gt;Node11 -->
<g id="edge54" class="edge"><title>Node30&#45;&gt;Node11</title>
<path fill="none" stroke="midnightblue" d="M1258.04,-224.421C1272.79,-208.018 1303.71,-170.411 1315,-132 1319.91,-115.298 1311.19,-96.9376 1302.55,-84.0031"/>
<polygon fill="midnightblue" stroke="midnightblue" points="1305.18,-81.6738 1296.47,-75.645 1299.52,-85.791 1305.18,-81.6738"/>
</g>
</g>
</svg>
        <g id="navigator" transform="translate(0 0)" fill="#404254">
                <rect fill="#f2f5e9" fill-opacity="0.5" stroke="#606060" stroke-width=".5" x="0" y="0" width="60" height="60"/>
                <use id="zoomplus" xlink:href="#zoomPlus" x="17" y="9" onmousedown="handleZoom(evt,'in')"/>
                <use id="zoomminus" xlink:href="#zoomMin" x="42" y="9" onmousedown="handleZoom(evt,'out')"/>
                <use id="reset" xlink:href="#resetDef" x="30" y="36" onmousedown="handleReset()"/>
                <g id="arrowUp" xlink:href="#dirArrow" transform="translate(30 24)" onmousedown="handlePan(0,-1)">
                  <use xlink:href="#rim" fill="#404040">
                        <set attributeName="fill" to="#808080" begin="arrowUp.mouseover" end="arrowUp.mouseout"/>
                  </use>
                  <path fill="none" stroke="white" stroke-width="1.5" d="M0,-3.0v7 M-2.5,-0.5L0,-3.0L2.5,-0.5"/>
                </g>
                <g id="arrowRight" xlink:href="#dirArrow" transform="rotate(90) translate(36 -43)" onmousedown="handlePan(1,0)">
                  <use xlink:href="#rim" fill="#404040">
                        <set attributeName="fill" to="#808080" begin="arrowRight.mouseover" end="arrowRight.mouseout"/>
                  </use>
                  <path fill="none" stroke="white" stroke-width="1.5" d="M0,-3.0v7 M-2.5,-0.5L0,-3.0L2.5,-0.5"/>
                </g>
                <g id="arrowDown" xlink:href="#dirArrow" transform="rotate(180) translate(-30 -48)" onmousedown="handlePan(0,1)">
                  <use xlink:href="#rim" fill="#404040">
                        <set attributeName="fill" to="#808080" begin="arrowDown.mouseover" end="arrowDown.mouseout"/>
                  </use>
                  <path fill="none" stroke="white" stroke-width="1.5" d="M0,-3.0v7 M-2.5,-0.5L0,-3.0L2.5,-0.5"/>
                </g>
                <g id="arrowLeft" xlink:href="#dirArrow" transform="rotate(270) translate(-36 17)" onmousedown="handlePan(-1,0)">
                  <use xlink:href="#rim" fill="#404040">
                        <set attributeName="fill" to="#808080" begin="arrowLeft.mouseover" end="arrowLeft.mouseout"/>
                  </use>
                  <path fill="none" stroke="white" stroke-width="1.5" d="M0,-3.0v7 M-2.5,-0.5L0,-3.0L2.5,-0.5"/>
                </g>
        </g>
        <svg viewBox="0 0 15 15" width="100%" height="30px" preserveAspectRatio="xMaxYMin meet">
         <g id="arrow_out" transform="scale(0.3 0.3)">
          <a xlink:href="dji__hardware__sync_8cpp__incl_org.svg" target="_base">
           <rect id="button" ry="5" rx="5" y="6" x="6" height="38" width="38"
                fill="#f2f5e9" fill-opacity="0.5" stroke="#606060" stroke-width="1.0"/>
           <path id="arrow"
             d="M 11.500037,31.436501 C 11.940474,20.09759 22.043105,11.32322 32.158766,21.979434 L 37.068811,17.246167 C 37.068811,17.246167 37.088388,32 37.088388,32 L 22.160133,31.978069 C 22.160133,31.978069 26.997745,27.140456 26.997745,27.140456 C 18.528582,18.264221 13.291696,25.230495 11.500037,31.436501 z"
             style="fill:#404040;"/>
          </a>
         </g>
        </svg>
</svg>
