<?xml version="1.0" encoding="UTF-8" standalone="no"?>
<!DOCTYPE svg PUBLIC "-//W3C//DTD SVG 1.1//EN"
 "http://www.w3.org/Graphics/SVG/1.1/DTD/svg11.dtd">
<!-- Generated by graphviz version 2.40.1 (20161225.0304)
 -->
<!-- Title: osdk&#45;core/api/inc/dji_control.hpp Pages: 1 -->
<svg width="615pt" height="319pt"
 viewBox="0.00 0.00 615.00 319.00" xmlns="http://www.w3.org/2000/svg" xmlns:xlink="http://www.w3.org/1999/xlink">
<g id="graph0" class="graph" transform="scale(1 1) rotate(0) translate(4 315)">
<title>osdk&#45;core/api/inc/dji_control.hpp</title>
<polygon fill="#ffffff" stroke="transparent" points="-4,4 -4,-315 611,-315 611,4 -4,4"/>
<!-- Node0 -->
<g id="node1" class="node">
<title>Node0</title>
<g id="a_node1"><a xlink:title="Control API for DJI OSDK library.">
<polygon fill="#bfbfbf" stroke="#000000" points="386,-280.5 386,-310.5 490,-310.5 490,-280.5 386,-280.5"/>
<text text-anchor="start" x="394" y="-298.5" font-family="Helvetica,sans-Serif" font-size="10.00" fill="#000000">osdk&#45;core/api/inc/dji</text>
<text text-anchor="middle" x="438" y="-287.5" font-family="Helvetica,sans-Serif" font-size="10.00" fill="#000000">_control.hpp</text>
</a>
</g>
</g>
<!-- Node1 -->
<g id="node2" class="node">
<title>Node1</title>
<g id="a_node2"><a xlink:href="dji__ack_8hpp.html" target="_top" xlink:title="All DJI OSDK ACK parsing.">
<polygon fill="#ffffff" stroke="#000000" points="225,-224.5 225,-243.5 291,-243.5 291,-224.5 225,-224.5"/>
<text text-anchor="middle" x="258" y="-231.5" font-family="Helvetica,sans-Serif" font-size="10.00" fill="#000000">dji_ack.hpp</text>
</a>
</g>
</g>
<!-- Node0&#45;&gt;Node1 -->
<g id="edge1" class="edge">
<title>Node0&#45;&gt;Node1</title>
<path fill="none" stroke="#191970" d="M393.967,-280.4554C363.8019,-270.149 324.2192,-256.6249 295.547,-246.8286"/>
<polygon fill="#191970" stroke="#191970" points="296.4882,-243.4515 285.8936,-243.5303 294.2249,-250.0756 296.4882,-243.4515"/>
</g>
<!-- Node9 -->
<g id="node10" class="node">
<title>Node9</title>
<g id="a_node10"><a xlink:href="dji__type_8hpp.html" target="_top" xlink:title="Data type and Data Structure definitions for use throughout DJI OSDK.">
<polygon fill="#ffffff" stroke="#000000" points="305.5,-112.5 305.5,-131.5 374.5,-131.5 374.5,-112.5 305.5,-112.5"/>
<text text-anchor="middle" x="340" y="-119.5" font-family="Helvetica,sans-Serif" font-size="10.00" fill="#000000">dji_type.hpp</text>
</a>
</g>
</g>
<!-- Node0&#45;&gt;Node9 -->
<g id="edge18" class="edge">
<title>Node0&#45;&gt;Node9</title>
<path fill="none" stroke="#191970" d="M432.5066,-280.2939C423.2826,-255.6791 403.2855,-206.0296 379,-168 372.4914,-157.808 363.9171,-147.4491 356.466,-139.1486"/>
<polygon fill="#191970" stroke="#191970" points="358.8641,-136.5866 349.5073,-131.6165 353.7225,-141.3368 358.8641,-136.5866"/>
</g>
<!-- Node12 -->
<g id="node13" class="node">
<title>Node12</title>
<g id="a_node13"><a xlink:title=" ">
<polygon fill="#ffffff" stroke="#bfbfbf" points="469.5,-168.5 469.5,-187.5 580.5,-187.5 580.5,-168.5 469.5,-168.5"/>
<text text-anchor="middle" x="525" y="-175.5" font-family="Helvetica,sans-Serif" font-size="10.00" fill="#000000">dji_open_protocol.hpp</text>
</a>
</g>
</g>
<!-- Node0&#45;&gt;Node12 -->
<g id="edge17" class="edge">
<title>Node0&#45;&gt;Node12</title>
<path fill="none" stroke="#191970" d="M444.2603,-280.4151C450.9107,-265.3308 462.3393,-241.8681 476,-224 484.3314,-213.1026 495.3444,-202.513 504.8191,-194.2467"/>
<polygon fill="#191970" stroke="#191970" points="507.2669,-196.7604 512.6432,-187.631 502.7472,-191.4151 507.2669,-196.7604"/>
</g>
<!-- Node13 -->
<g id="node14" class="node">
<title>Node13</title>
<g id="a_node14"><a xlink:href="dji__vehicle__callback_8hpp.html" target="_top" xlink:title="Type definition for new Vehicle&#45;style callbacks.">
<polygon fill="#ffffff" stroke="#000000" points="485,-224.5 485,-243.5 607,-243.5 607,-224.5 485,-224.5"/>
<text text-anchor="middle" x="546" y="-231.5" font-family="Helvetica,sans-Serif" font-size="10.00" fill="#000000">dji_vehicle_callback.hpp</text>
</a>
</g>
</g>
<!-- Node0&#45;&gt;Node13 -->
<g id="edge19" class="edge">
<title>Node0&#45;&gt;Node13</title>
<path fill="none" stroke="#191970" d="M464.4198,-280.4554C481.4914,-270.734 503.5902,-258.15 520.4809,-248.5317"/>
<polygon fill="#191970" stroke="#191970" points="522.3059,-251.5202 529.2638,-243.5303 518.842,-245.4373 522.3059,-251.5202"/>
</g>
<!-- Node2 -->
<g id="node3" class="node">
<title>Node2</title>
<g id="a_node3"><a xlink:href="dji__command_8hpp.html" target="_top" xlink:title="All DJI OSDK OpenProtocol Command IDs.">
<polygon fill="#ffffff" stroke="#000000" points="79.5,-112.5 79.5,-131.5 172.5,-131.5 172.5,-112.5 79.5,-112.5"/>
<text text-anchor="middle" x="126" y="-119.5" font-family="Helvetica,sans-Serif" font-size="10.00" fill="#000000">dji_command.hpp</text>
</a>
</g>
</g>
<!-- Node1&#45;&gt;Node2 -->
<g id="edge2" class="edge">
<title>Node1&#45;&gt;Node2</title>
<path fill="none" stroke="#191970" d="M246.1636,-224.1706C235.0018,-214.8849 217.8202,-200.5482 203,-188 183.1592,-171.2008 160.5899,-151.8238 145.0401,-138.4314"/>
<polygon fill="#191970" stroke="#191970" points="147.0452,-135.539 137.1855,-131.6613 142.475,-140.8412 147.0452,-135.539"/>
</g>
<!-- Node6 -->
<g id="node7" class="node">
<title>Node6</title>
<g id="a_node7"><a xlink:title=" ">
<polygon fill="#ffffff" stroke="#bfbfbf" points="182.5,-.5 182.5,-19.5 217.5,-19.5 217.5,-.5 182.5,-.5"/>
<text text-anchor="middle" x="200" y="-7.5" font-family="Helvetica,sans-Serif" font-size="10.00" fill="#000000">map</text>
</a>
</g>
</g>
<!-- Node1&#45;&gt;Node6 -->
<g id="edge16" class="edge">
<title>Node1&#45;&gt;Node6</title>
<path fill="none" stroke="#191970" d="M252.5574,-224.4216C247.5922,-215.3131 240.3812,-201.0964 236,-188 217.3892,-132.3678 206.8144,-63.5752 202.4254,-30.1399"/>
<polygon fill="#191970" stroke="#191970" points="205.8536,-29.3501 201.128,-19.8675 198.9088,-30.2273 205.8536,-29.3501"/>
</g>
<!-- Node8 -->
<g id="node9" class="node">
<title>Node8</title>
<g id="a_node9"><a xlink:href="dji__mission__type_8hpp.html" target="_top" xlink:title="Mission related data struct for DJI OSDK library.">
<polygon fill="#ffffff" stroke="#000000" points="245,-168.5 245,-187.5 353,-187.5 353,-168.5 245,-168.5"/>
<text text-anchor="middle" x="299" y="-175.5" font-family="Helvetica,sans-Serif" font-size="10.00" fill="#000000">dji_mission_type.hpp</text>
</a>
</g>
</g>
<!-- Node1&#45;&gt;Node8 -->
<g id="edge8" class="edge">
<title>Node1&#45;&gt;Node8</title>
<path fill="none" stroke="#191970" d="M265.1417,-224.2455C270.8444,-216.4564 278.99,-205.3308 285.8625,-195.9439"/>
<polygon fill="#191970" stroke="#191970" points="288.8568,-197.7789 291.9402,-187.6427 283.2087,-193.6437 288.8568,-197.7789"/>
</g>
<!-- Node1&#45;&gt;Node9 -->
<g id="edge12" class="edge">
<title>Node1&#45;&gt;Node9</title>
<path fill="none" stroke="#191970" d="M291.3929,-228.9704C315.5199,-223.4009 346.487,-211.8243 362,-188 371.6233,-173.221 363.1117,-153.8295 354.0218,-139.8953"/>
<polygon fill="#191970" stroke="#191970" points="356.7946,-137.755 348.1497,-131.6299 351.0881,-141.8092 356.7946,-137.755"/>
</g>
<!-- Node11 -->
<g id="node12" class="node">
<title>Node11</title>
<g id="a_node12"><a xlink:href="dji__version_8hpp.html" target="_top" xlink:title="Drone/SDK Version definition for DJI onboardSDK library.">
<polygon fill="#ffffff" stroke="#000000" points="69,-168.5 69,-187.5 151,-187.5 151,-168.5 69,-168.5"/>
<text text-anchor="middle" x="110" y="-175.5" font-family="Helvetica,sans-Serif" font-size="10.00" fill="#000000">dji_version.hpp</text>
</a>
</g>
</g>
<!-- Node1&#45;&gt;Node11 -->
<g id="edge13" class="edge">
<title>Node1&#45;&gt;Node11</title>
<path fill="none" stroke="#191970" d="M232.5579,-224.3733C208.2674,-215.1822 171.4792,-201.2624 144.5457,-191.0713"/>
<polygon fill="#191970" stroke="#191970" points="145.7016,-187.7666 135.1101,-187.5011 143.2243,-194.3136 145.7016,-187.7666"/>
</g>
<!-- Node3 -->
<g id="node4" class="node">
<title>Node3</title>
<g id="a_node4"><a xlink:href="dji__error_8hpp.html" target="_top" xlink:title="All DJI OSDK OpenProtocol ACK Error Codes.">
<polygon fill="#ffffff" stroke="#000000" points="51,-56.5 51,-75.5 121,-75.5 121,-56.5 51,-56.5"/>
<text text-anchor="middle" x="86" y="-63.5" font-family="Helvetica,sans-Serif" font-size="10.00" fill="#000000">dji_error.hpp</text>
</a>
</g>
</g>
<!-- Node2&#45;&gt;Node3 -->
<g id="edge3" class="edge">
<title>Node2&#45;&gt;Node3</title>
<path fill="none" stroke="#191970" d="M119.0325,-112.2455C113.4689,-104.4564 105.522,-93.3308 98.8171,-83.9439"/>
<polygon fill="#191970" stroke="#191970" points="101.5481,-81.7457 92.8876,-75.6427 95.852,-85.8144 101.5481,-81.7457"/>
</g>
<!-- Node7 -->
<g id="node8" class="node">
<title>Node7</title>
<g id="a_node8"><a xlink:title=" ">
<polygon fill="#ffffff" stroke="#bfbfbf" points="139.5,-56.5 139.5,-75.5 188.5,-75.5 188.5,-56.5 139.5,-56.5"/>
<text text-anchor="middle" x="164" y="-63.5" font-family="Helvetica,sans-Serif" font-size="10.00" fill="#000000">stdint.h</text>
</a>
</g>
</g>
<!-- Node2&#45;&gt;Node7 -->
<g id="edge7" class="edge">
<title>Node2&#45;&gt;Node7</title>
<path fill="none" stroke="#191970" d="M132.6191,-112.2455C137.9046,-104.4564 145.4541,-93.3308 151.8238,-83.9439"/>
<polygon fill="#191970" stroke="#191970" points="154.7379,-85.8827 157.4568,-75.6427 148.9455,-81.9522 154.7379,-85.8827"/>
</g>
<!-- Node4 -->
<g id="node5" class="node">
<title>Node4</title>
<g id="a_node5"><a xlink:title=" ">
<polygon fill="#ffffff" stroke="#bfbfbf" points="0,-.5 0,-19.5 46,-19.5 46,-.5 0,-.5"/>
<text text-anchor="middle" x="23" y="-7.5" font-family="Helvetica,sans-Serif" font-size="10.00" fill="#000000">cstdint</text>
</a>
</g>
</g>
<!-- Node3&#45;&gt;Node4 -->
<g id="edge4" class="edge">
<title>Node3&#45;&gt;Node4</title>
<path fill="none" stroke="#191970" d="M75.0262,-56.2455C65.8118,-48.0549 52.4468,-36.1749 41.5703,-26.5069"/>
<polygon fill="#191970" stroke="#191970" points="43.6474,-23.6704 33.848,-19.6427 38.9968,-28.9023 43.6474,-23.6704"/>
</g>
<!-- Node5 -->
<g id="node6" class="node">
<title>Node5</title>
<g id="a_node6"><a xlink:title=" ">
<polygon fill="#ffffff" stroke="#bfbfbf" points="64.5,-.5 64.5,-19.5 147.5,-19.5 147.5,-.5 64.5,-.5"/>
<text text-anchor="middle" x="106" y="-7.5" font-family="Helvetica,sans-Serif" font-size="10.00" fill="#000000">dji_macros.hpp</text>
</a>
</g>
</g>
<!-- Node3&#45;&gt;Node5 -->
<g id="edge5" class="edge">
<title>Node3&#45;&gt;Node5</title>
<path fill="none" stroke="#191970" d="M89.4837,-56.2455C92.1508,-48.7776 95.9133,-38.2427 99.1737,-29.1137"/>
<polygon fill="#191970" stroke="#191970" points="102.4889,-30.2373 102.5562,-19.6427 95.8967,-27.8829 102.4889,-30.2373"/>
</g>
<!-- Node3&#45;&gt;Node6 -->
<g id="edge6" class="edge">
<title>Node3&#45;&gt;Node6</title>
<path fill="none" stroke="#191970" d="M105.5973,-56.3733C124.1728,-47.2485 152.2367,-33.4627 172.941,-23.2922"/>
<polygon fill="#191970" stroke="#191970" points="174.7248,-26.3154 182.1572,-18.7649 171.6384,-20.0326 174.7248,-26.3154"/>
</g>
<!-- Node8&#45;&gt;Node9 -->
<g id="edge9" class="edge">
<title>Node8&#45;&gt;Node9</title>
<path fill="none" stroke="#191970" d="M306.1417,-168.2455C311.8444,-160.4564 319.99,-149.3308 326.8625,-139.9439"/>
<polygon fill="#191970" stroke="#191970" points="329.8568,-141.7789 332.9402,-131.6427 324.2087,-137.6437 329.8568,-141.7789"/>
</g>
<!-- Node9&#45;&gt;Node7 -->
<g id="edge11" class="edge">
<title>Node9&#45;&gt;Node7</title>
<path fill="none" stroke="#191970" d="M309.7445,-112.3733C278.8821,-102.5534 231.0542,-87.3354 198.6801,-77.0346"/>
<polygon fill="#191970" stroke="#191970" points="199.3436,-73.5729 188.7531,-73.876 197.2212,-80.2433 199.3436,-73.5729"/>
</g>
<!-- Node10 -->
<g id="node11" class="node">
<title>Node10</title>
<g id="a_node11"><a xlink:title=" ">
<polygon fill="#ffffff" stroke="#bfbfbf" points="318.5,-56.5 318.5,-75.5 361.5,-75.5 361.5,-56.5 318.5,-56.5"/>
<text text-anchor="middle" x="340" y="-63.5" font-family="Helvetica,sans-Serif" font-size="10.00" fill="#000000">cstdio</text>
</a>
</g>
</g>
<!-- Node9&#45;&gt;Node10 -->
<g id="edge10" class="edge">
<title>Node9&#45;&gt;Node10</title>
<path fill="none" stroke="#191970" d="M340,-112.2455C340,-104.9382 340,-94.6944 340,-85.7046"/>
<polygon fill="#191970" stroke="#191970" points="343.5001,-85.6426 340,-75.6427 336.5001,-85.6427 343.5001,-85.6426"/>
</g>
<!-- Node11&#45;&gt;Node2 -->
<g id="edge14" class="edge">
<title>Node11&#45;&gt;Node2</title>
<path fill="none" stroke="#191970" d="M112.787,-168.2455C114.8977,-160.8579 117.866,-150.4689 120.4547,-141.4087"/>
<polygon fill="#191970" stroke="#191970" points="123.863,-142.2195 123.245,-131.6427 117.1323,-140.2964 123.863,-142.2195"/>
</g>
<!-- Node11&#45;&gt;Node4 -->
<g id="edge15" class="edge">
<title>Node11&#45;&gt;Node4</title>
<path fill="none" stroke="#191970" d="M100.3265,-168.3626C91.6976,-159.4404 79.0635,-145.5455 70,-132 54.5254,-108.873 52.1137,-101.9236 42,-76 36.0411,-60.7262 31.0022,-42.8197 27.6139,-29.5148"/>
<polygon fill="#191970" stroke="#191970" points="30.9578,-28.4555 25.1722,-19.5799 24.1601,-30.1263 30.9578,-28.4555"/>
</g>
<!-- Node13&#45;&gt;Node12 -->
<g id="edge20" class="edge">
<title>Node13&#45;&gt;Node12</title>
<path fill="none" stroke="#191970" d="M542.3421,-224.2455C539.5416,-216.7776 535.591,-206.2427 532.1676,-197.1137"/>
<polygon fill="#191970" stroke="#191970" points="535.4045,-195.777 528.616,-187.6427 528.8501,-198.2349 535.4045,-195.777"/>
</g>
</g>
</svg>
