<?xml version="1.0" encoding="UTF-8" standalone="no"?>
<!DOCTYPE svg PUBLIC "-//W3C//DTD SVG 1.1//EN"
 "http://www.w3.org/Graphics/SVG/1.1/DTD/svg11.dtd">
<!-- Generated by graphviz version 2.38.0 (20140413.2041)
 -->
<!-- Title: osdk&#45;core/api/inc/dji_vehicle.hpp Pages: 1 -->
<!--zoomable 375 -->
<svg id="main" version="1.1" xmlns="http://www.w3.org/2000/svg" xmlns:xlink="http://www.w3.org/1999/xlink" xml:space="preserve" onload="init(evt)">
<style type="text/css"><![CDATA[
.edge:hover path { stroke: red; }
.edge:hover polygon { stroke: red; fill: red; }
]]></style>
<script type="text/javascript"><![CDATA[
var edges = document.getElementsByTagName('g');
if (edges && edges.length) {
  for (var i=0;i<edges.length;i++) {
    if (edges[i].id.substr(0,4)=='edge') {
      edges[i].setAttribute('class','edge');
    }
  }
}
]]></script>
        <defs>
                <circle id="rim" cx="0" cy="0" r="7"/>
                <circle id="rim2" cx="0" cy="0" r="3.5"/>
                <g id="zoomPlus">
                        <use xlink:href="#rim" fill="#404040">
                                <set attributeName="fill" to="#808080" begin="zoomplus.mouseover" end="zoomplus.mouseout"/>
                        </use>
                        <path d="M-4,0h8M0,-4v8" fill="none" stroke="white" stroke-width="1.5" pointer-events="none"/>
                </g>
                <g id="zoomMin">
                        <use xlink:href="#rim" fill="#404040">
                                <set attributeName="fill" to="#808080" begin="zoomminus.mouseover" end="zoomminus.mouseout"/>
                        </use>
                        <path d="M-4,0h8" fill="none" stroke="white" stroke-width="1.5" pointer-events="none"/>
                </g>
                <g id="dirArrow">
                        <path fill="none" stroke="white" stroke-width="1.5" d="M0,-3.0v7 M-2.5,-0.5L0,-3.0L2.5,-0.5"/>
                </g>
               <g id="resetDef">
                       <use xlink:href="#rim2" fill="#404040">
                               <set attributeName="fill" to="#808080" begin="reset.mouseover" end="reset.mouseout"/>
                       </use>
               </g>
        </defs>

<script type="text/javascript">
var viewWidth = 1699;
var viewHeight = 375;
var sectionId = 'dynsection-0';
</script>
<script xlink:href="svgpan.js"/>
<svg id="graph" class="graph">
<g id="viewport">
<title>osdk&#45;core/api/inc/dji_vehicle.hpp</title>
<polygon fill="white" stroke="none" points="-4,4 -4,-371 1695.11,-371 1695.11,4 -4,4"/>
<!-- Node1 -->
<g id="node1" class="node"><title>Node1</title>
<polygon fill="#bfbfbf" stroke="black" points="884,-336.5 884,-366.5 988,-366.5 988,-336.5 884,-336.5"/>
<text text-anchor="start" x="892" y="-354.5" font-family="Helvetica,sans-Serif" font-size="10.00">osdk&#45;core/api/inc/dji</text>
<text text-anchor="middle" x="936" y="-343.5" font-family="Helvetica,sans-Serif" font-size="10.00">_vehicle.hpp</text>
</g>
<!-- Node2 -->
<g id="node2" class="node"><title>Node2</title>
<polygon fill="white" stroke="#bfbfbf" points="0,-112.5 0,-131.5 46,-131.5 46,-112.5 0,-112.5"/>
<text text-anchor="middle" x="23" y="-119.5" font-family="Helvetica,sans-Serif" font-size="10.00">cstdint</text>
</g>
<!-- Node1&#45;&gt;Node2 -->
<g id="edge1" class="edge"><title>Node1&#45;&gt;Node2</title>
<path fill="none" stroke="midnightblue" d="M883.739,-349.953C709.968,-347.784 158.598,-337.948 89,-300 34.8353,-270.467 26.1714,-246.639 7,-188 1.8706,-172.311 7.3579,-154.023 13.2603,-140.849"/>
<polygon fill="midnightblue" stroke="midnightblue" points="16.5761,-142.041 17.888,-131.528 10.3063,-138.928 16.5761,-142.041"/>
</g>
<!-- Node3 -->
<g id="node3" class="node"><title>Node3</title>
<g id="a_node3"><a xlink:href="dji__broadcast_8hpp.html" target="_top" xlink:title="Broadcast Telemetry API for DJI onboardSDK library. ">
<polygon fill="white" stroke="black" points="1040.5,-224.5 1040.5,-243.5 1133.5,-243.5 1133.5,-224.5 1040.5,-224.5"/>
<text text-anchor="middle" x="1087" y="-231.5" font-family="Helvetica,sans-Serif" font-size="10.00">dji_broadcast.hpp</text>
</a>
</g>
</g>
<!-- Node1&#45;&gt;Node3 -->
<g id="edge2" class="edge"><title>Node1&#45;&gt;Node3</title>
<path fill="none" stroke="midnightblue" d="M988.38,-349.874C1026.35,-346.325 1075.35,-334.681 1101,-300 1111.05,-286.409 1105.02,-267.095 1098.02,-253.054"/>
<polygon fill="midnightblue" stroke="midnightblue" points="1100.87,-250.975 1092.97,-243.92 1094.74,-254.364 1100.87,-250.975"/>
</g>
<!-- Node5 -->
<g id="node5" class="node"><title>Node5</title>
<g id="a_node5"><a xlink:href="dji__type_8hpp.html" target="_top" xlink:title="Data type and Data Structure definitions for use throughout DJI OSDK. ">
<polygon fill="white" stroke="black" points="629.5,-112.5 629.5,-131.5 698.5,-131.5 698.5,-112.5 629.5,-112.5"/>
<text text-anchor="middle" x="664" y="-119.5" font-family="Helvetica,sans-Serif" font-size="10.00">dji_type.hpp</text>
</a>
</g>
</g>
<!-- Node1&#45;&gt;Node5 -->
<g id="edge57" class="edge"><title>Node1&#45;&gt;Node5</title>
<path fill="none" stroke="midnightblue" d="M907.767,-336.385C874.474,-318.598 819.106,-285.299 783,-244 758.011,-215.418 770.327,-195.354 744,-168 730.639,-154.118 712.054,-143.311 696.16,-135.771"/>
<polygon fill="midnightblue" stroke="midnightblue" points="697.237,-132.418 686.682,-131.5 694.361,-138.8 697.237,-132.418"/>
</g>
<!-- Node8 -->
<g id="node8" class="node"><title>Node8</title>
<g id="a_node8"><a xlink:href="dji__vehicle__callback_8hpp.html" target="_top" xlink:title="Type definition for new Vehicle&#45;style callbacks. ">
<polygon fill="white" stroke="black" points="1217,-112.5 1217,-131.5 1339,-131.5 1339,-112.5 1217,-112.5"/>
<text text-anchor="middle" x="1278" y="-119.5" font-family="Helvetica,sans-Serif" font-size="10.00">dji_vehicle_callback.hpp</text>
</a>
</g>
</g>
<!-- Node1&#45;&gt;Node8 -->
<g id="edge58" class="edge"><title>Node1&#45;&gt;Node8</title>
<path fill="none" stroke="midnightblue" d="M988.486,-343.036C1042,-334.819 1127.12,-320.063 1199,-300 1223.65,-293.119 1228.36,-286.937 1253,-280 1332.79,-257.533 1383.35,-308.021 1436,-244 1476.35,-194.937 1377.24,-153.934 1318.18,-134.721"/>
<polygon fill="midnightblue" stroke="midnightblue" points="1318.96,-131.296 1308.37,-131.608 1316.84,-137.968 1318.96,-131.296"/>
</g>
<!-- Node9 -->
<g id="node9" class="node"><title>Node9</title>
<polygon fill="white" stroke="#bfbfbf" points="1479.5,-56.5 1479.5,-75.5 1590.5,-75.5 1590.5,-56.5 1479.5,-56.5"/>
<text text-anchor="middle" x="1535" y="-63.5" font-family="Helvetica,sans-Serif" font-size="10.00">dji_open_protocol.hpp</text>
</g>
<!-- Node1&#45;&gt;Node9 -->
<g id="edge49" class="edge"><title>Node1&#45;&gt;Node9</title>
<path fill="none" stroke="midnightblue" d="M988.148,-350.309C1147.13,-349.264 1618.09,-342.569 1671,-300 1694.45,-281.133 1690,-265.098 1690,-235 1690,-235 1690,-235 1690,-177 1690,-123.048 1626.77,-93.1417 1581.08,-78.5738"/>
<polygon fill="midnightblue" stroke="midnightblue" points="1581.93,-75.1721 1571.34,-75.6114 1579.89,-81.8693 1581.93,-75.1721"/>
</g>
<!-- Node10 -->
<g id="node10" class="node"><title>Node10</title>
<g id="a_node10"><a xlink:href="dji__camera_8hpp.html" target="_top" xlink:title="Camera/Gimbal API for DJI onboardSDK library. ">
<polygon fill="white" stroke="black" points="251.5,-168.5 251.5,-187.5 334.5,-187.5 334.5,-168.5 251.5,-168.5"/>
<text text-anchor="middle" x="293" y="-175.5" font-family="Helvetica,sans-Serif" font-size="10.00">dji_camera.hpp</text>
</a>
</g>
</g>
<!-- Node1&#45;&gt;Node10 -->
<g id="edge9" class="edge"><title>Node1&#45;&gt;Node10</title>
<path fill="none" stroke="midnightblue" d="M883.977,-349.434C771.211,-346.467 507.899,-335.805 427,-300 373.694,-276.407 327.118,-223.234 305.627,-195.911"/>
<polygon fill="midnightblue" stroke="midnightblue" points="308.197,-193.511 299.327,-187.716 302.647,-197.777 308.197,-193.511"/>
</g>
<!-- Node11 -->
<g id="node11" class="node"><title>Node11</title>
<g id="a_node11"><a xlink:href="dji__command_8hpp.html" target="_top" xlink:title="All DJI OSDK OpenProtocol Command IDs. ">
<polygon fill="white" stroke="black" points="246.5,-112.5 246.5,-131.5 339.5,-131.5 339.5,-112.5 246.5,-112.5"/>
<text text-anchor="middle" x="293" y="-119.5" font-family="Helvetica,sans-Serif" font-size="10.00">dji_command.hpp</text>
</a>
</g>
</g>
<!-- Node1&#45;&gt;Node11 -->
<g id="edge16" class="edge"><title>Node1&#45;&gt;Node11</title>
<path fill="none" stroke="midnightblue" d="M883.899,-348.957C758.289,-344.776 441.713,-331.365 341,-300 245.208,-270.167 195.358,-274.777 145,-188 122.485,-149.202 185.786,-133.513 236.515,-127.201"/>
<polygon fill="midnightblue" stroke="midnightblue" points="236.929,-130.677 246.464,-126.06 236.131,-123.722 236.929,-130.677"/>
</g>
<!-- Node13 -->
<g id="node13" class="node"><title>Node13</title>
<polygon fill="white" stroke="#bfbfbf" points="690,-280.5 690,-299.5 802,-299.5 802,-280.5 690,-280.5"/>
<text text-anchor="middle" x="746" y="-287.5" font-family="Helvetica,sans-Serif" font-size="10.00">dji_circular_buffer.hpp</text>
</g>
<!-- Node1&#45;&gt;Node13 -->
<g id="edge15" class="edge"><title>Node1&#45;&gt;Node13</title>
<path fill="none" stroke="midnightblue" d="M890.973,-336.399C858.141,-326.118 814.179,-312.351 783.303,-302.682"/>
<polygon fill="midnightblue" stroke="midnightblue" points="783.958,-299.219 773.369,-299.571 781.866,-305.9 783.958,-299.219"/>
</g>
<!-- Node14 -->
<g id="node14" class="node"><title>Node14</title>
<g id="a_node14"><a xlink:href="dji__control_8hpp.html" target="_top" xlink:title="Control API for DJI OSDK library. ">
<polygon fill="white" stroke="black" points="896,-280.5 896,-299.5 976,-299.5 976,-280.5 896,-280.5"/>
<text text-anchor="middle" x="936" y="-287.5" font-family="Helvetica,sans-Serif" font-size="10.00">dji_control.hpp</text>
</a>
</g>
</g>
<!-- Node1&#45;&gt;Node14 -->
<g id="edge17" class="edge"><title>Node1&#45;&gt;Node14</title>
<path fill="none" stroke="midnightblue" d="M936,-336.399C936,-328.466 936,-318.458 936,-309.858"/>
<polygon fill="midnightblue" stroke="midnightblue" points="939.5,-309.658 936,-299.658 932.5,-309.658 939.5,-309.658"/>
</g>
<!-- Node17 -->
<g id="node17" class="node"><title>Node17</title>
<g id="a_node17"><a xlink:href="dji__version_8hpp.html" target="_top" xlink:title="Drone/SDK Version definition for DJI onboardSDK library. ">
<polygon fill="white" stroke="black" points="16,-168.5 16,-187.5 98,-187.5 98,-168.5 16,-168.5"/>
<text text-anchor="middle" x="57" y="-175.5" font-family="Helvetica,sans-Serif" font-size="10.00">dji_version.hpp</text>
</a>
</g>
</g>
<!-- Node1&#45;&gt;Node17 -->
<g id="edge59" class="edge"><title>Node1&#45;&gt;Node17</title>
<path fill="none" stroke="midnightblue" d="M883.949,-350.388C712.901,-349.6 175.427,-343.644 112,-300 77.4149,-276.202 64.2091,-225.117 59.4626,-197.549"/>
<polygon fill="midnightblue" stroke="midnightblue" points="62.917,-196.984 57.9487,-187.626 55.9971,-198.04 62.917,-196.984"/>
</g>
<!-- Node19 -->
<g id="node19" class="node"><title>Node19</title>
<g id="a_node19"><a xlink:href="dji__gimbal_8hpp.html" target="_top" xlink:title="Gimbal API for OSDK library. ">
<polygon fill="white" stroke="black" points="154.5,-168.5 154.5,-187.5 233.5,-187.5 233.5,-168.5 154.5,-168.5"/>
<text text-anchor="middle" x="194" y="-175.5" font-family="Helvetica,sans-Serif" font-size="10.00">dji_gimbal.hpp</text>
</a>
</g>
</g>
<!-- Node1&#45;&gt;Node19 -->
<g id="edge30" class="edge"><title>Node1&#45;&gt;Node19</title>
<path fill="none" stroke="midnightblue" d="M883.787,-348.709C765.581,-344.167 480.735,-330.336 390,-300 317.933,-275.905 244.864,-220.914 211.986,-194.168"/>
<polygon fill="midnightblue" stroke="midnightblue" points="214.106,-191.38 204.165,-187.717 209.652,-196.78 214.106,-191.38"/>
</g>
<!-- Node20 -->
<g id="node20" class="node"><title>Node20</title>
<polygon fill="white" stroke="#bfbfbf" points="994,-280.5 994,-299.5 1092,-299.5 1092,-280.5 994,-280.5"/>
<text text-anchor="middle" x="1043" y="-287.5" font-family="Helvetica,sans-Serif" font-size="10.00">dji_hard_driver.hpp</text>
</g>
<!-- Node1&#45;&gt;Node20 -->
<g id="edge33" class="edge"><title>Node1&#45;&gt;Node20</title>
<path fill="none" stroke="midnightblue" d="M961.358,-336.399C978.669,-326.773 1001.48,-314.09 1018.58,-304.577"/>
<polygon fill="midnightblue" stroke="midnightblue" points="1020.39,-307.577 1027.43,-299.658 1016.99,-301.459 1020.39,-307.577"/>
</g>
<!-- Node21 -->
<g id="node21" class="node"><title>Node21</title>
<g id="a_node21"><a xlink:href="dji__hardware__sync_8hpp.html" target="_top" xlink:title="Hardware Sync API for DJI OSDK. ">
<polygon fill="white" stroke="black" points="792,-224.5 792,-243.5 908,-243.5 908,-224.5 792,-224.5"/>
<text text-anchor="middle" x="850" y="-231.5" font-family="Helvetica,sans-Serif" font-size="10.00">dji_hardware_sync.hpp</text>
</a>
</g>
</g>
<!-- Node1&#45;&gt;Node21 -->
<g id="edge34" class="edge"><title>Node1&#45;&gt;Node21</title>
<path fill="none" stroke="midnightblue" d="M920.368,-336.373C910.18,-326.709 896.974,-313.287 887,-300 875.819,-285.104 865.552,-266.495 858.684,-253.009"/>
<polygon fill="midnightblue" stroke="midnightblue" points="861.716,-251.245 854.137,-243.842 855.445,-254.356 861.716,-251.245"/>
</g>
<!-- Node22 -->
<g id="node22" class="node"><title>Node22</title>
<g id="a_node22"><a xlink:href="dji__mfio_8hpp.html" target="_top" xlink:title="MFIO API for DJI OSDK library. ">
<polygon fill="white" stroke="black" points="1190.5,-224.5 1190.5,-243.5 1259.5,-243.5 1259.5,-224.5 1190.5,-224.5"/>
<text text-anchor="middle" x="1225" y="-231.5" font-family="Helvetica,sans-Serif" font-size="10.00">dji_mfio.hpp</text>
</a>
</g>
</g>
<!-- Node1&#45;&gt;Node22 -->
<g id="edge36" class="edge"><title>Node1&#45;&gt;Node22</title>
<path fill="none" stroke="midnightblue" d="M988.287,-340.017C1025.38,-331.621 1075.87,-318.227 1118,-300 1150.15,-286.093 1184.22,-263.937 1205.06,-249.429"/>
<polygon fill="midnightblue" stroke="midnightblue" points="1207.24,-252.171 1213.39,-243.542 1203.2,-246.454 1207.24,-252.171"/>
</g>
<!-- Node23 -->
<g id="node23" class="node"><title>Node23</title>
<g id="a_node23"><a xlink:href="dji__mission__manager_8hpp.html" target="_top" xlink:title="Mission&#45;Manager API for DJI OSDK library. ">
<polygon fill="white" stroke="black" points="436.5,-280.5 436.5,-299.5 563.5,-299.5 563.5,-280.5 436.5,-280.5"/>
<text text-anchor="middle" x="500" y="-287.5" font-family="Helvetica,sans-Serif" font-size="10.00">dji_mission_manager.hpp</text>
</a>
</g>
</g>
<!-- Node1&#45;&gt;Node23 -->
<g id="edge38" class="edge"><title>Node1&#45;&gt;Node23</title>
<path fill="none" stroke="midnightblue" d="M883.841,-343.382C806.33,-332.804 660.46,-312.898 572.571,-300.904"/>
<polygon fill="midnightblue" stroke="midnightblue" points="572.794,-297.402 562.412,-299.517 571.847,-304.337 572.794,-297.402"/>
</g>
<!-- Node27 -->
<g id="node27" class="node"><title>Node27</title>
<g id="a_node27"><a xlink:href="dji__mobile__communication_8hpp.html" target="_top" xlink:title="Implementation of DJI Mobile&#45;Onboard SDK Communication (MOC) ">
<polygon fill="white" stroke="black" points="1277,-224.5 1277,-243.5 1427,-243.5 1427,-224.5 1277,-224.5"/>
<text text-anchor="middle" x="1352" y="-231.5" font-family="Helvetica,sans-Serif" font-size="10.00">dji_mobile_communication.hpp</text>
</a>
</g>
</g>
<!-- Node1&#45;&gt;Node27 -->
<g id="edge47" class="edge"><title>Node1&#45;&gt;Node27</title>
<path fill="none" stroke="midnightblue" d="M988,-339.54C1031.73,-330.023 1095.78,-315.385 1151,-300 1210.44,-283.439 1278.57,-260.572 1318.29,-246.84"/>
<polygon fill="midnightblue" stroke="midnightblue" points="1319.45,-250.14 1327.75,-243.555 1317.16,-243.527 1319.45,-250.14"/>
</g>
<!-- Node28 -->
<g id="node28" class="node"><title>Node28</title>
<polygon fill="white" stroke="#bfbfbf" points="1262,-280.5 1262,-299.5 1390,-299.5 1390,-280.5 1262,-280.5"/>
<text text-anchor="middle" x="1326" y="-287.5" font-family="Helvetica,sans-Serif" font-size="10.00">dji_platform_manager.hpp</text>
</g>
<!-- Node1&#45;&gt;Node28 -->
<g id="edge50" class="edge"><title>Node1&#45;&gt;Node28</title>
<path fill="none" stroke="midnightblue" d="M988.192,-342.537C1058.41,-331.824 1183.32,-312.767 1259.99,-301.07"/>
<polygon fill="midnightblue" stroke="midnightblue" points="1260.66,-304.509 1270.02,-299.541 1259.6,-297.589 1260.66,-304.509"/>
</g>
<!-- Node29 -->
<g id="node29" class="node"><title>Node29</title>
<g id="a_node29"><a xlink:href="dji__status_8hpp.html" target="_top" xlink:title="Status information for DJI Vehicle. ">
<polygon fill="white" stroke="black" points="1408.5,-280.5 1408.5,-299.5 1485.5,-299.5 1485.5,-280.5 1408.5,-280.5"/>
<text text-anchor="middle" x="1447" y="-287.5" font-family="Helvetica,sans-Serif" font-size="10.00">dji_status.hpp</text>
</a>
</g>
</g>
<!-- Node1&#45;&gt;Node29 -->
<g id="edge51" class="edge"><title>Node1&#45;&gt;Node29</title>
<path fill="none" stroke="midnightblue" d="M988.243,-346.118C1072.33,-338.777 1243.08,-322.68 1398.08,-300.027"/>
<polygon fill="midnightblue" stroke="midnightblue" points="1398.89,-303.447 1408.27,-298.526 1397.87,-296.522 1398.89,-303.447"/>
</g>
<!-- Node30 -->
<g id="node30" class="node"><title>Node30</title>
<g id="a_node30"><a xlink:href="dji__subscription_8hpp.html" target="_top" xlink:title="Telemetry Subscription API for DJI OSDK library. ">
<polygon fill="white" stroke="black" points="1483.5,-224.5 1483.5,-243.5 1586.5,-243.5 1586.5,-224.5 1483.5,-224.5"/>
<text text-anchor="middle" x="1535" y="-231.5" font-family="Helvetica,sans-Serif" font-size="10.00">dji_subscription.hpp</text>
</a>
</g>
</g>
<!-- Node1&#45;&gt;Node30 -->
<g id="edge52" class="edge"><title>Node1&#45;&gt;Node30</title>
<path fill="none" stroke="midnightblue" d="M988.184,-348.437C1118.81,-342.902 1452.49,-326.331 1495,-300 1512.21,-289.341 1523.12,-268.261 1529.13,-252.99"/>
<polygon fill="midnightblue" stroke="midnightblue" points="1532.43,-254.14 1532.51,-243.545 1525.84,-251.775 1532.43,-254.14"/>
</g>
<!-- Node31 -->
<g id="node31" class="node"><title>Node31</title>
<polygon fill="white" stroke="#bfbfbf" points="1542,-280.5 1542,-299.5 1662,-299.5 1662,-280.5 1542,-280.5"/>
<text text-anchor="middle" x="1602" y="-287.5" font-family="Helvetica,sans-Serif" font-size="10.00">dji_thread_manager.hpp</text>
</g>
<!-- Node1&#45;&gt;Node31 -->
<g id="edge56" class="edge"><title>Node1&#45;&gt;Node31</title>
<path fill="none" stroke="midnightblue" d="M988.326,-346.671C1091.61,-338.973 1328.95,-320.588 1528,-300 1529.27,-299.869 1530.55,-299.735 1531.83,-299.598"/>
<polygon fill="midnightblue" stroke="midnightblue" points="1532.29,-303.069 1541.84,-298.499 1531.52,-296.111 1532.29,-303.069"/>
</g>
<!-- Node32 -->
<g id="node32" class="node"><title>Node32</title>
<g id="a_node32"><a xlink:href="dji__virtual__rc_8hpp.html" target="_top" xlink:title="Virtual Radio Control API for DJI onboardSDK library. ">
<polygon fill="white" stroke="black" points="582,-280.5 582,-299.5 672,-299.5 672,-280.5 582,-280.5"/>
<text text-anchor="middle" x="627" y="-287.5" font-family="Helvetica,sans-Serif" font-size="10.00">dji_virtual_rc.hpp</text>
</a>
</g>
</g>
<!-- Node1&#45;&gt;Node32 -->
<g id="edge60" class="edge"><title>Node1&#45;&gt;Node32</title>
<path fill="none" stroke="midnightblue" d="M883.932,-340.474C827.629,-329.632 738.296,-312.431 681.182,-301.433"/>
<polygon fill="midnightblue" stroke="midnightblue" points="681.739,-297.976 671.257,-299.522 680.415,-304.85 681.739,-297.976"/>
</g>
<!-- Node4 -->
<g id="node4" class="node"><title>Node4</title>
<g id="a_node4"><a xlink:href="dji__telemetry_8hpp.html" target="_top" xlink:title="Enumeration of all telemetry data types, structures and maps. ">
<polygon fill="white" stroke="black" points="928.5,-168.5 928.5,-187.5 1019.5,-187.5 1019.5,-168.5 928.5,-168.5"/>
<text text-anchor="middle" x="974" y="-175.5" font-family="Helvetica,sans-Serif" font-size="10.00">dji_telemetry.hpp</text>
</a>
</g>
</g>
<!-- Node3&#45;&gt;Node4 -->
<g id="edge3" class="edge"><title>Node3&#45;&gt;Node4</title>
<path fill="none" stroke="midnightblue" d="M1069.09,-224.444C1050.75,-215.675 1021.99,-201.935 1000.91,-191.858"/>
<polygon fill="midnightblue" stroke="midnightblue" points="1002.35,-188.67 991.821,-187.516 999.335,-194.986 1002.35,-188.67"/>
</g>
<!-- Node3&#45;&gt;Node8 -->
<g id="edge7" class="edge"><title>Node3&#45;&gt;Node8</title>
<path fill="none" stroke="midnightblue" d="M1093.09,-224.143C1103.05,-210.292 1124.11,-183.49 1148,-168 1172.33,-152.229 1202.81,-141.297 1228.15,-134.16"/>
<polygon fill="midnightblue" stroke="midnightblue" points="1229.19,-137.502 1237.94,-131.516 1227.37,-130.745 1229.19,-137.502"/>
</g>
<!-- Node4&#45;&gt;Node5 -->
<g id="edge4" class="edge"><title>Node4&#45;&gt;Node5</title>
<path fill="none" stroke="midnightblue" d="M928.258,-169.032C869.313,-158.764 767.476,-141.025 708.928,-130.826"/>
<polygon fill="midnightblue" stroke="midnightblue" points="709.322,-127.342 698.869,-129.074 708.12,-134.238 709.322,-127.342"/>
</g>
<!-- Node6 -->
<g id="node6" class="node"><title>Node6</title>
<polygon fill="white" stroke="#bfbfbf" points="642.5,-56.5 642.5,-75.5 685.5,-75.5 685.5,-56.5 642.5,-56.5"/>
<text text-anchor="middle" x="664" y="-63.5" font-family="Helvetica,sans-Serif" font-size="10.00">cstdio</text>
</g>
<!-- Node5&#45;&gt;Node6 -->
<g id="edge5" class="edge"><title>Node5&#45;&gt;Node6</title>
<path fill="none" stroke="midnightblue" d="M664,-112.083C664,-105.006 664,-94.8611 664,-85.9865"/>
<polygon fill="midnightblue" stroke="midnightblue" points="667.5,-85.751 664,-75.7511 660.5,-85.7511 667.5,-85.751"/>
</g>
<!-- Node7 -->
<g id="node7" class="node"><title>Node7</title>
<polygon fill="white" stroke="#bfbfbf" points="331.5,-0.5 331.5,-19.5 380.5,-19.5 380.5,-0.5 331.5,-0.5"/>
<text text-anchor="middle" x="356" y="-7.5" font-family="Helvetica,sans-Serif" font-size="10.00">stdint.h</text>
</g>
<!-- Node5&#45;&gt;Node7 -->
<g id="edge6" class="edge"><title>Node5&#45;&gt;Node7</title>
<path fill="none" stroke="midnightblue" d="M640.088,-112.46C585.618,-93.0065 452.195,-45.3553 389.535,-22.9768"/>
<polygon fill="midnightblue" stroke="midnightblue" points="390.704,-19.6777 380.109,-19.6104 388.349,-26.2699 390.704,-19.6777"/>
</g>
<!-- Node8&#45;&gt;Node9 -->
<g id="edge8" class="edge"><title>Node8&#45;&gt;Node9</title>
<path fill="none" stroke="midnightblue" d="M1318.72,-112.444C1363.65,-103.004 1436,-87.802 1484.5,-77.6111"/>
<polygon fill="midnightblue" stroke="midnightblue" points="1485.4,-80.998 1494.47,-75.5164 1483.96,-74.1476 1485.4,-80.998"/>
</g>
<!-- Node10&#45;&gt;Node5 -->
<g id="edge14" class="edge"><title>Node10&#45;&gt;Node5</title>
<path fill="none" stroke="midnightblue" d="M334.837,-170.91C405.279,-160.657 546.938,-140.039 619.275,-129.51"/>
<polygon fill="midnightblue" stroke="midnightblue" points="620.036,-132.936 629.428,-128.032 619.028,-126.009 620.036,-132.936"/>
</g>
<!-- Node10&#45;&gt;Node11 -->
<g id="edge10" class="edge"><title>Node10&#45;&gt;Node11</title>
<path fill="none" stroke="midnightblue" d="M293,-168.083C293,-161.006 293,-150.861 293,-141.986"/>
<polygon fill="midnightblue" stroke="midnightblue" points="296.5,-141.751 293,-131.751 289.5,-141.751 296.5,-141.751"/>
</g>
<!-- Node11&#45;&gt;Node7 -->
<g id="edge13" class="edge"><title>Node11&#45;&gt;Node7</title>
<path fill="none" stroke="midnightblue" d="M304.343,-112.179C314.307,-103.859 328.504,-90.5244 337,-76 345.44,-61.5704 350.366,-43.1178 353.078,-29.5626"/>
<polygon fill="midnightblue" stroke="midnightblue" points="356.558,-29.9822 354.863,-19.5238 349.666,-28.7564 356.558,-29.9822"/>
</g>
<!-- Node12 -->
<g id="node12" class="node"><title>Node12</title>
<g id="a_node12"><a xlink:href="dji__error_8hpp.html" target="_top" xlink:title="All DJI OSDK OpenProtocol ACK Error Codes. ">
<polygon fill="white" stroke="black" points="258,-56.5 258,-75.5 328,-75.5 328,-56.5 258,-56.5"/>
<text text-anchor="middle" x="293" y="-63.5" font-family="Helvetica,sans-Serif" font-size="10.00">dji_error.hpp</text>
</a>
</g>
</g>
<!-- Node11&#45;&gt;Node12 -->
<g id="edge11" class="edge"><title>Node11&#45;&gt;Node12</title>
<path fill="none" stroke="midnightblue" d="M293,-112.083C293,-105.006 293,-94.8611 293,-85.9865"/>
<polygon fill="midnightblue" stroke="midnightblue" points="296.5,-85.751 293,-75.7511 289.5,-85.7511 296.5,-85.751"/>
</g>
<!-- Node12&#45;&gt;Node7 -->
<g id="edge12" class="edge"><title>Node12&#45;&gt;Node7</title>
<path fill="none" stroke="midnightblue" d="M303.122,-56.324C312.526,-48.2631 326.744,-36.0765 338.069,-26.3695"/>
<polygon fill="midnightblue" stroke="midnightblue" points="340.379,-28.9993 345.694,-19.8339 335.823,-23.6844 340.379,-28.9993"/>
</g>
<!-- Node14&#45;&gt;Node5 -->
<g id="edge28" class="edge"><title>Node14&#45;&gt;Node5</title>
<path fill="none" stroke="midnightblue" d="M935.429,-280.095C934.154,-266.651 930.062,-240.949 917,-224 866.481,-158.446 766.81,-135.32 708.791,-127.247"/>
<polygon fill="midnightblue" stroke="midnightblue" points="709.178,-123.768 698.81,-125.95 708.276,-130.71 709.178,-123.768"/>
</g>
<!-- Node14&#45;&gt;Node8 -->
<g id="edge29" class="edge"><title>Node14&#45;&gt;Node8</title>
<path fill="none" stroke="midnightblue" d="M976.271,-281.344C1031.97,-270.58 1127.36,-251.456 1142,-244 1194.12,-217.454 1241.96,-166.048 1264.47,-139.602"/>
<polygon fill="midnightblue" stroke="midnightblue" points="1267.38,-141.582 1271.1,-131.663 1262,-137.094 1267.38,-141.582"/>
</g>
<!-- Node14&#45;&gt;Node9 -->
<g id="edge27" class="edge"><title>Node14&#45;&gt;Node9</title>
<path fill="none" stroke="midnightblue" d="M945.475,-280.447C978.641,-251.066 1093.7,-153.782 1208,-112 1294.77,-80.2795 1401.95,-70.6648 1469.41,-67.8935"/>
<polygon fill="midnightblue" stroke="midnightblue" points="1469.61,-71.3884 1479.48,-67.5187 1469.35,-64.3932 1469.61,-71.3884"/>
</g>
<!-- Node15 -->
<g id="node15" class="node"><title>Node15</title>
<g id="a_node15"><a xlink:href="dji__ack_8hpp.html" target="_top" xlink:title="All DJI OSDK ACK parsing. ">
<polygon fill="white" stroke="black" points="421,-224.5 421,-243.5 487,-243.5 487,-224.5 421,-224.5"/>
<text text-anchor="middle" x="454" y="-231.5" font-family="Helvetica,sans-Serif" font-size="10.00">dji_ack.hpp</text>
</a>
</g>
</g>
<!-- Node14&#45;&gt;Node15 -->
<g id="edge18" class="edge"><title>Node14&#45;&gt;Node15</title>
<path fill="none" stroke="midnightblue" d="M895.77,-286.362C819.803,-281.063 649.895,-267.691 497.426,-244.074"/>
<polygon fill="midnightblue" stroke="midnightblue" points="497.831,-240.594 487.409,-242.503 496.746,-247.51 497.831,-240.594"/>
</g>
<!-- Node15&#45;&gt;Node5 -->
<g id="edge22" class="edge"><title>Node15&#45;&gt;Node5</title>
<path fill="none" stroke="midnightblue" d="M443.402,-224.312C428.612,-211.152 405.171,-185.814 420,-168 444.865,-138.129 555.915,-128.011 619.291,-124.64"/>
<polygon fill="midnightblue" stroke="midnightblue" points="619.595,-128.129 629.409,-124.137 619.248,-121.138 619.595,-128.129"/>
</g>
<!-- Node15&#45;&gt;Node11 -->
<g id="edge19" class="edge"><title>Node15&#45;&gt;Node11</title>
<path fill="none" stroke="midnightblue" d="M441.121,-224.425C427.605,-215.408 405.758,-200.784 387,-188 361.664,-170.733 332.665,-150.628 313.657,-137.403"/>
<polygon fill="midnightblue" stroke="midnightblue" points="315.638,-134.518 305.431,-131.676 311.638,-140.262 315.638,-134.518"/>
</g>
<!-- Node16 -->
<g id="node16" class="node"><title>Node16</title>
<g id="a_node16"><a xlink:href="dji__mission__type_8hpp.html" target="_top" xlink:title="Mission related data struct for DJI OSDK library. ">
<polygon fill="white" stroke="black" points="429,-168.5 429,-187.5 537,-187.5 537,-168.5 429,-168.5"/>
<text text-anchor="middle" x="483" y="-175.5" font-family="Helvetica,sans-Serif" font-size="10.00">dji_mission_type.hpp</text>
</a>
</g>
</g>
<!-- Node15&#45;&gt;Node16 -->
<g id="edge20" class="edge"><title>Node15&#45;&gt;Node16</title>
<path fill="none" stroke="midnightblue" d="M458.789,-224.083C462.758,-216.691 468.525,-205.953 473.435,-196.811"/>
<polygon fill="midnightblue" stroke="midnightblue" points="476.653,-198.217 478.3,-187.751 470.486,-194.905 476.653,-198.217"/>
</g>
<!-- Node15&#45;&gt;Node17 -->
<g id="edge23" class="edge"><title>Node15&#45;&gt;Node17</title>
<path fill="none" stroke="midnightblue" d="M420.835,-228.489C351.513,-219.06 190.87,-197.209 108.193,-185.963"/>
<polygon fill="midnightblue" stroke="midnightblue" points="108.648,-182.493 98.2672,-184.613 107.704,-189.429 108.648,-182.493"/>
</g>
<!-- Node18 -->
<g id="node18" class="node"><title>Node18</title>
<polygon fill="white" stroke="#bfbfbf" points="555.5,-168.5 555.5,-187.5 590.5,-187.5 590.5,-168.5 555.5,-168.5"/>
<text text-anchor="middle" x="573" y="-175.5" font-family="Helvetica,sans-Serif" font-size="10.00">map</text>
</g>
<!-- Node15&#45;&gt;Node18 -->
<g id="edge26" class="edge"><title>Node15&#45;&gt;Node18</title>
<path fill="none" stroke="midnightblue" d="M472.856,-224.444C492.609,-215.48 523.809,-201.322 546.134,-191.191"/>
<polygon fill="midnightblue" stroke="midnightblue" points="547.736,-194.308 555.396,-186.988 544.844,-187.933 547.736,-194.308"/>
</g>
<!-- Node16&#45;&gt;Node5 -->
<g id="edge21" class="edge"><title>Node16&#45;&gt;Node5</title>
<path fill="none" stroke="midnightblue" d="M511.68,-168.444C542.527,-159.241 591.728,-144.562 625.829,-134.388"/>
<polygon fill="midnightblue" stroke="midnightblue" points="626.872,-137.729 635.454,-131.516 624.871,-131.021 626.872,-137.729"/>
</g>
<!-- Node17&#45;&gt;Node2 -->
<g id="edge25" class="edge"><title>Node17&#45;&gt;Node2</title>
<path fill="none" stroke="midnightblue" d="M51.3856,-168.083C46.6326,-160.534 39.6819,-149.495 33.8484,-140.23"/>
<polygon fill="midnightblue" stroke="midnightblue" points="36.7999,-138.349 28.5099,-131.751 30.8763,-142.078 36.7999,-138.349"/>
</g>
<!-- Node17&#45;&gt;Node11 -->
<g id="edge24" class="edge"><title>Node17&#45;&gt;Node11</title>
<path fill="none" stroke="midnightblue" d="M94.3949,-168.444C135.392,-159.063 201.254,-143.993 245.784,-133.804"/>
<polygon fill="midnightblue" stroke="midnightblue" points="246.813,-137.159 255.78,-131.516 245.251,-130.335 246.813,-137.159"/>
</g>
<!-- Node19&#45;&gt;Node5 -->
<g id="edge32" class="edge"><title>Node19&#45;&gt;Node5</title>
<path fill="none" stroke="midnightblue" d="M233.511,-169.335C236.38,-168.858 239.232,-168.406 242,-168 378.809,-147.912 541.825,-133.092 619.099,-126.613"/>
<polygon fill="midnightblue" stroke="midnightblue" points="619.746,-130.071 629.422,-125.754 619.166,-123.095 619.746,-130.071"/>
</g>
<!-- Node19&#45;&gt;Node11 -->
<g id="edge31" class="edge"><title>Node19&#45;&gt;Node11</title>
<path fill="none" stroke="midnightblue" d="M209.906,-168.324C225.638,-159.743 249.942,-146.486 268.209,-136.522"/>
<polygon fill="midnightblue" stroke="midnightblue" points="270.03,-139.516 277.133,-131.655 266.678,-133.37 270.03,-139.516"/>
</g>
<!-- Node21&#45;&gt;Node5 -->
<g id="edge35" class="edge"><title>Node21&#45;&gt;Node5</title>
<path fill="none" stroke="midnightblue" d="M845.287,-224.074C837.484,-210.128 820.577,-183.198 799,-168 772.017,-148.995 736.431,-137.57 708.571,-130.991"/>
<polygon fill="midnightblue" stroke="midnightblue" points="709.209,-127.547 698.686,-128.781 707.681,-134.378 709.209,-127.547"/>
</g>
<!-- Node22&#45;&gt;Node8 -->
<g id="edge37" class="edge"><title>Node22&#45;&gt;Node8</title>
<path fill="none" stroke="midnightblue" d="M1229.16,-224.368C1237.83,-206.376 1257.98,-164.55 1269.51,-140.627"/>
<polygon fill="midnightblue" stroke="midnightblue" points="1272.67,-142.119 1273.86,-131.591 1266.37,-139.081 1272.67,-142.119"/>
</g>
<!-- Node24 -->
<g id="node24" class="node"><title>Node24</title>
<g id="a_node24"><a xlink:href="dji__hotpoint_8hpp.html" target="_top" xlink:title="Implementation of HotPoint (Point of Interest) Missions for DJI OSDK. ">
<polygon fill="white" stroke="black" points="612.5,-224.5 612.5,-243.5 697.5,-243.5 697.5,-224.5 612.5,-224.5"/>
<text text-anchor="middle" x="655" y="-231.5" font-family="Helvetica,sans-Serif" font-size="10.00">dji_hotpoint.hpp</text>
</a>
</g>
</g>
<!-- Node23&#45;&gt;Node24 -->
<g id="edge39" class="edge"><title>Node23&#45;&gt;Node24</title>
<path fill="none" stroke="midnightblue" d="M524.56,-280.444C550.523,-271.399 591.668,-257.064 620.797,-246.916"/>
<polygon fill="midnightblue" stroke="midnightblue" points="622.263,-250.112 630.555,-243.516 619.96,-243.501 622.263,-250.112"/>
</g>
<!-- Node26 -->
<g id="node26" class="node"><title>Node26</title>
<g id="a_node26"><a xlink:href="dji__waypoint_8hpp.html" target="_top" xlink:title="Implementation of GPS Waypoint Missions for DJI OSDK. ">
<polygon fill="white" stroke="black" points="505.5,-224.5 505.5,-243.5 594.5,-243.5 594.5,-224.5 505.5,-224.5"/>
<text text-anchor="middle" x="550" y="-231.5" font-family="Helvetica,sans-Serif" font-size="10.00">dji_waypoint.hpp</text>
</a>
</g>
</g>
<!-- Node23&#45;&gt;Node26 -->
<g id="edge45" class="edge"><title>Node23&#45;&gt;Node26</title>
<path fill="none" stroke="midnightblue" d="M508.256,-280.083C515.465,-272.298 526.11,-260.801 534.846,-251.367"/>
<polygon fill="midnightblue" stroke="midnightblue" points="537.671,-253.467 541.897,-243.751 532.535,-248.711 537.671,-253.467"/>
</g>
<!-- Node24&#45;&gt;Node4 -->
<g id="edge44" class="edge"><title>Node24&#45;&gt;Node4</title>
<path fill="none" stroke="midnightblue" d="M697.691,-225.773C754.622,-216.136 855.503,-199.059 918.344,-188.421"/>
<polygon fill="midnightblue" stroke="midnightblue" points="919.196,-191.827 928.471,-186.707 918.027,-184.925 919.196,-191.827"/>
</g>
<!-- Node25 -->
<g id="node25" class="node"><title>Node25</title>
<g id="a_node25"><a xlink:href="dji__mission__base_8hpp.html" target="_top" xlink:title="Mission&#45;Base abstract class for DJI OSDK library. ">
<polygon fill="white" stroke="black" points="609,-168.5 609,-187.5 719,-187.5 719,-168.5 609,-168.5"/>
<text text-anchor="middle" x="664" y="-175.5" font-family="Helvetica,sans-Serif" font-size="10.00">dji_mission_base.hpp</text>
</a>
</g>
</g>
<!-- Node24&#45;&gt;Node25 -->
<g id="edge40" class="edge"><title>Node24&#45;&gt;Node25</title>
<path fill="none" stroke="midnightblue" d="M656.486,-224.083C657.679,-216.927 659.394,-206.635 660.885,-197.691"/>
<polygon fill="midnightblue" stroke="midnightblue" points="664.35,-198.19 662.541,-187.751 657.445,-197.04 664.35,-198.19"/>
</g>
<!-- Node25&#45;&gt;Node5 -->
<g id="edge42" class="edge"><title>Node25&#45;&gt;Node5</title>
<path fill="none" stroke="midnightblue" d="M664,-168.083C664,-161.006 664,-150.861 664,-141.986"/>
<polygon fill="midnightblue" stroke="midnightblue" points="667.5,-141.751 664,-131.751 660.5,-141.751 667.5,-141.751"/>
</g>
<!-- Node25&#45;&gt;Node8 -->
<g id="edge43" class="edge"><title>Node25&#45;&gt;Node8</title>
<path fill="none" stroke="midnightblue" d="M719.029,-172.16C830.4,-162.365 1082.42,-140.2 1206.4,-129.297"/>
<polygon fill="midnightblue" stroke="midnightblue" points="1206.89,-132.768 1216.55,-128.405 1206.28,-125.794 1206.89,-132.768"/>
</g>
<!-- Node25&#45;&gt;Node11 -->
<g id="edge41" class="edge"><title>Node25&#45;&gt;Node11</title>
<path fill="none" stroke="midnightblue" d="M608.858,-168.974C539.212,-158.837 419.994,-141.484 349.644,-131.245"/>
<polygon fill="midnightblue" stroke="midnightblue" points="350.031,-127.764 339.631,-129.787 349.022,-134.691 350.031,-127.764"/>
</g>
<!-- Node26&#45;&gt;Node25 -->
<g id="edge46" class="edge"><title>Node26&#45;&gt;Node25</title>
<path fill="none" stroke="midnightblue" d="M568.064,-224.444C586.575,-215.675 615.581,-201.935 636.855,-191.858"/>
<polygon fill="midnightblue" stroke="midnightblue" points="638.482,-194.96 646.021,-187.516 635.485,-188.634 638.482,-194.96"/>
</g>
<!-- Node27&#45;&gt;Node8 -->
<g id="edge48" class="edge"><title>Node27&#45;&gt;Node8</title>
<path fill="none" stroke="midnightblue" d="M1346.19,-224.368C1333.98,-206.215 1305.45,-163.802 1289.43,-139.99"/>
<polygon fill="midnightblue" stroke="midnightblue" points="1292.27,-137.935 1283.78,-131.591 1286.46,-141.842 1292.27,-137.935"/>
</g>
<!-- Node30&#45;&gt;Node4 -->
<g id="edge54" class="edge"><title>Node30&#45;&gt;Node4</title>
<path fill="none" stroke="midnightblue" d="M1483.23,-228.017C1377.72,-217.861 1138.64,-194.848 1029.82,-184.373"/>
<polygon fill="midnightblue" stroke="midnightblue" points="1029.99,-180.873 1019.7,-183.399 1029.32,-187.841 1029.99,-180.873"/>
</g>
<!-- Node30&#45;&gt;Node8 -->
<g id="edge55" class="edge"><title>Node30&#45;&gt;Node8</title>
<path fill="none" stroke="midnightblue" d="M1528.77,-224.322C1518.16,-210.221 1495.19,-182.461 1469,-168 1432.34,-147.752 1386.84,-136.574 1349.44,-130.423"/>
<polygon fill="midnightblue" stroke="midnightblue" points="1349.55,-126.897 1339.13,-128.819 1348.47,-133.814 1349.55,-126.897"/>
</g>
<!-- Node30&#45;&gt;Node9 -->
<g id="edge53" class="edge"><title>Node30&#45;&gt;Node9</title>
<path fill="none" stroke="midnightblue" d="M1535,-224.075C1535,-197.945 1535,-121.211 1535,-85.577"/>
<polygon fill="midnightblue" stroke="midnightblue" points="1538.5,-85.5681 1535,-75.5681 1531.5,-85.5681 1538.5,-85.5681"/>
</g>
<!-- Node32&#45;&gt;Node4 -->
<g id="edge64" class="edge"><title>Node32&#45;&gt;Node4</title>
<path fill="none" stroke="midnightblue" d="M672.074,-281.44C675.094,-280.948 678.09,-280.464 681,-280 785.776,-263.278 823.944,-294.973 917,-244 937.276,-232.893 953.788,-211.621 963.725,-196.436"/>
<polygon fill="midnightblue" stroke="midnightblue" points="966.718,-198.251 969.037,-187.914 960.777,-194.549 966.718,-198.251"/>
</g>
<!-- Node32&#45;&gt;Node5 -->
<g id="edge63" class="edge"><title>Node32&#45;&gt;Node5</title>
<path fill="none" stroke="midnightblue" d="M650.952,-280.411C668.306,-273.105 691.224,-261.063 706,-244 723.505,-223.785 723.024,-214.274 728,-188 729.654,-179.266 732.097,-175.889 728,-168 720.847,-154.226 707.329,-143.783 694.553,-136.441"/>
<polygon fill="midnightblue" stroke="midnightblue" points="695.958,-133.225 685.483,-131.64 692.683,-139.412 695.958,-133.225"/>
</g>
<!-- Node32&#45;&gt;Node9 -->
<g id="edge62" class="edge"><title>Node32&#45;&gt;Node9</title>
<path fill="none" stroke="midnightblue" d="M672.024,-281.061C675.056,-280.661 678.069,-280.301 681,-280 731.607,-274.808 1560.74,-280.673 1596,-244 1640.44,-197.776 1580.16,-117.68 1550.17,-83.3688"/>
<polygon fill="midnightblue" stroke="midnightblue" points="1552.56,-80.7918 1543.28,-75.6805 1547.35,-85.4635 1552.56,-80.7918"/>
</g>
<!-- Node32&#45;&gt;Node15 -->
<g id="edge61" class="edge"><title>Node32&#45;&gt;Node15</title>
<path fill="none" stroke="midnightblue" d="M599.588,-280.444C570.231,-271.28 523.481,-256.688 490.904,-246.519"/>
<polygon fill="midnightblue" stroke="midnightblue" points="491.873,-243.155 481.284,-243.516 489.787,-249.837 491.873,-243.155"/>
</g>
</g>
</svg>
        <g id="navigator" transform="translate(0 0)" fill="#404254">
                <rect fill="#f2f5e9" fill-opacity="0.5" stroke="#606060" stroke-width=".5" x="0" y="0" width="60" height="60"/>
                <use id="zoomplus" xlink:href="#zoomPlus" x="17" y="9" onmousedown="handleZoom(evt,'in')"/>
                <use id="zoomminus" xlink:href="#zoomMin" x="42" y="9" onmousedown="handleZoom(evt,'out')"/>
                <use id="reset" xlink:href="#resetDef" x="30" y="36" onmousedown="handleReset()"/>
                <g id="arrowUp" xlink:href="#dirArrow" transform="translate(30 24)" onmousedown="handlePan(0,-1)">
                  <use xlink:href="#rim" fill="#404040">
                        <set attributeName="fill" to="#808080" begin="arrowUp.mouseover" end="arrowUp.mouseout"/>
                  </use>
                  <path fill="none" stroke="white" stroke-width="1.5" d="M0,-3.0v7 M-2.5,-0.5L0,-3.0L2.5,-0.5"/>
                </g>
                <g id="arrowRight" xlink:href="#dirArrow" transform="rotate(90) translate(36 -43)" onmousedown="handlePan(1,0)">
                  <use xlink:href="#rim" fill="#404040">
                        <set attributeName="fill" to="#808080" begin="arrowRight.mouseover" end="arrowRight.mouseout"/>
                  </use>
                  <path fill="none" stroke="white" stroke-width="1.5" d="M0,-3.0v7 M-2.5,-0.5L0,-3.0L2.5,-0.5"/>
                </g>
                <g id="arrowDown" xlink:href="#dirArrow" transform="rotate(180) translate(-30 -48)" onmousedown="handlePan(0,1)">
                  <use xlink:href="#rim" fill="#404040">
                        <set attributeName="fill" to="#808080" begin="arrowDown.mouseover" end="arrowDown.mouseout"/>
                  </use>
                  <path fill="none" stroke="white" stroke-width="1.5" d="M0,-3.0v7 M-2.5,-0.5L0,-3.0L2.5,-0.5"/>
                </g>
                <g id="arrowLeft" xlink:href="#dirArrow" transform="rotate(270) translate(-36 17)" onmousedown="handlePan(-1,0)">
                  <use xlink:href="#rim" fill="#404040">
                        <set attributeName="fill" to="#808080" begin="arrowLeft.mouseover" end="arrowLeft.mouseout"/>
                  </use>
                  <path fill="none" stroke="white" stroke-width="1.5" d="M0,-3.0v7 M-2.5,-0.5L0,-3.0L2.5,-0.5"/>
                </g>
        </g>
        <svg viewBox="0 0 15 15" width="100%" height="30px" preserveAspectRatio="xMaxYMin meet">
         <g id="arrow_out" transform="scale(0.3 0.3)">
          <a xlink:href="dji__vehicle_8hpp__incl_org.svg" target="_base">
           <rect id="button" ry="5" rx="5" y="6" x="6" height="38" width="38"
                fill="#f2f5e9" fill-opacity="0.5" stroke="#606060" stroke-width="1.0"/>
           <path id="arrow"
             d="M 11.500037,31.436501 C 11.940474,20.09759 22.043105,11.32322 32.158766,21.979434 L 37.068811,17.246167 C 37.068811,17.246167 37.088388,32 37.088388,32 L 22.160133,31.978069 C 22.160133,31.978069 26.997745,27.140456 26.997745,27.140456 C 18.528582,18.264221 13.291696,25.230495 11.500037,31.436501 z"
             style="fill:#404040;"/>
          </a>
         </g>
        </svg>
</svg>
