<?xml version="1.0" encoding="UTF-8" standalone="no"?>
<!DOCTYPE svg PUBLIC "-//W3C//DTD SVG 1.1//EN"
 "http://www.w3.org/Graphics/SVG/1.1/DTD/svg11.dtd">
<!-- Generated by graphviz version 2.38.0 (20140413.2041)
 -->
<!-- Title: osdk&#45;core/api/src/dji_mobile_device.cpp Pages: 1 -->
<svg width="1897pt" height="431pt"
 viewBox="0.00 0.00 1896.73 431.00" xmlns="http://www.w3.org/2000/svg" xmlns:xlink="http://www.w3.org/1999/xlink">
<g id="graph0" class="graph" transform="scale(1 1) rotate(0) translate(4 427)">
<title>osdk&#45;core/api/src/dji_mobile_device.cpp</title>
<polygon fill="white" stroke="none" points="-4,4 -4,-427 1892.73,-427 1892.73,4 -4,4"/>
<!-- Node1 -->
<g id="node1" class="node"><title>Node1</title>
<polygon fill="#bfbfbf" stroke="black" points="622.5,-392.5 622.5,-422.5 726.5,-422.5 726.5,-392.5 622.5,-392.5"/>
<text text-anchor="start" x="630.5" y="-410.5" font-family="Helvetica,sans-Serif" font-size="10.00">osdk&#45;core/api/src/dji</text>
<text text-anchor="middle" x="674.5" y="-399.5" font-family="Helvetica,sans-Serif" font-size="10.00">_mobile_device.cpp</text>
</g>
<!-- Node2 -->
<g id="node2" class="node"><title>Node2</title>
<g id="a_node2"><a xlink:href="dji__mobile__device_8hpp.html" target="_top" xlink:title="Implementation of DJI Mobile Device Abstraction. ">
<polygon fill="white" stroke="black" points="0,-280.5 0,-299.5 113,-299.5 113,-280.5 0,-280.5"/>
<text text-anchor="middle" x="56.5" y="-287.5" font-family="Helvetica,sans-Serif" font-size="10.00">dji_mobile_device.hpp</text>
</a>
</g>
</g>
<!-- Node1&#45;&gt;Node2 -->
<g id="edge1" class="edge"><title>Node1&#45;&gt;Node2</title>
<path fill="none" stroke="midnightblue" d="M622.342,-396.752C506.977,-375.191 231.016,-323.616 112.328,-301.434"/>
<polygon fill="midnightblue" stroke="midnightblue" points="112.832,-297.968 102.359,-299.571 111.546,-304.848 112.832,-297.968"/>
</g>
<!-- Node5 -->
<g id="node5" class="node"><title>Node5</title>
<g id="a_node5"><a xlink:href="dji__vehicle_8hpp.html" target="_top" xlink:title="Vehicle API for DJI onboardSDK library. ">
<polygon fill="white" stroke="black" points="863,-336.5 863,-355.5 944,-355.5 944,-336.5 863,-336.5"/>
<text text-anchor="middle" x="903.5" y="-343.5" font-family="Helvetica,sans-Serif" font-size="10.00">dji_vehicle.hpp</text>
</a>
</g>
</g>
<!-- Node1&#45;&gt;Node5 -->
<g id="edge4" class="edge"><title>Node1&#45;&gt;Node5</title>
<path fill="none" stroke="midnightblue" d="M726.75,-392.924C767.345,-382.377 822.937,-367.932 860.867,-358.077"/>
<polygon fill="midnightblue" stroke="midnightblue" points="861.791,-361.453 870.589,-355.551 860.031,-354.678 861.791,-361.453"/>
</g>
<!-- Node3 -->
<g id="node3" class="node"><title>Node3</title>
<g id="a_node3"><a xlink:href="dji__vehicle__callback_8hpp.html" target="_top" xlink:title="Type definition for new Vehicle&#45;style callbacks. ">
<polygon fill="white" stroke="black" points="303.5,-112.5 303.5,-131.5 425.5,-131.5 425.5,-112.5 303.5,-112.5"/>
<text text-anchor="middle" x="364.5" y="-119.5" font-family="Helvetica,sans-Serif" font-size="10.00">dji_vehicle_callback.hpp</text>
</a>
</g>
</g>
<!-- Node2&#45;&gt;Node3 -->
<g id="edge2" class="edge"><title>Node2&#45;&gt;Node3</title>
<path fill="none" stroke="midnightblue" d="M57.4492,-280.301C60.4012,-257.768 71.5651,-197.229 108.5,-168 136.463,-145.871 227.47,-133.914 293.022,-128.004"/>
<polygon fill="midnightblue" stroke="midnightblue" points="293.652,-131.462 303.31,-127.106 293.044,-124.489 293.652,-131.462"/>
</g>
<!-- Node4 -->
<g id="node4" class="node"><title>Node4</title>
<polygon fill="white" stroke="#bfbfbf" points="436,-56.5 436,-75.5 547,-75.5 547,-56.5 436,-56.5"/>
<text text-anchor="middle" x="491.5" y="-63.5" font-family="Helvetica,sans-Serif" font-size="10.00">dji_open_protocol.hpp</text>
</g>
<!-- Node3&#45;&gt;Node4 -->
<g id="edge3" class="edge"><title>Node3&#45;&gt;Node4</title>
<path fill="none" stroke="midnightblue" d="M384.624,-112.444C405.524,-103.557 438.435,-89.5632 462.216,-79.4514"/>
<polygon fill="midnightblue" stroke="midnightblue" points="463.638,-82.6504 471.471,-75.5164 460.898,-76.2085 463.638,-82.6504"/>
</g>
<!-- Node5&#45;&gt;Node2 -->
<g id="edge53" class="edge"><title>Node5&#45;&gt;Node2</title>
<path fill="none" stroke="midnightblue" d="M862.62,-343.612C747.031,-339.476 408.014,-325.882 127.5,-300 126.031,-299.864 124.545,-299.722 123.048,-299.574"/>
<polygon fill="midnightblue" stroke="midnightblue" points="123.355,-296.087 113.043,-298.52 122.622,-303.048 123.355,-296.087"/>
</g>
<!-- Node5&#45;&gt;Node3 -->
<g id="edge63" class="edge"><title>Node5&#45;&gt;Node3</title>
<path fill="none" stroke="midnightblue" d="M862.77,-344.577C718.577,-342.791 237.788,-334.298 178.5,-300 145.981,-281.188 121.14,-255.572 141.5,-224 175.419,-171.402 244.104,-145.896 296.335,-133.718"/>
<polygon fill="midnightblue" stroke="midnightblue" points="297.21,-137.109 306.215,-131.526 295.694,-130.275 297.21,-137.109"/>
</g>
<!-- Node5&#45;&gt;Node4 -->
<g id="edge54" class="edge"><title>Node5&#45;&gt;Node4</title>
<path fill="none" stroke="midnightblue" d="M862.911,-341.705C793.824,-335.602 656.657,-321.201 613.5,-300 529.271,-258.622 501.652,-133.507 494.035,-85.7772"/>
<polygon fill="midnightblue" stroke="midnightblue" points="497.496,-85.253 492.57,-75.8729 490.571,-86.2774 497.496,-85.253"/>
</g>
<!-- Node6 -->
<g id="node6" class="node"><title>Node6</title>
<polygon fill="white" stroke="#bfbfbf" points="544.5,-112.5 544.5,-131.5 590.5,-131.5 590.5,-112.5 544.5,-112.5"/>
<text text-anchor="middle" x="567.5" y="-119.5" font-family="Helvetica,sans-Serif" font-size="10.00">cstdint</text>
</g>
<!-- Node5&#45;&gt;Node6 -->
<g id="edge5" class="edge"><title>Node5&#45;&gt;Node6</title>
<path fill="none" stroke="midnightblue" d="M862.716,-339.524C780.006,-327.424 597.712,-295.343 566.5,-244 547.203,-212.257 555.042,-166.634 561.736,-141.451"/>
<polygon fill="midnightblue" stroke="midnightblue" points="565.132,-142.304 564.541,-131.726 558.407,-140.364 565.132,-142.304"/>
</g>
<!-- Node7 -->
<g id="node7" class="node"><title>Node7</title>
<g id="a_node7"><a xlink:href="dji__broadcast_8hpp.html" target="_top" xlink:title="Broadcast Telemetry API for DJI onboardSDK library. ">
<polygon fill="white" stroke="black" points="576,-224.5 576,-243.5 669,-243.5 669,-224.5 576,-224.5"/>
<text text-anchor="middle" x="622.5" y="-231.5" font-family="Helvetica,sans-Serif" font-size="10.00">dji_broadcast.hpp</text>
</a>
</g>
</g>
<!-- Node5&#45;&gt;Node7 -->
<g id="edge6" class="edge"><title>Node5&#45;&gt;Node7</title>
<path fill="none" stroke="midnightblue" d="M862.862,-340.152C823.13,-334.338 761.617,-322.433 712.5,-300 684.476,-287.201 656.36,-265.044 639.193,-250.205"/>
<polygon fill="midnightblue" stroke="midnightblue" points="641.505,-247.578 631.693,-243.581 636.871,-252.824 641.505,-247.578"/>
</g>
<!-- Node9 -->
<g id="node9" class="node"><title>Node9</title>
<g id="a_node9"><a xlink:href="dji__type_8hpp.html" target="_top" xlink:title="Data type and Data Structure definitions for use throughout DJI OSDK. ">
<polygon fill="white" stroke="black" points="1185,-112.5 1185,-131.5 1254,-131.5 1254,-112.5 1185,-112.5"/>
<text text-anchor="middle" x="1219.5" y="-119.5" font-family="Helvetica,sans-Serif" font-size="10.00">dji_type.hpp</text>
</a>
</g>
</g>
<!-- Node5&#45;&gt;Node9 -->
<g id="edge62" class="edge"><title>Node5&#45;&gt;Node9</title>
<path fill="none" stroke="midnightblue" d="M944.057,-341.573C992.185,-336.544 1074.25,-324.912 1140.5,-300 1156.91,-293.829 1158.01,-285.961 1174.5,-280 1267.67,-246.309 1321.6,-311.1 1394.5,-244 1419.77,-220.739 1429.79,-194.953 1408.5,-168 1390.85,-145.651 1314.25,-133.206 1264.15,-127.324"/>
<polygon fill="midnightblue" stroke="midnightblue" points="1264.53,-123.844 1254.2,-126.2 1263.74,-130.8 1264.53,-123.844"/>
</g>
<!-- Node12 -->
<g id="node12" class="node"><title>Node12</title>
<g id="a_node12"><a xlink:href="dji__camera_8hpp.html" target="_top" xlink:title="Camera/Gimbal API for DJI onboardSDK library. ">
<polygon fill="white" stroke="black" points="1456,-168.5 1456,-187.5 1539,-187.5 1539,-168.5 1456,-168.5"/>
<text text-anchor="middle" x="1497.5" y="-175.5" font-family="Helvetica,sans-Serif" font-size="10.00">dji_camera.hpp</text>
</a>
</g>
</g>
<!-- Node5&#45;&gt;Node12 -->
<g id="edge12" class="edge"><title>Node5&#45;&gt;Node12</title>
<path fill="none" stroke="midnightblue" d="M944.236,-341.698C997.96,-336.566 1094.99,-324.591 1174.5,-300 1194.64,-293.772 1197.38,-286.272 1217.5,-280 1308.32,-251.689 1343.35,-286.428 1428.5,-244 1451.4,-232.588 1471.94,-211.061 1484.53,-195.915"/>
<polygon fill="midnightblue" stroke="midnightblue" points="1487.47,-197.852 1490.99,-187.86 1482,-193.474 1487.47,-197.852"/>
</g>
<!-- Node13 -->
<g id="node13" class="node"><title>Node13</title>
<g id="a_node13"><a xlink:href="dji__command_8hpp.html" target="_top" xlink:title="All DJI OSDK OpenProtocol Command IDs. ">
<polygon fill="white" stroke="black" points="1313,-112.5 1313,-131.5 1406,-131.5 1406,-112.5 1313,-112.5"/>
<text text-anchor="middle" x="1359.5" y="-119.5" font-family="Helvetica,sans-Serif" font-size="10.00">dji_command.hpp</text>
</a>
</g>
</g>
<!-- Node5&#45;&gt;Node13 -->
<g id="edge19" class="edge"><title>Node5&#45;&gt;Node13</title>
<path fill="none" stroke="midnightblue" d="M944.09,-344.64C1122.59,-342.864 1830.34,-333.708 1862.5,-300 1996.35,-159.725 1574.52,-130.504 1416.65,-124.515"/>
<polygon fill="midnightblue" stroke="midnightblue" points="1416.32,-121 1406.2,-124.138 1416.06,-127.996 1416.32,-121"/>
</g>
<!-- Node15 -->
<g id="node15" class="node"><title>Node15</title>
<polygon fill="white" stroke="#bfbfbf" points="1226.5,-280.5 1226.5,-299.5 1338.5,-299.5 1338.5,-280.5 1226.5,-280.5"/>
<text text-anchor="middle" x="1282.5" y="-287.5" font-family="Helvetica,sans-Serif" font-size="10.00">dji_circular_buffer.hpp</text>
</g>
<!-- Node5&#45;&gt;Node15 -->
<g id="edge18" class="edge"><title>Node5&#45;&gt;Node15</title>
<path fill="none" stroke="midnightblue" d="M944.06,-339.221C1009.12,-329.951 1137.46,-311.666 1216.05,-300.468"/>
<polygon fill="midnightblue" stroke="midnightblue" points="1216.92,-303.88 1226.32,-299.004 1215.93,-296.95 1216.92,-303.88"/>
</g>
<!-- Node16 -->
<g id="node16" class="node"><title>Node16</title>
<g id="a_node16"><a xlink:href="dji__control_8hpp.html" target="_top" xlink:title="Control API for DJI OSDK library. ">
<polygon fill="white" stroke="black" points="721.5,-280.5 721.5,-299.5 801.5,-299.5 801.5,-280.5 721.5,-280.5"/>
<text text-anchor="middle" x="761.5" y="-287.5" font-family="Helvetica,sans-Serif" font-size="10.00">dji_control.hpp</text>
</a>
</g>
</g>
<!-- Node5&#45;&gt;Node16 -->
<g id="edge20" class="edge"><title>Node5&#45;&gt;Node16</title>
<path fill="none" stroke="midnightblue" d="M881,-336.444C857.423,-327.478 820.178,-313.314 793.536,-303.183"/>
<polygon fill="midnightblue" stroke="midnightblue" points="794.486,-299.8 783.895,-299.516 791.998,-306.342 794.486,-299.8"/>
</g>
<!-- Node19 -->
<g id="node19" class="node"><title>Node19</title>
<g id="a_node19"><a xlink:href="dji__version_8hpp.html" target="_top" xlink:title="Drone/SDK Version definition for DJI onboardSDK library. ">
<polygon fill="white" stroke="black" points="857.5,-168.5 857.5,-187.5 939.5,-187.5 939.5,-168.5 857.5,-168.5"/>
<text text-anchor="middle" x="898.5" y="-175.5" font-family="Helvetica,sans-Serif" font-size="10.00">dji_version.hpp</text>
</a>
</g>
</g>
<!-- Node5&#45;&gt;Node19 -->
<g id="edge64" class="edge"><title>Node5&#45;&gt;Node19</title>
<path fill="none" stroke="midnightblue" d="M886.867,-336.464C874.012,-328.841 857.161,-316.356 849.5,-300 832.291,-263.258 863.11,-218.734 883.203,-195.278"/>
<polygon fill="midnightblue" stroke="midnightblue" points="885.968,-197.436 890.011,-187.643 880.743,-192.777 885.968,-197.436"/>
</g>
<!-- Node21 -->
<g id="node21" class="node"><title>Node21</title>
<g id="a_node21"><a xlink:href="dji__gimbal_8hpp.html" target="_top" xlink:title="Gimbal API for OSDK library. ">
<polygon fill="white" stroke="black" points="1557,-168.5 1557,-187.5 1636,-187.5 1636,-168.5 1557,-168.5"/>
<text text-anchor="middle" x="1596.5" y="-175.5" font-family="Helvetica,sans-Serif" font-size="10.00">dji_gimbal.hpp</text>
</a>
</g>
</g>
<!-- Node5&#45;&gt;Node21 -->
<g id="edge33" class="edge"><title>Node5&#45;&gt;Node21</title>
<path fill="none" stroke="midnightblue" d="M944.171,-344.599C1120.57,-342.667 1812.04,-333.001 1843.5,-300 1906.95,-233.439 1735.16,-198.547 1646.15,-185.344"/>
<polygon fill="midnightblue" stroke="midnightblue" points="1646.64,-181.879 1636.25,-183.914 1645.64,-188.807 1646.64,-181.879"/>
</g>
<!-- Node22 -->
<g id="node22" class="node"><title>Node22</title>
<polygon fill="white" stroke="#bfbfbf" points="1356.5,-280.5 1356.5,-299.5 1454.5,-299.5 1454.5,-280.5 1356.5,-280.5"/>
<text text-anchor="middle" x="1405.5" y="-287.5" font-family="Helvetica,sans-Serif" font-size="10.00">dji_hard_driver.hpp</text>
</g>
<!-- Node5&#45;&gt;Node22 -->
<g id="edge36" class="edge"><title>Node5&#45;&gt;Node22</title>
<path fill="none" stroke="midnightblue" d="M944.291,-341.593C1020.92,-335.036 1191.82,-319.665 1346.33,-300.089"/>
<polygon fill="midnightblue" stroke="midnightblue" points="1347,-303.531 1356.48,-298.794 1346.12,-296.588 1347,-303.531"/>
</g>
<!-- Node23 -->
<g id="node23" class="node"><title>Node23</title>
<g id="a_node23"><a xlink:href="dji__hardware__sync_8hpp.html" target="_top" xlink:title="Hardware Sync API for DJI OSDK. ">
<polygon fill="white" stroke="black" points="1059.5,-224.5 1059.5,-243.5 1175.5,-243.5 1175.5,-224.5 1059.5,-224.5"/>
<text text-anchor="middle" x="1117.5" y="-231.5" font-family="Helvetica,sans-Serif" font-size="10.00">dji_hardware_sync.hpp</text>
</a>
</g>
</g>
<!-- Node5&#45;&gt;Node23 -->
<g id="edge37" class="edge"><title>Node5&#45;&gt;Node23</title>
<path fill="none" stroke="midnightblue" d="M913.681,-336.443C930.059,-323.002 963.653,-296.752 995.5,-280 1021.93,-266.099 1053.62,-254.549 1078.07,-246.632"/>
<polygon fill="midnightblue" stroke="midnightblue" points="1079.26,-249.927 1087.74,-243.57 1077.15,-243.254 1079.26,-249.927"/>
</g>
<!-- Node24 -->
<g id="node24" class="node"><title>Node24</title>
<g id="a_node24"><a xlink:href="dji__mfio_8hpp.html" target="_top" xlink:title="MFIO API for DJI OSDK library. ">
<polygon fill="white" stroke="black" points="291,-224.5 291,-243.5 360,-243.5 360,-224.5 291,-224.5"/>
<text text-anchor="middle" x="325.5" y="-231.5" font-family="Helvetica,sans-Serif" font-size="10.00">dji_mfio.hpp</text>
</a>
</g>
</g>
<!-- Node5&#45;&gt;Node24 -->
<g id="edge39" class="edge"><title>Node5&#45;&gt;Node24</title>
<path fill="none" stroke="midnightblue" d="M862.821,-345.277C784.46,-344.842 607.746,-339.142 465.5,-300 422.28,-288.107 375.767,-264.004 348.718,-248.725"/>
<polygon fill="midnightblue" stroke="midnightblue" points="350.415,-245.663 339.999,-243.723 346.932,-251.735 350.415,-245.663"/>
</g>
<!-- Node25 -->
<g id="node25" class="node"><title>Node25</title>
<g id="a_node25"><a xlink:href="dji__mission__manager_8hpp.html" target="_top" xlink:title="Mission&#45;Manager API for DJI OSDK library. ">
<polygon fill="white" stroke="black" points="1005,-280.5 1005,-299.5 1132,-299.5 1132,-280.5 1005,-280.5"/>
<text text-anchor="middle" x="1068.5" y="-287.5" font-family="Helvetica,sans-Serif" font-size="10.00">dji_mission_manager.hpp</text>
</a>
</g>
</g>
<!-- Node5&#45;&gt;Node25 -->
<g id="edge41" class="edge"><title>Node5&#45;&gt;Node25</title>
<path fill="none" stroke="midnightblue" d="M929.645,-336.444C957.523,-327.32 1001.85,-312.813 1032.9,-302.651"/>
<polygon fill="midnightblue" stroke="midnightblue" points="1034.06,-305.953 1042.48,-299.516 1031.88,-299.3 1034.06,-305.953"/>
</g>
<!-- Node29 -->
<g id="node29" class="node"><title>Node29</title>
<g id="a_node29"><a xlink:href="dji__mobile__communication_8hpp.html" target="_top" xlink:title="Implementation of DJI Mobile&#45;Onboard SDK Communication (MOC) ">
<polygon fill="white" stroke="black" points="187.5,-280.5 187.5,-299.5 337.5,-299.5 337.5,-280.5 187.5,-280.5"/>
<text text-anchor="middle" x="262.5" y="-287.5" font-family="Helvetica,sans-Serif" font-size="10.00">dji_mobile_communication.hpp</text>
</a>
</g>
</g>
<!-- Node5&#45;&gt;Node29 -->
<g id="edge50" class="edge"><title>Node5&#45;&gt;Node29</title>
<path fill="none" stroke="midnightblue" d="M862.894,-341.596C773.533,-334.101 553.097,-315.6 368.5,-300 361.823,-299.436 354.91,-298.851 347.961,-298.262"/>
<polygon fill="midnightblue" stroke="midnightblue" points="348.038,-294.756 337.778,-297.399 347.447,-301.731 348.038,-294.756"/>
</g>
<!-- Node31 -->
<g id="node31" class="node"><title>Node31</title>
<polygon fill="white" stroke="#bfbfbf" points="1472.5,-280.5 1472.5,-299.5 1600.5,-299.5 1600.5,-280.5 1472.5,-280.5"/>
<text text-anchor="middle" x="1536.5" y="-287.5" font-family="Helvetica,sans-Serif" font-size="10.00">dji_platform_manager.hpp</text>
</g>
<!-- Node5&#45;&gt;Node31 -->
<g id="edge55" class="edge"><title>Node5&#45;&gt;Node31</title>
<path fill="none" stroke="midnightblue" d="M944.308,-342.318C1035.26,-336.21 1261.75,-320.292 1462.29,-300.083"/>
<polygon fill="midnightblue" stroke="midnightblue" points="1462.83,-303.547 1472.42,-299.056 1462.12,-296.582 1462.83,-303.547"/>
</g>
<!-- Node32 -->
<g id="node32" class="node"><title>Node32</title>
<g id="a_node32"><a xlink:href="dji__status_8hpp.html" target="_top" xlink:title="Status information for DJI Vehicle. ">
<polygon fill="white" stroke="black" points="1619,-280.5 1619,-299.5 1696,-299.5 1696,-280.5 1619,-280.5"/>
<text text-anchor="middle" x="1657.5" y="-287.5" font-family="Helvetica,sans-Serif" font-size="10.00">dji_status.hpp</text>
</a>
</g>
</g>
<!-- Node5&#45;&gt;Node32 -->
<g id="edge56" class="edge"><title>Node5&#45;&gt;Node32</title>
<path fill="none" stroke="midnightblue" d="M944.253,-344.136C1051.43,-341.494 1350.13,-331.746 1608.83,-299.915"/>
<polygon fill="midnightblue" stroke="midnightblue" points="1609.3,-303.384 1618.79,-298.676 1608.44,-296.438 1609.3,-303.384"/>
</g>
<!-- Node33 -->
<g id="node33" class="node"><title>Node33</title>
<g id="a_node33"><a xlink:href="dji__subscription_8hpp.html" target="_top" xlink:title="Telemetry Subscription API for DJI OSDK library. ">
<polygon fill="white" stroke="black" points="378,-224.5 378,-243.5 481,-243.5 481,-224.5 378,-224.5"/>
<text text-anchor="middle" x="429.5" y="-231.5" font-family="Helvetica,sans-Serif" font-size="10.00">dji_subscription.hpp</text>
</a>
</g>
</g>
<!-- Node5&#45;&gt;Node33 -->
<g id="edge57" class="edge"><title>Node5&#45;&gt;Node33</title>
<path fill="none" stroke="midnightblue" d="M862.71,-343.875C772.681,-340.853 559.859,-330.599 495.5,-300 472.674,-289.148 453.001,-267.124 441.211,-251.734"/>
<polygon fill="midnightblue" stroke="midnightblue" points="443.958,-249.561 435.217,-243.574 438.316,-253.705 443.958,-249.561"/>
</g>
<!-- Node34 -->
<g id="node34" class="node"><title>Node34</title>
<polygon fill="white" stroke="#bfbfbf" points="1714.5,-280.5 1714.5,-299.5 1834.5,-299.5 1834.5,-280.5 1714.5,-280.5"/>
<text text-anchor="middle" x="1774.5" y="-287.5" font-family="Helvetica,sans-Serif" font-size="10.00">dji_thread_manager.hpp</text>
</g>
<!-- Node5&#45;&gt;Node34 -->
<g id="edge61" class="edge"><title>Node5&#45;&gt;Node34</title>
<path fill="none" stroke="midnightblue" d="M944.054,-343.781C1060.55,-340.053 1406.37,-327.416 1704.19,-300.053"/>
<polygon fill="midnightblue" stroke="midnightblue" points="1704.68,-303.522 1714.32,-299.115 1704.04,-296.552 1704.68,-303.522"/>
</g>
<!-- Node35 -->
<g id="node35" class="node"><title>Node35</title>
<g id="a_node35"><a xlink:href="dji__virtual__rc_8hpp.html" target="_top" xlink:title="Virtual Radio Control API for DJI onboardSDK library. ">
<polygon fill="white" stroke="black" points="858.5,-280.5 858.5,-299.5 948.5,-299.5 948.5,-280.5 858.5,-280.5"/>
<text text-anchor="middle" x="903.5" y="-287.5" font-family="Helvetica,sans-Serif" font-size="10.00">dji_virtual_rc.hpp</text>
</a>
</g>
</g>
<!-- Node5&#45;&gt;Node35 -->
<g id="edge65" class="edge"><title>Node5&#45;&gt;Node35</title>
<path fill="none" stroke="midnightblue" d="M903.5,-336.083C903.5,-329.006 903.5,-318.861 903.5,-309.986"/>
<polygon fill="midnightblue" stroke="midnightblue" points="907,-309.751 903.5,-299.751 900,-309.751 907,-309.751"/>
</g>
<!-- Node7&#45;&gt;Node3 -->
<g id="edge11" class="edge"><title>Node7&#45;&gt;Node3</title>
<path fill="none" stroke="midnightblue" d="M602.255,-224.368C556.946,-205.051 447.199,-158.259 394.165,-135.648"/>
<polygon fill="midnightblue" stroke="midnightblue" points="395.222,-132.294 384.651,-131.591 392.477,-138.733 395.222,-132.294"/>
</g>
<!-- Node8 -->
<g id="node8" class="node"><title>Node8</title>
<g id="a_node8"><a xlink:href="dji__telemetry_8hpp.html" target="_top" xlink:title="Enumeration of all telemetry data types, structures and maps. ">
<polygon fill="white" stroke="black" points="672,-168.5 672,-187.5 763,-187.5 763,-168.5 672,-168.5"/>
<text text-anchor="middle" x="717.5" y="-175.5" font-family="Helvetica,sans-Serif" font-size="10.00">dji_telemetry.hpp</text>
</a>
</g>
</g>
<!-- Node7&#45;&gt;Node8 -->
<g id="edge7" class="edge"><title>Node7&#45;&gt;Node8</title>
<path fill="none" stroke="midnightblue" d="M637.763,-224.324C652.721,-215.822 675.755,-202.729 693.227,-192.797"/>
<polygon fill="midnightblue" stroke="midnightblue" points="695.31,-195.639 702.274,-187.655 691.851,-189.553 695.31,-195.639"/>
</g>
<!-- Node8&#45;&gt;Node9 -->
<g id="edge8" class="edge"><title>Node8&#45;&gt;Node9</title>
<path fill="none" stroke="midnightblue" d="M763.005,-169.943C767.894,-169.254 772.797,-168.592 777.5,-168 922.334,-149.775 1094.59,-133.903 1174.56,-126.865"/>
<polygon fill="midnightblue" stroke="midnightblue" points="1175.11,-130.331 1184.77,-125.971 1174.5,-123.358 1175.11,-130.331"/>
</g>
<!-- Node10 -->
<g id="node10" class="node"><title>Node10</title>
<polygon fill="white" stroke="#bfbfbf" points="1194,-56.5 1194,-75.5 1237,-75.5 1237,-56.5 1194,-56.5"/>
<text text-anchor="middle" x="1215.5" y="-63.5" font-family="Helvetica,sans-Serif" font-size="10.00">cstdio</text>
</g>
<!-- Node9&#45;&gt;Node10 -->
<g id="edge9" class="edge"><title>Node9&#45;&gt;Node10</title>
<path fill="none" stroke="midnightblue" d="M1218.84,-112.083C1218.32,-105.006 1217.56,-94.8611 1216.91,-85.9865"/>
<polygon fill="midnightblue" stroke="midnightblue" points="1220.38,-85.4652 1216.15,-75.7511 1213.4,-85.9823 1220.38,-85.4652"/>
</g>
<!-- Node11 -->
<g id="node11" class="node"><title>Node11</title>
<polygon fill="white" stroke="#bfbfbf" points="1279,-0.5 1279,-19.5 1328,-19.5 1328,-0.5 1279,-0.5"/>
<text text-anchor="middle" x="1303.5" y="-7.5" font-family="Helvetica,sans-Serif" font-size="10.00">stdint.h</text>
</g>
<!-- Node9&#45;&gt;Node11 -->
<g id="edge10" class="edge"><title>Node9&#45;&gt;Node11</title>
<path fill="none" stroke="midnightblue" d="M1226.09,-112.368C1240.02,-94.135 1272.63,-51.4257 1290.77,-27.6752"/>
<polygon fill="midnightblue" stroke="midnightblue" points="1293.65,-29.6633 1296.94,-19.5914 1288.09,-25.4149 1293.65,-29.6633"/>
</g>
<!-- Node12&#45;&gt;Node9 -->
<g id="edge17" class="edge"><title>Node12&#45;&gt;Node9</title>
<path fill="none" stroke="midnightblue" d="M1455.88,-168.916C1404.48,-158.93 1317.36,-142.009 1264.46,-131.734"/>
<polygon fill="midnightblue" stroke="midnightblue" points="1264.84,-128.242 1254.36,-129.771 1263.51,-135.114 1264.84,-128.242"/>
</g>
<!-- Node12&#45;&gt;Node13 -->
<g id="edge13" class="edge"><title>Node12&#45;&gt;Node13</title>
<path fill="none" stroke="midnightblue" d="M1475.63,-168.444C1452.72,-159.478 1416.52,-145.314 1390.63,-135.183"/>
<polygon fill="midnightblue" stroke="midnightblue" points="1391.85,-131.901 1381.26,-131.516 1389.3,-138.42 1391.85,-131.901"/>
</g>
<!-- Node13&#45;&gt;Node11 -->
<g id="edge16" class="edge"><title>Node13&#45;&gt;Node11</title>
<path fill="none" stroke="midnightblue" d="M1350.67,-112.477C1342.31,-103.958 1329.97,-90.1281 1322.5,-76 1314.77,-61.3832 1309.8,-43.2113 1306.89,-29.8006"/>
<polygon fill="midnightblue" stroke="midnightblue" points="1310.29,-28.9657 1304.91,-19.838 1303.43,-30.3279 1310.29,-28.9657"/>
</g>
<!-- Node14 -->
<g id="node14" class="node"><title>Node14</title>
<g id="a_node14"><a xlink:href="dji__error_8hpp.html" target="_top" xlink:title="All DJI OSDK OpenProtocol ACK Error Codes. ">
<polygon fill="white" stroke="black" points="1331.5,-56.5 1331.5,-75.5 1401.5,-75.5 1401.5,-56.5 1331.5,-56.5"/>
<text text-anchor="middle" x="1366.5" y="-63.5" font-family="Helvetica,sans-Serif" font-size="10.00">dji_error.hpp</text>
</a>
</g>
</g>
<!-- Node13&#45;&gt;Node14 -->
<g id="edge14" class="edge"><title>Node13&#45;&gt;Node14</title>
<path fill="none" stroke="midnightblue" d="M1360.66,-112.083C1361.58,-104.927 1362.92,-94.6353 1364.08,-85.6911"/>
<polygon fill="midnightblue" stroke="midnightblue" points="1367.55,-86.1181 1365.37,-75.7511 1360.61,-85.2181 1367.55,-86.1181"/>
</g>
<!-- Node14&#45;&gt;Node11 -->
<g id="edge15" class="edge"><title>Node14&#45;&gt;Node11</title>
<path fill="none" stroke="midnightblue" d="M1356.38,-56.324C1346.97,-48.2631 1332.76,-36.0765 1321.43,-26.3695"/>
<polygon fill="midnightblue" stroke="midnightblue" points="1323.68,-23.6844 1313.81,-19.8339 1319.12,-28.9993 1323.68,-23.6844"/>
</g>
<!-- Node16&#45;&gt;Node3 -->
<g id="edge32" class="edge"><title>Node16&#45;&gt;Node3</title>
<path fill="none" stroke="midnightblue" d="M752.414,-280.245C737.748,-266.534 707.462,-239.92 677.5,-224 591.107,-178.097 480.154,-148.397 416.213,-133.772"/>
<polygon fill="midnightblue" stroke="midnightblue" points="416.891,-130.337 406.366,-131.554 415.353,-137.166 416.891,-130.337"/>
</g>
<!-- Node16&#45;&gt;Node4 -->
<g id="edge30" class="edge"><title>Node16&#45;&gt;Node4</title>
<path fill="none" stroke="midnightblue" d="M754.852,-280.149C744.954,-267.214 725.47,-242.659 706.5,-224 688.487,-206.282 680.424,-205.809 662.5,-188 631.377,-157.076 634.777,-138.086 599.5,-112 579.479,-97.1952 553.868,-86.2506 532.611,-78.8639"/>
<polygon fill="midnightblue" stroke="midnightblue" points="533.473,-75.4618 522.879,-75.621 531.26,-82.1029 533.473,-75.4618"/>
</g>
<!-- Node16&#45;&gt;Node9 -->
<g id="edge31" class="edge"><title>Node16&#45;&gt;Node9</title>
<path fill="none" stroke="midnightblue" d="M764.775,-280.394C773.97,-257.549 802.4,-195.263 848.5,-168 902.769,-135.906 1088.46,-126.606 1174.76,-123.988"/>
<polygon fill="midnightblue" stroke="midnightblue" points="1174.88,-127.487 1184.77,-123.701 1174.68,-120.489 1174.88,-127.487"/>
</g>
<!-- Node17 -->
<g id="node17" class="node"><title>Node17</title>
<g id="a_node17"><a xlink:href="dji__ack_8hpp.html" target="_top" xlink:title="All DJI OSDK ACK parsing. ">
<polygon fill="white" stroke="black" points="937.5,-224.5 937.5,-243.5 1003.5,-243.5 1003.5,-224.5 937.5,-224.5"/>
<text text-anchor="middle" x="970.5" y="-231.5" font-family="Helvetica,sans-Serif" font-size="10.00">dji_ack.hpp</text>
</a>
</g>
</g>
<!-- Node16&#45;&gt;Node17 -->
<g id="edge21" class="edge"><title>Node16&#45;&gt;Node17</title>
<path fill="none" stroke="midnightblue" d="M794.617,-280.444C830.618,-271.142 888.27,-256.246 927.686,-246.062"/>
<polygon fill="midnightblue" stroke="midnightblue" points="928.732,-249.407 937.538,-243.516 926.981,-242.629 928.732,-249.407"/>
</g>
<!-- Node17&#45;&gt;Node9 -->
<g id="edge25" class="edge"><title>Node17&#45;&gt;Node9</title>
<path fill="none" stroke="midnightblue" d="M977.258,-224.379C988.722,-210.361 1013.39,-182.716 1040.5,-168 1082.84,-145.013 1137.2,-133.505 1174.85,-127.921"/>
<polygon fill="midnightblue" stroke="midnightblue" points="1175.58,-131.353 1185,-126.499 1174.61,-124.42 1175.58,-131.353"/>
</g>
<!-- Node17&#45;&gt;Node13 -->
<g id="edge22" class="edge"><title>Node17&#45;&gt;Node13</title>
<path fill="none" stroke="midnightblue" d="M1003.7,-226.426C1042.89,-218.426 1109.89,-203.99 1166.5,-188 1223.66,-171.856 1288.91,-148.91 1327.02,-135.041"/>
<polygon fill="midnightblue" stroke="midnightblue" points="1328.37,-138.274 1336.56,-131.552 1325.96,-131.7 1328.37,-138.274"/>
</g>
<!-- Node18 -->
<g id="node18" class="node"><title>Node18</title>
<g id="a_node18"><a xlink:href="dji__mission__type_8hpp.html" target="_top" xlink:title="Mission related data struct for DJI OSDK library. ">
<polygon fill="white" stroke="black" points="1049.5,-168.5 1049.5,-187.5 1157.5,-187.5 1157.5,-168.5 1049.5,-168.5"/>
<text text-anchor="middle" x="1103.5" y="-175.5" font-family="Helvetica,sans-Serif" font-size="10.00">dji_mission_type.hpp</text>
</a>
</g>
</g>
<!-- Node17&#45;&gt;Node18 -->
<g id="edge23" class="edge"><title>Node17&#45;&gt;Node18</title>
<path fill="none" stroke="midnightblue" d="M991.574,-224.444C1013.56,-215.517 1048.23,-201.439 1073.16,-191.317"/>
<polygon fill="midnightblue" stroke="midnightblue" points="1074.58,-194.521 1082.52,-187.516 1071.94,-188.035 1074.58,-194.521"/>
</g>
<!-- Node17&#45;&gt;Node19 -->
<g id="edge26" class="edge"><title>Node17&#45;&gt;Node19</title>
<path fill="none" stroke="midnightblue" d="M958.932,-224.324C948.08,-216.185 931.619,-203.839 918.617,-194.087"/>
<polygon fill="midnightblue" stroke="midnightblue" points="920.379,-191.034 910.279,-187.834 916.179,-196.634 920.379,-191.034"/>
</g>
<!-- Node20 -->
<g id="node20" class="node"><title>Node20</title>
<polygon fill="white" stroke="#bfbfbf" points="958,-168.5 958,-187.5 993,-187.5 993,-168.5 958,-168.5"/>
<text text-anchor="middle" x="975.5" y="-175.5" font-family="Helvetica,sans-Serif" font-size="10.00">map</text>
</g>
<!-- Node17&#45;&gt;Node20 -->
<g id="edge29" class="edge"><title>Node17&#45;&gt;Node20</title>
<path fill="none" stroke="midnightblue" d="M971.326,-224.083C971.981,-217.006 972.92,-206.861 973.742,-197.986"/>
<polygon fill="midnightblue" stroke="midnightblue" points="977.253,-198.031 974.69,-187.751 970.283,-197.386 977.253,-198.031"/>
</g>
<!-- Node18&#45;&gt;Node9 -->
<g id="edge24" class="edge"><title>Node18&#45;&gt;Node9</title>
<path fill="none" stroke="midnightblue" d="M1121.88,-168.444C1140.72,-159.675 1170.23,-145.935 1191.88,-135.858"/>
<polygon fill="midnightblue" stroke="midnightblue" points="1193.62,-138.91 1201.21,-131.516 1190.66,-132.564 1193.62,-138.91"/>
</g>
<!-- Node19&#45;&gt;Node6 -->
<g id="edge28" class="edge"><title>Node19&#45;&gt;Node6</title>
<path fill="none" stroke="midnightblue" d="M857.248,-170.27C790.873,-159.441 661.663,-138.362 600.769,-128.428"/>
<polygon fill="midnightblue" stroke="midnightblue" points="601.001,-124.919 590.568,-126.763 599.874,-131.828 601.001,-124.919"/>
</g>
<!-- Node19&#45;&gt;Node13 -->
<g id="edge27" class="edge"><title>Node19&#45;&gt;Node13</title>
<path fill="none" stroke="midnightblue" d="M939.664,-169.358C942.65,-168.875 945.619,-168.416 948.5,-168 1015.42,-158.326 1206.41,-138.521 1302.64,-128.735"/>
<polygon fill="midnightblue" stroke="midnightblue" points="1303.17,-132.198 1312.77,-127.706 1302.46,-125.234 1303.17,-132.198"/>
</g>
<!-- Node21&#45;&gt;Node9 -->
<g id="edge35" class="edge"><title>Node21&#45;&gt;Node9</title>
<path fill="none" stroke="midnightblue" d="M1556.95,-169.576C1553.75,-169.025 1550.57,-168.493 1547.5,-168 1446.43,-151.794 1327.25,-136.358 1264.07,-128.464"/>
<polygon fill="midnightblue" stroke="midnightblue" points="1264.4,-124.979 1254.05,-127.217 1263.54,-131.926 1264.4,-124.979"/>
</g>
<!-- Node21&#45;&gt;Node13 -->
<g id="edge34" class="edge"><title>Node21&#45;&gt;Node13</title>
<path fill="none" stroke="midnightblue" d="M1558.95,-168.444C1517.69,-159.043 1451.36,-143.929 1406.63,-133.739"/>
<polygon fill="midnightblue" stroke="midnightblue" points="1407.41,-130.326 1396.88,-131.516 1405.85,-137.151 1407.41,-130.326"/>
</g>
<!-- Node23&#45;&gt;Node9 -->
<g id="edge38" class="edge"><title>Node23&#45;&gt;Node9</title>
<path fill="none" stroke="midnightblue" d="M1144.29,-224.359C1162.29,-217.262 1185.24,-205.499 1199.5,-188 1210.33,-174.711 1215.31,-155.588 1217.59,-141.523"/>
<polygon fill="midnightblue" stroke="midnightblue" points="1221.07,-141.907 1218.9,-131.536 1214.13,-140.995 1221.07,-141.907"/>
</g>
<!-- Node24&#45;&gt;Node3 -->
<g id="edge40" class="edge"><title>Node24&#45;&gt;Node3</title>
<path fill="none" stroke="midnightblue" d="M328.56,-224.368C334.882,-206.537 349.504,-165.295 358.022,-141.272"/>
<polygon fill="midnightblue" stroke="midnightblue" points="361.411,-142.186 361.454,-131.591 354.813,-139.847 361.411,-142.186"/>
</g>
<!-- Node26 -->
<g id="node26" class="node"><title>Node26</title>
<g id="a_node26"><a xlink:href="dji__hotpoint_8hpp.html" target="_top" xlink:title="Implementation of HotPoint (Point of Interest) Missions for DJI OSDK. ">
<polygon fill="white" stroke="black" points="1194,-224.5 1194,-243.5 1279,-243.5 1279,-224.5 1194,-224.5"/>
<text text-anchor="middle" x="1236.5" y="-231.5" font-family="Helvetica,sans-Serif" font-size="10.00">dji_hotpoint.hpp</text>
</a>
</g>
</g>
<!-- Node25&#45;&gt;Node26 -->
<g id="edge42" class="edge"><title>Node25&#45;&gt;Node26</title>
<path fill="none" stroke="midnightblue" d="M1095.12,-280.444C1123.51,-271.32 1168.64,-256.813 1200.25,-246.651"/>
<polygon fill="midnightblue" stroke="midnightblue" points="1201.56,-249.909 1210,-243.516 1199.41,-243.244 1201.56,-249.909"/>
</g>
<!-- Node28 -->
<g id="node28" class="node"><title>Node28</title>
<g id="a_node28"><a xlink:href="dji__waypoint_8hpp.html" target="_top" xlink:title="Implementation of GPS Waypoint Missions for DJI OSDK. ">
<polygon fill="white" stroke="black" points="1297,-224.5 1297,-243.5 1386,-243.5 1386,-224.5 1297,-224.5"/>
<text text-anchor="middle" x="1341.5" y="-231.5" font-family="Helvetica,sans-Serif" font-size="10.00">dji_waypoint.hpp</text>
</a>
</g>
</g>
<!-- Node25&#45;&gt;Node28 -->
<g id="edge48" class="edge"><title>Node25&#45;&gt;Node28</title>
<path fill="none" stroke="midnightblue" d="M1111.76,-280.444C1159.68,-270.964 1236.98,-255.675 1288.5,-245.483"/>
<polygon fill="midnightblue" stroke="midnightblue" points="1289.31,-248.89 1298.44,-243.516 1287.96,-242.023 1289.31,-248.89"/>
</g>
<!-- Node26&#45;&gt;Node8 -->
<g id="edge47" class="edge"><title>Node26&#45;&gt;Node8</title>
<path fill="none" stroke="midnightblue" d="M1193.97,-225.371C1190.77,-224.879 1187.59,-224.415 1184.5,-224 1036.38,-204.075 860.683,-189.595 773.03,-182.99"/>
<polygon fill="midnightblue" stroke="midnightblue" points="773.273,-179.499 763.04,-182.243 772.751,-186.479 773.273,-179.499"/>
</g>
<!-- Node27 -->
<g id="node27" class="node"><title>Node27</title>
<g id="a_node27"><a xlink:href="dji__mission__base_8hpp.html" target="_top" xlink:title="Mission&#45;Base abstract class for DJI OSDK library. ">
<polygon fill="white" stroke="black" points="1289.5,-168.5 1289.5,-187.5 1399.5,-187.5 1399.5,-168.5 1289.5,-168.5"/>
<text text-anchor="middle" x="1344.5" y="-175.5" font-family="Helvetica,sans-Serif" font-size="10.00">dji_mission_base.hpp</text>
</a>
</g>
</g>
<!-- Node26&#45;&gt;Node27 -->
<g id="edge43" class="edge"><title>Node26&#45;&gt;Node27</title>
<path fill="none" stroke="midnightblue" d="M1253.85,-224.324C1271.17,-215.664 1298.02,-202.242 1318,-192.249"/>
<polygon fill="midnightblue" stroke="midnightblue" points="1319.81,-195.257 1327.19,-187.655 1316.68,-188.996 1319.81,-195.257"/>
</g>
<!-- Node27&#45;&gt;Node3 -->
<g id="edge46" class="edge"><title>Node27&#45;&gt;Node3</title>
<path fill="none" stroke="midnightblue" d="M1289.36,-173.962C1122.43,-164.763 622.6,-137.222 435.893,-126.934"/>
<polygon fill="midnightblue" stroke="midnightblue" points="435.821,-123.425 425.643,-126.369 435.436,-130.414 435.821,-123.425"/>
</g>
<!-- Node27&#45;&gt;Node9 -->
<g id="edge45" class="edge"><title>Node27&#45;&gt;Node9</title>
<path fill="none" stroke="midnightblue" d="M1324.69,-168.444C1304.21,-159.596 1272.02,-145.687 1248.64,-135.586"/>
<polygon fill="midnightblue" stroke="midnightblue" points="1249.78,-132.269 1239.21,-131.516 1247.01,-138.695 1249.78,-132.269"/>
</g>
<!-- Node27&#45;&gt;Node13 -->
<g id="edge44" class="edge"><title>Node27&#45;&gt;Node13</title>
<path fill="none" stroke="midnightblue" d="M1346.98,-168.083C1348.99,-160.849 1351.89,-150.409 1354.39,-141.397"/>
<polygon fill="midnightblue" stroke="midnightblue" points="1357.76,-142.323 1357.07,-131.751 1351.02,-140.449 1357.76,-142.323"/>
</g>
<!-- Node28&#45;&gt;Node27 -->
<g id="edge49" class="edge"><title>Node28&#45;&gt;Node27</title>
<path fill="none" stroke="midnightblue" d="M1342,-224.083C1342.39,-217.006 1342.95,-206.861 1343.45,-197.986"/>
<polygon fill="midnightblue" stroke="midnightblue" points="1346.95,-197.93 1344.01,-187.751 1339.96,-197.542 1346.95,-197.93"/>
</g>
<!-- Node29&#45;&gt;Node3 -->
<g id="edge52" class="edge"><title>Node29&#45;&gt;Node3</title>
<path fill="none" stroke="midnightblue" d="M263.915,-280.162C266.236,-267.245 271.613,-242.711 281.5,-224 299.314,-190.288 329.493,-157.326 348.135,-138.648"/>
<polygon fill="midnightblue" stroke="midnightblue" points="350.671,-141.063 355.349,-131.557 345.764,-136.071 350.671,-141.063"/>
</g>
<!-- Node30 -->
<g id="node30" class="node"><title>Node30</title>
<polygon fill="white" stroke="#bfbfbf" points="151,-224.5 151,-243.5 234,-243.5 234,-224.5 151,-224.5"/>
<text text-anchor="middle" x="192.5" y="-231.5" font-family="Helvetica,sans-Serif" font-size="10.00">dji_macros.hpp</text>
</g>
<!-- Node29&#45;&gt;Node30 -->
<g id="edge51" class="edge"><title>Node29&#45;&gt;Node30</title>
<path fill="none" stroke="midnightblue" d="M251.253,-280.324C240.703,-272.185 224.699,-259.839 212.058,-250.087"/>
<polygon fill="midnightblue" stroke="midnightblue" points="214.007,-247.171 203.951,-243.834 209.731,-252.713 214.007,-247.171"/>
</g>
<!-- Node33&#45;&gt;Node3 -->
<g id="edge60" class="edge"><title>Node33&#45;&gt;Node3</title>
<path fill="none" stroke="midnightblue" d="M424.4,-224.368C413.72,-206.296 388.832,-164.176 374.727,-140.307"/>
<polygon fill="midnightblue" stroke="midnightblue" points="377.677,-138.42 369.577,-131.591 371.651,-141.981 377.677,-138.42"/>
</g>
<!-- Node33&#45;&gt;Node4 -->
<g id="edge58" class="edge"><title>Node33&#45;&gt;Node4</title>
<path fill="none" stroke="midnightblue" d="M432.833,-224.075C442.635,-197.832 471.501,-120.545 484.734,-85.1165"/>
<polygon fill="midnightblue" stroke="midnightblue" points="488.08,-86.1607 488.3,-75.5681 481.522,-83.7114 488.08,-86.1607"/>
</g>
<!-- Node33&#45;&gt;Node8 -->
<g id="edge59" class="edge"><title>Node33&#45;&gt;Node8</title>
<path fill="none" stroke="midnightblue" d="M475.134,-224.444C525.797,-214.944 607.575,-199.611 661.928,-189.42"/>
<polygon fill="midnightblue" stroke="midnightblue" points="662.895,-192.799 672.079,-187.516 661.605,-185.919 662.895,-192.799"/>
</g>
<!-- Node35&#45;&gt;Node4 -->
<g id="edge67" class="edge"><title>Node35&#45;&gt;Node4</title>
<path fill="none" stroke="midnightblue" d="M896.328,-280.492C877.753,-258.928 825.733,-201.472 771.5,-168 696.827,-121.913 598.025,-92.5282 539.957,-77.9654"/>
<polygon fill="midnightblue" stroke="midnightblue" points="540.498,-74.4944 529.952,-75.5022 538.825,-81.2914 540.498,-74.4944"/>
</g>
<!-- Node35&#45;&gt;Node8 -->
<g id="edge69" class="edge"><title>Node35&#45;&gt;Node8</title>
<path fill="none" stroke="midnightblue" d="M888.905,-280.368C856.851,-261.412 780.065,-216.001 741.075,-192.942"/>
<polygon fill="midnightblue" stroke="midnightblue" points="742.416,-189.669 732.027,-187.591 738.853,-195.694 742.416,-189.669"/>
</g>
<!-- Node35&#45;&gt;Node9 -->
<g id="edge68" class="edge"><title>Node35&#45;&gt;Node9</title>
<path fill="none" stroke="midnightblue" d="M925.891,-280.461C948.113,-271.822 983.021,-257.806 1012.5,-244 1029.78,-235.905 1032.87,-231.304 1050.5,-224 1100.37,-203.342 1121.76,-218.205 1166.5,-188 1184.91,-175.569 1200.2,-154.866 1209.55,-140.168"/>
<polygon fill="midnightblue" stroke="midnightblue" points="1212.61,-141.885 1214.81,-131.523 1206.63,-138.247 1212.61,-141.885"/>
</g>
<!-- Node35&#45;&gt;Node17 -->
<g id="edge66" class="edge"><title>Node35&#45;&gt;Node17</title>
<path fill="none" stroke="midnightblue" d="M914.265,-280.324C924.266,-272.263 939.387,-260.077 951.43,-250.369"/>
<polygon fill="midnightblue" stroke="midnightblue" points="953.95,-252.834 959.539,-243.834 949.557,-247.384 953.95,-252.834"/>
</g>
</g>
</svg>
