<?xml version="1.0" encoding="UTF-8" standalone="no"?>
<!DOCTYPE svg PUBLIC "-//W3C//DTD SVG 1.1//EN"
 "http://www.w3.org/Graphics/SVG/1.1/DTD/svg11.dtd">
<!-- Generated by graphviz version 2.38.0 (20140413.2041)
 -->
<!-- Title: osdk&#45;core/api/src/dji_control.cpp Pages: 1 -->
<!--zoomable 431 -->
<svg id="main" version="1.1" xmlns="http://www.w3.org/2000/svg" xmlns:xlink="http://www.w3.org/1999/xlink" xml:space="preserve" onload="init(evt)">
<style type="text/css"><![CDATA[
.edge:hover path { stroke: red; }
.edge:hover polygon { stroke: red; fill: red; }
]]></style>
<script type="text/javascript"><![CDATA[
var edges = document.getElementsByTagName('g');
if (edges && edges.length) {
  for (var i=0;i<edges.length;i++) {
    if (edges[i].id.substr(0,4)=='edge') {
      edges[i].setAttribute('class','edge');
    }
  }
}
]]></script>
        <defs>
                <circle id="rim" cx="0" cy="0" r="7"/>
                <circle id="rim2" cx="0" cy="0" r="3.5"/>
                <g id="zoomPlus">
                        <use xlink:href="#rim" fill="#404040">
                                <set attributeName="fill" to="#808080" begin="zoomplus.mouseover" end="zoomplus.mouseout"/>
                        </use>
                        <path d="M-4,0h8M0,-4v8" fill="none" stroke="white" stroke-width="1.5" pointer-events="none"/>
                </g>
                <g id="zoomMin">
                        <use xlink:href="#rim" fill="#404040">
                                <set attributeName="fill" to="#808080" begin="zoomminus.mouseover" end="zoomminus.mouseout"/>
                        </use>
                        <path d="M-4,0h8" fill="none" stroke="white" stroke-width="1.5" pointer-events="none"/>
                </g>
                <g id="dirArrow">
                        <path fill="none" stroke="white" stroke-width="1.5" d="M0,-3.0v7 M-2.5,-0.5L0,-3.0L2.5,-0.5"/>
                </g>
               <g id="resetDef">
                       <use xlink:href="#rim2" fill="#404040">
                               <set attributeName="fill" to="#808080" begin="reset.mouseover" end="reset.mouseout"/>
                       </use>
               </g>
        </defs>

<script type="text/javascript">
var viewWidth = 2035;
var viewHeight = 431;
var sectionId = 'dynsection-0';
</script>
<script xlink:href="svgpan.js"/>
<svg id="graph" class="graph">
<g id="viewport">
<title>osdk&#45;core/api/src/dji_control.cpp</title>
<polygon fill="white" stroke="none" points="-4,4 -4,-427 2030.64,-427 2030.64,4 -4,4"/>
<!-- Node0 -->
<g id="node1" class="node"><title>Node0</title>
<g id="a_node1"><a xlink:title="Control API for DJI OSDK library.">
<polygon fill="#bfbfbf" stroke="black" points="815,-392.5 815,-422.5 919,-422.5 919,-392.5 815,-392.5"/>
<text text-anchor="start" x="823" y="-410.5" font-family="Helvetica,sans-Serif" font-size="10.00">osdk&#45;core/api/src/dji</text>
<text text-anchor="middle" x="867" y="-399.5" font-family="Helvetica,sans-Serif" font-size="10.00">_control.cpp</text>
</a>
</g>
</g>
<!-- Node1 -->
<g id="node2" class="node"><title>Node1</title>
<g id="a_node2"><a xlink:href="dji__control_8hpp.html" target="_top" xlink:title="Control API for DJI OSDK library.">
<polygon fill="white" stroke="black" points="0,-280.5 0,-299.5 80,-299.5 80,-280.5 0,-280.5"/>
<text text-anchor="middle" x="40" y="-287.5" font-family="Helvetica,sans-Serif" font-size="10.00">dji_control.hpp</text>
</a>
</g>
</g>
<!-- Node0&#45;&gt;Node1 -->
<g id="edge1" class="edge"><title>Node0&#45;&gt;Node1</title>
<path fill="none" stroke="midnightblue" d="M814.902,-399.839C690.22,-383.784 364.867,-341.223 94,-300 92.7315,-299.807 91.4467,-299.609 90.1507,-299.408"/>
<polygon fill="midnightblue" stroke="midnightblue" points="90.5095,-295.921 80.0844,-297.81 89.412,-302.835 90.5095,-295.921"/>
</g>
<!-- Node14 -->
<g id="node15" class="node"><title>Node14</title>
<g id="a_node15"><a xlink:href="dji__vehicle_8hpp.html" target="_top" xlink:title="Vehicle API for DJI onboardSDK library.">
<polygon fill="white" stroke="black" points="1112.5,-336.5 1112.5,-355.5 1193.5,-355.5 1193.5,-336.5 1112.5,-336.5"/>
<text text-anchor="middle" x="1153" y="-343.5" font-family="Helvetica,sans-Serif" font-size="10.00">dji_vehicle.hpp</text>
</a>
</g>
</g>
<!-- Node0&#45;&gt;Node14 -->
<g id="edge20" class="edge"><title>Node0&#45;&gt;Node14</title>
<path fill="none" stroke="midnightblue" d="M919.124,-395.656C971.236,-384.815 1050.84,-368.254 1102.4,-357.526"/>
<polygon fill="midnightblue" stroke="midnightblue" points="1103.25,-360.925 1112.33,-355.462 1101.82,-354.072 1103.25,-360.925"/>
</g>
<!-- Node2 -->
<g id="node3" class="node"><title>Node2</title>
<g id="a_node3"><a xlink:href="dji__ack_8hpp.html" target="_top" xlink:title="All DJI OSDK ACK parsing.">
<polygon fill="white" stroke="black" points="247,-224.5 247,-243.5 313,-243.5 313,-224.5 247,-224.5"/>
<text text-anchor="middle" x="280" y="-231.5" font-family="Helvetica,sans-Serif" font-size="10.00">dji_ack.hpp</text>
</a>
</g>
</g>
<!-- Node1&#45;&gt;Node2 -->
<g id="edge2" class="edge"><title>Node1&#45;&gt;Node2</title>
<path fill="none" stroke="midnightblue" d="M78.0287,-280.444C121.283,-270.711 191.755,-254.855 236.981,-244.679"/>
<polygon fill="midnightblue" stroke="midnightblue" points="237.799,-248.083 246.787,-242.473 236.262,-241.254 237.799,-248.083"/>
</g>
<!-- Node7 -->
<g id="node8" class="node"><title>Node7</title>
<g id="a_node8"><a xlink:href="dji__type_8hpp.html" target="_top" xlink:title="Data type and Data Structure definitions for use throughout DJI OSDK.">
<polygon fill="white" stroke="black" points="378.5,-112.5 378.5,-131.5 447.5,-131.5 447.5,-112.5 378.5,-112.5"/>
<text text-anchor="middle" x="413" y="-119.5" font-family="Helvetica,sans-Serif" font-size="10.00">dji_type.hpp</text>
</a>
</g>
</g>
<!-- Node1&#45;&gt;Node7 -->
<g id="edge17" class="edge"><title>Node1&#45;&gt;Node7</title>
<path fill="none" stroke="midnightblue" d="M38.7003,-280.403C35.869,-258.117 31.7683,-198.124 64,-168 107.167,-127.655 284.353,-122.588 368.384,-122.52"/>
<polygon fill="midnightblue" stroke="midnightblue" points="368.391,-126.02 378.396,-122.536 368.402,-119.02 368.391,-126.02"/>
</g>
<!-- Node12 -->
<g id="node13" class="node"><title>Node12</title>
<g id="a_node13"><a xlink:title=" ">
<polygon fill="white" stroke="#bfbfbf" points="1212.5,-56.5 1212.5,-75.5 1323.5,-75.5 1323.5,-56.5 1212.5,-56.5"/>
<text text-anchor="middle" x="1268" y="-63.5" font-family="Helvetica,sans-Serif" font-size="10.00">dji_open_protocol.hpp</text>
</a>
</g>
</g>
<!-- Node1&#45;&gt;Node12 -->
<g id="edge16" class="edge"><title>Node1&#45;&gt;Node12</title>
<path fill="none" stroke="midnightblue" d="M37.0638,-280.333C30.0667,-257.88 15.2543,-197.515 47,-168 153.383,-69.0916 224.636,-128.105 369,-112 679.351,-77.3767 1052.96,-69.3872 1201.97,-67.548"/>
<polygon fill="midnightblue" stroke="midnightblue" points="1202.35,-71.0439 1212.31,-67.4259 1202.27,-64.0444 1202.35,-71.0439"/>
</g>
<!-- Node13 -->
<g id="node14" class="node"><title>Node13</title>
<g id="a_node14"><a xlink:href="dji__vehicle__callback_8hpp.html" target="_top" xlink:title="Type definition for new Vehicle&#45;style callbacks.">
<polygon fill="white" stroke="black" points="1296,-112.5 1296,-131.5 1418,-131.5 1418,-112.5 1296,-112.5"/>
<text text-anchor="middle" x="1357" y="-119.5" font-family="Helvetica,sans-Serif" font-size="10.00">dji_vehicle_callback.hpp</text>
</a>
</g>
</g>
<!-- Node1&#45;&gt;Node13 -->
<g id="edge18" class="edge"><title>Node1&#45;&gt;Node13</title>
<path fill="none" stroke="midnightblue" d="M80.2124,-284.882C234.163,-269 781.212,-211.447 856,-188 874.211,-182.29 875.715,-173.47 894,-168 930.51,-157.078 1164.87,-137.799 1285.49,-128.424"/>
<polygon fill="midnightblue" stroke="midnightblue" points="1286.04,-131.892 1295.74,-127.63 1285.5,-124.913 1286.04,-131.892"/>
</g>
<!-- Node3 -->
<g id="node4" class="node"><title>Node3</title>
<g id="a_node4"><a xlink:href="dji__command_8hpp.html" target="_top" xlink:title="All DJI OSDK OpenProtocol Command IDs.">
<polygon fill="white" stroke="black" points="487.5,-112.5 487.5,-131.5 580.5,-131.5 580.5,-112.5 487.5,-112.5"/>
<text text-anchor="middle" x="534" y="-119.5" font-family="Helvetica,sans-Serif" font-size="10.00">dji_command.hpp</text>
</a>
</g>
</g>
<!-- Node2&#45;&gt;Node3 -->
<g id="edge3" class="edge"><title>Node2&#45;&gt;Node3</title>
<path fill="none" stroke="midnightblue" d="M279.855,-224.377C280.121,-210.357 282.819,-182.71 299,-168 312.093,-156.098 411.857,-140.105 477.122,-130.739"/>
<polygon fill="midnightblue" stroke="midnightblue" points="477.874,-134.167 487.282,-129.294 476.889,-127.237 477.874,-134.167"/>
</g>
<!-- Node6 -->
<g id="node7" class="node"><title>Node6</title>
<g id="a_node7"><a xlink:href="dji__mission__type_8hpp.html" target="_top" xlink:title="Mission related data struct for DJI OSDK library.">
<polygon fill="white" stroke="black" points="144,-168.5 144,-187.5 252,-187.5 252,-168.5 144,-168.5"/>
<text text-anchor="middle" x="198" y="-175.5" font-family="Helvetica,sans-Serif" font-size="10.00">dji_mission_type.hpp</text>
</a>
</g>
</g>
<!-- Node2&#45;&gt;Node6 -->
<g id="edge7" class="edge"><title>Node2&#45;&gt;Node6</title>
<path fill="none" stroke="midnightblue" d="M266.825,-224.324C254.153,-215.979 234.767,-203.212 219.794,-193.352"/>
<polygon fill="midnightblue" stroke="midnightblue" points="221.419,-190.231 211.142,-187.655 217.569,-196.078 221.419,-190.231"/>
</g>
<!-- Node2&#45;&gt;Node7 -->
<g id="edge11" class="edge"><title>Node2&#45;&gt;Node7</title>
<path fill="none" stroke="midnightblue" d="M246.79,-229.941C194.345,-223.86 101.563,-207.285 135,-168 164.389,-133.472 297.124,-125.354 368.025,-123.503"/>
<polygon fill="midnightblue" stroke="midnightblue" points="368.515,-126.992 378.432,-123.264 368.355,-119.994 368.515,-126.992"/>
</g>
<!-- Node9 -->
<g id="node10" class="node"><title>Node9</title>
<g id="a_node10"><a xlink:href="dji__version_8hpp.html" target="_top" xlink:title="Drone/SDK Version definition for DJI onboardSDK library.">
<polygon fill="white" stroke="black" points="765,-168.5 765,-187.5 847,-187.5 847,-168.5 765,-168.5"/>
<text text-anchor="middle" x="806" y="-175.5" font-family="Helvetica,sans-Serif" font-size="10.00">dji_version.hpp</text>
</a>
</g>
</g>
<!-- Node2&#45;&gt;Node9 -->
<g id="edge12" class="edge"><title>Node2&#45;&gt;Node9</title>
<path fill="none" stroke="midnightblue" d="M313.004,-230.837C389.065,-225.648 582.725,-211.268 754.844,-188.052"/>
<polygon fill="midnightblue" stroke="midnightblue" points="755.407,-191.508 764.843,-186.69 754.462,-184.572 755.407,-191.508"/>
</g>
<!-- Node11 -->
<g id="node12" class="node"><title>Node11</title>
<g id="a_node12"><a xlink:title=" ">
<polygon fill="white" stroke="#bfbfbf" points="308.5,-168.5 308.5,-187.5 343.5,-187.5 343.5,-168.5 308.5,-168.5"/>
<text text-anchor="middle" x="326" y="-175.5" font-family="Helvetica,sans-Serif" font-size="10.00">map</text>
</a>
</g>
</g>
<!-- Node2&#45;&gt;Node11 -->
<g id="edge15" class="edge"><title>Node2&#45;&gt;Node11</title>
<path fill="none" stroke="midnightblue" d="M287.596,-224.083C294.227,-216.298 304.021,-204.801 312.058,-195.367"/>
<polygon fill="midnightblue" stroke="midnightblue" points="314.725,-197.633 318.545,-187.751 309.396,-193.094 314.725,-197.633"/>
</g>
<!-- Node4 -->
<g id="node5" class="node"><title>Node4</title>
<g id="a_node5"><a xlink:href="dji__error_8hpp.html" target="_top" xlink:title="All DJI OSDK OpenProtocol ACK Error Codes.">
<polygon fill="white" stroke="black" points="481,-56.5 481,-75.5 551,-75.5 551,-56.5 481,-56.5"/>
<text text-anchor="middle" x="516" y="-63.5" font-family="Helvetica,sans-Serif" font-size="10.00">dji_error.hpp</text>
</a>
</g>
</g>
<!-- Node3&#45;&gt;Node4 -->
<g id="edge4" class="edge"><title>Node3&#45;&gt;Node4</title>
<path fill="none" stroke="midnightblue" d="M531.028,-112.083C528.616,-104.849 525.136,-94.4087 522.132,-85.3968"/>
<polygon fill="midnightblue" stroke="midnightblue" points="525.4,-84.1311 518.917,-75.7511 518.759,-86.3447 525.4,-84.1311"/>
</g>
<!-- Node5 -->
<g id="node6" class="node"><title>Node5</title>
<g id="a_node6"><a xlink:title=" ">
<polygon fill="white" stroke="#bfbfbf" points="491.5,-0.5 491.5,-19.5 540.5,-19.5 540.5,-0.5 491.5,-0.5"/>
<text text-anchor="middle" x="516" y="-7.5" font-family="Helvetica,sans-Serif" font-size="10.00">stdint.h</text>
</a>
</g>
</g>
<!-- Node3&#45;&gt;Node5 -->
<g id="edge6" class="edge"><title>Node3&#45;&gt;Node5</title>
<path fill="none" stroke="midnightblue" d="M542.045,-112.154C552.407,-99.6328 568.167,-76.0335 560,-56 555.2,-44.2251 545.671,-33.8564 536.705,-26.0486"/>
<polygon fill="midnightblue" stroke="midnightblue" points="538.755,-23.2048 528.781,-19.6314 534.35,-28.6448 538.755,-23.2048"/>
</g>
<!-- Node4&#45;&gt;Node5 -->
<g id="edge5" class="edge"><title>Node4&#45;&gt;Node5</title>
<path fill="none" stroke="midnightblue" d="M516,-56.083C516,-49.0059 516,-38.8611 516,-29.9865"/>
<polygon fill="midnightblue" stroke="midnightblue" points="519.5,-29.751 516,-19.7511 512.5,-29.7511 519.5,-29.751"/>
</g>
<!-- Node6&#45;&gt;Node7 -->
<g id="edge8" class="edge"><title>Node6&#45;&gt;Node7</title>
<path fill="none" stroke="midnightblue" d="M232.067,-168.444C269.18,-159.122 328.661,-144.183 369.215,-133.997"/>
<polygon fill="midnightblue" stroke="midnightblue" points="370.246,-137.347 379.092,-131.516 368.541,-130.558 370.246,-137.347"/>
</g>
<!-- Node7&#45;&gt;Node5 -->
<g id="edge10" class="edge"><title>Node7&#45;&gt;Node5</title>
<path fill="none" stroke="midnightblue" d="M409.548,-112.144C404.956,-98.765 398.653,-73.145 410,-56 425.738,-32.222 456.841,-20.9712 481.304,-15.6695"/>
<polygon fill="midnightblue" stroke="midnightblue" points="482.159,-19.0693 491.317,-13.7424 480.836,-12.1954 482.159,-19.0693"/>
</g>
<!-- Node8 -->
<g id="node9" class="node"><title>Node8</title>
<g id="a_node9"><a xlink:title=" ">
<polygon fill="white" stroke="#bfbfbf" points="419.5,-56.5 419.5,-75.5 462.5,-75.5 462.5,-56.5 419.5,-56.5"/>
<text text-anchor="middle" x="441" y="-63.5" font-family="Helvetica,sans-Serif" font-size="10.00">cstdio</text>
</a>
</g>
</g>
<!-- Node7&#45;&gt;Node8 -->
<g id="edge9" class="edge"><title>Node7&#45;&gt;Node8</title>
<path fill="none" stroke="midnightblue" d="M417.624,-112.083C421.456,-104.691 427.024,-93.9533 431.765,-84.8111"/>
<polygon fill="midnightblue" stroke="midnightblue" points="434.966,-86.2398 436.462,-75.7511 428.752,-83.0175 434.966,-86.2398"/>
</g>
<!-- Node9&#45;&gt;Node3 -->
<g id="edge13" class="edge"><title>Node9&#45;&gt;Node3</title>
<path fill="none" stroke="midnightblue" d="M764.984,-168.857C717.54,-159.438 639.291,-143.903 587.202,-133.562"/>
<polygon fill="midnightblue" stroke="midnightblue" points="587.64,-130.081 577.15,-131.567 586.277,-136.947 587.64,-130.081"/>
</g>
<!-- Node10 -->
<g id="node11" class="node"><title>Node10</title>
<g id="a_node11"><a xlink:title=" ">
<polygon fill="white" stroke="#bfbfbf" points="910,-112.5 910,-131.5 956,-131.5 956,-112.5 910,-112.5"/>
<text text-anchor="middle" x="933" y="-119.5" font-family="Helvetica,sans-Serif" font-size="10.00">cstdint</text>
</a>
</g>
</g>
<!-- Node9&#45;&gt;Node10 -->
<g id="edge14" class="edge"><title>Node9&#45;&gt;Node10</title>
<path fill="none" stroke="midnightblue" d="M826.124,-168.444C847.024,-159.557 879.935,-145.563 903.716,-135.451"/>
<polygon fill="midnightblue" stroke="midnightblue" points="905.138,-138.65 912.971,-131.516 902.398,-132.208 905.138,-138.65"/>
</g>
<!-- Node13&#45;&gt;Node12 -->
<g id="edge19" class="edge"><title>Node13&#45;&gt;Node12</title>
<path fill="none" stroke="midnightblue" d="M1342.7,-112.324C1328.82,-103.9 1307.51,-90.9709 1291.2,-81.0741"/>
<polygon fill="midnightblue" stroke="midnightblue" points="1292.63,-77.8495 1282.26,-75.6545 1289,-83.8341 1292.63,-77.8495"/>
</g>
<!-- Node14&#45;&gt;Node1 -->
<g id="edge31" class="edge"><title>Node14&#45;&gt;Node1</title>
<path fill="none" stroke="midnightblue" d="M1112.47,-345.064C971.462,-344.907 489.344,-341.188 94,-300 92.7238,-299.867 91.4321,-299.723 90.1299,-299.57"/>
<polygon fill="midnightblue" stroke="midnightblue" points="90.4029,-296.075 80.0302,-298.233 89.4846,-303.015 90.4029,-296.075"/>
</g>
<!-- Node14&#45;&gt;Node3 -->
<g id="edge30" class="edge"><title>Node14&#45;&gt;Node3</title>
<path fill="none" stroke="midnightblue" d="M1112.45,-344.213C1045.67,-341.966 917.113,-333.311 889,-300 851.317,-255.35 919.737,-290.124 971,-244 998.245,-219.487 1027.65,-195.125 1003,-168 975.74,-138 709.506,-127.478 590.72,-124.257"/>
<polygon fill="midnightblue" stroke="midnightblue" points="590.807,-120.759 580.719,-123.994 590.623,-127.756 590.807,-120.759"/>
</g>
<!-- Node14&#45;&gt;Node7 -->
<g id="edge65" class="edge"><title>Node14&#45;&gt;Node7</title>
<path fill="none" stroke="midnightblue" d="M1112.41,-344.267C974.542,-341.523 525.026,-330.406 384,-300 261.005,-273.482 190.524,-294.796 124,-188 119.3,-180.455 118.218,-174.752 124,-168 154.89,-131.928 294.929,-124.545 368.123,-123.185"/>
<polygon fill="midnightblue" stroke="midnightblue" points="368.471,-126.68 378.416,-123.025 368.362,-119.681 368.471,-126.68"/>
</g>
<!-- Node14&#45;&gt;Node9 -->
<g id="edge67" class="edge"><title>Node14&#45;&gt;Node9</title>
<path fill="none" stroke="midnightblue" d="M1112.43,-345.083C1038.99,-344.276 888.6,-337.911 856,-300 850.204,-293.26 850.912,-287.289 856,-280 884.712,-238.864 983.87,-264.303 954,-224 942.22,-208.106 894.978,-195.601 856.994,-187.849"/>
<polygon fill="midnightblue" stroke="midnightblue" points="857.553,-184.392 847.064,-185.886 856.196,-191.259 857.553,-184.392"/>
</g>
<!-- Node14&#45;&gt;Node10 -->
<g id="edge21" class="edge"><title>Node14&#45;&gt;Node10</title>
<path fill="none" stroke="midnightblue" d="M1114.61,-336.349C1094.35,-329.775 1070.88,-318.583 1057,-300 1021.5,-252.457 1073.21,-215.006 1037,-168 1019.85,-145.735 989.452,-134.306 965.935,-128.553"/>
<polygon fill="midnightblue" stroke="midnightblue" points="966.532,-125.101 956.012,-126.355 965.019,-131.935 966.532,-125.101"/>
</g>
<!-- Node14&#45;&gt;Node12 -->
<g id="edge57" class="edge"><title>Node14&#45;&gt;Node12</title>
<path fill="none" stroke="midnightblue" d="M1173.83,-336.473C1206.97,-321.358 1268,-286.527 1268,-235 1268,-235 1268,-235 1268,-177 1268,-144.948 1268,-107.643 1268,-85.7489"/>
<polygon fill="midnightblue" stroke="midnightblue" points="1271.5,-85.5577 1268,-75.5578 1264.5,-85.5578 1271.5,-85.5577"/>
</g>
<!-- Node14&#45;&gt;Node13 -->
<g id="edge66" class="edge"><title>Node14&#45;&gt;Node13</title>
<path fill="none" stroke="midnightblue" d="M1193.52,-344.289C1354.34,-341.273 1940.16,-328.368 1967,-300 1990.28,-275.396 2090.19,-300.29 1964,-168 1927.7,-129.949 1580.87,-123.865 1428.36,-123.041"/>
<polygon fill="midnightblue" stroke="midnightblue" points="1428.18,-119.54 1418.16,-122.992 1428.15,-126.54 1428.18,-119.54"/>
</g>
<!-- Node15 -->
<g id="node16" class="node"><title>Node15</title>
<g id="a_node16"><a xlink:href="dji__broadcast_8hpp.html" target="_top" xlink:title="Broadcast Telemetry API for DJI onboardSDK library.">
<polygon fill="white" stroke="black" points="1108.5,-224.5 1108.5,-243.5 1201.5,-243.5 1201.5,-224.5 1108.5,-224.5"/>
<text text-anchor="middle" x="1155" y="-231.5" font-family="Helvetica,sans-Serif" font-size="10.00">dji_broadcast.hpp</text>
</a>
</g>
</g>
<!-- Node14&#45;&gt;Node15 -->
<g id="edge22" class="edge"><title>Node14&#45;&gt;Node15</title>
<path fill="none" stroke="midnightblue" d="M1158.13,-336.407C1163.06,-327.614 1170.16,-313.381 1173,-300 1176.41,-283.912 1170.66,-265.911 1164.78,-252.94"/>
<polygon fill="midnightblue" stroke="midnightblue" points="1167.79,-251.139 1160.2,-243.747 1161.52,-254.259 1167.79,-251.139"/>
</g>
<!-- Node17 -->
<g id="node18" class="node"><title>Node17</title>
<g id="a_node18"><a xlink:href="dji__camera_8hpp.html" target="_top" xlink:title="Camera/Gimbal API for DJI onboardSDK library.">
<polygon fill="white" stroke="black" points="497.5,-168.5 497.5,-187.5 580.5,-187.5 580.5,-168.5 497.5,-168.5"/>
<text text-anchor="middle" x="539" y="-175.5" font-family="Helvetica,sans-Serif" font-size="10.00">dji_camera.hpp</text>
</a>
</g>
</g>
<!-- Node14&#45;&gt;Node17 -->
<g id="edge26" class="edge"><title>Node14&#45;&gt;Node17</title>
<path fill="none" stroke="midnightblue" d="M1112.24,-344.616C1010.18,-343.119 746.134,-335.797 667,-300 615.184,-276.561 571.1,-223.318 550.861,-195.945"/>
<polygon fill="midnightblue" stroke="midnightblue" points="553.625,-193.795 544.934,-187.735 547.949,-197.891 553.625,-193.795"/>
</g>
<!-- Node18 -->
<g id="node19" class="node"><title>Node18</title>
<g id="a_node19"><a xlink:title=" ">
<polygon fill="white" stroke="#bfbfbf" points="898,-280.5 898,-299.5 1010,-299.5 1010,-280.5 898,-280.5"/>
<text text-anchor="middle" x="954" y="-287.5" font-family="Helvetica,sans-Serif" font-size="10.00">dji_circular_buffer.hpp</text>
</a>
</g>
</g>
<!-- Node14&#45;&gt;Node18 -->
<g id="edge29" class="edge"><title>Node14&#45;&gt;Node18</title>
<path fill="none" stroke="midnightblue" d="M1121.47,-336.444C1087.41,-327.201 1032.99,-312.436 995.485,-302.257"/>
<polygon fill="midnightblue" stroke="midnightblue" points="995.952,-298.758 985.385,-299.516 994.119,-305.513 995.952,-298.758"/>
</g>
<!-- Node19 -->
<g id="node20" class="node"><title>Node19</title>
<g id="a_node20"><a xlink:href="dji__gimbal_8hpp.html" target="_top" xlink:title="Gimbal API for OSDK library.">
<polygon fill="white" stroke="black" points="400.5,-168.5 400.5,-187.5 479.5,-187.5 479.5,-168.5 400.5,-168.5"/>
<text text-anchor="middle" x="440" y="-175.5" font-family="Helvetica,sans-Serif" font-size="10.00">dji_gimbal.hpp</text>
</a>
</g>
</g>
<!-- Node14&#45;&gt;Node19 -->
<g id="edge32" class="edge"><title>Node14&#45;&gt;Node19</title>
<path fill="none" stroke="midnightblue" d="M1112.37,-343.982C1005.75,-340.915 720.098,-330.056 631,-300 560.624,-276.26 489.94,-221.513 457.848,-194.563"/>
<polygon fill="midnightblue" stroke="midnightblue" points="459.733,-191.571 449.852,-187.747 455.192,-196.898 459.733,-191.571"/>
</g>
<!-- Node20 -->
<g id="node21" class="node"><title>Node20</title>
<g id="a_node21"><a xlink:title=" ">
<polygon fill="white" stroke="#bfbfbf" points="1066,-280.5 1066,-299.5 1164,-299.5 1164,-280.5 1066,-280.5"/>
<text text-anchor="middle" x="1115" y="-287.5" font-family="Helvetica,sans-Serif" font-size="10.00">dji_hard_driver.hpp</text>
</a>
</g>
</g>
<!-- Node14&#45;&gt;Node20 -->
<g id="edge35" class="edge"><title>Node14&#45;&gt;Node20</title>
<path fill="none" stroke="midnightblue" d="M1146.73,-336.083C1141.36,-328.455 1133.48,-317.264 1126.92,-307.941"/>
<polygon fill="midnightblue" stroke="midnightblue" points="1129.78,-305.915 1121.16,-299.751 1124.05,-309.943 1129.78,-305.915"/>
</g>
<!-- Node21 -->
<g id="node22" class="node"><title>Node21</title>
<g id="a_node22"><a xlink:href="dji__hardware__sync_8hpp.html" target="_top" xlink:title="Hardware Sync API for DJI OSDK.">
<polygon fill="white" stroke="black" points="1124,-168.5 1124,-187.5 1240,-187.5 1240,-168.5 1124,-168.5"/>
<text text-anchor="middle" x="1182" y="-175.5" font-family="Helvetica,sans-Serif" font-size="10.00">dji_hardware_sync.hpp</text>
</a>
</g>
</g>
<!-- Node14&#45;&gt;Node21 -->
<g id="edge36" class="edge"><title>Node14&#45;&gt;Node21</title>
<path fill="none" stroke="midnightblue" d="M1161.06,-336.239C1168.74,-327.545 1180.26,-313.589 1188,-300 1201.23,-276.763 1205.02,-270.274 1210,-244 1211.65,-235.266 1212.44,-232.547 1210,-224 1207.1,-213.844 1201.17,-203.747 1195.51,-195.699"/>
<polygon fill="midnightblue" stroke="midnightblue" points="1198.22,-193.479 1189.41,-187.589 1192.62,-197.685 1198.22,-193.479"/>
</g>
<!-- Node23 -->
<g id="node24" class="node"><title>Node23</title>
<g id="a_node24"><a xlink:href="dji__mfio_8hpp.html" target="_top" xlink:title="MFIO API for DJI OSDK library.">
<polygon fill="white" stroke="black" points="1296.5,-224.5 1296.5,-243.5 1365.5,-243.5 1365.5,-224.5 1296.5,-224.5"/>
<text text-anchor="middle" x="1331" y="-231.5" font-family="Helvetica,sans-Serif" font-size="10.00">dji_mfio.hpp</text>
</a>
</g>
</g>
<!-- Node14&#45;&gt;Node23 -->
<g id="edge40" class="edge"><title>Node14&#45;&gt;Node23</title>
<path fill="none" stroke="midnightblue" d="M1193.69,-337.283C1220.65,-330.692 1255.75,-319.151 1282,-300 1299.07,-287.549 1312.91,-267.473 1321.48,-252.924"/>
<polygon fill="midnightblue" stroke="midnightblue" points="1324.7,-254.331 1326.54,-243.896 1318.59,-250.908 1324.7,-254.331"/>
</g>
<!-- Node24 -->
<g id="node25" class="node"><title>Node24</title>
<g id="a_node25"><a xlink:href="dji__mission__manager_8hpp.html" target="_top" xlink:title="Mission&#45;Manager API for DJI OSDK library.">
<polygon fill="white" stroke="black" points="676.5,-280.5 676.5,-299.5 803.5,-299.5 803.5,-280.5 676.5,-280.5"/>
<text text-anchor="middle" x="740" y="-287.5" font-family="Helvetica,sans-Serif" font-size="10.00">dji_mission_manager.hpp</text>
</a>
</g>
</g>
<!-- Node14&#45;&gt;Node24 -->
<g id="edge42" class="edge"><title>Node14&#45;&gt;Node24</title>
<path fill="none" stroke="midnightblue" d="M1112.27,-339.674C1042.88,-330.601 900.787,-312.023 813.617,-300.625"/>
<polygon fill="midnightblue" stroke="midnightblue" points="813.898,-297.133 803.529,-299.306 812.991,-304.073 813.898,-297.133"/>
</g>
<!-- Node29 -->
<g id="node30" class="node"><title>Node29</title>
<g id="a_node30"><a xlink:href="dji__mobile__communication_8hpp.html" target="_top" xlink:title="Implementation of DJI Mobile&#45;Onboard SDK Communication (MOC)">
<polygon fill="white" stroke="black" points="1790,-280.5 1790,-299.5 1940,-299.5 1940,-280.5 1790,-280.5"/>
<text text-anchor="middle" x="1865" y="-287.5" font-family="Helvetica,sans-Serif" font-size="10.00">dji_mobile_communication.hpp</text>
</a>
</g>
</g>
<!-- Node14&#45;&gt;Node29 -->
<g id="edge52" class="edge"><title>Node14&#45;&gt;Node29</title>
<path fill="none" stroke="midnightblue" d="M1193.85,-342.456C1293.45,-336.166 1556.69,-319.006 1776,-300 1777.12,-299.903 1778.25,-299.804 1779.39,-299.703"/>
<polygon fill="midnightblue" stroke="midnightblue" points="1780.11,-303.152 1789.75,-298.762 1779.48,-296.181 1780.11,-303.152"/>
</g>
<!-- Node31 -->
<g id="node32" class="node"><title>Node31</title>
<g id="a_node32"><a xlink:href="dji__mobile__device_8hpp.html" target="_top" xlink:title="Implementation of DJI Mobile Device Abstraction.">
<polygon fill="white" stroke="black" points="1383.5,-224.5 1383.5,-243.5 1496.5,-243.5 1496.5,-224.5 1383.5,-224.5"/>
<text text-anchor="middle" x="1440" y="-231.5" font-family="Helvetica,sans-Serif" font-size="10.00">dji_mobile_device.hpp</text>
</a>
</g>
</g>
<!-- Node14&#45;&gt;Node31 -->
<g id="edge55" class="edge"><title>Node14&#45;&gt;Node31</title>
<path fill="none" stroke="midnightblue" d="M1193.79,-343.588C1293.16,-339.73 1541.41,-327.416 1566,-300 1590.09,-273.141 1545.28,-255.73 1502.58,-245.753"/>
<polygon fill="midnightblue" stroke="midnightblue" points="1503.19,-242.304 1492.67,-243.556 1501.68,-249.138 1503.19,-242.304"/>
</g>
<!-- Node32 -->
<g id="node33" class="node"><title>Node32</title>
<g id="a_node33"><a xlink:title=" ">
<polygon fill="white" stroke="#bfbfbf" points="1334,-280.5 1334,-299.5 1462,-299.5 1462,-280.5 1334,-280.5"/>
<text text-anchor="middle" x="1398" y="-287.5" font-family="Helvetica,sans-Serif" font-size="10.00">dji_platform_manager.hpp</text>
</a>
</g>
</g>
<!-- Node14&#45;&gt;Node32 -->
<g id="edge58" class="edge"><title>Node14&#45;&gt;Node32</title>
<path fill="none" stroke="midnightblue" d="M1191.82,-336.444C1234.56,-327.023 1303.33,-311.866 1349.57,-301.675"/>
<polygon fill="midnightblue" stroke="midnightblue" points="1350.35,-305.087 1359.36,-299.516 1348.84,-298.251 1350.35,-305.087"/>
</g>
<!-- Node33 -->
<g id="node34" class="node"><title>Node33</title>
<g id="a_node34"><a xlink:href="dji__status_8hpp.html" target="_top" xlink:title="Status information for DJI Vehicle.">
<polygon fill="white" stroke="black" points="1480.5,-280.5 1480.5,-299.5 1557.5,-299.5 1557.5,-280.5 1480.5,-280.5"/>
<text text-anchor="middle" x="1519" y="-287.5" font-family="Helvetica,sans-Serif" font-size="10.00">dji_status.hpp</text>
</a>
</g>
</g>
<!-- Node14&#45;&gt;Node33 -->
<g id="edge59" class="edge"><title>Node14&#45;&gt;Node33</title>
<path fill="none" stroke="midnightblue" d="M1193.75,-339.827C1252.5,-332.239 1364.64,-317.27 1470.37,-300.039"/>
<polygon fill="midnightblue" stroke="midnightblue" points="1470.95,-303.491 1480.25,-298.419 1469.82,-296.583 1470.95,-303.491"/>
</g>
<!-- Node34 -->
<g id="node35" class="node"><title>Node34</title>
<g id="a_node35"><a xlink:href="dji__subscription_8hpp.html" target="_top" xlink:title="Telemetry Subscription API for DJI OSDK library.">
<polygon fill="white" stroke="black" points="1514.5,-224.5 1514.5,-243.5 1617.5,-243.5 1617.5,-224.5 1514.5,-224.5"/>
<text text-anchor="middle" x="1566" y="-231.5" font-family="Helvetica,sans-Serif" font-size="10.00">dji_subscription.hpp</text>
</a>
</g>
</g>
<!-- Node14&#45;&gt;Node34 -->
<g id="edge60" class="edge"><title>Node14&#45;&gt;Node34</title>
<path fill="none" stroke="midnightblue" d="M1193.75,-345.015C1321.17,-344.642 1705.78,-340.172 1743,-300 1749.04,-293.48 1748.46,-287.017 1743,-280 1735.35,-270.165 1670.38,-255.444 1621.35,-245.544"/>
<polygon fill="midnightblue" stroke="midnightblue" points="1621.96,-242.097 1611.47,-243.57 1620.59,-248.961 1621.96,-242.097"/>
</g>
<!-- Node35 -->
<g id="node36" class="node"><title>Node35</title>
<g id="a_node36"><a xlink:title=" ">
<polygon fill="white" stroke="#bfbfbf" points="1614,-280.5 1614,-299.5 1734,-299.5 1734,-280.5 1614,-280.5"/>
<text text-anchor="middle" x="1674" y="-287.5" font-family="Helvetica,sans-Serif" font-size="10.00">dji_thread_manager.hpp</text>
</a>
</g>
</g>
<!-- Node14&#45;&gt;Node35 -->
<g id="edge64" class="edge"><title>Node14&#45;&gt;Node35</title>
<path fill="none" stroke="midnightblue" d="M1193.71,-341.186C1272.3,-333.76 1450.39,-316.627 1600,-300 1601.27,-299.859 1602.54,-299.716 1603.83,-299.571"/>
<polygon fill="midnightblue" stroke="midnightblue" points="1604.3,-303.04 1613.84,-298.423 1603.5,-296.086 1604.3,-303.04"/>
</g>
<!-- Node36 -->
<g id="node37" class="node"><title>Node36</title>
<g id="a_node37"><a xlink:href="dji__virtual__rc_8hpp.html" target="_top" xlink:title="Virtual Radio Control API for DJI onboardSDK library.">
<polygon fill="white" stroke="black" points="393,-280.5 393,-299.5 483,-299.5 483,-280.5 393,-280.5"/>
<text text-anchor="middle" x="438" y="-287.5" font-family="Helvetica,sans-Serif" font-size="10.00">dji_virtual_rc.hpp</text>
</a>
</g>
</g>
<!-- Node14&#45;&gt;Node36 -->
<g id="edge68" class="edge"><title>Node14&#45;&gt;Node36</title>
<path fill="none" stroke="midnightblue" d="M1112.21,-343.379C1008.97,-339.021 729.041,-325.612 497,-300 495.725,-299.859 494.436,-299.711 493.137,-299.557"/>
<polygon fill="midnightblue" stroke="midnightblue" points="493.411,-296.063 483.047,-298.265 492.522,-303.007 493.411,-296.063"/>
</g>
<!-- Node37 -->
<g id="node38" class="node"><title>Node37</title>
<g id="a_node38"><a xlink:href="dji__payload__device_8hpp.html" target="_top" xlink:title="Implementation of DJI Payload Device Abstraction.">
<polygon fill="white" stroke="black" points="1837,-168.5 1837,-187.5 1955,-187.5 1955,-168.5 1837,-168.5"/>
<text text-anchor="middle" x="1896" y="-175.5" font-family="Helvetica,sans-Serif" font-size="10.00">dji_payload_device.hpp</text>
</a>
</g>
</g>
<!-- Node14&#45;&gt;Node37 -->
<g id="edge73" class="edge"><title>Node14&#45;&gt;Node37</title>
<path fill="none" stroke="midnightblue" d="M1193.7,-344.233C1352.49,-341.045 1922.83,-327.696 1949,-300 1978,-269.318 1937.89,-220.198 1913.07,-195.02"/>
<polygon fill="midnightblue" stroke="midnightblue" points="1915.24,-192.248 1905.65,-187.74 1910.33,-197.243 1915.24,-192.248"/>
</g>
<!-- Node15&#45;&gt;Node13 -->
<g id="edge25" class="edge"><title>Node15&#45;&gt;Node13</title>
<path fill="none" stroke="midnightblue" d="M1174.35,-224.39C1193.55,-215.698 1223.67,-201.644 1249,-188 1279.38,-171.636 1313.3,-150.773 1334.88,-137.16"/>
<polygon fill="midnightblue" stroke="midnightblue" points="1337.03,-139.942 1343.6,-131.631 1333.28,-134.031 1337.03,-139.942"/>
</g>
<!-- Node16 -->
<g id="node17" class="node"><title>Node16</title>
<g id="a_node17"><a xlink:href="dji__telemetry_8hpp.html" target="_top" xlink:title="Enumeration of all telemetry data types, structures and maps.">
<polygon fill="white" stroke="black" points="903.5,-168.5 903.5,-187.5 994.5,-187.5 994.5,-168.5 903.5,-168.5"/>
<text text-anchor="middle" x="949" y="-175.5" font-family="Helvetica,sans-Serif" font-size="10.00">dji_telemetry.hpp</text>
</a>
</g>
</g>
<!-- Node15&#45;&gt;Node16 -->
<g id="edge23" class="edge"><title>Node15&#45;&gt;Node16</title>
<path fill="none" stroke="midnightblue" d="M1122.36,-224.444C1086.95,-215.162 1030.29,-200.309 991.447,-190.127"/>
<polygon fill="midnightblue" stroke="midnightblue" points="992.049,-186.667 981.489,-187.516 990.274,-193.438 992.049,-186.667"/>
</g>
<!-- Node16&#45;&gt;Node7 -->
<g id="edge24" class="edge"><title>Node16&#45;&gt;Node7</title>
<path fill="none" stroke="midnightblue" d="M903.118,-172.546C888.102,-171.092 871.34,-169.473 856,-168 688.012,-151.872 645.621,-151.577 478,-132 471.54,-131.245 464.728,-130.38 458.043,-129.49"/>
<polygon fill="midnightblue" stroke="midnightblue" points="458.091,-125.965 447.71,-128.085 457.147,-132.901 458.091,-125.965"/>
</g>
<!-- Node17&#45;&gt;Node3 -->
<g id="edge27" class="edge"><title>Node17&#45;&gt;Node3</title>
<path fill="none" stroke="midnightblue" d="M538.174,-168.083C537.519,-161.006 536.58,-150.861 535.758,-141.986"/>
<polygon fill="midnightblue" stroke="midnightblue" points="539.217,-141.386 534.81,-131.751 532.247,-142.031 539.217,-141.386"/>
</g>
<!-- Node17&#45;&gt;Node7 -->
<g id="edge28" class="edge"><title>Node17&#45;&gt;Node7</title>
<path fill="none" stroke="midnightblue" d="M519.035,-168.444C498.391,-159.596 465.937,-145.687 442.368,-135.586"/>
<polygon fill="midnightblue" stroke="midnightblue" points="443.442,-132.239 432.872,-131.516 440.684,-138.673 443.442,-132.239"/>
</g>
<!-- Node19&#45;&gt;Node3 -->
<g id="edge33" class="edge"><title>Node19&#45;&gt;Node3</title>
<path fill="none" stroke="midnightblue" d="M455.103,-168.324C469.903,-159.822 492.694,-146.729 509.982,-136.797"/>
<polygon fill="midnightblue" stroke="midnightblue" points="512.007,-139.671 518.935,-131.655 508.52,-133.601 512.007,-139.671"/>
</g>
<!-- Node19&#45;&gt;Node7 -->
<g id="edge34" class="edge"><title>Node19&#45;&gt;Node7</title>
<path fill="none" stroke="midnightblue" d="M435.541,-168.083C431.846,-160.691 426.477,-149.953 421.906,-140.811"/>
<polygon fill="midnightblue" stroke="midnightblue" points="424.978,-139.13 417.376,-131.751 418.717,-142.261 424.978,-139.13"/>
</g>
<!-- Node21&#45;&gt;Node7 -->
<g id="edge37" class="edge"><title>Node21&#45;&gt;Node7</title>
<path fill="none" stroke="midnightblue" d="M1123.92,-173.842C978.745,-165.859 602.821,-144.613 478,-132 471.529,-131.346 464.711,-130.536 458.023,-129.672"/>
<polygon fill="midnightblue" stroke="midnightblue" points="458.065,-126.147 447.689,-128.285 457.134,-133.085 458.065,-126.147"/>
</g>
<!-- Node21&#45;&gt;Node13 -->
<g id="edge38" class="edge"><title>Node21&#45;&gt;Node13</title>
<path fill="none" stroke="midnightblue" d="M1209.73,-168.444C1239.43,-159.28 1286.72,-144.688 1319.67,-134.519"/>
<polygon fill="midnightblue" stroke="midnightblue" points="1320.88,-137.809 1329.4,-131.516 1318.81,-131.121 1320.88,-137.809"/>
</g>
<!-- Node22 -->
<g id="node23" class="node"><title>Node22</title>
<g id="a_node23"><a xlink:title=" ">
<polygon fill="white" stroke="#bfbfbf" points="1161.5,-112.5 1161.5,-131.5 1202.5,-131.5 1202.5,-112.5 1161.5,-112.5"/>
<text text-anchor="middle" x="1182" y="-119.5" font-family="Helvetica,sans-Serif" font-size="10.00">string</text>
</a>
</g>
</g>
<!-- Node21&#45;&gt;Node22 -->
<g id="edge39" class="edge"><title>Node21&#45;&gt;Node22</title>
<path fill="none" stroke="midnightblue" d="M1182,-168.083C1182,-161.006 1182,-150.861 1182,-141.986"/>
<polygon fill="midnightblue" stroke="midnightblue" points="1185.5,-141.751 1182,-131.751 1178.5,-141.751 1185.5,-141.751"/>
</g>
<!-- Node23&#45;&gt;Node13 -->
<g id="edge41" class="edge"><title>Node23&#45;&gt;Node13</title>
<path fill="none" stroke="midnightblue" d="M1333.04,-224.368C1337.24,-206.617 1346.92,-165.666 1352.6,-141.597"/>
<polygon fill="midnightblue" stroke="midnightblue" points="1356.08,-142.128 1354.97,-131.591 1349.26,-140.518 1356.08,-142.128"/>
</g>
<!-- Node25 -->
<g id="node26" class="node"><title>Node25</title>
<g id="a_node26"><a xlink:href="dji__hotpoint_8hpp.html" target="_top" xlink:title="Implementation of HotPoint (Point of Interest) Missions for DJI OSDK.">
<polygon fill="white" stroke="black" points="653.5,-224.5 653.5,-243.5 738.5,-243.5 738.5,-224.5 653.5,-224.5"/>
<text text-anchor="middle" x="696" y="-231.5" font-family="Helvetica,sans-Serif" font-size="10.00">dji_hotpoint.hpp</text>
</a>
</g>
</g>
<!-- Node24&#45;&gt;Node25 -->
<g id="edge43" class="edge"><title>Node24&#45;&gt;Node25</title>
<path fill="none" stroke="midnightblue" d="M732.734,-280.083C726.455,-272.377 717.212,-261.033 709.569,-251.653"/>
<polygon fill="midnightblue" stroke="midnightblue" points="712.161,-249.293 703.131,-243.751 706.734,-253.714 712.161,-249.293"/>
</g>
<!-- Node27 -->
<g id="node28" class="node"><title>Node27</title>
<g id="a_node28"><a xlink:href="dji__waypoint_8hpp.html" target="_top" xlink:title="Implementation of GPS Waypoint Missions for DJI OSDK.">
<polygon fill="white" stroke="black" points="856.5,-224.5 856.5,-243.5 945.5,-243.5 945.5,-224.5 856.5,-224.5"/>
<text text-anchor="middle" x="901" y="-231.5" font-family="Helvetica,sans-Serif" font-size="10.00">dji_waypoint.hpp</text>
</a>
</g>
</g>
<!-- Node24&#45;&gt;Node27 -->
<g id="edge49" class="edge"><title>Node24&#45;&gt;Node27</title>
<path fill="none" stroke="midnightblue" d="M765.511,-280.444C792.596,-271.359 835.59,-256.939 865.869,-246.783"/>
<polygon fill="midnightblue" stroke="midnightblue" points="867.24,-250.015 875.608,-243.516 865.014,-243.378 867.24,-250.015"/>
</g>
<!-- Node28 -->
<g id="node29" class="node"><title>Node28</title>
<g id="a_node29"><a xlink:title=" ">
<polygon fill="white" stroke="#bfbfbf" points="795,-224.5 795,-243.5 839,-243.5 839,-224.5 795,-224.5"/>
<text text-anchor="middle" x="817" y="-231.5" font-family="Helvetica,sans-Serif" font-size="10.00">vector</text>
</a>
</g>
</g>
<!-- Node24&#45;&gt;Node28 -->
<g id="edge51" class="edge"><title>Node24&#45;&gt;Node28</title>
<path fill="none" stroke="midnightblue" d="M752.371,-280.324C764.158,-272.058 782.132,-259.453 796.136,-249.632"/>
<polygon fill="midnightblue" stroke="midnightblue" points="798.482,-252.262 804.659,-243.655 794.462,-246.531 798.482,-252.262"/>
</g>
<!-- Node25&#45;&gt;Node16 -->
<g id="edge48" class="edge"><title>Node25&#45;&gt;Node16</title>
<path fill="none" stroke="midnightblue" d="M736.089,-224.444C780.316,-215.004 851.539,-199.802 899.285,-189.611"/>
<polygon fill="midnightblue" stroke="midnightblue" points="900.05,-193.027 909.099,-187.516 898.589,-186.181 900.05,-193.027"/>
</g>
<!-- Node26 -->
<g id="node27" class="node"><title>Node26</title>
<g id="a_node27"><a xlink:href="dji__mission__base_8hpp.html" target="_top" xlink:title="Mission&#45;Base abstract class for DJI OSDK library.">
<polygon fill="white" stroke="black" points="637,-168.5 637,-187.5 747,-187.5 747,-168.5 637,-168.5"/>
<text text-anchor="middle" x="692" y="-175.5" font-family="Helvetica,sans-Serif" font-size="10.00">dji_mission_base.hpp</text>
</a>
</g>
</g>
<!-- Node25&#45;&gt;Node26 -->
<g id="edge44" class="edge"><title>Node25&#45;&gt;Node26</title>
<path fill="none" stroke="midnightblue" d="M695.339,-224.083C694.815,-217.006 694.064,-206.861 693.406,-197.986"/>
<polygon fill="midnightblue" stroke="midnightblue" points="696.877,-197.465 692.648,-187.751 689.897,-197.982 696.877,-197.465"/>
</g>
<!-- Node26&#45;&gt;Node3 -->
<g id="edge45" class="edge"><title>Node26&#45;&gt;Node3</title>
<path fill="none" stroke="midnightblue" d="M666.964,-168.444C640.384,-159.359 598.191,-144.939 568.477,-134.783"/>
<polygon fill="midnightblue" stroke="midnightblue" points="569.513,-131.439 558.918,-131.516 567.249,-138.062 569.513,-131.439"/>
</g>
<!-- Node26&#45;&gt;Node7 -->
<g id="edge46" class="edge"><title>Node26&#45;&gt;Node7</title>
<path fill="none" stroke="midnightblue" d="M647.792,-168.444C595.79,-158.379 509.947,-141.764 457.723,-131.656"/>
<polygon fill="midnightblue" stroke="midnightblue" points="458.229,-128.189 447.746,-129.725 456.899,-135.062 458.229,-128.189"/>
</g>
<!-- Node26&#45;&gt;Node13 -->
<g id="edge47" class="edge"><title>Node26&#45;&gt;Node13</title>
<path fill="none" stroke="midnightblue" d="M747.13,-169.016C750.128,-168.654 753.099,-168.312 756,-168 856.756,-157.155 1149.13,-136.958 1285.45,-127.771"/>
<polygon fill="midnightblue" stroke="midnightblue" points="1286.04,-131.239 1295.78,-127.075 1285.57,-124.255 1286.04,-131.239"/>
</g>
<!-- Node27&#45;&gt;Node26 -->
<g id="edge50" class="edge"><title>Node27&#45;&gt;Node26</title>
<path fill="none" stroke="midnightblue" d="M867.883,-224.444C831.882,-215.142 774.23,-200.246 734.814,-190.062"/>
<polygon fill="midnightblue" stroke="midnightblue" points="735.519,-186.629 724.962,-187.516 733.768,-193.407 735.519,-186.629"/>
</g>
<!-- Node29&#45;&gt;Node13 -->
<g id="edge54" class="edge"><title>Node29&#45;&gt;Node13</title>
<path fill="none" stroke="midnightblue" d="M1849.24,-280.469C1824.01,-267.064 1772.72,-240.862 1727,-224 1615.35,-182.823 1479.27,-149.917 1407.28,-133.8"/>
<polygon fill="midnightblue" stroke="midnightblue" points="1407.66,-130.298 1397.14,-131.545 1406.14,-137.131 1407.66,-130.298"/>
</g>
<!-- Node30 -->
<g id="node31" class="node"><title>Node30</title>
<g id="a_node31"><a xlink:title=" ">
<polygon fill="white" stroke="#bfbfbf" points="1635.5,-224.5 1635.5,-243.5 1718.5,-243.5 1718.5,-224.5 1635.5,-224.5"/>
<text text-anchor="middle" x="1677" y="-231.5" font-family="Helvetica,sans-Serif" font-size="10.00">dji_macros.hpp</text>
</a>
</g>
</g>
<!-- Node29&#45;&gt;Node30 -->
<g id="edge53" class="edge"><title>Node29&#45;&gt;Node30</title>
<path fill="none" stroke="midnightblue" d="M1835.21,-280.444C1803.17,-271.241 1752.07,-256.562 1716.65,-246.388"/>
<polygon fill="midnightblue" stroke="midnightblue" points="1717.23,-242.913 1706.65,-243.516 1715.29,-249.641 1717.23,-242.913"/>
</g>
<!-- Node31&#45;&gt;Node13 -->
<g id="edge56" class="edge"><title>Node31&#45;&gt;Node13</title>
<path fill="none" stroke="midnightblue" d="M1433.49,-224.368C1419.73,-206.135 1387.5,-163.426 1369.58,-139.675"/>
<polygon fill="midnightblue" stroke="midnightblue" points="1372.3,-137.466 1363.48,-131.591 1366.71,-141.682 1372.3,-137.466"/>
</g>
<!-- Node34&#45;&gt;Node12 -->
<g id="edge61" class="edge"><title>Node34&#45;&gt;Node12</title>
<path fill="none" stroke="midnightblue" d="M1558.52,-224.223C1539.12,-202.029 1484.68,-143.217 1427,-112 1396.74,-95.623 1359.93,-84.7139 1329.35,-77.744"/>
<polygon fill="midnightblue" stroke="midnightblue" points="1329.76,-74.2498 1319.24,-75.5291 1328.26,-81.0877 1329.76,-74.2498"/>
</g>
<!-- Node34&#45;&gt;Node13 -->
<g id="edge63" class="edge"><title>Node34&#45;&gt;Node13</title>
<path fill="none" stroke="midnightblue" d="M1549.6,-224.368C1513.28,-205.251 1425.84,-159.229 1382.39,-136.361"/>
<polygon fill="midnightblue" stroke="midnightblue" points="1383.8,-133.152 1373.32,-131.591 1380.54,-139.346 1383.8,-133.152"/>
</g>
<!-- Node34&#45;&gt;Node16 -->
<g id="edge62" class="edge"><title>Node34&#45;&gt;Node16</title>
<path fill="none" stroke="midnightblue" d="M1514.45,-225.151C1511.25,-224.74 1508.08,-224.352 1505,-224 1322.39,-203.162 1104.96,-188.489 1004.7,-182.292"/>
<polygon fill="midnightblue" stroke="midnightblue" points="1004.7,-178.786 994.503,-181.666 1004.27,-185.772 1004.7,-178.786"/>
</g>
<!-- Node36&#45;&gt;Node2 -->
<g id="edge69" class="edge"><title>Node36&#45;&gt;Node2</title>
<path fill="none" stroke="midnightblue" d="M412.964,-280.444C386.384,-271.359 344.191,-256.939 314.477,-246.783"/>
<polygon fill="midnightblue" stroke="midnightblue" points="315.513,-243.439 304.918,-243.516 313.249,-250.062 315.513,-243.439"/>
</g>
<!-- Node36&#45;&gt;Node7 -->
<g id="edge71" class="edge"><title>Node36&#45;&gt;Node7</title>
<path fill="none" stroke="midnightblue" d="M432.327,-280.282C421.683,-263.344 399.065,-224.445 391,-188 389.08,-179.321 388.996,-176.66 391,-168 393.23,-158.363 397.821,-148.405 402.236,-140.315"/>
<polygon fill="midnightblue" stroke="midnightblue" points="405.351,-141.922 407.362,-131.519 399.303,-138.397 405.351,-141.922"/>
</g>
<!-- Node36&#45;&gt;Node12 -->
<g id="edge70" class="edge"><title>Node36&#45;&gt;Node12</title>
<path fill="none" stroke="midnightblue" d="M450.257,-280.356C485.975,-255.301 589.848,-183.447 628,-168 826.318,-87.7073 1083.24,-70.9725 1202.21,-67.6742"/>
<polygon fill="midnightblue" stroke="midnightblue" points="1202.34,-71.1719 1212.25,-67.4188 1202.17,-64.1742 1202.34,-71.1719"/>
</g>
<!-- Node36&#45;&gt;Node16 -->
<g id="edge72" class="edge"><title>Node36&#45;&gt;Node16</title>
<path fill="none" stroke="midnightblue" d="M483.04,-287.07C544.145,-283.417 656.113,-273.037 747,-244 765.556,-238.072 767.85,-231.073 786,-224 823.184,-209.509 866.838,-197.719 899.607,-189.848"/>
<polygon fill="midnightblue" stroke="midnightblue" points="900.481,-193.238 909.408,-187.532 898.872,-186.425 900.481,-193.238"/>
</g>
<!-- Node37&#45;&gt;Node13 -->
<g id="edge74" class="edge"><title>Node37&#45;&gt;Node13</title>
<path fill="none" stroke="midnightblue" d="M1836.78,-171.067C1737.03,-161.074 1535.92,-140.926 1428.49,-130.162"/>
<polygon fill="midnightblue" stroke="midnightblue" points="1428.69,-126.665 1418.39,-129.15 1427.99,-133.63 1428.69,-126.665"/>
</g>
</g>
</svg>
        <g id="navigator" transform="translate(0 0)" fill="#404254">
                <rect fill="#f2f5e9" fill-opacity="0.5" stroke="#606060" stroke-width=".5" x="0" y="0" width="60" height="60"/>
                <use id="zoomplus" xlink:href="#zoomPlus" x="17" y="9" onmousedown="handleZoom(evt,'in')"/>
                <use id="zoomminus" xlink:href="#zoomMin" x="42" y="9" onmousedown="handleZoom(evt,'out')"/>
                <use id="reset" xlink:href="#resetDef" x="30" y="36" onmousedown="handleReset()"/>
                <g id="arrowUp" xlink:href="#dirArrow" transform="translate(30 24)" onmousedown="handlePan(0,-1)">
                  <use xlink:href="#rim" fill="#404040">
                        <set attributeName="fill" to="#808080" begin="arrowUp.mouseover" end="arrowUp.mouseout"/>
                  </use>
                  <path fill="none" stroke="white" stroke-width="1.5" d="M0,-3.0v7 M-2.5,-0.5L0,-3.0L2.5,-0.5"/>
                </g>
                <g id="arrowRight" xlink:href="#dirArrow" transform="rotate(90) translate(36 -43)" onmousedown="handlePan(1,0)">
                  <use xlink:href="#rim" fill="#404040">
                        <set attributeName="fill" to="#808080" begin="arrowRight.mouseover" end="arrowRight.mouseout"/>
                  </use>
                  <path fill="none" stroke="white" stroke-width="1.5" d="M0,-3.0v7 M-2.5,-0.5L0,-3.0L2.5,-0.5"/>
                </g>
                <g id="arrowDown" xlink:href="#dirArrow" transform="rotate(180) translate(-30 -48)" onmousedown="handlePan(0,1)">
                  <use xlink:href="#rim" fill="#404040">
                        <set attributeName="fill" to="#808080" begin="arrowDown.mouseover" end="arrowDown.mouseout"/>
                  </use>
                  <path fill="none" stroke="white" stroke-width="1.5" d="M0,-3.0v7 M-2.5,-0.5L0,-3.0L2.5,-0.5"/>
                </g>
                <g id="arrowLeft" xlink:href="#dirArrow" transform="rotate(270) translate(-36 17)" onmousedown="handlePan(-1,0)">
                  <use xlink:href="#rim" fill="#404040">
                        <set attributeName="fill" to="#808080" begin="arrowLeft.mouseover" end="arrowLeft.mouseout"/>
                  </use>
                  <path fill="none" stroke="white" stroke-width="1.5" d="M0,-3.0v7 M-2.5,-0.5L0,-3.0L2.5,-0.5"/>
                </g>
        </g>
        <svg viewBox="0 0 15 15" width="100%" height="30px" preserveAspectRatio="xMaxYMin meet">
         <g id="arrow_out" transform="scale(0.3 0.3)">
          <a xlink:href="dji__control_8cpp__incl_org.svg" target="_base">
           <rect id="button" ry="5" rx="5" y="6" x="6" height="38" width="38"
                fill="#f2f5e9" fill-opacity="0.5" stroke="#606060" stroke-width="1.0"/>
           <path id="arrow"
             d="M 11.500037,31.436501 C 11.940474,20.09759 22.043105,11.32322 32.158766,21.979434 L 37.068811,17.246167 C 37.068811,17.246167 37.088388,32 37.088388,32 L 22.160133,31.978069 C 22.160133,31.978069 26.997745,27.140456 26.997745,27.140456 C 18.528582,18.264221 13.291696,25.230495 11.500037,31.436501 z"
             style="fill:#404040;"/>
          </a>
         </g>
        </svg>
</svg>
