<?xml version="1.0" encoding="UTF-8" standalone="no"?>
<!DOCTYPE svg PUBLIC "-//W3C//DTD SVG 1.1//EN"
 "http://www.w3.org/Graphics/SVG/1.1/DTD/svg11.dtd">
<!-- Generated by graphviz version 2.38.0 (20140413.2041)
 -->
<!-- Title: Graphical Class Hierarchy Pages: 1 -->
<svg width="321pt" height="66pt"
 viewBox="0.00 0.00 321.00 66.00" xmlns="http://www.w3.org/2000/svg" xmlns:xlink="http://www.w3.org/1999/xlink">
<g id="graph0" class="graph" transform="scale(1 1) rotate(0) translate(4 62)">
<title>Graphical Class Hierarchy</title>
<polygon fill="white" stroke="none" points="-4,4 -4,-62 317,-62 317,4 -4,4"/>
<!-- Node1 -->
<g id="node1" class="node"><title>Node1</title>
<g id="a_node1"><a xlink:href="classDJI_1_1OSDK_1_1MissionBase.html" target="_top" xlink:title="Mission Base class for commonality between SDK Missions. ">
<polygon fill="white" stroke="black" points="0,-19.5 0,-38.5 129,-38.5 129,-19.5 0,-19.5"/>
<text text-anchor="middle" x="64.5" y="-26.5" font-family="Helvetica,sans-Serif" font-size="10.00">DJI::OSDK::MissionBase</text>
</a>
</g>
</g>
<!-- Node2 -->
<g id="node2" class="node"><title>Node2</title>
<g id="a_node2"><a xlink:href="classDJI_1_1OSDK_1_1HotpointMission.html" target="_top" xlink:title="APIs for Hotpoint (Point of Interest) Missions. ">
<polygon fill="white" stroke="black" points="167.5,-38.5 167.5,-57.5 310.5,-57.5 310.5,-38.5 167.5,-38.5"/>
<text text-anchor="middle" x="239" y="-45.5" font-family="Helvetica,sans-Serif" font-size="10.00">DJI::OSDK::HotpointMission</text>
</a>
</g>
</g>
<!-- Node1&#45;&gt;Node2 -->
<g id="edge1" class="edge"><title>Node1&#45;&gt;Node2</title>
<path fill="none" stroke="midnightblue" d="M139.228,-37.1208C148.522,-38.1444 158.013,-39.1899 167.259,-40.2083"/>
<polygon fill="midnightblue" stroke="midnightblue" points="139.566,-33.6369 129.243,-36.0209 138.799,-40.5948 139.566,-33.6369"/>
</g>
<!-- Node3 -->
<g id="node3" class="node"><title>Node3</title>
<g id="a_node3"><a xlink:href="classDJI_1_1OSDK_1_1WaypointMission.html" target="_top" xlink:title="APIs for GPS Waypoint Missions. ">
<polygon fill="white" stroke="black" points="165,-0.5 165,-19.5 313,-19.5 313,-0.5 165,-0.5"/>
<text text-anchor="middle" x="239" y="-7.5" font-family="Helvetica,sans-Serif" font-size="10.00">DJI::OSDK::WaypointMission</text>
</a>
</g>
</g>
<!-- Node1&#45;&gt;Node3 -->
<g id="edge2" class="edge"><title>Node1&#45;&gt;Node3</title>
<path fill="none" stroke="midnightblue" d="M139.437,-20.8562C147.879,-19.9264 156.481,-18.9789 164.912,-18.0503"/>
<polygon fill="midnightblue" stroke="midnightblue" points="138.799,-17.4052 129.243,-21.9791 139.566,-24.3631 138.799,-17.4052"/>
</g>
</g>
</svg>
