<?xml version="1.0" encoding="UTF-8" standalone="no"?>
<!DOCTYPE svg PUBLIC "-//W3C//DTD SVG 1.1//EN"
 "http://www.w3.org/Graphics/SVG/1.1/DTD/svg11.dtd">
<!-- Generated by graphviz version 2.38.0 (20140413.2041)
 -->
<!-- Title: osdk&#45;core/platform/linux/inc/linux_serial_device.hpp Pages: 1 -->
<svg width="465pt" height="106pt"
 viewBox="0.00 0.00 465.00 106.00" xmlns="http://www.w3.org/2000/svg" xmlns:xlink="http://www.w3.org/1999/xlink">
<g id="graph0" class="graph" transform="scale(1 1) rotate(0) translate(4 102)">
<title>osdk&#45;core/platform/linux/inc/linux_serial_device.hpp</title>
<polygon fill="white" stroke="none" points="-4,4 -4,-102 461,-102 461,4 -4,4"/>
<!-- Node0 -->
<g id="node1" class="node"><title>Node0</title>
<g id="a_node1"><a xlink:title="Serial device hardware implementation for *NIX machines.">
<polygon fill="#bfbfbf" stroke="black" points="137.5,-56.5 137.5,-97.5 244.5,-97.5 244.5,-56.5 137.5,-56.5"/>
<text text-anchor="start" x="145.5" y="-85.5" font-family="Helvetica,sans-Serif" font-size="10.00">osdk&#45;core/platform</text>
<text text-anchor="start" x="145.5" y="-74.5" font-family="Helvetica,sans-Serif" font-size="10.00">/linux/inc/linux_serial</text>
<text text-anchor="middle" x="191" y="-63.5" font-family="Helvetica,sans-Serif" font-size="10.00">_device.hpp</text>
</a>
</g>
</g>
<!-- Node1 -->
<g id="node2" class="node"><title>Node1</title>
<g id="a_node2"><a xlink:title=" ">
<polygon fill="white" stroke="#bfbfbf" points="0,-0.5 0,-19.5 46,-19.5 46,-0.5 0,-0.5"/>
<text text-anchor="middle" x="23" y="-7.5" font-family="Helvetica,sans-Serif" font-size="10.00">cstring</text>
</a>
</g>
</g>
<!-- Node0&#45;&gt;Node1 -->
<g id="edge1" class="edge"><title>Node0&#45;&gt;Node1</title>
<path fill="none" stroke="midnightblue" d="M140.594,-56.4979C112.732,-45.7176 78.9648,-32.6531 54.7756,-23.2941"/>
<polygon fill="midnightblue" stroke="midnightblue" points="55.9526,-19.9967 45.3634,-19.6525 53.4267,-26.5251 55.9526,-19.9967"/>
</g>
<!-- Node2 -->
<g id="node3" class="node"><title>Node2</title>
<g id="a_node3"><a xlink:title=" ">
<polygon fill="white" stroke="#bfbfbf" points="64,-0.5 64,-19.5 108,-19.5 108,-0.5 64,-0.5"/>
<text text-anchor="middle" x="86" y="-7.5" font-family="Helvetica,sans-Serif" font-size="10.00">fcntl.h</text>
</a>
</g>
</g>
<!-- Node0&#45;&gt;Node2 -->
<g id="edge2" class="edge"><title>Node0&#45;&gt;Node2</title>
<path fill="none" stroke="midnightblue" d="M159.497,-56.4979C143.088,-46.3405 123.404,-34.1551 108.538,-24.9523"/>
<polygon fill="midnightblue" stroke="midnightblue" points="110.322,-21.9402 99.9771,-19.6525 106.638,-27.892 110.322,-21.9402"/>
</g>
<!-- Node3 -->
<g id="node4" class="node"><title>Node3</title>
<g id="a_node4"><a xlink:title=" ">
<polygon fill="white" stroke="#bfbfbf" points="126.5,-0.5 126.5,-19.5 183.5,-19.5 183.5,-0.5 126.5,-0.5"/>
<text text-anchor="middle" x="155" y="-7.5" font-family="Helvetica,sans-Serif" font-size="10.00">termios.h</text>
</a>
</g>
</g>
<!-- Node0&#45;&gt;Node3 -->
<g id="edge3" class="edge"><title>Node0&#45;&gt;Node3</title>
<path fill="none" stroke="midnightblue" d="M180.199,-56.4979C175.263,-47.5862 169.463,-37.1135 164.672,-28.4636"/>
<polygon fill="midnightblue" stroke="midnightblue" points="167.699,-26.7046 159.792,-19.6525 161.575,-30.0962 167.699,-26.7046"/>
</g>
<!-- Node4 -->
<g id="node5" class="node"><title>Node4</title>
<g id="a_node5"><a xlink:title=" ">
<polygon fill="white" stroke="#bfbfbf" points="201.5,-0.5 201.5,-19.5 252.5,-19.5 252.5,-0.5 201.5,-0.5"/>
<text text-anchor="middle" x="227" y="-7.5" font-family="Helvetica,sans-Serif" font-size="10.00">unistd.h</text>
</a>
</g>
</g>
<!-- Node0&#45;&gt;Node4 -->
<g id="edge4" class="edge"><title>Node0&#45;&gt;Node4</title>
<path fill="none" stroke="midnightblue" d="M201.801,-56.4979C206.737,-47.5862 212.537,-37.1135 217.328,-28.4636"/>
<polygon fill="midnightblue" stroke="midnightblue" points="220.425,-30.0962 222.208,-19.6525 214.301,-26.7046 220.425,-30.0962"/>
</g>
<!-- Node5 -->
<g id="node6" class="node"><title>Node5</title>
<g id="a_node6"><a xlink:title=" ">
<polygon fill="white" stroke="#bfbfbf" points="271,-0.5 271,-19.5 341,-19.5 341,-0.5 271,-0.5"/>
<text text-anchor="middle" x="306" y="-7.5" font-family="Helvetica,sans-Serif" font-size="10.00">sys/select.h</text>
</a>
</g>
</g>
<!-- Node0&#45;&gt;Node5 -->
<g id="edge5" class="edge"><title>Node0&#45;&gt;Node5</title>
<path fill="none" stroke="midnightblue" d="M225.504,-56.4979C243.644,-46.2447 265.44,-33.925 281.775,-24.6927"/>
<polygon fill="midnightblue" stroke="midnightblue" points="283.708,-27.6201 290.692,-19.6525 280.264,-21.5261 283.708,-27.6201"/>
</g>
<!-- Node6 -->
<g id="node7" class="node"><title>Node6</title>
<g id="a_node7"><a xlink:title=" ">
<polygon fill="white" stroke="#bfbfbf" points="359,-0.5 359,-19.5 457,-19.5 457,-0.5 359,-0.5"/>
<text text-anchor="middle" x="408" y="-7.5" font-family="Helvetica,sans-Serif" font-size="10.00">dji_hard_driver.hpp</text>
</a>
</g>
</g>
<!-- Node0&#45;&gt;Node6 -->
<g id="edge6" class="edge"><title>Node0&#45;&gt;Node6</title>
<path fill="none" stroke="midnightblue" d="M244.64,-59.9326C283.479,-48.2989 335.045,-32.8529 369.765,-22.4528"/>
<polygon fill="midnightblue" stroke="midnightblue" points="370.951,-25.7512 379.527,-19.5289 368.943,-19.0456 370.951,-25.7512"/>
</g>
</g>
</svg>
