<?xml version="1.0" encoding="UTF-8" standalone="no"?>
<!DOCTYPE svg PUBLIC "-//W3C//DTD SVG 1.1//EN"
 "http://www.w3.org/Graphics/SVG/1.1/DTD/svg11.dtd">
<!-- Generated by graphviz version 2.38.0 (20140413.2041)
 -->
<!-- Title: osdk&#45;core/platform/linux/src/linux_serial_device.cpp Pages: 1 -->
<svg width="376pt" height="162pt"
 viewBox="0.00 0.00 376.00 162.00" xmlns="http://www.w3.org/2000/svg" xmlns:xlink="http://www.w3.org/1999/xlink">
<g id="graph0" class="graph" transform="scale(1 1) rotate(0) translate(4 158)">
<title>osdk&#45;core/platform/linux/src/linux_serial_device.cpp</title>
<polygon fill="white" stroke="none" points="-4,4 -4,-158 372,-158 372,4 -4,4"/>
<!-- Node1 -->
<g id="node1" class="node"><title>Node1</title>
<polygon fill="#bfbfbf" stroke="black" points="153,-112.5 153,-153.5 261,-153.5 261,-112.5 153,-112.5"/>
<text text-anchor="start" x="161" y="-141.5" font-family="Helvetica,sans-Serif" font-size="10.00">osdk&#45;core/platform</text>
<text text-anchor="start" x="161" y="-130.5" font-family="Helvetica,sans-Serif" font-size="10.00">/linux/src/linux_serial</text>
<text text-anchor="middle" x="207" y="-119.5" font-family="Helvetica,sans-Serif" font-size="10.00">_device.cpp</text>
</g>
<!-- Node2 -->
<g id="node2" class="node"><title>Node2</title>
<g id="a_node2"><a xlink:href="linux__serial__device_8hpp.html" target="_top" xlink:title="Serial device hardware implementation for *NIX machines. ">
<polygon fill="white" stroke="black" points="96,-56.5 96,-75.5 214,-75.5 214,-56.5 96,-56.5"/>
<text text-anchor="middle" x="155" y="-63.5" font-family="Helvetica,sans-Serif" font-size="10.00">linux_serial_device.hpp</text>
</a>
</g>
</g>
<!-- Node1&#45;&gt;Node2 -->
<g id="edge1" class="edge"><title>Node1&#45;&gt;Node2</title>
<path fill="none" stroke="midnightblue" d="M191.398,-112.498C184.039,-103.299 175.349,-92.4362 168.306,-83.6323"/>
<polygon fill="midnightblue" stroke="midnightblue" points="170.902,-81.2748 161.922,-75.6525 165.436,-85.6476 170.902,-81.2748"/>
</g>
<!-- Node8 -->
<g id="node8" class="node"><title>Node8</title>
<polygon fill="white" stroke="#bfbfbf" points="232,-56.5 232,-75.5 288,-75.5 288,-56.5 232,-56.5"/>
<text text-anchor="middle" x="260" y="-63.5" font-family="Helvetica,sans-Serif" font-size="10.00">algorithm</text>
</g>
<!-- Node1&#45;&gt;Node8 -->
<g id="edge7" class="edge"><title>Node1&#45;&gt;Node8</title>
<path fill="none" stroke="midnightblue" d="M222.902,-112.498C230.403,-103.299 239.26,-92.4362 246.438,-83.6323"/>
<polygon fill="midnightblue" stroke="midnightblue" points="249.338,-85.6145 252.945,-75.6525 243.913,-81.1909 249.338,-85.6145"/>
</g>
<!-- Node3 -->
<g id="node3" class="node"><title>Node3</title>
<polygon fill="white" stroke="#bfbfbf" points="0,-0.5 0,-19.5 46,-19.5 46,-0.5 0,-0.5"/>
<text text-anchor="middle" x="23" y="-7.5" font-family="Helvetica,sans-Serif" font-size="10.00">cstring</text>
</g>
<!-- Node2&#45;&gt;Node3 -->
<g id="edge2" class="edge"><title>Node2&#45;&gt;Node3</title>
<path fill="none" stroke="midnightblue" d="M134.084,-56.4435C112.264,-47.5171 77.8502,-33.4387 53.1078,-23.3168"/>
<polygon fill="midnightblue" stroke="midnightblue" points="54.3987,-20.0634 43.8179,-19.5164 51.7482,-26.5422 54.3987,-20.0634"/>
</g>
<!-- Node4 -->
<g id="node4" class="node"><title>Node4</title>
<polygon fill="white" stroke="#bfbfbf" points="64,-0.5 64,-19.5 108,-19.5 108,-0.5 64,-0.5"/>
<text text-anchor="middle" x="86" y="-7.5" font-family="Helvetica,sans-Serif" font-size="10.00">fcntl.h</text>
</g>
<!-- Node2&#45;&gt;Node4 -->
<g id="edge3" class="edge"><title>Node2&#45;&gt;Node4</title>
<path fill="none" stroke="midnightblue" d="M143.914,-56.324C133.514,-48.1849 117.739,-35.8395 105.278,-26.0874"/>
<polygon fill="midnightblue" stroke="midnightblue" points="107.32,-23.2407 97.2878,-19.8339 103.006,-28.7533 107.32,-23.2407"/>
</g>
<!-- Node5 -->
<g id="node5" class="node"><title>Node5</title>
<polygon fill="white" stroke="#bfbfbf" points="126.5,-0.5 126.5,-19.5 183.5,-19.5 183.5,-0.5 126.5,-0.5"/>
<text text-anchor="middle" x="155" y="-7.5" font-family="Helvetica,sans-Serif" font-size="10.00">termios.h</text>
</g>
<!-- Node2&#45;&gt;Node5 -->
<g id="edge4" class="edge"><title>Node2&#45;&gt;Node5</title>
<path fill="none" stroke="midnightblue" d="M155,-56.083C155,-49.0059 155,-38.8611 155,-29.9865"/>
<polygon fill="midnightblue" stroke="midnightblue" points="158.5,-29.751 155,-19.7511 151.5,-29.7511 158.5,-29.751"/>
</g>
<!-- Node6 -->
<g id="node6" class="node"><title>Node6</title>
<polygon fill="white" stroke="#bfbfbf" points="201.5,-0.5 201.5,-19.5 252.5,-19.5 252.5,-0.5 201.5,-0.5"/>
<text text-anchor="middle" x="227" y="-7.5" font-family="Helvetica,sans-Serif" font-size="10.00">unistd.h</text>
</g>
<!-- Node2&#45;&gt;Node6 -->
<g id="edge5" class="edge"><title>Node2&#45;&gt;Node6</title>
<path fill="none" stroke="midnightblue" d="M166.568,-56.324C177.42,-48.1849 193.881,-35.8395 206.883,-26.0874"/>
<polygon fill="midnightblue" stroke="midnightblue" points="209.321,-28.6339 215.221,-19.8339 205.121,-23.0339 209.321,-28.6339"/>
</g>
<!-- Node7 -->
<g id="node7" class="node"><title>Node7</title>
<polygon fill="white" stroke="#bfbfbf" points="270,-0.5 270,-19.5 368,-19.5 368,-0.5 270,-0.5"/>
<text text-anchor="middle" x="319" y="-7.5" font-family="Helvetica,sans-Serif" font-size="10.00">dji_hard_driver.hpp</text>
</g>
<!-- Node2&#45;&gt;Node7 -->
<g id="edge6" class="edge"><title>Node2&#45;&gt;Node7</title>
<path fill="none" stroke="midnightblue" d="M180.986,-56.4435C208.696,-47.3196 252.752,-32.8133 283.616,-22.6509"/>
<polygon fill="midnightblue" stroke="midnightblue" points="284.732,-25.9684 293.135,-19.5164 282.542,-19.3196 284.732,-25.9684"/>
</g>
</g>
</svg>
