<?xml version="1.0" encoding="UTF-8" standalone="no"?>
<!DOCTYPE svg PUBLIC "-//W3C//DTD SVG 1.1//EN"
 "http://www.w3.org/Graphics/SVG/1.1/DTD/svg11.dtd">
<!-- Generated by graphviz version 2.40.1 (20161225.0304)
 -->
<!-- Title: osdk&#45;core/platform/linux/src/linux_serial_device.cpp Pages: 1 -->
<svg width="465pt" height="162pt"
 viewBox="0.00 0.00 465.00 162.00" xmlns="http://www.w3.org/2000/svg" xmlns:xlink="http://www.w3.org/1999/xlink">
<g id="graph0" class="graph" transform="scale(1 1) rotate(0) translate(4 158)">
<title>osdk&#45;core/platform/linux/src/linux_serial_device.cpp</title>
<polygon fill="#ffffff" stroke="transparent" points="-4,4 -4,-158 461,-158 461,4 -4,4"/>
<!-- Node0 -->
<g id="node1" class="node">
<title>Node0</title>
<g id="a_node1"><a xlink:title="Serial device hardware implementation for Linux machines. This is a generic Linux serial device imple...">
<polygon fill="#bfbfbf" stroke="#000000" points="242,-112.5 242,-153.5 350,-153.5 350,-112.5 242,-112.5"/>
<text text-anchor="start" x="250" y="-141.5" font-family="Helvetica,sans-Serif" font-size="10.00" fill="#000000">osdk&#45;core/platform</text>
<text text-anchor="start" x="250" y="-130.5" font-family="Helvetica,sans-Serif" font-size="10.00" fill="#000000">/linux/src/linux_serial</text>
<text text-anchor="middle" x="296" y="-119.5" font-family="Helvetica,sans-Serif" font-size="10.00" fill="#000000">_device.cpp</text>
</a>
</g>
</g>
<!-- Node1 -->
<g id="node2" class="node">
<title>Node1</title>
<g id="a_node2"><a xlink:href="linux__serial__device_8hpp.html" target="_top" xlink:title="Serial device hardware implementation for *NIX machines.">
<polygon fill="#ffffff" stroke="#000000" points="132,-56.5 132,-75.5 250,-75.5 250,-56.5 132,-56.5"/>
<text text-anchor="middle" x="191" y="-63.5" font-family="Helvetica,sans-Serif" font-size="10.00" fill="#000000">linux_serial_device.hpp</text>
</a>
</g>
</g>
<!-- Node0&#45;&gt;Node1 -->
<g id="edge1" class="edge">
<title>Node0&#45;&gt;Node1</title>
<path fill="none" stroke="#191970" d="M263.6398,-112.3511C247.9212,-102.3212 229.3637,-90.4797 214.9403,-81.2762"/>
<polygon fill="#191970" stroke="#191970" points="216.4431,-78.0833 206.1304,-75.6546 212.6777,-83.9843 216.4431,-78.0833"/>
</g>
<!-- Node8 -->
<g id="node9" class="node">
<title>Node8</title>
<g id="a_node9"><a xlink:title=" ">
<polygon fill="#ffffff" stroke="#bfbfbf" points="268,-56.5 268,-75.5 324,-75.5 324,-56.5 268,-56.5"/>
<text text-anchor="middle" x="296" y="-63.5" font-family="Helvetica,sans-Serif" font-size="10.00" fill="#000000">algorithm</text>
</a>
</g>
</g>
<!-- Node0&#45;&gt;Node8 -->
<g id="edge8" class="edge">
<title>Node0&#45;&gt;Node8</title>
<path fill="none" stroke="#191970" d="M296,-112.168C296,-103.8226 296,-94.2471 296,-85.9879"/>
<polygon fill="#191970" stroke="#191970" points="299.5001,-85.7804 296,-75.7805 292.5001,-85.7805 299.5001,-85.7804"/>
</g>
<!-- Node9 -->
<g id="node10" class="node">
<title>Node9</title>
<g id="a_node10"><a xlink:title=" ">
<polygon fill="#ffffff" stroke="#bfbfbf" points="342.5,-56.5 342.5,-75.5 389.5,-75.5 389.5,-56.5 342.5,-56.5"/>
<text text-anchor="middle" x="366" y="-63.5" font-family="Helvetica,sans-Serif" font-size="10.00" fill="#000000">iterator</text>
</a>
</g>
</g>
<!-- Node0&#45;&gt;Node9 -->
<g id="edge9" class="edge">
<title>Node0&#45;&gt;Node9</title>
<path fill="none" stroke="#191970" d="M317.7647,-112.168C327.5738,-102.7794 339.0093,-91.834 348.2833,-82.9574"/>
<polygon fill="#191970" stroke="#191970" points="350.9775,-85.2235 355.7816,-75.7805 346.1373,-80.1666 350.9775,-85.2235"/>
</g>
<!-- Node2 -->
<g id="node3" class="node">
<title>Node2</title>
<g id="a_node3"><a xlink:title=" ">
<polygon fill="#ffffff" stroke="#bfbfbf" points="0,-.5 0,-19.5 46,-19.5 46,-.5 0,-.5"/>
<text text-anchor="middle" x="23" y="-7.5" font-family="Helvetica,sans-Serif" font-size="10.00" fill="#000000">cstring</text>
</a>
</g>
</g>
<!-- Node1&#45;&gt;Node2 -->
<g id="edge2" class="edge">
<title>Node1&#45;&gt;Node2</title>
<path fill="none" stroke="#191970" d="M162.1198,-56.3733C132.6191,-46.5397 86.8791,-31.293 55.9747,-20.9916"/>
<polygon fill="#191970" stroke="#191970" points="56.7013,-17.5445 46.1077,-17.7026 54.4877,-24.1853 56.7013,-17.5445"/>
</g>
<!-- Node3 -->
<g id="node4" class="node">
<title>Node3</title>
<g id="a_node4"><a xlink:title=" ">
<polygon fill="#ffffff" stroke="#bfbfbf" points="64,-.5 64,-19.5 108,-19.5 108,-.5 64,-.5"/>
<text text-anchor="middle" x="86" y="-7.5" font-family="Helvetica,sans-Serif" font-size="10.00" fill="#000000">fcntl.h</text>
</a>
</g>
</g>
<!-- Node1&#45;&gt;Node3 -->
<g id="edge3" class="edge">
<title>Node1&#45;&gt;Node3</title>
<path fill="none" stroke="#191970" d="M172.7104,-56.2455C156.2238,-47.4527 131.7648,-34.4079 113.0235,-24.4125"/>
<polygon fill="#191970" stroke="#191970" points="114.5506,-21.2604 104.08,-19.6427 111.2565,-27.4368 114.5506,-21.2604"/>
</g>
<!-- Node4 -->
<g id="node5" class="node">
<title>Node4</title>
<g id="a_node5"><a xlink:title=" ">
<polygon fill="#ffffff" stroke="#bfbfbf" points="126.5,-.5 126.5,-19.5 183.5,-19.5 183.5,-.5 126.5,-.5"/>
<text text-anchor="middle" x="155" y="-7.5" font-family="Helvetica,sans-Serif" font-size="10.00" fill="#000000">termios.h</text>
</a>
</g>
</g>
<!-- Node1&#45;&gt;Node4 -->
<g id="edge4" class="edge">
<title>Node1&#45;&gt;Node4</title>
<path fill="none" stroke="#191970" d="M184.7293,-56.2455C179.7736,-48.5367 172.717,-37.5598 166.7224,-28.2348"/>
<polygon fill="#191970" stroke="#191970" points="169.5506,-26.1618 161.1989,-19.6427 163.6624,-29.9471 169.5506,-26.1618"/>
</g>
<!-- Node5 -->
<g id="node6" class="node">
<title>Node5</title>
<g id="a_node6"><a xlink:title=" ">
<polygon fill="#ffffff" stroke="#bfbfbf" points="201.5,-.5 201.5,-19.5 252.5,-19.5 252.5,-.5 201.5,-.5"/>
<text text-anchor="middle" x="227" y="-7.5" font-family="Helvetica,sans-Serif" font-size="10.00" fill="#000000">unistd.h</text>
</a>
</g>
</g>
<!-- Node1&#45;&gt;Node5 -->
<g id="edge5" class="edge">
<title>Node1&#45;&gt;Node5</title>
<path fill="none" stroke="#191970" d="M197.2707,-56.2455C202.2264,-48.5367 209.283,-37.5598 215.2776,-28.2348"/>
<polygon fill="#191970" stroke="#191970" points="218.3376,-29.9471 220.8011,-19.6427 212.4494,-26.1618 218.3376,-29.9471"/>
</g>
<!-- Node6 -->
<g id="node7" class="node">
<title>Node6</title>
<g id="a_node7"><a xlink:title=" ">
<polygon fill="#ffffff" stroke="#bfbfbf" points="271,-.5 271,-19.5 341,-19.5 341,-.5 271,-.5"/>
<text text-anchor="middle" x="306" y="-7.5" font-family="Helvetica,sans-Serif" font-size="10.00" fill="#000000">sys/select.h</text>
</a>
</g>
</g>
<!-- Node1&#45;&gt;Node6 -->
<g id="edge6" class="edge">
<title>Node1&#45;&gt;Node6</title>
<path fill="none" stroke="#191970" d="M210.7692,-56.3733C229.1469,-47.4241 256.7312,-33.9917 277.4893,-23.8835"/>
<polygon fill="#191970" stroke="#191970" points="279.0304,-27.026 286.4888,-19.5011 275.9657,-20.7325 279.0304,-27.026"/>
</g>
<!-- Node7 -->
<g id="node8" class="node">
<title>Node7</title>
<g id="a_node8"><a xlink:title=" ">
<polygon fill="#ffffff" stroke="#bfbfbf" points="359,-.5 359,-19.5 457,-19.5 457,-.5 359,-.5"/>
<text text-anchor="middle" x="408" y="-7.5" font-family="Helvetica,sans-Serif" font-size="10.00" fill="#000000">dji_hard_driver.hpp</text>
</a>
</g>
</g>
<!-- Node1&#45;&gt;Node7 -->
<g id="edge7" class="edge">
<title>Node1&#45;&gt;Node7</title>
<path fill="none" stroke="#191970" d="M228.3036,-56.3733C265.1685,-46.8598 321.666,-32.2797 361.4506,-22.0127"/>
<polygon fill="#191970" stroke="#191970" points="362.375,-25.3889 371.1831,-19.5011 360.6258,-18.611 362.375,-25.3889"/>
</g>
</g>
</svg>
