<?xml version="1.0" encoding="UTF-8" standalone="no"?>
<!DOCTYPE svg PUBLIC "-//W3C//DTD SVG 1.1//EN"
 "http://www.w3.org/Graphics/SVG/1.1/DTD/svg11.dtd">
<!-- Generated by graphviz version 2.40.1 (20161225.0304)
 -->
<!-- Title: osdk&#45;core/platform/linux/inc/linux_serial_device.hpp Pages: 1 -->
<svg width="465pt" height="106pt"
 viewBox="0.00 0.00 465.00 106.00" xmlns="http://www.w3.org/2000/svg" xmlns:xlink="http://www.w3.org/1999/xlink">
<g id="graph0" class="graph" transform="scale(1 1) rotate(0) translate(4 102)">
<title>osdk&#45;core/platform/linux/inc/linux_serial_device.hpp</title>
<polygon fill="#ffffff" stroke="transparent" points="-4,4 -4,-102 461,-102 461,4 -4,4"/>
<!-- Node0 -->
<g id="node1" class="node">
<title>Node0</title>
<g id="a_node1"><a xlink:title="Serial device hardware implementation for *NIX machines.">
<polygon fill="#bfbfbf" stroke="#000000" points="137.5,-56.5 137.5,-97.5 244.5,-97.5 244.5,-56.5 137.5,-56.5"/>
<text text-anchor="start" x="145.5" y="-85.5" font-family="Helvetica,sans-Serif" font-size="10.00" fill="#000000">osdk&#45;core/platform</text>
<text text-anchor="start" x="145.5" y="-74.5" font-family="Helvetica,sans-Serif" font-size="10.00" fill="#000000">/linux/inc/linux_serial</text>
<text text-anchor="middle" x="191" y="-63.5" font-family="Helvetica,sans-Serif" font-size="10.00" fill="#000000">_device.hpp</text>
</a>
</g>
</g>
<!-- Node1 -->
<g id="node2" class="node">
<title>Node1</title>
<g id="a_node2"><a xlink:title=" ">
<polygon fill="#ffffff" stroke="#bfbfbf" points="0,-.5 0,-19.5 46,-19.5 46,-.5 0,-.5"/>
<text text-anchor="middle" x="23" y="-7.5" font-family="Helvetica,sans-Serif" font-size="10.00" fill="#000000">cstring</text>
</a>
</g>
</g>
<!-- Node0&#45;&gt;Node1 -->
<g id="edge1" class="edge">
<title>Node0&#45;&gt;Node1</title>
<path fill="none" stroke="#191970" d="M139.2236,-56.3511C112.0599,-45.5179 79.597,-32.5714 55.893,-23.1181"/>
<polygon fill="#191970" stroke="#191970" points="56.8965,-19.7502 46.3114,-19.2968 54.3034,-26.2522 56.8965,-19.7502"/>
</g>
<!-- Node2 -->
<g id="node3" class="node">
<title>Node2</title>
<g id="a_node3"><a xlink:title=" ">
<polygon fill="#ffffff" stroke="#bfbfbf" points="64,-.5 64,-19.5 108,-19.5 108,-.5 64,-.5"/>
<text text-anchor="middle" x="86" y="-7.5" font-family="Helvetica,sans-Serif" font-size="10.00" fill="#000000">fcntl.h</text>
</a>
</g>
</g>
<!-- Node0&#45;&gt;Node2 -->
<g id="edge2" class="edge">
<title>Node0&#45;&gt;Node2</title>
<path fill="none" stroke="#191970" d="M158.6398,-56.3511C142.9212,-46.3212 124.3637,-34.4797 109.9403,-25.2762"/>
<polygon fill="#191970" stroke="#191970" points="111.4431,-22.0833 101.1304,-19.6546 107.6777,-27.9843 111.4431,-22.0833"/>
</g>
<!-- Node3 -->
<g id="node4" class="node">
<title>Node3</title>
<g id="a_node4"><a xlink:title=" ">
<polygon fill="#ffffff" stroke="#bfbfbf" points="126.5,-.5 126.5,-19.5 183.5,-19.5 183.5,-.5 126.5,-.5"/>
<text text-anchor="middle" x="155" y="-7.5" font-family="Helvetica,sans-Serif" font-size="10.00" fill="#000000">termios.h</text>
</a>
</g>
</g>
<!-- Node0&#45;&gt;Node3 -->
<g id="edge3" class="edge">
<title>Node0&#45;&gt;Node3</title>
<path fill="none" stroke="#191970" d="M179.8067,-56.168C175.0678,-47.3484 169.5907,-37.155 164.9904,-28.5933"/>
<polygon fill="#191970" stroke="#191970" points="168.0715,-26.9328 160.2552,-19.7805 161.9053,-30.246 168.0715,-26.9328"/>
</g>
<!-- Node4 -->
<g id="node5" class="node">
<title>Node4</title>
<g id="a_node5"><a xlink:title=" ">
<polygon fill="#ffffff" stroke="#bfbfbf" points="201.5,-.5 201.5,-19.5 252.5,-19.5 252.5,-.5 201.5,-.5"/>
<text text-anchor="middle" x="227" y="-7.5" font-family="Helvetica,sans-Serif" font-size="10.00" fill="#000000">unistd.h</text>
</a>
</g>
</g>
<!-- Node0&#45;&gt;Node4 -->
<g id="edge4" class="edge">
<title>Node0&#45;&gt;Node4</title>
<path fill="none" stroke="#191970" d="M202.1933,-56.168C206.9322,-47.3484 212.4093,-37.155 217.0096,-28.5933"/>
<polygon fill="#191970" stroke="#191970" points="220.0947,-30.246 221.7448,-19.7805 213.9285,-26.9328 220.0947,-30.246"/>
</g>
<!-- Node5 -->
<g id="node6" class="node">
<title>Node5</title>
<g id="a_node6"><a xlink:title=" ">
<polygon fill="#ffffff" stroke="#bfbfbf" points="271,-.5 271,-19.5 341,-19.5 341,-.5 271,-.5"/>
<text text-anchor="middle" x="306" y="-7.5" font-family="Helvetica,sans-Serif" font-size="10.00" fill="#000000">sys/select.h</text>
</a>
</g>
</g>
<!-- Node0&#45;&gt;Node5 -->
<g id="edge5" class="edge">
<title>Node0&#45;&gt;Node5</title>
<path fill="none" stroke="#191970" d="M226.4422,-56.3511C243.9856,-46.1301 264.7581,-34.0279 280.6774,-24.7532"/>
<polygon fill="#191970" stroke="#191970" points="282.55,-27.7129 289.4286,-19.6546 279.0262,-21.6645 282.55,-27.7129"/>
</g>
<!-- Node6 -->
<g id="node7" class="node">
<title>Node6</title>
<g id="a_node7"><a xlink:title=" ">
<polygon fill="#ffffff" stroke="#bfbfbf" points="359,-.5 359,-19.5 457,-19.5 457,-.5 359,-.5"/>
<text text-anchor="middle" x="408" y="-7.5" font-family="Helvetica,sans-Serif" font-size="10.00" fill="#000000">dji_hard_driver.hpp</text>
</a>
</g>
</g>
<!-- Node0&#45;&gt;Node6 -->
<g id="edge6" class="edge">
<title>Node0&#45;&gt;Node6</title>
<path fill="none" stroke="#191970" d="M244.6405,-60.4382C282.5653,-48.7287 332.6253,-33.2724 367.2869,-22.5704"/>
<polygon fill="#191970" stroke="#191970" points="368.5525,-25.8427 377.0749,-19.5483 366.4874,-19.1543 368.5525,-25.8427"/>
</g>
</g>
</svg>
