<?xml version="1.0" encoding="UTF-8" standalone="no"?>
<!DOCTYPE svg PUBLIC "-//W3C//DTD SVG 1.1//EN"
 "http://www.w3.org/Graphics/SVG/1.1/DTD/svg11.dtd">
<!-- Generated by graphviz version 2.40.1 (20161225.0304)
 -->
<!-- Title: osdk&#45;lib/x86/advanced&#45;sensing&#45;2.0.3/inc/linux_usb_device.hpp Pages: 1 -->
<!--zoomable 386 -->
<svg id="main" version="1.1" xmlns="http://www.w3.org/2000/svg" xmlns:xlink="http://www.w3.org/1999/xlink" xml:space="preserve" onload="init(evt)">
<style type="text/css"><![CDATA[
.edge:hover path { stroke: red; }
.edge:hover polygon { stroke: red; fill: red; }
]]></style>
<script type="text/javascript"><![CDATA[
var edges = document.getElementsByTagName('g');
if (edges && edges.length) {
  for (var i=0;i<edges.length;i++) {
    if (edges[i].id.substr(0,4)=='edge') {
      edges[i].setAttribute('class','edge');
    }
  }
}
]]></script>
        <defs>
                <circle id="rim" cx="0" cy="0" r="7"/>
                <circle id="rim2" cx="0" cy="0" r="3.5"/>
                <g id="zoomPlus">
                        <use xlink:href="#rim" fill="#404040">
                                <set attributeName="fill" to="#808080" begin="zoomplus.mouseover" end="zoomplus.mouseout"/>
                        </use>
                        <path d="M-4,0h8M0,-4v8" fill="none" stroke="white" stroke-width="1.5" pointer-events="none"/>
                </g>
                <g id="zoomMin">
                        <use xlink:href="#rim" fill="#404040">
                                <set attributeName="fill" to="#808080" begin="zoomminus.mouseover" end="zoomminus.mouseout"/>
                        </use>
                        <path d="M-4,0h8" fill="none" stroke="white" stroke-width="1.5" pointer-events="none"/>
                </g>
                <g id="dirArrow">
                        <path fill="none" stroke="white" stroke-width="1.5" d="M0,-3.0v7 M-2.5,-0.5L0,-3.0L2.5,-0.5"/>
                </g>
               <g id="resetDef">
                       <use xlink:href="#rim2" fill="#404040">
                               <set attributeName="fill" to="#808080" begin="reset.mouseover" end="reset.mouseout"/>
                       </use>
               </g>
        </defs>

<script type="text/javascript">
var viewWidth = 530;
var viewHeight = 386;
var sectionId = 'dynsection-0';
</script>
<script xlink:href="svgpan.js"/>
<svg id="graph" class="graph">
<g id="viewport">
<title>osdk&#45;lib/x86/advanced&#45;sensing&#45;2.0.3/inc/linux_usb_device.hpp</title>
<polygon fill="#ffffff" stroke="transparent" points="-4,4 -4,-382 525.5,-382 525.5,4 -4,4"/>
<!-- Node0 -->
<g id="node1" class="node">
<title>Node0</title>
<g id="a_node1"><a xlink:title=" ">
<polygon fill="#bfbfbf" stroke="#000000" points="132.5,-336.5 132.5,-377.5 249.5,-377.5 249.5,-336.5 132.5,-336.5"/>
<text text-anchor="start" x="140.5" y="-365.5" font-family="Helvetica,sans-Serif" font-size="10.00" fill="#000000">osdk&#45;lib/x86/advanced</text>
<text text-anchor="start" x="140.5" y="-354.5" font-family="Helvetica,sans-Serif" font-size="10.00" fill="#000000">&#45;sensing&#45;2.0.3/inc/linux</text>
<text text-anchor="middle" x="191" y="-343.5" font-family="Helvetica,sans-Serif" font-size="10.00" fill="#000000">_usb_device.hpp</text>
</a>
</g>
</g>
<!-- Node1 -->
<g id="node2" class="node">
<title>Node1</title>
<g id="a_node2"><a xlink:title=" ">
<polygon fill="#ffffff" stroke="#bfbfbf" points="0,-280.5 0,-299.5 46,-299.5 46,-280.5 0,-280.5"/>
<text text-anchor="middle" x="23" y="-287.5" font-family="Helvetica,sans-Serif" font-size="10.00" fill="#000000">cstring</text>
</a>
</g>
</g>
<!-- Node0&#45;&gt;Node1 -->
<g id="edge1" class="edge">
<title>Node0&#45;&gt;Node1</title>
<path fill="none" stroke="#191970" d="M139.2236,-336.3511C112.0599,-325.5179 79.597,-312.5714 55.893,-303.1181"/>
<polygon fill="#191970" stroke="#191970" points="56.8965,-299.7502 46.3114,-299.2968 54.3034,-306.2522 56.8965,-299.7502"/>
</g>
<!-- Node2 -->
<g id="node3" class="node">
<title>Node2</title>
<g id="a_node3"><a xlink:title=" ">
<polygon fill="#ffffff" stroke="#bfbfbf" points="64,-280.5 64,-299.5 108,-299.5 108,-280.5 64,-280.5"/>
<text text-anchor="middle" x="86" y="-287.5" font-family="Helvetica,sans-Serif" font-size="10.00" fill="#000000">fcntl.h</text>
</a>
</g>
</g>
<!-- Node0&#45;&gt;Node2 -->
<g id="edge2" class="edge">
<title>Node0&#45;&gt;Node2</title>
<path fill="none" stroke="#191970" d="M158.6398,-336.3511C142.9212,-326.3212 124.3637,-314.4797 109.9403,-305.2762"/>
<polygon fill="#191970" stroke="#191970" points="111.4431,-302.0833 101.1304,-299.6546 107.6777,-307.9843 111.4431,-302.0833"/>
</g>
<!-- Node3 -->
<g id="node4" class="node">
<title>Node3</title>
<g id="a_node4"><a xlink:title=" ">
<polygon fill="#ffffff" stroke="#bfbfbf" points="126.5,-280.5 126.5,-299.5 183.5,-299.5 183.5,-280.5 126.5,-280.5"/>
<text text-anchor="middle" x="155" y="-287.5" font-family="Helvetica,sans-Serif" font-size="10.00" fill="#000000">termios.h</text>
</a>
</g>
</g>
<!-- Node0&#45;&gt;Node3 -->
<g id="edge3" class="edge">
<title>Node0&#45;&gt;Node3</title>
<path fill="none" stroke="#191970" d="M179.8067,-336.168C175.0678,-327.3484 169.5907,-317.155 164.9904,-308.5933"/>
<polygon fill="#191970" stroke="#191970" points="168.0715,-306.9328 160.2552,-299.7805 161.9053,-310.246 168.0715,-306.9328"/>
</g>
<!-- Node4 -->
<g id="node5" class="node">
<title>Node4</title>
<g id="a_node5"><a xlink:title=" ">
<polygon fill="#ffffff" stroke="#bfbfbf" points="201.5,-280.5 201.5,-299.5 252.5,-299.5 252.5,-280.5 201.5,-280.5"/>
<text text-anchor="middle" x="227" y="-287.5" font-family="Helvetica,sans-Serif" font-size="10.00" fill="#000000">unistd.h</text>
</a>
</g>
</g>
<!-- Node0&#45;&gt;Node4 -->
<g id="edge4" class="edge">
<title>Node0&#45;&gt;Node4</title>
<path fill="none" stroke="#191970" d="M202.1933,-336.168C206.9322,-327.3484 212.4093,-317.155 217.0096,-308.5933"/>
<polygon fill="#191970" stroke="#191970" points="220.0947,-310.246 221.7448,-299.7805 213.9285,-306.9328 220.0947,-310.246"/>
</g>
<!-- Node5 -->
<g id="node6" class="node">
<title>Node5</title>
<g id="a_node6"><a xlink:title=" ">
<polygon fill="#ffffff" stroke="#bfbfbf" points="271,-280.5 271,-299.5 321,-299.5 321,-280.5 271,-280.5"/>
<text text-anchor="middle" x="296" y="-287.5" font-family="Helvetica,sans-Serif" font-size="10.00" fill="#000000">libusb.h</text>
</a>
</g>
</g>
<!-- Node0&#45;&gt;Node5 -->
<g id="edge5" class="edge">
<title>Node0&#45;&gt;Node5</title>
<path fill="none" stroke="#191970" d="M223.3602,-336.3511C239.0788,-326.3212 257.6363,-314.4797 272.0597,-305.2762"/>
<polygon fill="#191970" stroke="#191970" points="274.3223,-307.9843 280.8696,-299.6546 270.5569,-302.0833 274.3223,-307.9843"/>
</g>
<!-- Node6 -->
<g id="node7" class="node">
<title>Node6</title>
<g id="a_node7"><a xlink:href="dji__hard__driver_8hpp.html" target="_top" xlink:title="Serial device driver abstraction. Provided as an abstract class. Please inherit and implement for ind...">
<polygon fill="#ffffff" stroke="#000000" points="339,-280.5 339,-299.5 437,-299.5 437,-280.5 339,-280.5"/>
<text text-anchor="middle" x="388" y="-287.5" font-family="Helvetica,sans-Serif" font-size="10.00" fill="#000000">dji_hard_driver.hpp</text>
</a>
</g>
</g>
<!-- Node0&#45;&gt;Node6 -->
<g id="edge6" class="edge">
<title>Node0&#45;&gt;Node6</title>
<path fill="none" stroke="#191970" d="M249.5731,-337.0792C282.2421,-325.9684 321.9645,-312.4588 350.4647,-302.7658"/>
<polygon fill="#191970" stroke="#191970" points="351.7071,-306.0402 360.0475,-299.5067 349.4531,-299.413 351.7071,-306.0402"/>
</g>
<!-- Node7 -->
<g id="node8" class="node">
<title>Node7</title>
<g id="a_node8"><a xlink:href="dji__log_8hpp.html" target="_top" xlink:title="Logging mechanism for printing status and error messages to the screen.">
<polygon fill="#ffffff" stroke="#000000" points="189.5,-224.5 189.5,-243.5 252.5,-243.5 252.5,-224.5 189.5,-224.5"/>
<text text-anchor="middle" x="221" y="-231.5" font-family="Helvetica,sans-Serif" font-size="10.00" fill="#000000">dji_log.hpp</text>
</a>
</g>
</g>
<!-- Node6&#45;&gt;Node7 -->
<g id="edge7" class="edge">
<title>Node6&#45;&gt;Node7</title>
<path fill="none" stroke="#191970" d="M359.2917,-280.3733C331.6423,-271.1016 289.6424,-257.0178 259.1834,-246.804"/>
<polygon fill="#191970" stroke="#191970" points="259.9276,-243.3621 249.3337,-243.5011 257.7021,-249.9989 259.9276,-243.3621"/>
</g>
<!-- Node15 -->
<g id="node16" class="node">
<title>Node15</title>
<g id="a_node16"><a xlink:href="dji__memory_8hpp.html" target="_top" xlink:title="Implement memory management for DJI OSDK .">
<polygon fill="#ffffff" stroke="#000000" points="274,-224.5 274,-243.5 360,-243.5 360,-224.5 274,-224.5"/>
<text text-anchor="middle" x="317" y="-231.5" font-family="Helvetica,sans-Serif" font-size="10.00" fill="#000000">dji_memory.hpp</text>
</a>
</g>
</g>
<!-- Node6&#45;&gt;Node15 -->
<g id="edge17" class="edge">
<title>Node6&#45;&gt;Node15</title>
<path fill="none" stroke="#191970" d="M375.6327,-280.2455C365.0446,-271.8943 349.5936,-259.7076 337.2107,-249.9408"/>
<polygon fill="#191970" stroke="#191970" points="339.2447,-247.0875 329.2255,-243.6427 334.9097,-252.5837 339.2447,-247.0875"/>
</g>
<!-- Node16 -->
<g id="node17" class="node">
<title>Node16</title>
<g id="a_node17"><a xlink:href="dji__type_8hpp.html" target="_top" xlink:title="Data type and Data Structure definitions for use throughout DJI OSDK.">
<polygon fill="#ffffff" stroke="#000000" points="353.5,-168.5 353.5,-187.5 422.5,-187.5 422.5,-168.5 353.5,-168.5"/>
<text text-anchor="middle" x="388" y="-175.5" font-family="Helvetica,sans-Serif" font-size="10.00" fill="#000000">dji_type.hpp</text>
</a>
</g>
</g>
<!-- Node6&#45;&gt;Node16 -->
<g id="edge21" class="edge">
<title>Node6&#45;&gt;Node16</title>
<path fill="none" stroke="#191970" d="M388,-280.4509C388,-262.184 388,-221.9553 388,-197.6976"/>
<polygon fill="#191970" stroke="#191970" points="391.5001,-197.5249 388,-187.5249 384.5001,-197.5249 391.5001,-197.5249"/>
</g>
<!-- Node18 -->
<g id="node19" class="node">
<title>Node18</title>
<g id="a_node19"><a xlink:title=" ">
<polygon fill="#ffffff" stroke="#bfbfbf" points="416,-224.5 416,-243.5 462,-243.5 462,-224.5 416,-224.5"/>
<text text-anchor="middle" x="439" y="-231.5" font-family="Helvetica,sans-Serif" font-size="10.00" fill="#000000">cstdint</text>
</a>
</g>
</g>
<!-- Node6&#45;&gt;Node18 -->
<g id="edge22" class="edge">
<title>Node6&#45;&gt;Node18</title>
<path fill="none" stroke="#191970" d="M396.8835,-280.2455C404.1966,-272.2155 414.7391,-260.6394 423.4467,-251.0781"/>
<polygon fill="#191970" stroke="#191970" points="426.0727,-253.3928 430.2183,-243.6427 420.8972,-248.6795 426.0727,-253.3928"/>
</g>
<!-- Node19 -->
<g id="node20" class="node">
<title>Node19</title>
<g id="a_node20"><a xlink:title=" ">
<polygon fill="#ffffff" stroke="#bfbfbf" points="480.5,-224.5 480.5,-243.5 521.5,-243.5 521.5,-224.5 480.5,-224.5"/>
<text text-anchor="middle" x="501" y="-231.5" font-family="Helvetica,sans-Serif" font-size="10.00" fill="#000000">ctime</text>
</a>
</g>
</g>
<!-- Node6&#45;&gt;Node19 -->
<g id="edge23" class="edge">
<title>Node6&#45;&gt;Node19</title>
<path fill="none" stroke="#191970" d="M407.4254,-280.3733C425.4021,-271.4644 452.3441,-258.1127 472.709,-248.0203"/>
<polygon fill="#191970" stroke="#191970" points="474.4222,-251.0776 481.8281,-243.5011 471.3139,-244.8055 474.4222,-251.0776"/>
</g>
<!-- Node8 -->
<g id="node9" class="node">
<title>Node8</title>
<g id="a_node9"><a xlink:href="dji__singleton_8hpp.html" target="_top" xlink:title="Singleton Template Class implementation for use with the DJI OSDK.">
<polygon fill="#ffffff" stroke="#000000" points="70.5,-112.5 70.5,-131.5 159.5,-131.5 159.5,-112.5 70.5,-112.5"/>
<text text-anchor="middle" x="115" y="-119.5" font-family="Helvetica,sans-Serif" font-size="10.00" fill="#000000">dji_singleton.hpp</text>
</a>
</g>
</g>
<!-- Node7&#45;&gt;Node8 -->
<g id="edge8" class="edge">
<title>Node7&#45;&gt;Node8</title>
<path fill="none" stroke="#191970" d="M208.9424,-224.2816C198.0734,-215.305 181.87,-201.3756 169,-188 154.1798,-172.5976 138.9007,-153.5763 128.394,-139.9168"/>
<polygon fill="#191970" stroke="#191970" points="131.0684,-137.6514 122.2315,-131.8068 125.4949,-141.8865 131.0684,-137.6514"/>
</g>
<!-- Node9 -->
<g id="node10" class="node">
<title>Node9</title>
<g id="a_node10"><a xlink:href="dji__platform_8hpp.html" target="_top" xlink:title="Vehicle API for DJI onboardSDK library.">
<polygon fill="#ffffff" stroke="#000000" points="178,-168.5 178,-187.5 264,-187.5 264,-168.5 178,-168.5"/>
<text text-anchor="middle" x="221" y="-175.5" font-family="Helvetica,sans-Serif" font-size="10.00" fill="#000000">dji_platform.hpp</text>
</a>
</g>
</g>
<!-- Node7&#45;&gt;Node9 -->
<g id="edge9" class="edge">
<title>Node7&#45;&gt;Node9</title>
<path fill="none" stroke="#191970" d="M221,-224.2455C221,-216.9382 221,-206.6944 221,-197.7046"/>
<polygon fill="#191970" stroke="#191970" points="224.5001,-197.6426 221,-187.6427 217.5001,-197.6427 224.5001,-197.6426"/>
</g>
<!-- Node9&#45;&gt;Node8 -->
<g id="edge14" class="edge">
<title>Node9&#45;&gt;Node8</title>
<path fill="none" stroke="#191970" d="M202.5362,-168.2455C185.8926,-159.4527 161.2007,-146.4079 142.2808,-136.4125"/>
<polygon fill="#191970" stroke="#191970" points="143.7291,-133.2193 133.2522,-131.6427 140.4592,-139.4086 143.7291,-133.2193"/>
</g>
<!-- Node10 -->
<g id="node11" class="node">
<title>Node10</title>
<g id="a_node11"><a xlink:href="osdk__platform_8h.html" target="_top" xlink:title="This is the header file for define OSDK platform interfaces.">
<polygon fill="#ffffff" stroke="#000000" points="178,-112.5 178,-131.5 264,-131.5 264,-112.5 178,-112.5"/>
<text text-anchor="middle" x="221" y="-119.5" font-family="Helvetica,sans-Serif" font-size="10.00" fill="#000000">osdk_platform.h</text>
</a>
</g>
</g>
<!-- Node9&#45;&gt;Node10 -->
<g id="edge10" class="edge">
<title>Node9&#45;&gt;Node10</title>
<path fill="none" stroke="#191970" d="M221,-168.2455C221,-160.9382 221,-150.6944 221,-141.7046"/>
<polygon fill="#191970" stroke="#191970" points="224.5001,-141.6426 221,-131.6427 217.5001,-141.6427 224.5001,-141.6426"/>
</g>
<!-- Node14 -->
<g id="node15" class="node">
<title>Node14</title>
<g id="a_node15"><a xlink:href="osdk__logger_8h.html" target="_top" xlink:title="This is the header file for &quot;osdk_logger.c&quot;, defining the structure and (exported) function prototype...">
<polygon fill="#ffffff" stroke="#000000" points="282.5,-112.5 282.5,-131.5 359.5,-131.5 359.5,-112.5 282.5,-112.5"/>
<text text-anchor="middle" x="321" y="-119.5" font-family="Helvetica,sans-Serif" font-size="10.00" fill="#000000">osdk_logger.h</text>
</a>
</g>
</g>
<!-- Node9&#45;&gt;Node14 -->
<g id="edge15" class="edge">
<title>Node9&#45;&gt;Node14</title>
<path fill="none" stroke="#191970" d="M238.4187,-168.2455C254.0485,-159.4928 277.2019,-146.527 295.0185,-136.5496"/>
<polygon fill="#191970" stroke="#191970" points="296.766,-139.5825 303.7809,-131.6427 293.3457,-133.475 296.766,-139.5825"/>
</g>
<!-- Node11 -->
<g id="node12" class="node">
<title>Node11</title>
<g id="a_node12"><a xlink:href="osdk__typedef_8h_source.html" target="_top" xlink:title=" ">
<polygon fill="#ffffff" stroke="#000000" points="276.5,-56.5 276.5,-75.5 359.5,-75.5 359.5,-56.5 276.5,-56.5"/>
<text text-anchor="middle" x="318" y="-63.5" font-family="Helvetica,sans-Serif" font-size="10.00" fill="#000000">osdk_typedef.h</text>
</a>
</g>
</g>
<!-- Node10&#45;&gt;Node11 -->
<g id="edge11" class="edge">
<title>Node10&#45;&gt;Node11</title>
<path fill="none" stroke="#191970" d="M237.8961,-112.2455C252.918,-103.5731 275.1043,-90.7645 292.321,-80.825"/>
<polygon fill="#191970" stroke="#191970" points="294.3871,-83.6737 301.2975,-75.6427 290.8872,-77.6114 294.3871,-83.6737"/>
</g>
<!-- Node12 -->
<g id="node13" class="node">
<title>Node12</title>
<g id="a_node13"><a xlink:title=" ">
<polygon fill="#ffffff" stroke="#bfbfbf" points="292,-.5 292,-19.5 344,-19.5 344,-.5 292,-.5"/>
<text text-anchor="middle" x="318" y="-7.5" font-family="Helvetica,sans-Serif" font-size="10.00" fill="#000000">stddef.h</text>
</a>
</g>
</g>
<!-- Node11&#45;&gt;Node12 -->
<g id="edge12" class="edge">
<title>Node11&#45;&gt;Node12</title>
<path fill="none" stroke="#191970" d="M318,-56.2455C318,-48.9382 318,-38.6944 318,-29.7046"/>
<polygon fill="#191970" stroke="#191970" points="321.5001,-29.6426 318,-19.6427 314.5001,-29.6427 321.5001,-29.6426"/>
</g>
<!-- Node13 -->
<g id="node14" class="node">
<title>Node13</title>
<g id="a_node14"><a xlink:title=" ">
<polygon fill="#ffffff" stroke="#bfbfbf" points="362.5,-.5 362.5,-19.5 411.5,-19.5 411.5,-.5 362.5,-.5"/>
<text text-anchor="middle" x="387" y="-7.5" font-family="Helvetica,sans-Serif" font-size="10.00" fill="#000000">stdint.h</text>
</a>
</g>
</g>
<!-- Node11&#45;&gt;Node13 -->
<g id="edge13" class="edge">
<title>Node11&#45;&gt;Node13</title>
<path fill="none" stroke="#191970" d="M330.0189,-56.2455C340.2098,-47.9746 355.0362,-35.9416 367.0107,-26.2232"/>
<polygon fill="#191970" stroke="#191970" points="369.5598,-28.662 375.1188,-19.6427 365.1486,-23.2268 369.5598,-28.662"/>
</g>
<!-- Node14&#45;&gt;Node11 -->
<g id="edge16" class="edge">
<title>Node14&#45;&gt;Node11</title>
<path fill="none" stroke="#191970" d="M320.4774,-112.2455C320.086,-104.9382 319.5372,-94.6944 319.0556,-85.7046"/>
<polygon fill="#191970" stroke="#191970" points="322.5466,-85.4411 318.5166,-75.6427 315.5566,-85.8156 322.5466,-85.4411"/>
</g>
<!-- Node15&#45;&gt;Node16 -->
<g id="edge18" class="edge">
<title>Node15&#45;&gt;Node16</title>
<path fill="none" stroke="#191970" d="M329.3673,-224.2455C339.9554,-215.8943 355.4064,-203.7076 367.7893,-193.9408"/>
<polygon fill="#191970" stroke="#191970" points="370.0903,-196.5837 375.7745,-187.6427 365.7553,-191.0875 370.0903,-196.5837"/>
</g>
<!-- Node16&#45;&gt;Node13 -->
<g id="edge20" class="edge">
<title>Node16&#45;&gt;Node13</title>
<path fill="none" stroke="#191970" d="M387.9434,-168.4862C387.7853,-141.9293 387.3367,-66.5651 387.12,-30.1655"/>
<polygon fill="#191970" stroke="#191970" points="390.6181,-29.8068 387.0585,-19.8279 383.6182,-29.8486 390.6181,-29.8068"/>
</g>
<!-- Node17 -->
<g id="node18" class="node">
<title>Node17</title>
<g id="a_node18"><a xlink:title=" ">
<polygon fill="#ffffff" stroke="#bfbfbf" points="416.5,-112.5 416.5,-131.5 459.5,-131.5 459.5,-112.5 416.5,-112.5"/>
<text text-anchor="middle" x="438" y="-119.5" font-family="Helvetica,sans-Serif" font-size="10.00" fill="#000000">cstdio</text>
</a>
</g>
</g>
<!-- Node16&#45;&gt;Node17 -->
<g id="edge19" class="edge">
<title>Node16&#45;&gt;Node17</title>
<path fill="none" stroke="#191970" d="M396.7093,-168.2455C403.8073,-160.2958 414.0084,-148.8706 422.495,-139.3656"/>
<polygon fill="#191970" stroke="#191970" points="425.3411,-141.4331 429.3905,-131.6427 420.1195,-136.771 425.3411,-141.4331"/>
</g>
</g>
</svg>
        <g id="navigator" transform="translate(0 0)" fill="#404254">
                <rect fill="#f2f5e9" fill-opacity="0.5" stroke="#606060" stroke-width=".5" x="0" y="0" width="60" height="60"/>
                <use id="zoomplus" xlink:href="#zoomPlus" x="17" y="9" onmousedown="handleZoom(evt,'in')"/>
                <use id="zoomminus" xlink:href="#zoomMin" x="42" y="9" onmousedown="handleZoom(evt,'out')"/>
                <use id="reset" xlink:href="#resetDef" x="30" y="36" onmousedown="handleReset()"/>
                <g id="arrowUp" xlink:href="#dirArrow" transform="translate(30 24)" onmousedown="handlePan(0,-1)">
                  <use xlink:href="#rim" fill="#404040">
                        <set attributeName="fill" to="#808080" begin="arrowUp.mouseover" end="arrowUp.mouseout"/>
                  </use>
                  <path fill="none" stroke="white" stroke-width="1.5" d="M0,-3.0v7 M-2.5,-0.5L0,-3.0L2.5,-0.5"/>
                </g>
                <g id="arrowRight" xlink:href="#dirArrow" transform="rotate(90) translate(36 -43)" onmousedown="handlePan(1,0)">
                  <use xlink:href="#rim" fill="#404040">
                        <set attributeName="fill" to="#808080" begin="arrowRight.mouseover" end="arrowRight.mouseout"/>
                  </use>
                  <path fill="none" stroke="white" stroke-width="1.5" d="M0,-3.0v7 M-2.5,-0.5L0,-3.0L2.5,-0.5"/>
                </g>
                <g id="arrowDown" xlink:href="#dirArrow" transform="rotate(180) translate(-30 -48)" onmousedown="handlePan(0,1)">
                  <use xlink:href="#rim" fill="#404040">
                        <set attributeName="fill" to="#808080" begin="arrowDown.mouseover" end="arrowDown.mouseout"/>
                  </use>
                  <path fill="none" stroke="white" stroke-width="1.5" d="M0,-3.0v7 M-2.5,-0.5L0,-3.0L2.5,-0.5"/>
                </g>
                <g id="arrowLeft" xlink:href="#dirArrow" transform="rotate(270) translate(-36 17)" onmousedown="handlePan(-1,0)">
                  <use xlink:href="#rim" fill="#404040">
                        <set attributeName="fill" to="#808080" begin="arrowLeft.mouseover" end="arrowLeft.mouseout"/>
                  </use>
                  <path fill="none" stroke="white" stroke-width="1.5" d="M0,-3.0v7 M-2.5,-0.5L0,-3.0L2.5,-0.5"/>
                </g>
        </g>
        <svg viewBox="0 0 15 15" width="100%" height="30px" preserveAspectRatio="xMaxYMin meet">
         <g id="arrow_out" transform="scale(0.3 0.3)">
          <a xlink:href="linux__usb__device_8hpp__incl_org.svg" target="_base">
           <rect id="button" ry="5" rx="5" y="6" x="6" height="38" width="38"
                fill="#f2f5e9" fill-opacity="0.5" stroke="#606060" stroke-width="1.0"/>
           <path id="arrow"
             d="M 11.500037,31.436501 C 11.940474,20.09759 22.043105,11.32322 32.158766,21.979434 L 37.068811,17.246167 C 37.068811,17.246167 37.088388,32 37.088388,32 L 22.160133,31.978069 C 22.160133,31.978069 26.997745,27.140456 26.997745,27.140456 C 18.528582,18.264221 13.291696,25.230495 11.500037,31.436501 z"
             style="fill:#404040;"/>
          </a>
         </g>
        </svg>
</svg>
