<?xml version="1.0" encoding="UTF-8" standalone="no"?>
<!DOCTYPE svg PUBLIC "-//W3C//DTD SVG 1.1//EN"
 "http://www.w3.org/Graphics/SVG/1.1/DTD/svg11.dtd">
<!-- Generated by graphviz version 2.38.0 (20140413.2041)
 -->
<!-- Title: osdk&#45;core/platform/linux/src/linux_serial_device.cpp Pages: 1 -->
<svg width="465pt" height="162pt"
 viewBox="0.00 0.00 465.00 162.00" xmlns="http://www.w3.org/2000/svg" xmlns:xlink="http://www.w3.org/1999/xlink">
<g id="graph0" class="graph" transform="scale(1 1) rotate(0) translate(4 158)">
<title>osdk&#45;core/platform/linux/src/linux_serial_device.cpp</title>
<polygon fill="white" stroke="none" points="-4,4 -4,-158 461,-158 461,4 -4,4"/>
<!-- Node0 -->
<g id="node1" class="node"><title>Node0</title>
<g id="a_node1"><a xlink:title="Serial device hardware implementation for Linux machines. This is a generic Linux serial device imple...">
<polygon fill="#bfbfbf" stroke="black" points="242,-112.5 242,-153.5 350,-153.5 350,-112.5 242,-112.5"/>
<text text-anchor="start" x="250" y="-141.5" font-family="Helvetica,sans-Serif" font-size="10.00">osdk&#45;core/platform</text>
<text text-anchor="start" x="250" y="-130.5" font-family="Helvetica,sans-Serif" font-size="10.00">/linux/src/linux_serial</text>
<text text-anchor="middle" x="296" y="-119.5" font-family="Helvetica,sans-Serif" font-size="10.00">_device.cpp</text>
</a>
</g>
</g>
<!-- Node1 -->
<g id="node2" class="node"><title>Node1</title>
<g id="a_node2"><a xlink:href="linux__serial__device_8hpp.html" target="_top" xlink:title="Serial device hardware implementation for *NIX machines.">
<polygon fill="white" stroke="black" points="132,-56.5 132,-75.5 250,-75.5 250,-56.5 132,-56.5"/>
<text text-anchor="middle" x="191" y="-63.5" font-family="Helvetica,sans-Serif" font-size="10.00">linux_serial_device.hpp</text>
</a>
</g>
</g>
<!-- Node0&#45;&gt;Node1 -->
<g id="edge1" class="edge"><title>Node0&#45;&gt;Node1</title>
<path fill="none" stroke="midnightblue" d="M264.497,-112.498C248.088,-102.34 228.404,-90.1551 213.538,-80.9523"/>
<polygon fill="midnightblue" stroke="midnightblue" points="215.322,-77.9402 204.977,-75.6525 211.638,-83.892 215.322,-77.9402"/>
</g>
<!-- Node8 -->
<g id="node9" class="node"><title>Node8</title>
<g id="a_node9"><a xlink:title=" ">
<polygon fill="white" stroke="#bfbfbf" points="268,-56.5 268,-75.5 324,-75.5 324,-56.5 268,-56.5"/>
<text text-anchor="middle" x="296" y="-63.5" font-family="Helvetica,sans-Serif" font-size="10.00">algorithm</text>
</a>
</g>
</g>
<!-- Node0&#45;&gt;Node8 -->
<g id="edge8" class="edge"><title>Node0&#45;&gt;Node8</title>
<path fill="none" stroke="midnightblue" d="M296,-112.498C296,-104.065 296,-94.2351 296,-85.874"/>
<polygon fill="midnightblue" stroke="midnightblue" points="299.5,-85.6525 296,-75.6525 292.5,-85.6525 299.5,-85.6525"/>
</g>
<!-- Node9 -->
<g id="node10" class="node"><title>Node9</title>
<g id="a_node10"><a xlink:title=" ">
<polygon fill="white" stroke="#bfbfbf" points="342.5,-56.5 342.5,-75.5 389.5,-75.5 389.5,-56.5 342.5,-56.5"/>
<text text-anchor="middle" x="366" y="-63.5" font-family="Helvetica,sans-Serif" font-size="10.00">iterator</text>
</a>
</g>
</g>
<!-- Node0&#45;&gt;Node9 -->
<g id="edge9" class="edge"><title>Node0&#45;&gt;Node9</title>
<path fill="none" stroke="midnightblue" d="M317.002,-112.498C327.322,-102.915 339.585,-91.5281 349.262,-82.5428"/>
<polygon fill="midnightblue" stroke="midnightblue" points="351.736,-85.0218 356.682,-75.6525 346.972,-79.8922 351.736,-85.0218"/>
</g>
<!-- Node2 -->
<g id="node3" class="node"><title>Node2</title>
<g id="a_node3"><a xlink:title=" ">
<polygon fill="white" stroke="#bfbfbf" points="0,-0.5 0,-19.5 46,-19.5 46,-0.5 0,-0.5"/>
<text text-anchor="middle" x="23" y="-7.5" font-family="Helvetica,sans-Serif" font-size="10.00">cstring</text>
</a>
</g>
</g>
<!-- Node1&#45;&gt;Node2 -->
<g id="edge2" class="edge"><title>Node1&#45;&gt;Node2</title>
<path fill="none" stroke="midnightblue" d="M164.38,-56.4435C134.992,-46.9976 87.6569,-31.7826 55.9515,-21.5916"/>
<polygon fill="midnightblue" stroke="midnightblue" points="56.8407,-18.2011 46.2494,-18.473 54.6986,-24.8653 56.8407,-18.2011"/>
</g>
<!-- Node3 -->
<g id="node4" class="node"><title>Node3</title>
<g id="a_node4"><a xlink:title=" ">
<polygon fill="white" stroke="#bfbfbf" points="64,-0.5 64,-19.5 108,-19.5 108,-0.5 64,-0.5"/>
<text text-anchor="middle" x="86" y="-7.5" font-family="Helvetica,sans-Serif" font-size="10.00">fcntl.h</text>
</a>
</g>
</g>
<!-- Node1&#45;&gt;Node3 -->
<g id="edge3" class="edge"><title>Node1&#45;&gt;Node3</title>
<path fill="none" stroke="midnightblue" d="M174.13,-56.324C157.291,-47.6641 131.193,-34.2424 111.762,-24.249"/>
<polygon fill="midnightblue" stroke="midnightblue" points="113.322,-21.1155 102.828,-19.6545 110.12,-27.3405 113.322,-21.1155"/>
</g>
<!-- Node4 -->
<g id="node5" class="node"><title>Node4</title>
<g id="a_node5"><a xlink:title=" ">
<polygon fill="white" stroke="#bfbfbf" points="126.5,-0.5 126.5,-19.5 183.5,-19.5 183.5,-0.5 126.5,-0.5"/>
<text text-anchor="middle" x="155" y="-7.5" font-family="Helvetica,sans-Serif" font-size="10.00">termios.h</text>
</a>
</g>
</g>
<!-- Node1&#45;&gt;Node4 -->
<g id="edge4" class="edge"><title>Node1&#45;&gt;Node4</title>
<path fill="none" stroke="midnightblue" d="M185.055,-56.083C180.023,-48.5341 172.663,-37.4948 166.487,-28.2298"/>
<polygon fill="midnightblue" stroke="midnightblue" points="169.293,-26.1301 160.834,-19.7511 163.469,-30.0131 169.293,-26.1301"/>
</g>
<!-- Node5 -->
<g id="node6" class="node"><title>Node5</title>
<g id="a_node6"><a xlink:title=" ">
<polygon fill="white" stroke="#bfbfbf" points="201.5,-0.5 201.5,-19.5 252.5,-19.5 252.5,-0.5 201.5,-0.5"/>
<text text-anchor="middle" x="227" y="-7.5" font-family="Helvetica,sans-Serif" font-size="10.00">unistd.h</text>
</a>
</g>
</g>
<!-- Node1&#45;&gt;Node5 -->
<g id="edge5" class="edge"><title>Node1&#45;&gt;Node5</title>
<path fill="none" stroke="midnightblue" d="M196.945,-56.083C201.977,-48.5341 209.337,-37.4948 215.513,-28.2298"/>
<polygon fill="midnightblue" stroke="midnightblue" points="218.531,-30.0131 221.166,-19.7511 212.707,-26.1301 218.531,-30.0131"/>
</g>
<!-- Node6 -->
<g id="node7" class="node"><title>Node6</title>
<g id="a_node7"><a xlink:title=" ">
<polygon fill="white" stroke="#bfbfbf" points="271,-0.5 271,-19.5 341,-19.5 341,-0.5 271,-0.5"/>
<text text-anchor="middle" x="306" y="-7.5" font-family="Helvetica,sans-Serif" font-size="10.00">sys/select.h</text>
</a>
</g>
</g>
<!-- Node1&#45;&gt;Node6 -->
<g id="edge6" class="edge"><title>Node1&#45;&gt;Node6</title>
<path fill="none" stroke="midnightblue" d="M209.222,-56.4435C227.896,-47.6751 257.156,-33.9355 278.617,-23.8579"/>
<polygon fill="midnightblue" stroke="midnightblue" points="280.299,-26.935 287.863,-19.5164 277.324,-20.5988 280.299,-26.935"/>
</g>
<!-- Node7 -->
<g id="node8" class="node"><title>Node7</title>
<g id="a_node8"><a xlink:title=" ">
<polygon fill="white" stroke="#bfbfbf" points="359,-0.5 359,-19.5 457,-19.5 457,-0.5 359,-0.5"/>
<text text-anchor="middle" x="408" y="-7.5" font-family="Helvetica,sans-Serif" font-size="10.00">dji_hard_driver.hpp</text>
</a>
</g>
</g>
<!-- Node1&#45;&gt;Node7 -->
<g id="edge7" class="edge"><title>Node1&#45;&gt;Node7</title>
<path fill="none" stroke="midnightblue" d="M225.384,-56.4435C262.922,-47.1024 323.131,-32.1194 364.067,-21.9326"/>
<polygon fill="midnightblue" stroke="midnightblue" points="364.918,-25.3278 373.777,-19.5164 363.227,-18.5349 364.918,-25.3278"/>
</g>
</g>
</svg>
