<?xml version="1.0" encoding="UTF-8" standalone="no"?>
<!DOCTYPE svg PUBLIC "-//W3C//DTD SVG 1.1//EN"
 "http://www.w3.org/Graphics/SVG/1.1/DTD/svg11.dtd">
<!-- Generated by graphviz version 2.38.0 (20140413.2041)
 -->
<!-- Title: osdk&#45;core/platform/linux/inc/posix_thread.hpp Pages: 1 -->
<!--zoomable 431 -->
<svg id="main" version="1.1" xmlns="http://www.w3.org/2000/svg" xmlns:xlink="http://www.w3.org/1999/xlink" xml:space="preserve" onload="init(evt)">
<style type="text/css"><![CDATA[
.edge:hover path { stroke: red; }
.edge:hover polygon { stroke: red; fill: red; }
]]></style>
<script type="text/javascript"><![CDATA[
var edges = document.getElementsByTagName('g');
if (edges && edges.length) {
  for (var i=0;i<edges.length;i++) {
    if (edges[i].id.substr(0,4)=='edge') {
      edges[i].setAttribute('class','edge');
    }
  }
}
]]></script>
        <defs>
                <circle id="rim" cx="0" cy="0" r="7"/>
                <circle id="rim2" cx="0" cy="0" r="3.5"/>
                <g id="zoomPlus">
                        <use xlink:href="#rim" fill="#404040">
                                <set attributeName="fill" to="#808080" begin="zoomplus.mouseover" end="zoomplus.mouseout"/>
                        </use>
                        <path d="M-4,0h8M0,-4v8" fill="none" stroke="white" stroke-width="1.5" pointer-events="none"/>
                </g>
                <g id="zoomMin">
                        <use xlink:href="#rim" fill="#404040">
                                <set attributeName="fill" to="#808080" begin="zoomminus.mouseover" end="zoomminus.mouseout"/>
                        </use>
                        <path d="M-4,0h8" fill="none" stroke="white" stroke-width="1.5" pointer-events="none"/>
                </g>
                <g id="dirArrow">
                        <path fill="none" stroke="white" stroke-width="1.5" d="M0,-3.0v7 M-2.5,-0.5L0,-3.0L2.5,-0.5"/>
                </g>
               <g id="resetDef">
                       <use xlink:href="#rim2" fill="#404040">
                               <set attributeName="fill" to="#808080" begin="reset.mouseover" end="reset.mouseout"/>
                       </use>
               </g>
        </defs>

<script type="text/javascript">
var viewWidth = 1753;
var viewHeight = 431;
var sectionId = 'dynsection-0';
</script>
<script xlink:href="svgpan.js"/>
<svg id="graph" class="graph">
<g id="viewport">
<title>osdk&#45;core/platform/linux/inc/posix_thread.hpp</title>
<polygon fill="white" stroke="none" points="-4,4 -4,-427 1749,-427 1749,4 -4,4"/>
<!-- Node1 -->
<g id="node1" class="node"><title>Node1</title>
<polygon fill="#bfbfbf" stroke="black" points="950.5,-392.5 950.5,-422.5 1083.5,-422.5 1083.5,-392.5 950.5,-392.5"/>
<text text-anchor="start" x="958.5" y="-410.5" font-family="Helvetica,sans-Serif" font-size="10.00">osdk&#45;core/platform</text>
<text text-anchor="middle" x="1017" y="-399.5" font-family="Helvetica,sans-Serif" font-size="10.00">/linux/inc/posix_thread.hpp</text>
</g>
<!-- Node2 -->
<g id="node2" class="node"><title>Node2</title>
<polygon fill="white" stroke="#bfbfbf" points="0,-280.5 0,-299.5 120,-299.5 120,-280.5 0,-280.5"/>
<text text-anchor="middle" x="60" y="-287.5" font-family="Helvetica,sans-Serif" font-size="10.00">dji_thread_manager.hpp</text>
</g>
<!-- Node1&#45;&gt;Node2 -->
<g id="edge1" class="edge"><title>Node1&#45;&gt;Node2</title>
<path fill="none" stroke="midnightblue" d="M950.259,-398.473C802.948,-380.752 438.854,-336.923 134,-300 132.735,-299.847 131.458,-299.692 130.172,-299.536"/>
<polygon fill="midnightblue" stroke="midnightblue" points="130.524,-296.053 120.175,-298.324 129.681,-303.002 130.524,-296.053"/>
</g>
<!-- Node3 -->
<g id="node3" class="node"><title>Node3</title>
<g id="a_node3"><a xlink:href="dji__vehicle_8hpp.html" target="_top" xlink:title="Vehicle API for DJI onboardSDK library. ">
<polygon fill="white" stroke="black" points="976.5,-336.5 976.5,-355.5 1057.5,-355.5 1057.5,-336.5 976.5,-336.5"/>
<text text-anchor="middle" x="1017" y="-343.5" font-family="Helvetica,sans-Serif" font-size="10.00">dji_vehicle.hpp</text>
</a>
</g>
</g>
<!-- Node1&#45;&gt;Node3 -->
<g id="edge2" class="edge"><title>Node1&#45;&gt;Node3</title>
<path fill="none" stroke="midnightblue" d="M1017,-392.399C1017,-384.466 1017,-374.458 1017,-365.858"/>
<polygon fill="midnightblue" stroke="midnightblue" points="1020.5,-365.658 1017,-355.658 1013.5,-365.658 1020.5,-365.658"/>
</g>
<!-- Node33 -->
<g id="node33" class="node"><title>Node33</title>
<polygon fill="white" stroke="#bfbfbf" points="1075.5,-336.5 1075.5,-355.5 1132.5,-355.5 1132.5,-336.5 1075.5,-336.5"/>
<text text-anchor="middle" x="1104" y="-343.5" font-family="Helvetica,sans-Serif" font-size="10.00">pthread.h</text>
</g>
<!-- Node1&#45;&gt;Node33 -->
<g id="edge66" class="edge"><title>Node1&#45;&gt;Node33</title>
<path fill="none" stroke="midnightblue" d="M1037.62,-392.399C1051.3,-383.04 1069.21,-370.792 1082.98,-361.377"/>
<polygon fill="midnightblue" stroke="midnightblue" points="1085.06,-364.192 1091.34,-355.658 1081.11,-358.414 1085.06,-364.192"/>
</g>
<!-- Node3&#45;&gt;Node2 -->
<g id="edge57" class="edge"><title>Node3&#45;&gt;Node2</title>
<path fill="none" stroke="midnightblue" d="M976.445,-343.945C851.002,-340.466 458.213,-327.942 134,-300 132.731,-299.891 131.45,-299.776 130.16,-299.658"/>
<polygon fill="midnightblue" stroke="midnightblue" points="130.433,-296.168 120.139,-298.672 129.748,-303.134 130.433,-296.168"/>
</g>
<!-- Node4 -->
<g id="node4" class="node"><title>Node4</title>
<polygon fill="white" stroke="#bfbfbf" points="1105,-112.5 1105,-131.5 1151,-131.5 1151,-112.5 1105,-112.5"/>
<text text-anchor="middle" x="1128" y="-119.5" font-family="Helvetica,sans-Serif" font-size="10.00">cstdint</text>
</g>
<!-- Node3&#45;&gt;Node4 -->
<g id="edge3" class="edge"><title>Node3&#45;&gt;Node4</title>
<path fill="none" stroke="midnightblue" d="M1049.73,-336.424C1080.43,-327.702 1123.18,-313.574 1134,-300 1170.83,-253.781 1163.32,-225.575 1150,-168 1147.77,-158.363 1143.18,-148.405 1138.76,-140.315"/>
<polygon fill="midnightblue" stroke="midnightblue" points="1141.7,-138.397 1133.64,-131.519 1135.65,-141.922 1141.7,-138.397"/>
</g>
<!-- Node5 -->
<g id="node5" class="node"><title>Node5</title>
<g id="a_node5"><a xlink:href="dji__broadcast_8hpp.html" target="_top" xlink:title="Broadcast Telemetry API for DJI onboardSDK library. ">
<polygon fill="white" stroke="black" points="963.5,-224.5 963.5,-243.5 1056.5,-243.5 1056.5,-224.5 963.5,-224.5"/>
<text text-anchor="middle" x="1010" y="-231.5" font-family="Helvetica,sans-Serif" font-size="10.00">dji_broadcast.hpp</text>
</a>
</g>
</g>
<!-- Node3&#45;&gt;Node5 -->
<g id="edge4" class="edge"><title>Node3&#45;&gt;Node5</title>
<path fill="none" stroke="midnightblue" d="M1013.4,-336.222C1009.94,-327.285 1004.97,-312.942 1003,-300 1000.65,-284.552 1002.85,-266.92 1005.39,-253.922"/>
<polygon fill="midnightblue" stroke="midnightblue" points="1008.87,-254.381 1007.6,-243.863 1002.04,-252.879 1008.87,-254.381"/>
</g>
<!-- Node7 -->
<g id="node7" class="node"><title>Node7</title>
<g id="a_node7"><a xlink:href="dji__type_8hpp.html" target="_top" xlink:title="Data type and Data Structure definitions for use throughout DJI OSDK. ">
<polygon fill="white" stroke="black" points="470.5,-112.5 470.5,-131.5 539.5,-131.5 539.5,-112.5 470.5,-112.5"/>
<text text-anchor="middle" x="505" y="-119.5" font-family="Helvetica,sans-Serif" font-size="10.00">dji_type.hpp</text>
</a>
</g>
</g>
<!-- Node3&#45;&gt;Node7 -->
<g id="edge58" class="edge"><title>Node3&#45;&gt;Node7</title>
<path fill="none" stroke="midnightblue" d="M976.286,-344.623C842.2,-343.052 415.455,-335.33 283,-300 228.842,-285.554 199.552,-291.628 170,-244 103.661,-137.086 354.411,-123.686 460.1,-122.689"/>
<polygon fill="midnightblue" stroke="midnightblue" points="460.181,-126.188 470.159,-122.627 460.138,-119.188 460.181,-126.188"/>
</g>
<!-- Node10 -->
<g id="node10" class="node"><title>Node10</title>
<g id="a_node10"><a xlink:href="dji__vehicle__callback_8hpp.html" target="_top" xlink:title="Type definition for new Vehicle&#45;style callbacks. ">
<polygon fill="white" stroke="black" points="1279,-112.5 1279,-131.5 1401,-131.5 1401,-112.5 1279,-112.5"/>
<text text-anchor="middle" x="1340" y="-119.5" font-family="Helvetica,sans-Serif" font-size="10.00">dji_vehicle_callback.hpp</text>
</a>
</g>
</g>
<!-- Node3&#45;&gt;Node10 -->
<g id="edge59" class="edge"><title>Node3&#45;&gt;Node10</title>
<path fill="none" stroke="midnightblue" d="M1057.6,-337.308C1060.78,-336.824 1063.94,-336.38 1067,-336 1124.81,-328.83 1550.25,-342.579 1590,-300 1640.43,-245.978 1616.49,-315.094 1485,-244 1449.34,-224.719 1444.16,-213.938 1413,-188 1393.38,-171.663 1371.6,-152.075 1356.98,-138.702"/>
<polygon fill="midnightblue" stroke="midnightblue" points="1359.01,-135.807 1349.27,-131.617 1354.27,-140.961 1359.01,-135.807"/>
</g>
<!-- Node11 -->
<g id="node11" class="node"><title>Node11</title>
<polygon fill="white" stroke="#bfbfbf" points="1189.5,-56.5 1189.5,-75.5 1300.5,-75.5 1300.5,-56.5 1189.5,-56.5"/>
<text text-anchor="middle" x="1245" y="-63.5" font-family="Helvetica,sans-Serif" font-size="10.00">dji_open_protocol.hpp</text>
</g>
<!-- Node3&#45;&gt;Node11 -->
<g id="edge51" class="edge"><title>Node3&#45;&gt;Node11</title>
<path fill="none" stroke="midnightblue" d="M1057.85,-336.84C1095.27,-328.921 1151.99,-315.803 1200,-300 1221.95,-292.775 1226.32,-288.016 1248,-280 1296.64,-262.012 1320.3,-278.53 1359,-244 1405.93,-202.126 1448.18,-161.982 1410,-112 1397.64,-95.8142 1351.14,-84.0529 1310.64,-76.6223"/>
<polygon fill="midnightblue" stroke="midnightblue" points="1311.23,-73.1716 1300.77,-74.8726 1310.01,-80.0642 1311.23,-73.1716"/>
</g>
<!-- Node12 -->
<g id="node12" class="node"><title>Node12</title>
<g id="a_node12"><a xlink:href="dji__camera_8hpp.html" target="_top" xlink:title="Camera/Gimbal API for DJI onboardSDK library. ">
<polygon fill="white" stroke="black" points="311.5,-168.5 311.5,-187.5 394.5,-187.5 394.5,-168.5 311.5,-168.5"/>
<text text-anchor="middle" x="353" y="-175.5" font-family="Helvetica,sans-Serif" font-size="10.00">dji_camera.hpp</text>
</a>
</g>
</g>
<!-- Node3&#45;&gt;Node12 -->
<g id="edge11" class="edge"><title>Node3&#45;&gt;Node12</title>
<path fill="none" stroke="midnightblue" d="M976.266,-344.93C899.917,-343.87 730.664,-337.101 594,-300 535.642,-284.157 524.032,-271.151 470,-244 436.97,-227.403 399.811,-206.333 376.408,-192.758"/>
<polygon fill="midnightblue" stroke="midnightblue" points="377.968,-189.616 367.566,-187.606 374.444,-195.664 377.968,-189.616"/>
</g>
<!-- Node13 -->
<g id="node13" class="node"><title>Node13</title>
<g id="a_node13"><a xlink:href="dji__command_8hpp.html" target="_top" xlink:title="All DJI OSDK OpenProtocol Command IDs. ">
<polygon fill="white" stroke="black" points="632.5,-112.5 632.5,-131.5 725.5,-131.5 725.5,-112.5 632.5,-112.5"/>
<text text-anchor="middle" x="679" y="-119.5" font-family="Helvetica,sans-Serif" font-size="10.00">dji_command.hpp</text>
</a>
</g>
</g>
<!-- Node3&#45;&gt;Node13 -->
<g id="edge18" class="edge"><title>Node3&#45;&gt;Node13</title>
<path fill="none" stroke="midnightblue" d="M1010.38,-336.312C997.81,-319.425 970.382,-280.609 955,-244 941.513,-211.901 961.485,-191.722 936,-168 907.675,-141.635 802.679,-130.418 735.973,-125.873"/>
<polygon fill="midnightblue" stroke="midnightblue" points="735.819,-122.355 725.613,-125.199 735.365,-129.341 735.819,-122.355"/>
</g>
<!-- Node15 -->
<g id="node15" class="node"><title>Node15</title>
<polygon fill="white" stroke="#bfbfbf" points="1257,-280.5 1257,-299.5 1369,-299.5 1369,-280.5 1257,-280.5"/>
<text text-anchor="middle" x="1313" y="-287.5" font-family="Helvetica,sans-Serif" font-size="10.00">dji_circular_buffer.hpp</text>
</g>
<!-- Node3&#45;&gt;Node15 -->
<g id="edge17" class="edge"><title>Node3&#45;&gt;Node15</title>
<path fill="none" stroke="midnightblue" d="M1057.54,-337.605C1108.92,-328.231 1197.79,-312.017 1255.99,-301.4"/>
<polygon fill="midnightblue" stroke="midnightblue" points="1256.92,-304.789 1266.13,-299.551 1255.66,-297.902 1256.92,-304.789"/>
</g>
<!-- Node16 -->
<g id="node16" class="node"><title>Node16</title>
<g id="a_node16"><a xlink:href="dji__control_8hpp.html" target="_top" xlink:title="Control API for DJI OSDK library. ">
<polygon fill="white" stroke="black" points="1045,-280.5 1045,-299.5 1125,-299.5 1125,-280.5 1045,-280.5"/>
<text text-anchor="middle" x="1085" y="-287.5" font-family="Helvetica,sans-Serif" font-size="10.00">dji_control.hpp</text>
</a>
</g>
</g>
<!-- Node3&#45;&gt;Node16 -->
<g id="edge19" class="edge"><title>Node3&#45;&gt;Node16</title>
<path fill="none" stroke="midnightblue" d="M1027.93,-336.324C1038.17,-328.185 1053.72,-315.839 1066,-306.087"/>
<polygon fill="midnightblue" stroke="midnightblue" points="1068.22,-308.794 1073.88,-299.834 1063.87,-303.312 1068.22,-308.794"/>
</g>
<!-- Node19 -->
<g id="node19" class="node"><title>Node19</title>
<g id="a_node19"><a xlink:href="dji__version_8hpp.html" target="_top" xlink:title="Drone/SDK Version definition for DJI onboardSDK library. ">
<polygon fill="white" stroke="black" points="1059,-168.5 1059,-187.5 1141,-187.5 1141,-168.5 1059,-168.5"/>
<text text-anchor="middle" x="1100" y="-175.5" font-family="Helvetica,sans-Serif" font-size="10.00">dji_version.hpp</text>
</a>
</g>
</g>
<!-- Node3&#45;&gt;Node19 -->
<g id="edge60" class="edge"><title>Node3&#45;&gt;Node19</title>
<path fill="none" stroke="midnightblue" d="M1018.4,-336.153C1020.7,-323.224 1026.05,-298.677 1036,-280 1045.79,-261.619 1054.44,-261.326 1066,-244 1076.14,-228.804 1085.59,-210.231 1091.94,-196.835"/>
<polygon fill="midnightblue" stroke="midnightblue" points="1095.13,-198.288 1096.15,-187.743 1088.77,-195.345 1095.13,-198.288"/>
</g>
<!-- Node21 -->
<g id="node21" class="node"><title>Node21</title>
<g id="a_node21"><a xlink:href="dji__gimbal_8hpp.html" target="_top" xlink:title="Gimbal API for OSDK library. ">
<polygon fill="white" stroke="black" points="214.5,-168.5 214.5,-187.5 293.5,-187.5 293.5,-168.5 214.5,-168.5"/>
<text text-anchor="middle" x="254" y="-175.5" font-family="Helvetica,sans-Serif" font-size="10.00">dji_gimbal.hpp</text>
</a>
</g>
</g>
<!-- Node3&#45;&gt;Node21 -->
<g id="edge32" class="edge"><title>Node3&#45;&gt;Node21</title>
<path fill="none" stroke="midnightblue" d="M976.372,-345.427C892.628,-345.39 695.306,-340.559 536,-300 436.018,-274.545 325.928,-218.359 278.238,-192.503"/>
<polygon fill="midnightblue" stroke="midnightblue" points="279.746,-189.339 269.293,-187.611 276.387,-195.481 279.746,-189.339"/>
</g>
<!-- Node22 -->
<g id="node22" class="node"><title>Node22</title>
<polygon fill="white" stroke="#bfbfbf" points="1387,-280.5 1387,-299.5 1485,-299.5 1485,-280.5 1387,-280.5"/>
<text text-anchor="middle" x="1436" y="-287.5" font-family="Helvetica,sans-Serif" font-size="10.00">dji_hard_driver.hpp</text>
</g>
<!-- Node3&#45;&gt;Node22 -->
<g id="edge35" class="edge"><title>Node3&#45;&gt;Node22</title>
<path fill="none" stroke="midnightblue" d="M1057.62,-337.467C1060.79,-336.947 1063.95,-336.451 1067,-336 1201.43,-316.142 1238.39,-318.543 1376.83,-300.108"/>
<polygon fill="midnightblue" stroke="midnightblue" points="1377.53,-303.546 1386.97,-298.744 1376.59,-296.608 1377.53,-303.546"/>
</g>
<!-- Node23 -->
<g id="node23" class="node"><title>Node23</title>
<g id="a_node23"><a xlink:href="dji__hardware__sync_8hpp.html" target="_top" xlink:title="Hardware Sync API for DJI OSDK. ">
<polygon fill="white" stroke="black" points="179,-224.5 179,-243.5 295,-243.5 295,-224.5 179,-224.5"/>
<text text-anchor="middle" x="237" y="-231.5" font-family="Helvetica,sans-Serif" font-size="10.00">dji_hardware_sync.hpp</text>
</a>
</g>
</g>
<!-- Node3&#45;&gt;Node23 -->
<g id="edge36" class="edge"><title>Node3&#45;&gt;Node23</title>
<path fill="none" stroke="midnightblue" d="M976.345,-345.435C846.465,-346.348 442.998,-345.372 322,-300 294.153,-289.558 267.893,-266.756 252.126,-251.136"/>
<polygon fill="midnightblue" stroke="midnightblue" points="254.377,-248.432 244.884,-243.727 249.37,-253.325 254.377,-248.432"/>
</g>
<!-- Node24 -->
<g id="node24" class="node"><title>Node24</title>
<g id="a_node24"><a xlink:href="dji__mfio_8hpp.html" target="_top" xlink:title="MFIO API for DJI OSDK library. ">
<polygon fill="white" stroke="black" points="1493.5,-224.5 1493.5,-243.5 1562.5,-243.5 1562.5,-224.5 1493.5,-224.5"/>
<text text-anchor="middle" x="1528" y="-231.5" font-family="Helvetica,sans-Serif" font-size="10.00">dji_mfio.hpp</text>
</a>
</g>
</g>
<!-- Node3&#45;&gt;Node24 -->
<g id="edge38" class="edge"><title>Node3&#45;&gt;Node24</title>
<path fill="none" stroke="midnightblue" d="M1057.6,-337.294C1060.77,-336.814 1063.94,-336.374 1067,-336 1128.45,-328.504 1580.66,-345.167 1623,-300 1644.21,-277.374 1604.8,-258.294 1570.46,-246.776"/>
<polygon fill="midnightblue" stroke="midnightblue" points="1571.1,-243.304 1560.51,-243.589 1568.97,-249.971 1571.1,-243.304"/>
</g>
<!-- Node25 -->
<g id="node25" class="node"><title>Node25</title>
<g id="a_node25"><a xlink:href="dji__mission__manager_8hpp.html" target="_top" xlink:title="Mission&#45;Manager API for DJI OSDK library. ">
<polygon fill="white" stroke="black" points="741.5,-280.5 741.5,-299.5 868.5,-299.5 868.5,-280.5 741.5,-280.5"/>
<text text-anchor="middle" x="805" y="-287.5" font-family="Helvetica,sans-Serif" font-size="10.00">dji_mission_manager.hpp</text>
</a>
</g>
</g>
<!-- Node3&#45;&gt;Node25 -->
<g id="edge40" class="edge"><title>Node3&#45;&gt;Node25</title>
<path fill="none" stroke="midnightblue" d="M983.408,-336.444C946.813,-327.122 888.162,-312.183 848.174,-301.997"/>
<polygon fill="midnightblue" stroke="midnightblue" points="848.989,-298.593 838.435,-299.516 847.261,-305.377 848.989,-298.593"/>
</g>
<!-- Node29 -->
<g id="node29" class="node"><title>Node29</title>
<g id="a_node29"><a xlink:href="dji__mobile__communication_8hpp.html" target="_top" xlink:title="Implementation of DJI Mobile&#45;Onboard SDK Communication (MOC) ">
<polygon fill="white" stroke="black" points="1595,-224.5 1595,-243.5 1745,-243.5 1745,-224.5 1595,-224.5"/>
<text text-anchor="middle" x="1670" y="-231.5" font-family="Helvetica,sans-Serif" font-size="10.00">dji_mobile_communication.hpp</text>
</a>
</g>
</g>
<!-- Node3&#45;&gt;Node29 -->
<g id="edge49" class="edge"><title>Node3&#45;&gt;Node29</title>
<path fill="none" stroke="midnightblue" d="M1057.6,-337.288C1060.77,-336.809 1063.94,-336.371 1067,-336 1130.22,-328.347 1586.24,-335.658 1639,-300 1654.67,-289.409 1662.65,-268.637 1666.55,-253.415"/>
<polygon fill="midnightblue" stroke="midnightblue" points="1669.99,-254.055 1668.72,-243.536 1663.15,-252.55 1669.99,-254.055"/>
</g>
<!-- Node30 -->
<g id="node30" class="node"><title>Node30</title>
<g id="a_node30"><a xlink:href="dji__status_8hpp.html" target="_top" xlink:title="Status information for DJI Vehicle. ">
<polygon fill="white" stroke="black" points="1503.5,-280.5 1503.5,-299.5 1580.5,-299.5 1580.5,-280.5 1503.5,-280.5"/>
<text text-anchor="middle" x="1542" y="-287.5" font-family="Helvetica,sans-Serif" font-size="10.00">dji_status.hpp</text>
</a>
</g>
</g>
<!-- Node3&#45;&gt;Node30 -->
<g id="edge52" class="edge"><title>Node3&#45;&gt;Node30</title>
<path fill="none" stroke="midnightblue" d="M1057.61,-337.361C1060.78,-336.865 1063.94,-336.404 1067,-336 1252.59,-311.529 1303.54,-325.098 1493.26,-299.955"/>
<polygon fill="midnightblue" stroke="midnightblue" points="1493.84,-303.409 1503.28,-298.608 1492.9,-296.471 1493.84,-303.409"/>
</g>
<!-- Node31 -->
<g id="node31" class="node"><title>Node31</title>
<g id="a_node31"><a xlink:href="dji__subscription_8hpp.html" target="_top" xlink:title="Telemetry Subscription API for DJI OSDK library. ">
<polygon fill="white" stroke="black" points="1227.5,-224.5 1227.5,-243.5 1330.5,-243.5 1330.5,-224.5 1227.5,-224.5"/>
<text text-anchor="middle" x="1279" y="-231.5" font-family="Helvetica,sans-Serif" font-size="10.00">dji_subscription.hpp</text>
</a>
</g>
</g>
<!-- Node3&#45;&gt;Node31 -->
<g id="edge53" class="edge"><title>Node3&#45;&gt;Node31</title>
<path fill="none" stroke="midnightblue" d="M1054.23,-336.424C1085.11,-328.701 1129.83,-316.098 1167,-300 1200.22,-285.617 1235.95,-263.616 1257.9,-249.268"/>
<polygon fill="midnightblue" stroke="midnightblue" points="1260.01,-252.07 1266.41,-243.632 1256.14,-246.233 1260.01,-252.07"/>
</g>
<!-- Node32 -->
<g id="node32" class="node"><title>Node32</title>
<g id="a_node32"><a xlink:href="dji__virtual__rc_8hpp.html" target="_top" xlink:title="Virtual Radio Control API for DJI onboardSDK library. ">
<polygon fill="white" stroke="black" points="603,-280.5 603,-299.5 693,-299.5 693,-280.5 603,-280.5"/>
<text text-anchor="middle" x="648" y="-287.5" font-family="Helvetica,sans-Serif" font-size="10.00">dji_virtual_rc.hpp</text>
</a>
</g>
</g>
<!-- Node3&#45;&gt;Node32 -->
<g id="edge61" class="edge"><title>Node3&#45;&gt;Node32</title>
<path fill="none" stroke="midnightblue" d="M976.455,-339.067C910.117,-329.359 778.287,-310.066 703.385,-299.105"/>
<polygon fill="midnightblue" stroke="midnightblue" points="703.608,-295.601 693.207,-297.616 702.595,-302.527 703.608,-295.601"/>
</g>
<!-- Node6 -->
<g id="node6" class="node"><title>Node6</title>
<g id="a_node6"><a xlink:href="dji__telemetry_8hpp.html" target="_top" xlink:title="Enumeration of all telemetry data types, structures and maps. ">
<polygon fill="white" stroke="black" points="707.5,-168.5 707.5,-187.5 798.5,-187.5 798.5,-168.5 707.5,-168.5"/>
<text text-anchor="middle" x="753" y="-175.5" font-family="Helvetica,sans-Serif" font-size="10.00">dji_telemetry.hpp</text>
</a>
</g>
</g>
<!-- Node5&#45;&gt;Node6 -->
<g id="edge5" class="edge"><title>Node5&#45;&gt;Node6</title>
<path fill="none" stroke="midnightblue" d="M969.278,-224.444C924.351,-215.004 852.002,-199.802 803.501,-189.611"/>
<polygon fill="midnightblue" stroke="midnightblue" points="804.038,-186.148 793.532,-187.516 802.598,-192.998 804.038,-186.148"/>
</g>
<!-- Node5&#45;&gt;Node10 -->
<g id="edge9" class="edge"><title>Node5&#45;&gt;Node10</title>
<path fill="none" stroke="midnightblue" d="M1037.15,-224.438C1065.39,-215.494 1110.87,-200.982 1150,-188 1204.68,-169.862 1267.93,-148.059 1305.9,-134.879"/>
<polygon fill="midnightblue" stroke="midnightblue" points="1307.16,-138.148 1315.45,-131.561 1304.86,-131.536 1307.16,-138.148"/>
</g>
<!-- Node6&#45;&gt;Node7 -->
<g id="edge6" class="edge"><title>Node6&#45;&gt;Node7</title>
<path fill="none" stroke="midnightblue" d="M713.704,-168.444C669.041,-158.719 596.295,-142.879 549.558,-132.702"/>
<polygon fill="midnightblue" stroke="midnightblue" points="550.226,-129.266 539.711,-130.558 548.737,-136.106 550.226,-129.266"/>
</g>
<!-- Node8 -->
<g id="node8" class="node"><title>Node8</title>
<polygon fill="white" stroke="#bfbfbf" points="533.5,-56.5 533.5,-75.5 576.5,-75.5 576.5,-56.5 533.5,-56.5"/>
<text text-anchor="middle" x="555" y="-63.5" font-family="Helvetica,sans-Serif" font-size="10.00">cstdio</text>
</g>
<!-- Node7&#45;&gt;Node8 -->
<g id="edge7" class="edge"><title>Node7&#45;&gt;Node8</title>
<path fill="none" stroke="midnightblue" d="M513.256,-112.083C520.465,-104.298 531.11,-92.8015 539.846,-83.3665"/>
<polygon fill="midnightblue" stroke="midnightblue" points="542.671,-85.4666 546.897,-75.7511 537.535,-80.7108 542.671,-85.4666"/>
</g>
<!-- Node9 -->
<g id="node9" class="node"><title>Node9</title>
<polygon fill="white" stroke="#bfbfbf" points="591.5,-0.5 591.5,-19.5 640.5,-19.5 640.5,-0.5 591.5,-0.5"/>
<text text-anchor="middle" x="616" y="-7.5" font-family="Helvetica,sans-Serif" font-size="10.00">stdint.h</text>
</g>
<!-- Node7&#45;&gt;Node9 -->
<g id="edge8" class="edge"><title>Node7&#45;&gt;Node9</title>
<path fill="none" stroke="midnightblue" d="M505.356,-112.393C506.344,-98.885 510.062,-72.5438 524,-56 538.829,-38.3994 562.182,-27.0929 581.648,-20.2154"/>
<polygon fill="midnightblue" stroke="midnightblue" points="582.998,-23.4562 591.408,-17.0127 580.815,-16.8052 582.998,-23.4562"/>
</g>
<!-- Node10&#45;&gt;Node11 -->
<g id="edge10" class="edge"><title>Node10&#45;&gt;Node11</title>
<path fill="none" stroke="midnightblue" d="M1324.74,-112.324C1309.78,-103.822 1286.75,-90.7288 1269.27,-80.7975"/>
<polygon fill="midnightblue" stroke="midnightblue" points="1270.65,-77.5534 1260.23,-75.6545 1267.19,-83.639 1270.65,-77.5534"/>
</g>
<!-- Node12&#45;&gt;Node7 -->
<g id="edge16" class="edge"><title>Node12&#45;&gt;Node7</title>
<path fill="none" stroke="midnightblue" d="M377.085,-168.444C402.545,-159.399 442.894,-145.064 471.459,-134.916"/>
<polygon fill="midnightblue" stroke="midnightblue" points="472.777,-138.162 481.028,-131.516 470.433,-131.566 472.777,-138.162"/>
</g>
<!-- Node12&#45;&gt;Node13 -->
<g id="edge12" class="edge"><title>Node12&#45;&gt;Node13</title>
<path fill="none" stroke="midnightblue" d="M394.619,-170.106C452.461,-160.525 557.348,-143.151 622.3,-132.392"/>
<polygon fill="midnightblue" stroke="midnightblue" points="623.075,-135.811 632.369,-130.724 621.931,-128.906 623.075,-135.811"/>
</g>
<!-- Node13&#45;&gt;Node9 -->
<g id="edge15" class="edge"><title>Node13&#45;&gt;Node9</title>
<path fill="none" stroke="midnightblue" d="M667.657,-112.179C657.693,-103.859 643.496,-90.5244 635,-76 626.56,-61.5704 621.634,-43.1178 618.922,-29.5626"/>
<polygon fill="midnightblue" stroke="midnightblue" points="622.334,-28.7564 617.137,-19.5238 615.442,-29.9822 622.334,-28.7564"/>
</g>
<!-- Node14 -->
<g id="node14" class="node"><title>Node14</title>
<g id="a_node14"><a xlink:href="dji__error_8hpp.html" target="_top" xlink:title="All DJI OSDK OpenProtocol ACK Error Codes. ">
<polygon fill="white" stroke="black" points="644,-56.5 644,-75.5 714,-75.5 714,-56.5 644,-56.5"/>
<text text-anchor="middle" x="679" y="-63.5" font-family="Helvetica,sans-Serif" font-size="10.00">dji_error.hpp</text>
</a>
</g>
</g>
<!-- Node13&#45;&gt;Node14 -->
<g id="edge13" class="edge"><title>Node13&#45;&gt;Node14</title>
<path fill="none" stroke="midnightblue" d="M679,-112.083C679,-105.006 679,-94.8611 679,-85.9865"/>
<polygon fill="midnightblue" stroke="midnightblue" points="682.5,-85.751 679,-75.7511 675.5,-85.7511 682.5,-85.751"/>
</g>
<!-- Node14&#45;&gt;Node9 -->
<g id="edge14" class="edge"><title>Node14&#45;&gt;Node9</title>
<path fill="none" stroke="midnightblue" d="M668.878,-56.324C659.474,-48.2631 645.256,-36.0765 633.931,-26.3695"/>
<polygon fill="midnightblue" stroke="midnightblue" points="636.177,-23.6844 626.306,-19.8339 631.621,-28.9993 636.177,-23.6844"/>
</g>
<!-- Node16&#45;&gt;Node7 -->
<g id="edge30" class="edge"><title>Node16&#45;&gt;Node7</title>
<path fill="none" stroke="midnightblue" d="M1084.74,-280.312C1083.88,-266.693 1080.33,-240.203 1066,-224 1024.32,-176.879 996.87,-183.893 936,-168 899.273,-158.411 652.586,-135.973 549.811,-126.905"/>
<polygon fill="midnightblue" stroke="midnightblue" points="550.014,-123.41 539.745,-126.019 549.4,-130.383 550.014,-123.41"/>
</g>
<!-- Node16&#45;&gt;Node10 -->
<g id="edge31" class="edge"><title>Node16&#45;&gt;Node10</title>
<path fill="none" stroke="midnightblue" d="M1125.18,-284.741C1193.51,-277.09 1326.33,-260.294 1340,-244 1364.22,-215.133 1354.5,-167.313 1346.51,-141.273"/>
<polygon fill="midnightblue" stroke="midnightblue" points="1349.76,-139.959 1343.3,-131.565 1343.12,-142.159 1349.76,-139.959"/>
</g>
<!-- Node16&#45;&gt;Node11 -->
<g id="edge29" class="edge"><title>Node16&#45;&gt;Node11</title>
<path fill="none" stroke="midnightblue" d="M1091.27,-280.297C1115.11,-247.217 1200.38,-128.909 1232.57,-84.2407"/>
<polygon fill="midnightblue" stroke="midnightblue" points="1235.59,-86.0428 1238.6,-75.8837 1229.91,-81.9499 1235.59,-86.0428"/>
</g>
<!-- Node17 -->
<g id="node17" class="node"><title>Node17</title>
<g id="a_node17"><a xlink:href="dji__ack_8hpp.html" target="_top" xlink:title="All DJI OSDK ACK parsing. ">
<polygon fill="white" stroke="black" points="554,-224.5 554,-243.5 620,-243.5 620,-224.5 554,-224.5"/>
<text text-anchor="middle" x="587" y="-231.5" font-family="Helvetica,sans-Serif" font-size="10.00">dji_ack.hpp</text>
</a>
</g>
</g>
<!-- Node16&#45;&gt;Node17 -->
<g id="edge20" class="edge"><title>Node16&#45;&gt;Node17</title>
<path fill="none" stroke="midnightblue" d="M1044.93,-284.751C970.481,-276.841 805.753,-259.274 667,-244 655.073,-242.687 642.148,-241.243 630.237,-239.902"/>
<polygon fill="midnightblue" stroke="midnightblue" points="630.409,-236.4 620.08,-238.757 629.625,-243.356 630.409,-236.4"/>
</g>
<!-- Node17&#45;&gt;Node7 -->
<g id="edge24" class="edge"><title>Node17&#45;&gt;Node7</title>
<path fill="none" stroke="midnightblue" d="M586.261,-224.22C584.765,-210.939 580.389,-185.447 568,-168 558.732,-154.948 544.453,-144.301 531.83,-136.646"/>
<polygon fill="midnightblue" stroke="midnightblue" points="533.446,-133.538 523.028,-131.609 529.969,-139.614 533.446,-133.538"/>
</g>
<!-- Node17&#45;&gt;Node13 -->
<g id="edge21" class="edge"><title>Node17&#45;&gt;Node13</title>
<path fill="none" stroke="midnightblue" d="M608.857,-224.36C624.9,-216.964 646.064,-204.829 659,-188 669.333,-174.557 674.367,-155.741 676.795,-141.811"/>
<polygon fill="midnightblue" stroke="midnightblue" points="680.264,-142.282 678.235,-131.883 673.336,-141.277 680.264,-142.282"/>
</g>
<!-- Node18 -->
<g id="node18" class="node"><title>Node18</title>
<g id="a_node18"><a xlink:href="dji__mission__type_8hpp.html" target="_top" xlink:title="Mission related data struct for DJI OSDK library. ">
<polygon fill="white" stroke="black" points="451,-168.5 451,-187.5 559,-187.5 559,-168.5 451,-168.5"/>
<text text-anchor="middle" x="505" y="-175.5" font-family="Helvetica,sans-Serif" font-size="10.00">dji_mission_type.hpp</text>
</a>
</g>
</g>
<!-- Node17&#45;&gt;Node18 -->
<g id="edge22" class="edge"><title>Node17&#45;&gt;Node18</title>
<path fill="none" stroke="midnightblue" d="M573.825,-224.324C561.153,-215.979 541.767,-203.212 526.794,-193.352"/>
<polygon fill="midnightblue" stroke="midnightblue" points="528.419,-190.231 518.142,-187.655 524.569,-196.078 528.419,-190.231"/>
</g>
<!-- Node17&#45;&gt;Node19 -->
<g id="edge25" class="edge"><title>Node17&#45;&gt;Node19</title>
<path fill="none" stroke="midnightblue" d="M620.077,-229.215C634.487,-227.583 651.576,-225.669 667,-224 804.71,-209.098 967.166,-192.47 1048.36,-184.224"/>
<polygon fill="midnightblue" stroke="midnightblue" points="1049.2,-187.657 1058.79,-183.165 1048.49,-180.693 1049.2,-187.657"/>
</g>
<!-- Node20 -->
<g id="node20" class="node"><title>Node20</title>
<polygon fill="white" stroke="#bfbfbf" points="615.5,-168.5 615.5,-187.5 650.5,-187.5 650.5,-168.5 615.5,-168.5"/>
<text text-anchor="middle" x="633" y="-175.5" font-family="Helvetica,sans-Serif" font-size="10.00">map</text>
</g>
<!-- Node17&#45;&gt;Node20 -->
<g id="edge28" class="edge"><title>Node17&#45;&gt;Node20</title>
<path fill="none" stroke="midnightblue" d="M594.596,-224.083C601.227,-216.298 611.021,-204.801 619.058,-195.367"/>
<polygon fill="midnightblue" stroke="midnightblue" points="621.725,-197.633 625.545,-187.751 616.396,-193.094 621.725,-197.633"/>
</g>
<!-- Node18&#45;&gt;Node7 -->
<g id="edge23" class="edge"><title>Node18&#45;&gt;Node7</title>
<path fill="none" stroke="midnightblue" d="M505,-168.083C505,-161.006 505,-150.861 505,-141.986"/>
<polygon fill="midnightblue" stroke="midnightblue" points="508.5,-141.751 505,-131.751 501.5,-141.751 508.5,-141.751"/>
</g>
<!-- Node19&#45;&gt;Node4 -->
<g id="edge27" class="edge"><title>Node19&#45;&gt;Node4</title>
<path fill="none" stroke="midnightblue" d="M1104.62,-168.083C1108.46,-160.691 1114.02,-149.953 1118.76,-140.811"/>
<polygon fill="midnightblue" stroke="midnightblue" points="1121.97,-142.24 1123.46,-131.751 1115.75,-139.018 1121.97,-142.24"/>
</g>
<!-- Node19&#45;&gt;Node13 -->
<g id="edge26" class="edge"><title>Node19&#45;&gt;Node13</title>
<path fill="none" stroke="midnightblue" d="M1058.87,-171.724C983.215,-162.02 821.887,-141.328 735.833,-130.29"/>
<polygon fill="midnightblue" stroke="midnightblue" points="736.086,-126.794 725.722,-128.993 735.196,-133.737 736.086,-126.794"/>
</g>
<!-- Node21&#45;&gt;Node7 -->
<g id="edge34" class="edge"><title>Node21&#45;&gt;Node7</title>
<path fill="none" stroke="midnightblue" d="M293.772,-168.444C339.103,-158.691 413.02,-142.789 460.307,-132.615"/>
<polygon fill="midnightblue" stroke="midnightblue" points="461.224,-135.998 470.264,-130.473 459.752,-129.155 461.224,-135.998"/>
</g>
<!-- Node21&#45;&gt;Node13 -->
<g id="edge33" class="edge"><title>Node21&#45;&gt;Node13</title>
<path fill="none" stroke="midnightblue" d="M293.517,-169.375C296.384,-168.888 299.234,-168.424 302,-168 415.256,-150.643 548.523,-136.11 622.41,-128.568"/>
<polygon fill="midnightblue" stroke="midnightblue" points="622.838,-132.043 632.434,-127.551 622.131,-125.079 622.838,-132.043"/>
</g>
<!-- Node23&#45;&gt;Node7 -->
<g id="edge37" class="edge"><title>Node23&#45;&gt;Node7</title>
<path fill="none" stroke="midnightblue" d="M226.78,-224.195C212.538,-210.881 190.062,-185.346 205,-168 237.413,-130.362 384.935,-123.758 460.338,-122.889"/>
<polygon fill="midnightblue" stroke="midnightblue" points="460.509,-126.388 470.479,-122.802 460.449,-119.388 460.509,-126.388"/>
</g>
<!-- Node24&#45;&gt;Node10 -->
<g id="edge39" class="edge"><title>Node24&#45;&gt;Node10</title>
<path fill="none" stroke="midnightblue" d="M1513.25,-224.368C1480.71,-205.332 1402.58,-159.615 1363.33,-136.65"/>
<polygon fill="midnightblue" stroke="midnightblue" points="1365.08,-133.621 1354.68,-131.591 1361.55,-139.662 1365.08,-133.621"/>
</g>
<!-- Node26 -->
<g id="node26" class="node"><title>Node26</title>
<g id="a_node26"><a xlink:href="dji__hotpoint_8hpp.html" target="_top" xlink:title="Implementation of HotPoint (Point of Interest) Missions for DJI OSDK. ">
<polygon fill="white" stroke="black" points="676.5,-224.5 676.5,-243.5 761.5,-243.5 761.5,-224.5 676.5,-224.5"/>
<text text-anchor="middle" x="719" y="-231.5" font-family="Helvetica,sans-Serif" font-size="10.00">dji_hotpoint.hpp</text>
</a>
</g>
</g>
<!-- Node25&#45;&gt;Node26 -->
<g id="edge41" class="edge"><title>Node25&#45;&gt;Node26</title>
<path fill="none" stroke="midnightblue" d="M791.183,-280.324C777.767,-271.9 757.176,-258.971 741.414,-249.074"/>
<polygon fill="midnightblue" stroke="midnightblue" points="743.113,-246.008 732.783,-243.655 739.391,-251.936 743.113,-246.008"/>
</g>
<!-- Node28 -->
<g id="node28" class="node"><title>Node28</title>
<g id="a_node28"><a xlink:href="dji__waypoint_8hpp.html" target="_top" xlink:title="Implementation of GPS Waypoint Missions for DJI OSDK. ">
<polygon fill="white" stroke="black" points="779.5,-224.5 779.5,-243.5 868.5,-243.5 868.5,-224.5 779.5,-224.5"/>
<text text-anchor="middle" x="824" y="-231.5" font-family="Helvetica,sans-Serif" font-size="10.00">dji_waypoint.hpp</text>
</a>
</g>
</g>
<!-- Node25&#45;&gt;Node28 -->
<g id="edge47" class="edge"><title>Node25&#45;&gt;Node28</title>
<path fill="none" stroke="midnightblue" d="M808.137,-280.083C810.683,-272.849 814.356,-262.409 817.527,-253.397"/>
<polygon fill="midnightblue" stroke="midnightblue" points="820.903,-254.346 820.921,-243.751 814.3,-252.023 820.903,-254.346"/>
</g>
<!-- Node26&#45;&gt;Node6 -->
<g id="edge46" class="edge"><title>Node26&#45;&gt;Node6</title>
<path fill="none" stroke="midnightblue" d="M724.614,-224.083C729.367,-216.534 736.318,-205.495 742.152,-196.23"/>
<polygon fill="midnightblue" stroke="midnightblue" points="745.124,-198.078 747.49,-187.751 739.2,-194.349 745.124,-198.078"/>
</g>
<!-- Node27 -->
<g id="node27" class="node"><title>Node27</title>
<g id="a_node27"><a xlink:href="dji__mission__base_8hpp.html" target="_top" xlink:title="Mission&#45;Base abstract class for DJI OSDK library. ">
<polygon fill="white" stroke="black" points="817,-168.5 817,-187.5 927,-187.5 927,-168.5 817,-168.5"/>
<text text-anchor="middle" x="872" y="-175.5" font-family="Helvetica,sans-Serif" font-size="10.00">dji_mission_base.hpp</text>
</a>
</g>
</g>
<!-- Node26&#45;&gt;Node27 -->
<g id="edge42" class="edge"><title>Node26&#45;&gt;Node27</title>
<path fill="none" stroke="midnightblue" d="M743.243,-224.444C768.871,-215.399 809.485,-201.064 838.238,-190.916"/>
<polygon fill="midnightblue" stroke="midnightblue" points="839.605,-194.145 847.87,-187.516 837.275,-187.544 839.605,-194.145"/>
</g>
<!-- Node27&#45;&gt;Node7 -->
<g id="edge44" class="edge"><title>Node27&#45;&gt;Node7</title>
<path fill="none" stroke="midnightblue" d="M816.659,-168.857C743.765,-158.132 616.98,-139.477 549.784,-129.589"/>
<polygon fill="midnightblue" stroke="midnightblue" points="549.931,-126.074 539.528,-128.08 548.912,-132.999 549.931,-126.074"/>
</g>
<!-- Node27&#45;&gt;Node10 -->
<g id="edge45" class="edge"><title>Node27&#45;&gt;Node10</title>
<path fill="none" stroke="midnightblue" d="M927.062,-170.647C1012.04,-160.842 1175.11,-142.026 1268.89,-131.205"/>
<polygon fill="midnightblue" stroke="midnightblue" points="1269.33,-134.678 1278.86,-130.055 1268.53,-127.724 1269.33,-134.678"/>
</g>
<!-- Node27&#45;&gt;Node13 -->
<g id="edge43" class="edge"><title>Node27&#45;&gt;Node13</title>
<path fill="none" stroke="midnightblue" d="M841.419,-168.444C808.385,-159.201 755.612,-144.436 719.234,-134.257"/>
<polygon fill="midnightblue" stroke="midnightblue" points="720.012,-130.84 709.438,-131.516 718.125,-137.582 720.012,-130.84"/>
</g>
<!-- Node28&#45;&gt;Node27 -->
<g id="edge48" class="edge"><title>Node28&#45;&gt;Node27</title>
<path fill="none" stroke="midnightblue" d="M831.926,-224.083C838.846,-216.298 849.065,-204.801 857.452,-195.367"/>
<polygon fill="midnightblue" stroke="midnightblue" points="860.194,-197.55 864.221,-187.751 854.962,-192.9 860.194,-197.55"/>
</g>
<!-- Node29&#45;&gt;Node10 -->
<g id="edge50" class="edge"><title>Node29&#45;&gt;Node10</title>
<path fill="none" stroke="midnightblue" d="M1644.38,-224.46C1585.9,-204.966 1442.48,-157.159 1375.52,-134.839"/>
<polygon fill="midnightblue" stroke="midnightblue" points="1376.42,-131.452 1365.83,-131.61 1374.21,-138.093 1376.42,-131.452"/>
</g>
<!-- Node31&#45;&gt;Node6 -->
<g id="edge55" class="edge"><title>Node31&#45;&gt;Node6</title>
<path fill="none" stroke="midnightblue" d="M1227.3,-229.199C1142.25,-222.697 967.295,-208.273 808.534,-187.983"/>
<polygon fill="midnightblue" stroke="midnightblue" points="808.949,-184.507 798.584,-186.7 808.055,-191.45 808.949,-184.507"/>
</g>
<!-- Node31&#45;&gt;Node10 -->
<g id="edge56" class="edge"><title>Node31&#45;&gt;Node10</title>
<path fill="none" stroke="midnightblue" d="M1283.79,-224.368C1293.76,-206.376 1316.96,-164.55 1330.23,-140.627"/>
<polygon fill="midnightblue" stroke="midnightblue" points="1333.45,-142.034 1335.24,-131.591 1327.33,-138.639 1333.45,-142.034"/>
</g>
<!-- Node31&#45;&gt;Node11 -->
<g id="edge54" class="edge"><title>Node31&#45;&gt;Node11</title>
<path fill="none" stroke="midnightblue" d="M1277.17,-224.075C1271.82,-197.945 1256.1,-121.211 1248.8,-85.577"/>
<polygon fill="midnightblue" stroke="midnightblue" points="1252.19,-84.6624 1246.75,-75.5681 1245.33,-86.067 1252.19,-84.6624"/>
</g>
<!-- Node32&#45;&gt;Node6 -->
<g id="edge65" class="edge"><title>Node32&#45;&gt;Node6</title>
<path fill="none" stroke="midnightblue" d="M648.409,-280.438C649.471,-266.991 653.288,-240.732 667,-224 679.233,-209.074 697.732,-198.497 714.442,-191.364"/>
<polygon fill="midnightblue" stroke="midnightblue" points="716.016,-194.505 724.014,-187.556 713.428,-188.001 716.016,-194.505"/>
</g>
<!-- Node32&#45;&gt;Node7 -->
<g id="edge64" class="edge"><title>Node32&#45;&gt;Node7</title>
<path fill="none" stroke="midnightblue" d="M602.944,-281.597C553.3,-270.736 475.994,-245.176 442,-188 429.772,-167.434 454.372,-148.34 476.319,-136.241"/>
<polygon fill="midnightblue" stroke="midnightblue" points="478.187,-139.215 485.448,-131.5 474.96,-133.003 478.187,-139.215"/>
</g>
<!-- Node32&#45;&gt;Node11 -->
<g id="edge63" class="edge"><title>Node32&#45;&gt;Node11</title>
<path fill="none" stroke="midnightblue" d="M693.389,-284.866C740.746,-279.472 816.519,-267.764 878,-244 983.649,-203.164 992.526,-158.07 1096,-112 1128.94,-97.3362 1168.01,-85.7343 1197.88,-77.9858"/>
<polygon fill="midnightblue" stroke="midnightblue" points="1198.81,-81.362 1207.64,-75.5068 1197.08,-74.5776 1198.81,-81.362"/>
</g>
<!-- Node32&#45;&gt;Node17 -->
<g id="edge62" class="edge"><title>Node32&#45;&gt;Node17</title>
<path fill="none" stroke="midnightblue" d="M638.199,-280.324C629.182,-272.341 615.594,-260.313 604.682,-250.653"/>
<polygon fill="midnightblue" stroke="midnightblue" points="606.787,-247.842 596.979,-243.834 602.147,-253.083 606.787,-247.842"/>
</g>
</g>
</svg>
        <g id="navigator" transform="translate(0 0)" fill="#404254">
                <rect fill="#f2f5e9" fill-opacity="0.5" stroke="#606060" stroke-width=".5" x="0" y="0" width="60" height="60"/>
                <use id="zoomplus" xlink:href="#zoomPlus" x="17" y="9" onmousedown="handleZoom(evt,'in')"/>
                <use id="zoomminus" xlink:href="#zoomMin" x="42" y="9" onmousedown="handleZoom(evt,'out')"/>
                <use id="reset" xlink:href="#resetDef" x="30" y="36" onmousedown="handleReset()"/>
                <g id="arrowUp" xlink:href="#dirArrow" transform="translate(30 24)" onmousedown="handlePan(0,-1)">
                  <use xlink:href="#rim" fill="#404040">
                        <set attributeName="fill" to="#808080" begin="arrowUp.mouseover" end="arrowUp.mouseout"/>
                  </use>
                  <path fill="none" stroke="white" stroke-width="1.5" d="M0,-3.0v7 M-2.5,-0.5L0,-3.0L2.5,-0.5"/>
                </g>
                <g id="arrowRight" xlink:href="#dirArrow" transform="rotate(90) translate(36 -43)" onmousedown="handlePan(1,0)">
                  <use xlink:href="#rim" fill="#404040">
                        <set attributeName="fill" to="#808080" begin="arrowRight.mouseover" end="arrowRight.mouseout"/>
                  </use>
                  <path fill="none" stroke="white" stroke-width="1.5" d="M0,-3.0v7 M-2.5,-0.5L0,-3.0L2.5,-0.5"/>
                </g>
                <g id="arrowDown" xlink:href="#dirArrow" transform="rotate(180) translate(-30 -48)" onmousedown="handlePan(0,1)">
                  <use xlink:href="#rim" fill="#404040">
                        <set attributeName="fill" to="#808080" begin="arrowDown.mouseover" end="arrowDown.mouseout"/>
                  </use>
                  <path fill="none" stroke="white" stroke-width="1.5" d="M0,-3.0v7 M-2.5,-0.5L0,-3.0L2.5,-0.5"/>
                </g>
                <g id="arrowLeft" xlink:href="#dirArrow" transform="rotate(270) translate(-36 17)" onmousedown="handlePan(-1,0)">
                  <use xlink:href="#rim" fill="#404040">
                        <set attributeName="fill" to="#808080" begin="arrowLeft.mouseover" end="arrowLeft.mouseout"/>
                  </use>
                  <path fill="none" stroke="white" stroke-width="1.5" d="M0,-3.0v7 M-2.5,-0.5L0,-3.0L2.5,-0.5"/>
                </g>
        </g>
        <svg viewBox="0 0 15 15" width="100%" height="30px" preserveAspectRatio="xMaxYMin meet">
         <g id="arrow_out" transform="scale(0.3 0.3)">
          <a xlink:href="posix__thread_8hpp__incl_org.svg" target="_base">
           <rect id="button" ry="5" rx="5" y="6" x="6" height="38" width="38"
                fill="#f2f5e9" fill-opacity="0.5" stroke="#606060" stroke-width="1.0"/>
           <path id="arrow"
             d="M 11.500037,31.436501 C 11.940474,20.09759 22.043105,11.32322 32.158766,21.979434 L 37.068811,17.246167 C 37.068811,17.246167 37.088388,32 37.088388,32 L 22.160133,31.978069 C 22.160133,31.978069 26.997745,27.140456 26.997745,27.140456 C 18.528582,18.264221 13.291696,25.230495 11.500037,31.436501 z"
             style="fill:#404040;"/>
          </a>
         </g>
        </svg>
</svg>
