<?xml version="1.0" encoding="UTF-8" standalone="no"?>
<!DOCTYPE svg PUBLIC "-//W3C//DTD SVG 1.1//EN"
 "http://www.w3.org/Graphics/SVG/1.1/DTD/svg11.dtd">
<!-- Generated by graphviz version 2.38.0 (20140413.2041)
 -->
<!-- Title: osdk&#45;core/platform/linux/inc/posix_thread.hpp Pages: 1 -->
<svg width="480pt" height="151pt"
 viewBox="0.00 0.00 479.50 151.00" xmlns="http://www.w3.org/2000/svg" xmlns:xlink="http://www.w3.org/1999/xlink">
<g id="graph0" class="graph" transform="scale(1 1) rotate(0) translate(4 147)">
<title>osdk&#45;core/platform/linux/inc/posix_thread.hpp</title>
<polygon fill="white" stroke="none" points="-4,4 -4,-147 475.5,-147 475.5,4 -4,4"/>
<!-- Node1 -->
<g id="node1" class="node"><title>Node1</title>
<polygon fill="#bfbfbf" stroke="black" points="288.5,-112.5 288.5,-142.5 421.5,-142.5 421.5,-112.5 288.5,-112.5"/>
<text text-anchor="start" x="296.5" y="-130.5" font-family="Helvetica,sans-Serif" font-size="10.00">osdk&#45;core/platform</text>
<text text-anchor="middle" x="355" y="-119.5" font-family="Helvetica,sans-Serif" font-size="10.00">/linux/inc/posix_thread.hpp</text>
</g>
<!-- Node2 -->
<g id="node2" class="node"><title>Node2</title>
<g id="a_node2"><a xlink:href="dji__log_8hpp.html" target="_top" xlink:title="Logging mechanism for printing status and error messages to the screen. ">
<polygon fill="white" stroke="black" points="204.5,-56.5 204.5,-75.5 267.5,-75.5 267.5,-56.5 204.5,-56.5"/>
<text text-anchor="middle" x="236" y="-63.5" font-family="Helvetica,sans-Serif" font-size="10.00">dji_log.hpp</text>
</a>
</g>
</g>
<!-- Node1&#45;&gt;Node2 -->
<g id="edge1" class="edge"><title>Node1&#45;&gt;Node2</title>
<path fill="none" stroke="midnightblue" d="M326.799,-112.399C307.278,-102.639 281.475,-89.7373 262.365,-80.1826"/>
<polygon fill="midnightblue" stroke="midnightblue" points="263.825,-76.9995 253.316,-75.6578 260.695,-83.2605 263.825,-76.9995"/>
</g>
<!-- Node6 -->
<g id="node6" class="node"><title>Node6</title>
<polygon fill="white" stroke="#bfbfbf" points="298,-0.5 298,-19.5 418,-19.5 418,-0.5 298,-0.5"/>
<text text-anchor="middle" x="358" y="-7.5" font-family="Helvetica,sans-Serif" font-size="10.00">dji_thread_manager.hpp</text>
</g>
<!-- Node1&#45;&gt;Node6 -->
<g id="edge6" class="edge"><title>Node1&#45;&gt;Node6</title>
<path fill="none" stroke="midnightblue" d="M351.474,-112.448C348.357,-98.2147 344.643,-75.5676 347,-56 348.071,-47.1069 350.292,-37.4344 352.46,-29.344"/>
<polygon fill="midnightblue" stroke="midnightblue" points="355.887,-30.0908 355.27,-19.5139 349.156,-28.1668 355.887,-30.0908"/>
</g>
<!-- Node7 -->
<g id="node7" class="node"><title>Node7</title>
<polygon fill="white" stroke="#bfbfbf" points="355.5,-56.5 355.5,-75.5 412.5,-75.5 412.5,-56.5 355.5,-56.5"/>
<text text-anchor="middle" x="384" y="-63.5" font-family="Helvetica,sans-Serif" font-size="10.00">pthread.h</text>
</g>
<!-- Node1&#45;&gt;Node7 -->
<g id="edge7" class="edge"><title>Node1&#45;&gt;Node7</title>
<path fill="none" stroke="midnightblue" d="M361.873,-112.399C365.913,-104.11 371.058,-93.5542 375.369,-84.7077"/>
<polygon fill="midnightblue" stroke="midnightblue" points="378.545,-86.1804 379.78,-75.6578 372.253,-83.1135 378.545,-86.1804"/>
</g>
<!-- Node8 -->
<g id="node8" class="node"><title>Node8</title>
<polygon fill="white" stroke="#bfbfbf" points="430.5,-56.5 430.5,-75.5 471.5,-75.5 471.5,-56.5 430.5,-56.5"/>
<text text-anchor="middle" x="451" y="-63.5" font-family="Helvetica,sans-Serif" font-size="10.00">string</text>
</g>
<!-- Node1&#45;&gt;Node8 -->
<g id="edge8" class="edge"><title>Node1&#45;&gt;Node8</title>
<path fill="none" stroke="midnightblue" d="M377.751,-112.399C392.995,-102.951 412.989,-90.5589 428.236,-81.1089"/>
<polygon fill="midnightblue" stroke="midnightblue" points="430.375,-83.9009 437.031,-75.6578 426.687,-77.951 430.375,-83.9009"/>
</g>
<!-- Node3 -->
<g id="node3" class="node"><title>Node3</title>
<polygon fill="white" stroke="#bfbfbf" points="0,-0.5 0,-19.5 86,-19.5 86,-0.5 0,-0.5"/>
<text text-anchor="middle" x="43" y="-7.5" font-family="Helvetica,sans-Serif" font-size="10.00">dji_memory.hpp</text>
</g>
<!-- Node2&#45;&gt;Node3 -->
<g id="edge2" class="edge"><title>Node2&#45;&gt;Node3</title>
<path fill="none" stroke="midnightblue" d="M205.419,-56.4435C172.385,-47.2011 119.612,-32.4356 83.2341,-22.2572"/>
<polygon fill="midnightblue" stroke="midnightblue" points="84.0116,-18.8404 73.4383,-19.5164 82.1254,-25.5815 84.0116,-18.8404"/>
</g>
<!-- Node4 -->
<g id="node4" class="node"><title>Node4</title>
<polygon fill="white" stroke="#bfbfbf" points="104.5,-0.5 104.5,-19.5 173.5,-19.5 173.5,-0.5 104.5,-0.5"/>
<text text-anchor="middle" x="139" y="-7.5" font-family="Helvetica,sans-Serif" font-size="10.00">dji_type.hpp</text>
</g>
<!-- Node2&#45;&gt;Node4 -->
<g id="edge3" class="edge"><title>Node2&#45;&gt;Node4</title>
<path fill="none" stroke="midnightblue" d="M220.415,-56.324C205.001,-47.7428 181.188,-34.486 163.29,-24.5224"/>
<polygon fill="midnightblue" stroke="midnightblue" points="164.986,-21.4606 154.546,-19.6545 161.581,-27.5767 164.986,-21.4606"/>
</g>
<!-- Node5 -->
<g id="node5" class="node"><title>Node5</title>
<polygon fill="white" stroke="#bfbfbf" points="191.5,-0.5 191.5,-19.5 280.5,-19.5 280.5,-0.5 191.5,-0.5"/>
<text text-anchor="middle" x="236" y="-7.5" font-family="Helvetica,sans-Serif" font-size="10.00">dji_singleton.hpp</text>
</g>
<!-- Node2&#45;&gt;Node5 -->
<g id="edge4" class="edge"><title>Node2&#45;&gt;Node5</title>
<path fill="none" stroke="midnightblue" d="M236,-56.083C236,-49.0059 236,-38.8611 236,-29.9865"/>
<polygon fill="midnightblue" stroke="midnightblue" points="239.5,-29.751 236,-19.7511 232.5,-29.7511 239.5,-29.751"/>
</g>
<!-- Node2&#45;&gt;Node6 -->
<g id="edge5" class="edge"><title>Node2&#45;&gt;Node6</title>
<path fill="none" stroke="midnightblue" d="M255.331,-56.4435C275.32,-47.5961 306.743,-33.6875 329.564,-23.5865"/>
<polygon fill="midnightblue" stroke="midnightblue" points="331.032,-26.7645 338.759,-19.5164 328.198,-20.3635 331.032,-26.7645"/>
</g>
</g>
</svg>
