<?xml version="1.0" encoding="UTF-8" standalone="no"?>
<!DOCTYPE svg PUBLIC "-//W3C//DTD SVG 1.1//EN"
 "http://www.w3.org/Graphics/SVG/1.1/DTD/svg11.dtd">
<!-- Generated by graphviz version 2.40.1 (20161225.0304)
 -->
<!-- Title: osdk&#45;lib/x86/advanced&#45;sensing&#45;2.0.3/inc/posix_thread_manager.hpp Pages: 1 -->
<svg width="204pt" height="106pt"
 viewBox="0.00 0.00 203.50 106.00" xmlns="http://www.w3.org/2000/svg" xmlns:xlink="http://www.w3.org/1999/xlink">
<g id="graph0" class="graph" transform="scale(1 1) rotate(0) translate(4 102)">
<title>osdk&#45;lib/x86/advanced&#45;sensing&#45;2.0.3/inc/posix_thread_manager.hpp</title>
<polygon fill="#ffffff" stroke="transparent" points="-4,4 -4,-102 199.5,-102 199.5,4 -4,4"/>
<!-- Node0 -->
<g id="node1" class="node">
<title>Node0</title>
<g id="a_node1"><a xlink:title="Thread safety and data protection for DJI Onboard SDK on linux platforms.">
<polygon fill="#bfbfbf" stroke="#000000" points="53,-56.5 53,-97.5 173,-97.5 173,-56.5 53,-56.5"/>
<text text-anchor="start" x="61" y="-85.5" font-family="Helvetica,sans-Serif" font-size="10.00" fill="#000000">osdk&#45;lib/x86/advanced</text>
<text text-anchor="start" x="61" y="-74.5" font-family="Helvetica,sans-Serif" font-size="10.00" fill="#000000">&#45;sensing&#45;2.0.3/inc/posix</text>
<text text-anchor="middle" x="113" y="-63.5" font-family="Helvetica,sans-Serif" font-size="10.00" fill="#000000">_thread_manager.hpp</text>
</a>
</g>
</g>
<!-- Node1 -->
<g id="node2" class="node">
<title>Node1</title>
<g id="a_node2"><a xlink:href="dji__thread__manager_8hpp.html" target="_top" xlink:title="Data protection and thread management abstract classes.">
<polygon fill="#ffffff" stroke="#000000" points="0,-.5 0,-19.5 120,-19.5 120,-.5 0,-.5"/>
<text text-anchor="middle" x="60" y="-7.5" font-family="Helvetica,sans-Serif" font-size="10.00" fill="#000000">dji_thread_manager.hpp</text>
</a>
</g>
</g>
<!-- Node0&#45;&gt;Node1 -->
<g id="edge1" class="edge">
<title>Node0&#45;&gt;Node1</title>
<path fill="none" stroke="#191970" d="M96.521,-56.168C89.3192,-47.0639 80.9594,-36.4959 74.0568,-27.7699"/>
<polygon fill="#191970" stroke="#191970" points="76.6859,-25.4519 67.7368,-19.7805 71.1959,-29.7947 76.6859,-25.4519"/>
</g>
<!-- Node2 -->
<g id="node3" class="node">
<title>Node2</title>
<g id="a_node3"><a xlink:title=" ">
<polygon fill="#ffffff" stroke="#bfbfbf" points="138.5,-.5 138.5,-19.5 195.5,-19.5 195.5,-.5 138.5,-.5"/>
<text text-anchor="middle" x="167" y="-7.5" font-family="Helvetica,sans-Serif" font-size="10.00" fill="#000000">pthread.h</text>
</a>
</g>
</g>
<!-- Node0&#45;&gt;Node2 -->
<g id="edge2" class="edge">
<title>Node0&#45;&gt;Node2</title>
<path fill="none" stroke="#191970" d="M129.7899,-56.168C137.1276,-47.0639 145.6451,-36.4959 152.678,-27.7699"/>
<polygon fill="#191970" stroke="#191970" points="155.567,-29.7628 159.1172,-19.7805 150.1169,-25.3701 155.567,-29.7628"/>
</g>
</g>
</svg>
