<?xml version="1.0" encoding="UTF-8" standalone="no"?>
<!DOCTYPE svg PUBLIC "-//W3C//DTD SVG 1.1//EN"
 "http://www.w3.org/Graphics/SVG/1.1/DTD/svg11.dtd">
<!-- Generated by graphviz version 2.38.0 (20140413.2041)
 -->
<!-- Title: osdk&#45;core/platform/linux/src/posix_thread_manager.cpp Pages: 1 -->
<svg width="204pt" height="162pt"
 viewBox="0.00 0.00 203.50 162.00" xmlns="http://www.w3.org/2000/svg" xmlns:xlink="http://www.w3.org/1999/xlink">
<g id="graph0" class="graph" transform="scale(1 1) rotate(0) translate(4 158)">
<title>osdk&#45;core/platform/linux/src/posix_thread_manager.cpp</title>
<polygon fill="white" stroke="none" points="-4,4 -4,-158 199.5,-158 199.5,4 -4,4"/>
<!-- Node1 -->
<g id="node1" class="node"><title>Node1</title>
<polygon fill="#bfbfbf" stroke="black" points="55.5,-112.5 55.5,-153.5 170.5,-153.5 170.5,-112.5 55.5,-112.5"/>
<text text-anchor="start" x="63.5" y="-141.5" font-family="Helvetica,sans-Serif" font-size="10.00">osdk&#45;core/platform</text>
<text text-anchor="start" x="63.5" y="-130.5" font-family="Helvetica,sans-Serif" font-size="10.00">/linux/src/posix_thread</text>
<text text-anchor="middle" x="113" y="-119.5" font-family="Helvetica,sans-Serif" font-size="10.00">_manager.cpp</text>
</g>
<!-- Node2 -->
<g id="node2" class="node"><title>Node2</title>
<g id="a_node2"><a xlink:href="posix__thread__manager_8hpp.html" target="_top" xlink:title="Thread safety and data protection for DJI Onboard SDK on linux platforms. ">
<polygon fill="white" stroke="black" points="46,-56.5 46,-75.5 180,-75.5 180,-56.5 46,-56.5"/>
<text text-anchor="middle" x="113" y="-63.5" font-family="Helvetica,sans-Serif" font-size="10.00">posix_thread_manager.hpp</text>
</a>
</g>
</g>
<!-- Node1&#45;&gt;Node2 -->
<g id="edge1" class="edge"><title>Node1&#45;&gt;Node2</title>
<path fill="none" stroke="midnightblue" d="M113,-112.498C113,-104.065 113,-94.2351 113,-85.874"/>
<polygon fill="midnightblue" stroke="midnightblue" points="116.5,-85.6525 113,-75.6525 109.5,-85.6525 116.5,-85.6525"/>
</g>
<!-- Node3 -->
<g id="node3" class="node"><title>Node3</title>
<polygon fill="white" stroke="#bfbfbf" points="0,-0.5 0,-19.5 120,-19.5 120,-0.5 0,-0.5"/>
<text text-anchor="middle" x="60" y="-7.5" font-family="Helvetica,sans-Serif" font-size="10.00">dji_thread_manager.hpp</text>
</g>
<!-- Node2&#45;&gt;Node3 -->
<g id="edge2" class="edge"><title>Node2&#45;&gt;Node3</title>
<path fill="none" stroke="midnightblue" d="M104.248,-56.083C96.5303,-48.2195 85.0953,-36.5688 75.7835,-27.0813"/>
<polygon fill="midnightblue" stroke="midnightblue" points="78.0916,-24.4363 68.589,-19.7511 73.0958,-29.3396 78.0916,-24.4363"/>
</g>
<!-- Node4 -->
<g id="node4" class="node"><title>Node4</title>
<polygon fill="white" stroke="#bfbfbf" points="138.5,-0.5 138.5,-19.5 195.5,-19.5 195.5,-0.5 138.5,-0.5"/>
<text text-anchor="middle" x="167" y="-7.5" font-family="Helvetica,sans-Serif" font-size="10.00">pthread.h</text>
</g>
<!-- Node2&#45;&gt;Node4 -->
<g id="edge3" class="edge"><title>Node2&#45;&gt;Node4</title>
<path fill="none" stroke="midnightblue" d="M121.917,-56.083C129.78,-48.2195 141.431,-36.5688 150.919,-27.0813"/>
<polygon fill="midnightblue" stroke="midnightblue" points="153.653,-29.2971 158.249,-19.7511 148.703,-24.3473 153.653,-29.2971"/>
</g>
</g>
</svg>
