<?xml version="1.0" encoding="UTF-8" standalone="no"?>
<!DOCTYPE svg PUBLIC "-//W3C//DTD SVG 1.1//EN"
 "http://www.w3.org/Graphics/SVG/1.1/DTD/svg11.dtd">
<!-- Generated by graphviz version 2.38.0 (20140413.2041)
 -->
<!-- Title: osdk&#45;core/platform/linux/src/posix_thread.cpp Pages: 1 -->
<svg width="2005pt" height="431pt"
 viewBox="0.00 0.00 2004.50 431.00" xmlns="http://www.w3.org/2000/svg" xmlns:xlink="http://www.w3.org/1999/xlink">
<g id="graph0" class="graph" transform="scale(1 1) rotate(0) translate(4 427)">
<title>osdk&#45;core/platform/linux/src/posix_thread.cpp</title>
<polygon fill="white" stroke="none" points="-4,4 -4,-427 2000.5,-427 2000.5,4 -4,4"/>
<!-- Node1 -->
<g id="node1" class="node"><title>Node1</title>
<polygon fill="#bfbfbf" stroke="black" points="579.5,-392.5 579.5,-422.5 713.5,-422.5 713.5,-392.5 579.5,-392.5"/>
<text text-anchor="start" x="587.5" y="-410.5" font-family="Helvetica,sans-Serif" font-size="10.00">osdk&#45;core/platform</text>
<text text-anchor="middle" x="646.5" y="-399.5" font-family="Helvetica,sans-Serif" font-size="10.00">/linux/src/posix_thread.cpp</text>
</g>
<!-- Node2 -->
<g id="node2" class="node"><title>Node2</title>
<g id="a_node2"><a xlink:href="posix__thread_8hpp.html" target="_top" xlink:title="Pthread&#45;based threading for DJI Onboard SDK Linux/*NIX platforms. ">
<polygon fill="white" stroke="black" points="99,-336.5 99,-355.5 190,-355.5 190,-336.5 99,-336.5"/>
<text text-anchor="middle" x="144.5" y="-343.5" font-family="Helvetica,sans-Serif" font-size="10.00">posix_thread.hpp</text>
</a>
</g>
</g>
<!-- Node1&#45;&gt;Node2 -->
<g id="edge1" class="edge"><title>Node1&#45;&gt;Node2</title>
<path fill="none" stroke="midnightblue" d="M579.319,-398.537C479.274,-386.679 292.983,-364.599 200.116,-353.592"/>
<polygon fill="midnightblue" stroke="midnightblue" points="200.417,-350.103 190.075,-352.402 199.593,-357.055 200.417,-350.103"/>
</g>
<!-- Node10 -->
<g id="node10" class="node"><title>Node10</title>
<g id="a_node10"><a xlink:href="dji__vehicle_8hpp.html" target="_top" xlink:title="Vehicle API for DJI onboardSDK library. ">
<polygon fill="white" stroke="black" points="1162,-336.5 1162,-355.5 1243,-355.5 1243,-336.5 1162,-336.5"/>
<text text-anchor="middle" x="1202.5" y="-343.5" font-family="Helvetica,sans-Serif" font-size="10.00">dji_vehicle.hpp</text>
</a>
</g>
</g>
<!-- Node1&#45;&gt;Node10 -->
<g id="edge10" class="edge"><title>Node1&#45;&gt;Node10</title>
<path fill="none" stroke="midnightblue" d="M713.567,-399.323C826.264,-387.263 1051.15,-363.196 1151.78,-352.427"/>
<polygon fill="midnightblue" stroke="midnightblue" points="1152.42,-355.88 1161.99,-351.335 1151.67,-348.919 1152.42,-355.88"/>
</g>
<!-- Node3 -->
<g id="node3" class="node"><title>Node3</title>
<g id="a_node3"><a xlink:href="dji__log_8hpp.html" target="_top" xlink:title="Logging mechanism for printing status and error messages to the screen. ">
<polygon fill="white" stroke="black" points="211,-280.5 211,-299.5 274,-299.5 274,-280.5 211,-280.5"/>
<text text-anchor="middle" x="242.5" y="-287.5" font-family="Helvetica,sans-Serif" font-size="10.00">dji_log.hpp</text>
</a>
</g>
</g>
<!-- Node2&#45;&gt;Node3 -->
<g id="edge2" class="edge"><title>Node2&#45;&gt;Node3</title>
<path fill="none" stroke="midnightblue" d="M160.245,-336.324C175.819,-327.743 199.877,-314.486 217.959,-304.522"/>
<polygon fill="midnightblue" stroke="midnightblue" points="219.724,-307.546 226.794,-299.655 216.346,-301.415 219.724,-307.546"/>
</g>
<!-- Node7 -->
<g id="node7" class="node"><title>Node7</title>
<polygon fill="white" stroke="#bfbfbf" points="7.5,-224.5 7.5,-243.5 127.5,-243.5 127.5,-224.5 7.5,-224.5"/>
<text text-anchor="middle" x="67.5" y="-231.5" font-family="Helvetica,sans-Serif" font-size="10.00">dji_thread_manager.hpp</text>
</g>
<!-- Node2&#45;&gt;Node7 -->
<g id="edge7" class="edge"><title>Node2&#45;&gt;Node7</title>
<path fill="none" stroke="midnightblue" d="M143.496,-336.29C141.628,-323.103 136.642,-297.729 124.5,-280 116.012,-267.606 103.077,-257.001 91.6743,-249.204"/>
<polygon fill="midnightblue" stroke="midnightblue" points="93.2689,-246.068 82.9718,-243.574 89.4662,-251.945 93.2689,-246.068"/>
</g>
<!-- Node8 -->
<g id="node8" class="node"><title>Node8</title>
<polygon fill="white" stroke="#bfbfbf" points="0,-280.5 0,-299.5 57,-299.5 57,-280.5 0,-280.5"/>
<text text-anchor="middle" x="28.5" y="-287.5" font-family="Helvetica,sans-Serif" font-size="10.00">pthread.h</text>
</g>
<!-- Node2&#45;&gt;Node8 -->
<g id="edge8" class="edge"><title>Node2&#45;&gt;Node8</title>
<path fill="none" stroke="midnightblue" d="M126.119,-336.444C107.284,-327.675 77.7688,-313.935 56.1207,-303.858"/>
<polygon fill="midnightblue" stroke="midnightblue" points="57.3375,-300.564 46.7946,-299.516 54.3833,-306.91 57.3375,-300.564"/>
</g>
<!-- Node9 -->
<g id="node9" class="node"><title>Node9</title>
<polygon fill="white" stroke="#bfbfbf" points="75,-280.5 75,-299.5 116,-299.5 116,-280.5 75,-280.5"/>
<text text-anchor="middle" x="95.5" y="-287.5" font-family="Helvetica,sans-Serif" font-size="10.00">string</text>
</g>
<!-- Node2&#45;&gt;Node9 -->
<g id="edge9" class="edge"><title>Node2&#45;&gt;Node9</title>
<path fill="none" stroke="midnightblue" d="M136.409,-336.083C129.345,-328.298 118.912,-316.801 110.351,-307.367"/>
<polygon fill="midnightblue" stroke="midnightblue" points="112.753,-304.805 103.441,-299.751 107.569,-309.509 112.753,-304.805"/>
</g>
<!-- Node4 -->
<g id="node4" class="node"><title>Node4</title>
<polygon fill="white" stroke="#bfbfbf" points="252.5,-224.5 252.5,-243.5 338.5,-243.5 338.5,-224.5 252.5,-224.5"/>
<text text-anchor="middle" x="295.5" y="-231.5" font-family="Helvetica,sans-Serif" font-size="10.00">dji_memory.hpp</text>
</g>
<!-- Node3&#45;&gt;Node4 -->
<g id="edge3" class="edge"><title>Node3&#45;&gt;Node4</title>
<path fill="none" stroke="midnightblue" d="M251.252,-280.083C258.97,-272.22 270.405,-260.569 279.717,-251.081"/>
<polygon fill="midnightblue" stroke="midnightblue" points="282.404,-253.34 286.911,-243.751 277.408,-248.436 282.404,-253.34"/>
</g>
<!-- Node5 -->
<g id="node5" class="node"><title>Node5</title>
<polygon fill="white" stroke="#bfbfbf" points="357,-224.5 357,-243.5 426,-243.5 426,-224.5 357,-224.5"/>
<text text-anchor="middle" x="391.5" y="-231.5" font-family="Helvetica,sans-Serif" font-size="10.00">dji_type.hpp</text>
</g>
<!-- Node3&#45;&gt;Node5 -->
<g id="edge4" class="edge"><title>Node3&#45;&gt;Node5</title>
<path fill="none" stroke="midnightblue" d="M266.109,-280.444C290.958,-271.438 330.274,-257.189 358.254,-247.049"/>
<polygon fill="midnightblue" stroke="midnightblue" points="359.792,-250.214 368.001,-243.516 357.407,-243.633 359.792,-250.214"/>
</g>
<!-- Node6 -->
<g id="node6" class="node"><title>Node6</title>
<polygon fill="white" stroke="#bfbfbf" points="145,-224.5 145,-243.5 234,-243.5 234,-224.5 145,-224.5"/>
<text text-anchor="middle" x="189.5" y="-231.5" font-family="Helvetica,sans-Serif" font-size="10.00">dji_singleton.hpp</text>
</g>
<!-- Node3&#45;&gt;Node6 -->
<g id="edge5" class="edge"><title>Node3&#45;&gt;Node6</title>
<path fill="none" stroke="midnightblue" d="M233.748,-280.083C226.03,-272.22 214.595,-260.569 205.283,-251.081"/>
<polygon fill="midnightblue" stroke="midnightblue" points="207.592,-248.436 198.089,-243.751 202.596,-253.34 207.592,-248.436"/>
</g>
<!-- Node3&#45;&gt;Node7 -->
<g id="edge6" class="edge"><title>Node3&#45;&gt;Node7</title>
<path fill="none" stroke="midnightblue" d="M214.771,-280.444C185.074,-271.28 137.784,-256.688 104.831,-246.519"/>
<polygon fill="midnightblue" stroke="midnightblue" points="105.687,-243.121 95.0995,-243.516 103.623,-249.809 105.687,-243.121"/>
</g>
<!-- Node10&#45;&gt;Node7 -->
<g id="edge66" class="edge"><title>Node10&#45;&gt;Node7</title>
<path fill="none" stroke="midnightblue" d="M1161.93,-345.355C998.45,-346.453 387.832,-347.237 201.5,-300 159.311,-289.305 114.669,-264.572 89.0395,-248.886"/>
<polygon fill="midnightblue" stroke="midnightblue" points="90.8345,-245.88 80.4972,-243.559 87.1305,-251.82 90.8345,-245.88"/>
</g>
<!-- Node11 -->
<g id="node11" class="node"><title>Node11</title>
<polygon fill="white" stroke="#bfbfbf" points="1261.5,-112.5 1261.5,-131.5 1307.5,-131.5 1307.5,-112.5 1261.5,-112.5"/>
<text text-anchor="middle" x="1284.5" y="-119.5" font-family="Helvetica,sans-Serif" font-size="10.00">cstdint</text>
</g>
<!-- Node10&#45;&gt;Node11 -->
<g id="edge11" class="edge"><title>Node10&#45;&gt;Node11</title>
<path fill="none" stroke="midnightblue" d="M1243.14,-343.513C1353.37,-339.165 1652.26,-325.161 1688.5,-300 1711.2,-284.241 1709.35,-270.937 1715.5,-244 1717.48,-235.334 1721.02,-230.966 1715.5,-224 1665.61,-161.072 1409.97,-133.579 1317.74,-125.602"/>
<polygon fill="midnightblue" stroke="midnightblue" points="1317.83,-122.097 1307.57,-124.745 1317.24,-129.073 1317.83,-122.097"/>
</g>
<!-- Node12 -->
<g id="node12" class="node"><title>Node12</title>
<g id="a_node12"><a xlink:href="dji__broadcast_8hpp.html" target="_top" xlink:title="Broadcast Telemetry API for DJI onboardSDK library. ">
<polygon fill="white" stroke="black" points="1614,-224.5 1614,-243.5 1707,-243.5 1707,-224.5 1614,-224.5"/>
<text text-anchor="middle" x="1660.5" y="-231.5" font-family="Helvetica,sans-Serif" font-size="10.00">dji_broadcast.hpp</text>
</a>
</g>
</g>
<!-- Node10&#45;&gt;Node12 -->
<g id="edge12" class="edge"><title>Node10&#45;&gt;Node12</title>
<path fill="none" stroke="midnightblue" d="M1243.07,-344.151C1351.54,-341.464 1641.99,-331.379 1670.5,-300 1681.98,-287.366 1676.64,-267.321 1670.21,-252.829"/>
<polygon fill="midnightblue" stroke="midnightblue" points="1673.34,-251.264 1665.78,-243.843 1667.06,-254.359 1673.34,-251.264"/>
</g>
<!-- Node14 -->
<g id="node14" class="node"><title>Node14</title>
<g id="a_node14"><a xlink:href="dji__type_8hpp.html" target="_top" xlink:title="Data type and Data Structure definitions for use throughout DJI OSDK. ">
<polygon fill="white" stroke="black" points="816,-112.5 816,-131.5 885,-131.5 885,-112.5 816,-112.5"/>
<text text-anchor="middle" x="850.5" y="-119.5" font-family="Helvetica,sans-Serif" font-size="10.00">dji_type.hpp</text>
</a>
</g>
</g>
<!-- Node10&#45;&gt;Node14 -->
<g id="edge67" class="edge"><title>Node10&#45;&gt;Node14</title>
<path fill="none" stroke="midnightblue" d="M1161.97,-344.879C1099.85,-343.474 978.248,-335.87 882.5,-300 839.788,-283.998 821.693,-282.023 796.5,-244 782.536,-222.924 788.731,-213.184 786.5,-188 785.716,-179.146 782.403,-175.889 786.5,-168 793.653,-154.226 807.171,-143.783 819.947,-136.441"/>
<polygon fill="midnightblue" stroke="midnightblue" points="821.817,-139.412 829.017,-131.64 818.542,-133.225 821.817,-139.412"/>
</g>
<!-- Node17 -->
<g id="node17" class="node"><title>Node17</title>
<g id="a_node17"><a xlink:href="dji__vehicle__callback_8hpp.html" target="_top" xlink:title="Type definition for new Vehicle&#45;style callbacks. ">
<polygon fill="white" stroke="black" points="1592.5,-112.5 1592.5,-131.5 1714.5,-131.5 1714.5,-112.5 1592.5,-112.5"/>
<text text-anchor="middle" x="1653.5" y="-119.5" font-family="Helvetica,sans-Serif" font-size="10.00">dji_vehicle_callback.hpp</text>
</a>
</g>
</g>
<!-- Node10&#45;&gt;Node17 -->
<g id="edge68" class="edge"><title>Node10&#45;&gt;Node17</title>
<path fill="none" stroke="midnightblue" d="M1243.34,-344.967C1360.41,-344.394 1695.26,-339.27 1796.5,-300 1871.77,-270.806 1904.15,-260.58 1939.5,-188 1943.39,-180.008 1945.28,-174.756 1939.5,-168 1912.44,-136.347 1800.58,-126.817 1725.04,-124.032"/>
<polygon fill="midnightblue" stroke="midnightblue" points="1724.75,-120.52 1714.64,-123.682 1724.51,-127.516 1724.75,-120.52"/>
</g>
<!-- Node18 -->
<g id="node18" class="node"><title>Node18</title>
<polygon fill="white" stroke="#bfbfbf" points="1496,-56.5 1496,-75.5 1607,-75.5 1607,-56.5 1496,-56.5"/>
<text text-anchor="middle" x="1551.5" y="-63.5" font-family="Helvetica,sans-Serif" font-size="10.00">dji_open_protocol.hpp</text>
</g>
<!-- Node10&#45;&gt;Node18 -->
<g id="edge59" class="edge"><title>Node10&#45;&gt;Node18</title>
<path fill="none" stroke="midnightblue" d="M1243.37,-343.76C1364.82,-339.812 1722.12,-326.229 1835.5,-300 1910.68,-282.607 1996.5,-312.167 1996.5,-235 1996.5,-235 1996.5,-235 1996.5,-177 1996.5,-99.8841 1741.47,-76.4858 1617.54,-69.6682"/>
<polygon fill="midnightblue" stroke="midnightblue" points="1617.58,-66.1655 1607.41,-69.1317 1617.21,-73.1557 1617.58,-66.1655"/>
</g>
<!-- Node19 -->
<g id="node19" class="node"><title>Node19</title>
<g id="a_node19"><a xlink:href="dji__camera_8hpp.html" target="_top" xlink:title="Camera/Gimbal API for DJI onboardSDK library. ">
<polygon fill="white" stroke="black" points="618,-168.5 618,-187.5 701,-187.5 701,-168.5 618,-168.5"/>
<text text-anchor="middle" x="659.5" y="-175.5" font-family="Helvetica,sans-Serif" font-size="10.00">dji_camera.hpp</text>
</a>
</g>
</g>
<!-- Node10&#45;&gt;Node19 -->
<g id="edge19" class="edge"><title>Node10&#45;&gt;Node19</title>
<path fill="none" stroke="midnightblue" d="M1162,-344.959C1036.29,-344.413 659.028,-339.472 622.5,-300 616.062,-293.043 609.446,-265.45 624.5,-224 628.412,-213.229 635.944,-202.996 643.023,-195.018"/>
<polygon fill="midnightblue" stroke="midnightblue" points="645.723,-197.257 650.063,-187.592 640.643,-192.44 645.723,-197.257"/>
</g>
<!-- Node20 -->
<g id="node20" class="node"><title>Node20</title>
<g id="a_node20"><a xlink:href="dji__command_8hpp.html" target="_top" xlink:title="All DJI OSDK OpenProtocol Command IDs. ">
<polygon fill="white" stroke="black" points="613,-112.5 613,-131.5 706,-131.5 706,-112.5 613,-112.5"/>
<text text-anchor="middle" x="659.5" y="-119.5" font-family="Helvetica,sans-Serif" font-size="10.00">dji_command.hpp</text>
</a>
</g>
</g>
<!-- Node10&#45;&gt;Node20 -->
<g id="edge26" class="edge"><title>Node10&#45;&gt;Node20</title>
<path fill="none" stroke="midnightblue" d="M1161.59,-343.892C1032.58,-340.137 639.853,-326.619 589.5,-300 526.947,-266.931 457.821,-224.435 500.5,-168 513.023,-151.441 562.209,-139.222 602.598,-131.729"/>
<polygon fill="midnightblue" stroke="midnightblue" points="603.425,-135.136 612.65,-129.926 602.189,-128.246 603.425,-135.136"/>
</g>
<!-- Node22 -->
<g id="node22" class="node"><title>Node22</title>
<polygon fill="white" stroke="#bfbfbf" points="631.5,-280.5 631.5,-299.5 743.5,-299.5 743.5,-280.5 631.5,-280.5"/>
<text text-anchor="middle" x="687.5" y="-287.5" font-family="Helvetica,sans-Serif" font-size="10.00">dji_circular_buffer.hpp</text>
</g>
<!-- Node10&#45;&gt;Node22 -->
<g id="edge25" class="edge"><title>Node10&#45;&gt;Node22</title>
<path fill="none" stroke="midnightblue" d="M1161.97,-341.272C1083.71,-333.991 906.388,-317.096 757.5,-300 756.233,-299.855 754.954,-299.706 753.665,-299.555"/>
<polygon fill="midnightblue" stroke="midnightblue" points="753.993,-296.069 743.648,-298.355 753.16,-303.02 753.993,-296.069"/>
</g>
<!-- Node23 -->
<g id="node23" class="node"><title>Node23</title>
<g id="a_node23"><a xlink:href="dji__control_8hpp.html" target="_top" xlink:title="Control API for DJI OSDK library. ">
<polygon fill="white" stroke="black" points="1340.5,-280.5 1340.5,-299.5 1420.5,-299.5 1420.5,-280.5 1340.5,-280.5"/>
<text text-anchor="middle" x="1380.5" y="-287.5" font-family="Helvetica,sans-Serif" font-size="10.00">dji_control.hpp</text>
</a>
</g>
</g>
<!-- Node10&#45;&gt;Node23 -->
<g id="edge27" class="edge"><title>Node10&#45;&gt;Node23</title>
<path fill="none" stroke="midnightblue" d="M1230.7,-336.444C1260.91,-327.28 1309.01,-312.688 1342.53,-302.519"/>
<polygon fill="midnightblue" stroke="midnightblue" points="1343.87,-305.769 1352.43,-299.516 1341.84,-299.07 1343.87,-305.769"/>
</g>
<!-- Node26 -->
<g id="node26" class="node"><title>Node26</title>
<g id="a_node26"><a xlink:href="dji__version_8hpp.html" target="_top" xlink:title="Drone/SDK Version definition for DJI onboardSDK library. ">
<polygon fill="white" stroke="black" points="1179.5,-168.5 1179.5,-187.5 1261.5,-187.5 1261.5,-168.5 1179.5,-168.5"/>
<text text-anchor="middle" x="1220.5" y="-175.5" font-family="Helvetica,sans-Serif" font-size="10.00">dji_version.hpp</text>
</a>
</g>
</g>
<!-- Node10&#45;&gt;Node26 -->
<g id="edge69" class="edge"><title>Node10&#45;&gt;Node26</title>
<path fill="none" stroke="midnightblue" d="M1198.13,-336.307C1193.94,-327.437 1187.9,-313.145 1185.5,-300 1178.63,-262.353 1197.51,-219.633 1210.14,-196.369"/>
<polygon fill="midnightblue" stroke="midnightblue" points="1213.19,-198.086 1215.08,-187.661 1207.1,-194.632 1213.19,-198.086"/>
</g>
<!-- Node28 -->
<g id="node28" class="node"><title>Node28</title>
<g id="a_node28"><a xlink:href="dji__gimbal_8hpp.html" target="_top" xlink:title="Gimbal API for OSDK library. ">
<polygon fill="white" stroke="black" points="521,-168.5 521,-187.5 600,-187.5 600,-168.5 521,-168.5"/>
<text text-anchor="middle" x="560.5" y="-175.5" font-family="Helvetica,sans-Serif" font-size="10.00">dji_gimbal.hpp</text>
</a>
</g>
</g>
<!-- Node10&#45;&gt;Node28 -->
<g id="edge40" class="edge"><title>Node10&#45;&gt;Node28</title>
<path fill="none" stroke="midnightblue" d="M1161.92,-344.31C1035.89,-341.838 657.005,-331.807 612.5,-300 578.807,-275.92 566.76,-225.343 562.596,-197.818"/>
<polygon fill="midnightblue" stroke="midnightblue" points="566.024,-197.038 561.254,-187.577 559.083,-197.947 566.024,-197.038"/>
</g>
<!-- Node29 -->
<g id="node29" class="node"><title>Node29</title>
<polygon fill="white" stroke="#bfbfbf" points="1040.5,-280.5 1040.5,-299.5 1138.5,-299.5 1138.5,-280.5 1040.5,-280.5"/>
<text text-anchor="middle" x="1089.5" y="-287.5" font-family="Helvetica,sans-Serif" font-size="10.00">dji_hard_driver.hpp</text>
</g>
<!-- Node10&#45;&gt;Node29 -->
<g id="edge43" class="edge"><title>Node10&#45;&gt;Node29</title>
<path fill="none" stroke="midnightblue" d="M1184.59,-336.444C1166.25,-327.675 1137.49,-313.935 1116.41,-303.858"/>
<polygon fill="midnightblue" stroke="midnightblue" points="1117.85,-300.67 1107.32,-299.516 1114.83,-306.986 1117.85,-300.67"/>
</g>
<!-- Node30 -->
<g id="node30" class="node"><title>Node30</title>
<g id="a_node30"><a xlink:href="dji__hardware__sync_8hpp.html" target="_top" xlink:title="Hardware Sync API for DJI OSDK. ">
<polygon fill="white" stroke="black" points="633.5,-224.5 633.5,-243.5 749.5,-243.5 749.5,-224.5 633.5,-224.5"/>
<text text-anchor="middle" x="691.5" y="-231.5" font-family="Helvetica,sans-Serif" font-size="10.00">dji_hardware_sync.hpp</text>
</a>
</g>
</g>
<!-- Node10&#45;&gt;Node30 -->
<g id="edge44" class="edge"><title>Node10&#45;&gt;Node30</title>
<path fill="none" stroke="midnightblue" d="M1161.9,-342.812C1072.77,-337.636 862.569,-323.3 795.5,-300 762.562,-288.557 729.206,-265.155 709.446,-249.777"/>
<polygon fill="midnightblue" stroke="midnightblue" points="711.616,-247.031 701.612,-243.542 707.256,-252.508 711.616,-247.031"/>
</g>
<!-- Node31 -->
<g id="node31" class="node"><title>Node31</title>
<g id="a_node31"><a xlink:href="dji__mfio_8hpp.html" target="_top" xlink:title="MFIO API for DJI OSDK library. ">
<polygon fill="white" stroke="black" points="1694,-168.5 1694,-187.5 1763,-187.5 1763,-168.5 1694,-168.5"/>
<text text-anchor="middle" x="1728.5" y="-175.5" font-family="Helvetica,sans-Serif" font-size="10.00">dji_mfio.hpp</text>
</a>
</g>
</g>
<!-- Node10&#45;&gt;Node31 -->
<g id="edge46" class="edge"><title>Node10&#45;&gt;Node31</title>
<path fill="none" stroke="midnightblue" d="M1243.24,-344.753C1364.27,-343.598 1715.37,-337.058 1749.5,-300 1775.76,-271.494 1754.14,-222.462 1739.39,-196.427"/>
<polygon fill="midnightblue" stroke="midnightblue" points="1742.31,-194.479 1734.19,-187.666 1736.29,-198.052 1742.31,-194.479"/>
</g>
<!-- Node32 -->
<g id="node32" class="node"><title>Node32</title>
<g id="a_node32"><a xlink:href="dji__mission__manager_8hpp.html" target="_top" xlink:title="Mission&#45;Manager API for DJI OSDK library. ">
<polygon fill="white" stroke="black" points="892,-280.5 892,-299.5 1019,-299.5 1019,-280.5 892,-280.5"/>
<text text-anchor="middle" x="955.5" y="-287.5" font-family="Helvetica,sans-Serif" font-size="10.00">dji_mission_manager.hpp</text>
</a>
</g>
</g>
<!-- Node10&#45;&gt;Node32 -->
<g id="edge48" class="edge"><title>Node10&#45;&gt;Node32</title>
<path fill="none" stroke="midnightblue" d="M1163.36,-336.444C1120.27,-327.023 1050.94,-311.866 1004.33,-301.675"/>
<polygon fill="midnightblue" stroke="midnightblue" points="1004.97,-298.233 994.455,-299.516 1003.48,-305.072 1004.97,-298.233"/>
</g>
<!-- Node36 -->
<g id="node36" class="node"><title>Node36</title>
<g id="a_node36"><a xlink:href="dji__mobile__communication_8hpp.html" target="_top" xlink:title="Implementation of DJI Mobile&#45;Onboard SDK Communication (MOC) ">
<polygon fill="white" stroke="black" points="1780.5,-168.5 1780.5,-187.5 1930.5,-187.5 1930.5,-168.5 1780.5,-168.5"/>
<text text-anchor="middle" x="1855.5" y="-175.5" font-family="Helvetica,sans-Serif" font-size="10.00">dji_mobile_communication.hpp</text>
</a>
</g>
</g>
<!-- Node10&#45;&gt;Node36 -->
<g id="edge57" class="edge"><title>Node10&#45;&gt;Node36</title>
<path fill="none" stroke="midnightblue" d="M1243.39,-343.743C1365.85,-339.705 1724.03,-325.795 1769.5,-300 1810.46,-276.76 1836.77,-225.042 1848.47,-197.346"/>
<polygon fill="midnightblue" stroke="midnightblue" points="1851.86,-198.292 1852.35,-187.709 1845.37,-195.673 1851.86,-198.292"/>
</g>
<!-- Node37 -->
<g id="node37" class="node"><title>Node37</title>
<polygon fill="white" stroke="#bfbfbf" points="1438.5,-280.5 1438.5,-299.5 1566.5,-299.5 1566.5,-280.5 1438.5,-280.5"/>
<text text-anchor="middle" x="1502.5" y="-287.5" font-family="Helvetica,sans-Serif" font-size="10.00">dji_platform_manager.hpp</text>
</g>
<!-- Node10&#45;&gt;Node37 -->
<g id="edge60" class="edge"><title>Node10&#45;&gt;Node37</title>
<path fill="none" stroke="midnightblue" d="M1243.27,-337.661C1295.44,-328.27 1386.12,-311.948 1445.22,-301.311"/>
<polygon fill="midnightblue" stroke="midnightblue" points="1445.92,-304.741 1455.14,-299.525 1444.68,-297.852 1445.92,-304.741"/>
</g>
<!-- Node38 -->
<g id="node38" class="node"><title>Node38</title>
<g id="a_node38"><a xlink:href="dji__status_8hpp.html" target="_top" xlink:title="Status information for DJI Vehicle. ">
<polygon fill="white" stroke="black" points="1585,-280.5 1585,-299.5 1662,-299.5 1662,-280.5 1585,-280.5"/>
<text text-anchor="middle" x="1623.5" y="-287.5" font-family="Helvetica,sans-Serif" font-size="10.00">dji_status.hpp</text>
</a>
</g>
</g>
<!-- Node10&#45;&gt;Node38 -->
<g id="edge61" class="edge"><title>Node10&#45;&gt;Node38</title>
<path fill="none" stroke="midnightblue" d="M1243.19,-340.97C1310.13,-334.149 1447.88,-319.308 1574.86,-300.005"/>
<polygon fill="midnightblue" stroke="midnightblue" points="1575.41,-303.462 1584.76,-298.487 1574.35,-296.543 1575.41,-303.462"/>
</g>
<!-- Node39 -->
<g id="node39" class="node"><title>Node39</title>
<g id="a_node39"><a xlink:href="dji__subscription_8hpp.html" target="_top" xlink:title="Telemetry Subscription API for DJI OSDK library. ">
<polygon fill="white" stroke="black" points="1344,-224.5 1344,-243.5 1447,-243.5 1447,-224.5 1344,-224.5"/>
<text text-anchor="middle" x="1395.5" y="-231.5" font-family="Helvetica,sans-Serif" font-size="10.00">dji_subscription.hpp</text>
</a>
</g>
</g>
<!-- Node10&#45;&gt;Node39 -->
<g id="edge62" class="edge"><title>Node10&#45;&gt;Node39</title>
<path fill="none" stroke="midnightblue" d="M1221.28,-336.441C1239.9,-327.787 1269.09,-313.761 1293.5,-300 1322.21,-283.815 1354.06,-263.042 1374.41,-249.391"/>
<polygon fill="midnightblue" stroke="midnightblue" points="1376.56,-252.159 1382.89,-243.662 1372.64,-246.357 1376.56,-252.159"/>
</g>
<!-- Node40 -->
<g id="node40" class="node"><title>Node40</title>
<g id="a_node40"><a xlink:href="dji__virtual__rc_8hpp.html" target="_top" xlink:title="Virtual Radio Control API for DJI onboardSDK library. ">
<polygon fill="white" stroke="black" points="1194.5,-280.5 1194.5,-299.5 1284.5,-299.5 1284.5,-280.5 1194.5,-280.5"/>
<text text-anchor="middle" x="1239.5" y="-287.5" font-family="Helvetica,sans-Serif" font-size="10.00">dji_virtual_rc.hpp</text>
</a>
</g>
</g>
<!-- Node10&#45;&gt;Node40 -->
<g id="edge70" class="edge"><title>Node10&#45;&gt;Node40</title>
<path fill="none" stroke="midnightblue" d="M1208.61,-336.083C1213.78,-328.534 1221.35,-317.495 1227.69,-308.23"/>
<polygon fill="midnightblue" stroke="midnightblue" points="1230.74,-309.979 1233.5,-299.751 1224.96,-306.022 1230.74,-309.979"/>
</g>
<!-- Node13 -->
<g id="node13" class="node"><title>Node13</title>
<g id="a_node13"><a xlink:href="dji__telemetry_8hpp.html" target="_top" xlink:title="Enumeration of all telemetry data types, structures and maps. ">
<polygon fill="white" stroke="black" points="1280,-168.5 1280,-187.5 1371,-187.5 1371,-168.5 1280,-168.5"/>
<text text-anchor="middle" x="1325.5" y="-175.5" font-family="Helvetica,sans-Serif" font-size="10.00">dji_telemetry.hpp</text>
</a>
</g>
</g>
<!-- Node12&#45;&gt;Node13 -->
<g id="edge13" class="edge"><title>Node12&#45;&gt;Node13</title>
<path fill="none" stroke="midnightblue" d="M1613.92,-225.492C1553,-215.671 1446.37,-198.484 1381.23,-187.984"/>
<polygon fill="midnightblue" stroke="midnightblue" points="1381.58,-184.494 1371.15,-186.358 1380.46,-191.405 1381.58,-184.494"/>
</g>
<!-- Node12&#45;&gt;Node17 -->
<g id="edge17" class="edge"><title>Node12&#45;&gt;Node17</title>
<path fill="none" stroke="midnightblue" d="M1659.95,-224.368C1658.82,-206.617 1656.22,-165.666 1654.68,-141.597"/>
<polygon fill="midnightblue" stroke="midnightblue" points="1658.17,-141.349 1654.05,-131.591 1651.19,-141.794 1658.17,-141.349"/>
</g>
<!-- Node13&#45;&gt;Node14 -->
<g id="edge14" class="edge"><title>Node13&#45;&gt;Node14</title>
<path fill="none" stroke="midnightblue" d="M1279.91,-169.34C1276.73,-168.867 1273.57,-168.415 1270.5,-168 1134.29,-149.573 972.388,-134.006 895.434,-126.989"/>
<polygon fill="midnightblue" stroke="midnightblue" points="895.426,-123.474 885.151,-126.057 894.794,-130.446 895.426,-123.474"/>
</g>
<!-- Node15 -->
<g id="node15" class="node"><title>Node15</title>
<polygon fill="white" stroke="#bfbfbf" points="829,-56.5 829,-75.5 872,-75.5 872,-56.5 829,-56.5"/>
<text text-anchor="middle" x="850.5" y="-63.5" font-family="Helvetica,sans-Serif" font-size="10.00">cstdio</text>
</g>
<!-- Node14&#45;&gt;Node15 -->
<g id="edge15" class="edge"><title>Node14&#45;&gt;Node15</title>
<path fill="none" stroke="midnightblue" d="M850.5,-112.083C850.5,-105.006 850.5,-94.8611 850.5,-85.9865"/>
<polygon fill="midnightblue" stroke="midnightblue" points="854,-85.751 850.5,-75.7511 847,-85.7511 854,-85.751"/>
</g>
<!-- Node16 -->
<g id="node16" class="node"><title>Node16</title>
<polygon fill="white" stroke="#bfbfbf" points="698,-0.5 698,-19.5 747,-19.5 747,-0.5 698,-0.5"/>
<text text-anchor="middle" x="722.5" y="-7.5" font-family="Helvetica,sans-Serif" font-size="10.00">stdint.h</text>
</g>
<!-- Node14&#45;&gt;Node16 -->
<g id="edge16" class="edge"><title>Node14&#45;&gt;Node16</title>
<path fill="none" stroke="midnightblue" d="M840.456,-112.368C818.772,-93.7334 767.338,-49.5324 740.11,-26.1338"/>
<polygon fill="midnightblue" stroke="midnightblue" points="742.363,-23.4546 732.497,-19.5914 737.8,-28.7636 742.363,-23.4546"/>
</g>
<!-- Node17&#45;&gt;Node18 -->
<g id="edge18" class="edge"><title>Node17&#45;&gt;Node18</title>
<path fill="none" stroke="midnightblue" d="M1637.11,-112.324C1620.83,-103.703 1595.63,-90.3643 1576.78,-80.3855"/>
<polygon fill="midnightblue" stroke="midnightblue" points="1578.32,-77.2402 1567.85,-75.6545 1575.05,-83.4267 1578.32,-77.2402"/>
</g>
<!-- Node19&#45;&gt;Node14 -->
<g id="edge24" class="edge"><title>Node19&#45;&gt;Node14</title>
<path fill="none" stroke="midnightblue" d="M689.765,-168.444C722.455,-159.201 774.682,-144.436 810.683,-134.257"/>
<polygon fill="midnightblue" stroke="midnightblue" points="811.706,-137.605 820.377,-131.516 809.802,-130.869 811.706,-137.605"/>
</g>
<!-- Node19&#45;&gt;Node20 -->
<g id="edge20" class="edge"><title>Node19&#45;&gt;Node20</title>
<path fill="none" stroke="midnightblue" d="M659.5,-168.083C659.5,-161.006 659.5,-150.861 659.5,-141.986"/>
<polygon fill="midnightblue" stroke="midnightblue" points="663,-141.751 659.5,-131.751 656,-141.751 663,-141.751"/>
</g>
<!-- Node20&#45;&gt;Node16 -->
<g id="edge23" class="edge"><title>Node20&#45;&gt;Node16</title>
<path fill="none" stroke="midnightblue" d="M670.843,-112.179C680.807,-103.859 695.004,-90.5244 703.5,-76 711.94,-61.5704 716.866,-43.1178 719.578,-29.5626"/>
<polygon fill="midnightblue" stroke="midnightblue" points="723.058,-29.9822 721.363,-19.5238 716.166,-28.7564 723.058,-29.9822"/>
</g>
<!-- Node21 -->
<g id="node21" class="node"><title>Node21</title>
<g id="a_node21"><a xlink:href="dji__error_8hpp.html" target="_top" xlink:title="All DJI OSDK OpenProtocol ACK Error Codes. ">
<polygon fill="white" stroke="black" points="624.5,-56.5 624.5,-75.5 694.5,-75.5 694.5,-56.5 624.5,-56.5"/>
<text text-anchor="middle" x="659.5" y="-63.5" font-family="Helvetica,sans-Serif" font-size="10.00">dji_error.hpp</text>
</a>
</g>
</g>
<!-- Node20&#45;&gt;Node21 -->
<g id="edge21" class="edge"><title>Node20&#45;&gt;Node21</title>
<path fill="none" stroke="midnightblue" d="M659.5,-112.083C659.5,-105.006 659.5,-94.8611 659.5,-85.9865"/>
<polygon fill="midnightblue" stroke="midnightblue" points="663,-85.751 659.5,-75.7511 656,-85.7511 663,-85.751"/>
</g>
<!-- Node21&#45;&gt;Node16 -->
<g id="edge22" class="edge"><title>Node21&#45;&gt;Node16</title>
<path fill="none" stroke="midnightblue" d="M669.622,-56.324C679.026,-48.2631 693.244,-36.0765 704.569,-26.3695"/>
<polygon fill="midnightblue" stroke="midnightblue" points="706.879,-28.9993 712.194,-19.8339 702.323,-23.6844 706.879,-28.9993"/>
</g>
<!-- Node23&#45;&gt;Node14 -->
<g id="edge38" class="edge"><title>Node23&#45;&gt;Node14</title>
<path fill="none" stroke="midnightblue" d="M1407.78,-280.453C1424.79,-273.548 1445.33,-261.971 1455.5,-244 1483.66,-194.261 1403.94,-177.198 1379.5,-168 1291.33,-134.82 1006.7,-125.936 895.556,-123.704"/>
<polygon fill="midnightblue" stroke="midnightblue" points="895.419,-120.2 885.354,-123.508 895.285,-127.199 895.419,-120.2"/>
</g>
<!-- Node23&#45;&gt;Node17 -->
<g id="edge39" class="edge"><title>Node23&#45;&gt;Node17</title>
<path fill="none" stroke="midnightblue" d="M1420.69,-280.491C1470.35,-269.751 1549.74,-251.745 1561.5,-244 1601.59,-217.611 1631.15,-167.652 1644.91,-140.928"/>
<polygon fill="midnightblue" stroke="midnightblue" points="1648.22,-142.135 1649.54,-131.623 1641.95,-139.016 1648.22,-142.135"/>
</g>
<!-- Node23&#45;&gt;Node18 -->
<g id="edge37" class="edge"><title>Node23&#45;&gt;Node18</title>
<path fill="none" stroke="midnightblue" d="M1410.26,-280.383C1430.05,-273.35 1455.46,-261.652 1472.5,-244 1517.63,-197.252 1539.63,-120.32 1547.71,-85.3383"/>
<polygon fill="midnightblue" stroke="midnightblue" points="1551.13,-86.0636 1549.86,-75.546 1544.3,-84.5643 1551.13,-86.0636"/>
</g>
<!-- Node24 -->
<g id="node24" class="node"><title>Node24</title>
<g id="a_node24"><a xlink:href="dji__ack_8hpp.html" target="_top" xlink:title="All DJI OSDK ACK parsing. ">
<polygon fill="white" stroke="black" points="1072.5,-224.5 1072.5,-243.5 1138.5,-243.5 1138.5,-224.5 1072.5,-224.5"/>
<text text-anchor="middle" x="1105.5" y="-231.5" font-family="Helvetica,sans-Serif" font-size="10.00">dji_ack.hpp</text>
</a>
</g>
</g>
<!-- Node23&#45;&gt;Node24 -->
<g id="edge28" class="edge"><title>Node23&#45;&gt;Node24</title>
<path fill="none" stroke="midnightblue" d="M1340.22,-281.09C1289.03,-271.038 1201.03,-253.759 1148.55,-243.454"/>
<polygon fill="midnightblue" stroke="midnightblue" points="1149.04,-239.983 1138.55,-241.49 1147.69,-246.852 1149.04,-239.983"/>
</g>
<!-- Node24&#45;&gt;Node14 -->
<g id="edge32" class="edge"><title>Node24&#45;&gt;Node14</title>
<path fill="none" stroke="midnightblue" d="M1104.49,-224.307C1102.37,-210.186 1096.09,-182.397 1078.5,-168 1051.04,-145.518 953.633,-132.683 895.395,-126.854"/>
<polygon fill="midnightblue" stroke="midnightblue" points="895.643,-123.362 885.352,-125.88 894.967,-130.329 895.643,-123.362"/>
</g>
<!-- Node24&#45;&gt;Node20 -->
<g id="edge29" class="edge"><title>Node24&#45;&gt;Node20</title>
<path fill="none" stroke="midnightblue" d="M1072.06,-229.809C1052.88,-228.016 1028.35,-225.787 1006.5,-224 951.538,-219.504 549.053,-228.383 511.5,-188 480.351,-154.503 548.864,-137.311 602.757,-129.24"/>
<polygon fill="midnightblue" stroke="midnightblue" points="603.556,-132.662 612.965,-127.792 602.572,-125.732 603.556,-132.662"/>
</g>
<!-- Node25 -->
<g id="node25" class="node"><title>Node25</title>
<g id="a_node25"><a xlink:href="dji__mission__type_8hpp.html" target="_top" xlink:title="Mission related data struct for DJI OSDK library. ">
<polygon fill="white" stroke="black" points="961.5,-168.5 961.5,-187.5 1069.5,-187.5 1069.5,-168.5 961.5,-168.5"/>
<text text-anchor="middle" x="1015.5" y="-175.5" font-family="Helvetica,sans-Serif" font-size="10.00">dji_mission_type.hpp</text>
</a>
</g>
</g>
<!-- Node24&#45;&gt;Node25 -->
<g id="edge30" class="edge"><title>Node24&#45;&gt;Node25</title>
<path fill="none" stroke="midnightblue" d="M1091.04,-224.324C1077,-215.9 1055.45,-202.971 1038.96,-193.074"/>
<polygon fill="midnightblue" stroke="midnightblue" points="1040.3,-189.798 1029.92,-187.655 1036.7,-195.801 1040.3,-189.798"/>
</g>
<!-- Node24&#45;&gt;Node26 -->
<g id="edge33" class="edge"><title>Node24&#45;&gt;Node26</title>
<path fill="none" stroke="midnightblue" d="M1123.72,-224.444C1142.4,-215.675 1171.66,-201.935 1193.12,-191.858"/>
<polygon fill="midnightblue" stroke="midnightblue" points="1194.8,-194.935 1202.36,-187.516 1191.82,-188.599 1194.8,-194.935"/>
</g>
<!-- Node27 -->
<g id="node27" class="node"><title>Node27</title>
<polygon fill="white" stroke="#bfbfbf" points="1126,-168.5 1126,-187.5 1161,-187.5 1161,-168.5 1126,-168.5"/>
<text text-anchor="middle" x="1143.5" y="-175.5" font-family="Helvetica,sans-Serif" font-size="10.00">map</text>
</g>
<!-- Node24&#45;&gt;Node27 -->
<g id="edge36" class="edge"><title>Node24&#45;&gt;Node27</title>
<path fill="none" stroke="midnightblue" d="M1111.77,-224.083C1117.14,-216.455 1125.02,-205.264 1131.58,-195.941"/>
<polygon fill="midnightblue" stroke="midnightblue" points="1134.45,-197.943 1137.34,-187.751 1128.72,-193.915 1134.45,-197.943"/>
</g>
<!-- Node25&#45;&gt;Node14 -->
<g id="edge31" class="edge"><title>Node25&#45;&gt;Node14</title>
<path fill="none" stroke="midnightblue" d="M989.355,-168.444C961.477,-159.32 917.152,-144.813 886.1,-134.651"/>
<polygon fill="midnightblue" stroke="midnightblue" points="887.115,-131.3 876.522,-131.516 884.938,-137.953 887.115,-131.3"/>
</g>
<!-- Node26&#45;&gt;Node11 -->
<g id="edge35" class="edge"><title>Node26&#45;&gt;Node11</title>
<path fill="none" stroke="midnightblue" d="M1230.78,-168.324C1240.34,-160.263 1254.78,-148.077 1266.28,-138.369"/>
<polygon fill="midnightblue" stroke="midnightblue" points="1268.64,-140.958 1274.03,-131.834 1264.13,-135.608 1268.64,-140.958"/>
</g>
<!-- Node26&#45;&gt;Node20 -->
<g id="edge34" class="edge"><title>Node26&#45;&gt;Node20</title>
<path fill="none" stroke="midnightblue" d="M1179.35,-169.423C1176.02,-168.907 1172.71,-168.424 1169.5,-168 1005.57,-146.345 810.585,-132.4 716.238,-126.395"/>
<polygon fill="midnightblue" stroke="midnightblue" points="716.259,-122.889 706.058,-125.753 715.818,-129.875 716.259,-122.889"/>
</g>
<!-- Node28&#45;&gt;Node14 -->
<g id="edge42" class="edge"><title>Node28&#45;&gt;Node14</title>
<path fill="none" stroke="midnightblue" d="M600.052,-169.579C602.911,-169.044 605.75,-168.514 608.5,-168 677.328,-155.148 757.183,-140.314 805.757,-131.299"/>
<polygon fill="midnightblue" stroke="midnightblue" points="806.438,-134.733 815.631,-129.467 805.161,-127.85 806.438,-134.733"/>
</g>
<!-- Node28&#45;&gt;Node20 -->
<g id="edge41" class="edge"><title>Node28&#45;&gt;Node20</title>
<path fill="none" stroke="midnightblue" d="M576.406,-168.324C592.138,-159.743 616.442,-146.486 634.709,-136.522"/>
<polygon fill="midnightblue" stroke="midnightblue" points="636.53,-139.516 643.633,-131.655 633.178,-133.37 636.53,-139.516"/>
</g>
<!-- Node30&#45;&gt;Node14 -->
<g id="edge45" class="edge"><title>Node30&#45;&gt;Node14</title>
<path fill="none" stroke="midnightblue" d="M697.919,-224.433C708.35,-210.98 730.174,-184.712 753.5,-168 772.735,-154.218 796.863,-143.005 816.243,-135.218"/>
<polygon fill="midnightblue" stroke="midnightblue" points="817.565,-138.46 825.613,-131.569 815.024,-131.937 817.565,-138.46"/>
</g>
<!-- Node31&#45;&gt;Node17 -->
<g id="edge47" class="edge"><title>Node31&#45;&gt;Node17</title>
<path fill="none" stroke="midnightblue" d="M1716.45,-168.324C1705.04,-160.107 1687.67,-147.602 1674.07,-137.807"/>
<polygon fill="midnightblue" stroke="midnightblue" points="1675.93,-134.837 1665.77,-131.834 1671.84,-140.517 1675.93,-134.837"/>
</g>
<!-- Node33 -->
<g id="node33" class="node"><title>Node33</title>
<g id="a_node33"><a xlink:href="dji__hotpoint_8hpp.html" target="_top" xlink:title="Implementation of HotPoint (Point of Interest) Missions for DJI OSDK. ">
<polygon fill="white" stroke="black" points="913,-224.5 913,-243.5 998,-243.5 998,-224.5 913,-224.5"/>
<text text-anchor="middle" x="955.5" y="-231.5" font-family="Helvetica,sans-Serif" font-size="10.00">dji_hotpoint.hpp</text>
</a>
</g>
</g>
<!-- Node32&#45;&gt;Node33 -->
<g id="edge49" class="edge"><title>Node32&#45;&gt;Node33</title>
<path fill="none" stroke="midnightblue" d="M955.5,-280.083C955.5,-273.006 955.5,-262.861 955.5,-253.986"/>
<polygon fill="midnightblue" stroke="midnightblue" points="959,-253.751 955.5,-243.751 952,-253.751 959,-253.751"/>
</g>
<!-- Node35 -->
<g id="node35" class="node"><title>Node35</title>
<g id="a_node35"><a xlink:href="dji__waypoint_8hpp.html" target="_top" xlink:title="Implementation of GPS Waypoint Missions for DJI OSDK. ">
<polygon fill="white" stroke="black" points="806,-224.5 806,-243.5 895,-243.5 895,-224.5 806,-224.5"/>
<text text-anchor="middle" x="850.5" y="-231.5" font-family="Helvetica,sans-Serif" font-size="10.00">dji_waypoint.hpp</text>
</a>
</g>
</g>
<!-- Node32&#45;&gt;Node35 -->
<g id="edge55" class="edge"><title>Node32&#45;&gt;Node35</title>
<path fill="none" stroke="midnightblue" d="M938.63,-280.324C921.791,-271.664 895.693,-258.242 876.262,-248.249"/>
<polygon fill="midnightblue" stroke="midnightblue" points="877.822,-245.116 867.328,-243.655 874.62,-251.341 877.822,-245.116"/>
</g>
<!-- Node33&#45;&gt;Node13 -->
<g id="edge54" class="edge"><title>Node33&#45;&gt;Node13</title>
<path fill="none" stroke="midnightblue" d="M998.084,-227.196C1056.77,-219.136 1166.06,-203.905 1269.87,-188.07"/>
<polygon fill="midnightblue" stroke="midnightblue" points="1270.54,-191.508 1279.89,-186.536 1269.48,-184.589 1270.54,-191.508"/>
</g>
<!-- Node34 -->
<g id="node34" class="node"><title>Node34</title>
<g id="a_node34"><a xlink:href="dji__mission__base_8hpp.html" target="_top" xlink:title="Mission&#45;Base abstract class for DJI OSDK library. ">
<polygon fill="white" stroke="black" points="795.5,-168.5 795.5,-187.5 905.5,-187.5 905.5,-168.5 795.5,-168.5"/>
<text text-anchor="middle" x="850.5" y="-175.5" font-family="Helvetica,sans-Serif" font-size="10.00">dji_mission_base.hpp</text>
</a>
</g>
</g>
<!-- Node33&#45;&gt;Node34 -->
<g id="edge50" class="edge"><title>Node33&#45;&gt;Node34</title>
<path fill="none" stroke="midnightblue" d="M938.63,-224.324C921.791,-215.664 895.693,-202.242 876.262,-192.249"/>
<polygon fill="midnightblue" stroke="midnightblue" points="877.822,-189.116 867.328,-187.655 874.62,-195.341 877.822,-189.116"/>
</g>
<!-- Node34&#45;&gt;Node14 -->
<g id="edge52" class="edge"><title>Node34&#45;&gt;Node14</title>
<path fill="none" stroke="midnightblue" d="M850.5,-168.083C850.5,-161.006 850.5,-150.861 850.5,-141.986"/>
<polygon fill="midnightblue" stroke="midnightblue" points="854,-141.751 850.5,-131.751 847,-141.751 854,-141.751"/>
</g>
<!-- Node34&#45;&gt;Node17 -->
<g id="edge53" class="edge"><title>Node34&#45;&gt;Node17</title>
<path fill="none" stroke="midnightblue" d="M905.534,-171.901C920.743,-170.559 937.256,-169.162 952.5,-168 1182.25,-150.492 1454.71,-134.316 1581.69,-127.042"/>
<polygon fill="midnightblue" stroke="midnightblue" points="1582.26,-130.515 1592.05,-126.45 1581.86,-123.526 1582.26,-130.515"/>
</g>
<!-- Node34&#45;&gt;Node20 -->
<g id="edge51" class="edge"><title>Node34&#45;&gt;Node20</title>
<path fill="none" stroke="midnightblue" d="M820.235,-168.444C787.545,-159.201 735.318,-144.436 699.317,-134.257"/>
<polygon fill="midnightblue" stroke="midnightblue" points="700.198,-130.869 689.623,-131.516 698.294,-137.605 700.198,-130.869"/>
</g>
<!-- Node35&#45;&gt;Node34 -->
<g id="edge56" class="edge"><title>Node35&#45;&gt;Node34</title>
<path fill="none" stroke="midnightblue" d="M850.5,-224.083C850.5,-217.006 850.5,-206.861 850.5,-197.986"/>
<polygon fill="midnightblue" stroke="midnightblue" points="854,-197.751 850.5,-187.751 847,-197.751 854,-197.751"/>
</g>
<!-- Node36&#45;&gt;Node17 -->
<g id="edge58" class="edge"><title>Node36&#45;&gt;Node17</title>
<path fill="none" stroke="midnightblue" d="M1823.49,-168.444C1788.77,-159.162 1733.21,-144.309 1695.12,-134.127"/>
<polygon fill="midnightblue" stroke="midnightblue" points="1695.92,-130.718 1685.36,-131.516 1694.11,-137.48 1695.92,-130.718"/>
</g>
<!-- Node39&#45;&gt;Node13 -->
<g id="edge64" class="edge"><title>Node39&#45;&gt;Node13</title>
<path fill="none" stroke="midnightblue" d="M1384.25,-224.324C1373.7,-216.185 1357.7,-203.839 1345.06,-194.087"/>
<polygon fill="midnightblue" stroke="midnightblue" points="1347.01,-191.171 1336.95,-187.834 1342.73,-196.713 1347.01,-191.171"/>
</g>
<!-- Node39&#45;&gt;Node17 -->
<g id="edge65" class="edge"><title>Node39&#45;&gt;Node17</title>
<path fill="none" stroke="midnightblue" d="M1415.74,-224.368C1461.05,-205.051 1570.8,-158.259 1623.83,-135.648"/>
<polygon fill="midnightblue" stroke="midnightblue" points="1625.52,-138.733 1633.35,-131.591 1622.78,-132.294 1625.52,-138.733"/>
</g>
<!-- Node39&#45;&gt;Node18 -->
<g id="edge63" class="edge"><title>Node39&#45;&gt;Node18</title>
<path fill="none" stroke="midnightblue" d="M1403.89,-224.075C1429.08,-197.267 1504.33,-117.19 1536.57,-82.8851"/>
<polygon fill="midnightblue" stroke="midnightblue" points="1539.15,-85.2522 1543.45,-75.5681 1534.05,-80.4584 1539.15,-85.2522"/>
</g>
<!-- Node40&#45;&gt;Node13 -->
<g id="edge74" class="edge"><title>Node40&#45;&gt;Node13</title>
<path fill="none" stroke="midnightblue" d="M1246.25,-280.368C1260.5,-262.135 1293.89,-219.426 1312.46,-195.675"/>
<polygon fill="midnightblue" stroke="midnightblue" points="1315.38,-197.625 1318.78,-187.591 1309.87,-193.314 1315.38,-197.625"/>
</g>
<!-- Node40&#45;&gt;Node14 -->
<g id="edge73" class="edge"><title>Node40&#45;&gt;Node14</title>
<path fill="none" stroke="midnightblue" d="M1195.29,-280.482C1159.2,-272.869 1107.2,-260.39 1063.5,-244 1011.76,-224.598 1000.53,-215.326 952.5,-188 923.853,-171.7 891.99,-150.953 871.624,-137.34"/>
<polygon fill="midnightblue" stroke="midnightblue" points="873.38,-134.303 863.128,-131.628 869.475,-140.112 873.38,-134.303"/>
</g>
<!-- Node40&#45;&gt;Node18 -->
<g id="edge72" class="edge"><title>Node40&#45;&gt;Node18</title>
<path fill="none" stroke="midnightblue" d="M1251.73,-280.297C1299.2,-246.518 1471.57,-123.871 1531.11,-81.5088"/>
<polygon fill="midnightblue" stroke="midnightblue" points="1533.24,-84.2919 1539.35,-75.6425 1529.18,-78.5883 1533.24,-84.2919"/>
</g>
<!-- Node40&#45;&gt;Node24 -->
<g id="edge71" class="edge"><title>Node40&#45;&gt;Node24</title>
<path fill="none" stroke="midnightblue" d="M1218.27,-280.444C1196.12,-271.517 1161.18,-257.439 1136.06,-247.317"/>
<polygon fill="midnightblue" stroke="midnightblue" points="1137.22,-244.008 1126.63,-243.516 1134.6,-250.501 1137.22,-244.008"/>
</g>
</g>
</svg>
