<?xml version="1.0" encoding="UTF-8" standalone="no"?>
<!DOCTYPE svg PUBLIC "-//W3C//DTD SVG 1.1//EN"
 "http://www.w3.org/Graphics/SVG/1.1/DTD/svg11.dtd">
<!-- Generated by graphviz version 2.40.1 (20161225.0304)
 -->
<!-- Title: osdk&#45;core/platform/linux/src/posix_thread_manager.cpp Pages: 1 -->
<svg width="204pt" height="162pt"
 viewBox="0.00 0.00 203.50 162.00" xmlns="http://www.w3.org/2000/svg" xmlns:xlink="http://www.w3.org/1999/xlink">
<g id="graph0" class="graph" transform="scale(1 1) rotate(0) translate(4 158)">
<title>osdk&#45;core/platform/linux/src/posix_thread_manager.cpp</title>
<polygon fill="#ffffff" stroke="transparent" points="-4,4 -4,-158 199.5,-158 199.5,4 -4,4"/>
<!-- Node0 -->
<g id="node1" class="node">
<title>Node0</title>
<g id="a_node1"><a xlink:title="Thread safety and data protection for DJI Onboard SDK on linux platforms.">
<polygon fill="#bfbfbf" stroke="#000000" points="55.5,-112.5 55.5,-153.5 170.5,-153.5 170.5,-112.5 55.5,-112.5"/>
<text text-anchor="start" x="63.5" y="-141.5" font-family="Helvetica,sans-Serif" font-size="10.00" fill="#000000">osdk&#45;core/platform</text>
<text text-anchor="start" x="63.5" y="-130.5" font-family="Helvetica,sans-Serif" font-size="10.00" fill="#000000">/linux/src/posix_thread</text>
<text text-anchor="middle" x="113" y="-119.5" font-family="Helvetica,sans-Serif" font-size="10.00" fill="#000000">_manager.cpp</text>
</a>
</g>
</g>
<!-- Node1 -->
<g id="node2" class="node">
<title>Node1</title>
<g id="a_node2"><a xlink:href="posix__thread__manager_8hpp.html" target="_top" xlink:title="Thread safety and data protection for DJI Onboard SDK on linux platforms.">
<polygon fill="#ffffff" stroke="#000000" points="46,-56.5 46,-75.5 180,-75.5 180,-56.5 46,-56.5"/>
<text text-anchor="middle" x="113" y="-63.5" font-family="Helvetica,sans-Serif" font-size="10.00" fill="#000000">posix_thread_manager.hpp</text>
</a>
</g>
</g>
<!-- Node0&#45;&gt;Node1 -->
<g id="edge1" class="edge">
<title>Node0&#45;&gt;Node1</title>
<path fill="none" stroke="#191970" d="M113,-112.168C113,-103.8226 113,-94.2471 113,-85.9879"/>
<polygon fill="#191970" stroke="#191970" points="116.5001,-85.7804 113,-75.7805 109.5001,-85.7805 116.5001,-85.7804"/>
</g>
<!-- Node2 -->
<g id="node3" class="node">
<title>Node2</title>
<g id="a_node3"><a xlink:title=" ">
<polygon fill="#ffffff" stroke="#bfbfbf" points="0,-.5 0,-19.5 120,-19.5 120,-.5 0,-.5"/>
<text text-anchor="middle" x="60" y="-7.5" font-family="Helvetica,sans-Serif" font-size="10.00" fill="#000000">dji_thread_manager.hpp</text>
</a>
</g>
</g>
<!-- Node1&#45;&gt;Node2 -->
<g id="edge2" class="edge">
<title>Node1&#45;&gt;Node2</title>
<path fill="none" stroke="#191970" d="M103.7681,-56.2455C96.1683,-48.2155 85.2123,-36.6394 76.1632,-27.0781"/>
<polygon fill="#191970" stroke="#191970" points="78.542,-24.4998 69.1261,-19.6427 73.4579,-29.3115 78.542,-24.4998"/>
</g>
<!-- Node3 -->
<g id="node4" class="node">
<title>Node3</title>
<g id="a_node4"><a xlink:title=" ">
<polygon fill="#ffffff" stroke="#bfbfbf" points="138.5,-.5 138.5,-19.5 195.5,-19.5 195.5,-.5 138.5,-.5"/>
<text text-anchor="middle" x="167" y="-7.5" font-family="Helvetica,sans-Serif" font-size="10.00" fill="#000000">pthread.h</text>
</a>
</g>
</g>
<!-- Node1&#45;&gt;Node3 -->
<g id="edge3" class="edge">
<title>Node1&#45;&gt;Node3</title>
<path fill="none" stroke="#191970" d="M122.4061,-56.2455C130.1493,-48.2155 141.312,-36.6394 150.5318,-27.0781"/>
<polygon fill="#191970" stroke="#191970" points="153.2798,-29.2706 157.7017,-19.6427 148.2409,-24.4117 153.2798,-29.2706"/>
</g>
</g>
</svg>
