<?xml version="1.0" encoding="UTF-8" standalone="no"?>
<!DOCTYPE svg PUBLIC "-//W3C//DTD SVG 1.1//EN"
 "http://www.w3.org/Graphics/SVG/1.1/DTD/svg11.dtd">
<!-- Generated by graphviz version 2.40.1 (20161225.0304)
 -->
<!-- Title: osdk&#45;core/platform/linux/inc/posix_thread.hpp Pages: 1 -->
<svg width="480pt" height="151pt"
 viewBox="0.00 0.00 479.50 151.00" xmlns="http://www.w3.org/2000/svg" xmlns:xlink="http://www.w3.org/1999/xlink">
<g id="graph0" class="graph" transform="scale(1 1) rotate(0) translate(4 147)">
<title>osdk&#45;core/platform/linux/inc/posix_thread.hpp</title>
<polygon fill="#ffffff" stroke="transparent" points="-4,4 -4,-147 475.5,-147 475.5,4 -4,4"/>
<!-- Node0 -->
<g id="node1" class="node">
<title>Node0</title>
<g id="a_node1"><a xlink:title="Pthread&#45;based threading for DJI Onboard SDK Linux.">
<polygon fill="#bfbfbf" stroke="#000000" points="288.5,-112.5 288.5,-142.5 421.5,-142.5 421.5,-112.5 288.5,-112.5"/>
<text text-anchor="start" x="296.5" y="-130.5" font-family="Helvetica,sans-Serif" font-size="10.00" fill="#000000">osdk&#45;core/platform</text>
<text text-anchor="middle" x="355" y="-119.5" font-family="Helvetica,sans-Serif" font-size="10.00" fill="#000000">/linux/inc/posix_thread.hpp</text>
</a>
</g>
</g>
<!-- Node1 -->
<g id="node2" class="node">
<title>Node1</title>
<g id="a_node2"><a xlink:href="dji__log_8hpp.html" target="_top" xlink:title="Logging mechanism for printing status and error messages to the screen.">
<polygon fill="#ffffff" stroke="#000000" points="204.5,-56.5 204.5,-75.5 267.5,-75.5 267.5,-56.5 204.5,-56.5"/>
<text text-anchor="middle" x="236" y="-63.5" font-family="Helvetica,sans-Serif" font-size="10.00" fill="#000000">dji_log.hpp</text>
</a>
</g>
</g>
<!-- Node0&#45;&gt;Node1 -->
<g id="edge1" class="edge">
<title>Node0&#45;&gt;Node1</title>
<path fill="none" stroke="#191970" d="M325.8893,-112.4554C306.8176,-102.599 282.0518,-89.7999 263.3461,-80.1327"/>
<polygon fill="#191970" stroke="#191970" points="264.9315,-77.0122 254.4408,-75.5303 261.7176,-83.2309 264.9315,-77.0122"/>
</g>
<!-- Node5 -->
<g id="node6" class="node">
<title>Node5</title>
<g id="a_node6"><a xlink:title=" ">
<polygon fill="#ffffff" stroke="#bfbfbf" points="298,-.5 298,-19.5 418,-19.5 418,-.5 298,-.5"/>
<text text-anchor="middle" x="358" y="-7.5" font-family="Helvetica,sans-Serif" font-size="10.00" fill="#000000">dji_thread_manager.hpp</text>
</a>
</g>
</g>
<!-- Node0&#45;&gt;Node5 -->
<g id="edge6" class="edge">
<title>Node0&#45;&gt;Node5</title>
<path fill="none" stroke="#191970" d="M351.3059,-112.4293C348.2329,-97.9552 344.7038,-75.4754 347,-56 348.0429,-47.1546 350.1768,-37.5467 352.29,-29.4104"/>
<polygon fill="#191970" stroke="#191970" points="355.6694,-30.3213 354.9625,-19.7501 348.9228,-28.4548 355.6694,-30.3213"/>
</g>
<!-- Node6 -->
<g id="node7" class="node">
<title>Node6</title>
<g id="a_node7"><a xlink:title=" ">
<polygon fill="#ffffff" stroke="#bfbfbf" points="355.5,-56.5 355.5,-75.5 412.5,-75.5 412.5,-56.5 355.5,-56.5"/>
<text text-anchor="middle" x="384" y="-63.5" font-family="Helvetica,sans-Serif" font-size="10.00" fill="#000000">pthread.h</text>
</a>
</g>
</g>
<!-- Node0&#45;&gt;Node6 -->
<g id="edge7" class="edge">
<title>Node0&#45;&gt;Node6</title>
<path fill="none" stroke="#191970" d="M362.1685,-112.2977C366.0682,-104.0277 370.928,-93.7215 375.0718,-84.9339"/>
<polygon fill="#191970" stroke="#191970" points="378.2573,-86.3846 379.3567,-75.8469 371.9259,-83.399 378.2573,-86.3846"/>
</g>
<!-- Node7 -->
<g id="node8" class="node">
<title>Node7</title>
<g id="a_node8"><a xlink:title=" ">
<polygon fill="#ffffff" stroke="#bfbfbf" points="430.5,-56.5 430.5,-75.5 471.5,-75.5 471.5,-56.5 430.5,-56.5"/>
<text text-anchor="middle" x="451" y="-63.5" font-family="Helvetica,sans-Serif" font-size="10.00" fill="#000000">string</text>
</a>
</g>
</g>
<!-- Node0&#45;&gt;Node7 -->
<g id="edge8" class="edge">
<title>Node0&#45;&gt;Node7</title>
<path fill="none" stroke="#191970" d="M378.7303,-112.2977C393.5362,-102.8127 412.5228,-90.6495 427.3193,-81.1705"/>
<polygon fill="#191970" stroke="#191970" points="429.3835,-84.0047 435.9159,-75.6633 425.6075,-78.1105 429.3835,-84.0047"/>
</g>
<!-- Node2 -->
<g id="node3" class="node">
<title>Node2</title>
<g id="a_node3"><a xlink:title=" ">
<polygon fill="#ffffff" stroke="#bfbfbf" points="0,-.5 0,-19.5 86,-19.5 86,-.5 0,-.5"/>
<text text-anchor="middle" x="43" y="-7.5" font-family="Helvetica,sans-Serif" font-size="10.00" fill="#000000">dji_memory.hpp</text>
</a>
</g>
</g>
<!-- Node1&#45;&gt;Node2 -->
<g id="edge2" class="edge">
<title>Node1&#45;&gt;Node2</title>
<path fill="none" stroke="#191970" d="M204.13,-56.7527C171.7369,-47.3537 121.3619,-32.7371 85.5686,-22.3515"/>
<polygon fill="#191970" stroke="#191970" points="86.466,-18.9676 75.8867,-19.5423 84.5153,-25.6903 86.466,-18.9676"/>
</g>
<!-- Node3 -->
<g id="node4" class="node">
<title>Node3</title>
<g id="a_node4"><a xlink:title=" ">
<polygon fill="#ffffff" stroke="#bfbfbf" points="104.5,-.5 104.5,-19.5 173.5,-19.5 173.5,-.5 104.5,-.5"/>
<text text-anchor="middle" x="139" y="-7.5" font-family="Helvetica,sans-Serif" font-size="10.00" fill="#000000">dji_type.hpp</text>
</a>
</g>
</g>
<!-- Node1&#45;&gt;Node3 -->
<g id="edge3" class="edge">
<title>Node1&#45;&gt;Node3</title>
<path fill="none" stroke="#191970" d="M219.1039,-56.2455C204.082,-47.5731 181.8957,-34.7645 164.679,-24.825"/>
<polygon fill="#191970" stroke="#191970" points="166.1128,-21.6114 155.7025,-19.6427 162.6129,-27.6737 166.1128,-21.6114"/>
</g>
<!-- Node4 -->
<g id="node5" class="node">
<title>Node4</title>
<g id="a_node5"><a xlink:title=" ">
<polygon fill="#ffffff" stroke="#bfbfbf" points="191.5,-.5 191.5,-19.5 280.5,-19.5 280.5,-.5 191.5,-.5"/>
<text text-anchor="middle" x="236" y="-7.5" font-family="Helvetica,sans-Serif" font-size="10.00" fill="#000000">dji_singleton.hpp</text>
</a>
</g>
</g>
<!-- Node1&#45;&gt;Node4 -->
<g id="edge4" class="edge">
<title>Node1&#45;&gt;Node4</title>
<path fill="none" stroke="#191970" d="M236,-56.2455C236,-48.9382 236,-38.6944 236,-29.7046"/>
<polygon fill="#191970" stroke="#191970" points="239.5001,-29.6426 236,-19.6427 232.5001,-29.6427 239.5001,-29.6426"/>
</g>
<!-- Node1&#45;&gt;Node5 -->
<g id="edge5" class="edge">
<title>Node1&#45;&gt;Node5</title>
<path fill="none" stroke="#191970" d="M256.9725,-56.3733C276.5567,-47.3838 305.9961,-33.8706 328.051,-23.7471"/>
<polygon fill="#191970" stroke="#191970" points="329.6729,-26.8538 337.3011,-19.5011 326.7527,-20.4919 329.6729,-26.8538"/>
</g>
</g>
</svg>
